<svg id="Layer_1" xmlns="http://www.w3.org/2000/svg" viewBox="0 0 1280 1024"><style>.st4{fill-rule:evenodd;clip-rule:evenodd;fill:#bfbaa9}</style><path d="M388.5 202c85.3 0 154.5 69.2 154.5 154.5S473.8 511 388.5 511 234 441.8 234 356.5 303.2 202 388.5 202z" fill-rule="evenodd" clip-rule="evenodd" fill="#ffecc5"/><path d="M701 464.7l.4-37.8 4.9-3.3 2.4 7.8 1.2-19.6 6.9-20.9 11.4.7v28L732 391l16.3 2.6s-3.3 17.5.8 25.4c4.1 8 13.5 9.1 13.5 9.1L765 466l-64-1.3zm170.6-8.7s16.2-33.6 13.2-79h17.6s-7.7 76.2 3.3 84l1.1-30 5.5-7-.5 17 5-16 5-1 3.8 24v-61h9.9l3.3 17 2.8-24 9.9-3 1.1 42 3.3-36 5-2 8.2 100h-99l1.5-25z" fill-rule="evenodd" clip-rule="evenodd" fill="#f5f4ed"/><path d="M858 480s-46.9-1-61-17c-16.8-19.1-22-51.3-41-49-19.7 2.4-25.9 31.1-47 17-23.9-15.9-49.6-44.9-72-38-40.2 12.5-36.1 58-110 58-51.4 0-73.1-31.1-112-22-51.8 12.1-50.9 29-103 29-53.7 0-61.5-62.4-105-59-21 1.6-109.1 82-179 82-32.4 0-117.6 8.4-123 3l-2 46h909l46-50z" fill-rule="evenodd" clip-rule="evenodd" fill="#ded7c7"/><path d="M444 493s80.7-105.6 147-93c66.3 12.6 52.6 56 137 56s72.6-33.4 123-49c50.4-15.6 67.9 51 120 38 52.1-13 84.3-51.3 155-25 46.3 17.2 48.9 61 167 61 92.3 0 62 49 62 49H446l-2-37z" fill-rule="evenodd" clip-rule="evenodd" fill="#ebe5d6"/><path class="st4" d="M168.4 460.5c-4.1-.9-3.6 3.5-6 10.2-1.2 3.2-3.5 4.2-5.6 4.3 1.5-7.9 2.4-18.2 2-27.9 14.5-1.9 10.7-22.9 5.5-21.7-4.1.9-1.7 4.7-1 11.7.5 4.4-2.4 6.2-4.7 7-.6-7.8-2.1-14.9-5-19.7-8.2-13.3-26.6-8.6-12.8 13.7 2.1 3.4 3.7 6.9 4.9 10.5-1.8.7-4.8 1.4-6.6-.5-2.7-2.8-2.9-5.1-6-3.8-3.9 1.6 3 10.5 13.1 5.8 1.6 5.5 2.4 11 2.5 16.1-2 1.1-4.8 1.7-7.7-.9-5.2-4.8-6.8-8.9-10-6.2-3.7 3.1 7.8 16.2 17.7 10.9-.3 13-3.8 23.1-3.8 23.1h5.6s3.6-6.8 5.6-14.7c12.4 1.8 17.3-16.8 12.3-17.9zM74.2 485s5.8-16.2-2.2-28.7c-7.4-11.7.6-9.6 5-2.6 3.8 6 5 14.4 3.5 22.3-.9 4.7-3.3 9-3.3 9"/><path class="st4" d="M80 468.6s3.3 1.3 4.4-1.6c1.1-2.8.9-4.8 2.7-4.4 2.5.5-.5 10.3-7.5 7l.4-1zm-4.7-7.4s-3.6 1.7-5.1-1.4c-1.4-3.2-1.3-5.3-3.4-4.7-2.8.8 1.3 11.7 9 7.4l-.5-1.3zm1119.6-6.5c-2.7-.8-2.6 2.1-4.5 6.1-1.5 3.2-4.7 2.5-6.1 2.1.6-2.4 1.6-4.8 3-7.1 7-11-.6-9-4.7-2.5-1.3 2.1-2.3 4.5-3 7.1-1 .3-4 .9-5.1-2.2-1.4-3.8-1.1-6.3-3.4-5.8-3 .7.3 12.4 8.2 9.8-.7 3.9-.7 8.1.1 12.2.9 4.4 3.1 8.6 3.1 8.6h2.9s-3.2-8.9-1.4-18.3c9.4 4.2 14.4-9 10.9-10zm-169.4-23.3c-4.2-1.7-4.5 1.4-8.2 5.3-2.5 2.6-6.5 1.7-9 .8 18.4-30.2-6.9-36.5-18.1-18.3-4.1 6.6-6.2 16.5-7 27.3-3.1-1.1-7.1-3.6-6.4-9.6 1-9.7 4.3-14.9-1.3-16.2-7.2-1.7-12.5 27.3 7.5 29.9-.6 13.8.8 28.6 2.9 39.6 2.4 12.3 8.5 23.9 8.5 23.9h7.8s-4.8-13.9-5.2-32c19.2 6.3 27.1-22 19.9-23.7-5.6-1.3-5 4.8-8.3 14-2.4 6.7-8.5 6.3-11.6 5.6.2-12.3 2.7-26 10.1-38.5 14.1 6.5 23.8-5.9 18.4-8.1z"/><path fill-rule="evenodd" clip-rule="evenodd" fill="#eaeaea" d="M-95 484h1505.4v372.4H-95z"/></svg>