<svg xmlns="http://www.w3.org/2000/svg" viewBox="0 0 157.8 89"><path d="M105.4 89H67.9C61 89 57 85.4 56.8 79.5c-.1-5.1 3.5-9.2 8.8-9.4 3.8-.2 7.7-.1 11.5 0 3.9.1 7.6-.8 7.5-5.2-.1-4-3.6-4.9-7.3-4.9-21.7.1-43.3-.3-65 .2-10 .1-14.9-9.7-10.9-17.3C3.5 38.6 7 37 11.5 37c9.3 0 18.7-.1 28 0 3.6.1 6.7-1 7.1-4.7.3-3.4-2.3-4.9-5.8-5.5-7.8-1.3-11.8-7.5-11-16.3C30.3 4.6 36.2 0 43.4 0h45c7.4 0 12.1 4.4 12.4 11.4.3 9-4.1 14.9-11.6 15.5-.7.1-1.3 0-2 0-3 .4-5.5 1.3-5.4 5.1.1 3.9 2.7 4.6 5.7 4.8 3 .2 6 0 9 0H145c7.8 0 12.8 4.5 12.8 11.5s-5 11.4-12.9 11.5c-6.2 0-12.3.1-18.5 0-3.5 0-6.3 1.4-6.4 4.8-.1 3.7 2.8 5.3 6.5 5.2 6-.1 12-.1 18 0 6.2 0 9.2 2.8 9.3 8.5.1 6.3-3.4 10.4-9.4 10.4-13 .4-26 .3-39 .3z" fill="#f7f7f7"/></svg>