<svg xmlns="http://www.w3.org/2000/svg" viewBox="0 0 239.4 78"><path d="M80.4 25h64c1.3 0 2.7.2 4-.1 3.1-.7 5.1-2.6 4.8-6-.3-3.1-2.5-4-5.3-3.9-7 .1-14 0-21 0-1.2 0-2.3.1-3.5 0-4.5-.5-8.4-4.8-8.1-8.6.3-3.8 3.8-6.3 8.6-6.3h79c5.8 0 8.2 1.9 8.3 6.2.1 5.4-2.9 8.6-8.6 8.7-3 .1-6 .1-9 0-3.2-.1-6.4.3-6.3 4.4.1 4.1 2.8 5.6 6.7 5.6 10-.1 20 0 30 0 1.5 0 3 0 4.5.3 8.1 1.8 11.6 7.3 10.7 16.4-.7 6.8-6.2 11.3-14.1 11.3h-115c-3.3.1-5.7 1.8-5.7 5s2.4 5 5.7 5h26c6.6 0 9.2 2.1 9.1 7.2-.1 5-3.4 7.8-9.3 7.8H59.4c-5.6 0-9-2.6-9.1-6.8-.1-5 3.3-8.1 9-8.2 1.7 0 3.3-.1 5 0 4.1.4 5.9-1.9 5.9-5.6 0-3.8-2.6-4.5-5.8-4.5-16.8 0-33.7.1-50.5 0-6.3 0-11.2-3.4-12.9-8.4-2.1-6.4-.7-12.9 3.7-16.4 3-2.4 6.5-3.2 10.3-3.2 21.7.1 43.6.1 65.4.1z" fill="#f6f6f6"/></svg>