<?xml version="1.0" encoding="utf-8"?>
<!-- Generator: Adobe Illustrator 23.0.4, SVG Export Plug-In . SVG Version: 6.00 Build 0)  -->
<svg version="1.1" id="Layer_1" xmlns="http://www.w3.org/2000/svg" xmlns:xlink="http://www.w3.org/1999/xlink" x="0px" y="0px"
	 viewBox="0 0 24 24" style="enable-background:new 0 0 24 24;" xml:space="preserve">
<style type="text/css">
	.st0{fill-rule:evenodd;clip-rule:evenodd; }
	.st1{fill-rule:evenodd;clip-rule:evenodd;fill:#FFFFFF;}
</style>
<circle id="Oval" class="st0" cx="12" cy="12" r="12"/>
<g>
	<path class="st1" d="M14.616,17.296c-0.199,0.484-1.334,0.815-2.616,0.815c-1.366,0-2.4-0.376-2.467-0.912
		C9.197,17.395,9,17.633,9,17.888C9,18.556,10.343,19,12,19s3-0.444,3-1.112C15,17.673,14.861,17.471,14.616,17.296z"/>
	<path class="st1" d="M16.698,7.837c-0.802-1.068-1.808-0.958-2.612-0.347C14.033,7.395,14,7.288,14,7.152C14,6.648,14,6.266,14,6h1
		c0-0.552-0.448-1-1-1h-4C9.448,5,9,5.448,9,6h0.988c0,0.225,0,0.604,0,1.152c0,0.138-0.023,0.249-0.062,0.345
		C9.12,6.879,8.107,6.763,7.302,7.837c-1.118,1.882,1.295,3.481,0.451,4.738c-0.389,0.579-0.067,0.708,0.932,0.409
		c0.334,1.751,0.923,3.176,1.303,3.558c0.553,0.555,3.669,0.66,4.151,0.014c0.33-0.443,0.875-1.843,1.189-3.569
		c0.989,0.294,1.307,0.164,0.92-0.412C15.403,11.318,17.817,9.719,16.698,7.837z M8.134,8.395c0.295-0.36,0.69-0.404,1.074-0.192
		c-0.368,0.319-0.731,0.829-0.771,2.05c-0.021-0.046-0.037-0.086-0.059-0.134C7.966,9.221,7.897,8.828,8.134,8.395z M15.623,10.12
		c-0.022,0.048-0.038,0.088-0.059,0.134c-0.039-1.178-0.378-1.731-0.733-2.075c0.372-0.189,0.751-0.131,1.036,0.217
		C16.103,8.828,16.034,9.221,15.623,10.12z"/>
</g>
</svg>
