<svg xmlns="http://www.w3.org/2000/svg" width="30" height="30"><path fill="#DF9767" d="M29.9 15c0 8.3-6.7 15-15 15s-15-6.7-15-15C0 6.7 6.7 0 15 0c8.2 0 14.9 6.7 14.9 15"/><g fill="#FFF"><path d="M10.3 4.4h9.3c.3.3.3.6.1.6h-9.5c-.3 0-.1-.5.1-.6zm.9 1.4h1.4c.2 0-.8 3.4-.8 3.6 0 2.2 2 4 2.7 5.1.2-.4-2.7-4.5-2-5.2.9-1.9 1-3.5 1.1-3.5h5c0 .5-.2.9-.3 1.3-.2 2.4 1.8 2.9 2.7 4.1 1.1 1.4 1.2 3.3.8 5-.1.3-4.7 2.2-4.8 2.5 0 .1-2.1 2.4-2.5 3.3.5.6 3.3-2.7 3.5-2.8 1.2-.5 3.6-2.2 3.6-2-.3.7-.8 1.7-1.2 2.2-.7 1-3 2.6-2.3 3.9.3.5 1.2.5 1.3 1 .3 1.1-.9.9-1.8 1-1.4.1-3.6.1-5.2 0-1.2-.1-2.1 0-1.9-.9.1-.8 1.4-.4 1.5-1.6 0-1-1.7-2.5-2.4-3.4-1.5-2.1-2.8-5.6-.8-8.2 1.1-1.4 3.6-2 2.5-5.2-.1-.1-.1-.2-.1-.2z"/><path d="M10.6 9.1c-.1-.9-.1-1.7-.8-1.8-1.5-.2-1.8 2.3-1.1 3.6-.3.5-.6 1.2-1.1 1.6-.5-.3-.2-.8.2-1.1-.3-1.2-.8-2.1-.4-3.3 1-2.9 5.5-1.4 3.2 1zm11.5 2.2c.2.3.7.8.2 1.1-.5-.4-.7-1-1.1-1.6.7-1.3.5-3.6-1-3.5-.8.1-.8.8-.9 1.8-2.3-2.3 2.2-4 3.2-1 .4 1.1 0 2.1-.4 3.2z"/></g><path fill="none" d="M.1 15c0 8.3 6.7 15 15 15s15-6.7 15-15-6.7-15-15-15S.1 6.7.1 15"/></svg>