<svg xmlns="http://www.w3.org/2000/svg" viewBox="0 0 24 24"><circle cx="12" cy="12" r="12"/><path d="M14.6 17.3c-.2.5-1.3.8-2.6.8-1.4 0-2.4-.4-2.5-.9-.3.2-.5.4-.5.7 0 .7 1.3 1.1 3 1.1s3-.4 3-1.1c0-.2-.1-.4-.4-.6zm2.1-9.5c-.8-1.1-1.8-1-2.6-.3-.1-.1-.1-.2-.1-.3V6h1c0-.6-.4-1-1-1h-4c-.6 0-1 .4-1 1h1v1.2c0 .1 0 .2-.1.3-.8-.6-1.8-.7-2.6.3-1.1 1.9 1.3 3.5.5 4.7-.4.6-.1.7.9.4.3 1.8.9 3.2 1.3 3.6.6.6 3.7.7 4.2 0 .3-.4.9-1.8 1.2-3.6 1 .3 1.3.2.9-.4-.9-1.2 1.5-2.8.4-4.7zm-8.3 2.5s0-.1-.1-.1c-.3-1-.4-1.4-.2-1.8.3-.4.7-.4 1.1-.2-.4.3-.7.8-.8 2.1zm7.2-.2s0 .1-.1.1c0-1.2-.4-1.7-.7-2.1.4-.2.8-.1 1 .2.3.5.2.9-.2 1.8z" fill-rule="evenodd" clip-rule="evenodd" fill="#fff"/></svg>