<svg xmlns="http://www.w3.org/2000/svg" viewBox="0 0 24 24"><circle cx="12" cy="12" r="12"/><g fill-rule="evenodd" clip-rule="evenodd" fill="#fff"><path d="M14.616 17.296c-.199.484-1.334.815-2.616.815-1.366 0-2.4-.376-2.467-.912-.336.196-.533.434-.533.689C9 18.556 10.343 19 12 19s3-.444 3-1.112c0-.215-.139-.417-.384-.592zM16.698 7.837c-.802-1.068-1.808-.958-2.612-.347A.669.669 0 0114 7.152V6h1a1 1 0 00-1-1h-4a1 1 0 00-1 1h.988v1.152a.898.898 0 01-.062.345c-.806-.618-1.819-.734-2.624.34-1.118 1.882 1.295 3.481.451 4.738-.389.579-.067.708.932.409.334 1.751.923 3.176 1.303 3.558.553.555 3.669.66 4.151.014.33-.443.875-1.843 1.189-3.569.989.294 1.307.164.92-.412-.845-1.257 1.569-2.856.45-4.738zm-8.564.558c.295-.36.69-.404 1.074-.192-.368.319-.731.829-.771 2.05l-.059-.134c-.412-.898-.481-1.291-.244-1.724zm7.489 1.725l-.059.134c-.039-1.178-.378-1.731-.733-2.075.372-.189.751-.131 1.036.217.236.432.167.825-.244 1.724z"/></g></svg>