<?xml version="1.0" encoding="utf-8"?>
<!-- Generator: Adobe Illustrator 23.0.4, SVG Export Plug-In . SVG Version: 6.00 Build 0)  -->
<svg version="1.1" id="Layer_1" xmlns="http://www.w3.org/2000/svg" xmlns:xlink="http://www.w3.org/1999/xlink" x="0px" y="0px"
	 viewBox="0 0 24 24" style="enable-background:new 0 0 24 24;" xml:space="preserve">
<style type="text/css">
	.st0{fill-rule:evenodd;clip-rule:evenodd;}
	.st1{fill-rule:evenodd;clip-rule:evenodd;fill:#FFFFFF;}
</style>
<path id="Path" class="st0" d="M12,0C5.36,0,0,5.36,0,12s5.36,12,12,12s12-5.36,12-12S18.64,0,12,0z"/>
<path class="st1" d="M10,9h4c0.552,0,1-0.448,1-1s-0.448-1-1-1h-0.045c-0.292-0.714-0.667-1.204-1.13-1.454
	C12.933,5.389,13,5.201,13,5c0-0.552-0.448-1-1-1s-1,0.448-1,1c0,0.201,0.067,0.389,0.175,0.546c-0.463,0.25-0.838,0.74-1.13,1.454
	H10C9.448,7,9,7.448,9,8S9.448,9,10,9z"/>
<path class="st1" d="M14.341,10h-4.39C9.512,10,9,10.423,9,10.845v8.38C9,19.648,9.512,20,9.951,20h4.39
	C14.781,20,15,19.648,15,19.225v-8.38C15,10.423,14.781,10,14.341,10z M13.5,15h-1c-0.276,0-0.5-0.224-0.5-0.5s0.224-0.5,0.5-0.5h1
	c0.276,0,0.5,0.224,0.5,0.5S13.776,15,13.5,15z M13.5,13h-2c-0.276,0-0.5-0.224-0.5-0.5s0.224-0.5,0.5-0.5h2
	c0.276,0,0.5,0.224,0.5,0.5S13.776,13,13.5,13z"/>
</svg>
