<svg xmlns="http://www.w3.org/2000/svg" width="30" height="30"><path fill="#E49FC6" d="M30 15c0 8.3-6.7 15-15 15S0 23.3 0 15 6.7 0 15 0s15 6.7 15 15"/><g fill="#FFF"><path d="M16.3 6.1c.9.2 1.6.5 1.5 1.7h-5.7c.1-1 .4-1.6 1.5-1.6-1.1-3.9 4.1-3.6 2.7-.1z"/><path d="M15 8.1h-2.9v-.2c.1-.7.3-1.7 1.5-1.7-.3-1.1-.1-1.8.2-2.2.3-.4.8-.6 1.3-.6s1 .2 1.3.7c.4.5.4 1.2.1 2 .8.2 1.6.7 1.5 1.9v.2h-.1c-1.1-.1-2-.1-2.9-.1z"/></g><path fill="#FFF" d="M11.3 11.1c-.3-.3-.4-.6-.4-1.1 0-.5.1-.8.4-1.1h7.5c.6.6.6 1.7.1 2.2h-7.6z"/><g fill="#FFF"><path d="M18.2 25c0 .3.2.4-.1.4H12c-.3 0-.5-.1-.5-.4V13.1c0-.3.2-.5.5-.5h6c.3 0 .1.2.1.5V25z"/><path d="M18 26.1h-6c-.6 0-1.3-.5-1.3-1.1V13.1c0-.6.7-1.2 1.3-1.2h6c.6 0 .9.6.9 1.2V25c0 .6-.3 1.1-.9 1.1z"/></g><path fill="#E3A5BE" d="M15.2 14.1h2.2v.8h-2.2zm0 2.2h2.2v.8h-2.2zm0 2.3h2.2v.8h-2.2z"/></svg>