<svg xmlns="http://www.w3.org/2000/svg" viewBox="0 0 24 24"><path d="M12 0C5.4 0 0 5.4 0 12s5.4 12 12 12 12-5.4 12-12S18.6 0 12 0z" fill-rule="evenodd" clip-rule="evenodd" fill="#95a5b9"/><g fill="#fff"><path d="M14.3 20H10c-.4 0-1-.4-1-.8v-8.4c0-.4.5-.8 1-.8h4.4c.4 0 .7.4.7.8v8.4c-.1.4-.3.8-.8.8zm-2.8-8c-.3 0-.5.2-.5.5s.2.5.5.5h2c.3 0 .5-.2.5-.5s-.2-.5-.5-.5h-2zm1 2c-.3 0-.5.2-.5.5s.2.5.5.5h1c.3 0 .5-.2.5-.5s-.2-.5-.5-.5h-1z"/><path d="M14 7c-.3-.7-.7-1.2-1.2-1.5.1-.1.2-.3.2-.5 0-.6-.4-1-1-1s-1 .4-1 1c0 .2.1.4.2.5-.5.3-.8.7-1.1 1.5-.6 0-1 .4-1 1s.4 1 1 1h4c.6 0 1-.4 1-1s-.5-1-1.1-1z" fill-rule="evenodd" clip-rule="evenodd"/></g></svg>