<svg xmlns="http://www.w3.org/2000/svg" viewBox="0 0 24 24"><path d="M12 0C5.36 0 0 5.36 0 12s5.36 12 12 12 12-5.36 12-12S18.64 0 12 0z"/><path d="M10 9h4a1 1 0 000-2h-.045c-.292-.714-.667-1.204-1.13-1.454A.964.964 0 0013 5a1 1 0 00-2 0c0 .201.067.389.175.546-.463.25-.838.74-1.13 1.454H10a1 1 0 000 2zM14.341 10h-4.39c-.439 0-.951.423-.951.845v8.38c0 .423.512.775.951.775h4.39c.44 0 .659-.352.659-.775v-8.38c0-.422-.219-.845-.659-.845zm-.841 5h-1a.5.5 0 010-1h1a.5.5 0 010 1zm0-2h-2a.5.5 0 010-1h2a.5.5 0 010 1z" fill-rule="evenodd" clip-rule="evenodd" fill="#fff"/></svg>