<svg xmlns="http://www.w3.org/2000/svg" viewBox="0 0 24 24"><path d="M12 0C5.4 0 0 5.4 0 12s5.4 12 12 12 12-5.4 12-12S18.6 0 12 0z" fill-rule="evenodd" clip-rule="evenodd" fill="#95a5b9"/><path d="M6 7v7.6c.1.7.7 1.3 1.4 1.2.6-.1 1.2 0 1.8.2.7.2 1.3.5 1.8 1-.7-.2-1.5-.4-2.4-.4-1 0-1.9 0-2.7.1-.4.1-.8-.2-.8-.6V7.7c-.1-.3.2-.6.5-.7H6zm2-.7l1.5.3c1 .3 1.6.7 2 1.2v8.5c-.5-.6-1.2-1.1-2-1.3-.5-.1-1-.2-1.6-.2-.5 0-.9-.3-1-.8V7.2c0-.5.4-.9.9-.9H8zM13 17c.5-.5 1.1-.8 1.8-1 .6-.2 1.2-.2 1.8-.2.7.1 1.3-.5 1.4-1.2V7h.4c.4 0 .6.3.6.7v8.4c-.1.4-.4.7-.8.6-.9-.1-1.8-.2-2.7-.1-1 0-1.8.2-2.5.4zm3-10.7h.1c.5 0 .9.4.9.9V14.1c0 .5-.5.9-1 .8-.5 0-1.1 0-1.6.2-.8.2-1.5.7-2 1.3V7.8c.4-.5 1-.9 2-1.2.6-.1 1.1-.2 1.6-.3z" fill-rule="evenodd" clip-rule="evenodd" fill="#fff"/></svg>