<svg xmlns="http://www.w3.org/2000/svg" width="30" height="30"><path fill="#EFA758" d="M30 15c0 8.3-6.7 15-15 15S0 23.3 0 15 6.7 0 15 0s15 6.7 15 15"/><path fill="#FFF" d="M16.3 23.1h-2.4c-3.1-.8-8.5-.9-8.5-.9H5V8.3l.3-.1C6.4 8 7.7 8 9.1 8c2.7 0 5 .3 5 .3h2.3c.5 0 1.9-.2 3.9-.2 1.6 0 3.1.1 4.6.3h.3v13.9h-1.7c-3.1 0-3.6.1-6.4.7l-.8.1zm-2.3-.8h2.2l.7-.1c2.8-.6 3.4-.7 6.6-.7h.9V9.1c-1.3-.1-2.7-.2-4.1-.2-1.9 0-3.3.1-3.8.2h-2.4c-.1-.1-2.3-.4-5-.4-1.3 0-2.4.1-3.4.2v12.5c1.3.1 5.6.3 8.3.9z"/><path fill="#FFF" d="M15.1 21.2V8.6s3.9-2.1 8.6-.5v12.2s-6.2-.6-8.6.9z"/><path fill="#EFA758" d="M15.1 22.2V8.3l.1-.2c.1 0 1.9-1.1 4.8-1.1 1.3 0 2.7.2 4 .6l.4.5-.2 12.9-.4-.2s-1.2-.1-2.7-.1c-2.6 0-4.5.3-5.2.9l-.8.6z"/><path fill="#EFA758" d="M15.4 22.2l-.8-.7c-.7-.6-2.2-.9-4.4-.9-2 0-3.8.3-3.8.3l-.7.1V7.7l.4-.1C7.2 7.2 8.5 7 9.8 7c3 0 5.3 1.1 5.4 1.2l.3.1-.1 13.9z"/><path fill="#FFF" d="M14.4 20.3V8.9S10.6 7 6.8 8.4v11.3c.1 0 5.5-.7 7.6.6zm1.5 0V8.9s3.8-1.9 7.6-.5v11.3c0 .1-5.5-.7-7.6.6z"/></svg>