<svg xmlns="http://www.w3.org/2000/svg" viewBox="0 0 24 24"><path d="M12 0C5.36 0 0 5.36 0 12s5.36 12 12 12 12-5.36 12-12S18.64 0 12 0z"/><path d="M5.998 7v7.471c0 .04.002.079.005.119.064.735.694 1.278 1.408 1.213a4.832 4.832 0 011.782.157c.7.199 1.3.545 1.807 1.04-.667-.228-1.481-.365-2.442-.412a13.875 13.875 0 00-2.731.126.72.72 0 01-.827-.712V7.748a.72.72 0 01.646-.716c.116-.012.234-.023.352-.032zM8 6.343c.469.052.974.153 1.516.303.952.263 1.613.655 1.984 1.177V16.3a3.973 3.973 0 00-1.984-1.28 4.504 4.504 0 00-1.554-.157.9.9 0 01-.962-.897V7.237a.9.9 0 011-.894zM13 17a4.159 4.159 0 011.807-1.04 4.832 4.832 0 011.782-.157c.714.066 1.344-.477 1.408-1.213.003-.04.005-.079.005-.119V7c.118.009.235.02.352.032a.72.72 0 01.646.716v8.254a.72.72 0 01-.827.712 13.878 13.878 0 00-2.731-.126c-.961.047-1.775.184-2.442.412zm3-10.657a.9.9 0 011 .894v6.729l-.002.062a.9.9 0 01-.96.836 4.504 4.504 0 00-1.554.157 3.966 3.966 0 00-1.984 1.28V7.823c.371-.522 1.032-.915 1.984-1.177A9.737 9.737 0 0116 6.343z" fill-rule="evenodd" clip-rule="evenodd" fill="#fff"/></svg>