<?xml version="1.0" encoding="utf-8"?>
<!-- Generator: Adobe Illustrator 23.0.4, SVG Export Plug-In . SVG Version: 6.00 Build 0)  -->
<svg version="1.1" id="Layer_1" xmlns="http://www.w3.org/2000/svg" xmlns:xlink="http://www.w3.org/1999/xlink" x="0px" y="0px"
	 viewBox="0 0 24 24" style="enable-background:new 0 0 24 24;" xml:space="preserve">
<path id="book_bg" d="M12,0C5.36,0,0,5.36,0,12s5.36,12,12,12s12-5.36,12-12S18.64,0,12,0z"/>
<path id="Combined-Shape" style="fill-rule:evenodd;clip-rule:evenodd;fill:#FFFFFF;" d="M5.998,7v7.471c0,0.04,0.002,0.079,0.005,0.119c0.064,0.735,0.694,1.278,1.408,1.213
	c0.62-0.057,1.213-0.005,1.782,0.157c0.7,0.199,1.3,0.545,1.807,1.04c-0.667-0.228-1.481-0.365-2.442-0.412
	c-0.955-0.046-1.865-0.004-2.731,0.126c-0.393,0.059-0.76-0.212-0.819-0.605C5.003,16.073,5,16.037,5,16.002V7.748
	C5,7.379,5.279,7.07,5.646,7.032C5.762,7.02,5.88,7.009,5.998,7z M8,6.343c0.469,0.052,0.974,0.153,1.516,0.303
	c0.952,0.263,1.613,0.655,1.984,1.177V16.3c-0.532-0.628-1.194-1.055-1.984-1.28c-0.499-0.142-1.017-0.194-1.554-0.157
	c-0.496,0.034-0.926-0.34-0.96-0.836C7.001,14.007,7,13.986,7,13.966V7.237c0-0.497,0.403-0.9,0.9-0.9
	C7.933,6.337,7.967,6.339,8,6.343z M13,17c0.507-0.496,1.108-0.842,1.807-1.04c0.569-0.162,1.162-0.214,1.782-0.157
	c0.714,0.066,1.344-0.477,1.408-1.213c0.003-0.04,0.005-0.079,0.005-0.119V7c0.118,0.009,0.235,0.02,0.352,0.032
	C18.721,7.07,19,7.379,19,7.748v8.254c0,0.036-0.003,0.071-0.008,0.107c-0.059,0.393-0.426,0.664-0.819,0.605
	c-0.866-0.13-1.777-0.172-2.731-0.126C14.481,16.635,13.667,16.772,13,17z M16,6.343c0.033-0.004,0.067-0.006,0.1-0.006
	c0.497,0,0.9,0.403,0.9,0.9v6.729c0,0.021-0.001,0.041-0.002,0.062c-0.034,0.496-0.464,0.87-0.96,0.836
	c-0.537-0.037-1.055,0.015-1.554,0.157c-0.79,0.225-1.452,0.651-1.984,1.28V7.823c0.371-0.522,1.032-0.915,1.984-1.177
	C15.026,6.496,15.531,6.395,16,6.343z"/>
</svg>
