<svg xmlns="http://www.w3.org/2000/svg" viewBox="0 0 24 24"><path d="M12 0C5.36 0 0 5.36 0 12s5.36 12 12 12 12-5.36 12-12S18.64 0 12 0z"/><g fill-rule="evenodd" clip-rule="evenodd" fill="#fff"><path d="M9.62 11.811a7.44 7.44 0 014.805-.025c.493-.281.825-.811.825-1.419V7.25a3.25 3.25 0 10-6.5 0v3.117c0 .626.353 1.171.87 1.444zM15.201 18.432a1.556 1.556 0 00-1.09-.432H12.5v-.979c-.367 0-.699-.007-1-.021v1H9.852c-.431 0-.84.169-1.12.462l-.582.61a.523.523 0 00.071.794c.265.202.51.202.778-.064l.692-.677a.22.22 0 01.16-.066h4.26a.22.22 0 01.156.062l.721.681c.234.231.547.261.805.052a.521.521 0 00.044-.795l-.636-.627zM8.323 14.824c.227.69.893 1.176 3.722 1.176 2.829 0 3.482-.646 3.638-1.176.155-.53.155-1.531-1.334-2.046-1.489-.515-3.107-.49-4.552 0s-1.702 1.355-1.474 2.046zM8.202 13.176a2.36 2.36 0 00.298-1.147v-.208A.82.82 0 007.679 11h-.367a.41.41 0 00-.286.704c.247.24.411.468.491.681.089.236.17.482.241.739a.242.242 0 00.444.052zM16.982 11.124a.41.41 0 00-.294-.124h-.367a.82.82 0 00-.821.821v.208c0 .402.103.797.298 1.148a.241.241 0 00.443-.053c.072-.256.152-.502.241-.739.081-.214.244-.441.491-.681a.409.409 0 00.009-.58z"/></g></svg>