<?xml version="1.0" encoding="utf-8"?>
<!-- Generator: Adobe Illustrator 23.0.4, SVG Export Plug-In . SVG Version: 6.00 Build 0)  -->
<svg version="1.1" id="Layer_1" xmlns="http://www.w3.org/2000/svg" xmlns:xlink="http://www.w3.org/1999/xlink" x="0px" y="0px"
	 viewBox="0 0 24 24" style="enable-background:new 0 0 24 24;" xml:space="preserve">
<style type="text/css">
	.st0{fill-rule:evenodd;clip-rule:evenodd; }
	.st1{fill-rule:evenodd;clip-rule:evenodd;fill:#FFFFFF;}
</style>
<path id="Path" class="st0" d="M12,0C5.36,0,0,5.36,0,12s5.36,12,12,12s12-5.36,12-12S18.64,0,12,0z"/>
<g>
	<path class="st1" d="M9.62,11.811c1.553-0.536,3.252-0.552,4.805-0.025c0.493-0.281,0.825-0.811,0.825-1.419V7.25
		C15.25,5.455,13.795,4,12,4S8.75,5.455,8.75,7.25v3.117C8.75,10.993,9.103,11.538,9.62,11.811z"/>
	<path class="st1" d="M15.201,18.432C14.922,18.157,14.526,18,14.111,18h-0.42H12.5v-0.979c-0.367,0-0.699-0.007-1-0.021v1H9.852
		c-0.431,0-0.84,0.169-1.12,0.462l-0.582,0.61c-0.226,0.237-0.194,0.592,0.071,0.794c0.265,0.202,0.51,0.202,0.778-0.064
		l0.692-0.677c0.04-0.042,0.098-0.066,0.16-0.066H12h2.111c0.059,0,0.116,0.022,0.156,0.062l0.721,0.681
		c0.234,0.231,0.547,0.261,0.805,0.052c0.258-0.209,0.278-0.565,0.044-0.795L15.201,18.432z"/>
	<path class="st1" d="M8.323,14.824C8.55,15.514,9.216,16,12.045,16c2.829,0,3.482-0.646,3.638-1.176
		c0.155-0.53,0.155-1.531-1.334-2.046c-1.489-0.515-3.107-0.49-4.552,0S8.095,14.133,8.323,14.824z"/>
	<path class="st1" d="M8.202,13.176C8.397,12.826,8.5,12.43,8.5,12.029v-0.208C8.5,11.367,8.133,11,7.679,11H7.312
		c-0.111,0-0.217,0.045-0.294,0.124c-0.158,0.162-0.155,0.422,0.008,0.58c0.247,0.24,0.411,0.468,0.491,0.681
		c0.089,0.236,0.17,0.482,0.241,0.739c0.017,0.062,0.059,0.115,0.115,0.146C7.99,13.335,8.137,13.293,8.202,13.176z"/>
	<path class="st1" d="M16.982,11.124C16.905,11.045,16.799,11,16.688,11h-0.367c-0.453,0-0.821,0.367-0.821,0.821v0.208
		c0,0.402,0.103,0.797,0.298,1.148c0.065,0.116,0.212,0.158,0.328,0.093c0.056-0.031,0.098-0.084,0.115-0.146
		c0.072-0.256,0.152-0.502,0.241-0.739c0.081-0.214,0.244-0.441,0.491-0.681C17.137,11.546,17.14,11.286,16.982,11.124z"/>
</g>
</svg>
