<svg xmlns="http://www.w3.org/2000/svg" width="30" height="30"><path fill="#9C998C" d="M15 0C6.7 0 0 6.7 0 15s6.7 15 15 15 15-6.7 15-15S23.3 0 15 0zm4.7 15.3c0 .6-.5.8-1.1.8h-7.4c-.6 0-1.1-.2-1.1-.8 0-.6.5-.8 1.1-.8h7.4c.6 0 1.1.2 1.1.8zM10.2 4.7c0-.6.6-1.1 1.3-1.1h7.2c.6 0 .9.4.9 1.1v7.1c0 .6-.3 1.2-.9 1.2h-7.2c-.6 0-1.3-.5-1.3-1.2V4.7zm13.5 8c-.2 1-1.7.6-2.7.7-.1 1.9.4 3.8-1 4.4-1.1.3-2.9.1-4.4.2 0 1 .2 2.1.2 3.1 1.5.4 3.8 1.7 5.4 3.3v.6c0 .4.4.4.4.9 0 1-1.5.9-1.6.1 0-.8.2-.7 0-1.1-3.3-2.4-4.1-2.8-4.9-2.9-.7.1-1.8.3-5.1 2.7 0 1 .2.6.1 1.4-.1.9-1.3.8-1.3-.1 0-.6-.1-.5.7-.9v-1c2.3-1.8 3.3-2.3 5.2-2.9 0-1.1-.1-2-.1-3.1-1.8-.2-3.8.4-4.9-.3-1.2-.7-.7-2.4-.8-4.2-.6-.1-1.5 0-2.2-.1-.6-.2-.7-1.3-.1-1.6.7-.1 1.8-.1 2.6 0 .2 0 .4.3.4.6v3.3c0 1.1.2.8.3 1 .4.4 1.4.1 2.3.1h5.1c1.3 0 2.7.4 3-.4.3-.6.1-1.4.1-2 0-1.2-.3-2.6.7-2.8 1-.3 2.8-.3 2.6 1z"/></svg>