<svg xmlns="http://www.w3.org/2000/svg" viewBox="0 0 24 24"><path d="M12 0C5.4 0 0 5.4 0 12s5.4 12 12 12 12-5.4 12-12S18.6 0 12 0z"/><path d="M9.6 11.8c1.6-.5 3.3-.6 4.8 0 .5-.3.8-.8.8-1.4V7.2C15.2 5.5 13.8 4 12 4S8.8 5.5 8.8 7.2v3.1c0 .7.3 1.2.8 1.5zm5.6 6.6c-.3-.3-.7-.4-1.1-.4h-1.6v-1h-1v1H9.9c-.4 0-.8.2-1.1.5l-.6.6c-.2.2-.2.6.1.8.3.2.5.2.8-.1l.7-.7s.1-.1.2-.1h4.1c.1 0 .1 0 .2.1l.7.7c.2.2.5.3.8.1.3-.2.3-.6 0-.8l-.6-.7zm-6.9-3.6c.2.7.9 1.2 3.7 1.2 2.8 0 3.5-.6 3.6-1.2.2-.5.2-1.5-1.3-2s-3.1-.5-4.6 0-1.6 1.3-1.4 2zm-.1-1.6c.2-.4.3-.7.3-1.1v-.2c0-.5-.4-.8-.8-.8h-.4c-.1 0-.2 0-.3.1-.2.2-.2.4 0 .6.2.2.4.5.5.7.1.2.2.5.2.7 0 .1.1.1.1.1.2 0 .3 0 .4-.1zm8.8-2.1c-.1-.1-.2-.1-.3-.1h-.4c-.5 0-.8.4-.8.8v.2c0 .4.1.8.3 1.1.1.1.2.2.3.1.1 0 .1-.1.1-.1.1-.3.2-.5.2-.7.1-.2.2-.4.5-.7.2-.2.2-.4.1-.6z" fill-rule="evenodd" clip-rule="evenodd" fill="#fff"/></svg>