<?xml version="1.0" encoding="utf-8"?>
<!-- Generator: Adobe Illustrator 23.0.4, SVG Export Plug-In . SVG Version: 6.00 Build 0)  -->
<svg version="1.1" id="Layer_1" xmlns="http://www.w3.org/2000/svg" xmlns:xlink="http://www.w3.org/1999/xlink" x="0px" y="0px"
	 viewBox="0 0 24 24" style="enable-background:new 0 0 24 24;" xml:space="preserve">
<style type="text/css">
	.st0{fill-rule:evenodd;clip-rule:evenodd; }
	.st1{fill-rule:evenodd;clip-rule:evenodd;fill:#FFFFFF;}
</style>
<g id="Group">
	<path id="Path" class="st0" d="M12,0C5.36,0,0,5.36,0,12s5.36,12,12,12s12-5.36,12-12S18.64,0,12,0z"/>
</g>
<g>
	<path class="st1" d="M7.384,13h9.232C16.828,13,17,12.826,17,12.612V6.388C17,6.174,16.828,6,16.616,6H7.384
		C7.172,6,7,6.174,7,6.388v6.224C7,12.826,7.172,13,7.384,13z M8.001,7.22C8.001,7.099,8.1,7,8.221,7h7.559
		C15.901,7,16,7.099,16,7.22v4.56c0,0.121-0.099,0.22-0.22,0.22H8.221c-0.122,0-0.22-0.099-0.22-0.22V7.22z"/>
	<path class="st1" d="M18.497,17.102l-1.381-2.76C17.011,14.133,16.797,14,16.562,14H7.609c-0.223,0-0.43,0.12-0.54,0.315
		l-1.562,2.76c-0.053,0.093-0.08,0.198-0.08,0.306c0,0.343,0.278,0.62,0.62,0.62h1.991c0.019-0.07,0.046-0.138,0.079-0.205
		l0.411-0.815c0.3-0.595,0.982-0.98,1.737-0.98h3.487c0.763,0,1.452,0.394,1.746,1l0.393,0.81c0.03,0.062,0.054,0.126,0.072,0.19
		h1.981c0.096,0,0.191-0.022,0.278-0.066C18.526,17.781,18.65,17.409,18.497,17.102z"/>
	<path class="st1" d="M13.75,17h-3.5c-0.552,0-1,0.448-1,1h5.5C14.75,17.448,14.302,17,13.75,17z"/>
</g>
</svg>
