<svg version="1.1" id="Layer_1" xmlns="http://www.w3.org/2000/svg" x="0" y="0" viewBox="0 0 24 24" xml:space="preserve"><style>.st1{fill-rule:evenodd;clip-rule:evenodd;fill:#fff}</style><path id="Path" d="M12 0C5.4 0 0 5.4 0 12s5.4 12 12 12 12-5.4 12-12S18.6 0 12 0z" fill-rule="evenodd" clip-rule="evenodd" fill="#95a5b9"/><path class="st1" d="M7.4 13h9.2c.2 0 .4-.2.4-.4V6.4c0-.2-.2-.4-.4-.4H7.4c-.2 0-.4.2-.4.4v6.2c0 .2.2.4.4.4zM8 7.2c0-.1.1-.2.2-.2h7.6c.1 0 .2.1.2.2v4.6c0 .1-.1.2-.2.2H8.2c-.1 0-.2-.1-.2-.2V7.2zM18.5 17.1l-1.4-2.8c-.1-.2-.3-.3-.5-.3h-9c-.2 0-.4.1-.5.3l-1.6 2.8c-.1.1-.1.2-.1.3 0 .3.3.6.6.6h2c0-.1 0-.1.1-.2l.4-.8c.3-.6 1-1 1.7-1h3.5c.8 0 1.5.4 1.7 1l.4.8c0 .1.1.1.1.2h2c.1 0 .2 0 .3-.1.3-.1.5-.5.3-.8z"/><path class="st1" d="M13.8 17h-3.5c-.6 0-1 .4-1 1h5.5c0-.6-.5-1-1-1z"/></svg>