<svg xmlns="http://www.w3.org/2000/svg" width="30" height="30"><path fill="#93B1B0" d="M30 15c0 8.3-6.7 15-15 15S0 23.3 0 15 6.7 0 15 0s15 6.7 15 15"/><path fill="#FFF" d="M22.6 17.2H7.3c-.7 0-.5-.3-.5-.8V7.1c0-.5.4-.8.9-.8h14.5c.5 0 .8.2.8.7v9.4s0 .8-.4.8zm3 4.6c0 .7 0 .7-.5.7H5c-.6 0-.6 0-.6-.7L6 18.6c.4-1 1.1-.8 1.7-.8h15.5c.4 0 .6 0 .9.7l1.5 3.3z"/><path fill="none" stroke="#93B1B0" stroke-width=".875" stroke-miterlimit="10" d="M19 23.4c0 .4-.3.4-.8.4h-6.7c-.4 0-.8-.2-.8-.4l.2-1.6c0-.2.2-.4 1-.4h6.2c.2 0 .5.2.5.4l.4 1.6z"/><path fill="#93B1B0" d="M21.5 14.5v1.1H8.3V7.1h13.2z"/></svg>