<svg xmlns="http://www.w3.org/2000/svg" viewBox="0 0 24 24"><path d="M12 0C5.36 0 0 5.36 0 12s5.36 12 12 12 12-5.36 12-12S18.64 0 12 0z"/><g fill-rule="evenodd" clip-rule="evenodd" fill="#fff"><path d="M7.384 13h9.232a.386.386 0 00.384-.388V6.388A.386.386 0 0016.616 6H7.384A.386.386 0 007 6.388v6.224c0 .214.172.388.384.388zm.617-5.78a.22.22 0 01.22-.22h7.559a.22.22 0 01.22.22v4.56a.22.22 0 01-.22.22H8.221a.22.22 0 01-.22-.22V7.22zM18.497 17.102l-1.381-2.76a.62.62 0 00-.554-.342H7.609a.62.62 0 00-.54.315l-1.562 2.76a.62.62 0 00.54.926h1.991a1.14 1.14 0 01.079-.205l.411-.815c.3-.595.982-.98 1.737-.98h3.487c.763 0 1.452.394 1.746 1l.393.81c.03.062.054.126.072.19h1.981a.623.623 0 00.553-.899z"/><path d="M13.75 17h-3.5a1 1 0 00-1 1h5.5a1 1 0 00-1-1z"/></g></svg>