<svg xmlns="http://www.w3.org/2000/svg" viewBox="0 0 24 24"><path d="M12 0C5.4 0 0 5.4 0 12s5.4 12 12 12 12-5.4 12-12S18.6 0 12 0z" fill-rule="evenodd" clip-rule="evenodd" fill="#95a5b9"/><path d="M7.4 13h9.2c.2 0 .4-.2.4-.4V6.4c0-.2-.2-.4-.4-.4H7.4c-.2 0-.4.2-.4.4v6.2c0 .2.2.4.4.4zM8 7.2c0-.1.1-.2.2-.2h7.6c.1 0 .2.1.2.2v4.6c0 .1-.1.2-.2.2H8.2c-.1 0-.2-.1-.2-.2V7.2zm10.5 9.9l-1.4-2.8c-.1-.2-.3-.3-.5-.3h-9c-.2 0-.4.1-.5.3l-1.6 2.8c-.1.1-.1.2-.1.3 0 .3.3.6.6.6h2l.5-1c.3-.6 1-1 1.7-1h3.5c.8 0 1.5.4 1.7 1l.5 1h2c.1 0 .2 0 .3-.1.3-.1.5-.5.3-.8zm-4.7-.1h-3.5c-.6 0-1 .4-1 1h5.5c0-.6-.6-1-1-1z" fill-rule="evenodd" clip-rule="evenodd" fill="#fff"/></svg>