<svg xmlns="http://www.w3.org/2000/svg" width="30" height="30"><path fill="#A5C563" d="M30 15c0 8.3-6.7 15-15 15S0 23.3 0 15 6.7 0 15 0s15 6.7 15 15"/><path fill="#FFF" d="M15 19.4H9.8c-.3 0-.4.1-.4.4v1.6c0 .7-.4 1.2-1 1.4-.6.2-1.2 0-1.6-.5-.2-.3-.3-.6-.3-.9v-1.6c0-.2-.1-.3-.3-.3H5.1c-.2 0-.3 0-.3-.2V14c0-1 .6-1.8 1.6-2.1.2-.1.2-.2.3-.3l1.5-3.9C8.7 6.5 9.3 6 10.6 6h8.5c1.3 0 2 .5 2.5 1.7.5 1.3 1 2.5 1.5 3.8.1.2.2.3.4.4.9.3 1.4.9 1.5 1.9.1.5 0 1 0 1.6v3.9c0 .3-.1.3-.3.3h-1c-.2 0-.3.1-.3.3v1.6c0 .9-.6 1.5-1.4 1.5-.8 0-1.4-.6-1.5-1.5V20c0-.3-.1-.3-.3-.3-1.7-.3-3.4-.3-5.2-.3m0-7.7h6.4c.3 0 .3-.1.2-.3-.4-1.1-.8-2.1-1.2-3.2-.2-.7-.5-.8-1.2-.8h-8.4c-.7 0-1 .1-1.2.8-.4 1.1-.8 2.1-1.2 3.2-.1.3 0 .3.2.3H15m-7 1.5c-.8 0-1.5.7-1.5 1.5 0 .9.7 1.5 1.5 1.5s1.5-.7 1.5-1.5-.7-1.5-1.5-1.5m15.5 1.5c0-.9-.7-1.5-1.5-1.5s-1.5.7-1.5 1.6c0 .9.7 1.5 1.5 1.5s1.5-.7 1.5-1.6"/></svg>