<svg xmlns="http://www.w3.org/2000/svg" viewBox="0 0 24 24"><path d="M12 0C5.4 0 0 5.4 0 12s5.4 12 12 12 12-5.4 12-12S18.6 0 12 0z" fill-rule="evenodd" clip-rule="evenodd" fill="#95a5b9"/><path d="M19.3 10h-1c-.1 0-.3.1-.4.1 0-.2 0-.5-.1-.7L17.4 8c-.3-.8-.9-1.4-1.7-1.6-1.1-.3-2.3-.4-3.6-.4-1.4 0-2.6.1-3.7.4-.9.3-1.5.9-1.8 1.7l-.4 1.3c0 .2-.1.4-.1.6H4.9c-.2.1-.4.4-.3.6l.1.2c.1.2.3.4.5.5l.4.1v3c0 .3.1.5.2.7v1.8c0 .6.5 1.1 1.1 1.1h.8c.6 0 1.1-.5 1.1-1.1v-.4c1.1.3 2.2.5 3.2.5 1.1 0 2.2-.2 3.4-.5v.4c0 .6.5 1.1 1.1 1.1h.8c.6 0 1.1-.5 1.1-1.1v-1.8c.1-.2.2-.5.2-.8v-3l.4-.1c.2-.1.4-.2.5-.5l.1-.2c.1-.1-.1-.4-.3-.5zM7.7 9.9l.4-1.3c.1-.4.3-.6.7-.7 1-.3 2.1-.4 3.3-.4 1.2 0 2.3.1 3.2.4.3.1.6.3.7.6l.5 1.4v.3c-1.3.2-2.7.3-4.4.3-1.7 0-3.1-.1-4.3-.3V10c-.2 0-.2-.1-.1-.1zM7.6 14c-.6 0-1-.4-1-1s.4-1 1-1 1 .4 1 1-.4 1-1 1zm7.6.4c0 .2-.2.4-.4.4H9.6c-.2 0-.4-.2-.4-.4v-.1c0-.2.1-.4.3-.5.5-.2 1.3-.3 2.6-.3s2.3.1 2.8.3c.2.1.3.3.3.5v.1zm1.4-.4c-.6 0-1-.4-1-1s.4-1 1-1 1 .4 1 1-.4 1-1 1z" fill-rule="evenodd" clip-rule="evenodd" fill="#fff"/></svg>