<?xml version="1.0" encoding="utf-8"?>
<!-- Generator: Adobe Illustrator 23.0.4, SVG Export Plug-In . SVG Version: 6.00 Build 0)  -->
<svg version="1.1" id="Layer_1" xmlns="http://www.w3.org/2000/svg" xmlns:xlink="http://www.w3.org/1999/xlink" x="0px" y="0px"
	 viewBox="0 0 24 24" style="enable-background:new 0 0 24 24;" xml:space="preserve">

<path id="Path" d="M12,0C5.36,0,0,5.36,0,12s5.36,12,12,12s12-5.36,12-12S18.64,0,12,0z"/>
<path style="fill-rule: evenodd;clip-rule: evenodd;fill:#FFFFFF;" d="M19.285,10.027C19.235,10.009,19.182,10,19.129,10h-0.781c-0.145,0-0.273,0.054-0.387,0.128
	c0.007-0.225-0.019-0.453-0.095-0.679l-0.478-1.411c-0.267-0.788-0.908-1.391-1.711-1.609C14.627,6.143,13.434,6,12.099,6
	C10.747,6,9.51,6.146,8.387,6.439C7.545,6.659,6.878,7.3,6.625,8.132l-0.4,1.318C6.169,9.636,6.14,9.829,6.14,10.024
	c0,0.016,0.004,0.031,0.005,0.046C6.053,10.029,5.954,10,5.848,10h-0.78c-0.053,0-0.106,0.009-0.156,0.027
	c-0.244,0.086-0.371,0.353-0.286,0.597l0.085,0.242c0.084,0.237,0.284,0.414,0.53,0.468l0.369,0.081
	c-0.008,0.061-0.012,0.122-0.012,0.185v2.758c0,0.269,0.074,0.526,0.207,0.747c-0.005,0.041-0.007,0.083-0.007,0.125v1.683
	C5.799,17.513,6.286,18,6.887,18H7.71c0.601,0,1.089-0.487,1.089-1.089V16.52c1.101,0.299,2.168,0.448,3.201,0.448
	c1.078,0,2.21-0.162,3.399-0.487v0.431c0,0.601,0.487,1.089,1.089,1.089h0.823c0.601,0,1.089-0.487,1.089-1.089v-1.683
	c0-0.048-0.003-0.095-0.009-0.142c0.134-0.222,0.209-0.48,0.209-0.751v-2.755c0-0.056-0.003-0.112-0.01-0.167l0.367-0.08
	c0.246-0.054,0.446-0.231,0.529-0.468l0.085-0.242C19.656,10.38,19.528,10.113,19.285,10.027z M7.66,9.886l0.4-1.318
	c0.101-0.333,0.368-0.589,0.704-0.677C9.759,7.631,10.87,7.5,12.099,7.5c1.209,0,2.27,0.127,3.185,0.376
	c0.321,0.087,0.577,0.329,0.684,0.644l0.478,1.411c0.033,0.097,0.023,0.196-0.01,0.285C15.161,10.402,13.69,10.5,12,10.5
	c-1.668,0-3.097-0.095-4.313-0.276c-0.029-0.061-0.047-0.128-0.047-0.2C7.64,9.977,7.647,9.93,7.66,9.886z M7.599,14
	c-0.552,0-1-0.448-1-1s0.448-1,1-1c0.552,0,1,0.448,1,1S8.151,14,7.599,14z M15.199,14.38c0,0.21-0.17,0.38-0.38,0.38
	c-0.903,0-1.806,0-2.708,0c-0.844,0-1.688,0-2.531,0c-0.21,0-0.38-0.17-0.38-0.38v-0.131c0-0.201,0.12-0.382,0.304-0.46
	c0.453-0.193,1.322-0.289,2.607-0.289c1.346,0,2.273,0.106,2.781,0.317c0.187,0.078,0.308,0.26,0.308,0.462V14.38z M16.599,14
	c-0.552,0-1-0.448-1-1s0.448-1,1-1c0.552,0,1,0.448,1,1S17.151,14,16.599,14z"/>
</svg>
