<svg xmlns="http://www.w3.org/2000/svg" viewBox="0 0 24 24"><path d="M12 0C5.36 0 0 5.36 0 12s5.36 12 12 12 12-5.36 12-12S18.64 0 12 0z"/><path d="M19.285 10.027a.461.461 0 00-.156-.027h-.781a.707.707 0 00-.387.128 1.924 1.924 0 00-.095-.679l-.478-1.411a2.497 2.497 0 00-1.711-1.609C14.627 6.143 13.434 6 12.099 6c-1.352 0-2.589.146-3.712.439a2.502 2.502 0 00-1.762 1.693l-.4 1.318a1.99 1.99 0 00-.085.574c0 .016.004.031.005.046a.728.728 0 00-.297-.07h-.78a.469.469 0 00-.442.624l.085.242a.728.728 0 00.53.468l.369.081a1.414 1.414 0 00-.012.185v2.758c0 .269.074.526.207.747a1.036 1.036 0 00-.007.125v1.683A1.09 1.09 0 006.887 18h.823c.601 0 1.089-.487 1.089-1.089v-.391c1.101.299 2.168.448 3.201.448 1.078 0 2.21-.162 3.399-.487v.431c0 .601.487 1.089 1.089 1.089h.823c.601 0 1.089-.487 1.089-1.089v-1.683c0-.048-.003-.095-.009-.142a1.45 1.45 0 00.209-.751v-2.755c0-.056-.003-.112-.01-.167l.367-.08a.724.724 0 00.529-.468l.085-.242a.47.47 0 00-.286-.597zM7.66 9.886l.4-1.318a1 1 0 01.704-.677c.995-.26 2.106-.391 3.335-.391 1.209 0 2.27.127 3.185.376a1 1 0 01.684.644l.478 1.411a.422.422 0 01-.01.285c-1.275.186-2.746.284-4.436.284-1.668 0-3.097-.095-4.313-.276a.463.463 0 01-.027-.338zM7.599 14a1 1 0 110-2 1 1 0 010 2zm7.6.38c0 .21-.17.38-.38.38H9.58a.38.38 0 01-.38-.38v-.131a.5.5 0 01.304-.46c.453-.193 1.322-.289 2.607-.289 1.346 0 2.273.106 2.781.317a.5.5 0 01.308.462v.101zm1.4-.38a1 1 0 110-2 1 1 0 010 2z" fill-rule="evenodd" clip-rule="evenodd" fill="#fff"/></svg>