<svg xmlns="http://www.w3.org/2000/svg" width="30" height="30"><path fill="#EB6256" d="M30 15c0 8.3-6.7 15-15 15S0 23.3 0 15 6.7 0 15 0s15 6.7 15 15"/><path fill="#FFF" d="M5.7 14.8h3.2V17c0 .7.6.6.9.6H14c0 .5-.1 1.5.7 1.5-1.2 2.2-3.4 6.4-3.6 6.9-.2.4.8.9 1.2 0 .4-.9 1.9-3.5 2.7-5.1v5.2c0 .6 1.2.7 1.2 0v-5.3c.6 1.8 1.8 4.8 2 5.2.2.5 1.2.5 1.2-.3.1-.8-2-4.4-2.9-6.7.8 0 .7-.7.7-1.5H21c.4 0 .5-.1.5-.4v-6c0-.3-.4-.3-.4-.3h-1.2c.2-.8-.3-.5-.5-.7 3.2-.6 2.9-6-.4-6.6 0 0-.8-.2-1.6 0-.7.2-1.7 1-2.2 2-.5-1-1.5-1.8-2.3-2-.6-.1-1.5 0-1.5 0-3.1.6-3.4 6.2-.2 6.8-.2.1-.5.2-.3.6H9.3c-.3 0-.4.3-.4.4v1.6H5.7M12 8.5c-1.6 0-1.6-2.6 0-2.6 1.5 0 1.5 2.6 0 2.6zm7 .1c-1.6 0-1.6-2.6 0-2.6 1.5 0 1.5 2.6 0 2.6z"/><path fill="#FFF" d="M5.8 15.7c0 .2-.1.2-.4.4l-1.4.5c-.2 0-.5-.1-.5-.3v-4.9c0-.2.3-.3.5-.3l1.4.7c.2.1.4.2.4.4v3.5zm17.8-.1c0 .2-.2.8-.4.8h-.4c-.2 0-.7-.6-.7-.8v-3.4c0-.2.5-.4.7-.4h.4c.2 0 .4.2.4.4v3.4zm-1.5-.8h-.8v-1.5h.8z"/></svg>