<svg xmlns="http://www.w3.org/2000/svg" viewBox="0 0 24 24"><g fill-rule="evenodd" clip-rule="evenodd"><path d="M12 0C5.4 0 0 5.4 0 12s5.4 12 12 12 12-5.4 12-12S18.6 0 12 0z" fill="#95a5b9"/><path d="M16.3 10H8v-.6l8.7-1.3c.2.1.3-.1.3-.3l-.2-1.4c0-.2-.2-.3-.4-.3L7.1 7.4c-.2 0-.3.2-.3.4L7 9.4v6.9c0 .4.3.7.7.7h8.6c.4 0 .7-.3.7-.7v-5.6c0-.4-.3-.7-.7-.7zm-1.2-3.1l1-.1.1.7-1.5.2.4-.8zm-2.2.4l1.3-.2-.4.8-1.3.2.4-.8zm-3 .4l2-.3-.4.8-2 .3.4-.8zm-.9.1l-.4.8-1 .1-.1-.7L9 7.8zm4.5 5.9c0 .1-.1.1-.1.1l-1.9 1.1c-.2.1-.4 0-.5-.1v-2.4c0-.2.2-.4.4-.4h.2l1.9 1.1c0 .2.1.4 0 .6z" fill="#fff"/></g></svg>