<svg xmlns="http://www.w3.org/2000/svg" viewBox="0 0 24 24"><path d="M12 0C5.36 0 0 5.36 0 12s5.36 12 12 12 12-5.36 12-12S18.64 0 12 0z"/><path d="M16.298 10H8v-.559l8.66-1.261a.35.35 0 00.297-.395l-.197-1.44a.352.352 0 00-.398-.297l-9.3 1.357a.352.352 0 00-.296.399L7 9.387v6.911c0 .388.314.702.702.702h8.597a.701.701 0 00.701-.702v-5.597a.701.701 0 00-.702-.701zm-1.174-3.062l.99-.144.102.742-1.482.216.39-.814zm-2.267.331l1.302-.19-.391.813-1.302.19.391-.813zm-2.919.426l1.954-.285-.39.812-1.954.284.39-.811zm-.964.14l-.39.811-.963.14-.109-.737 1.462-.214zm4.484 5.843a.353.353 0 01-.123.123l-1.892 1.119a.35.35 0 01-.529-.301v-2.237a.35.35 0 01.529-.302l1.892 1.119a.35.35 0 01.123.479z" fill-rule="evenodd" clip-rule="evenodd" fill="#fff"/></svg>