<svg version="1.1" id="Layer_1" xmlns="http://www.w3.org/2000/svg" x="0" y="0" viewBox="0 0 24 24" xml:space="preserve"><style>.st1{fill:#fff}</style><path id="Path" d="M12 0C5.4 0 0 5.4 0 12s5.4 12 12 12 12-5.4 12-12S18.6 0 12 0z" fill-rule="evenodd" clip-rule="evenodd" fill="#95a5b9"/><circle class="st1" cx="12" cy="12.5" r="1.5"/><path class="st1" d="M16.7 7.8h-1.5c-.4-.1-.7-.6-1-1.4-.1-.2-.4-.4-.7-.4h-3c-.3 0-.5.2-.6.5-.3.8-.7 1.2-1.2 1.3H7.3c-.7 0-1.3.6-1.3 1.3v6.5c0 .8.6 1.4 1.3 1.4h9.3c.7 0 1.3-.6 1.3-1.3V9.1c.1-.7-.5-1.3-1.2-1.3zM12 15c-1.4 0-2.5-1.1-2.5-2.5S10.6 10 12 10s2.5 1.1 2.5 2.5S13.4 15 12 15zm5-5.9c0 .3-.2.5-.5.5h-1c-.3 0-.5-.2-.5-.5s.2-.5.5-.5h1c.3 0 .5.2.5.5z"/></svg>