<svg xmlns="http://www.w3.org/2000/svg" viewBox="0 0 24 24"><path d="M12 0C5.4 0 0 5.4 0 12s5.4 12 12 12 12-5.4 12-12S18.6 0 12 0z" fill-rule="evenodd" clip-rule="evenodd" fill="#95a5b9"/><path d="M13.5 12.5c0 .8-.7 1.5-1.5 1.5s-1.5-.7-1.5-1.5.7-1.5 1.5-1.5 1.5.7 1.5 1.5zm4.4-3.4v6.6c0 .7-.6 1.3-1.3 1.3H7.3c-.7 0-1.3-.6-1.3-1.4V9.1c0-.7.6-1.3 1.3-1.3h1.4c.5-.1.9-.5 1.2-1.3.1-.3.3-.5.6-.5h3c.3 0 .6.2.7.4.3.8.6 1.3 1 1.4h1.5c.7 0 1.3.6 1.2 1.3zm-3.4 3.4c0-1.4-1.1-2.5-2.5-2.5s-2.5 1.1-2.5 2.5S10.6 15 12 15s2.5-1.1 2.5-2.5zM17 9.1c0-.3-.2-.5-.5-.5h-1c-.3 0-.5.2-.5.5s.2.5.5.5h1c.3 0 .5-.2.5-.5z" fill="#fff"/></svg>