<?xml version="1.0" encoding="utf-8"?>
<!-- Generator: Adobe Illustrator 20.1.0, SVG Export Plug-In . SVG Version: 6.00 Build 0)  -->
<svg version="1.1" id="Layer_1" xmlns="http://www.w3.org/2000/svg" xmlns:xlink="http://www.w3.org/1999/xlink" x="0px" y="0px"
	 width="30px" height="30px" viewBox="0 0 30 30" enable-background="new 0 0 30 30" xml:space="preserve">
<g>
	<path fill="#89AAD9" d="M30,15c0,8.3-6.7,15-15,15C6.7,30,0,23.3,0,15C0,6.7,6.7,0,15,0C23.3,0,30,6.7,30,15"/>
	<g id="camera_1_">
		<g>
			<path fill="#FFFFFF" d="M18.8,7.3c0.3,0.3,0.4,0.9,0.6,1.4c0.2,0.4,0.3,1.1,0.6,1.3c0.7,0.4,2.1,0,3.2,0.2
				c0.6,0.2,1.1,0.6,1.3,1.4c0.2,0.6,0,1.6,0,2.5c0,1.7,0,3.4,0,5.1c0,0.9,0.1,1.9,0,2.4c-0.2,0.5-0.5,0.8-0.9,1.1
				c-1.3,0.4-2.8,0.2-4.3,0.2c-3,0-5.9,0-9,0c-1.3,0-3.5,0.2-4.4-0.2C5.1,22,5,20.8,5,19c0-1.6,0-3.3,0-5c0-0.8,0-1.8,0.2-2.4
				c0.2-0.6,0.7-1,1.2-1.3c0.6-0.1,1.2-0.1,1.8-0.1c0.5,0,1.2,0.1,1.7-0.1c0.8-0.5,0.5-2.7,1.7-2.9C12.8,6.9,14.1,7,15.3,7
				c0.6,0,1.2,0,1.8,0C17.8,7,18.3,7,18.8,7.3z M15.9,20.8c2.2-0.4,4.3-2.5,4-5.4c-0.2-2-1.8-3.6-3.6-4.1c-0.5-0.1-1.1-0.2-1.7-0.1
				c-1,0.1-2,0.5-2.7,1.1C11,12.9,10.4,14,10.2,15c-0.3,1.5,0.1,2.7,0.8,3.9C12.1,20.1,13.7,21.2,15.9,20.8z M21.4,12.8
				c0.1,0.8,1.4,0.8,1.4,0c0-0.4-0.3-0.9-1-0.7C21.6,12.3,21.4,12.4,21.4,12.8z"/>
			<path fill="#FFFFFF" d="M15.4,18.9c-1.2,0.1-1.9-0.3-2.6-0.9c-0.5-0.6-0.9-1.6-0.6-2.8c0.1-0.5,0.3-0.9,0.6-1.3
				c0.3-0.4,0.7-0.6,1.8-0.8c2-0.1,3.6,1.4,3.2,3.5C17.7,17.7,16.7,18.8,15.4,18.9z"/>
		</g>
	</g>
</g>
</svg>
