<svg xmlns="http://www.w3.org/2000/svg" width="30" height="30"><path fill="#89AAD9" d="M30 15c0 8.3-6.7 15-15 15S0 23.3 0 15 6.7 0 15 0s15 6.7 15 15"/><g fill="#FFF"><path d="M18.8 7.3c.3.3.4.9.6 1.4.2.4.3 1.1.6 1.3.7.4 2.1 0 3.2.2.6.2 1.1.6 1.3 1.4.2.6 0 1.6 0 2.5v5.1c0 .9.1 1.9 0 2.4-.2.5-.5.8-.9 1.1-1.3.4-2.8.2-4.3.2h-9c-1.3 0-3.5.2-4.4-.2C5.1 22 5 20.8 5 19v-5c0-.8 0-1.8.2-2.4.2-.6.7-1 1.2-1.3.6-.1 1.2-.1 1.8-.1.5 0 1.2.1 1.7-.1.8-.5.5-2.7 1.7-2.9 1.2-.3 2.5-.2 3.7-.2h1.8c.7 0 1.2 0 1.7.3zm-2.9 13.5c2.2-.4 4.3-2.5 4-5.4-.2-2-1.8-3.6-3.6-4.1-.5-.1-1.1-.2-1.7-.1-1 .1-2 .5-2.7 1.1-.9.6-1.5 1.7-1.7 2.7-.3 1.5.1 2.7.8 3.9 1.1 1.2 2.7 2.3 4.9 1.9zm5.5-8c.1.8 1.4.8 1.4 0 0-.4-.3-.9-1-.7-.2.2-.4.3-.4.7z"/><path d="M15.4 18.9c-1.2.1-1.9-.3-2.6-.9-.5-.6-.9-1.6-.6-2.8.1-.5.3-.9.6-1.3s.7-.6 1.8-.8c2-.1 3.6 1.4 3.2 3.5-.1 1.1-1.1 2.2-2.4 2.3z"/></g></svg>