<svg xmlns="http://www.w3.org/2000/svg" viewBox="0 0 24 24"><path d="M12 0C5.36 0 0 5.36 0 12s5.36 12 12 12 12-5.36 12-12S18.64 0 12 0z"/><path d="M8.735 7.791c.497-.067.876-.509 1.138-1.327A.664.664 0 0110.507 6h3.036c.269 0 .511.162.615.41.33.791.68 1.244 1.05 1.36l1.455-.005A1.333 1.333 0 0118 9.094v6.539c0 .734-.594 1.33-1.328 1.333l-9.334.03A1.333 1.333 0 016 15.667V9.128c0-.734.594-1.33 1.328-1.333l1.407-.004zM12 15a2.5 2.5 0 100-5 2.5 2.5 0 000 5zm0-1.041a1.459 1.459 0 110-2.917 1.459 1.459 0 010 2.917zM15.5 8.6a.5.5 0 000 1h1a.5.5 0 000-1h-1z" fill-rule="evenodd" clip-rule="evenodd" fill="#fff"/></svg>