<svg xmlns="http://www.w3.org/2000/svg" viewBox="0 0 30 30"><path d="M15 0C6.7 0 0 6.7 0 15s6.7 15 15 15 15-6.7 15-15S23.3 0 15 0z" fill="#95a5b9"/><path d="M25.6 15.1l-16-9.2c-.7-.4-1.6-.2-2.1.6l-3.7 6.4c-.4.7-.2 1.7.6 2.1l16 9.2c.7.4 1.7.2 2.1-.6l3.7-6.4c.4-.7.1-1.7-.6-2.1zm-14.4-4.2l-2-1.2-.6 1 1.8 1-.4.7-1.8-1-1 1.8-.9-.5 2.4-4.2 2.9 1.7-.4.7zm1.5 5.6l-.1-1.3c0-.5-.1-.7-.1-.9 0-.1-.1-.2-.2-.3-.1-.1-.2-.2-.4-.3l-.2-.1-1 1.8-.9-.5 2.4-4.2 1.8 1c.5.3.8.5.9.7.2.2.2.4.3.7 0 .3-.1.5-.2.8-.2.3-.4.5-.7.6s-.7.1-1.1-.1l.3.6c0 .2.1.5.1 1v1.1l-.9-.6zm4.7 2.7l-3.2-1.9 2.4-4.2 3.1 1.8-.4.7-2.3-1.3-.5.9 2.1 1.2-.4.7-2.1-1.1-.7 1.2 2.4 1.4-.4.6zm3.9 2.3l-3.2-1.9 2.4-4.2 3.1 1.8-.4.7-2.2-1.3-.5.9 2.1 1.2-.4.7-2.2-1.2-.7 1.2 2.4 1.4-.4.7zm-7.1-8.1c.1-.1.1-.3.1-.4 0-.1-.1-.2-.2-.4-.1 0-.3-.2-.6-.4l-.7-.4-.6 1.1.6.4c.4.2.7.4.8.4h.3l.3-.3z" fill="#fff"/></svg>