<svg xmlns="http://www.w3.org/2000/svg" width="30" height="30"><path fill="#55A63E" d="M15 0C6.7 0 0 6.7 0 15s6.7 15 15 15 15-6.7 15-15S23.3 0 15 0z"/><path fill="#FFF" d="M21.4 9.7l-3.8-2.4c.2-.5.3-1 .3-1.6 0-1.9-1.3-3.5-2.9-3.5-1.6 0-2.9 1.6-2.9 3.5 0 .5.1 1.1.3 1.6L8.7 9.7c-.2.1-.2.3-.2.4V25c0 .2.2.5.5.5h12.2c.2 0 .5-.2.5-.5V10.1c-.1-.2-.2-.3-.3-.4zm-8.3-4c0-1.4.9-2.6 2-2.6s2 1.2 2 2.6c0 .4-.1.8-.2 1.1l-1.6-1c-.2-.1-.3-.1-.5 0l-1.6 1c-.1-.4-.1-.7-.1-1.1zm7.6 18.9H9.4V10.4l3.9-2.5 1.8-1.2 1.3.9-.4.4c-.2-.2-.6-.3-.9-.3-.5 0-.9.2-1.2.5l-.1.1c-.2.2-.3.5-.3.9 0 .9.7 1.5 1.5 1.5.9 0 1.5-.7 1.5-1.5 0-.2 0-.3-.1-.5.2-.2.5-.4.7-.6l3.5 2.3.1 14.2zm-5-15.4c0 .3-.3.6-.6.6s-.6-.3-.6-.6v-.1c.2.1.4.1.6.1.2 0 .3-.1.6 0 0-.1 0 0 0 0z"/><path fill="#FFF" d="M12.5 16.1c0-.3.1-.6.1-.9.1-.3.1-.6.2-.8.1-.3.3-.5.4-.7.2-.2.4-.4.7-.5.3-.1.6-.2 1-.2s.7.1 1 .2c.3.1.5.3.7.5.2.2.3.4.4.7.1.3.2.5.2.8.1.3.1.6.1.9v1.8c0 .3 0 .6-.1.9-.1.3-.1.6-.2.8-.1.3-.3.5-.4.7-.2.2-.4.3-.7.5-.3.1-.6.2-1 .2s-.7-.1-1-.2c-.3-.1-.5-.3-.7-.5-.2-.2-.3-.4-.4-.7-.1-.3-.2-.5-.2-.8-.1-.3-.1-.6-.1-.9V17c-.1-.3-.1-.6 0-.9zm.9 1.9c0 .4.1.7.2 1 .1.3.3.6.5.8.2.2.5.3.9.3s.7-.1.9-.3c.2-.2.4-.5.5-.8.1-.3.2-.7.2-1v-1.6c0-.2 0-.5-.1-.7 0-.2-.1-.4-.1-.7l-.3-.6c-.1-.2-.3-.3-.5-.4-.2-.1-.4-.2-.7-.2-.3 0-.5.1-.7.2-.2.1-.3.2-.5.4l-.3.6c-.1.2-.1.4-.1.7 0 .2-.1.5-.1.7v.6c.2.3.2.6.2 1z"/></svg>