<svg xmlns="http://www.w3.org/2000/svg" viewBox="0 0 24 24"><path d="M12 0C5.36 0 0 5.36 0 12s5.36 12 12 12 12-5.36 12-12S18.64 0 12 0z"/><path d="M11.764 9.897l.277.784a.5.5 0 01-.118.52l-.615.615a.5.5 0 01-.52.118l-.784-.277-.816.816a.678.678 0 01-.958 0l-1.819-1.819a.676.676 0 01-.196-.427l-.273-3.555a.676.676 0 01.729-.726l3.577.289c.16.013.311.082.424.196l1.801 1.801a.678.678 0 010 .958l-.709.707zm5.898 7.762l-.013.012a1.152 1.152 0 01-1.629-.025l-2.225-2.294a.5.5 0 01.005-.702l.796-.796a.5.5 0 01.695-.012l2.342 2.19.027.026a1.13 1.13 0 01.002 1.601z" fill-rule="evenodd" clip-rule="evenodd" fill="#fff"/><path d="M16.134 10.524l-6.441 7.129a.98.98 0 01-1.467-.014 1.13 1.13 0 01.094-1.578l7.027-6.371-.551-.583-2.006-2.35a.447.447 0 01.515-.702l3.289 1.395 2.973 1.85a.895.895 0 01.175 1.376l-1.091 1.143a.894.894 0 01-1.264.029l-.033-.033-1.22-1.291z" fill-rule="evenodd" clip-rule="evenodd" fill="#fff"/></svg>