<svg xmlns="http://www.w3.org/2000/svg" viewBox="0 0 24 24"><path d="M12 0C5.4 0 0 5.4 0 12s5.4 12 12 12 12-5.4 12-12S18.6 0 12 0z"/><path d="M11.8 9.9l.3.8c.1.2 0 .4-.1.5l-.7.6c-.1.2-.3.2-.5.1l-.8-.2-.8.8c-.3.3-.7.3-1 0l-1.8-1.8c-.1-.2-.2-.3-.2-.5l-.3-3.5v-.1c0-.4.4-.7.7-.6l3.6.3c.2 0 .3.1.4.2l1.8 1.8c.3.3.3.7 0 1l-.6.6zm5.9 7.8c-.5.5-1.2.4-1.6 0l-2.2-2.3c-.2-.2-.2-.5 0-.7l.7-.8c.2-.2.5-.2.7 0l2.3 2.1c.5.5.5 1.2.1 1.7zm-1.6-7.2l-6.4 7.1c-.4.4-1 .4-1.4.1l-.1-.1c-.4-.5-.4-1.2.1-1.6l7-6.4-.6-.6-2-2.4c-.1 0 0-.3.1-.5.2-.1.3-.1.5 0l3.3 1.3 3 1.9c.4.3.5.8.3 1.2 0 .1-.1.1-.1.1l-1.1 1.1c-.3.4-.9.4-1.3 0l-1.3-1.2z" fill="#fff"/></svg>