<?xml version="1.0" encoding="utf-8"?>
<!-- Generator: Adobe Illustrator 23.0.4, SVG Export Plug-In . SVG Version: 6.00 Build 0)  -->
<svg version="1.1" id="Layer_1" xmlns="http://www.w3.org/2000/svg" xmlns:xlink="http://www.w3.org/1999/xlink" x="0px" y="0px"
	 viewBox="0 0 24 24" style="enable-background:new 0 0 24 24;" xml:space="preserve">
<style type="text/css">
	.st0{fill-rule:evenodd;clip-rule:evenodd; }
	.st1{fill-rule:evenodd;clip-rule:evenodd;fill:#FFFFFF;}
</style>
<path id="Path" class="st0" d="M12,0C5.36,0,0,5.36,0,12s5.36,12,12,12s12-5.36,12-12S18.64,0,12,0z"/>
<path id="Combined-Shape" class="st1" d="M11.764,9.897l0.277,0.784c0.064,0.182,0.018,0.384-0.118,0.52l-0.615,0.615
	c-0.136,0.136-0.339,0.182-0.52,0.118l-0.784-0.277l-0.816,0.816c-0.264,0.264-0.693,0.264-0.958,0l-1.819-1.819
	c-0.114-0.114-0.184-0.266-0.196-0.427L5.942,6.672c-0.003-0.035-0.003-0.071,0-0.106c0.03-0.373,0.357-0.651,0.729-0.62
	l3.577,0.289c0.16,0.013,0.311,0.082,0.424,0.196l1.801,1.801c0.264,0.264,0.264,0.693,0,0.958L11.764,9.897z M17.662,17.659
	c-0.004,0.004-0.008,0.008-0.013,0.012c-0.457,0.443-1.186,0.432-1.629-0.025l-2.225-2.294c-0.19-0.196-0.188-0.508,0.005-0.702
	l0.796-0.796c0.191-0.191,0.498-0.196,0.695-0.012l2.342,2.19c0.009,0.009,0.018,0.017,0.027,0.026
	C18.104,16.501,18.104,17.217,17.662,17.659z"/>
<path class="st1" d="M16.134,10.524l-6.441,7.129c-0.363,0.402-0.983,0.433-1.384,0.07c-0.029-0.026-0.057-0.055-0.083-0.084
	c-0.403-0.464-0.362-1.165,0.094-1.578l7.027-6.371l-0.551-0.583l-2.006-2.35c-0.16-0.188-0.138-0.47,0.05-0.63
	c0.129-0.11,0.309-0.138,0.465-0.072l3.289,1.395L19.567,9.3c0.419,0.261,0.547,0.812,0.287,1.231
	c-0.032,0.052-0.07,0.101-0.112,0.145l-1.091,1.143c-0.341,0.357-0.907,0.37-1.264,0.029c-0.011-0.011-0.022-0.022-0.033-0.033
	L16.134,10.524z"/>
</svg>
