<svg xmlns="http://www.w3.org/2000/svg" width="30" height="30"><path fill="#5FB67B" d="M30 15c0 8.3-6.7 15-15 15S0 23.3 0 15 6.7 0 15 0s15 6.7 15 15"/><path fill="#FFF" d="M23 14.7c.4 0 .8-.5 1.1-.9.4-.4.9-.7.9-1.1v-.4c0-.5-.8-.9-1.4-.6-.5-.4-.6-1.1-.9-1.6-.6-.9-.7-1-1.4-1.8-1-1-2.1-2.2-3.9-2.2h-1.1c-.8 0-1.9.2-1.9.4s.6.1 1 .2c1.4.1 3.3 1.1 3.3 2.5 0 .5-.5 1.1-.1 1.5-.9 1-1.9 1.9-2.9 2.9-.5-.5-1-1-1.6-1.5l1.3-1.3c0-.2-.1-.2-.1-.2-1.2-1.5-2.3-3-3.5-4.1-1.3-1.1-3.6-1-5.5-.7 0 1.6.3 2.5.7 4 .6 1.2 1 1.7 2 2.8.7.8 1.5 1.7 2.2 2.4l1.4-1.4 1.1 1.1c-.4.1-.7.5-1 .8C11.2 17 9.6 18.6 8 20c-.7.6-1.2 1.2-1.9 1.9v.4c.8.4.7.8 1.1 1.2.4.4 0 .2.5.3.7.2 1.1-.4 1.5-.8 1.8-1.9 3.6-3.7 5.4-5.5.3-.3.7-.6.8-1l1.2 1.2c0 .6.1 2 .8 3.4.4.8.9 1.4 1.4 1.9.4.4 1.3 1.4 1.7 1.3.2 0 .3-.2.5-.4.8-.6 1.3-1.2 2-2 .5-.6 1.2-1.3 1.5-1.8.1-.2.5-.8.4-1 0-.2-.4-.6-.6-.8-1.2-1.2-2.6-2-3.9-2.4-.7-.2-1.2-.1-1.9-.2-.2 0-.8-.6-1.7-1.4l2.8-2.8c.3.2.5.4.8.4.3 0 .5-.1.8-.1.7.1.9.7 1.3 1.1-.9.6-.4 1.9.5 1.8zm-5 3.9c.2-.5.9-1.3 1.7-1.5 1-.3 2.8.8 3.5 1.6-1.2 1.3-2.4 2.6-3.5 4-1-1.1-2.3-2.8-1.7-4.1z"/></svg>