<svg version="1.1" id="Layer_1" xmlns="http://www.w3.org/2000/svg" x="0" y="0" viewBox="0 0 24 24" xml:space="preserve"><style>.st1{fill-rule:evenodd;clip-rule:evenodd;fill:#fff}</style><path id="Path" d="M12 0C5.4 0 0 5.4 0 12s5.4 12 12 12 12-5.4 12-12S18.6 0 12 0z" fill-rule="evenodd" clip-rule="evenodd" fill="#95a5b9"/><g id="Group-6" transform="translate(6.2 4.6)"><path id="Combined-Shape" class="st1" d="M9.6 5.6c-.5.1-1 .5-1.2 1.2v.4C8.2 7 7.4 7 6.1 7c-1.4 0-2.2.1-2.5.2v-.4c-.2-.8-.7-1.1-1.2-1.2V4C2.4 2 4 .4 6 .4S9.6 2 9.6 4v1.6z"/><path class="st1" d="M9.5 11.3c-1.6 0-2.9.1-3.8.1s-1.9 0-3.2-.1c-.4 0-.8-.2-1-.6-.1-.1-.1-.2-.2-.5-.1-1-.4-1.5-.7-1.8-.4-.1-.6-.5-.6-.9 0-.6.5-1.1 1.2-1.1.7-.1 1.5.4 1.8 1.3.1.2.1.5.1.9.7-.5 1.6-.7 2.9-.7 1.3 0 2.2.2 2.9.6 0-.4 0-.7.1-.9.3-.9 1.1-1.4 1.8-1.3.7 0 1.2.5 1.2 1.1 0 .4-.2.8-.6 1-.3.2-.6.8-.7 1.8 0 .2-.1.4-.2.5-.2.4-.6.6-1 .6z"/><path id="Rectangle" class="st1" d="M2.6 12.4h1.5v.2c0 .4-.3.8-.8.8s-.8-.3-.8-.8v-.2z"/><path class="st1" d="M7.8 12.4h1.5v.2c0 .4-.3.8-.8.8-.4 0-.8-.3-.8-.8v-.2z"/></g></svg>