<svg xmlns="http://www.w3.org/2000/svg" viewBox="0 0 24 24"><path d="M12 0C5.4 0 0 5.4 0 12s5.4 12 12 12 12-5.4 12-12S18.6 0 12 0z" fill-rule="evenodd" clip-rule="evenodd" fill="#95a5b9"/><path d="M15.8 10.2c-.5.1-1 .5-1.2 1.2v.4c-.2-.2-1-.2-2.3-.2-1.4 0-2.2.1-2.5.2v-.4c-.2-.8-.7-1.1-1.2-1.2V8.6c0-2 1.6-3.6 3.6-3.6s3.6 1.6 3.6 3.6v1.6zm-.1 5.7c-1.6 0-2.9.1-3.8.1s-1.9 0-3.2-.1c-.4 0-.8-.2-1-.6-.1-.1-.1-.2-.2-.5-.1-1-.4-1.5-.7-1.8-.4-.1-.6-.5-.6-.9 0-.6.5-1.1 1.2-1.1.7-.1 1.5.4 1.8 1.3.1.2.1.5.1.9.7-.5 1.6-.7 2.9-.7s2.2.2 2.9.6c0-.4 0-.7.1-.9.3-.9 1.1-1.4 1.8-1.3.7 0 1.2.5 1.2 1.1 0 .4-.2.8-.6 1-.3.2-.6.8-.7 1.8 0 .2-.1.4-.2.5-.2.4-.6.6-1 .6zM8.8 17h1.5v.2c0 .4-.3.8-.8.8s-.8-.3-.8-.8l.1-.2zm5.2 0h1.5v.2c0 .4-.3.8-.8.8-.4 0-.8-.3-.8-.8V17h.1z" fill="#fff"/></svg>