<?xml version="1.0" encoding="utf-8"?>
<!-- Generator: Adobe Illustrator 23.0.4, SVG Export Plug-In . SVG Version: 6.00 Build 0)  -->
<svg version="1.1" id="haushalt" xmlns="http://www.w3.org/2000/svg" xmlns:xlink="http://www.w3.org/1999/xlink" x="0px" y="0px"
	 viewBox="0 0 24 24" style="enable-background:new 0 0 24 24;" xml:space="preserve">
<style type="text/css">
	.st0{fill-rule:evenodd;clip-rule:evenodd; }
	.st1{fill-rule:evenodd;clip-rule:evenodd;fill:#FFFFFF;}
</style>
<title>Icon / Category / Haushalt</title>
<desc>Created with Sketch.</desc>
<g>
	<path id="Path" class="st0" d="M12,0C5.36,0,0,5.36,0,12s5.36,12,12,12s12-5.36,12-12S18.64,0,12,0z"/>
	<g id="Group-6" transform="translate(6.200000, 4.600000)">
		<path id="Combined-Shape" class="st1" d="M9.6,5.601c-0.503,0.125-1.02,0.477-1.2,1.17c-0.028,0.107-0.041,0.241-0.04,0.401
			C8.183,7.047,7.43,6.984,6.1,6.984c-1.428,0-2.247,0.072-2.46,0.216C3.643,7.026,3.63,6.882,3.6,6.768
			C3.411,6.042,2.899,5.691,2.4,5.584V4c0-1.988,1.612-3.6,3.6-3.6S9.6,2.012,9.6,4V5.601z"/>
		<path class="st1" d="M9.491,11.3c-1.65,0.047-2.92,0.071-3.812,0.071S3.73,11.347,2.509,11.3c-0.449,0-0.84-0.235-1.046-0.58
			c-0.072-0.089-0.123-0.24-0.154-0.454C1.169,9.313,0.933,8.717,0.6,8.48C0.241,8.285,0,7.921,0,7.505C0,6.883,0.537,6.38,1.2,6.38
			C1.904,6.298,2.708,6.761,3.014,7.66C3.079,7.852,3.113,8.14,3.115,8.524C3.772,8.133,4.734,7.937,6,7.937
			c1.266,0,2.228,0.196,2.885,0.587c0.003-0.38,0.037-0.665,0.101-0.854c0.305-0.899,1.11-1.362,1.814-1.281
			c0.663,0,1.2,0.504,1.2,1.125c0,0.416-0.241,0.78-0.6,0.975c-0.333,0.237-0.57,0.833-0.709,1.787
			c-0.032,0.219-0.085,0.372-0.16,0.46C10.324,11.073,9.936,11.3,9.491,11.3z"/>
		<path id="Rectangle" class="st1" d="M2.618,12.4h1.5v0.25c0,0.414-0.336,0.75-0.75,0.75s-0.75-0.336-0.75-0.75V12.4z"/>
		<path class="st1" d="M7.8,12.4h1.5v0.25c0,0.414-0.336,0.75-0.75,0.75c-0.414,0-0.75-0.336-0.75-0.75V12.4z"/>
	</g>
</g>
</svg>
