<svg xmlns="http://www.w3.org/2000/svg" width="30" height="30"><path fill="#C5997B" d="M15 0C6.7 0 0 6.7 0 15s6.7 15 15 15 15-6.7 15-15S23.3 0 15 0z"/><path fill="#FFF" d="M20.4 23.9h1.4v-1.5h.2c.3 0 .4-.2.5-.4.2-1.7.6-4.6.9-6.8.1-.5.4-.8.9-.9.7-.1 1-.8 1-1.4 0-.7-.4-1.5-1.6-1.5-.8 0-1.8.5-1.8 1.8v3.2c0 .4-.2.7-.3 1.1-.2.8-1 1.2-1.8 1.2h-9.5c-.8 0-1.6-.5-1.8-1.2-.1-.3-.3-.7-.3-1.1v-3.2c0-1.3-.9-1.7-1.7-1.7-1.2 0-1.6.8-1.6 1.5 0 .6.3 1.3 1 1.4.5 0 .9.4.9.9.1 2 .5 4.7.8 6.7 0 .2.2.4.4.4h.3l-.1.2v1.3h1.5v-1.5h10.6v1.5h.1z"/><path fill="#FFF" d="M9.7 14.8c-.1 0-.1.2-.1.2v.9c0 .3 0 .8.1 1.2.1.3.3.7.5.7h9.5c.3 0 .5-.3.5-.6.1-.4.1-.8.1-1.1v-1c0-.1-.1-.3-.1-.3H9.7zM15 5.4c3.1 0 5.7 1.9 7 4.7.1.2 0 .4-.2.5-.7.4-1.2 1.2-1.2 2.2v.8c0 .2-.2.5-.4.5H9.8c-.2 0-.4-.3-.4-.5v-.8c0-1-.5-1.8-1.2-2.2-.2-.1-.3-.3-.2-.5 1.3-2.8 3.9-4.7 7-4.7z"/></svg>