<svg xmlns="http://www.w3.org/2000/svg" viewBox="0 0 24 24"><path d="M12 0C5.36 0 0 5.36 0 12s5.36 12 12 12 12-5.36 12-12S18.64 0 12 0z"/><g fill-rule="evenodd" clip-rule="evenodd" fill="#fff"><path d="M15.8 10.201c-.503.125-1.02.477-1.2 1.17a1.58 1.58 0 00-.04.401c-.177-.125-.93-.188-2.26-.188-1.428 0-2.247.072-2.46.216a1.626 1.626 0 00-.04-.432c-.189-.726-.701-1.077-1.2-1.184V8.6a3.6 3.6 0 017.2 0v1.601z"/><path d="M15.691 15.9c-1.65.047-2.92.071-3.812.071s-1.949-.024-3.17-.071c-.449 0-.84-.235-1.046-.58-.072-.089-.123-.24-.154-.454-.14-.953-.376-1.549-.709-1.786a1.115 1.115 0 01-.6-.975c0-.622.537-1.125 1.2-1.125.704-.082 1.508.381 1.814 1.28.065.192.099.48.101.864.657-.391 1.619-.587 2.885-.587 1.266 0 2.228.196 2.885.587.003-.38.037-.665.101-.854.305-.899 1.11-1.362 1.814-1.281.663 0 1.2.504 1.2 1.125 0 .416-.241.78-.6.975-.333.237-.57.833-.709 1.787-.032.219-.085.372-.16.46a1.215 1.215 0 01-1.04.564zM8.818 17h1.5v.25a.75.75 0 01-1.5 0V17zM14 17h1.5v.25a.75.75 0 01-1.5 0V17z"/></g></svg>