<?xml version="1.0" encoding="utf-8"?>
<!-- Generator: Adobe Illustrator 20.1.0, SVG Export Plug-In . SVG Version: 6.00 Build 0)  -->
<svg version="1.1" id="Layer_1" xmlns="http://www.w3.org/2000/svg" xmlns:xlink="http://www.w3.org/1999/xlink" x="0px" y="0px"
	 width="30px" height="30px" viewBox="0 0 30 30" enable-background="new 0 0 30 30" xml:space="preserve">
<g>
	<path fill="#C5997B" d="M15,0C6.7,0,0,6.7,0,15c0,8.3,6.7,15,15,15c8.3,0,15-6.7,15-15C30,6.7,23.3,0,15,0z"/>
	<path fill="#E84F17" d="M17.1,6.6"/>
	<g>
		<g>
			<path fill="#FFFFFF" d="M20.4,23.9h1.4v-1.5h0.2c0.3,0,0.4-0.2,0.5-0.4c0.2-1.7,0.6-4.6,0.9-6.8c0.1-0.5,0.4-0.8,0.9-0.9
				c0.7-0.1,1-0.8,1-1.4c0-0.7-0.4-1.5-1.6-1.5c-0.8,0-1.8,0.5-1.8,1.8v3.2c0,0.4-0.2,0.7-0.3,1.1c-0.2,0.8-1,1.2-1.8,1.2h-9.5
				c-0.8,0-1.6-0.5-1.8-1.2c-0.1-0.3-0.3-0.7-0.3-1.1v-3.2c0-1.3-0.9-1.7-1.7-1.7c-1.2,0-1.6,0.8-1.6,1.5c0,0.6,0.3,1.3,1,1.4
				c0.5,0,0.9,0.4,0.9,0.9C6.9,17.3,7.3,20,7.6,22c0,0.2,0.2,0.4,0.4,0.4h0.3l-0.1,0.2v1.3h1.5v-1.5h10.6v1.5L20.4,23.9L20.4,23.9z"
				/>
		</g>
		<g>
			<path fill="#FFFFFF" d="M9.7,14.8c-0.1,0-0.1,0.2-0.1,0.2c0,0.3,0,0.6,0,0.9c0,0.3,0,0.8,0.1,1.2c0.1,0.3,0.3,0.7,0.5,0.7h9.5
				c0.3,0,0.5-0.3,0.5-0.6c0.1-0.4,0.1-0.8,0.1-1.1c0-0.3,0-0.7,0-1c0-0.1-0.1-0.3-0.1-0.3L9.7,14.8L9.7,14.8z"/>
		</g>
		<path fill="#FFFFFF" d="M15,5.4c3.1,0,5.7,1.9,7,4.7c0.1,0.2,0,0.4-0.2,0.5c-0.7,0.4-1.2,1.2-1.2,2.2c0,0.2,0,0.6,0,0.8
			c0,0.2-0.2,0.5-0.4,0.5H9.8c-0.2,0-0.4-0.3-0.4-0.5c0-0.2,0-0.5,0-0.8c0-1-0.5-1.8-1.2-2.2C8,10.5,7.9,10.3,8,10.1
			C9.3,7.3,11.9,5.4,15,5.4z"/>
	</g>
</g>
</svg>
