<svg version="1.1" id="Layer_1" xmlns="http://www.w3.org/2000/svg" x="0" y="0" viewBox="0 0 24 24" xml:space="preserve"><style>.st1{fill-rule:evenodd;clip-rule:evenodd;fill:#fff}</style><path id="Path" d="M12 0C5.4 0 0 5.4 0 12s5.4 12 12 12 12-5.4 12-12S18.6 0 12 0z" fill-rule="evenodd" clip-rule="evenodd" fill="#95a5b9"/><path class="st1" d="M7.3 8.7L9 7.2v-.5c0-.2-.2-.4-.4-.4H7.4c-.3 0-.4.2-.4.4v1.9s0 .1.1.1c0 .1.1.1.2 0zM17.7 10.7l-5.2-4.5c-.1-.2-.3-.2-.5-.2s-.4 0-.5.2l-5.2 4.5c-.2.1-.3.3-.3.6 0 .4.3.7.7.7h.5v5.6c0 .2.2.4.4.4h2.5c.2 0 .4-.2.4-.4v-3.1c0-.2.2-.4.4-.4h2.3c.2 0 .4.2.4.4v3.1c0 .2.2.4.4.4h2.5c.2 0 .4-.2.4-.4V12h.5c.4 0 .7-.3.7-.7-.2-.3-.3-.5-.4-.6z"/></svg>