<svg xmlns="http://www.w3.org/2000/svg" viewBox="0 0 24 24"><path d="M12 0C5.36 0 0 5.36 0 12s5.36 12 12 12 12-5.36 12-12S18.64 0 12 0z"/><path d="M7.879 6.3l1.248.005a.373.373 0 01.372.373v.529l-1.66 1.504a.2.2 0 01-.334-.148v-1.89c0-.206.167-.373.373-.373h.001zm10.341 4.389l-5.229-4.528a.748.748 0 00-.982.003l-5.154 4.528A.748.748 0 007.348 12H7.8v5.627c0 .206.167.373.373.373h2.453a.373.373 0 00.374-.373v-3.124c0-.206.167-.373.373-.373h2.253c.206 0 .373.167.373.373v3.124a.375.375 0 00.374.373h2.253a.373.373 0 00.374-.373V12h.731a.747.747 0 00.489-1.311z" fill-rule="evenodd" clip-rule="evenodd" fill="#fff"/></svg>