<?xml version="1.0" encoding="utf-8"?>
<!-- Generator: Adobe Illustrator 20.1.0, SVG Export Plug-In . SVG Version: 6.00 Build 0)  -->
<svg version="1.1" id="Layer_1" xmlns="http://www.w3.org/2000/svg" xmlns:xlink="http://www.w3.org/1999/xlink" x="0px" y="0px"
	 width="30px" height="30px" viewBox="0 0 30 30" enable-background="new 0 0 30 30" xml:space="preserve">
<g>
	<g id="Ebene_1_19_">
		<path fill="#5FB4DF" d="M30,15c0,8.3-6.7,15-15,15C6.7,30,0,23.3,0,15C0,6.7,6.7,0,15,0C23.3,0,30,6.7,30,15"/>
		<g>
			<path fill="#FFFFFF" d="M22.4,14.4c0,3.9,0,7.6,0,9.1c-1.2,0-2.9,0-4.7,0c0-1.6,0-4.3,0-6.7c-1.4,0-3.7,0-5,0c0,1.6,0,4.2,0,6.6
				c-1.2,0-3.2,0-4.8,0c0-2.8,0-5.9,0-8.9c-0.8,0-1.3,0-2.4,0c-0.5,0-0.9,0-0.6-0.3c1.1-1,7.6-7.2,9.8-9.1C14.9,5,15,5,15.2,5.2
				c0,0,9.9,8.9,9.9,8.9c0.2,0.2,0.1,0.3-0.2,0.3C24.4,14.4,23.6,14.4,22.4,14.4z"/>
			<path fill="#FFFFFF" d="M10.2,12.9c0,0.2-0.1,0.1-0.4,0.1H8.3c-0.3,0-0.4,0.1-0.4-0.1V6.5c0-0.2,0.2-0.5,0.4-0.5h1.5
				c0.3,0,0.4,0.3,0.4,0.5V12.9z"/>
		</g>
	</g>
</g>
</svg>
