<?xml version="1.0" encoding="utf-8"?>
<!-- Generator: Adobe Illustrator 23.0.4, SVG Export Plug-In . SVG Version: 6.00 Build 0)  -->
<svg version="1.1" id="Layer_1" xmlns="http://www.w3.org/2000/svg" xmlns:xlink="http://www.w3.org/1999/xlink" x="0px" y="0px"
	 viewBox="0 0 24 24" style="enable-background:new 0 0 24 24;" xml:space="preserve">
<style type="text/css">
	.st0{fill-rule:evenodd;clip-rule:evenodd; }
	.st1{fill-rule:evenodd;clip-rule:evenodd;fill:#FFFFFF;}
</style>
<path id="Path" class="st0" d="M12,0C5.36,0,0,5.36,0,12s5.36,12,12,12s12-5.36,12-12S18.64,0,12,0z"/>
<path id="Combined-Shape" class="st1" d="M15.5,11.319v5.721c0,0.53-0.43,0.96-0.96,0.96H9.46c-0.53,0-0.96-0.43-0.96-0.96v-5.721
	l-0.613,0.803c-0.149,0.195-0.428,0.233-0.623,0.084c-0.009-0.007-0.019-0.015-0.027-0.023l-2.106-1.891
	c-0.178-0.159-0.197-0.431-0.045-0.614l2.553-3.075c0.39-0.47,0.987-0.667,1.548-0.57C9.252,6.017,9.319,6.01,9.388,6.01
	c0.258,0,0.516,0,0.774,0c0.597,0,0.111,1.771,1.838,1.771s1.332-1.771,1.727-1.771c0.295,0,0.59,0,0.884,0
	c0.069,0,0.136,0.008,0.201,0.023c0.528-0.091,1.091,0.077,1.484,0.498c0.022,0.023,0.043,0.048,0.064,0.072l2.553,3.075
	c0.152,0.184,0.133,0.455-0.045,0.614l-2.106,1.891c-0.183,0.164-0.463,0.149-0.627-0.034c-0.008-0.009-0.015-0.018-0.023-0.027
	L15.5,11.319z"/>
</svg>
