<svg xmlns="http://www.w3.org/2000/svg" viewBox="0 0 24 24"><path d="M12 0C5.36 0 0 5.36 0 12s5.36 12 12 12 12-5.36 12-12S18.64 0 12 0z"/><path d="M15.5 11.319v5.721c0 .53-.43.96-.96.96H9.46a.96.96 0 01-.96-.96v-5.721l-.613.803a.445.445 0 01-.65.061l-2.106-1.891a.444.444 0 01-.045-.614l2.553-3.075c.39-.47.987-.667 1.548-.57a.837.837 0 01.201-.023h.774c.597 0 .111 1.771 1.838 1.771s1.332-1.771 1.727-1.771h.884c.069 0 .136.008.201.023a1.645 1.645 0 011.484.498c.022.023.043.048.064.072l2.553 3.075a.444.444 0 01-.045.614l-2.106 1.891a.443.443 0 01-.627-.034l-.023-.027-.612-.803z" fill-rule="evenodd" clip-rule="evenodd" fill="#fff"/></svg>