<?xml version="1.0" encoding="utf-8"?>
<!-- Generator: Adobe Illustrator 23.0.4, SVG Export Plug-In . SVG Version: 6.00 Build 0)  -->
<svg version="1.1" id="Layer_1" xmlns="http://www.w3.org/2000/svg" xmlns:xlink="http://www.w3.org/1999/xlink" x="0px" y="0px"
	 viewBox="0 0 24 24" style="enable-background:new 0 0 24 24;" xml:space="preserve">
<path id="Path"  d="M12,0C5.36,0,0,5.36,0,12s5.36,12,12,12s12-5.36,12-12S18.64,0,12,0z"/>
<path style="fill-rule: evenodd;clip-rule: evenodd;fill:#FFFFFF;" d="M16.281,6.67c-0.097-0.456-0.546-0.747-1.001-0.649L9.768,7.197C9.378,7.28,9.1,7.624,9.1,8.022V9v0.6v4.845
	c-0.422-0.15-0.911-0.179-1.403-0.038c-1.115,0.32-1.797,1.354-1.523,2.309c0.274,0.956,1.4,1.471,2.515,1.151
	c0.906-0.26,1.516-0.992,1.569-1.769c0.015-0.085,0.042-0.157,0.042-0.261c0-0.727,0-2.898,0-6.486l4.8-0.997v4.157
	c-0.418-0.144-0.9-0.171-1.385-0.032c-1.115,0.32-1.797,1.354-1.523,2.309c0.274,0.956,1.4,1.471,2.515,1.151
	c0.993-0.285,1.638-1.137,1.574-1.995c0.003-0.058,0.019-0.104,0.019-0.165c0-0.879,0-2.778,0-5.675V7.2V6.846
	C16.3,6.787,16.294,6.728,16.281,6.67z"/>
</svg>
