<svg xmlns="http://www.w3.org/2000/svg" viewBox="0 0 24 24"><path d="M12 0C5.36 0 0 5.36 0 12s5.36 12 12 12 12-5.36 12-12S18.64 0 12 0z"/><path d="M16.281 6.67a.843.843 0 00-1.001-.649L9.768 7.197a.843.843 0 00-.668.825v6.423a2.295 2.295 0 00-1.403-.038c-1.115.32-1.797 1.354-1.523 2.309.274.956 1.4 1.471 2.515 1.151.906-.26 1.516-.992 1.569-1.769.015-.085.042-.157.042-.261V9.351l4.8-.997v4.157a2.3 2.3 0 00-1.385-.032c-1.115.32-1.797 1.354-1.523 2.309.274.956 1.4 1.471 2.515 1.151.993-.285 1.638-1.137 1.574-1.995.003-.058.019-.104.019-.165V6.846a.804.804 0 00-.019-.176z" fill-rule="evenodd" clip-rule="evenodd" fill="#fff"/></svg>