<svg xmlns="http://www.w3.org/2000/svg" width="30" height="30"><path fill="#ED755A" d="M30 15c0 8.3-6.7 15-15 15S0 23.3 0 15 6.7 0 15 0s15 6.7 15 15"/><path fill="#FFF" d="M8 24.9c-1.4 0-3-.7-3.2-2.2-.1-1 .1-1.9.8-2.6.7-.8 1.9-1.3 3.1-1.3.7 0 1.3.2 1.9.4V7.9s2.8-.7 4.2-1c2.5-.5 8-1.8 8-1.8v13.5c-.1.8-.1 1.4-.7 2.2-.7.9-2.3 1.6-3.9 1.6-1.8 0-2.9-.9-2.9-2.4 0-.9.3-1.7.9-2.3.8-.8 2-1.3 3.3-1.3.6 0 1.2.1 1.7.3 0-.9 0-1.8.1-2.6 0-1.7.1-3.5.1-5.3-2 .4-3.9.9-5.8 1.3-1 .2-2.1.5-3.1.8V20c0 2.3-1 4-2.8 4.7-.6.1-1.1.2-1.7.2z"/></svg>