<?xml version="1.0" encoding="utf-8"?>
<!-- Generator: Adobe Illustrator 20.1.0, SVG Export Plug-In . SVG Version: 6.00 Build 0)  -->
<svg version="1.1" id="Layer_1" xmlns="http://www.w3.org/2000/svg" xmlns:xlink="http://www.w3.org/1999/xlink" x="0px" y="0px"
	 width="30px" height="30px" viewBox="0 0 30 30" enable-background="new 0 0 30 30" xml:space="preserve">
<g>
	<g id="Ebene_2_14_">
		<path fill="#ED755A" d="M30,15c0,8.3-6.7,15-15,15C6.7,30,0,23.3,0,15C0,6.7,6.7,0,15,0C23.3,0,30,6.7,30,15"/>
		<g id="music_note_1_">
			<g>
				<path fill="#FFFFFF" d="M8,24.9c-1.4,0-3-0.7-3.2-2.2c-0.1-1,0.1-1.9,0.8-2.6c0.7-0.8,1.9-1.3,3.1-1.3c0.7,0,1.3,0.2,1.9,0.4
					c0-2.5,0-11.3,0-11.3s2.8-0.7,4.2-1c2.5-0.5,8-1.8,8-1.8v13.5c-0.1,0.8-0.1,1.4-0.7,2.2c-0.7,0.9-2.3,1.6-3.9,1.6h0
					c-1.8,0-2.9-0.9-2.9-2.4c0-0.9,0.3-1.7,0.9-2.3c0.8-0.8,2-1.3,3.3-1.3c0.6,0,1.2,0.1,1.7,0.3c0-0.9,0-1.8,0.1-2.6
					c0-1.7,0.1-3.5,0.1-5.3c-2,0.4-3.9,0.9-5.8,1.3c-1,0.2-2.1,0.5-3.1,0.8c0,2.2,0,4.7,0,6.6l0,2.5c0,2.3-1,4-2.8,4.7
					C9.1,24.8,8.6,24.9,8,24.9z"/>
			</g>
		</g>
	</g>
</g>
</svg>
