<svg xmlns="http://www.w3.org/2000/svg" viewBox="0 0 24 24"><path d="M12 0C5.36 0 0 5.36 0 12s5.36 12 12 12 12-5.36 12-12S18.64 0 12 0z"/><path d="M17.477 13.5c1.075.8 1.903 1.02 3.226.736a.374.374 0 10-.157-.731c-1.099.236-1.712.073-2.623-.605a.374.374 0 10-.446.6zm.025-1.983c.146.091.222.139.307.19.911.547 1.733.749 2.888.524a.373.373 0 10-.143-.733c-.953.186-1.596.027-2.36-.432a13.336 13.336 0 01-.295-.183.375.375 0 00-.397.634zm-.302.009v1.077a3.186 3.186 0 00-.701-.315c-1.073-.334-2.211-.06-3.39.791a.376.376 0 00-.086.521c.119.168.35.206.516.086 1.005-.725 1.912-.943 2.742-.685.292.091.584.218.92.45 0 .45-.282.827-.282 1.255s.281.842.281 1.294v1h-1.906c-.451 0-.333-.45-.712-.45-.379 0-.41.45-.767.45s-.326-.45-.702-.45c-.377 0-.406.45-.764.45s-.331-.45-.706-.45c-.375 0-.4.45-.759.45s-.335-.45-.711-.45c-.375 0-.398.45-.758.45s-.334-.45-.711-.45c-.377 0-.291.45-.763.45H6v-.897c0-.287.367-1.192.367-1.398 0-.45-.367-.449-.367-.9s.367-.45.367-.902S6 12.444 6 12s.367-.439.367-.888c0-.448-.367-.441-.367-.897s.367-.469.367-.911C6.367 8.863 6 8.296 6 7.923V7h1.957c.507 0 .401.45.747.45s.294-.45.68-.45.442.45.79.45c.347 0 .289-.45.676-.45.387 0 .429.45.793.45.364 0 .344-.45.717-.45s.399.45.752.45.317-.45.697-.45.411.45.772.45.154-.45.74-.45H17.2v1c0 .451-.282.349-.282.804s.282.463.282.911v.96a2.949 2.949 0 00-.413-.16c-1.073-.334-2.405-.295-3.585.556-.166.12-.205.353-.086.521s.35.206.516.086c.963-.694 2.029-.689 2.831-.48l.105.03c.222.069.409.158.632.298zm-8-.026a1.5 1.5 0 10-.001-3.001A1.5 1.5 0 009.2 11.5z" fill-rule="evenodd" clip-rule="evenodd" fill="#fff"/></svg>