<svg version="1.1" id="Layer_1" xmlns="http://www.w3.org/2000/svg" x="0" y="0" viewBox="0 0 24 24" xml:space="preserve"><style>.st1{fill:#fff}</style><path id="Path" d="M12 0C5.4 0 0 5.4 0 12s5.4 12 12 12 12-5.4 12-12S18.6 0 12 0z" fill-rule="evenodd" clip-rule="evenodd" fill="#95a5b9"/><g id="Group-20" transform="translate(6 6.6)"><path id="Path-7" class="st1" d="M11.5 6.9c1.1.8 1.9 1 3.2.7.2 0 .3-.2.3-.4s-.2-.3-.4-.3c-1.1.2-1.7.1-2.6-.6-.2-.1-.4-.1-.5.1-.2.1-.2.4 0 .5z"/><path class="st1" d="M11.5 4.9c.1.1.2.1.3.2.9.5 1.7.7 2.9.5.2 0 .3-.2.3-.4s-.2-.3-.4-.3c-1 .2-1.6 0-2.4-.4-.1 0-.1-.1-.3-.2-.2-.1-.4-.1-.5.1-.1.2-.1.4.1.5z"/><path d="M11.2.4H9.3c-.6 0-.4.5-.7.5S8.2.4 7.8.4s-.3.5-.7.5-.4-.5-.7-.5-.4.5-.8.5-.4-.5-.8-.5-.3.5-.6.5-.4-.5-.8-.5-.3.5-.7.5S2.5.4 2 .4H0v.9c0 .4.4.9.4 1.4 0 .4-.4.5-.4.9s.4.4.4.9-.4.5-.4.9.4.5.4.9-.4.5-.4.9c0 .5.4.5.4.9 0 .2-.4 1.1-.4 1.4v.9h1.9c.5 0 .4-.5.8-.5s.4.5.7.5.4-.5.8-.5.4.5.7.5c.4 0 .4-.5.8-.5s.3.5.7.5.4-.5.8-.5.3.5.7.5c.4 0 .4-.5.8-.5s.3.5.7.5h1.9v-1c0-.5-.3-.9-.3-1.3s.3-.8.3-1.3c-.3-.2-.6-.4-.9-.4-.8-.3-1.7 0-2.7.7-.3.1-.6.1-.7-.1-.1-.2-.1-.4.1-.5 1.2-.9 2.3-1.1 3.4-.8.3.1.5.2.7.3v-.2-.9l-.6-.3h-.1c-.8-.2-1.9-.2-2.9.5-.1.1-.4.1-.5-.1-.1-.2-.1-.4.1-.5 1.2-.9 2.5-.9 3.6-.6.1 0 .3.1.4.2v-.9c0-.4-.3-.5-.3-.9s.3-.4.3-.8V.4zm-8 4.5c-.8 0-1.5-.7-1.5-1.5s.7-1.5 1.5-1.5 1.5.7 1.5 1.5S4 4.9 3.2 4.9z" fill-rule="evenodd" clip-rule="evenodd" fill="#fff"/></g></svg>