<?xml version="1.0" encoding="utf-8"?>
<!-- Generator: Adobe Illustrator 23.0.4, SVG Export Plug-In . SVG Version: 6.00 Build 0)  -->
<svg version="1.1" id="Layer_1" xmlns="http://www.w3.org/2000/svg" xmlns:xlink="http://www.w3.org/1999/xlink" x="0px" y="0px"
	 viewBox="0 0 24 24" style="enable-background:new 0 0 24 24;" xml:space="preserve">
<style type="text/css">
	.st0{fill-rule:evenodd;clip-rule:evenodd; }
	.st1{fill:#FFFFFF;}
	.st2{fill-rule:evenodd;clip-rule:evenodd;fill:#FFFFFF;}
</style>
<path id="Path" class="st0" d="M12,0C5.36,0,0,5.36,0,12s5.36,12,12,12s12-5.36,12-12S18.64,0,12,0z"/>
<path id="Path-7" class="st1" d="M17.477,13.5c1.075,0.8,1.903,1.02,3.226,0.736c0.202-0.043,0.33-0.242,0.287-0.444
	s-0.242-0.33-0.444-0.287c-1.099,0.236-1.712,0.073-2.623-0.605c-0.166-0.123-0.4-0.089-0.523,0.077
	C17.277,13.143,17.312,13.377,17.477,13.5z"/>
<path class="st1" d="M17.502,11.517c0.146,0.091,0.222,0.139,0.307,0.19c0.911,0.547,1.733,0.749,2.888,0.524
	c0.202-0.039,0.335-0.236,0.295-0.438s-0.236-0.335-0.438-0.295c-0.953,0.186-1.596,0.027-2.36-0.432
	c-0.079-0.047-0.149-0.091-0.295-0.183c-0.175-0.109-0.405-0.056-0.515,0.118C17.274,11.177,17.327,11.407,17.502,11.517z"/>
<path class="st2" d="M17.2,11.526c0,0.423,0,0.435,0,0.877v0.2c-0.233-0.138-0.448-0.236-0.701-0.315
	c-1.073-0.334-2.211-0.06-3.39,0.791c-0.166,0.12-0.205,0.353-0.086,0.521c0.119,0.168,0.35,0.206,0.516,0.086
	c1.005-0.725,1.912-0.943,2.742-0.685c0.292,0.091,0.584,0.218,0.92,0.45c0,0.45-0.282,0.827-0.282,1.255S17.2,15.548,17.2,16
	c0,0.302,0,0.635,0,1c-0.97,0-1.606,0-1.906,0c-0.451,0-0.333-0.45-0.712-0.45c-0.379,0-0.41,0.45-0.767,0.45
	s-0.326-0.45-0.702-0.45c-0.377,0-0.406,0.45-0.764,0.45c-0.358,0-0.331-0.45-0.706-0.45c-0.375,0-0.4,0.45-0.759,0.45
	s-0.335-0.45-0.711-0.45C9.798,16.55,9.775,17,9.415,17s-0.334-0.45-0.711-0.45C8.327,16.55,8.413,17,7.941,17
	C7.627,17,6.98,17,6,17c0-0.246,0-0.545,0-0.897c0-0.287,0.367-1.192,0.367-1.398c0-0.45-0.367-0.449-0.367-0.9
	s0.367-0.45,0.367-0.902S6,12.444,6,12s0.367-0.439,0.367-0.888C6.367,10.664,6,10.671,6,10.215s0.367-0.469,0.367-0.911
	C6.367,8.863,6,8.296,6,7.923C6,7.674,6,7.367,6,7c0.967,0,1.619,0,1.957,0c0.507,0,0.401,0.45,0.747,0.45
	C9.05,7.45,8.998,7,9.384,7s0.442,0.45,0.79,0.45C10.521,7.45,10.463,7,10.85,7c0.387,0,0.429,0.45,0.793,0.45
	C12.007,7.45,11.987,7,12.36,7s0.399,0.45,0.752,0.45c0.353,0,0.317-0.45,0.697-0.45s0.411,0.45,0.772,0.45S14.735,7,15.321,7
	c0.39,0,1.017,0,1.879,0c0,0.366,0,0.699,0,1c0,0.451-0.282,0.349-0.282,0.804S17.2,9.267,17.2,9.715s0,0.482,0,0.928
	c0,0.011,0,0.021,0,0.032c-0.132-0.063-0.266-0.115-0.413-0.16c-1.073-0.334-2.405-0.295-3.585,0.556
	c-0.166,0.12-0.205,0.353-0.086,0.521s0.35,0.206,0.516,0.086c0.963-0.694,2.029-0.689,2.831-0.48
	c0.035,0.009,0.07,0.019,0.105,0.03C16.79,11.297,16.977,11.386,17.2,11.526z M9.2,11.5c0.828,0,1.5-0.672,1.5-1.5
	s-0.672-1.5-1.5-1.5S7.7,9.172,7.7,10S8.372,11.5,9.2,11.5z"/>
</svg>
