<svg xmlns="http://www.w3.org/2000/svg" width="30" height="30"><path fill="#3480AA" d="M30 15c0 8.3-6.7 15-15 15S0 23.3 0 15 6.7 0 15 0s15 6.7 15 15"/><path fill="#FFF" d="M23.5 7.1v-.7h-.8s-.4.8-1 .8-1-.8-1-.8h-.6s-.4.8-1 .8-1-.8-1-.8h-.7s-.4.8-1 .8-1-.8-1-.8h-.7s-.3.9-1 .9-1-.9-1-.9H12s-.4.8-1 .8-1-.8-1-.8h-.9s-.4.8-1 .8-1-.8-1-.8h-.5v1.2c1.5 0 1.5 1.8 0 1.8v.5c.8.1.8 1.7 0 1.8v.3c.8 0 .8 1.8 0 1.8v.6c.8.1.8 1.7 0 1.8v.5c.8.1.8 1.7 0 1.8v.6c.8.2.8 1.6 0 1.8v.4c.8.1.8 1.7 0 1.8v.8h1.5c0-.8.3-.9 1-.9s1 .1 1 .9h1.1c0-.8.3-.9 1-.9s1 .2 1 .9h.9c0-.8.3-1 1-1s1 .2 1 1h.9c0-.8.3-1 1-1s1 .2 1 1h1c-.1-.8.3-1 1-1s1.1.3 1 1h1.4v-1c-1.5-.1-1.5-1.8 0-1.8v-.4c-1.4 0-1.4-1.7.1-1.7v-.5c-.8-.1-.8-1.7 0-1.8v-.6c-1.5-.1-1.5-1.8 0-1.8v-.4c-1.5 0-1.5-1.8 0-1.8v-.4c-1.5 0-1.5-1.8 0-1.8V9c-.8-.2-.8-1.7 0-1.9zm-15 14.7v-14c2.4 0 10.1-.1 13-.1v14c-2 .1-11 .1-13 .1z"/><path fill="#FFF" d="M15.6 9.4h-.3c-.1 0-.1 0-.2.1l-3.8 3.4c-.1.1-.1.1-.1.2v.6c0 .2.1.3.3.3h1.2v3.2c0 1.1.2 1.7.6 2.2.5.5 1.5.9 2.6.9 1 0 1.9-.3 2.7-.8.1-.1.1-.1.1-.2v-1.8c0-.1-.1-.2-.1-.3h-.2c-.5.3-1 .4-1.4.4-.7 0-1-.3-1-1.1V14h2.3c.2 0 .3-.1.3-.3v-1.5c0-.2-.1-.3-.3-.3H16V9.7c-.1-.1-.2-.3-.4-.3"/></svg>