<svg version="1.1" id="Layer_1" xmlns="http://www.w3.org/2000/svg" x="0" y="0" viewBox="0 0 24 24" xml:space="preserve"><style>.st1{fill-rule:evenodd;clip-rule:evenodd;fill:#fff}</style><path id="Path" d="M24 12c0 6.6-5.4 12-12 12S0 18.6 0 12 5.4 0 12 0s12 5.4 12 12" fill-rule="evenodd" clip-rule="evenodd" fill="#95a5b9"/><path class="st1" d="M15.3 15c-.1 0-.1-.1-.2-.2-2-1.7-3.4-2.7-3.9-3.1-.1 0-.3.1-.5.2-.1 0-.2.1-.3.2-.6.4-.8.5-1.1.6-1 .5-2.1.1-2.6-.9-.3-.7-.2-1.6.4-2.4 0-.1.3-.4.3-.5.3 0 .4-.2.6-.4l.4-.4c-.5-.4-.8-.8-1-.7-.4.4-1.4 1.5-3 3.3-.4.4-.4 1.1.1 1.5l.5.5c3 3.4 3.9 4.8 4.5 4.8 1 0 1.7.2 1.8.2 1 .1.7-.7 1.4-.6s1.1-.1 1.3-.7.5 0 1.2-.3c.5-.2.6-.5.6-.9-.2 0-.3-.1-.5-.2z"/><path class="st1" d="M19.4 10.4L16 7.2c-.1-.1-.2-.1-.3-.1-1.4.5-2.8.7-4 .7-.4 0-.7.1-1 .2-.1 0-.1 0-.2.1h-.1-.1c-.1 0-.1.1-.2.1 0 0-.1 0-.1.1-.1.2-.3.3-.4.4l-.1.1-.5.5-.1.1c-.1.2-.2.3-.3.4 0 .1-.1.1-.1.2-.1.1-.2.2-.2.3-.6.8-.3 1.7.6 1.3s2.1-1.6 2.8-1.1c.1 0 .1.1.2.1 0 0 .1 0 .1.1.1 0 .1.1.2.2l.1.1c.1.1.2.1.3.2.1 0 .1.1.2.1.7.6 1.8 1.4 3.2 2.6 0 0 .1 0 .1.1.5.3 1.2.2 1.5-.3l1.9-2.9c0-.2-.1-.3-.1-.4z"/></svg>