<svg xmlns="http://www.w3.org/2000/svg" viewBox="0 0 24 24"><path d="M24 12c0 6.64-5.36 12-12 12S0 18.64 0 12 5.36 0 12 0s12 5.36 12 12"/><path d="M15.781 15.245c.037.397-.023.708-.56.881-.671.217-.979-.336-1.221.252-.242.587-.593.783-1.31.672-.717-.111-.453.778-1.403.631-.112-.017-.808-.227-1.788-.22-.569.004-1.5-1.39-4.514-4.765a8.806 8.806 0 00-.511-.501 1.07 1.07 0 01-.071-1.496c1.628-1.823 2.638-2.924 3.029-3.301.182-.175.516.274.97.657a7.27 7.27 0 00-.391.424 9.984 9.984 0 00-.493.628l-.328.455c-.522.705-.693 1.602-.369 2.352.439 1.017 1.556 1.339 2.585.868.31-.142.456-.231 1.079-.633.112-.072.19-.122.266-.169.192-.119.341-.201.452-.25.565.411 1.904 1.476 3.935 3.139a2.462 2.462 0 00.643.376z" fill-rule="evenodd" clip-rule="evenodd" fill="#fff"/><path d="M8.234 10.336c.554-.748 1.559-2.428 3.473-2.429 1.234-.001 2.572-.245 4.016-.731a.26.26 0 01.262.057l3.371 3.191a.259.259 0 01.039.33l-1.86 2.864a1.069 1.069 0 01-1.574.245c-2.391-1.957-3.81-3.079-4.256-3.366-.751-.483-1.965.703-2.84 1.103-.874.4-1.185-.516-.631-1.264z" fill-rule="evenodd" clip-rule="evenodd" fill="#fff"/></svg>