<?xml version="1.0" encoding="utf-8"?>
<!-- Generator: Adobe Illustrator 23.0.4, SVG Export Plug-In . SVG Version: 6.00 Build 0)  -->
<svg version="1.1" id="services" xmlns="http://www.w3.org/2000/svg" xmlns:xlink="http://www.w3.org/1999/xlink" x="0px" y="0px"
	 viewBox="0 0 24 24" style="enable-background:new 0 0 24 24;" xml:space="preserve">
<style type="text/css">
	.st0{fill-rule:evenodd;clip-rule:evenodd; }
	.st1{fill-rule:evenodd;clip-rule:evenodd;fill:#FFFFFF;}
</style>
<title>Icon / Category / Services</title>
<desc>Created with Sketch.</desc>
<path id="Path" class="st0" d="M24,12c0,6.64-5.36,12-12,12S0,18.64,0,12S5.36,0,12,0S24,5.36,24,12"/>
<path id="Combined-Shape" class="st1" d="M15.781,15.245c0.037,0.397-0.023,0.708-0.56,0.881C14.55,16.343,14.242,15.79,14,16.378
	c-0.242,0.587-0.593,0.783-1.31,0.672c-0.717-0.111-0.453,0.778-1.403,0.631c-0.112-0.017-0.808-0.227-1.788-0.22
	c-0.569,0.004-1.5-1.39-4.514-4.765c-0.095-0.106-0.265-0.273-0.511-0.501c-0.427-0.396-0.459-1.062-0.071-1.496l0,0
	c1.628-1.823,2.638-2.924,3.029-3.301c0.182-0.175,0.516,0.274,0.97,0.657C8.269,8.188,8.138,8.33,8.011,8.479
	C7.843,8.675,7.688,8.874,7.518,9.107C7.457,9.191,7.235,9.501,7.19,9.562c-0.522,0.705-0.693,1.602-0.369,2.352
	c0.439,1.017,1.556,1.339,2.585,0.868c0.31-0.142,0.456-0.231,1.079-0.633c0.112-0.072,0.19-0.122,0.266-0.169
	c0.192-0.119,0.341-0.201,0.452-0.25c0.565,0.411,1.904,1.476,3.935,3.139c0.067,0.055,0.137,0.106,0.21,0.154
	C15.488,15.113,15.633,15.187,15.781,15.245z"/>
<path id="Path-4" class="st1" d="M8.234,10.336c0.554-0.748,1.559-2.428,3.473-2.429c1.234-0.001,2.572-0.245,4.016-0.731
	c0.091-0.031,0.192-0.009,0.262,0.057l3.371,3.191c0.091,0.086,0.108,0.225,0.039,0.33l-1.86,2.864
	c-0.322,0.495-0.984,0.636-1.479,0.314c-0.033-0.021-0.065-0.044-0.095-0.069c-2.391-1.957-3.81-3.079-4.256-3.366
	C10.954,10.014,9.74,11.2,8.865,11.6C7.991,12,7.68,11.084,8.234,10.336z"/>
</svg>
