<svg id="Layer_1" xmlns="http://www.w3.org/2000/svg" viewBox="0 0 30 30"><style>.st1{fill:#fff}</style><path d="M30 15c0 8.3-6.7 15-15 15S0 23.3 0 15 6.7 0 15 0s15 6.7 15 15" fill="#4c4c4c"/><g id="RRnLRY_1_"><path class="st1" d="M24.1 8.8c-.1-.3-.2-.5-.3-.5-.1 0-.3.1-.5.2-.3.2-.7.4-1 .5-.6.3-1.3.7-2 1-.2.1-.2.2-.3.2 0 .1 0 .2.1.4 1.3 2.4 2.6 4.9 3.9 7.4.1.1.1.2.2.2s.2 0 .3-.1c.9-.5 1.7-.9 2.6-1.4l.9-.5v-.1.1c-.1-.1-.1-.2-.2-.3l-3.7-7.1zM9.6 10.1c-.9-.4-1.9-.9-2.8-1.4-.2-.1-.3-.2-.4-.1-.1 0-.2.1-.3.3-1 1.9-2 3.9-3 5.7l-1 1.9v.1l.8.4c.8.4 1.6.8 2.5 1.3.2.1.3.1.4-.1 1.5-2.9 2.8-5.3 4-7.5.1-.1.1-.2.1-.3l-.3-.3zm4.1 13.1c.6-.1.7-.3.8-.7.1-.9.5-1.3 1.4-1.3.2 0 .2 0 .2-.2.1-.8.5-1.2 1.2-1.3.1 0 .2-.1.2-.2.3-1.1.9-1.4 2-1.1.2 0 .2.1.3-.1.3-.5.7-.8 1.1-.9.4 0 .8.1 1.2.5.2.2.4.3.7 0 .3-.2.3-.4.2-.7l-2.7-5.1-.6-1.2c-.1-.2-.2-.3-.4-.4l-.5-.1c-1.1-.3-2.2-.6-3.3-.8h-.1c-.2 0-.3-.1-.4 0 0 0 .1.1.2.1 0 0 .1 0 .1.1.5.4 1.1.8 1.6 1.4.4.5.6 1 .4 1.5-.3 1.2-.8 2.3-1.2 3.3-.1.2-.2.3-.4.4-.2.1-.4.1-.6 0-.6-.3-1-.8-1.1-1.5-.1-.5-.1-1.1 0-1.6 0-.2 0-.3-.1-.4-.1-.1-.3-.1-.4.1l-6 4.2c-.3.2-.5.5-.7.8-.1.3-.1.7.1.9 0 .1.3.2.6.1.5-.1 1-.3 1.6-.6l.6-.4c.6-.4 1.2-.7 1.8-1.1 0 0 .1 0 .1-.1.1-.1.3-.2.4-.2.1 0 .2.1.2.2.1.1.1.2.1.3 0 .2-.2.2-.4.3 0 0-.1 0-.1.1-.4.3-.9.5-1.3.8-.4.3-.9.5-1.3.8-.6.4-.8.9-.6 1.3.1.2.2.3.4.3.3.1.6 0 1-.3.5-.3 1-.6 1.6-1 .4-.3.9-.5 1.3-.8l.1-.1c.1-.1.2-.2.4-.1.1 0 .2.1.2.2.1.1.1.2 0 .3 0 .1-.2.2-.3.3h-.1l-.2.3-2.4 1.5c-.3.2-.4.4-.2.8.1.3.4.4.6.5.4.1.8 0 1.2-.2.5-.3 1-.7 1.5-1 .2-.1.4-.3.6-.4l.1-.1c.1-.1.2-.1.3-.2h.1c.1 0 .2-.1.3-.1.1 0 .2 0 .3.2.2.3-.1.4-.2.5h-.1c-.1.1-.2.1-.2.2l-.3.2c-.5.4-1.1.7-1.6 1.1-.2.1-.3.2-.2.3.1.3.4.4.9.4z"/><path class="st1" d="M15.5 15.5c.4-.9.7-1.9 1-2.7.1-.4.1-.8-.2-1.1-.7-.8-1.6-1.5-2.6-2-.2-.1-.4-.1-.5-.1-.2 0-.4 0-.5.1-.7.3-1.2.6-1.7.8-.2.1-.4.3-.6.5-.4.7-.8 1.5-1.2 2.2-.2.4-.5.9-.7 1.3-.3.5-.5.9-.8 1.3l-.2.4s.1 0 .1-.1c0 0 .1 0 .1-.1 1-.6 1.9-1.3 2.9-2l.5-.4 2.1-1.5.1-.1c.1-.1.3-.3.6 0 .1.1.2.1.3.1.2.1.6.3.4.8-.1.4-.2.9-.1 1.4 0 .5.2.8.5 1 .1.1.3.2.3.2.1.2.1.1.2 0zm2.6 4.1c-.1.4.8 1.7 1.1 1.9h.3c.4 0 .8-.2 1-.5.1-.1.1-.3 0-.4-.2-.5-.5-.9-.9-1.3-.2-.2-.4-.3-.6-.3-.1 0-.2 0-.3.1-.3-.1-.5.1-.6.5zm-.8.7s-.1 0 0 0c-.2 0-.4.1-.5.3-.2.3-.2.7.1 1.2.3.5.5.7 1 .7.2 0 .5-.1.6-.4.1-.2.1-.3 0-.5-.2-.4-.5-.8-.8-1.1-.1-.1-.3-.2-.4-.2zm4-2.1c-.1-.1-.3-.1-.4-.1-.1 0-.2 0-.3.1-.2.1-.3.3-.3.6 0 .5.3.8.5 1.2.1.1.2.2.2.3h.1c.4 0 .9-.5.9-.9.1-.5-.2-1-.7-1.2zm-6.2 4.4c0 .6.4 1.1.9 1.1.4 0 .7-.4.7-.8 0-.2-.1-.5-.3-.7-.2-.2-.4-.3-.6-.3-.5-.1-.7.2-.7.7z"/></g></svg>