<?xml version="1.0" encoding="utf-8"?>
<!-- Generator: Adobe Illustrator 23.0.4, SVG Export Plug-In . SVG Version: 6.00 Build 0)  -->
<svg version="1.1" id="Layer_1" xmlns="http://www.w3.org/2000/svg" xmlns:xlink="http://www.w3.org/1999/xlink" x="0px" y="0px"
	 viewBox="0 0 24 24" style="enable-background:new 0 0 24 24;" xml:space="preserve">
<style type="text/css">
	.st0{fill-rule:evenodd;clip-rule:evenodd; }
	.st1{fill-rule:evenodd;clip-rule:evenodd;fill:#FFFFFF;}
</style>
<path id="Shape" class="st0" d="M12,0C5.36,0,0,5.36,0,12s5.36,12,12,12s12-5.36,12-12S18.64,0,12,0z"/>
<path class="st1" d="M17.887,13.658c-0.355-0.214-0.816-0.099-1.029,0.255c-0.234,0.388-0.539,0.744-0.899,1.061
	c-0.335-1.889-0.547-3.041-0.634-3.444c0-0.002-0.003-0.003-0.003-0.005c-0.156-0.799-0.358-1.777,0.363-1.855
	c0.874-0.095,0.988,1.166,1.465,1.331c0.477,0.165,1.334-0.389,1.238-1.49c-0.065-0.734-0.349-1.346-0.854-1.836l0.576-0.508
	c0.083-0.073,0.091-0.199,0.018-0.282c-0.005-0.006-0.011-0.012-0.017-0.017c-1.134-1.011-2.527-1.139-4.18-0.382
	C12.784,7.01,12.052,8.022,11.717,9.5H5.75C5.336,9.5,5,9.836,5,10.25S5.336,11,5.75,11h2.216L6.83,14.906
	c-0.269-0.246-0.514-0.507-0.711-0.795c-0.234-0.342-0.701-0.429-1.043-0.195s-0.429,0.701-0.195,1.043
	c1.301,1.902,3.799,3.092,6.544,3.092c2.88,0,5.481-1.31,6.718-3.363C18.356,14.332,18.242,13.871,17.887,13.658z M8.165,15.812
	c0.493-2.149,2.089-2.806,3.335-2.806c1.207,0,2.785,0.668,3.067,2.863c-0.92,0.431-1.997,0.681-3.143,0.681
	C10.232,16.55,9.111,16.278,8.165,15.812z"/>
</svg>
