<svg xmlns="http://www.w3.org/2000/svg" viewBox="0 0 24 24"><path d="M12 0C5.36 0 0 5.36 0 12s5.36 12 12 12 12-5.36 12-12S18.64 0 12 0z"/><path d="M17.887 13.658a.75.75 0 00-1.029.255 4.564 4.564 0 01-.899 1.061c-.335-1.889-.547-3.041-.634-3.444 0-.002-.003-.003-.003-.005-.156-.799-.358-1.777.363-1.855.874-.095.988 1.166 1.465 1.331.477.165 1.334-.389 1.238-1.49-.065-.734-.349-1.346-.854-1.836l.576-.508a.2.2 0 00.001-.299c-1.134-1.011-2.527-1.139-4.18-.382-1.147.524-1.879 1.536-2.214 3.014H5.75a.75.75 0 000 1.5h2.216L6.83 14.906a4.658 4.658 0 01-.711-.795.75.75 0 10-1.238.848c1.301 1.902 3.799 3.092 6.544 3.092 2.88 0 5.481-1.31 6.718-3.363a.75.75 0 00-.256-1.03zm-9.722 2.154c.493-2.149 2.089-2.806 3.335-2.806 1.207 0 2.785.668 3.067 2.863a7.43 7.43 0 01-3.143.681 7.403 7.403 0 01-3.259-.738z" fill-rule="evenodd" clip-rule="evenodd" fill="#fff"/></svg>