<svg xmlns="http://www.w3.org/2000/svg" viewBox="0 0 24 24"><path d="M12 0C5.4 0 0 5.4 0 12s5.4 12 12 12 12-5.4 12-12S18.6 0 12 0z" fill-rule="evenodd" clip-rule="evenodd" fill="#95a5b9"/><path d="M17.9 13.7c-.4-.2-.8-.1-1 .3-.2.4-.5.7-.9 1.1-.3-1.9-.5-3-.6-3.4-.2-.8-.4-1.8.4-1.9.9-.1 1 1.2 1.5 1.3.5.2 1.3-.4 1.2-1.5-.1-.7-.3-1.3-.9-1.8l.6-.5c.1-.1.1-.2 0-.3-1.1-1-2.5-1.1-4.2-.4-1.1.5-1.9 1.5-2.2 3h-6c-.5-.1-.8.2-.8.6s.3.8.8.8H8l-1.1 3.9c-.3-.2-.5-.5-.7-.8-.2-.3-.7-.4-1-.2s-.4.7-.2 1c1.3 1.9 3.8 3.1 6.5 3.1 2.9 0 5.5-1.3 6.7-3.4.2-.3 0-.7-.3-.9zm-9.7 2.1c.5-2.1 2.1-2.8 3.3-2.8 1.2 0 2.8.7 3.1 2.9-.9.4-2 .7-3.1.7-1.3-.1-2.4-.3-3.3-.8z" fill-rule="evenodd" clip-rule="evenodd" fill="#fff"/></svg>