<svg xmlns="http://www.w3.org/2000/svg" width="30" height="30"><path fill="#39AAE1" d="M15 0C6.7 0 0 6.7 0 15s6.7 15 15 15 15-6.7 15-15S23.3 0 15 0z"/><g fill="#FFF"><path d="M13.7 23.3c.7.4 2.2.4 3 .1.1.5.2 1 .4 1.4-1 .4-2.6.3-3.7.1-.1-.4.3-.9.3-1.6zm7.5-5.4c-.1.1.1.4.1.6-1.4-.3-2.5.6-3.2 1-.4-2.5-5.6-2.6-6 0-.8-.6-1.9-1.2-3.4-.9 0-.3.1-.4.1-.6-1.2-.4-2.6-.5-2.6-2 0-.9.6-1.9 1.6-2 .8-.1 2.4.4 3.2.7 1.1.4 2 1.1 3.3 1.2h1.3c1.2-.1 2-.6 3-1 .5-.2 1.1-.3 1.7-.4.6-.1 1.2-.4 1.8-.4 1 .1 1.6 1 1.6 2 0 1.2-1.2 1.4-2.5 1.8z"/><path d="M9.2 19.1c1.7-.3 3 .8 3.6 2.3.7 1.8 0 4.4-2.1 4.6-3.3.4-5.2-4.7-2.7-6.5.3-.1.7-.3 1.2-.4zm11 0c2.1-.3 3.6 1.6 3.1 3.9-.3 1.5-1.7 2.8-3 3-1.5.2-2.6-.8-2.9-1.7-.7-1.8.3-3.8 1.3-4.6.3-.2.8-.5 1.5-.6zM20.3 4c-1.1-.1-1.9.4-2.5 1.3-1.3-.9-4.2-.9-5.5-.1C11 3 7.5 4 7.7 6.6c.1 1.1.9 1.7 1.7 2.1-.5 3 1.2 4.9 3.1 5.9 2.6 1.4 5-.1 5-.1 2-.9 3.7-2.9 3-5.8 2.6-.6 2.4-4.5-.2-4.7zm-.2 3.4c-.3-.6-.7-1.1-1.2-1.5.9-1.2 2.6.9 1.2 1.5zm-3.7 3c0 .9-.7 1.6-1.6 1.6s-1.6-.7-1.6-1.6.7-1.6 1.6-1.6 1.6.8 1.6 1.6zm1.2-2.9c0 .4-.3.7-.7.7-.4 0-.7-.3-.7-.7s.3-.7.7-.7c.4 0 .7.3.7.7zm-4.1 0c0 .4-.3.7-.7.7-.4 0-.7-.3-.7-.7s.3-.7.7-.7c.4 0 .7.3.7.7zM11.1 6c-.5.4-.9.9-1.2 1.5-1.3-.7.4-2.8 1.2-1.5z"/></g></svg>