<?xml version="1.0" encoding="utf-8"?>
<!-- Generator: Adobe Illustrator 23.0.4, SVG Export Plug-In . SVG Version: 6.00 Build 0)  -->
<svg version="1.1" id="Sports" xmlns="http://www.w3.org/2000/svg" xmlns:xlink="http://www.w3.org/1999/xlink" x="0px" y="0px"
	 viewBox="0 0 24 24" style="enable-background:new 0 0 24 24;" xml:space="preserve">
<style type="text/css">
	.st0{fill-rule:evenodd;clip-rule:evenodd; }
	.st1{fill-rule:evenodd;clip-rule:evenodd;fill:#FFFFFF;}
</style>
<path class="st0" d="M12,0C5.36,0,0,5.36,0,12s5.36,12,12,12s12-5.36,12-12S18.64,0,12,0z"/>
<path id="Sports_1_" class="st1" d="M6.007,12.287C6.002,12.192,6,12.096,6,12c0-2.846,1.983-5.23,4.644-5.845
	c0.129,3.602,3.092,6.482,6.727,6.482c0.204,0,0.407-0.009,0.606-0.027c-0.269,2.664-2.282,4.814-4.88,5.291
	c-0.525-3.192-3.299-5.628-6.642-5.628C6.304,12.273,6.155,12.278,6.007,12.287z M6.118,13.191c0.111-0.006,0.224-0.01,0.336-0.01
	c2.873,0,5.26,2.08,5.736,4.815C12.129,17.999,12.066,18,12.004,18C9.096,18,6.671,15.934,6.118,13.191z M11.55,6.017
	C11.7,6.006,11.851,6,12.004,6C15.217,6,17.84,8.522,18,11.694c-0.207,0.022-0.417,0.034-0.629,0.034
	C14.192,11.727,11.608,9.18,11.55,6.017z"/>
</svg>
