<?xml version="1.0" encoding="utf-8"?>
<!-- Generator: Adobe Illustrator 20.1.0, SVG Export Plug-In . SVG Version: 6.00 Build 0)  -->
<svg version="1.1" id="Layer_1" xmlns="http://www.w3.org/2000/svg" xmlns:xlink="http://www.w3.org/1999/xlink" x="0px" y="0px"
	 width="30px" height="30px" viewBox="0 0 30 30" enable-background="new 0 0 30 30" xml:space="preserve">
<g>
	<g id="Ebene_2_16_">
		<path fill="#44B1B1" d="M30,15c0,8.3-6.7,15-15,15C6.7,30,0,23.3,0,15C0,6.7,6.7,0,15,0C23.3,0,30,6.7,30,15"/>
		<g>
			<g>
				<g>
					<path fill="#F5FFFF" d="M11.3,4.7C8.9,5.6,7,7.1,5.7,9.2c0,0.1-0.1,0.1-0.1,0.2C5.5,9.5,5.4,9.6,5.4,9.7C5.7,9.6,6,9.4,6.3,9.3
						C6.7,9,7.1,8.8,7.6,8.6C7.7,8.6,7.8,8.5,8,8.5c0.2-0.1,0.4-0.1,0.5-0.2C8.6,8.2,8.7,8,8.8,7.9C8.9,7.7,9,7.6,9.1,7.5
						c0.7-0.8,1.6-1.5,2.4-2.2L11.3,4.7z"/>
				</g>
				<g>
					<path fill="#FFFFFF" d="M12.2,5.1c1.2,0.1,2.2,0.3,3.1,0.6c0.1,0,0.3,0.1,0.4,0.2c0.2,0.1,0.5,0.2,0.5,0.2v0.2l0-0.2
						c0.2,0,0.4-0.1,0.6-0.2c0.1,0,0.3-0.1,0.4-0.1c1-0.2,1.8-0.4,2.8-0.5c0-0.1-0.2-0.2-0.4-0.3c0,0-0.1,0-0.1-0.1
						c-1.4-0.6-3-0.9-4.5-0.9c-1,0-2,0.1-2.9,0.4c0,0.1,0.1,0.2,0.1,0.4C12.1,4.9,12.1,5,12.2,5.1z"/>
				</g>
				<g>
					<path fill="#FFFFFF" d="M5.5,10.5c-0.4,1.3-0.7,2.4-0.8,3.4c0,0.1,0,0.2-0.1,0.3c0,0.3-0.1,0.7-0.1,0.9c0,0.1,0.3,0.4,0.4,0.6
						l0.1,0.1c0.6,0.7,1.3,1.3,1.9,1.8c0.9-0.4,1.8-0.7,2.7-1c0-1.7,0.5-3.2,0.9-4.6l0.1-0.3C10,10.9,9.3,9.9,8.6,9
						c-1.1,0.4-1.9,0.8-2.7,1.3L5.5,10.5z"/>
				</g>
				<g>
					<path fill="#FFFFFF" d="M16.2,10c1.1,0.9,2.5,2.1,3.7,3.5c0.7-0.1,1.4-0.3,2-0.4c0.4-0.1,0.8-0.2,1.2-0.2
						c0.3-1.1,0.4-2.4,0.4-3.7L23.4,9c-1.1-1.1-2.2-2.1-3.4-3c-1,0-2.3,0.3-3.5,0.7c-0.2,0.8-0.2,1.8-0.3,2.8L16.2,10z"/>
				</g>
				<g>
					<path fill="#FFFFFF" d="M10.4,16.5c1.4,1.1,2.5,2.1,3.5,3.2c1.5-0.4,3.1-0.9,4.5-1.5c0.3-0.9,0.7-2,0.9-3.2
						c0-0.1,0-0.2,0.1-0.3c0.1-0.2,0.2-0.6,0.1-0.8c-0.1-0.2-0.4-0.5-0.7-0.7c-0.1-0.1-0.1-0.1-0.2-0.2c-0.7-0.7-1.1-1.1-1.9-1.8
						c0,0-0.1-0.1-0.2-0.2c-0.2-0.2-0.6-0.5-0.7-0.6c-0.2,0-0.5,0.1-0.8,0.2c-0.1,0-0.2,0.1-0.3,0.1c-0.9,0.2-1.7,0.6-2.5,0.9
						c-0.3,0.1-0.5,0.2-0.8,0.3C10.8,13.5,10.4,15,10.4,16.5z"/>
				</g>
				<g>
					<path fill="#FFFFFF" d="M4.1,15.6c0,2.5,1.5,5.5,3,7c0.1-0.1,0.2-0.2,0.3-0.3c0.1-0.1,0.2-0.2,0.3-0.3c-0.4-0.9-0.7-1.9-1-2.8
						c0-0.1-0.1-0.3-0.1-0.4c0-0.2-0.1-0.4-0.1-0.6c-0.1-0.1-0.2-0.2-0.4-0.3c-0.1-0.1-0.2-0.1-0.3-0.2c-0.5-0.5-0.9-0.9-1.3-1.4
						c-0.1-0.1-0.1-0.2-0.2-0.3C4.2,15.9,4.1,15.7,4.1,15.6z"/>
				</g>
				<g>
					<path fill="#FFFFFF" d="M25,16.8c0.1,0,0.2,0.1,0.3,0.1c0.2,0.1,0.3,0.1,0.5,0.2c0.4-2.1,0.1-5.4-1.5-7.8l0,0
						c0,1.2-0.1,2.2-0.2,3c0,0.1,0,0.2-0.1,0.3c0,0.2-0.1,0.4-0.1,0.5c0,0.1,0.1,0.3,0.2,0.4c0,0.1,0.1,0.2,0.1,0.2
						C24.5,14.6,24.7,15.5,25,16.8z"/>
				</g>
				<g>
					<path fill="#FFFFFF" d="M12.9,23c0.4,0.3,0.8,0.7,1.1,1c0.6,0.5,1.1,1.1,1.7,1.5c0.2-0.1,0.4-0.1,0.6-0.2
						c0.8-0.2,1.7-0.4,2.5-0.7c0.1,0,0.3-0.1,0.4-0.1c0.2-0.1,0.5-0.2,0.6-0.3c0.1-0.1,0.2-0.3,0.3-0.5c0-0.1,0.1-0.2,0.1-0.3
						c0.4-0.8,0.7-1.5,0.9-2.3c0.1-0.2,0.1-0.3,0.2-0.5c-0.3-0.2-0.6-0.4-0.9-0.5c-0.2-0.1-0.4-0.2-0.6-0.3c-0.1,0-0.2-0.1-0.3-0.2
						c-0.3-0.2-0.9-0.7-1.2-0.7c0,0,0,0-0.1,0.1c-1.1,0.5-2.4,0.8-3.7,1.2c-0.3,0.1-0.5,0.2-0.8,0.2c-0.2,0.5-0.5,1.1-0.7,1.7
						C13.1,22.4,13,22.7,12.9,23z"/>
				</g>
				<g>
					<path fill="#FFFFFF" d="M7.6,23.1c1.8,1.7,4.1,2.7,6.6,2.8l0.2,0c0.2,0,0.5,0,0.7,0c-0.1-0.1-0.2-0.2-0.3-0.3
						c-0.1-0.1-0.1-0.1-0.2-0.2c-0.4-0.4-0.9-0.8-1.3-1.2c-0.3-0.3-0.6-0.6-0.9-0.9c-0.3,0-0.6-0.1-0.9-0.1
						c-0.4-0.1-0.9-0.1-1.4-0.2c-0.3-0.1-0.6-0.2-0.9-0.3c-0.4-0.1-0.8-0.3-1.1-0.3c-0.1,0.1-0.2,0.2-0.2,0.3
						C7.8,22.9,7.7,23,7.6,23.1z"/>
				</g>
				<g>
					<path fill="#FFFFFF" d="M20.7,24.2c0.3,0,0.6-0.2,0.9-0.5l0.2-0.1c1.9-1.5,3.2-3.6,3.8-5.9c-0.3-0.1-0.5-0.2-0.7-0.2
						c-0.7,1-1.6,2.3-2.8,3.3C21.7,21.9,21.3,23.1,20.7,24.2z"/>
				</g>
			</g>
		</g>
	</g>
</g>
</svg>
