<svg xmlns="http://www.w3.org/2000/svg" width="30" height="30"><path fill="#44B1B1" d="M30 15c0 8.3-6.7 15-15 15S0 23.3 0 15 6.7 0 15 0s15 6.7 15 15"/><path fill="#F5FFFF" d="M11.3 4.7C8.9 5.6 7 7.1 5.7 9.2c0 .1-.1.1-.1.2-.1.1-.2.2-.2.3.3-.1.6-.3.9-.4.4-.3.8-.5 1.3-.7.1 0 .2-.1.4-.1.2-.1.4-.1.5-.2.1-.1.2-.3.3-.4.1-.2.2-.3.3-.4.7-.8 1.6-1.5 2.4-2.2l-.2-.6z"/><path fill="#FFF" d="M12.2 5.1c1.2.1 2.2.3 3.1.6.1 0 .3.1.4.2.2.1.5.2.5.2v.2-.2c.2 0 .4-.1.6-.2.1 0 .3-.1.4-.1 1-.2 1.8-.4 2.8-.5 0-.1-.2-.2-.4-.3 0 0-.1 0-.1-.1-1.4-.6-3-.9-4.5-.9-1 0-2 .1-2.9.4 0 .1.1.2.1.4-.1.1-.1.2 0 .3zm-6.7 5.4c-.4 1.3-.7 2.4-.8 3.4 0 .1 0 .2-.1.3 0 .3-.1.7-.1.9 0 .1.3.4.4.6l.1.1c.6.7 1.3 1.3 1.9 1.8.9-.4 1.8-.7 2.7-1 0-1.7.5-3.2.9-4.6l.1-.3c-.6-.8-1.3-1.8-2-2.7-1.1.4-1.9.8-2.7 1.3l-.4.2zm10.7-.5c1.1.9 2.5 2.1 3.7 3.5.7-.1 1.4-.3 2-.4.4-.1.8-.2 1.2-.2.3-1.1.4-2.4.4-3.7l-.1-.2c-1.1-1.1-2.2-2.1-3.4-3-1 0-2.3.3-3.5.7-.2.8-.2 1.8-.3 2.8v.5zm-5.8 6.5c1.4 1.1 2.5 2.1 3.5 3.2 1.5-.4 3.1-.9 4.5-1.5.3-.9.7-2 .9-3.2 0-.1 0-.2.1-.3.1-.2.2-.6.1-.8-.1-.2-.4-.5-.7-.7l-.2-.2c-.7-.7-1.1-1.1-1.9-1.8l-.2-.2c-.2-.2-.6-.5-.7-.6-.2 0-.5.1-.8.2-.1 0-.2.1-.3.1-.9.2-1.7.6-2.5.9-.3.1-.5.2-.8.3-.6 1.6-1 3.1-1 4.6zm-6.3-.9c0 2.5 1.5 5.5 3 7l.3-.3.3-.3c-.4-.9-.7-1.9-1-2.8 0-.1-.1-.3-.1-.4 0-.2-.1-.4-.1-.6-.1-.1-.2-.2-.4-.3-.1-.1-.2-.1-.3-.2-.5-.5-.9-.9-1.3-1.4-.1-.1-.1-.2-.2-.3-.1-.1-.2-.3-.2-.4zM25 16.8c.1 0 .2.1.3.1.2.1.3.1.5.2.4-2.1.1-5.4-1.5-7.8 0 1.2-.1 2.2-.2 3 0 .1 0 .2-.1.3 0 .2-.1.4-.1.5 0 .1.1.3.2.4 0 .1.1.2.1.2.3.9.5 1.8.8 3.1zM12.9 23c.4.3.8.7 1.1 1 .6.5 1.1 1.1 1.7 1.5.2-.1.4-.1.6-.2.8-.2 1.7-.4 2.5-.7.1 0 .3-.1.4-.1.2-.1.5-.2.6-.3.1-.1.2-.3.3-.5 0-.1.1-.2.1-.3.4-.8.7-1.5.9-2.3.1-.2.1-.3.2-.5-.3-.2-.6-.4-.9-.5l-.6-.3c-.1 0-.2-.1-.3-.2-.3-.2-.9-.7-1.2-.7l-.1.1c-1.1.5-2.4.8-3.7 1.2-.3.1-.5.2-.8.2-.2.5-.5 1.1-.7 1.7.1.3 0 .6-.1.9zm-5.3.1c1.8 1.7 4.1 2.7 6.6 2.8h.9l-.3-.3-.2-.2c-.4-.4-.9-.8-1.3-1.2l-.9-.9c-.3 0-.6-.1-.9-.1-.4-.1-.9-.1-1.4-.2l-.9-.3c-.4-.1-.8-.3-1.1-.3-.1.1-.2.2-.2.3-.1.2-.2.3-.3.4zm13.1 1.1c.3 0 .6-.2.9-.5l.2-.1c1.9-1.5 3.2-3.6 3.8-5.9-.3-.1-.5-.2-.7-.2-.7 1-1.6 2.3-2.8 3.3-.4 1.1-.8 2.3-1.4 3.4z"/></svg>