<?xml version="1.0" encoding="utf-8"?>
<svg xmlns="http://www.w3.org/2000/svg">
<symbol id="antiquitaten"><path fill="#DF9767" d="M29.9 15c0 8.3-6.7 15-15 15s-15-6.7-15-15C0 6.7 6.7 0 15 0c8.2 0 14.9 6.7 14.9 15"/><g fill="#FFF"><path d="M10.3 4.4h9.3c.3.3.3.6.1.6h-9.5c-.3 0-.1-.5.1-.6zm.9 1.4h1.4c.2 0-.8 3.4-.8 3.6 0 2.2 2 4 2.7 5.1.2-.4-2.7-4.5-2-5.2.9-1.9 1-3.5 1.1-3.5h5c0 .5-.2.9-.3 1.3-.2 2.4 1.8 2.9 2.7 4.1 1.1 1.4 1.2 3.3.8 5-.1.3-4.7 2.2-4.8 2.5 0 .1-2.1 2.4-2.5 3.3.5.6 3.3-2.7 3.5-2.8 1.2-.5 3.6-2.2 3.6-2-.3.7-.8 1.7-1.2 2.2-.7 1-3 2.6-2.3 3.9.3.5 1.2.5 1.3 1 .3 1.1-.9.9-1.8 1-1.4.1-3.6.1-5.2 0-1.2-.1-2.1 0-1.9-.9.1-.8 1.4-.4 1.5-1.6 0-1-1.7-2.5-2.4-3.4-1.5-2.1-2.8-5.6-.8-8.2 1.1-1.4 3.6-2 2.5-5.2-.1-.1-.1-.2-.1-.2z"/><path d="M10.6 9.1c-.1-.9-.1-1.7-.8-1.8-1.5-.2-1.8 2.3-1.1 3.6-.3.5-.6 1.2-1.1 1.6-.5-.3-.2-.8.2-1.1-.3-1.2-.8-2.1-.4-3.3 1-2.9 5.5-1.4 3.2 1zm11.5 2.2c.2.3.7.8.2 1.1-.5-.4-.7-1-1.1-1.6.7-1.3.5-3.6-1-3.5-.8.1-.8.8-.9 1.8-2.3-2.3 2.2-4 3.2-1 .4 1.1 0 2.1-.4 3.2z"/></g><path fill="none" d="M.1 15c0 8.3 6.7 15 15 15s15-6.7 15-15-6.7-15-15-15S.1 6.7.1 15"/>
</symbol>
<symbol id="baby"><path fill="#E49FC6" d="M30 15c0 8.3-6.7 15-15 15S0 23.3 0 15 6.7 0 15 0s15 6.7 15 15"/><g fill="#FFF"><path d="M16.3 6.1c.9.2 1.6.5 1.5 1.7h-5.7c.1-1 .4-1.6 1.5-1.6-1.1-3.9 4.1-3.6 2.7-.1z"/><path d="M15 8.1h-2.9v-.2c.1-.7.3-1.7 1.5-1.7-.3-1.1-.1-1.8.2-2.2.3-.4.8-.6 1.3-.6s1 .2 1.3.7c.4.5.4 1.2.1 2 .8.2 1.6.7 1.5 1.9v.2h-.1c-1.1-.1-2-.1-2.9-.1z"/></g><path fill="#FFF" d="M11.3 11.1c-.3-.3-.4-.6-.4-1.1 0-.5.1-.8.4-1.1h7.5c.6.6.6 1.7.1 2.2h-7.6z"/><g fill="#FFF"><path d="M18.2 25c0 .3.2.4-.1.4H12c-.3 0-.5-.1-.5-.4V13.1c0-.3.2-.5.5-.5h6c.3 0 .1.2.1.5V25z"/><path d="M18 26.1h-6c-.6 0-1.3-.5-1.3-1.1V13.1c0-.6.7-1.2 1.3-1.2h6c.6 0 .9.6.9 1.2V25c0 .6-.3 1.1-.9 1.1z"/></g><path fill="#E3A5BE" d="M15.2 14.1h2.2v.8h-2.2zm0 2.2h2.2v.8h-2.2zm0 2.3h2.2v.8h-2.2z"/>
</symbol>
<symbol id="buecher"><path fill="#EFA758" d="M30 15c0 8.3-6.7 15-15 15S0 23.3 0 15 6.7 0 15 0s15 6.7 15 15"/><path fill="#FFF" d="M16.3 23.1h-2.4c-3.1-.8-8.5-.9-8.5-.9H5V8.3l.3-.1C6.4 8 7.7 8 9.1 8c2.7 0 5 .3 5 .3h2.3c.5 0 1.9-.2 3.9-.2 1.6 0 3.1.1 4.6.3h.3v13.9h-1.7c-3.1 0-3.6.1-6.4.7l-.8.1zm-2.3-.8h2.2l.7-.1c2.8-.6 3.4-.7 6.6-.7h.9V9.1c-1.3-.1-2.7-.2-4.1-.2-1.9 0-3.3.1-3.8.2h-2.4c-.1-.1-2.3-.4-5-.4-1.3 0-2.4.1-3.4.2v12.5c1.3.1 5.6.3 8.3.9z"/><path fill="#FFF" d="M15.1 21.2V8.6s3.9-2.1 8.6-.5v12.2s-6.2-.6-8.6.9z"/><path fill="#EFA758" d="M15.1 22.2V8.3l.1-.2c.1 0 1.9-1.1 4.8-1.1 1.3 0 2.7.2 4 .6l.4.5-.2 12.9-.4-.2s-1.2-.1-2.7-.1c-2.6 0-4.5.3-5.2.9l-.8.6z"/><path fill="#EFA758" d="M15.4 22.2l-.8-.7c-.7-.6-2.2-.9-4.4-.9-2 0-3.8.3-3.8.3l-.7.1V7.7l.4-.1C7.2 7.2 8.5 7 9.8 7c3 0 5.3 1.1 5.4 1.2l.3.1-.1 13.9z"/><path fill="#FFF" d="M14.4 20.3V8.9S10.6 7 6.8 8.4v11.3c.1 0 5.5-.7 7.6.6zm1.5 0V8.9s3.8-1.9 7.6-.5v11.3c0 .1-5.5-.7-7.6.6z"/>
</symbol>
<symbol id="buro"><path fill="#9C998C" d="M15 0C6.7 0 0 6.7 0 15s6.7 15 15 15 15-6.7 15-15S23.3 0 15 0zm4.7 15.3c0 .6-.5.8-1.1.8h-7.4c-.6 0-1.1-.2-1.1-.8 0-.6.5-.8 1.1-.8h7.4c.6 0 1.1.2 1.1.8zM10.2 4.7c0-.6.6-1.1 1.3-1.1h7.2c.6 0 .9.4.9 1.1v7.1c0 .6-.3 1.2-.9 1.2h-7.2c-.6 0-1.3-.5-1.3-1.2V4.7zm13.5 8c-.2 1-1.7.6-2.7.7-.1 1.9.4 3.8-1 4.4-1.1.3-2.9.1-4.4.2 0 1 .2 2.1.2 3.1 1.5.4 3.8 1.7 5.4 3.3v.6c0 .4.4.4.4.9 0 1-1.5.9-1.6.1 0-.8.2-.7 0-1.1-3.3-2.4-4.1-2.8-4.9-2.9-.7.1-1.8.3-5.1 2.7 0 1 .2.6.1 1.4-.1.9-1.3.8-1.3-.1 0-.6-.1-.5.7-.9v-1c2.3-1.8 3.3-2.3 5.2-2.9 0-1.1-.1-2-.1-3.1-1.8-.2-3.8.4-4.9-.3-1.2-.7-.7-2.4-.8-4.2-.6-.1-1.5 0-2.2-.1-.6-.2-.7-1.3-.1-1.6.7-.1 1.8-.1 2.6 0 .2 0 .4.3.4.6v3.3c0 1.1.2.8.3 1 .4.4 1.4.1 2.3.1h5.1c1.3 0 2.7.4 3-.4.3-.6.1-1.4.1-2 0-1.2-.3-2.6.7-2.8 1-.3 2.8-.3 2.6 1z"/>
</symbol>
<symbol id="computer"><path fill="#93B1B0" d="M30 15c0 8.3-6.7 15-15 15S0 23.3 0 15 6.7 0 15 0s15 6.7 15 15"/><path fill="#FFF" d="M22.6 17.2H7.3c-.7 0-.5-.3-.5-.8V7.1c0-.5.4-.8.9-.8h14.5c.5 0 .8.2.8.7v9.4s0 .8-.4.8zm3 4.6c0 .7 0 .7-.5.7H5c-.6 0-.6 0-.6-.7L6 18.6c.4-1 1.1-.8 1.7-.8h15.5c.4 0 .6 0 .9.7l1.5 3.3z"/><path fill="none" stroke="#93B1B0" stroke-width=".875" stroke-miterlimit="10" d="M19 23.4c0 .4-.3.4-.8.4h-6.7c-.4 0-.8-.2-.8-.4l.2-1.6c0-.2.2-.4 1-.4h6.2c.2 0 .5.2.5.4l.4 1.6z"/><path fill="#93B1B0" d="M21.5 14.5v1.1H8.3V7.1h13.2z"/>
</symbol>
<symbol id="fahrzeuge"><path fill="#A5C563" d="M30 15c0 8.3-6.7 15-15 15S0 23.3 0 15 6.7 0 15 0s15 6.7 15 15"/><path fill="#FFF" d="M15 19.4H9.8c-.3 0-.4.1-.4.4v1.6c0 .7-.4 1.2-1 1.4-.6.2-1.2 0-1.6-.5-.2-.3-.3-.6-.3-.9v-1.6c0-.2-.1-.3-.3-.3H5.1c-.2 0-.3 0-.3-.2V14c0-1 .6-1.8 1.6-2.1.2-.1.2-.2.3-.3l1.5-3.9C8.7 6.5 9.3 6 10.6 6h8.5c1.3 0 2 .5 2.5 1.7.5 1.3 1 2.5 1.5 3.8.1.2.2.3.4.4.9.3 1.4.9 1.5 1.9.1.5 0 1 0 1.6v3.9c0 .3-.1.3-.3.3h-1c-.2 0-.3.1-.3.3v1.6c0 .9-.6 1.5-1.4 1.5-.8 0-1.4-.6-1.5-1.5V20c0-.3-.1-.3-.3-.3-1.7-.3-3.4-.3-5.2-.3m0-7.7h6.4c.3 0 .3-.1.2-.3-.4-1.1-.8-2.1-1.2-3.2-.2-.7-.5-.8-1.2-.8h-8.4c-.7 0-1 .1-1.2.8-.4 1.1-.8 2.1-1.2 3.2-.1.3 0 .3.2.3H15m-7 1.5c-.8 0-1.5.7-1.5 1.5 0 .9.7 1.5 1.5 1.5s1.5-.7 1.5-1.5-.7-1.5-1.5-1.5m15.5 1.5c0-.9-.7-1.5-1.5-1.5s-1.5.7-1.5 1.6c0 .9.7 1.5 1.5 1.5s1.5-.7 1.5-1.6"/>
</symbol>
<symbol id="filme"><path fill="#EB6256" d="M30 15c0 8.3-6.7 15-15 15S0 23.3 0 15 6.7 0 15 0s15 6.7 15 15"/><path fill="#FFF" d="M5.7 14.8h3.2V17c0 .7.6.6.9.6H14c0 .5-.1 1.5.7 1.5-1.2 2.2-3.4 6.4-3.6 6.9-.2.4.8.9 1.2 0 .4-.9 1.9-3.5 2.7-5.1v5.2c0 .6 1.2.7 1.2 0v-5.3c.6 1.8 1.8 4.8 2 5.2.2.5 1.2.5 1.2-.3.1-.8-2-4.4-2.9-6.7.8 0 .7-.7.7-1.5H21c.4 0 .5-.1.5-.4v-6c0-.3-.4-.3-.4-.3h-1.2c.2-.8-.3-.5-.5-.7 3.2-.6 2.9-6-.4-6.6 0 0-.8-.2-1.6 0-.7.2-1.7 1-2.2 2-.5-1-1.5-1.8-2.3-2-.6-.1-1.5 0-1.5 0-3.1.6-3.4 6.2-.2 6.8-.2.1-.5.2-.3.6H9.3c-.3 0-.4.3-.4.4v1.6H5.7M12 8.5c-1.6 0-1.6-2.6 0-2.6 1.5 0 1.5 2.6 0 2.6zm7 .1c-1.6 0-1.6-2.6 0-2.6 1.5 0 1.5 2.6 0 2.6z"/><path fill="#FFF" d="M5.8 15.7c0 .2-.1.2-.4.4l-1.4.5c-.2 0-.5-.1-.5-.3v-4.9c0-.2.3-.3.5-.3l1.4.7c.2.1.4.2.4.4v3.5zm17.8-.1c0 .2-.2.8-.4.8h-.4c-.2 0-.7-.6-.7-.8v-3.4c0-.2.5-.4.7-.4h.4c.2 0 .4.2.4.4v3.4zm-1.5-.8h-.8v-1.5h.8z"/>
</symbol>
<symbol id="foto"><path fill="#89AAD9" d="M30 15c0 8.3-6.7 15-15 15S0 23.3 0 15 6.7 0 15 0s15 6.7 15 15"/><g fill="#FFF"><path d="M18.8 7.3c.3.3.4.9.6 1.4.2.4.3 1.1.6 1.3.7.4 2.1 0 3.2.2.6.2 1.1.6 1.3 1.4.2.6 0 1.6 0 2.5v5.1c0 .9.1 1.9 0 2.4-.2.5-.5.8-.9 1.1-1.3.4-2.8.2-4.3.2h-9c-1.3 0-3.5.2-4.4-.2C5.1 22 5 20.8 5 19v-5c0-.8 0-1.8.2-2.4.2-.6.7-1 1.2-1.3.6-.1 1.2-.1 1.8-.1.5 0 1.2.1 1.7-.1.8-.5.5-2.7 1.7-2.9 1.2-.3 2.5-.2 3.7-.2h1.8c.7 0 1.2 0 1.7.3zm-2.9 13.5c2.2-.4 4.3-2.5 4-5.4-.2-2-1.8-3.6-3.6-4.1-.5-.1-1.1-.2-1.7-.1-1 .1-2 .5-2.7 1.1-.9.6-1.5 1.7-1.7 2.7-.3 1.5.1 2.7.8 3.9 1.1 1.2 2.7 2.3 4.9 1.9zm5.5-8c.1.8 1.4.8 1.4 0 0-.4-.3-.9-1-.7-.2.2-.4.3-.4.7z"/><path d="M15.4 18.9c-1.2.1-1.9-.3-2.6-.9-.5-.6-.9-1.6-.6-2.8.1-.5.3-.9.6-1.3s.7-.6 1.8-.8c2-.1 3.6 1.4 3.2 3.5-.1 1.1-1.1 2.2-2.4 2.3z"/></g>
</symbol>
<symbol id="free"><path fill="#55A63E" d="M15 0C6.7 0 0 6.7 0 15s6.7 15 15 15 15-6.7 15-15S23.3 0 15 0z"/><path fill="#FFF" d="M21.4 9.7l-3.8-2.4c.2-.5.3-1 .3-1.6 0-1.9-1.3-3.5-2.9-3.5-1.6 0-2.9 1.6-2.9 3.5 0 .5.1 1.1.3 1.6L8.7 9.7c-.2.1-.2.3-.2.4V25c0 .2.2.5.5.5h12.2c.2 0 .5-.2.5-.5V10.1c-.1-.2-.2-.3-.3-.4zm-8.3-4c0-1.4.9-2.6 2-2.6s2 1.2 2 2.6c0 .4-.1.8-.2 1.1l-1.6-1c-.2-.1-.3-.1-.5 0l-1.6 1c-.1-.4-.1-.7-.1-1.1zm7.6 18.9H9.4V10.4l3.9-2.5 1.8-1.2 1.3.9-.4.4c-.2-.2-.6-.3-.9-.3-.5 0-.9.2-1.2.5l-.1.1c-.2.2-.3.5-.3.9 0 .9.7 1.5 1.5 1.5.9 0 1.5-.7 1.5-1.5 0-.2 0-.3-.1-.5.2-.2.5-.4.7-.6l3.5 2.3.1 14.2zm-5-15.4c0 .3-.3.6-.6.6s-.6-.3-.6-.6v-.1c.2.1.4.1.6.1.2 0 .3-.1.6 0 0-.1 0 0 0 0z"/><path fill="#FFF" d="M12.5 16.1c0-.3.1-.6.1-.9.1-.3.1-.6.2-.8.1-.3.3-.5.4-.7.2-.2.4-.4.7-.5.3-.1.6-.2 1-.2s.7.1 1 .2c.3.1.5.3.7.5.2.2.3.4.4.7.1.3.2.5.2.8.1.3.1.6.1.9v1.8c0 .3 0 .6-.1.9-.1.3-.1.6-.2.8-.1.3-.3.5-.4.7-.2.2-.4.3-.7.5-.3.1-.6.2-1 .2s-.7-.1-1-.2c-.3-.1-.5-.3-.7-.5-.2-.2-.3-.4-.4-.7-.1-.3-.2-.5-.2-.8-.1-.3-.1-.6-.1-.9V17c-.1-.3-.1-.6 0-.9zm.9 1.9c0 .4.1.7.2 1 .1.3.3.6.5.8.2.2.5.3.9.3s.7-.1.9-.3c.2-.2.4-.5.5-.8.1-.3.2-.7.2-1v-1.6c0-.2 0-.5-.1-.7 0-.2-.1-.4-.1-.7l-.3-.6c-.1-.2-.3-.3-.5-.4-.2-.1-.4-.2-.7-.2-.3 0-.5.1-.7.2-.2.1-.3.2-.5.4l-.3.6c-.1.2-.1.4-.1.7 0 .2-.1.5-.1.7v.6c.2.3.2.6.2 1z"/>
</symbol>
<symbol id="garten"><path fill="#5FB67B" d="M30 15c0 8.3-6.7 15-15 15S0 23.3 0 15 6.7 0 15 0s15 6.7 15 15"/><path fill="#FFF" d="M23 14.7c.4 0 .8-.5 1.1-.9.4-.4.9-.7.9-1.1v-.4c0-.5-.8-.9-1.4-.6-.5-.4-.6-1.1-.9-1.6-.6-.9-.7-1-1.4-1.8-1-1-2.1-2.2-3.9-2.2h-1.1c-.8 0-1.9.2-1.9.4s.6.1 1 .2c1.4.1 3.3 1.1 3.3 2.5 0 .5-.5 1.1-.1 1.5-.9 1-1.9 1.9-2.9 2.9-.5-.5-1-1-1.6-1.5l1.3-1.3c0-.2-.1-.2-.1-.2-1.2-1.5-2.3-3-3.5-4.1-1.3-1.1-3.6-1-5.5-.7 0 1.6.3 2.5.7 4 .6 1.2 1 1.7 2 2.8.7.8 1.5 1.7 2.2 2.4l1.4-1.4 1.1 1.1c-.4.1-.7.5-1 .8C11.2 17 9.6 18.6 8 20c-.7.6-1.2 1.2-1.9 1.9v.4c.8.4.7.8 1.1 1.2.4.4 0 .2.5.3.7.2 1.1-.4 1.5-.8 1.8-1.9 3.6-3.7 5.4-5.5.3-.3.7-.6.8-1l1.2 1.2c0 .6.1 2 .8 3.4.4.8.9 1.4 1.4 1.9.4.4 1.3 1.4 1.7 1.3.2 0 .3-.2.5-.4.8-.6 1.3-1.2 2-2 .5-.6 1.2-1.3 1.5-1.8.1-.2.5-.8.4-1 0-.2-.4-.6-.6-.8-1.2-1.2-2.6-2-3.9-2.4-.7-.2-1.2-.1-1.9-.2-.2 0-.8-.6-1.7-1.4l2.8-2.8c.3.2.5.4.8.4.3 0 .5-.1.8-.1.7.1.9.7 1.3 1.1-.9.6-.4 1.9.5 1.8zm-5 3.9c.2-.5.9-1.3 1.7-1.5 1-.3 2.8.8 3.5 1.6-1.2 1.3-2.4 2.6-3.5 4-1-1.1-2.3-2.8-1.7-4.1z"/>
</symbol>
<symbol id="haushalt"><path fill="#C5997B" d="M15 0C6.7 0 0 6.7 0 15s6.7 15 15 15 15-6.7 15-15S23.3 0 15 0z"/><path fill="#FFF" d="M20.4 23.9h1.4v-1.5h.2c.3 0 .4-.2.5-.4.2-1.7.6-4.6.9-6.8.1-.5.4-.8.9-.9.7-.1 1-.8 1-1.4 0-.7-.4-1.5-1.6-1.5-.8 0-1.8.5-1.8 1.8v3.2c0 .4-.2.7-.3 1.1-.2.8-1 1.2-1.8 1.2h-9.5c-.8 0-1.6-.5-1.8-1.2-.1-.3-.3-.7-.3-1.1v-3.2c0-1.3-.9-1.7-1.7-1.7-1.2 0-1.6.8-1.6 1.5 0 .6.3 1.3 1 1.4.5 0 .9.4.9.9.1 2 .5 4.7.8 6.7 0 .2.2.4.4.4h.3l-.1.2v1.3h1.5v-1.5h10.6v1.5h.1z"/><path fill="#FFF" d="M9.7 14.8c-.1 0-.1.2-.1.2v.9c0 .3 0 .8.1 1.2.1.3.3.7.5.7h9.5c.3 0 .5-.3.5-.6.1-.4.1-.8.1-1.1v-1c0-.1-.1-.3-.1-.3H9.7zM15 5.4c3.1 0 5.7 1.9 7 4.7.1.2 0 .4-.2.5-.7.4-1.2 1.2-1.2 2.2v.8c0 .2-.2.5-.4.5H9.8c-.2 0-.4-.3-.4-.5v-.8c0-1-.5-1.8-1.2-2.2-.2-.1-.3-.3-.2-.5 1.3-2.8 3.9-4.7 7-4.7z"/>
</symbol>
<symbol id="immobilien"><path fill="#5FB4DF" d="M30 15c0 8.3-6.7 15-15 15S0 23.3 0 15 6.7 0 15 0s15 6.7 15 15"/><g fill="#FFF"><path d="M22.4 14.4v9.1h-4.7v-6.7h-5v6.6H7.9v-8.9H5.5c-.5 0-.9 0-.6-.3 1.1-1 7.6-7.2 9.8-9.1.2-.1.3-.1.5.1l9.9 8.9c.2.2.1.3-.2.3h-2.5z"/><path d="M10.2 12.9c0 .2-.1.1-.4.1H8.3c-.3 0-.4.1-.4-.1V6.5c0-.2.2-.5.4-.5h1.5c.3 0 .4.3.4.5v6.4z"/></g>
</symbol>
<symbol id="kleidung"><path fill="#EDBD5D" d="M30 15c0 8.3-6.7 15-15 15S0 23.3 0 15 6.7 0 15 0s15 6.7 15 15"/><path fill="#FFF" d="M20.4 8.1h-2.5c-.1 1.5-1.4 2.7-2.9 2.7s-2.8-1.2-2.9-2.7H9.5c-.3 0-.5.3-.9.5l-4.9 4 2.5 2.7 2.6-2.1v10.2c0 .2.4.5.6.5h11.3c.2 0 .1-.2.1-.5V13.1l3 1.7 2.4-3.6-5.1-2.9c-.2 0-.5-.2-.7-.2z"/>
</symbol>
<symbol id="musik"><path fill="#ED755A" d="M30 15c0 8.3-6.7 15-15 15S0 23.3 0 15 6.7 0 15 0s15 6.7 15 15"/><path fill="#FFF" d="M8 24.9c-1.4 0-3-.7-3.2-2.2-.1-1 .1-1.9.8-2.6.7-.8 1.9-1.3 3.1-1.3.7 0 1.3.2 1.9.4V7.9s2.8-.7 4.2-1c2.5-.5 8-1.8 8-1.8v13.5c-.1.8-.1 1.4-.7 2.2-.7.9-2.3 1.6-3.9 1.6-1.8 0-2.9-.9-2.9-2.4 0-.9.3-1.7.9-2.3.8-.8 2-1.3 3.3-1.3.6 0 1.2.1 1.7.3 0-.9 0-1.8.1-2.6 0-1.7.1-3.5.1-5.3-2 .4-3.9.9-5.8 1.3-1 .2-2.1.5-3.1.8V20c0 2.3-1 4-2.8 4.7-.6.1-1.1.2-1.7.2z"/>
</symbol>
<symbol id="sammeln"><path fill="#3480AA" d="M30 15c0 8.3-6.7 15-15 15S0 23.3 0 15 6.7 0 15 0s15 6.7 15 15"/><path fill="#FFF" d="M23.5 7.1v-.7h-.8s-.4.8-1 .8-1-.8-1-.8h-.6s-.4.8-1 .8-1-.8-1-.8h-.7s-.4.8-1 .8-1-.8-1-.8h-.7s-.3.9-1 .9-1-.9-1-.9H12s-.4.8-1 .8-1-.8-1-.8h-.9s-.4.8-1 .8-1-.8-1-.8h-.5v1.2c1.5 0 1.5 1.8 0 1.8v.5c.8.1.8 1.7 0 1.8v.3c.8 0 .8 1.8 0 1.8v.6c.8.1.8 1.7 0 1.8v.5c.8.1.8 1.7 0 1.8v.6c.8.2.8 1.6 0 1.8v.4c.8.1.8 1.7 0 1.8v.8h1.5c0-.8.3-.9 1-.9s1 .1 1 .9h1.1c0-.8.3-.9 1-.9s1 .2 1 .9h.9c0-.8.3-1 1-1s1 .2 1 1h.9c0-.8.3-1 1-1s1 .2 1 1h1c-.1-.8.3-1 1-1s1.1.3 1 1h1.4v-1c-1.5-.1-1.5-1.8 0-1.8v-.4c-1.4 0-1.4-1.7.1-1.7v-.5c-.8-.1-.8-1.7 0-1.8v-.6c-1.5-.1-1.5-1.8 0-1.8v-.4c-1.5 0-1.5-1.8 0-1.8v-.4c-1.5 0-1.5-1.8 0-1.8V9c-.8-.2-.8-1.7 0-1.9zm-15 14.7v-14c2.4 0 10.1-.1 13-.1v14c-2 .1-11 .1-13 .1z"/><path fill="#FFF" d="M15.6 9.4h-.3c-.1 0-.1 0-.2.1l-3.8 3.4c-.1.1-.1.1-.1.2v.6c0 .2.1.3.3.3h1.2v3.2c0 1.1.2 1.7.6 2.2.5.5 1.5.9 2.6.9 1 0 1.9-.3 2.7-.8.1-.1.1-.1.1-.2v-1.8c0-.1-.1-.2-.1-.3h-.2c-.5.3-1 .4-1.4.4-.7 0-1-.3-1-1.1V14h2.3c.2 0 .3-.1.3-.3v-1.5c0-.2-.1-.3-.3-.3H16V9.7c-.1-.1-.2-.3-.4-.3"/>
</symbol>
<symbol id="sonstiges"><path fill="#E6646E" d="M15 0C6.7 0 0 6.7 0 15s6.7 15 15 15 15-6.7 15-15S23.3 0 15 0z"/><circle fill="#FFF" stroke="#FFF" stroke-width=".109" stroke-miterlimit="10" cx="6.7" cy="15.1" r="2.6"/><circle fill="#FFF" stroke="#FFF" stroke-width=".109" stroke-miterlimit="10" cx="14.9" cy="15.1" r="2.6"/><circle fill="#FFF" stroke="#FFF" stroke-width=".109" stroke-miterlimit="10" cx="23.1" cy="15.1" r="2.6"/>
</symbol>
<symbol id="spielzeuge"><path fill="#39AAE1" d="M15 0C6.7 0 0 6.7 0 15s6.7 15 15 15 15-6.7 15-15S23.3 0 15 0z"/><g fill="#FFF"><path d="M13.7 23.3c.7.4 2.2.4 3 .1.1.5.2 1 .4 1.4-1 .4-2.6.3-3.7.1-.1-.4.3-.9.3-1.6zm7.5-5.4c-.1.1.1.4.1.6-1.4-.3-2.5.6-3.2 1-.4-2.5-5.6-2.6-6 0-.8-.6-1.9-1.2-3.4-.9 0-.3.1-.4.1-.6-1.2-.4-2.6-.5-2.6-2 0-.9.6-1.9 1.6-2 .8-.1 2.4.4 3.2.7 1.1.4 2 1.1 3.3 1.2h1.3c1.2-.1 2-.6 3-1 .5-.2 1.1-.3 1.7-.4.6-.1 1.2-.4 1.8-.4 1 .1 1.6 1 1.6 2 0 1.2-1.2 1.4-2.5 1.8z"/><path d="M9.2 19.1c1.7-.3 3 .8 3.6 2.3.7 1.8 0 4.4-2.1 4.6-3.3.4-5.2-4.7-2.7-6.5.3-.1.7-.3 1.2-.4zm11 0c2.1-.3 3.6 1.6 3.1 3.9-.3 1.5-1.7 2.8-3 3-1.5.2-2.6-.8-2.9-1.7-.7-1.8.3-3.8 1.3-4.6.3-.2.8-.5 1.5-.6zM20.3 4c-1.1-.1-1.9.4-2.5 1.3-1.3-.9-4.2-.9-5.5-.1C11 3 7.5 4 7.7 6.6c.1 1.1.9 1.7 1.7 2.1-.5 3 1.2 4.9 3.1 5.9 2.6 1.4 5-.1 5-.1 2-.9 3.7-2.9 3-5.8 2.6-.6 2.4-4.5-.2-4.7zm-.2 3.4c-.3-.6-.7-1.1-1.2-1.5.9-1.2 2.6.9 1.2 1.5zm-3.7 3c0 .9-.7 1.6-1.6 1.6s-1.6-.7-1.6-1.6.7-1.6 1.6-1.6 1.6.8 1.6 1.6zm1.2-2.9c0 .4-.3.7-.7.7-.4 0-.7-.3-.7-.7s.3-.7.7-.7c.4 0 .7.3.7.7zm-4.1 0c0 .4-.3.7-.7.7-.4 0-.7-.3-.7-.7s.3-.7.7-.7c.4 0 .7.3.7.7zM11.1 6c-.5.4-.9.9-1.2 1.5-1.3-.7.4-2.8 1.2-1.5z"/></g>
</symbol>
<symbol id="sport"><path fill="#44B1B1" d="M30 15c0 8.3-6.7 15-15 15S0 23.3 0 15 6.7 0 15 0s15 6.7 15 15"/><path fill="#F5FFFF" d="M11.3 4.7C8.9 5.6 7 7.1 5.7 9.2c0 .1-.1.1-.1.2-.1.1-.2.2-.2.3.3-.1.6-.3.9-.4.4-.3.8-.5 1.3-.7.1 0 .2-.1.4-.1.2-.1.4-.1.5-.2.1-.1.2-.3.3-.4.1-.2.2-.3.3-.4.7-.8 1.6-1.5 2.4-2.2l-.2-.6z"/><path fill="#FFF" d="M12.2 5.1c1.2.1 2.2.3 3.1.6.1 0 .3.1.4.2.2.1.5.2.5.2v.2-.2c.2 0 .4-.1.6-.2.1 0 .3-.1.4-.1 1-.2 1.8-.4 2.8-.5 0-.1-.2-.2-.4-.3 0 0-.1 0-.1-.1-1.4-.6-3-.9-4.5-.9-1 0-2 .1-2.9.4 0 .1.1.2.1.4-.1.1-.1.2 0 .3zm-6.7 5.4c-.4 1.3-.7 2.4-.8 3.4 0 .1 0 .2-.1.3 0 .3-.1.7-.1.9 0 .1.3.4.4.6l.1.1c.6.7 1.3 1.3 1.9 1.8.9-.4 1.8-.7 2.7-1 0-1.7.5-3.2.9-4.6l.1-.3c-.6-.8-1.3-1.8-2-2.7-1.1.4-1.9.8-2.7 1.3l-.4.2zm10.7-.5c1.1.9 2.5 2.1 3.7 3.5.7-.1 1.4-.3 2-.4.4-.1.8-.2 1.2-.2.3-1.1.4-2.4.4-3.7l-.1-.2c-1.1-1.1-2.2-2.1-3.4-3-1 0-2.3.3-3.5.7-.2.8-.2 1.8-.3 2.8v.5zm-5.8 6.5c1.4 1.1 2.5 2.1 3.5 3.2 1.5-.4 3.1-.9 4.5-1.5.3-.9.7-2 .9-3.2 0-.1 0-.2.1-.3.1-.2.2-.6.1-.8-.1-.2-.4-.5-.7-.7l-.2-.2c-.7-.7-1.1-1.1-1.9-1.8l-.2-.2c-.2-.2-.6-.5-.7-.6-.2 0-.5.1-.8.2-.1 0-.2.1-.3.1-.9.2-1.7.6-2.5.9-.3.1-.5.2-.8.3-.6 1.6-1 3.1-1 4.6zm-6.3-.9c0 2.5 1.5 5.5 3 7l.3-.3.3-.3c-.4-.9-.7-1.9-1-2.8 0-.1-.1-.3-.1-.4 0-.2-.1-.4-.1-.6-.1-.1-.2-.2-.4-.3-.1-.1-.2-.1-.3-.2-.5-.5-.9-.9-1.3-1.4-.1-.1-.1-.2-.2-.3-.1-.1-.2-.3-.2-.4zM25 16.8c.1 0 .2.1.3.1.2.1.3.1.5.2.4-2.1.1-5.4-1.5-7.8 0 1.2-.1 2.2-.2 3 0 .1 0 .2-.1.3 0 .2-.1.4-.1.5 0 .1.1.3.2.4 0 .1.1.2.1.2.3.9.5 1.8.8 3.1zM12.9 23c.4.3.8.7 1.1 1 .6.5 1.1 1.1 1.7 1.5.2-.1.4-.1.6-.2.8-.2 1.7-.4 2.5-.7.1 0 .3-.1.4-.1.2-.1.5-.2.6-.3.1-.1.2-.3.3-.5 0-.1.1-.2.1-.3.4-.8.7-1.5.9-2.3.1-.2.1-.3.2-.5-.3-.2-.6-.4-.9-.5l-.6-.3c-.1 0-.2-.1-.3-.2-.3-.2-.9-.7-1.2-.7l-.1.1c-1.1.5-2.4.8-3.7 1.2-.3.1-.5.2-.8.2-.2.5-.5 1.1-.7 1.7.1.3 0 .6-.1.9zm-5.3.1c1.8 1.7 4.1 2.7 6.6 2.8h.9l-.3-.3-.2-.2c-.4-.4-.9-.8-1.3-1.2l-.9-.9c-.3 0-.6-.1-.9-.1-.4-.1-.9-.1-1.4-.2l-.9-.3c-.4-.1-.8-.3-1.1-.3-.1.1-.2.2-.2.3-.1.2-.2.3-.3.4zm13.1 1.1c.3 0 .6-.2.9-.5l.2-.1c1.9-1.5 3.2-3.6 3.8-5.9-.3-.1-.5-.2-.7-.2-.7 1-1.6 2.3-2.8 3.3-.4 1.1-.8 2.3-1.4 3.4z"/>
</symbol>
<symbol id="sprite">
</symbol>
<symbol id="stellen"><path fill="#7D6F5D" d="M30 15c0 8.3-6.7 15-15 15S0 23.3 0 15 6.7 0 15 0s15 6.7 15 15"/><path d="M24.5 13.8v-4c-.1-1.5-1.6-1.4-3.1-1.4h-3.2c.1-.8 0-2.4-1.2-2.4h-4c-1.1 0-1.2 1.5-1.1 2.3H8.7c-1.6 0-3.1-.2-3.2 1.4v4.1h19zm-9.4-6.7c1.2 0 2 .5 1.8 1.3h-3.8c-.2-1.6.7-1.3 2-1.3zm9.5 7.4H5.4v4C5.5 20.6 5 23 6.6 23h16.8c.6 0 1.1-.6 1.2-1.2v-7.3z" fill="#FFF"/>
</symbol>
<symbol id="telefon"><path fill="#7787C2" d="M30 15c0 8.3-6.7 15-15 15S0 23.3 0 15 6.7 0 15 0s15 6.7 15 15"/><path fill="#FFF" d="M20.3 4.5H9.7c-.5 0-.7.4-.7.9v19.3c0 .5.3.7.7.7h10.7c.5 0 1-.2 1-.7V5.4c-.1-.6-.6-.9-1.1-.9zM12 6.4c-.8 0-.8-.8 0-.8s.8.8 0 .8zm3.1 18.7c-1.5 0-1.5-2 0-2 1.6 0 1.6 2 0 2zM10.5 7.8H20c0 4.1-.2 12.1-.2 14.4h-9.3V7.8zm6.2-1h-3.1c-.8 0-.8-1.5 0-1.5h3.1v1.5z"/>
</symbol>
<symbol id="tickets"><path fill="#D77278" d="M30 15c0 8.3-6.7 15-15 15S0 23.3 0 15 6.7 0 15 0s15 6.7 15 15"/><path fill="#FFF" d="M22.4 7.9c.6 2.6.8 4.1.8 7.4 0 4.2-1.4 7.9-3.7 9.6-.4.3-1.1.8-1.6.9-1.9.4-4.4-.9-5.6-1.8-3.4-2.7-5.2-6.9-6.3-11.1-.2-.7-.7-2-.4-2.8.2-.6 2.8-1.6 3.4-1.9 3.5-1.5 12-2.6 12.4-2.4.6.3.8 1.4 1 2.1zM16.1 14c2 1.1 3.9.2 4.8-1.3-2.2-1-3.9-.2-4.8 1.3zm-6.7 1.7c2.2 1 3.9.2 4.9-1.3-2.1-1-4-.2-4.9 1.3zm11.1 1.6c-1.7 2.2-4.4 3.8-8.1 2.1-.1.2.2.5.4.7.7.7 1.7 1.8 3.1 2.1 2.7.5 4.1-2.1 4.6-4.9z"/>
</symbol>
<symbol id="tiere"><path fill="#8D684E" d="M30 15c0 8.3-6.7 15-15 15S0 23.3 0 15 6.7 0 15 0s15 6.7 15 15"/><path d="M14.2 5.1c.3.2.6.4.8.8.5.7.2 1.8.1 2.8 0 .3 0 .7-.1 1.1-.2.6-.3 1.1-.7 1.5-.2.2-.4.3-.6.5-.5.1-1.3.1-1.7-.3-.1-.1-.3-.4-.5-.7-.1-.2-.3-.5-.4-.7-.2-.5-.3-1.2-.2-1.7.1-1 .3-2.1.9-2.7.3-.4.9-.7 1.3-.7.4-.1.7 0 1.1.1zm7.1 2.3c.1.2.2.3.2.4V8c0 .4.1.9 0 1.3-.1.3-.1.6-.3.9-.1.1-.2.2-.3.4-.1.1-.1.3-.2.4l-.4.4c-.2.3-.5.6-.7.8-.2.1-.4.1-.5.2-.8.2-1.5-.3-1.9-.8-.3-.6-.2-1.6 0-2.3.1-.3.1-.6.2-.8.2-.5.5-1 .7-1.4.2-.1.4-.4.6-.5 1.1-.6 2 .2 2.6.8zM9.4 10.5c.2.6.5 1.5.2 2.1-.1.2-.2.3-.3.4-.1.1-.2.3-.3.4-.4.2-.8.4-1.3.3-.5 0-1-.2-1.4-.3-1-.4-2.1-1.6-1.8-3 .2-.8.7-1.9 1.5-2.1h.4c.6-.1 1.5.2 2 .8.2.2.3.5.5.7.2.2.4.5.5.7zm9.5 6.3c.3.5.5.9 1 1.2.1.2.3.4.5.5.1.2.3.4.4.5v.1c.2.2.3.5.5.9.1.5.1 1.4 0 1.9v.4c-.2.3-.3.5-.4.8-.6.8-1.3 1.8-2.6 2-1.1.1-1.8-.4-2.3-.9-.4-.3-.8-.6-1.3-.8-1.2-.2-2.4 0-3.2.6-1.2.5-2.5-.4-3.3-1-.1-.1-.1-.1-.2-.3 0 0-.1 0-.1-.1-.2-.3-.3-.6-.5-.8-.2-1.1-.6-2.2-.1-3.3.3-.7.8-1.1 1.4-1.6.7-.4 1.4-.7 2.3-1 .8-.3 1.4-1 2-1.6.4-.3 1-.6 1.6-.8.2-.1.9 0 1.1.1 1.8.4 2.7 1.8 3.2 3.2zm5.4-.1c-.5.2-1.2.4-1.7 0-.2-.2-.5-.6-.7-.9-.1-.2-.3-.5-.4-.7-.1-.5 0-.9 0-1.3.1-.4.4-.6.5-.9.2-.2.4-.5.5-.7.6-.4.9-1 1.9-.9.8.1 1.4.5 1.7 1.1.2.3.3.8.2 1.3 0 .2-.1.6-.2.7-.1.7-.6.9-.9 1.4-.2.1-.2.2-.3.3 0 .2-.4.4-.6.6z" fill="#FFF"/>
</symbol>
<symbol id="tv"><path fill="#93C024" d="M30 15c0 8.3-6.7 15-15 15S0 23.3 0 15 6.7 0 15 0s15 6.7 15 15"/><path fill="#FFF" d="M22.1 16.2c1.8.3 1.8-2.7 0-2.4-1.3.3-1.1 2.2 0 2.4zm.4 3.2c1.3-.2 1.2-2.7-.4-2.4-1.4.3-1 2.6.4 2.4zM20 3.5h.3c1.2.8.1 1.9-.4 2.5-1.2 1.3-2.7 2.8-3.7 4.3h3.5c1.4 0 2.7-.4 3.6.1.7.3 1.1.8 1.1 1.6v9.9c0 1.1-.7 1.9-1.7 1.9H7.5c-1 0-1.9-.8-1.9-1.9V11.8c.2-2.3 2.2-1.5 4.6-1.5H14c-.3-.8-2.6-2.9-3.1-3.4-.4-.5-1.2-1-1.2-1.7 0-.5.3-.8.7-.8.6 0 1.1.9 1.5 1.3.5.5 2.7 2.7 3.1 3.2 1.2-1.2 2.5-2.6 3.7-3.9.3-.5.9-.7 1.3-1.5zM7.9 12.3c-1.1.9-1.1 3-1.1 5 0 1.9 0 3.6 1 4.4 1.2 1.1 3.2.8 5 .8 1.8 0 4.7.2 6-.6 1.3-.8 1.4-2.7 1.4-4.9 0-1.6-.1-3.4-.6-4.2-.7-1.1-2.4-1.2-4.3-1.3-1.5-.1-2.3 0-3.6.1-1.6 0-2.9 0-3.8.7z"/>
</symbol></svg>