<svg xmlns="http://www.w3.org/2000/svg" viewBox="0 0 24 24"><path d="M12 0C5.36 0 0 5.36 0 12s5.36 12 12 12 12-5.36 12-12S18.64 0 12 0z"/><g fill-rule="evenodd" clip-rule="evenodd" fill="#fff"><path d="M15.038 12.948c-.548.112-1.102.194-1.657.246a.69.69 0 01-.691.669h-1.58a.692.692 0 01-.691-.669 15.78 15.78 0 01-1.658-.246l-2.283-.465c-.027-.005-.053-.012-.079-.019v2.921A1.617 1.617 0 008.016 17h7.769c.892 0 1.616-.723 1.616-1.616v-2.921l-.079.019-2.284.466z"/><path d="M17.192 8H14V6.808A.808.808 0 0013.192 6h-2.384a.808.808 0 00-.808.808V8H6.808A.808.808 0 006 8.808v1.815c0 .473.331.881.794.978L9 12.067c1.978.417 4.022.417 6 0l2.206-.465a1 1 0 00.794-.979V8.808A.808.808 0 0017.192 8zM13 8h-2V7h2v1z"/></g></svg>