<?xml version="1.0" encoding="utf-8"?>
<!-- Generator: Adobe Illustrator 23.0.4, SVG Export Plug-In . SVG Version: 6.00 Build 0)  -->
<svg version="1.1" id="Layer_1" xmlns="http://www.w3.org/2000/svg" xmlns:xlink="http://www.w3.org/1999/xlink" x="0px" y="0px"
	 viewBox="0 0 24 24" style="enable-background:new 0 0 24 24;" xml:space="preserve">
<style type="text/css">
	.st0{fill-rule:evenodd;clip-rule:evenodd; }
	.st1{fill:#FFFFFF;}
</style>
<path id="Path" class="st0" d="M12,0C5.36,0,0,5.36,0,12s5.36,12,12,12s12-5.36,12-12S18.64,0,12,0z"/>
<g>
	<path class="st1" d="M15.038,12.948c-0.548,0.112-1.102,0.194-1.657,0.246c-0.011,0.372-0.316,0.669-0.691,0.669H11.11
		c-0.374,0-0.679-0.298-0.691-0.669c-0.556-0.052-1.109-0.135-1.658-0.246l-2.283-0.465c-0.027-0.005-0.053-0.012-0.079-0.019v2.921
		C6.4,16.277,7.123,17,8.016,17h7.769c0.892,0,1.616-0.723,1.616-1.616v-2.921c-0.026,0.007-0.053,0.013-0.079,0.019L15.038,12.948z
		"/>
	<path class="st1" d="M17.192,8h-1.408H14V6.808C14,6.362,13.638,6,13.192,6h-2.384C10.362,6,10,6.362,10,6.808V8H8.016H6.808
		C6.362,8,6,8.362,6,8.808v1.815c0,0.473,0.331,0.881,0.794,0.978L9,12.067c1.978,0.417,4.022,0.417,6,0l2.206-0.465
		C17.669,11.504,18,11.096,18,10.623V8.808C18,8.362,17.638,8,17.192,8z M13,8h-2V7h2V8z"/>
</g>
</svg>
