<?xml version="1.0" encoding="utf-8"?>
<!-- Generator: Adobe Illustrator 23.0.4, SVG Export Plug-In . SVG Version: 6.00 Build 0)  -->
<svg version="1.1" id="Layer_1" xmlns="http://www.w3.org/2000/svg" xmlns:xlink="http://www.w3.org/1999/xlink" x="0px" y="0px"
	 viewBox="0 0 24 24" style="enable-background:new 0 0 24 24;" xml:space="preserve">
<path id="Path" d="M12,0C5.36,0,0,5.36,0,12s5.36,12,12,12s12-5.36,12-12S18.64,0,12,0z"/>
<path style="fill-rule: evenodd;clip-rule: evenodd;fill:#FFFFFF;" d="M14.31,5H9.69C8.753,5,8,5.565,8,6.474v9.474V16.4C8,17.284,8.716,18,9.6,18h4.8c0.884,0,1.6-0.716,1.6-1.6
	v-0.452V6.474C16,5.565,15.247,5,14.31,5z M12,17.7c-0.387,0-0.7-0.313-0.7-0.7s0.313-0.7,0.7-0.7s0.7,0.313,0.7,0.7
	S12.387,17.7,12,17.7z M8.995,15.948V6.474c0-0.253,0.202-0.452,0.443-0.452h0.566C10.016,6.287,10.232,6.5,10.5,6.5h3
	c0.268,0,0.484-0.213,0.496-0.478h0.552c0.241,0,0.443,0.199,0.443,0.452v9.474H8.995z"/>
</svg>
