<svg xmlns="http://www.w3.org/2000/svg" viewBox="0 0 24 24"><path d="M12 0C5.36 0 0 5.36 0 12s5.36 12 12 12 12-5.36 12-12S18.64 0 12 0z"/><path d="M14.31 5H9.69C8.753 5 8 5.565 8 6.474V16.4A1.6 1.6 0 009.6 18h4.8a1.6 1.6 0 001.6-1.6V6.474C16 5.565 15.247 5 14.31 5zM12 17.7a.7.7 0 11-.001-1.399A.7.7 0 0112 17.7zm-3.005-1.752V6.474c0-.253.202-.452.443-.452h.566a.498.498 0 00.496.478h3a.498.498 0 00.496-.478h.552c.241 0 .443.199.443.452v9.474H8.995z" fill-rule="evenodd" clip-rule="evenodd" fill="#fff"/></svg>