<svg xmlns="http://www.w3.org/2000/svg" width="30" height="30"><path fill="#D77278" d="M30 15c0 8.3-6.7 15-15 15S0 23.3 0 15 6.7 0 15 0s15 6.7 15 15"/><path fill="#FFF" d="M22.4 7.9c.6 2.6.8 4.1.8 7.4 0 4.2-1.4 7.9-3.7 9.6-.4.3-1.1.8-1.6.9-1.9.4-4.4-.9-5.6-1.8-3.4-2.7-5.2-6.9-6.3-11.1-.2-.7-.7-2-.4-2.8.2-.6 2.8-1.6 3.4-1.9 3.5-1.5 12-2.6 12.4-2.4.6.3.8 1.4 1 2.1zM16.1 14c2 1.1 3.9.2 4.8-1.3-2.2-1-3.9-.2-4.8 1.3zm-6.7 1.7c2.2 1 3.9.2 4.9-1.3-2.1-1-4-.2-4.9 1.3zm11.1 1.6c-1.7 2.2-4.4 3.8-8.1 2.1-.1.2.2.5.4.7.7.7 1.7 1.8 3.1 2.1 2.7.5 4.1-2.1 4.6-4.9z"/></svg>