<svg xmlns="http://www.w3.org/2000/svg" viewBox="0 0 24 24"><path d="M12 0C5.36 0 0 5.36 0 12s5.36 12 12 12 12-5.36 12-12S18.64 0 12 0z"/><path d="M9.872 9.051c-.147 2.489.17 4.365.976 5.587a1.74 1.74 0 00-.525.104c-1.066.388-1.247 1.58-1.293 1.795-.045.215.098.609.333.255.235-.353.607-.714 1.369-.992.425-.155.752-.202 1.034-.195.413.297.894.502 1.444.616-.36.748-.943 1.268-1.749 1.561-2.414.879-4.613-1.086-6.597-5.895a.62.62 0 01.194-.727c.645-.499 1.778-1.044 3.399-1.634a28.11 28.11 0 011.415-.475zm-1.938 3.278a.815.815 0 00-.535.768v.101l1.509-.549-.066-.079a.823.823 0 00-.908-.241zm5.561 2.673c-2.483-.573-3.248-3.411-2.295-8.512a.62.62 0 01.558-.504c.807-.067 2.043.091 3.708.475 1.661.383 2.833.78 3.516 1.19a.62.62 0 01.279.694c-1.359 5.012-3.282 7.231-5.766 6.657zm2.237-2.724c-.424.155-.853.278-1.637.097-.785-.181-1.194-.493-1.468-.814-.274-.321-.368.087-.297.294.071.207.392 1.365 1.489 1.618 1.097.253 1.952-.656 2.093-.823.14-.167.244-.527-.18-.372zm-2.051-3.683l-.03-.017a.826.826 0 00-.992.129l-.02.02c-.166.169-.138.238.552.635s.735.421.829.158a.767.767 0 00-.339-.925zm2.258.522a.765.765 0 00-.71.681c-.03.278.02.275.814.222.794-.054.849-.104.774-.329l-.009-.026a.826.826 0 00-.835-.55l-.034.002z" fill-rule="evenodd" clip-rule="evenodd" fill="#fff"/></svg>