<svg xmlns="http://www.w3.org/2000/svg" viewBox="0 0 24 24"><path d="M12 0C5.4 0 0 5.4 0 12s5.4 12 12 12 12-5.4 12-12S18.6 0 12 0z"/><path d="M9.9 9.1c-.1 2.5.2 4.4 1 5.6-.2 0-.3 0-.5.1-1.1.4-1.2 1.6-1.3 1.8 0 .2.1.6.3.3.2-.4.6-.7 1.4-1 .4-.2.8-.2 1-.2.4.3.9.5 1.4.6-.4.7-.9 1.3-1.7 1.6-2.4.9-4.6-1.1-6.6-5.9-.1-.3 0-.6.2-.7.6-.5 1.8-1 3.4-1.6.5-.4.9-.5 1.4-.6zm-2 3.2c-.3.1-.5.4-.5.8v.1l1.5-.5-.1-.1c-.2-.3-.5-.4-.9-.3zm5.6 2.7c-2.5-.6-3.3-3.4-2.3-8.5.1-.3.3-.5.6-.5.8-.1 2 .1 3.7.5 1.7.4 2.8.8 3.5 1.2.2.1.4.4.3.7-1.4 5-3.3 7.2-5.8 6.6zm2.2-2.7c-.4.2-.9.3-1.6.1-.8-.2-1.2-.5-1.5-.8-.2-.4-.3 0-.3.3.1.2.4 1.4 1.5 1.6 1.1.3 2-.7 2.1-.8.2-.2.3-.6-.2-.4zm-2-3.7c-.4-.2-.8-.1-1 .1-.2.2-.2.3.5.7.7.4.7.4.8.2.1-.4 0-.8-.3-1zm2.2.5c-.4 0-.7.3-.7.7 0 .3 0 .3.8.2.8-.1.8-.1.8-.3-.1-.4-.5-.6-.9-.6z" fill-rule="evenodd" clip-rule="evenodd" fill="#fff"/></svg>