<?xml version="1.0" encoding="utf-8"?>
<!-- Generator: Adobe Illustrator 23.0.4, SVG Export Plug-In . SVG Version: 6.00 Build 0)  -->
<svg version="1.1" id="Tickets" xmlns="http://www.w3.org/2000/svg" xmlns:xlink="http://www.w3.org/1999/xlink" x="0px" y="0px"
	 viewBox="0 0 24 24" style="enable-background:new 0 0 24 24;" xml:space="preserve">
<style type="text/css">
	.st0{fill-rule:evenodd;clip-rule:evenodd; }
	.st1{fill-rule:evenodd;clip-rule:evenodd;fill:#FFFFFF;}
</style>
<path id="Path" class="st0" d="M12,0C5.36,0,0,5.36,0,12s5.36,12,12,12s12-5.36,12-12S18.64,0,12,0z"/>
<path id="Combined-Shape" class="st1" d="M9.872,9.051c-0.147,2.489,0.17,4.365,0.976,5.587c-0.17,0.007-0.346,0.039-0.525,0.104
	c-1.066,0.388-1.247,1.58-1.293,1.795c-0.045,0.215,0.098,0.609,0.333,0.255c0.235-0.353,0.607-0.714,1.369-0.992
	c0.425-0.155,0.752-0.202,1.034-0.195c0.413,0.297,0.894,0.502,1.444,0.616c-0.36,0.748-0.943,1.268-1.749,1.561
	c-2.414,0.879-4.613-1.086-6.597-5.895c-0.107-0.258-0.027-0.556,0.194-0.727l0,0c0.645-0.499,1.778-1.044,3.399-1.634
	C8.969,9.34,9.441,9.182,9.872,9.051z M7.934,12.329c-0.322,0.117-0.536,0.425-0.535,0.768l0,0.101l1.509-0.549L8.842,12.57
	C8.62,12.308,8.258,12.212,7.934,12.329z M13.495,15.002c-2.483-0.573-3.248-3.411-2.295-8.512c0.051-0.275,0.28-0.481,0.558-0.504
	l0,0c0.807-0.067,2.043,0.091,3.708,0.475c1.661,0.383,2.833,0.78,3.516,1.19c0.238,0.143,0.352,0.427,0.279,0.694
	C17.902,13.357,15.979,15.576,13.495,15.002z M15.732,12.278c-0.424,0.155-0.853,0.278-1.637,0.097
	c-0.785-0.181-1.194-0.493-1.468-0.814c-0.274-0.321-0.368,0.087-0.297,0.294c0.071,0.207,0.392,1.365,1.489,1.618
	c1.097,0.253,1.952-0.656,2.093-0.823C16.052,12.483,16.156,12.123,15.732,12.278z M13.681,8.595l-0.03-0.017
	c-0.322-0.185-0.727-0.132-0.992,0.129c-0.007,0.007-0.013,0.013-0.02,0.02c-0.166,0.169-0.138,0.238,0.552,0.635
	s0.735,0.421,0.829,0.158C14.146,9.17,14.003,8.78,13.681,8.595z M15.939,9.117c-0.371,0.025-0.67,0.312-0.71,0.681
	c-0.03,0.278,0.02,0.275,0.814,0.222c0.794-0.054,0.849-0.104,0.774-0.329c-0.003-0.009-0.006-0.017-0.009-0.026
	c-0.123-0.35-0.465-0.575-0.835-0.55L15.939,9.117z"/>
</svg>
