<svg version="1.1" id="Layer_1" xmlns="http://www.w3.org/2000/svg" x="0" y="0" viewBox="0 0 24 24" xml:space="preserve"><style>.st1{fill-rule:evenodd;clip-rule:evenodd;fill:#fff}</style><path id="Path" d="M12 0C5.4 0 0 5.4 0 12s5.4 12 12 12 12-5.4 12-12S18.6 0 12 0z" fill-rule="evenodd" clip-rule="evenodd" fill="#95a5b9"/><g id="animal" transform="rotate(25 2.84 13.56)"><path id="Rectangle" class="st1" d="M8 9.6c1.5-.6 1.5-1.9 2.8-1.9 1.3 0 1.1 1.1 2.8 1.9 1.7.9 1 3.4 0 3.8-1 .4-1.4-.4-2.8-.4s-1.8.9-2.9.4c-1.1-.5-1.3-3.2.1-3.8z"/><ellipse id="Oval" transform="rotate(70.001 6.036 7.547)" class="st1" cx="6" cy="7.5" rx="2.1" ry="1.3"/><ellipse transform="rotate(120 15.038 7.093)" class="st1" cx="15" cy="7.1" rx="2.1" ry="1.3"/><ellipse transform="rotate(75.001 8.831 4.787)" class="st1" cx="8.8" cy="4.8" rx="2.1" ry="1.3"/><ellipse transform="rotate(99.997 12.412 4.37)" class="st1" cx="12.4" cy="4.4" rx="2.1" ry="1.3"/></g></svg>