<svg xmlns="http://www.w3.org/2000/svg" viewBox="0 0 24 24"><path d="M12 0C5.4 0 0 5.4 0 12s5.4 12 12 12 12-5.4 12-12S18.6 0 12 0z"/><path d="M9.19 12.152c1.613.09 2.163-1.088 3.34-.539 1.179.55.533 1.462 1.735 2.905 1.16 1.535-.53 3.504-1.606 3.444s-1.1-.954-2.368-1.545c-1.269-.592-2.012.054-2.797-.864-.786-.918.174-3.45 1.696-3.401zm.422-2.562c-.102 1.166-.748 2.079-1.467 1.964s-1.239-1.13-1.137-2.295c.06-1.076.797-1.946 1.468-1.964.719.114 1.239 1.13 1.136 2.295zm7.813 4.305c-.967.653-2.084.683-2.501.158-.375-.616 0-1.655.966-2.308.966-.653 2.084-.683 2.5-.158.375.616.001 1.655-.965 2.308zM13.29 8.326c-.193 1.124-.93 1.994-1.649 1.88s-1.106-1.178-.913-2.302c.193-1.123.93-1.994 1.65-1.879s1.105 1.178.912 2.301zm3.178 1.703c-.646.913-1.66 1.432-2.21.955s-.49-1.552.156-2.465c.646-.912 1.66-1.432 2.21-.955.593.387.533 1.462-.156 2.465z" fill="#fff"/></svg>