<?xml version="1.0" encoding="utf-8"?>
<!-- Generator: Adobe Illustrator 23.0.4, SVG Export Plug-In . SVG Version: 6.00 Build 0)  -->
<svg version="1.1" id="Tiere" xmlns="http://www.w3.org/2000/svg" xmlns:xlink="http://www.w3.org/1999/xlink" x="0px" y="0px"
	 viewBox="0 0 24 24" style="enable-background:new 0 0 24 24;" xml:space="preserve">

<path id="Path" d="M12,0C5.36,0,0,5.36,0,12s5.36,12,12,12s12-5.36,12-12S18.64,0,12,0z"/>
<path id="Rectangle" style="fill-rule: evenodd;clip-rule: evenodd;fill:#FFFFFF;" d="M9.205,12.179c1.561,0.039,2.121-1.157,3.335-0.592s0.555,1.419,1.69,2.935
	s-0.577,3.504-1.605,3.443c-1.029-0.062-1.136-0.955-2.396-1.543c-1.259-0.587-2.032,0.003-2.775-0.869
	C6.711,14.683,7.644,12.14,9.205,12.179z"/>
<ellipse id="Oval" transform="matrix(0.0872 -0.9962 0.9962 0.0872 -1.8698 16.883)" style="fill-rule: evenodd;clip-rule: evenodd;fill:#FFFFFF;" cx="8.277" cy="9.462" rx="2.102" ry="1.26"/>
<ellipse transform="matrix(0.8192 -0.5736 0.5736 0.8192 -4.3656 11.8617)" style="fill-rule: evenodd;clip-rule: evenodd;fill:#FFFFFF;" cx="16.627" cy="12.854" rx="2.102" ry="1.26"/>
<ellipse transform="matrix(0.1736 -0.9848 0.9848 0.1736 1.8796 18.5223)" style="fill-rule: evenodd;clip-rule: evenodd;fill:#FFFFFF;" cx="11.977" cy="8.141" rx="2.102" ry="1.259"/>
<ellipse transform="matrix(0.5736 -0.8192 0.8192 0.5736 -1.0329 16.569)" style="fill-rule: evenodd;clip-rule: evenodd;fill:#FFFFFF;" cx="15.398" cy="9.277" rx="2.102" ry="1.259"/>
</svg>
