<svg xmlns="http://www.w3.org/2000/svg" viewBox="0 0 24 24"><path d="M12 0C5.36 0 0 5.36 0 12s5.36 12 12 12 12-5.36 12-12S18.64 0 12 0z"/><path d="M9.205 12.179c1.561.039 2.121-1.157 3.335-.592s.555 1.419 1.69 2.935-.577 3.504-1.605 3.443c-1.029-.062-1.136-.955-2.396-1.543-1.259-.587-2.032.003-2.775-.869-.743-.87.19-3.413 1.751-3.374z" fill-rule="evenodd" clip-rule="evenodd" fill="#fff"/><ellipse transform="rotate(-84.997 8.278 9.462)" cx="8.277" cy="9.462" rx="2.102" ry="1.26" fill-rule="evenodd" clip-rule="evenodd" fill="#fff"/><ellipse transform="rotate(-35 16.627 12.853)" cx="16.627" cy="12.854" rx="2.102" ry="1.26" fill-rule="evenodd" clip-rule="evenodd" fill="#fff"/><ellipse transform="rotate(-80.003 11.976 8.141)" cx="11.977" cy="8.141" rx="2.102" ry="1.259" fill-rule="evenodd" clip-rule="evenodd" fill="#fff"/><ellipse transform="rotate(-55 15.397 9.276)" cx="15.398" cy="9.277" rx="2.102" ry="1.259" fill-rule="evenodd" clip-rule="evenodd" fill="#fff"/></svg>