<svg xmlns="http://www.w3.org/2000/svg" viewBox="0 0 24 24"><path d="M12 0C5.36 0 0 5.36 0 12s5.36 12 12 12 12-5.36 12-12S18.64 0 12 0z"/><path d="M16.92 8h-3.74l1.687-2.168a.54.54 0 10-.853-.663L11.97 7.796 9.926 5.168a.54.54 0 00-.852.664L10.76 8H7.08A1.08 1.08 0 006 9.08v6.84c0 .596.484 1.08 1.08 1.08h9.84A1.08 1.08 0 0018 15.92V9.08A1.08 1.08 0 0016.92 8zM14 14.557a1.44 1.44 0 01-1.44 1.44H8.436a1.44 1.44 0 01-1.44-1.44v-4.121c0-.795.645-1.44 1.44-1.44h4.124c.795 0 1.44.645 1.44 1.44v4.121zM16.125 14a.75.75 0 110-1.5.75.75 0 010 1.5zm0-2.25a.75.75 0 110-1.5.75.75 0 010 1.5z" fill-rule="evenodd" clip-rule="evenodd" fill="#fff"/></svg>