<svg xmlns="http://www.w3.org/2000/svg" width="30" height="30"><path fill="#93C024" d="M30 15c0 8.3-6.7 15-15 15S0 23.3 0 15 6.7 0 15 0s15 6.7 15 15"/><path fill="#FFF" d="M22.1 16.2c1.8.3 1.8-2.7 0-2.4-1.3.3-1.1 2.2 0 2.4zm.4 3.2c1.3-.2 1.2-2.7-.4-2.4-1.4.3-1 2.6.4 2.4zM20 3.5h.3c1.2.8.1 1.9-.4 2.5-1.2 1.3-2.7 2.8-3.7 4.3h3.5c1.4 0 2.7-.4 3.6.1.7.3 1.1.8 1.1 1.6v9.9c0 1.1-.7 1.9-1.7 1.9H7.5c-1 0-1.9-.8-1.9-1.9V11.8c.2-2.3 2.2-1.5 4.6-1.5H14c-.3-.8-2.6-2.9-3.1-3.4-.4-.5-1.2-1-1.2-1.7 0-.5.3-.8.7-.8.6 0 1.1.9 1.5 1.3.5.5 2.7 2.7 3.1 3.2 1.2-1.2 2.5-2.6 3.7-3.9.3-.5.9-.7 1.3-1.5zM7.9 12.3c-1.1.9-1.1 3-1.1 5 0 1.9 0 3.6 1 4.4 1.2 1.1 3.2.8 5 .8 1.8 0 4.7.2 6-.6 1.3-.8 1.4-2.7 1.4-4.9 0-1.6-.1-3.4-.6-4.2-.7-1.1-2.4-1.2-4.3-1.3-1.5-.1-2.3 0-3.6.1-1.6 0-2.9 0-3.8.7z"/></svg>