<svg xmlns="http://www.w3.org/2000/svg" viewBox="0 0 24 24"><path d="M12 0C5.4 0 0 5.4 0 12s5.4 12 12 12 12-5.4 12-12S18.6 0 12 0z" fill-rule="evenodd" clip-rule="evenodd" fill="#95a5b9"/><path d="M16.9 8h-3.8l1.8-2.1c.2-.2.2-.6-.1-.8-.2-.1-.5-.1-.7.1l-2.2 2.5-2-2.6c-.2-.2-.5-.2-.7 0s-.3.5-.1.7L10.8 8H7.1C6.5 8 6 8.5 6 9.1v6.8c0 .6.5 1.1 1.1 1.1h9.8c.6 0 1.1-.5 1.1-1.1V9.1c0-.6-.5-1.1-1.1-1.1zM14 14.6c0 .8-.6 1.4-1.4 1.4H8.4c-.8 0-1.4-.6-1.4-1.4v-4.1C7 9.6 7.6 9 8.4 9h4.1c.8 0 1.4.6 1.4 1.4v4.2zm2.1-.6c-.4 0-.8-.3-.8-.8s.3-.8.8-.8.8.3.8.8-.4.8-.8.8zm0-2.2c-.4 0-.8-.3-.8-.8s.3-.8.8-.8.8.3.8.8-.4.8-.8.8z" fill="#fff"/></svg>