<?xml version="1.0" encoding="utf-8"?>
<!-- Generator: Adobe Illustrator 23.0.4, SVG Export Plug-In . SVG Version: 6.00 Build 0)  -->
<svg version="1.1" id="TV_1_" xmlns="http://www.w3.org/2000/svg" xmlns:xlink="http://www.w3.org/1999/xlink" x="0px" y="0px"
	 viewBox="0 0 24 24" style="enable-background:new 0 0 24 24;" xml:space="preserve">

<path id="Path" d="M12,0C5.36,0,0,5.36,0,12s5.36,12,12,12s12-5.36,12-12S18.64,0,12,0z"/>
<path id="TV" style="fill-rule: evenodd;clip-rule: evenodd;fill:#FFFFFF;" d="M16.92,8h-3.74l1.687-2.168c0.183-0.235,0.141-0.575-0.095-0.758s-0.575-0.141-0.758,0.095L11.97,7.796
	L9.926,5.168C9.743,4.933,9.404,4.891,9.168,5.074S8.891,5.596,9.074,5.832L10.76,8H7.08C6.484,8,6,8.484,6,9.08v6.84
	C6,16.516,6.484,17,7.08,17h9.84c0.596,0,1.08-0.484,1.08-1.08V9.08C18,8.484,17.516,8,16.92,8z M14,14.557
	c0,0.795-0.645,1.44-1.44,1.44H8.436c-0.795,0-1.44-0.645-1.44-1.44v-4.121c0-0.795,0.645-1.44,1.44-1.44h4.124
	c0.795,0,1.44,0.645,1.44,1.44V14.557z M16.125,14c-0.414,0-0.75-0.336-0.75-0.75s0.336-0.75,0.75-0.75s0.75,0.336,0.75,0.75
	S16.539,14,16.125,14z M16.125,11.75c-0.414,0-0.75-0.336-0.75-0.75s0.336-0.75,0.75-0.75s0.75,0.336,0.75,0.75
	S16.539,11.75,16.125,11.75z"/>
</svg>
