<svg xmlns="http://www.w3.org/2000/svg" viewBox="0 0 27 24"><path d="M26.9 6.1c-.2-1.3-.8-2.5-1.6-3.5C23.6.5 21.5-.3 18.9.1c-1.7.3-3.1 1.1-4.3 2.3-.3.3-.7.7-1 .9-.3-.3-.7-.6-1-.9C11 1 9.3.1 7.3 0 5.4-.1 3.7.5 2.4 1.8.2 3.9-.5 6.5.3 9.4c.4 1.5 1.1 2.9 2 4.1.9 1.3 1.9 2.5 2.9 3.6-.1-.5-.1-.9-.1-1.5V5.4c0-.2.1-.3.3-.3l2.8-.5h.1c.1 0 .2 0 .2.1.1.1.1.2.1.2v3.3h3.9c.2 0 .3.1.3.3v2.3c0 .2-.1.3-.3.3h-4v4.5c0 .9.1 1.5.4 1.9.2.3.7.5 1.3.5.5 0 .9 0 1.2-.1.4-.1.7-.2.9-.3H12.6c.1 0 .1.1.2.2l.4 2.2c0 .2 0 .3-.2.4-.3.1-.8.3-1.3.4-.5.2-1.2.2-1.9.2h-.3c1.3 1 2.6 2 3.9 2.9.1.1.1.1.2 0 2.3-1.7 4.6-3.4 6.7-5.4 1.5-1.4 2.9-2.9 4.1-4.6.9-1.3 1.7-2.7 2.1-4.2.4-1.1.6-2.3.4-3.6z" fill-rule="evenodd" clip-rule="evenodd"/></svg>