<svg xmlns="http://www.w3.org/2000/svg" viewBox="0 0 26.966 24"><path d="M26.87 6.1a7.5 7.5 0 00-1.605-3.547A6.462 6.462 0 0018.831.107a7.716 7.716 0 00-4.323 2.31c-.34.341-.712.651-1.026.936-.307-.28-.678-.591-1.018-.932A7.711 7.711 0 007.257.009a6.209 6.209 0 00-4.876 1.8A7.52 7.52 0 00.293 9.446 13.314 13.314 0 002.272 13.6a26.186 26.186 0 002.941 3.55 11.611 11.611 0 01-.089-1.457V5.362a.321.321 0 01.262-.316l2.75-.456a.16.16 0 01.053-.006.326.326 0 01.326.322v3.282h3.9a.319.319 0 01.32.321v2.3a.32.32 0 01-.32.322h-3.9v4.533A3.256 3.256 0 008.9 17.53a1.5 1.5 0 001.288.485 4.681 4.681 0 001.241-.146 8.844 8.844 0 00.886-.287.311.311 0 01.122-.023.352.352 0 01.152.041.314.314 0 01.163.216L13.205 20a.317.317 0 01-.186.363 9.664 9.664 0 01-1.288.439 7.125 7.125 0 01-1.9.228c-.112 0-.215-.008-.322-.012a92.377 92.377 0 003.872 2.936.161.161 0 00.223-.006 68.43 68.43 0 006.735-5.41 30.517 30.517 0 004.1-4.575 14.454 14.454 0 002.147-4.193 8.105 8.105 0 00.284-3.67z"/></svg>