<?xml version="1.0" encoding="utf-8"?>
<!-- Generator: Adobe Illustrator 18.1.1, SVG Export Plug-In . SVG Version: 6.00 Build 0)  -->
<!DOCTYPE svg PUBLIC "-//W3C//DTD SVG 1.1//EN" "http://www.w3.org/Graphics/SVG/1.1/DTD/svg11.dtd" [
	<!ENTITY ns_extend "http://ns.adobe.com/Extensibility/1.0/">
	<!ENTITY ns_ai "http://ns.adobe.com/AdobeIllustrator/10.0/">
	<!ENTITY ns_graphs "http://ns.adobe.com/Graphs/1.0/">
	<!ENTITY ns_vars "http://ns.adobe.com/Variables/1.0/">
	<!ENTITY ns_imrep "http://ns.adobe.com/ImageReplacement/1.0/">
	<!ENTITY ns_sfw "http://ns.adobe.com/SaveForWeb/1.0/">
	<!ENTITY ns_custom "http://ns.adobe.com/GenericCustomNamespace/1.0/">
	<!ENTITY ns_adobe_xpath "http://ns.adobe.com/XPath/1.0/">
]>
<svg version="1.1" id="Layer_1" xmlns:x="&ns_extend;" xmlns:i="&ns_ai;" xmlns:graph="&ns_graphs;"
	 xmlns="http://www.w3.org/2000/svg" xmlns:xlink="http://www.w3.org/1999/xlink" x="0px" y="0px" viewBox="281 371 50 50"
	 enable-background="new 281 371 50 50" xml:space="preserve">
<switch>
	
	<g i:extraneous="self">
		<g id="Search">
			<path id="Circle_3_" fill="none" stroke="#A6A39C" stroke-miterlimit="10" d="M305.9,420.4c-13.4,0-24.4-10.9-24.4-24.4
				s10.9-24.4,24.4-24.4s24.4,10.9,24.4,24.4S319.4,420.4,305.9,420.4z"/>
		</g>
		<g id="Layer_1_1_">
			<g>
				<g>
					<path fill="none" stroke="#A6A39C" stroke-linecap="round" stroke-miterlimit="10" d="M297.5,383.7l-6-0.2
						c-0.2,0-0.5,0.2-0.3,0.5l0.3,5.9"/>
					
						<line fill="none" stroke="#A6A39C" stroke-linecap="round" stroke-miterlimit="10" x1="291.2" y1="383.7" x2="297.5" y2="390.1"/>
				</g>
				<g>
					<path fill="none" stroke="#A6A39C" stroke-linecap="round" stroke-miterlimit="10" d="M320.6,389.8l0.3-5.9
						c0-0.2-0.2-0.5-0.3-0.5l-6,0.2"/>
					
						<line fill="none" stroke="#A6A39C" stroke-linecap="round" stroke-miterlimit="10" x1="314.3" y1="390.1" x2="320.7" y2="383.7"/>
				</g>
				<g>
					<path fill="none" stroke="#A6A39C" stroke-linecap="round" stroke-miterlimit="10" d="M291.3,402.2l-0.3,5.9
						c0,0.2,0.2,0.5,0.3,0.5l6-0.2"/>
					
						<line fill="none" stroke="#A6A39C" stroke-linecap="round" stroke-miterlimit="10" x1="297.5" y1="401.9" x2="291.2" y2="408.3"/>
				</g>
				<g>
					<path fill="none" stroke="#A6A39C" stroke-linecap="round" stroke-miterlimit="10" d="M314.3,408.3l6,0.2
						c0.2,0,0.5-0.2,0.3-0.5l-0.3-5.9"/>
					
						<line fill="none" stroke="#A6A39C" stroke-linecap="round" stroke-miterlimit="10" x1="320.7" y1="408.3" x2="314.3" y2="401.9"/>
				</g>
				<rect x="297.5" y="390.1" fill="none" stroke="#A6A39C" stroke-miterlimit="10" width="16.8" height="11.8"/>
			</g>
		</g>
	</g>
</switch>

</svg>
