<?xml version="1.0" encoding="utf-8"?>
<!-- Generator: Adobe Illustrator 18.1.1, SVG Export Plug-In . SVG Version: 6.00 Build 0)  -->
<!DOCTYPE svg PUBLIC "-//W3C//DTD SVG 1.1//EN" "http://www.w3.org/Graphics/SVG/1.1/DTD/svg11.dtd" [
	<!ENTITY ns_extend "http://ns.adobe.com/Extensibility/1.0/">
	<!ENTITY ns_ai "http://ns.adobe.com/AdobeIllustrator/10.0/">
	<!ENTITY ns_graphs "http://ns.adobe.com/Graphs/1.0/">
	<!ENTITY ns_vars "http://ns.adobe.com/Variables/1.0/">
	<!ENTITY ns_imrep "http://ns.adobe.com/ImageReplacement/1.0/">
	<!ENTITY ns_sfw "http://ns.adobe.com/SaveForWeb/1.0/">
	<!ENTITY ns_custom "http://ns.adobe.com/GenericCustomNamespace/1.0/">
	<!ENTITY ns_adobe_xpath "http://ns.adobe.com/XPath/1.0/">
]>
<svg version="1.1"
	 id="Layer_1" xmlns:x="&ns_extend;" xmlns:i="&ns_ai;" xmlns:graph="&ns_graphs;" xmlns:sketch="http://www.bohemiancoding.com/sketch/ns"
	 xmlns="http://www.w3.org/2000/svg" xmlns:xlink="http://www.w3.org/1999/xlink" x="0px" y="0px" viewBox="281 371 50 50"
	 enable-background="new 281 371 50 50" xml:space="preserve">
<switch>
	
	<g i:extraneous="self">
		<title>ico-circle-li-saved_searches-inverted copy</title>
		<desc>Created with Sketch.</desc>
		<g id="Page-1" sketch:type="MSPage">
			<g id="_x34_5-General-Icons" transform="translate(-427.500000, -149.000000)" sketch:type="MSArtboardGroup">
				<g id="ico-circle-li-saved_searches-inverted-copy" transform="translate(428.318025, 149.556599)" sketch:type="MSLayerGroup">
					<g id="_x32__action_search_copy" sketch:type="MSShapeGroup">
						<g id="_x35__content_save">
							<path id="Shape" fill="#A6A39C" d="M310.5,385.8H300v-13.1h10.5V385.8L310.5,385.8z M317.9,403v-2.9h-26.6v2.9H317.9
								L317.9,403z M317.9,411v-2.9h-26.6v2.9H317.9L317.9,411z M330,380.8v37.8c0,0.7-0.7,1.4-1.4,1.4h-47.1
								c-0.7,0-1.4-0.7-1.4-1.4v-46.4c0-0.7,0.7-1.4,1.4-1.4h6.2v17.5h27v-17.5h5L330,380.8L330,380.8z M322.4,393.7h-34.7v23h34.7
								V393.7L322.4,393.7z"/>
						</g>
					</g>
				</g>
			</g>
		</g>
	</g>
</switch>

</svg>
