<svg data-name="Layer 1" xmlns="http://www.w3.org/2000/svg" viewBox="0 0 120.05 101"><title>icon-mail</title><path d="M113.6 82.21V18.79A13 13 0 0 0 100.89 5.5H19.31A13 13 0 0 0 6.45 18.64v63.57A13 13 0 0 0 19.16 95.5h81.58a13 13 0 0 0 12.86-13.14v-.15zm-5-63.58v63.58a8 8 0 0 1-.72 3.61l-32.54-37.4 33-32.08a8 8 0 0 1 .26 2.29zM19.31 10.5h81.43a8 8 0 0 1 4.71 1.64l-44.6 43.4a2.12 2.12 0 0 1-2.9 0l-43.4-43.4a8 8 0 0 1 4.6-1.67h.16zm-7.14 75.31a8 8 0 0 1-.73-3.45V18.79a8 8 0 0 1 .27-2.38l32.54 32.53zm88.57 4.69H19.31a8 8 0 0 1-3.72-1l32.21-37 6.67 6.67a7.12 7.12 0 0 0 9.86 0l7.43-7.23 32.7 37.56a8 8 0 0 1-3.57 1h-.16z" fill="#ccc"/><path fill="none" d="M0 0h120.05v101H0z"/></svg>