<?xml version="1.0" encoding="utf-8"?>
<!-- Generator: Adobe Illustrator 19.1.0, SVG Export Plug-In . SVG Version: 6.00 Build 0)  -->
<!DOCTYPE svg PUBLIC "-//W3C//DTD SVG 1.1//EN" "http://www.w3.org/Graphics/SVG/1.1/DTD/svg11.dtd" [
	<!ENTITY ns_extend "http://ns.adobe.com/Extensibility/1.0/">
	<!ENTITY ns_ai "http://ns.adobe.com/AdobeIllustrator/10.0/">
	<!ENTITY ns_graphs "http://ns.adobe.com/Graphs/1.0/">
	<!ENTITY ns_vars "http://ns.adobe.com/Variables/1.0/">
	<!ENTITY ns_imrep "http://ns.adobe.com/ImageReplacement/1.0/">
	<!ENTITY ns_sfw "http://ns.adobe.com/SaveForWeb/1.0/">
	<!ENTITY ns_custom "http://ns.adobe.com/GenericCustomNamespace/1.0/">
	<!ENTITY ns_adobe_xpath "http://ns.adobe.com/XPath/1.0/">
]>
<svg version="1.1"
	 id="Layer_1" xmlns:x="&ns_extend;" xmlns:i="&ns_ai;" xmlns:graph="&ns_graphs;" xmlns:sketch="http://www.bohemiancoding.com/sketch/ns"
	 xmlns="http://www.w3.org/2000/svg" xmlns:xlink="http://www.w3.org/1999/xlink" x="0px" y="0px" viewBox="-288 376 34 41"
	 style="enable-background:new -288 376 34 41;" xml:space="preserve">
<style type="text/css">
	.st0{fill:#A6A39C;}
	.st1{fill:none;stroke:#A6A39C;}
</style>
<switch>
	
	<g i:extraneous="self">
		<title>ico-shape-user-firma-on</title>
		<desc>Created with Sketch.</desc>
		<path id="_x33__1_" sketch:type="MSShapeGroup" class="st0" d="M-285.5,416.3c-0.9,0-1.6-0.7-1.6-1.6c0-6.7,4-12.4,9.8-14.9
			c-0.2,7.3,2.3,12.7,2.7,12.5c0.4-0.1,2.3-9.2,2.6-10.1c-2.4-1.2-2.5-3.3-2.2-3.4c1.1-0.2,2.2-0.3,3.3-0.3c1.1,0,2.1,0.1,3.1,0.3
			c0.4,0.1-0.2,2.6-1.9,3.3c0.3,1.2,2.1,10.3,2.4,10.4c0.4,0.1,3-6.7,2.9-12.7c5.7,2.5,9.6,8.2,9.6,14.8c0,0.9-0.7,1.6-1.6,1.6
			L-285.5,416.3L-285.5,416.3z"/>
		<path id="_x33_" sketch:type="MSShapeGroup" class="st1" d="M-285.5,416.3c-0.9,0-1.6-0.7-1.6-1.6c0-8.9,7.2-16.2,16.1-16.2
			s16.1,7.3,16.1,16.2c0,0.9-0.7,1.6-1.6,1.6H-285.5L-285.5,416.3z"/>
		<path id="Shape" sketch:type="MSShapeGroup" class="st1" d="M-268.3,399.1c0,1.5-1.3,2.8-2.9,2.8s-2.9-1.2-2.9-2.8"/>
		<path id="Shape_1_" sketch:type="MSShapeGroup" class="st1" d="M-270,401.2l2.3,11.8"/>
		<path id="Shape_2_" sketch:type="MSShapeGroup" class="st1" d="M-265.9,378.6c-1.5-1.1-7.1-2.5-10.1-1.6c-2.7,0.9-1.5,3.8-1.5,3.8
			c-0.3,0.3-0.5,0.6-0.7,1c-0.2,0.3-0.4,0.7-0.6,1c-0.5,1.1-0.8,2.4-0.8,3.7c0,4.7,3.8,8.5,8.5,8.5c4.7,0,8.5-3.8,8.5-8.5
			c0-2.2-0.7-4-2-5.5C-264.4,380.3-265.2,379.1-265.9,378.6L-265.9,378.6z"/>
		<path id="Shape_3_" sketch:type="MSShapeGroup" class="st1" d="M-272.1,401.2l-2.3,11.8"/>
		<g id="Group" transform="translate(10.200000, 22.208333)" sketch:type="MSShapeGroup">
			<path id="Shape_4_" class="st1" d="M-281.3,394.1c-3.1,0-5.7-7-6.4-16.5"/>
			<path id="Shape_5_" class="st1" d="M-274.8,377.6c-0.8,9.5-3.4,16.5-6.4,16.5"/>
		</g>
	</g>
</switch>

</svg>
