<?xml version="1.0" encoding="utf-8"?>
<!-- Generator: Adobe Illustrator 18.1.1, SVG Export Plug-In . SVG Version: 6.00 Build 0)  -->
<!DOCTYPE svg PUBLIC "-//W3C//DTD SVG 1.1//EN" "http://www.w3.org/Graphics/SVG/1.1/DTD/svg11.dtd" [
	<!ENTITY ns_extend "http://ns.adobe.com/Extensibility/1.0/">
	<!ENTITY ns_ai "http://ns.adobe.com/AdobeIllustrator/10.0/">
	<!ENTITY ns_graphs "http://ns.adobe.com/Graphs/1.0/">
	<!ENTITY ns_vars "http://ns.adobe.com/Variables/1.0/">
	<!ENTITY ns_imrep "http://ns.adobe.com/ImageReplacement/1.0/">
	<!ENTITY ns_sfw "http://ns.adobe.com/SaveForWeb/1.0/">
	<!ENTITY ns_custom "http://ns.adobe.com/GenericCustomNamespace/1.0/">
	<!ENTITY ns_adobe_xpath "http://ns.adobe.com/XPath/1.0/">
]>
<svg version="1.1" id="Layer_1" xmlns:x="&ns_extend;" xmlns:i="&ns_ai;" xmlns:graph="&ns_graphs;"
	 xmlns="http://www.w3.org/2000/svg" xmlns:xlink="http://www.w3.org/1999/xlink" x="0px" y="0px" viewBox="281 371 50 50"
	 enable-background="new 281 371 50 50" xml:space="preserve">
<switch>
	
	<g i:extraneous="self">
		<path fill="#A6A39C" d="M327.3,408.6c-1.3-0.7-7.3-3.6-8.5-4.2s-2.4-0.5-3.5-0.2c-1.1,0.4-2.4,3.1-2.7,3.6c-0.4,0.7-3.1,3.1-6,0.5
			c-2.9-2.5-12.7-15.1-12.7-15.1s-2.9-4.2,1.1-6.9c1.1,0,4.4-1.1,4.9-1.8c0.5-0.7,0.2-1.8,0.2-1.8l-2.4-10.4c0,0-0.2-0.7-2-1.3
			c-1.8-0.5-4.4,0.2-4.4,0.2s-11.4,2.5-9.1,12.9s6.4,19.1,10.7,23.4c4.5,4.4,16,15.8,25.6,12.4c0,0,4.7-2,7.8-5.3
			c0,0,2.5-2.2,2.5-3.5C329.3,410.4,328.6,409.4,327.3,408.6z"/>
	</g>
</switch>

</svg>
