<?xml version="1.0" encoding="utf-8"?>
<!-- Generator: Adobe Illustrator 18.1.1, SVG Export Plug-In . SVG Version: 6.00 Build 0)  -->
<!DOCTYPE svg PUBLIC "-//W3C//DTD SVG 1.1//EN" "http://www.w3.org/Graphics/SVG/1.1/DTD/svg11.dtd" [
	<!ENTITY ns_extend "http://ns.adobe.com/Extensibility/1.0/">
	<!ENTITY ns_ai "http://ns.adobe.com/AdobeIllustrator/10.0/">
	<!ENTITY ns_graphs "http://ns.adobe.com/Graphs/1.0/">
	<!ENTITY ns_vars "http://ns.adobe.com/Variables/1.0/">
	<!ENTITY ns_imrep "http://ns.adobe.com/ImageReplacement/1.0/">
	<!ENTITY ns_sfw "http://ns.adobe.com/SaveForWeb/1.0/">
	<!ENTITY ns_custom "http://ns.adobe.com/GenericCustomNamespace/1.0/">
	<!ENTITY ns_adobe_xpath "http://ns.adobe.com/XPath/1.0/">
]>
<svg version="1.1" id="Layer_1" xmlns:x="&ns_extend;" xmlns:i="&ns_ai;" xmlns:graph="&ns_graphs;"
	 xmlns="http://www.w3.org/2000/svg" xmlns:xlink="http://www.w3.org/1999/xlink" x="0px" y="0px" viewBox="281 376 50 40"
	 enable-background="new 281 376 50 40" xml:space="preserve">
<switch>
	<g i:extraneous="self">
		<path id="Frame_1" fill="#A6A39C" d="M329,387.8v24.8h-32.3v-24.8H329 M330.9,385.9h-36.1v28.6h36.1V385.9L330.9,385.9z"/>
		<g>
			<polygon fill="#A3A3A3" points="287.9,394.1 293,391.7 293,389.6 285.4,393.2 293,409.4 293,405 			"/>
			<polygon fill="#A3A3A3" points="317.1,380.3 318.9,384.1 321,384.1 318,377.8 304.6,384.1 309,384.1 			"/>
			<line fill="none" x1="321" y1="384.1" x2="318.9" y2="384.1"/>
			<line fill="none" x1="309" y1="384.1" x2="304.6" y2="384.1"/>
		</g>
		<g>
			<polygon fill="#A6A39C" points="301.6,384.1 305.3,379.7 307.1,381.2 309,380.3 305.1,377 299.1,384.1 			"/>
			<polygon fill="#A6A39C" points="291.8,410.4 284.5,404.4 287.3,401 286.4,399.2 281.9,404.6 293,414 293,413.2 			"/>
		</g>
		<path fill="#A6A39C" d="M299.9,410.1c1.5,0,24.7,0,26.1,0c1.4,0,0.3-5.5-5.9-6.2c-6.2-0.7-6.9,0.8-6.9,0.8s-2.8-7.3-7.1-7
			C301.8,398,298.5,410.1,299.9,410.1z"/>
		<path fill="#A6A39C" d="M325,394.5c0,2.2-1.8,4-4,4c-2.2,0-4-1.8-4-4c0-2.2,1.8-4,4-4C323.2,390.5,325,392.3,325,394.5z"/>
		<g>
			<line fill="none" stroke="#FFFFFF" stroke-miterlimit="10" x1="312.9" y1="409.8" x2="312.9" y2="390.7"/>
			<line fill="none" stroke="#FFFFFF" stroke-miterlimit="10" x1="303.4" y1="400.3" x2="322.4" y2="400.3"/>
		</g>
	</g>
</switch>
</svg>
