<?xml version="1.0" encoding="utf-8"?>
<!-- Generator: Adobe Illustrator 18.1.1, SVG Export Plug-In . SVG Version: 6.00 Build 0)  -->
<!DOCTYPE svg PUBLIC "-//W3C//DTD SVG 1.1//EN" "http://www.w3.org/Graphics/SVG/1.1/DTD/svg11.dtd" [
	<!ENTITY ns_extend "http://ns.adobe.com/Extensibility/1.0/">
	<!ENTITY ns_ai "http://ns.adobe.com/AdobeIllustrator/10.0/">
	<!ENTITY ns_graphs "http://ns.adobe.com/Graphs/1.0/">
	<!ENTITY ns_vars "http://ns.adobe.com/Variables/1.0/">
	<!ENTITY ns_imrep "http://ns.adobe.com/ImageReplacement/1.0/">
	<!ENTITY ns_sfw "http://ns.adobe.com/SaveForWeb/1.0/">
	<!ENTITY ns_custom "http://ns.adobe.com/GenericCustomNamespace/1.0/">
	<!ENTITY ns_adobe_xpath "http://ns.adobe.com/XPath/1.0/">
]>
<svg version="1.1" id="Layer_1" xmlns:x="&ns_extend;" xmlns:i="&ns_ai;" xmlns:graph="&ns_graphs;"
	 xmlns="http://www.w3.org/2000/svg" xmlns:xlink="http://www.w3.org/1999/xlink" x="0px" y="0px" viewBox="281 372 50 50"
	 enable-background="new 281 372 50 50" xml:space="preserve">
<switch>
	
	<g i:extraneous="self">
		<path fill="none" stroke="#A6A39C" stroke-miterlimit="10" d="M312.1,411.1c-6.2,0-11.2-5-11.2-11.2c0-3,1.2-5.8,3.3-7.9
			c2.1-2.1,4.9-3.3,7.9-3.3c6.2,0,11.2,5,11.2,11.2C323.3,406.1,318.3,411.1,312.1,411.1z"/>
		<g>
			<path fill="#A6A39C" stroke="#A6A39C" stroke-miterlimit="10" d="M327.2,418.2c-0.8,0-1.6-0.3-2.2-0.9l-7.5-7.5l0.6-0.4
				c1.4-0.9,2.5-2,3.4-3.4l0.4-0.6l7.5,7.5c1.2,1.2,1.2,3.2,0,4.5C328.9,417.8,328.1,418.2,327.2,418.2z"/>
		</g>
		<path fill="#A6A39C" d="M282.8,404.8c-0.3,0-0.5-0.2-0.5-0.5v-27.2h47.5v27.2c0,0.3-0.2,0.5-0.5,0.5h-5c0,0,0,0,0,0.1l1.2,1.2h3.9
			c1,0,1.8-0.8,1.8-1.8v-28.4h-50v28.4c0,1,0.8,1.8,1.8,1.8h17.8c-0.2-0.4-0.4-0.8-0.6-1.2H282.8L282.8,404.8z"/>
		<g>
			<path fill="#A6A39C" d="M291.6,396.1l-2.7-2.7l-2.8,2.7h-3.8v1.2h4.4l2.3-2.2l2.2,2.2h8.2c0.1-0.4,0.2-0.8,0.3-1.2H291.6z"/>
			<path fill="#A6A39C" d="M329.8,396.3h-5.1c0.1,0.4,0.2,0.8,0.3,1.2h4.8L329.8,396.3L329.8,396.3z"/>
		</g>
		<g>
			<path fill="#A6A39C" d="M324.9,380.9c0.4,0,0.7,0.3,0.7,0.7v2.2c0,0.4-0.3,0.7-0.7,0.7h-8.5c-0.4,0-0.7-0.3-0.7-0.7v-2.2
				c0-0.4,0.3-0.7,0.7-0.7H324.9 M324.9,379.7h-8.5c-1.1,0-2,0.9-2,2v2.2c0,1.1,0.9,2,2,2h8.5c1.1,0,2-0.9,2-2v-2.2
				C326.9,380.5,326,379.7,324.9,379.7L324.9,379.7z"/>
		</g>
	</g>
</switch>

</svg>
