<?xml version="1.0" encoding="utf-8"?>
<!-- Generator: Adobe Illustrator 19.1.0, SVG Export Plug-In . SVG Version: 6.00 Build 0)  -->
<!DOCTYPE svg PUBLIC "-//W3C//DTD SVG 1.1//EN" "http://www.w3.org/Graphics/SVG/1.1/DTD/svg11.dtd" [
	<!ENTITY ns_extend "http://ns.adobe.com/Extensibility/1.0/">
	<!ENTITY ns_ai "http://ns.adobe.com/AdobeIllustrator/10.0/">
	<!ENTITY ns_graphs "http://ns.adobe.com/Graphs/1.0/">
	<!ENTITY ns_vars "http://ns.adobe.com/Variables/1.0/">
	<!ENTITY ns_imrep "http://ns.adobe.com/ImageReplacement/1.0/">
	<!ENTITY ns_sfw "http://ns.adobe.com/SaveForWeb/1.0/">
	<!ENTITY ns_custom "http://ns.adobe.com/GenericCustomNamespace/1.0/">
	<!ENTITY ns_adobe_xpath "http://ns.adobe.com/XPath/1.0/">
]>
<svg version="1.1"
	 id="Layer_1" xmlns:x="&ns_extend;" xmlns:i="&ns_ai;" xmlns:graph="&ns_graphs;" xmlns:sketch="http://www.bohemiancoding.com/sketch/ns"
	 xmlns="http://www.w3.org/2000/svg" xmlns:xlink="http://www.w3.org/1999/xlink" x="0px" y="0px" viewBox="-289.5 371.5 50 50"
	 style="enable-background:new -289.5 371.5 50 50;" xml:space="preserve">
<style type="text/css">
	.st0{fill:#A6A39C;stroke:#A6A39C;}
</style>
<switch>
	
	<g i:extraneous="self">
		<title>favorites-gray copy</title>
		<desc>Created with Sketch.</desc>
		<g id="Page-1" sketch:type="MSPage">
			<g id="_x34_7-Ad-Icons" transform="translate(-139.500000, -140.000000)" sketch:type="MSArtboardGroup">
				<g id="favorites-gray-copy" transform="translate(139.060153, 141.015000)" sketch:type="MSLayerGroup">
					<path id="Shape" sketch:type="MSShapeGroup" class="st0" d="M-278.3,419.7c-0.2,0-0.4,0-0.8-0.2c-0.4-0.4-0.6-0.7-0.4-1.3
						l4.7-16.8L-288,391c-0.4-0.4-0.6-0.7-0.4-1.3c0.2-0.4,0.6-0.7,1.1-0.7l16.6-0.6l5.5-16.4c0.2-0.6,0.6-0.7,1.1-0.7
						c0.6,0,0.9,0.4,1.1,0.7l5.6,16.4l16.6,0.4c0.6,0,0.9,0.4,1.1,0.7s0,0.9-0.4,1.3l-13.2,10.6l4.9,16.6c0.2,0.6,0,0.9-0.4,1.3
						c-0.2,0.2-0.4,0.2-0.8,0.2c-0.2,0-0.6,0-0.8-0.2l-13.7-9.7l-13.7,9.9C-277.7,419.7-277.9,419.7-278.3,419.7L-278.3,419.7z"/>
				</g>
			</g>
		</g>
	</g>
</switch>

</svg>
