<?xml version="1.0" encoding="utf-8"?>
<!-- Generator: Adobe Illustrator 19.1.0, SVG Export Plug-In . SVG Version: 6.00 Build 0)  -->
<!DOCTYPE svg PUBLIC "-//W3C//DTD SVG 1.1//EN" "http://www.w3.org/Graphics/SVG/1.1/DTD/svg11.dtd" [
	<!ENTITY ns_extend "http://ns.adobe.com/Extensibility/1.0/">
	<!ENTITY ns_ai "http://ns.adobe.com/AdobeIllustrator/10.0/">
	<!ENTITY ns_graphs "http://ns.adobe.com/Graphs/1.0/">
	<!ENTITY ns_vars "http://ns.adobe.com/Variables/1.0/">
	<!ENTITY ns_imrep "http://ns.adobe.com/ImageReplacement/1.0/">
	<!ENTITY ns_sfw "http://ns.adobe.com/SaveForWeb/1.0/">
	<!ENTITY ns_custom "http://ns.adobe.com/GenericCustomNamespace/1.0/">
	<!ENTITY ns_adobe_xpath "http://ns.adobe.com/XPath/1.0/">
]>
<svg version="1.1"
	 id="Layer_1" xmlns:x="&ns_extend;" xmlns:i="&ns_ai;" xmlns:graph="&ns_graphs;" xmlns:sketch="http://www.bohemiancoding.com/sketch/ns"
	 xmlns="http://www.w3.org/2000/svg" xmlns:xlink="http://www.w3.org/1999/xlink" x="0px" y="0px" viewBox="-290.3 367.1 40 50"
	 style="enable-background:new -290.3 367.1 40 50;" xml:space="preserve">
<style type="text/css">
	.st0{fill:none;stroke:#A6A39C;}
</style>
<switch>
	
	<g i:extraneous="self">
		<title>ico-shape-user-firma-off</title>
		<desc>Created with Sketch.</desc>
		<path id="Shape" sketch:type="MSShapeGroup" class="st0" d="M-267.4,395.1c0,1.7-1.4,3.1-3.1,3.1c-1.7,0-3.1-1.4-3.1-3.1"/>
		<path id="Shape_1_" sketch:type="MSShapeGroup" class="st0" d="M-269.1,397.8l2.7,14.5"/>
		<path id="Shape_2_" sketch:type="MSShapeGroup" class="st0" d="M-264.2,370.1c-1.8-1.4-8.5-3.1-12.1-1.9c-3.3,1.1-1.8,4.7-1.8,4.7
			c-0.3,0.4-0.6,0.8-0.9,1.2c-0.3,0.4-0.5,0.8-0.7,1.3c-0.6,1.4-1,2.9-1,4.5c0,5.8,4.6,10.5,10.2,10.5c5.6,0,10.2-4.7,10.2-10.5
			c0-2.7-0.8-4.9-2.4-6.8C-262.4,372.1-263.3,370.8-264.2,370.1L-264.2,370.1z"/>
		<path id="Shape_3_" sketch:type="MSShapeGroup" class="st0" d="M-271.7,397.8l-2.7,14.5"/>
		<g id="Group" transform="translate(10.375000, 22.479167)" sketch:type="MSShapeGroup">
			<path id="Shape_4_" class="st0" d="M-280.8,393.9c-3.7,0-6.8-8.6-7.7-20.2"/>
			<path id="Shape_5_" class="st0" d="M-273.1,373.6c-0.9,11.7-4,20.3-7.7,20.3"/>
		</g>
		<path id="_x33_" sketch:type="MSShapeGroup" class="st0" d="M-287.8,416.4c-1.1,0-1.9-0.9-1.9-2c0-11,8.7-19.9,19.4-19.9
			c10.7,0,19.4,8.9,19.4,19.9c0,1.1-0.9,2-1.9,2H-287.8L-287.8,416.4z"/>
	</g>
</switch>

</svg>
