<svg data-name="Layer 1" xmlns="http://www.w3.org/2000/svg" viewBox="0 0 100 100"><title>icon-clock-fast</title><path d="M50 0a50 50 0 1 0 50 50A50 50 0 0 0 50 0zm2.5 94.93V86.8a2.5 2.5 0 0 0-5 0v8.13A45 45 0 0 1 5.08 52.6h8.32a2.5 2.5 0 1 0 0-5H5.07A45.05 45.05 0 0 1 47.5 5.08v8.42a2.5 2.5 0 0 0 5 0V5.07A45 45 0 0 1 94.94 47.6H86.6a2.5 2.5 0 1 0 0 5h8.32A45 45 0 0 1 52.5 94.93z" fill="#ccc"/><path d="M66.78 33.43a3.5 3.5 0 0 0-4.95 0l-9.33 9.25V21.5a2.5 2.5 0 0 0-5 0v23.38A5.7 5.7 0 1 0 55.7 50a5.76 5.76 0 0 0 0-.6l11.1-11a3.5 3.5 0 0 0-.02-4.97zM25.3 51.2a1 1 0 0 1-1-1 25.64 25.64 0 0 1 17.79-24.45 1 1 0 1 1 .62 1.9A23.65 23.65 0 0 0 26.3 50.2a1 1 0 0 1-1 1z" fill="#ccc"/><path d="M32.8 51.2a1 1 0 0 1-1-1c0-7.59 4.23-14.27 10.29-16.25a1 1 0 1 1 .62 1.9c-4.29 1.4-8.91 6.49-8.91 14.35a1 1 0 0 1-1 1z" fill="#ccc"/></svg>