<svg id="Preview" xmlns="http://www.w3.org/2000/svg" viewBox="0 0 100 96.88"><title>icon-eye</title><path d="M88.35,46.11l11-15.3a2.5,2.5,0,1,0-4.05-2.92L84.81,42.48A60.06,60.06,0,0,0,72.2,33.13L81,12.43a2.5,2.5,0,1,0-4.6-2L67.69,30.94A45.24,45.24,0,0,0,52.5,27.36V3.13a2.5,2.5,0,0,0-5,0V27.36A45,45,0,0,0,34,30.27l-8.43-19.8a2.5,2.5,0,0,0-4.6,2L29.39,32.3a58.83,58.83,0,0,0-13.85,9.85L5.26,27.89A2.5,2.5,0,1,0,1.2,30.81L12,45.76A89.8,89.8,0,0,0,0,62.39C12.26,84.08,30,97.5,50,97.5s37.74-13.42,50-35.11A90.2,90.2,0,0,0,88.35,46.11ZM50,92.5c-16.87,0-32.48-10.66-44.21-30.11C17.52,43,33.13,32.28,50,32.28S82.48,42.94,94.21,62.39C82.48,81.84,66.87,92.5,50,92.5Z" transform="translate(0 -0.63)" style="fill:#ccc"/><path d="M49.66,41a20.65,20.65,0,1,0,20.65,20.7A20.65,20.65,0,0,0,49.66,41Zm0,36.3a15.65,15.65,0,0,1,0-31.3h0A15.65,15.65,0,1,1,49.64,77.35Z" transform="translate(0 -0.63)" style="fill:#ccc"/></svg>