<?xml version="1.0" encoding="utf-8"?>
<!-- Generator: Adobe Illustrator 20.1.0, SVG Export Plug-In . SVG Version: 6.00 Build 0)  -->
<svg version="1.1" id="Layer_1" xmlns="http://www.w3.org/2000/svg" xmlns:xlink="http://www.w3.org/1999/xlink" x="0px" y="0px"
	 width="30px" height="30px" viewBox="0 0 30 30" enable-background="new 0 0 30 30" xml:space="preserve">
<g id="Layer_1_1_">
</g>
<g id="Layer_5" display="none">
	<rect x="-451.5" y="-1477.4" display="inline" fill="#333333" width="3016" height="1758"/>
</g>
<g id="Layer_4">
</g>
<g id="Layer_3">
</g>
<g>
	<path fill="#999999" d="M15,0C6.7,0,0,6.7,0,15s6.7,15,15,15s15-6.7,15-15S23.3,0,15,0z M6,23.9c0.9-3,3.1-4.8,5.5-5.4
		c-1.2,0.9-2.4,1.4,2,5.4H6z M14.2,23.3c-0.5-0.7-2.7-3.4-1.4-5c0.4,0.5,0.9,0.7,1.4,0.8c-0.1,0.1-0.2,0.3-0.2,0.5
		c0,0.3,0.2,0.6,0.5,0.8L14.2,23.3z M15,17.5c-3.5,0-6.3-2.8-6.3-6.3c0-1.5,0.5-2.8,1.4-3.9l0,0c0,0-2.5-3.3,3.3-3
		c5.7,0.3,6.4,2.6,6.4,2.6c1,1.1,1.6,2.6,1.6,4.2C21.3,14.6,18.5,17.5,15,17.5z M15.4,20.4c0.3-0.1,0.5-0.4,0.5-0.8
		c0-0.2-0.1-0.3-0.2-0.5c0.5-0.1,1-0.4,1.4-0.8c1.3,1.5-0.9,4.3-1.4,5L15.4,20.4z M16.4,23.9c4.4-4,3.3-4.6,2-5.4
		c2.4,0.6,4.6,2.4,5.5,5.4H16.4z"/>
	<path fill="#999999" d="M15,16.4c1.3,0,2.5-0.6,3.5-1.7h-7C12.5,15.8,13.7,16.4,15,16.4z"/>
</g>
</svg>
