<?xml version="1.0" encoding="utf-8"?>
<!-- Generator: Adobe Illustrator 20.1.0, SVG Export Plug-In . SVG Version: 6.00 Build 0)  -->
<svg version="1.1" id="Layer_1" xmlns="http://www.w3.org/2000/svg" xmlns:xlink="http://www.w3.org/1999/xlink" x="0px" y="0px"
	 width="30px" height="30px" viewBox="0 0 30 30" enable-background="new 0 0 30 30" xml:space="preserve">
<path fill="#999999" d="M15,0C6.7,0,0,6.7,0,15s6.7,15,15,15s15-6.7,15-15S23.3,0,15,0z M14,20.3c-2.6,1-5.6,0-7-2.4
	c-1.5-2.5-0.9-5.6,1.4-7.4c2.2-1.7,5.6-1.5,7.1,0.3c-0.4,0.5-0.8,0.9-1.3,1.4c-1.3-0.8-2.6-1.1-3.9-0.5C9.4,12.3,8.8,13,8.5,14
	c-0.6,1.9,0.6,4,2.6,4.5c1.8,0.4,3.4-0.5,3.7-2.3c-0.9,0-1.9,0-2.9,0c0-0.7,0-1.2,0-1.9c1.7,0,3.4,0,5.1,0
	C17.6,16.8,16.3,19.3,14,20.3z M23.9,15.8h-1.6v1.6h-1.5v-1.6h-1.6v-1.5h1.6v-1.6h1.5v1.6h1.6V15.8z"/>
</svg>
