<?xml version="1.0" encoding="utf-8"?>
<!-- Generator: Adobe Illustrator 20.1.0, SVG Export Plug-In . SVG Version: 6.00 Build 0)  -->
<svg version="1.1" id="Layer_1" xmlns="http://www.w3.org/2000/svg" xmlns:xlink="http://www.w3.org/1999/xlink" x="0px" y="0px"
	 width="30px" height="30px" viewBox="0 0 30 30" enable-background="new 0 0 30 30" xml:space="preserve">
<g>
	<path fill="#999999" d="M18.9,11.5c0.5,0,1.1,0,1.6,0c0.4,0,0.6-0.2,0.6-0.6c0-0.3,0-0.5,0-0.8c0-0.3,0-0.6,0-0.8
		c0-0.4-0.2-0.6-0.6-0.6c-0.5,0-1.1,0-1.6,0c-0.4,0-0.6,0.2-0.6,0.6c0,0.5,0,1.1,0,1.6C18.3,11.3,18.5,11.5,18.9,11.5z"/>
	<path fill="#999999" d="M14.8,18.4c1.9,0,3.4-1.5,3.4-3.4c0-1.9-1.5-3.5-3.4-3.5c-1.9,0-3.5,1.5-3.5,3.4
		C11.3,16.8,12.9,18.4,14.8,18.4z"/>
	<path fill="#999999" d="M14.8,0c-8.3,0-15,6.7-15,15s6.7,15,15,15c8.3,0,15-6.7,15-15C29.8,6.7,23.1,0,14.8,0z M22.2,20.3
		c0,1.4-0.6,2-2,2c-3.6,0-7.3,0-10.9,0c-1.3,0-2-0.6-2-1.9c0-1.8,0-9.2,0-11c0-1.2,0.6-1.9,1.9-1.9c3.2,0,10.5,0,11,0
		c1.2,0,1.9,0.7,1.9,1.9C22.2,13,22.2,16.7,22.2,20.3z"/>
	<path fill="#999999" d="M21.1,13.9c-0.6,0-1.2,0-1.8,0c0.2,0.9,0.2,1.8-0.2,2.6c-0.3,0.8-0.9,1.5-1.6,2.1c-0.7,0.5-1.5,0.9-2.4,0.9
		c-1.2,0-2.3-0.3-3.2-1c-1.4-1.2-1.9-2.8-1.6-4.6c-0.6,0-1.2,0-1.8,0c0,0.2,0,4.5,0,6.5c0,0.8,0.1,0.9,0.9,0.9c3.6,0,7.2,0,10.8,0
		c0.8,0,0.9-0.1,0.9-0.9C21.1,18.8,21.1,14.5,21.1,13.9z"/>
</g>
</svg>
