<?xml version="1.0" encoding="utf-8"?>
<!-- Generator: Adobe Illustrator 20.1.0, SVG Export Plug-In . SVG Version: 6.00 Build 0)  -->
<svg version="1.1" id="Layer_1" xmlns="http://www.w3.org/2000/svg" xmlns:xlink="http://www.w3.org/1999/xlink" x="0px" y="0px"
	 width="30px" height="30px" viewBox="0 0 30 30" enable-background="new 0 0 30 30" xml:space="preserve">
<g id="Layer_1_1_">
</g>
<g id="Layer_5" display="none">
	<rect x="-372.3" y="-545.4" display="inline" fill="#333333" width="3016" height="1758"/>
</g>
<g id="Layer_4">
</g>
<g id="Layer_3">
</g>
<g id="Layer_2">
	<g>
		<g id="Sort_by_price_copy_8_">
			<g>
				<path fill="#999999" d="M22.4,13.5h-6.3c-0.4,0-0.7,0.3-0.7,0.7v12.7c0,0.4,0.3,0.7,0.7,0.7c0.4,0,0.7-0.3,0.7-0.7v-6.5H20
					c0.4,0,0.7-0.3,0.7-0.7c0-0.4-0.3-0.7-0.7-0.7h-3.1v-4.1h5.6c0.4,0,0.7-0.3,0.7-0.7C23.1,13.8,22.8,13.5,22.4,13.5z"/>
				<path fill="#999999" d="M29.4,19.9c0.2-0.3,0.1-0.8-0.3-1c-1.1-0.6-2.7-0.6-3.9,0.1c-0.1,0-0.1,0.1-0.2,0.1v-0.8
					c0-0.4-0.3-0.7-0.7-0.7s-0.7,0.3-0.7,0.7v8.5c0,0.4,0.3,0.7,0.7,0.7c0.4,0,0.7-0.3,0.7-0.7v-5.1c0-0.7,0.3-1.2,0.9-1.5
					c0.8-0.5,1.9-0.4,2.5-0.1C28.7,20.4,29.2,20.3,29.4,19.9z"/>
				<circle fill="#999999" cx="28.7" cy="26.9" r="1"/>
			</g>
		</g>
		<path fill="#999999" d="M14.4,9L8.5,2.5c-0.3-0.3-0.6-0.4-1-0.5c-0.4,0-0.7,0.1-1,0.4L0.4,9c-0.3,0.3-0.3,0.8,0,1
			c0.3,0.3,0.8,0.3,1,0l5.4-5.7V27c0,0.4,0.3,0.7,0.7,0.7c0.4,0,0.7-0.3,0.7-0.7V4.5l5,5.5c0.1,0.2,0.3,0.2,0.5,0.2
			c0.2,0,0.3-0.1,0.5-0.2C14.6,9.8,14.6,9.3,14.4,9z"/>
	</g>
</g>
</svg>
