<?xml version="1.0" encoding="utf-8"?>
<!-- Generator: Adobe Illustrator 16.0.4, SVG Export Plug-In . SVG Version: 6.00 Build 0)  -->
<!DOCTYPE svg PUBLIC "-//W3C//DTD SVG 1.1//EN" "http://www.w3.org/Graphics/SVG/1.1/DTD/svg11.dtd">
<svg version="1.1" id="Layer_1" xmlns="http://www.w3.org/2000/svg" xmlns:xlink="http://www.w3.org/1999/xlink" x="0px" y="0px"
	 width="30px" height="30px" viewBox="0 0 30 30" enable-background="new 0 0 30 30" xml:space="preserve">
<g id="Layer_1_1_">
</g>
<g id="Layer_5" display="none">
	<rect x="-135.489" y="-1139.723" display="inline" fill="#333333" width="3016" height="1758"/>
</g>
<g id="Layer_4">
</g>
<g id="Layer_3">
</g>
<g id="Layer_2">
	<g>
		<g>
			<circle fill="#A6A39C" cx="16.953" cy="15.394" r="2.882"/>
		</g>
		<path fill="#A6A39C" d="M0.4,13.7L4.1,17.4c0.2,0.199,0.4,0.3,0.7,0.3c0.2,0,0.5-0.101,0.7-0.3l3.7-3.7c0.399-0.4,0.399-1,0-1.4
			c-0.4-0.399-1-0.399-1.4,0L5.7,14.4C6,8.6,10.9,3.9,16.8,3.9C23,3.9,28,8.9,28,15s-5,11.1-11.2,11.1c-2,0-4-0.5-5.7-1.5
			C10.6,24.4,10,24.5,9.7,25C9.5,25.5,9.6,26.1,10.1,26.4c2,1.199,4.301,1.8,6.7,1.8C24.1,28.2,30,22.3,30,15S24.1,1.8,16.8,1.8
			C9.8,1.8,4.1,7.4,3.7,14.3l-2-2c-0.4-0.399-1-0.399-1.4,0C-0.1,12.7-0.1,13.3,0.4,13.7z"/>
	</g>
</g>
</svg>
