<?xml version="1.0" encoding="utf-8"?>
<!-- Generator: Adobe Illustrator 16.0.4, SVG Export Plug-In . SVG Version: 6.00 Build 0)  -->
<!DOCTYPE svg PUBLIC "-//W3C//DTD SVG 1.1//EN" "http://www.w3.org/Graphics/SVG/1.1/DTD/svg11.dtd" [
	<!ENTITY ns_extend "http://ns.adobe.com/Extensibility/1.0/">
	<!ENTITY ns_ai "http://ns.adobe.com/AdobeIllustrator/10.0/">
	<!ENTITY ns_graphs "http://ns.adobe.com/Graphs/1.0/">
	<!ENTITY ns_vars "http://ns.adobe.com/Variables/1.0/">
	<!ENTITY ns_imrep "http://ns.adobe.com/ImageReplacement/1.0/">
	<!ENTITY ns_sfw "http://ns.adobe.com/SaveForWeb/1.0/">
	<!ENTITY ns_custom "http://ns.adobe.com/GenericCustomNamespace/1.0/">
	<!ENTITY ns_adobe_xpath "http://ns.adobe.com/XPath/1.0/">
]>
<svg version="1.1" id="Layer_1" xmlns:x="&ns_extend;" xmlns:i="&ns_ai;" xmlns:graph="&ns_graphs;"
	 xmlns="http://www.w3.org/2000/svg" xmlns:xlink="http://www.w3.org/1999/xlink" x="0px" y="0px" width="35px" height="30px"
	 viewBox="0 0 35 30" enable-background="new 0 0 35 30" xml:space="preserve">
<metadata>
	<sfw  xmlns="&ns_sfw;">
		<slices></slices>
		<sliceSourceBounds  bottomLeftOrigin="true" width="30.519" height="26.667" x="281.25" y="196.586"></sliceSourceBounds>
	</sfw>
</metadata>
<g id="Sort_by_price_copy">
	<g>
		<path fill="#999999" d="M24.185,13H17.72c-0.399,0-0.721,0.322-0.721,0.72v13.112c0,0.398,0.322,0.721,0.721,0.721
			c0.396,0,0.721-0.322,0.721-0.721V20.08h3.184c0.397,0,0.722-0.322,0.722-0.721c0-0.399-0.322-0.721-0.722-0.721h-3.184V14.44
			h5.743c0.396,0,0.719-0.323,0.719-0.721C24.903,13.322,24.581,13,24.185,13z"/>
		<path fill="#999999" d="M31.313,19.665c0.197-0.347,0.074-0.785-0.272-0.981c-1.118-0.631-2.796-0.58-3.993,0.115
			c-0.061,0.035-0.104,0.086-0.16,0.123v-0.814c0-0.397-0.322-0.721-0.721-0.721s-0.721,0.322-0.721,0.721v8.728
			c0,0.397,0.322,0.722,0.721,0.722c0.396,0,0.721-0.322,0.721-0.722v-5.239c0-0.685,0.299-1.205,0.887-1.552
			c0.845-0.492,1.965-0.438,2.559-0.104C30.681,20.135,31.12,20.011,31.313,19.665z"/>
		<circle fill="#999999" cx="30.688" cy="26.833" r="1.081"/>
	</g>
</g>
<g id="Layer_1_1_">
	<g>
		<path fill="none" stroke="#999999" stroke-width="1.5" stroke-linecap="round" stroke-miterlimit="10" d="M15.289,8.912
			l-6.004-6.7c-0.25-0.281-0.67-0.286-0.928-0.014L2,8.912"/>
		
			<line fill="none" stroke="#999999" stroke-width="1.5" stroke-linecap="round" stroke-miterlimit="10" x1="8.866" y1="26.997" x2="8.866" y2="2.129"/>
	</g>
</g>
</svg>
