<?xml version="1.0" encoding="utf-8"?>
<!-- Generator: Adobe Illustrator 20.1.0, SVG Export Plug-In . SVG Version: 6.00 Build 0)  -->
<svg version="1.1" id="Layer_1" xmlns="http://www.w3.org/2000/svg" xmlns:xlink="http://www.w3.org/1999/xlink" x="0px" y="0px"
	 width="30px" height="30px" viewBox="0 0 30 30" enable-background="new 0 0 30 30" xml:space="preserve">
<path fill="#999999" d="M12.3,22.2c-0.4,0-0.8-0.2-1.1-0.6l-3.2-4c-0.3-0.4-0.3-1.1,0.2-1.4c0.4-0.3,1.1-0.3,1.4,0.2l2.7,3.4l5-6.9
	l3.6-5.1c0.3-0.5,0.9-0.6,1.4-0.2C22.9,7.9,23,8.5,22.5,9l-3.6,5.1l-5.6,7.7C13.1,22,12.7,22.2,12.3,22.2z M15,30
	C6.7,30,0,23.3,0,15S6.7,0,15,0s15,6.7,15,15S23.4,30,15,30z M15,2C7.9,2,2,7.9,2,15s5.8,13,13,13s13-5.8,13-13S22.2,2,15,2z"/>
</svg>
