<?xml version="1.0" encoding="utf-8"?>
<!-- Generator: Adobe Illustrator 20.1.0, SVG Export Plug-In . SVG Version: 6.00 Build 0)  -->
<svg version="1.1" id="Layer_1" xmlns="http://www.w3.org/2000/svg" xmlns:xlink="http://www.w3.org/1999/xlink" x="0px" y="0px"
	 width="19px" height="16.5px" viewBox="0 0 19 16.5" enable-background="new 0 0 19 16.5" xml:space="preserve">
<g id="Layer_1_1_">
</g>
<g id="Layer_5" display="none">
	<rect x="-530.3" y="-466.5" display="inline" fill="#333333" width="3016" height="1758"/>
</g>
<g id="Layer_4">
</g>
<g id="Layer_3">
</g>
<g id="Layer_2">
	<g>
		<g>
			<path fill="#999999" d="M19,16.5H0v-5h19V16.5z M1.2,15.2h16.6v-2.6H1.2V15.2z"/>
		</g>
		<g>
			<path fill="#999999" d="M19,16.5H0V0h19V16.5z M1.2,15.2h16.6v-14H1.2V15.2z"/>
		</g>
		<g>
			<path fill="#999999" d="M2.7,10.9c-0.1,0-0.2,0-0.3-0.1c-0.2-0.2-0.2-0.4-0.1-0.6l2.1-2.5C4.6,7.4,4.8,7.4,5,7.5
				c0.2,0.2,0.2,0.4,0.1,0.6L3,10.6C3,10.8,2.8,10.9,2.7,10.9z"/>
		</g>
		<g>
			<path fill="#999999" d="M7.9,10.5c-0.1,0-0.2,0-0.3-0.1l-3-2.3C4.4,8,4.4,7.7,4.5,7.5s0.4-0.2,0.6-0.1l3,2.3
				c0.2,0.1,0.2,0.4,0.1,0.6S8,10.5,7.9,10.5z"/>
		</g>
		<g>
			<path fill="#999999" d="M7.9,10.5c-0.1,0-0.2,0-0.3-0.1C7.4,10.2,7.4,10,7.5,9.8l4.2-5.1c0.2-0.2,0.4-0.2,0.6-0.1
				c0.2,0.2,0.2,0.4,0.1,0.6l-4.2,5.1C8.1,10.5,8,10.5,7.9,10.5z"/>
		</g>
		<g>
			<path fill="#999999" d="M16.8,10.9c-0.1,0-0.2-0.1-0.3-0.1l-4.7-5.5c-0.2-0.2-0.1-0.5,0-0.6c0.2-0.2,0.5-0.1,0.6,0l4.7,5.4
				c0.2,0.2,0.1,0.5,0,0.6S16.9,10.9,16.8,10.9z"/>
		</g>
		<g>
			<path fill="#999999" d="M6.2,6c-1,0-1.8-0.8-1.8-1.8s0.8-1.8,1.8-1.8S8,3.2,8,4.2S7.2,6,6.2,6z M6.2,3.3c-0.5,0-0.9,0.4-0.9,0.9
				s0.4,0.9,0.9,0.9s0.9-0.4,0.9-0.9S6.7,3.3,6.2,3.3z"/>
		</g>
	</g>
</g>
</svg>
