<?xml version="1.0" encoding="utf-8"?>
<!-- Generator: Adobe Illustrator 16.0.4, SVG Export Plug-In . SVG Version: 6.00 Build 0)  -->
<!DOCTYPE svg PUBLIC "-//W3C//DTD SVG 1.1//EN" "http://www.w3.org/Graphics/SVG/1.1/DTD/svg11.dtd" [
	<!ENTITY ns_extend "http://ns.adobe.com/Extensibility/1.0/">
	<!ENTITY ns_ai "http://ns.adobe.com/AdobeIllustrator/10.0/">
	<!ENTITY ns_graphs "http://ns.adobe.com/Graphs/1.0/">
	<!ENTITY ns_vars "http://ns.adobe.com/Variables/1.0/">
	<!ENTITY ns_imrep "http://ns.adobe.com/ImageReplacement/1.0/">
	<!ENTITY ns_sfw "http://ns.adobe.com/SaveForWeb/1.0/">
	<!ENTITY ns_custom "http://ns.adobe.com/GenericCustomNamespace/1.0/">
	<!ENTITY ns_adobe_xpath "http://ns.adobe.com/XPath/1.0/">
]>
<svg version="1.1" id="Layer_1" xmlns:x="&ns_extend;" xmlns:i="&ns_ai;" xmlns:graph="&ns_graphs;"
	 xmlns="http://www.w3.org/2000/svg" xmlns:xlink="http://www.w3.org/1999/xlink" x="0px" y="0px" width="35px" height="35px"
	 viewBox="0 0 35 35" enable-background="new 0 0 35 35" xml:space="preserve">
<metadata>
	<sfw  xmlns="&ns_sfw;">
		<slices></slices>
		<sliceSourceBounds  bottomLeftOrigin="true" width="35" height="16383" x="0" y="-8174"></sliceSourceBounds>
	</sfw>
</metadata>
<g id="Ebene_2">
	<g>
		<path fill="#FFFFFF" d="M17.5,34.125c9.184,0,16.625-7.443,16.625-16.625c0-9.184-7.441-16.625-16.625-16.625
			c-0.375,0-0.74,0.032-1.107,0.057v33.137C16.76,34.094,17.125,34.125,17.5,34.125z"/>
		<path fill="#319FDD" d="M17.5,34.125V0.875C7.188,1.312,0.875,8.691,0.875,17.5S7.375,33.75,17.5,34.125z"/>
	</g>
</g>
<path id="border" fill="#CCCCCC" d="M34,17.5C34,26.6,26.6,34,17.5,34S1,26.6,1,17.5C1,8.402,8.402,1,17.5,1S34,8.402,34,17.5
	 M35,17.5C35,7.835,27.166,0,17.5,0C7.836,0,0,7.835,0,17.5S7.836,35,17.5,35C27.166,35,35,27.165,35,17.5L35,17.5z"/>
</svg>
