<svg version="1" xmlns="http://www.w3.org/2000/svg" width="140" height="120"><path fill="#CCEAF9" d="M45.3 83.8h8.2v14.8h-8.2z"/><path fill="#E5E5E5" d="M64 74.1h47.1v24.2H64z"/><path fill="#E5E5E5" d="M110.9 87.2s.8.3 1.2.5c.1.1.3.2.4.3.9-.8 2.3-.9 3.3-.2.8.5 1.2 1.4 1.3 2.2.6.1 1.2.3 1.8.7.8.5 1.4 1.3 1.8 2.2.9-.4 1.9-.3 2.7.2 1.2.8 1.6 2.3 1.1 3.6 1.4.2 1.2 1.6 1.2 1.6h-14.5l-.3-11.1z"/><path fill="none" stroke="#007AB7" stroke-linecap="round" stroke-linejoin="round" stroke-miterlimit="10" d="M126.9 98.5c1.1-1.5.4-2.8-.7-3.1h-.1c.5-1.3 0-2.9-1.2-3.7-.8-.5-1.9-.6-2.7-.2-.3-.9-.9-1.7-1.8-2.2-.6-.4-1.2-.6-1.8-.7-.1-.9-.5-1.7-1.3-2.2-1.1-.7-2.4-.6-3.3.2-.1-.1-.3-.2-.4-.3-.7-.5-1.5-.7-2.3-.8"/><path fill="#E5E5E5" d="M27.6 61.2c-6.8 0-12.2 5.5-12.2 12.2 0 2.9 1 5.5 2.7 7.6 2.1 1.7 4.7 2.7 7.6 2.7 5 0 7.9-2.9 7.9-2.9v-3.2l-3.8-.2 8.1-8.2s-.9-3.6-2.7-5.3c-2.1-1.7-4.7-2.7-7.6-2.7z"/><path fill="none" stroke="#007AB7" stroke-linecap="round" stroke-linejoin="round" stroke-miterlimit="10" d="M33.5 80.6c-2.2 1.9-5.1 3-8.2 3-7 0-12.8-5.7-12.8-12.8S18.2 58 25.3 58c6.4 0 11.8 4.8 12.6 11M25.3 83.6v14.7"/><path fill="#CCEAF9" d="M52 61.1h45.8l16.6 16.3H67.1zm-3.5-2.8L30.1 77.2h3.5l16.7-17z"/><path fill="none" stroke="#007AB7" stroke-linecap="round" stroke-linejoin="round" stroke-miterlimit="10" d="M114.6 77.6L95.7 58.1h-47m18.8 19.4L48.7 58.1l-19 19.4m38 .2h46.9m-84.9-.2h3.9m0 0v20.8m30.5-24v24m47-20.5v20.7m-57.6-.3V81.8H43.3v16.4"/><path fill="#027AB7" d="M72.3 81.6h7.2v9.5h-7.2z"/><path fill="#CCEAF9" d="M79.5 81.6h7.2v9.5h-7.2z"/><path fill="none" stroke="#027AB7" stroke-linecap="round" stroke-linejoin="round" stroke-miterlimit="10" d="M72.3 81.6h14.3v9.5H72.3z"/><path fill="#027AB7" d="M91.2 81.6h7.2v9.5h-7.2z"/><path fill="#CCEAF9" d="M98.4 81.6h7.2v9.5h-7.2z"/><path fill="none" stroke="#027AB7" stroke-linecap="round" stroke-linejoin="round" stroke-miterlimit="10" d="M91.3 81.6h14.3v9.5H91.3z"/><path fill="none" stroke="#007AB7" stroke-linecap="round" stroke-linejoin="round" stroke-miterlimit="10" d="M3.1 98.5h133.8"/><path fill="#FFF" d="M77.4 55.8h2.1v10.5h-2.1zm-5.3-1.3h1.4v6.9h-1.4z"/><path fill="#CCEAF9" d="M79 56.1l8 .1V66h-8s.1-9.9 0-9.9zm-5.6-.9v6.9l3.7 4.1.1-10z"/><path d="M87.1 66.3h-9.9l-5.1-5.2m15-5h-9.9l-5.1-1.8H82zM72 54.3V61m5.2-4.8v9.9m10-9.8v9.9" fill="none" stroke="#007AB7" stroke-linecap="round" stroke-linejoin="round" stroke-miterlimit="10"/><path fill="#007AB7" d="M75.5 55.3h6l2 .8L77 56z"/></svg>