<svg version="1" xmlns="http://www.w3.org/2000/svg" width="140" height="120"><path fill="#E5E5E5" d="M45.1 36.2h80.2v62H45.1z"/><path fill="#027AB7" d="M50.9 63h7.2v9.5h-7.2z"/><path fill="#CCEAF9" d="M58.1 63h7.2v9.5h-7.2z"/><path fill="none" stroke="#027AB7" stroke-linecap="round" stroke-linejoin="round" stroke-miterlimit="10" d="M50.9 63h14.3v9.5H50.9z"/><path fill="#027AB7" d="M69.1 63h7.2v9.5h-7.2z"/><path fill="#CCEAF9" d="M76.2 63h7.2v9.5h-7.2z"/><path fill="none" stroke="#027AB7" stroke-linecap="round" stroke-linejoin="round" stroke-miterlimit="10" d="M69.2 63h14.3v9.5H69.2z"/><path fill="#027AB7" d="M87.3 63h7.2v9.5h-7.2z"/><path fill="#CCEAF9" d="M94.5 63h7.2v9.5h-7.2z"/><path fill="none" stroke="#027AB7" stroke-linecap="round" stroke-linejoin="round" stroke-miterlimit="10" d="M87.4 63h14.3v9.5H87.4z"/><path fill="#027AB7" d="M105.5 63h7.2v9.5h-7.2z"/><path fill="#CCEAF9" d="M112.7 63h7.2v9.5h-7.2z"/><path fill="none" stroke="#027AB7" stroke-linecap="round" stroke-linejoin="round" stroke-miterlimit="10" d="M105.6 63h14.3v9.5h-14.3z"/><path fill="#027AB7" d="M50.9 44.5h7.2V54h-7.2z"/><path fill="#CCEAF9" d="M58.1 44.5h7.2V54h-7.2z"/><path fill="none" stroke="#027AB7" stroke-linecap="round" stroke-linejoin="round" stroke-miterlimit="10" d="M50.9 44.5h14.3V54H50.9z"/><path fill="#027AB7" d="M69.1 44.5h7.2V54h-7.2z"/><path fill="#CCEAF9" d="M76.2 44.5h7.2V54h-7.2z"/><path fill="none" stroke="#027AB7" stroke-linecap="round" stroke-linejoin="round" stroke-miterlimit="10" d="M69.2 44.5h14.3V54H69.2z"/><path fill="#027AB7" d="M87.3 44.5h7.2V54h-7.2z"/><path fill="#CCEAF9" d="M94.5 44.5h7.2V54h-7.2z"/><path fill="none" stroke="#027AB7" stroke-linecap="round" stroke-linejoin="round" stroke-miterlimit="10" d="M87.4 44.5h14.3V54H87.4z"/><path fill="#027AB7" d="M105.5 44.5h7.2V54h-7.2z"/><path fill="#CCEAF9" d="M112.7 44.5h7.2V54h-7.2z"/><path fill="none" stroke="#027AB7" stroke-linecap="round" stroke-linejoin="round" stroke-miterlimit="10" d="M105.6 44.5h14.3V54h-14.3z"/><path fill="#027AB7" d="M50.9 81.2h7.2v9.5h-7.2z"/><path fill="#CCEAF9" d="M58.1 81.2h7.2v9.5h-7.2z"/><path fill="none" stroke="#027AB7" stroke-linecap="round" stroke-linejoin="round" stroke-miterlimit="10" d="M50.9 81.2h14.3v9.5H50.9z"/><path fill="#027AB7" d="M69.1 81.2h7.2v9.5h-7.2z"/><path fill="#CCEAF9" d="M76.2 81.2h7.2v9.5h-7.2z"/><path fill="none" stroke="#027AB7" stroke-linecap="round" stroke-linejoin="round" stroke-miterlimit="10" d="M69.2 81.2h14.3v9.5H69.2z"/><path fill="#027AB7" d="M87.3 81.2h7.2v9.5h-7.2z"/><path fill="#CCEAF9" d="M94.5 81.2h7.2v9.5h-7.2z"/><path fill="none" stroke="#027AB7" stroke-linecap="round" stroke-linejoin="round" stroke-miterlimit="10" d="M87.4 81.2h14.3v9.5H87.4z"/><path fill="#027AB7" d="M105.5 81.2h7.2v9.5h-7.2z"/><path fill="#CCEAF9" d="M112.7 81.2h7.2v9.5h-7.2z"/><path fill="none" stroke="#027AB7" stroke-linecap="round" stroke-linejoin="round" stroke-miterlimit="10" d="M105.6 81.2h14.3v9.5h-14.3z"/><path fill="#CCEAF9" d="M21.7 83.5h8.2v14.8h-8.2zm10.2 0h8v14.8h-8z"/><path fill="none" stroke="#007AB7" stroke-linecap="round" stroke-linejoin="round" stroke-miterlimit="10" d="M39.9 98V81.5H19.7V98m10.1-16.3v16.8M14.7 36.3v62.2m30.5-62v62m80-62.3v62m-110.5-62H125"/><path fill="#E5E5E5" d="M89.2 29.8H120v6.6H89.2z"/><path fill="none" stroke="#007AB7" stroke-linecap="round" stroke-linejoin="round" stroke-miterlimit="10" d="M89.1 29.5h30.8v6.7H89.1z"/><path fill="none" stroke="#007AB7" stroke-linecap="round" stroke-linejoin="round" stroke-miterlimit="10" d="M83.1 29.5h6.1v6.7h-6.1z"/><path fill="#E5E5E5" d="M39 29.6h30.8v6.6H39z"/><path fill="none" stroke="#007AB7" stroke-linecap="round" stroke-linejoin="round" stroke-miterlimit="10" d="M39.1 29.5h30.8v6.7H39.1z"/><path fill="none" stroke="#007AB7" stroke-linecap="round" stroke-linejoin="round" stroke-miterlimit="10" d="M33.1 29.5h6.1v6.7h-6.1z"/><path fill="#CCEAF9" stroke="#007AB7" stroke-linecap="round" stroke-linejoin="round" stroke-miterlimit="10" d="M57.1 26.2h9.7v3.3h-9.7zm-15 0h9.7v3.3h-9.7zm65.4 0h9.7v3.3h-9.7zm-15 0h9.7v3.3h-9.7z"/><path d="M19.2 65H22v5.5h-2.8zm18.3 0h2.8v5.5h-2.8zm-9.2 0h2.8v5.5h-2.8zm-9.1-18.5H22V52h-2.8zm18.3 0h2.8V52h-2.8zm-9.2 0h2.8V52h-2.8z" fill="#007AB7"/><path fill="none" stroke="#007AB7" stroke-linecap="round" stroke-linejoin="round" stroke-miterlimit="10" d="M3.1 98.5h133.8"/></svg>