<?xml version="1.0" encoding="utf-8"?>
<!-- Generator: Adobe Illustrator 20.1.0, SVG Export Plug-In . SVG Version: 6.00 Build 0)  -->
<svg version="1.1" id="Layer_1" xmlns="http://www.w3.org/2000/svg" xmlns:xlink="http://www.w3.org/1999/xlink" x="0px" y="0px"
	 width="30px" height="29.9px" viewBox="0 0 30 29.9" enable-background="new 0 0 30 29.9" xml:space="preserve">
<g>
	<path fill="#DF9767" d="M29.9,15c0,8.3-6.7,15-15,15c-8.3,0-15-6.7-15-15C0,6.7,6.7,0,15,0C23.2,0,29.9,6.7,29.9,15"/>
	<g>
		<path fill="#FFFFFF" d="M10.3,4.4c3,0,6.5,0,9.3,0C19.9,4.7,19.9,5,19.7,5c-3.2,0-6.5,0-9.5,0C9.9,5,10.1,4.5,10.3,4.4z"/>
		<path fill="#FFFFFF" d="M11.2,5.8c0.5,0,0.9,0,1.4,0c0.2,0-0.8,3.4-0.8,3.6c0,2.2,2,4,2.7,5.1c0.2-0.4-2.7-4.5-2-5.2
			c0.9-1.9,1-3.5,1.1-3.5c1.6,0,3.4,0,5,0c0,0.5-0.2,0.9-0.3,1.3c-0.2,2.4,1.8,2.9,2.7,4.1c1.1,1.4,1.2,3.3,0.8,5
			c-0.1,0.3-4.7,2.2-4.8,2.5c0,0.1-2.1,2.4-2.5,3.3c0.5,0.6,3.3-2.7,3.5-2.8c1.2-0.5,3.6-2.2,3.6-2c-0.3,0.7-0.8,1.7-1.2,2.2
			c-0.7,1-3,2.6-2.3,3.9c0.3,0.5,1.2,0.5,1.3,1c0.3,1.1-0.9,0.9-1.8,1c-1.4,0.1-3.6,0.1-5.2,0c-1.2-0.1-2.1,0-1.9-0.9
			c0.1-0.8,1.4-0.4,1.5-1.6c0-1-1.7-2.5-2.4-3.4c-1.5-2.1-2.8-5.6-0.8-8.2c1.1-1.4,3.6-2,2.5-5.2C11.2,5.9,11.2,5.8,11.2,5.8z"/>
		<path fill="#FFFFFF" d="M10.6,9.1c-0.1-0.9-0.1-1.7-0.8-1.8C8.3,7.1,8,9.6,8.7,10.9c-0.3,0.5-0.6,1.2-1.1,1.6
			c-0.5-0.3-0.2-0.8,0.2-1.1C7.5,10.2,7,9.3,7.4,8.1C8.4,5.2,12.9,6.7,10.6,9.1z"/>
		<path fill="#FFFFFF" d="M22.1,11.3c0.2,0.3,0.7,0.8,0.2,1.1c-0.5-0.4-0.7-1-1.1-1.6c0.7-1.3,0.5-3.6-1-3.5
			c-0.8,0.1-0.8,0.8-0.9,1.8c-2.3-2.3,2.2-4,3.2-1C22.9,9.2,22.5,10.2,22.1,11.3z"/>
	</g>
	<path fill="none" d="M0.1,15c0,8.3,6.7,15,15,15c8.3,0,15-6.7,15-15c0-8.3-6.7-15-15-15C6.8,0,0.1,6.7,0.1,15"/>
</g>
</svg>
