<?xml version="1.0" encoding="utf-8"?>
<!-- Generator: Adobe Illustrator 20.1.0, SVG Export Plug-In . SVG Version: 6.00 Build 0)  -->
<svg version="1.1" id="Layer_1" xmlns="http://www.w3.org/2000/svg" xmlns:xlink="http://www.w3.org/1999/xlink" x="0px" y="0px"
	 width="30px" height="30px" viewBox="0 0 30 30" enable-background="new 0 0 30 30" xml:space="preserve">
<g>
	<path fill="#E49FC6" d="M30,15c0,8.3-6.7,15-15,15C6.7,30,0,23.3,0,15C0,6.7,6.7,0,15,0C23.3,0,30,6.7,30,15"/>
	<g>
		<path fill="#FFFFFF" stroke="#FFFFFF" stroke-width="0.2147" stroke-miterlimit="10" d="M18.6,9.2"/>
		<path fill="#FFFFFF" stroke="#FFFFFF" stroke-width="0.2147" stroke-miterlimit="10" d="M11.3,11.9"/>
		<g>
			<g>
				<path fill="#FFFFFF" d="M16.3,6.1c0.9,0.2,1.6,0.5,1.5,1.7c-2.1,0-3.6,0-5.7,0c0.1-1,0.4-1.6,1.5-1.6
					C12.5,2.3,17.7,2.6,16.3,6.1z"/>
				<path fill="#FFFFFF" d="M15,8.1c-0.9,0-1.8,0-2.8,0h-0.1l0-0.2c0.1-0.7,0.3-1.7,1.5-1.7c-0.3-1.1-0.1-1.8,0.2-2.2
					c0.3-0.4,0.8-0.6,1.3-0.6c0.5,0,1,0.2,1.3,0.7c0.4,0.5,0.4,1.2,0.1,2c0.8,0.2,1.6,0.7,1.5,1.9l0,0.2h-0.1
					C16.8,8.1,15.9,8.1,15,8.1z"/>
			</g>
			<g>
				<path fill="#FFFFFF" d="M11.3,11.1c-0.3-0.3-0.4-0.6-0.4-1.1c0-0.5,0.1-0.8,0.4-1.1h7.5c0.6,0.6,0.6,1.7,0.1,2.2L11.3,11.1z"/>
			</g>
			<g>
				<path fill="#FFFFFF" d="M18.2,25c0,0.3,0.2,0.4-0.1,0.4H12c-0.3,0-0.5-0.1-0.5-0.4V13.1c0-0.3,0.2-0.5,0.5-0.5H18
					c0.3,0,0.1,0.2,0.1,0.5V25z"/>
				<path fill="#FFFFFF" d="M18,26.1H12c-0.6,0-1.3-0.5-1.3-1.1V13.1c0-0.6,0.7-1.2,1.3-1.2H18c0.6,0,0.9,0.6,0.9,1.2V25
					C18.9,25.6,18.6,26.1,18,26.1z"/>
			</g>
		</g>
		<g>
			<rect x="15.2" y="14.1" fill="#E3A5BE" width="2.2" height="0.8"/>
		</g>
		<g>
			<rect x="15.2" y="16.3" fill="#E3A5BE" width="2.2" height="0.8"/>
		</g>
		<g>
			<rect x="15.2" y="18.6" fill="#E3A5BE" width="2.2" height="0.8"/>
		</g>
	</g>
</g>
</svg>
