<?xml version="1.0" encoding="utf-8"?>
<!-- Generator: Adobe Illustrator 20.1.0, SVG Export Plug-In . SVG Version: 6.00 Build 0)  -->
<svg version="1.1" id="Layer_1" xmlns="http://www.w3.org/2000/svg" xmlns:xlink="http://www.w3.org/1999/xlink" x="0px" y="0px"
	 width="30px" height="30px" viewBox="0 0 30 30" enable-background="new 0 0 30 30" xml:space="preserve">
<g>
	<path fill="#EFA758" d="M30,15c0,8.3-6.7,15-15,15C6.7,30,0,23.3,0,15C0,6.7,6.7,0,15,0S30,6.7,30,15"/>
	<g>
		<g>
			<path fill="#FFFFFF" d="M16.3,23.1l-2.4,0c-3.1-0.8-8.5-0.9-8.5-0.9l-0.4,0V8.3l0.3-0.1C6.4,8,7.7,8,9.1,8c2.7,0,5,0.3,5,0.3
				l2.3,0c0.5,0,1.9-0.2,3.9-0.2c1.6,0,3.1,0.1,4.6,0.3l0.3,0l0,0.3c0,0,0,11.7,0,13.2v0.4l-1.7,0c-3.1,0-3.6,0.1-6.4,0.7L16.3,23.1
				z M14,22.3h2.2l0.7-0.1c2.8-0.6,3.4-0.7,6.6-0.7l0.9,0c0-2.2,0-10.6,0-12.4c-1.3-0.1-2.7-0.2-4.1-0.2c-1.9,0-3.3,0.1-3.8,0.2
				c-0.1,0-0.2,0-0.2,0h-2.2C14,9,11.8,8.7,9.1,8.7c-1.3,0-2.4,0.1-3.4,0.2v12.5C7,21.5,11.3,21.7,14,22.3z"/>
		</g>
		<g>
			<path fill="#FFFFFF" d="M15.1,21.2V8.6c0,0,3.9-2.1,8.6-0.5c0,0.7,0,12.2,0,12.2S17.5,19.7,15.1,21.2z"/>
			<path fill="#EFA758" d="M15.1,22.2V8.3l0.1-0.2C15.3,8.1,17.1,7,20,7c1.3,0,2.7,0.2,4,0.6l0.4,0.5L24.2,21l-0.4-0.2
				c0,0-1.2-0.1-2.7-0.1c-2.6,0-4.5,0.3-5.2,0.9L15.1,22.2z"/>
		</g>
		<g>
			<path fill="#EFA758" d="M15.4,22.2l-0.8-0.7c-0.7-0.6-2.2-0.9-4.4-0.9c-2,0-3.8,0.3-3.8,0.3L5.7,21V7.7l0.4-0.1
				C7.2,7.2,8.5,7,9.8,7c3,0,5.3,1.1,5.4,1.2l0.3,0.1L15.4,22.2z"/>
			<path fill="#FFFFFF" d="M14.4,20.3l0-11.4c0,0-3.8-1.9-7.6-0.5c0,0.7,0,1.3,0,11.3C6.9,19.7,12.3,19,14.4,20.3z"/>
			<path fill="#FFFFFF" d="M15.9,20.3l0-11.4c0,0,3.8-1.9,7.6-0.5c0,0.7,0,1.3,0,11.3C23.5,19.8,18,19,15.9,20.3z"/>
		</g>
	</g>
</g>
</svg>
