<?xml version="1.0" encoding="utf-8"?>
<!-- Generator: Adobe Illustrator 20.1.0, SVG Export Plug-In . SVG Version: 6.00 Build 0)  -->
<svg version="1.1" id="Layer_1" xmlns="http://www.w3.org/2000/svg" xmlns:xlink="http://www.w3.org/1999/xlink" x="0px" y="0px"
	 width="30px" height="30px" viewBox="0 0 30 30" enable-background="new 0 0 30 30" xml:space="preserve">
<g>
	<path fill="#93B1B0" d="M30,15c0,8.3-6.7,15-15,15C6.7,30,0,23.3,0,15C0,6.7,6.7,0,15,0C23.3,0,30,6.7,30,15"/>
	<g>
		<path fill="#FFFFFF" d="M22.6,17.2H7.3c-0.7,0-0.5-0.3-0.5-0.8V7.1c0-0.5,0.4-0.8,0.9-0.8h14.5C22.7,6.3,23,6.5,23,7v9.4
			C23,16.4,23,17.2,22.6,17.2z"/>
		<path fill="#FFFFFF" d="M25.6,21.8c0,0.7,0,0.7-0.5,0.7L5,22.5c-0.6,0-0.6,0-0.6-0.7L6,18.6c0.4-1,1.1-0.8,1.7-0.8l15.5,0
			c0.4,0,0.6,0,0.9,0.7L25.6,21.8z"/>
		<path fill="none" stroke="#93B1B0" stroke-width="0.875" stroke-miterlimit="10" d="M19,23.4c0,0.4-0.3,0.4-0.8,0.4l-6.7,0
			c-0.4,0-0.8-0.2-0.8-0.4l0.2-1.6c0-0.2,0.2-0.4,1-0.4l6.2,0c0.2,0,0.5,0.2,0.5,0.4L19,23.4z"/>
	</g>
	<polygon fill="#93B1B0" points="21.5,14.5 21.5,15.6 8.3,15.6 8.3,15.6 8.3,7.1 8.3,7.1 21.5,7.1 21.5,7.1 	"/>
</g>
</svg>
