<?xml version="1.0" encoding="utf-8"?>
<!-- Generator: Adobe Illustrator 20.1.0, SVG Export Plug-In . SVG Version: 6.00 Build 0)  -->
<svg version="1.1" id="Layer_1" xmlns="http://www.w3.org/2000/svg" xmlns:xlink="http://www.w3.org/1999/xlink" x="0px" y="0px"
	 width="30px" height="30px" viewBox="0 0 30 30" enable-background="new 0 0 30 30" xml:space="preserve">
<g>
	<path fill="#A5C563" d="M30,15c0,8.3-6.7,15-15,15C6.7,30,0,23.3,0,15C0,6.7,6.7,0,15,0C23.3,0,30,6.7,30,15"/>
	<path fill="#FFFFFF" d="M15,19.4c-1.7,0-3.5,0-5.2,0c-0.3,0-0.4,0.1-0.4,0.4c0,0.5,0,1.1,0,1.6c0,0.7-0.4,1.2-1,1.4
		c-0.6,0.2-1.2,0-1.6-0.5c-0.2-0.3-0.3-0.6-0.3-0.9c0-0.5,0-1.1,0-1.6c0-0.2-0.1-0.3-0.3-0.3c-0.4,0-0.7,0-1.1,0
		c-0.2,0-0.3,0-0.3-0.2c0-1.8,0-3.5,0-5.3c0-1,0.6-1.8,1.6-2.1c0.2-0.1,0.2-0.2,0.3-0.3c0.5-1.3,1-2.6,1.5-3.9
		c0.5-1.2,1.1-1.7,2.4-1.7c2.8,0,5.7,0,8.5,0c1.3,0,2,0.5,2.5,1.7c0.5,1.3,1,2.5,1.5,3.8c0.1,0.2,0.2,0.3,0.4,0.4
		c0.9,0.3,1.4,0.9,1.5,1.9c0.1,0.5,0,1,0,1.6c0,1.3,0,2.6,0,3.9c0,0.3-0.1,0.3-0.3,0.3c-0.3,0-0.7,0-1,0c-0.2,0-0.3,0.1-0.3,0.3
		c0,0.5,0,1,0,1.6c0,0.9-0.6,1.5-1.4,1.5c-0.8,0-1.4-0.6-1.5-1.5c0-0.5,0-1,0-1.5c0-0.3-0.1-0.3-0.3-0.3
		C18.5,19.4,16.8,19.4,15,19.4 M15,11.7c2.1,0,4.3,0,6.4,0c0.3,0,0.3-0.1,0.2-0.3c-0.4-1.1-0.8-2.1-1.2-3.2
		c-0.2-0.7-0.5-0.8-1.2-0.8c-2.8,0-5.6,0-8.4,0c-0.7,0-1,0.1-1.2,0.8c-0.4,1.1-0.8,2.1-1.2,3.2c-0.1,0.3,0,0.3,0.2,0.3
		C10.7,11.7,12.9,11.7,15,11.7 M8,13.2c-0.8,0-1.5,0.7-1.5,1.5c0,0.9,0.7,1.5,1.5,1.5c0.8,0,1.5-0.7,1.5-1.5
		C9.5,13.9,8.8,13.2,8,13.2 M23.5,14.7c0-0.9-0.7-1.5-1.5-1.5c-0.8,0-1.5,0.7-1.5,1.6c0,0.9,0.7,1.5,1.5,1.5
		C22.8,16.3,23.5,15.6,23.5,14.7"/>
</g>
</svg>
