<?xml version="1.0" encoding="utf-8"?>
<!-- Generator: Adobe Illustrator 20.1.0, SVG Export Plug-In . SVG Version: 6.00 Build 0)  -->
<svg version="1.1" id="Layer_1" xmlns="http://www.w3.org/2000/svg" xmlns:xlink="http://www.w3.org/1999/xlink" x="0px" y="0px"
	 width="30px" height="30.4px" viewBox="0 0 30 30.4" enable-background="new 0 0 30 30.4" xml:space="preserve">
<g>
	<path fill="#8D684E" d="M15,30.4"/>
	<path fill="#EB6256" d="M30,15c0,8.3-6.7,15-15,15C6.7,30,0,23.3,0,15C0,6.7,6.7,0,15,0C23.3,0,30,6.7,30,15"/>
	<g>
		<g>
			<path fill="#FFFFFF" d="M5.7,14.8l3.2,0c0,0.9,0,1.3,0,2.2c0,0.7,0.6,0.6,0.9,0.6c1.7,0,3.9,0,4.2,0c0,0.5-0.1,1.5,0.7,1.5
				c-1.2,2.2-3.4,6.4-3.6,6.9c-0.2,0.4,0.8,0.9,1.2,0c0.4-0.9,1.9-3.5,2.7-5.1c0,0,0,4.6,0,5.2c0,0.6,1.2,0.7,1.2,0
				c0-0.7,0-3.6,0-5.3c0.6,1.8,1.8,4.8,2,5.2c0.2,0.5,1.2,0.5,1.2-0.3c0.1-0.8-2-4.4-2.9-6.7c0.8,0,0.7-0.7,0.7-1.5c0,0,2.6,0,3.8,0
				c0.4,0,0.5-0.1,0.5-0.4c0-0.6,0-2.3,0-3.4c0-1,0-1.7,0-1.7c0-0.9,0-0.7,0-0.9c0-0.3-0.4-0.3-0.4-0.3h-1.2
				c0.2-0.8-0.3-0.5-0.5-0.7c3.2-0.6,2.9-6-0.4-6.6c0,0-0.8-0.2-1.6,0c-0.7,0.2-1.7,1-2.2,2c-0.5-1-1.5-1.8-2.3-2
				c-0.6-0.1-1.5,0-1.5,0C8.3,4.1,8,9.7,11.2,10.3c-0.2,0.1-0.5,0.2-0.3,0.6l-1.6,0c-0.3,0-0.4,0.3-0.4,0.4c0,0.6,0,0.8,0,1.6
				l-3.2,0 M12,8.5c-1.6,0-1.6-2.6,0-2.6C13.5,5.9,13.5,8.5,12,8.5z M19,8.6c-1.6,0-1.6-2.6,0-2.6C20.5,6,20.5,8.6,19,8.6z"/>
		</g>
		<path fill="#FFFFFF" d="M5.8,15.7c0,0.2-0.1,0.2-0.4,0.4L4,16.6c-0.2,0-0.5-0.1-0.5-0.3v-4.9c0-0.2,0.3-0.3,0.5-0.3l1.4,0.7
			c0.2,0.1,0.4,0.2,0.4,0.4V15.7L5.8,15.7z"/>
		<path fill="#FFFFFF" d="M23.6,15.6c0,0.2-0.2,0.8-0.4,0.8h-0.4c-0.2,0-0.7-0.6-0.7-0.8v-3.4c0-0.2,0.5-0.4,0.7-0.4h0.4
			c0.2,0,0.4,0.2,0.4,0.4V15.6z"/>
		<polygon fill="#FFFFFF" points="22.1,14.8 22.1,14.8 21.3,14.8 21.3,14.8 21.3,13.3 21.3,13.3 22.1,13.3 22.1,13.3 		"/>
	</g>
</g>
</svg>
