<?xml version="1.0" encoding="utf-8"?>
<!-- Generator: Adobe Illustrator 20.1.0, SVG Export Plug-In . SVG Version: 6.00 Build 0)  -->
<svg version="1.1" id="Layer_1" xmlns="http://www.w3.org/2000/svg" xmlns:xlink="http://www.w3.org/1999/xlink" x="0px" y="0px"
	 width="30px" height="30px" viewBox="0 0 30 30" enable-background="new 0 0 30 30" xml:space="preserve">
<g>
	<g id="Ebene_2_13_">
		<path fill="#3480AA" d="M30,15c0,8.3-6.7,15-15,15C6.7,30,0,23.3,0,15C0,6.7,6.7,0,15,0C23.3,0,30,6.7,30,15"/>
		<g id="post_stamp_1_">
			<g>
				<path fill="#FFFFFF" d="M23.5,7.1V6.4h-0.8c0,0-0.4,0.8-1,0.8c-0.6,0-1-0.8-1-0.8h-0.6c0,0-0.4,0.8-1,0.8c-0.6,0-1-0.8-1-0.8
					h-0.7c0,0-0.4,0.8-1,0.8c-0.6,0-1-0.8-1-0.8h-0.7c0,0-0.3,0.9-1,0.9c-0.7,0-1-0.9-1-0.9h-0.7c0,0-0.4,0.8-1,0.8
					c-0.6,0-1-0.8-1-0.8H9.1c0,0-0.4,0.8-1,0.8c-0.6,0-1-0.8-1-0.8H6.6v1.2v0c1.5,0,1.5,1.8,0,1.8v0v0.5c0.8,0.1,0.8,1.7,0,1.8V12
					c0.8,0,0.8,1.8,0,1.8v0.6c0.8,0.1,0.8,1.7,0,1.8v0.5c0.8,0.1,0.8,1.7,0,1.8v0.6c0.8,0.2,0.8,1.6,0,1.8v0.4
					c0.8,0.1,0.8,1.7,0,1.8v0.8h1.5c0-0.8,0.3-0.9,1-0.9c0.7,0,1,0.1,1,0.9h1.1c0-0.8,0.3-0.9,1-0.9c0.7,0,1,0.2,1,0.9h0.9
					c0-0.8,0.3-1,1-1c0.7,0,1,0.2,1,1H17c0-0.8,0.3-1,1-1c0.7,0,1,0.2,1,1h1c-0.1-0.8,0.3-1,1-1c0.7,0,1.1,0.3,1,1h1.4v-1
					c-1.5-0.1-1.5-1.8,0-1.8v-0.4C22,20.7,22,19,23.5,19v-0.5c-0.8-0.1-0.8-1.7,0-1.8v-0.6c-1.5-0.1-1.5-1.8,0-1.8v-0.4v0
					c-1.5,0-1.5-1.8,0-1.8v0v-0.4v0c-1.5,0-1.5-1.8,0-1.8v0V9C22.7,8.8,22.7,7.3,23.5,7.1z M8.5,21.8c0-5.4,0-9.7,0-14
					c2.4,0,10.1-0.1,13-0.1c0,5.6,0,12.5,0,14C19.5,21.8,10.5,21.8,8.5,21.8z"/>
			</g>
			<path fill="#FFFFFF" d="M15.6,9.4h-0.3c-0.1,0-0.1,0-0.2,0.1l-3.8,3.4c-0.1,0.1-0.1,0.1-0.1,0.2v0.6c0,0.2,0.1,0.3,0.3,0.3h1.2
				v3.2c0,1.1,0.2,1.7,0.6,2.2c0.5,0.5,1.5,0.9,2.6,0.9c1,0,1.9-0.3,2.7-0.8c0.1-0.1,0.1-0.1,0.1-0.2v-1.8c0-0.1-0.1-0.2-0.1-0.3
				c-0.1,0-0.1,0-0.1,0c-0.1,0-0.1,0-0.1,0c-0.5,0.3-1,0.4-1.4,0.4c-0.7,0-1-0.3-1-1.1v-2.5h2.3c0.2,0,0.3-0.1,0.3-0.3v-1.5
				c0-0.2-0.1-0.3-0.3-0.3h-2.3V9.7C15.9,9.6,15.8,9.4,15.6,9.4"/>
		</g>
	</g>
</g>
</svg>
