<?xml version="1.0" encoding="utf-8"?>
<!-- Generator: Adobe Illustrator 20.1.0, SVG Export Plug-In . SVG Version: 6.00 Build 0)  -->
<svg version="1.1" id="Layer_1" xmlns="http://www.w3.org/2000/svg" xmlns:xlink="http://www.w3.org/1999/xlink" x="0px" y="0px"
	 width="30px" height="30px" viewBox="0 0 30 30" enable-background="new 0 0 30 30" xml:space="preserve">
<g>
	<path fill="#39AAE1" d="M15,0C6.7,0,0,6.7,0,15c0,8.3,6.7,15,15,15c8.3,0,15-6.7,15-15C30,6.7,23.3,0,15,0z"/>
	<g id="teddy_1_">
		<path fill="#FFFFFF" d="M13.7,23.3c0.7,0.4,2.2,0.4,3,0.1c0.1,0.5,0.2,1,0.4,1.4c-1,0.4-2.6,0.3-3.7,0.1
			C13.3,24.5,13.7,24,13.7,23.3z"/>
		<g>
			<path fill="#FFFFFF" d="M21.2,17.9c-0.1,0.1,0.1,0.4,0.1,0.6c-1.4-0.3-2.5,0.6-3.2,1c-0.4-2.5-5.6-2.6-6,0
				c-0.8-0.6-1.9-1.2-3.4-0.9c0-0.3,0.1-0.4,0.1-0.6c-1.2-0.4-2.6-0.5-2.6-2c0-0.9,0.6-1.9,1.6-2c0.8-0.1,2.4,0.4,3.2,0.7
				c1.1,0.4,2,1.1,3.3,1.2c0.4,0,0.9,0,1.3,0c1.2-0.1,2-0.6,3-1c0.5-0.2,1.1-0.3,1.7-0.4c0.6-0.1,1.2-0.4,1.8-0.4c1,0.1,1.6,1,1.6,2
				C23.7,17.3,22.5,17.5,21.2,17.9z"/>
			<path fill="#FFFFFF" d="M9.2,19.1c1.7-0.3,3,0.8,3.6,2.3c0.7,1.8,0,4.4-2.1,4.6c-3.3,0.4-5.2-4.7-2.7-6.5
				C8.3,19.4,8.7,19.2,9.2,19.1z"/>
			<path fill="#FFFFFF" d="M20.2,19.1c2.1-0.3,3.6,1.6,3.1,3.9c-0.3,1.5-1.7,2.8-3,3c-1.5,0.2-2.6-0.8-2.9-1.7
				c-0.7-1.8,0.3-3.8,1.3-4.6C19,19.5,19.5,19.2,20.2,19.1z"/>
			<path fill="#FFFFFF" d="M20.3,4c-1.1-0.1-1.9,0.4-2.5,1.3c-1.3-0.9-4.2-0.9-5.5-0.1C11,3,7.5,4,7.7,6.6c0.1,1.1,0.9,1.7,1.7,2.1
				c-0.5,3,1.2,4.9,3.1,5.9c2.6,1.4,5-0.1,5-0.1c2-0.9,3.7-2.9,3-5.8C23.1,8.1,22.9,4.2,20.3,4z M20.1,7.4c-0.3-0.6-0.7-1.1-1.2-1.5
				C19.8,4.7,21.5,6.8,20.1,7.4z M16.4,10.4c0,0.9-0.7,1.6-1.6,1.6s-1.6-0.7-1.6-1.6s0.7-1.6,1.6-1.6S16.4,9.6,16.4,10.4z M17.6,7.5
				c0,0.4-0.3,0.7-0.7,0.7c-0.4,0-0.7-0.3-0.7-0.7s0.3-0.7,0.7-0.7C17.3,6.8,17.6,7.1,17.6,7.5z M13.5,7.5c0,0.4-0.3,0.7-0.7,0.7
				c-0.4,0-0.7-0.3-0.7-0.7s0.3-0.7,0.7-0.7C13.2,6.8,13.5,7.1,13.5,7.5z M11.1,6c-0.5,0.4-0.9,0.9-1.2,1.5C8.6,6.8,10.3,4.7,11.1,6
				z"/>
		</g>
	</g>
</g>
</svg>
