<?xml version="1.0" encoding="utf-8"?>
<!-- Generator: Adobe Illustrator 20.1.0, SVG Export Plug-In . SVG Version: 6.00 Build 0)  -->
<svg version="1.1" id="Layer_1" xmlns="http://www.w3.org/2000/svg" xmlns:xlink="http://www.w3.org/1999/xlink" x="0px" y="0px"
	 width="30px" height="30px" viewBox="0 0 30 30" enable-background="new 0 0 30 30" xml:space="preserve">
<g>
	<path fill="#7D6F5D" d="M30,15c0,8.3-6.7,15-15,15C6.7,30,0,23.3,0,15C0,6.7,6.7,0,15,0C23.3,0,30,6.7,30,15"/>
	<g id="rLZjFx.tif_1_">
		<g>
			<path fill="#FFFFFF" d="M24.5,13.8c0,0,0-3.3,0-4c-0.1-1.5-1.6-1.4-3.1-1.4c-0.7,0-0.3,0-1.9,0h-1.3C18.3,7.6,18.2,6,17,6h-4
				c-1.1,0-1.2,1.5-1.1,2.3H8.7c-1.6,0-3.1-0.2-3.2,1.4c0,0.7,0,2.5,0,4.1H24.5L24.5,13.8z M15.1,7.1c1.2,0,2,0.5,1.8,1.3h-3.8
				C12.9,6.8,13.8,7.1,15.1,7.1z"/>
			<path fill="#FFFFFF" d="M24.6,14.5H5.4c0,1.5,0,2.2,0,2.5c0,0.5,0,1,0,1.5C5.5,20.6,5,23,6.6,23h16.8c0.6,0,1.1-0.6,1.2-1.2
				c0-1.6,0-3,0-4.8C24.6,16.7,24.6,16.1,24.6,14.5z"/>
		</g>
	</g>
</g>
</svg>
