<?xml version="1.0" encoding="utf-8"?>
<!-- Generator: Adobe Illustrator 20.1.0, SVG Export Plug-In . SVG Version: 6.00 Build 0)  -->
<svg version="1.1" id="Layer_1" xmlns="http://www.w3.org/2000/svg" xmlns:xlink="http://www.w3.org/1999/xlink" x="0px" y="0px"
	 width="30px" height="30px" viewBox="0 0 30 30" enable-background="new 0 0 30 30" xml:space="preserve">
<g>
	<path fill="#D77278" d="M30,15c0,8.3-6.7,15-15,15S0,23.3,0,15C0,6.7,6.7,0,15,0C23.3,0,30,6.7,30,15"/>
	<g>
		<path fill="#FFFFFF" d="M22.4,7.9c0.6,2.6,0.8,4.1,0.8,7.4c0,4.2-1.4,7.9-3.7,9.6c-0.4,0.3-1.1,0.8-1.6,0.9
			c-1.9,0.4-4.4-0.9-5.6-1.8c-3.4-2.7-5.2-6.9-6.3-11.1c-0.2-0.7-0.7-2-0.4-2.8c0.2-0.6,2.8-1.6,3.4-1.9c3.5-1.5,12-2.6,12.4-2.4
			C22,6.1,22.2,7.2,22.4,7.9z M16.1,14c2,1.1,3.9,0.2,4.8-1.3C18.7,11.7,17,12.5,16.1,14z M9.4,15.7c2.2,1,3.9,0.2,4.9-1.3
			C12.2,13.4,10.3,14.2,9.4,15.7z M20.5,17.3c-1.7,2.2-4.4,3.8-8.1,2.1c-0.1,0.2,0.2,0.5,0.4,0.7c0.7,0.7,1.7,1.8,3.1,2.1
			C18.6,22.7,20,20.1,20.5,17.3z"/>
	</g>
</g>
</svg>
