<?xml version="1.0" encoding="utf-8"?>
<!-- Generator: Adobe Illustrator 20.1.0, SVG Export Plug-In . SVG Version: 6.00 Build 0)  -->
<svg version="1.1" id="Layer_1" xmlns="http://www.w3.org/2000/svg" xmlns:xlink="http://www.w3.org/1999/xlink" x="0px" y="0px"
	 width="30px" height="30px" viewBox="0 0 30 30" enable-background="new 0 0 30 30" xml:space="preserve">
<g>
	<path fill="#93C024" d="M30,15c0,8.3-6.7,15-15,15C6.7,30,0,23.3,0,15C0,6.7,6.7,0,15,0C23.3,0,30,6.7,30,15"/>
	<g>
		<path fill="#FFFFFF" d="M22.1,16.2c1.8,0.3,1.8-2.7,0-2.4C20.8,14.1,21,16,22.1,16.2z M22.5,19.4c1.3-0.2,1.2-2.7-0.4-2.4
			C20.7,17.3,21.1,19.6,22.5,19.4z M20,3.5c0.1,0,0.2,0,0.3,0c1.2,0.8,0.1,1.9-0.4,2.5c-1.2,1.3-2.7,2.8-3.7,4.3c1,0,2.3,0,3.5,0
			c1.4,0,2.7-0.4,3.6,0.1c0.7,0.3,1.1,0.8,1.1,1.6c0,3.3,0,6.6,0,9.9c0,1.1-0.7,1.9-1.7,1.9c-5.1,0-10.2,0-15.2,0
			c-1,0-1.9-0.8-1.9-1.9c0-3.3,0-6.4,0-10.1h0c0.2-2.3,2.2-1.5,4.6-1.5c1.3,0,2.7,0,3.8,0c-0.3-0.8-2.6-2.9-3.1-3.4
			c-0.4-0.5-1.2-1-1.2-1.7c0-0.5,0.3-0.8,0.7-0.8c0.6,0,1.1,0.9,1.5,1.3c0.5,0.5,2.7,2.7,3.1,3.2c1.2-1.2,2.5-2.6,3.7-3.9
			C19,4.5,19.6,4.3,20,3.5z M7.9,12.3c-1.1,0.9-1.1,3-1.1,5c0,1.9,0,3.6,1,4.4c1.2,1.1,3.2,0.8,5,0.8c1.8,0,4.7,0.2,6-0.6
			c1.3-0.8,1.4-2.7,1.4-4.9c0-1.6-0.1-3.4-0.6-4.2c-0.7-1.1-2.4-1.2-4.3-1.3c-1.5-0.1-2.3,0-3.6,0.1C10.1,11.6,8.8,11.6,7.9,12.3z"
			/>
	</g>
</g>
</svg>
