<svg viewBox="0 0 973.9 213.8"><path d="M187.6 61.1l-84.9 48.7c-1.6 1-2.7 2.8-2.8 4.7v97.4c0 1.7 1.3 2.4 2.8 1.5l84.9-48.7c1.6-1 2.7-2.8 2.8-4.7V62.6c0-1.7-1.3-2.4-2.8-1.5zm-41.1 57.7c.1-1.8.9-3.5 2.3-4.6L161 107c4.2-2.2 7.6 0 8 4.6-2.8 3.6-4.3 8-4.2 12.6v4.9l-18.3 10.3v-20.6zm-17.6 7.2l12.2-7.2c1.2-.8 2.3 0 2.3 1.9v20.6L124.7 152v-4.9c0-3.1-1.5-6.1-3.8-6.3.4-6.8 3.8-12.5 8-14.8zm50.1 5c0 3.8-2.3 8.4-5.3 9.9l-1.9 1.1v4.6c-.1 1.7-.9 3.2-2.3 4.2-1.5.8-2.3 0-2.3-1.5v-4.6l-43.8 25.2v4.6c.1 1.7-.8 3.4-2.3 4.2-1.5.8-2.3 0-2.3-1.5v-4.6l-1.9 1.1c-3 1.9-5.3 0-5.3-3.8v-15.6c0-3.8 2.3-8.4 5.3-9.9 3-1.9 5.3 0 5.3 3.8v8.4l45.7-26.3v-8.4c0-3.8 2.3-8.4 5.3-9.9 3.1-1.5 5.3.4 5.8 3.4V131zm-56.2-96.1c-2.7-1.5-7.2-1.9-9.9-.4s-2.3 3.8.8 5.7c3 1.5 7.2 1.9 9.9.4s2.3-4.2-.8-5.7zM106 31.6c-4.9-1.5-9.5-2.7-14.5-4.2-3-.8-4.2-.8-6.5.4-8.7 4.9-17.2 9.9-26 14.8-2.3 1.1-2.7 1.9-1.1 3.8 2.3 2.7 4.6 5.3 6.8 8.4.8.8 1.1.8 1.9.4 7-3.5 13.4-7.3 19.9-11.1s12.9-7.6 19.9-11.4c.8-.4.8-.8-.4-1.1zM80 59.7c-3-1.5-7.6-1.5-9.9-.4-2.7 1.5-2.3 3.8.4 5.7 2.7 1.5 7.2 1.9 9.9.4s2.3-3.8-.4-5.7z"/><path d="M182.6 49.7L98.4.7c-1.7-.9-3.7-.9-5.4 0l-84.7 49c-1.5.8-1.5 2.2 0 3.1l84.2 49c1.7.9 3.7.9 5.4 0l84.7-49c1.5-.8 1.5-2.2 0-3.1zm-36.2 3.1c-3 1.6-6.6 1.4-9.5-.4-1.7-.8-3.4-1.8-4.9-3-.8-.4-1.1-.4-2.3 0-6.5 3.5-11.9 6.5-17.2 9.5s-10.7 6.1-16 9.1c-.8.4-1.1.8 0 1.5 1.9 1.1 3.4 1.9 5.3 3 2.3 1.5 2.7 3 1.5 4.6s-3.8 2.3-6.5 1.9c-1.5 0-3-.8-4.2-1.1-1.9-1.1-3.4-1.9-5.3-3-.8-.4-1.1-.4-1.5 0-1.1.8-2.3 1.1-3.4 1.9-.4.4-1.1.4-1.5 0-5.7-3.4-11.8-6.8-17.6-10.3-3.4-1.9-4.2-4.6-1.9-6.8.2-.3.2-.8 0-1.1-2.7-3.4-5.3-6.8-8.4-10.3-2.7-3-2.3-5.3 1.9-7.6 8.7-4.9 17.6-9.9 26.3-15.2 4.2-2.3 7.6-2.7 13.3-1.1 5.7 1.6 11.4 3 17.2 4.6.9.4 1.8.4 2.7 0 3.8-.8 7.2-.8 10.7.8 1.8.9 3.6 1.9 5.3 3 4.2 2.7 8.7 4.9 12.9 7.6.8.4.8.8 0 1.1-1.1.4-2.2 1-3 1.9-.8.4-.8.8 0 1.1 1.9 1.1 3.4 1.9 5.3 3 3 1.9 3.4 3.8.8 5.3zm-58.7 56.9L2.8 61c-1.5-.9-2.8-.2-2.8 1.5v97.4c.1 1.9 1.2 3.7 2.8 4.7l84.9 48.7c1.5.9 2.8.2 2.8-1.5v-97.4c-.1-1.9-1.2-3.7-2.8-4.7zm-15.8 47c-1.9-1.3-3.8-2.4-7.2-4.3-.1 14.8-.2 28.2-.2 33.9-3.4-1.9-8.4-4.7-13.3-7.7.1-6.1.1-14.9.2-24.8-3.8-1.9-10.3-5.8-14.1-8.1-.1 6.8-.1 15.7-.2 24.8-3-1.9-9.9-5.8-13.3-7.7.1-10.3.1-22.2.2-33.2-1.6-.9-3.5-2-6.5-3.9-1.5-.8-2.3-1.1-1.5-1.9 2.8-1.6 5.5-3.4 8.1-5.3l.1-19.1c0-.8.7-.8 1.5-.4l4.2 2.3c.8.5 1.4 1.4 1.5 2.3l-.1 10.3c5-3 9.6-6.4 12.3-7.9.4-.3 1.1-.3 1.5.8.4 0 27.6 49.3 27.6 49.3.4 1.2 0 1.5-.8.6zm707.9-26.6c-9.9 0-18 8.1-18 18s8.1 18 18 18 18-8.1 18-18-8.1-18-18-18M287.9 19.2h-4.6c-1 .1-1.9.4-2.7 1.1l-51.2 45.4c-.7.7-1.1 1.7-1.1 2.7v8c-.1 2 1.4 3.7 3.3 3.8h16.1V124c0 15.2 2.3 23.3 8.7 29.4 7.2 7.2 20.3 11.8 34.7 11.8 14.1 0 25.6-3.4 36.6-11.4 1-.7 1.5-1.8 1.5-3V126c0-1.4-.7-2.7-1.9-3.4a5 5 0 0 0-3.8 0c-6.8 3.4-12.9 5.3-19.1 5.3-9.1 0-12.9-4.6-12.9-14.8V79.8h31.4c2 .1 3.7-1.4 3.8-3.3V55.7c.1-2-1.4-3.7-3.3-3.8h-31.8V22.5c.1-1.4-1.8-3.3-3.7-3.3m168.2 33.2h-36.2c-2-.1-3.7 1.4-3.8 3.3V118c-5.7 8-10.6 11.4-17.2 11.4-11.4 0-12.9-8.4-12.9-16.8V56.1c.1-2-1.4-3.7-3.3-3.8h-36.8c-2-.1-3.7 1.4-3.8 3.3v67.6c0 12.6 3.8 41.9 37.7 41.9 15.2 0 27.5-6.1 37.7-19.1 3.4 14.1 11 19.1 28.2 19.1 5.6.1 11.2-.4 16.7-1.5 1.2-.3 2.2-1.2 2.7-2.3l8-21.8c.4-1.1.4-2.7-.4-3.4-.7-1-1.8-1.5-3-1.5h-.4c-8.4 0-9.9-7.6-9.9-12.2V56.1c.5-1.8-1.4-3.7-3.3-3.7m186.4-33.2h-4.6c-1 .1-1.9.4-2.7 1.1l-50.8 45c-.7.7-1.1 1.7-1.1 2.7v8c-.1 2 1.4 3.7 3.3 3.8h16.1v43.8c0 15.2 2.3 23.3 8.7 29.4 7.2 7.2 20.3 11.8 34.7 11.8 14.1 0 25.6-3.4 36.6-11.4 1-.7 1.5-1.8 1.5-3v-24.8c0-1.4-.7-2.7-1.9-3.4a5 5 0 0 0-3.8 0c-6.8 3.4-12.9 5.3-19.1 5.3-9.1 0-12.9-4.6-12.9-14.8V79.4h31.4c2 .1 3.7-1.4 3.8-3.3V55.3c.1-2-1.4-3.7-3.3-3.8h-31.7V22.1c-.7-1.7-2.4-2.8-4.2-2.9m212.2 65.5c-29.8 0-43.1 20.3-43.1 40.4 0 23.3 18 39.7 43.8 39.7 8 0 13.7-1.1 22.2-3.8 1.5-.4 2.6-1.8 2.7-3.4v-16.7c-.1-1.1-.7-2.2-1.5-3-.7-.4-1.5-.7-2.3-.8-.4-.1-.8.1-1.1.4-5.7 1.9-9.5 2.7-14.1 2.7-11.4 0-19.1-6.1-19.1-14.8 0-9.1 7.2-15.2 18.4-15.2 5 0 9.9.9 14.5 2.7.4 0 .8.4 1.1.4.8-.1 1.6-.4 2.3-.8 1-.7 1.5-1.8 1.5-3V92c-.1-1.7-1.2-3.1-2.7-3.8-7.3-2.3-14.9-3.5-22.6-3.5m64.4-20.9h-22.9c-2-.1-3.7 1.4-3.8 3.3v93.2c-.1 2 1.4 3.7 3.3 3.8h23.4c2 .1 3.7-1.4 3.8-3.3v-43.2c3.4-4.9 7.6-7.6 11.8-7.6 8 0 8.7 8 8.7 11.4v38.5c-.1 2 1.4 3.7 3.3 3.8h23.4c2 .1 3.7-1.4 3.8-3.3v-47c0-24.8-16.8-28.6-26.7-28.6-10.3 0-17.6 3.4-24.8 11V67.2c.5-1.9-1-3.4-3.3-3.4M741.7 52.4h-36.2c-2-.1-3.7 1.4-3.8 3.3v104.2c-.1 2 1.4 3.7 3.3 3.8h36.7c2 .1 3.7-1.4 3.8-3.3V56.2c-.1-2.1-1.8-3.7-3.8-3.8M723.5 5c-10.9-.1-19.8 8.7-19.9 19.6v.3c-.1 10.9 8.7 19.8 19.6 19.9h.3c11 0 19.9-8.9 19.9-19.9S734.5 5 723.5 5M532.7 19.2h-4.6c-1 .1-1.9.4-2.7 1.1l-51.2 45.4c-.7.7-1.1 1.7-1.1 2.7v8c-.1 2 1.4 3.7 3.3 3.8h16.2V124c0 15.2 2.3 23.3 8.7 29.4 7.2 7.2 20.3 11.8 34.7 11.8 14.1 0 25.6-3.4 36.6-11.4 1-.7 1.5-1.8 1.5-3V126c0-1.4-.7-2.7-1.9-3.4a5 5 0 0 0-3.8 0c-6.8 3.4-12.9 5.3-19.1 5.3-9.1 0-12.9-4.6-12.9-14.8V79.8h31.3c2 .1 3.7-1.4 3.8-3.3V55.7c.1-2-1.4-3.7-3.3-3.8h-31.8V22.5c-.1-1.9-1.8-3.4-3.7-3.3"/></svg>