<svg id="Layer_1" xmlns="http://www.w3.org/2000/svg" xmlns:xlink="http://www.w3.org/1999/xlink" width="500" height="500"><style>.st2{opacity:.4}.st3{opacity:.12}</style><pattern width="242" height="242" patternUnits="userSpaceOnUse" id="New_Pattern_2" viewBox="241.7 -242 242 242" overflow="visible"><path fill="none" d="M241.7-242h242V0h-242z"/><path fill="#29abe2" d="M241.7-242h242V0h-242z"/><path class="st2" d="M472.7-242h11V0h-11zM450.7-242h11V0h-11zM428.7-242h11V0h-11zM406.7-242h11V0h-11zM384.7-242h11V0h-11zM362.7-242h11V0h-11zM340.7-242h11V0h-11zM318.7-242h11V0h-11zM296.7-242h11V0h-11zM274.7-242h11V0h-11zM252.7-242h11V0h-11z"/><path class="st2" d="M241.7-11h242V0h-242zM241.7-33h242v11h-242zM241.7-55h242v11h-242zM241.7-77h242v11h-242zM241.7-99h242v11h-242zM241.7-121h242v11h-242zM241.7-143h242v11h-242zM241.7-165h242v11h-242zM241.7-187h242v11h-242zM241.7-209h242v11h-242zM241.7-231h242v11h-242z"/><path class="st3" d="M242-242h242V0H242z"/><g><path class="st3" d="M0-242h242V0H0z"/></g></pattern><path fill="#8cc63f" d="M-4-3h506v505H-4z"/><pattern id="SVGID_1_" xlink:href="#New_Pattern_2" patternTransform="scale(5.0717) rotate(-45 653.19 -12103.23)"/><path d="M239.6 298.3c-8-23.2-33.3-35.5-56.5-27.4C122 292.1 56.9 298.4-4.5 296.8v89c5.6.2 11.3.2 16.9.2 65 0 133.7-8.3 199.7-31.2 23.3-8 35.5-33.3 27.5-56.5z" fill="url(#SVGID_1_)"/><path d="M186.9 241.9S171.6 304.7 193 375c0 0 111.5 41.6 189.3 13.4 0 0 11.8-23.9 14.8-49.6 8.1-68.8-2.2-139.1-21.5-156.9 0 0-66.2-2.1-94 11.8 0 0 5.9-47.4-22.9-92.5 0 0-29.6-7.4-46.6 11.1-.1.1 17.5 82.7-25.2 129.6z" fill="#fbc48a"/></svg>