<?xml version="1.0" encoding="utf-8"?>
<!-- Generator: Adobe Illustrator 22.0.1, SVG Export Plug-In . SVG Version: 6.00 Build 0)  -->
<svg version="1.1" id="Layer_1" xmlns="http://www.w3.org/2000/svg" xmlns:xlink="http://www.w3.org/1999/xlink" x="0px" y="0px"
	 width="500px" height="500px" viewBox="0 0 500 500" style="enable-background:new 0 0 500 500;" xml:space="preserve">
<style type="text/css">
	.st0{fill:none;}
	.st1{fill:#29ABE2;}
	.st2{opacity:0.4;}
	.st3{opacity:0.12;}
	.st4{fill:#8CC63F;}
	.st5{fill:url(#SVGID_1_);}
	.st6{fill:#FBC48A;}
</style>
<pattern  width="242" height="242" patternUnits="userSpaceOnUse" id="New_Pattern_2" viewBox="241.7 -242 242 242" style="overflow:visible;">
	<g>
		<rect x="241.7" y="-242" class="st0" width="242" height="242"/>
		<g>
			<rect x="241.7" y="-242" class="st1" width="242" height="242"/>
			<rect x="472.7" y="-242" class="st2" width="11" height="242"/>
			<rect x="450.7" y="-242" class="st2" width="11" height="242"/>
			<rect x="428.7" y="-242" class="st2" width="11" height="242"/>
			<rect x="406.7" y="-242" class="st2" width="11" height="242"/>
			<rect x="384.7" y="-242" class="st2" width="11" height="242"/>
			<rect x="362.7" y="-242" class="st2" width="11" height="242"/>
			<rect x="340.7" y="-242" class="st2" width="11" height="242"/>
			<rect x="318.7" y="-242" class="st2" width="11" height="242"/>
			<rect x="296.7" y="-242" class="st2" width="11" height="242"/>
			<rect x="274.7" y="-242" class="st2" width="11" height="242"/>
			<rect x="252.7" y="-242" class="st2" width="11" height="242"/>
			<rect x="241.7" y="-11" class="st2" width="242" height="11"/>
			<rect x="241.7" y="-33" class="st2" width="242" height="11"/>
			<rect x="241.7" y="-55" class="st2" width="242" height="11"/>
			<rect x="241.7" y="-77" class="st2" width="242" height="11"/>
			<rect x="241.7" y="-99" class="st2" width="242" height="11"/>
			<rect x="241.7" y="-121" class="st2" width="242" height="11"/>
			<rect x="241.7" y="-143" class="st2" width="242" height="11"/>
			<rect x="241.7" y="-165" class="st2" width="242" height="11"/>
			<rect x="241.7" y="-187" class="st2" width="242" height="11"/>
			<rect x="241.7" y="-209" class="st2" width="242" height="11"/>
			<rect x="241.7" y="-231" class="st2" width="242" height="11"/>
			<rect x="242" y="-242" class="st3" width="242" height="242"/>
		</g>
		<g>
			<rect y="-242" class="st3" width="242" height="242"/>
		</g>
	</g>
</pattern>
<g>
	<g>
		<rect x="-4" y="-3" class="st4" width="506" height="505"/>
		<g>
			
				<pattern  id="SVGID_1_" xlink:href="#New_Pattern_2" patternTransform="matrix(3.5862 -3.5862 3.5862 3.5862 44374.8828 -15636.3057)">
			</pattern>
			<path class="st5" d="M239.6,298.3c-8-23.2-33.3-35.5-56.5-27.4C122,292.1,56.9,298.4-4.5,296.8v89C1.1,386,6.8,386,12.4,386
				c65,0,133.7-8.3,199.7-31.2C235.4,346.8,247.6,321.5,239.6,298.3z"/>
			<g>
				<g>
					<path class="st6" d="M186.9,241.9c0,0-15.3,62.8,6.1,133.1c0,0,111.5,41.6,189.3,13.4c0,0,11.8-23.9,14.8-49.6
						c8.1-68.8-2.2-139.1-21.5-156.9c0,0-66.2-2.1-94,11.8c0,0,5.9-47.4-22.9-92.5c0,0-29.6-7.4-46.6,11.1
						C212,112.4,229.6,195,186.9,241.9z"/>
				</g>
			</g>
		</g>
	</g>
</g>
</svg>
