<?xml version="1.0" encoding="utf-8"?>
<!-- Generator: Adobe Illustrator 22.0.1, SVG Export Plug-In . SVG Version: 6.00 Build 0)  -->
<svg version="1.1" id="Layer_1" xmlns="http://www.w3.org/2000/svg" xmlns:xlink="http://www.w3.org/1999/xlink" x="0px" y="0px"
	 width="500px" height="500px" viewBox="0 0 500 500" style="enable-background:new 0 0 500 500;" xml:space="preserve">
<style type="text/css">
	.st0{fill:#F27A29;}
	.st1{fill:#FFFFFF;}
</style>
<rect x="-3" y="-3" class="st0" width="506" height="507"/>
<g transform="translate(0,-952.36218)">
	<path class="st1" d="M209.4,1046.9c-27.9,0-50.7,22.8-50.7,50.7c0,11.4,3.8,21.9,10.2,30.4h-61c-5.3,0-10.1,4.8-10.1,10.1v60.8
		c0,5.3,4.8,10.1,10.1,10.1h10.1v138.6c0,5.3,4.8,10.1,10.1,10.1h243.4c5.3,0,10.1-4.8,10.1-10.1v-138.6H392
		c5.3,0,10.1-4.8,10.1-10.1v-60.8c0-5.3-4.8-10.1-10.1-10.1h-61c6.4-8.5,10.2-19,10.2-30.4c0-27.9-22.8-50.7-50.7-50.7
		c-16.5,0-31.3,8.1-40.6,20.5C240.7,1055,226,1046.9,209.4,1046.9L209.4,1046.9z M209.4,1067.1c16.9,0,30.4,13.5,30.4,30.4v30.4
		h-30.4c-16.9,0-30.4-13.5-30.4-30.4C179,1080.6,192.5,1067.1,209.4,1067.1z M290.6,1067.1c16.9,0,30.4,13.5,30.4,30.4
		c0,16.9-13.5,30.4-30.4,30.4h-30.4v-30.4C260.1,1080.6,273.6,1067.1,290.6,1067.1z M118.2,1148.3c40.6,0,81.1,0,121.7,0v40.6
		c-40.6,0-81.1,0-121.7,0V1148.3z M260.1,1148.3c40.6,0,81.1,0,121.7,0v40.6c-40.6,0-81.1,0-121.7,0V1148.3z M138.4,1209.1h101.4
		v128.5H138.4V1209.1z M260.1,1209.1h101.4v128.5H260.1V1209.1z"/>
</g>
</svg>
