<svg xmlns="http://www.w3.org/2000/svg" width="500" height="500"><path fill="#f27a29" d="M-3-3h506v507H-3z"/><path d="M209.4 94.538c-27.9 0-50.7 22.8-50.7 50.7 0 11.4 3.8 21.9 10.2 30.4h-61c-5.3 0-10.1 4.8-10.1 10.1v60.8c0 5.3 4.8 10.1 10.1 10.1H118v138.6c0 5.3 4.8 10.1 10.1 10.1h243.4c5.3 0 10.1-4.8 10.1-10.1v-138.6H392c5.3 0 10.1-4.8 10.1-10.1v-60.8c0-5.3-4.8-10.1-10.1-10.1h-61c6.4-8.5 10.2-19 10.2-30.4 0-27.9-22.8-50.7-50.7-50.7-16.5 0-31.3 8.1-40.6 20.5-9.2-12.4-23.9-20.5-40.5-20.5zm0 20.2c16.9 0 30.4 13.5 30.4 30.4v30.4h-30.4c-16.9 0-30.4-13.5-30.4-30.4s13.5-30.4 30.4-30.4zm81.2 0c16.9 0 30.4 13.5 30.4 30.4s-13.5 30.4-30.4 30.4h-30.4v-30.4c-.1-16.9 13.4-30.4 30.4-30.4zm-172.4 81.2h121.7v40.6H118.2v-40.6zm141.9 0h121.7v40.6H260.1v-40.6zm-121.7 60.8h101.4v128.5H138.4v-128.5zm121.7 0h101.4v128.5H260.1v-128.5z" fill="#fff"/></svg>