<?xml version="1.0" encoding="utf-8"?>
<!-- Generator: Adobe Illustrator 22.0.1, SVG Export Plug-In . SVG Version: 6.00 Build 0)  -->
<svg version="1.1" id="Layer_1" xmlns="http://www.w3.org/2000/svg" xmlns:xlink="http://www.w3.org/1999/xlink" x="0px" y="0px"
	 width="500px" height="500px" viewBox="0 0 500 500" style="enable-background:new 0 0 500 500;" xml:space="preserve">
<style type="text/css">
	.st0{fill:#FFCB05;}
	.st1{fill:#FFFFFF;}
</style>
<rect x="-4" y="-3" class="st0" width="506" height="505"/>
<g transform="translate(0,-952.36218)">
	<path class="st1" d="M250,1050.3c-52.3,0-102.8,40.6-102.8,98.2c0,36.3,14.1,59.3,27.2,77.8s24.2,32,24.2,53.2v47.4
		c0,13.4,11.1,23.7,23.7,23.7h4c0,13,10.7,23.7,23.7,23.7s23.7-10.7,23.7-23.7h4c12.6,0,23.7-10.3,23.7-23.7v-47.4
		c0-21.2,11.2-34.8,24.2-53.2s27.2-41.5,27.2-77.8C352.8,1091,302.3,1050.3,250,1050.3z M250,1066.1c44.1,0,86.9,34.1,86.9,82.4
		c0,32.3-11.6,50.8-24.2,68.7c-11.4,16.1-24.2,32-26.7,54.5h-72.1c-2.5-22.5-15.3-38.4-26.7-54.5c-12.6-17.9-24.2-36.3-24.2-68.7
		C163.1,1100.3,205.9,1066.1,250,1066.1z M226.8,1082.3c-1.1,0-2.2,0.2-3.3,0.5c-24.4,9.2-42.6,30.6-47.3,56.9
		c-0.7,4.1,2.3,8.4,6.4,9.1c4.1,0.7,8.4-2.2,9.1-6.3c3.7-20.8,18.2-37.8,37.4-45.1c3.4-1.3,5.7-5.2,5.1-8.8
		C232.9,1084,230,1082.3,226.8,1082.3z M214.4,1287.5h71.1v15.8h-71.1V1287.5z M214.4,1319.1h71.1v7.9c0,4.7-3.8,7.9-7.9,7.9h-55.3
		c-4.1,0-7.9-3.2-7.9-7.9V1319.1z M242.1,1350.7h15.8c0,4.5-3.4,7.9-7.9,7.9S242.1,1355.2,242.1,1350.7z"/>
</g>
</svg>
