<?xml version="1.0" encoding="utf-8"?>
<!-- Generator: Adobe Illustrator 22.0.1, SVG Export Plug-In . SVG Version: 6.00 Build 0)  -->
<svg version="1.1" id="Layer_1" xmlns="http://www.w3.org/2000/svg" xmlns:xlink="http://www.w3.org/1999/xlink" x="0px" y="0px"
	 width="800px" height="350px" viewBox="0 0 800 350" style="enable-background:new 0 0 800 350;" xml:space="preserve">
<style type="text/css">
	.st0{fill:none;}
	.st1{fill:#29ABE2;}
	.st2{opacity:0.4;}
	.st3{opacity:0.12;}
	.st4{fill:url(#SVGID_1_);stroke:#29ABE2;stroke-miterlimit:10;}
	.st5{opacity:0.16;}
	.st6{fill:#FFFFFF;}
	.st7{opacity:0.34;fill:#FFFFFF;}
	.st8{fill:url(#SVGID_2_);}
	.st9{fill:url(#SVGID_3_);}
	.st10{fill:url(#SVGID_4_);}
	.st11{fill:url(#SVGID_5_);}
	.st12{fill:#661412;}
	.st13{fill:url(#SVGID_6_);}
	.st14{fill:url(#SVGID_7_);}
	.st15{fill:#721514;}
	.st16{fill:url(#SVGID_8_);}
	.st17{fill:#CE985E;}
	.st18{fill:url(#SVGID_9_);}
	.st19{fill:none;stroke:#BD4747;stroke-width:4;stroke-linecap:round;stroke-miterlimit:10;}
	.st20{fill:#FFA370;}
	.st21{fill:url(#SVGID_10_);}
	.st22{fill:#403228;}
	.st23{fill:url(#SVGID_11_);}
	.st24{fill:url(#SVGID_12_);}
	.st25{fill:#7D634F;}
	.st26{opacity:0.4;fill:#7D634F;}
	.st27{fill:#7D1920;}
	.st28{fill:#7C4119;}
	.st29{fill:#E6E6E6;}
	.st30{fill:#CCCCCC;}
	.st31{fill:#666666;}
	.st32{fill:url(#SVGID_13_);}
	.st33{fill:url(#SVGID_14_);}
	.st34{fill:#856848;}
	.st35{fill:url(#SVGID_15_);}
	.st36{fill:url(#SVGID_16_);}
	.st37{fill:url(#SVGID_17_);}
	.st38{fill:url(#SVGID_18_);}
	.st39{fill:#836F67;}
	.st40{fill:url(#SVGID_19_);}
	.st41{fill:url(#SVGID_20_);}
	.st42{fill:#FAB383;}
	.st43{fill:#1A1A1A;}
	.st44{fill:url(#SVGID_21_);}
	.st45{fill:url(#SVGID_22_);}
	.st46{fill:url(#SVGID_23_);}
	.st47{fill:#FFFFFF;stroke:#856848;stroke-miterlimit:10;}
	.st48{fill:#FBC48A;}
</style>
<pattern  width="242" height="242" patternUnits="userSpaceOnUse" id="New_Pattern" viewBox="0 -242 242 242" style="overflow:visible;">
	<g>
		<rect y="-242" class="st0" width="242" height="242"/>
		<rect y="-242" class="st1" width="242" height="242"/>
		<rect y="-242" class="st2" width="11" height="242"/>
		<rect x="22" y="-242" class="st2" width="11" height="242"/>
		<rect x="44" y="-242" class="st2" width="11" height="242"/>
		<rect x="66" y="-242" class="st2" width="11" height="242"/>
		<rect x="88" y="-242" class="st2" width="11" height="242"/>
		<rect x="110" y="-242" class="st2" width="11" height="242"/>
		<rect x="132" y="-242" class="st2" width="11" height="242"/>
		<rect x="154" y="-242" class="st2" width="11" height="242"/>
		<rect x="176" y="-242" class="st2" width="11" height="242"/>
		<rect x="198" y="-242" class="st2" width="11" height="242"/>
		<rect x="220" y="-242" class="st2" width="11" height="242"/>
		<rect y="-242" class="st2" width="242" height="11"/>
		<rect y="-220" class="st2" width="242" height="11"/>
		<rect y="-198" class="st2" width="242" height="11"/>
		<rect y="-176" class="st2" width="242" height="11"/>
		<rect y="-154" class="st2" width="242" height="11"/>
		<rect y="-132" class="st2" width="242" height="11"/>
		<rect y="-110" class="st2" width="242" height="11"/>
		<rect y="-88" class="st2" width="242" height="11"/>
		<rect y="-66" class="st2" width="242" height="11"/>
		<rect y="-44" class="st2" width="242" height="11"/>
		<rect y="-22" class="st2" width="242" height="11"/>
	</g>
</pattern>
<pattern  width="242" height="242" patternUnits="userSpaceOnUse" id="New_Pattern_2" viewBox="241.7 -242 242 242" style="overflow:visible;">
	<g>
		<rect x="241.7" y="-242" class="st0" width="242" height="242"/>
		<g>
			<rect x="241.7" y="-242" class="st1" width="242" height="242"/>
			<rect x="472.7" y="-242" class="st2" width="11" height="242"/>
			<rect x="450.7" y="-242" class="st2" width="11" height="242"/>
			<rect x="428.7" y="-242" class="st2" width="11" height="242"/>
			<rect x="406.7" y="-242" class="st2" width="11" height="242"/>
			<rect x="384.7" y="-242" class="st2" width="11" height="242"/>
			<rect x="362.7" y="-242" class="st2" width="11" height="242"/>
			<rect x="340.7" y="-242" class="st2" width="11" height="242"/>
			<rect x="318.7" y="-242" class="st2" width="11" height="242"/>
			<rect x="296.7" y="-242" class="st2" width="11" height="242"/>
			<rect x="274.7" y="-242" class="st2" width="11" height="242"/>
			<rect x="252.7" y="-242" class="st2" width="11" height="242"/>
			<rect x="241.7" y="-11" class="st2" width="242" height="11"/>
			<rect x="241.7" y="-33" class="st2" width="242" height="11"/>
			<rect x="241.7" y="-55" class="st2" width="242" height="11"/>
			<rect x="241.7" y="-77" class="st2" width="242" height="11"/>
			<rect x="241.7" y="-99" class="st2" width="242" height="11"/>
			<rect x="241.7" y="-121" class="st2" width="242" height="11"/>
			<rect x="241.7" y="-143" class="st2" width="242" height="11"/>
			<rect x="241.7" y="-165" class="st2" width="242" height="11"/>
			<rect x="241.7" y="-187" class="st2" width="242" height="11"/>
			<rect x="241.7" y="-209" class="st2" width="242" height="11"/>
			<rect x="241.7" y="-231" class="st2" width="242" height="11"/>
			<rect x="242" y="-242" class="st3" width="242" height="242"/>
		</g>
		<g>
			<rect y="-242" class="st3" width="242" height="242"/>
		</g>
	</g>
</pattern>
<radialGradient id="SVGID_1_" cx="401" cy="404" r="446.1121" gradientUnits="userSpaceOnUse">
	<stop  offset="0" style="stop-color:#CCEAF9"/>
	<stop  offset="1" style="stop-color:#007AB7"/>
</radialGradient>
<rect x="-4" y="-4" class="st4" width="810" height="355"/>
<g>
	<g class="st5">
		<g>
			<path class="st6" d="M701.4,114.5c-7.5,3.8,1.6,14.8-0.9,20.9c-1.9,4.4-5.9,6.1-6.4,11.1c-0.7,6.2,1,12-4.2,16.8
				c-0.4,0.3,0.2,0.9,0.5,0.5c2.3-2.2,3.6-4.7,4.2-7.9c0.4-2.3,0.1-4.6,0.2-7c0.1-4.1,1.5-6.6,4.1-9.6c1.9-2.2,2.9-4.6,2.9-7.5
				c0.1-4.6-5.6-13.9,0-16.7C702.2,114.9,701.8,114.3,701.4,114.5L701.4,114.5z"/>
		</g>
	</g>
	<polygon class="st1" points="704.5,111.5 705.4,117.2 695.9,114.3 702.3,110.2 	"/>
	
		<ellipse transform="matrix(0.2241 -0.9746 0.9746 0.2241 484.2203 751.3773)" class="st1" cx="714" cy="71.6" rx="42.7" ry="36.3"/>
	<circle class="st7" cx="737.9" cy="51.1" r="5.4"/>
</g>
<g>
	<g class="st5">
		<g>
			<path class="st6" d="M735.4,325.5c-7.5,3.8,1.6,14.8-0.9,20.9c-1.9,4.4-5.9,6.1-6.4,11.1c-0.7,6.2,1,12-4.2,16.8
				c-0.4,0.3,0.2,0.9,0.5,0.5c2.3-2.2,3.6-4.7,4.2-7.9c0.4-2.3,0.1-4.6,0.2-7c0.1-4.1,1.5-6.6,4.1-9.6c1.9-2.2,2.9-4.6,2.9-7.5
				c0.1-4.6-5.6-13.9,0-16.7C736.2,325.9,735.8,325.3,735.4,325.5L735.4,325.5z"/>
		</g>
	</g>
	<polygon class="st1" points="738.5,322.5 739.4,328.2 729.9,325.3 736.3,321.2 	"/>
	
		<ellipse transform="matrix(0.2241 -0.9746 0.9746 0.2241 304.9677 948.2241)" class="st1" cx="748" cy="282.6" rx="42.7" ry="36.3"/>
	<circle class="st7" cx="771.9" cy="262.1" r="5.4"/>
</g>
<g>
	<g class="st5">
		<g>
			<path class="st6" d="M673.1,391.6c-1.6,1.7-2,3.6-1.3,5.8c1.7,5.3,7.2,8,7.2,14.2c0,4-3.2,7-2.7,11.1c0.7,6.7,5.5,11.7,1.9,18.7
				c-0.2,0.4,0.4,0.8,0.6,0.4c1.5-2.8,1.9-5.6,1.4-8.8c-0.4-2.3-1.4-4.5-2.1-6.7c-1.4-3.9-0.7-6.7,0.7-10.4c1.1-2.7,1.2-5.2,0.3-8
				c-1.4-4.1-9.7-11.4-5.5-15.8C673.9,391.8,673.4,391.2,673.1,391.6L673.1,391.6z"/>
		</g>
	</g>
	<polygon class="st1" points="675,387.8 677.7,392.9 667.7,393.2 672.5,387.2 	"/>
	
		<ellipse transform="matrix(0.9942 -0.1075 0.1075 0.9942 -33.421 74.1612)" class="st1" cx="670.9" cy="346.9" rx="36.3" ry="42.7"/>
	<circle class="st7" cx="686.8" cy="319.7" r="5.4"/>
</g>
<g>
	<g class="st5">
		<g>
			<path class="st6" d="M598.5,87.7c-1.6,1.3-2.1,2.7-1.8,4.8c0.8,5.8,6.2,8.7,3.4,15.3c-1.5,3.5-3.2,4.9-2.8,8.9
				c0.5,5.2,2.4,9.5-1.1,14.2c-0.3,0.4,0.4,0.8,0.6,0.4c4.9-6.8-1.1-14.2,2.7-21.1c1.3-2.4,2.3-4.1,2.1-7c-0.3-3.7-6.4-11.9-2.7-15
				C599.4,87.9,598.8,87.4,598.5,87.7L598.5,87.7z"/>
		</g>
	</g>
	<polygon class="st1" points="600.7,84.7 602.3,89.4 593.8,88.4 598.6,83.9 	"/>
	
		<ellipse transform="matrix(4.654323e-02 -0.9989 0.9989 4.654323e-02 525.2887 648.9672)" class="st1" cx="602.6" cy="49.3" rx="36.9" ry="31.3"/>
	<circle class="st7" cx="619.8" cy="28.2" r="4.7"/>
</g>
<g>
	<g class="st5">
		<g>
			<path class="st6" d="M172.6,84.1c-3,5,4.5,8.1,5.6,12.5c0.7,3.1-1.3,5.3-0.9,8.2c0.7,4.9,4.8,7.9,3,13.5
				c-0.2,0.5,0.6,0.7,0.7,0.2c0.7-2.3,0.8-4.3,0.1-6.6c-0.4-1.1-1-2-1.4-3c-1.1-3-1.2-5.6-0.8-8.6c0.3-2.1,0.4-3.3-0.5-5.3
				c-1.3-2.9-7.2-6.9-5.1-10.4C173.5,84.1,172.9,83.7,172.6,84.1L172.6,84.1z"/>
		</g>
	</g>
	<polygon class="st1" points="173.8,81.3 176.1,84.6 169.2,85.7 172,81.2 	"/>
	
		<ellipse transform="matrix(0.9745 -0.2244 0.2244 0.9745 -7.6881 38.9555)" class="st1" cx="167.5" cy="53.3" rx="25.4" ry="29.9"/>
	<circle class="st7" cx="176.3" cy="33.1" r="3.8"/>
</g>
<g>
	<g class="st5">
		<g>
			<path class="st6" d="M102.2,128.1c2.3,1.2,2.8,5,2.2,7.1c-0.3,1.2-0.8,2.3-1.2,3.5c-0.5,1.7-0.9,3.5-1,5.3
				c-0.1,3.2,0.8,5.9,2.9,8.2c2.4,2.7,4,5,4.1,8.8c0.1,2.4-0.2,4.7,0.1,7.1c0.4,3.4,1.7,6.3,4.3,8.6c0.4,0.3,0.9-0.2,0.5-0.5
				c-5.2-4.9-3.5-10.6-4.2-16.8c-0.6-5.1-4.8-6.5-6.4-11.1c-1.9-5.2,1.3-9.5,2-14.4c0.4-2.8-0.3-5.2-2.9-6.5
				C102.2,127.3,101.8,127.9,102.2,128.1L102.2,128.1z"/>
		</g>
	</g>
	<polygon class="st1" points="99.5,124.5 98.6,130.2 108.1,127.3 101.7,123.2 	"/>
	<ellipse transform="matrix(0.9746 -0.2241 0.2241 0.9746 -16.6668 22.3219)" class="st1" cx="90" cy="84.6" rx="36.3" ry="42.7"/>
	<circle class="st7" cx="104.7" cy="60.4" r="5.4"/>
</g>
<g>
	<g class="st5">
		<g>
			<path class="st6" d="M65.2,314.1c2.3,1.2,2.8,5,2.2,7.1c-0.3,1.2-0.8,2.3-1.2,3.5c-0.5,1.7-0.9,3.5-1,5.3
				c-0.1,3.2,0.8,5.9,2.9,8.2c2.4,2.7,4,5,4.1,8.8c0.1,2.4-0.2,4.7,0.1,7.1c0.4,3.4,1.7,6.3,4.3,8.6c0.4,0.3,0.9-0.2,0.5-0.5
				c-5.2-4.9-3.5-10.6-4.2-16.8c-0.6-5.1-4.8-6.5-6.4-11.1c-1.9-5.2,1.3-9.5,2-14.4c0.4-2.8-0.3-5.2-2.9-6.5
				C65.2,313.3,64.8,313.9,65.2,314.1L65.2,314.1z"/>
		</g>
	</g>
	<polygon class="st1" points="62.5,310.5 61.6,316.2 71.1,313.3 64.7,309.2 	"/>
	<ellipse transform="matrix(0.9746 -0.2241 0.2241 0.9746 -59.2934 18.761)" class="st1" cx="53" cy="270.6" rx="36.3" ry="42.7"/>
	<circle class="st7" cx="72.1" cy="248.7" r="5.4"/>
</g>
<g>
	<g class="st5">
		<g>
			<path class="st6" d="M266.7,130.1c1.4,2.2-0.2,5.7-1.7,7.3c-0.9,0.9-1.9,1.6-2.8,2.4c-1.1,1.1-2.2,2.2-3.1,3.4
				c-1.8,2.6-2.7,5.4-2.2,8.5c0.5,3.3,1.3,5.6-0.1,9c-1.1,2.5-2.8,4.6-4,7c-1.5,3.3-1.9,6.6-0.9,10.1c0.1,0.5,0.9,0.3,0.7-0.2
				c-2-6.9,2.4-10.9,4.9-16.6c2.2-4.9-1.1-9.2,0.6-14.1c1.7-4.9,6.2-6.7,9-10.7c1.5-2.1,1.7-4.3,0.3-6.5
				C267.1,129.3,266.5,129.7,266.7,130.1L266.7,130.1z"/>
		</g>
	</g>
	<polygon class="st1" points="266.2,125.6 262.6,130.1 272.2,132.4 268.8,125.6 	"/>
	
		<ellipse transform="matrix(0.3015 -0.9535 0.9535 0.3015 111.9905 325.699)" class="st1" cx="278.3" cy="86.4" rx="42.7" ry="36.3"/>
	<circle class="st7" cx="305.8" cy="77.3" r="5.4"/>
</g>
<g>
	<g>
		
			<radialGradient id="SVGID_2_" cx="507.2964" cy="117.1647" r="161.8977" gradientTransform="matrix(0.9976 6.860801e-02 -6.860801e-02 0.9976 19.4178 -41.6104)" gradientUnits="userSpaceOnUse">
			<stop  offset="0" style="stop-color:#574537"/>
			<stop  offset="0.6843" style="stop-color:#554335"/>
			<stop  offset="1" style="stop-color:#32241D"/>
		</radialGradient>
		<path class="st8" d="M668,280.9c-5.2-3.4,23.1-35.4,23.5-68.7c0.9-61.9-26.4-102.2-77.5-109.4c-26.7-3.7-69.3,15.7-76.2,21.3
			c-6.2,5.1-19.8,37.4-24.4,70.5l5.3-2.8c0,0-8.3,33.1,1.9,56.1c12.5,23.6,38.7,43.8,78.6,52.3c59.2,12.6,88.8-18.6,88.8-18.6
			S673.2,284.3,668,280.9z"/>
		
			<linearGradient id="SVGID_3_" gradientUnits="userSpaceOnUse" x1="359.9141" y1="191.466" x2="359.9141" y2="123.9511" gradientTransform="matrix(-0.9276 0.3737 -0.3737 -0.9276 907.0197 245.2279)">
			<stop  offset="0" style="stop-color:#FCC58A"/>
			<stop  offset="0.3854" style="stop-color:#FAC287"/>
			<stop  offset="0.645" style="stop-color:#F6B97F"/>
			<stop  offset="0.8669" style="stop-color:#EDAA71"/>
			<stop  offset="1" style="stop-color:#E69D65"/>
		</linearGradient>
		<path class="st9" d="M561.8,267.6c-5.9-2-28.9-8.2-37.6-14.4c-5.5-4-24-22.2-24.2-28.8c-0.2-4.5,2.3-12.1,0.2-17.6
			c-2.2-5.5-8.4-12.4-8.4-12.4s-3.4,1.4-3,3.4c0.4,2,4.4,8.8,2.7,8.4c-1.7-0.4-10.2-10.3-13.4-17.5c0,0-5.2,2.6-5.1,6.6
			c0,0-3.4,1.9-3,5.4c0,0-2.4,4.3-1.3,7.5c0,0,4.9,11.3,8.6,14.8c5.8,5.4,6.4,6.1,12,11.7c8.9,8.8,21.2,21.8,34.4,29.6
			c8.8,5.3,36.7,12.3,40.2,11.3C567.3,274.6,564.6,268.5,561.8,267.6z"/>
		
			<linearGradient id="SVGID_4_" gradientUnits="userSpaceOnUse" x1="350.5797" y1="190.9574" x2="350.5797" y2="123.4426" gradientTransform="matrix(0.8677 0.4971 0.4971 -0.8677 296.0654 203.2125)">
			<stop  offset="0" style="stop-color:#FCC58A"/>
			<stop  offset="0.3854" style="stop-color:#FAC287"/>
			<stop  offset="0.645" style="stop-color:#F6B97F"/>
			<stop  offset="0.8669" style="stop-color:#EDAA71"/>
			<stop  offset="1" style="stop-color:#E69D65"/>
		</linearGradient>
		<path class="st10" d="M626.6,268.4c6.2-1.2,29.8-4.1,39.2-9.1c6-3.2,26.8-18.7,28-25.2c0.8-4.4-0.6-12.3,2.3-17.5
			c2.9-5.1,10.1-11.1,10.1-11.1s3.2,1.8,2.5,3.8c-0.6,1.9-5.5,8.1-3.8,7.9c1.7-0.2,11.5-8.8,15.7-15.5c0,0,4.8,3.2,4.2,7.2
			c0,0,3.1,2.3,2.2,5.8c0,0,1.7,4.6,0.3,7.6c0,0-6.4,10.5-10.6,13.5c-6.5,4.6-7.1,5.1-13.5,9.9c-10.1,7.5-24,18.6-38.1,24.6
			c-9.5,4-38,7.1-41.4,5.7C620.2,274.6,623.7,269,626.6,268.4z"/>
		<g>
			
				<radialGradient id="SVGID_5_" cx="431.275" cy="286.8015" r="230.4053" gradientTransform="matrix(0.9976 6.860801e-02 -6.860801e-02 0.9976 19.4178 -41.6104)" gradientUnits="userSpaceOnUse">
				<stop  offset="0.6503" style="stop-color:#DB1E27"/>
				<stop  offset="1" style="stop-color:#4E0F10"/>
			</radialGradient>
			<path class="st11" d="M588.3,299.1c16.9,1.2,30.5-0.4,43.4,39.1c7.9,24.2-3,33.1-3,33.1l-87.3-6c0,0-3.2-4.6-0.1-20.8
				C546.3,317.5,561.7,297.3,588.3,299.1z"/>
			<path class="st12" d="M615,307.1c-9.1-8.4-18.4-7.3-28.6-8c-10.9-0.7-17,1.5-24.8,7.4c4.3,2.8,10.6,6.8,25,7.8
				C599.2,315.1,608.1,310.9,615,307.1z"/>
			
				<radialGradient id="SVGID_6_" cx="561.0398" cy="220.7895" r="113.7575" gradientTransform="matrix(0.9975 6.860115e-02 -6.860801e-02 0.9976 19.3567 -41.6146)" gradientUnits="userSpaceOnUse">
				<stop  offset="0.6503" style="stop-color:#DB1E27"/>
				<stop  offset="1" style="stop-color:#4E0F10"/>
			</radialGradient>
			<path class="st13" d="M543.9,256.1c0,0,79.4,1.8,96.9,3.6c0,0-8.4,32.9-31.6,44.6c-17,8.5-37.2,3.2-48.2-5.7
				C547.2,287.2,543.9,256.1,543.9,256.1z"/>
			
				<linearGradient id="SVGID_7_" gradientUnits="userSpaceOnUse" x1="591.175" y1="290.315" x2="591.175" y2="263.068" gradientTransform="matrix(0.9976 6.860801e-02 -6.860801e-02 0.9976 19.4178 -41.6104)">
				<stop  offset="0" style="stop-color:#FCC58A"/>
				<stop  offset="0.2848" style="stop-color:#F9C287"/>
				<stop  offset="0.4764" style="stop-color:#F0BA7F"/>
				<stop  offset="0.5773" style="stop-color:#E8B277"/>
				<stop  offset="0.908" style="stop-color:#CE985E"/>
			</linearGradient>
			<path class="st14" d="M575.8,250.4c0.5,1.6,4.9,28.4,11.3,30.1c3,0.8,16.1-22.2,20.9-30.3L575.8,250.4z"/>
			<polygon class="st15" points="578.9,264.1 569.6,270.6 567.7,257.3 575.8,250.4 			"/>
			<polygon class="st15" points="599.4,266 608.3,271.8 616.8,248.1 606.2,249.4 			"/>
		</g>
		
			<radialGradient id="SVGID_8_" cx="692.9401" cy="157.1691" r="93.4597" gradientTransform="matrix(0.9603 3.055396e-02 -2.777057e-02 0.9621 -94.0217 -21.3895)" gradientUnits="userSpaceOnUse">
			<stop  offset="0" style="stop-color:#FCC58A"/>
			<stop  offset="0.575" style="stop-color:#FCC289"/>
			<stop  offset="0.962" style="stop-color:#FBB986"/>
			<stop  offset="1" style="stop-color:#FBB885"/>
		</radialGradient>
		<path class="st16" d="M604.7,114.6c19.3,2.2,34.1,15.7,43.8,41.6c6,16,15,63.5-4.1,83.2c-12.1,12.4-29.3,20.2-50.1,18.7
			c-17-1.2-46.1-8.6-56-27.2c-8.9-16.7-3-43.7,4.6-68.4C556.8,117.4,588.7,112.8,604.7,114.6z"/>
		<g>
			<path class="st17" d="M610,137.1c-29.1-11.5-39.1-18.9-49.4-2.1c-1.1,1.8-5.5,1.8-6.5,3.7c1.4,10,20,18.8,27.6,22.7
				c0,0,1.1-12.2,2.6-10.3c28,34.6,40.7,44.5,68.8,48.7C654.9,188.8,639,148.5,610,137.1z"/>
		</g>
		
			<radialGradient id="SVGID_9_" cx="521.3328" cy="124.5143" r="145.5934" gradientTransform="matrix(0.9976 6.860801e-02 -6.860801e-02 0.9976 19.4178 -41.6104)" gradientUnits="userSpaceOnUse">
			<stop  offset="0" style="stop-color:#574537"/>
			<stop  offset="0.6843" style="stop-color:#554335"/>
			<stop  offset="1" style="stop-color:#32241D"/>
		</radialGradient>
		<path class="st18" d="M662.8,244.3c0,0-31.1-31.2-15.7-72.3c0,0,25,4.1,26.5,4.5C667.3,209,664,222.8,662.8,244.3z"/>
		<path class="st19" d="M572.9,228.4c0,0,6.2,4.8,16.1,6.2c13.8,2,24.1-4.5,24.1-4.5"/>
		<path class="st20" d="M549.1,216.5c-0.3,4,2.7,7.4,6.7,7.7c4,0.3,7.4-2.7,7.7-6.7c0.3-4-2.7-7.4-6.7-7.7
			C552.8,209.6,549.4,212.6,549.1,216.5z"/>
		<path class="st20" d="M624.5,221.7c-0.3,4,2.7,7.4,6.7,7.7c4,0.3,7.4-2.7,7.7-6.7c0.3-4-2.7-7.4-6.7-7.7
			C628.2,214.8,624.7,217.8,624.5,221.7z"/>
		<g>
			<path class="st17" d="M636.7,201.2c-0.4,5.7-5.4,10.1-11.1,9.7c-5.7-0.4-10.1-5.4-9.7-11.1c0.4-5.7,5.4-10.1,11.1-9.7
				C632.8,190.5,637.1,195.4,636.7,201.2z"/>
			
				<radialGradient id="SVGID_10_" cx="1688.0065" cy="199.1035" r="9.2053" gradientTransform="matrix(0.9976 6.860801e-02 -6.860801e-02 0.9976 -1043.9769 -114.7401)" gradientUnits="userSpaceOnUse">
				<stop  offset="0" style="stop-color:#333333"/>
				<stop  offset="0.4558" style="stop-color:#313131"/>
				<stop  offset="0.7002" style="stop-color:#292929"/>
				<stop  offset="0.8938" style="stop-color:#1B1B1B"/>
				<stop  offset="1" style="stop-color:#101010"/>
			</radialGradient>
			<path class="st21" d="M635.6,200.3c-0.3,5.1-4.7,8.9-9.8,8.6s-8.9-4.7-8.6-9.8c0.3-5.1,4.7-8.9,9.8-8.6
				C632.1,190.9,635.9,195.3,635.6,200.3z"/>
			<path class="st6" d="M620.1,194.8c-1.2,1.9-0.9,4.2,0.7,5.3c1.6,1,3.9,0.4,5.1-1.5c1.2-1.9,0.9-4.2-0.7-5.3
				C623.6,192.3,621.3,193,620.1,194.8z"/>
		</g>
		<g>
			<path class="st22" d="M638.5,202.3c0,0,3.8,2,5.6,0.7c1.7-1.3,0-3.2,0-3.2s-4.2,1.2-5.6,0.8L638.5,202.3z"/>
			<path class="st22" d="M636.4,194.1c0,0,4.7,0.2,5.9-1.7c1.2-1.9-1.3-3-1.3-3s-3.8,2.9-5.4,3.1L636.4,194.1z"/>
			<path class="st22" d="M633,187.2c0,0,4.2-2.5,4.4-4.8c0.1-2.3-2.7-1.8-2.7-1.8s-1.8,4.5-3.1,5.7L633,187.2z"/>
		</g>
		<g>
			<g>
				<path class="st22" d="M549.5,194.6c0,0-4.1,1.4-5.6-0.2c-1.5-1.5,0.5-3.2,0.5-3.2s3.9,1.8,5.4,1.7L549.5,194.6z"/>
				<path class="st22" d="M552.7,186.7c0,0-4.7-0.5-5.6-2.6c-0.9-2,1.7-2.7,1.7-2.7s3.3,3.4,4.9,3.9L552.7,186.7z"/>
				<path class="st22" d="M557.2,180.4c0,0-3.8-3.1-3.6-5.4c0.2-2.3,2.9-1.4,2.9-1.4s1.1,4.8,2.3,6.1L557.2,180.4z"/>
			</g>
			<g>
				<path class="st17" d="M549.5,195.2c-0.4,5.7,3.9,10.7,9.7,11.1c5.7,0.4,10.7-3.9,11.1-9.7c0.4-5.7-3.9-10.7-9.7-11.1
					C554.9,185.1,549.9,189.4,549.5,195.2z"/>
				
					<radialGradient id="SVGID_11_" cx="-888.7901" cy="199.1035" r="9.2053" gradientTransform="matrix(-0.9976 -6.860801e-02 -6.860801e-02 0.9976 -313.0948 -64.4773)" gradientUnits="userSpaceOnUse">
					<stop  offset="0" style="stop-color:#333333"/>
					<stop  offset="0.4558" style="stop-color:#313131"/>
					<stop  offset="0.7002" style="stop-color:#292929"/>
					<stop  offset="0.8938" style="stop-color:#1B1B1B"/>
					<stop  offset="1" style="stop-color:#101010"/>
				</radialGradient>
				<path class="st23" d="M550.8,194.5c-0.3,5.1,3.5,9.5,8.5,9.8c5.1,0.3,9.5-3.5,9.8-8.6c0.3-5.1-3.5-9.5-8.6-9.8
					C555.5,185.6,551.1,189.4,550.8,194.5z"/>
				<path class="st6" d="M553.6,190.3c-1.2,1.9-0.9,4.2,0.7,5.3c1.6,1,3.9,0.4,5.1-1.5c1.2-1.9,0.9-4.2-0.7-5.3
					C557.1,187.8,554.8,188.4,553.6,190.3z"/>
			</g>
		</g>
		
			<radialGradient id="SVGID_12_" cx="462.1611" cy="157.1975" r="190.7" gradientTransform="matrix(0.9976 6.860801e-02 -6.860801e-02 0.9976 19.4178 -41.6104)" gradientUnits="userSpaceOnUse">
			<stop  offset="0" style="stop-color:#574537"/>
			<stop  offset="0.6843" style="stop-color:#554335"/>
			<stop  offset="1" style="stop-color:#32241D"/>
		</radialGradient>
		<path class="st24" d="M549.5,134.4c1.7,5,22.3,22.2,30.5,23.2c2.2,0.2-5.7-19.2-4.1-17.6c13.4,13.2,37.4,38.6,57.5,49.4
			c31,16.7,38.2,27.5,49.3,25.6c0,0,7.4-68.8-38.5-90.9C622.5,113.6,576,98.4,549.5,134.4z"/>
		<g>
			<path class="st25" d="M541.7,134.1c-1.3,2.3-2.9,4.4-3.1,4.7c-7.8,12.1-13.6,26.7-18,40.3c-0.6-6.7,3-14.1,5.3-20.3
				c2.9-7.9,5.9-16.1,10.1-23.6c0.7-1.2,3.8-7.9,5.8-7.7C544.6,128,543.4,131.2,541.7,134.1z"/>
		</g>
		<path class="st26" d="M571.6,122.3c10.1,7.6,29.6,44.4,64.7,55.5c0,0-19-7.7-38.3-32C578.8,121.5,578.3,118.9,571.6,122.3z"/>
		<polygon class="st27" points="647.6,240.5 643,231.8 648.8,221.9 659.2,220.5 663.8,229.1 658,239.1 		"/>
		<polygon class="st27" points="537.7,232.9 543.4,225 539.1,214.3 528.9,211.6 523.2,219.5 527.6,230.2 		"/>
	</g>
	<g>
		<g>
			<path class="st6" d="M458.2,392c0,0,32.9,12.3,35.2-22.3c0,0,12.3,40.6-40.6,36.1L458.2,392z"/>
			<path class="st28" d="M492.8,388c1.1-1.3,1.2-3.3,1.1-5c-0.1-2.1-0.9-4.2-1.9-6c-3,11.9-10.8,15.9-18.1,16.7
				c0.6,1.2,1.2,2.8,2.3,3.4c1.4,0.9,3.1,1.1,4.7,1.2c1.6,0.1,3.3,0.1,4.5-1.3c1.4-1.6,1.1-4,2.3-5.6
				C489,389.7,491.4,389.7,492.8,388z"/>
		</g>
		<g>
			<path class="st6" d="M451,380c-4.1-7.2,5.2-20.8,3.1-29.6c-1-4.4-5.6-5.9-8.2-10.3c-6.6-11.4-11-15.7-1.5-40.1
				c7.1-18.3,18.1-13.5,23.1-10c-0.8-25.6-1.4-48.2-1.4-48.2L399.7,278c0,0-9.5,56.7-10.7,82c-0.6,13.3-5.6,53.7,37,55.3
				c25.2,1,36.4-11.9,41.4-24.8C460.8,389.9,453.8,385.8,451,380z"/>
			<path class="st28" d="M469.5,340.9c-0.6-13.8-1-32.8-1.6-50.6c-4.8-3.5-16.1-8.9-23.4,9.8c-9.5,24.4-5,28.7,1.5,40.1
				c2.5,4.4,7.1,5.9,8.2,10.3c2.1,8.7-7.3,22.4-3.1,29.6c2.8,5.9,9.9,10,16.7,10.7c4.2-10.6,3.9-21.3,3.9-24.6
				C471.6,358.7,469.9,350.8,469.5,340.9z"/>
			<path class="st29" d="M398.3,286.7l23.9-12.3c0,0-6,9.2-13.1,15.5c-5.5,5-12.4,7.4-12.4,7.4L398.3,286.7z"/>
			<path class="st6" d="M460.2,226.3c-34.6-40.4-59.6-24.2-81.6,6.6c-16.3,22.9-21.5,51.8-10.3,59.5c11.2,7.7,52.2-14.4,52.2-14.4
				S487.7,258.4,460.2,226.3z"/>
			<g>
				<ellipse cx="413.5" cy="245.4" rx="6.9" ry="7.3"/>
				<ellipse class="st30" cx="417.7" cy="243.5" rx="1.4" ry="1.5"/>
			</g>
			<g>
				<ellipse cx="383.3" cy="241.7" rx="5.6" ry="6.7"/>
				<ellipse class="st30" cx="386.3" cy="239.8" rx="1.4" ry="1.4"/>
			</g>
			<path d="M368,276.7c0,0,7.7-4.6,13.5,4.6c0,0-3.1,5.2-10.9,6C370.6,287.3,367.8,285.6,368,276.7z"/>
			<g>
				<path d="M422.4,233.8c-0.5,0-0.9-0.3-1.1-0.8c-3.4-10.6-10.3-9-10.4-9c-0.6,0.2-1.2-0.2-1.4-0.8c-0.2-0.6,0.2-1.2,0.8-1.4
					c0.1,0,9.1-2.1,13.1,10.5c0.2,0.6-0.1,1.2-0.7,1.4C422.7,233.8,422.5,233.8,422.4,233.8z"/>
			</g>
			<g>
				<path d="M383.6,225.8c-0.2,0-0.5-0.1-0.7-0.2c-0.5-0.4-0.6-1.1-0.2-1.6c4.1-5.4,8.2-6.6,10.8-6.7c3-0.1,5,1.2,5,1.3
					c0.5,0.4,0.7,1.1,0.3,1.6c-0.4,0.5-1.1,0.7-1.6,0.3c-0.3-0.2-6.1-3.8-12.8,4.9C384.3,225.6,384,225.8,383.6,225.8z"/>
			</g>
			<path class="st29" d="M465.7,245.6c-3.1-7.6-10.5-13-22.6-10.5c0,0,17.1,8.1,17.5,29.9c0.1,5,3.3,7.7,6.3,7.4
				c0,0,0.1-0.3,0.1-0.9C466.9,266.4,466,247.4,465.7,245.6z"/>
			<path class="st6" d="M480.4,239.6c-10-21.3-40-11.2-40-11.2l2.3,6.9c21.6,0.2,23.1,12.4,24,26.3c0.3,4.5,2,7.6,4.3,9.3
				C467.1,250,475.2,242.3,480.4,239.6z"/>
			<path class="st28" d="M480.5,239.5c-5.2,2.7-13.5,10.4-9.4,31.6c4.8,3.6,11.9,0.6,12.6-10.1C484.2,251.7,482.9,244.7,480.5,239.5
				z"/>
			<path class="st31" d="M369.4,277.3c0,0,6.2-2.1,10.6,3.4c0,0-0.7,1.3-2.1,2C377.9,282.7,376.3,277.3,369.4,277.3z"/>
		</g>
		<g>
			<path class="st6" d="M386.9,328.9c-13.2,0-24.8-3.5-34.7-10.6c-22.3-15.9-27.1-43.9-27.3-45c-0.5-3.3,1.7-6.5,5.1-7
				c3.3-0.5,6.5,1.7,7,5.1c0.1,0.4,4.3,24.3,22.3,37.1c10.5,7.5,24,9.9,39.9,7.1c3.3-0.6,6.5,1.7,7.1,5c0.6,3.3-1.7,6.5-5,7.1
				C396.4,328.5,391.5,328.9,386.9,328.9z"/>
		</g>
		<g>
			<path class="st6" d="M455.8,328.9c-4.6,0-9.5-0.4-14.5-1.3c-3.3-0.6-5.6-3.8-5-7.1c0.6-3.3,3.8-5.6,7.1-5
				c15.9,2.8,29.3,0.4,39.9-7.1c18.1-12.9,22.3-36.8,22.3-37.1c0.6-3.3,3.7-5.6,7-5.1c3.3,0.5,5.6,3.7,5.1,7
				c-0.2,1.2-4.9,29.1-27.3,45C480.6,325.4,469,328.9,455.8,328.9z"/>
		</g>
	</g>
	<g>
		<g>
			<g>
				<g>
					<pattern  id="SVGID_13_" xlink:href="#New_Pattern_2" patternTransform="matrix(0.6739 0 0 0.6739 -1834.3167 -3370.5713)">
					</pattern>
					<path class="st32" d="M285.9,281.5c-3.5,0-6.8-2.3-7.9-5.8c-1.4-4.4,1-9,5.4-10.4c2.8-0.9,65.7-22.5,39-105.1
						c-1.4-4.4,1-9.1,5.4-10.5c4.4-1.4,9.1,1,10.5,5.4c10.6,32.8,9.9,61.3-2,84.6c-16,31.1-46.4,41.1-47.7,41.5
						C287.6,281.4,286.8,281.5,285.9,281.5z"/>
				</g>
				<g>
					<g>
						<g>
							<radialGradient id="SVGID_14_" cx="284.7444" cy="193.8691" r="14.4614" gradientUnits="userSpaceOnUse">
								<stop  offset="0" style="stop-color:#FCC58A"/>
								<stop  offset="0.575" style="stop-color:#FCC289"/>
								<stop  offset="0.962" style="stop-color:#FBB986"/>
								<stop  offset="1" style="stop-color:#FBB885"/>
							</radialGradient>
							<path class="st33" d="M272,188.4c1.9-7.2,9.2-11.5,16.2-9.7c7,1.9,11.2,9.2,9.3,16.4c-1.5,5.7-6.4,9.6-11.9,10.1
								c-0.9,3.1-4.1,4.9-7.1,4.1c-3.1-0.8-5-4.1-4.1-7.3c0.1-0.4,0.3-0.9,0.5-1.2C272,197.5,270.8,192.9,272,188.4z"/>
							<g>
								<path class="st34" d="M282.9,187.3c4.6-2.5,9.3,1.2,9.3,1.2s-4.5-6.5-10.2-3.5c-5.8,3-4.6,10.4-4.6,10.4
									S277.9,190,282.9,187.3z"/>
								<path class="st34" d="M282.8,194.9c-4.2-2.9-5.1-0.7-5.1-0.7s-0.1-4.5,6.1,0.3c3.4,2.7,0.4,5.9,0.4,5.9
									S286.1,197.2,282.8,194.9z"/>
							</g>
						</g>
						<linearGradient id="SVGID_15_" gradientUnits="userSpaceOnUse" x1="259.4756" y1="134.9601" x2="275.2118" y2="193.0568">
							<stop  offset="0" style="stop-color:#574537"/>
							<stop  offset="0.5758" style="stop-color:#433329"/>
							<stop  offset="1" style="stop-color:#32241D"/>
						</linearGradient>
						<path class="st35" d="M253.9,149.2c0,0,19.2,21.2,22.6,43.1c0,0,13.3-16.2-15-56.4L253.9,149.2z"/>
						<radialGradient id="SVGID_16_" cx="215.7596" cy="215.3619" r="73.0281" gradientUnits="userSpaceOnUse">
							<stop  offset="0" style="stop-color:#FCC58A"/>
							<stop  offset="0.575" style="stop-color:#FCC289"/>
							<stop  offset="0.962" style="stop-color:#FBB986"/>
							<stop  offset="1" style="stop-color:#FBB885"/>
						</radialGradient>
						<path class="st36" d="M187.1,288.3c0,0-3.1-1.3-6.7-7c-11.7-18.2-37.7-94.1-37.7-94.1l19.3-35.9l94.5-8.8
							c0,0,15.4,26.7,21.8,51.9c4,15.7,8.9,33.6,10.3,45.8c1,8.9-0.9,14.8-0.9,14.8S256.7,285.1,187.1,288.3z"/>
						<linearGradient id="SVGID_17_" gradientUnits="userSpaceOnUse" x1="136.597" y1="169.3931" x2="152.2719" y2="227.264">
							<stop  offset="0" style="stop-color:#574537"/>
							<stop  offset="0.5758" style="stop-color:#433329"/>
							<stop  offset="1" style="stop-color:#32241D"/>
						</linearGradient>
						<path class="st37" d="M132.6,171.9l21.9,16.7c0,0,11.5,17.9-4,38.8C150.5,227.4,118,198.5,132.6,171.9z"/>
						
							<linearGradient id="SVGID_18_" gradientUnits="userSpaceOnUse" x1="209.2299" y1="212.4671" x2="232.336" y2="297.7731" gradientTransform="matrix(0.9969 7.881732e-02 -7.881732e-02 0.9969 -1.596 -134.2302)">
							<stop  offset="0" style="stop-color:#574537"/>
							<stop  offset="0.5758" style="stop-color:#433329"/>
							<stop  offset="1" style="stop-color:#32241D"/>
						</linearGradient>
						<path class="st38" d="M132.6,172.5c0,0,8.4-54.9,53-68.3c0,0-7.6,11-7.2,14.2c0,0,10.4-11.2,22.5-15.5c16.7-6,41.1,9,47-17.5
							c0,0,10.9,9,7.4,23.2c0,0,5.1-4.9,4.8-12.4c0,0,11.4,17.5-1.3,35.1c0,0,6.7-3.1,8.7-12.1c0,0,1.1,59.5-113.5,69.4L132.6,172.5
							z"/>
						<path class="st39" d="M191.1,110.3c21.3-14.2,28.1-1.3,46.3-7.9c7.9-2.9,9.5-8.4,9.5-8.4c-7.5,25.3-31.5,5.5-55.6,16.3H191.1z
							"/>
						<g>
							
								<radialGradient id="SVGID_19_" cx="243.4344" cy="-369.0477" r="10.1053" gradientTransform="matrix(0.9247 -0.3808 0.3808 0.9247 111.6725 641.9872)" gradientUnits="userSpaceOnUse">
								<stop  offset="0" style="stop-color:#454545"/>
								<stop  offset="1" style="stop-color:#101010"/>
							</radialGradient>
							<path class="st40" d="M204.5,205c1.8,4.5-0.3,9.6-4.8,11.4c-4.5,1.8-9.6-0.3-11.4-4.8c-1.8-4.5,0.3-9.6,4.8-11.4
								C197.5,198.4,202.7,200.6,204.5,205z"/>
							<path class="st6" d="M200.4,203.4c0.6,1.6-0.1,3.4-1.7,4c-1.6,0.6-3.4-0.1-4-1.7c-0.6-1.6,0.1-3.4,1.7-4
								C197.9,201.1,199.7,201.8,200.4,203.4z"/>
						</g>
						<g>
							
								<radialGradient id="SVGID_20_" cx="301.9755" cy="-366.0746" r="10.1053" gradientTransform="matrix(0.9247 -0.3808 0.3808 0.9247 111.6725 641.9872)" gradientUnits="userSpaceOnUse">
								<stop  offset="0" style="stop-color:#454545"/>
								<stop  offset="1" style="stop-color:#101010"/>
							</radialGradient>
							<path class="st41" d="M259.8,185.5c1.8,4.5-0.3,9.6-4.8,11.4c-4.5,1.8-9.6-0.3-11.4-4.8c-1.8-4.5,0.3-9.6,4.8-11.4
								C252.8,178.9,257.9,181,259.8,185.5z"/>
							<path class="st6" d="M255.7,183.9c0.6,1.6-0.1,3.4-1.7,4c-1.6,0.6-3.4-0.1-4-1.7c-0.6-1.6,0.1-3.4,1.7-4
								C253.2,181.5,255,182.3,255.7,183.9z"/>
						</g>
						<path class="st42" d="M196.1,237.9c0,3.5-2.8,6.4-6.2,6.4c-3.5,0-6.4-2.7-6.4-6.2c0-3.5,2.8-6.4,6.2-6.4
							C193.2,231.6,196.1,234.4,196.1,237.9z"/>
						<path class="st42" d="M272.6,212.9c0,3.5-2.8,6.4-6.2,6.4c-3.5,0-6.4-2.7-6.4-6.2c0-3.5,2.8-6.4,6.2-6.4
							C269.7,206.7,272.6,209.4,272.6,212.9z"/>
						<path class="st43" d="M275,168.3c-7.7,1.8-11,0.7-26,5.5c-11.7,3.8-18.2,8.2-30,11.9l0,0c-11.8,3.7-19.6,3.7-31.4,7.4
							c-15.1,4.7-17.2,7.4-24.5,10.3c-0.7,0.3-1.1,1-0.7,2.1c0.6,2,1.3,3.7,1.9,5.4c0.5,1.6,1.7,1,3.1,2.6
							c4.2,5.1,6.3,15.1,13.7,18.4c2.1,0.9,5.6,1.8,8.6,1.2c14.2-3.1,26.4-5.9,27.3-21.7c0.2-3.3,1-6.1,0.8-10.8
							c0.7-3.4,0.9-2.9,4.7-4.3c3.9-1,3.8-1.6,6.3,0.8c2.5,4,4.8,5.9,6.8,8.5c9.7,12.4,21.4,7.8,34.8,2.2c2.8-1.2,5.2-3.9,6.3-5.9
							c4.1-6.9,0.1-16.3,0.7-22.9c0.2-2.1,1.6-2.3,1.1-3.9c-0.5-1.7-0.9-3.5-1.6-5.5C276.5,168.5,275.7,168.2,275,168.3z
							 M215.4,205.9c0.2,5.7-0.5,11.6-4.2,15.9c-2.5,3-6.5,5.5-11.4,7.1c-14.4,4.8-21.7,1.9-25.6-10.3c-1.8-5.8-4.5-10.7-2.1-14.5
							c2.7-4.2,11.1-7,17.3-8.9c6.4-2,16.9-4.2,21.7-1.7C215.2,195.5,215.2,200.6,215.4,205.9z M274.5,187.1
							c3.8,12.2-0.6,18.8-15.1,23.1c-4.9,1.5-9.7,1.7-13.4,0.7c-5.4-1.4-9.4-5.9-12.5-10.7c-2.9-4.4-5.8-8.6-3.6-12.6
							c2.5-4.8,12.4-9,18.8-11c6.2-2,14.6-4.5,19.3-2.6C272.1,175.7,272.7,181.3,274.5,187.1z"/>
						<polygon class="st43" points="162.5,204.8 154.9,222.4 158.9,225 165.9,212 						"/>
						<g>
							<radialGradient id="SVGID_21_" cx="155.7407" cy="234.5068" r="14.1382" gradientUnits="userSpaceOnUse">
								<stop  offset="0" style="stop-color:#FCC58A"/>
								<stop  offset="0.575" style="stop-color:#FCC289"/>
								<stop  offset="0.962" style="stop-color:#FBB986"/>
								<stop  offset="1" style="stop-color:#FBB885"/>
							</radialGradient>
							<path class="st44" d="M162.8,224.6c-5.6-4.9-14.1-4.4-18.8,1.1c-4.8,5.5-4.1,13.9,1.6,18.8c4.5,3.9,10.7,4.4,15.5,1.6
								c2.5,2,6.1,1.8,8.2-0.6c2.1-2.4,1.8-6.2-0.7-8.3c-0.3-0.3-0.7-0.5-1.1-0.8C168,232.1,166.4,227.6,162.8,224.6z"/>
							<g>
								<path class="st34" d="M153.2,229.8c-5.2,0.5-7,6.2-7,6.2s0-7.9,6.5-8.6c6.5-0.7,9.6,6,9.6,6S158.9,229.2,153.2,229.8z"/>
								<path class="st34" d="M157.6,236c1.8-4.8,3.8-3.5,3.8-3.5s-2.5-3.8-4.8,3.7c-1.3,4.1,3,5.1,3,5.1S156.2,239.8,157.6,236z"/>
							</g>
						</g>
						<pattern  id="SVGID_22_" xlink:href="#New_Pattern" patternTransform="matrix(1.1532 0 0 1.1532 2314.2634 509.0836)">
						</pattern>
						<path class="st45" d="M288.3,251.7c0,0,23.5,41,24.2,104.1c0,0-10.4,21.6-101.4,23.3c0,0,2.1,2.3-2-20.6
							c-4.4-24.2-22.2-70.3-22.2-70.3S264.7,281.6,288.3,251.7z"/>
						<path class="st6" d="M256.8,272.2c-6,2.3-13.1,4.7-13.1,4.7s4.8,1.5,9.5,4.4c4.7,2.8,8.1,6.4,8.1,6.4s7.1-9.5,5.2-19.7
							C266.5,268,262.2,270.1,256.8,272.2z"/>
					</g>
				</g>
				<g>
					<pattern  id="SVGID_23_" xlink:href="#New_Pattern_2" patternTransform="matrix(0.6739 0 0 0.6739 -1834.3167 -3370.5713)">
					</pattern>
					<path class="st46" d="M171.5,315.2c-18,0-41.9-3.6-61.3-19.2c-21.8-17.5-32.5-46.1-32-84.6c0.1-4.6,3.8-8.4,8.3-8.4
						c0,0,0.1,0,0.1,0c4.6,0,8.3,4,8.2,8.6c-0.5,33.1,8.2,57.1,25.8,71.3c29,23.3,73.1,13.5,73.5,13.4c4.5-1,9,1.8,10,6.2
						c1,4.5-1.7,9-6.2,10C197,312.8,186.2,315.2,171.5,315.2z"/>
				</g>
			</g>
			<path class="st47" d="M249.8,228.3c-6.5,16-18.8,11.5-25.9,9.1c-7.1-2.4-12,4.2-3.7,8.6c13.8,7.3,32.9,3.1,37.6-12.5
				C260.7,224.3,252.7,221.2,249.8,228.3z"/>
		</g>
		<g>
			<path class="st48" d="M104.3,204.4c0,0-4.1,7.9-28.3,9.3c0,0-13.1-6.3-11.5-30.8c0,0,3.7-2.6,7.6-4.3c3.6-1.5,9.2-1.8,9.2-1.8
				s-1.4-5.1-1.8-9.9c-0.5-6.7-0.1-10.4-0.1-10.4s6.5-1.2,10.7-0.6c0,0,1.8,17.7,6.3,28.3c0,0,0.5-5.3,1.1-11.2c0,0,5.9-1.8,9.9,0.7
				C107.4,173.8,106.9,190.2,104.3,204.4z"/>
		</g>
		<g>
			<path class="st48" d="M311.6,159.3c0,0,7.5,4.7,29.2-6.1c0,0,8.2-12.1-5.5-32.4c0,0-4.5-0.4-8.7,0.1c-3.8,0.5-8.8,3.1-8.8,3.1
				s-1.4-5.2-3.4-9.4c-2.9-6-5.2-9-5.2-9s-6.3,2.2-9.5,4.8c0,0,7.3,16.2,8.8,27.7c0,0-3.1-4.3-6.6-9.1c0,0-6,1.4-8.2,5.6
				C293.6,134.4,302.3,148.3,311.6,159.3z"/>
		</g>
	</g>
</g>
<g>
	<g>
		<path class="st1" d="M105.9-7c-9.4,13.1,4.7,27.8,2.3,41.7C106,47.3,94.9,56.1,93.4,69c-0.1,1,1.4,1,1.5,0
			c1.4-12.7,12.4-21.5,14.6-33.9C112,21.4,98,6.6,107.2-6.2C107.7-7,106.4-7.7,105.9-7L105.9-7z"/>
	</g>
</g>
<g>
	<g>
		<path class="st1" d="M662.5-31.7c-5.3,11.4-4.5,22.6,0,34.1c5.6,14.3,8.9,28.1,7.5,43.6c-0.1,1,1.4,1,1.5,0
			c1.1-12.6-0.4-25.3-4.9-37.2c-2.2-5.9-5-11.7-6.1-17.9c-1.2-7.5,0-15,3.2-21.8C664.2-31.8,662.9-32.6,662.5-31.7L662.5-31.7z"/>
	</g>
</g>
<g>
	<g>
		<path class="st1" d="M68.7-39.6c-5.5,12-11.3,24.9-8.9,38.4c1,5.6,3.3,10.4,7,14.7c2.8,3.2,4.1,3.5,1.8,9.6
			c-0.6,1.5-1.6,3-2.5,4.4c-2.4,3.8-5.2,7.1-8.5,10.1c-0.7,0.7,0.4,1.7,1.1,1.1c4.8-4.5,9.5-10.2,11.9-16.4
			c2.2-5.7-1.5-7.9-4.6-12.2c-10.9-15-2.8-34.2,4-49C70.4-39.7,69.1-40.5,68.7-39.6L68.7-39.6z"/>
	</g>
</g>
<g>
	<g>
		<path class="st1" d="M17.4-23.3C10.8-13,9.7-0.1,14.9,11c1.6,3.4,3.6,6.5,5,10c2,4.9,2.2,10,1.4,15.1c-1.1,7.3-3.8,14.2-5.2,21.4
			c-2.2,11-2.6,23.6,4.4,33c2.1,2.9,5.2,5.2,5.8,8.8c0.5,3.1-0.9,6-2.4,8.6c-2.3,4-5.4,7.6-7.2,11.9c-1.9,4.8-0.5,7.5,2.1,11.6
			c4.3,6.8-4.2,13.5-5.5,20.2c-0.2,0.9,1.3,1.3,1.4,0.4c1.1-5.5,5.7-9.5,6.8-14.9c1-5.3-4.3-7.8-4.3-12.8c0.1-9.2,11.5-15,10.6-24.6
			c-0.5-5.1-5.3-8.3-7.7-12.4c-3.7-6.2-4.4-13.6-3.9-20.7c0.9-13.5,8.7-26.9,6.6-40.6c-1.2-7.9-6.9-14.1-8.9-21.8
			c-2.4-9.3-0.5-19,4.6-27C19.2-23.4,17.9-24.1,17.4-23.3L17.4-23.3z"/>
	</g>
</g>
<g>
	<g>
		<path class="st1" d="M774.4-78.3c-6.6,10.3-7.6,23.2-2.4,34.3c1.6,3.4,3.6,6.5,5,10c2,4.9,2.2,10,1.4,15.1
			c-1.1,7.3-3.8,14.2-5.2,21.4c-2.2,11-2.6,23.6,4.4,33c2.1,2.9,5.2,5.2,5.8,8.8c0.5,3.1-0.9,6-2.4,8.6c-2.3,4-5.4,7.6-7.2,11.9
			c-1.9,4.8-0.5,7.5,2.1,11.6c4.3,6.8-4.2,13.5-5.5,20.2c-0.2,0.9,1.3,1.3,1.4,0.4c1.1-5.5,5.7-9.5,6.8-14.9c1-5.3-4.3-7.8-4.3-12.8
			c0.1-9.2,11.5-15,10.6-24.6c-0.5-5.1-5.3-8.3-7.7-12.4c-3.7-6.2-4.4-13.6-3.9-20.7c0.9-13.5,8.7-26.9,6.6-40.6
			c-1.2-7.9-6.9-14.1-8.9-21.8c-2.4-9.3-0.5-19,4.6-27C776.2-78.4,774.9-79.1,774.4-78.3L774.4-78.3z"/>
	</g>
</g>
<g>
	<g>
		<path class="st1" d="M736.9-36.1c6.1,10.7-5.4,21.2-3.9,32.2c1.6,11.5,16.6,18.9,12.6,31.4c-0.3,0.9,1.2,1.3,1.4,0.4
			c3.9-12.5-9.7-19.7-12.4-30.6c-2.8-11.8,10.1-22.5,3.4-34.1C737.7-37.7,736.4-36.9,736.9-36.1L736.9-36.1z"/>
	</g>
</g>
<g>
	<g>
		<path class="st1" d="M781.6,129.4c1,5.4,1.9,10.8,2.1,16.2c0.2,5.3-0.7,10.3-1.6,15.5c-1,6.6-1.1,13.1,3.4,18.4
			c0.6,0.7,1.7-0.3,1.1-1.1c-6.3-7.5-2.5-16.9-1.6-25.5c0.8-8-0.6-16-2-23.9C782.9,128,781.5,128.4,781.6,129.4L781.6,129.4z"/>
	</g>
</g>
</svg>
