<?xml version="1.0" encoding="utf-8"?>
<!-- Generator: Adobe Illustrator 22.0.1, SVG Export Plug-In . SVG Version: 6.00 Build 0)  -->
<svg version="1.1" id="Layer_1" xmlns="http://www.w3.org/2000/svg" xmlns:xlink="http://www.w3.org/1999/xlink" x="0px" y="0px"
	 width="500px" height="500px" viewBox="0 0 500 500" style="enable-background:new 0 0 500 500;" xml:space="preserve">
<style type="text/css">
	.st0{fill:#0099E5;}
	.st1{fill:#FFFFFF;}
</style>
<rect x="-4" y="-3" class="st0" width="506" height="505"/>
<g>
	<path class="st1" d="M373.3,239.1l35.4-46.4c3.2-3,3.2-7.9,0-10.9c-3.2-3-7.5-3-10.7,0c-1.1,0-1.1,1-2.1,1l-34.3,47.4
		c-11.8-11.8-25.8-20.7-39.7-28.6l27.9-63.1c2.1-3.9,0-8.9-4.3-10.9c-4.3-2-8.6,0-10.7,3.9l-27.9,63.1c-15-6.9-32.2-9.9-49.4-10.9
		v-74c0-3.9-4.3-7.9-7.5-7.9c-4.3,0-7.5,3.9-7.5,7.9v74c-15,1-29,3.9-42.9,8.9l-27.9-60.2c-2.1-4.9-7.5-5.9-10.7-4.9
		c-4.3,2-6.4,6.9-4.3,10.9l26.8,60.2c-16.1,7.9-31.1,17.8-44,30.6L106,184.9c-3.2-3-8.6-3.9-10.7-2s-4.3,7.9-2.1,10.9l34.3,46.4
		c-15,14.8-27.9,32.6-38.6,50.3c39.7,66.1,96.6,107.5,161,107.5s121.3-41.4,161-106.6c-9.7-17.8-23.6-34.5-37.6-49.3V239.1z
		 M249.9,383.2c-54.7,0-104.1-32.6-141.7-91.8c37.6-59.2,86.9-91.8,141.7-91.8s104.1,32.6,141.7,91.8
		C354,350.6,303.5,383.2,249.9,383.2z"/>
	<path class="st1" d="M249.9,351.6c-37.6,0-67.6-28.6-67.6-64.1s30.1-64.1,67.6-64.1s67.6,28.6,67.6,64.1S287.4,351.6,249.9,351.6z
		 M249.9,238.2c-27.9,0-51.5,21.7-51.5,48.3s23.6,48.3,51.5,48.3s51.5-21.7,51.5-48.3S277.8,238.2,249.9,238.2z"/>
</g>
</svg>
