<?xml version="1.0" encoding="utf-8"?>
<!-- Generator: Adobe Illustrator 22.0.1, SVG Export Plug-In . SVG Version: 6.00 Build 0)  -->
<svg version="1.1" id="Layer_1" xmlns="http://www.w3.org/2000/svg" xmlns:xlink="http://www.w3.org/1999/xlink" x="0px" y="0px"
	 width="800px" height="350px" viewBox="0 0 800 350" style="enable-background:new 0 0 800 350;" xml:space="preserve">
<style type="text/css">
	.st0{fill:none;}
	.st1{fill:#29ABE2;}
	.st2{opacity:0.4;}
	.st3{opacity:0.12;}
	.st4{fill:url(#SVGID_1_);stroke:#29ABE2;stroke-miterlimit:10;}
	.st5{fill:#FFFFFF;}
	.st6{fill:#7C4119;}
	.st7{fill:#E6E6E6;}
	.st8{fill:#CCCCCC;}
	.st9{fill:#666666;}
	.st10{opacity:0.14;}
	.st11{fill:url(#SVGID_2_);}
	.st12{fill:url(#SVGID_3_);}
	.st13{fill:url(#SVGID_4_);}
	.st14{fill:url(#SVGID_5_);}
	.st15{fill:#661412;}
	.st16{fill:url(#SVGID_6_);}
	.st17{fill:url(#SVGID_7_);}
	.st18{fill:#721514;}
	.st19{fill:url(#SVGID_8_);}
	.st20{fill:#CE985E;}
	.st21{fill:url(#SVGID_9_);}
	.st22{fill:none;stroke:#BD4747;stroke-width:2.8286;stroke-linecap:round;stroke-miterlimit:10;}
	.st23{fill:#FFA370;}
	.st24{fill:url(#SVGID_10_);}
	.st25{fill:#403228;}
	.st26{fill:url(#SVGID_11_);}
	.st27{fill:url(#SVGID_12_);}
	.st28{fill:#7D634F;}
	.st29{opacity:0.4;fill:#7D634F;}
	.st30{fill:#7D1920;}
	.st31{fill:none;stroke:url(#SVGID_13_);stroke-width:13;stroke-miterlimit:10;}
	.st32{fill:url(#SVGID_14_);}
	.st33{fill:url(#SVGID_15_);}
	.st34{fill:#856848;}
	.st35{fill:url(#SVGID_16_);}
	.st36{fill:url(#SVGID_17_);}
	.st37{fill:url(#SVGID_18_);}
	.st38{fill:url(#SVGID_19_);}
	.st39{fill:#836F67;}
	.st40{fill:#FAB383;}
	.st41{fill:#1A1A1A;}
	.st42{fill:url(#SVGID_20_);}
	.st43{fill:url(#SVGID_21_);}
	.st44{fill:none;stroke:#000000;stroke-width:3;stroke-linecap:round;stroke-miterlimit:10;}
	.st45{fill:none;stroke:#856848;stroke-width:3;stroke-linecap:round;stroke-miterlimit:10;}
	.st46{fill:none;stroke:url(#SVGID_22_);stroke-width:13;stroke-miterlimit:10;}
	.st47{fill:url(#SVGID_23_);}
	.st48{fill:url(#SVGID_24_);}
	.st49{fill:#4B943D;}
	.st50{fill:#05A8DE;}
	.st51{fill:#FFCB0B;}
	.st52{fill:#EC2C28;}
</style>
<pattern  width="242" height="242" patternUnits="userSpaceOnUse" id="New_Pattern" viewBox="0 -242 242 242" style="overflow:visible;">
	<g>
		<rect y="-242" class="st0" width="242" height="242"/>
		<rect y="-242" class="st1" width="242" height="242"/>
		<rect y="-242" class="st2" width="11" height="242"/>
		<rect x="22" y="-242" class="st2" width="11" height="242"/>
		<rect x="44" y="-242" class="st2" width="11" height="242"/>
		<rect x="66" y="-242" class="st2" width="11" height="242"/>
		<rect x="88" y="-242" class="st2" width="11" height="242"/>
		<rect x="110" y="-242" class="st2" width="11" height="242"/>
		<rect x="132" y="-242" class="st2" width="11" height="242"/>
		<rect x="154" y="-242" class="st2" width="11" height="242"/>
		<rect x="176" y="-242" class="st2" width="11" height="242"/>
		<rect x="198" y="-242" class="st2" width="11" height="242"/>
		<rect x="220" y="-242" class="st2" width="11" height="242"/>
		<rect y="-242" class="st2" width="242" height="11"/>
		<rect y="-220" class="st2" width="242" height="11"/>
		<rect y="-198" class="st2" width="242" height="11"/>
		<rect y="-176" class="st2" width="242" height="11"/>
		<rect y="-154" class="st2" width="242" height="11"/>
		<rect y="-132" class="st2" width="242" height="11"/>
		<rect y="-110" class="st2" width="242" height="11"/>
		<rect y="-88" class="st2" width="242" height="11"/>
		<rect y="-66" class="st2" width="242" height="11"/>
		<rect y="-44" class="st2" width="242" height="11"/>
		<rect y="-22" class="st2" width="242" height="11"/>
	</g>
</pattern>
<pattern  width="242" height="242" patternUnits="userSpaceOnUse" id="New_Pattern_2" viewBox="241.7 -242 242 242" style="overflow:visible;">
	<g>
		<rect x="241.7" y="-242" class="st0" width="242" height="242"/>
		<g>
			<rect x="241.7" y="-242" class="st1" width="242" height="242"/>
			<rect x="472.7" y="-242" class="st2" width="11" height="242"/>
			<rect x="450.7" y="-242" class="st2" width="11" height="242"/>
			<rect x="428.7" y="-242" class="st2" width="11" height="242"/>
			<rect x="406.7" y="-242" class="st2" width="11" height="242"/>
			<rect x="384.7" y="-242" class="st2" width="11" height="242"/>
			<rect x="362.7" y="-242" class="st2" width="11" height="242"/>
			<rect x="340.7" y="-242" class="st2" width="11" height="242"/>
			<rect x="318.7" y="-242" class="st2" width="11" height="242"/>
			<rect x="296.7" y="-242" class="st2" width="11" height="242"/>
			<rect x="274.7" y="-242" class="st2" width="11" height="242"/>
			<rect x="252.7" y="-242" class="st2" width="11" height="242"/>
			<rect x="241.7" y="-11" class="st2" width="242" height="11"/>
			<rect x="241.7" y="-33" class="st2" width="242" height="11"/>
			<rect x="241.7" y="-55" class="st2" width="242" height="11"/>
			<rect x="241.7" y="-77" class="st2" width="242" height="11"/>
			<rect x="241.7" y="-99" class="st2" width="242" height="11"/>
			<rect x="241.7" y="-121" class="st2" width="242" height="11"/>
			<rect x="241.7" y="-143" class="st2" width="242" height="11"/>
			<rect x="241.7" y="-165" class="st2" width="242" height="11"/>
			<rect x="241.7" y="-187" class="st2" width="242" height="11"/>
			<rect x="241.7" y="-209" class="st2" width="242" height="11"/>
			<rect x="241.7" y="-231" class="st2" width="242" height="11"/>
			<rect x="242" y="-242" class="st3" width="242" height="242"/>
		</g>
		<g>
			<rect y="-242" class="st3" width="242" height="242"/>
		</g>
	</g>
</pattern>
<radialGradient id="SVGID_1_" cx="400.5" cy="404.5" r="446.1121" gradientUnits="userSpaceOnUse">
	<stop  offset="0" style="stop-color:#CCEAF9"/>
	<stop  offset="1" style="stop-color:#007AB7"/>
</radialGradient>
<rect x="-4.5" y="-3.5" class="st4" width="810" height="355"/>
<g>
	<g>
		<path class="st5" d="M72.5,386c0,0-32.9,12.3-35.2-22.3c0,0-12.3,40.6,40.6,36.1L72.5,386z"/>
		<path class="st6" d="M37.9,382c-1.1-1.3-1.2-3.3-1.1-5c0.1-2.1,0.9-4.2,1.9-6c3,11.9,10.8,15.9,18.1,16.7
			c-0.6,1.2-1.2,2.8-2.3,3.4c-1.4,0.9-3.1,1.1-4.7,1.2c-1.6,0.1-3.3,0.1-4.5-1.3c-1.4-1.6-1.1-4-2.3-5.6
			C41.7,383.7,39.2,383.7,37.9,382z"/>
	</g>
	<g>
		<path class="st5" d="M79.6,374c4.1-7.2-5.2-20.8-3.1-29.6c1-4.4,5.6-5.9,8.2-10.3c6.6-11.4,11-15.7,1.5-40.1
			c-7.1-18.3-18.1-13.5-23.1-10c0.8-25.6,1.4-48.2,1.4-48.2L131,272c0,0,9.5,56.7,10.7,82c0.6,13.3,5.6,53.7-37,55.3
			c-25.2,1-36.4-11.9-41.4-24.8C69.9,383.9,76.8,379.8,79.6,374z"/>
		<path class="st6" d="M61.2,334.9c0.6-13.8,1-32.8,1.6-50.6c4.8-3.5,16.1-8.9,23.4,9.8c9.5,24.4,5,28.7-1.5,40.1
			c-2.5,4.4-7.1,5.9-8.2,10.3c-2.1,8.7,7.3,22.4,3.1,29.6c-2.8,5.9-9.9,10-16.7,10.7c-4.2-10.6-3.9-21.3-3.9-24.6
			C59.1,352.7,60.8,344.8,61.2,334.9z"/>
		<path class="st7" d="M132.4,280.7l-23.9-12.3c0,0,6,9.2,13.1,15.5c5.5,5,12.4,7.4,12.4,7.4L132.4,280.7z"/>
		<path class="st5" d="M70.5,220.3c34.6-40.4,59.6-24.2,81.6,6.6c16.3,22.9,21.5,51.8,10.3,59.5c-11.2,7.7-52.2-14.4-52.2-14.4
			S43,252.4,70.5,220.3z"/>
		<g>
			<ellipse cx="117.1" cy="239.4" rx="6.9" ry="7.3"/>
			<ellipse class="st8" cx="113" cy="237.5" rx="1.4" ry="1.5"/>
		</g>
		<g>
			<ellipse cx="147.3" cy="235.7" rx="5.6" ry="6.7"/>
			<ellipse class="st8" cx="144.4" cy="233.8" rx="1.4" ry="1.4"/>
		</g>
		<path d="M162.6,270.7c0,0-7.7-4.6-13.5,4.6c0,0,3.1,5.2,10.9,6C160.1,281.3,162.9,279.6,162.6,270.7z"/>
		<g>
			<path d="M108.3,227.8c0.5,0,0.9-0.3,1.1-0.8c3.4-10.6,10.3-9,10.4-9c0.6,0.2,1.2-0.2,1.4-0.8c0.2-0.6-0.2-1.2-0.8-1.4
				c-0.1,0-9.1-2.1-13.1,10.5c-0.2,0.6,0.1,1.2,0.7,1.4C108,227.8,108.1,227.8,108.3,227.8z"/>
		</g>
		<g>
			<path d="M147.1,219.8c0.2,0,0.5-0.1,0.7-0.2c0.5-0.4,0.6-1.1,0.2-1.6c-4.1-5.4-8.2-6.6-10.8-6.7c-3-0.1-5,1.2-5,1.3
				c-0.5,0.4-0.7,1.1-0.3,1.6c0.4,0.5,1.1,0.7,1.6,0.3c0.3-0.2,6.1-3.8,12.8,4.9C146.4,219.6,146.7,219.8,147.1,219.8z"/>
		</g>
		<path class="st7" d="M65,239.6c3.1-7.6,10.5-13,22.6-10.5c0,0-17.1,8.1-17.5,29.9c-0.1,5-3.3,7.7-6.3,7.4c0,0-0.1-0.3-0.1-0.9
			C63.8,260.4,64.6,241.4,65,239.6z"/>
		<path class="st5" d="M50.3,233.6c10-21.3,40-11.2,40-11.2l-2.3,6.9c-21.6,0.2-23.1,12.4-24,26.3c-0.3,4.5-2,7.6-4.3,9.3
			C63.6,244,55.5,236.3,50.3,233.6z"/>
		<path class="st6" d="M50.2,233.5c5.2,2.7,13.5,10.4,9.4,31.6c-4.8,3.6-11.9,0.6-12.6-10.1C46.5,245.7,47.8,238.7,50.2,233.5z"/>
		<path class="st9" d="M161.3,271.3c0,0-6.2-2.1-10.6,3.4c0,0,0.7,1.3,2.1,2C152.8,276.7,154.4,271.3,161.3,271.3z"/>
	</g>
	<g>
		<path class="st5" d="M143.8,322.9c13.2,0,24.8-3.5,34.7-10.6c22.3-15.9,27.1-43.9,27.3-45c0.5-3.3-1.7-6.5-5.1-7
			c-3.3-0.5-6.5,1.7-7,5.1c-0.1,0.4-4.3,24.3-22.3,37.1c-10.5,7.5-24,9.9-39.9,7.1c-3.3-0.6-6.5,1.7-7.1,5c-0.6,3.3,1.7,6.5,5,7.1
			C134.3,322.5,139.1,322.9,143.8,322.9z"/>
	</g>
	<g>
		<path class="st5" d="M15.3,362.8c0,4.6,0.4,9.5,1.3,14.5c0.6,3.3,3.8,5.6,7.1,5c3.3-0.6,5.6-3.8,5-7.1
			c-2.8-15.9-0.4-29.3,7.1-39.9c12.9-18.1,36.8-22.3,37.1-22.3c3.3-0.6,5.6-3.7,5.1-7c-0.5-3.3-3.7-5.6-7-5.1
			c-1.2,0.2-29.1,4.9-45,27.3C18.8,338,15.3,349.6,15.3,362.8z"/>
	</g>
</g>
<g class="st10">
	<g>
		<path class="st5" d="M169.2,358.2c-2.3,0-4.6-0.9-6.4-2.6c-3.5-3.5-3.6-9.3,0-12.8l97.8-98.2c3.5-3.5,9.3-3.5,12.8,0
			c3.5,3.5,3.6,9.3,0,12.8l-97.8,98.2C173.8,357.3,171.5,358.2,169.2,358.2z"/>
	</g>
	<g>
		<path class="st5" d="M414,113.3c-2.3,0-4.6-0.9-6.4-2.6c-3.5-3.5-3.6-9.3,0-12.8l97.8-98.2c3.5-3.5,9.3-3.5,12.8,0
			c3.5,3.5,3.6,9.3,0,12.8l-97.8,98.2C418.7,112.4,416.3,113.3,414,113.3z"/>
	</g>
	<g>
		<path class="st5" d="M98.1,186.8c-5,0-9-4-9-9c0-5,4-9.1,9-9.1l138.6-0.3c0,0,0,0,0,0c5,0,9,4,9,9c0,5-4,9.1-9,9.1L98.1,186.8
			C98.1,186.8,98.1,186.8,98.1,186.8z"/>
	</g>
	<g>
		<path class="st5" d="M444.3,186.8c-5,0-9-4-9-9c0-5,4-9.1,9-9.1l138.6-0.3c0,0,0,0,0,0c5,0,9,4,9,9c0,5-4,9.1-9,9.1L444.3,186.8
			C444.4,186.8,444.4,186.8,444.3,186.8z"/>
	</g>
	<g>
		<path class="st5" d="M267.2,113.1c-2.3,0-4.6-0.9-6.4-2.6l-98.2-97.8c-3.5-3.5-3.6-9.3,0-12.8c3.5-3.5,9.3-3.5,12.8,0l98.2,97.8
			c3.5,3.5,3.6,9.3,0,12.8C271.8,112.3,269.5,113.1,267.2,113.1z"/>
	</g>
	<g>
		<path class="st5" d="M512,358c-2.3,0-4.6-0.9-6.4-2.6l-98.2-97.8c-3.5-3.5-3.6-9.3,0-12.8c3.5-3.5,9.3-3.5,12.8,0l98.2,97.8
			c3.5,3.5,3.6,9.3,0,12.8C516.7,357.1,514.4,358,512,358z"/>
	</g>
	<g>
		<path class="st5" d="M340.6,82.8c-5,0-9-4-9-9l-0.3-138.6c0-5,4-9.1,9-9.1c0,0,0,0,0,0c5,0,9,4,9,9l0.3,138.6
			C349.7,78.8,345.7,82.8,340.6,82.8C340.7,82.8,340.6,82.8,340.6,82.8z"/>
	</g>
	<g>
		<path class="st5" d="M340.6,429.1c-5,0-9-4-9-9l-0.3-138.6c0-5,4-9.1,9-9.1c0,0,0,0,0,0c5,0,9,4,9,9l0.3,138.6
			C349.7,425.1,345.7,429.1,340.6,429.1C340.7,429.1,340.6,429.1,340.6,429.1z"/>
	</g>
</g>
<g>
	
		<radialGradient id="SVGID_2_" cx="646.6753" cy="196.8983" r="114.4851" gradientTransform="matrix(0.9976 6.860801e-02 -6.860801e-02 0.9976 19.4178 -41.6104)" gradientUnits="userSpaceOnUse">
		<stop  offset="0" style="stop-color:#574537"/>
		<stop  offset="0.6843" style="stop-color:#554335"/>
		<stop  offset="1" style="stop-color:#32241D"/>
	</radialGradient>
	<path class="st11" d="M757.5,320c-3.7-2.4,16.3-25,16.6-48.6c0.6-43.7-18.6-72.3-54.8-77.4c-18.9-2.6-49,11.1-53.9,15.1
		c-4.4,3.6-14,26.4-17.3,49.8l3.7-1.9c0,0-5.9,23.4,1.3,39.7c8.9,16.7,27.3,31,55.5,37c41.9,8.9,62.8-13.2,62.8-13.2
		S761.2,322.4,757.5,320z"/>
	
		<linearGradient id="SVGID_3_" gradientUnits="userSpaceOnUse" x1="254.9315" y1="82.1649" x2="254.9315" y2="34.4222" gradientTransform="matrix(-0.9276 0.3737 -0.3737 -0.9276 907.0197 245.2279)">
		<stop  offset="0" style="stop-color:#FCC58A"/>
		<stop  offset="0.3854" style="stop-color:#FAC287"/>
		<stop  offset="0.645" style="stop-color:#F6B97F"/>
		<stop  offset="0.8669" style="stop-color:#EDAA71"/>
		<stop  offset="1" style="stop-color:#E69D65"/>
	</linearGradient>
	<path class="st12" d="M682.4,310.6c-4.2-1.4-20.5-5.8-26.6-10.2c-3.9-2.8-17-15.7-17.1-20.4c-0.1-3.2,1.6-8.6,0.1-12.5
		c-1.5-3.9-6-8.8-6-8.8s-2.4,1-2.1,2.4c0.3,1.4,3.1,6.2,1.9,5.9c-1.2-0.3-7.2-7.3-9.5-12.4c0,0-3.7,1.8-3.6,4.7c0,0-2.4,1.3-2.1,3.9
		c0,0-1.7,3-0.9,5.3c0,0,3.4,8,6.1,10.5c4.1,3.8,4.5,4.3,8.5,8.2c6.3,6.2,15,15.4,24.3,21c6.2,3.7,26,8.7,28.4,8
		C686.3,315.5,684.4,311.2,682.4,310.6z"/>
	
		<linearGradient id="SVGID_4_" gradientUnits="userSpaceOnUse" x1="450.8152" y1="180.0271" x2="450.8152" y2="132.2844" gradientTransform="matrix(0.8677 0.4971 0.4971 -0.8677 296.0654 203.2125)">
		<stop  offset="0" style="stop-color:#FCC58A"/>
		<stop  offset="0.3854" style="stop-color:#FAC287"/>
		<stop  offset="0.645" style="stop-color:#F6B97F"/>
		<stop  offset="0.8669" style="stop-color:#EDAA71"/>
		<stop  offset="1" style="stop-color:#E69D65"/>
	</linearGradient>
	<path class="st13" d="M728.2,311.2c4.4-0.8,21.1-2.9,27.7-6.4c4.3-2.3,19-13.3,19.8-17.8c0.5-3.1-0.5-8.7,1.6-12.4
		c2-3.6,7.1-7.9,7.1-7.9s2.2,1.3,1.8,2.7c-0.5,1.4-3.9,5.7-2.7,5.6c1.2-0.1,8.1-6.2,11.1-10.9c0,0,3.4,2.3,3,5.1
		c0,0,2.2,1.6,1.6,4.1c0,0,1.2,3.2,0.2,5.4c0,0-4.5,7.4-7.5,9.5c-4.6,3.2-5,3.6-9.6,7c-7.1,5.3-17,13.2-27,17.4
		c-6.7,2.8-26.9,5-29.3,4C723.7,315.5,726.2,311.6,728.2,311.2z"/>
	<g>
		
			<radialGradient id="SVGID_5_" cx="592.9172" cy="316.856" r="162.9298" gradientTransform="matrix(0.9976 6.860801e-02 -6.860801e-02 0.9976 19.4178 -41.6104)" gradientUnits="userSpaceOnUse">
			<stop  offset="0.6503" style="stop-color:#DB1E27"/>
			<stop  offset="1" style="stop-color:#4E0F10"/>
		</radialGradient>
		<path class="st14" d="M701.1,332.8c12,0.8,21.5-0.3,30.7,27.6c5.6,17.1-2.1,23.4-2.1,23.4l-61.7-4.2c0,0-2.2-3.2-0.1-14.7
			C671.4,345.9,682.3,331.5,701.1,332.8z"/>
		<path class="st15" d="M720,338.5c-6.4-5.9-13-5.2-20.2-5.7c-7.7-0.5-12,1-17.5,5.2c3,2,7.5,4.8,17.6,5.5
			C708.8,344.2,715.2,341.2,720,338.5z"/>
		
			<radialGradient id="SVGID_6_" cx="684.7264" cy="270.1761" r="80.443" gradientTransform="matrix(0.9975 6.860115e-02 -6.860801e-02 0.9976 19.3567 -41.6146)" gradientUnits="userSpaceOnUse">
			<stop  offset="0.6503" style="stop-color:#DB1E27"/>
			<stop  offset="1" style="stop-color:#4E0F10"/>
		</radialGradient>
		<path class="st16" d="M669.7,302.4c0,0,56.1,1.3,68.5,2.6c0,0-5.9,23.2-22.3,31.5c-12,6-26.3,2.3-34.1-4.1
			C672.1,324.5,669.7,302.4,669.7,302.4z"/>
		
			<linearGradient id="SVGID_7_" gradientUnits="userSpaceOnUse" x1="705.9896" y1="319.3406" x2="705.9896" y2="300.073" gradientTransform="matrix(0.9976 6.860801e-02 -6.860801e-02 0.9976 19.4178 -41.6104)">
			<stop  offset="0" style="stop-color:#FCC58A"/>
			<stop  offset="0.2848" style="stop-color:#F9C287"/>
			<stop  offset="0.4764" style="stop-color:#F0BA7F"/>
			<stop  offset="0.5773" style="stop-color:#E8B277"/>
			<stop  offset="0.908" style="stop-color:#CE985E"/>
		</linearGradient>
		<path class="st17" d="M692.3,298.4c0.3,1.2,3.5,20.1,8,21.3c2.1,0.6,11.4-15.7,14.8-21.4L692.3,298.4z"/>
		<polygon class="st18" points="694.5,308.1 687.9,312.7 686.5,303.3 692.3,298.4 		"/>
		<polygon class="st18" points="709,309.4 715.3,313.6 721.3,296.8 713.8,297.7 		"/>
	</g>
	
		<radialGradient id="SVGID_8_" cx="819.1415" cy="233.3313" r="66.0895" gradientTransform="matrix(0.9603 3.055396e-02 -2.777057e-02 0.9621 -94.0217 -21.3895)" gradientUnits="userSpaceOnUse">
		<stop  offset="0" style="stop-color:#FCC58A"/>
		<stop  offset="0.575" style="stop-color:#FCC289"/>
		<stop  offset="0.962" style="stop-color:#FBB986"/>
		<stop  offset="1" style="stop-color:#FBB885"/>
	</radialGradient>
	<path class="st19" d="M712.7,202.4c13.6,1.6,24.1,11.1,30.9,29.4c4.2,11.3,10.6,44.9-2.9,58.8c-8.6,8.8-20.7,14.3-35.5,13.2
		c-12-0.8-32.6-6.1-39.6-19.2c-6.3-11.8-2.2-30.9,3.3-48.3C678.9,204.4,701.4,201.1,712.7,202.4z"/>
	<g>
		<path class="st20" d="M716.5,218.3c-20.6-8.1-27.6-13.4-34.9-1.5c-0.8,1.3-3.9,1.2-4.6,2.6c1,7.1,14.1,13.3,19.5,16.1
			c0,0,0.8-8.6,1.8-7.3c19.8,24.5,28.8,31.5,48.6,34.4C748.2,254.8,737,226.4,716.5,218.3z"/>
	</g>
	
		<radialGradient id="SVGID_9_" cx="656.6011" cy="202.0955" r="102.9556" gradientTransform="matrix(0.9976 6.860801e-02 -6.860801e-02 0.9976 19.4178 -41.6104)" gradientUnits="userSpaceOnUse">
		<stop  offset="0" style="stop-color:#574537"/>
		<stop  offset="0.6843" style="stop-color:#554335"/>
		<stop  offset="1" style="stop-color:#32241D"/>
	</radialGradient>
	<path class="st21" d="M753.8,294.1c0,0-22-22.1-11.1-51.2c0,0,17.7,2.9,18.8,3.2C757,269.2,754.7,278.9,753.8,294.1z"/>
	<path class="st22" d="M690.2,282.9c0,0,4.4,3.4,11.4,4.4c9.8,1.4,17-3.2,17-3.2"/>
	<path class="st23" d="M673.4,274.5c-0.2,2.8,1.9,5.2,4.7,5.4c2.8,0.2,5.2-1.9,5.4-4.7c0.2-2.8-1.9-5.2-4.7-5.4
		C676.1,269.5,673.6,271.7,673.4,274.5z"/>
	<path class="st23" d="M726.7,278.1c-0.2,2.8,1.9,5.2,4.7,5.4c2.8,0.2,5.2-1.9,5.4-4.7c0.2-2.8-1.9-5.2-4.7-5.4
		C729.3,273.2,726.9,275.3,726.7,278.1z"/>
	<g>
		<path class="st20" d="M735.4,263.6c-0.3,4.1-3.8,7.1-7.8,6.8c-4.1-0.3-7.1-3.8-6.8-7.9c0.3-4.1,3.8-7.1,7.9-6.8
			C732.6,256,735.7,259.5,735.4,263.6z"/>
		
			<radialGradient id="SVGID_10_" cx="1793.7644" cy="254.8409" r="6.5095" gradientTransform="matrix(0.9976 6.860801e-02 -6.860801e-02 0.9976 -1043.9769 -114.7401)" gradientUnits="userSpaceOnUse">
			<stop  offset="0" style="stop-color:#333333"/>
			<stop  offset="0.4558" style="stop-color:#313131"/>
			<stop  offset="0.7002" style="stop-color:#292929"/>
			<stop  offset="0.8938" style="stop-color:#1B1B1B"/>
			<stop  offset="1" style="stop-color:#101010"/>
		</radialGradient>
		<path class="st24" d="M734.6,263c-0.2,3.6-3.4,6.3-6.9,6c-3.6-0.2-6.3-3.4-6-6.9c0.2-3.6,3.4-6.3,6.9-6
			C732.1,256.3,734.8,259.4,734.6,263z"/>
		<path class="st5" d="M723.6,259.1c-0.9,1.3-0.6,3,0.5,3.7c1.1,0.7,2.8,0.3,3.6-1c0.9-1.3,0.6-3-0.5-3.7
			C726.1,257.3,724.5,257.8,723.6,259.1z"/>
	</g>
	<g>
		<path class="st25" d="M736.6,264.4c0,0,2.7,1.4,3.9,0.5c1.2-0.9,0-2.3,0-2.3s-2.9,0.9-4,0.6L736.6,264.4z"/>
		<path class="st25" d="M735.2,258.6c0,0,3.3,0.1,4.2-1.2c0.9-1.3-0.9-2.1-0.9-2.1s-2.7,2-3.8,2.2L735.2,258.6z"/>
		<path class="st25" d="M732.7,253.8c0,0,3-1.7,3.1-3.4c0.1-1.6-1.9-1.3-1.9-1.3s-1.3,3.2-2.2,4L732.7,253.8z"/>
	</g>
	<g>
		<g>
			<path class="st25" d="M673.7,258.9c0,0-2.9,1-4-0.1c-1.1-1.1,0.3-2.2,0.3-2.2s2.8,1.3,3.9,1.2L673.7,258.9z"/>
			<path class="st25" d="M676,253.4c0,0-3.3-0.4-4-1.8c-0.7-1.4,1.2-1.9,1.2-1.9s2.3,2.4,3.5,2.8L676,253.4z"/>
			<path class="st25" d="M679.1,248.9c0,0-2.7-2.2-2.5-3.8c0.2-1.6,2.1-1,2.1-1s0.8,3.4,1.6,4.3L679.1,248.9z"/>
		</g>
		<g>
			<path class="st20" d="M673.7,259.4c-0.3,4.1,2.8,7.6,6.8,7.9c4.1,0.3,7.6-2.8,7.9-6.8c0.3-4.1-2.8-7.6-6.8-7.8
				C677.5,252.2,674,255.3,673.7,259.4z"/>
			
				<radialGradient id="SVGID_11_" cx="-1014.0546" cy="254.8409" r="6.5095" gradientTransform="matrix(-0.9976 -6.860801e-02 -6.860801e-02 0.9976 -313.0948 -64.4773)" gradientUnits="userSpaceOnUse">
				<stop  offset="0" style="stop-color:#333333"/>
				<stop  offset="0.4558" style="stop-color:#313131"/>
				<stop  offset="0.7002" style="stop-color:#292929"/>
				<stop  offset="0.8938" style="stop-color:#1B1B1B"/>
				<stop  offset="1" style="stop-color:#101010"/>
			</radialGradient>
			<path class="st26" d="M674.6,258.9c-0.2,3.6,2.5,6.7,6,6.9c3.6,0.2,6.7-2.5,6.9-6c0.2-3.6-2.5-6.7-6-6.9
				C677.9,252.6,674.8,255.3,674.6,258.9z"/>
			<path class="st5" d="M676.6,255.9c-0.9,1.3-0.6,3,0.5,3.7c1.1,0.7,2.8,0.3,3.6-1c0.9-1.3,0.6-3-0.5-3.7
				C679.1,254.1,677.5,254.6,676.6,255.9z"/>
		</g>
	</g>
	
		<radialGradient id="SVGID_12_" cx="614.7582" cy="225.2073" r="134.8524" gradientTransform="matrix(0.9976 6.860801e-02 -6.860801e-02 0.9976 19.4178 -41.6104)" gradientUnits="userSpaceOnUse">
		<stop  offset="0" style="stop-color:#574537"/>
		<stop  offset="0.6843" style="stop-color:#554335"/>
		<stop  offset="1" style="stop-color:#32241D"/>
	</radialGradient>
	<path class="st27" d="M673.7,216.4c1.2,3.6,15.8,15.7,21.6,16.4c1.5,0.2-4.1-13.6-2.9-12.4c9.4,9.4,26.5,27.3,40.6,34.9
		c21.9,11.8,27,19.5,34.9,18.1c0,0,5.3-48.7-27.2-64.3C725.3,201.7,692.5,190.9,673.7,216.4z"/>
	<g>
		<path class="st28" d="M668.2,216.2c-0.9,1.6-2,3.1-2.2,3.4c-5.5,8.5-9.6,18.9-12.7,28.5c-0.4-4.8,2.1-10,3.7-14.4
			c2.1-5.6,4.2-11.4,7.1-16.7c0.5-0.9,2.7-5.6,4.1-5.4C670.2,211.8,669.4,214.1,668.2,216.2z"/>
	</g>
	<path class="st29" d="M689.3,207.8c7.1,5.4,20.9,31.4,45.7,39.3c0,0-13.4-5.5-27.1-22.6C694.4,207.3,694.1,205.4,689.3,207.8z"/>
	<polygon class="st30" points="743.1,291.4 739.8,285.3 743.9,278.2 751.3,277.3 754.5,283.4 750.4,290.5 	"/>
	<polygon class="st30" points="665.4,286.1 669.4,280.5 666.3,272.9 659.2,270.9 655.1,276.6 658.2,284.1 	"/>
</g>
<g>
	<g>
		<g>
			<g>
				<g>
					
						<pattern  id="SVGID_13_" xlink:href="#New_Pattern_2" patternTransform="matrix(-0.6517 0.1718 0.1718 0.6517 -12200.1934 -2256.6428)">
					</pattern>
					<path class="st31" d="M486.4,290.4c0,0-71.1,55.6-119.1-25"/>
					<radialGradient id="SVGID_14_" cx="358.2494" cy="248.4172" r="26.2707" gradientUnits="userSpaceOnUse">
						<stop  offset="0" style="stop-color:#FCC58A"/>
						<stop  offset="0.575" style="stop-color:#FCC289"/>
						<stop  offset="0.962" style="stop-color:#FBB986"/>
						<stop  offset="1" style="stop-color:#FBB885"/>
					</radialGradient>
					<path class="st32" d="M361.7,268.5c0,0,16.5-3,17.7-14.2c0.9-8.3,10.2-21.8,10.2-21.8s-0.8-3.7-6.5-4.2c-4.2-0.4-8,10.1-8,10.1
						s-7.1,3.8-16.4,3.5c-10.6-0.3-24-4.4-31.7,1l7.5,17.7C334.5,260.7,346.7,268.8,361.7,268.5z"/>
				</g>
				<g>
					<g>
						<g>
							
								<radialGradient id="SVGID_15_" cx="-63.7592" cy="291.9752" r="14.4614" gradientTransform="matrix(-0.9669 0.255 0.255 0.9669 336.3229 -45.5613)" gradientUnits="userSpaceOnUse">
								<stop  offset="0" style="stop-color:#FCC58A"/>
								<stop  offset="0.575" style="stop-color:#FCC289"/>
								<stop  offset="0.962" style="stop-color:#FBB986"/>
								<stop  offset="1" style="stop-color:#FBB885"/>
							</radialGradient>
							<path class="st33" d="M483.3,211.9c-3.7-6.5-11.8-8.8-18.1-5.2c-6.3,3.6-8.5,11.8-4.8,18.3c2.9,5.2,8.7,7.7,14.1,6.7
								c1.7,2.7,5.2,3.7,7.9,2.2c2.8-1.6,3.8-5.2,2.1-8.1c-0.2-0.4-0.5-0.8-0.8-1.1C485.7,220.8,485.7,216,483.3,211.9z"/>
							<g>
								<path class="st34" d="M472.5,213.7c-5.1-1.2-8.7,3.6-8.7,3.6s2.6-7.4,9-6c6.3,1.5,7.1,8.9,7.1,8.9S478.1,215,472.5,213.7z"
									/>
								<path class="st34" d="M474.6,221c3.3-3.9,4.7-2,4.7-2s-1.1-4.4-5.8,1.8c-2.6,3.5,1.1,5.8,1.1,5.8S472,224.1,474.6,221z"/>
							</g>
						</g>
						
							<linearGradient id="SVGID_16_" gradientUnits="userSpaceOnUse" x1="-89.028" y1="233.0661" x2="-73.2919" y2="291.1628" gradientTransform="matrix(-0.9669 0.255 0.255 0.9669 336.3229 -45.5613)">
							<stop  offset="0" style="stop-color:#574537"/>
							<stop  offset="0.5758" style="stop-color:#433329"/>
							<stop  offset="1" style="stop-color:#32241D"/>
						</linearGradient>
						<path class="st35" d="M490.8,169.5c0,0-13.2,25.4-10.8,47.5c0,0-17-12.2,0.1-58.4L490.8,169.5z"/>
						
							<radialGradient id="SVGID_17_" cx="-132.744" cy="313.468" r="73.0281" gradientTransform="matrix(-0.9669 0.255 0.255 0.9669 336.3229 -45.5613)" gradientUnits="userSpaceOnUse">
							<stop  offset="0" style="stop-color:#FCC58A"/>
							<stop  offset="0.575" style="stop-color:#FCC289"/>
							<stop  offset="0.962" style="stop-color:#FBB986"/>
							<stop  offset="1" style="stop-color:#FBB885"/>
						</radialGradient>
						<path class="st36" d="M590.9,286.9c0,0,2.7-2.1,4.7-8.5c6.6-20.6,12.5-100.6,12.5-100.6L580.3,148l-93.6,15.6
							c0,0-8,29.7-7.9,55.7c0.1,16.2-0.1,34.7,1.7,46.9c1.3,8.9,4.6,14.1,4.6,14.1S522.8,301.6,590.9,286.9z"/>
						
							<linearGradient id="SVGID_18_" gradientUnits="userSpaceOnUse" x1="-211.7162" y1="267.4475" x2="-196.0412" y2="325.3185" gradientTransform="matrix(-0.9669 0.255 0.255 0.9669 336.3229 -45.5613)">
							<stop  offset="0" style="stop-color:#574537"/>
							<stop  offset="0.5758" style="stop-color:#433329"/>
							<stop  offset="1" style="stop-color:#32241D"/>
						</linearGradient>
						<path class="st37" d="M613.9,160.5L597,182.2c0,0-7.9,27.2,13.8,36.4C610.8,218.7,634.8,182.4,613.9,160.5z"/>
						
							<linearGradient id="SVGID_19_" gradientUnits="userSpaceOnUse" x1="-130.4571" y1="337.7361" x2="-107.3511" y2="423.0421" gradientTransform="matrix(-0.9438 0.3304 0.3304 0.9438 303.6396 -175.7614)">
							<stop  offset="0" style="stop-color:#574537"/>
							<stop  offset="0.5758" style="stop-color:#433329"/>
							<stop  offset="1" style="stop-color:#32241D"/>
						</linearGradient>
						<path class="st38" d="M614.1,161c0,0-22.1-51-68.6-52.5c0,0,10.1,8.7,10.6,11.9c0,0-12.9-8.2-25.7-9.3
							c-17.6-1.5-37.5,19.2-49.9-5c0,0-8.3,11.5-1.3,24.3c0,0-6.2-3.5-7.8-10.7c0,0-6.5,19.8,10.2,33.7c0,0-7.3-1.3-11.4-9.4
							c0,0,14.1,57.8,127.5,38.2L614.1,161z"/>
						<path class="st39" d="M541.7,115.9c-24.2-8.2-27.5,5.9-46.8,4.2c-8.4-0.7-11.3-5.7-11.3-5.7c13.7,22.5,31.9-2.7,57.9,1.6
							L541.7,115.9z"/>
						<path class="st40" d="M569.3,240.5c0.8,3.4,4.3,5.4,7.7,4.6c3.4-0.8,5.4-4.3,4.6-7.7c-0.8-3.4-4.3-5.4-7.7-4.6
							C570.5,233.6,568.5,237.1,569.3,240.5z"/>
						<path class="st40" d="M489,235.9c0.8,3.4,4.3,5.4,7.7,4.6c3.4-0.8,5.4-4.3,4.6-7.7c-0.8-3.4-4.3-5.4-7.7-4.6
							C490.2,229,488.2,232.5,489,235.9z"/>
						<path class="st41" d="M473.9,195.1c-0.1,2,0,3.9-0.1,5.7c-0.1,1.6,1.3,1.5,2,3.5c2.2,6.2,0.7,16.4,6.5,22
							c1.6,1.6,4.6,3.6,7.6,4.1c14.4,2,26.9,3.5,33.1-11c1.3-3,3.1-5.4,4.5-9.9c1.8-3,1.9-2.4,5.9-2.4c4,0.4,4.1-0.2,5.6,2.9
							c1,4.6,2.5,7.2,3.5,10.3c4.9,15,17.4,14.7,31.9,14c3-0.1,6.2-1.9,8-3.3c6.3-5.1,5.7-15.3,8.5-21.3c0.9-1.9,2.3-1.6,2.3-3.3
							c0.1-1.8,0.3-3.6,0.4-5.7c0.2-1.2-0.5-1.8-1.2-1.9c-7.9-1-10.5-3.1-26.4-3.7c-12.3-0.5-19.9,1.5-32.2,0.9l-0.1,0
							c-12.3-0.6-19.7-3.2-32-3.9c-15.8-0.8-18.7,1-26.6,1.3C474.6,193.4,473.9,193.9,473.9,195.1z M543.5,201.4
							c4-3.6,14.7-4.2,21.4-3.9c6.5,0.3,15.3,0.8,19,4.2c3.3,3,2,8.5,1.7,14.6c-0.7,12.8-7,17.4-22.2,16.5c-5.2-0.3-9.6-1.7-12.8-4
							c-4.6-3.2-6.8-8.8-8.1-14.3C541.4,209.3,540.1,204.4,543.5,201.4z M483.6,197c4-3,12.8-2.7,19.3-2.4c6.7,0.3,17.3,1.9,21,5.9
							c3.1,3.3,1.3,8.1-0.3,13.1c-1.8,5.4-4.5,10.7-9.4,13.5c-3.4,1.9-8,2.9-13.1,2.8c-15.2-0.5-21.1-5.7-20.5-18.5
							C480.9,205.3,480,199.7,483.6,197z"/>
						<polygon class="st41" points="593.4,200 605.2,215 602.1,218.5 592,207.7 						"/>
						<g>
							
								<radialGradient id="SVGID_20_" cx="-193.2263" cy="331.1392" r="14.1382" gradientTransform="matrix(-0.8853 0.4651 0.4651 0.8853 283.5391 24.4793)" gradientUnits="userSpaceOnUse">
								<stop  offset="0" style="stop-color:#FCC58A"/>
								<stop  offset="0.575" style="stop-color:#FCC289"/>
								<stop  offset="0.962" style="stop-color:#FBB986"/>
								<stop  offset="1" style="stop-color:#FBB885"/>
							</radialGradient>
							<path class="st42" d="M597.7,222.3c2.7-6.9,10.4-10.4,17.2-7.8c6.8,2.6,10.1,10.4,7.4,17.4c-2.2,5.5-7.5,8.9-13,8.7
								c-1.3,3-4.6,4.4-7.5,3.3c-3-1.2-4.5-4.6-3.3-7.7c0.2-0.4,0.4-0.8,0.6-1.2C596.7,231.4,596,226.6,597.7,222.3z"/>
							<g>
								<path class="st34" d="M608.7,222.4c4.8-1.9,9.1,2.3,9.1,2.3s-3.7-7-9.8-4.6c-6.1,2.4-5.7,9.8-5.7,9.8
									S603.4,224.5,608.7,222.4z"/>
								<path class="st34" d="M607.6,230c-3.8-3.4-5-1.3-5-1.3s0.4-4.5,6,1c3.1,3-0.2,5.9-0.2,5.9S610.7,232.6,607.6,230z"/>
							</g>
						</g>
						
							<pattern  id="SVGID_21_" xlink:href="#New_Pattern" patternTransform="matrix(-1.115 0.294 0.294 1.115 -15768.3027 2516.6504)">
						</pattern>
						<path class="st43" d="M483.8,277.3c0,0-12.2,45.7,3.2,106.8c0,0,15.6,18.2,104-3.4c0,0-1.5,2.8-3.3-20.4
							c-1.9-24.5,3.5-73.6,3.5-73.6S514.2,300.3,483.8,277.3z"/>
						<path class="st5" d="M519.5,289.2c6.4,0.7,13.8,1.2,13.8,1.2l-13.6,17.3c0,0-6.3-9-10.7-20.2
							C509,287.5,513.7,288.5,519.5,289.2z"/>
						<path class="st44" d="M551.7,211c0,0,11,11,24.5,1"/>
						<path class="st44" d="M489.7,209c0,0,11,11,24.5,1"/>
					</g>
				</g>
				<path class="st45" d="M520.7,248c0,0,11,11,24.5,1"/>
			</g>
		</g>
	</g>
	
		<pattern  id="SVGID_22_" xlink:href="#New_Pattern_2" patternTransform="matrix(-0.6517 0.1718 0.1718 0.6517 -11980.1934 -2242.6428)">
	</pattern>
	<path class="st46" d="M624.7,388.7c0,0,26.7-74-42-92.7"/>
	<g>
		<g>
			<path d="M366,255.5h-53.1c-6.1,0-11.1-5-11.1-11.1V110.9c0-6.1,5-11.1,11.1-11.1H366c6.1,0,11.1,5,11.1,11.1v133.5
				C377.1,250.5,372.1,255.5,366,255.5z"/>
			<rect x="306" y="118.4" class="st5" width="66.8" height="118.5"/>
			<g>
				<linearGradient id="SVGID_23_" gradientUnits="userSpaceOnUse" x1="339.4575" y1="257.8271" x2="339.4575" y2="247.2284">
					<stop  offset="0" style="stop-color:#FFFFFF"/>
					<stop  offset="1" style="stop-color:#000000"/>
				</linearGradient>
				<circle class="st47" cx="339.5" cy="245.6" r="6.1"/>
				<linearGradient id="SVGID_24_" gradientUnits="userSpaceOnUse" x1="339.4575" y1="219.0366" x2="339.4575" y2="249.1956">
					<stop  offset="0" style="stop-color:#FFFFFF"/>
					<stop  offset="1" style="stop-color:#000000"/>
				</linearGradient>
				<circle class="st48" cx="339.5" cy="245.6" r="5.4"/>
			</g>
		</g>
		<g>
			<g>
				<g>
					<g>
						<g>
							<path class="st49" d="M317,172c0.1-0.1,0.2-0.1,0.3,0l5,2.9c0.1,0.1,0.1,0.1,0,0.2l-5.1,2.9c-0.1,0.1-0.2,0.1-0.3,0l-5-2.9
								c-0.1-0.1-0.1-0.1,0-0.2L317,172z"/>
						</g>
					</g>
				</g>
				<g>
					<path class="st50" d="M322.7,175.6c0.1-0.1,0.2,0,0.2,0.1v5.8c0,0.1-0.1,0.2-0.2,0.3l-5.1,2.9c-0.1,0.1-0.2,0-0.2-0.1l0-5.8
						c0-0.1,0.1-0.2,0.2-0.3L322.7,175.6z"/>
				</g>
				<g>
					<path class="st51" d="M311.6,175.6c-0.1-0.1-0.2,0-0.2,0.1l0,5.8c0,0.1,0.1,0.2,0.2,0.3l5.1,2.9c0.1,0.1,0.2,0,0.2-0.1l0-5.8
						c0-0.1-0.1-0.2-0.2-0.3L311.6,175.6z"/>
				</g>
				<g id="XMLID_15_">
					<path id="XMLID_18_" class="st5" d="M321.8,178.7c-0.2,0.1-0.4,0.3-0.4,0.6v0.5l-2.6,1.5v-0.5c0-0.2-0.1-0.3-0.3-0.2
						c-0.2,0.1-0.3,0.3-0.3,0.6v0.9c0,0.2,0.1,0.3,0.3,0.2l0.1-0.1v0.3c0,0.1,0.1,0.1,0.2,0.1c0.1,0,0.2-0.1,0.2-0.2V182l2.4-1.4
						v0.3c0,0.1,0,0.1,0.1,0.1c0.1,0,0.1-0.1,0.1-0.2v-0.3l0.2-0.1c0.2-0.1,0.4-0.3,0.4-0.6v-0.9
						C322.1,178.7,321.9,178.6,321.8,178.7z"/>
					<path id="XMLID_17_" class="st5" d="M319,180.7v0.3l1.1-0.6v-1.2l0,0l0,0c0-0.1-0.1-0.2-0.2-0.1l0,0l0,0l-0.7,0.4
						c-0.2,0.1-0.4,0.5-0.5,0.9C318.9,180.3,319,180.5,319,180.7z"/>
					<path id="XMLID_16_" class="st5" d="M321.2,179.4c0-0.3,0.1-0.6,0.3-0.7c0-0.3-0.2-0.4-0.4-0.3l-0.7,0.4l0,0l0,0l0,0l0,0
						c-0.1,0-0.1,0.2-0.1,0.3l0,0l0,0v1.2l0.9-0.6V179.4L321.2,179.4z"/>
				</g>
				<path id="XMLID_14_" class="st5" d="M315.7,181c0,0-1.6-2.8-1.6-2.8c0-0.1-0.1-0.1-0.1,0c-0.2,0.1-0.4,0.3-0.7,0.5l0-0.6
					c0,0,0-0.1-0.1-0.1l-0.2-0.1c0,0-0.1,0-0.1,0l0,1.1c-0.2,0.2-0.4,0.3-0.5,0.3c0,0,0,0.1,0.1,0.1c0.2,0.1,0.3,0.2,0.4,0.2
					c0,0.6,0,1.3,0,1.9c0.2,0.1,0.6,0.3,0.8,0.4c0-0.5,0-1,0-1.4c0.2,0.1,0.6,0.4,0.8,0.5c0,0.6,0,1.1,0,1.4
					c0.3,0.2,0.6,0.3,0.8,0.4c0-0.3,0-1.1,0-1.9C315.4,180.9,315.6,180.9,315.7,181C315.7,181.1,315.7,181,315.7,181z"/>
				<g id="XMLID_12_">
					<path id="XMLID_13_" class="st5" d="M318.2,175.4c-0.3,0.2-0.6,0.3-0.9,0.5c0,0-0.1,0,0,0.1c0.1,0.1,0.2,0.1,0.3,0.2
						c0.1,0.1,0.2,0.2,0.1,0.3c-0.1,0.1-0.2,0.1-0.4,0.1c-0.1,0-0.2,0-0.2-0.1c-0.1-0.1-0.2-0.1-0.3-0.2c0,0-0.1,0-0.1,0
						c-0.1,0-0.1,0.1-0.2,0.1c0,0-0.1,0-0.1,0c-0.3-0.2-0.7-0.4-1-0.6c-0.2-0.1-0.2-0.3-0.1-0.4c0,0,0,0,0-0.1
						c-0.2-0.2-0.3-0.4-0.5-0.6c-0.2-0.2-0.1-0.3,0.1-0.4c0.5-0.3,1-0.6,1.5-0.9c0.2-0.1,0.4-0.2,0.8-0.1c0.3,0.1,0.7,0.2,1,0.3
						c0,0,0.1,0,0.2,0c0.2,0,0.4,0,0.6,0c0.1,0,0.2,0.1,0.3,0.2c0.2,0.2,0.5,0.3,0.7,0.4c0,0,0,0,0,0.1c-0.1,0-0.1,0.1-0.2,0.1
						c0,0,0,0,0,0.1c0.1,0.1,0.2,0.1,0.3,0.2c0.2,0.1,0.2,0.2,0,0.3c-0.2,0.1-0.4,0.1-0.5,0c-0.1,0-0.2-0.1-0.3-0.2c0,0-0.1,0-0.1,0
						C318.8,175,318.5,175.2,318.2,175.4 M316.7,174.5c0.4-0.2,0.7-0.4,1.1-0.7c0,0,0,0,0-0.1c-0.3-0.1-0.5-0.2-0.8-0.2
						c-0.2,0-0.2,0-0.4,0c-0.5,0.3-1,0.6-1.5,0.9c-0.1,0.1-0.2,0.1-0.1,0.2c0.1,0.2,0.3,0.3,0.4,0.5c0,0,0.1,0,0.1,0
						C316,175,316.3,174.7,316.7,174.5 M315.8,175.4c-0.2,0.1-0.1,0.2,0,0.3c0.2,0.1,0.4,0.1,0.6,0c0.2-0.1,0.1-0.2,0-0.3
						C316.2,175.3,315.9,175.3,315.8,175.4 M318.8,174c-0.2-0.1-0.4-0.1-0.6,0c-0.2,0.1-0.1,0.2,0,0.3c0.2,0.1,0.4,0.1,0.6,0
						C319,174.2,319,174.1,318.8,174"/>
				</g>
			</g>
			<g>
				<g id="XMLID_10_">
					<path class="st52" d="M330.5,179.3C330.4,179.2,330.4,179.2,330.5,179.3c-0.1,0-0.1,0-0.2,0c-0.4,0.2-0.7,0.3-1.1,0.3
						c-0.5,0-0.7-0.3-0.7-0.9v-1.8h1.8c0.1,0,0.3-0.1,0.3-0.3v-1.2c0-0.1-0.1-0.1-0.3-0.1h-1.8v-1.8c0-0.1-0.1-0.2-0.2-0.2H328
						c0,0-0.1,0-0.2,0.1l-3,2.6c0,0-0.1,0.1-0.1,0.2v0.5c0,0.1,0.2,0.2,0.3,0.2h1v2.5c0,0.9,0.1,1.3,0.4,1.7c0.4,0.4,1.1,0.7,2,0.7
						c0.8,0,1.4-0.2,2-0.7c0.1,0,0-0.1,0-0.2v-1.4C330.5,179.4,330.5,179.3,330.5,179.3z"/>
					<path class="st52" d="M338.8,180c0-0.1-0.1-0.1-0.2-0.1h0c-0.5,0-0.5-0.3-0.5-0.6v-3.8c0-0.1-0.2-0.1-0.3-0.1h-2.1
						c-0.1,0-0.2,0-0.2,0.1v3.5c-0.4,0.5-0.6,0.7-1,0.7c-0.7,0-0.7-0.5-0.7-1v-3.2c0-0.1-0.1-0.1-0.2-0.1h-2.1c-0.1,0-0.3,0-0.3,0.1
						v3.8c0,0.7,0.3,2.4,2.2,2.4c0.9,0,1.6-0.3,2.2-1.1c0.2,0.8,0.6,1.1,1.6,1.1c0.4,0,0.7,0,1-0.1c0.1,0,0.1-0.1,0.2-0.1l0.5-1.3
						C338.9,180.1,338.9,180,338.8,180z"/>
					<path class="st52" d="M350.9,179.2c0,0-0.1,0-0.1,0c0,0-0.1,0-0.1,0c-0.4,0.2-0.8,0.3-1.1,0.3c-0.5,0-0.8-0.3-0.8-0.9v-2h1.8
						c0.1,0,0,0,0-0.1v-1.2c0-0.1,0.1,0,0,0h-1.8v-1.9c0-0.1-0.1-0.2-0.2-0.2h-0.3c0,0-0.1,0-0.2,0.1l-2.9,2.6c0,0,0,0.1,0,0.2v0.5
						c0,0.1,0,0.3,0.2,0.3h1v2.5c0,0.9,0.1,1.3,0.5,1.7c0.4,0.4,1.1,0.7,2,0.7c0.8,0,1.5-0.2,2.1-0.7c0.1,0,0.1-0.1,0.1-0.2v-1.4
						C351,179.3,350.9,179.3,350.9,179.2z"/>
					<path class="st52" d="M356.6,179.6c-0.6,0-1,0.5-1,1c0,0.6,0.5,1,1,1c0.6,0,1-0.5,1-1C357.6,180.1,357.2,179.6,356.6,179.6z"/>
					<path class="st52" d="M362.2,180.1c0,0-0.1,0-0.2,0c0,0-0.1,0-0.1,0c-0.3,0.1-0.6,0.2-0.8,0.2c-0.7,0-1.1-0.3-1.1-0.9
						c0-0.5,0.4-0.9,1-0.9c0.3,0,0.5,0,0.8,0.2c0,0,0,0,0.1,0c0,0,0.2,0,0.2,0c0.1,0,0.2-0.1,0.2-0.2v-1c0-0.1-0.2-0.2-0.3-0.2
						c-0.4-0.1-0.9-0.2-1.3-0.2c-1.7,0-2.5,1.2-2.5,2.3c0,1.3,1,2.3,2.5,2.3c0.5,0,0.9-0.1,1.3-0.2c0.1,0,0.2-0.1,0.2-0.2v-1
						C362.3,180.2,362.2,180.2,362.2,180.1z"/>
					<path class="st52" d="M366,177.1c-0.6,0-1.1,0.2-1.4,0.6v-1.6c0-0.1,0-0.3-0.2-0.3h-1.3c-0.1,0-0.4,0.2-0.4,0.4v5.3
						c0,0.1,0.2,0.1,0.4,0.1h1.3c0.1,0,0.2,0,0.2-0.1V179c0.2-0.3,0.4-0.4,0.6-0.4c0.5,0,0.5,0.5,0.5,0.7v2.2c0,0.1,0.2,0.1,0.3,0.1
						h1.3c0.1,0,0.2,0,0.2-0.1v-2.7C367.5,177.3,366.6,177.1,366,177.1z"/>
					<g id="XMLID_11_">
						<path class="st52" d="M354.2,175.4h-2.1c-0.1,0-0.2,0-0.2,0.1v5.9c0,0.1,0.1,0.1,0.2,0.1h2.1c0.1,0,0.3,0,0.3-0.1v-5.9
							C354.5,175.3,354.3,175.4,354.2,175.4z"/>
						<path class="st52" d="M353.2,172.5c-0.6,0-1.1,0.5-1.1,1.1c0,0.6,0.5,1.1,1.1,1.1c0.6,0,1.1-0.5,1.1-1.1
							C354.3,173,353.8,172.5,353.2,172.5z"/>
					</g>
				</g>
				<path class="st52" d="M344.4,179.3C344.4,179.2,344.4,179.2,344.4,179.3c-0.1,0-0.1,0-0.2,0c-0.4,0.2-0.8,0.3-1.1,0.3
					c-0.5,0-0.8-0.3-0.8-0.9v-1.8h1.8c0.1,0,0.2-0.1,0.2-0.3v-1.2c0-0.1-0.1-0.1-0.2-0.1h-1.8v-1.8c0-0.1,0-0.2-0.2-0.2H342
					c0,0-0.1,0-0.2,0.1l-2.9,2.6c0,0,0,0.1,0,0.2v0.5c0,0.1,0,0.2,0.2,0.2h0.9v2.5c0,0.9,0.1,1.3,0.5,1.7c0.4,0.4,1.1,0.7,2,0.7
					c0.8,0,1.4-0.2,2-0.7c0.1,0,0-0.1,0-0.2v-1.4C344.5,179.4,344.5,179.3,344.4,179.3z"/>
			</g>
		</g>
	</g>
</g>
</svg>
