<?xml version="1.0" encoding="utf-8"?>
<!-- Generator: Adobe Illustrator 22.0.1, SVG Export Plug-In . SVG Version: 6.00 Build 0)  -->
<svg version="1.1" id="Layer_1" xmlns="http://www.w3.org/2000/svg" xmlns:xlink="http://www.w3.org/1999/xlink" x="0px" y="0px"
	 width="800px" height="350px" viewBox="0 0 800 350" style="enable-background:new 0 0 800 350;" xml:space="preserve">
<style type="text/css">
	.st0{fill:none;}
	.st1{fill:#29ABE2;}
	.st2{opacity:0.4;}
	.st3{opacity:0.12;}
	.st4{fill:url(#SVGID_1_);stroke:#29ABE2;stroke-miterlimit:10;}
	.st5{fill:#FFFFFF;}
	.st6{fill:#7C4119;}
	.st7{fill:#E6E6E6;}
	.st8{fill:#CCCCCC;}
	.st9{fill:#666666;}
	.st10{fill:url(#SVGID_2_);}
	.st11{fill:url(#SVGID_3_);}
	.st12{fill:url(#SVGID_4_);}
	.st13{fill:url(#SVGID_5_);}
	.st14{fill:#661412;}
	.st15{fill:url(#SVGID_6_);}
	.st16{fill:url(#SVGID_7_);}
	.st17{fill:#721514;}
	.st18{fill:url(#SVGID_8_);}
	.st19{fill:#CE985E;}
	.st20{fill:url(#SVGID_9_);}
	.st21{fill:none;stroke:#BD4747;stroke-width:2.8286;stroke-linecap:round;stroke-miterlimit:10;}
	.st22{fill:#FFA370;}
	.st23{fill:url(#SVGID_10_);}
	.st24{fill:#403228;}
	.st25{fill:url(#SVGID_11_);}
	.st26{fill:url(#SVGID_12_);}
	.st27{fill:#7D634F;}
	.st28{opacity:0.4;fill:#7D634F;}
	.st29{fill:#7D1920;}
	.st30{opacity:0.14;}
	.st31{fill:none;stroke:url(#SVGID_13_);stroke-width:13;stroke-miterlimit:10;}
	.st32{fill:url(#SVGID_14_);}
	.st33{fill:url(#SVGID_15_);}
	.st34{fill:#856848;}
	.st35{fill:url(#SVGID_16_);}
	.st36{fill:url(#SVGID_17_);}
	.st37{fill:url(#SVGID_18_);}
	.st38{fill:url(#SVGID_19_);}
	.st39{fill:#836F67;}
	.st40{fill:#FAB383;}
	.st41{fill:url(#SVGID_20_);}
	.st42{fill:url(#SVGID_21_);}
	.st43{fill:none;stroke:#856848;stroke-width:3;stroke-linecap:round;stroke-miterlimit:10;}
	.st44{fill:#1A1A1A;}
	.st45{fill:url(#SVGID_22_);}
	.st46{fill:url(#SVGID_23_);}
	.st47{fill:none;stroke:url(#SVGID_24_);stroke-width:13;stroke-miterlimit:10;}
	.st48{fill:url(#SVGID_25_);}
	.st49{fill:url(#SVGID_26_);}
	.st50{fill:url(#SVGID_27_);}
	.st51{fill:url(#SVGID_28_);}
	.st52{fill:#F7931E;}
	.st53{fill:#EC2C28;}
	.st54{opacity:5.000000e-02;}
	.st55{fill:url(#SVGID_29_);}
	.st56{fill:url(#SVGID_30_);}
	.st57{fill:#BC2220;}
	.st58{fill:url(#SVGID_31_);}
</style>
<pattern  width="242" height="242" patternUnits="userSpaceOnUse" id="New_Pattern" viewBox="0 -242 242 242" style="overflow:visible;">
	<g>
		<rect y="-242" class="st0" width="242" height="242"/>
		<rect y="-242" class="st1" width="242" height="242"/>
		<rect y="-242" class="st2" width="11" height="242"/>
		<rect x="22" y="-242" class="st2" width="11" height="242"/>
		<rect x="44" y="-242" class="st2" width="11" height="242"/>
		<rect x="66" y="-242" class="st2" width="11" height="242"/>
		<rect x="88" y="-242" class="st2" width="11" height="242"/>
		<rect x="110" y="-242" class="st2" width="11" height="242"/>
		<rect x="132" y="-242" class="st2" width="11" height="242"/>
		<rect x="154" y="-242" class="st2" width="11" height="242"/>
		<rect x="176" y="-242" class="st2" width="11" height="242"/>
		<rect x="198" y="-242" class="st2" width="11" height="242"/>
		<rect x="220" y="-242" class="st2" width="11" height="242"/>
		<rect y="-242" class="st2" width="242" height="11"/>
		<rect y="-220" class="st2" width="242" height="11"/>
		<rect y="-198" class="st2" width="242" height="11"/>
		<rect y="-176" class="st2" width="242" height="11"/>
		<rect y="-154" class="st2" width="242" height="11"/>
		<rect y="-132" class="st2" width="242" height="11"/>
		<rect y="-110" class="st2" width="242" height="11"/>
		<rect y="-88" class="st2" width="242" height="11"/>
		<rect y="-66" class="st2" width="242" height="11"/>
		<rect y="-44" class="st2" width="242" height="11"/>
		<rect y="-22" class="st2" width="242" height="11"/>
	</g>
</pattern>
<pattern  width="242" height="242" patternUnits="userSpaceOnUse" id="New_Pattern_2" viewBox="241.7 -242 242 242" style="overflow:visible;">
	<g>
		<rect x="241.7" y="-242" class="st0" width="242" height="242"/>
		<g>
			<rect x="241.7" y="-242" class="st1" width="242" height="242"/>
			<rect x="472.7" y="-242" class="st2" width="11" height="242"/>
			<rect x="450.7" y="-242" class="st2" width="11" height="242"/>
			<rect x="428.7" y="-242" class="st2" width="11" height="242"/>
			<rect x="406.7" y="-242" class="st2" width="11" height="242"/>
			<rect x="384.7" y="-242" class="st2" width="11" height="242"/>
			<rect x="362.7" y="-242" class="st2" width="11" height="242"/>
			<rect x="340.7" y="-242" class="st2" width="11" height="242"/>
			<rect x="318.7" y="-242" class="st2" width="11" height="242"/>
			<rect x="296.7" y="-242" class="st2" width="11" height="242"/>
			<rect x="274.7" y="-242" class="st2" width="11" height="242"/>
			<rect x="252.7" y="-242" class="st2" width="11" height="242"/>
			<rect x="241.7" y="-11" class="st2" width="242" height="11"/>
			<rect x="241.7" y="-33" class="st2" width="242" height="11"/>
			<rect x="241.7" y="-55" class="st2" width="242" height="11"/>
			<rect x="241.7" y="-77" class="st2" width="242" height="11"/>
			<rect x="241.7" y="-99" class="st2" width="242" height="11"/>
			<rect x="241.7" y="-121" class="st2" width="242" height="11"/>
			<rect x="241.7" y="-143" class="st2" width="242" height="11"/>
			<rect x="241.7" y="-165" class="st2" width="242" height="11"/>
			<rect x="241.7" y="-187" class="st2" width="242" height="11"/>
			<rect x="241.7" y="-209" class="st2" width="242" height="11"/>
			<rect x="241.7" y="-231" class="st2" width="242" height="11"/>
			<rect x="242" y="-242" class="st3" width="242" height="242"/>
		</g>
		<g>
			<rect y="-242" class="st3" width="242" height="242"/>
		</g>
	</g>
</pattern>
<radialGradient id="SVGID_1_" cx="400.5" cy="404.5" r="446.1121" gradientUnits="userSpaceOnUse">
	<stop  offset="0" style="stop-color:#CCEAF9"/>
	<stop  offset="1" style="stop-color:#007AB7"/>
</radialGradient>
<rect x="-4.5" y="-3.5" class="st4" width="810" height="355"/>
<g>
	<g>
		<path class="st5" d="M62.6,364.9c0,0-19.7,9.4-23-11.9c0,0-5.4,25.9,27.2,20.1L62.6,364.9z"/>
		<path class="st6" d="M41,364.3c-0.7-0.8-1-2-1-3c0-1.3,0.4-2.7,0.8-3.8c2.5,7.2,7.5,9.2,12.2,9.4c-0.3,0.8-0.6,1.8-1.2,2.2
			c-0.8,0.6-1.9,0.9-2.8,1c-1,0.2-2.1,0.2-2.9-0.5c-0.9-0.9-0.9-2.4-1.7-3.4C43.4,365.1,41.9,365.3,41,364.3z"/>
	</g>
	<g>
		<path class="st5" d="M66.4,357c2.2-4.7-4.4-12.6-3.6-18.1c0.4-2.8,3.2-4,4.5-6.8c3.5-7.4,6-10.3-1.2-24.9c-5.4-11-12-7.4-14.9-4.9
			c-0.9-15.9-1.8-30-1.8-30L92.6,291c0,0,9,34.6,11.1,50.2c1.1,8.2,6.4,33-19.9,36.3c-15.6,2-23.2-5.4-27-13.1
			C60.9,363.7,65,360.8,66.4,357z"/>
		<path class="st6" d="M52.9,333.8c-0.4-8.6-1.2-20.4-1.8-31.5c2.8-2.5,9.5-6.4,15,4.8c7.2,14.6,4.7,17.5,1.2,24.9
			c-1.3,2.9-4.1,4.1-4.5,6.8c-0.8,5.5,5.7,13.5,3.6,18.1c-1.4,3.8-5.6,6.8-9.7,7.5c-3.2-6.3-3.6-13-3.7-15
			C52.5,344.9,53.1,339.9,52.9,333.8z"/>
		<path class="st7" d="M94,296.3L78.5,290c0,0,4.2,5.4,9,8.9c3.7,2.8,8.1,3.9,8.1,3.9L94,296.3z"/>
		<path class="st5" d="M52.3,262.3c19.2-26.9,35.6-18.3,50.9-0.4c11.4,13.3,16.1,30.9,9.7,36.3s-33.1-6.1-33.1-6.1
			S37,283.7,52.3,262.3z"/>
		<g>
			<ellipse transform="matrix(0.9961 -8.842958e-02 8.842958e-02 0.9961 -23.6902 8.336)" cx="82.2" cy="271.5" rx="4.3" ry="4.5"/>
			
				<ellipse transform="matrix(0.9961 -8.842958e-02 8.842958e-02 0.9961 -23.616 8.0982)" class="st8" cx="79.6" cy="270.6" rx="0.9" ry="0.9"/>
		</g>
		<g>
			
				<ellipse transform="matrix(0.9961 -8.842958e-02 8.842958e-02 0.9961 -23.2712 9.9576)" cx="100.7" cy="267.6" rx="3.5" ry="4.2"/>
			
				<ellipse transform="matrix(0.9961 -8.842958e-02 8.842958e-02 0.9961 -23.1898 9.7839)" class="st8" cx="98.8" cy="266.6" rx="0.9" ry="0.9"/>
		</g>
		<path d="M112.2,288.5c0,0-5-2.4-8.1,3.6c0,0,2.2,3,7.1,3.1C111.1,295.2,112.8,293.9,112.2,288.5z"/>
		<g>
			<path d="M76.1,264.8c0.3,0,0.6-0.2,0.6-0.6c1.5-6.7,5.9-6.1,5.9-6.1c0.4,0.1,0.8-0.2,0.8-0.6c0.1-0.4-0.2-0.8-0.6-0.8
				c-0.1,0-5.8-0.8-7.5,7.2c-0.1,0.4,0.2,0.8,0.5,0.8C76,264.9,76,264.9,76.1,264.8z"/>
		</g>
		<g>
			<path d="M99.7,257.8c0.1,0,0.3-0.1,0.4-0.2c0.3-0.3,0.3-0.7,0-1c-2.9-3.1-5.4-3.7-7.1-3.6c-1.9,0.1-3,1-3,1.1
				c-0.3,0.2-0.4,0.7-0.1,1c0.2,0.3,0.7,0.4,1,0.1c0.2-0.1,3.6-2.7,8.2,2.4C99.3,257.7,99.5,257.8,99.7,257.8z"/>
		</g>
		<path class="st7" d="M49.9,274.6c1.5-4.9,5.8-8.6,13.4-7.8c0,0-10.1,6-9.2,19.5c0.2,3.1-1.6,4.9-3.5,4.9c0,0-0.1-0.2-0.1-0.6
			C50.3,287.5,49.8,275.7,49.9,274.6z"/>
		<path class="st5" d="M40.5,271.6c5-13.8,24.2-9.1,24.2-9.1l-1,4.4c-13.3,1.3-13.6,9-13.4,17.6c0.1,2.8-0.8,4.8-2.1,6
			C49.3,277.3,43.9,273,40.5,271.6z"/>
		<path class="st6" d="M40.5,271.6c3.4,1.4,8.9,5.7,7.6,19c-2.8,2.5-7.4,1-8.4-5.6C38.8,279.3,39.2,274.9,40.5,271.6z"/>
		<path class="st9" d="M111.4,288.9c0,0-3.9-1-6.4,2.7c0,0,0.5,0.8,1.4,1.1C106.4,292.7,107.1,289.3,111.4,288.9z"/>
	</g>
	<g>
		<path class="st5" d="M103.3,321.8c8.2-0.7,15.2-3.6,20.9-8.5c13-11.1,14.4-28.7,14.4-29.4c0.2-2.1-1.4-3.9-3.5-4.1
			c-2.1-0.2-3.9,1.4-4.1,3.5c0,0.3-1.3,15.3-11.8,24.2c-6.1,5.2-14.3,7.4-24.3,6.6c-2.1-0.2-3.9,1.4-4.1,3.5
			c-0.2,2.1,1.4,3.9,3.5,4.1C97.4,322.1,100.5,322.1,103.3,321.8z"/>
	</g>
	<g>
		<path class="st5" d="M25.9,353.6c0.3,2.9,0.8,5.8,1.6,8.9c0.5,2,2.6,3.2,4.7,2.7c2-0.5,3.2-2.6,2.7-4.7
			c-2.6-9.7-1.8-18.2,2.2-25.1c7-11.9,21.6-15.8,21.7-15.9c2-0.5,3.3-2.6,2.7-4.6c-0.5-2-2.6-3.3-4.6-2.8
			c-0.7,0.2-17.8,4.7-26.4,19.4C26.8,338,25.2,345.4,25.9,353.6z"/>
	</g>
</g>
<g>
	
		<radialGradient id="SVGID_2_" cx="627.8382" cy="180.4854" r="114.4851" gradientTransform="matrix(0.9976 6.860801e-02 -6.860801e-02 0.9976 19.4178 -41.6104)" gradientUnits="userSpaceOnUse">
		<stop  offset="0" style="stop-color:#574537"/>
		<stop  offset="0.6843" style="stop-color:#554335"/>
		<stop  offset="1" style="stop-color:#32241D"/>
	</radialGradient>
	<path class="st10" d="M739.8,302.3c-3.7-2.4,16.3-25,16.6-48.6c0.6-43.7-18.6-72.3-54.8-77.4c-18.9-2.6-49,11.1-53.9,15.1
		c-4.4,3.6-14,26.4-17.3,49.8l3.7-1.9c0,0-5.9,23.4,1.3,39.7c8.9,16.7,27.3,31,55.5,37c41.9,8.9,62.8-13.2,62.8-13.2
		S743.5,304.7,739.8,302.3z"/>
	
		<linearGradient id="SVGID_3_" gradientUnits="userSpaceOnUse" x1="264.7165" y1="105.1534" x2="264.7165" y2="57.4106" gradientTransform="matrix(-0.9276 0.3737 -0.3737 -0.9276 907.0197 245.2279)">
		<stop  offset="0" style="stop-color:#FCC58A"/>
		<stop  offset="0.3854" style="stop-color:#FAC287"/>
		<stop  offset="0.645" style="stop-color:#F6B97F"/>
		<stop  offset="0.8669" style="stop-color:#EDAA71"/>
		<stop  offset="1" style="stop-color:#E69D65"/>
	</linearGradient>
	<path class="st11" d="M664.7,292.9c-4.2-1.4-20.5-5.8-26.6-10.2c-3.9-2.8-17-15.7-17.1-20.4c-0.1-3.2,1.6-8.6,0.1-12.5
		c-1.5-3.9-6-8.8-6-8.8s-2.4,1-2.1,2.4c0.3,1.4,3.1,6.2,1.9,5.9c-1.2-0.3-7.2-7.3-9.5-12.4c0,0-3.7,1.8-3.6,4.7c0,0-2.4,1.3-2.1,3.9
		c0,0-1.7,3-0.9,5.3c0,0,3.4,8,6.1,10.5c4.1,3.8,4.5,4.3,8.5,8.2c6.3,6.2,15,15.4,24.3,21c6.2,3.7,26,8.7,28.4,8
		C668.6,297.8,666.7,293.6,664.7,292.9z"/>
	
		<linearGradient id="SVGID_4_" gradientUnits="userSpaceOnUse" x1="426.7037" y1="186.573" x2="426.7037" y2="138.8302" gradientTransform="matrix(0.8677 0.4971 0.4971 -0.8677 296.0654 203.2125)">
		<stop  offset="0" style="stop-color:#FCC58A"/>
		<stop  offset="0.3854" style="stop-color:#FAC287"/>
		<stop  offset="0.645" style="stop-color:#F6B97F"/>
		<stop  offset="0.8669" style="stop-color:#EDAA71"/>
		<stop  offset="1" style="stop-color:#E69D65"/>
	</linearGradient>
	<path class="st12" d="M710.6,293.5c4.4-0.8,21.1-2.9,27.7-6.4c4.3-2.3,19-13.3,19.8-17.8c0.5-3.1-0.5-8.7,1.6-12.4
		c2-3.6,7.1-7.9,7.1-7.9s2.2,1.3,1.8,2.7c-0.5,1.4-3.9,5.7-2.7,5.6c1.2-0.1,8.1-6.2,11.1-10.9c0,0,3.4,2.3,3,5.1
		c0,0,2.2,1.6,1.6,4.1c0,0,1.2,3.2,0.2,5.4c0,0-4.5,7.4-7.5,9.5c-4.6,3.2-5,3.6-9.6,7c-7.1,5.3-17,13.2-27,17.4
		c-6.7,2.8-26.9,5-29.3,4C706,297.9,708.5,293.9,710.6,293.5z"/>
	<g>
		
			<radialGradient id="SVGID_5_" cx="574.0801" cy="300.4431" r="162.9298" gradientTransform="matrix(0.9976 6.860801e-02 -6.860801e-02 0.9976 19.4178 -41.6104)" gradientUnits="userSpaceOnUse">
			<stop  offset="0.6503" style="stop-color:#DB1E27"/>
			<stop  offset="1" style="stop-color:#4E0F10"/>
		</radialGradient>
		<path class="st13" d="M683.5,315.2c12,0.8,21.5-0.3,30.7,27.6c5.6,17.1-2.1,23.4-2.1,23.4l-61.7-4.2c0,0-2.2-3.2-0.1-14.7
			C653.8,328.2,664.7,313.9,683.5,315.2z"/>
		<path class="st14" d="M702.4,320.8c-6.4-5.9-13-5.2-20.2-5.7c-7.7-0.5-12,1-17.5,5.2c3,2,7.5,4.8,17.6,5.5
			C691.1,326.5,697.5,323.6,702.4,320.8z"/>
		
			<radialGradient id="SVGID_6_" cx="665.8874" cy="253.7631" r="80.443" gradientTransform="matrix(0.9975 6.860115e-02 -6.860801e-02 0.9976 19.3567 -41.6146)" gradientUnits="userSpaceOnUse">
			<stop  offset="0.6503" style="stop-color:#DB1E27"/>
			<stop  offset="1" style="stop-color:#4E0F10"/>
		</radialGradient>
		<path class="st15" d="M652.1,284.8c0,0,56.1,1.3,68.5,2.6c0,0-5.9,23.2-22.3,31.5c-12,6-26.3,2.3-34.1-4.1
			C654.4,306.8,652.1,284.8,652.1,284.8z"/>
		
			<linearGradient id="SVGID_7_" gradientUnits="userSpaceOnUse" x1="687.1525" y1="302.9276" x2="687.1525" y2="283.66" gradientTransform="matrix(0.9976 6.860801e-02 -6.860801e-02 0.9976 19.4178 -41.6104)">
			<stop  offset="0" style="stop-color:#FCC58A"/>
			<stop  offset="0.2848" style="stop-color:#F9C287"/>
			<stop  offset="0.4764" style="stop-color:#F0BA7F"/>
			<stop  offset="0.5773" style="stop-color:#E8B277"/>
			<stop  offset="0.908" style="stop-color:#CE985E"/>
		</linearGradient>
		<path class="st16" d="M674.7,280.7c0.3,1.2,3.5,20.1,8,21.3c2.1,0.6,11.4-15.7,14.8-21.4L674.7,280.7z"/>
		<polygon class="st17" points="676.8,290.5 670.2,295 668.9,285.6 674.7,280.7 		"/>
		<polygon class="st17" points="691.3,291.7 697.6,295.9 703.7,279.1 696.2,280.1 		"/>
	</g>
	
		<radialGradient id="SVGID_8_" cx="800.2302" cy="215.5686" r="66.0895" gradientTransform="matrix(0.9603 3.055396e-02 -2.777057e-02 0.9621 -94.0217 -21.3895)" gradientUnits="userSpaceOnUse">
		<stop  offset="0" style="stop-color:#FCC58A"/>
		<stop  offset="0.575" style="stop-color:#FCC289"/>
		<stop  offset="0.962" style="stop-color:#FBB986"/>
		<stop  offset="1" style="stop-color:#FBB885"/>
	</radialGradient>
	<path class="st18" d="M695.1,184.8c13.6,1.6,24.1,11.1,30.9,29.4c4.2,11.3,10.6,44.9-2.9,58.8c-8.6,8.8-20.7,14.3-35.5,13.2
		c-12-0.8-32.6-6.1-39.6-19.2c-6.3-11.8-2.2-30.9,3.3-48.3C661.2,186.7,683.8,183.4,695.1,184.8z"/>
	<g>
		<path class="st19" d="M698.8,200.6c-20.6-8.1-27.6-13.4-34.9-1.5c-0.8,1.3-3.9,1.2-4.6,2.6c1,7.1,14.1,13.3,19.5,16.1
			c0,0,0.8-8.6,1.8-7.3c19.8,24.5,28.8,31.5,48.6,34.4C730.6,237.2,719.4,208.7,698.8,200.6z"/>
	</g>
	
		<radialGradient id="SVGID_9_" cx="637.764" cy="185.6826" r="102.9556" gradientTransform="matrix(0.9976 6.860801e-02 -6.860801e-02 0.9976 19.4178 -41.6104)" gradientUnits="userSpaceOnUse">
		<stop  offset="0" style="stop-color:#574537"/>
		<stop  offset="0.6843" style="stop-color:#554335"/>
		<stop  offset="1" style="stop-color:#32241D"/>
	</radialGradient>
	<path class="st20" d="M736.1,276.5c0,0-22-22.1-11.1-51.2c0,0,17.7,2.9,18.8,3.2C739.3,251.5,737,261.2,736.1,276.5z"/>
	<path class="st21" d="M672.6,265.2c0,0,4.4,3.4,11.4,4.4c9.8,1.4,17-3.2,17-3.2"/>
	<path class="st22" d="M655.8,256.8c-0.2,2.8,1.9,5.2,4.7,5.4c2.8,0.2,5.2-1.9,5.4-4.7c0.2-2.8-1.9-5.2-4.7-5.4
		C658.4,251.9,656,254,655.8,256.8z"/>
	<path class="st22" d="M709,260.5c-0.2,2.8,1.9,5.2,4.7,5.4c2.8,0.2,5.2-1.9,5.4-4.7c0.2-2.8-1.9-5.2-4.7-5.4
		C711.7,255.5,709.2,257.7,709,260.5z"/>
	<g>
		<path class="st19" d="M717.7,245.9c-0.3,4.1-3.8,7.1-7.8,6.8c-4.1-0.3-7.1-3.8-6.8-7.9c0.3-4.1,3.8-7.1,7.9-6.8
			C714.9,238.4,718,241.9,717.7,245.9z"/>
		
			<radialGradient id="SVGID_10_" cx="1774.9274" cy="238.4279" r="6.5095" gradientTransform="matrix(0.9976 6.860801e-02 -6.860801e-02 0.9976 -1043.9769 -114.7401)" gradientUnits="userSpaceOnUse">
			<stop  offset="0" style="stop-color:#333333"/>
			<stop  offset="0.4558" style="stop-color:#313131"/>
			<stop  offset="0.7002" style="stop-color:#292929"/>
			<stop  offset="0.8938" style="stop-color:#1B1B1B"/>
			<stop  offset="1" style="stop-color:#101010"/>
		</radialGradient>
		<path class="st23" d="M716.9,245.3c-0.2,3.6-3.4,6.3-6.9,6c-3.6-0.2-6.3-3.4-6-6.9c0.2-3.6,3.4-6.3,6.9-6
			C714.4,238.7,717.2,241.8,716.9,245.3z"/>
		<path class="st5" d="M705.9,241.5c-0.9,1.3-0.6,3,0.5,3.7c1.1,0.7,2.8,0.3,3.6-1c0.9-1.3,0.6-3-0.5-3.7
			C708.4,239.7,706.8,240.1,705.9,241.5z"/>
	</g>
	<g>
		<path class="st24" d="M719,246.8c0,0,2.7,1.4,3.9,0.5c1.2-0.9,0-2.3,0-2.3s-2.9,0.9-4,0.6L719,246.8z"/>
		<path class="st24" d="M717.5,240.9c0,0,3.3,0.1,4.2-1.2c0.9-1.3-0.9-2.1-0.9-2.1s-2.7,2-3.8,2.2L717.5,240.9z"/>
		<path class="st24" d="M715.1,236.1c0,0,3-1.7,3.1-3.4c0.1-1.6-1.9-1.3-1.9-1.3s-1.3,3.2-2.2,4L715.1,236.1z"/>
	</g>
	<g>
		<g>
			<path class="st24" d="M656,241.3c0,0-2.9,1-4-0.1c-1.1-1.1,0.3-2.2,0.3-2.2s2.8,1.3,3.9,1.2L656,241.3z"/>
			<path class="st24" d="M658.3,235.7c0,0-3.3-0.4-4-1.8c-0.7-1.4,1.2-1.9,1.2-1.9s2.3,2.4,3.5,2.8L658.3,235.7z"/>
			<path class="st24" d="M661.5,231.3c0,0-2.7-2.2-2.5-3.8c0.2-1.6,2.1-1,2.1-1s0.8,3.4,1.6,4.3L661.5,231.3z"/>
		</g>
		<g>
			<path class="st19" d="M656,241.7c-0.3,4.1,2.8,7.6,6.8,7.9c4.1,0.3,7.6-2.8,7.9-6.8c0.3-4.1-2.8-7.6-6.8-7.8
				C659.8,234.6,656.3,237.6,656,241.7z"/>
			
				<radialGradient id="SVGID_11_" cx="-995.2175" cy="238.4279" r="6.5095" gradientTransform="matrix(-0.9976 -6.860801e-02 -6.860801e-02 0.9976 -313.0948 -64.4773)" gradientUnits="userSpaceOnUse">
				<stop  offset="0" style="stop-color:#333333"/>
				<stop  offset="0.4558" style="stop-color:#313131"/>
				<stop  offset="0.7002" style="stop-color:#292929"/>
				<stop  offset="0.8938" style="stop-color:#1B1B1B"/>
				<stop  offset="1" style="stop-color:#101010"/>
			</radialGradient>
			<path class="st25" d="M656.9,241.2c-0.2,3.6,2.5,6.7,6,6.9c3.6,0.2,6.7-2.5,6.9-6c0.2-3.6-2.5-6.7-6-6.9
				C660.3,234.9,657.2,237.6,656.9,241.2z"/>
			<path class="st5" d="M658.9,238.2c-0.9,1.3-0.6,3,0.5,3.7c1.1,0.7,2.8,0.3,3.6-1c0.9-1.3,0.6-3-0.5-3.7
				C661.4,236.4,659.8,236.9,658.9,238.2z"/>
		</g>
	</g>
	
		<radialGradient id="SVGID_12_" cx="595.9211" cy="208.7943" r="134.8524" gradientTransform="matrix(0.9976 6.860801e-02 -6.860801e-02 0.9976 19.4178 -41.6104)" gradientUnits="userSpaceOnUse">
		<stop  offset="0" style="stop-color:#574537"/>
		<stop  offset="0.6843" style="stop-color:#554335"/>
		<stop  offset="1" style="stop-color:#32241D"/>
	</radialGradient>
	<path class="st26" d="M656,198.7c1.2,3.6,15.8,15.7,21.6,16.4c1.5,0.2-4.1-13.6-2.9-12.4c9.4,9.4,26.5,27.3,40.6,34.9
		c21.9,11.8,27,19.5,34.9,18.1c0,0,5.3-48.7-27.2-64.3C707.6,184,674.8,173.3,656,198.7z"/>
	<g>
		<path class="st27" d="M650.5,198.5c-0.9,1.6-2,3.1-2.2,3.4c-5.5,8.5-9.6,18.9-12.7,28.5c-0.4-4.8,2.1-10,3.7-14.4
			c2.1-5.6,4.2-11.4,7.1-16.7c0.5-0.9,2.7-5.6,4.1-5.4C652.5,194.2,651.7,196.5,650.5,198.5z"/>
	</g>
	<path class="st28" d="M671.7,190.2c7.1,5.4,20.9,31.4,45.7,39.3c0,0-13.4-5.5-27.1-22.6C676.7,189.6,676.4,187.7,671.7,190.2z"/>
	<polygon class="st29" points="725.4,273.7 722.1,267.6 726.3,260.6 733.6,259.6 736.8,265.7 732.7,272.8 	"/>
	<polygon class="st29" points="647.7,268.4 651.8,262.8 648.7,255.2 641.5,253.3 637.5,258.9 640.6,266.4 	"/>
</g>
<g class="st30">
	<g>
		<path class="st5" d="M215.5,429.2c-3.4,0-6.8-1.3-9.4-3.9c-5.2-5.2-5.2-13.6,0-18.7l143.3-143.9c5.2-5.2,13.6-5.2,18.7,0
			c5.2,5.2,5.2,13.6,0,18.7L224.8,425.3C222.3,427.9,218.9,429.2,215.5,429.2z"/>
	</g>
	<g>
		<path class="st5" d="M574.2,70.4c-3.4,0-6.8-1.3-9.4-3.9c-5.2-5.2-5.2-13.6,0-18.7L708.2-96.1c5.2-5.2,13.6-5.2,18.7,0
			c5.2,5.2,5.2,13.6,0,18.7L583.6,66.5C581,69.1,577.6,70.4,574.2,70.4z"/>
	</g>
	<g>
		<path class="st5" d="M111.3,178.1c-7.3,0-13.2-5.9-13.3-13.2c0-7.3,5.9-13.3,13.2-13.3l203.1-0.4c0,0,0,0,0,0
			c7.3,0,13.2,5.9,13.3,13.2c0,7.3-5.9,13.3-13.2,13.3L111.3,178.1C111.3,178.1,111.3,178.1,111.3,178.1z"/>
	</g>
	<g>
		<path class="st5" d="M618.7,178.1c-7.3,0-13.2-5.9-13.3-13.2c0-7.3,5.9-13.3,13.2-13.3l203.1-0.4c0,0,0,0,0,0
			c7.3,0,13.2,5.9,13.3,13.2c0,7.3-5.9,13.3-13.2,13.3L618.7,178.1C618.7,178.1,618.7,178.1,618.7,178.1z"/>
	</g>
	<g>
		<path class="st5" d="M359.1,70.2c-3.4,0-6.8-1.3-9.4-3.9L205.8-77c-5.2-5.2-5.2-13.6,0-18.7c5.2-5.2,13.6-5.2,18.7,0L368.4,47.5
			c5.2,5.2,5.2,13.6,0,18.7C365.9,68.9,362.5,70.2,359.1,70.2z"/>
	</g>
	<g>
		<path class="st5" d="M717.8,428.9c-3.4,0-6.8-1.3-9.4-3.9L564.6,281.7c-5.2-5.2-5.2-13.6,0-18.7c5.2-5.2,13.6-5.2,18.7,0
			l143.9,143.3c5.2,5.2,5.2,13.6,0,18.7C724.6,427.6,721.2,428.9,717.8,428.9z"/>
	</g>
	<g>
		<path class="st5" d="M466.7,25.7c-7.3,0-13.2-5.9-13.3-13.2l-0.4-203.1c0-7.3,5.9-13.3,13.2-13.3c0,0,0,0,0,0
			c7.3,0,13.2,5.9,13.3,13.2L480,12.4C480,19.8,474,25.7,466.7,25.7C466.7,25.7,466.7,25.7,466.7,25.7z"/>
	</g>
	<g>
		<path class="st5" d="M466.7,533.1c-7.3,0-13.2-5.9-13.3-13.2l-0.4-203.1c0-7.3,5.9-13.3,13.2-13.3c0,0,0,0,0,0
			c7.3,0,13.2,5.9,13.3,13.2l0.4,203.1C480,527.2,474,533.1,466.7,533.1C466.7,533.1,466.7,533.1,466.7,533.1z"/>
	</g>
</g>
<g>
	<g>
		<g>
			<g>
				<g>
					
						<pattern  id="SVGID_13_" xlink:href="#New_Pattern_2" patternTransform="matrix(0.6517 0.1718 -0.1718 0.6517 -2973.7593 -2561.5608)">
					</pattern>
					<path class="st31" d="M309,276c0,0,71.1,55.6,119.1-25"/>
					
						<radialGradient id="SVGID_14_" cx="404.2494" cy="234.0839" r="26.2707" gradientTransform="matrix(-1 0 0 1 841.4284 0)" gradientUnits="userSpaceOnUse">
						<stop  offset="0" style="stop-color:#FCC58A"/>
						<stop  offset="0.575" style="stop-color:#FCC289"/>
						<stop  offset="0.962" style="stop-color:#FBB986"/>
						<stop  offset="1" style="stop-color:#FBB885"/>
					</radialGradient>
					<path class="st32" d="M433.8,254.2c0,0-16.5-3-17.7-14.2c-0.9-8.3-10.2-21.8-10.2-21.8s0.8-3.7,6.5-4.2c4.2-0.4,8,10.1,8,10.1
						s7.1,3.8,16.4,3.5c10.6-0.3,24-4.4,31.7,1l-7.5,17.7C460.9,246.3,448.8,254.5,433.8,254.2z"/>
				</g>
				<g>
					<g>
						<g>
							
								<radialGradient id="SVGID_15_" cx="-111.8935" cy="289.8448" r="14.4614" gradientTransform="matrix(0.9669 0.255 -0.255 0.9669 505.1055 -45.5613)" gradientUnits="userSpaceOnUse">
								<stop  offset="0" style="stop-color:#FCC58A"/>
								<stop  offset="0.575" style="stop-color:#FCC289"/>
								<stop  offset="0.962" style="stop-color:#FBB986"/>
								<stop  offset="1" style="stop-color:#FBB885"/>
							</radialGradient>
							<path class="st33" d="M312.1,197.6c3.7-6.5,11.8-8.8,18.1-5.2c6.3,3.6,8.5,11.8,4.8,18.3c-2.9,5.2-8.7,7.7-14.1,6.7
								c-1.7,2.7-5.2,3.7-7.9,2.2c-2.8-1.6-3.8-5.2-2.1-8.1c0.2-0.4,0.5-0.8,0.8-1.1C309.8,206.5,309.8,201.7,312.1,197.6z"/>
							<g>
								<path class="st34" d="M322.9,199.3c5.1-1.2,8.7,3.6,8.7,3.6s-2.6-7.4-9-6c-6.3,1.5-7.1,8.9-7.1,8.9S317.4,200.7,322.9,199.3
									z"/>
								<path class="st34" d="M320.8,206.7c-3.3-3.9-4.7-2-4.7-2s1.1-4.4,5.8,1.8c2.6,3.5-1.1,5.8-1.1,5.8S323.4,209.7,320.8,206.7z
									"/>
							</g>
						</g>
						
							<linearGradient id="SVGID_16_" gradientUnits="userSpaceOnUse" x1="-137.1623" y1="230.9358" x2="-121.4262" y2="289.0325" gradientTransform="matrix(0.9669 0.255 -0.255 0.9669 505.1055 -45.5613)">
							<stop  offset="0" style="stop-color:#574537"/>
							<stop  offset="0.5758" style="stop-color:#433329"/>
							<stop  offset="1" style="stop-color:#32241D"/>
						</linearGradient>
						<path class="st35" d="M304.6,155.1c0,0,13.2,25.4,10.8,47.5c0,0,17-12.2-0.1-58.4L304.6,155.1z"/>
						
							<radialGradient id="SVGID_17_" cx="-180.8783" cy="311.3377" r="73.0281" gradientTransform="matrix(0.9669 0.255 -0.255 0.9669 505.1055 -45.5613)" gradientUnits="userSpaceOnUse">
							<stop  offset="0" style="stop-color:#FCC58A"/>
							<stop  offset="0.575" style="stop-color:#FCC289"/>
							<stop  offset="0.962" style="stop-color:#FBB986"/>
							<stop  offset="1" style="stop-color:#FBB885"/>
						</radialGradient>
						<path class="st36" d="M204.5,272.5c0,0-2.7-2.1-4.7-8.5c-6.6-20.6-12.5-100.6-12.5-100.6l27.8-29.8l93.6,15.6
							c0,0,8,29.7,7.9,55.7c-0.1,16.2,0.1,34.7-1.7,46.9c-1.3,8.9-4.6,14.1-4.6,14.1S272.6,287.3,204.5,272.5z"/>
						
							<linearGradient id="SVGID_18_" gradientUnits="userSpaceOnUse" x1="-259.8505" y1="265.3173" x2="-244.1755" y2="323.1882" gradientTransform="matrix(0.9669 0.255 -0.255 0.9669 505.1055 -45.5613)">
							<stop  offset="0" style="stop-color:#574537"/>
							<stop  offset="0.5758" style="stop-color:#433329"/>
							<stop  offset="1" style="stop-color:#32241D"/>
						</linearGradient>
						<path class="st37" d="M181.5,146.2l16.9,21.7c0,0,7.9,27.2-13.8,36.4C184.6,204.3,160.6,168.1,181.5,146.2z"/>
						
							<linearGradient id="SVGID_19_" gradientUnits="userSpaceOnUse" x1="-178.6095" y1="339.4062" x2="-155.5035" y2="424.7122" gradientTransform="matrix(0.9438 0.3304 -0.3304 0.9438 537.7888 -175.7614)">
							<stop  offset="0" style="stop-color:#574537"/>
							<stop  offset="0.5758" style="stop-color:#433329"/>
							<stop  offset="1" style="stop-color:#32241D"/>
						</linearGradient>
						<path class="st38" d="M181.4,146.7c0,0,22.1-51,68.6-52.5c0,0-10.1,8.7-10.6,11.9c0,0,12.9-8.2,25.7-9.3
							c17.6-1.5,37.5,19.2,49.9-5c0,0,8.3,11.5,1.3,24.3c0,0,6.2-3.5,7.8-10.7c0,0,6.5,19.8-10.2,33.7c0,0,7.3-1.3,11.4-9.4
							c0,0-14.1,57.8-127.5,38.2L181.4,146.7z"/>
						<path class="st39" d="M253.8,101.5c24.2-8.2,27.5,5.9,46.8,4.2c8.4-0.7,11.3-5.7,11.3-5.7c-13.7,22.5-31.9-2.7-57.9,1.6
							L253.8,101.5z"/>
						<path class="st40" d="M226.1,226.1c-0.8,3.4-4.3,5.4-7.7,4.6c-3.4-0.8-5.4-4.3-4.6-7.7c0.8-3.4,4.3-5.4,7.7-4.6
							C224.9,219.3,226.9,222.7,226.1,226.1z"/>
						<path class="st40" d="M306.4,221.5c-0.8,3.4-4.3,5.4-7.7,4.6c-3.4-0.8-5.4-4.3-4.6-7.7c0.8-3.4,4.3-5.4,7.7-4.6
							C305.2,214.7,307.3,218.1,306.4,221.5z"/>
						<g>
							
								<radialGradient id="SVGID_20_" cx="282.7572" cy="-363.4292" r="10.1053" gradientTransform="matrix(1 -3.444892e-03 3.444892e-03 1 -48.7846 562.2458)" gradientUnits="userSpaceOnUse">
								<stop  offset="0" style="stop-color:#454545"/>
								<stop  offset="1" style="stop-color:#101010"/>
							</radialGradient>
							<path class="st41" d="M241.5,198.2c0,4.8-3.9,8.8-8.7,8.8c-4.8,0-8.8-3.9-8.8-8.7c0-4.8,3.9-8.8,8.7-8.8
								C237.6,189.4,241.5,193.3,241.5,198.2z"/>
							<path class="st5" d="M238.3,195.1c0,1.7-1.4,3.1-3.1,3.1c-1.7,0-3.1-1.4-3.1-3.1c0-1.7,1.4-3.1,3.1-3.1
								C236.9,192,238.3,193.4,238.3,195.1z"/>
						</g>
						<g>
							
								<radialGradient id="SVGID_21_" cx="341.3079" cy="-363.2275" r="10.1053" gradientTransform="matrix(1 -3.444892e-03 3.444892e-03 1 -48.7846 562.2458)" gradientUnits="userSpaceOnUse">
								<stop  offset="0" style="stop-color:#454545"/>
								<stop  offset="1" style="stop-color:#101010"/>
							</radialGradient>
							<path class="st42" d="M300.1,198.2c0,4.8-3.9,8.8-8.7,8.8c-4.8,0-8.8-3.9-8.8-8.7c0-4.8,3.9-8.8,8.7-8.8
								C296.1,189.4,300.1,193.3,300.1,198.2z"/>
							<path class="st5" d="M296.9,195.1c0,1.7-1.4,3.1-3.1,3.1c-1.7,0-3.1-1.4-3.1-3.1c0-1.7,1.4-3.1,3.1-3.1
								C295.5,192,296.9,193.4,296.9,195.1z"/>
						</g>
						<path class="st43" d="M280.1,175.2c0,0,14.2-6.3,23.2,8"/>
						<path class="st43" d="M216.7,186.6c0,0,6.9-13.9,22.9-8.8"/>
						<path class="st44" d="M320.1,179c-7.9-0.2-10.8-2.1-26.6-1.3c-12.3,0.6-19.7,3.3-32,3.9l-0.1,0c-12.3,0.6-19.9-1.4-32.2-0.9
							c-15.8,0.7-18.5,2.7-26.4,3.7c-0.7,0.1-1.3,0.7-1.2,1.9c0.1,2,0.3,3.9,0.4,5.7c0.1,1.6,1.4,1.4,2.3,3.3
							c2.8,6,2.2,16.2,8.5,21.3c1.8,1.4,5,3.2,8,3.3c14.5,0.7,27,1,31.9-14c1-3.1,2.5-5.7,3.5-10.3c1.5-3.2,1.6-2.6,5.6-2.9
							c4,0,4.1-0.6,5.9,2.4c1.4,4.5,3.2,6.9,4.5,9.9c6.2,14.5,18.7,13,33.1,11c3-0.4,6-2.5,7.6-4.1c5.8-5.6,4.3-15.7,6.5-22
							c0.7-2,2.1-1.8,2-3.5c-0.1-1.8,0-3.6-0.1-5.7C321.5,179.6,320.8,179,320.1,179z M252.9,200.1c-1.3,5.5-3.5,11.1-8.1,14.3
							c-3.2,2.2-7.7,3.6-12.8,4c-15.1,1-21.5-3.7-22.2-16.5c-0.3-6-1.7-11.5,1.7-14.6c3.7-3.4,12.5-3.9,19-4.2
							c6.7-0.3,17.4,0.3,21.4,3.9C255.3,190.1,254.1,195,252.9,200.1z M314.8,197c0.5,12.8-5.4,18-20.5,18.5
							c-5.2,0.2-9.8-0.8-13.1-2.8c-4.9-2.8-7.6-8.1-9.4-13.5c-1.6-5-3.4-9.8-0.3-13.1c3.7-4,14.2-5.6,21-5.9
							c6.5-0.3,15.3-0.6,19.3,2.4C315.4,185.3,314.6,190.9,314.8,197z"/>
						<polygon class="st44" points="202,185.6 190.2,200.7 193.4,204.2 203.5,193.4 						"/>
						<g>
							
								<radialGradient id="SVGID_22_" cx="-240.6151" cy="339.8425" r="14.1382" gradientTransform="matrix(0.8853 0.4651 -0.4651 0.8853 557.8893 24.4793)" gradientUnits="userSpaceOnUse">
								<stop  offset="0" style="stop-color:#FCC58A"/>
								<stop  offset="0.575" style="stop-color:#FCC289"/>
								<stop  offset="0.962" style="stop-color:#FBB986"/>
								<stop  offset="1" style="stop-color:#FBB885"/>
							</radialGradient>
							<path class="st45" d="M197.7,207.9c-2.7-6.9-10.4-10.4-17.2-7.8c-6.8,2.6-10.1,10.4-7.4,17.4c2.2,5.5,7.5,8.9,13,8.7
								c1.3,3,4.6,4.4,7.5,3.3c3-1.2,4.5-4.6,3.3-7.7c-0.2-0.4-0.4-0.8-0.6-1.2C198.8,217,199.5,212.3,197.7,207.9z"/>
							<g>
								<path class="st34" d="M186.8,208.1c-4.8-1.9-9.1,2.3-9.1,2.3s3.7-7,9.8-4.6c6.1,2.4,5.7,9.8,5.7,9.8
									S192.1,210.2,186.8,208.1z"/>
								<path class="st34" d="M187.8,215.6c3.8-3.4,5-1.3,5-1.3s-0.4-4.5-6,1c-3.1,3,0.2,5.9,0.2,5.9S184.8,218.3,187.8,215.6z"/>
							</g>
						</g>
						<pattern  id="SVGID_23_" xlink:href="#New_Pattern" patternTransform="matrix(1.115 0.294 -0.294 1.115 186.6162 2224.1328)">
						</pattern>
						<path class="st46" d="M311.7,262.9c0,0,12.2,45.7-3.2,106.8c0,0-15.6,18.2-104-3.4c0,0,1.5,2.8,3.3-20.4
							c1.9-24.5-3.5-73.6-3.5-73.6S281.2,285.9,311.7,262.9z"/>
						<path class="st5" d="M276,274.8c-6.4,0.7-13.8,1.2-13.8,1.2l13.6,17.3c0,0,6.3-9,10.7-20.2C286.5,273.2,281.7,274.2,276,274.8
							z"/>
					</g>
				</g>
				<path class="st43" d="M274.7,233.7c0,0-11,11-24.5,1"/>
			</g>
		</g>
	</g>
	
		<pattern  id="SVGID_24_" xlink:href="#New_Pattern_2" patternTransform="matrix(0.6517 0.1718 -0.1718 0.6517 -3193.7593 -2547.5608)">
	</pattern>
	<path class="st47" d="M170.8,374.3c0,0-26.7-74,42-92.7"/>
	<g>
		<g>
			<g>
				<linearGradient id="SVGID_25_" gradientUnits="userSpaceOnUse" x1="407.8333" y1="170.3333" x2="407.8333" y2="292.3497">
					<stop  offset="0" style="stop-color:#F15A24"/>
					<stop  offset="1" style="stop-color:#FF931E"/>
				</linearGradient>
				<polygon class="st48" points="347.3,149.3 347.3,229.3 468.3,274.3 468.3,193.3 				"/>
				<linearGradient id="SVGID_26_" gradientUnits="userSpaceOnUse" x1="404.3333" y1="129" x2="404.3333" y2="209">
					<stop  offset="0" style="stop-color:#F15A24"/>
					<stop  offset="1" style="stop-color:#FF931E"/>
				</linearGradient>
				<polygon class="st49" points="340.3,96.3 340.3,151.3 468.3,198.3 468.3,142.3 				"/>
				<linearGradient id="SVGID_27_" gradientUnits="userSpaceOnUse" x1="528.8333" y1="177" x2="528.8333" y2="274.3333">
					<stop  offset="0" style="stop-color:#F15A24"/>
					<stop  offset="1" style="stop-color:#FF931E"/>
				</linearGradient>
				<polygon class="st50" points="589.3,149.3 589.3,229.3 468.3,274.3 468.3,193.3 				"/>
				<linearGradient id="SVGID_28_" gradientUnits="userSpaceOnUse" x1="532.3333" y1="139.6667" x2="532.3333" y2="204.3471">
					<stop  offset="0" style="stop-color:#F15A24"/>
					<stop  offset="1" style="stop-color:#FF931E"/>
				</linearGradient>
				<polygon class="st51" points="596.3,96.3 596.3,151.3 468.3,198.3 468.3,142.3 				"/>
				<polygon class="st52" points="468.1,48.3 340.3,96.3 468.3,142.3 596.3,96.3 				"/>
			</g>
			<g>
				<polygon class="st53" points="409.1,121.1 394.7,115.9 521.3,68.2 535.6,73.6 				"/>
			</g>
			<g>
				<polygon class="st53" points="527.7,121.1 542.1,115.9 415.3,68.2 401,73.5 				"/>
			</g>
			<g>
				<polygon class="st53" points="409.3,252.2 394.3,247 394.3,115.9 409.3,121.1 				"/>
			</g>
			<g>
				<polygon class="st53" points="527.3,252.2 542.3,247 542.3,115.9 527.3,121.1 				"/>
			</g>
		</g>
		<g>
			<path class="st54" d="M435.8,262.2c0.6-10.7,3.2-23.7,10.1-37.6c15.1-30.4,24.9-45.6,6.4-87.4c-12.9-29.1,13.2-40.6,13.2-40.6
				l-3.3-2c0,0-36.3,7.6-16.3,53.9c16.4,38-18.9,75.3-23.5,108.7"/>
			<linearGradient id="SVGID_29_" gradientUnits="userSpaceOnUse" x1="488.9753" y1="140.8877" x2="436.9233" y2="199.5289">
				<stop  offset="0" style="stop-color:#EC2C28"/>
				<stop  offset="0.2368" style="stop-color:#BC2220"/>
				<stop  offset="0.5208" style="stop-color:#EC2C28"/>
				<stop  offset="0.7561" style="stop-color:#BC2220"/>
				<stop  offset="1" style="stop-color:#EC2C28"/>
			</linearGradient>
			<path class="st55" d="M467.5,85.8c0,0-36.3,7.6-16.3,53.9c18.6,42.9-28.9,84.9-23.6,121.5l15.9,18.3c0,0-9.4-29.4,7.7-63.7
				c15.1-30.4,24.9-45.6,6.4-87.4c-12.9-29.1,15.2-35,15.2-35L467.5,85.8z"/>
			<path class="st54" d="M575.5,234.4c-1.1-10-0.9-23,1.6-39.9c8.4-55.6-27.4-35.8-65.6-46c-22.4-6-28.8-48.6-22.2-55.6l-12-0.8
				c0,0-0.8,51.4,21.4,64c25.1,14.2,61.7-7.4,64.2,30.9c1.3,20.5-7.3,34.4-2.8,53.3"/>
			<linearGradient id="SVGID_30_" gradientUnits="userSpaceOnUse" x1="579.225" y1="225.9223" x2="494.5426" y2="75.3755">
				<stop  offset="0" style="stop-color:#EC2C28"/>
				<stop  offset="0.2368" style="stop-color:#BC2220"/>
				<stop  offset="0.5208" style="stop-color:#EC2C28"/>
				<stop  offset="0.7561" style="stop-color:#BC2220"/>
				<stop  offset="1" style="stop-color:#EC2C28"/>
			</linearGradient>
			<path class="st56" d="M481.7,91.7c0,0-1.6,44.7,20.6,57.2c25.1,14.2,61.7-7.4,64.2,30.9c1.8,27.3-14.1,42.8,6.8,73.8l21.4,5.9
				c0,0-23.6-9-14.1-72c8.4-55.6-27.4-35.8-65.6-46c-22.4-6-25.9-43.8-19.2-50.8L481.7,91.7z"/>
			<g>
				<g>
					<g>
						<g>
							<polygon class="st53" points="463.1,83.3 396.7,82.7 400.7,112.8 465.5,96.6 							"/>
							<path class="st53" d="M463.6,83.4c0,0-64.7,16.8-66.8-0.2C394.7,66.2,463.6,83.4,463.6,83.4z"/>
							<path class="st57" d="M465.5,96.6c0,0-62.7,33.2-64.8,16.2C398.6,95.8,465.5,96.6,465.5,96.6z"/>
						</g>
						<g>
							<path class="st53" d="M481.2,81.8c0,0,65.4,4.2,64.2-12.9C544.3,51.8,481.2,81.8,481.2,81.8z"/>
						</g>
					</g>
				</g>
				<polygon class="st53" points="479.9,81.8 545.5,68.9 546,102.9 480.5,93.7 				"/>
				<path class="st57" d="M480.5,93.7c0,0,64.1,26.2,65.6,9.2C547.5,85.9,480.5,93.7,480.5,93.7z"/>
				<path class="st57" d="M464.9,88.4c0,0-3-0.7-7.7-0.7c-8.2,0-13.4,1.6-13.4,1.6s5.6-0.9,13.4,0.6c3.5,0.6,8.1,2.6,8.1,2.6
					L464.9,88.4z"/>
				<path class="st57" d="M482.8,85.7c0,0,3-1,7.6-1.4c8.1-0.7,13.5,0.4,13.5,0.4s-5.7-0.4-13.3,1.7c-3.5,0.9-7.8,3.3-7.8,3.3
					L482.8,85.7z"/>
				
					<linearGradient id="SVGID_31_" gradientUnits="userSpaceOnUse" x1="997.8398" y1="2979.1216" x2="997.8398" y2="3009.7102" gradientTransform="matrix(0.9954 -9.600000e-02 6.010000e-02 0.6229 -700.0704 -1682.0457)">
					<stop  offset="0" style="stop-color:#EC2C28"/>
					<stop  offset="1" style="stop-color:#BC2220"/>
				</linearGradient>
				<path class="st58" d="M484.7,95.3c0.1,1.2-1.4,2.4-3.3,2.6l-14.3,1.4c-2,0.2-3.6-0.6-3.7-1.9l-1.4-15c-0.1-1.2,1.4-2.4,3.3-2.6
					l14.3-1.4c2-0.2,3.6,0.6,3.7,1.9L484.7,95.3z"/>
			</g>
		</g>
	</g>
</g>
</svg>
