<?xml version="1.0" encoding="utf-8"?>
<!-- Generator: Adobe Illustrator 20.1.0, SVG Export Plug-In . SVG Version: 6.00 Build 0)  -->
<svg version="1.1" id="Layer_1" xmlns="http://www.w3.org/2000/svg" xmlns:xlink="http://www.w3.org/1999/xlink" x="0px" y="0px"
	 width="30px" height="30px" viewBox="0 0 30 30" enable-background="new 0 0 30 30" xml:space="preserve">
<g>
	<path fill="#55A63E" d="M15,0C6.7,0,0,6.7,0,15c0,8.3,6.7,15,15,15s15-6.7,15-15C30,6.7,23.3,0,15,0z"/>
	<g>
		<g>
			<path fill="#FFFFFF" d="M21.4,9.7l-3.8-2.4c0.2-0.5,0.3-1,0.3-1.6c0-1.9-1.3-3.5-2.9-3.5c-1.6,0-2.9,1.6-2.9,3.5
				c0,0.5,0.1,1.1,0.3,1.6L8.7,9.7C8.5,9.8,8.5,10,8.5,10.1V25c0,0.2,0.2,0.5,0.5,0.5h12.2c0.2,0,0.5-0.2,0.5-0.5V10.1
				C21.6,9.9,21.5,9.8,21.4,9.7z M13.1,5.7c0-1.4,0.9-2.6,2-2.6c1.1,0,2,1.2,2,2.6c0,0.4-0.1,0.8-0.2,1.1l-1.6-1
				c-0.2-0.1-0.3-0.1-0.5,0l-1.6,1C13.1,6.4,13.1,6.1,13.1,5.7z M20.7,24.6H9.4V10.4l3.9-2.5l0,0l0,0l1.8-1.2l1.3,0.9
				C16.3,7.7,16.1,7.9,16,8c-0.2-0.2-0.6-0.3-0.9-0.3c-0.5,0-0.9,0.2-1.2,0.5c0,0-0.1,0.1-0.1,0.1c-0.2,0.2-0.3,0.5-0.3,0.9
				c0,0.9,0.7,1.5,1.5,1.5c0.9,0,1.5-0.7,1.5-1.5c0-0.2,0-0.3-0.1-0.5c0.2-0.2,0.5-0.4,0.7-0.6l3.5,2.3L20.7,24.6L20.7,24.6z
				 M15.7,9.2c0,0.3-0.3,0.6-0.6,0.6c-0.3,0-0.6-0.3-0.6-0.6c0,0,0-0.1,0-0.1c0.2,0.1,0.4,0.1,0.6,0.1C15.3,9.2,15.4,9.1,15.7,9.2
				C15.7,9.1,15.7,9.2,15.7,9.2z"/>
		</g>
		<g>
			<path fill="#FFFFFF" d="M12.5,16.1c0-0.3,0.1-0.6,0.1-0.9c0.1-0.3,0.1-0.6,0.2-0.8c0.1-0.3,0.3-0.5,0.4-0.7
				c0.2-0.2,0.4-0.4,0.7-0.5c0.3-0.1,0.6-0.2,1-0.2c0.4,0,0.7,0.1,1,0.2c0.3,0.1,0.5,0.3,0.7,0.5c0.2,0.2,0.3,0.4,0.4,0.7
				c0.1,0.3,0.2,0.5,0.2,0.8c0.1,0.3,0.1,0.6,0.1,0.9c0,0.3,0,0.6,0,0.9c0,0.3,0,0.6,0,0.9c0,0.3,0,0.6-0.1,0.9
				c-0.1,0.3-0.1,0.6-0.2,0.8c-0.1,0.3-0.3,0.5-0.4,0.7c-0.2,0.2-0.4,0.3-0.7,0.5c-0.3,0.1-0.6,0.2-1,0.2c-0.4,0-0.7-0.1-1-0.2
				c-0.3-0.1-0.5-0.3-0.7-0.5c-0.2-0.2-0.3-0.4-0.4-0.7c-0.1-0.3-0.2-0.5-0.2-0.8c-0.1-0.3-0.1-0.6-0.1-0.9c0-0.3,0-0.6,0-0.9
				C12.4,16.7,12.4,16.4,12.5,16.1z M13.4,18c0,0.4,0.1,0.7,0.2,1c0.1,0.3,0.3,0.6,0.5,0.8c0.2,0.2,0.5,0.3,0.9,0.3s0.7-0.1,0.9-0.3
				c0.2-0.2,0.4-0.5,0.5-0.8c0.1-0.3,0.2-0.7,0.2-1c0-0.4,0-0.7,0-1c0-0.2,0-0.4,0-0.6c0-0.2,0-0.5-0.1-0.7c0-0.2-0.1-0.4-0.1-0.7
				c-0.1-0.2-0.2-0.4-0.3-0.6c-0.1-0.2-0.3-0.3-0.5-0.4c-0.2-0.1-0.4-0.2-0.7-0.2c-0.3,0-0.5,0.1-0.7,0.2c-0.2,0.1-0.3,0.2-0.5,0.4
				c-0.1,0.2-0.2,0.4-0.3,0.6c-0.1,0.2-0.1,0.4-0.1,0.7c0,0.2-0.1,0.5-0.1,0.7c0,0.2,0,0.4,0,0.6C13.4,17.3,13.4,17.6,13.4,18z"/>
		</g>
	</g>
</g>
</svg>
