<?xml version="1.0" encoding="utf-8"?>
<!-- Generator: Adobe Illustrator 20.1.0, SVG Export Plug-In . SVG Version: 6.00 Build 0)  -->
<svg version="1.1" id="Layer_1" xmlns="http://www.w3.org/2000/svg" xmlns:xlink="http://www.w3.org/1999/xlink" x="0px" y="0px"
	 width="30px" height="30px" viewBox="0 0 30 30" enable-background="new 0 0 30 30" xml:space="preserve">
<g>
	<g id="Ebene_2_15_">
		<path fill="#EDBD5D" d="M30,15c0,8.3-6.7,15-15,15C6.7,30,0,23.3,0,15C0,6.7,6.7,0,15,0C23.3,0,30,6.7,30,15"/>
		<path id="T-Shirt_1_" fill="#FFFFFF" d="M20.4,8.1h-2.5c-0.1,1.5-1.4,2.7-2.9,2.7c-1.5,0-2.8-1.2-2.9-2.7H9.5
			C9.2,8.1,9,8.4,8.6,8.6l-4.9,4l2.5,2.7l2.6-2.1v10.2c0,0.2,0.4,0.5,0.6,0.5h11.3c0.2,0,0.1-0.2,0.1-0.5V13.1l3,1.7l2.4-3.6
			l-5.1-2.9C20.9,8.3,20.6,8.1,20.4,8.1z"/>
	</g>
</g>
</svg>
