<?xml version="1.0" encoding="utf-8"?>
<!-- Generator: Adobe Illustrator 20.1.0, SVG Export Plug-In . SVG Version: 6.00 Build 0)  -->
<svg version="1.1" id="Layer_1" xmlns="http://www.w3.org/2000/svg" xmlns:xlink="http://www.w3.org/1999/xlink" x="0px" y="0px"
	 width="30px" height="30px" viewBox="0 0 30 30" enable-background="new 0 0 30 30" xml:space="preserve">
<g>
	<path fill="#8D684E" d="M30,15c0,8.3-6.7,15-15,15C6.7,30,0,23.3,0,15C0,6.7,6.7,0,15,0C23.3,0,30,6.7,30,15"/>
	<g>
		<path fill="#FFFFFF" d="M14.2,5.1c0.3,0.2,0.6,0.4,0.8,0.8c0.5,0.7,0.2,1.8,0.1,2.8C15.1,9,15.1,9.4,15,9.8
			c-0.2,0.6-0.3,1.1-0.7,1.5c-0.2,0.2-0.4,0.3-0.6,0.5c-0.5,0.1-1.3,0.1-1.7-0.3c-0.1-0.1-0.3-0.4-0.5-0.7c-0.1-0.2-0.3-0.5-0.4-0.7
			c-0.2-0.5-0.3-1.2-0.2-1.7c0.1-1,0.3-2.1,0.9-2.7C12.1,5.3,12.7,5,13.1,5C13.5,4.9,13.8,5,14.2,5.1z"/>
		<path fill="#FFFFFF" d="M21.3,7.4c0.1,0.2,0.2,0.3,0.2,0.4c0,0.1,0,0.1,0,0.2c0,0.4,0.1,0.9,0,1.3c-0.1,0.3-0.1,0.6-0.3,0.9
			c-0.1,0.1-0.2,0.2-0.3,0.4c-0.1,0.1-0.1,0.3-0.2,0.4c-0.1,0.1-0.3,0.3-0.4,0.4c-0.2,0.3-0.5,0.6-0.7,0.8c-0.2,0.1-0.4,0.1-0.5,0.2
			c-0.8,0.2-1.5-0.3-1.9-0.8c-0.3-0.6-0.2-1.6,0-2.3c0.1-0.3,0.1-0.6,0.2-0.8c0.2-0.5,0.5-1,0.7-1.4c0.2-0.1,0.4-0.4,0.6-0.5
			C19.8,6,20.7,6.8,21.3,7.4z"/>
		<path fill="#FFFFFF" d="M9.4,10.5c0.2,0.6,0.5,1.5,0.2,2.1c-0.1,0.2-0.2,0.3-0.3,0.4c-0.1,0.1-0.2,0.3-0.3,0.4
			c-0.4,0.2-0.8,0.4-1.3,0.3c-0.5,0-1-0.2-1.4-0.3c-1-0.4-2.1-1.6-1.8-3c0.2-0.8,0.7-1.9,1.5-2.1c0.1,0,0.3,0,0.4,0
			C7,8.2,7.9,8.5,8.4,9.1c0.2,0.2,0.3,0.5,0.5,0.7C9.1,10,9.3,10.3,9.4,10.5z"/>
		<path fill="#FFFFFF" d="M18.9,16.8c0.3,0.5,0.5,0.9,1,1.2c0.1,0.2,0.3,0.4,0.5,0.5c0.1,0.2,0.3,0.4,0.4,0.5c0,0,0,0.1,0,0.1
			c0.2,0.2,0.3,0.5,0.5,0.9c0.1,0.5,0.1,1.4,0,1.9c0,0.1,0,0.3,0,0.4c-0.2,0.3-0.3,0.5-0.4,0.8c-0.6,0.8-1.3,1.8-2.6,2
			c-1.1,0.1-1.8-0.4-2.3-0.9c-0.4-0.3-0.8-0.6-1.3-0.8c-1.2-0.2-2.4,0-3.2,0.6c-1.2,0.5-2.5-0.4-3.3-1c-0.1-0.1-0.1-0.1-0.2-0.3
			c0,0-0.1,0-0.1-0.1c-0.2-0.3-0.3-0.6-0.5-0.8c-0.2-1.1-0.6-2.2-0.1-3.3c0.3-0.7,0.8-1.1,1.4-1.6c0.7-0.4,1.4-0.7,2.3-1
			c0.8-0.3,1.4-1,2-1.6c0.4-0.3,1-0.6,1.6-0.8c0.2-0.1,0.9,0,1.1,0.1C17.5,14,18.4,15.4,18.9,16.8z"/>
		<path fill="#FFFFFF" d="M24.3,16.7c-0.5,0.2-1.2,0.4-1.7,0c-0.2-0.2-0.5-0.6-0.7-0.9c-0.1-0.2-0.3-0.5-0.4-0.7
			c-0.1-0.5,0-0.9,0-1.3c0.1-0.4,0.4-0.6,0.5-0.9c0.2-0.2,0.4-0.5,0.5-0.7c0.6-0.4,0.9-1,1.9-0.9c0.8,0.1,1.4,0.5,1.7,1.1
			c0.2,0.3,0.3,0.8,0.2,1.3c0,0.2-0.1,0.6-0.2,0.7c-0.1,0.7-0.6,0.9-0.9,1.4c-0.2,0.1-0.2,0.2-0.3,0.3
			C24.9,16.3,24.5,16.5,24.3,16.7z"/>
	</g>
</g>
</svg>
