<?xml version="1.0" encoding="utf-8"?>
<!-- Generator: Adobe Illustrator 20.1.0, SVG Export Plug-In . SVG Version: 6.00 Build 0)  -->
<svg version="1.1" id="Layer_1" xmlns="http://www.w3.org/2000/svg" xmlns:xlink="http://www.w3.org/1999/xlink" x="0px" y="0px"
	 viewBox="0 0 60.6 23.3" style="enable-background:new 0 0 60.6 23.3;" xml:space="preserve">
<style type="text/css">
	.st0{fill:#CD985D;}
	.st1{fill:url(#SVGID_1_);}
	.st2{fill:#FFFFFF;}
	.st3{fill:url(#SVGID_2_);}
	.st4{fill:url(#SVGID_3_);}
	.st5{fill:url(#SVGID_4_);}
</style>
<path class="st0" d="M0.1,16.4c0.6,4.4,4.6,7.5,8.9,6.8c4.4-0.6,7.3-4.7,6.8-9.1c-0.6-4.4-4.6-7.5-8.9-6.8C2.6,7.9-0.5,12,0.1,16.4z
	"/>
<radialGradient id="SVGID_1_" cx="-805.4705" cy="1011.2983" r="6.3131" gradientTransform="matrix(-1.097 0.1581 0.1533 1.1168 -1030.7598 -987.3792)" gradientUnits="userSpaceOnUse">
	<stop  offset="0" style="stop-color:#333333"/>
	<stop  offset="0.456" style="stop-color:#313131"/>
	<stop  offset="0.7" style="stop-color:#292929"/>
	<stop  offset="0.894" style="stop-color:#1B1B1B"/>
	<stop  offset="1" style="stop-color:#121212"/>
</radialGradient>
<path class="st1" d="M1,15.7c0.5,3.9,4.1,6.6,7.8,6.1c3.9-0.6,6.5-4.2,6-8.1s-4.1-6.6-7.8-6C3.1,8.2,0.4,11.8,1,15.7z"/>
<path class="st2" d="M12.4,10.6c1,1.4,0.9,3.2-0.3,4.1c-1.2,0.9-3,0.5-4-0.9s-0.9-3.2,0.3-4.1C9.6,8.9,11.4,9.2,12.4,10.6z"/>
<path class="st0" d="M60.5,6.9c0.6,4.4-2.4,8.5-6.8,9.1c-4.4,0.6-8.3-2.4-8.9-6.8c-0.6-4.4,2.4-8.5,6.8-9.1
	C55.8-0.6,59.9,2.5,60.5,6.9z"/>
<radialGradient id="SVGID_2_" cx="-579.6513" cy="1011.2073" r="6.3069" gradientTransform="matrix(1.097 -0.1581 0.1533 1.1168 533.3716 -1213.5013)" gradientUnits="userSpaceOnUse">
	<stop  offset="0" style="stop-color:#333333"/>
	<stop  offset="0.456" style="stop-color:#313131"/>
	<stop  offset="0.7" style="stop-color:#292929"/>
	<stop  offset="0.894" style="stop-color:#1B1B1B"/>
	<stop  offset="1" style="stop-color:#121212"/>
</radialGradient>
<path class="st3" d="M59.5,6.5c0.5,3.9-2.1,7.5-6,8c-3.9,0.6-7.3-2.2-7.8-6.1s2.1-7.5,6-8C55.4-0.1,58.9,2.6,59.5,6.5z"/>
<path class="st2" d="M57.1,3.4c1,1.4,0.9,3.2-0.3,4.1s-3,0.5-4-0.9s-0.9-3.2,0.3-4.1S56.1,2,57.1,3.4z"/>
<path class="st0" d="M0.1,16.4c0.6,4.4,4.6,7.5,8.9,6.8c4.4-0.6,7.3-4.7,6.8-9.1c-0.6-4.4-4.6-7.5-8.9-6.8C2.6,7.9-0.5,12,0.1,16.4z
	"/>
<radialGradient id="SVGID_3_" cx="-805.4705" cy="1011.2983" r="6.3131" gradientTransform="matrix(-1.097 0.1581 0.1533 1.1168 -1030.7598 -987.3792)" gradientUnits="userSpaceOnUse">
	<stop  offset="0" style="stop-color:#333333"/>
	<stop  offset="0.456" style="stop-color:#313131"/>
	<stop  offset="0.7" style="stop-color:#292929"/>
	<stop  offset="0.894" style="stop-color:#1B1B1B"/>
	<stop  offset="1" style="stop-color:#121212"/>
</radialGradient>
<path class="st4" d="M1,15.7c0.5,3.9,4.1,6.6,7.8,6.1c3.9-0.6,6.5-4.2,6-8.1s-4.1-6.6-7.8-6C3.1,8.2,0.4,11.8,1,15.7z"/>
<path class="st2" d="M12.4,10.6c1,1.4,0.9,3.2-0.3,4.1c-1.2,0.9-3,0.5-4-0.9s-0.9-3.2,0.3-4.1C9.6,8.9,11.4,9.2,12.4,10.6z"/>
<path class="st0" d="M60.5,6.9c0.6,4.4-2.4,8.5-6.8,9.1c-4.4,0.6-8.3-2.4-8.9-6.8c-0.6-4.4,2.4-8.5,6.8-9.1
	C55.8-0.6,59.9,2.5,60.5,6.9z"/>
<radialGradient id="SVGID_4_" cx="-579.6513" cy="1011.2073" r="6.3069" gradientTransform="matrix(1.097 -0.1581 0.1533 1.1168 533.3716 -1213.5013)" gradientUnits="userSpaceOnUse">
	<stop  offset="0" style="stop-color:#333333"/>
	<stop  offset="0.456" style="stop-color:#313131"/>
	<stop  offset="0.7" style="stop-color:#292929"/>
	<stop  offset="0.894" style="stop-color:#1B1B1B"/>
	<stop  offset="1" style="stop-color:#121212"/>
</radialGradient>
<path class="st5" d="M59.5,6.5c0.5,3.9-2.1,7.5-6,8c-3.9,0.6-7.3-2.2-7.8-6.1s2.1-7.5,6-8C55.4-0.1,58.9,2.6,59.5,6.5z"/>
<path class="st2" d="M57.1,3.4c1,1.4,0.9,3.2-0.3,4.1s-3,0.5-4-0.9s-0.9-3.2,0.3-4.1S56.1,2,57.1,3.4z"/>
</svg>
