<svg version="1" xmlns="http://www.w3.org/2000/svg" width="316.1" height="534.8"><path fill="#D6D6D6" d="M238.9 525.4c0 5.2-51.9 9.5-115.9 9.5S7.1 530.7 7.1 525.4c0-5.2 51.9-9.5 115.9-9.5s115.9 4.2 115.9 9.5z" opacity=".3"/><radialGradient id="a" cx="162.612" cy="436.704" r="55.384" gradientUnits="userSpaceOnUse"><stop offset="0" stop-color="#fcc58a"/><stop offset=".575" stop-color="#fcc289"/><stop offset=".962" stop-color="#fbb986"/><stop offset="1" stop-color="#fbb885"/></radialGradient><path fill="url(#a)" d="M169.3 359.4c1.1 12.9 1.9 25.7 2.7 38.6.7 12.9 1.3 25.7 1.8 38.6 1 25.8 1.5 51.6 1.4 77.4l-25.3-1c2-25.4 3.5-50.9 4.5-76.4.5-12.8.9-25.5 1.1-38.3.3-12.8.4-25.6.3-38.3l13.5-.6z"/><radialGradient id="b" cx="78.363" cy="436.72" r="55.386" gradientUnits="userSpaceOnUse"><stop offset="0" stop-color="#fcc58a"/><stop offset=".575" stop-color="#fcc289"/><stop offset=".962" stop-color="#fbb986"/><stop offset="1" stop-color="#fbb885"/></radialGradient><path fill="url(#b)" d="M85.1 360.1c-.1 12.7.1 25.5.3 38.3.3 12.8.6 25.5 1.1 38.3 1 25.5 2.4 51 4.5 76.4l-25.3 1c-.1-25.8.5-51.6 1.4-77.4.5-12.9 1.1-25.7 1.8-38.6.7-12.9 1.6-25.7 2.6-38.6l13.6.6z"/><radialGradient id="c" cx="32.297" cy="309.812" r="51.871" gradientUnits="userSpaceOnUse"><stop offset="0" stop-color="#fcc58a"/><stop offset=".575" stop-color="#fcc289"/><stop offset=".962" stop-color="#fbb986"/><stop offset="1" stop-color="#fbb885"/></radialGradient><path fill="url(#c)" d="M61.6 251.1c-.6.8-1.4 2-2 3.1-.7 1.1-1.4 2.2-2 3.4-1.3 2.3-2.5 4.7-3.6 7.1-2.3 4.8-4.2 9.8-5.8 14.9-3.3 10.1-5.4 20.5-6.5 30.9-2.1 20.9-.2 41.8 4.6 62L3 377.1c0-24.8 3.4-49.7 11.5-72.9 4-11.6 9.2-22.8 15.4-33.1 3.1-5.2 6.6-10.2 10.3-14.9 1.9-2.4 3.8-4.7 5.9-6.9 1-1.1 2.1-2.2 3.2-3.3 1.1-1.1 2.2-2.1 3.5-3.3l8.8 8.4z"/><linearGradient id="d" gradientUnits="userSpaceOnUse" x1="1137.344" y1="960.352" x2="1137.344" y2="864.307" gradientTransform="translate(-1016.295 912.218)"><stop offset="0" stop-color="#426897"/><stop offset="1" stop-color="#192f4b"/></linearGradient><path fill="url(#d)" d="M186.3 355.3c0 16.1-24.1 14.3-61.5 14.3-37.5 0-68.5 1.7-68.5-14.3 0-16.1 31.1-14.3 68.5-14.3 37.4-.1 61.5-1.8 61.5 14.3z"/><radialGradient id="e" cx="121.855" cy="297.851" r="66.571" gradientUnits="userSpaceOnUse"><stop offset="0" stop-color="#fcc58a"/><stop offset=".575" stop-color="#fcc289"/><stop offset=".962" stop-color="#fbb986"/><stop offset="1" stop-color="#fbb885"/></radialGradient><path fill="url(#e)" d="M195.2 252.3c0-7.5-6.1-13.5-13.5-13.5H62.1c-7.5 0-13.5 6.1-13.5 13.5v91.1c0 7.5 6.1 13.5 13.5 13.5h119.6c7.5 0 13.5-6.1 13.5-13.5v-91.1z"/><radialGradient id="f" cx="245.183" cy="207.227" r="54.379" gradientUnits="userSpaceOnUse"><stop offset="0" stop-color="#fcc58a"/><stop offset=".575" stop-color="#fcc289"/><stop offset=".962" stop-color="#fbb986"/><stop offset="1" stop-color="#fbb885"/></radialGradient><path fill="url(#f)" d="M188.1 242.7c2.6 0 5.7-.2 8.5-.5 2.9-.3 5.8-.8 8.6-1.4 5.7-1.2 11.1-2.8 16.3-5 10.3-4.3 19-10.8 25.2-18.8 6.2-8 10.1-17.4 12.2-27.5 2.1-10.1 2.4-21 1.6-32l43.4 2c-1.9 13.9-5.3 28-11.3 41.5-5.9 13.5-14.8 26.3-26.4 35.8-11.6 9.6-25.4 15.6-39 18.2-6.9 1.3-13.7 1.9-20.5 1.8-3.4 0-6.7-.2-10.1-.5-3.4-.4-6.6-.8-10.1-1.6l1.6-12z"/><path fill="#FBC48A" d="M316.1 105.7c-5-5.4-13.4-3.2-13.4-3.2l-6.2 25c-.5-.1-.9-.2-1.4-.3l2-29.4c-5.4-4.8-13.6-1.7-13.6-1.7l-4.8 28.7c-.6 0-1.1-.1-1.6-.1L275 98.5c-5.9-4.1-13.7 0-13.7 0l-1.6 32.7c-.2.5-2.1 4.8-2.3 5.2l-14.5-6.7c-6.6 3.7-7.8 13-7.8 13l21.8 15.5c1.3 4.8 3 7.8 3 7.8 19.5 5.5 44.5 4.9 44.5 4.9 6.6-21.5 7.2-36.8 7.2-36.8l4.5-28.4z"/><radialGradient id="g" cx="-1977.214" cy="4068.406" r="47.094" gradientTransform="translate(2159.749 -3560.098)" gradientUnits="userSpaceOnUse"><stop offset="0" stop-color="#fcc58a"/><stop offset=".575" stop-color="#fcc289"/><stop offset=".962" stop-color="#fbb986"/><stop offset="1" stop-color="#fbb885"/></radialGradient><path fill="url(#g)" d="M144.9 525.4l54.7-.1c.5 0 .9-.4 1-.8.5-4.5-2.1-22.8-44.8-20.5-10.8.6-12.3 16.5-11.9 20.6.1.4.6.8 1 .8z"/><radialGradient id="h" cx="245.058" cy="511.355" r="40.94" gradientTransform="matrix(-1 0 0 1 312.533 0)" gradientUnits="userSpaceOnUse"><stop offset="0" stop-color="#fcc58a"/><stop offset=".575" stop-color="#fcc289"/><stop offset=".962" stop-color="#fbb986"/><stop offset="1" stop-color="#fbb885"/></radialGradient><path fill="url(#h)" d="M96.1 525.3H60.7c-.5 0-.9-.4-1-.8-.5-4.5-2.1-20.4 19.6-20.6 19.8-.2 18.1 16.5 17.7 20.6 0 .4-.5.8-.9.8z"/><path fill="#FBC48A" d="M47.2 371.7s-20.1-5.5-45.6.8c0 0-5.5 20.3 4 45.1 0 0 16.7 7.3 36 7.3 0 0-1.4-18-.2-30.5 0 0 2.2 5.3 4.7 11.2 0 0 6.6 0 10-3.9.1 0-1.7-16.1-8.9-30z"/><path fill="#C69C6D" d="M203 77.3c-.1-7.5-6.2-13.3-13.7-13.3L50.9 65.7c-7.5.1-13.5 6.1-13.4 13.6 0 0 0 16.9 3.1 117.6 1 33.2 8.1 46.8 15.3 46.7h132.2c7.2-.1 14.5-15.4 14.7-48.7.6-100.7.2-117.6.2-117.6z"/><radialGradient id="i" cx="-14300.234" cy="-8508.74" r="86.32" gradientTransform="rotate(-.81 693556.83 -1165822.026)" gradientUnits="userSpaceOnUse"><stop offset="0" stop-color="#fcc58a"/><stop offset=".575" stop-color="#fcc289"/><stop offset=".962" stop-color="#fbb986"/><stop offset="1" stop-color="#fbb885"/></radialGradient><path fill="url(#i)" d="M203 75.6c-.1-7.5-6.2-13.3-13.7-13.3L50.9 64.1c-7.5.1-13.5 6.1-13.4 13.6 0 0 0 16.9 3.1 117.6 1 33.2 8.1 46.8 15.3 46.7h132.2c7.2-.1 14.5-15.4 14.7-48.7.6-100.8.2-117.7.2-117.7z"/><path fill="#CE985E" d="M204.9 163.7c.4-80.3-1.9-88.2-1.9-88.2-.1-7.5-6.2-13.5-13.7-13.4L50.9 63.8c-7.5.1-13.5 6.2-13.4 13.7 0 0-2.4 10 0 90.4.6.7 2.6 11.6 2.6 11.6.4-49.2 10.5-86.4 10.5-86.4s50 26.5 105.2 9l-10.3-9c29.6-3.4 38.8-9.2 38.8-9.2 14.9 35.6 18.6 89.5 18.6 89.5.3-.3 2-9.7 2-9.7z"/><linearGradient id="j" gradientUnits="userSpaceOnUse" x1="-14302.957" y1="-8665.261" x2="-14302.957" y2="-8482.05" gradientTransform="rotate(-.81 693556.83 -1165822.026)"><stop offset="0" stop-color="#574537"/><stop offset=".576" stop-color="#433329"/><stop offset="1" stop-color="#32241d"/></linearGradient><path fill="url(#j)" d="M40.2 179.6c0-2.2-13.2-5.6-15.4-87.7-1.7 1.9-4.4 3.4-6 5.6-.1-22.1 10.4-26.7 10.4-26.7-3.1 2.8.2-.1 0 0 0 0 0-4-6.6-4.4 4.8-6 9.7-6.2 17.2-6.6-1.8-.5 4.5-13 5.4-14 3.9-4.6 10.5-7.3 16.2-8.6-2 2.1-2.9 4.8-4.5 7.1 19.4-8.1 27.9-14.2 49.5-14.8 17.7-.4 43.4-1 60.3-7.7 11.1-4.4 19.1-11.1 17.5-21.6-.4-.2-.4-.2 0 0 19 12.3 16.8 32.5 16.8 32.5s2.1-.7 5.4-7.7c4.6 13.8 2.6 28.8-3.3 37.9 17.7 10.3 13.4 38.6 12.6 52-3.1 46.5-12.8 58.6-12.8 58.6.5-27.8-2.6-70.4-15-95.7 0 0-14.1 9.9-37.6 14.8l10.9 5.7c-60 15.2-113.3-9.7-112.7-13.7 0 .4-10.9 26.8-8.3 95z"/><circle transform="rotate(-.725 187.495 165.702) scale(.99998)" fill="#FAB383" cx="187.5" cy="165.7" r="9.2"/><circle transform="matrix(.9999 -.01229 .01229 .9999 -2.052 .702)" fill="#FAB383" cx="56.1" cy="167.3" r="9.2"/><path fill="#836F67" d="M80.9 49.5c32.7-17.9 48-10 76.6-15 12.5-2.2 16.2-10 16.2-10-8.5 28.3-45.9 14.6-73.6 19.7l-19.2 5.3z"/><radialGradient id="k" cx="82.016" cy="135.257" r="14.7" gradientUnits="userSpaceOnUse"><stop offset="0" stop-color="#454545"/><stop offset="1" stop-color="#101010"/></radialGradient><circle fill="url(#k)" cx="82.1" cy="135.8" r="12.8"/><circle fill="#FFF" cx="85.7" cy="131.3" r="4.5"/><radialGradient id="l" cx="163.087" cy="135.257" r="14.701" gradientUnits="userSpaceOnUse"><stop offset="0" stop-color="#454545"/><stop offset="1" stop-color="#101010"/></radialGradient><circle fill="url(#l)" cx="163.1" cy="135.8" r="12.8"/><circle fill="#FFF" cx="166.8" cy="131.3" r="4.5"/><path fill="#856848" d="M124.8 204.9c-23.3 0-34.1-8.9-34.5-9.3-1.3-1.1-1.5-3.2-.4-4.5 1.1-1.3 3.2-1.5 4.5-.4.2.1 9.7 7.8 30.4 7.8 16.9 0 25.7-7.6 25.8-7.7 1.3-1.2 3.3-1.1 4.5.3 1.2 1.3 1.1 3.3-.2 4.5-.5.4-10.6 9.3-30.1 9.3z"/><g fill="#1A1A1A"><path d="M197.7 120.5c5.2 4.3 3.6 12.6 3.5 21.7-.1 19.2-9.3 26.6-32 26.2-7.7-.1-14.6-1.9-19.4-5-5.3-3.4-8.7-8.8-11-14.7-.8-2-1.4-4.1-2-6.1-2.1-7.5-4.4-14.8.5-19.6 4.5-4.4 14.9-6.4 24.1-7.1 2.8-.2 5.4-.3 7.8-.3 9.5-.1 22.7.1 28.5 4.9z"/><path d="M169.2 168.3c22.7.4 31.9-7 32-26.2.1-9 1.7-17.4-3.5-21.7-5.8-4.8-18.9-5-28.7-5-2.3 0-5 .1-7.8.3l-.2-3.2c3.1-.2 6.3-.4 9.7-.4 23.7-.1 27.9 2.5 39.7 3.4 1.1.1 2 .9 1.9 2.8 0 3.1-.2 5.8-.2 8.5 0 2.4-2.1 2.1-3.3 5-3.7 9.2-2.2 24.4-11.2 32.4-2.6 2.3-7.2 5.1-11.7 5.5-21.7 2-40.4 3.4-48.7-18.7-.2-.6-.4-1.1-.7-1.7l2.2-.9c2.3 5.9 5.7 11.4 11 14.7 4.9 3.3 11.8 5.1 19.5 5.2zm-61.3-45.5c4.8 4.8 2.6 12.1.5 19.6-.6 2-1.2 4.1-2 6.1-2.3 5.9-5.7 11.4-11.1 14.8-4.9 3.1-11.7 4.9-19.4 5-22.7.4-31.9-7-32-26.2 0-9-1.7-17.4 3.5-21.7 5.8-4.8 18.9-5 28.7-5 2.2 0 4.7.1 7.3.3 9.2.7 19.9 2.7 24.5 7.1z"/><path d="M122.6 116.1c15 0 25.2-2.5 38.4-3.5l.2 3.2c-9.2.7-19.6 2.7-24.1 7.1-4.8 4.8-2.6 12.1-.5 19.6.6 2 1.3 4.1 2 6.1l-2.2.9c-1.6-3.9-3.7-7.5-5.3-13.5-2.5-4.7-2.6-3.7-8.6-4-6 .3-6.1-.6-8.6 4-1.6 6-3.7 9.6-5.3 13.5l-2.3-1c.8-2 1.4-4 2-6.1 2.1-7.5 4.4-14.8-.5-19.6-4.5-4.5-15.2-6.4-24.5-7.1l.2-3.2c13.5 1 23.8 3.6 39.1 3.6z"/><path d="M47.5 164.4c-9-8-7.5-23.2-11.3-32.4-1.2-2.9-3.3-2.5-3.3-5 0-2.7-.2-5.4-.2-8.5-.2-1.8.8-2.6 1.9-2.7 11.8-.9 16-3.7 39.7-3.6 3.3 0 6.3.2 9.2.4l-.2 3.2c-2.6-.2-5.1-.3-7.3-.3-9.8 0-22.9.2-28.7 5-5.2 4.3-3.6 12.6-3.5 21.7.1 19.2 9.3 26.6 32 26.2 7.7-.1 14.5-1.9 19.4-5 5.4-3.4 8.7-8.8 11.1-14.8l2.3 1c-.2.6-.5 1.1-.7 1.7-8.3 22.1-27 20.7-48.7 18.7-4.5-.5-9.1-3.4-11.7-5.6z"/></g><path fill="none" stroke="#C69C6D" stroke-width="1.677" stroke-miterlimit="10" d="M142.1 280.9c2.6-.6 5.3.7 5 3.7-4.2 1.5-7.9 2-7.5-3.5.5-7.9 8.3-6.5 11.7-1m4.2-10.9c-2.4-4 1.3-9.4 5.9-7.6 5 1.9 1.5 8-2.4 8.8-8.7 1.7-9.7-12.8-.1-11.2m-24.8-3c3.8.3 2.3 3.8-1.2 2.9-.1-2-.8-4.1 1.2-5 1.7-.7 5 1.1 5.8 2.6 2.5 4.7-3.3 7.8-7.5 7m-46.9 13.5c1.9.1 2.1 2 1.6 3.7-7 1.3-5.4-6.8-.5-5.5 2.6.7 4.2 5.2 3.1 7.7-1.6 3.5-6.5 2.5-9.7 2.5m9.7-30.7c8.1-2.2-1.4 8.6-2.1 1.7-.4-3.8 7.8-3.4 7.1 2.1m16.8 26c-.1-1-1.1-3.8-.1-4.7.9-.9 3.9-.5 4.6.5 1.8 2.9-2.5 5.2-4.6 5.4-3.3.2-7.1-4.6-4.1-7.5 1.5-1.5 7.7-.4 9.3.4"/></svg>