<?xml version="1.0" encoding="utf-8"?>
<!-- Generator: Adobe Illustrator 20.1.0, SVG Export Plug-In . SVG Version: 6.00 Build 0)  -->
<svg version="1.1" id="Layer_1" xmlns="http://www.w3.org/2000/svg" xmlns:xlink="http://www.w3.org/1999/xlink" x="0px" y="0px"
	 viewBox="0 0 117.8 191.7" style="enable-background:new 0 0 117.8 191.7;" xml:space="preserve">
<style type="text/css">
	.st0{fill:#010101;}
	.st1{fill:url(#SVGID_1_);}
	.st2{fill:url(#SVGID_2_);}
	.st3{fill:url(#SVGID_3_);}
	.st4{fill:#676767;}
	.st5{fill:url(#SVGID_4_);}
	.st6{fill:url(#SVGID_5_);}
	.st7{fill:url(#SVGID_6_);}
	.st8{opacity:0.2;fill:url(#SVGID_7_);enable-background:new    ;}
	.st9{opacity:0.7;fill:#FFFFFF;enable-background:new    ;}
	.st10{fill:url(#SVGID_8_);}
	.st11{fill:url(#SVGID_9_);}
	.st12{fill:url(#SVGID_10_);}
	.st13{fill:url(#SVGID_11_);}
	.st14{fill:url(#SVGID_12_);}
	.st15{fill:url(#SVGID_13_);}
	.st16{fill:url(#SVGID_14_);}
	.st17{fill:url(#SVGID_15_);}
	.st18{fill:url(#SVGID_16_);}
	.st19{fill:url(#SVGID_17_);}
	.st20{fill:url(#SVGID_18_);}
	.st21{fill:url(#SVGID_19_);}
</style>
<path class="st0" d="M47.7,15.5c0.2-0.1,0.3-0.2,0.6-0.4c1.2-0.9,2.7-2.8,1.1-5c-1.4-1.9-3.8-2-5.8-0.5s-2.4,3.7-1,5.7
	c0.8,1.1,1.5,1.6,2,1.9l0.7-0.8c-0.5-0.3-1-0.7-1.7-1.6c-0.9-1.2-1-2.7,0.6-4C44.2,10.8,47.7,15.5,47.7,15.5z M45.2,10.2
	c0.9-0.5,2.4-0.8,3.3,0.4c1,1.4,0,2.6-0.7,3.1C47.8,13.7,45.2,10.2,45.2,10.2z"/>
<linearGradient id="SVGID_1_" gradientUnits="userSpaceOnUse" x1="306.1964" y1="571.835" x2="306.1964" y2="547.5109" gradientTransform="matrix(-0.2322 0.9687 0.9068 0.2481 -376.2066 -343.7954)">
	<stop  offset="0" style="stop-color:#AEB3B6"/>
	<stop  offset="0.126" style="stop-color:#F4F6F8"/>
	<stop  offset="0.225" style="stop-color:#AEB3B6"/>
	<stop  offset="0.332" style="stop-color:#E2E4E4"/>
	<stop  offset="0.494" style="stop-color:#F2F2F2"/>
	<stop  offset="0.622" style="stop-color:#ACADAE"/>
	<stop  offset="0.813" style="stop-color:#3D3F41"/>
	<stop  offset="0.844" style="stop-color:#434648"/>
	<stop  offset="0.888" style="stop-color:#55585B"/>
	<stop  offset="0.941" style="stop-color:#727579"/>
	<stop  offset="0.999" style="stop-color:#999EA4"/>
	<stop  offset="1" style="stop-color:#9A9FA5"/>
</linearGradient>
<path class="st1" d="M51.7,92.8c-1.9-0.5-3.1-2.5-2.6-4.4s2.4-3.1,4.4-2.6l15.3,4c1.9,0.5,3.1,2.5,2.6,4.4s-2.4,4.1-4.3,3.6
	L51.7,92.8z"/>
<linearGradient id="SVGID_2_" gradientUnits="userSpaceOnUse" x1="315.1751" y1="567.6439" x2="315.1751" y2="550.8389" gradientTransform="matrix(-0.2322 0.9687 0.9068 0.2481 -376.2066 -343.7954)">
	<stop  offset="0" style="stop-color:#AEB3B6"/>
	<stop  offset="0.126" style="stop-color:#F4F6F8"/>
	<stop  offset="0.225" style="stop-color:#AEB3B6"/>
	<stop  offset="0.332" style="stop-color:#E2E4E4"/>
	<stop  offset="0.494" style="stop-color:#F2F2F2"/>
	<stop  offset="0.622" style="stop-color:#ACADAE"/>
	<stop  offset="0.813" style="stop-color:#3D3F41"/>
	<stop  offset="0.844" style="stop-color:#434648"/>
	<stop  offset="0.888" style="stop-color:#55585B"/>
	<stop  offset="0.941" style="stop-color:#727579"/>
	<stop  offset="0.999" style="stop-color:#999EA4"/>
	<stop  offset="1" style="stop-color:#9A9FA5"/>
</linearGradient>
<path class="st2" d="M48.7,104l2.6-11.4l15.3,3.9L64,108L48.7,104z"/>
<linearGradient id="SVGID_3_" gradientUnits="userSpaceOnUse" x1="364.729" y1="571.8799" x2="364.729" y2="548.1309" gradientTransform="matrix(-0.2322 0.9687 0.9068 0.2481 -376.2066 -343.7954)">
	<stop  offset="0" style="stop-color:#010101"/>
	<stop  offset="1.200000e-02" style="stop-color:#0D0D0D"/>
	<stop  offset="5.900000e-02" style="stop-color:#2D2E2D"/>
	<stop  offset="0.102" style="stop-color:#464646"/>
	<stop  offset="0.143" style="stop-color:#555554"/>
	<stop  offset="0.176" style="stop-color:#595A5A"/>
	<stop  offset="1" style="stop-color:#010101"/>
</linearGradient>
<path class="st3" d="M32.3,189.4c-3.6-0.9-5.8-3.7-4.8-7.3l17-72c0.9-3.7,4.6-5.9,8.1-4.9l8.1,2.1c3.6,0.9,5.8,4.7,4.9,8.3l-17.1,71
	c-0.9,3.7-4.6,5.9-8.1,4.9L32.3,189.4L32.3,189.4z"/>
<path class="st4" d="M39.3,189.2c-1.6-0.4-2.2-2.6-1.3-6.2l16-68.3c0.9-3.5,3-6.1,4.6-5.6l3.8,1c1.6,0.4,2.3,3.6,1.4,7.2l-16.2,68.4
	c-0.9,3.5-3,5.1-4.6,4.6C43,190.3,39.3,189.2,39.3,189.2z"/>
<linearGradient id="SVGID_4_" gradientUnits="userSpaceOnUse" x1="323.1863" y1="570.9719" x2="323.1863" y2="548.6459" gradientTransform="matrix(-0.2322 0.9687 0.9068 0.2481 -376.2066 -343.7954)">
	<stop  offset="0" style="stop-color:#AEB3B6"/>
	<stop  offset="0.126" style="stop-color:#F4F6F8"/>
	<stop  offset="0.225" style="stop-color:#AEB3B6"/>
	<stop  offset="0.332" style="stop-color:#E2E4E4"/>
	<stop  offset="0.494" style="stop-color:#F2F2F2"/>
	<stop  offset="0.622" style="stop-color:#ACADAE"/>
	<stop  offset="0.813" style="stop-color:#3D3F41"/>
	<stop  offset="0.844" style="stop-color:#434648"/>
	<stop  offset="0.888" style="stop-color:#55585B"/>
	<stop  offset="0.941" style="stop-color:#727579"/>
	<stop  offset="0.999" style="stop-color:#999EA4"/>
	<stop  offset="1" style="stop-color:#9A9FA5"/>
</linearGradient>
<path class="st5" d="M45.6,107.5l1-4l20.4,5.3l-1,4L45.6,107.5z"/>
<linearGradient id="SVGID_5_" gradientUnits="userSpaceOnUse" x1="-853.167" y1="553.0825" x2="-754.1592" y2="553.0825" gradientTransform="matrix(-0.9361 0 0 1 -680.864 -506)">
	<stop  offset="0" style="stop-color:#CCCCCC"/>
	<stop  offset="0.176" style="stop-color:#FFFFFF"/>
	<stop  offset="1" style="stop-color:#6F6F6F"/>
</linearGradient>
<path class="st6" d="M59.9,92.7c-24.7-6.5-39.7-32.1-33.4-57.3S58.1-5,82.9,1.5s39.7,32.1,33.4,57.3C109.9,83.9,84.6,99.1,59.9,92.7
	L59.9,92.7z M62.1,84c20.1,5.2,40.5-7.1,45.6-27.5c5.2-20.4-7-41.2-27-46.5c-20.1-5.2-40.5,7.1-45.6,27.5C29.9,58,42,78.8,62.1,84z"
	/>
<linearGradient id="SVGID_6_" gradientUnits="userSpaceOnUse" x1="-851.717" y1="553.0491" x2="-755.2822" y2="553.0491" gradientTransform="matrix(-0.9361 0 0 1 -680.864 -506)">
	<stop  offset="0" style="stop-color:#FFFFFF"/>
	<stop  offset="1" style="stop-color:#B0B1B1"/>
</linearGradient>
<path class="st7" d="M60.1,91.6c-24.1-6.3-38.7-31.4-32.6-56S58.3-3.8,82.4,2.5s38.7,31.4,32.6,56C108.9,83,84.3,97.9,60.1,91.6z
	 M62.1,84c20.1,5.2,40.5-7.1,45.6-27.5c5.2-20.4-7-41.2-27-46.5c-20.1-5.2-40.5,7.1-45.6,27.5C29.9,58,42,78.8,62.1,84z"/>
<radialGradient id="SVGID_7_" cx="191.6866" cy="510.1826" r="33.8501" gradientTransform="matrix(-0.2745 1.0926 1.073 0.2802 -423.3659 -305.3878)" gradientUnits="userSpaceOnUse">
	<stop  offset="0" style="stop-color:#BDE7FB"/>
	<stop  offset="0.398" style="stop-color:#BBE6FB"/>
	<stop  offset="0.565" style="stop-color:#B4E4FA"/>
	<stop  offset="0.688" style="stop-color:#A9E0F9"/>
	<stop  offset="0.791" style="stop-color:#97DBF8"/>
	<stop  offset="0.88" style="stop-color:#81D4F7"/>
	<stop  offset="0.958" style="stop-color:#65CDF6"/>
	<stop  offset="1" style="stop-color:#58C7F3"/>
</radialGradient>
<path class="st8" d="M62.1,84c-20.1-5.2-32.2-26-27-46.5C40.3,17.1,60.6,4.8,80.7,10s32.2,26,27,46.5C102.6,76.9,82.2,89.2,62.1,84z
	"/>
<path class="st9" d="M102.6,58.1c0.2-0.9,0.4-1.8,0.6-2.8c-5.6,16.4-22.6,25.9-39.3,21.5c-16.8-4.4-27.2-21.1-24.3-38.2
	c-0.3,0.9-0.6,1.8-0.8,2.7c-4.6,18,6.2,36.3,23.8,40.9C80.2,86.9,98.2,76.1,102.6,58.1z"/>
<path class="st9" d="M69.6,56.3c-14.7-3.8-24.1-16.4-21.3-28c2.9-11.6,17.2-18,31.9-14.1c14.7,3.8,24.1,16.4,21.3,28
	C98.5,53.8,84.3,60.1,69.6,56.3z"/>
<linearGradient id="SVGID_8_" gradientUnits="userSpaceOnUse" x1="-762.5317" y1="553.0021" x2="-844.4497" y2="553.0021" gradientTransform="matrix(-0.9361 0 0 1 -680.864 -506)">
	<stop  offset="0" style="stop-color:#FFFFFF"/>
	<stop  offset="1" style="stop-color:#6F6F6F"/>
</linearGradient>
<path class="st10" d="M61.8,85.1C41.1,79.7,28.6,58.3,34,37.2c5.3-21,26.3-33.7,47-28.3c20.7,5.4,33.2,26.8,27.8,47.9
	C103.5,77.8,82.5,90.5,61.8,85.1L61.8,85.1z M62.1,84c20.1,5.2,40.5-7.1,45.6-27.5c5.2-20.4-7-41.2-27-46.5
	c-20.1-5.2-40.5,7.1-45.6,27.5C29.9,58,42,78.8,62.1,84z"/>
<radialGradient id="SVGID_9_" cx="-349.6952" cy="-310.3589" r="26.0597" gradientTransform="matrix(1.096 0.1624 0.1599 -1.1162 478.2509 -148.5911)" gradientUnits="userSpaceOnUse">
	<stop  offset="0" style="stop-color:#FDC78A"/>
	<stop  offset="0.575" style="stop-color:#FDC389"/>
	<stop  offset="0.962" style="stop-color:#FBB986"/>
	<stop  offset="1" style="stop-color:#FBB885"/>
</radialGradient>
<path class="st11" d="M28.6,167.8c-21.4-7-11.1-64.3,16.3-57.5s28.4,5.8,29.5,16.2s-0.5,6-6.5,11.6c2.8,2.7,3,13.8-2.5,18
	c2.2,6.4-0.7,19-11.3,17C43.4,171.1,28.6,167.8,28.6,167.8"/>
<linearGradient id="SVGID_10_" gradientUnits="userSpaceOnUse" x1="-727.3857" y1="-457.8967" x2="-766.6697" y2="-457.8967" gradientTransform="matrix(-0.9361 0 0 -1 -680.864 -319.3945)">
	<stop  offset="0" style="stop-color:#6F4E2E"/>
	<stop  offset="1" style="stop-color:#785634"/>
</linearGradient>
<path class="st12" d="M26.4,171.1c0,0-21.6-37.7,10.4-65.2c-8.9,1-20.2,3-24.9,3.6c-9,5.4-18.1,33.3-6.4,56
	C12.9,168.8,15.4,169.2,26.4,171.1L26.4,171.1z"/>
<linearGradient id="SVGID_11_" gradientUnits="userSpaceOnUse" x1="-746.7837" y1="-457.7433" x2="-771.5902" y2="-457.7433" gradientTransform="matrix(-0.9361 0 0 -1 -680.864 -319.3945)">
	<stop  offset="0" style="stop-color:#6F4E2E"/>
	<stop  offset="1" style="stop-color:#785634"/>
</linearGradient>
<path class="st13" d="M41.1,109.6c0,0,0,0-2.5,0.1c-3.8-0.8-24.9,16.4-12.8,56c1.8,4.5,2.8,0.7,2.8,0.7s-1.4,8.8-4.7,2.3
	c-13.7-26.8-0.8-61.3,14.2-63.1C42.5,106.3,41.1,109.6,41.1,109.6z"/>
<linearGradient id="SVGID_12_" gradientUnits="userSpaceOnUse" x1="306.1964" y1="571.835" x2="306.1964" y2="547.5109" gradientTransform="matrix(-0.2322 0.9687 0.9068 0.2481 -376.2066 -343.7954)">
	<stop  offset="0" style="stop-color:#AEB3B6"/>
	<stop  offset="0.126" style="stop-color:#F4F6F8"/>
	<stop  offset="0.225" style="stop-color:#AEB3B6"/>
	<stop  offset="0.332" style="stop-color:#E2E4E4"/>
	<stop  offset="0.494" style="stop-color:#F2F2F2"/>
	<stop  offset="0.622" style="stop-color:#ACADAE"/>
	<stop  offset="0.813" style="stop-color:#3D3F41"/>
	<stop  offset="0.844" style="stop-color:#434648"/>
	<stop  offset="0.888" style="stop-color:#55585B"/>
	<stop  offset="0.941" style="stop-color:#727579"/>
	<stop  offset="0.999" style="stop-color:#999EA4"/>
	<stop  offset="1" style="stop-color:#9A9FA5"/>
</linearGradient>
<path class="st14" d="M51.7,92.8c-1.9-0.5-3.1-2.5-2.6-4.4s2.4-3.1,4.4-2.6l15.3,4c1.9,0.5,3.1,2.5,2.6,4.4s-2.4,4.1-4.3,3.6
	L51.7,92.8z"/>
<linearGradient id="SVGID_13_" gradientUnits="userSpaceOnUse" x1="315.1751" y1="567.6439" x2="315.1751" y2="550.8389" gradientTransform="matrix(-0.2322 0.9687 0.9068 0.2481 -376.2066 -343.7954)">
	<stop  offset="0" style="stop-color:#AEB3B6"/>
	<stop  offset="0.126" style="stop-color:#F4F6F8"/>
	<stop  offset="0.225" style="stop-color:#AEB3B6"/>
	<stop  offset="0.332" style="stop-color:#E2E4E4"/>
	<stop  offset="0.494" style="stop-color:#F2F2F2"/>
	<stop  offset="0.622" style="stop-color:#ACADAE"/>
	<stop  offset="0.813" style="stop-color:#3D3F41"/>
	<stop  offset="0.844" style="stop-color:#434648"/>
	<stop  offset="0.888" style="stop-color:#55585B"/>
	<stop  offset="0.941" style="stop-color:#727579"/>
	<stop  offset="0.999" style="stop-color:#999EA4"/>
	<stop  offset="1" style="stop-color:#9A9FA5"/>
</linearGradient>
<path class="st15" d="M48.7,104l2.6-11.4l15.3,3.9L64,108L48.7,104z"/>
<linearGradient id="SVGID_14_" gradientUnits="userSpaceOnUse" x1="364.729" y1="571.8799" x2="364.729" y2="548.1309" gradientTransform="matrix(-0.2322 0.9687 0.9068 0.2481 -376.2066 -343.7954)">
	<stop  offset="0" style="stop-color:#010101"/>
	<stop  offset="1.200000e-02" style="stop-color:#0D0D0D"/>
	<stop  offset="5.900000e-02" style="stop-color:#2D2E2D"/>
	<stop  offset="0.102" style="stop-color:#464646"/>
	<stop  offset="0.143" style="stop-color:#555554"/>
	<stop  offset="0.176" style="stop-color:#595A5A"/>
	<stop  offset="1" style="stop-color:#010101"/>
</linearGradient>
<path class="st16" d="M32.3,189.4c-3.6-0.9-5.8-3.7-4.8-7.3l17-72c0.9-3.7,4.6-5.9,8.1-4.9l8.1,2.1c3.6,0.9,5.8,4.7,4.9,8.3
	l-17.1,71c-0.9,3.7-4.6,5.9-8.1,4.9L32.3,189.4L32.3,189.4z"/>
<path class="st4" d="M39.3,189.2c-1.6-0.4-2.2-2.6-1.3-6.2l16-68.3c0.9-3.5,3-6.1,4.6-5.6l3.8,1c1.6,0.4,2.3,3.6,1.4,7.2l-16.2,68.4
	c-0.9,3.5-3,5.1-4.6,4.6C43,190.3,39.3,189.2,39.3,189.2z"/>
<linearGradient id="SVGID_15_" gradientUnits="userSpaceOnUse" x1="323.1863" y1="570.9719" x2="323.1863" y2="548.6459" gradientTransform="matrix(-0.2322 0.9687 0.9068 0.2481 -376.2066 -343.7954)">
	<stop  offset="0" style="stop-color:#AEB3B6"/>
	<stop  offset="0.126" style="stop-color:#F4F6F8"/>
	<stop  offset="0.225" style="stop-color:#AEB3B6"/>
	<stop  offset="0.332" style="stop-color:#E2E4E4"/>
	<stop  offset="0.494" style="stop-color:#F2F2F2"/>
	<stop  offset="0.622" style="stop-color:#ACADAE"/>
	<stop  offset="0.813" style="stop-color:#3D3F41"/>
	<stop  offset="0.844" style="stop-color:#434648"/>
	<stop  offset="0.888" style="stop-color:#55585B"/>
	<stop  offset="0.941" style="stop-color:#727579"/>
	<stop  offset="0.999" style="stop-color:#999EA4"/>
	<stop  offset="1" style="stop-color:#9A9FA5"/>
</linearGradient>
<path class="st17" d="M45.6,107.5l1-4l20.4,5.3l-1,4L45.6,107.5z"/>
<linearGradient id="SVGID_16_" gradientUnits="userSpaceOnUse" x1="-853.167" y1="553.0825" x2="-754.1592" y2="553.0825" gradientTransform="matrix(-0.9361 0 0 1 -680.864 -506)">
	<stop  offset="0" style="stop-color:#CCCCCC"/>
	<stop  offset="0.176" style="stop-color:#FFFFFF"/>
	<stop  offset="1" style="stop-color:#6F6F6F"/>
</linearGradient>
<path class="st18" d="M59.9,92.7c-24.7-6.5-39.7-32.1-33.4-57.3S58.1-5,82.9,1.5s39.7,32.1,33.4,57.3
	C109.9,83.9,84.6,99.1,59.9,92.7L59.9,92.7z M62.1,84c20.1,5.2,40.5-7.1,45.6-27.5c5.2-20.4-7-41.2-27-46.5
	c-20.1-5.2-40.5,7.1-45.6,27.5C29.9,58,42,78.8,62.1,84z"/>
<linearGradient id="SVGID_17_" gradientUnits="userSpaceOnUse" x1="-851.717" y1="553.0491" x2="-755.2822" y2="553.0491" gradientTransform="matrix(-0.9361 0 0 1 -680.864 -506)">
	<stop  offset="0" style="stop-color:#FFFFFF"/>
	<stop  offset="1" style="stop-color:#B0B1B1"/>
</linearGradient>
<path class="st19" d="M60.1,91.6c-24.1-6.3-38.7-31.4-32.6-56S58.3-3.8,82.4,2.5s38.7,31.4,32.6,56C108.9,83,84.3,97.9,60.1,91.6z
	 M62.1,84c20.1,5.2,40.5-7.1,45.6-27.5c5.2-20.4-7-41.2-27-46.5c-20.1-5.2-40.5,7.1-45.6,27.5C29.9,58,42,78.8,62.1,84z"/>
<linearGradient id="SVGID_18_" gradientUnits="userSpaceOnUse" x1="-762.5317" y1="553.0021" x2="-844.4497" y2="553.0021" gradientTransform="matrix(-0.9361 0 0 1 -680.864 -506)">
	<stop  offset="0" style="stop-color:#FFFFFF"/>
	<stop  offset="1" style="stop-color:#6F6F6F"/>
</linearGradient>
<path class="st20" d="M61.8,85.1C41.1,79.7,28.6,58.3,34,37.2c5.3-21,26.3-33.7,47-28.3c20.7,5.4,33.2,26.8,27.8,47.9
	C103.5,77.8,82.5,90.5,61.8,85.1L61.8,85.1z M62.1,84c20.1,5.2,40.5-7.1,45.6-27.5c5.2-20.4-7-41.2-27-46.5
	c-20.1-5.2-40.5,7.1-45.6,27.5C29.9,58,42,78.8,62.1,84z"/>
<radialGradient id="SVGID_19_" cx="-349.5103" cy="-310.3535" r="25.9737" gradientTransform="matrix(1.096 0.1624 0.1599 -1.1162 478.2509 -148.5911)" gradientUnits="userSpaceOnUse">
	<stop  offset="0" style="stop-color:#FDC78A"/>
	<stop  offset="0.575" style="stop-color:#FDC389"/>
	<stop  offset="0.962" style="stop-color:#FBB986"/>
	<stop  offset="1" style="stop-color:#FBB885"/>
</radialGradient>
<path class="st21" d="M28.6,167.8c-21.4-7-9.8-64.3,16.3-57.5c27.3,7.1,28.4,5.8,29.5,16.2s-0.5,6-6.5,11.6c2.8,2.7,3,13.8-2.5,18
	c2.2,6.4-0.7,19-11.3,17C43.4,171.1,28.6,167.8,28.6,167.8"/>
</svg>
