<?xml version="1.0" encoding="utf-8"?>
<!-- Generator: Adobe Illustrator 20.1.0, SVG Export Plug-In . SVG Version: 6.00 Build 0)  -->
<svg version="1.0" id="Layer_1" xmlns="http://www.w3.org/2000/svg" xmlns:xlink="http://www.w3.org/1999/xlink" x="0px" y="0px"
	 width="316.1px" height="534.8px" viewBox="0 0 316.1 534.8" enable-background="new 0 0 316.1 534.8" xml:space="preserve">
<g>
	<g opacity="0.3">
		<path fill="#D6D6D6" d="M238.9,525.4c0,5.2-51.9,9.5-115.9,9.5c-64,0-115.9-4.2-115.9-9.5c0-5.2,51.9-9.5,115.9-9.5
			C187,515.9,238.9,520.1,238.9,525.4z"/>
	</g>
	<g>
		<radialGradient id="SVGID_1_" cx="162.6122" cy="436.7039" r="55.3843" gradientUnits="userSpaceOnUse">
			<stop  offset="0" style="stop-color:#FCC58A"/>
			<stop  offset="0.575" style="stop-color:#FCC289"/>
			<stop  offset="0.962" style="stop-color:#FBB986"/>
			<stop  offset="1" style="stop-color:#FBB885"/>
		</radialGradient>
		<path fill="url(#SVGID_1_)" d="M169.3,359.4c1.1,12.9,1.9,25.7,2.7,38.6c0.7,12.9,1.3,25.7,1.8,38.6c1,25.8,1.5,51.6,1.4,77.4
			l-25.3-1c2-25.4,3.5-50.9,4.5-76.4c0.5-12.8,0.9-25.5,1.1-38.3c0.3-12.8,0.4-25.6,0.3-38.3L169.3,359.4z"/>
		<radialGradient id="SVGID_2_" cx="78.3632" cy="436.7202" r="55.3855" gradientUnits="userSpaceOnUse">
			<stop  offset="0" style="stop-color:#FCC58A"/>
			<stop  offset="0.575" style="stop-color:#FCC289"/>
			<stop  offset="0.962" style="stop-color:#FBB986"/>
			<stop  offset="1" style="stop-color:#FBB885"/>
		</radialGradient>
		<path fill="url(#SVGID_2_)" d="M85.1,360.1c-0.1,12.7,0.1,25.5,0.3,38.3c0.3,12.8,0.6,25.5,1.1,38.3c1,25.5,2.4,51,4.5,76.4
			l-25.3,1c-0.1-25.8,0.5-51.6,1.4-77.4c0.5-12.9,1.1-25.7,1.8-38.6c0.7-12.9,1.6-25.7,2.6-38.6L85.1,360.1z"/>
		<radialGradient id="SVGID_3_" cx="32.2974" cy="309.8124" r="51.8713" gradientUnits="userSpaceOnUse">
			<stop  offset="0" style="stop-color:#FCC58A"/>
			<stop  offset="0.575" style="stop-color:#FCC289"/>
			<stop  offset="0.962" style="stop-color:#FBB986"/>
			<stop  offset="1" style="stop-color:#FBB885"/>
		</radialGradient>
		<path fill="url(#SVGID_3_)" d="M61.6,251.1c-0.6,0.8-1.4,2-2,3.1c-0.7,1.1-1.4,2.2-2,3.4c-1.3,2.3-2.5,4.7-3.6,7.1
			c-2.3,4.8-4.2,9.8-5.8,14.9c-3.3,10.1-5.4,20.5-6.5,30.9c-2.1,20.9-0.2,41.8,4.6,62L3,377.1c0-24.8,3.4-49.7,11.5-72.9
			c4-11.6,9.2-22.8,15.4-33.1c3.1-5.2,6.6-10.2,10.3-14.9c1.9-2.4,3.8-4.7,5.9-6.9c1-1.1,2.1-2.2,3.2-3.3c1.1-1.1,2.2-2.1,3.5-3.3
			L61.6,251.1z"/>
		<g>
			
				<linearGradient id="SVGID_4_" gradientUnits="userSpaceOnUse" x1="1137.3445" y1="960.3521" x2="1137.3445" y2="864.3069" gradientTransform="matrix(1 4.000000e-04 -4.000000e-04 1 -1016.2946 912.2178)">
				<stop  offset="0" style="stop-color:#426897"/>
				<stop  offset="1" style="stop-color:#192F4B"/>
			</linearGradient>
			<path fill="url(#SVGID_4_)" d="M186.3,355.3c0,16.1-24.1,14.3-61.5,14.3c-37.5,0-68.5,1.7-68.5-14.3c0-16.1,31.1-14.3,68.5-14.3
				C162.2,340.9,186.3,339.2,186.3,355.3z"/>
		</g>
		<g>
			<radialGradient id="SVGID_5_" cx="121.8553" cy="297.8511" r="66.5706" gradientUnits="userSpaceOnUse">
				<stop  offset="0" style="stop-color:#FCC58A"/>
				<stop  offset="0.575" style="stop-color:#FCC289"/>
				<stop  offset="0.962" style="stop-color:#FBB986"/>
				<stop  offset="1" style="stop-color:#FBB885"/>
			</radialGradient>
			<path fill="url(#SVGID_5_)" d="M195.2,252.3c0-7.5-6.1-13.5-13.5-13.5H62.1c-7.5,0-13.5,6.1-13.5,13.5v91.1
				c0,7.5,6.1,13.5,13.5,13.5h119.6c7.5,0,13.5-6.1,13.5-13.5V252.3z"/>
		</g>
		<g>
			<radialGradient id="SVGID_6_" cx="245.1828" cy="207.2268" r="54.3786" gradientUnits="userSpaceOnUse">
				<stop  offset="0" style="stop-color:#FCC58A"/>
				<stop  offset="0.575" style="stop-color:#FCC289"/>
				<stop  offset="0.962" style="stop-color:#FBB986"/>
				<stop  offset="1" style="stop-color:#FBB885"/>
			</radialGradient>
			<path fill="url(#SVGID_6_)" d="M188.1,242.7c2.6,0,5.7-0.2,8.5-0.5c2.9-0.3,5.8-0.8,8.6-1.4c5.7-1.2,11.1-2.8,16.3-5
				c10.3-4.3,19-10.8,25.2-18.8c6.2-8,10.1-17.4,12.2-27.5c2.1-10.1,2.4-21,1.6-32l43.4,2c-1.9,13.9-5.3,28-11.3,41.5
				c-5.9,13.5-14.8,26.3-26.4,35.8c-11.6,9.6-25.4,15.6-39,18.2c-6.9,1.3-13.7,1.9-20.5,1.8c-3.4,0-6.7-0.2-10.1-0.5
				c-3.4-0.4-6.6-0.8-10.1-1.6L188.1,242.7z"/>
			<g>
				<path fill="#FBC48A" d="M316.1,105.7c-5-5.4-13.4-3.2-13.4-3.2l-6.2,25c-0.5-0.1-0.9-0.2-1.4-0.3l2-29.4
					c-5.4-4.8-13.6-1.7-13.6-1.7l-4.8,28.7c-0.6,0-1.1-0.1-1.6-0.1l-2.1-26.2c-5.9-4.1-13.7,0-13.7,0l-1.6,32.7
					c-0.2,0.5-2.1,4.8-2.3,5.2l-14.5-6.7c-6.6,3.7-7.8,13-7.8,13l21.8,15.5c1.3,4.8,3,7.8,3,7.8c19.5,5.5,44.5,4.9,44.5,4.9
					c6.6-21.5,7.2-36.8,7.2-36.8L316.1,105.7z"/>
			</g>
		</g>
		<g>
			
				<radialGradient id="SVGID_7_" cx="-1977.2135" cy="4068.406" r="47.0944" gradientTransform="matrix(1 -1.500000e-03 1.500000e-03 1 2159.7488 -3560.0979)" gradientUnits="userSpaceOnUse">
				<stop  offset="0" style="stop-color:#FCC58A"/>
				<stop  offset="0.575" style="stop-color:#FCC289"/>
				<stop  offset="0.962" style="stop-color:#FBB986"/>
				<stop  offset="1" style="stop-color:#FBB885"/>
			</radialGradient>
			<path fill="url(#SVGID_7_)" d="M144.9,525.4l54.7-0.1c0.5,0,0.9-0.4,1-0.8c0.5-4.5-2.1-22.8-44.8-20.5
				c-10.8,0.6-12.3,16.5-11.9,20.6C144,525,144.5,525.4,144.9,525.4z"/>
		</g>
		<g>
			
				<radialGradient id="SVGID_8_" cx="245.0581" cy="511.3548" r="40.9395" gradientTransform="matrix(-1 0 0 1 312.5326 0)" gradientUnits="userSpaceOnUse">
				<stop  offset="0" style="stop-color:#FCC58A"/>
				<stop  offset="0.575" style="stop-color:#FCC289"/>
				<stop  offset="0.962" style="stop-color:#FBB986"/>
				<stop  offset="1" style="stop-color:#FBB885"/>
			</radialGradient>
			<path fill="url(#SVGID_8_)" d="M96.1,525.3H60.7c-0.5,0-0.9-0.4-1-0.8c-0.5-4.5-2.1-20.4,19.6-20.6c19.8-0.2,18.1,16.5,17.7,20.6
				C97,524.9,96.5,525.3,96.1,525.3z"/>
		</g>
		<g>
			<path fill="#FBC48A" d="M47.2,371.7c0,0-20.1-5.5-45.6,0.8c0,0-5.5,20.3,4,45.1c0,0,16.7,7.3,36,7.3c0,0-1.4-18-0.2-30.5
				c0,0,2.2,5.3,4.7,11.2c0,0,6.6,0,10-3.9C56.2,401.7,54.4,385.6,47.2,371.7z"/>
		</g>
	</g>
	<g>
		<path fill="#C69C6D" d="M203,77.3c-0.1-7.5-6.2-13.3-13.7-13.3L50.9,65.7c-7.5,0.1-13.5,6.1-13.4,13.6c0,0,0,16.9,3.1,117.6
			c1,33.2,8.1,46.8,15.3,46.7h132.2c7.2-0.1,14.5-15.4,14.7-48.7C203.4,94.2,203,77.3,203,77.3z"/>
		
			<radialGradient id="SVGID_9_" cx="-14300.2344" cy="-8508.7402" r="86.3203" gradientTransform="matrix(0.9999 -1.240000e-02 1.240000e-02 0.9999 14525.5488 8483.5225)" gradientUnits="userSpaceOnUse">
			<stop  offset="0" style="stop-color:#FCC58A"/>
			<stop  offset="0.575" style="stop-color:#FCC289"/>
			<stop  offset="0.962" style="stop-color:#FBB986"/>
			<stop  offset="1" style="stop-color:#FBB885"/>
		</radialGradient>
		<path fill="url(#SVGID_9_)" d="M203,75.6c-0.1-7.5-6.2-13.3-13.7-13.3L50.9,64.1c-7.5,0.1-13.5,6.1-13.4,13.6
			c0,0,0,16.9,3.1,117.6c1,33.2,8.1,46.8,15.3,46.7h132.2c7.2-0.1,14.5-15.4,14.7-48.7C203.4,92.5,203,75.6,203,75.6z"/>
		<g>
			<path fill="#CE985E" d="M204.9,163.7c0.4-80.3-1.9-88.2-1.9-88.2c-0.1-7.5-6.2-13.5-13.7-13.4L50.9,63.8
				c-7.5,0.1-13.5,6.2-13.4,13.7c0,0-2.4,10,0,90.4c0.6,0.7,2.6,11.6,2.6,11.6c0.4-49.2,10.5-86.4,10.5-86.4s50,26.5,105.2,9
				l-10.3-9c29.6-3.4,38.8-9.2,38.8-9.2c14.9,35.6,18.6,89.5,18.6,89.5C203.2,173.1,204.9,163.7,204.9,163.7z"/>
		</g>
		<g>
			
				<linearGradient id="SVGID_10_" gradientUnits="userSpaceOnUse" x1="-14302.957" y1="-8665.2607" x2="-14302.957" y2="-8482.0498" gradientTransform="matrix(0.9999 -1.240000e-02 1.240000e-02 0.9999 14525.5488 8483.5225)">
				<stop  offset="0" style="stop-color:#574537"/>
				<stop  offset="0.5758" style="stop-color:#433329"/>
				<stop  offset="1" style="stop-color:#32241D"/>
			</linearGradient>
			<path fill="url(#SVGID_10_)" d="M40.2,179.6c0-2.2-13.2-5.6-15.4-87.7c-1.7,1.9-4.4,3.4-6,5.6c-0.1-22.1,10.4-26.7,10.4-26.7
				c-3.1,2.8,0.2-0.1,0,0c0,0,0-4-6.6-4.4c4.8-6,9.7-6.2,17.2-6.6c-1.8-0.5,4.5-13,5.4-14c3.9-4.6,10.5-7.3,16.2-8.6
				c-2,2.1-2.9,4.8-4.5,7.1c19.4-8.1,27.9-14.2,49.5-14.8c17.7-0.4,43.4-1,60.3-7.7c11.1-4.4,19.1-11.1,17.5-21.6
				c-0.4-0.2-0.4-0.2,0,0c19,12.3,16.8,32.5,16.8,32.5s2.1-0.7,5.4-7.7c4.6,13.8,2.6,28.8-3.3,37.9c17.7,10.3,13.4,38.6,12.6,52
				c-3.1,46.5-12.8,58.6-12.8,58.6c0.5-27.8-2.6-70.4-15-95.7c0,0-14.1,9.9-37.6,14.8l10.9,5.7c-60,15.2-113.3-9.7-112.7-13.7
				C48.5,85,37.6,111.4,40.2,179.6z"/>
		</g>
		
			<ellipse transform="matrix(0.9999 -1.247393e-02 1.247393e-02 0.9999 -2.052 2.3521)" fill="#FAB383" cx="187.5" cy="165.7" rx="9.2" ry="9.2"/>
		
			<ellipse transform="matrix(0.9999 -1.228922e-02 1.228922e-02 0.9999 -2.0518 0.7015)" fill="#FAB383" cx="56.1" cy="167.3" rx="9.2" ry="9.2"/>
		<path fill="#836F67" d="M80.9,49.5c32.7-17.9,48-10,76.6-15c12.5-2.2,16.2-10,16.2-10c-8.5,28.3-45.9,14.6-73.6,19.7L80.9,49.5z"
			/>
	</g>
	<g>
		<radialGradient id="SVGID_11_" cx="82.0164" cy="135.2566" r="14.7003" gradientUnits="userSpaceOnUse">
			<stop  offset="0" style="stop-color:#454545"/>
			<stop  offset="1" style="stop-color:#101010"/>
		</radialGradient>
		<circle fill="url(#SVGID_11_)" cx="82.1" cy="135.8" r="12.8"/>
		<circle fill="#FFFFFF" cx="85.7" cy="131.3" r="4.5"/>
	</g>
	<g>
		<radialGradient id="SVGID_12_" cx="163.0866" cy="135.2566" r="14.7007" gradientUnits="userSpaceOnUse">
			<stop  offset="0" style="stop-color:#454545"/>
			<stop  offset="1" style="stop-color:#101010"/>
		</radialGradient>
		<circle fill="url(#SVGID_12_)" cx="163.1" cy="135.8" r="12.8"/>
		<circle fill="#FFFFFF" cx="166.8" cy="131.3" r="4.5"/>
	</g>
	<g>
		<path fill="#856848" d="M124.8,204.9c-23.3,0-34.1-8.9-34.5-9.3c-1.3-1.1-1.5-3.2-0.4-4.5c1.1-1.3,3.2-1.5,4.5-0.4
			c0.2,0.1,9.7,7.8,30.4,7.8c16.9,0,25.7-7.6,25.8-7.7c1.3-1.2,3.3-1.1,4.5,0.3c1.2,1.3,1.1,3.3-0.2,4.5
			C154.4,196,144.3,204.9,124.8,204.9z"/>
	</g>
</g>
<g id="XMLID_1_">
	<g>
		<path fill="#1A1A1A" d="M197.7,120.5c5.2,4.3,3.6,12.6,3.5,21.7c-0.1,19.2-9.3,26.6-32,26.2c-7.7-0.1-14.6-1.9-19.4-5
			c-5.3-3.4-8.7-8.8-11-14.7c-0.8-2-1.4-4.1-2-6.1c-2.1-7.5-4.4-14.8,0.5-19.6c4.5-4.4,14.9-6.4,24.1-7.1c2.8-0.2,5.4-0.3,7.8-0.3
			C178.7,115.5,191.9,115.7,197.7,120.5z"/>
		<path fill="#1A1A1A" d="M169.2,168.3c22.7,0.4,31.9-7,32-26.2c0.1-9,1.7-17.4-3.5-21.7c-5.8-4.8-18.9-5-28.7-5
			c-2.3,0-5,0.1-7.8,0.3l-0.2-3.2c3.1-0.2,6.3-0.4,9.7-0.4c23.7-0.1,27.9,2.5,39.7,3.4c1.1,0.1,2,0.9,1.9,2.8c0,3.1-0.2,5.8-0.2,8.5
			c0,2.4-2.1,2.1-3.3,5c-3.7,9.2-2.2,24.4-11.2,32.4c-2.6,2.3-7.2,5.1-11.7,5.5c-21.7,2-40.4,3.4-48.7-18.7
			c-0.2-0.6-0.4-1.1-0.7-1.7l2.2-0.9c2.3,5.9,5.7,11.4,11,14.7C154.6,166.4,161.5,168.2,169.2,168.3z"/>
		<path fill="#1A1A1A" d="M107.9,122.8c4.8,4.8,2.6,12.1,0.5,19.6c-0.6,2-1.2,4.1-2,6.1c-2.3,5.9-5.7,11.4-11.1,14.8
			c-4.9,3.1-11.7,4.9-19.4,5c-22.7,0.4-31.9-7-32-26.2c0-9-1.7-17.4,3.5-21.7c5.8-4.8,18.9-5,28.7-5c2.2,0,4.7,0.1,7.3,0.3
			C92.6,116.4,103.3,118.4,107.9,122.8z"/>
		<path fill="#1A1A1A" d="M122.6,116.1c15,0,25.2-2.5,38.4-3.5l0.2,3.2c-9.2,0.7-19.6,2.7-24.1,7.1c-4.8,4.8-2.6,12.1-0.5,19.6
			c0.6,2,1.3,4.1,2,6.1l-2.2,0.9c-1.6-3.9-3.7-7.5-5.3-13.5c-2.5-4.7-2.6-3.7-8.6-4c-6,0.3-6.1-0.6-8.6,4c-1.6,6-3.7,9.6-5.3,13.5
			l-2.3-1c0.8-2,1.4-4,2-6.1c2.1-7.5,4.4-14.8-0.5-19.6c-4.5-4.5-15.2-6.4-24.5-7.1l0.2-3.2C97,113.5,107.3,116.1,122.6,116.1
			L122.6,116.1z"/>
		<path fill="#1A1A1A" d="M47.5,164.4c-9-8-7.5-23.2-11.3-32.4c-1.2-2.9-3.3-2.5-3.3-5c0-2.7-0.2-5.4-0.2-8.5
			c-0.2-1.8,0.8-2.6,1.9-2.7c11.8-0.9,16-3.7,39.7-3.6c3.3,0,6.3,0.2,9.2,0.4l-0.2,3.2c-2.6-0.2-5.1-0.3-7.3-0.3
			c-9.8,0-22.9,0.2-28.7,5c-5.2,4.3-3.6,12.6-3.5,21.7c0.1,19.2,9.3,26.6,32,26.2c7.7-0.1,14.5-1.9,19.4-5
			c5.4-3.4,8.7-8.8,11.1-14.8l2.3,1c-0.2,0.6-0.5,1.1-0.7,1.7c-8.3,22.1-27,20.7-48.7,18.7C54.7,169.5,50.1,166.6,47.5,164.4z"/>
	</g>
	<g>
	</g>
</g>
<path fill="none" stroke="#C69C6D" stroke-width="1.6775" stroke-miterlimit="10" d="M142.1,280.9c2.6-0.6,5.3,0.7,5,3.7
	c-4.2,1.5-7.9,2-7.5-3.5c0.5-7.9,8.3-6.5,11.7-1"/>
<path fill="none" stroke="#C69C6D" stroke-width="1.6775" stroke-miterlimit="10" d="M155.5,269.2c-2.4-4,1.3-9.4,5.9-7.6
	c5,1.9,1.5,8-2.4,8.8c-8.7,1.7-9.7-12.8-0.1-11.2"/>
<path fill="none" stroke="#C69C6D" stroke-width="1.6775" stroke-miterlimit="10" d="M134.1,256.2c3.8,0.3,2.3,3.8-1.2,2.9
	c-0.1-2-0.8-4.1,1.2-5c1.7-0.7,5,1.1,5.8,2.6c2.5,4.7-3.3,7.8-7.5,7"/>
<path fill="none" stroke="#C69C6D" stroke-width="1.6775" stroke-miterlimit="10" d="M85.5,277.2c1.9,0.1,2.1,2,1.6,3.7
	c-7,1.3-5.4-6.8-0.5-5.5c2.6,0.7,4.2,5.2,3.1,7.7c-1.6,3.5-6.5,2.5-9.7,2.5"/>
<path fill="none" stroke="#C69C6D" stroke-width="1.6775" stroke-miterlimit="10" d="M89.7,254.9c8.1-2.2-1.4,8.6-2.1,1.7
	c-0.4-3.8,7.8-3.4,7.1,2.1"/>
<path fill="none" stroke="#C69C6D" stroke-width="1.6775" stroke-miterlimit="10" d="M111.5,284.7c-0.1-1-1.1-3.8-0.1-4.7
	c0.9-0.9,3.9-0.5,4.6,0.5c1.8,2.9-2.5,5.2-4.6,5.4c-3.3,0.2-7.1-4.6-4.1-7.5c1.5-1.5,7.7-0.4,9.3,0.4"/>
</svg>
