<svg id="Layer_1" xmlns="http://www.w3.org/2000/svg" xmlns:xlink="http://www.w3.org/1999/xlink" viewBox="0 0 324.8 336.2"><style>.st0{fill:#5b422d}.st3{fill:#ce985e}.st4{fill:#836f67}.st5{fill:#efa470}.st7{fill:#fff}.st20{fill:#8c6239}.st31{fill:#666}.st36{opacity:.57;fill:#fff;enable-background:new}</style><g id="characters__x2F__objects__x2F__postitions"><path class="st0" d="M163.3 178.7l-28.7 9.6 16.4 9.8s19.7-2.2 19.9-3.5-7-15.9-7-15.9m38.4-52.8s23.3 1.6-2 18.3c-.8-9.7 0-17.8 0-17.8l2-.5z"/><linearGradient id="SVGID_1_" gradientUnits="userSpaceOnUse" x1="-345.916" y1="827.922" x2="-345.916" y2="749.03" gradientTransform="matrix(.9361 0 0 1 462.75 -506.048)"><stop offset="0" stop-color="#426897"/><stop offset="1" stop-color="#192f4b"/></linearGradient><path d="M151.9 247.9c-4.9 11.7-25.5 45.4.4 75l-16 1.1c-23.3-28.8-2.6-57.2 5.7-73.3l9.9-2.8z" fill="url(#SVGID_1_)"/><radialGradient id="SVGID_2_" cx="-440.684" cy="667.719" r="47.202" gradientTransform="matrix(1.0734 -.2799 .2735 1.0927 442.324 -721.37)" gradientUnits="userSpaceOnUse"><stop offset="0" stop-color="#fcc58a"/><stop offset=".575" stop-color="#fcc289"/><stop offset=".962" stop-color="#fbb986"/><stop offset="1" stop-color="#fbb885"/></radialGradient><path d="M194.1 179.1c4.2-1.1 10.8-30.8 6.3-50.4-13.7-59.3-13.1-56.4-13.1-56.4-1.1-4.4-5.5-7-9.7-5.9L97.8 87.2c-4.3 1.1-5.5 7-4.4 11.3 3.3 11.3 5.9 21.9 14.3 53.6 12.2 45.5 22.8 43 41.7 38l44.7-11z" fill="url(#SVGID_2_)"/><path class="st3" d="M198.4 112c-8.8-47.8-8.3-53.1-8.3-53.1-.9-4.4-5.2-7.3-9.5-6.4L99.9 69.6c-4.5.9-7 25-9.7 11.6-.5-.7-1.9 1.2 7.1 42 .4.3 7 16.4 7 16.4-12.4-30.7-7-48-7-48s46.4 8.8 76.7-8l-5.1-1.6 9.6-2c13.7 21 16.7 50 16.3 42.9 0-.3 3.5-10.7 3.6-10.9z"/><path class="st4" d="M115.7 57.5c17.1-14.4 26.9-11.5 43.1-17.7 7-2.8 8.2-7.8 8.2-7.8-1.8 17.8-25.1 14-40.8 20.2l-10.5 5.3z"/><path class="st5" d="M121.8 139.8c.4 3-1.7 5.9-4.7 6.3-3 .4-5.8-1.7-6.2-4.7-.4-3 1.7-5.9 4.7-6.3 3-.5 5.8 1.6 6.2 4.7z"/><path class="st3" d="M107.4 120.6c.6 4.4 4.6 7.5 8.9 6.8 4.4-.6 7.3-4.7 6.8-9.1-.6-4.4-4.6-7.5-8.9-6.8-4.3.6-7.4 4.7-6.8 9.1z"/><radialGradient id="SVGID_3_" cx="-209.917" cy="640.455" r="6.313" gradientTransform="matrix(-1.097 .1581 .1533 1.1168 -213.262 -563.177)" gradientUnits="userSpaceOnUse"><stop offset="0" stop-color="#333"/><stop offset=".456" stop-color="#313131"/><stop offset=".7" stop-color="#292929"/><stop offset=".894" stop-color="#1b1b1b"/><stop offset="1" stop-color="#101010"/></radialGradient><path d="M108.3 119.9c.5 3.9 4.1 6.6 7.8 6.1 3.9-.6 6.5-4.2 6-8.1s-4.1-6.6-7.8-6c-3.9.5-6.6 4.1-6 8z" fill="url(#SVGID_3_)"/><path class="st7" d="M119.7 114.8c1 1.4.9 3.2-.3 4.1-1.2.9-3 .5-4-.9s-.9-3.2.3-4.1c1.2-.8 3-.5 4 .9z"/><path class="st3" d="M169.8 109.1c.6 4.4-2.4 8.5-6.8 9.1s-8.3-2.4-8.9-6.8c-.6-4.4 2.4-8.5 6.8-9.1 4.2-.7 8.3 2.4 8.9 6.8z"/><radialGradient id="SVGID_4_" cx="-370.52" cy="638.861" r="6.307" gradientTransform="matrix(1.097 -.1581 .1533 1.1168 470.361 -662.4)" gradientUnits="userSpaceOnUse"><stop offset="0" stop-color="#333"/><stop offset=".456" stop-color="#313131"/><stop offset=".7" stop-color="#292929"/><stop offset=".894" stop-color="#1b1b1b"/><stop offset="1" stop-color="#101010"/></radialGradient><path d="M168.8 108.7c.5 3.9-2.1 7.5-6 8-3.9.6-7.3-2.2-7.8-6.1s2.1-7.5 6-8c3.7-.5 7.2 2.2 7.8 6.1z" fill="url(#SVGID_4_)"/><path class="st7" d="M166.4 105.6c1 1.4.9 3.2-.3 4.1s-3 .5-4-.9-.9-3.2.3-4.1 3-.5 4 .9z"/><linearGradient id="SVGID_5_" gradientUnits="userSpaceOnUse" x1="-14767.067" y1="-7626.364" x2="-14767.067" y2="-7504.102" gradientTransform="matrix(.9166 -.2027 .1897 .9792 15113.397 4496.51)"><stop offset="0" stop-color="#574537"/><stop offset=".576" stop-color="#433329"/><stop offset="1" stop-color="#32241d"/></linearGradient><path d="M104.4 140.3c-.4-2.2-6.3-3.5-16.6-51.1-.8 1.3-2.2 2.5-2.9 4-2.6-13.1 3.1-17 3.1-17-1.5 2 .1-.1 0 0 0 0-.5-2.4-4.4-1.8 2.1-4.1 5-4.8 9.2-5.9-1.1-.1 7.1-4.7 7.4-5.4 1.7-3.2 2.1-5.2 2.6-10.6-1 1.5-1.2 3.2-1.8 4.7 10.4-7.1 14.7-11.7 27.3-14.5 10.2-2.3 25.2-5.6 34.4-11.6 6-3.9 9.9-8.8 7.7-14.9-.3-.1-.3-.1 0 0 12.4 5.1 13.5 17.4 13.5 17.4s1.2-.6 2.3-5.2c4.3 7.7 4.7 16.8 2.3 23 11.5 4.1 17.8 46.1 17.5 54.2-1.2 30.5-6.6 26-11.7 23.5-2.9-16.6-4.5-39.3-14.5-52.9 0 0-5-1.9-18.1 3.7l7 2.1c-33.4 16-74.2 8.6-74.3 6.1.2 1.5-.3 13.6 10 52.2z" fill="url(#SVGID_5_)"/><path class="st0" d="M169.2 178.3s-6 42-33.8 1.5c19 1.2 32.5-4.6 32.5-4.6l1.3 3.1z"/><radialGradient id="SVGID_6_" cx="10616.925" cy="4335.322" r="25.284" gradientTransform="matrix(-1.4758 -.0022 -.00169 1.128 15801.015 -4541.189)" gradientUnits="userSpaceOnUse"><stop offset="0" stop-color="#454545"/><stop offset="1" stop-color="#252525"/></radialGradient><path d="M160.2 334.3l-43.3-.1c-.4 0-.7-.2-.8-.5-.4-2.7 1.7-13.8 35.5-12.4 8.5.3 9.7 10 9.4 12.5-.1.3-.4.5-.8.5z" fill="url(#SVGID_6_)"/><linearGradient id="SVGID_7_" gradientUnits="userSpaceOnUse" x1="-1641.42" y1="827.949" x2="-1641.42" y2="742.358" gradientTransform="matrix(-.9144 .0025 .1975 1.0232 -1449.074 -519.745)"><stop offset="0" stop-color="#426897"/><stop offset="1" stop-color="#192f4b"/></linearGradient><path d="M192.6 245.6c7.1 12 7.6 18.1 11 38.9 1.1 11.5 5.2 34.2 3.7 40.2l14 1.1c1.7-18.9-4.4-31.6-8.1-47.6-1.9-8-1.9-20.5-13.3-36.9l-7.3 4.3z" fill="url(#SVGID_7_)"/><radialGradient id="SVGID_8_" cx="11859.333" cy="4288.432" r="26.523" gradientTransform="matrix(1.1765 -.002 .00169 1.2529 -13734.27 -5023.93)" gradientUnits="userSpaceOnUse"><stop offset="0" stop-color="#454545"/><stop offset="1" stop-color="#252525"/></radialGradient><path d="M197.4 335.6l34.6-.1c.3 0 .6-.3.6-.6.3-3 2.3-15-16.1-15-24 0-20 12.3-19.7 15 0 .4.3.7.6.7z" fill="url(#SVGID_8_)"/><linearGradient id="SVGID_9_" gradientUnits="userSpaceOnUse" x1="-431.67" y1="755.237" x2="-431.67" y2="628.937" gradientTransform="matrix(-.9361 0 0 1 -218.703 -506.048)"><stop offset="0" stop-color="#8c6239"/><stop offset=".034" stop-color="#8f653c"/><stop offset=".208" stop-color="#9c7248"/><stop offset=".443" stop-color="#a3794f"/><stop offset="1" stop-color="#a57b51"/></linearGradient><path d="M148.1 195.6c2.4-.7 18.2-11.3 13.4-30.2 23.7-3.9 36.8-16.1 45.5-28.8 7.1-10.7-2-9-2-9 1.5-4.7-.6-2.3-.6-4.7 8.9-.2 12.6 2.3 10.6 12.4-2.9 14.6-1.7 15.6-1.7 15.6s13.3 25.4 8.2 82c-8.7 14.7-58.6 16.8-62.6 16.2-3.9-.8-10.8-53.5-10.8-53.5z" fill="url(#SVGID_9_)"/><linearGradient id="SVGID_10_" gradientUnits="userSpaceOnUse" x1="-395.481" y1="748.548" x2="-395.481" y2="824.314" gradientTransform="matrix(-.9361 0 0 1 -218.703 -506.048)"><stop offset="0" stop-color="#8c6239"/><stop offset=".034" stop-color="#8f653c"/><stop offset=".208" stop-color="#9c7248"/><stop offset=".443" stop-color="#a3794f"/><stop offset="1" stop-color="#a57b51"/></linearGradient><path d="M124.5 313.5s-7.8-29.5 7.5-56.8c37.4 4.4 48.5-14.2 48.5-14.2s-1.9 24.2-3.5 29.3c-1.6 5.2-5.7 19.8-9.8 45.1-17.5 2-34.3 2.5-42.7-3.4z" fill="url(#SVGID_10_)"/><linearGradient id="SVGID_11_" gradientUnits="userSpaceOnUse" x1="-445.368" y1="750.648" x2="-445.368" y2="823.084" gradientTransform="matrix(-.9361 0 0 1 -218.703 -506.048)"><stop offset="0" stop-color="#8c6239"/><stop offset=".034" stop-color="#8f653c"/><stop offset=".208" stop-color="#9c7248"/><stop offset=".443" stop-color="#a3794f"/><stop offset="1" stop-color="#a57b51"/></linearGradient><path d="M224.6 244.6s5.4 7.6 7.5 29.3c2.5 24.6-.1 33.2-1 35.4-1.6 4.1-48.5 9.2-53.5 7.2-5.3-2.1-15.7-53.7-14.2-57.4 1.7-4 9.2-11.6 9.2-11.6l52-2.9z" fill="url(#SVGID_11_)"/><linearGradient id="SVGID_12_" gradientUnits="userSpaceOnUse" x1="-316.049" y1="676.548" x2="-316.049" y2="725.264" gradientTransform="matrix(-.9361 0 0 1 -218.703 -506.048)"><stop offset="0" stop-color="#8c6239"/><stop offset=".034" stop-color="#8f653c"/><stop offset=".208" stop-color="#9c7248"/><stop offset=".443" stop-color="#a3794f"/><stop offset="1" stop-color="#a57b51"/></linearGradient><path d="M119.6 214.2s-14.8-1.1-25.2 3.2c-20.6 8.5-59.7-15.6-59.7-15.6s30.4-25.9 74.1-31.3c3.6 4.9 8.7 17.9 10.5 24.7-1.8 10.3.3 19 .3 19z" fill="url(#SVGID_12_)"/><linearGradient id="SVGID_13_" gradientUnits="userSpaceOnUse" x1="-259.408" y1="724.906" x2="-310.021" y2="724.906" gradientTransform="matrix(-.9361 0 0 1 -218.703 -506.048)"><stop offset="0" stop-color="#8c6239"/><stop offset="1" stop-color="#a57b51"/></linearGradient><path d="M64.5 239.7s-7.7 11.7-23.3 3.5c-28.9-15.3-13.5-34.7-7.3-40.5 11.6-10.9 37.7-11.1 37.7-11.1l-7.1 48.1" fill="url(#SVGID_13_)"/><linearGradient id="SVGID_14_" gradientUnits="userSpaceOnUse" x1="-379.533" y1="759.148" x2="-379.533" y2="652.148" gradientTransform="matrix(-.9361 0 0 1 -218.703 -506.048)"><stop offset="0" stop-color="#8c6239"/><stop offset=".034" stop-color="#8f653c"/><stop offset=".208" stop-color="#9c7248"/><stop offset=".443" stop-color="#a3794f"/><stop offset="1" stop-color="#a57b51"/></linearGradient><path d="M174.5 246.2C172 243.9 161 192 161 192s-27.3-5.1-26.4-25.1c-23.7 6.3-38.9-3.8-29.3-15.5-.4-1.3.9-4.4.6-5.3-14.6 16.5-3.2 20.9.3 29.8 1.5 3.2 7.9 8.7 10.5 11.7 0 0-.6 13.9 2 28.2 2.6 14.2 5.7 27 11.8 32.7 3.2 3 11.4 4.6 23.5 4.6 12.3 0 20.5-6.9 20.5-6.9z" fill="url(#SVGID_14_)"/><path class="st0" d="M109.4 166.4l2.3-.6-4.1-13.7c0 .1-13 16.1 1.8 14.3z"/><linearGradient id="SVGID_15_" gradientUnits="userSpaceOnUse" x1="-499.031" y1="671.965" x2="-452.261" y2="752.973" gradientTransform="matrix(-.9361 0 0 1 -218.703 -506.048)"><stop offset="0" stop-color="#8c6239"/><stop offset=".034" stop-color="#8f653c"/><stop offset=".208" stop-color="#9c7248"/><stop offset=".443" stop-color="#a3794f"/><stop offset="1" stop-color="#a57b51"/></linearGradient><path d="M213.4 151.1c-.3 7.2-5-5.6 9.9 2 10.4 5.3 27.1 6.4 31.1 32.5 2.5 16.6 2.4 41.5-1.5 55.7-.6 4-23.3 26.1-23.3 20.4 0-4-6.3-21.7-6.3-21.7-12.5 7.3-11.8-54.5-14.1-85.4" fill="url(#SVGID_15_)"/><path class="st20" d="M134.5 166.4s-43.2 5.2-26.9-14.2c-.9-3-1.6-6-1.6-6s-27.7 29.1 24.7 24.8c3.3 5.2 14.9 16.7 19.4 17.1-14.6-11.3-15.4-20.7-15.6-21.7"/><path class="st3" d="M198.4 112c-8.8-47.8-8.3-53.1-8.3-53.1-.9-4.4-5.2-7.3-9.5-6.4L99.9 69.6c-4.5.9-7 25-9.7 11.6-.5-.7-1.9 1.2 7.1 42 .4.3 7 16.4 7 16.4-12.4-30.7-7-48-7-48s46.4 8.8 76.7-8l-5.1-1.6 9.6-2c13.7 21 16.7 50 16.3 42.9 0-.3 3.5-10.7 3.6-10.9z"/><path class="st4" d="M115.7 57.5c17.1-14.4 26.9-11.5 43.1-17.7 7-2.8 8.2-7.8 8.2-7.8-1.8 17.8-25.1 14-40.8 20.2l-10.5 5.3z"/><path class="st5" d="M170 134.2c.4 3-1.7 5.9-4.7 6.3-3 .4-5.8-1.7-6.2-4.7s1.7-5.9 4.7-6.3c3-.4 5.8 1.7 6.2 4.7zm-48.2 5.6c.4 3-1.7 5.9-4.7 6.3-3 .4-5.8-1.7-6.2-4.7-.4-3 1.7-5.9 4.7-6.3 3-.5 5.8 1.6 6.2 4.7z"/><path class="st3" d="M107.4 120.6c.6 4.4 4.6 7.5 8.9 6.8 4.4-.6 7.3-4.7 6.8-9.1-.6-4.4-4.6-7.5-8.9-6.8-4.3.6-7.4 4.7-6.8 9.1z"/><radialGradient id="SVGID_16_" cx="-209.917" cy="640.455" r="6.313" gradientTransform="matrix(-1.097 .1581 .1533 1.1168 -213.262 -563.177)" gradientUnits="userSpaceOnUse"><stop offset="0" stop-color="#333"/><stop offset=".456" stop-color="#313131"/><stop offset=".7" stop-color="#292929"/><stop offset=".894" stop-color="#1b1b1b"/><stop offset="1" stop-color="#101010"/></radialGradient><path d="M108.3 119.9c.5 3.9 4.1 6.6 7.8 6.1 3.9-.6 6.5-4.2 6-8.1s-4.1-6.6-7.8-6c-3.9.5-6.6 4.1-6 8z" fill="url(#SVGID_16_)"/><path class="st7" d="M119.7 114.8c1 1.4.9 3.2-.3 4.1-1.2.9-3 .5-4-.9s-.9-3.2.3-4.1c1.2-.8 3-.5 4 .9z"/><path class="st3" d="M169.8 109.1c.6 4.4-2.4 8.5-6.8 9.1s-8.3-2.4-8.9-6.8c-.6-4.4 2.4-8.5 6.8-9.1 4.2-.7 8.3 2.4 8.9 6.8z"/><radialGradient id="SVGID_17_" cx="-370.52" cy="638.861" r="6.307" gradientTransform="matrix(1.097 -.1581 .1533 1.1168 470.361 -662.4)" gradientUnits="userSpaceOnUse"><stop offset="0" stop-color="#333"/><stop offset=".456" stop-color="#313131"/><stop offset=".7" stop-color="#292929"/><stop offset=".894" stop-color="#1b1b1b"/><stop offset="1" stop-color="#101010"/></radialGradient><path d="M168.8 108.7c.5 3.9-2.1 7.5-6 8-3.9.6-7.3-2.2-7.8-6.1s2.1-7.5 6-8c3.7-.5 7.2 2.2 7.8 6.1z" fill="url(#SVGID_17_)"/><path class="st7" d="M166.4 105.6c1 1.4.9 3.2-.3 4.1s-3 .5-4-.9-.9-3.2.3-4.1 3-.5 4 .9z"/><linearGradient id="SVGID_18_" gradientUnits="userSpaceOnUse" x1="-14767.067" y1="-7626.364" x2="-14767.067" y2="-7504.102" gradientTransform="matrix(.9166 -.2027 .1897 .9792 15113.397 4496.51)"><stop offset="0" stop-color="#574537"/><stop offset=".576" stop-color="#433329"/><stop offset="1" stop-color="#32241d"/></linearGradient><path d="M104.4 140.3c-.4-2.2-6.3-3.5-16.6-51.1-.8 1.3-2.2 2.5-2.9 4-2.6-13.1 3.1-17 3.1-17-1.5 2 .1-.1 0 0 0 0-.5-2.4-4.4-1.8 2.1-4.1 5-4.8 9.2-5.9-1.1-.1 7.1-4.7 7.4-5.4 1.7-3.2 2.1-5.2 2.6-10.6-1 1.5-1.2 3.2-1.8 4.7 10.4-7.1 14.7-11.7 27.3-14.5 10.2-2.3 25.2-5.6 34.4-11.6 6-3.9 9.9-8.8 7.7-14.9-.3-.1-.3-.1 0 0 12.4 5.1 13.5 17.4 13.5 17.4s1.2-.6 2.3-5.2c4.3 7.7 4.7 16.8 2.3 23 11.5 4.1 17.8 46.1 17.5 54.2-1.2 30.5-6.6 26-11.7 23.5-2.9-16.6-4.5-39.3-14.5-52.9 0 0-5-1.9-18.1 3.7l7 2.1c-33.4 16-74.2 8.6-74.3 6.1.2 1.5-.3 13.6 10 52.2z" fill="url(#SVGID_18_)"/><linearGradient id="SVGID_19_" gradientUnits="userSpaceOnUse" x1="-431.67" y1="755.237" x2="-431.67" y2="628.937" gradientTransform="matrix(-.9361 0 0 1 -218.703 -506.048)"><stop offset="0" stop-color="#8c6239"/><stop offset=".034" stop-color="#8f653c"/><stop offset=".208" stop-color="#9c7248"/><stop offset=".443" stop-color="#a3794f"/><stop offset="1" stop-color="#a57b51"/></linearGradient><path d="M148.1 195.6c2.4-.7 18.2-11.3 13.4-30.2 23.7-3.9 36.8-16.1 45.5-28.8 7.1-10.7-2-9-2-9 1.5-4.7-.6-2.3-.6-4.7 8.9-.2 12.6 2.3 10.6 12.4-2.9 14.6-1.7 15.6-1.7 15.6s13.3 25.4 8.2 82c-8.7 14.7-58.6 16.8-62.6 16.2-3.9-.8-10.8-53.5-10.8-53.5z" fill="url(#SVGID_19_)"/><linearGradient id="SVGID_20_" gradientUnits="userSpaceOnUse" x1="-316.049" y1="676.548" x2="-316.049" y2="725.264" gradientTransform="matrix(-.9361 0 0 1 -218.703 -506.048)"><stop offset="0" stop-color="#8c6239"/><stop offset=".034" stop-color="#8f653c"/><stop offset=".208" stop-color="#9c7248"/><stop offset=".443" stop-color="#a3794f"/><stop offset="1" stop-color="#a57b51"/></linearGradient><path d="M119.6 214.2s-14.8-1.1-25.2 3.2c-20.6 8.5-59.7-15.6-59.7-15.6s30.4-25.9 74.1-31.3c3.6 4.9 8.7 17.9 10.5 24.7-1.8 10.3.3 19 .3 19z" fill="url(#SVGID_20_)"/><linearGradient id="SVGID_21_" gradientUnits="userSpaceOnUse" x1="-379.533" y1="759.148" x2="-379.533" y2="652.148" gradientTransform="matrix(-.9361 0 0 1 -218.703 -506.048)"><stop offset="0" stop-color="#8c6239"/><stop offset=".034" stop-color="#8f653c"/><stop offset=".208" stop-color="#9c7248"/><stop offset=".443" stop-color="#a3794f"/><stop offset="1" stop-color="#a57b51"/></linearGradient><path d="M174.5 246.2C172 243.9 161 192 161 192s-27.3-5.1-26.4-25.1c-23.7 6.3-38.9-3.8-29.3-15.5-.4-1.3.9-4.4.6-5.3-14.6 16.5-3.2 20.9.3 29.8 1.5 3.2 7.9 8.7 10.5 11.7 0 0-.6 13.9 2 28.2 2.6 14.2 5.7 27 11.8 32.7 3.2 3 11.4 4.6 23.5 4.6 12.3 0 20.5-6.9 20.5-6.9z" fill="url(#SVGID_21_)"/><path class="st0" d="M109.4 166.4l2.3-.6-4.1-13.7c0 .1-13 16.1 1.8 14.3z"/><path class="st20" d="M134.5 166.4s-43.2 5.2-26.9-14.2c-.9-3-1.6-6-1.6-6s-27.7 29.1 24.7 24.8c3.3 5.2 14.9 16.7 19.4 17.1-14.6-11.3-15.4-20.7-15.6-21.7"/><radialGradient id="SVGID_22_" cx="-420.036" cy="765.374" r="4.27" gradientTransform="matrix(-.864 0 0 .8405 -214.524 -479.904)" gradientUnits="userSpaceOnUse"><stop offset="0" stop-color="#390000"/><stop offset="1" stop-color="#3b1800"/></radialGradient><ellipse cx="148.4" cy="163.4" rx="4.4" ry="2.8" fill="url(#SVGID_22_)"/></g><g id="Layer_1_1_"><path class="st20" d="M56.3 85.7s57.5-8.5 74.7-3c18.4 3.6 91 15 104.5-5.6C202.6 62.6 196 60.7 196 60.7s-2.2-22-10.8-36.4c-13.3-22.2-57-26.9-75.8-1.5-5.1 6.8-9.9 30.2-10.8 35.3-20.2 6.6-44.3 20.5-42.3 27.6z"/><path class="st0" d="M189.1 62s-11.3 4.2-21.8 2.9c2-15-1.7-50.9-7.3-54 12.3 4.7 23.7 9.5 29.1 51.1zm-48 5.2s-27.5-4.6-31.4-3.6c.8-13.6 10.7-52.1 28.3-54.3 6.3-.8 7.7-.2 7.7-.2s.2 37.7-4.6 58.1zm27.6-56.8S168.9.8 153.4.1s-15.9 3.6-16.5 6.4c15.4-.1 31.8 3.9 31.8 3.9z"/><path d="M78.1 97.5c.2-.1.3-.2.6-.4 1.2-.9 2.7-2.8 1.1-5-1.4-1.9-3.8-2-5.8-.5s-2.4 3.7-1 5.7c.8 1.1 1.5 1.6 2 1.9l.7-.8c-.5-.3-1-.7-1.7-1.6-.9-1.2-1-2.7.6-4l3.5 4.7zm-2.5-5.3c.9-.5 2.4-.8 3.3.4 1 1.4 0 2.6-.7 3.1l-2.6-3.5z"/><linearGradient id="SVGID_23_" gradientUnits="userSpaceOnUse" x1="362.177" y1="218.99" x2="362.177" y2="243.314" gradientTransform="matrix(-.2322 .9687 -.9068 -.2481 384.27 -119.822)"><stop offset="0" stop-color="#adb3b5"/><stop offset=".126" stop-color="#f4f6f7"/><stop offset=".225" stop-color="#adb3b5"/><stop offset=".332" stop-color="#e2e4e5"/><stop offset=".494" stop-color="#f1f1f2"/><stop offset=".622" stop-color="#abacad"/><stop offset=".813" stop-color="#3c3e40"/><stop offset=".844" stop-color="#424547"/><stop offset=".888" stop-color="#54575a"/><stop offset=".941" stop-color="#717579"/><stop offset=".999" stop-color="#999fa4"/><stop offset="1" stop-color="#9aa0a5"/></linearGradient><path d="M82.1 174.8c-1.9-.5-3.1-2.5-2.6-4.4s2.4-3.1 4.4-2.6l15.3 4c1.9.5 3.1 2.5 2.6 4.4s-2.4 4.1-4.3 3.6l-15.4-5z" fill="url(#SVGID_23_)"/><linearGradient id="SVGID_24_" gradientUnits="userSpaceOnUse" x1="371.155" y1="223.181" x2="371.155" y2="239.986" gradientTransform="matrix(-.2322 .9687 -.9068 -.2481 384.27 -119.822)"><stop offset="0" stop-color="#adb3b5"/><stop offset=".126" stop-color="#f4f6f7"/><stop offset=".225" stop-color="#adb3b5"/><stop offset=".332" stop-color="#e2e4e5"/><stop offset=".494" stop-color="#f1f1f2"/><stop offset=".622" stop-color="#abacad"/><stop offset=".813" stop-color="#3c3e40"/><stop offset=".844" stop-color="#424547"/><stop offset=".888" stop-color="#54575a"/><stop offset=".941" stop-color="#717579"/><stop offset=".999" stop-color="#999fa4"/><stop offset="1" stop-color="#9aa0a5"/></linearGradient><path d="M79.1 186l2.6-11.4 15.3 3.9-2.6 11.5-15.3-4z" fill="url(#SVGID_24_)"/><linearGradient id="SVGID_25_" gradientUnits="userSpaceOnUse" x1="420.709" y1="218.945" x2="420.709" y2="242.694" gradientTransform="matrix(-.2322 .9687 -.9068 -.2481 384.27 -119.822)"><stop offset="0"/><stop offset=".012" stop-color="#0b0b0b"/><stop offset=".059" stop-color="#2d2d2d"/><stop offset=".102" stop-color="#454545"/><stop offset=".143" stop-color="#545454"/><stop offset=".176" stop-color="#595959"/><stop offset="1"/></linearGradient><path d="M62.7 271.4c-3.6-.9-5.8-3.7-4.8-7.3l17-72c.9-3.7 4.6-5.9 8.1-4.9l8.1 2.1c3.6.9 5.8 4.7 4.9 8.3l-17.1 71c-.9 3.7-4.6 5.9-8.1 4.9l-8.1-2.1z" fill="url(#SVGID_25_)"/><path class="st31" d="M69.7 271.2c-1.6-.4-2.2-2.6-1.3-6.2l16-68.3c.9-3.5 3-6.1 4.6-5.6l3.8 1c1.6.4 2.3 3.6 1.4 7.2L78 267.7c-.9 3.5-3 5.1-4.6 4.6l-3.7-1.1z"/><linearGradient id="SVGID_26_" gradientUnits="userSpaceOnUse" x1="379.166" y1="219.853" x2="379.166" y2="242.179" gradientTransform="matrix(-.2322 .9687 -.9068 -.2481 384.27 -119.822)"><stop offset="0" stop-color="#adb3b5"/><stop offset=".126" stop-color="#f4f6f7"/><stop offset=".225" stop-color="#adb3b5"/><stop offset=".332" stop-color="#e2e4e5"/><stop offset=".494" stop-color="#f1f1f2"/><stop offset=".622" stop-color="#abacad"/><stop offset=".813" stop-color="#3c3e40"/><stop offset=".844" stop-color="#424547"/><stop offset=".888" stop-color="#54575a"/><stop offset=".941" stop-color="#717579"/><stop offset=".999" stop-color="#999fa4"/><stop offset="1" stop-color="#9aa0a5"/></linearGradient><path d="M76 189.5l1-4 20.4 5.3-1 4-20.4-5.3z" fill="url(#SVGID_26_)"/><linearGradient id="SVGID_27_" gradientUnits="userSpaceOnUse" x1="-391.889" y1="206.81" x2="-292.881" y2="206.81" gradientTransform="matrix(-.9361 0 0 -1 -218.703 335.89)"><stop offset="0" stop-color="#ccc"/><stop offset=".176" stop-color="#fff"/><stop offset="1" stop-color="#6e6e6e"/></linearGradient><path d="M90.3 174.7c-24.7-6.5-39.7-32.1-33.4-57.3S88.5 77 113.3 83.5s39.7 32.1 33.4 57.3c-6.4 25.1-31.7 40.3-56.4 33.9zm2.2-8.7c20.1 5.2 40.5-7.1 45.6-27.5 5.2-20.4-7-41.2-27-46.5-20.1-5.2-40.5 7.1-45.6 27.5-5.2 20.5 6.9 41.3 27 46.5z" fill="url(#SVGID_27_)"/><linearGradient id="SVGID_28_" gradientUnits="userSpaceOnUse" x1="-390.439" y1="206.843" x2="-294.004" y2="206.843" gradientTransform="matrix(-.9361 0 0 -1 -218.703 335.89)"><stop offset="0" stop-color="#fff"/><stop offset="1" stop-color="#b0b0b0"/></linearGradient><path d="M90.5 173.6c-24.1-6.3-38.7-31.4-32.6-56s30.8-39.4 54.9-33.1 38.7 31.4 32.6 56c-6.1 24.5-30.7 39.4-54.9 33.1zm2-7.6c20.1 5.2 40.5-7.1 45.6-27.5 5.2-20.4-7-41.2-27-46.5-20.1-5.2-40.5 7.1-45.6 27.5-5.2 20.5 6.9 41.3 27 46.5z" fill="url(#SVGID_28_)"/><radialGradient id="SVGID_29_" cx="266.161" cy="240.278" r="33.85" gradientTransform="matrix(-.2745 1.0926 -1.073 -.2802 432.68 -94.482)" gradientUnits="userSpaceOnUse"><stop offset="0" stop-color="#baebff"/><stop offset=".398" stop-color="#b8eaff"/><stop offset=".565" stop-color="#b1e8fe"/><stop offset=".688" stop-color="#a4e4fe"/><stop offset=".791" stop-color="#93dffd"/><stop offset=".88" stop-color="#7cd7fc"/><stop offset=".958" stop-color="#60cffa"/><stop offset="1" stop-color="#4ec9f9"/></radialGradient><path d="M92.5 166c-20.1-5.2-32.2-26-27-46.5C70.7 99.1 91 86.8 111.1 92s32.2 26 27 46.5c-5.1 20.4-25.5 32.7-45.6 27.5z" opacity=".26" fill="url(#SVGID_29_)"/><path class="st36" d="M133 140.1c.2-.9.4-1.8.6-2.8-5.6 16.4-22.6 25.9-39.3 21.5-16.8-4.4-27.2-21.1-24.3-38.2-.3.9-.6 1.8-.8 2.7-4.6 18 6.2 36.3 23.8 40.9 17.6 4.7 35.6-6.1 40-24.1z"/><path class="st36" d="M100 138.3c-14.7-3.8-24.1-16.4-21.3-28 2.9-11.6 17.2-18 31.9-14.1 14.7 3.8 24.1 16.4 21.3 28-3 11.6-17.2 17.9-31.9 14.1z"/><linearGradient id="SVGID_30_" gradientUnits="userSpaceOnUse" x1="-301.253" y1="206.89" x2="-383.171" y2="206.89" gradientTransform="matrix(-.9361 0 0 -1 -218.703 335.89)"><stop offset="0" stop-color="#fff"/><stop offset="1" stop-color="#6e6e6e"/></linearGradient><path d="M92.2 167.1c-20.7-5.4-33.2-26.8-27.8-47.9 5.3-21 26.3-33.7 47-28.3 20.7 5.4 33.2 26.8 27.8 47.9-5.3 21-26.3 33.7-47 28.3zm.3-1.1c20.1 5.2 40.5-7.1 45.6-27.5 5.2-20.4-7-41.2-27-46.5-20.1-5.2-40.5 7.1-45.6 27.5-5.2 20.5 6.9 41.3 27 46.5z" fill="url(#SVGID_30_)"/><radialGradient id="SVGID_31_" cx="-328.573" cy="636.237" r="26.06" gradientTransform="matrix(1.096 .1624 -.1599 1.1162 537.567 -433.769)" gradientUnits="userSpaceOnUse"><stop offset="0" stop-color="#fcc58a"/><stop offset=".575" stop-color="#fcc289"/><stop offset=".962" stop-color="#fbb986"/><stop offset="1" stop-color="#fbb885"/></radialGradient><path d="M59 249.8c-21.4-7-11.1-64.3 16.3-57.5s28.4 5.8 29.5 16.2-.5 6-6.5 11.6c2.8 2.7 3 13.8-2.5 18 2.2 6.4-.7 19-11.3 17-10.7-2-25.5-5.3-25.5-5.3" fill="url(#SVGID_31_)"/><path d="M221.5 231.6c-6.1 6.6-59.5 26.1-90.9 16.9.8 6.1.7 5.4 1.9 10.8 16.1 7.2 76.9-3.1 92.2-14.8-.8-5.2-1.1-2.8-3.2-12.9z" fill="#6d4a2d"/><path class="st20" d="M163 253.6s3.5 27.8 7.5 40.3c-.9 3.3-.4 1.4-1.1 4.6-10-16.9-6.4-44.9-6.4-44.9zm-44.5-39.2s-3.3-9.5-3.7-17c-1.5 6.3 1.9 16.7 1.9 16.7l1.8.3zM105.8 176c1.3.9 8.4 9.8 11 11.6-5.6-4.2-9.5-9-12.1-11.5l1.1-.1z"/><radialGradient id="SVGID_32_" cx="-338.129" cy="765.012" r="4.605" gradientTransform="matrix(-.7386 .129 .1615 .938 -210.589 -470.35)" gradientUnits="userSpaceOnUse"><stop offset="0" stop-color="#cdaf38"/><stop offset="1" stop-color="#dfc74a"/></radialGradient><path d="M159 204.3c.4 2.2 2.3 3.7 4.4 3.3 2-.4 3.4-2.4 3-4.6-.4-2.2-2.3-3.7-4.4-3.3-2 .3-3.4 2.4-3 4.6z" fill="url(#SVGID_32_)"/><radialGradient id="SVGID_33_" cx="-280.914" cy="790.425" r="4.607" gradientTransform="matrix(-.7268 .1847 .2313 .923 -222.614 -456.052)" gradientUnits="userSpaceOnUse"><stop offset="0" stop-color="#cdaf38"/><stop offset="1" stop-color="#dfc74a"/></radialGradient><path d="M160.7 222.6c.5 2.1 2.6 3.5 4.6 3s3.2-2.7 2.7-4.8-2.6-3.5-4.6-3-3.2 2.6-2.7 4.8z" fill="url(#SVGID_33_)"/><radialGradient id="SVGID_34_" cx="-27.681" cy="1986.969" r="30.463" gradientTransform="matrix(-.3413 .1338 .1435 .2929 -130.267 -324.035)" gradientUnits="userSpaceOnUse"><stop offset="0" stop-color="#cdaf38"/><stop offset="1" stop-color="#dfc74a"/></radialGradient><path d="M152.2 259.3c.4 2 1.5 3.5 4 3.1l17.7-1.8c2.4-.4 4.1-2.4 3.7-4.4l-1.3-7.1c-.4-2-2.6-3.3-5-2.8l-17 1.8c-2.4.4-3.1 2.9-2.8 4.9l.7 6.3z" fill="url(#SVGID_34_)"/><radialGradient id="SVGID_35_" cx="-280.212" cy="808.805" r="4.607" gradientTransform="matrix(-.7268 .1847 .2313 .923 -222.614 -456.052)" gradientUnits="userSpaceOnUse"><stop offset="0" stop-color="#cdaf38"/><stop offset="1" stop-color="#dfc74a"/></radialGradient><path d="M164.5 239.7c.5 2.1 2.6 3.5 4.6 3s3.2-2.7 2.7-4.8-2.6-3.5-4.6-3-3.2 2.6-2.7 4.8z" fill="url(#SVGID_35_)"/><linearGradient id="SVGID_36_" gradientUnits="userSpaceOnUse" x1="-266.107" y1="726.548" x2="-305.391" y2="726.548" gradientTransform="matrix(-.9361 0 0 1 -218.703 -506.048)"><stop offset="0" stop-color="#6e4d2d"/><stop offset="1" stop-color="#785533"/></linearGradient><path d="M56.8 253.1s-21.6-37.7 10.4-65.2c-8.9 1-20.2 3-24.9 3.6-9 5.4-18.1 33.3-6.4 56 7.4 3.3 9.9 3.7 20.9 5.6z" fill="url(#SVGID_36_)"/><linearGradient id="SVGID_37_" gradientUnits="userSpaceOnUse" x1="-285.505" y1="726.395" x2="-310.312" y2="726.395" gradientTransform="matrix(-.9361 0 0 1 -218.703 -506.048)"><stop offset="0" stop-color="#6e4d2d"/><stop offset="1" stop-color="#785533"/></linearGradient><path d="M71.5 191.6s0-.8-2.4-1.4c-3.8-.8-25 17.9-12.9 57.5 1.8 4.5 2.8.7 2.8.7s-1.4 8.8-4.7 2.3c-13.7-26.8-.8-61.3 14.2-63.1 4.4.7 3 4 3 4z" fill="url(#SVGID_37_)"/><path class="st20" d="M204.4 122.8s-.7 4.8-1.9 5.8c10.5-4.1 6.1 4.4-.8 10.8-13.4 12.7-29.4 21.8-40.1 25.9-1.3 9.3.9 12.6-6.5 25 13.8-10.6 13.6-24.4 13.6-24.4s24.1-7.7 43.5-32.2c6.6-6.8-.2-12.5-7.8-10.9zm9 28s-11.5 38-50 39.6c34.9-4.5 50-39.6 50-39.6zm-74.9 43.1c.5 0-14.9-.4-21.7-6.3 7.1 7.6 13 6.5 21.7 6.3zm83 37.7s1.3-34.3.6-41.6c2.4 13.4 3.4 33.6 3.4 32.6-2.1.9-4 9-4 9zm-8.1-80.8s2.2 4.3 3.1 11c-.7-9.8-2.9-11-2.9-11h-.2zm-59.9 44.1s1.4 42.2 8.9 51.3c-6.1-5-15.8-39.1-8.9-51.3z"/><path class="st20" d="M236.4 226.8c-2.4-1-8.8-3.1-13.7-8 4.8 7 11.2 10.9 11.2 10.9"/><linearGradient id="SVGID_38_" gradientUnits="userSpaceOnUse" x1="-14979.325" y1="-7681.264" x2="-14979.325" y2="-7681.161" gradientTransform="matrix(.9166 -.2027 .1897 .9792 15113.397 4496.51)"><stop offset="0" stop-color="#574537"/><stop offset=".576" stop-color="#433329"/><stop offset="1" stop-color="#32241d"/></linearGradient><path d="M-73.7 11.2c-.3 0-.3 0 0 0" fill="url(#SVGID_38_)"/><path class="st20" d="M56.3 85.7s57.5-8.5 74.7-3c18.4 3.6 91 15 104.5-5.6C202.6 62.6 196 60.7 196 60.7s-2.2-22-10.8-36.4c-13.3-22.2-57-26.9-75.8-1.5-5.1 6.8-9.9 30.2-10.8 35.3-20.2 6.6-44.3 20.5-42.3 27.6z"/><path class="st0" d="M189.1 62s-11.3 4.2-21.8 2.9c2-15-1.7-50.9-7.3-54 12.3 4.7 23.7 9.5 29.1 51.1zm-48 5.2s-27.5-4.6-31.4-3.6c.8-13.6 10.7-52.1 28.3-54.3 6.3-.8 7.7-.2 7.7-.2s.2 37.7-4.6 58.1zm27.6-56.8S168.9.8 153.4.1s-15.9 3.6-16.5 6.4c15.4-.1 31.8 3.9 31.8 3.9z"/><linearGradient id="SVGID_39_" gradientUnits="userSpaceOnUse" x1="362.177" y1="218.99" x2="362.177" y2="243.314" gradientTransform="matrix(-.2322 .9687 -.9068 -.2481 384.27 -119.822)"><stop offset="0" stop-color="#adb3b5"/><stop offset=".126" stop-color="#f4f6f7"/><stop offset=".225" stop-color="#adb3b5"/><stop offset=".332" stop-color="#e2e4e5"/><stop offset=".494" stop-color="#f1f1f2"/><stop offset=".622" stop-color="#abacad"/><stop offset=".813" stop-color="#3c3e40"/><stop offset=".844" stop-color="#424547"/><stop offset=".888" stop-color="#54575a"/><stop offset=".941" stop-color="#717579"/><stop offset=".999" stop-color="#999fa4"/><stop offset="1" stop-color="#9aa0a5"/></linearGradient><path d="M82.1 174.8c-1.9-.5-3.1-2.5-2.6-4.4s2.4-3.1 4.4-2.6l15.3 4c1.9.5 3.1 2.5 2.6 4.4s-2.4 4.1-4.3 3.6l-15.4-5z" fill="url(#SVGID_39_)"/><linearGradient id="SVGID_40_" gradientUnits="userSpaceOnUse" x1="371.155" y1="223.181" x2="371.155" y2="239.986" gradientTransform="matrix(-.2322 .9687 -.9068 -.2481 384.27 -119.822)"><stop offset="0" stop-color="#adb3b5"/><stop offset=".126" stop-color="#f4f6f7"/><stop offset=".225" stop-color="#adb3b5"/><stop offset=".332" stop-color="#e2e4e5"/><stop offset=".494" stop-color="#f1f1f2"/><stop offset=".622" stop-color="#abacad"/><stop offset=".813" stop-color="#3c3e40"/><stop offset=".844" stop-color="#424547"/><stop offset=".888" stop-color="#54575a"/><stop offset=".941" stop-color="#717579"/><stop offset=".999" stop-color="#999fa4"/><stop offset="1" stop-color="#9aa0a5"/></linearGradient><path d="M79.1 186l2.6-11.4 15.3 3.9-2.6 11.5-15.3-4z" fill="url(#SVGID_40_)"/><linearGradient id="SVGID_41_" gradientUnits="userSpaceOnUse" x1="420.709" y1="218.945" x2="420.709" y2="242.694" gradientTransform="matrix(-.2322 .9687 -.9068 -.2481 384.27 -119.822)"><stop offset="0"/><stop offset=".012" stop-color="#0b0b0b"/><stop offset=".059" stop-color="#2d2d2d"/><stop offset=".102" stop-color="#454545"/><stop offset=".143" stop-color="#545454"/><stop offset=".176" stop-color="#595959"/><stop offset="1"/></linearGradient><path d="M62.7 271.4c-3.6-.9-5.8-3.7-4.8-7.3l17-72c.9-3.7 4.6-5.9 8.1-4.9l8.1 2.1c3.6.9 5.8 4.7 4.9 8.3l-17.1 71c-.9 3.7-4.6 5.9-8.1 4.9l-8.1-2.1z" fill="url(#SVGID_41_)"/><path class="st31" d="M69.7 271.2c-1.6-.4-2.2-2.6-1.3-6.2l16-68.3c.9-3.5 3-6.1 4.6-5.6l3.8 1c1.6.4 2.3 3.6 1.4 7.2L78 267.7c-.9 3.5-3 5.1-4.6 4.6l-3.7-1.1z"/><linearGradient id="SVGID_42_" gradientUnits="userSpaceOnUse" x1="379.166" y1="219.853" x2="379.166" y2="242.179" gradientTransform="matrix(-.2322 .9687 -.9068 -.2481 384.27 -119.822)"><stop offset="0" stop-color="#adb3b5"/><stop offset=".126" stop-color="#f4f6f7"/><stop offset=".225" stop-color="#adb3b5"/><stop offset=".332" stop-color="#e2e4e5"/><stop offset=".494" stop-color="#f1f1f2"/><stop offset=".622" stop-color="#abacad"/><stop offset=".813" stop-color="#3c3e40"/><stop offset=".844" stop-color="#424547"/><stop offset=".888" stop-color="#54575a"/><stop offset=".941" stop-color="#717579"/><stop offset=".999" stop-color="#999fa4"/><stop offset="1" stop-color="#9aa0a5"/></linearGradient><path d="M76 189.5l1-4 20.4 5.3-1 4-20.4-5.3z" fill="url(#SVGID_42_)"/><linearGradient id="SVGID_43_" gradientUnits="userSpaceOnUse" x1="-391.889" y1="206.81" x2="-292.881" y2="206.81" gradientTransform="matrix(-.9361 0 0 -1 -218.703 335.89)"><stop offset="0" stop-color="#ccc"/><stop offset=".176" stop-color="#fff"/><stop offset="1" stop-color="#6e6e6e"/></linearGradient><path d="M90.3 174.7c-24.7-6.5-39.7-32.1-33.4-57.3S88.5 77 113.3 83.5s39.7 32.1 33.4 57.3c-6.4 25.1-31.7 40.3-56.4 33.9zm2.2-8.7c20.1 5.2 40.5-7.1 45.6-27.5 5.2-20.4-7-41.2-27-46.5-20.1-5.2-40.5 7.1-45.6 27.5-5.2 20.5 6.9 41.3 27 46.5z" fill="url(#SVGID_43_)"/><linearGradient id="SVGID_44_" gradientUnits="userSpaceOnUse" x1="-390.439" y1="206.843" x2="-294.004" y2="206.843" gradientTransform="matrix(-.9361 0 0 -1 -218.703 335.89)"><stop offset="0" stop-color="#fff"/><stop offset="1" stop-color="#b0b0b0"/></linearGradient><path d="M90.5 173.6c-24.1-6.3-38.7-31.4-32.6-56s30.8-39.4 54.9-33.1 38.7 31.4 32.6 56c-6.1 24.5-30.7 39.4-54.9 33.1zm2-7.6c20.1 5.2 40.5-7.1 45.6-27.5 5.2-20.4-7-41.2-27-46.5-20.1-5.2-40.5 7.1-45.6 27.5-5.2 20.5 6.9 41.3 27 46.5z" fill="url(#SVGID_44_)"/><radialGradient id="SVGID_45_" cx="266.161" cy="240.278" r="33.85" gradientTransform="matrix(-.2745 1.0926 -1.073 -.2802 432.68 -94.482)" gradientUnits="userSpaceOnUse"><stop offset="0" stop-color="#baebff"/><stop offset=".398" stop-color="#b8eaff"/><stop offset=".565" stop-color="#b1e8fe"/><stop offset=".688" stop-color="#a4e4fe"/><stop offset=".791" stop-color="#93dffd"/><stop offset=".88" stop-color="#7cd7fc"/><stop offset=".958" stop-color="#60cffa"/><stop offset="1" stop-color="#4ec9f9"/></radialGradient><path d="M92.5 166c-20.1-5.2-32.2-26-27-46.5C70.7 99.1 91 86.8 111.1 92s32.2 26 27 46.5c-5.1 20.4-25.5 32.7-45.6 27.5z" opacity=".26" fill="url(#SVGID_45_)"/><path class="st36" d="M133 140.1c.2-.9.4-1.8.6-2.8-5.6 16.4-22.6 25.9-39.3 21.5-16.8-4.4-27.2-21.1-24.3-38.2-.3.9-.6 1.8-.8 2.7-4.6 18 6.2 36.3 23.8 40.9 17.6 4.7 35.6-6.1 40-24.1z"/><path class="st36" d="M100 138.3c-14.7-3.8-24.1-16.4-21.3-28 2.9-11.6 17.2-18 31.9-14.1 14.7 3.8 24.1 16.4 21.3 28-3 11.6-17.2 17.9-31.9 14.1z"/><linearGradient id="SVGID_46_" gradientUnits="userSpaceOnUse" x1="-301.253" y1="206.89" x2="-383.171" y2="206.89" gradientTransform="matrix(-.9361 0 0 -1 -218.703 335.89)"><stop offset="0" stop-color="#fff"/><stop offset="1" stop-color="#6e6e6e"/></linearGradient><path d="M92.2 167.1c-20.7-5.4-33.2-26.8-27.8-47.9 5.3-21 26.3-33.7 47-28.3 20.7 5.4 33.2 26.8 27.8 47.9-5.3 21-26.3 33.7-47 28.3zm.3-1.1c20.1 5.2 40.5-7.1 45.6-27.5 5.2-20.4-7-41.2-27-46.5-20.1-5.2-40.5 7.1-45.6 27.5-5.2 20.5 6.9 41.3 27 46.5z" fill="url(#SVGID_46_)"/><radialGradient id="SVGID_47_" cx="-328.573" cy="636.237" r="26.06" gradientTransform="matrix(1.096 .1624 -.1599 1.1162 537.567 -433.769)" gradientUnits="userSpaceOnUse"><stop offset="0" stop-color="#fcc58a"/><stop offset=".575" stop-color="#fcc289"/><stop offset=".962" stop-color="#fbb986"/><stop offset="1" stop-color="#fbb885"/></radialGradient><path d="M59 249.8c-21.4-7-11.1-64.3 16.3-57.5s28.4 5.8 29.5 16.2-.5 6-6.5 11.6c2.8 2.7 3 13.8-2.5 18 2.2 6.4-.7 19-11.3 17-10.7-2-25.5-5.3-25.5-5.3" fill="url(#SVGID_47_)"/><path class="st20" d="M204.4 122.8s-.7 4.8-1.9 5.8c10.5-4.1 6.1 4.4-.8 10.8-13.4 12.7-29.4 21.8-40.1 25.9-1.3 9.3.9 12.6-6.5 25 13.8-10.6 13.6-24.4 13.6-24.4s24.1-7.7 43.5-32.2c6.6-6.8-.2-12.5-7.8-10.9z"/></g><g id="Layer_4"><defs><path id="SVGID_48_" d="M92.5 166c-20.1-5.2-32.2-26-27-46.5C70.7 99.1 91 86.8 111.1 92s32.2 26 27 46.5c-5.1 20.4-25.5 32.7-45.6 27.5z"/></defs><clipPath id="SVGID_49_"><use xlink:href="#SVGID_48_" overflow="visible"/></clipPath><g clip-path="url(#SVGID_49_)"><radialGradient id="SVGID_50_" cx="-469.882" cy="654.672" r="34.207" gradientTransform="matrix(1.0734 -.2799 .2735 1.0927 442.324 -721.37)" gradientUnits="userSpaceOnUse"><stop offset="0" stop-color="#fcc58a"/><stop offset=".575" stop-color="#fcc289"/><stop offset=".962" stop-color="#fbb986"/><stop offset="1" stop-color="#fbb885"/></radialGradient><path d="M142.7 114.4c-1.1-12.9-19-33.2-33.1-30.2-5.3-.5-8.3-.7-14.9-.5-5.1.1-9.2 2.1-9.7 6.2-1.7 23.9 7.2 55.4 16.9 74.9 4.8 9.7 10.2 10.6 10.5 8.6 12.3 3.6 29.2-19.7 30.4-30.2" fill="url(#SVGID_50_)"/><path class="st3" d="M87.2 83.8C78 90.4 84.1 112 85.6 121c.6.5 10.1 25.3 10.1 25.3-5.2-14.9-20.1-49.3-2.6-62 10.9.3 22.1-.3 32.7 3.2"/><path class="st5" d="M121.8 145.7c.4 4.3-3.3 8.8-7.5 9.8-4.3 1-8.1-1.7-8.5-6.4-.4-4.6 2.8-9.1 7.2-9.9 4.5-.7 8.4 2.2 8.8 6.5z"/><path class="st3" d="M100.6 116.5c1 6.9 7 11.7 13.5 10.8 6.6-.9 10.8-7 9.5-13.3-1.3-6.4-7.5-11.4-13.7-10.9-6 .5-10.1 6.6-9.3 13.4z"/><radialGradient id="SVGID_51_" cx="-207.664" cy="635.997" r="9.417" gradientTransform="matrix(-1.097 .1581 .1533 1.1168 -213.262 -563.177)" gradientUnits="userSpaceOnUse"><stop offset="0" stop-color="#333"/><stop offset=".456" stop-color="#313131"/><stop offset=".7" stop-color="#292929"/><stop offset=".894" stop-color="#1b1b1b"/><stop offset="1" stop-color="#101010"/></radialGradient><path d="M101.9 115.4c.9 6.1 6.2 10.4 11.9 9.6s9.4-6.1 8.3-11.7c-1.1-5.7-6.7-10.1-12.1-9.6-5.3.4-9 5.7-8.1 11.7z" fill="url(#SVGID_51_)"/><path class="st7" d="M118.2 108.5c1.7 2.1 1.7 4.7 0 5.9-1.7 1.2-4.3.5-5.9-1.7-1.6-2.1-1.6-4.9 0-6 1.7-1.1 4.2-.3 5.9 1.8z"/><linearGradient id="SVGID_52_" gradientUnits="userSpaceOnUse" x1="-14811.838" y1="-7577.193" x2="-14811.838" y2="-7510.609" gradientTransform="matrix(.9166 -.2027 .1897 .9792 15113.397 4496.51)"><stop offset="0" stop-color="#574537"/><stop offset=".576" stop-color="#433329"/><stop offset="1" stop-color="#32241d"/></linearGradient><path d="M125.6 86.4c-11.2-2.9-22.8-2.3-34.3-2.6-13.2 14.1 1 48.4 4.7 63.7-9.2-16.2-23.4-45.8-12.4-63.1-1.5.4-3.6 1.3-5 2.3.4-.7.9-1.2 1.3-1.6" fill="url(#SVGID_52_)"/><path class="st0" d="M107.2 173.7c1.1-.1 1.6-.1 2.7-.2-2.6-1.6-4.9-3.9-8.3-9.9-.1 0-11.6 10.6 5.6 10.1z"/><path class="st20" d="M129.6 169.8c-6.1 2.1-41.4 8.4-28.2-6.3-1.9-3.4-3.2-7.4-3.2-7.4-22.9 21.8 5.7 19.2 22.9 17.2"/><path d="M70.2 91.7c.2-.1.4-.3.7-.5"/><radialGradient id="SVGID_53_" cx="266.651" cy="241.652" r="40.039" gradientTransform="matrix(-.2745 1.0926 -1.073 -.2802 432.68 -94.482)" gradientUnits="userSpaceOnUse"><stop offset="0" stop-color="#baebff"/><stop offset=".398" stop-color="#b8eaff"/><stop offset=".565" stop-color="#b1e8fe"/><stop offset=".688" stop-color="#a4e4fe"/><stop offset=".791" stop-color="#93dffd"/><stop offset=".88" stop-color="#7cd7fc"/><stop offset=".958" stop-color="#60cffa"/><stop offset="1" stop-color="#4ec9f9"/></radialGradient><path d="M87 173.2c-29.5-3.5-24.8-32.9-26.7-54.8-2.4-28.3 27.3-35 48.9-34.1 26.1 1.1 35 34.8 32.4 55.7-3.6 29.3-31.3 36-54.6 33.2z" opacity=".26" fill="url(#SVGID_53_)"/><path class="st36" d="M137.3 143.5c.3-1.2.5-2.5.7-3.7-6 23.8-30 33.9-51.9 29.5-25.6-5.2-26.4-29.1-25.8-50.3 0 1.1-.1 2.1-.1 3.2-.3 21.4.7 46.7 26.7 50.5 22.8 3.2 43.8-4.8 50.4-29.2z"/><path class="st36" d="M89.6 144.1c-15.5-5.8-32.6-19.5-24.4-39 7.2-17.2 26.3-20.5 42.9-18.7 14.6 1.6 31.3 21.1 28 36.2-4.3 19.8-30.2 27.7-46.5 21.5z"/><linearGradient id="SVGID_54_" gradientUnits="userSpaceOnUse" x1="-298.023" y1="206.896" x2="-385.243" y2="206.896" gradientTransform="matrix(-.9361 0 0 -1 -218.703 335.89)"><stop offset="0" stop-color="#fff"/><stop offset="1" stop-color="#6e6e6e"/></linearGradient><path d="M87.2 173.6c-30.5-3-24.3-33.1-26.6-55.2-3.1-29.5 26.9-35 49-34.4 27.4.7 34.7 34.9 32.6 56.1-2.9 30.2-31.4 35.7-55 33.5zm-.2-.4c23.2 2.7 50.9-3.9 54.5-33.2 2.6-20.9-6.3-54.6-32.4-55.7-21.5-.9-51.2 5.7-48.9 34.1 2 21.9-2.7 51.4 26.8 54.8z" fill="url(#SVGID_54_)"/></g></g></svg>