<?xml version="1.0" encoding="utf-8"?>
<!-- Generator: Adobe Illustrator 20.1.0, SVG Export Plug-In . SVG Version: 6.00 Build 0)  -->
<svg version="1.0" id="Layer_1" xmlns="http://www.w3.org/2000/svg" xmlns:xlink="http://www.w3.org/1999/xlink" x="0px" y="0px"
	 width="862px" height="753px" viewBox="0 0 862 753" enable-background="new 0 0 862 753" xml:space="preserve">
<pattern  x="-134.9" y="-23.6" width="242" height="242" patternUnits="userSpaceOnUse" id="New_Pattern" viewBox="0 -242 242 242" overflow="visible">
	<g>
		<rect y="-242" fill="none" width="242" height="242"/>
		<rect y="-242" fill="#29ABE2" width="242" height="242"/>
		<rect y="-242" opacity="0.4" width="11" height="242"/>
		<rect x="22" y="-242" opacity="0.4" width="11" height="242"/>
		<rect x="44" y="-242" opacity="0.4" width="11" height="242"/>
		<rect x="66" y="-242" opacity="0.4" width="11" height="242"/>
		<rect x="88" y="-242" opacity="0.4" width="11" height="242"/>
		<rect x="110" y="-242" opacity="0.4" width="11" height="242"/>
		<rect x="132" y="-242" opacity="0.4" width="11" height="242"/>
		<rect x="154" y="-242" opacity="0.4" width="11" height="242"/>
		<rect x="176" y="-242" opacity="0.4" width="11" height="242"/>
		<rect x="198" y="-242" opacity="0.4" width="11" height="242"/>
		<rect x="220" y="-242" opacity="0.4" width="11" height="242"/>
		<rect y="-242" opacity="0.4" width="242" height="11"/>
		<rect y="-220" opacity="0.4" width="242" height="11"/>
		<rect y="-198" opacity="0.4" width="242" height="11"/>
		<rect y="-176" opacity="0.4" width="242" height="11"/>
		<rect y="-154" opacity="0.4" width="242" height="11"/>
		<rect y="-132" opacity="0.4" width="242" height="11"/>
		<rect y="-110" opacity="0.4" width="242" height="11"/>
		<rect y="-88" opacity="0.4" width="242" height="11"/>
		<rect y="-66" opacity="0.4" width="242" height="11"/>
		<rect y="-44" opacity="0.4" width="242" height="11"/>
		<rect y="-22" opacity="0.4" width="242" height="11"/>
	</g>
</pattern>
<pattern  x="-134.9" y="-23.6" width="242" height="242" patternUnits="userSpaceOnUse" id="New_Pattern_2" viewBox="241.7 -242 242 242" overflow="visible">
	<g>
		<rect x="241.7" y="-242" fill="none" width="242" height="242"/>
		<g>
			<rect x="241.7" y="-242" fill="#29ABE2" width="242" height="242"/>
			<rect x="472.7" y="-242" opacity="0.4" width="11" height="242"/>
			<rect x="450.7" y="-242" opacity="0.4" width="11" height="242"/>
			<rect x="428.7" y="-242" opacity="0.4" width="11" height="242"/>
			<rect x="406.7" y="-242" opacity="0.4" width="11" height="242"/>
			<rect x="384.7" y="-242" opacity="0.4" width="11" height="242"/>
			<rect x="362.7" y="-242" opacity="0.4" width="11" height="242"/>
			<rect x="340.7" y="-242" opacity="0.4" width="11" height="242"/>
			<rect x="318.7" y="-242" opacity="0.4" width="11" height="242"/>
			<rect x="296.7" y="-242" opacity="0.4" width="11" height="242"/>
			<rect x="274.7" y="-242" opacity="0.4" width="11" height="242"/>
			<rect x="252.7" y="-242" opacity="0.4" width="11" height="242"/>
			<rect x="241.7" y="-11" opacity="0.4" width="242" height="11"/>
			<rect x="241.7" y="-33" opacity="0.4" width="242" height="11"/>
			<rect x="241.7" y="-55" opacity="0.4" width="242" height="11"/>
			<rect x="241.7" y="-77" opacity="0.4" width="242" height="11"/>
			<rect x="241.7" y="-99" opacity="0.4" width="242" height="11"/>
			<rect x="241.7" y="-121" opacity="0.4" width="242" height="11"/>
			<rect x="241.7" y="-143" opacity="0.4" width="242" height="11"/>
			<rect x="241.7" y="-165" opacity="0.4" width="242" height="11"/>
			<rect x="241.7" y="-187" opacity="0.4" width="242" height="11"/>
			<rect x="241.7" y="-209" opacity="0.4" width="242" height="11"/>
			<rect x="241.7" y="-231" opacity="0.4" width="242" height="11"/>
			<rect x="242" y="-242" opacity="0.12" width="242" height="242"/>
		</g>
		<g>
			<rect y="-242" opacity="0.12" width="242" height="242"/>
		</g>
	</g>
</pattern>
<pattern  id="SVGID_1_" xlink:href="#New_Pattern_2" patternTransform="matrix(1.2835 0 0 1.2835 2975.1521 388.8571)">
</pattern>
<path fill="none" stroke="url(#SVGID_1_)" stroke-width="22.4773" stroke-linecap="round" stroke-linejoin="round" stroke-miterlimit="10" d="
	M299.2,357.7c0,0,121.9-84.7,151.5,28.2"/>
<g>
	<path fill="#FBC48A" d="M426.2,388.5c0,0,8-11.3,45.8-8.6c0,0,19,12.5,11.4,50c0,0-6.3,3.3-12.7,5c-5.8,1.6-14.6,0.8-14.6,0.8
		s1.1,8.3,0.7,15.7c-0.6,10.5-2,16.1-2,16.1s-10.4,0.5-16.6-1.2c0,0,0.8-27.8-3.8-45.2c0,0-1.9,8-4.1,17.1c0,0-9.5,1.6-15.2-3.1
		C415.1,435.2,419.4,409.9,426.2,388.5z"/>
</g>
<g>
	<g>
		
			<radialGradient id="SVGID_2_" cx="501.0428" cy="1048.1667" r="27.4715" gradientTransform="matrix(0.9786 0.206 -0.206 0.9786 179.4532 -406.4196)" gradientUnits="userSpaceOnUse">
			<stop  offset="0" style="stop-color:#454545"/>
			<stop  offset="1" style="stop-color:#252525"/>
		</radialGradient>
		<path fill="url(#SVGID_2_)" d="M448.9,711.5c0,0,14.1-0.5,29.1,11.4c10.8,8.6,10.3,17.5,10.3,17.5l-73-16.7l5.2-16.4L448.9,711.5z
			"/>
		<g>
			<radialGradient id="SVGID_3_" cx="296.9375" cy="206.566" r="27.5413" gradientUnits="userSpaceOnUse">
				<stop  offset="0" style="stop-color:#FCC58A"/>
				<stop  offset="0.575" style="stop-color:#FCC289"/>
				<stop  offset="0.962" style="stop-color:#FBB986"/>
				<stop  offset="1" style="stop-color:#FBB885"/>
			</radialGradient>
			<path fill="url(#SVGID_3_)" d="M272.7,196.1c3.6-13.7,17.4-22,30.8-18.4c13.4,3.5,21.3,17.6,17.7,31.3
				c-2.9,10.9-12.2,18.4-22.6,19.2c-1.7,5.9-7.7,9.4-13.6,7.8c-5.9-1.6-9.4-7.8-7.8-13.9c0.2-0.8,0.5-1.6,0.9-2.4
				C272.7,213.5,270.4,204.8,272.7,196.1z"/>
			<g>
				<path fill="#856848" d="M293.5,194c8.7-4.7,17.7,2.3,17.7,2.3s-8.5-12.4-19.5-6.6c-11,5.8-8.7,19.8-8.7,19.8
					S283.9,199.2,293.5,194z"/>
				<path fill="#856848" d="M293.2,208.5c-8-5.6-9.7-1.4-9.7-1.4s-0.2-8.7,11.6,0.6c6.5,5.1,0.8,11.2,0.8,11.2
					S299.5,212.9,293.2,208.5z"/>
			</g>
		</g>
		<linearGradient id="SVGID_4_" gradientUnits="userSpaceOnUse" x1="248.8138" y1="94.3755" x2="278.7828" y2="205.0189">
			<stop  offset="0" style="stop-color:#574537"/>
			<stop  offset="0.5758" style="stop-color:#433329"/>
			<stop  offset="1" style="stop-color:#32241D"/>
		</linearGradient>
		<path fill="url(#SVGID_4_)" d="M238.2,121.5c0,0,36.6,40.4,43,82.1c0,0,25.3-30.8-28.6-107.5L238.2,121.5z"/>
		<radialGradient id="SVGID_5_" cx="165.558" cy="247.4984" r="139.0799" gradientUnits="userSpaceOnUse">
			<stop  offset="0" style="stop-color:#FCC58A"/>
			<stop  offset="0.575" style="stop-color:#FCC289"/>
			<stop  offset="0.962" style="stop-color:#FBB986"/>
			<stop  offset="1" style="stop-color:#FBB885"/>
		</radialGradient>
		<path fill="url(#SVGID_5_)" d="M110.9,386.3c0,0-6-2.6-12.8-13.3c-22.2-34.7-71.9-179.3-71.9-179.3L63,125.4l180-16.7
			c0,0,29.3,50.9,41.6,98.8c7.7,29.9,17,63.9,19.7,87.3c1.9,16.9-1.7,28.2-1.7,28.2S243.6,380.3,110.9,386.3z"/>
		<linearGradient id="SVGID_6_" gradientUnits="userSpaceOnUse" x1="14.795" y1="159.9521" x2="44.6476" y2="270.1656">
			<stop  offset="0" style="stop-color:#574537"/>
			<stop  offset="0.5758" style="stop-color:#433329"/>
			<stop  offset="1" style="stop-color:#32241D"/>
		</linearGradient>
		<path fill="url(#SVGID_6_)" d="M7.2,164.8l41.7,31.8c0,0,21.8,34-7.7,73.8C41.2,270.4-20.6,215.3,7.2,164.8z"/>
		
			<linearGradient id="SVGID_7_" gradientUnits="userSpaceOnUse" x1="114.5108" y1="149.8244" x2="158.5157" y2="312.2871" gradientTransform="matrix(0.9969 7.881732e-02 -7.881732e-02 0.9969 14.6048 -141.888)">
			<stop  offset="0" style="stop-color:#574537"/>
			<stop  offset="0.5758" style="stop-color:#433329"/>
			<stop  offset="1" style="stop-color:#32241D"/>
		</linearGradient>
		<path fill="url(#SVGID_7_)" d="M7.2,165.8c0,0,15.9-104.6,100.8-130c0,0-14.4,20.9-13.8,27.1c0,0,19.8-21.3,42.8-29.5
			C168.8,22,215.3,50.5,226.5,0c0,0,20.8,17.1,14.1,44.2c0,0,9.8-9.4,9.2-23.5c0,0,21.6,33.3-2.5,66.9c0,0,12.7-5.9,16.5-23
			c0,0,2,113.3-216.2,132.3L7.2,165.8z"/>
		<path fill="#836F67" d="M118.6,47.5c40.6-27,53.5-2.5,88.2-15c15.1-5.5,18.1-16,18.1-16c-14.3,48.1-60,10.5-105.8,31H118.6z"/>
		<g>
			
				<radialGradient id="SVGID_8_" cx="255.5779" cy="-396.15" r="19.2453" gradientTransform="matrix(0.9247 -0.3808 0.3808 0.9247 42.8965 697.1891)" gradientUnits="userSpaceOnUse">
				<stop  offset="0" style="stop-color:#454545"/>
				<stop  offset="1" style="stop-color:#101010"/>
			</radialGradient>
			<circle fill="url(#SVGID_8_)" cx="128.7" cy="234.2" r="16.7"/>
			
				<ellipse transform="matrix(0.9247 -0.3808 0.3808 0.9247 -76.5657 66.9373)" fill="#FFFFFF" cx="130.9" cy="227" rx="5.9" ry="5.9"/>
		</g>
		<g>
			
				<radialGradient id="SVGID_9_" cx="367.0677" cy="-390.4877" r="19.2453" gradientTransform="matrix(0.9247 -0.3808 0.3808 0.9247 42.8965 697.1891)" gradientUnits="userSpaceOnUse">
				<stop  offset="0" style="stop-color:#454545"/>
				<stop  offset="1" style="stop-color:#101010"/>
			</radialGradient>
			<circle fill="url(#SVGID_9_)" cx="233.9" cy="197" r="16.7"/>
			
				<ellipse transform="matrix(0.9247 -0.3808 0.3808 0.9247 -54.4615 104.2116)" fill="#FFFFFF" cx="236.1" cy="189.7" rx="5.9" ry="5.9"/>
		</g>
		<path fill="#FAB383" d="M128.2,290.4c0.1,6.6-5.2,12.1-11.9,12.2c-6.6,0.1-12.1-5.2-12.2-11.9c-0.1-6.6,5.2-12.1,11.9-12.2
			C122.6,278.4,128.1,283.7,128.2,290.4z"/>
		<path fill="#FAB383" d="M273.8,242.9c0.1,6.6-5.2,12.1-11.9,12.2c-6.6,0.1-12.1-5.2-12.2-11.9c-0.1-6.6,5.2-12.1,11.9-12.2
			C268.3,230.9,273.8,236.2,273.8,242.9z"/>
		<path fill="#1A1A1A" d="M278.5,158c-14.7,3.4-20.9,1.4-49.6,10.6c-22.3,7.2-34.7,15.6-57.1,22.7l-0.1,0c-22.4,7-37.3,7.1-59.8,14
			c-28.8,8.9-32.7,14-46.7,19.7c-1.3,0.5-2.1,1.9-1.2,4.1c1.2,3.7,2.5,7,3.5,10.3c0.9,3,3.3,1.8,5.9,4.9c8.1,9.7,12,28.8,26,35.1
			c4,1.8,10.7,3.5,16.3,2.2c27.1-5.8,50.3-11.2,52-41.3c0.3-6.2,1.9-11.7,1.5-20.7c1.3-6.6,1.8-5.5,8.9-8.2c7.4-1.9,7.2-3.1,12,1.6
			c4.8,7.6,9.2,11.2,13,16.1c18.5,23.7,40.7,14.8,66.2,4.1c5.3-2.2,9.8-7.4,12.1-11.2c7.9-13.1,0.2-31.1,1.3-43.6
			c0.3-3.9,3-4.4,2-7.4c-1-3.3-1.8-6.7-3-10.4C281.3,158.3,279.8,157.6,278.5,158z M164.8,229.4c0.3,10.8-1,22.1-7.9,30.3
			c-4.7,5.6-12.3,10.4-21.7,13.5c-27.4,9.1-41.4,3.6-48.8-19.6c-3.5-11-8.6-20.5-4-27.6c5.2-8,21.1-13.2,32.9-17
			c12.3-3.9,32.2-7.9,41.4-3.2C164.5,209.7,164.5,219.5,164.8,229.4z M277.4,193.6c7.2,23.3-1.1,35.8-28.8,44
			c-9.4,2.8-18.4,3.2-25.5,1.3c-10.4-2.8-17.9-11.3-23.8-20.3c-5.4-8.3-11-16.3-6.9-24c4.9-9.1,23.5-17.2,35.8-21
			c11.9-3.7,27.9-8.5,36.7-4.9C272.8,171.9,274,182.6,277.4,193.6z"/>
		
			<path fill="none" stroke="#856848" stroke-width="4.4955" stroke-linecap="round" stroke-linejoin="round" stroke-miterlimit="10" d="
			M183,290.3c0,0,35.9,15.2,45.3-14.5"/>
		<polygon fill="#1A1A1A" points="64.1,227.5 49.7,260.9 57.2,265.9 70.6,241 		"/>
		<g>
			<radialGradient id="SVGID_10_" cx="51.2537" cy="283.9592" r="26.9258" gradientUnits="userSpaceOnUse">
				<stop  offset="0" style="stop-color:#FCC58A"/>
				<stop  offset="0.575" style="stop-color:#FCC289"/>
				<stop  offset="0.962" style="stop-color:#FBB986"/>
				<stop  offset="1" style="stop-color:#FBB885"/>
			</radialGradient>
			<path fill="url(#SVGID_10_)" d="M64.8,265c-10.7-9.3-26.8-8.4-35.9,2.1c-9.1,10.5-7.8,26.5,3,35.8c8.5,7.4,20.4,8.3,29.5,3.1
				c4.7,3.9,11.7,3.4,15.6-1.2c4-4.6,3.4-11.7-1.3-15.9c-0.7-0.6-1.3-1-2.1-1.4C74.6,279.4,71.5,270.9,64.8,265z"/>
			<g>
				<path fill="#856848" d="M46.4,275c-9.8,1-13.3,11.9-13.3,11.9s0-15,12.4-16.4c12.3-1.4,18.3,11.5,18.3,11.5S57.2,273.9,46.4,275
					z"/>
				<path fill="#856848" d="M54.8,286.8c3.5-9.1,7.2-6.6,7.2-6.6s-4.7-7.3-9.2,7c-2.5,7.9,5.6,9.7,5.6,9.7S52.1,294,54.8,286.8z"/>
			</g>
		</g>
		<path fill="#192F4B" d="M154.1,500.1c0,0-7.7,25.7,10.3,32.1s128.3-9,154-33.4c25.7-24.4,1.3-27,1.3-27L154.1,500.1z"/>
		
			<radialGradient id="SVGID_11_" cx="382.3767" cy="945.3912" r="27.4715" gradientTransform="matrix(0.9916 0.1294 -0.1294 0.9916 103.3651 -249.0552)" gradientUnits="userSpaceOnUse">
			<stop  offset="0" style="stop-color:#454545"/>
			<stop  offset="1" style="stop-color:#252525"/>
		</radialGradient>
		<path fill="url(#SVGID_11_)" d="M354.4,727.3c0,0,14-1.6,29.9,9.1c11.5,7.7,11.6,16.6,11.6,16.6l-74.1-11l3.9-16.7L354.4,727.3z"
			/>
		<linearGradient id="SVGID_12_" gradientUnits="userSpaceOnUse" x1="181.4389" y1="615.9819" x2="347.914" y2="615.9819">
			<stop  offset="0.3878" style="stop-color:#192F4B"/>
			<stop  offset="1" style="stop-color:#426897"/>
		</linearGradient>
		<path fill="none" stroke="url(#SVGID_12_)" stroke-width="18.7311" stroke-miterlimit="10" d="M183,514.9
			c0,0,156.6-27,155.5,212.4"/>
		<linearGradient id="SVGID_13_" gradientUnits="userSpaceOnUse" x1="276.4167" y1="600.5801" x2="442.8918" y2="600.5801">
			<stop  offset="0.3878" style="stop-color:#192F4B"/>
			<stop  offset="1" style="stop-color:#426897"/>
		</linearGradient>
		<path fill="none" stroke="url(#SVGID_13_)" stroke-width="18.7311" stroke-miterlimit="10" d="M278,499.5
			c0,0,156.6-27,155.5,212.4"/>
		<pattern  id="SVGID_14_" xlink:href="#New_Pattern" patternTransform="matrix(2.1962 0 0 2.1962 10513.2891 6600.1357)">
		</pattern>
		<path fill="url(#SVGID_14_)" d="M303.6,316.6c0,0,26.4,31.4,27.7,151.4c0,0-19.9,41.1-193.2,44.3c0,0,4.1,4.4-3.9-39.1
			c-8.4-46-23.8-87.1-23.8-87.1S258.7,373.7,303.6,316.6z"/>
		<path fill="#FFFFFF" d="M243.7,355.8c-11.4,4.4-24.9,8.9-24.9,8.9s9.1,2.8,18.2,8.3c8.9,5.4,15.4,12.2,15.4,12.2
			s13.5-18.1,9.9-37.6C262.2,347.7,253.9,351.8,243.7,355.8z"/>
	</g>
</g>
<pattern  id="SVGID_15_" xlink:href="#New_Pattern_2" patternTransform="matrix(1.2835 0 0 1.2835 2975.1521 388.8571)">
</pattern>
<path fill="none" stroke="url(#SVGID_15_)" stroke-width="22.4773" stroke-linecap="round" stroke-linejoin="round" stroke-miterlimit="10" d="
	M128.1,417.1c0,0-21.4,81.3,266.1,92"/>
<g>
	
		<radialGradient id="SVGID_16_" cx="570.7603" cy="500.7342" r="221.8647" fx="570.4354" fy="517.9542" gradientUnits="userSpaceOnUse">
		<stop  offset="0" style="stop-color:#FFFFFF"/>
		<stop  offset="0.8751" style="stop-color:#FFFFFF;stop-opacity:0.1249"/>
		<stop  offset="1" style="stop-color:#FFFFFF;stop-opacity:0"/>
	</radialGradient>
	<path opacity="0.66" fill="url(#SVGID_16_)" d="M433.9,500.1L329.9,360.5c0,0-91.1-240.1,296.3-175.1
		C991,246.7,806.2,467,806.2,467l-123.7,78.4L433.9,500.1z"/>
	<path fill="#1A1A1A" d="M422,531.7l8-73.3c0,0,0-10.2,11.6-9.2c11.6,1,267.9,38.6,267.9,38.6s7.1,0.4,1.8,12.9
		c-5.3,12.4-39.2,71-39.2,71s-0.6,2.9-5.5,1.4c-4.9-1.4-241.1-36.4-241.1-36.4S422.2,536.6,422,531.7z"/>
</g>
<g>
	<path fill="#FBC48A" d="M395.5,481.5c0,0-10,24.2-6.2,57c0,0,24.5,10.1,56.8,2.1c0,0,11.7-19.7,14.7-43.8c0,0-20.2-0.9-35.5-4.3
		c0,0,1.9-17.2,1.9-17.2C416.4,475.3,407.1,477.2,395.5,481.5z"/>
</g>
</svg>
