<svg id="Layer_1" xmlns="http://www.w3.org/2000/svg" viewBox="0 0 107.8 191.8"><style>.st0{fill:#cecece}.st3{fill:#676767}.st14{fill:#bababa}</style><path class="st0" d="M59.2 106.8L55 95.9l15-5.2 4.2 11-15 5.1z"/><linearGradient id="SVGID_1_" gradientUnits="userSpaceOnUse" x1="374.052" y1="-392.101" x2="374.052" y2="-368.353" gradientTransform="matrix(.3425 .9354 -.8926 .295 -385.226 -92.873)"><stop offset="0" stop-color="#010101"/><stop offset=".012" stop-color="#0d0d0d"/><stop offset=".059" stop-color="#2d2e2d"/><stop offset=".102" stop-color="#464646"/><stop offset=".143" stop-color="#555554"/><stop offset=".176" stop-color="#595a5a"/><stop offset="1" stop-color="#010101"/></linearGradient><path d="M92.8 187c-3.5 1.2-6.9.1-8-3.4l-25.7-69.4c-1.3-3.6.6-7.5 4-8.6l7.9-2.7c3.5-1.2 7.4.7 8.7 4.2l25 68.6c1.3 3.6-.6 7.5-4 8.6l-7.9 2.7z" fill="url(#SVGID_1_)"/><radialGradient id="SVGID_2_" cx="2.288" cy="167.346" r="84.676" gradientTransform="matrix(1.2078 -.2467 .203 .9941 -27.606 10.056)" gradientUnits="userSpaceOnUse"><stop offset="0" stop-color="#8c6239"/><stop offset=".034" stop-color="#8f653c"/><stop offset=".208" stop-color="#9c7248"/><stop offset=".443" stop-color="#a3794f"/><stop offset="1" stop-color="#a57b51"/></radialGradient><path d="M33.9 132.8S4.2 147.1 1.7 167.1c-2 16.1 7.1 24.7 20.2 24.7 17.7 0 35-8.9 41.7-13.4-6.5-7-29.7-45.6-29.7-45.6z" fill="url(#SVGID_2_)"/><path class="st3" d="M98.5 183c-1.6.6-3.3-.9-4.5-4.4l-24.5-65.7c-1.2-3.4-.9-6.7.7-7.2l3.7-1.3c1.6-.6 3.9 1.7 5.1 5.2l24.3 65.9c1.2 3.4.3 5.9-1.3 6.4l-3.5 1.1z"/><linearGradient id="SVGID_3_" gradientUnits="userSpaceOnUse" x1="332.51" y1="-391.175" x2="332.51" y2="-368.849" gradientTransform="matrix(.3425 .9354 -.8926 .295 -385.226 -92.873)"><stop offset="0" stop-color="#aeb3b6"/><stop offset=".126" stop-color="#f4f6f8"/><stop offset=".225" stop-color="#aeb3b6"/><stop offset=".332" stop-color="#e2e4e4"/><stop offset=".494" stop-color="#f2f2f2"/><stop offset=".622" stop-color="#acadae"/><stop offset=".813" stop-color="#3d3f41"/><stop offset=".844" stop-color="#434648"/><stop offset=".888" stop-color="#55585b"/><stop offset=".941" stop-color="#727579"/><stop offset=".999" stop-color="#999ea4"/><stop offset="1" stop-color="#9a9fa5"/></linearGradient><path d="M58.5 111.4l-1.4-3.9 19.9-6.9 1.4 3.9-19.9 6.9z" fill="url(#SVGID_3_)"/><linearGradient id="SVGID_4_" gradientUnits="userSpaceOnUse" x1="28.627" y1="52.283" x2="121.308" y2="52.283" gradientTransform="rotate(-33.592 51.753 96.526)"><stop offset="0" stop-color="#ccc"/><stop offset=".176" stop-color="#fff"/><stop offset="1" stop-color="#6f6f6f"/></linearGradient><path d="M62.3 91.2c-24.2 8.3-50.8-4.8-59.5-29.3S6.7 10.8 31 2.5s50.8 4.8 59.5 29.3c8.5 24.4-4.1 51.1-28.2 59.4zm-3-8.5c19.6-6.8 29.8-28.3 22.8-48.1-7-19.9-28.6-30.4-48.2-23.8C14.2 17.6 4 39.1 11.1 58.9c7 20 28.6 30.6 48.2 23.8z" fill="url(#SVGID_4_)"/><linearGradient id="SVGID_5_" gradientUnits="userSpaceOnUse" x1="29.678" y1="52.249" x2="119.951" y2="52.249" gradientTransform="rotate(-33.592 51.753 96.526)"><stop offset="0" stop-color="#fff"/><stop offset="1" stop-color="#b0b1b1"/></linearGradient><path d="M61.8 90.2c-23.6 8.1-49.6-4.7-58.1-28.6s3.8-49.9 27.4-58 49.6 4.7 58.1 28.6c8.5 23.8-3.7 49.8-27.4 58zm-2.5-7.5c19.6-6.8 29.8-28.3 22.8-48.1-7-19.9-28.6-30.4-48.2-23.8C14.2 17.6 4 39.1 11.1 58.9c7 20 28.6 30.6 48.2 23.8z" fill="url(#SVGID_5_)"/><radialGradient id="SVGID_6_" cx="174.917" cy="-281.318" r="33.85" gradientTransform="matrix(.3759 1.062 -1.0488 .3603 -314.25 -37.65)" gradientUnits="userSpaceOnUse"><stop offset="0" stop-color="#bde7fb"/><stop offset=".398" stop-color="#bbe6fb"/><stop offset=".565" stop-color="#b4e4fa"/><stop offset=".688" stop-color="#a9e0f9"/><stop offset=".791" stop-color="#97dbf8"/><stop offset=".88" stop-color="#81d4f7"/><stop offset=".958" stop-color="#65cdf6"/><stop offset="1" stop-color="#58c7f3"/></radialGradient><path d="M59.3 82.7c-19.6 6.8-41.2-3.8-48.2-23.8-7-19.9 3.1-41.3 22.8-48.1S75 14.6 82 34.6c7.1 19.8-3.1 41.3-22.7 48.1z" opacity=".2" fill="url(#SVGID_6_)"/><linearGradient id="SVGID_7_" gradientUnits="userSpaceOnUse" x1="31.679" y1="75.251" x2="80.258" y2="33.923"><stop offset="0" stop-color="#fff" stop-opacity=".3"/><stop offset="1" stop-color="#fff"/></linearGradient><path d="M78.7 38.7c-.3-.9-.7-1.7-1-2.7 4.4 16.8-4.5 34.1-20.8 39.7-16.4 5.6-34.3-2.5-41.4-18.4.2.9.5 1.8.8 2.7 6.1 17.6 25.2 26.9 42.4 21C76 75.1 85 56.2 78.7 38.7z" opacity=".35" fill="url(#SVGID_7_)"/><linearGradient id="SVGID_8_" gradientUnits="userSpaceOnUse" x1="17.155" y1="58.18" x2="65.734" y2="16.851"><stop offset="0" stop-color="#fff" stop-opacity=".3"/><stop offset="1" stop-color="#fff"/></linearGradient><path d="M50.1 56.8c-14.3 5-29.1-.3-33.2-11.5-4-11.3 4.4-24.5 18.8-29.4 14.3-5 29.1.3 33.2 11.5 3.9 11.3-4.4 24.4-18.8 29.4z" opacity=".35" fill="url(#SVGID_8_)"/><linearGradient id="SVGID_9_" gradientUnits="userSpaceOnUse" x1="113.423" y1="52.202" x2="36.739" y2="52.202" gradientTransform="rotate(-33.592 51.753 96.526)"><stop offset="0" stop-color="#fff"/><stop offset="1" stop-color="#6f6f6f"/></linearGradient><path d="M59.6 83.8c-20.2 7-42.5-4-49.7-24.5-7.1-20.4 3.3-42.6 23.6-49.6s42.5 4 49.7 24.5c7.1 20.5-3.3 42.7-23.6 49.6zm-.3-1.1c19.6-6.8 29.8-28.3 22.8-48.1-7-19.9-28.6-30.4-48.2-23.8C14.2 17.6 4 39.1 11.1 58.9c7 20 28.6 30.6 48.2 23.8z" fill="url(#SVGID_9_)"/><radialGradient id="SVGID_10_" cx="-330.406" cy="1084.846" r="26.06" gradientTransform="matrix(1.0028 -.4711 .4844 1.0183 -117.27 -1120.786)" gradientUnits="userSpaceOnUse"><stop offset="0" stop-color="#fdc78a"/><stop offset=".575" stop-color="#fdc389"/><stop offset=".962" stop-color="#fbb986"/><stop offset="1" stop-color="#fbb885"/></radialGradient><path d="M77.7 171.1c-21.7 6-44.8-47.4-18.2-56.9s26.9-10.9 33.5-2.8c6.7 8.1 2.9 5.3 1 13.3 3.8.7 10.1 9.8 7.9 16.4 5.4 4.1 9.9 16.2 0 20.4-10 4.1-24.2 9.6-24.2 9.6" fill="url(#SVGID_10_)"/><linearGradient id="SVGID_11_" gradientUnits="userSpaceOnUse" x1="-1236.026" y1="1304.986" x2="-1275.31" y2="1304.986" gradientTransform="matrix(-.7798 .5179 .5533 .833 -1648.088 -284.417)"><stop offset="0" stop-color="#6f4e2e"/><stop offset="1" stop-color="#785634"/></linearGradient><path d="M77.7 175s-38.9-19.5-27.4-60.1c-6.9 5.8-15.2 13.7-18.7 16.8-4.5 9.5 3.3 37.8 25.7 50.2 7.9-1.3 10.2-2.4 20.4-6.9z" fill="url(#SVGID_11_)"/><linearGradient id="SVGID_12_" gradientUnits="userSpaceOnUse" x1="-1255.424" y1="1304.833" x2="-1280.231" y2="1304.833" gradientTransform="matrix(-.7798 .5179 .5533 .833 -1648.088 -284.417)"><stop offset="0" stop-color="#6f4e2e"/><stop offset="1" stop-color="#785634"/></linearGradient><path d="M56 115.7l-2 1.5c-3.6 1.4-11.7 27.4 20.3 53.7 4 2.8 2.7-1 2.7-1s3.7 8.1-2.6 4.5c-26.2-14.7-34.6-50.6-23.1-60.4 4-1.9 4.7 1.7 4.7 1.7z" fill="url(#SVGID_12_)"/><path class="st14" d="M55.5 96.2c-1.8.7-4-.2-4.7-2-.7-1.8.1-3.9 2-4.7l14.7-5.9c1.8-.7 4 .2 4.7 2 .7 1.8.5 4.7-1.3 5.5-.1 0-15.4 5.1-15.4 5.1z"/><path d="M92.8 187c-3.5 1.2-6.9.1-8-3.4l-25.7-69.4c-1.3-3.6.6-7.5 4-8.6l7.9-2.7c3.5-1.2 7.4.7 8.7 4.2l25 68.6c1.3 3.6-.6 7.5-4 8.6l-7.9 2.7z" fill="#353535"/><path class="st3" d="M98.5 183c-1.6.6-3.3-.9-4.5-4.4l-24.5-65.7c-1.2-3.4-.9-6.7.7-7.2l3.7-1.3c1.6-.6 3.9 1.7 5.1 5.2l24.3 65.9c1.2 3.4.3 5.9-1.3 6.4l-3.5 1.1z"/><path class="st14" d="M58.5 111.4l-1.4-3.9 19.9-6.9 1.4 3.9-19.9 6.9z"/><path class="st0" d="M62.3 91.2c-24.2 8.3-50.8-4.8-59.5-29.3S6.7 10.8 31 2.5s50.8 4.8 59.5 29.3c8.5 24.4-4.1 51.1-28.2 59.4zm-3-8.5c19.6-6.8 29.8-28.3 22.8-48.1-7-19.9-28.6-30.4-48.2-23.8C14.2 17.6 4 39.1 11.1 58.9c7 20 28.6 30.6 48.2 23.8z"/><radialGradient id="SVGID_13_" cx="-330.214" cy="1084.841" r="25.97" gradientTransform="matrix(1.0028 -.4711 .4844 1.0183 -117.27 -1120.786)" gradientUnits="userSpaceOnUse"><stop offset="0" stop-color="#fdc78a"/><stop offset=".575" stop-color="#fdc389"/><stop offset=".962" stop-color="#fbb986"/><stop offset="1" stop-color="#fbb885"/></radialGradient><path d="M77.7 171.1C56 177.1 34 123 59.5 114.2c26.7-9.2 26.9-10.9 33.5-2.8 6.7 8.1 2.9 5.3 1 13.3 3.8.7 10.1 9.8 7.9 16.4 5.4 4.1 9.9 16.2 0 20.4-10 4.1-24.2 9.6-24.2 9.6" fill="url(#SVGID_13_)"/></svg>