<?xml version="1.0" encoding="utf-8"?>
<!-- Generator: Adobe Illustrator 22.0.1, SVG Export Plug-In . SVG Version: 6.00 Build 0)  -->
<svg version="1.1" id="Layer_1" xmlns="http://www.w3.org/2000/svg" xmlns:xlink="http://www.w3.org/1999/xlink" x="0px" y="0px"
	 width="618px" height="639px" viewBox="0 0 618 639" style="enable-background:new 0 0 618 639;" xml:space="preserve">
<style type="text/css">
	.st0{fill:none;}
	.st1{fill:#29ABE2;}
	.st2{opacity:0.4;enable-background:new    ;}
	.st3{fill:#F2F2F2;}
	.st4{clip-path:url(#SVGID_2_);}
	.st5{opacity:0.1;}
	.st6{fill:url(#SVGID_3_);}
	.st7{fill:url(#SVGID_4_);}
	.st8{fill:url(#SVGID_6_);}
	.st9{fill:url(#SVGID_9_);}
	.st10{fill:url(#SVGID_10_);}
	.st11{fill:#FFFFFF;}
	.st12{fill:url(#SVGID_11_);}
	.st13{fill:#FBC48A;}
	.st14{fill:url(#SVGID_12_);}
	.st15{fill:url(#SVGID_13_);}
	.st16{fill:url(#SVGID_14_);}
	.st17{fill:#CE985E;}
	.st18{fill:url(#SVGID_15_);}
	.st19{fill:#FAB383;}
	.st20{fill:#836F67;}
	.st21{fill:url(#SVGID_16_);}
	.st22{fill:url(#SVGID_17_);}
	.st23{fill:#856848;}
	.st24{fill:#1A1A1A;}
	.st25{fill:#006986;}
	.st26{fill:#52B532;}
</style>
<pattern  y="639" width="242" height="242" patternUnits="userSpaceOnUse" id="SVGID_5_" viewBox="0 -242 242 242" style="overflow:visible;">
	<g>
		<rect y="-242" class="st0" width="242" height="242"/>
		<g>
			<rect y="-242" class="st0" width="242" height="242"/>
			<rect y="-242" class="st1" width="242" height="242"/>
			<rect y="-242" class="st2" width="11" height="242"/>
			<rect x="22" y="-242" class="st2" width="11" height="242"/>
			<rect x="44" y="-242" class="st2" width="11" height="242"/>
			<rect x="66" y="-242" class="st2" width="11" height="242"/>
			<rect x="88" y="-242" class="st2" width="11" height="242"/>
			<rect x="110" y="-242" class="st2" width="11" height="242"/>
			<rect x="132" y="-242" class="st2" width="11" height="242"/>
			<rect x="154" y="-242" class="st2" width="11" height="242"/>
			<rect x="176" y="-242" class="st2" width="11" height="242"/>
			<rect x="198" y="-242" class="st2" width="11" height="242"/>
			<rect x="220" y="-242" class="st2" width="11" height="242"/>
			<rect y="-11" class="st2" width="242" height="11"/>
			<rect y="-33" class="st2" width="242" height="11"/>
			<rect y="-55" class="st2" width="242" height="11"/>
			<rect y="-77" class="st2" width="242" height="11"/>
			<rect y="-99" class="st2" width="242" height="11"/>
			<rect y="-121" class="st2" width="242" height="11"/>
			<rect y="-143" class="st2" width="242" height="11"/>
			<rect y="-165" class="st2" width="242" height="11"/>
			<rect y="-187" class="st2" width="242" height="11"/>
			<rect y="-209" class="st2" width="242" height="11"/>
			<rect y="-231" class="st2" width="242" height="11"/>
		</g>
	</g>
</pattern>
<pattern  y="639" width="242" height="242" patternUnits="userSpaceOnUse" id="SVGID_7_" viewBox="0 -242 242 242" style="overflow:visible;">
	<g>
		<rect y="-242" class="st0" width="242" height="242"/>
		<g>
			<rect y="-242" class="st0" width="242" height="242"/>
			<rect y="-242" class="st1" width="242" height="242"/>
			<rect y="-242" class="st2" width="11" height="242"/>
			<rect x="22" y="-242" class="st2" width="11" height="242"/>
			<rect x="44" y="-242" class="st2" width="11" height="242"/>
			<rect x="66" y="-242" class="st2" width="11" height="242"/>
			<rect x="88" y="-242" class="st2" width="11" height="242"/>
			<rect x="110" y="-242" class="st2" width="11" height="242"/>
			<rect x="132" y="-242" class="st2" width="11" height="242"/>
			<rect x="154" y="-242" class="st2" width="11" height="242"/>
			<rect x="176" y="-242" class="st2" width="11" height="242"/>
			<rect x="198" y="-242" class="st2" width="11" height="242"/>
			<rect x="220" y="-242" class="st2" width="11" height="242"/>
			<rect y="-11" class="st2" width="242" height="11"/>
			<rect y="-33" class="st2" width="242" height="11"/>
			<rect y="-55" class="st2" width="242" height="11"/>
			<rect y="-77" class="st2" width="242" height="11"/>
			<rect y="-99" class="st2" width="242" height="11"/>
			<rect y="-121" class="st2" width="242" height="11"/>
			<rect y="-143" class="st2" width="242" height="11"/>
			<rect y="-165" class="st2" width="242" height="11"/>
			<rect y="-187" class="st2" width="242" height="11"/>
			<rect y="-209" class="st2" width="242" height="11"/>
			<rect y="-231" class="st2" width="242" height="11"/>
		</g>
	</g>
</pattern>
<pattern  y="639" width="242" height="242" patternUnits="userSpaceOnUse" id="SVGID_8_" viewBox="0 -242 242 242" style="overflow:visible;">
	<g>
		<rect y="-242" class="st0" width="242" height="242"/>
		<g>
			<rect y="-242" class="st0" width="242" height="242"/>
			<rect y="-242" class="st1" width="242" height="242"/>
			<rect y="-242" class="st2" width="11" height="242"/>
			<rect x="22" y="-242" class="st2" width="11" height="242"/>
			<rect x="44" y="-242" class="st2" width="11" height="242"/>
			<rect x="66" y="-242" class="st2" width="11" height="242"/>
			<rect x="88" y="-242" class="st2" width="11" height="242"/>
			<rect x="110" y="-242" class="st2" width="11" height="242"/>
			<rect x="132" y="-242" class="st2" width="11" height="242"/>
			<rect x="154" y="-242" class="st2" width="11" height="242"/>
			<rect x="176" y="-242" class="st2" width="11" height="242"/>
			<rect x="198" y="-242" class="st2" width="11" height="242"/>
			<rect x="220" y="-242" class="st2" width="11" height="242"/>
			<rect y="-11" class="st2" width="242" height="11"/>
			<rect y="-33" class="st2" width="242" height="11"/>
			<rect y="-55" class="st2" width="242" height="11"/>
			<rect y="-77" class="st2" width="242" height="11"/>
			<rect y="-99" class="st2" width="242" height="11"/>
			<rect y="-121" class="st2" width="242" height="11"/>
			<rect y="-143" class="st2" width="242" height="11"/>
			<rect y="-165" class="st2" width="242" height="11"/>
			<rect y="-187" class="st2" width="242" height="11"/>
			<rect y="-209" class="st2" width="242" height="11"/>
			<rect y="-231" class="st2" width="242" height="11"/>
		</g>
	</g>
</pattern>
<g>
	<circle class="st3" cx="301" cy="338.9" r="294.9"/>
	<g>
		<g>
			<defs>
				<path id="SVGID_1_" d="M595.9,338.9c0,162.8-132,294.9-294.9,294.9S6.1,501.7,6.1,338.9S138.2,44,301,44
					c119.4,0,222.2,71,268.6,173c5.3,11.8,20.7,12.8,21.7,17.2c1,4.7-3.5,35.1-1.8,43.2C593.7,297.2,595.9,317.8,595.9,338.9z"/>
			</defs>
			<clipPath id="SVGID_2_">
				<use xlink:href="#SVGID_1_"  style="overflow:visible;"/>
			</clipPath>
			<g class="st4">
				<g>
					<g class="st5">
						<path d="M452.8,940.2c0,2.9-79.7,5.2-178,5.2s-177.9-2.3-177.9-5.2s79.7-5.2,177.9-5.2C373.1,935,452.8,937.3,452.8,940.2z"/>
					</g>
					<g>
						
							<linearGradient id="SVGID_3_" gradientUnits="userSpaceOnUse" x1="332.9538" y1="-194.4047" x2="332.9538" y2="-32.8741" gradientTransform="matrix(1 0 0 -1 0 640.5499)">
							<stop  offset="0" style="stop-color:#426897"/>
							<stop  offset="1" style="stop-color:#192F4B"/>
						</linearGradient>
						<path class="st6" d="M344.2,661.1c1.8,21.8,3.2,43.3,4.5,64.9c1.2,21.6,2.2,43.3,3.1,64.9c1.6,43.3,2.5,86.7,2.4,130.1
							l-42.5-1.7c3.3-42.7,5.8-85.6,7.5-128.5c0.8-21.5,1.5-42.9,1.9-64.4c0.4-21.4,0.7-43,0.5-64.3L344.2,661.1z"/>
						
							<linearGradient id="SVGID_4_" gradientUnits="userSpaceOnUse" x1="191.2462" y1="-194.4042" x2="191.2462" y2="-32.8732" gradientTransform="matrix(1 0 0 -1 0 640.5499)">
							<stop  offset="0" style="stop-color:#426897"/>
							<stop  offset="1" style="stop-color:#192F4B"/>
						</linearGradient>
						<path class="st7" d="M202.5,662.2c-0.1,21.3,0.1,42.9,0.6,64.4c0.4,21.5,1.1,42.9,1.9,64.4c1.7,42.9,4.1,85.8,7.5,128.5
							l-42.5,1.7c-0.1-43.5,0.8-86.9,2.4-130.2c0.8-21.7,1.9-43.3,3.1-64.9c1.3-21.7,2.7-43.2,4.4-64.9L202.5,662.2z"/>
						<pattern  id="SVGID_6_" xlink:href="#SVGID_5_" patternTransform="matrix(1 0 0 -1 1276 -16762.3496)">
						</pattern>
						<path class="st8" d="M163,478.9c-0.9,1.4-2.3,3.4-3.4,5.2c-1.2,1.9-2.3,3.8-3.4,5.7c-2.2,3.9-4.2,7.9-6.1,11.9
							c-3.8,8.1-7.1,16.5-9.8,25c-5.5,17-9.1,34.5-10.9,52c-3.6,35.1-0.3,70.3,7.7,104.3l-72.6,7.8c-0.1-41.6,5.8-83.5,19.3-122.6
							c6.8-19.5,15.4-38.3,26-55.7c5.3-8.7,11.1-17.1,17.4-25.1c3.2-4,6.4-7.9,9.9-11.7c1.7-1.9,3.5-3.7,5.3-5.6
							c1.9-1.9,3.6-3.5,6-5.6L163,478.9z"/>
						<g>
							
								<linearGradient id="SVGID_9_" gradientUnits="userSpaceOnUse" x1="1279.6725" y1="-1653.4226" x2="1279.6725" y2="-1491.8926" gradientTransform="matrix(1 4.000000e-04 4.000000e-04 -1 -1016.6321 1552.7559)">
								<stop  offset="0" style="stop-color:#426897"/>
								<stop  offset="1" style="stop-color:#192F4B"/>
							</linearGradient>
							<path class="st9" d="M372.8,654.1c0,27.1-40.5,24-103.5,24S154,681,154,654c0-27.1,52.3-24,115.3-24S372.8,627,372.8,654.1z"
								/>
						</g>
						<g>
							<pattern  id="SVGID_10_" xlink:href="#SVGID_7_" patternTransform="matrix(1 0 0 -1 1276 -16762.3496)">
							</pattern>
							<path class="st10" d="M387.7,481c0-12.6-10.2-22.8-22.7-22.8H163.8c-12.6,0-22.7,10.2-22.7,22.8v153.1
								c0,12.6,10.2,22.7,22.7,22.7H365c12.6,0,22.7-10.2,22.7-22.7V481z"/>
						</g>
						<polygon class="st11" points="224.3,460 261.6,500.7 299.2,460 						"/>
						<g>
							<pattern  id="SVGID_11_" xlink:href="#SVGID_8_" patternTransform="matrix(1 0 0 -1 1276 -16762.3496)">
							</pattern>
							<path class="st12" d="M375.9,464.8c4.4,0,9.5-0.3,14.3-0.8c4.9-0.5,9.7-1.3,14.5-2.3c9.5-1.9,18.8-4.8,27.4-8.4
								c17.3-7.3,31.9-18.2,42.3-31.6c10.5-13.4,17-29.3,20.5-46.3c3.5-17.1,4.1-35.3,2.7-53.7l73,3.3c-3.3,23.4-9,47.1-19,69.8
								c-10,22.6-24.9,44.2-44.4,60.2c-19.4,16.2-42.7,26.2-65.7,30.6c-11.5,2.2-23,3.2-34.4,3.1c-5.7,0-11.3-0.3-17-0.9
								s-11-1.3-17.1-2.6L375.9,464.8z"/>
							<g>
								<path class="st13" d="M591,234.3c-8.5-9-22.5-5.4-22.5-5.4L558.1,271c-0.8-0.2-1.5-0.4-2.3-0.6l3.4-49.4
									c-9.1-8-22.8-2.9-22.8-2.9l-8.1,48.2c-1-0.1-1.9-0.1-2.7-0.2l-3.5-44c-9.9-6.8-23,0-23,0l-2.6,55c-0.3,0.8-3.6,8.1-3.8,8.8
									l-24.5-11.3c-11,6.3-13.2,21.9-13.2,21.9l36.6,26.1c2.1,8.1,5,13.1,5,13.1c32.8,9.2,74.9,8.2,74.9,8.2
									c11.1-36.2,12.1-61.9,12.1-61.9L591,234.3z"/>
							</g>
						</g>
						<g>
							
								<radialGradient id="SVGID_12_" cx="-1790.0433" cy="-3833.302" r="79.2038" gradientTransform="matrix(1 -1.500000e-03 -1.500000e-03 -1 2161.0144 -2919.5032)" gradientUnits="userSpaceOnUse">
								<stop  offset="0" style="stop-color:#454545"/>
								<stop  offset="1" style="stop-color:#252525"/>
							</radialGradient>
							<path class="st14" d="M303.2,940.3l92-0.1c0.8,0,1.6-0.6,1.6-1.4c0.8-7.6-3.6-38.3-75.3-34.5c-18.1,1-20.6,27.8-20,34.6
								C301.7,939.6,302.4,940.3,303.2,940.3z"/>
						</g>
						<g>
							
								<radialGradient id="SVGID_13_" cx="199.0528" cy="-276.0696" r="68.8525" gradientTransform="matrix(-1 0 0 -1 372 640.5499)" gradientUnits="userSpaceOnUse">
								<stop  offset="0" style="stop-color:#454545"/>
								<stop  offset="1" style="stop-color:#252525"/>
							</radialGradient>
							<path class="st15" d="M221,940.1h-59.5c-0.8,0-1.6-0.6-1.6-1.4c-0.8-7.6-3.5-34.3,32.9-34.6c33.3-0.3,30.4,27.8,29.8,34.6
								C222.6,939.5,221.8,940.1,221,940.1z"/>
						</g>
						<g>
							<path class="st13" d="M138.8,681.8c0,0-33.8-9.2-76.7,1.3c0,0-9.2,34.2,6.7,75.8c0,0,28.1,12.3,60.6,12.2
								c0,0-2.3-30.3-0.4-51.2c0,0,3.8,8.9,8,18.9c0,0,11.2,0,16.8-6.6C153.9,732.2,150.9,705.1,138.8,681.8z"/>
						</g>
					</g>
					<g>
						
							<radialGradient id="SVGID_14_" cx="-14162.6006" cy="8986.9629" r="145.1743" gradientTransform="matrix(0.9999 -1.240000e-02 -1.240000e-02 -0.9999 14536.0146 9124.3564)" gradientUnits="userSpaceOnUse">
							<stop  offset="0" style="stop-color:#FCC58A"/>
							<stop  offset="0.575" style="stop-color:#FCC289"/>
							<stop  offset="0.962" style="stop-color:#FBB986"/>
							<stop  offset="1" style="stop-color:#FBB885"/>
						</radialGradient>
						<path class="st16" d="M400.9,183.8c-0.2-12.6-10.5-22.4-23-22.3l-232.7,2.9c-12.6,0.2-22.6,10.3-22.5,22.9
							c0,0,0,28.4,5.2,197.7c1.7,55.9,13.6,78.7,25.7,78.5H376c12.1-0.2,24.4-26,24.7-81.9C401.6,212.2,400.9,183.8,400.9,183.8z"/>
						<g>
							<path class="st17" d="M404.1,331.9c0.6-135-3.2-148.4-3.2-148.4c-0.2-12.6-10.5-22.6-23-22.5l-232.8,3
								c-12.6,0.2-22.6,10.5-22.5,23c0,0-4,16.8,0,152c1.1,1.1,4.4,19.5,4.4,19.5c0.7-82.7,17.7-145.3,17.7-145.3
								s84.1,44.6,176.9,15.1l-17.3-15.1c49.9-5.7,65.2-15.4,65.2-15.4c25,59.8,31.2,150.5,31.2,150.5
								C401.3,347.7,404.1,331.9,404.1,331.9z"/>
						</g>
						<g>
							
								<linearGradient id="SVGID_15_" gradientUnits="userSpaceOnUse" x1="-14167.1426" y1="9250.249" x2="-14167.1426" y2="8942.124" gradientTransform="matrix(0.9999 -1.240000e-02 -1.240000e-02 -0.9999 14536.0146 9124.3564)">
								<stop  offset="0" style="stop-color:#574537"/>
								<stop  offset="0.5758" style="stop-color:#433329"/>
								<stop  offset="1" style="stop-color:#32241D"/>
							</linearGradient>
							<path class="st18" d="M127.1,358.6c0-3.8-22.1-9.4-25.8-147.4c-2.9,3.2-7.5,5.8-10.1,9.4c-0.1-37.2,17.5-44.8,17.5-44.8
								c-5.2,4.7,0.4-0.2,0,0c0,0-0.1-6.7-11.1-7.3c8.1-10.1,16.3-10.4,28.9-11.1c-3-0.8,7.6-21.9,9-23.6
								c6.5-7.7,17.6-12.3,27.2-14.5c-3.4,3.6-4.9,8-7.6,11.9c32.7-13.7,47-23.9,83.3-24.8c29.7-0.7,73-1.7,101.5-13
								c18.6-7.4,32.1-18.7,29.4-36.3c-0.7-0.3-0.7-0.3,0,0c31.9,20.7,28.3,54.7,28.3,54.7s3.6-1.1,9.1-12.9
								c7.8,23.3,4.3,48.4-5.5,63.8c29.8,17.4,22.6,65,21.1,87.4c-5.2,78.2-21.5,98.5-21.5,98.5c0.9-46.7-4.4-118.4-25.2-161
								c0,0-23.7,16.6-63.3,24.9l18.4,9.7c-101,25.5-190.5-16.3-189.6-23C141,199.5,122.7,244,127.1,358.6z"/>
						</g>
						<path class="st19" d="M390.3,335.1c0.1,8.5-6.7,15.5-15.3,15.6c-8.5,0.1-15.5-6.7-15.7-15.3c-0.1-8.5,6.7-15.5,15.3-15.7
							C383.2,319.7,390.2,326.5,390.3,335.1z"/>
						<path class="st19" d="M169.2,337.8c0.1,8.5-6.7,15.5-15.3,15.6c-8.5,0.1-15.5-6.7-15.6-15.3c-0.1-8.5,6.7-15.5,15.3-15.6
							C162.1,322.4,169.1,329.3,169.2,337.8z"/>
						<path class="st20" d="M195.5,139.8c55-30.2,80.7-16.8,128.8-25.2c21-3.7,27.2-16.7,27.2-16.7c-14.2,47.6-77.1,24.6-123.8,33.1
							L195.5,139.8z"/>
					</g>
					<g>
						
							<radialGradient id="SVGID_16_" cx="197.404" cy="356.4562" r="24.7231" gradientTransform="matrix(1 0 0 -1 0 640.5499)" gradientUnits="userSpaceOnUse">
							<stop  offset="0" style="stop-color:#454545"/>
							<stop  offset="1" style="stop-color:#101010"/>
						</radialGradient>
						<circle class="st21" cx="197.5" cy="285" r="21.5"/>
						<circle class="st11" cx="203.6" cy="277.5" r="7.5"/>
					</g>
					<g>
						
							<radialGradient id="SVGID_17_" cx="333.7487" cy="356.4562" r="24.7239" gradientTransform="matrix(1 0 0 -1 0 640.5499)" gradientUnits="userSpaceOnUse">
							<stop  offset="0" style="stop-color:#454545"/>
							<stop  offset="1" style="stop-color:#101010"/>
						</radialGradient>
						<circle class="st22" cx="333.8" cy="285" r="21.5"/>
						<circle class="st11" cx="340" cy="277.5" r="7.5"/>
					</g>
					<g>
						<path class="st23" d="M269.3,401.3c-39.1,0-57.3-15-58-15.6c-2.3-1.9-2.5-5.3-0.6-7.6c1.9-2.3,5.3-2.5,7.6-0.6
							c0.3,0.2,16.4,13.1,51.1,13.1c28.4,0,43.3-12.9,43.4-13c2.2-2,5.6-1.8,7.6,0.4c2,2.2,1.8,5.6-0.4,7.6
							C319.2,386.2,302.1,401.3,269.3,401.3z"/>
					</g>
				</g>
				<path class="st24" d="M413.3,251c-19.9-1.5-26.9-5.9-66.8-5.7c-31,0.2-49.9,6.6-81,6.6h-0.1c-31,0-49.9-6.4-81-6.6
					c-39.9-0.2-46.9,4.4-66.8,6c-1.8,0.1-3.4,1.4-3.2,4.5c0,5.2,0.4,9.7,0.4,14.3c0,4.1,3.4,3.6,5.5,8.4
					c6.4,15.4,3.8,41.1,18.9,54.5c4.3,3.8,12.1,8.6,19.7,9.3c36.5,3.4,67.9,5.7,81.9-31.5c2.9-7.7,7.1-14,10.1-25.5
					c4.2-7.8,4.4-6.2,14.5-6.8c10.1,0.5,10.3-1.1,14.5,6.8c3,11.5,7.2,17.8,10.1,25.5c14,37.2,45.4,34.8,81.9,31.5
					c7.6-0.7,15.4-5.5,19.7-9.3c15.2-13.4,12.6-39.1,18.9-54.5c2-4.8,5.5-4.3,5.5-8.5c0-4.5,0.4-9.2,0.4-14.3
					C416.8,252.6,415.1,251.2,413.3,251z M241.6,296.2c-3.9,13.7-10,27.5-22,35c-8.2,5.2-19.7,8.3-32.7,8.5
					c-38.2,0.6-53.6-11.8-53.8-44.1c-0.1-15.2-2.8-29.2,5.9-36.4c9.7-8,31.8-8.3,48.3-8.3c17,0,43.8,2.7,53.5,12.4
					C249,271.2,245.2,283.5,241.6,296.2z M397.8,295.6c-0.2,32.2-15.6,44.7-53.8,44.1c-13-0.2-24.5-3.2-32.7-8.5
					c-12-7.6-18.1-21.3-22-35c-3.6-12.7-7.4-25,0.8-33c9.7-9.6,36.5-12.4,53.5-12.4c16.4,0,38.5,0.3,48.3,8.3
					C400.6,266.4,397.9,280.4,397.8,295.6z"/>
				<path class="st25" d="M140.1,509.4c1-9.8,6.9-14.2,6.9-14.2s-2.9,3-4.9,14.2c-2,11.3-1,16.5-1,16.5S139,519.7,140.1,509.4z"/>
			</g>
		</g>
	</g>
	<path class="st26" d="M530,7.4c-45.2,0-81.9,36.6-81.9,81.9c0,28.5,14.6,53.7,36.8,68.3c-0.5,1.2-0.9,2.4-1.5,3.5
		c-4.3,9.3-10.6,17.1-18.2,23c14.2-1.3,27.8-7.4,38.1-17.5c8.3,2.9,17.3,4.4,26.6,4.4c45.2,0,81.9-36.6,81.9-81.9S575.2,7.4,530,7.4
		z"/>
	<g>
		<path class="st11" d="M510.1,138.5c-0.2,0-0.2,0-0.5,0c-2.3,0-4.4-1.2-5.9-2.8l-27.6-33.3c-2.8-3.5-2.3-8.4,0.9-11.2
			c3.5-2.8,8.4-2.3,11.2,0.9l22.2,26.7L572,57.4c3-3.3,8.2-3.3,11.2,0c3,3,3,8.2,0,11.2l-67.7,67.5
			C514.1,137.8,512.2,138.5,510.1,138.5z"/>
	</g>
</g>
</svg>
