<?xml version="1.0" encoding="utf-8"?>
<!-- Generator: Adobe Illustrator 20.1.0, SVG Export Plug-In . SVG Version: 6.00 Build 0)  -->
<svg version="1.0" id="Layer_1" xmlns="http://www.w3.org/2000/svg" xmlns:xlink="http://www.w3.org/1999/xlink" x="0px" y="0px"
	 width="188.4px" height="315px" viewBox="0 0 188.4 315" enable-background="new 0 0 188.4 315" xml:space="preserve">
<pattern  x="-7.6" y="58.2" width="242" height="242" patternUnits="userSpaceOnUse" id="New_Pattern" viewBox="0 -242 242 242" overflow="visible">
	<g>
		<rect y="-242" fill="none" width="242" height="242"/>
		<rect y="-242" fill="#29ABE2" width="242" height="242"/>
		<rect y="-242" opacity="0.4" width="11" height="242"/>
		<rect x="22" y="-242" opacity="0.4" width="11" height="242"/>
		<rect x="44" y="-242" opacity="0.4" width="11" height="242"/>
		<rect x="66" y="-242" opacity="0.4" width="11" height="242"/>
		<rect x="88" y="-242" opacity="0.4" width="11" height="242"/>
		<rect x="110" y="-242" opacity="0.4" width="11" height="242"/>
		<rect x="132" y="-242" opacity="0.4" width="11" height="242"/>
		<rect x="154" y="-242" opacity="0.4" width="11" height="242"/>
		<rect x="176" y="-242" opacity="0.4" width="11" height="242"/>
		<rect x="198" y="-242" opacity="0.4" width="11" height="242"/>
		<rect x="220" y="-242" opacity="0.4" width="11" height="242"/>
		<rect y="-242" opacity="0.4" width="242" height="11"/>
		<rect y="-220" opacity="0.4" width="242" height="11"/>
		<rect y="-198" opacity="0.4" width="242" height="11"/>
		<rect y="-176" opacity="0.4" width="242" height="11"/>
		<rect y="-154" opacity="0.4" width="242" height="11"/>
		<rect y="-132" opacity="0.4" width="242" height="11"/>
		<rect y="-110" opacity="0.4" width="242" height="11"/>
		<rect y="-88" opacity="0.4" width="242" height="11"/>
		<rect y="-66" opacity="0.4" width="242" height="11"/>
		<rect y="-44" opacity="0.4" width="242" height="11"/>
		<rect y="-22" opacity="0.4" width="242" height="11"/>
	</g>
</pattern>
<g>
	<g>
		<g opacity="0.1">
			<ellipse cx="76.3" cy="313.2" rx="63.1" ry="1.8"/>
		</g>
		<g>
			<linearGradient id="SVGID_1_" gradientUnits="userSpaceOnUse" x1="96.9362" y1="275.8828" x2="96.9362" y2="218.628">
				<stop  offset="0" style="stop-color:#426897"/>
				<stop  offset="1" style="stop-color:#192F4B"/>
			</linearGradient>
			<path fill="url(#SVGID_1_)" d="M100.9,214.2c0.6,7.7,1.1,15.3,1.6,23c0.4,7.7,0.8,15.3,1.1,23c0.6,15.4,0.9,30.7,0.9,46.1
				l-15.1-0.6c1.2-15.1,2.1-30.3,2.7-45.5c0.3-7.6,0.5-15.2,0.7-22.8c0.2-7.6,0.2-15.2,0.2-22.8L100.9,214.2z"/>
			<linearGradient id="SVGID_2_" gradientUnits="userSpaceOnUse" x1="46.7136" y1="275.8826" x2="46.7136" y2="218.6277">
				<stop  offset="0" style="stop-color:#426897"/>
				<stop  offset="1" style="stop-color:#192F4B"/>
			</linearGradient>
			<path fill="url(#SVGID_2_)" d="M50.7,214.6c0,7.6,0.1,15.2,0.2,22.8c0.2,7.6,0.4,15.2,0.7,22.8c0.6,15.2,1.5,30.4,2.7,45.5
				l-15.1,0.6c0-15.4,0.3-30.8,0.9-46.1c0.3-7.7,0.7-15.3,1.1-23c0.4-7.7,0.9-15.3,1.6-23L50.7,214.6z"/>
			<pattern  id="SVGID_3_" xlink:href="#New_Pattern" patternTransform="matrix(1 0 0 1 968 0)">
			</pattern>
			<path fill="url(#SVGID_3_)" d="M36.7,149.7c-0.3,0.5-0.8,1.2-1.2,1.8c-0.4,0.7-0.8,1.3-1.2,2c-0.8,1.4-1.5,2.8-2.2,4.2
				c-1.3,2.9-2.5,5.8-3.5,8.9c-2,6-3.2,12.2-3.9,18.4c-1.3,12.5-0.1,24.9,2.7,37l-25.8,2.8c0-14.8,2.1-29.6,6.9-43.5
				c2.4-6.9,5.5-13.6,9.2-19.8c1.9-3.1,3.9-6.1,6.2-8.9c1.1-1.4,2.3-2.8,3.5-4.1c0.6-0.7,1.2-1.3,1.9-2c0.7-0.7,1.3-1.2,2.1-2
				L36.7,149.7z"/>
			<g>
				
					<linearGradient id="SVGID_4_" gradientUnits="userSpaceOnUse" x1="1088.3508" y1="203.8699" x2="1088.3508" y2="146.6153" gradientTransform="matrix(1 4.000000e-04 -4.000000e-04 1 -1016.3382 912.2433)">
					<stop  offset="0" style="stop-color:#426897"/>
					<stop  offset="1" style="stop-color:#192F4B"/>
				</linearGradient>
				<path fill="url(#SVGID_4_)" d="M111.1,211.8c0,9.6-14.4,8.5-36.7,8.5c-22.3,0-40.9,1-40.9-8.5c0-9.6,18.5-8.5,40.9-8.5
					C96.7,203.2,111.1,202.2,111.1,211.8z"/>
			</g>
			<g>
				<pattern  id="SVGID_5_" xlink:href="#New_Pattern" patternTransform="matrix(1 0 0 1 968 0)">
				</pattern>
				<path fill="url(#SVGID_5_)" d="M116.3,150.4c0-4.5-3.6-8.1-8.1-8.1H37c-4.5,0-8.1,3.6-8.1,8.1v54.3c0,4.5,3.6,8.1,8.1,8.1h71.3
					c4.5,0,8.1-3.6,8.1-8.1V150.4z"/>
			</g>
			<polygon fill="#FFFFFF" points="58.4,143.2 71.7,157.6 85,143.2 			"/>
			<g>
				<pattern  id="SVGID_6_" xlink:href="#New_Pattern" patternTransform="matrix(1 0 0 1 968 0)">
				</pattern>
				<path fill="url(#SVGID_6_)" d="M112.1,144.7c1.6,0,3.4-0.1,5.1-0.3c1.7-0.2,3.4-0.5,5.1-0.8c3.4-0.7,6.6-1.7,9.7-3
					c6.1-2.6,11.3-6.4,15-11.2c3.7-4.8,6-10.4,7.3-16.4c1.2-6,1.4-12.5,1-19.1l25.9,1.2c-1.2,8.3-3.2,16.7-6.7,24.8
					c-3.5,8-8.8,15.7-15.7,21.3c-6.9,5.7-15.1,9.3-23.3,10.8c-4.1,0.8-8.2,1.1-12.2,1.1c-2,0-4-0.1-6-0.3c-2-0.2-3.9-0.5-6-0.9
					L112.1,144.7z"/>
				<g>
					<path fill="#FBC48A" d="M188.4,63c-3-3.2-8-1.9-8-1.9L176.8,76c-0.3-0.1-0.5-0.1-0.8-0.2l1.2-17.5c-3.2-2.8-8.1-1-8.1-1
						l-2.9,17.1c-0.3,0-0.7,0-1-0.1L164,58.7c-3.5-2.4-8.2,0-8.2,0l-0.9,19.5c-0.1,0.3-1.3,2.9-1.4,3.1l-8.7-4
						c-3.9,2.2-4.7,7.8-4.7,7.8l13,9.3c0.8,2.9,1.8,4.6,1.8,4.6c11.6,3.3,26.5,2.9,26.5,2.9c3.9-12.8,4.3-21.9,4.3-21.9L188.4,63z"
						/>
				</g>
			</g>
			<g>
				
					<radialGradient id="SVGID_7_" cx="-2053.2544" cy="3861.8948" r="28.0739" gradientTransform="matrix(1 -1.500000e-03 1.500000e-03 1 2159.9121 -3560.1936)" gradientUnits="userSpaceOnUse">
					<stop  offset="0" style="stop-color:#454545"/>
					<stop  offset="1" style="stop-color:#252525"/>
				</radialGradient>
				<path fill="url(#SVGID_7_)" d="M86.4,313.2l32.6,0c0.3,0,0.6-0.2,0.6-0.5c0.3-2.7-1.3-13.6-26.7-12.2c-6.4,0.3-7.3,9.9-7.1,12.3
					C85.9,313,86.1,313.2,86.4,313.2z"/>
			</g>
			<g>
				
					<radialGradient id="SVGID_8_" cx="144.6621" cy="304.8291" r="24.4049" gradientTransform="matrix(-1 0 0 1 184.8848 0)" gradientUnits="userSpaceOnUse">
					<stop  offset="0" style="stop-color:#454545"/>
					<stop  offset="1" style="stop-color:#252525"/>
				</radialGradient>
				<path fill="url(#SVGID_8_)" d="M57.3,313.2H36.2c-0.3,0-0.6-0.2-0.6-0.5c-0.3-2.7-1.2-12.1,11.7-12.3
					c11.8-0.1,10.8,9.8,10.5,12.3C57.8,312.9,57.6,313.2,57.3,313.2z"/>
			</g>
			<g>
				<path fill="#FBC48A" d="M28.1,221.6c0,0-12-3.3-27.2,0.5c0,0-3.3,12.1,2.4,26.9c0,0,10,4.4,21.5,4.3c0,0-0.8-10.8-0.1-18.2
					c0,0,1.3,3.1,2.8,6.7c0,0,4,0,6-2.3C33.5,239.5,32.4,229.9,28.1,221.6z"/>
			</g>
		</g>
		<g>
			
				<radialGradient id="SVGID_9_" cx="-14349.7861" cy="-8570.335" r="51.4573" gradientTransform="matrix(0.9999 -1.240000e-02 1.240000e-02 0.9999 14526.8945 8482.7197)" gradientUnits="userSpaceOnUse">
				<stop  offset="0" style="stop-color:#FCC58A"/>
				<stop  offset="0.575" style="stop-color:#FCC289"/>
				<stop  offset="0.962" style="stop-color:#FBB986"/>
				<stop  offset="1" style="stop-color:#FBB885"/>
			</radialGradient>
			<path fill="url(#SVGID_9_)" d="M121,45.1c-0.1-4.5-3.7-8-8.2-7.9l-82.5,1c-4.5,0.1-8,3.6-8,8.1c0,0,0,10.1,1.8,70.1
				c0.6,19.8,4.8,27.9,9.1,27.8h78.8c4.3-0.1,8.7-9.2,8.8-29C121.3,55.1,121,45.1,121,45.1z"/>
			<g>
				<path fill="#CE985E" d="M122.2,97.6C122.4,49.7,121,45,121,45c-0.1-4.5-3.7-8-8.2-8l-82.5,1c-4.5,0.1-8,3.7-8,8.2
					c0,0-1.4,6,0,53.9c0.4,0.4,1.6,6.9,1.6,6.9c0.3-29.3,6.3-51.5,6.3-51.5S60,71.3,92.9,60.9l-6.1-5.4c17.7-2,23.1-5.5,23.1-5.5
					c8.9,21.2,11.1,53.3,11.1,53.3C121.2,103.2,122.2,97.6,122.2,97.6z"/>
			</g>
			<g>
				
					<linearGradient id="SVGID_10_" gradientUnits="userSpaceOnUse" x1="-14351.4092" y1="-8663.6396" x2="-14351.4092" y2="-8554.4238" gradientTransform="matrix(0.9999 -1.240000e-02 1.240000e-02 0.9999 14526.8945 8482.7197)">
					<stop  offset="0" style="stop-color:#574537"/>
					<stop  offset="0.5758" style="stop-color:#433329"/>
					<stop  offset="1" style="stop-color:#32241D"/>
				</linearGradient>
				<path fill="url(#SVGID_10_)" d="M24,107c0-1.3-7.8-3.3-9.2-52.3c-1,1.1-2.6,2-3.6,3.3c-0.1-13.2,6.2-15.9,6.2-15.9
					c-1.8,1.7,0.1-0.1,0,0c0,0,0-2.4-3.9-2.6c2.9-3.6,5.8-3.7,10.2-3.9c-1-0.3,2.7-7.8,3.2-8.4c2.3-2.7,6.3-4.4,9.7-5.1
					c-1.2,1.3-1.7,2.8-2.7,4.2c11.6-4.9,16.6-8.5,29.5-8.8c10.5-0.2,25.9-0.6,36-4.6c6.6-2.6,11.4-6.6,10.4-12.9
					c-0.2-0.1-0.3-0.1,0,0c11.3,7.3,10,19.4,10,19.4s1.3-0.4,3.2-4.6c2.8,8.2,1.5,17.2-2,22.6c10.6,6.2,8,23,7.5,31
					c-1.8,27.7-7.6,34.9-7.6,34.9c0.3-16.6-1.6-42-8.9-57.1c0,0-8.4,5.9-22.4,8.8l6.5,3.4c-35.8,9-67.5-5.8-67.2-8.2
					C28.9,50.6,22.4,66.4,24,107z"/>
			</g>
			
				<ellipse transform="matrix(0.9999 -1.247393e-02 1.247393e-02 0.9999 -1.2233 1.4021)" fill="#FAB383" cx="111.8" cy="98.8" rx="5.5" ry="5.5"/>
			
				<ellipse transform="matrix(0.9999 -1.228922e-02 1.228922e-02 0.9999 -1.2231 0.4182)" fill="#FAB383" cx="33.4" cy="99.7" rx="5.5" ry="5.5"/>
			<path fill="#836F67" d="M48.2,29.5c19.5-10.7,28.6-5.9,45.7-8.9c7.4-1.3,9.7-5.9,9.7-5.9c-5,16.9-27.3,8.7-43.9,11.7L48.2,29.5z"
				/>
		</g>
		<g>
			<radialGradient id="SVGID_11_" cx="48.8914" cy="80.6292" r="8.7631" gradientUnits="userSpaceOnUse">
				<stop  offset="0" style="stop-color:#454545"/>
				<stop  offset="1" style="stop-color:#101010"/>
			</radialGradient>
			<circle fill="url(#SVGID_11_)" cx="48.9" cy="80.9" r="7.6"/>
			<circle fill="#FFFFFF" cx="51.1" cy="78.3" r="2.7"/>
		</g>
		<g>
			<radialGradient id="SVGID_12_" cx="97.219" cy="80.6292" r="8.7634" gradientUnits="userSpaceOnUse">
				<stop  offset="0" style="stop-color:#454545"/>
				<stop  offset="1" style="stop-color:#101010"/>
			</radialGradient>
			<circle fill="url(#SVGID_12_)" cx="97.3" cy="80.9" r="7.6"/>
			<circle fill="#FFFFFF" cx="99.4" cy="78.3" r="2.7"/>
		</g>
		<g>
			<path fill="#856848" d="M74.4,122.2c-13.9,0-20.3-5.3-20.6-5.5c-0.8-0.7-0.9-1.9-0.2-2.7c0.7-0.8,1.9-0.9,2.7-0.2
				c0.1,0.1,5.8,4.6,18.1,4.6c10.1,0,15.3-4.6,15.4-4.6c0.8-0.7,2-0.6,2.7,0.2c0.7,0.8,0.6,2-0.1,2.7
				C92.1,116.8,86,122.2,74.4,122.2z"/>
		</g>
	</g>
	<path fill="#1A1A1A" d="M125.4,68.9c-7-0.5-9.5-2.1-23.7-2c-11,0.1-17.7,2.3-28.7,2.3h0c-11,0-17.7-2.3-28.7-2.3
		c-14.1-0.1-16.6,1.6-23.7,2.1c-0.6,0-1.2,0.5-1.1,1.6c0,1.8,0.1,3.4,0.1,5.1c0,1.5,1.2,1.3,1.9,3c2.3,5.5,1.3,14.6,6.7,19.3
		c1.5,1.4,4.3,3,7,3.3c12.9,1.2,24.1,2,29-11.2c1-2.7,2.5-5,3.6-9c1.5-2.8,1.6-2.2,5.1-2.4c3.6,0.2,3.7-0.4,5.1,2.4
		c1.1,4.1,2.6,6.3,3.6,9c4.9,13.2,16.1,12.4,29,11.2c2.7-0.2,5.4-1.9,7-3.3c5.4-4.8,4.5-13.9,6.7-19.3c0.7-1.7,1.9-1.5,1.9-3
		c0-1.6,0.1-3.3,0.1-5.1C126.6,69.5,126.1,69,125.4,68.9z M64.6,84.9c-1.4,4.9-3.5,9.7-7.8,12.4c-2.9,1.9-7,2.9-11.6,3
		c-13.5,0.2-19-4.2-19.1-15.6c0-5.4-1-10.4,2.1-12.9c3.5-2.8,11.3-3,17.1-3c6,0,15.5,1,19,4.4C67.2,76.1,65.8,80.4,64.6,84.9z
		 M119.9,84.7c-0.1,11.4-5.5,15.9-19.1,15.6c-4.6-0.1-8.7-1.2-11.6-3c-4.2-2.7-6.4-7.6-7.8-12.4c-1.3-4.5-2.6-8.9,0.3-11.7
		c3.5-3.4,12.9-4.4,19-4.4c5.8,0,13.7,0.1,17.1,3C120.9,74.4,120,79.3,119.9,84.7z"/>
	<path fill="#006986" d="M28.6,160.5c0.4-3.5,2.5-5,2.5-5s-1,1.1-1.7,5c-0.7,4-0.4,5.9-0.4,5.9S28.2,164.2,28.6,160.5z"/>
</g>
</svg>
