<?xml version="1.0" encoding="utf-8"?>
<!-- Generator: Adobe Illustrator 20.1.0, SVG Export Plug-In . SVG Version: 6.00 Build 0)  -->
<svg version="1.1" id="Layer_1" xmlns="http://www.w3.org/2000/svg" xmlns:xlink="http://www.w3.org/1999/xlink" x="0px" y="0px"
	 viewBox="0 0 324.8 336.2" style="enable-background:new 0 0 324.8 336.2;" xml:space="preserve">
<style type="text/css">
	.st0{fill:#5B422D;}
	.st1{fill:url(#SVGID_1_);}
	.st2{fill:url(#SVGID_2_);}
	.st3{fill:#CE985E;}
	.st4{fill:#836F67;}
	.st5{fill:#EFA470;}
	.st6{fill:url(#SVGID_3_);}
	.st7{fill:#FFFFFF;}
	.st8{fill:url(#SVGID_4_);}
	.st9{fill:url(#SVGID_5_);}
	.st10{fill:url(#SVGID_6_);}
	.st11{fill:url(#SVGID_7_);}
	.st12{fill:url(#SVGID_8_);}
	.st13{fill:url(#SVGID_9_);}
	.st14{fill:url(#SVGID_10_);}
	.st15{fill:url(#SVGID_11_);}
	.st16{fill:url(#SVGID_12_);}
	.st17{fill:url(#SVGID_13_);}
	.st18{fill:#8C6239;}
	.st19{fill:url(#SVGID_14_);}
	.st20{fill:url(#SVGID_15_);}
	.st21{fill:url(#SVGID_16_);}
	.st22{fill:url(#SVGID_17_);}
	.st23{fill:url(#SVGID_18_);}
	.st24{fill:url(#SVGID_19_);}
	.st25{fill:url(#SVGID_20_);}
	.st26{fill:#6D4A2D;}
	.st27{fill:url(#SVGID_21_);}
	.st28{fill:url(#SVGID_22_);}
	.st29{fill:url(#SVGID_23_);}
	.st30{fill:url(#SVGID_24_);}
	.st31{fill:url(#SVGID_25_);}
</style>
<g id="characters__x2F__objects__x2F__postitions">
	<path class="st0" d="M163.3,178.7l-28.7,9.6l16.4,9.8c0,0,19.7-2.2,19.9-3.5s-7-15.9-7-15.9 M202.3,125.9c0,0,23.3,1.6-2,18.3
		c-0.8-9.7,0-17.8,0-17.8L202.3,125.9z"/>
	
		<linearGradient id="SVGID_1_" gradientUnits="userSpaceOnUse" x1="-336.7006" y1="-492.032" x2="-336.7006" y2="-413.14" gradientTransform="matrix(0.9361 0 0 -1 454.1235 -170.158)">
		<stop  offset="0" style="stop-color:#426897"/>
		<stop  offset="1" style="stop-color:#192F4B"/>
	</linearGradient>
	<path class="st1" d="M151.9,247.9c-4.9,11.7-25.5,45.4,0.4,75l-16,1.1c-23.3-28.8-2.6-57.2,5.7-73.3L151.9,247.9L151.9,247.9z"/>
	
		<radialGradient id="SVGID_2_" cx="-513.0022" cy="-326.4224" r="47.2017" gradientTransform="matrix(1.0734 -0.2799 -0.2735 -1.0927 613.2944 -368.6764)" gradientUnits="userSpaceOnUse">
		<stop  offset="0" style="stop-color:#FCC58A"/>
		<stop  offset="0.575" style="stop-color:#FCC289"/>
		<stop  offset="0.962" style="stop-color:#FBB986"/>
		<stop  offset="1" style="stop-color:#FBB885"/>
	</radialGradient>
	<path class="st2" d="M194.1,179.1c4.2-1.1,10.8-30.8,6.3-50.4c-13.7-59.3-13.1-56.4-13.1-56.4c-1.1-4.4-5.5-7-9.7-5.9L97.8,87.2
		c-4.3,1.1-5.5,7-4.4,11.3c3.3,11.3,5.9,21.9,14.3,53.6c12.2,45.5,22.8,43,41.7,38L194.1,179.1z"/>
	<path class="st3" d="M198.4,112c-8.8-47.8-8.3-53.1-8.3-53.1c-0.9-4.4-5.2-7.3-9.5-6.4L99.9,69.6c-4.5,0.9-7,25-9.7,11.6
		c-0.5-0.7-1.9,1.2,7.1,42c0.4,0.3,7,16.4,7,16.4c-12.4-30.7-7-48-7-48s46.4,8.8,76.7-8l-5.1-1.6l9.6-2c13.7,21,16.7,50,16.3,42.9
		C194.8,122.6,198.3,112.2,198.4,112L198.4,112z"/>
	<path class="st4" d="M115.7,57.5c17.1-14.4,26.9-11.5,43.1-17.7c7-2.8,8.2-7.8,8.2-7.8c-1.8,17.8-25.1,14-40.8,20.2L115.7,57.5
		L115.7,57.5z"/>
	<path class="st5" d="M121.8,139.8c0.4,3-1.7,5.9-4.7,6.3c-3,0.4-5.8-1.7-6.2-4.7c-0.4-3,1.7-5.9,4.7-6.3
		C118.6,134.6,121.4,136.7,121.8,139.8z"/>
	<path class="st3" d="M109.4,118.6c0.6,4.4,4.6,7.5,8.9,6.8c4.4-0.6,7.3-4.7,6.8-9.1c-0.6-4.4-4.6-7.5-8.9-6.8
		C111.9,110.1,108.8,114.2,109.4,118.6z"/>
	
		<radialGradient id="SVGID_3_" cx="-436.5825" cy="-289.2908" r="6.3131" gradientTransform="matrix(-1.097 0.1581 -0.1533 -1.1168 -406.0802 -137.1612)" gradientUnits="userSpaceOnUse">
		<stop  offset="0" style="stop-color:#333333"/>
		<stop  offset="0.456" style="stop-color:#313131"/>
		<stop  offset="0.7" style="stop-color:#292929"/>
		<stop  offset="0.894" style="stop-color:#1B1B1B"/>
		<stop  offset="1" style="stop-color:#101010"/>
	</radialGradient>
	<path class="st6" d="M110.3,117.9c0.5,3.9,4.1,6.6,7.8,6.1c3.9-0.6,6.5-4.2,6-8.1s-4.1-6.6-7.8-6
		C112.4,110.4,109.7,114,110.3,117.9z"/>
	<path class="st7" d="M121.7,112.8c1,1.4,0.9,3.2-0.3,4.1c-1.2,0.9-3,0.5-4-0.9s-0.9-3.2,0.3-4.1
		C118.9,111.1,120.7,111.4,121.7,112.8z"/>
	<path class="st3" d="M169.8,109.1c0.6,4.4-2.4,8.5-6.8,9.1s-8.3-2.4-8.9-6.8c-0.6-4.4,2.4-8.5,6.8-9.1
		C165.1,101.6,169.2,104.7,169.8,109.1z"/>
	
		<radialGradient id="SVGID_4_" cx="-415.8881" cy="-289.1997" r="6.3069" gradientTransform="matrix(1.097 -0.1581 -0.1533 -1.1168 573.7328 -279.0712)" gradientUnits="userSpaceOnUse">
		<stop  offset="0" style="stop-color:#333333"/>
		<stop  offset="0.456" style="stop-color:#313131"/>
		<stop  offset="0.7" style="stop-color:#292929"/>
		<stop  offset="0.894" style="stop-color:#1B1B1B"/>
		<stop  offset="1" style="stop-color:#101010"/>
	</radialGradient>
	<path class="st8" d="M168.8,108.7c0.5,3.9-2.1,7.5-6,8c-3.9,0.6-7.3-2.2-7.8-6.1s2.1-7.5,6-8C164.7,102.1,168.2,104.8,168.8,108.7z
		"/>
	<path class="st7" d="M166.4,105.6c1,1.4,0.9,3.2-0.3,4.1s-3,0.5-4-0.9s-0.9-3.2,0.3-4.1S165.4,104.2,166.4,105.6z"/>
	
		<linearGradient id="SVGID_5_" gradientUnits="userSpaceOnUse" x1="-14812.1113" y1="7938.2583" x2="-14812.1113" y2="7815.9966" gradientTransform="matrix(0.9166 -0.2027 -0.1897 -0.9792 15213.8506 4792.7861)">
		<stop  offset="0" style="stop-color:#574537"/>
		<stop  offset="0.576" style="stop-color:#433329"/>
		<stop  offset="1" style="stop-color:#32241D"/>
	</linearGradient>
	<path class="st9" d="M104.4,140.3c-0.4-2.2-6.3-3.5-16.6-51.1c-0.8,1.3-2.2,2.5-2.9,4c-2.6-13.1,3.1-17,3.1-17c-1.5,2,0.1-0.1,0,0
		c0,0-0.5-2.4-4.4-1.8c2.1-4.1,5-4.8,9.2-5.9c-1.1-0.1,7.1-4.7,7.4-5.4c1.7-3.2,2.1-5.2,2.6-10.6c-1,1.5-1.2,3.2-1.8,4.7
		c10.4-7.1,14.7-11.7,27.3-14.5c10.2-2.3,25.2-5.6,34.4-11.6c6-3.9,9.9-8.8,7.7-14.9c-0.3-0.1-0.3-0.1,0,0
		c12.4,5.1,13.5,17.4,13.5,17.4s1.2-0.6,2.3-5.2c4.3,7.7,4.7,16.8,2.3,23c11.5,4.1,17.8,46.1,17.5,54.2c-1.2,30.5-6.6,26-11.7,23.5
		c-2.9-16.6-4.5-39.3-14.5-52.9c0,0-5-1.9-18.1,3.7l7,2.1c-33.4,16-74.2,8.6-74.3,6.1C94.6,89.6,94.1,101.7,104.4,140.3L104.4,140.3
		z"/>
	<path class="st0" d="M169.2,178.3c0,0-6,42-33.8,1.5c19,1.2,32.5-4.6,32.5-4.6L169.2,178.3z"/>
	
		<radialGradient id="SVGID_6_" cx="10390.1924" cy="-3970.5437" r="25.284" gradientTransform="matrix(-1.4758 -2.200000e-03 1.690000e-03 -1.128 15465.7861 -4130.2183)" gradientUnits="userSpaceOnUse">
		<stop  offset="0" style="stop-color:#454545"/>
		<stop  offset="1" style="stop-color:#252525"/>
	</radialGradient>
	<path class="st10" d="M160.2,334.3l-43.3-0.1c-0.4,0-0.7-0.2-0.8-0.5c-0.4-2.7,1.7-13.8,35.5-12.4c8.5,0.3,9.7,10,9.4,12.5
		C160.9,334.1,160.6,334.3,160.2,334.3L160.2,334.3z"/>
	
		<linearGradient id="SVGID_7_" gradientUnits="userSpaceOnUse" x1="-1870.6022" y1="-486.5526" x2="-1870.6022" y2="-400.9616" gradientTransform="matrix(-0.9144 2.500000e-03 -0.1975 -1.0232 -1591.2122 -169.8552)">
		<stop  offset="0" style="stop-color:#426897"/>
		<stop  offset="1" style="stop-color:#192F4B"/>
	</linearGradient>
	<path class="st11" d="M192.6,245.6c7.1,12,7.6,18.1,11,38.9c1.1,11.5,5.2,34.2,3.7,40.2l14,1.1c1.7-18.9-4.4-31.6-8.1-47.6
		c-1.9-8-1.9-20.5-13.3-36.9L192.6,245.6L192.6,245.6z"/>
	
		<radialGradient id="SVGID_8_" cx="11838.79" cy="-3901.6562" r="26.523" gradientTransform="matrix(1.1765 -2.000000e-03 -1.690000e-03 -1.2529 -13709.4473 -4539.3799)" gradientUnits="userSpaceOnUse">
		<stop  offset="0" style="stop-color:#454545"/>
		<stop  offset="1" style="stop-color:#252525"/>
	</radialGradient>
	<path class="st12" d="M197.4,335.6l34.6-0.1c0.3,0,0.6-0.3,0.6-0.6c0.3-3,2.3-15-16.1-15c-24,0-20,12.3-19.7,15
		C196.8,335.3,197.1,335.6,197.4,335.6L197.4,335.6z"/>
	
		<linearGradient id="SVGID_9_" gradientUnits="userSpaceOnUse" x1="-710.8844" y1="-419.3474" x2="-710.8844" y2="-293.0471" gradientTransform="matrix(-0.9361 0 0 -1 -480.0765 -170.158)">
		<stop  offset="0" style="stop-color:#8C6239"/>
		<stop  offset="3.400000e-02" style="stop-color:#8F653C"/>
		<stop  offset="0.208" style="stop-color:#9C7248"/>
		<stop  offset="0.443" style="stop-color:#A3794F"/>
		<stop  offset="1" style="stop-color:#A57B51"/>
	</linearGradient>
	<path class="st13" d="M148.1,195.6c2.4-0.7,18.2-11.3,13.4-30.2c23.7-3.9,36.8-16.1,45.5-28.8c7.1-10.7-2-9-2-9
		c1.5-4.7-0.6-2.3-0.6-4.7c8.9-0.2,12.6,2.3,10.6,12.4c-2.9,14.6-1.7,15.6-1.7,15.6s13.3,25.4,8.2,82c-8.7,14.7-58.6,16.8-62.6,16.2
		C155,248.3,148.1,195.6,148.1,195.6L148.1,195.6z"/>
	
		<linearGradient id="SVGID_10_" gradientUnits="userSpaceOnUse" x1="-674.6955" y1="-412.658" x2="-674.6955" y2="-488.4245" gradientTransform="matrix(-0.9361 0 0 -1 -480.0765 -170.158)">
		<stop  offset="0" style="stop-color:#8C6239"/>
		<stop  offset="3.400000e-02" style="stop-color:#8F653C"/>
		<stop  offset="0.208" style="stop-color:#9C7248"/>
		<stop  offset="0.443" style="stop-color:#A3794F"/>
		<stop  offset="1" style="stop-color:#A57B51"/>
	</linearGradient>
	<path class="st14" d="M124.5,313.5c0,0-7.8-29.5,7.5-56.8c37.4,4.4,48.5-14.2,48.5-14.2s-1.9,24.2-3.5,29.3
		c-1.6,5.2-5.7,19.8-9.8,45.1C149.7,318.9,132.9,319.4,124.5,313.5L124.5,313.5z"/>
	
		<linearGradient id="SVGID_11_" gradientUnits="userSpaceOnUse" x1="-724.5828" y1="-414.758" x2="-724.5828" y2="-487.194" gradientTransform="matrix(-0.9361 0 0 -1 -480.0765 -170.158)">
		<stop  offset="0" style="stop-color:#8C6239"/>
		<stop  offset="3.400000e-02" style="stop-color:#8F653C"/>
		<stop  offset="0.208" style="stop-color:#9C7248"/>
		<stop  offset="0.443" style="stop-color:#A3794F"/>
		<stop  offset="1" style="stop-color:#A57B51"/>
	</linearGradient>
	<path class="st15" d="M224.6,244.6c0,0,5.4,7.6,7.5,29.3c2.5,24.6-0.1,33.2-1,35.4c-1.6,4.1-48.5,9.2-53.5,7.2
		c-5.3-2.1-15.7-53.7-14.2-57.4c1.7-4,9.2-11.6,9.2-11.6L224.6,244.6z"/>
	
		<linearGradient id="SVGID_12_" gradientUnits="userSpaceOnUse" x1="-658.748" y1="-423.258" x2="-658.748" y2="-316.258" gradientTransform="matrix(-0.9361 0 0 -1 -480.0765 -170.158)">
		<stop  offset="0" style="stop-color:#8C6239"/>
		<stop  offset="3.400000e-02" style="stop-color:#8F653C"/>
		<stop  offset="0.208" style="stop-color:#9C7248"/>
		<stop  offset="0.443" style="stop-color:#A3794F"/>
		<stop  offset="1" style="stop-color:#A57B51"/>
	</linearGradient>
	<path class="st16" d="M174.5,246.2C172,243.9,161,192,161,192s-27.3-5.1-26.4-25.1c-23.7,6.3-38.9-3.8-29.3-15.5
		c-0.4-1.3,0.9-4.4,0.6-5.3c-14.6,16.5-3.2,20.9,0.3,29.8c1.5,3.2,7.9,8.7,10.5,11.7c0,0-0.6,13.9,2,28.2c2.6,14.2,5.7,27,11.8,32.7
		c3.2,3,11.4,4.6,23.5,4.6C166.3,253.1,174.5,246.2,174.5,246.2z"/>
	<path class="st0" d="M109.4,166.4l2.3-0.6l-4.1-13.7C107.6,152.2,94.6,168.2,109.4,166.4z"/>
	
		<linearGradient id="SVGID_13_" gradientUnits="userSpaceOnUse" x1="-778.2461" y1="-336.0747" x2="-731.4757" y2="-417.0833" gradientTransform="matrix(-0.9361 0 0 -1 -480.0765 -170.158)">
		<stop  offset="0" style="stop-color:#8C6239"/>
		<stop  offset="3.400000e-02" style="stop-color:#8F653C"/>
		<stop  offset="0.208" style="stop-color:#9C7248"/>
		<stop  offset="0.443" style="stop-color:#A3794F"/>
		<stop  offset="1" style="stop-color:#A57B51"/>
	</linearGradient>
	<path class="st17" d="M213.4,151.1c-0.3,7.2-5-5.6,9.9,2c10.4,5.3,27.1,6.4,31.1,32.5c2.5,16.6,2.4,41.5-1.5,55.7
		c-0.6,4-23.3,26.1-23.3,20.4c0-4-6.3-21.7-6.3-21.7c-12.5,7.3-11.8-54.5-14.1-85.4"/>
	<path class="st18" d="M134.5,166.4c0,0-43.2,5.2-26.9-14.2c-0.9-3-1.6-6-1.6-6s-27.7,29.1,24.7,24.8c3.3,5.2,14.9,16.7,19.4,17.1
		C135.5,176.8,134.7,167.4,134.5,166.4"/>
	<path class="st3" d="M198.4,112c-8.8-47.8-8.3-53.1-8.3-53.1c-0.9-4.4-5.2-7.3-9.5-6.4L99.9,69.6c-4.5,0.9-7,25-9.7,11.6
		c-0.5-0.7-1.9,1.2,7.1,42c0.4,0.3,7,16.4,7,16.4c-12.4-30.7-7-48-7-48s46.4,8.8,76.7-8l-5.1-1.6l9.6-2c13.7,21,16.7,50,16.3,42.9
		C194.8,122.6,198.3,112.2,198.4,112L198.4,112z"/>
	<path class="st4" d="M115.7,57.5c17.1-14.4,26.9-11.5,43.1-17.7c7-2.8,8.2-7.8,8.2-7.8c-1.8,17.8-25.1,14-40.8,20.2L115.7,57.5
		L115.7,57.5z"/>
	<path class="st5" d="M170,134.2c0.4,3-1.7,5.9-4.7,6.3c-3,0.4-5.8-1.7-6.2-4.7s1.7-5.9,4.7-6.3C166.8,129.1,169.6,131.2,170,134.2z
		 M121.8,139.8c0.4,3-1.7,5.9-4.7,6.3c-3,0.4-5.8-1.7-6.2-4.7c-0.4-3,1.7-5.9,4.7-6.3C118.6,134.6,121.4,136.7,121.8,139.8z"/>
	<path class="st3" d="M109.4,118.6c0.6,4.4,4.6,7.5,8.9,6.8c4.4-0.6,7.3-4.7,6.8-9.1c-0.6-4.4-4.6-7.5-8.9-6.8
		C111.9,110.1,108.8,114.2,109.4,118.6z"/>
	
		<radialGradient id="SVGID_14_" cx="-436.5825" cy="-289.2908" r="6.3131" gradientTransform="matrix(-1.097 0.1581 -0.1533 -1.1168 -406.0802 -137.1612)" gradientUnits="userSpaceOnUse">
		<stop  offset="0" style="stop-color:#333333"/>
		<stop  offset="0.456" style="stop-color:#313131"/>
		<stop  offset="0.7" style="stop-color:#292929"/>
		<stop  offset="0.894" style="stop-color:#1B1B1B"/>
		<stop  offset="1" style="stop-color:#101010"/>
	</radialGradient>
	<path class="st19" d="M110.3,117.9c0.5,3.9,4.1,6.6,7.8,6.1c3.9-0.6,6.5-4.2,6-8.1s-4.1-6.6-7.8-6
		C112.4,110.4,109.7,114,110.3,117.9z"/>
	<path class="st7" d="M121.7,112.8c1,1.4,0.9,3.2-0.3,4.1c-1.2,0.9-3,0.5-4-0.9s-0.9-3.2,0.3-4.1
		C118.9,111.1,120.7,111.4,121.7,112.8z"/>
	<path class="st3" d="M169.8,109.1c0.6,4.4-2.4,8.5-6.8,9.1s-8.3-2.4-8.9-6.8c-0.6-4.4,2.4-8.5,6.8-9.1
		C165.1,101.6,169.2,104.7,169.8,109.1z"/>
	
		<radialGradient id="SVGID_15_" cx="-415.8881" cy="-289.1997" r="6.3069" gradientTransform="matrix(1.097 -0.1581 -0.1533 -1.1168 573.7328 -279.0712)" gradientUnits="userSpaceOnUse">
		<stop  offset="0" style="stop-color:#333333"/>
		<stop  offset="0.456" style="stop-color:#313131"/>
		<stop  offset="0.7" style="stop-color:#292929"/>
		<stop  offset="0.894" style="stop-color:#1B1B1B"/>
		<stop  offset="1" style="stop-color:#101010"/>
	</radialGradient>
	<path class="st20" d="M168.8,108.7c0.5,3.9-2.1,7.5-6,8c-3.9,0.6-7.3-2.2-7.8-6.1s2.1-7.5,6-8C164.7,102.1,168.2,104.8,168.8,108.7
		z"/>
	<path class="st7" d="M166.4,105.6c1,1.4,0.9,3.2-0.3,4.1s-3,0.5-4-0.9s-0.9-3.2,0.3-4.1S165.4,104.2,166.4,105.6z"/>
	
		<linearGradient id="SVGID_16_" gradientUnits="userSpaceOnUse" x1="-14812.1113" y1="7938.2583" x2="-14812.1113" y2="7815.9966" gradientTransform="matrix(0.9166 -0.2027 -0.1897 -0.9792 15213.8506 4792.7861)">
		<stop  offset="0" style="stop-color:#574537"/>
		<stop  offset="0.576" style="stop-color:#433329"/>
		<stop  offset="1" style="stop-color:#32241D"/>
	</linearGradient>
	<path class="st21" d="M104.4,140.3c-0.4-2.2-6.3-3.5-16.6-51.1c-0.8,1.3-2.2,2.5-2.9,4c-2.6-13.1,3.1-17,3.1-17c-1.5,2,0.1-0.1,0,0
		c0,0-0.5-2.4-4.4-1.8c2.1-4.1,5-4.8,9.2-5.9c-1.1-0.1,7.1-4.7,7.4-5.4c1.7-3.2,2.1-5.2,2.6-10.6c-1,1.5-1.2,3.2-1.8,4.7
		c10.4-7.1,14.7-11.7,27.3-14.5c10.2-2.3,25.2-5.6,34.4-11.6c6-3.9,9.9-8.8,7.7-14.9c-0.3-0.1-0.3-0.1,0,0
		c12.4,5.1,13.5,17.4,13.5,17.4s1.2-0.6,2.3-5.2c4.3,7.7,4.7,16.8,2.3,23c11.5,4.1,17.8,46.1,17.5,54.2c-1.2,30.5-6.6,26-11.7,23.5
		c-2.9-16.6-4.5-39.3-14.5-52.9c0,0-5-1.9-18.1,3.7l7,2.1c-33.4,16-74.2,8.6-74.3,6.1C94.6,89.6,94.1,101.7,104.4,140.3L104.4,140.3
		z"/>
	
		<linearGradient id="SVGID_17_" gradientUnits="userSpaceOnUse" x1="-710.8844" y1="-419.3474" x2="-710.8844" y2="-293.0471" gradientTransform="matrix(-0.9361 0 0 -1 -480.0765 -170.158)">
		<stop  offset="0" style="stop-color:#8C6239"/>
		<stop  offset="3.400000e-02" style="stop-color:#8F653C"/>
		<stop  offset="0.208" style="stop-color:#9C7248"/>
		<stop  offset="0.443" style="stop-color:#A3794F"/>
		<stop  offset="1" style="stop-color:#A57B51"/>
	</linearGradient>
	<path class="st22" d="M148.1,195.6c2.4-0.7,18.2-11.3,13.4-30.2c23.7-3.9,36.8-16.1,45.5-28.8c7.1-10.7-2-9-2-9
		c1.5-4.7-0.6-2.3-0.6-4.7c8.9-0.2,12.6,2.3,10.6,12.4c-2.9,14.6-1.7,15.6-1.7,15.6s13.3,25.4,8.2,82c-8.7,14.7-58.6,16.8-62.6,16.2
		C155,248.3,148.1,195.6,148.1,195.6L148.1,195.6z"/>
	
		<linearGradient id="SVGID_18_" gradientUnits="userSpaceOnUse" x1="-591.1873" y1="-339.751" x2="-591.1873" y2="-415.8943" gradientTransform="matrix(-0.9296 0.1103 -0.1178 -0.993 -520.7416 -102.3149)">
		<stop  offset="0" style="stop-color:#8C6239"/>
		<stop  offset="3.400000e-02" style="stop-color:#8F653C"/>
		<stop  offset="0.208" style="stop-color:#9C7248"/>
		<stop  offset="0.443" style="stop-color:#A3794F"/>
		<stop  offset="1" style="stop-color:#A57B51"/>
	</linearGradient>
	<path class="st23" d="M122.2,207.5c0,0-14.8,0.7-24.6,6.1c-4.7,2.6-27.7,32.8-42.7,34.5c-20,2.3-32.6-10.5-25.8-29.4
		s34.6-42.9,77.3-53.4c4.2,4.4,10.7,16.8,13.3,23.3C119.1,199.1,122.2,207.5,122.2,207.5L122.2,207.5z"/>
	
		<linearGradient id="SVGID_19_" gradientUnits="userSpaceOnUse" x1="-658.748" y1="-423.258" x2="-658.748" y2="-316.258" gradientTransform="matrix(-0.9361 0 0 -1 -480.0765 -170.158)">
		<stop  offset="0" style="stop-color:#8C6239"/>
		<stop  offset="3.400000e-02" style="stop-color:#8F653C"/>
		<stop  offset="0.208" style="stop-color:#9C7248"/>
		<stop  offset="0.443" style="stop-color:#A3794F"/>
		<stop  offset="1" style="stop-color:#A57B51"/>
	</linearGradient>
	<path class="st24" d="M174.5,246.2C172,243.9,161,192,161,192s-27.3-5.1-26.4-25.1c-23.7,6.3-38.9-3.8-29.3-15.5
		c-0.4-1.3,0.9-4.4,0.6-5.3c-14.6,16.5-3.2,20.9,0.3,29.8c1.5,3.2,7.9,8.7,10.5,11.7c0,0-0.6,13.9,2,28.2c2.6,14.2,5.7,27,11.8,32.7
		c3.2,3,11.4,4.6,23.5,4.6C166.3,253.1,174.5,246.2,174.5,246.2z"/>
	<path class="st0" d="M109.4,166.4l2.3-0.6l-4.1-13.7C107.6,152.2,94.6,168.2,109.4,166.4z"/>
	<path class="st18" d="M134.5,166.4c0,0-43.2,5.2-26.9-14.2c-0.9-3-1.6-6-1.6-6s-27.7,29.1,24.7,24.8c3.3,5.2,14.9,16.7,19.4,17.1
		C135.5,176.8,134.7,167.4,134.5,166.4"/>
	
		<radialGradient id="SVGID_20_" cx="-711.286" cy="-477.4953" r="4.27" gradientTransform="matrix(-0.864 0 0 -0.8405 -466.164 -237.942)" gradientUnits="userSpaceOnUse">
		<stop  offset="0" style="stop-color:#390000"/>
		<stop  offset="1" style="stop-color:#3B1800"/>
	</radialGradient>
	<ellipse class="st25" cx="148.4" cy="163.4" rx="4.4" ry="2.8"/>
</g>
<g id="Layer_1_1_">
	<path class="st18" d="M56.3,85.7c0,0,57.5-8.5,74.7-3c18.4,3.6,91,15,104.5-5.6C202.6,62.6,196,60.7,196,60.7s-2.2-22-10.8-36.4
		c-13.3-22.2-57-26.9-75.8-1.5c-5.1,6.8-9.9,30.2-10.8,35.3C78.4,64.7,54.3,78.6,56.3,85.7z"/>
	<path class="st0" d="M189.1,62c0,0-11.3,4.2-21.8,2.9c2-15-1.7-50.9-7.3-54C172.3,15.6,183.7,20.4,189.1,62z M141.1,67.2
		c0,0-27.5-4.6-31.4-3.6C110.5,50,120.4,11.5,138,9.3c6.3-0.8,7.7-0.2,7.7-0.2S145.9,46.8,141.1,67.2L141.1,67.2z M168.7,10.4
		c0,0,0.2-9.6-15.3-10.3s-15.9,3.6-16.5,6.4C152.3,6.4,168.7,10.4,168.7,10.4L168.7,10.4z"/>
	<path class="st26" d="M221.5,231.6c-6.1,6.6-59.5,26.1-90.9,16.9c0.8,6.1,0.7,5.4,1.9,10.8c16.1,7.2,76.9-3.1,92.2-14.8
		C223.9,239.3,223.6,241.7,221.5,231.6L221.5,231.6z"/>
	<path class="st18" d="M165,255.6c0,0,3.5,27.8,7.5,40.3c-0.9,3.3-0.4,1.4-1.1,4.6C161.4,283.6,165,255.6,165,255.6z M120.5,216.4
		c0,0-3.3-9.5-3.7-17c-1.5,6.3,1.9,16.7,1.9,16.7S120.5,216.4,120.5,216.4z M107.8,178c1.3,0.9,8.4,9.8,11,11.6
		c-5.6-4.2-9.5-9-12.1-11.5L107.8,178z"/>
	
		<radialGradient id="SVGID_21_" cx="-593.3163" cy="-462.3738" r="4.605" gradientTransform="matrix(-0.7386 0.129 -0.1615 -0.938 -350.1943 -153.5562)" gradientUnits="userSpaceOnUse">
		<stop  offset="0" style="stop-color:#CDAF38"/>
		<stop  offset="1" style="stop-color:#DFC74A"/>
	</radialGradient>
	<path class="st27" d="M159,204.3c0.4,2.2,2.3,3.7,4.4,3.3c2-0.4,3.4-2.4,3-4.6c-0.4-2.2-2.3-3.7-4.4-3.3
		C160,200,158.6,202.1,159,204.3z"/>
	
		<radialGradient id="SVGID_22_" cx="-508.529" cy="-494.1742" r="4.607" gradientTransform="matrix(-0.7268 0.1847 -0.2313 -0.923 -319.5218 -140.5721)" gradientUnits="userSpaceOnUse">
		<stop  offset="0" style="stop-color:#CDAF38"/>
		<stop  offset="1" style="stop-color:#DFC74A"/>
	</radialGradient>
	<path class="st28" d="M160.7,222.6c0.5,2.1,2.6,3.5,4.6,3s3.2-2.7,2.7-4.8s-2.6-3.5-4.6-3S160.2,220.4,160.7,222.6z"/>
	
		<radialGradient id="SVGID_23_" cx="-189.8362" cy="-2274.2598" r="30.463" gradientTransform="matrix(-0.3413 0.1338 -0.1435 -0.2929 -226.8368 -386.4861)" gradientUnits="userSpaceOnUse">
		<stop  offset="0" style="stop-color:#CDAF38"/>
		<stop  offset="1" style="stop-color:#DFC74A"/>
	</radialGradient>
	<path class="st29" d="M152.2,259.3c0.4,2,1.5,3.5,4,3.1l17.7-1.8c2.4-0.4,4.1-2.4,3.7-4.4l-1.3-7.1c-0.4-2-2.6-3.3-5-2.8l-17,1.8
		c-2.4,0.4-3.1,2.9-2.8,4.9L152.2,259.3L152.2,259.3z"/>
	
		<radialGradient id="SVGID_24_" cx="-507.827" cy="-512.5542" r="4.607" gradientTransform="matrix(-0.7268 0.1847 -0.2313 -0.923 -319.5218 -140.5721)" gradientUnits="userSpaceOnUse">
		<stop  offset="0" style="stop-color:#CDAF38"/>
		<stop  offset="1" style="stop-color:#DFC74A"/>
	</radialGradient>
	<path class="st30" d="M164.5,239.7c0.5,2.1,2.6,3.5,4.6,3s3.2-2.7,2.7-4.8s-2.6-3.5-4.6-3S164,237.5,164.5,239.7z"/>
	<path class="st18" d="M204.4,122.8c0,0-0.7,4.8-1.9,5.8c10.5-4.1,6.1,4.4-0.8,10.8c-13.4,12.7-29.4,21.8-40.1,25.9
		c-1.3,9.3,0.9,12.6-6.5,25c13.8-10.6,13.6-24.4,13.6-24.4s24.1-7.7,43.5-32.2C218.8,126.9,212,121.2,204.4,122.8L204.4,122.8z
		 M213.4,150.8c0,0-11.5,38-50,39.6C198.3,185.9,213.4,150.8,213.4,150.8L213.4,150.8z M138.5,193.9c0.5,0-14.9-0.4-21.7-6.3
		C123.9,195.2,129.8,194.1,138.5,193.9z M221.5,231.6c0,0,1.3-34.3,0.6-41.6c2.4,13.4,3.4,33.6,3.4,32.6
		C223.4,223.5,221.5,231.6,221.5,231.6L221.5,231.6z M213.4,150.8c0,0,2.2,4.3,3.1,11c-0.7-9.8-2.9-11-2.9-11H213.4L213.4,150.8z
		 M153.5,194.9c0,0,1.4,42.2,8.9,51.3C156.3,241.2,146.6,207.1,153.5,194.9z"/>
	<path class="st18" d="M236.4,226.8c-2.4-1-8.8-3.1-13.7-8c4.8,7,11.2,10.9,11.2,10.9"/>
	
		<linearGradient id="SVGID_25_" gradientUnits="userSpaceOnUse" x1="-15024.3691" y1="7993.1587" x2="-15024.3691" y2="7993.0557" gradientTransform="matrix(0.9166 -0.2027 -0.1897 -0.9792 15213.8506 4792.7861)">
		<stop  offset="0" style="stop-color:#574537"/>
		<stop  offset="0.576" style="stop-color:#433329"/>
		<stop  offset="1" style="stop-color:#32241D"/>
	</linearGradient>
	<path class="st31" d="M-73.7,11.2C-74,11.2-74,11.2-73.7,11.2"/>
	<path class="st18" d="M56.3,85.7c0,0,57.5-8.5,74.7-3c18.4,3.6,91,15,104.5-5.6C202.6,62.6,196,60.7,196,60.7s-2.2-22-10.8-36.4
		c-13.3-22.2-57-26.9-75.8-1.5c-5.1,6.8-9.9,30.2-10.8,35.3C78.4,64.7,54.3,78.6,56.3,85.7z"/>
	<path class="st0" d="M189.1,62c0,0-11.3,4.2-21.8,2.9c2-15-1.7-50.9-7.3-54C172.3,15.6,183.7,20.4,189.1,62z M141.1,67.2
		c0,0-27.5-4.6-31.4-3.6C110.5,50,120.4,11.5,138,9.3c6.3-0.8,7.7-0.2,7.7-0.2S145.9,46.8,141.1,67.2L141.1,67.2z M168.7,10.4
		c0,0,0.2-9.6-15.3-10.3s-15.9,3.6-16.5,6.4C152.3,6.4,168.7,10.4,168.7,10.4L168.7,10.4z"/>
	<path class="st18" d="M204.4,122.8c0,0-0.7,4.8-1.9,5.8c10.5-4.1,6.1,4.4-0.8,10.8c-13.4,12.7-29.4,21.8-40.1,25.9
		c-1.3,9.3,0.9,12.6-6.5,25c13.8-10.6,13.6-24.4,13.6-24.4s24.1-7.7,43.5-32.2C218.8,126.9,212,121.2,204.4,122.8L204.4,122.8z"/>
</g>
</svg>
