<svg version="1" xmlns="http://www.w3.org/2000/svg" xmlns:xlink="http://www.w3.org/1999/xlink" width="862" height="753"><pattern x="-134.9" y="-23.6" width="242" height="242" patternUnits="userSpaceOnUse" id="o" viewBox="0 -242 242 242" overflow="visible"><path fill="none" d="M0-242h242V0H0z"/><path fill="#29ABE2" d="M0-242h242V0H0z"/><path opacity=".4" d="M0-242h11V0H0zm22 0h11V0H22zm22 0h11V0H44zm22 0h11V0H66zm22 0h11V0H88zm22 0h11V0h-11zm22 0h11V0h-11zm22 0h11V0h-11zm22 0h11V0h-11zm22 0h11V0h-11zm22 0h11V0h-11z"/><path opacity=".4" d="M0-242h242v11H0zm0 22h242v11H0zm0 22h242v11H0zm0 22h242v11H0zm0 22h242v11H0zm0 22h242v11H0zm0 22h242v11H0zm0 22h242v11H0zm0 22h242v11H0zm0 22h242v11H0zm0 22h242v11H0z"/></pattern><pattern x="-134.9" y="-23.6" width="242" height="242" patternUnits="userSpaceOnUse" id="a" viewBox="241.7 -242 242 242" overflow="visible"><path fill="none" d="M241.7-242h242V0h-242z"/><path fill="#29ABE2" d="M241.7-242h242V0h-242z"/><path opacity=".4" d="M472.7-242h11V0h-11zm-22 0h11V0h-11zm-22 0h11V0h-11zm-22 0h11V0h-11zm-22 0h11V0h-11zm-22 0h11V0h-11zm-22 0h11V0h-11zm-22 0h11V0h-11zm-22 0h11V0h-11zm-22 0h11V0h-11zm-22 0h11V0h-11z"/><path opacity=".4" d="M241.7-11h242V0h-242zm0-22h242v11h-242zm0-22h242v11h-242zm0-22h242v11h-242zm0-22h242v11h-242zm0-22h242v11h-242zm0-22h242v11h-242zm0-22h242v11h-242zm0-22h242v11h-242zm0-22h242v11h-242zm0-22h242v11h-242z"/><path opacity=".12" d="M242-242h242V0H242zM0-242h242V0H0z"/></pattern><pattern id="b" xlink:href="#a" patternTransform="translate(2975.152 388.857) scale(1.2835)"/><path fill="none" stroke="url(#b)" stroke-width="22.477" stroke-linecap="round" stroke-linejoin="round" stroke-miterlimit="10" d="M299.2 357.7s121.9-84.7 151.5 28.2"/><path fill="#FBC48A" d="M426.2 388.5s8-11.3 45.8-8.6c0 0 19 12.5 11.4 50 0 0-6.3 3.3-12.7 5-5.8 1.6-14.6.8-14.6.8s1.1 8.3.7 15.7c-.6 10.5-2 16.1-2 16.1s-10.4.5-16.6-1.2c0 0 .8-27.8-3.8-45.2 0 0-1.9 8-4.1 17.1 0 0-9.5 1.6-15.2-3.1 0 .1 4.3-25.2 11.1-46.6z"/><radialGradient id="c" cx="501.043" cy="1048.167" r="27.471" gradientTransform="rotate(11.887 2041.478 658.59)" gradientUnits="userSpaceOnUse"><stop offset="0" stop-color="#454545"/><stop offset="1" stop-color="#252525"/></radialGradient><path fill="url(#c)" d="M448.9 711.5s14.1-.5 29.1 11.4c10.8 8.6 10.3 17.5 10.3 17.5l-73-16.7 5.2-16.4 28.4 4.2z"/><radialGradient id="d" cx="296.938" cy="206.566" r="27.541" gradientUnits="userSpaceOnUse"><stop offset="0" stop-color="#fcc58a"/><stop offset=".575" stop-color="#fcc289"/><stop offset=".962" stop-color="#fbb986"/><stop offset="1" stop-color="#fbb885"/></radialGradient><path fill="url(#d)" d="M272.7 196.1c3.6-13.7 17.4-22 30.8-18.4 13.4 3.5 21.3 17.6 17.7 31.3-2.9 10.9-12.2 18.4-22.6 19.2-1.7 5.9-7.7 9.4-13.6 7.8-5.9-1.6-9.4-7.8-7.8-13.9.2-.8.5-1.6.9-2.4-5.4-6.2-7.7-14.9-5.4-23.6z"/><g fill="#856848"><path d="M293.5 194c8.7-4.7 17.7 2.3 17.7 2.3s-8.5-12.4-19.5-6.6c-11 5.8-8.7 19.8-8.7 19.8s.9-10.3 10.5-15.5z"/><path d="M293.2 208.5c-8-5.6-9.7-1.4-9.7-1.4s-.2-8.7 11.6.6c6.5 5.1.8 11.2.8 11.2s3.6-6-2.7-10.4z"/></g><linearGradient id="e" gradientUnits="userSpaceOnUse" x1="248.814" y1="94.376" x2="278.783" y2="205.019"><stop offset="0" stop-color="#574537"/><stop offset=".576" stop-color="#433329"/><stop offset="1" stop-color="#32241d"/></linearGradient><path fill="url(#e)" d="M238.2 121.5s36.6 40.4 43 82.1c0 0 25.3-30.8-28.6-107.5l-14.4 25.4z"/><radialGradient id="f" cx="165.558" cy="247.498" r="139.08" gradientUnits="userSpaceOnUse"><stop offset="0" stop-color="#fcc58a"/><stop offset=".575" stop-color="#fcc289"/><stop offset=".962" stop-color="#fbb986"/><stop offset="1" stop-color="#fbb885"/></radialGradient><path fill="url(#f)" d="M110.9 386.3s-6-2.6-12.8-13.3c-22.2-34.7-71.9-179.3-71.9-179.3L63 125.4l180-16.7s29.3 50.9 41.6 98.8c7.7 29.9 17 63.9 19.7 87.3 1.9 16.9-1.7 28.2-1.7 28.2s-59 57.3-191.7 63.3z"/><linearGradient id="g" gradientUnits="userSpaceOnUse" x1="14.795" y1="159.952" x2="44.648" y2="270.166"><stop offset="0" stop-color="#574537"/><stop offset=".576" stop-color="#433329"/><stop offset="1" stop-color="#32241d"/></linearGradient><path fill="url(#g)" d="M7.2 164.8l41.7 31.8s21.8 34-7.7 73.8c0 0-61.8-55.1-34-105.6z"/><linearGradient id="h" gradientUnits="userSpaceOnUse" x1="114.511" y1="149.824" x2="158.516" y2="312.287" gradientTransform="rotate(4.52 1804.733 114.09) scale(1.00001)"><stop offset="0" stop-color="#574537"/><stop offset=".576" stop-color="#433329"/><stop offset="1" stop-color="#32241d"/></linearGradient><path fill="url(#h)" d="M7.2 165.8S23.1 61.2 108 35.8c0 0-14.4 20.9-13.8 27.1 0 0 19.8-21.3 42.8-29.5C168.8 22 215.3 50.5 226.5 0c0 0 20.8 17.1 14.1 44.2 0 0 9.8-9.4 9.2-23.5 0 0 21.6 33.3-2.5 66.9 0 0 12.7-5.9 16.5-23 0 0 2 113.3-216.2 132.3L7.2 165.8z"/><path fill="#836F67" d="M118.6 47.5c40.6-27 53.5-2.5 88.2-15 15.1-5.5 18.1-16 18.1-16-14.3 48.1-60 10.5-105.8 31h-.5z"/><radialGradient id="i" cx="255.578" cy="-396.15" r="19.245" gradientTransform="rotate(-22.382 1783.336 240.176)" gradientUnits="userSpaceOnUse"><stop offset="0" stop-color="#454545"/><stop offset="1" stop-color="#101010"/></radialGradient><circle fill="url(#i)" cx="128.7" cy="234.2" r="16.7"/><circle transform="rotate(-22.382 130.878 226.959)" fill="#FFF" cx="130.9" cy="227" r="5.9"/><radialGradient id="j" cx="367.068" cy="-390.488" r="19.245" gradientTransform="rotate(-22.382 1783.336 240.176)" gradientUnits="userSpaceOnUse"><stop offset="0" stop-color="#454545"/><stop offset="1" stop-color="#101010"/></radialGradient><circle fill="url(#j)" cx="233.9" cy="197" r="16.7"/><circle transform="rotate(-22.382 236.127 189.735)" fill="#FFF" cx="236.1" cy="189.7" r="5.9"/><path fill="#FAB383" d="M128.2 290.4c.1 6.6-5.2 12.1-11.9 12.2-6.6.1-12.1-5.2-12.2-11.9-.1-6.6 5.2-12.1 11.9-12.2 6.6-.1 12.1 5.2 12.2 11.9zm145.6-47.5c.1 6.6-5.2 12.1-11.9 12.2-6.6.1-12.1-5.2-12.2-11.9-.1-6.6 5.2-12.1 11.9-12.2 6.7-.1 12.2 5.2 12.2 11.9z"/><path fill="#1A1A1A" d="M278.5 158c-14.7 3.4-20.9 1.4-49.6 10.6-22.3 7.2-34.7 15.6-57.1 22.7h-.1c-22.4 7-37.3 7.1-59.8 14-28.8 8.9-32.7 14-46.7 19.7-1.3.5-2.1 1.9-1.2 4.1 1.2 3.7 2.5 7 3.5 10.3.9 3 3.3 1.8 5.9 4.9 8.1 9.7 12 28.8 26 35.1 4 1.8 10.7 3.5 16.3 2.2 27.1-5.8 50.3-11.2 52-41.3.3-6.2 1.9-11.7 1.5-20.7 1.3-6.6 1.8-5.5 8.9-8.2 7.4-1.9 7.2-3.1 12 1.6 4.8 7.6 9.2 11.2 13 16.1 18.5 23.7 40.7 14.8 66.2 4.1 5.3-2.2 9.8-7.4 12.1-11.2 7.9-13.1.2-31.1 1.3-43.6.3-3.9 3-4.4 2-7.4-1-3.3-1.8-6.7-3-10.4-.4-2.3-1.9-3-3.2-2.6zm-113.7 71.4c.3 10.8-1 22.1-7.9 30.3-4.7 5.6-12.3 10.4-21.7 13.5-27.4 9.1-41.4 3.6-48.8-19.6-3.5-11-8.6-20.5-4-27.6 5.2-8 21.1-13.2 32.9-17 12.3-3.9 32.2-7.9 41.4-3.2 7.8 3.9 7.8 13.7 8.1 23.6zm112.6-35.8c7.2 23.3-1.1 35.8-28.8 44-9.4 2.8-18.4 3.2-25.5 1.3-10.4-2.8-17.9-11.3-23.8-20.3-5.4-8.3-11-16.3-6.9-24 4.9-9.1 23.5-17.2 35.8-21 11.9-3.7 27.9-8.5 36.7-4.9 7.9 3.2 9.1 13.9 12.5 24.9z"/><path fill="none" stroke="#856848" stroke-width="4.495" stroke-linecap="round" stroke-linejoin="round" stroke-miterlimit="10" d="M183 290.3s35.9 15.2 45.3-14.5"/><path fill="#1A1A1A" d="M64.1 227.5l-14.4 33.4 7.5 5L70.6 241z"/><radialGradient id="k" cx="51.254" cy="283.959" r="26.926" gradientUnits="userSpaceOnUse"><stop offset="0" stop-color="#fcc58a"/><stop offset=".575" stop-color="#fcc289"/><stop offset=".962" stop-color="#fbb986"/><stop offset="1" stop-color="#fbb885"/></radialGradient><path fill="url(#k)" d="M64.8 265c-10.7-9.3-26.8-8.4-35.9 2.1-9.1 10.5-7.8 26.5 3 35.8 8.5 7.4 20.4 8.3 29.5 3.1 4.7 3.9 11.7 3.4 15.6-1.2 4-4.6 3.4-11.7-1.3-15.9-.7-.6-1.3-1-2.1-1.4 1-8.1-2.1-16.6-8.8-22.5z"/><g fill="#856848"><path d="M46.4 275c-9.8 1-13.3 11.9-13.3 11.9s0-15 12.4-16.4c12.3-1.4 18.3 11.5 18.3 11.5s-6.6-8.1-17.4-7z"/><path d="M54.8 286.8c3.5-9.1 7.2-6.6 7.2-6.6s-4.7-7.3-9.2 7c-2.5 7.9 5.6 9.7 5.6 9.7s-6.3-2.9-3.6-10.1z"/></g><path fill="#192F4B" d="M154.1 500.1s-7.7 25.7 10.3 32.1 128.3-9 154-33.4c25.7-24.4 1.3-27 1.3-27l-165.6 28.3z"/><radialGradient id="l" cx="382.377" cy="945.391" r="27.471" gradientTransform="rotate(7.432 1968.253 671.034)" gradientUnits="userSpaceOnUse"><stop offset="0" stop-color="#454545"/><stop offset="1" stop-color="#252525"/></radialGradient><path fill="url(#l)" d="M354.4 727.3s14-1.6 29.9 9.1c11.5 7.7 11.6 16.6 11.6 16.6l-74.1-11 3.9-16.7 28.7 2z"/><linearGradient id="m" gradientUnits="userSpaceOnUse" x1="181.439" y1="615.982" x2="347.914" y2="615.982"><stop offset=".388" stop-color="#192f4b"/><stop offset="1" stop-color="#426897"/></linearGradient><path fill="none" stroke="url(#m)" stroke-width="18.731" stroke-miterlimit="10" d="M183 514.9s156.6-27 155.5 212.4"/><linearGradient id="n" gradientUnits="userSpaceOnUse" x1="276.417" y1="600.58" x2="442.892" y2="600.58"><stop offset=".388" stop-color="#192f4b"/><stop offset="1" stop-color="#426897"/></linearGradient><path fill="none" stroke="url(#n)" stroke-width="18.731" stroke-miterlimit="10" d="M278 499.5s156.6-27 155.5 212.4"/><pattern id="p" xlink:href="#o" patternTransform="translate(10513.29 6600.136) scale(2.1962)"/><path fill="url(#p)" d="M303.6 316.6S330 348 331.3 468c0 0-19.9 41.1-193.2 44.3 0 0 4.1 4.4-3.9-39.1-8.4-46-23.8-87.1-23.8-87.1s148.3-12.4 193.2-69.5z"/><path fill="#FFF" d="M243.7 355.8c-11.4 4.4-24.9 8.9-24.9 8.9s9.1 2.8 18.2 8.3c8.9 5.4 15.4 12.2 15.4 12.2s13.5-18.1 9.9-37.6c-.1.1-8.4 4.2-18.6 8.2z"/><pattern id="q" xlink:href="#a" patternTransform="translate(2975.152 388.857) scale(1.2835)"/><path fill="none" stroke="url(#q)" stroke-width="22.477" stroke-linecap="round" stroke-linejoin="round" stroke-miterlimit="10" d="M128.1 417.1s-21.4 81.3 266.1 92"/><radialGradient id="r" cx="570.76" cy="500.734" r="221.865" fx="570.435" fy="517.954" gradientUnits="userSpaceOnUse"><stop offset="0" stop-color="#fff"/><stop offset=".875" stop-color="#fff" stop-opacity=".125"/><stop offset="1" stop-color="#fff" stop-opacity="0"/></radialGradient><path opacity=".66" fill="url(#r)" d="M433.9 500.1l-104-139.6s-91.1-240.1 296.3-175.1C991 246.7 806.2 467 806.2 467l-123.7 78.4-248.6-45.3z"/><path fill="#1A1A1A" d="M422 531.7l8-73.3s0-10.2 11.6-9.2 267.9 38.6 267.9 38.6 7.1.4 1.8 12.9c-5.3 12.4-39.2 71-39.2 71s-.6 2.9-5.5 1.4c-4.9-1.4-241.1-36.4-241.1-36.4s-3.3-.1-3.5-5z"/><path fill="#FBC48A" d="M395.5 481.5s-10 24.2-6.2 57c0 0 24.5 10.1 56.8 2.1 0 0 11.7-19.7 14.7-43.8 0 0-20.2-.9-35.5-4.3l1.9-17.2c-10.8 0-20.1 1.9-31.7 6.2z"/></svg>