<?xml version="1.0" encoding="utf-8"?>
<!-- Generator: Adobe Illustrator 22.0.1, SVG Export Plug-In . SVG Version: 6.00 Build 0)  -->
<svg version="1.1" xmlns="http://www.w3.org/2000/svg" xmlns:xlink="http://www.w3.org/1999/xlink" x="0px" y="0px" width="2409px"
	 height="2025.9px" viewBox="0 0 2409 2025.9" style="enable-background:new 0 0 2409 2025.9;" xml:space="preserve">
<style type="text/css">
	.st0{fill:none;}
	.st1{fill:#29ABE2;}
	.st2{opacity:0.4;}
	.st3{opacity:0.12;}
	.st4{fill:url(#SVGID_1_);}
	.st5{fill:#FFF3D7;}
	.st6{fill:#A67C52;}
	.st7{fill:none;stroke:#000000;stroke-miterlimit:10;}
	.st8{fill:#CCCCCC;stroke:#000000;stroke-miterlimit:10;}
	.st9{fill:none;stroke:#000000;stroke-width:3;stroke-miterlimit:10;}
	.st10{fill:#FFFFFF;}
	.st11{fill:url(#SVGID_2_);}
	.st12{fill:#D4145A;}
	.st13{fill:#662D91;}
	.st14{fill:#FBB03B;}
	.st15{fill:url(#SVGID_3_);}
	.st16{fill:url(#SVGID_4_);}
	.st17{fill:#6B6B6B;}
	.st18{fill:#4F4F4F;}
	.st19{fill:url(#SVGID_5_);}
	.st20{fill:#3A3A3A;}
	.st21{fill:url(#SVGID_6_);}
	.st22{fill:url(#SVGID_7_);}
	.st23{fill:url(#SVGID_8_);}
	.st24{fill:url(#SVGID_9_);}
	.st25{fill:url(#SVGID_10_);}
	.st26{fill:url(#SVGID_11_);}
	.st27{fill:url(#SVGID_12_);}
	.st28{fill:url(#SVGID_13_);}
	.st29{fill:url(#SVGID_14_);}
	.st30{fill:url(#SVGID_15_);}
	.st31{fill:#661412;}
	.st32{fill:url(#SVGID_16_);}
	.st33{fill:url(#SVGID_17_);}
	.st34{fill:url(#SVGID_18_);}
	.st35{fill:#721514;}
	.st36{fill:url(#SVGID_19_);}
	.st37{fill:#CE985E;}
	.st38{fill:url(#SVGID_20_);}
	.st39{fill:none;stroke:#BD4747;stroke-width:4;stroke-linecap:round;stroke-miterlimit:10;}
	.st40{fill:#FFA370;}
	.st41{fill:url(#SVGID_21_);}
	.st42{fill:#403228;}
	.st43{fill:url(#SVGID_22_);}
	.st44{fill:url(#SVGID_23_);}
	.st45{fill:#7D634F;}
	.st46{opacity:0.4;fill:#7D634F;}
	.st47{fill:#7D1920;}
	.st48{fill:url(#SVGID_24_);}
	.st49{fill:#7C4119;}
	.st50{fill:#333333;}
	.st51{fill:#E6E6E6;}
	.st52{fill:#CCCCCC;}
	.st53{fill:#666666;}
	.st54{fill:#1B1464;}
	.st55{fill:#87C0C7;}
	.st56{fill:#AE5037;stroke:#000000;stroke-miterlimit:10;}
	.st57{fill:#FFFFFF;stroke:#000000;stroke-miterlimit:10;}
	.st58{fill:#889AC0;stroke:#000000;stroke-miterlimit:10;}
	.st59{fill:#C48661;}
	.st60{fill:#998675;}
	.st61{fill:#B3B3B3;}
	.st62{fill:#32241D;}
	.st63{opacity:0.66;fill:url(#SVGID_25_);}
	.st64{fill:url(#SVGID_26_);}
	.st65{fill:#2E3192;}
	.st66{fill:#0071BC;}
	.st67{fill:none;stroke:url(#SVGID_27_);stroke-width:30;stroke-linecap:round;stroke-linejoin:round;stroke-miterlimit:10;}
	.st68{fill:#FBC48A;}
	.st69{fill:url(#SVGID_28_);}
	.st70{fill:url(#SVGID_29_);}
	.st71{fill:#856848;}
	.st72{fill:url(#SVGID_30_);}
	.st73{fill:url(#SVGID_31_);}
	.st74{fill:url(#SVGID_32_);}
	.st75{fill:url(#SVGID_33_);}
	.st76{fill:#836F67;}
	.st77{fill:url(#SVGID_34_);}
	.st78{fill:url(#SVGID_35_);}
	.st79{fill:#FAB383;}
	.st80{fill:#1A1A1A;}
	.st81{fill:none;stroke:#856848;stroke-width:6;stroke-linecap:round;stroke-linejoin:round;stroke-miterlimit:10;}
	.st82{fill:url(#SVGID_36_);}
	.st83{fill:#192F4B;}
	.st84{fill:url(#SVGID_37_);}
	.st85{fill:none;stroke:url(#SVGID_38_);stroke-width:25;stroke-miterlimit:10;}
	.st86{fill:none;stroke:url(#SVGID_39_);stroke-width:25;stroke-miterlimit:10;}
	.st87{fill:url(#SVGID_40_);}
	.st88{fill:#FFFFFF;stroke:#856848;stroke-width:6;stroke-linecap:round;stroke-linejoin:round;stroke-miterlimit:10;}
	.st89{fill:none;stroke:#FFFFFF;stroke-width:40;stroke-linecap:round;stroke-linejoin:round;stroke-miterlimit:10;}
	.st90{fill:none;stroke:url(#SVGID_41_);stroke-width:30;stroke-linecap:round;stroke-linejoin:round;stroke-miterlimit:10;}
	.st91{opacity:0.66;fill:url(#SVGID_42_);}
</style>
<pattern  x="258.2" y="24" width="242" height="242" patternUnits="userSpaceOnUse" id="New_Pattern" viewBox="0 -242 242 242" style="overflow:visible;">
	<g>
		<rect y="-242" class="st0" width="242" height="242"/>
		<rect y="-242" class="st1" width="242" height="242"/>
		<rect y="-242" class="st2" width="11" height="242"/>
		<rect x="22" y="-242" class="st2" width="11" height="242"/>
		<rect x="44" y="-242" class="st2" width="11" height="242"/>
		<rect x="66" y="-242" class="st2" width="11" height="242"/>
		<rect x="88" y="-242" class="st2" width="11" height="242"/>
		<rect x="110" y="-242" class="st2" width="11" height="242"/>
		<rect x="132" y="-242" class="st2" width="11" height="242"/>
		<rect x="154" y="-242" class="st2" width="11" height="242"/>
		<rect x="176" y="-242" class="st2" width="11" height="242"/>
		<rect x="198" y="-242" class="st2" width="11" height="242"/>
		<rect x="220" y="-242" class="st2" width="11" height="242"/>
		<rect y="-242" class="st2" width="242" height="11"/>
		<rect y="-220" class="st2" width="242" height="11"/>
		<rect y="-198" class="st2" width="242" height="11"/>
		<rect y="-176" class="st2" width="242" height="11"/>
		<rect y="-154" class="st2" width="242" height="11"/>
		<rect y="-132" class="st2" width="242" height="11"/>
		<rect y="-110" class="st2" width="242" height="11"/>
		<rect y="-88" class="st2" width="242" height="11"/>
		<rect y="-66" class="st2" width="242" height="11"/>
		<rect y="-44" class="st2" width="242" height="11"/>
		<rect y="-22" class="st2" width="242" height="11"/>
	</g>
</pattern>
<pattern  x="258.2" y="24" width="242" height="242" patternUnits="userSpaceOnUse" id="New_Pattern_2" viewBox="241.7 -242 242 242" style="overflow:visible;">
	<g>
		<rect x="241.7" y="-242" class="st0" width="242" height="242"/>
		<g>
			<rect x="241.7" y="-242" class="st1" width="242" height="242"/>
			<rect x="472.7" y="-242" class="st2" width="11" height="242"/>
			<rect x="450.7" y="-242" class="st2" width="11" height="242"/>
			<rect x="428.7" y="-242" class="st2" width="11" height="242"/>
			<rect x="406.7" y="-242" class="st2" width="11" height="242"/>
			<rect x="384.7" y="-242" class="st2" width="11" height="242"/>
			<rect x="362.7" y="-242" class="st2" width="11" height="242"/>
			<rect x="340.7" y="-242" class="st2" width="11" height="242"/>
			<rect x="318.7" y="-242" class="st2" width="11" height="242"/>
			<rect x="296.7" y="-242" class="st2" width="11" height="242"/>
			<rect x="274.7" y="-242" class="st2" width="11" height="242"/>
			<rect x="252.7" y="-242" class="st2" width="11" height="242"/>
			<rect x="241.7" y="-11" class="st2" width="242" height="11"/>
			<rect x="241.7" y="-33" class="st2" width="242" height="11"/>
			<rect x="241.7" y="-55" class="st2" width="242" height="11"/>
			<rect x="241.7" y="-77" class="st2" width="242" height="11"/>
			<rect x="241.7" y="-99" class="st2" width="242" height="11"/>
			<rect x="241.7" y="-121" class="st2" width="242" height="11"/>
			<rect x="241.7" y="-143" class="st2" width="242" height="11"/>
			<rect x="241.7" y="-165" class="st2" width="242" height="11"/>
			<rect x="241.7" y="-187" class="st2" width="242" height="11"/>
			<rect x="241.7" y="-209" class="st2" width="242" height="11"/>
			<rect x="241.7" y="-231" class="st2" width="242" height="11"/>
			<rect x="242" y="-242" class="st3" width="242" height="242"/>
		</g>
		<g>
			<rect y="-242" class="st3" width="242" height="242"/>
		</g>
	</g>
</pattern>
<g id="Layer_1">
	<radialGradient id="SVGID_1_" cx="1210.4109" cy="412.685" r="2006.5121" gradientUnits="userSpaceOnUse">
		<stop  offset="0" style="stop-color:#FFF3D7"/>
		<stop  offset="1" style="stop-color:#C7B299"/>
	</radialGradient>
	<rect class="st4" width="2409" height="2025.9"/>
	<polygon class="st5" points="14.2,15.8 14.2,210.6 2397.2,208.8 2397.2,16.5 	"/>
	<polygon class="st6" points="-25.8,1702.1 -25.8,2043 2436.2,2039.8 2436.2,1703.4 	"/>
	<g>
		<ellipse class="st8" cx="1206.5" cy="107.3" rx="86.7" ry="20.8"/>
		<line class="st9" x1="1206.5" y1="105.8" x2="1206.5" y2="399.1"/>
		<circle class="st10" cx="1206.5" cy="432.6" r="148.1"/>
		<radialGradient id="SVGID_2_" cx="1206.4618" cy="432.6271" r="355.1096" gradientUnits="userSpaceOnUse">
			<stop  offset="0.2985" style="stop-color:#FFFFFF"/>
			<stop  offset="0.3196" style="stop-color:#FFFFFF;stop-opacity:0.9667"/>
			<stop  offset="0.9344" style="stop-color:#FFFFFF;stop-opacity:0"/>
		</radialGradient>
		<circle class="st11" cx="1206.5" cy="432.6" r="355.1"/>
	</g>
</g>
<g id="Layer_11">
	<g>
		<ellipse class="st12" cx="1418.6" cy="1867.7" rx="949.2" ry="182.7"/>
		<ellipse class="st13" cx="1418.6" cy="1867.7" rx="681.6" ry="131.2"/>
		<ellipse class="st1" cx="1418.6" cy="1867.7" rx="445.5" ry="85.7"/>
		<ellipse class="st14" cx="1418.6" cy="1867.7" rx="184.2" ry="35.5"/>
	</g>
</g>
<g id="SOFA">
	<g>
		<g>
			<linearGradient id="SVGID_3_" gradientUnits="userSpaceOnUse" x1="1404.4645" y1="1884.7662" x2="1404.4645" y2="1652.5118">
				<stop  offset="0" style="stop-color:#4F4F4F"/>
				<stop  offset="1" style="stop-color:#000000"/>
			</linearGradient>
			<rect x="720.7" y="1599.3" class="st15" width="1367.6" height="278.9"/>
			<linearGradient id="SVGID_4_" gradientUnits="userSpaceOnUse" x1="945.9358" y1="1240.9164" x2="945.9358" y2="1463.2551">
				<stop  offset="0" style="stop-color:#6B6B6B"/>
				<stop  offset="1" style="stop-color:#4F4F4F"/>
			</linearGradient>
			<path class="st16" d="M1180,1225.4c0,0,0.9-94.9-56-102.6c-183.9-24.9-265.5,5.1-323.2,33.3c-57.7,28.2-110.3,107.7-101.3,232.1
				s26.9,253.9,26.9,253.9l466.8-9L1180,1225.4z"/>
			<path class="st17" d="M798.7,1596.4c0,0,18-57.3-8.1-150.5c-22.3-79.7-119.3-84.6-170.6-18s-70.5,83.4-60.3,175.7
				C573,1722.3,798.7,1596.4,798.7,1596.4z"/>
			<path class="st18" d="M799.6,1890c0,0-68.3,0-97.8,0c-25.8,0-49.7-41.2-49.7-41.2s-74.4-112.9-92.3-215.5
				c-15.7-89.7,0-171.9,115.4-177c115.4-5.1,125.7,95,125.7,95L799.6,1890z"/>
			<linearGradient id="SVGID_5_" gradientUnits="userSpaceOnUse" x1="997.0677" y1="1443.5493" x2="997.0677" y2="1695.3973">
				<stop  offset="0" style="stop-color:#6B6B6B"/>
				<stop  offset="1" style="stop-color:#4F4F4F"/>
			</linearGradient>
			<path class="st19" d="M839.8,1514.4c-11.9,3.7-38.5,7.7-38.9,59c-0.5,60.5-0.2,69.9-0.2,69.9s-3.6,32.7,16,32.7
				c46.2,0,335.1-6,335.1-6s41.9,2.6,41.9-41c0-43.6-2.6-90.6-2.6-90.6s-3.6-27.8-55.6-32.1
				C1073.2,1501.1,869.7,1504.9,839.8,1514.4z"/>
			<path class="st20" d="M742.2,1790.9v-163.7c0,0,8-72.2-55.3-71c-43.6,0.9-61.2,35.4-60.3,61.1c1.3,39.3,44.1,130.8,90.7,184.7
				C725.6,1811.6,740.2,1819.6,742.2,1790.9z"/>
			<linearGradient id="SVGID_6_" gradientUnits="userSpaceOnUse" x1="1891.2365" y1="1240.9164" x2="1891.2365" y2="1463.2551">
				<stop  offset="0" style="stop-color:#6B6B6B"/>
				<stop  offset="1" style="stop-color:#4F4F4F"/>
			</linearGradient>
			<path class="st21" d="M1657.1,1225.4c0,0-0.9-94.9,56-102.6c183.9-24.9,265.5,5.1,323.2,33.3c57.7,28.2,110.3,107.7,101.3,232.1
				s-26.9,253.9-26.9,253.9l-466.8-9L1657.1,1225.4z"/>
			<path class="st17" d="M2038.4,1596.4c0,0-18-57.3,8.1-150.5c22.3-79.7,119.3-84.6,170.6-18c51.3,66.7,70.5,83.4,60.3,175.7
				C2264.2,1722.3,2038.4,1596.4,2038.4,1596.4z"/>
			<path class="st18" d="M2037.6,1890c0,0,68.3,0,97.8,0c25.8,0,49.7-41.2,49.7-41.2s74.4-112.9,92.3-215.5
				c15.7-89.7,0-171.9-115.4-177c-115.4-5.1-125.7,95-125.7,95L2037.6,1890z"/>
			<linearGradient id="SVGID_7_" gradientUnits="userSpaceOnUse" x1="1840.1046" y1="1443.5493" x2="1840.1046" y2="1695.3973">
				<stop  offset="0" style="stop-color:#6B6B6B"/>
				<stop  offset="1" style="stop-color:#4F4F4F"/>
			</linearGradient>
			<path class="st22" d="M1997.4,1514.4c11.9,3.7,38.5,7.7,38.9,59c0.5,60.5,0.2,69.9,0.2,69.9s3.6,32.7-16,32.7
				c-46.2,0-335.1-6-335.1-6s-41.9,2.6-41.9-41c0-43.6,2.6-90.6,2.6-90.6s3.6-27.8,55.6-32.1
				C1764,1501.1,1967.5,1504.9,1997.4,1514.4z"/>
			<linearGradient id="SVGID_8_" gradientUnits="userSpaceOnUse" x1="1421.7815" y1="1240.9227" x2="1421.7815" y2="1463.2699">
				<stop  offset="0" style="stop-color:#6B6B6B"/>
				<stop  offset="1" style="stop-color:#4F4F4F"/>
			</linearGradient>
			<path class="st23" d="M1631.9,1110.4c-88.7-38.2-202.2-37.4-209.9-37.4c-7.7,0-121.6-0.8-210.3,37.4c0,0-38.5,8.5-38.5,84.6
				s18.8,361,18.8,361l228.7-16h2.1h238.1c0,0,9.4-268.7,9.4-344.8S1631.9,1110.4,1631.9,1110.4z"/>
			<linearGradient id="SVGID_9_" gradientUnits="userSpaceOnUse" x1="1429.8779" y1="1443.5493" x2="1429.8779" y2="1695.3973">
				<stop  offset="0" style="stop-color:#6B6B6B"/>
				<stop  offset="1" style="stop-color:#4F4F4F"/>
			</linearGradient>
			<path class="st24" d="M1230.9,1514.4c-11.9,3.7-38.9,10.3-38.9,31.6c0,60.5-0.2,97.2-0.2,97.2s-3.6,32.7,16,32.7
				c46.2,0,418.5-6,418.5-6s41.9,2.6,41.9-41c0-43.6-2.6-78.7-2.6-78.7s-3.6-39.8-55.6-44
				C1547.7,1501.1,1260.8,1504.9,1230.9,1514.4z"/>
			<path class="st20" d="M2094.2,1790.9v-163.7c0,0-7.6-72.2,55.7-71c43.6,0.9,61.4,35.4,60.6,61.1c-1.3,39.3-44.5,130.8-91,184.7
				C2111.1,1811.6,2097.2,1819.6,2094.2,1790.9z"/>
		</g>
	</g>
</g>
<g id="tuttolina">
	<g>
		<radialGradient id="SVGID_10_" cx="1196.2941" cy="845.6422" r="436.2639" gradientUnits="userSpaceOnUse">
			<stop  offset="0" style="stop-color:#574537"/>
			<stop  offset="0.6843" style="stop-color:#554335"/>
			<stop  offset="1" style="stop-color:#32241D"/>
		</radialGradient>
		<path class="st25" d="M1632.5,1277c-14.7-8.2,55.5-99.3,50.6-189.1c-9.1-166.5-89.7-270-228.4-279.8
			c-72.6-5.1-183.5,55.1-200.9,71.4c-15.7,14.7-46.4,104.2-52.5,194l13.6-8.4c0,0-16.3,90.6,15.5,150.5
			c38,61.2,112,110.7,220.8,126.1c161.5,22.8,235.2-66.5,235.2-66.5S1647.2,1285.2,1632.5,1277z"/>
		<g>
			<g>
				
					<linearGradient id="SVGID_11_" gradientUnits="userSpaceOnUse" x1="1464.5084" y1="2105.7886" x2="1464.5084" y2="2016.5851" gradientTransform="matrix(0.9697 -0.2441 0.2441 0.9697 -539.0049 -49.9133)">
					<stop  offset="0" style="stop-color:#FCC58A"/>
					<stop  offset="0.3286" style="stop-color:#FAC287"/>
					<stop  offset="0.5501" style="stop-color:#F6B97F"/>
					<stop  offset="0.7392" style="stop-color:#EDAA71"/>
					<stop  offset="0.8528" style="stop-color:#E69D65"/>
					<stop  offset="1" style="stop-color:#CE8857"/>
				</linearGradient>
				<path class="st26" d="M1372.3,1758c-7-96.3-17.7-174.7,0.9-261.9c22.3-104.7,22.4-72.6,30.9-43.3c8.5,29.3-18.3,59.6-13.8,127.3
					c3.4,50.3,12.6,90.2,23.9,138.3C1433,1798.1,1375.9,1807.1,1372.3,1758z"/>
				
					<radialGradient id="SVGID_12_" cx="1436.7517" cy="2141.2415" r="35.7029" gradientTransform="matrix(0.9784 -0.207 0.207 0.9784 -453.9539 -48.733)" gradientUnits="userSpaceOnUse">
					<stop  offset="0" style="stop-color:#454545"/>
					<stop  offset="1" style="stop-color:#252525"/>
				</radialGradient>
				<path class="st27" d="M1411.7,1701.5c1.9,34.2-9.9,59.7-26.2,59.8c-9.3,0.1-13.1-5.4-15.3-10.4c1.2,9.7,2.1,17.4,2.6,21.9
					c2.9,22.2,36.2,31.6,44-4.9C1421.8,1745.5,1417.9,1724.4,1411.7,1701.5z"/>
			</g>
			<g>
				
					<linearGradient id="SVGID_13_" gradientUnits="userSpaceOnUse" x1="5928.207" y1="3229.4236" x2="5928.207" y2="3140.2202" gradientTransform="matrix(-0.9697 -0.2441 -0.2441 0.9697 8009.0137 -49.9133)">
					<stop  offset="0" style="stop-color:#FCC58A"/>
					<stop  offset="0.3286" style="stop-color:#FAC287"/>
					<stop  offset="0.5501" style="stop-color:#F6B97F"/>
					<stop  offset="0.7392" style="stop-color:#EDAA71"/>
					<stop  offset="0.8528" style="stop-color:#E69D65"/>
					<stop  offset="1" style="stop-color:#CE8857"/>
				</linearGradient>
				<path class="st28" d="M1494.9,1758c7-96.3,17.7-174.7-0.9-261.9c-22.3-104.7-22.4-72.6-30.9-43.3
					c-8.5,29.3,18.3,59.6,13.8,127.3c-3.4,50.3-12.6,90.2-23.9,138.3C1434.3,1798.1,1491.4,1807.1,1494.9,1758z"/>
				
					<radialGradient id="SVGID_14_" cx="5939.5405" cy="3093.8962" r="35.032" gradientTransform="matrix(-0.9784 -0.207 -0.207 0.9784 7923.9624 -48.733)" gradientUnits="userSpaceOnUse">
					<stop  offset="0" style="stop-color:#454545"/>
					<stop  offset="1" style="stop-color:#252525"/>
				</radialGradient>
				<path class="st29" d="M1455.9,1702.4c-1.9,33.5,9.7,58.5,25.7,58.7c9.1,0.1,12.8-5.3,15-10.2c-1.1,9.5-2,17.1-2.6,21.5
					c-2.9,21.8-35.5,31-43.2-4.8C1446,1745.6,1449.8,1724.9,1455.9,1702.4z"/>
			</g>
			<radialGradient id="SVGID_15_" cx="991.4403" cy="1302.7604" r="620.8703" gradientUnits="userSpaceOnUse">
				<stop  offset="0.6503" style="stop-color:#DB1E27"/>
				<stop  offset="1" style="stop-color:#4E0F10"/>
			</radialGradient>
			<path class="st30" d="M1421.6,1340.6c45.7,0,81.8-6.7,123.8,97c25.7,63.6-1.9,89.5-1.9,89.5h-235.8c0,0-9.4-11.7-4.2-55.8
				C1312.1,1398.1,1349.8,1340.6,1421.6,1340.6z"/>
			<path class="st31" d="M1494.9,1357.2c-25.9-20.9-50.9-16.3-78.3-16.3c-29.3,0-45.4,7.1-65.3,24.5c12.1,6.6,29.8,16.3,68.5,16.3
				C1453.8,1381.7,1477.1,1368.9,1494.9,1357.2z"/>
			
				<linearGradient id="SVGID_16_" gradientUnits="userSpaceOnUse" x1="1460.2006" y1="1182.771" x2="1460.2006" y2="1033.1323" gradientTransform="matrix(0.9898 0.1425 -0.1425 0.9898 282.5835 81.0183)">
				<stop  offset="0" style="stop-color:#FCC58A"/>
				<stop  offset="0.3854" style="stop-color:#FAC287"/>
				<stop  offset="0.645" style="stop-color:#F6B97F"/>
				<stop  offset="0.8669" style="stop-color:#EDAA71"/>
				<stop  offset="1" style="stop-color:#E69D65"/>
			</linearGradient>
			<path class="st32" d="M1516.9,1267.3c9.2,10.4,46.4,47.8,56,69.4c6.2,13.8,21.3,69.3,14.4,82.2c-4.7,8.8-18,20.7-19.9,33.6
				c-2,12.9,2.4,33.2,2.4,33.2s8,1.2,9.6-3.1c1.5-4.3,1.4-21.7,4.2-19.1c2.7,2.7,8,31.1,6.3,48.4c0,0,12.8,0.8,17.2-7
				c0,0,8.6,0.2,11.8-7.1c0,0,9.3-5.6,10.9-13c0,0,3.2-27-0.1-37.9c-5.1-16.9-5.4-18.7-10.1-35.7c-7.3-26.9-16.5-65.3-33-95.1
				c-11-19.9-56.7-64.4-64.6-66.4C1514,1247.8,1512.6,1262.4,1516.9,1267.3z"/>
			
				<radialGradient id="SVGID_17_" cx="1340.9093" cy="1124.8788" r="306.541" gradientTransform="matrix(0.9999 0 0 1 2.461501e-02 0)" gradientUnits="userSpaceOnUse">
				<stop  offset="0.6503" style="stop-color:#DB1E27"/>
				<stop  offset="1" style="stop-color:#4E0F10"/>
			</radialGradient>
			<path class="st33" d="M1294.2,1233.2c0,0,213.7-9.8,261-8.2c0,0-16.4,89.9-76.7,125.6c-44,26.1-99.3,15.6-130.5-6.5
				C1308.9,1316.4,1294.2,1233.2,1294.2,1233.2z"/>
			<linearGradient id="SVGID_18_" gradientUnits="userSpaceOnUse" x1="1422.321" y1="1312.2284" x2="1422.321" y2="1238.806">
				<stop  offset="0" style="stop-color:#FCC58A"/>
				<stop  offset="0.2848" style="stop-color:#F9C287"/>
				<stop  offset="0.4764" style="stop-color:#F0BA7F"/>
				<stop  offset="0.5773" style="stop-color:#E8B277"/>
				<stop  offset="0.908" style="stop-color:#CE985E"/>
			</linearGradient>
			<path class="st34" d="M1379.1,1212c1.5,4.3,18.6,75.4,35.9,78.9c8.2,1.6,39.2-62.5,50.6-85.4L1379.1,1212z"/>
			<polygon class="st35" points="1390,1248.4 1366,1267.5 1358.4,1232.1 1379.1,1212 			"/>
			<polygon class="st35" points="1445.4,1249.5 1470.5,1263.7 1488.9,1198.4 1460.7,1203.8 			"/>
		</g>
		
			<radialGradient id="SVGID_19_" cx="1469.5895" cy="943.7714" r="251.8447" gradientTransform="matrix(0.9601 -3.540000e-02 3.830000e-02 0.9617 -110.0614 90.8513)" gradientUnits="userSpaceOnUse">
			<stop  offset="0" style="stop-color:#FCC58A"/>
			<stop  offset="0.575" style="stop-color:#FCC289"/>
			<stop  offset="0.962" style="stop-color:#FBB986"/>
			<stop  offset="1" style="stop-color:#FBB885"/>
		</radialGradient>
		<path class="st36" d="M1431.6,841.8c52.2,2.4,94.5,35.9,125.3,103.6c19.1,42,52.1,168,4.2,224.4c-30.3,35.6-75,59.6-131.3,59.6
			c-45.8,0-125.4-14.5-155.5-62.7c-27-43.3-16.3-116.9-0.2-184.6C1303.5,858.1,1388.3,839.8,1431.6,841.8z"/>
		<g>
			<path class="st37" d="M1449.9,901.1c-80.3-25.5-108.6-43.7-133.2,3.5c-2.6,5.2-14.5,5.8-16.8,11.2c5.7,26.7,57.2,46.9,78.4,56
				c0,0,0.7-33,5.1-28.3c81.8,87.9,117.6,112.2,193.9,118.2C1580.2,1031.8,1530.2,926.5,1449.9,901.1z"/>
		</g>
		<radialGradient id="SVGID_20_" cx="1234.1179" cy="865.447" r="392.3289" gradientUnits="userSpaceOnUse">
			<stop  offset="0" style="stop-color:#574537"/>
			<stop  offset="0.6843" style="stop-color:#554335"/>
			<stop  offset="1" style="stop-color:#32241D"/>
		</radialGradient>
		<path class="st38" d="M1611.7,1179.7c0,0-89.5-78.1-55.5-191.6c0,0,68,6.3,72.2,7.2C1617.4,1083.9,1611.1,1121.5,1611.7,1179.7z"
			/>
		<path class="st39" d="M1367.1,1153.6c0,0,17.5,11.7,44.3,13.6c37.4,2.7,64-16.6,64-16.6"/>
		<path class="st40" d="M1301.1,1126c0,10.7,8.7,19.4,19.4,19.4c10.7,0,19.4-8.7,19.4-19.4c0-10.7-8.7-19.4-19.4-19.4
			C1309.8,1106.6,1301.1,1115.3,1301.1,1126z"/>
		<path class="st40" d="M1504.5,1126c0,10.7,8.7,19.4,19.4,19.4c10.7,0,19.4-8.7,19.4-19.4c0-10.7-8.7-19.4-19.4-19.4
			C1513.2,1106.6,1504.5,1115.3,1504.5,1126z"/>
		<g>
			<path class="st37" d="M1533.7,1068.4c0,15.5-12.6,28.1-28.1,28.1c-15.5,0-28.1-12.6-28.1-28.1c0-15.5,12.6-28.1,28.1-28.1
				C1521.2,1040.4,1533.7,1052.9,1533.7,1068.4z"/>
			
				<radialGradient id="SVGID_21_" cx="2571.5608" cy="1066.4418" r="24.8054" gradientTransform="matrix(1 0 0 1 -1065.9062 0)" gradientUnits="userSpaceOnUse">
				<stop  offset="0" style="stop-color:#333333"/>
				<stop  offset="0.4558" style="stop-color:#313131"/>
				<stop  offset="0.7002" style="stop-color:#292929"/>
				<stop  offset="0.8938" style="stop-color:#1B1B1B"/>
				<stop  offset="1" style="stop-color:#101010"/>
			</radialGradient>
			<path class="st41" d="M1530.5,1066.4c0,13.7-11.1,24.8-24.8,24.8s-24.8-11.1-24.8-24.8c0-13.7,11.1-24.8,24.8-24.8
				S1530.5,1052.7,1530.5,1066.4z"/>
			<path class="st10" d="M1487.7,1054.5c-2.9,5.2-1.6,11.5,2.9,14c4.5,2.5,10.5,0.3,13.4-4.9c2.9-5.2,1.6-11.5-2.9-14
				C1496.7,1047.1,1490.6,1049.3,1487.7,1054.5z"/>
		</g>
		<g>
			<path class="st42" d="M1538.6,1071.3c0,0,10.7,4.6,15.1,0.8c4.4-3.7-0.5-8.6-0.5-8.6s-11,4-15,3.3L1538.6,1071.3z"/>
			<path class="st42" d="M1531.6,1049.5c0,0,12.7-0.4,15.7-5.7c3-5.3-4-7.7-4-7.7s-9.6,8.4-14,9.4L1531.6,1049.5z"/>
			<path class="st42" d="M1521.1,1031.7c0,0,11-7.4,10.8-13.7c-0.1-6.2-7.5-4.4-7.5-4.4s-4.1,12.5-7.4,15.9L1521.1,1031.7z"/>
		</g>
		<g>
			<g>
				<path class="st42" d="M1297.9,1066.8c0,0-10.7,4.4-15.1,0.6c-4.3-3.8,0.6-8.6,0.6-8.6s10.9,4.2,15,3.5L1297.9,1066.8z"/>
				<path class="st42" d="M1305.3,1045.1c0,0-12.7-0.5-15.6-5.9c-2.9-5.3,4.1-7.6,4.1-7.6s9.4,8.5,13.8,9.6L1305.3,1045.1z"/>
				<path class="st42" d="M1316,1027.5c0,0-10.9-7.6-10.7-13.8c0.2-6.2,7.5-4.3,7.5-4.3s3.9,12.6,7.2,16L1316,1027.5z"/>
			</g>
			<g>
				<path class="st37" d="M1298.1,1068.4c0,15.5,12.6,28.1,28,28.1c15.5,0,28.1-12.6,28.1-28.1c0-15.5-12.6-28.1-28.1-28.1
					C1310.7,1040.4,1298.1,1052.9,1298.1,1068.4z"/>
				
					<radialGradient id="SVGID_22_" cx="56.8354" cy="1066.4418" r="24.8054" gradientTransform="matrix(-1 0 0 1 1383.0023 0)" gradientUnits="userSpaceOnUse">
					<stop  offset="0" style="stop-color:#333333"/>
					<stop  offset="0.4558" style="stop-color:#313131"/>
					<stop  offset="0.7002" style="stop-color:#292929"/>
					<stop  offset="0.8938" style="stop-color:#1B1B1B"/>
					<stop  offset="1" style="stop-color:#101010"/>
				</radialGradient>
				<path class="st43" d="M1301.4,1066.4c0,13.7,11.1,24.8,24.8,24.8c13.7,0,24.8-11.1,24.8-24.8c0-13.7-11.1-24.8-24.8-24.8
					C1312.5,1041.6,1301.4,1052.7,1301.4,1066.4z"/>
				<path class="st10" d="M1308.2,1054.5c-2.9,5.2-1.6,11.5,2.9,14c4.5,2.5,10.5,0.3,13.4-4.9c2.9-5.2,1.6-11.5-2.9-14
					C1317.2,1047.1,1311.1,1049.3,1308.2,1054.5z"/>
			</g>
		</g>
		<radialGradient id="SVGID_23_" cx="1074.6687" cy="953.518" r="513.877" gradientUnits="userSpaceOnUse">
			<stop  offset="0" style="stop-color:#574537"/>
			<stop  offset="0.6843" style="stop-color:#554335"/>
			<stop  offset="1" style="stop-color:#32241D"/>
		</radialGradient>
		<path class="st44" d="M1286.9,905.1c5.5,13.2,64.1,55.6,86.3,56.6c5.9,0.3-19-50.6-14.1-46.5c38.3,33.1,107.8,96.9,163.6,122.2
			c86.5,39.2,107.7,66.9,137.4,59.8c0,0,7.3-186.3-120.2-237.3C1479.2,835.7,1351.6,803.5,1286.9,905.1z"/>
		<g>
			<path class="st45" d="M1266,905.8c-3,6.4-6.9,12.3-7.5,13.3c-18.7,33.9-31.7,74.3-41,111.7c-2.8-18,5.5-38.6,10.4-55.6
				c6.4-21.9,13-44.5,22.8-65.2c1.6-3.5,8.9-22,14.1-21.8C1272.4,888.7,1269.9,897.6,1266,905.8z"/>
		</g>
		<path class="st46" d="M1344.1,868.5c28.5,18.6,87.7,113.9,184.2,137.3c0,0-52.5-17.2-108.8-79C1363.2,865,1361.4,858,1344.1,868.5
			z"/>
		<polygon class="st47" points="1570.1,1172.2 1556.2,1149.8 1570,1121.9 1597.7,1116.3 1611.6,1138.7 1597.8,1166.6 		"/>
		<polygon class="st47" points="1273.4,1172.2 1287.3,1149.8 1273.6,1121.9 1245.9,1116.3 1232,1138.7 1245.7,1166.6 		"/>
	</g>
</g>
<g id="tuttolina-arm">
	
		<linearGradient id="SVGID_24_" gradientUnits="userSpaceOnUse" x1="6062.3916" y1="-621.5117" x2="6062.3916" y2="-771.1503" gradientTransform="matrix(-0.9356 0.353 0.353 0.9356 7228.335 -96.8766)">
		<stop  offset="0" style="stop-color:#FCC58A"/>
		<stop  offset="0.3854" style="stop-color:#FAC287"/>
		<stop  offset="0.645" style="stop-color:#F6B97F"/>
		<stop  offset="0.8669" style="stop-color:#EDAA71"/>
		<stop  offset="1" style="stop-color:#E69D65"/>
	</linearGradient>
	<path class="st48" d="M1336.7,1264.8c-6.7,12.2-34.9,56.7-39.7,79.9c-3.1,14.8-5.8,72.3,3.7,83.4c6.5,7.6,22,16.3,26.7,28.5
		c4.7,12.2,4.9,32.9,4.9,32.9s-7.6,2.9-10-1c-2.4-3.8-6.1-20.9-8.2-17.7c-2.1,3.2-1.1,32.1,4.4,48.6c0,0-12.3,3.6-18.3-3.1
		c0,0-8.3,2-13.1-4.4c0,0-10.3-3.5-13.4-10.3c0,0-9-25.7-8.1-37.1c1.3-17.6,1.3-19.5,2.1-37.1c1.3-27.8,2-67.3,11.6-100
		c6.5-21.8,41.4-75.1,48.7-78.8C1335.3,1245.1,1339.9,1259,1336.7,1264.8z"/>
</g>
<g id="DOG-tail">
	<g>
		<path class="st10" d="M1903.6,1519.5c0,0,94,35.1,100.5-63.7c0,0,35.1,116-116,103L1903.6,1519.5z"/>
		<path class="st49" d="M2002.5,1507.9c3-3.8,3.5-9.5,3.2-14.2c-0.4-5.9-2.7-12-5.4-17c-8.6,33.9-30.7,45.3-51.8,47.7
			c1.8,3.4,3.5,7.9,6.4,9.8c3.9,2.5,8.9,3.2,13.4,3.5c4.7,0.4,9.6,0.2,12.9-3.6c4-4.5,3-11.3,6.5-16.1
			C1991.6,1512.7,1998.5,1512.9,2002.5,1507.9z"/>
	</g>
</g>
<g id="DOG">
	<g>
		<g>
			<g>
				<path class="st10" d="M1729.4,1758.1l-1.4-24.5c-5.5-95.6,27-157.1,55.2-191.7c31.2-38.4,64.6-53.7,66-54.3l20.1,44.7l0.1-0.1
					c-0.3,0.1-25.8,12.2-49.8,42.5c-32,40.4-46.4,92.9-42.7,156.1l1.4,24.5L1729.4,1758.1z"/>
			</g>
			<g>
				<g>
					<path class="st50" d="M1734.9,1758.2c-0.2-0.5-5-13-0.8-18.6l1.3,1c-3.7,4.9,1,16.9,1,17.1L1734.9,1758.2z"/>
				</g>
				<g>
					<path class="st50" d="M1743.1,1757.7c-0.2-0.5-5-13-0.8-18.6l1.3,1c-3.7,4.9,1,16.9,1,17.1L1743.1,1757.7z"/>
				</g>
				<g>
					<path class="st50" d="M1751.3,1757.3c-0.2-0.5-5-13-0.8-18.6l1.3,1c-3.7,4.9,1,16.9,1,17.1L1751.3,1757.3z"/>
				</g>
			</g>
		</g>
		<path class="st10" d="M1883.2,1485c-11.7-20.5,14.9-59.4,9-84.4c-3-12.6-16.1-16.9-23.3-29.5c-18.8-32.6-31.5-44.8-4.4-114.4
			c20.3-52.3,51.7-38.6,65.9-28.5c-2.3-73.1-4.1-137.7-4.1-137.7l-189.6,103.5c0,0-27.2,161.8-30.5,234.2
			c-1.7,38.1-15.9,153.4,105.7,158c72,2.7,104-34.1,118.3-70.9C1910.9,1513.4,1891.2,1501.8,1883.2,1485z"/>
		<path class="st49" d="M1935.8,1373.4c-1.6-39.4-2.9-93.7-4.6-144.5c-13.7-10.1-46-25.5-66.7,27.9c-27.1,69.6-14.4,81.8,4.4,114.4
			c7.2,12.6,20.4,16.9,23.3,29.5c5.9,25-20.7,63.8-9,84.4c8.1,17,28.2,28.6,47.6,30.4c11.9-30.1,11-60.8,11-70.2
			C1941.8,1424.3,1936.9,1401.7,1935.8,1373.4z"/>
		<path class="st51" d="M1715.7,1334.2c-4.6,35.1-8.4,69.7-9.5,94.1c-0.4,8.5-1.4,20.8-1.4,34.8c5.4-4.1,8.7-10.8,8.1-18.1
			c-2.9-33-3.3-65.9,12-80.5c23.9-22.9,54.8-28.1,55.6-28C1790.5,1337.9,1751.6,1312.9,1715.7,1334.2z"/>
		<path class="st51" d="M1732.6,1218.9l68.1-35.2c0,0-17.2,26.3-37.3,44.3c-15.8,14.2-35.5,21-35.5,21L1732.6,1218.9z"/>
		<path class="st10" d="M1909.4,1046.5c-98.9-115.2-170.3-69-232.9,18.8c-46.6,65.4-61.3,147.9-29.4,170
			c31.9,22.1,149-41.1,149-41.1S1987.9,1138,1909.4,1046.5z"/>
		<g>
			<ellipse cx="1776.2" cy="1100.8" rx="19.6" ry="20.8"/>
			<ellipse class="st52" cx="1787.9" cy="1095.3" rx="4" ry="4.2"/>
		</g>
		<g>
			<ellipse cx="1690" cy="1090.4" rx="15.9" ry="19.1"/>
			<ellipse class="st52" cx="1698.3" cy="1085" rx="4.1" ry="4.1"/>
		</g>
		<path d="M1646.3,1190.3c0,0,22.1-13.1,38.4,13.1c0,0-9,14.7-31,17.2C1653.6,1220.5,1645.4,1215.6,1646.3,1190.3z"/>
		<g>
			<path d="M1801.5,1067.7c-1.4,0-2.7-0.9-3.1-2.3c-9.6-30.2-29.4-25.6-29.6-25.6c-1.7,0.4-3.5-0.6-4-2.4c-0.4-1.8,0.6-3.5,2.4-4
				c0.3-0.1,26-6,37.4,30c0.5,1.7-0.4,3.6-2.1,4.1C1802.2,1067.6,1801.8,1067.7,1801.5,1067.7z"/>
		</g>
		<g>
			<path d="M1690.7,1044.9c-0.7,0-1.4-0.2-2-0.7c-1.4-1.1-1.7-3.1-0.6-4.6c11.8-15.5,23.3-19,31-19.2c8.5-0.2,14.1,3.5,14.4,3.6
				c1.5,1,1.9,3,0.9,4.5c-1,1.5-3,1.9-4.5,0.9c-0.7-0.5-17.5-10.9-36.5,14.1C1692.7,1044.4,1691.7,1044.9,1690.7,1044.9z"/>
		</g>
		<path class="st51" d="M1925.2,1101.5c-8.9-21.7-29.9-37-64.6-30.1c0,0,48.7,23.2,50,85.4c0.3,14.4,9.4,21.9,18.1,21.2
			c0,0,0.2-0.9,0.4-2.6C1928.6,1160.9,1926.1,1106.6,1925.2,1101.5z"/>
		<path class="st10" d="M1967,1084.3c-28.6-60.9-114.3-31.9-114.3-31.9l6.5,19.6c61.6,0.5,65.9,35.4,68.6,75.2
			c0.9,12.7,5.8,21.7,12.2,26.5C1929,1113.9,1952.3,1092,1967,1084.3z"/>
		<path class="st49" d="M1967.2,1084.2c-14.8,7.7-38.4,29.6-27,90.1c13.7,10.3,34.1,1.8,36-28.8
			C1977.8,1118.8,1974.2,1098.9,1967.2,1084.2z"/>
		<g>
			<g>
				<path class="st10" d="M1672.9,1457.4c-10.5,0-19.4-8-20.3-18.6c-4.1-46.2,6.5-81.6,31.4-105.2c38.5-36.6,96.1-28.8,98.6-28.5
					c11.2,1.6,18.9,11.9,17.3,23.1c-1.6,11.1-11.9,18.9-23,17.3c-0.8-0.1-41-5.1-64.9,17.8c-15.3,14.7-21.6,38.8-18.7,71.8
					c1,11.2-7.3,21.2-18.5,22.2C1674.1,1457.4,1673.5,1457.4,1672.9,1457.4z"/>
			</g>
			<g>
				<g>
					<path class="st50" d="M1678.6,1457c-0.1,0-0.3,0-0.4-0.1c-8.7-5.2-5.1-18.8-4.9-19.4c0.1-0.4,0.6-0.7,1-0.6
						c0.4,0.1,0.7,0.6,0.6,1c0,0.1-3.5,13,4.2,17.5c0.4,0.2,0.5,0.7,0.3,1.1C1679.2,1456.8,1678.9,1457,1678.6,1457z"/>
				</g>
				<g>
					<path class="st50" d="M1670.4,1457c-0.1,0-0.3,0-0.4-0.1c-7.7-4.6-4.5-16.5-4.4-17c0.1-0.4,0.6-0.7,1-0.6
						c0.4,0.1,0.7,0.6,0.6,1c0,0.1-3,11.3,3.6,15.2c0.4,0.2,0.5,0.7,0.3,1.1C1671,1456.8,1670.7,1457,1670.4,1457z"/>
				</g>
				<g>
					<path class="st50" d="M1662.3,1453.7c-0.1,0-0.3,0-0.4-0.1c-5.2-3.1-3.1-11.1-3-11.5c0.1-0.4,0.6-0.7,1-0.6
						c0.4,0.1,0.7,0.6,0.6,1c0,0.1-1.9,7.2,2.2,9.6c0.4,0.2,0.5,0.7,0.3,1.1C1662.8,1453.6,1662.5,1453.7,1662.3,1453.7z"/>
				</g>
			</g>
		</g>
		<g>
			<g>
				<path class="st10" d="M1614.1,1653.8l-0.5-24.5c-1.3-56.8,13.7-97.6,44.4-121.4c42.3-32.7,96.7-17.8,99-17.1l-13.4,47.2l0.1,0
					c-0.3-0.1-33.6-8.8-56.1,8.9c-12.1,9.5-26.2,31.3-25.1,81.3l0.5,24.5L1614.1,1653.8z"/>
			</g>
			<g>
				<g>
					<path class="st50" d="M1621.6,1653.9c-0.2-0.5-4.2-13.3,0.3-18.7l1.3,1.1c-4,4.7,0,17,0,17.1L1621.6,1653.9z"/>
				</g>
				<g>
					<path class="st50" d="M1629.8,1653.9c-0.2-0.5-4.2-13.3,0.3-18.7l1.3,1.1c-4,4.7,0,17,0,17.1L1629.8,1653.9z"/>
				</g>
				<g>
					<path class="st50" d="M1638,1653.9c-0.2-0.5-4.2-13.3,0.3-18.7l1.3,1.1c-4,4.7,0,17,0,17.1L1638,1653.9z"/>
				</g>
			</g>
		</g>
		<path class="st53" d="M1650.1,1191.9c0,0,17.6-6.1,30.2,9.8c0,0-1.9,3.8-6,5.7C1674.3,1207.4,1669.8,1191.9,1650.1,1191.9z"/>
	</g>
</g>
<g id="Layer_9">
</g>
<g id="Layer_8">
</g>
<g id="Layer_7">
	<g>
		<g>
			<rect x="1897.3" y="308.9" class="st54" width="612.6" height="485.7"/>
		</g>
		<g>
			<rect x="1895.9" y="307.2" class="st55" width="770.5" height="489.1"/>
			<polygon class="st56" points="2469.6,722.4 2092.2,722.4 2059.7,651.1 2502,651.1 			"/>
			<rect x="2274.4" y="422.9" class="st56" width="13" height="211.9"/>
			<polygon class="st56" points="2518.2,660.8 2043.5,660.8 2027.3,622.9 2534.5,622.9 			"/>
			<polygon class="st57" points="2306.4,452 2409.8,577.3 2326.6,607.6 			"/>
			<polygon class="st57" points="2261.7,452.9 2232.9,614.2 2107.6,559.1 			"/>
			<rect x="1895.9" y="715.9" class="st58" width="769.9" height="78.9"/>
			<path class="st57" d="M2167.9,451.6c0,0,6.2,49.9-86.2,24.5c0,0-63.7,25.3-90-16.3c0,0-78.7-31.1-6.2-57.2
				c0,0-2.5-53.1,73.7-40.1c0,0,72.5-33.5,90,18.8c0,0,46.2-8.2,37.5,27.8C2186.7,409.1,2216.7,438.5,2167.9,451.6z"/>
			<path class="st57" d="M2563.4,479.4c0,0,4.8,39.4-66.4,19.4c0,0-49.1,20-69.3-12.9c0,0-60.7-24.6-4.8-45.2c0,0-1.9-42,56.8-31.7
				c0,0,55.8-26.5,69.3,14.9c0,0,35.6-6.5,28.9,22C2577.9,445.8,2601,469.1,2563.4,479.4z"/>
		</g>
		<g>
			<polygon class="st59" points="1896.3,310.5 1864.3,281.4 2690.2,281.4 2663.5,310.5 			"/>
			<path class="st60" d="M2689.1,281.9l-25.8,28.1h-766.8l-30.9-28.1H2689.1 M2691.3,280.9H1863l33.1,30.1h767.6L2691.3,280.9
				L2691.3,280.9z"/>
		</g>
		<g>
			<polygon class="st59" points="1864.3,821.9 1896.3,792.8 2663.5,792.8 2690.2,821.9 			"/>
			<path class="st60" d="M2663.3,793.3l25.8,28.1h-823.5l30.9-28.1H2663.3 M2663.7,792.3h-767.6l-33.1,30.1h828.3L2663.7,792.3
				L2663.7,792.3z"/>
		</g>
		<g>
			<polygon class="st59" points="1863.5,282.4 1897.1,309.3 1897.1,794.5 1863.5,821.4 			"/>
			<path class="st60" d="M1864,283.5l32.6,26v484.8l-32.6,26V283.5 M1863,281.4v541l34.6-27.6V309L1863,281.4L1863,281.4z"/>
		</g>
	</g>
</g>
<g id="Layer_6">
	<g>
		<g>
			<g>
				<rect x="308" y="1346" class="st61" width="10.7" height="275.8"/>
				<polygon class="st53" points="318.4,1607 308.2,1607 261.7,1629 364.9,1629 				"/>
			</g>
			<g>
				<line class="st7" x1="393.5" y1="1357.4" x2="393.5" y2="1461.5"/>
				<path class="st62" d="M398.5,1468.1c0,2.8-2.2,5-5,5c-2.8,0-5-2.2-5-5c0-2.8,4.8-7.9,5-7.9
					C393.5,1460.2,398.5,1465.3,398.5,1468.1z"/>
			</g>
			
				<radialGradient id="SVGID_25_" cx="7431.6328" cy="-1734.2605" r="198.3837" fx="7431.3423" fy="-1718.863" gradientTransform="matrix(-1 0 0 -1 7754.585 -359.198)" gradientUnits="userSpaceOnUse">
				<stop  offset="0" style="stop-color:#FFFFFF"/>
				<stop  offset="0.8751" style="stop-color:#FFFFFF;stop-opacity:0.1249"/>
				<stop  offset="1" style="stop-color:#FFFFFF;stop-opacity:0"/>
			</radialGradient>
			<path class="st63" d="M491.7,1346c0,0,197.5,241.5-147.1,241.5c-247.8,0-275.5-117.8-275.5-117.8L131,1346H491.7z"/>
			<linearGradient id="SVGID_26_" gradientUnits="userSpaceOnUse" x1="313.3276" y1="1256.0801" x2="313.3276" y2="1116.1613">
				<stop  offset="0" style="stop-color:#FFFFFF"/>
				<stop  offset="0.1123" style="stop-color:#FFFDF9"/>
				<stop  offset="0.2586" style="stop-color:#FFF6E9"/>
				<stop  offset="0.4238" style="stop-color:#FEEBCE"/>
				<stop  offset="0.6029" style="stop-color:#FDDCA8"/>
				<stop  offset="0.7932" style="stop-color:#FCC978"/>
				<stop  offset="0.9901" style="stop-color:#FBB13E"/>
				<stop  offset="1" style="stop-color:#FBB03B"/>
			</linearGradient>
			<polygon class="st64" points="409.9,1167.2 216.8,1167.2 116.9,1369.7 509.7,1369.7 			"/>
		</g>
		<g>
			<polygon class="st65" points="142.2,1627 142.2,1807 179.2,1807 179.2,1773 448.2,1773 448.2,1807 486.2,1807 486.2,1627 			"/>
			<g>
				<g>
					<rect x="179.6" y="1654.3" class="st65" width="268.6" height="90.1"/>
					<rect x="179.6" y="1654.3" class="st66" width="7.6" height="90.1"/>
					<rect x="179.6" y="1654.3" class="st66" width="268.6" height="6.3"/>
					<rect x="443" y="1654.3" class="st54" width="5.1" height="90.1"/>
					<rect x="179.6" y="1739.9" class="st54" width="268.6" height="4.4"/>
				</g>
				<circle class="st54" cx="313.9" cy="1699.3" r="14.7"/>
			</g>
		</g>
	</g>
</g>
<g id="Layer_5">
	<pattern  id="SVGID_27_" xlink:href="#New_Pattern_2" patternTransform="matrix(1.713 0 0 1.713 6197.8652 1676.995)">
	</pattern>
	<path class="st67" d="M1039.6,1284c0,0,162.7-113.1,202.1,37.7"/>
	<g>
		<path class="st68" d="M1209.2,1325.1c0,0,10.7-15.1,61.1-11.4c0,0,25.3,16.7,15.2,66.8c0,0-8.4,4.4-16.9,6.7
			c-7.8,2.1-19.5,1.1-19.5,1.1s1.5,11,0.9,20.9c-0.8,14-2.7,21.5-2.7,21.5s-13.8,0.7-22.2-1.6c0,0,1.1-37.1-5.1-60.3
			c0,0-2.5,10.7-5.4,22.8c0,0-12.6,2.1-20.3-4.2C1194.3,1387.4,1200,1353.7,1209.2,1325.1z"/>
	</g>
</g>
<g id="Layer_4">
	<g>
		<g>
			
				<radialGradient id="SVGID_28_" cx="1374.9535" cy="2079.8936" r="36.6657" gradientTransform="matrix(0.9786 0.206 -0.206 0.9786 328.9991 -547.6481)" gradientUnits="userSpaceOnUse">
				<stop  offset="0" style="stop-color:#454545"/>
				<stop  offset="1" style="stop-color:#252525"/>
			</radialGradient>
			<path class="st69" d="M1239.5,1756.2c0,0,18.8-0.7,38.8,15.2c14.4,11.5,13.8,23.3,13.8,23.3l-97.4-22.3l6.9-21.9L1239.5,1756.2z"
				/>
			<g>
				<radialGradient id="SVGID_29_" cx="1036.6178" cy="1082.2866" r="36.7588" gradientUnits="userSpaceOnUse">
					<stop  offset="0" style="stop-color:#FCC58A"/>
					<stop  offset="0.575" style="stop-color:#FCC289"/>
					<stop  offset="0.962" style="stop-color:#FBB986"/>
					<stop  offset="1" style="stop-color:#FBB885"/>
				</radialGradient>
				<path class="st70" d="M1004.2,1068.3c4.9-18.3,23.3-29.3,41.2-24.6c17.9,4.7,28.5,23.4,23.6,41.8c-3.9,14.6-16.3,24.5-30.2,25.6
					c-2.3,7.8-10.3,12.5-18.1,10.4c-7.9-2.1-12.6-10.4-10.5-18.5c0.3-1.1,0.7-2.2,1.2-3.1
					C1004.3,1091.6,1001.2,1079.9,1004.2,1068.3z"/>
				<g>
					<path class="st71" d="M1032,1065.6c11.6-6.3,23.6,3.1,23.6,3.1s-11.3-16.5-26-8.8c-14.6,7.7-11.6,26.5-11.6,26.5
						S1019.2,1072.4,1032,1065.6z"/>
					<path class="st71" d="M1031.6,1084.9c-10.7-7.5-12.9-1.8-12.9-1.8s-0.2-11.6,15.4,0.8c8.6,6.8,1.1,15,1.1,15
						S1040,1090.8,1031.6,1084.9z"/>
				</g>
			</g>
			<linearGradient id="SVGID_30_" gradientUnits="userSpaceOnUse" x1="972.3879" y1="932.548" x2="1012.387" y2="1080.2217">
				<stop  offset="0" style="stop-color:#574537"/>
				<stop  offset="0.5758" style="stop-color:#433329"/>
				<stop  offset="1" style="stop-color:#32241D"/>
			</linearGradient>
			<path class="st72" d="M958.2,968.8c0,0,48.8,54,57.4,109.6c0,0,33.8-41.1-38.1-143.5L958.2,968.8z"/>
			<radialGradient id="SVGID_31_" cx="861.2679" cy="1136.9183" r="185.6274" gradientUnits="userSpaceOnUse">
				<stop  offset="0" style="stop-color:#FCC58A"/>
				<stop  offset="0.575" style="stop-color:#FCC289"/>
				<stop  offset="0.962" style="stop-color:#FBB986"/>
				<stop  offset="1" style="stop-color:#FBB885"/>
			</radialGradient>
			<path class="st73" d="M788.4,1322.2c0,0-8-3.4-17.1-17.7c-29.6-46.3-95.9-239.3-95.9-239.3l49.1-91.4l240.3-22.3
				c0,0,39,67.9,55.5,131.9c10.3,39.9,22.7,85.3,26.3,116.5c2.6,22.6-2.3,37.7-2.3,37.7S965.4,1314.2,788.4,1322.2z"/>
			<linearGradient id="SVGID_32_" gradientUnits="userSpaceOnUse" x1="660.0473" y1="1020.072" x2="699.8909" y2="1167.1719">
				<stop  offset="0" style="stop-color:#574537"/>
				<stop  offset="0.5758" style="stop-color:#433329"/>
				<stop  offset="1" style="stop-color:#32241D"/>
			</linearGradient>
			<path class="st74" d="M649.9,1026.6l55.7,42.4c0,0,29.1,45.4-10.3,98.5C695.3,1167.5,612.8,1093.9,649.9,1026.6z"/>
			
				<linearGradient id="SVGID_33_" gradientUnits="userSpaceOnUse" x1="807.1478" y1="967.221" x2="865.8802" y2="1184.057" gradientTransform="matrix(0.9969 7.881732e-02 -7.881732e-02 0.9969 67.9895 -199.2261)">
				<stop  offset="0" style="stop-color:#574537"/>
				<stop  offset="0.5758" style="stop-color:#433329"/>
				<stop  offset="1" style="stop-color:#32241D"/>
			</linearGradient>
			<path class="st75" d="M649.9,1027.9c0,0,21.2-139.6,134.6-173.6c0,0-19.2,27.9-18.4,36.2c0,0,26.5-28.4,57.1-39.4
				c42.3-15.1,104.5,22.8,119.3-44.5c0,0,27.7,22.8,18.9,59c0,0,13-12.5,12.3-31.4c0,0,28.9,44.4-3.3,89.3c0,0,17-7.9,22-30.6
				c0,0,2.7,151.2-288.5,176.5L649.9,1027.9z"/>
			<path class="st76" d="M798.6,870c54.2-36,71.5-3.3,117.7-20c20.2-7.3,24.1-21.3,24.1-21.3c-19,64.2-80.1,14-141.2,41.4H798.6z"/>
			<g>
				
					<radialGradient id="SVGID_34_" cx="853.7838" cy="444.1629" r="25.6863" gradientTransform="matrix(0.9247 -0.3808 0.3808 0.9247 -146.9773 1032.751)" gradientUnits="userSpaceOnUse">
					<stop  offset="0" style="stop-color:#454545"/>
					<stop  offset="1" style="stop-color:#101010"/>
				</radialGradient>
				<path class="st77" d="M832.7,1110.7c4.7,11.4-0.7,24.4-12.1,29.1c-11.4,4.7-24.4-0.7-29.1-12.1c-4.7-11.4,0.7-24.4,12.1-29.1
					C815,1093.8,828,1099.3,832.7,1110.7z"/>
				<path class="st10" d="M822.2,1106.5c1.6,4-0.3,8.6-4.3,10.2c-4,1.6-8.6-0.3-10.2-4.2c-1.6-4,0.3-8.6,4.2-10.2
					C816,1100.6,820.6,1102.5,822.2,1106.5z"/>
			</g>
			<g>
				
					<radialGradient id="SVGID_35_" cx="1002.5873" cy="451.7202" r="25.6863" gradientTransform="matrix(0.9247 -0.3808 0.3808 0.9247 -146.9773 1032.751)" gradientUnits="userSpaceOnUse">
					<stop  offset="0" style="stop-color:#454545"/>
					<stop  offset="1" style="stop-color:#101010"/>
				</radialGradient>
				<path class="st78" d="M973.1,1061c4.7,11.4-0.7,24.4-12.1,29.1c-11.4,4.7-24.4-0.7-29.1-12.1c-4.7-11.4,0.7-24.4,12.1-29.1
					C955.4,1044.2,968.5,1049.6,973.1,1061z"/>
				<path class="st10" d="M962.7,1056.8c1.6,4-0.3,8.6-4.3,10.2c-4,1.6-8.6-0.3-10.2-4.2c-1.6-4,0.3-8.6,4.2-10.2
					C956.5,1050.9,961,1052.9,962.7,1056.8z"/>
			</g>
			<path class="st79" d="M811.4,1194.1c0.1,8.9-7,16.1-15.9,16.3c-8.9,0.1-16.1-7-16.3-15.9c-0.1-8.9,7-16.1,15.9-16.3
				C804,1178.2,811.3,1185.3,811.4,1194.1z"/>
			<path class="st79" d="M1005.8,1130.8c0.1,8.9-7,16.1-15.9,16.3c-8.9,0.1-16.1-7-16.3-15.9c-0.1-8.9,7-16.1,15.9-16.3
				C998.4,1114.8,1005.7,1121.9,1005.8,1130.8z"/>
			<path class="st80" d="M1012,1017.4c-19.6,4.5-27.8,1.9-66.2,14.1c-29.8,9.6-46.3,20.9-76.1,30.2l-0.1,0
				c-29.9,9.4-49.8,9.5-79.8,18.7c-38.5,11.9-43.7,18.7-62.4,26.2c-1.7,0.7-2.8,2.6-1.7,5.5c1.6,5,3.3,9.3,4.7,13.7
				c1.3,4,4.4,2.5,7.8,6.5c10.8,12.9,16,38.4,34.7,46.8c5.3,2.4,14.3,4.6,21.8,3c36.2-7.8,67.1-15,69.4-55.1
				c0.4-8.3,2.6-15.6,2-27.6c1.7-8.8,2.3-7.3,11.9-10.9c9.9-2.6,9.6-4.2,16,2.1c6.3,10.1,12.3,14.9,17.4,21.5
				c24.7,31.6,54.3,19.8,88.4,5.5c7.1-3,13.1-9.9,16.1-14.9c10.5-17.5,0.3-41.5,1.7-58.2c0.4-5.3,4-5.8,2.7-9.8
				c-1.4-4.4-2.4-8.9-4-13.9C1015.7,1017.9,1013.7,1017,1012,1017.4z M860.3,1112.8c0.4,14.4-1.3,29.5-10.6,40.4
				c-6.3,7.5-16.4,13.9-28.9,18c-36.6,12.2-55.2,4.8-65.2-26.2c-4.7-14.6-11.5-27.3-5.3-36.9c7-10.7,28.1-17.7,44-22.6
				c16.4-5.1,43-10.6,55.3-4.3C859.9,1086.5,859.9,1099.5,860.3,1112.8z M1010.5,1065c9.6,31.1-1.5,47.8-38.5,58.7
				c-12.6,3.7-24.5,4.3-34,1.7c-13.8-3.7-23.9-15.1-31.8-27.1c-7.3-11.1-14.7-21.8-9.2-32c6.5-12.2,31.4-22.9,47.8-28.1
				c15.8-5,37.2-11.3,49-6.6C1004.4,1036,1006,1050.3,1010.5,1065z"/>
			<path class="st81" d="M884.6,1194c0,0,48,20.3,60.5-19.4"/>
			<polygon class="st80" points="725.9,1110.2 706.6,1154.8 716.7,1161.5 734.5,1128.3 			"/>
			<g>
				<radialGradient id="SVGID_36_" cx="708.7081" cy="1185.5819" r="35.9374" gradientUnits="userSpaceOnUse">
					<stop  offset="0" style="stop-color:#FCC58A"/>
					<stop  offset="0.575" style="stop-color:#FCC289"/>
					<stop  offset="0.962" style="stop-color:#FBB986"/>
					<stop  offset="1" style="stop-color:#FBB885"/>
				</radialGradient>
				<path class="st82" d="M726.7,1160.3c-14.3-12.4-35.8-11.2-47.9,2.8c-12.1,14-10.4,35.4,4,47.8c11.4,9.9,27.3,11.1,39.4,4.2
					c6.3,5.2,15.6,4.5,20.8-1.5c5.4-6.2,4.6-15.7-1.8-21.2c-0.9-0.8-1.8-1.4-2.8-1.9C739.8,1179.6,735.8,1168.1,726.7,1160.3z"/>
				<g>
					<path class="st71" d="M702.2,1173.6c-13.1,1.4-17.7,15.8-17.7,15.8s0.1-20,16.5-21.9c16.4-1.9,24.5,15.4,24.5,15.4
						S716.7,1172.1,702.2,1173.6z"/>
					<path class="st71" d="M713.5,1189.4c4.6-12.2,9.6-8.8,9.6-8.8s-6.3-9.7-12.3,9.3c-3.3,10.5,7.5,13,7.5,13
						S709.8,1199,713.5,1189.4z"/>
				</g>
			</g>
			<path class="st83" d="M846,1474.1c0,0-10.3,34.3,13.7,42.8c24,8.6,171.3-12,205.6-44.5c34.3-32.5,1.7-36,1.7-36L846,1474.1z"/>
			
				<radialGradient id="SVGID_37_" cx="1195.6942" cy="1994.5083" r="36.6657" gradientTransform="matrix(0.9916 0.1294 -0.1294 0.9916 193.5294 -341.0842)" gradientUnits="userSpaceOnUse">
				<stop  offset="0" style="stop-color:#454545"/>
				<stop  offset="1" style="stop-color:#252525"/>
			</radialGradient>
			<path class="st84" d="M1113.3,1777.3c0,0,18.7-2.2,39.9,12.1c15.3,10.3,15.5,22.2,15.5,22.2l-98.9-14.6l5.2-22.4L1113.3,1777.3z"
				/>
			<linearGradient id="SVGID_38_" gradientUnits="userSpaceOnUse" x1="882.4639" y1="1628.7266" x2="1104.6553" y2="1628.7266">
				<stop  offset="0.3878" style="stop-color:#192F4B"/>
				<stop  offset="1" style="stop-color:#426897"/>
			</linearGradient>
			<path class="st85" d="M884.6,1493.8c0,0,209-36,207.6,283.5"/>
			<linearGradient id="SVGID_39_" gradientUnits="userSpaceOnUse" x1="1009.229" y1="1608.17" x2="1231.4203" y2="1608.17">
				<stop  offset="0.3878" style="stop-color:#192F4B"/>
				<stop  offset="1" style="stop-color:#426897"/>
			</linearGradient>
			<path class="st86" d="M1011.3,1473.2c0,0,209-36,207.6,283.5"/>
			<pattern  id="SVGID_40_" xlink:href="#New_Pattern" patternTransform="matrix(2.9312 0 0 2.9312 16366.5859 7724.353)">
			</pattern>
			<path class="st87" d="M1045.5,1229.2c0,0,35.2,41.9,36.9,202.1c0,0-26.6,54.8-257.8,59.1c0,0,5.5,5.8-5.1-52.2
				c-11.2-61.5-31.8-116.3-31.8-116.3S985.6,1305.4,1045.5,1229.2z"/>
			<path class="st10" d="M965.5,1281.5c-15.2,5.9-33.3,11.9-33.3,11.9s12.2,3.8,24.3,11.1c11.9,7.2,20.6,16.3,20.6,16.3
				s18-24.2,13.2-50.2C990.3,1270.6,979.2,1276.2,965.5,1281.5z"/>
		</g>
	</g>
</g>
<g id="mouth">
	<path class="st88" d="M945.2,1158.3c-16.6,40.8-48,29.3-66,23.3s-30.7,10.7-9.3,22c35.3,18.7,84,8,96-32
		C972.9,1148,952.5,1140.3,945.2,1158.3z"/>
</g>
<g id="lino_arm">
	<path class="st89" d="M1491.8,1297c0,0,123.3-76,246.7,21.3"/>
</g>
<g id="Layer_2">
	<pattern  id="SVGID_41_" xlink:href="#New_Pattern_2" patternTransform="matrix(1.713 0 0 1.713 6197.8652 1676.995)">
	</pattern>
	<path class="st90" d="M811.2,1363.3c0,0-28.6,108.5,355.2,122.8"/>
	<g>
		
			<radialGradient id="SVGID_42_" cx="1402.084" cy="1474.9076" r="296.1187" fx="1401.6504" fy="1497.8907" gradientUnits="userSpaceOnUse">
			<stop  offset="0" style="stop-color:#FFFFFF"/>
			<stop  offset="0.8751" style="stop-color:#FFFFFF;stop-opacity:0.1249"/>
			<stop  offset="1" style="stop-color:#FFFFFF;stop-opacity:0"/>
		</radialGradient>
		<path class="st91" d="M1219.5,1474.1l-138.9-186.3c0,0-121.6-320.4,395.5-233.7c487,81.7,240.2,375.9,240.2,375.9l-165,104.6
			L1219.5,1474.1z"/>
		<path class="st80" d="M1203.5,1516.2l10.6-97.8c0,0,0-13.6,15.5-12.3s357.5,51.5,357.5,51.5s9.5,0.5,2.5,17.2
			c-7.1,16.6-52.3,94.8-52.3,94.8s-0.8,3.8-7.4,1.9c-6.5-1.9-321.9-48.5-321.9-48.5S1203.8,1522.7,1203.5,1516.2z"/>
	</g>
	<g>
		<path class="st68" d="M1168.2,1449.2c0,0-13.3,32.3-8.3,76c0,0,32.7,13.4,75.8,2.8c0,0,15.7-26.3,19.6-58.4c0,0-27-1.2-47.4-5.8
			c0,0,2.5-22.9,2.5-22.9C1196.1,1441,1183.7,1443.5,1168.2,1449.2z"/>
	</g>
</g>
</svg>
