<svg xmlns="http://www.w3.org/2000/svg" xmlns:xlink="http://www.w3.org/1999/xlink" width="2409" height="2025.9"><style>.st0{fill:none}.st1{fill:#29abe2}.st2{opacity:.4}.st10{fill:#fff}.st17{fill:#6b6b6b}.st18{fill:#4f4f4f}.st20{fill:#3a3a3a}.st37{fill:#ce985e}.st49{fill:#7c4119}.st50{fill:#333}.st51{fill:#e6e6e6}.st52{fill:#ccc}.st53{fill:#666}.st54{fill:#1b1464}.st56,.st57{fill:#ae5037;stroke:#000;stroke-miterlimit:10}.st57{fill:#fff}.st59{fill:#c48661}.st60{fill:#998675}.st65{fill:#2e3192}.st66{fill:#0071bc}.st68{fill:#fbc48a}.st71{fill:#856848}.st80{fill:#1a1a1a}</style><pattern x="258.2" y="24" width="242" height="242" patternUnits="userSpaceOnUse" id="New_Pattern" viewBox="0 -242 242 242" overflow="visible"><path class="st0" d="M0-242h242V0H0z"/><path class="st1" d="M0-242h242V0H0z"/><path class="st2" d="M0-242h11V0H0zm22 0h11V0H22zm22 0h11V0H44zm22 0h11V0H66zm22 0h11V0H88zm22 0h11V0h-11zm22 0h11V0h-11zm22 0h11V0h-11zm22 0h11V0h-11zm22 0h11V0h-11zm22 0h11V0h-11z"/><path class="st2" d="M0-242h242v11H0zm0 22h242v11H0zm0 22h242v11H0zm0 22h242v11H0zm0 22h242v11H0zm0 22h242v11H0zm0 22h242v11H0zm0 22h242v11H0zm0 22h242v11H0zm0 22h242v11H0zm0 22h242v11H0z"/></pattern><pattern x="258.2" y="24" width="242" height="242" patternUnits="userSpaceOnUse" id="New_Pattern_2" viewBox="241.7 -242 242 242" overflow="visible"><path class="st0" d="M241.7-242h242V0h-242z"/><path class="st1" d="M241.7-242h242V0h-242z"/><path class="st2" d="M472.7-242h11V0h-11zm-22 0h11V0h-11zm-22 0h11V0h-11zm-22 0h11V0h-11zm-22 0h11V0h-11zm-22 0h11V0h-11zm-22 0h11V0h-11zm-22 0h11V0h-11zm-22 0h11V0h-11zm-22 0h11V0h-11zm-22 0h11V0h-11z"/><path class="st2" d="M241.7-11h242V0h-242zm0-22h242v11h-242zm0-22h242v11h-242zm0-22h242v11h-242zm0-22h242v11h-242zm0-22h242v11h-242zm0-22h242v11h-242zm0-22h242v11h-242zm0-22h242v11h-242zm0-22h242v11h-242zm0-22h242v11h-242z"/><path d="M242-242h242V0H242zM0-242h242V0H0z" opacity=".12"/></pattern><g id="Layer_1"><radialGradient id="SVGID_1_" cx="1210.411" cy="412.685" r="2006.512" gradientUnits="userSpaceOnUse"><stop offset="0" stop-color="#fff3d7"/><stop offset="1" stop-color="#c7b299"/></radialGradient><path fill="url(#SVGID_1_)" d="M0 0h2409v2025.9H0z"/><path fill="#fff3d7" d="M14.2 15.8v194.8l2383-1.8V16.5z"/><path fill="#a67c52" d="M-25.8 1702.1V2043l2462-3.2v-336.4z"/><ellipse cx="1206.5" cy="107.3" rx="86.7" ry="20.8" fill="#ccc" stroke="#000" stroke-miterlimit="10"/><path fill="none" stroke="#000" stroke-width="3" stroke-miterlimit="10" d="M1206.5 105.8v293.3"/><circle class="st10" cx="1206.5" cy="432.6" r="148.1"/><radialGradient id="SVGID_2_" cx="1206.462" cy="432.627" r="355.11" gradientUnits="userSpaceOnUse"><stop offset=".298" stop-color="#fff"/><stop offset=".32" stop-color="#fff" stop-opacity=".967"/><stop offset=".934" stop-color="#fff" stop-opacity="0"/></radialGradient><circle cx="1206.5" cy="432.6" r="355.1" fill="url(#SVGID_2_)"/></g><g id="Layer_11"><ellipse cx="1418.6" cy="1867.7" rx="949.2" ry="182.7" fill="#d4145a"/><ellipse cx="1418.6" cy="1867.7" rx="681.6" ry="131.2" fill="#662d91"/><ellipse class="st1" cx="1418.6" cy="1867.7" rx="445.5" ry="85.7"/><ellipse cx="1418.6" cy="1867.7" rx="184.2" ry="35.5" fill="#fbb03b"/></g><g id="SOFA"><linearGradient id="SVGID_3_" gradientUnits="userSpaceOnUse" x1="1404.465" y1="1884.766" x2="1404.465" y2="1652.512"><stop offset="0" stop-color="#4f4f4f"/><stop offset="1"/></linearGradient><path fill="url(#SVGID_3_)" d="M720.7 1599.3h1367.6v278.9H720.7z"/><linearGradient id="SVGID_4_" gradientUnits="userSpaceOnUse" x1="945.936" y1="1240.916" x2="945.936" y2="1463.255"><stop offset="0" stop-color="#6b6b6b"/><stop offset="1" stop-color="#4f4f4f"/></linearGradient><path d="M1180 1225.4s.9-94.9-56-102.6c-183.9-24.9-265.5 5.1-323.2 33.3-57.7 28.2-110.3 107.7-101.3 232.1s26.9 253.9 26.9 253.9l466.8-9-13.2-407.7z" fill="url(#SVGID_4_)"/><path class="st17" d="M798.7 1596.4s18-57.3-8.1-150.5c-22.3-79.7-119.3-84.6-170.6-18s-70.5 83.4-60.3 175.7c13.3 118.7 239-7.2 239-7.2z"/><path class="st18" d="M799.6 1890h-97.8c-25.8 0-49.7-41.2-49.7-41.2s-74.4-112.9-92.3-215.5c-15.7-89.7 0-171.9 115.4-177 115.4-5.1 125.7 95 125.7 95l-1.3 338.7z"/><linearGradient id="SVGID_5_" gradientUnits="userSpaceOnUse" x1="997.068" y1="1443.549" x2="997.068" y2="1695.397"><stop offset="0" stop-color="#6b6b6b"/><stop offset="1" stop-color="#4f4f4f"/></linearGradient><path d="M839.8 1514.4c-11.9 3.7-38.5 7.7-38.9 59-.5 60.5-.2 69.9-.2 69.9s-3.6 32.7 16 32.7c46.2 0 335.1-6 335.1-6s41.9 2.6 41.9-41-2.6-90.6-2.6-90.6-3.6-27.8-55.6-32.1c-62.3-5.2-265.8-1.4-295.7 8.1z" fill="url(#SVGID_5_)"/><path class="st20" d="M742.2 1790.9v-163.7s8-72.2-55.3-71c-43.6.9-61.2 35.4-60.3 61.1 1.3 39.3 44.1 130.8 90.7 184.7 8.3 9.6 22.9 17.6 24.9-11.1z"/><linearGradient id="SVGID_6_" gradientUnits="userSpaceOnUse" x1="1891.236" y1="1240.916" x2="1891.236" y2="1463.255"><stop offset="0" stop-color="#6b6b6b"/><stop offset="1" stop-color="#4f4f4f"/></linearGradient><path d="M1657.1 1225.4s-.9-94.9 56-102.6c183.9-24.9 265.5 5.1 323.2 33.3 57.7 28.2 110.3 107.7 101.3 232.1s-26.9 253.9-26.9 253.9l-466.8-9 13.2-407.7z" fill="url(#SVGID_6_)"/><path class="st17" d="M2038.4 1596.4s-18-57.3 8.1-150.5c22.3-79.7 119.3-84.6 170.6-18 51.3 66.7 70.5 83.4 60.3 175.7-13.2 118.7-239-7.2-239-7.2z"/><path class="st18" d="M2037.6 1890h97.8c25.8 0 49.7-41.2 49.7-41.2s74.4-112.9 92.3-215.5c15.7-89.7 0-171.9-115.4-177-115.4-5.1-125.7 95-125.7 95l1.3 338.7z"/><linearGradient id="SVGID_7_" gradientUnits="userSpaceOnUse" x1="1840.105" y1="1443.549" x2="1840.105" y2="1695.397"><stop offset="0" stop-color="#6b6b6b"/><stop offset="1" stop-color="#4f4f4f"/></linearGradient><path d="M1997.4 1514.4c11.9 3.7 38.5 7.7 38.9 59 .5 60.5.2 69.9.2 69.9s3.6 32.7-16 32.7c-46.2 0-335.1-6-335.1-6s-41.9 2.6-41.9-41 2.6-90.6 2.6-90.6 3.6-27.8 55.6-32.1c62.3-5.2 265.8-1.4 295.7 8.1z" fill="url(#SVGID_7_)"/><linearGradient id="SVGID_8_" gradientUnits="userSpaceOnUse" x1="1421.782" y1="1240.923" x2="1421.782" y2="1463.27"><stop offset="0" stop-color="#6b6b6b"/><stop offset="1" stop-color="#4f4f4f"/></linearGradient><path d="M1631.9 1110.4c-88.7-38.2-202.2-37.4-209.9-37.4-7.7 0-121.6-.8-210.3 37.4 0 0-38.5 8.5-38.5 84.6s18.8 361 18.8 361l228.7-16h240.2s9.4-268.7 9.4-344.8-38.4-84.8-38.4-84.8z" fill="url(#SVGID_8_)"/><linearGradient id="SVGID_9_" gradientUnits="userSpaceOnUse" x1="1429.878" y1="1443.549" x2="1429.878" y2="1695.397"><stop offset="0" stop-color="#6b6b6b"/><stop offset="1" stop-color="#4f4f4f"/></linearGradient><path d="M1230.9 1514.4c-11.9 3.7-38.9 10.3-38.9 31.6 0 60.5-.2 97.2-.2 97.2s-3.6 32.7 16 32.7c46.2 0 418.5-6 418.5-6s41.9 2.6 41.9-41-2.6-78.7-2.6-78.7-3.6-39.8-55.6-44c-62.3-5.1-349.2-1.3-379.1 8.2z" fill="url(#SVGID_9_)"/><path class="st20" d="M2094.2 1790.9v-163.7s-7.6-72.2 55.7-71c43.6.9 61.4 35.4 60.6 61.1-1.3 39.3-44.5 130.8-91 184.7-8.4 9.6-22.3 17.6-25.3-11.1z"/></g><g id="tuttolina"><radialGradient id="SVGID_10_" cx="1196.294" cy="845.642" r="436.264" gradientUnits="userSpaceOnUse"><stop offset="0" stop-color="#574537"/><stop offset=".684" stop-color="#554335"/><stop offset="1" stop-color="#32241d"/></radialGradient><path d="M1632.5 1277c-14.7-8.2 55.5-99.3 50.6-189.1-9.1-166.5-89.7-270-228.4-279.8-72.6-5.1-183.5 55.1-200.9 71.4-15.7 14.7-46.4 104.2-52.5 194l13.6-8.4s-16.3 90.6 15.5 150.5c38 61.2 112 110.7 220.8 126.1 161.5 22.8 235.2-66.5 235.2-66.5s-39.2 10-53.9 1.8z" fill="url(#SVGID_10_)"/><linearGradient id="SVGID_11_" gradientUnits="userSpaceOnUse" x1="1464.508" y1="2105.789" x2="1464.508" y2="2016.585" gradientTransform="rotate(-14.129 -470.901 2149.772)"><stop offset="0" stop-color="#fcc58a"/><stop offset=".329" stop-color="#fac287"/><stop offset=".55" stop-color="#f6b97f"/><stop offset=".739" stop-color="#edaa71"/><stop offset=".853" stop-color="#e69d65"/><stop offset="1" stop-color="#ce8857"/></linearGradient><path d="M1372.3 1758c-7-96.3-17.7-174.7.9-261.9 22.3-104.7 22.4-72.6 30.9-43.3 8.5 29.3-18.3 59.6-13.8 127.3 3.4 50.3 12.6 90.2 23.9 138.3 18.8 79.7-38.3 88.7-41.9 39.6z" fill="url(#SVGID_11_)"/><radialGradient id="SVGID_12_" cx="1436.752" cy="2141.242" r="35.703" gradientTransform="rotate(-11.946 -459.84 2144.902)" gradientUnits="userSpaceOnUse"><stop offset="0" stop-color="#454545"/><stop offset="1" stop-color="#252525"/></radialGradient><path d="M1411.7 1701.5c1.9 34.2-9.9 59.7-26.2 59.8-9.3.1-13.1-5.4-15.3-10.4 1.2 9.7 2.1 17.4 2.6 21.9 2.9 22.2 36.2 31.6 44-4.9 5-22.4 1.1-43.5-5.1-66.4z" fill="url(#SVGID_12_)"/><linearGradient id="SVGID_13_" gradientUnits="userSpaceOnUse" x1="5928.207" y1="3229.424" x2="5928.207" y2="3140.22" gradientTransform="scale(-1 1) rotate(-14.129 -4206.087 32289.117)"><stop offset="0" stop-color="#fcc58a"/><stop offset=".329" stop-color="#fac287"/><stop offset=".55" stop-color="#f6b97f"/><stop offset=".739" stop-color="#edaa71"/><stop offset=".853" stop-color="#e69d65"/><stop offset="1" stop-color="#ce8857"/></linearGradient><path d="M1494.9 1758c7-96.3 17.7-174.7-.9-261.9-22.3-104.7-22.4-72.6-30.9-43.3-8.5 29.3 18.3 59.6 13.8 127.3-3.4 50.3-12.6 90.2-23.9 138.3-18.7 79.7 38.4 88.7 41.9 39.6z" fill="url(#SVGID_13_)"/><radialGradient id="SVGID_14_" cx="5939.541" cy="3093.896" r="35.032" gradientTransform="scale(-1 1) rotate(-11.946 -4194.628 37841.14)" gradientUnits="userSpaceOnUse"><stop offset="0" stop-color="#454545"/><stop offset="1" stop-color="#252525"/></radialGradient><path d="M1455.9 1702.4c-1.9 33.5 9.7 58.5 25.7 58.7 9.1.1 12.8-5.3 15-10.2-1.1 9.5-2 17.1-2.6 21.5-2.9 21.8-35.5 31-43.2-4.8-4.8-22-1-42.7 5.1-65.2z" fill="url(#SVGID_14_)"/><radialGradient id="SVGID_15_" cx="991.44" cy="1302.76" r="620.87" gradientUnits="userSpaceOnUse"><stop offset=".65" stop-color="#db1e27"/><stop offset="1" stop-color="#4e0f10"/></radialGradient><path d="M1421.6 1340.6c45.7 0 81.8-6.7 123.8 97 25.7 63.6-1.9 89.5-1.9 89.5h-235.8s-9.4-11.7-4.2-55.8c8.6-73.2 46.3-130.7 118.1-130.7z" fill="url(#SVGID_15_)"/><path d="M1494.9 1357.2c-25.9-20.9-50.9-16.3-78.3-16.3-29.3 0-45.4 7.1-65.3 24.5 12.1 6.6 29.8 16.3 68.5 16.3 34 0 57.3-12.8 75.1-24.5z" fill="#661412"/><linearGradient id="SVGID_16_" gradientUnits="userSpaceOnUse" x1="1460.201" y1="1182.771" x2="1460.201" y2="1033.132" gradientTransform="rotate(8.19 -424.43 2013.422)"><stop offset="0" stop-color="#fcc58a"/><stop offset=".385" stop-color="#fac287"/><stop offset=".645" stop-color="#f6b97f"/><stop offset=".867" stop-color="#edaa71"/><stop offset="1" stop-color="#e69d65"/></linearGradient><path d="M1516.9 1267.3c9.2 10.4 46.4 47.8 56 69.4 6.2 13.8 21.3 69.3 14.4 82.2-4.7 8.8-18 20.7-19.9 33.6-2 12.9 2.4 33.2 2.4 33.2s8 1.2 9.6-3.1c1.5-4.3 1.4-21.7 4.2-19.1 2.7 2.7 8 31.1 6.3 48.4 0 0 12.8.8 17.2-7 0 0 8.6.2 11.8-7.1 0 0 9.3-5.6 10.9-13 0 0 3.2-27-.1-37.9-5.1-16.9-5.4-18.7-10.1-35.7-7.3-26.9-16.5-65.3-33-95.1-11-19.9-56.7-64.4-64.6-66.4-8-1.9-9.4 12.7-5.1 17.6z" fill="url(#SVGID_16_)"/><radialGradient id="SVGID_17_" cx="1340.909" cy="1124.879" r="306.541" gradientTransform="matrix(.9999 0 0 1 .025 0)" gradientUnits="userSpaceOnUse"><stop offset=".65" stop-color="#db1e27"/><stop offset="1" stop-color="#4e0f10"/></radialGradient><path d="M1294.2 1233.2s213.7-9.8 261-8.2c0 0-16.4 89.9-76.7 125.6-44 26.1-99.3 15.6-130.5-6.5-39.1-27.7-53.8-110.9-53.8-110.9z" fill="url(#SVGID_17_)"/><linearGradient id="SVGID_18_" gradientUnits="userSpaceOnUse" x1="1422.321" y1="1312.228" x2="1422.321" y2="1238.806"><stop offset="0" stop-color="#fcc58a"/><stop offset=".285" stop-color="#f9c287"/><stop offset=".476" stop-color="#f0ba7f"/><stop offset=".577" stop-color="#e8b277"/><stop offset=".908" stop-color="#ce985e"/></linearGradient><path d="M1379.1 1212c1.5 4.3 18.6 75.4 35.9 78.9 8.2 1.6 39.2-62.5 50.6-85.4l-86.5 6.5z" fill="url(#SVGID_18_)"/><path d="M1390 1248.4l-24 19.1-7.6-35.4 20.7-20.1zm55.4 1.1l25.1 14.2 18.4-65.3-28.2 5.4z" fill="#721514"/><radialGradient id="SVGID_19_" cx="1469.59" cy="943.771" r="251.845" gradientTransform="matrix(.9601 -.0354 .0383 .9617 -110.061 90.851)" gradientUnits="userSpaceOnUse"><stop offset="0" stop-color="#fcc58a"/><stop offset=".575" stop-color="#fcc289"/><stop offset=".962" stop-color="#fbb986"/><stop offset="1" stop-color="#fbb885"/></radialGradient><path d="M1431.6 841.8c52.2 2.4 94.5 35.9 125.3 103.6 19.1 42 52.1 168 4.2 224.4-30.3 35.6-75 59.6-131.3 59.6-45.8 0-125.4-14.5-155.5-62.7-27-43.3-16.3-116.9-.2-184.6 29.4-124 114.2-142.3 157.5-140.3z" fill="url(#SVGID_19_)"/><path class="st37" d="M1449.9 901.1c-80.3-25.5-108.6-43.7-133.2 3.5-2.6 5.2-14.5 5.8-16.8 11.2 5.7 26.7 57.2 46.9 78.4 56 0 0 .7-33 5.1-28.3 81.8 87.9 117.6 112.2 193.9 118.2 2.9-29.9-47.1-135.2-127.4-160.6z"/><radialGradient id="SVGID_20_" cx="1234.118" cy="865.447" r="392.329" gradientUnits="userSpaceOnUse"><stop offset="0" stop-color="#574537"/><stop offset=".684" stop-color="#554335"/><stop offset="1" stop-color="#32241d"/></radialGradient><path d="M1611.7 1179.7s-89.5-78.1-55.5-191.6c0 0 68 6.3 72.2 7.2-11 88.6-17.3 126.2-16.7 184.4z" fill="url(#SVGID_20_)"/><path d="M1367.1 1153.6s17.5 11.7 44.3 13.6c37.4 2.7 64-16.6 64-16.6" fill="none" stroke="#bd4747" stroke-width="4" stroke-linecap="round" stroke-miterlimit="10"/><path d="M1301.1 1126c0 10.7 8.7 19.4 19.4 19.4s19.4-8.7 19.4-19.4-8.7-19.4-19.4-19.4-19.4 8.7-19.4 19.4zm203.4 0c0 10.7 8.7 19.4 19.4 19.4s19.4-8.7 19.4-19.4-8.7-19.4-19.4-19.4-19.4 8.7-19.4 19.4z" fill="#ffa370"/><path class="st37" d="M1533.7 1068.4c0 15.5-12.6 28.1-28.1 28.1-15.5 0-28.1-12.6-28.1-28.1 0-15.5 12.6-28.1 28.1-28.1 15.6.1 28.1 12.6 28.1 28.1z"/><radialGradient id="SVGID_21_" cx="2571.561" cy="1066.442" r="24.805" gradientTransform="translate(-1065.906)" gradientUnits="userSpaceOnUse"><stop offset="0" stop-color="#333"/><stop offset=".456" stop-color="#313131"/><stop offset=".7" stop-color="#292929"/><stop offset=".894" stop-color="#1b1b1b"/><stop offset="1" stop-color="#101010"/></radialGradient><path d="M1530.5 1066.4c0 13.7-11.1 24.8-24.8 24.8s-24.8-11.1-24.8-24.8c0-13.7 11.1-24.8 24.8-24.8s24.8 11.1 24.8 24.8z" fill="url(#SVGID_21_)"/><path class="st10" d="M1487.7 1054.5c-2.9 5.2-1.6 11.5 2.9 14s10.5.3 13.4-4.9c2.9-5.2 1.6-11.5-2.9-14-4.4-2.5-10.5-.3-13.4 4.9z"/><path d="M1538.6 1071.3s10.7 4.6 15.1.8c4.4-3.7-.5-8.6-.5-8.6s-11 4-15 3.3l.4 4.5zm-7-21.8s12.7-.4 15.7-5.7-4-7.7-4-7.7-9.6 8.4-14 9.4l2.3 4zm-10.5-17.8s11-7.4 10.8-13.7c-.1-6.2-7.5-4.4-7.5-4.4s-4.1 12.5-7.4 15.9l4.1 2.2zm-223.2 35.1s-10.7 4.4-15.1.6c-4.3-3.8.6-8.6.6-8.6s10.9 4.2 15 3.5l-.5 4.5zm7.4-21.7s-12.7-.5-15.6-5.9c-2.9-5.3 4.1-7.6 4.1-7.6s9.4 8.5 13.8 9.6l-2.3 3.9zm10.7-17.6s-10.9-7.6-10.7-13.8c.2-6.2 7.5-4.3 7.5-4.3s3.9 12.6 7.2 16l-4 2.1z" fill="#403228"/><path class="st37" d="M1298.1 1068.4c0 15.5 12.6 28.1 28 28.1 15.5 0 28.1-12.6 28.1-28.1 0-15.5-12.6-28.1-28.1-28.1-15.4.1-28 12.6-28 28.1z"/><radialGradient id="SVGID_22_" cx="56.835" cy="1066.442" r="24.805" gradientTransform="matrix(-1 0 0 1 1383.002 0)" gradientUnits="userSpaceOnUse"><stop offset="0" stop-color="#333"/><stop offset=".456" stop-color="#313131"/><stop offset=".7" stop-color="#292929"/><stop offset=".894" stop-color="#1b1b1b"/><stop offset="1" stop-color="#101010"/></radialGradient><path d="M1301.4 1066.4c0 13.7 11.1 24.8 24.8 24.8 13.7 0 24.8-11.1 24.8-24.8 0-13.7-11.1-24.8-24.8-24.8-13.7 0-24.8 11.1-24.8 24.8z" fill="url(#SVGID_22_)"/><path class="st10" d="M1308.2 1054.5c-2.9 5.2-1.6 11.5 2.9 14s10.5.3 13.4-4.9c2.9-5.2 1.6-11.5-2.9-14-4.4-2.5-10.5-.3-13.4 4.9z"/><radialGradient id="SVGID_23_" cx="1074.669" cy="953.518" r="513.877" gradientUnits="userSpaceOnUse"><stop offset="0" stop-color="#574537"/><stop offset=".684" stop-color="#554335"/><stop offset="1" stop-color="#32241d"/></radialGradient><path d="M1286.9 905.1c5.5 13.2 64.1 55.6 86.3 56.6 5.9.3-19-50.6-14.1-46.5 38.3 33.1 107.8 96.9 163.6 122.2 86.5 39.2 107.7 66.9 137.4 59.8 0 0 7.3-186.3-120.2-237.3-60.7-24.2-188.3-56.4-253 45.2z" fill="url(#SVGID_23_)"/><path d="M1266 905.8c-3 6.4-6.9 12.3-7.5 13.3-18.7 33.9-31.7 74.3-41 111.7-2.8-18 5.5-38.6 10.4-55.6 6.4-21.9 13-44.5 22.8-65.2 1.6-3.5 8.9-22 14.1-21.8 7.6.5 5.1 9.4 1.2 17.6z" fill="#7d634f"/><path d="M1344.1 868.5c28.5 18.6 87.7 113.9 184.2 137.3 0 0-52.5-17.2-108.8-79s-58.1-68.8-75.4-58.3z" opacity=".4" fill="#7d634f"/><path d="M1570.1 1172.2l-13.9-22.4 13.8-27.9 27.7-5.6 13.9 22.4-13.8 27.9zm-296.7 0l13.9-22.4-13.7-27.9-27.7-5.6-13.9 22.4 13.7 27.9z" fill="#7d1920"/></g><g id="tuttolina-arm"><linearGradient id="SVGID_24_" gradientUnits="userSpaceOnUse" x1="6062.392" y1="-621.512" x2="6062.392" y2="-771.15" gradientTransform="scale(-1 1) rotate(20.671 -3348.643 -19866.163)"><stop offset="0" stop-color="#fcc58a"/><stop offset=".385" stop-color="#fac287"/><stop offset=".645" stop-color="#f6b97f"/><stop offset=".867" stop-color="#edaa71"/><stop offset="1" stop-color="#e69d65"/></linearGradient><path d="M1336.7 1264.8c-6.7 12.2-34.9 56.7-39.7 79.9-3.1 14.8-5.8 72.3 3.7 83.4 6.5 7.6 22 16.3 26.7 28.5 4.7 12.2 4.9 32.9 4.9 32.9s-7.6 2.9-10-1c-2.4-3.8-6.1-20.9-8.2-17.7-2.1 3.2-1.1 32.1 4.4 48.6 0 0-12.3 3.6-18.3-3.1 0 0-8.3 2-13.1-4.4 0 0-10.3-3.5-13.4-10.3 0 0-9-25.7-8.1-37.1 1.3-17.6 1.3-19.5 2.1-37.1 1.3-27.8 2-67.3 11.6-100 6.5-21.8 41.4-75.1 48.7-78.8 7.3-3.5 11.9 10.4 8.7 16.2z" fill="url(#SVGID_24_)"/></g><g id="DOG-tail"><path class="st10" d="M1903.6 1519.5s94 35.1 100.5-63.7c0 0 35.1 116-116 103l15.5-39.3z"/><path class="st49" d="M2002.5 1507.9c3-3.8 3.5-9.5 3.2-14.2-.4-5.9-2.7-12-5.4-17-8.6 33.9-30.7 45.3-51.8 47.7 1.8 3.4 3.5 7.9 6.4 9.8 3.9 2.5 8.9 3.2 13.4 3.5 4.7.4 9.6.2 12.9-3.6 4-4.5 3-11.3 6.5-16.1 3.9-5.3 10.8-5.1 14.8-10.1z"/></g><g id="DOG"><path class="st10" d="M1729.4 1758.1l-1.4-24.5c-5.5-95.6 27-157.1 55.2-191.7 31.2-38.4 64.6-53.7 66-54.3l20.1 44.7.1-.1c-.3.1-25.8 12.2-49.8 42.5-32 40.4-46.4 92.9-42.7 156.1l1.4 24.5-48.9 2.8z"/><path class="st50" d="M1734.9 1758.2c-.2-.5-5-13-.8-18.6l1.3 1c-3.7 4.9 1 16.9 1 17.1l-1.5.5zm8.2-.5c-.2-.5-5-13-.8-18.6l1.3 1c-3.7 4.9 1 16.9 1 17.1l-1.5.5zm8.2-.4c-.2-.5-5-13-.8-18.6l1.3 1c-3.7 4.9 1 16.9 1 17.1l-1.5.5z"/><path class="st10" d="M1883.2 1485c-11.7-20.5 14.9-59.4 9-84.4-3-12.6-16.1-16.9-23.3-29.5-18.8-32.6-31.5-44.8-4.4-114.4 20.3-52.3 51.7-38.6 65.9-28.5-2.3-73.1-4.1-137.7-4.1-137.7L1736.7 1194s-27.2 161.8-30.5 234.2c-1.7 38.1-15.9 153.4 105.7 158 72 2.7 104-34.1 118.3-70.9-19.3-1.9-39-13.5-47-30.3z"/><path class="st49" d="M1935.8 1373.4c-1.6-39.4-2.9-93.7-4.6-144.5-13.7-10.1-46-25.5-66.7 27.9-27.1 69.6-14.4 81.8 4.4 114.4 7.2 12.6 20.4 16.9 23.3 29.5 5.9 25-20.7 63.8-9 84.4 8.1 17 28.2 28.6 47.6 30.4 11.9-30.1 11-60.8 11-70.2 0-21-4.9-43.6-6-71.9z"/><path class="st51" d="M1715.7 1334.2c-4.6 35.1-8.4 69.7-9.5 94.1-.4 8.5-1.4 20.8-1.4 34.8 5.4-4.1 8.7-10.8 8.1-18.1-2.9-33-3.3-65.9 12-80.5 23.9-22.9 54.8-28.1 55.6-28 10 1.4-28.9-23.6-64.8-2.3zm16.9-115.3l68.1-35.2s-17.2 26.3-37.3 44.3c-15.8 14.2-35.5 21-35.5 21l4.7-30.1z"/><path class="st10" d="M1909.4 1046.5c-98.9-115.2-170.3-69-232.9 18.8-46.6 65.4-61.3 147.9-29.4 170 31.9 22.1 149-41.1 149-41.1s191.8-56.2 113.3-147.7z"/><ellipse cx="1776.2" cy="1100.8" rx="19.6" ry="20.8"/><ellipse class="st52" cx="1787.9" cy="1095.3" rx="4" ry="4.2"/><ellipse cx="1690" cy="1090.4" rx="15.9" ry="19.1"/><ellipse class="st52" cx="1698.3" cy="1085" rx="4.1" ry="4.1"/><path d="M1646.3 1190.3s22.1-13.1 38.4 13.1c0 0-9 14.7-31 17.2-.1-.1-8.3-5-7.4-30.3zm155.2-122.6c-1.4 0-2.7-.9-3.1-2.3-9.6-30.2-29.4-25.6-29.6-25.6-1.7.4-3.5-.6-4-2.4-.4-1.8.6-3.5 2.4-4 .3-.1 26-6 37.4 30 .5 1.7-.4 3.6-2.1 4.1-.3.1-.7.2-1 .2zm-110.8-22.8c-.7 0-1.4-.2-2-.7-1.4-1.1-1.7-3.1-.6-4.6 11.8-15.5 23.3-19 31-19.2 8.5-.2 14.1 3.5 14.4 3.6 1.5 1 1.9 3 .9 4.5-1 1.5-3 1.9-4.5.9-.7-.5-17.5-10.9-36.5 14.1-.7.9-1.7 1.4-2.7 1.4z"/><path class="st51" d="M1925.2 1101.5c-8.9-21.7-29.9-37-64.6-30.1 0 0 48.7 23.2 50 85.4.3 14.4 9.4 21.9 18.1 21.2 0 0 .2-.9.4-2.6-.5-14.5-3-68.8-3.9-73.9z"/><path class="st10" d="M1967 1084.3c-28.6-60.9-114.3-31.9-114.3-31.9l6.5 19.6c61.6.5 65.9 35.4 68.6 75.2.9 12.7 5.8 21.7 12.2 26.5-11-59.8 12.3-81.7 27-89.4z"/><path class="st49" d="M1967.2 1084.2c-14.8 7.7-38.4 29.6-27 90.1 13.7 10.3 34.1 1.8 36-28.8 1.6-26.7-2-46.6-9-61.3z"/><path class="st10" d="M1672.9 1457.4c-10.5 0-19.4-8-20.3-18.6-4.1-46.2 6.5-81.6 31.4-105.2 38.5-36.6 96.1-28.8 98.6-28.5 11.2 1.6 18.9 11.9 17.3 23.1-1.6 11.1-11.9 18.9-23 17.3-.8-.1-41-5.1-64.9 17.8-15.3 14.7-21.6 38.8-18.7 71.8 1 11.2-7.3 21.2-18.5 22.2-.7.1-1.3.1-1.9.1z"/><path class="st50" d="M1678.6 1457c-.1 0-.3 0-.4-.1-8.7-5.2-5.1-18.8-4.9-19.4.1-.4.6-.7 1-.6.4.1.7.6.6 1 0 .1-3.5 13 4.2 17.5.4.2.5.7.3 1.1-.2.3-.5.5-.8.5zm-8.2 0c-.1 0-.3 0-.4-.1-7.7-4.6-4.5-16.5-4.4-17 .1-.4.6-.7 1-.6.4.1.7.6.6 1 0 .1-3 11.3 3.6 15.2.4.2.5.7.3 1.1-.1.2-.4.4-.7.4zm-8.1-3.3c-.1 0-.3 0-.4-.1-5.2-3.1-3.1-11.1-3-11.5.1-.4.6-.7 1-.6.4.1.7.6.6 1 0 .1-1.9 7.2 2.2 9.6.4.2.5.7.3 1.1-.2.4-.5.5-.7.5z"/><path class="st10" d="M1614.1 1653.8l-.5-24.5c-1.3-56.8 13.7-97.6 44.4-121.4 42.3-32.7 96.7-17.8 99-17.1l-13.4 47.2h.1c-.3-.1-33.6-8.8-56.1 8.9-12.1 9.5-26.2 31.3-25.1 81.3l.5 24.5-48.9 1.1z"/><path class="st50" d="M1621.6 1653.9c-.2-.5-4.2-13.3.3-18.7l1.3 1.1c-4 4.7 0 17 0 17.1l-1.6.5zm8.2 0c-.2-.5-4.2-13.3.3-18.7l1.3 1.1c-4 4.7 0 17 0 17.1l-1.6.5zm8.2 0c-.2-.5-4.2-13.3.3-18.7l1.3 1.1c-4 4.7 0 17 0 17.1l-1.6.5z"/><path class="st53" d="M1650.1 1191.9s17.6-6.1 30.2 9.8c0 0-1.9 3.8-6 5.7 0 0-4.5-15.5-24.2-15.5z"/></g><g id="Layer_7"><path class="st54" d="M1897.3 308.9h612.6v485.7h-612.6z"/><path fill="#87c0c7" d="M1895.9 307.2h770.5v489.1h-770.5z"/><path class="st56" d="M2469.6 722.4h-377.4l-32.5-71.3H2502zm-195.2-299.5h13v211.9h-13z"/><path class="st56" d="M2518.2 660.8h-474.7l-16.2-37.9h507.2z"/><path class="st57" d="M2306.4 452l103.4 125.3-83.2 30.3zm-44.7.9l-28.8 161.3-125.3-55.1z"/><path fill="#889ac0" stroke="#000" stroke-miterlimit="10" d="M1895.9 715.9h769.9v78.9h-769.9z"/><path class="st57" d="M2167.9 451.6s6.2 49.9-86.2 24.5c0 0-63.7 25.3-90-16.3 0 0-78.7-31.1-6.2-57.2 0 0-2.5-53.1 73.7-40.1 0 0 72.5-33.5 90 18.8 0 0 46.2-8.2 37.5 27.8 0 0 30 29.4-18.8 42.5zm395.5 27.8s4.8 39.4-66.4 19.4c0 0-49.1 20-69.3-12.9 0 0-60.7-24.6-4.8-45.2 0 0-1.9-42 56.8-31.7 0 0 55.8-26.5 69.3 14.9 0 0 35.6-6.5 28.9 22 0-.1 23.1 23.2-14.5 33.5z"/><path class="st59" d="M1896.3 310.5l-32-29.1h825.9l-26.7 29.1z"/><path class="st60" d="M2689.1 281.9l-25.8 28.1h-766.8l-30.9-28.1h823.5m2.2-1H1863l33.1 30.1h767.6l27.6-30.1z"/><path class="st59" d="M1864.3 821.9l32-29.1h767.2l26.7 29.1z"/><path class="st60" d="M2663.3 793.3l25.8 28.1h-823.5l30.9-28.1h766.8m.4-1h-767.6l-33.1 30.1h828.3l-27.6-30.1z"/><path class="st59" d="M1863.5 282.4l33.6 26.9v485.2l-33.6 26.9z"/><path class="st60" d="M1864 283.5l32.6 26v484.8l-32.6 26V283.5m-1-2.1v541l34.6-27.6V309l-34.6-27.6z"/></g><g id="Layer_6"><path fill="#b3b3b3" d="M308 1346h10.7v275.8H308z"/><path class="st53" d="M318.4 1607h-10.2l-46.5 22h103.2z"/><path fill="none" stroke="#000" stroke-miterlimit="10" d="M393.5 1357.4v104.1"/><path d="M398.5 1468.1c0 2.8-2.2 5-5 5s-5-2.2-5-5 4.8-7.9 5-7.9c0 0 5 5.1 5 7.9z" fill="#32241d"/><radialGradient id="SVGID_25_" cx="7431.633" cy="-1734.261" r="198.384" fx="7431.342" fy="-1718.863" gradientTransform="rotate(180 3877.293 -179.599)" gradientUnits="userSpaceOnUse"><stop offset="0" stop-color="#fff"/><stop offset=".875" stop-color="#fff" stop-opacity=".125"/><stop offset="1" stop-color="#fff" stop-opacity="0"/></radialGradient><path d="M491.7 1346s197.5 241.5-147.1 241.5c-247.8 0-275.5-117.8-275.5-117.8L131 1346h360.7z" opacity=".66" fill="url(#SVGID_25_)"/><linearGradient id="SVGID_26_" gradientUnits="userSpaceOnUse" x1="313.328" y1="1256.08" x2="313.328" y2="1116.161"><stop offset="0" stop-color="#fff"/><stop offset=".112" stop-color="#fffdf9"/><stop offset=".259" stop-color="#fff6e9"/><stop offset=".424" stop-color="#feebce"/><stop offset=".603" stop-color="#fddca8"/><stop offset=".793" stop-color="#fcc978"/><stop offset=".99" stop-color="#fbb13e"/><stop offset="1" stop-color="#fbb03b"/></linearGradient><path fill="url(#SVGID_26_)" d="M409.9 1167.2H216.8l-99.9 202.5h392.8z"/><path class="st65" d="M142.2 1627v180h37v-34h269v34h38v-180z"/><path class="st65" d="M179.6 1654.3h268.6v90.1H179.6z"/><path class="st66" d="M179.6 1654.3h7.6v90.1h-7.6z"/><path class="st66" d="M179.6 1654.3h268.6v6.3H179.6z"/><path class="st54" d="M443 1654.3h5.1v90.1H443z"/><path class="st54" d="M179.6 1739.9h268.6v4.4H179.6z"/><circle class="st54" cx="313.9" cy="1699.3" r="14.7"/></g><g id="Layer_5"><pattern id="SVGID_27_" xlink:href="#New_Pattern_2" patternTransform="translate(6197.865 1676.995) scale(1.713)"/><path d="M1039.6 1284s162.7-113.1 202.1 37.7" fill="none" stroke="url(#SVGID_27_)" stroke-width="30" stroke-linecap="round" stroke-linejoin="round" stroke-miterlimit="10"/><path class="st68" d="M1209.2 1325.1s10.7-15.1 61.1-11.4c0 0 25.3 16.7 15.2 66.8 0 0-8.4 4.4-16.9 6.7-7.8 2.1-19.5 1.1-19.5 1.1s1.5 11 .9 20.9c-.8 14-2.7 21.5-2.7 21.5s-13.8.7-22.2-1.6c0 0 1.1-37.1-5.1-60.3 0 0-2.5 10.7-5.4 22.8 0 0-12.6 2.1-20.3-4.2 0 0 5.7-33.7 14.9-62.3z"/></g><g id="Layer_4"><radialGradient id="SVGID_28_" cx="1374.954" cy="2079.894" r="36.666" gradientTransform="rotate(11.887 2794.47 1306.146)" gradientUnits="userSpaceOnUse"><stop offset="0" stop-color="#454545"/><stop offset="1" stop-color="#252525"/></radialGradient><path d="M1239.5 1756.2s18.8-.7 38.8 15.2c14.4 11.5 13.8 23.3 13.8 23.3l-97.4-22.3 6.9-21.9 37.9 5.7z" fill="url(#SVGID_28_)"/><radialGradient id="SVGID_29_" cx="1036.618" cy="1082.287" r="36.759" gradientUnits="userSpaceOnUse"><stop offset="0" stop-color="#fcc58a"/><stop offset=".575" stop-color="#fcc289"/><stop offset=".962" stop-color="#fbb986"/><stop offset="1" stop-color="#fbb885"/></radialGradient><path d="M1004.2 1068.3c4.9-18.3 23.3-29.3 41.2-24.6 17.9 4.7 28.5 23.4 23.6 41.8-3.9 14.6-16.3 24.5-30.2 25.6-2.3 7.8-10.3 12.5-18.1 10.4-7.9-2.1-12.6-10.4-10.5-18.5.3-1.1.7-2.2 1.2-3.1-7.1-8.3-10.2-20-7.2-31.6z" fill="url(#SVGID_29_)"/><path class="st71" d="M1032 1065.6c11.6-6.3 23.6 3.1 23.6 3.1s-11.3-16.5-26-8.8c-14.6 7.7-11.6 26.5-11.6 26.5s1.2-14 14-20.8z"/><path class="st71" d="M1031.6 1084.9c-10.7-7.5-12.9-1.8-12.9-1.8s-.2-11.6 15.4.8c8.6 6.8 1.1 15 1.1 15s4.8-8.1-3.6-14z"/><linearGradient id="SVGID_30_" gradientUnits="userSpaceOnUse" x1="972.388" y1="932.548" x2="1012.387" y2="1080.222"><stop offset="0" stop-color="#574537"/><stop offset=".576" stop-color="#433329"/><stop offset="1" stop-color="#32241d"/></linearGradient><path d="M958.2 968.8s48.8 54 57.4 109.6c0 0 33.8-41.1-38.1-143.5l-19.3 33.9z" fill="url(#SVGID_30_)"/><radialGradient id="SVGID_31_" cx="861.268" cy="1136.918" r="185.627" gradientUnits="userSpaceOnUse"><stop offset="0" stop-color="#fcc58a"/><stop offset=".575" stop-color="#fcc289"/><stop offset=".962" stop-color="#fbb986"/><stop offset="1" stop-color="#fbb885"/></radialGradient><path d="M788.4 1322.2s-8-3.4-17.1-17.7c-29.6-46.3-95.9-239.3-95.9-239.3l49.1-91.4 240.3-22.3s39 67.9 55.5 131.9c10.3 39.9 22.7 85.3 26.3 116.5 2.6 22.6-2.3 37.7-2.3 37.7s-78.9 76.6-255.9 84.6z" fill="url(#SVGID_31_)"/><linearGradient id="SVGID_32_" gradientUnits="userSpaceOnUse" x1="660.047" y1="1020.072" x2="699.891" y2="1167.172"><stop offset="0" stop-color="#574537"/><stop offset=".576" stop-color="#433329"/><stop offset="1" stop-color="#32241d"/></linearGradient><path d="M649.9 1026.6l55.7 42.4s29.1 45.4-10.3 98.5c0 0-82.5-73.6-45.4-140.9z" fill="url(#SVGID_32_)"/><linearGradient id="SVGID_33_" gradientUnits="userSpaceOnUse" x1="807.148" y1="967.221" x2="865.88" y2="1184.057" gradientTransform="rotate(4.52 2557.775 761.704) scale(1.00001)"><stop offset="0" stop-color="#574537"/><stop offset=".576" stop-color="#433329"/><stop offset="1" stop-color="#32241d"/></linearGradient><path d="M649.9 1027.9s21.2-139.6 134.6-173.6c0 0-19.2 27.9-18.4 36.2 0 0 26.5-28.4 57.1-39.4 42.3-15.1 104.5 22.8 119.3-44.5 0 0 27.7 22.8 18.9 59 0 0 13-12.5 12.3-31.4 0 0 28.9 44.4-3.3 89.3 0 0 17-7.9 22-30.6 0 0 2.7 151.2-288.5 176.5l-54-41.5z" fill="url(#SVGID_33_)"/><path d="M798.6 870c54.2-36 71.5-3.3 117.7-20 20.2-7.3 24.1-21.3 24.1-21.3-19 64.2-80.1 14-141.2 41.4h-.6z" fill="#836f67"/><radialGradient id="SVGID_34_" cx="853.784" cy="444.163" r="25.686" gradientTransform="rotate(-22.382 2536.412 887.786)" gradientUnits="userSpaceOnUse"><stop offset="0" stop-color="#454545"/><stop offset="1" stop-color="#101010"/></radialGradient><path d="M832.7 1110.7c4.7 11.4-.7 24.4-12.1 29.1-11.4 4.7-24.4-.7-29.1-12.1-4.7-11.4.7-24.4 12.1-29.1 11.4-4.8 24.4.7 29.1 12.1z" fill="url(#SVGID_34_)"/><path class="st10" d="M822.2 1106.5c1.6 4-.3 8.6-4.3 10.2-4 1.6-8.6-.3-10.2-4.2-1.6-4 .3-8.6 4.2-10.2 4.1-1.7 8.7.2 10.3 4.2z"/><radialGradient id="SVGID_35_" cx="1002.587" cy="451.72" r="25.686" gradientTransform="rotate(-22.382 2536.412 887.786)" gradientUnits="userSpaceOnUse"><stop offset="0" stop-color="#454545"/><stop offset="1" stop-color="#101010"/></radialGradient><path d="M973.1 1061c4.7 11.4-.7 24.4-12.1 29.1-11.4 4.7-24.4-.7-29.1-12.1-4.7-11.4.7-24.4 12.1-29.1 11.4-4.7 24.5.7 29.1 12.1z" fill="url(#SVGID_35_)"/><path class="st10" d="M962.7 1056.8c1.6 4-.3 8.6-4.3 10.2-4 1.6-8.6-.3-10.2-4.2-1.6-4 .3-8.6 4.2-10.2 4.1-1.7 8.6.3 10.3 4.2z"/><path d="M811.4 1194.1c.1 8.9-7 16.1-15.9 16.3-8.9.1-16.1-7-16.3-15.9-.1-8.9 7-16.1 15.9-16.3 8.9 0 16.2 7.1 16.3 15.9zm194.4-63.3c.1 8.9-7 16.1-15.9 16.3-8.9.1-16.1-7-16.3-15.9-.1-8.9 7-16.1 15.9-16.3 8.9-.1 16.2 7 16.3 15.9z" fill="#fab383"/><path class="st80" d="M1012 1017.4c-19.6 4.5-27.8 1.9-66.2 14.1-29.8 9.6-46.3 20.9-76.1 30.2h-.1c-29.9 9.4-49.8 9.5-79.8 18.7-38.5 11.9-43.7 18.7-62.4 26.2-1.7.7-2.8 2.6-1.7 5.5 1.6 5 3.3 9.3 4.7 13.7 1.3 4 4.4 2.5 7.8 6.5 10.8 12.9 16 38.4 34.7 46.8 5.3 2.4 14.3 4.6 21.8 3 36.2-7.8 67.1-15 69.4-55.1.4-8.3 2.6-15.6 2-27.6 1.7-8.8 2.3-7.3 11.9-10.9 9.9-2.6 9.6-4.2 16 2.1 6.3 10.1 12.3 14.9 17.4 21.5 24.7 31.6 54.3 19.8 88.4 5.5 7.1-3 13.1-9.9 16.1-14.9 10.5-17.5.3-41.5 1.7-58.2.4-5.3 4-5.8 2.7-9.8-1.4-4.4-2.4-8.9-4-13.9-.6-2.9-2.6-3.8-4.3-3.4zm-151.7 95.4c.4 14.4-1.3 29.5-10.6 40.4-6.3 7.5-16.4 13.9-28.9 18-36.6 12.2-55.2 4.8-65.2-26.2-4.7-14.6-11.5-27.3-5.3-36.9 7-10.7 28.1-17.7 44-22.6 16.4-5.1 43-10.6 55.3-4.3 10.3 5.3 10.3 18.3 10.7 31.6zm150.2-47.8c9.6 31.1-1.5 47.8-38.5 58.7-12.6 3.7-24.5 4.3-34 1.7-13.8-3.7-23.9-15.1-31.8-27.1-7.3-11.1-14.7-21.8-9.2-32 6.5-12.2 31.4-22.9 47.8-28.1 15.8-5 37.2-11.3 49-6.6 10.6 4.4 12.2 18.7 16.7 33.4z"/><path d="M884.6 1194s48 20.3 60.5-19.4" fill="none" stroke="#856848" stroke-width="6" stroke-linecap="round" stroke-linejoin="round" stroke-miterlimit="10"/><path class="st80" d="M725.9 1110.2l-19.3 44.6 10.1 6.7 17.8-33.2z"/><radialGradient id="SVGID_36_" cx="708.708" cy="1185.582" r="35.937" gradientUnits="userSpaceOnUse"><stop offset="0" stop-color="#fcc58a"/><stop offset=".575" stop-color="#fcc289"/><stop offset=".962" stop-color="#fbb986"/><stop offset="1" stop-color="#fbb885"/></radialGradient><path d="M726.7 1160.3c-14.3-12.4-35.8-11.2-47.9 2.8-12.1 14-10.4 35.4 4 47.8 11.4 9.9 27.3 11.1 39.4 4.2 6.3 5.2 15.6 4.5 20.8-1.5 5.4-6.2 4.6-15.7-1.8-21.2-.9-.8-1.8-1.4-2.8-1.9 1.4-10.9-2.6-22.4-11.7-30.2z" fill="url(#SVGID_36_)"/><path class="st71" d="M702.2 1173.6c-13.1 1.4-17.7 15.8-17.7 15.8s.1-20 16.5-21.9c16.4-1.9 24.5 15.4 24.5 15.4s-8.8-10.8-23.3-9.3z"/><path class="st71" d="M713.5 1189.4c4.6-12.2 9.6-8.8 9.6-8.8s-6.3-9.7-12.3 9.3c-3.3 10.5 7.5 13 7.5 13s-8.5-3.9-4.8-13.5z"/><path d="M846 1474.1s-10.3 34.3 13.7 42.8c24 8.6 171.3-12 205.6-44.5 34.3-32.5 1.7-36 1.7-36l-221 37.7z" fill="#192f4b"/><radialGradient id="SVGID_37_" cx="1195.694" cy="1994.508" r="36.666" gradientTransform="rotate(7.432 2721.508 1318.924)" gradientUnits="userSpaceOnUse"><stop offset="0" stop-color="#454545"/><stop offset="1" stop-color="#252525"/></radialGradient><path d="M1113.3 1777.3s18.7-2.2 39.9 12.1c15.3 10.3 15.5 22.2 15.5 22.2l-98.9-14.6 5.2-22.4 38.3 2.7z" fill="url(#SVGID_37_)"/><linearGradient id="SVGID_38_" gradientUnits="userSpaceOnUse" x1="882.464" y1="1628.727" x2="1104.655" y2="1628.727"><stop offset=".388" stop-color="#192f4b"/><stop offset="1" stop-color="#426897"/></linearGradient><path d="M884.6 1493.8s209-36 207.6 283.5" fill="none" stroke="url(#SVGID_38_)" stroke-width="25" stroke-miterlimit="10"/><linearGradient id="SVGID_39_" gradientUnits="userSpaceOnUse" x1="1009.229" y1="1608.17" x2="1231.42" y2="1608.17"><stop offset=".388" stop-color="#192f4b"/><stop offset="1" stop-color="#426897"/></linearGradient><path d="M1011.3 1473.2s209-36 207.6 283.5" fill="none" stroke="url(#SVGID_39_)" stroke-width="25" stroke-miterlimit="10"/><pattern id="SVGID_40_" xlink:href="#New_Pattern" patternTransform="translate(16366.586 7724.353) scale(2.9312)"/><path d="M1045.5 1229.2s35.2 41.9 36.9 202.1c0 0-26.6 54.8-257.8 59.1 0 0 5.5 5.8-5.1-52.2-11.2-61.5-31.8-116.3-31.8-116.3s197.9-16.5 257.8-92.7z" fill="url(#SVGID_40_)"/><path class="st10" d="M965.5 1281.5c-15.2 5.9-33.3 11.9-33.3 11.9s12.2 3.8 24.3 11.1c11.9 7.2 20.6 16.3 20.6 16.3s18-24.2 13.2-50.2c0 0-11.1 5.6-24.8 10.9z"/></g><path d="M945.2 1158.3c-16.6 40.8-48 29.3-66 23.3s-30.7 10.7-9.3 22c35.3 18.7 84 8 96-32 7-23.6-13.4-31.3-20.7-13.3z" fill="#fff" stroke="#856848" stroke-width="6" stroke-linecap="round" stroke-linejoin="round" stroke-miterlimit="10" id="mouth"/><path d="M1491.8 1297s123.3-76 246.7 21.3" fill="none" stroke="#fff" stroke-width="40" stroke-linecap="round" stroke-linejoin="round" stroke-miterlimit="10" id="lino_arm"/><g id="Layer_2"><pattern id="SVGID_41_" xlink:href="#New_Pattern_2" patternTransform="translate(6197.865 1676.995) scale(1.713)"/><path d="M811.2 1363.3s-28.6 108.5 355.2 122.8" fill="none" stroke="url(#SVGID_41_)" stroke-width="30" stroke-linecap="round" stroke-linejoin="round" stroke-miterlimit="10"/><radialGradient id="SVGID_42_" cx="1402.084" cy="1474.908" r="296.119" fx="1401.65" fy="1497.891" gradientUnits="userSpaceOnUse"><stop offset="0" stop-color="#fff"/><stop offset=".875" stop-color="#fff" stop-opacity=".125"/><stop offset="1" stop-color="#fff" stop-opacity="0"/></radialGradient><path d="M1219.5 1474.1l-138.9-186.3S959 967.4 1476.1 1054.1c487 81.7 240.2 375.9 240.2 375.9l-165 104.6-331.8-60.5z" opacity=".66" fill="url(#SVGID_42_)"/><path class="st80" d="M1203.5 1516.2l10.6-97.8s0-13.6 15.5-12.3 357.5 51.5 357.5 51.5 9.5.5 2.5 17.2c-7.1 16.6-52.3 94.8-52.3 94.8s-.8 3.8-7.4 1.9c-6.5-1.9-321.9-48.5-321.9-48.5s-4.2-.3-4.5-6.8z"/><path class="st68" d="M1168.2 1449.2s-13.3 32.3-8.3 76c0 0 32.7 13.4 75.8 2.8 0 0 15.7-26.3 19.6-58.4 0 0-27-1.2-47.4-5.8l2.5-22.9c-14.3.1-26.7 2.6-42.2 8.3z"/></g></svg>