<?xml version="1.0" encoding="utf-8"?>
<!-- Generator: Adobe Illustrator 22.0.1, SVG Export Plug-In . SVG Version: 6.00 Build 0)  -->
<svg version="1.1" id="Layer_1" xmlns="http://www.w3.org/2000/svg" xmlns:xlink="http://www.w3.org/1999/xlink" x="0px" y="0px"
	 width="1925px" height="1265.9px" viewBox="0 0 1925 1265.9" style="enable-background:new 0 0 1925 1265.9;" xml:space="preserve"
	>
<style type="text/css">
	.st0{fill:none;}
	.st1{fill:#29ABE2;}
	.st2{opacity:0.4;enable-background:new    ;}
	.st3{opacity:0.12;enable-background:new    ;}
	.st4{fill:#D4145A;}
	.st5{fill:#662D91;}
	.st6{fill:#FBB03B;}
	.st7{fill:url(#SVGID_1_);}
	.st8{fill:url(#SVGID_2_);}
	.st9{fill:#6B6B6B;}
	.st10{fill:#4F4F4F;}
	.st11{fill:url(#SVGID_3_);}
	.st12{fill:#3A3A3A;}
	.st13{fill:url(#SVGID_4_);}
	.st14{fill:url(#SVGID_5_);}
	.st15{fill:url(#SVGID_6_);}
	.st16{fill:url(#SVGID_7_);}
	.st17{fill:url(#SVGID_8_);}
	.st18{fill:url(#SVGID_9_);}
	.st19{fill:url(#SVGID_10_);}
	.st20{fill:url(#SVGID_11_);}
	.st21{fill:url(#SVGID_12_);}
	.st22{fill:url(#SVGID_13_);}
	.st23{fill:#661412;}
	.st24{fill:url(#SVGID_14_);}
	.st25{fill:url(#SVGID_15_);}
	.st26{fill:url(#SVGID_16_);}
	.st27{fill:#721514;}
	.st28{fill:url(#SVGID_17_);}
	.st29{fill:#CE985E;}
	.st30{fill:url(#SVGID_18_);}
	.st31{fill:none;stroke:#BD4747;stroke-width:4;stroke-linecap:round;stroke-miterlimit:10;}
	.st32{fill:#FFA370;}
	.st33{fill:url(#SVGID_19_);}
	.st34{fill:#FFFFFF;}
	.st35{fill:#403228;}
	.st36{fill:url(#SVGID_20_);}
	.st37{fill:url(#SVGID_21_);}
	.st38{fill:#7D634F;}
	.st39{opacity:0.4;fill:#7D634F;enable-background:new    ;}
	.st40{fill:#7D1920;}
	.st41{fill:url(#SVGID_22_);}
	.st42{fill:#7C4119;}
	.st43{fill:#333333;}
	.st44{fill:#E6E6E6;}
	.st45{fill:#CCCCCC;}
	.st46{fill:#666666;}
	.st47{fill:none;stroke:url(#SVGID_24_);stroke-width:30;stroke-linecap:round;stroke-linejoin:round;stroke-miterlimit:10;}
	.st48{fill:#FBC48A;}
	.st49{fill:url(#SVGID_25_);}
	.st50{fill:url(#SVGID_26_);}
	.st51{fill:#856848;}
	.st52{fill:url(#SVGID_27_);}
	.st53{fill:url(#SVGID_28_);}
	.st54{fill:url(#SVGID_29_);}
	.st55{fill:url(#SVGID_30_);}
	.st56{fill:#836F67;}
	.st57{fill:url(#SVGID_31_);}
	.st58{fill:url(#SVGID_32_);}
	.st59{fill:#FAB383;}
	.st60{fill:#1A1A1A;}
	.st61{fill:none;stroke:#856848;stroke-width:6;stroke-linecap:round;stroke-linejoin:round;stroke-miterlimit:10;}
	.st62{fill:url(#SVGID_33_);}
	.st63{fill:#192F4B;}
	.st64{fill:url(#SVGID_34_);}
	.st65{fill:none;stroke:url(#SVGID_35_);stroke-width:25;stroke-miterlimit:10;}
	.st66{fill:none;stroke:url(#SVGID_36_);stroke-width:25;stroke-miterlimit:10;}
	.st67{fill:url(#SVGID_39_);}
	.st68{fill:#FFFFFF;stroke:#856848;stroke-width:6;stroke-linecap:round;stroke-linejoin:round;stroke-miterlimit:10;}
	.st69{fill:none;stroke:#FFFFFF;stroke-width:40;stroke-linecap:round;stroke-linejoin:round;stroke-miterlimit:10;}
	.st70{fill:none;stroke:url(#SVGID_40_);stroke-width:30;stroke-linecap:round;stroke-linejoin:round;stroke-miterlimit:10;}
	.st71{opacity:0.66;fill:url(#SVGID_41_);enable-background:new    ;}
</style>
<pattern  y="1265.9" width="242" height="242" patternUnits="userSpaceOnUse" id="SVGID_23_" viewBox="241.7 -242 242 242" style="overflow:visible;">
	<g>
		<rect x="241.7" y="-242" class="st0" width="242" height="242"/>
		<path class="st0" d="M241.7,0h242v-242h-242L241.7,0z"/>
		<path class="st0" d="M241.7-242h242V0h-242L241.7-242L241.7-242z"/>
		<path class="st1" d="M241.7-242h242V0h-242L241.7-242L241.7-242z"/>
		<path class="st2" d="M472.7-242h11V0h-11V-242z M450.7-242h11V0h-11V-242z M428.7-242h11V0h-11V-242z M406.7-242h11V0h-11V-242z
			 M384.7-242h11V0h-11V-242z M362.7-242h11V0h-11V-242z M340.7-242h11V0h-11V-242z M318.7-242h11V0h-11V-242z M296.7-242h11V0h-11
			V-242z M274.7-242h11V0h-11V-242z M252.7-242h11V0h-11V-242z"/>
		<path class="st2" d="M241.7-11h242V0h-242L241.7-11L241.7-11z M241.7-33h242v11h-242L241.7-33L241.7-33z M241.7-55h242v11h-242
			L241.7-55L241.7-55z M241.7-77h242v11h-242L241.7-77L241.7-77z M241.7-99h242v11h-242L241.7-99L241.7-99z M241.7-121h242v11h-242
			L241.7-121L241.7-121z M241.7-143h242v11h-242L241.7-143L241.7-143z M241.7-165h242v11h-242L241.7-165L241.7-165z M241.7-187h242
			v11h-242L241.7-187L241.7-187z M241.7-209h242v11h-242L241.7-209L241.7-209z M241.7-231h242v11h-242L241.7-231L241.7-231z"/>
		<path class="st3" d="M242-242h242V0H242V-242z M0-242h242V0H0V-242z"/>
	</g>
</pattern>
<pattern  y="1265.9" width="242" height="242" patternUnits="userSpaceOnUse" id="SVGID_37_" viewBox="0 -242 242 242" style="overflow:visible;">
	<g>
		<rect y="-242" class="st0" width="242" height="242"/>
		<path class="st0" d="M0,0h242v-242H0V0z"/>
		<path class="st0" d="M0-242h242V0H0V-242z"/>
		<path class="st1" d="M0-242h242V0H0V-242z"/>
		<path class="st2" d="M0-242h11V0H0V-242z M22-242h11V0H22V-242z M44-242h11V0H44V-242z M66-242h11V0H66V-242z M88-242h11V0H88
			V-242z M110-242h11V0h-11V-242z M132-242h11V0h-11V-242z M154-242h11V0h-11V-242z M176-242h11V0h-11V-242z M198-242h11V0h-11V-242
			z M220-242h11V0h-11V-242z"/>
		<path class="st2" d="M0-242h242v11H0V-242z M0-220h242v11H0V-220z M0-198h242v11H0V-198z M0-176h242v11H0V-176z M0-154h242v11H0
			V-154z M0-132h242v11H0V-132z M0-110h242v11H0V-110z M0-88h242v11H0V-88z M0-66h242v11H0V-66z M0-44h242v11H0V-44z M0-22h242v11H0
			V-22z"/>
	</g>
</pattern>
<pattern  y="1265.9" width="242" height="242" patternUnits="userSpaceOnUse" id="SVGID_38_" viewBox="241.7 -242 242 242" style="overflow:visible;">
	<g>
		<rect x="241.7" y="-242" class="st0" width="242" height="242"/>
		<path class="st0" d="M241.7,0h242v-242h-242L241.7,0z"/>
		<path class="st0" d="M241.7-242h242V0h-242L241.7-242L241.7-242z"/>
		<path class="st1" d="M241.7-242h242V0h-242L241.7-242L241.7-242z"/>
		<path class="st2" d="M472.7-242h11V0h-11V-242z M450.7-242h11V0h-11V-242z M428.7-242h11V0h-11V-242z M406.7-242h11V0h-11V-242z
			 M384.7-242h11V0h-11V-242z M362.7-242h11V0h-11V-242z M340.7-242h11V0h-11V-242z M318.7-242h11V0h-11V-242z M296.7-242h11V0h-11
			V-242z M274.7-242h11V0h-11V-242z M252.7-242h11V0h-11V-242z"/>
		<path class="st2" d="M241.7-11h242V0h-242L241.7-11L241.7-11z M241.7-33h242v11h-242L241.7-33L241.7-33z M241.7-55h242v11h-242
			L241.7-55L241.7-55z M241.7-77h242v11h-242L241.7-77L241.7-77z M241.7-99h242v11h-242L241.7-99L241.7-99z M241.7-121h242v11h-242
			L241.7-121L241.7-121z M241.7-143h242v11h-242L241.7-143L241.7-143z M241.7-165h242v11h-242L241.7-165L241.7-165z M241.7-187h242
			v11h-242L241.7-187L241.7-187z M241.7-209h242v11h-242L241.7-209L241.7-209z M241.7-231h242v11h-242L241.7-231L241.7-231z"/>
		<path class="st3" d="M242-242h242V0H242V-242z M0-242h242V0H0V-242z"/>
	</g>
</pattern>
<g id="Layer_11">
	<ellipse class="st4" cx="958.4" cy="1069.5" rx="949.2" ry="182.7"/>
	<ellipse class="st5" cx="958.4" cy="1069.5" rx="681.6" ry="131.2"/>
	<ellipse class="st1" cx="958.4" cy="1069.5" rx="445.5" ry="85.7"/>
	<ellipse class="st6" cx="958.4" cy="1069.5" rx="184.2" ry="35.5"/>
</g>
<g id="SOFA">
	
		<linearGradient id="SVGID_1_" gradientUnits="userSpaceOnUse" x1="944.3" y1="-344.158" x2="944.3" y2="-576.412" gradientTransform="matrix(1 0 0 1 0 1430.724)">
		<stop  offset="0" style="stop-color:#4F4F4F"/>
		<stop  offset="1" style="stop-color:#000000"/>
	</linearGradient>
	<path class="st7" d="M260.5,801.1h1367.6V1080H260.5V801.1z"/>
	
		<linearGradient id="SVGID_2_" gradientUnits="userSpaceOnUse" x1="485.6453" y1="-988.0081" x2="485.6453" y2="-765.6689" gradientTransform="matrix(1 0 0 1 0 1430.724)">
		<stop  offset="0" style="stop-color:#6B6B6B"/>
		<stop  offset="1" style="stop-color:#4F4F4F"/>
	</linearGradient>
	<path class="st8" d="M719.8,427.2c0,0,0.9-94.9-56-102.6c-183.9-24.9-265.5,5.1-323.2,33.3C282.9,386.1,230.3,465.6,239.3,590
		s26.9,253.9,26.9,253.9l466.8-9L719.8,427.2z"/>
	<path class="st9" d="M338.5,798.2c0,0,18-57.3-8.1-150.5c-22.3-79.7-119.3-84.6-170.6-18s-70.5,83.4-60.3,175.7
		C112.8,924.1,338.5,798.2,338.5,798.2z"/>
	<path class="st10" d="M339.4,1091.8h-97.8c-25.8,0-49.7-41.2-49.7-41.2s-74.4-112.9-92.3-215.5c-15.7-89.7,0-171.9,115.4-177
		s125.7,95,125.7,95L339.4,1091.8L339.4,1091.8z"/>
	
		<linearGradient id="SVGID_3_" gradientUnits="userSpaceOnUse" x1="536.8701" y1="-785.375" x2="536.8701" y2="-533.527" gradientTransform="matrix(1 0 0 1 0 1430.724)">
		<stop  offset="0" style="stop-color:#6B6B6B"/>
		<stop  offset="1" style="stop-color:#4F4F4F"/>
	</linearGradient>
	<path class="st11" d="M379.6,716.2c-11.9,3.7-38.5,7.7-38.9,59c-0.5,60.5-0.2,69.9-0.2,69.9s-3.6,32.7,16,32.7
		c46.2,0,335.1-6,335.1-6s41.9,2.6,41.9-41s-2.6-90.6-2.6-90.6s-3.6-27.8-55.6-32.1C613,702.9,409.5,706.7,379.6,716.2L379.6,716.2z
		"/>
	<path class="st12" d="M282,992.7V829c0,0,8-72.2-55.3-71c-43.6,0.9-61.2,35.4-60.3,61.1c1.3,39.3,44.1,130.8,90.7,184.7
		C265.4,1013.4,280,1021.4,282,992.7L282,992.7z"/>
	
		<linearGradient id="SVGID_4_" gradientUnits="userSpaceOnUse" x1="1431.0549" y1="-988.0081" x2="1431.0549" y2="-765.6689" gradientTransform="matrix(1 0 0 1 0 1430.724)">
		<stop  offset="0" style="stop-color:#6B6B6B"/>
		<stop  offset="1" style="stop-color:#4F4F4F"/>
	</linearGradient>
	<path class="st13" d="M1196.9,427.2c0,0-0.9-94.9,56-102.6c183.9-24.9,265.5,5.1,323.2,33.3c57.7,28.2,110.3,107.7,101.3,232.1
		s-26.9,253.9-26.9,253.9l-466.8-9L1196.9,427.2L1196.9,427.2z"/>
	<path class="st9" d="M1578.2,798.2c0,0-18-57.3,8.1-150.5c22.3-79.7,119.3-84.6,170.6-18c51.3,66.7,70.5,83.4,60.3,175.7
		C1804,924.1,1578.2,798.2,1578.2,798.2z"/>
	<path class="st10" d="M1577.4,1091.8h97.8c25.8,0,49.7-41.2,49.7-41.2s74.4-112.9,92.3-215.5c15.7-89.7,0-171.9-115.4-177
		s-125.7,95-125.7,95L1577.4,1091.8L1577.4,1091.8z"/>
	
		<linearGradient id="SVGID_5_" gradientUnits="userSpaceOnUse" x1="1379.9298" y1="-785.375" x2="1379.9298" y2="-533.527" gradientTransform="matrix(1 0 0 1 0 1430.724)">
		<stop  offset="0" style="stop-color:#6B6B6B"/>
		<stop  offset="1" style="stop-color:#4F4F4F"/>
	</linearGradient>
	<path class="st14" d="M1537.2,716.2c11.9,3.7,38.5,7.7,38.9,59c0.5,60.5,0.2,69.9,0.2,69.9s3.6,32.7-16,32.7
		c-46.2,0-335.1-6-335.1-6s-41.9,2.6-41.9-41s2.6-90.6,2.6-90.6s3.6-27.8,55.6-32.1C1303.8,702.9,1507.3,706.7,1537.2,716.2
		L1537.2,716.2z"/>
	
		<linearGradient id="SVGID_6_" gradientUnits="userSpaceOnUse" x1="961.5499" y1="-988.001" x2="961.5499" y2="-765.6541" gradientTransform="matrix(1 0 0 1 0 1430.724)">
		<stop  offset="0" style="stop-color:#6B6B6B"/>
		<stop  offset="1" style="stop-color:#4F4F4F"/>
	</linearGradient>
	<path class="st15" d="M1171.7,312.2c-88.7-38.2-202.2-37.4-209.9-37.4s-121.6-0.8-210.3,37.4c0,0-38.5,8.5-38.5,84.6
		s18.8,361,18.8,361l228.7-16h240.2c0,0,9.4-268.7,9.4-344.8S1171.7,312.2,1171.7,312.2L1171.7,312.2z"/>
	
		<linearGradient id="SVGID_7_" gradientUnits="userSpaceOnUse" x1="969.67" y1="-785.375" x2="969.67" y2="-533.527" gradientTransform="matrix(1 0 0 1 0 1430.724)">
		<stop  offset="0" style="stop-color:#6B6B6B"/>
		<stop  offset="1" style="stop-color:#4F4F4F"/>
	</linearGradient>
	<path class="st16" d="M770.7,716.2c-11.9,3.7-38.9,10.3-38.9,31.6c0,60.5-0.2,97.2-0.2,97.2s-3.6,32.7,16,32.7
		c46.2,0,418.5-6,418.5-6s41.9,2.6,41.9-41s-2.6-78.7-2.6-78.7s-3.6-39.8-55.6-44C1087.5,702.9,800.6,706.7,770.7,716.2L770.7,716.2
		z"/>
	<path class="st12" d="M1634,992.7V829c0,0-7.6-72.2,55.7-71c43.6,0.9,61.4,35.4,60.6,61.1c-1.3,39.3-44.5,130.8-91,184.7
		C1650.9,1013.4,1637,1021.4,1634,992.7L1634,992.7z"/>
</g>
<g id="tuttolina">
	
		<radialGradient id="SVGID_8_" cx="736.097" cy="-1383.282" r="436.264" gradientTransform="matrix(1 0 0 1 0 1430.724)" gradientUnits="userSpaceOnUse">
		<stop  offset="0" style="stop-color:#574537"/>
		<stop  offset="0.684" style="stop-color:#554335"/>
		<stop  offset="1" style="stop-color:#32241D"/>
	</radialGradient>
	<path class="st17" d="M1172.3,478.8c-14.7-8.2,55.5-99.3,50.6-189.1c-9.1-166.5-89.7-270-228.4-279.8C921.9,4.8,811,65,793.6,81.3
		c-15.7,14.7-46.4,104.2-52.5,194l13.6-8.4c0,0-16.3,90.6,15.5,150.5c38,61.2,112,110.7,220.8,126.1
		c161.5,22.8,235.2-66.5,235.2-66.5S1187,487,1172.3,478.8L1172.3,478.8z"/>
	
		<linearGradient id="SVGID_9_" gradientUnits="userSpaceOnUse" x1="1434.0626" y1="-378.9932" x2="1434.0626" y2="-468.1971" gradientTransform="matrix(0.9697 -0.2441 0.2441 0.9697 -363.2086 1554.1274)">
		<stop  offset="0" style="stop-color:#FCC58A"/>
		<stop  offset="0.329" style="stop-color:#FAC287"/>
		<stop  offset="0.55" style="stop-color:#F6B97F"/>
		<stop  offset="0.739" style="stop-color:#EDAA71"/>
		<stop  offset="0.853" style="stop-color:#E69D65"/>
		<stop  offset="1" style="stop-color:#CE8857"/>
	</linearGradient>
	<path class="st18" d="M912.1,959.8c-7-96.3-17.7-174.7,0.9-261.9c22.3-104.7,22.4-72.6,30.9-43.3s-18.3,59.6-13.8,127.3
		c3.4,50.3,12.6,90.2,23.9,138.3C972.8,999.9,915.7,1008.9,912.1,959.8L912.1,959.8z"/>
	
		<radialGradient id="SVGID_10_" cx="1336.0874" cy="-311.0133" r="35.6562" gradientTransform="matrix(0.9783 -0.207 0.207 0.9783 -308.0092 1531.486)" gradientUnits="userSpaceOnUse">
		<stop  offset="0" style="stop-color:#454545"/>
		<stop  offset="1" style="stop-color:#252525"/>
	</radialGradient>
	<path class="st19" d="M951.5,903.3c1.9,34.2-9.9,59.7-26.2,59.8c-9.3,0.1-13.1-5.4-15.3-10.4c1.2,9.7,2.1,17.4,2.6,21.9
		c2.9,22.2,36.2,31.6,44-4.9C961.6,947.3,957.7,926.2,951.5,903.3L951.5,903.3z"/>
	
		<linearGradient id="SVGID_11_" gradientUnits="userSpaceOnUse" x1="8316.9043" y1="1353.5376" x2="8316.9043" y2="1264.3336" gradientTransform="matrix(-0.9697 -0.2441 -0.2441 0.9697 9407.583 1554.0795)">
		<stop  offset="0" style="stop-color:#FCC58A"/>
		<stop  offset="0.329" style="stop-color:#FAC287"/>
		<stop  offset="0.55" style="stop-color:#F6B97F"/>
		<stop  offset="0.739" style="stop-color:#EDAA71"/>
		<stop  offset="0.853" style="stop-color:#E69D65"/>
		<stop  offset="1" style="stop-color:#CE8857"/>
	</linearGradient>
	<path class="st20" d="M1034.7,959.8c7-96.3,17.7-174.7-0.9-261.9c-22.3-104.7-22.4-72.6-30.9-43.3s18.3,59.6,13.8,127.3
		c-3.4,50.3-12.6,90.2-23.9,138.3C974.1,999.9,1031.2,1008.9,1034.7,959.8L1034.7,959.8z"/>
	
		<radialGradient id="SVGID_12_" cx="8279.1973" cy="1157.925" r="35.032" gradientTransform="matrix(-0.9783 -0.207 -0.207 0.9783 9351.9092 1531.4849)" gradientUnits="userSpaceOnUse">
		<stop  offset="0" style="stop-color:#454545"/>
		<stop  offset="1" style="stop-color:#252525"/>
	</radialGradient>
	<path class="st21" d="M995.7,904.2c-1.9,33.5,9.7,58.5,25.7,58.7c9.1,0.1,12.8-5.3,15-10.2c-1.1,9.5-2,17.1-2.6,21.5
		c-2.9,21.8-35.5,31-43.2-4.8C985.8,947.4,989.6,926.7,995.7,904.2z"/>
	
		<radialGradient id="SVGID_13_" cx="531.244" cy="-926.1639" r="620.87" gradientTransform="matrix(1 0 0 1 0 1430.724)" gradientUnits="userSpaceOnUse">
		<stop  offset="0.65" style="stop-color:#DB1E27"/>
		<stop  offset="1" style="stop-color:#4E0F10"/>
	</radialGradient>
	<path class="st22" d="M961.4,542.4c45.7,0,81.8-6.7,123.8,97c25.7,63.6-1.9,89.5-1.9,89.5H847.5c0,0-9.4-11.7-4.2-55.8
		C851.9,599.9,889.6,542.4,961.4,542.4L961.4,542.4z"/>
	<path class="st23" d="M1034.7,559c-25.9-20.9-50.9-16.3-78.3-16.3c-29.3,0-45.4,7.1-65.3,24.5c12.1,6.6,29.8,16.3,68.5,16.3
		C993.6,583.5,1016.9,570.7,1034.7,559z"/>
	
		<linearGradient id="SVGID_14_" gradientUnits="userSpaceOnUse" x1="783.991" y1="-852.0807" x2="783.991" y2="-1001.7198" gradientTransform="matrix(0.9898 0.1425 -0.1425 0.9898 201.8518 1393.1085)">
		<stop  offset="0" style="stop-color:#FCC58A"/>
		<stop  offset="0.385" style="stop-color:#FAC287"/>
		<stop  offset="0.645" style="stop-color:#F6B97F"/>
		<stop  offset="0.867" style="stop-color:#EDAA71"/>
		<stop  offset="1" style="stop-color:#E69D65"/>
	</linearGradient>
	<path class="st24" d="M1056.7,469.1c9.2,10.4,46.4,47.8,56,69.4c6.2,13.8,21.3,69.3,14.4,82.2c-4.7,8.8-18,20.7-19.9,33.6
		c-2,12.9,2.4,33.2,2.4,33.2s8,1.2,9.6-3.1c1.5-4.3,1.4-21.7,4.2-19.1c2.7,2.7,8,31.1,6.3,48.4c0,0,12.8,0.8,17.2-7
		c0,0,8.6,0.2,11.8-7.1c0,0,9.3-5.6,10.9-13c0,0,3.2-27-0.1-37.9c-5.1-16.9-5.4-18.7-10.1-35.7c-7.3-26.9-16.5-65.3-33-95.1
		c-11-19.9-56.7-64.4-64.6-66.4C1053.8,449.6,1052.4,464.2,1056.7,469.1L1056.7,469.1z"/>
	
		<radialGradient id="SVGID_15_" cx="880.5878" cy="-1104.045" r="306.541" gradientTransform="matrix(0.9999 0 0 1 0.1042 1430.724)" gradientUnits="userSpaceOnUse">
		<stop  offset="0.65" style="stop-color:#DB1E27"/>
		<stop  offset="1" style="stop-color:#4E0F10"/>
	</radialGradient>
	<path class="st25" d="M834,435c0,0,213.7-9.8,261-8.2c0,0-16.4,89.9-76.7,125.6c-44,26.1-99.3,15.6-130.5-6.5
		C848.7,518.2,834,435,834,435z"/>
	
		<linearGradient id="SVGID_16_" gradientUnits="userSpaceOnUse" x1="962.15" y1="-916.696" x2="962.15" y2="-990.118" gradientTransform="matrix(1 0 0 1 0 1430.724)">
		<stop  offset="0" style="stop-color:#FCC58A"/>
		<stop  offset="0.285" style="stop-color:#F9C287"/>
		<stop  offset="0.476" style="stop-color:#F0BA7F"/>
		<stop  offset="0.577" style="stop-color:#E8B277"/>
		<stop  offset="0.908" style="stop-color:#CE985E"/>
	</linearGradient>
	<path class="st26" d="M918.9,413.8c1.5,4.3,18.6,75.4,35.9,78.9c8.2,1.6,39.2-62.5,50.6-85.4L918.9,413.8z"/>
	<path class="st27" d="M929.8,450.2l-24,19.1l-7.6-35.4l20.7-20.1L929.8,450.2L929.8,450.2z M985.2,451.3l25.1,14.2l18.4-65.3
		l-28.2,5.4L985.2,451.3L985.2,451.3z"/>
	
		<radialGradient id="SVGID_17_" cx="1025.9948" cy="-1394.4183" r="251.845" gradientTransform="matrix(0.9601 -3.540000e-02 3.830000e-02 0.9617 -54.8098 1525.5844)" gradientUnits="userSpaceOnUse">
		<stop  offset="0" style="stop-color:#FCC58A"/>
		<stop  offset="0.575" style="stop-color:#FCC289"/>
		<stop  offset="0.962" style="stop-color:#FBB986"/>
		<stop  offset="1" style="stop-color:#FBB885"/>
	</radialGradient>
	<path class="st28" d="M971.4,43.6c52.2,2.4,94.5,35.9,125.3,103.6c19.1,42,52.1,168,4.2,224.4c-30.3,35.6-75,59.6-131.3,59.6
		c-45.8,0-125.4-14.5-155.5-62.7c-27-43.3-16.3-116.9-0.2-184.6C843.3,59.9,928.1,41.6,971.4,43.6L971.4,43.6z"/>
	<path class="st29" d="M989.7,102.9c-80.3-25.5-108.6-43.7-133.2,3.5c-2.6,5.2-14.5,5.8-16.8,11.2c5.7,26.7,57.2,46.9,78.4,56
		c0,0,0.7-33,5.1-28.3c81.8,87.9,117.6,112.2,193.9,118.2C1120,233.6,1070,128.3,989.7,102.9L989.7,102.9z"/>
	
		<radialGradient id="SVGID_18_" cx="773.922" cy="-1363.4771" r="392.329" gradientTransform="matrix(1 0 0 1 0 1430.724)" gradientUnits="userSpaceOnUse">
		<stop  offset="0" style="stop-color:#574537"/>
		<stop  offset="0.684" style="stop-color:#554335"/>
		<stop  offset="1" style="stop-color:#32241D"/>
	</radialGradient>
	<path class="st30" d="M1151.5,381.5c0,0-89.5-78.1-55.5-191.6c0,0,68,6.3,72.2,7.2C1157.2,285.7,1150.9,323.3,1151.5,381.5z"/>
	<path class="st31" d="M906.9,355.4c0,0,17.5,11.7,44.3,13.6c37.4,2.7,64-16.6,64-16.6"/>
	<path class="st32" d="M840.9,327.8c0,10.7,8.7,19.4,19.4,19.4s19.4-8.7,19.4-19.4s-8.7-19.4-19.4-19.4S840.9,317.1,840.9,327.8z
		 M1044.3,327.8c0,10.7,8.7,19.4,19.4,19.4s19.4-8.7,19.4-19.4s-8.7-19.4-19.4-19.4S1044.3,317.1,1044.3,327.8z"/>
	<path class="st29" d="M1073.5,270.2c0,15.5-12.6,28.1-28.1,28.1s-28.1-12.6-28.1-28.1s12.6-28.1,28.1-28.1
		C1061,242.2,1073.5,254.7,1073.5,270.2z"/>
	
		<radialGradient id="SVGID_19_" cx="2111.406" cy="-1162.524" r="24.7634" gradientTransform="matrix(1 0 0 1 -1065.906 1430.724)" gradientUnits="userSpaceOnUse">
		<stop  offset="0" style="stop-color:#333333"/>
		<stop  offset="0.456" style="stop-color:#313131"/>
		<stop  offset="0.7" style="stop-color:#292929"/>
		<stop  offset="0.894" style="stop-color:#1B1B1B"/>
		<stop  offset="1" style="stop-color:#101010"/>
	</radialGradient>
	<path class="st33" d="M1070.3,268.2c0,13.7-11.1,24.8-24.8,24.8s-24.8-11.1-24.8-24.8c0-13.7,11.1-24.8,24.8-24.8
		S1070.3,254.5,1070.3,268.2z"/>
	<path class="st34" d="M1027.5,256.3c-2.9,5.2-1.6,11.5,2.9,14s10.5,0.3,13.4-4.9c2.9-5.2,1.6-11.5-2.9-14
		C1036.5,248.9,1030.4,251.1,1027.5,256.3z"/>
	<path class="st35" d="M1078.4,273.1c0,0,10.7,4.6,15.1,0.8c4.4-3.7-0.5-8.6-0.5-8.6s-11,4-15,3.3L1078.4,273.1L1078.4,273.1z
		 M1071.4,251.3c0,0,12.7-0.4,15.7-5.7s-4-7.7-4-7.7s-9.6,8.4-14,9.4L1071.4,251.3z M1060.9,233.5c0,0,11-7.4,10.8-13.7
		c-0.1-6.2-7.5-4.4-7.5-4.4s-4.1,12.5-7.4,15.9L1060.9,233.5z M837.7,268.6c0,0-10.7,4.4-15.1,0.6c-4.3-3.8,0.6-8.6,0.6-8.6
		s10.9,4.2,15,3.5L837.7,268.6z M845.1,246.9c0,0-12.7-0.5-15.6-5.9c-2.9-5.3,4.1-7.6,4.1-7.6s9.4,8.5,13.8,9.6L845.1,246.9z
		 M855.8,229.3c0,0-10.9-7.6-10.7-13.8s7.5-4.3,7.5-4.3s3.9,12.6,7.2,16L855.8,229.3z"/>
	<path class="st29" d="M837.9,270.2c0,15.5,12.6,28.1,28,28.1c15.5,0,28.1-12.6,28.1-28.1s-12.6-28.1-28.1-28.1
		C850.5,242.2,837.9,254.7,837.9,270.2z"/>
	
		<radialGradient id="SVGID_20_" cx="2091.002" cy="-1162.524" r="24.8" gradientTransform="matrix(-1 0 0 1 2957.002 1430.724)" gradientUnits="userSpaceOnUse">
		<stop  offset="0" style="stop-color:#333333"/>
		<stop  offset="0.456" style="stop-color:#313131"/>
		<stop  offset="0.7" style="stop-color:#292929"/>
		<stop  offset="0.894" style="stop-color:#1B1B1B"/>
		<stop  offset="1" style="stop-color:#101010"/>
	</radialGradient>
	<path class="st36" d="M841.2,268.2c0,13.7,11.1,24.8,24.8,24.8s24.8-11.1,24.8-24.8c0-13.7-11.1-24.8-24.8-24.8
		S841.2,254.5,841.2,268.2z"/>
	<path class="st34" d="M848,256.3c-2.9,5.2-1.6,11.5,2.9,14s10.5,0.3,13.4-4.9c2.9-5.2,1.6-11.5-2.9-14
		C857,248.9,850.9,251.1,848,256.3z"/>
	
		<radialGradient id="SVGID_21_" cx="614.472" cy="-1275.406" r="513.877" gradientTransform="matrix(1 0 0 1 0 1430.724)" gradientUnits="userSpaceOnUse">
		<stop  offset="0" style="stop-color:#574537"/>
		<stop  offset="0.684" style="stop-color:#554335"/>
		<stop  offset="1" style="stop-color:#32241D"/>
	</radialGradient>
	<path class="st37" d="M826.7,106.9c5.5,13.2,64.1,55.6,86.3,56.6c5.9,0.3-19-50.6-14.1-46.5c38.3,33.1,107.8,96.9,163.6,122.2
		c86.5,39.2,107.7,66.9,137.4,59.8c0,0,7.3-186.3-120.2-237.3C1019,37.5,891.4,5.3,826.7,106.9L826.7,106.9z"/>
	<path class="st38" d="M805.8,107.6c-3,6.4-6.9,12.3-7.5,13.3c-18.7,33.9-31.7,74.3-41,111.7c-2.8-18,5.5-38.6,10.4-55.6
		c6.4-21.9,13-44.5,22.8-65.2c1.6-3.5,8.9-22,14.1-21.8C812.2,90.5,809.7,99.4,805.8,107.6z"/>
	<path class="st39" d="M883.9,70.3c28.5,18.6,87.7,113.9,184.2,137.3c0,0-52.5-17.2-108.8-79S901.2,59.8,883.9,70.3L883.9,70.3z"/>
	<path class="st40" d="M1109.9,374l-13.9-22.4l13.8-27.9l27.7-5.6l13.9,22.4l-13.8,27.9L1109.9,374z M813.2,374l13.9-22.4
		l-13.7-27.9l-27.7-5.6l-13.9,22.4l13.7,27.9L813.2,374z"/>
</g>
<g id="tuttolina-arm">
	
		<linearGradient id="SVGID_22_" gradientUnits="userSpaceOnUse" x1="7449.2505" y1="-3187.3225" x2="7449.2505" y2="-3336.9604" gradientTransform="matrix(-0.9356 0.3531 0.3531 0.9356 8971.542 1015.6918)">
		<stop  offset="0" style="stop-color:#FCC58A"/>
		<stop  offset="0.385" style="stop-color:#FAC287"/>
		<stop  offset="0.645" style="stop-color:#F6B97F"/>
		<stop  offset="0.867" style="stop-color:#EDAA71"/>
		<stop  offset="1" style="stop-color:#E69D65"/>
	</linearGradient>
	<path class="st41" d="M876.5,466.6c-6.7,12.2-34.9,56.7-39.7,79.9c-3.1,14.8-5.8,72.3,3.7,83.4c6.5,7.6,22,16.3,26.7,28.5
		s4.9,32.9,4.9,32.9s-7.6,2.9-10-1c-2.4-3.8-6.1-20.9-8.2-17.7c-2.1,3.2-1.1,32.1,4.4,48.6c0,0-12.3,3.6-18.3-3.1
		c0,0-8.3,2-13.1-4.4c0,0-10.3-3.5-13.4-10.3c0,0-9-25.7-8.1-37.1c1.3-17.6,1.3-19.5,2.1-37.1c1.3-27.8,2-67.3,11.6-100
		c6.5-21.8,41.4-75.1,48.7-78.8C875.1,446.9,879.7,460.8,876.5,466.6L876.5,466.6z"/>
</g>
<g id="DOG-tail">
	<path class="st34" d="M1443.4,721.3c0,0,94,35.1,100.5-63.7c0,0,35.1,116-116,103L1443.4,721.3z"/>
	<path class="st42" d="M1542.3,709.7c3-3.8,3.5-9.5,3.2-14.2c-0.4-5.9-2.7-12-5.4-17c-8.6,33.9-30.7,45.3-51.8,47.7
		c1.8,3.4,3.5,7.9,6.4,9.8c3.9,2.5,8.9,3.2,13.4,3.5c4.7,0.4,9.6,0.2,12.9-3.6c4-4.5,3-11.3,6.5-16.1
		C1531.4,714.5,1538.3,714.7,1542.3,709.7L1542.3,709.7z"/>
</g>
<g id="DOG">
	<path class="st34" d="M1269.2,959.9l-1.4-24.5c-5.5-95.6,27-157.1,55.2-191.7c31.2-38.4,64.6-53.7,66-54.3l20.1,44.7l0.1-0.1
		c-0.3,0.1-25.8,12.2-49.8,42.5c-32,40.4-46.4,92.9-42.7,156.1l1.4,24.5L1269.2,959.9L1269.2,959.9z"/>
	<path class="st43" d="M1274.7,960c-0.2-0.5-5-13-0.8-18.6l1.3,1c-3.7,4.9,1,16.9,1,17.1L1274.7,960z M1282.9,959.5
		c-0.2-0.5-5-13-0.8-18.6l1.3,1c-3.7,4.9,1,16.9,1,17.1L1282.9,959.5z M1291.1,959.1c-0.2-0.5-5-13-0.8-18.6l1.3,1
		c-3.7,4.9,1,16.9,1,17.1L1291.1,959.1z"/>
	<path class="st34" d="M1423,686.8c-11.7-20.5,14.9-59.4,9-84.4c-3-12.6-16.1-16.9-23.3-29.5c-18.8-32.6-31.5-44.8-4.4-114.4
		c20.3-52.3,51.7-38.6,65.9-28.5c-2.3-73.1-4.1-137.7-4.1-137.7l-189.6,103.5c0,0-27.2,161.8-30.5,234.2
		c-1.7,38.1-15.9,153.4,105.7,158c72,2.7,104-34.1,118.3-70.9C1450.7,715.2,1431,703.6,1423,686.8z"/>
	<path class="st42" d="M1475.6,575.2c-1.6-39.4-2.9-93.7-4.6-144.5c-13.7-10.1-46-25.5-66.7,27.9c-27.1,69.6-14.4,81.8,4.4,114.4
		c7.2,12.6,20.4,16.9,23.3,29.5c5.9,25-20.7,63.8-9,84.4c8.1,17,28.2,28.6,47.6,30.4c11.9-30.1,11-60.8,11-70.2
		C1481.6,626.1,1476.7,603.5,1475.6,575.2L1475.6,575.2z"/>
	<path class="st44" d="M1255.5,536c-4.6,35.1-8.4,69.7-9.5,94.1c-0.4,8.5-1.4,20.8-1.4,34.8c5.4-4.1,8.7-10.8,8.1-18.1
		c-2.9-33-3.3-65.9,12-80.5c23.9-22.9,54.8-28.1,55.6-28C1330.3,539.7,1291.4,514.7,1255.5,536L1255.5,536z M1272.4,420.7l68.1-35.2
		c0,0-17.2,26.3-37.3,44.3c-15.8,14.2-35.5,21-35.5,21L1272.4,420.7L1272.4,420.7z"/>
	<path class="st34" d="M1449.2,248.3c-98.9-115.2-170.3-69-232.9,18.8c-46.6,65.4-61.3,147.9-29.4,170s149-41.1,149-41.1
		S1527.7,339.8,1449.2,248.3z"/>
	<ellipse cx="1316" cy="302.6" rx="19.6" ry="20.8"/>
	<ellipse class="st45" cx="1327.7" cy="297.1" rx="4" ry="4.2"/>
	<ellipse cx="1229.8" cy="292.2" rx="15.9" ry="19.1"/>
	<ellipse class="st45" cx="1238.1" cy="286.8" rx="4.1" ry="4.1"/>
	<path d="M1186.1,392.1c0,0,22.1-13.1,38.4,13.1c0,0-9,14.7-31,17.2C1193.4,422.3,1185.2,417.4,1186.1,392.1L1186.1,392.1z
		 M1341.3,269.5c-1.4,0-2.7-0.9-3.1-2.3c-9.6-30.2-29.4-25.6-29.6-25.6c-1.7,0.4-3.5-0.6-4-2.4c-0.4-1.8,0.6-3.5,2.4-4
		c0.3-0.1,26-6,37.4,30c0.5,1.7-0.4,3.6-2.1,4.1C1342,269.4,1341.6,269.5,1341.3,269.5L1341.3,269.5z M1230.5,246.7
		c-0.7,0-1.4-0.2-2-0.7c-1.4-1.1-1.7-3.1-0.6-4.6c11.8-15.5,23.3-19,31-19.2c8.5-0.2,14.1,3.5,14.4,3.6c1.5,1,1.9,3,0.9,4.5
		s-3,1.9-4.5,0.9c-0.7-0.5-17.5-10.9-36.5,14.1C1232.5,246.2,1231.5,246.7,1230.5,246.7L1230.5,246.7z"/>
	<path class="st44" d="M1465,303.3c-8.9-21.7-29.9-37-64.6-30.1c0,0,48.7,23.2,50,85.4c0.3,14.4,9.4,21.9,18.1,21.2
		c0,0,0.2-0.9,0.4-2.6C1468.4,362.7,1465.9,308.4,1465,303.3z"/>
	<path class="st34" d="M1506.8,286.1c-28.6-60.9-114.3-31.9-114.3-31.9l6.5,19.6c61.6,0.5,65.9,35.4,68.6,75.2
		c0.9,12.7,5.8,21.7,12.2,26.5C1468.8,315.7,1492.1,293.8,1506.8,286.1L1506.8,286.1z"/>
	<path class="st42" d="M1507,286c-14.8,7.7-38.4,29.6-27,90.1c13.7,10.3,34.1,1.8,36-28.8C1517.6,320.6,1514,300.7,1507,286
		L1507,286z"/>
	<path class="st34" d="M1212.7,659.2c-10.5,0-19.4-8-20.3-18.6c-4.1-46.2,6.5-81.6,31.4-105.2c38.5-36.6,96.1-28.8,98.6-28.5
		c11.2,1.6,18.9,11.9,17.3,23.1c-1.6,11.1-11.9,18.9-23,17.3c-0.8-0.1-41-5.1-64.9,17.8c-15.3,14.7-21.6,38.8-18.7,71.8
		c1,11.2-7.3,21.2-18.5,22.2C1213.9,659.2,1213.3,659.2,1212.7,659.2L1212.7,659.2z"/>
	<path class="st43" d="M1218.4,658.8c-0.1,0-0.3,0-0.4-0.1c-8.7-5.2-5.1-18.8-4.9-19.4c0.1-0.4,0.6-0.7,1-0.6s0.7,0.6,0.6,1
		c0,0.1-3.5,13,4.2,17.5c0.4,0.2,0.5,0.7,0.3,1.1C1219,658.6,1218.7,658.8,1218.4,658.8L1218.4,658.8z M1210.2,658.8
		c-0.1,0-0.3,0-0.4-0.1c-7.7-4.6-4.5-16.5-4.4-17c0.1-0.4,0.6-0.7,1-0.6s0.7,0.6,0.6,1c0,0.1-3,11.3,3.6,15.2
		c0.4,0.2,0.5,0.7,0.3,1.1C1210.8,658.6,1210.5,658.8,1210.2,658.8L1210.2,658.8z M1202.1,655.5c-0.1,0-0.3,0-0.4-0.1
		c-5.2-3.1-3.1-11.1-3-11.5s0.6-0.7,1-0.6s0.7,0.6,0.6,1c0,0.1-1.9,7.2,2.2,9.6c0.4,0.2,0.5,0.7,0.3,1.1S1202.3,655.5,1202.1,655.5z
		"/>
	<path class="st34" d="M1153.9,855.6l-0.5-24.5c-1.3-56.8,13.7-97.6,44.4-121.4c42.3-32.7,96.7-17.8,99-17.1l-13.4,47.2h0.1
		c-0.3-0.1-33.6-8.8-56.1,8.9c-12.1,9.5-26.2,31.3-25.1,81.3l0.5,24.5L1153.9,855.6z"/>
	<path class="st43" d="M1161.4,855.7c-0.2-0.5-4.2-13.3,0.3-18.7l1.3,1.1c-4,4.7,0,17,0,17.1L1161.4,855.7L1161.4,855.7z
		 M1169.6,855.7c-0.2-0.5-4.2-13.3,0.3-18.7l1.3,1.1c-4,4.7,0,17,0,17.1L1169.6,855.7L1169.6,855.7z M1177.8,855.7
		c-0.2-0.5-4.2-13.3,0.3-18.7l1.3,1.1c-4,4.7,0,17,0,17.1L1177.8,855.7L1177.8,855.7z"/>
	<path class="st46" d="M1189.9,393.7c0,0,17.6-6.1,30.2,9.8c0,0-1.9,3.8-6,5.7C1214.1,409.2,1209.6,393.7,1189.9,393.7z"/>
</g>
<g id="Layer_5">
	<pattern  id="SVGID_24_" xlink:href="#SVGID_23_" patternTransform="matrix(1.713 0 0 1.713 15391.5557 33069.6484)">
	</pattern>
	<path class="st47" d="M579.4,485.8c0,0,162.7-113.1,202.1,37.7"/>
	<path class="st48" d="M749,526.9c0,0,10.7-15.1,61.1-11.4c0,0,25.3,16.7,15.2,66.8c0,0-8.4,4.4-16.9,6.7
		c-7.8,2.1-19.5,1.1-19.5,1.1s1.5,11,0.9,20.9c-0.8,14-2.7,21.5-2.7,21.5s-13.8,0.7-22.2-1.6c0,0,1.1-37.1-5.1-60.3
		c0,0-2.5,10.7-5.4,22.8c0,0-12.6,2.1-20.3-4.2C734.1,589.2,739.8,555.5,749,526.9z"/>
</g>
<g id="Layer_4">
	
		<radialGradient id="SVGID_25_" cx="610.6849" cy="142.3293" r="36.6995" gradientTransform="matrix(0.9786 0.206 -0.206 0.9786 217.5676 707.6099)" gradientUnits="userSpaceOnUse">
		<stop  offset="0" style="stop-color:#454545"/>
		<stop  offset="1" style="stop-color:#252525"/>
	</radialGradient>
	<path class="st49" d="M779.3,958c0,0,18.8-0.7,38.8,15.2c14.4,11.5,13.8,23.3,13.8,23.3l-97.4-22.3l6.9-21.9L779.3,958z"/>
	
		<radialGradient id="SVGID_26_" cx="576.4282" cy="-1146.6162" r="36.7584" gradientTransform="matrix(1 0 0 1 0 1430.724)" gradientUnits="userSpaceOnUse">
		<stop  offset="0" style="stop-color:#FCC58A"/>
		<stop  offset="0.575" style="stop-color:#FCC289"/>
		<stop  offset="0.962" style="stop-color:#FBB986"/>
		<stop  offset="1" style="stop-color:#FBB885"/>
	</radialGradient>
	<path class="st50" d="M544,270.1c4.9-18.3,23.3-29.3,41.2-24.6s28.5,23.4,23.6,41.8c-3.9,14.6-16.3,24.5-30.2,25.6
		c-2.3,7.8-10.3,12.5-18.1,10.4c-7.9-2.1-12.6-10.4-10.5-18.5c0.3-1.1,0.7-2.2,1.2-3.1C544.1,293.4,541,281.7,544,270.1L544,270.1z"
		/>
	<path class="st51" d="M571.8,267.4c11.6-6.3,23.6,3.1,23.6,3.1s-11.3-16.5-26-8.8c-14.6,7.7-11.6,26.5-11.6,26.5
		S559,274.2,571.8,267.4L571.8,267.4z"/>
	<path class="st51" d="M571.4,286.7c-10.7-7.5-12.9-1.8-12.9-1.8s-0.2-11.6,15.4,0.8c8.6,6.8,1.1,15,1.1,15S579.8,292.6,571.4,286.7
		z"/>
	
		<linearGradient id="SVGID_27_" gradientUnits="userSpaceOnUse" x1="512.1412" y1="-1296.3623" x2="552.1402" y2="-1148.6882" gradientTransform="matrix(1 0 0 1 0 1430.724)">
		<stop  offset="0" style="stop-color:#574537"/>
		<stop  offset="0.576" style="stop-color:#433329"/>
		<stop  offset="1" style="stop-color:#32241D"/>
	</linearGradient>
	<path class="st52" d="M498,170.6c0,0,48.8,54,57.4,109.6c0,0,33.8-41.1-38.1-143.5L498,170.6z"/>
	
		<radialGradient id="SVGID_28_" cx="401.1803" cy="-1092.074" r="185.6654" gradientTransform="matrix(1 0 0 1 0 1430.724)" gradientUnits="userSpaceOnUse">
		<stop  offset="0" style="stop-color:#FCC58A"/>
		<stop  offset="0.575" style="stop-color:#FCC289"/>
		<stop  offset="0.962" style="stop-color:#FBB986"/>
		<stop  offset="1" style="stop-color:#FBB885"/>
	</radialGradient>
	<path class="st53" d="M328.2,524c0,0-8-3.4-17.1-17.7C281.5,460,215.2,267,215.2,267l49.1-91.4l240.3-22.3c0,0,39,67.9,55.5,131.9
		c10.3,39.9,22.7,85.3,26.3,116.5c2.6,22.6-2.3,37.7-2.3,37.7S505.2,516,328.2,524z"/>
	
		<linearGradient id="SVGID_29_" gradientUnits="userSpaceOnUse" x1="199.8586" y1="-1208.854" x2="239.7026" y2="-1061.754" gradientTransform="matrix(1 0 0 1 0 1430.724)">
		<stop  offset="0" style="stop-color:#574537"/>
		<stop  offset="0.576" style="stop-color:#433329"/>
		<stop  offset="1" style="stop-color:#32241D"/>
	</linearGradient>
	<path class="st54" d="M189.7,228.4l55.7,42.4c0,0,29.1,45.4-10.3,98.5C235.1,369.3,152.6,295.7,189.7,228.4L189.7,228.4z"/>
	
		<linearGradient id="SVGID_30_" gradientUnits="userSpaceOnUse" x1="224.3039" y1="-1158.4194" x2="283.0359" y2="-941.5835" gradientTransform="matrix(0.9969 7.880708e-02 -7.880708e-02 0.9969 21.3398 1167.7417)">
		<stop  offset="0" style="stop-color:#574537"/>
		<stop  offset="0.576" style="stop-color:#433329"/>
		<stop  offset="1" style="stop-color:#32241D"/>
	</linearGradient>
	<path class="st55" d="M189.7,229.7c0,0,21.2-139.6,134.6-173.6c0,0-19.2,27.9-18.4,36.2c0,0,26.5-28.4,57.1-39.4
		c42.3-15.1,104.5,22.8,119.3-44.5c0,0,27.7,22.8,18.9,59c0,0,13-12.5,12.3-31.4c0,0,28.9,44.4-3.3,89.3c0,0,17-7.9,22-30.6
		c0,0,2.7,151.2-288.5,176.5L189.7,229.7L189.7,229.7z"/>
	<path class="st56" d="M338.4,71.8c54.2-36,71.5-3.3,117.7-20c20.2-7.3,24.1-21.3,24.1-21.3c-19,64.2-80.1,14-141.2,41.4h-0.6
		C338.4,71.9,338.4,71.8,338.4,71.8z"/>
	
		<radialGradient id="SVGID_31_" cx="1099.1525" cy="-2138.6667" r="25.686" gradientTransform="matrix(0.9247 -0.3808 0.3808 0.9247 149.403 2716.0205)" gradientUnits="userSpaceOnUse">
		<stop  offset="0" style="stop-color:#454545"/>
		<stop  offset="1" style="stop-color:#101010"/>
	</radialGradient>
	<path class="st57" d="M372.5,312.5c4.7,11.4-0.7,24.4-12.1,29.1s-24.4-0.7-29.1-12.1s0.7-24.4,12.1-29.1
		C354.8,295.6,367.8,301.1,372.5,312.5z"/>
	<path class="st34" d="M362,308.3c1.6,4-0.3,8.6-4.3,10.2s-8.6-0.3-10.2-4.2c-1.6-4,0.3-8.6,4.2-10.2
		C355.8,302.4,360.4,304.3,362,308.3z"/>
	
		<radialGradient id="SVGID_32_" cx="1247.9658" cy="-2131.1096" r="25.6779" gradientTransform="matrix(0.9247 -0.3808 0.3808 0.9247 149.403 2716.0205)" gradientUnits="userSpaceOnUse">
		<stop  offset="0" style="stop-color:#454545"/>
		<stop  offset="1" style="stop-color:#101010"/>
	</radialGradient>
	<path class="st58" d="M512.9,262.8c4.7,11.4-0.7,24.4-12.1,29.1s-24.4-0.7-29.1-12.1s0.7-24.4,12.1-29.1
		C495.2,246,508.3,251.4,512.9,262.8z"/>
	<path class="st34" d="M502.5,258.6c1.6,4-0.3,8.6-4.3,10.2s-8.6-0.3-10.2-4.2c-1.6-4,0.3-8.6,4.2-10.2
		C496.3,252.7,500.8,254.7,502.5,258.6z"/>
	<path class="st59" d="M351.2,395.9c0.1,8.9-7,16.1-15.9,16.3c-8.9,0.1-16.1-7-16.3-15.9c-0.1-8.9,7-16.1,15.9-16.3
		C343.8,380,351.1,387.1,351.2,395.9z M545.6,332.6c0.1,8.9-7,16.1-15.9,16.3c-8.9,0.1-16.1-7-16.3-15.9c-0.1-8.9,7-16.1,15.9-16.3
		C538.2,316.6,545.5,323.7,545.6,332.6z"/>
	<path class="st60" d="M551.8,219.2c-19.6,4.5-27.8,1.9-66.2,14.1c-29.8,9.6-46.3,20.9-76.1,30.2h-0.1c-29.9,9.4-49.8,9.5-79.8,18.7
		c-38.5,11.9-43.7,18.7-62.4,26.2c-1.7,0.7-2.8,2.6-1.7,5.5c1.6,5,3.3,9.3,4.7,13.7c1.3,4,4.4,2.5,7.8,6.5
		c10.8,12.9,16,38.4,34.7,46.8c5.3,2.4,14.3,4.6,21.8,3c36.2-7.8,67.1-15,69.4-55.1c0.4-8.3,2.6-15.6,2-27.6
		c1.7-8.8,2.3-7.3,11.9-10.9c9.9-2.6,9.6-4.2,16,2.1c6.3,10.1,12.3,14.9,17.4,21.5c24.7,31.6,54.3,19.8,88.4,5.5
		c7.1-3,13.1-9.9,16.1-14.9c10.5-17.5,0.3-41.5,1.7-58.2c0.4-5.3,4-5.8,2.7-9.8c-1.4-4.4-2.4-8.9-4-13.9
		C555.5,219.7,553.5,218.8,551.8,219.2L551.8,219.2z M400.1,314.6c0.4,14.4-1.3,29.5-10.6,40.4c-6.3,7.5-16.4,13.9-28.9,18
		c-36.6,12.2-55.2,4.8-65.2-26.2c-4.7-14.6-11.5-27.3-5.3-36.9c7-10.7,28.1-17.7,44-22.6c16.4-5.1,43-10.6,55.3-4.3
		C399.7,288.3,399.7,301.3,400.1,314.6z M550.3,266.8c9.6,31.1-1.5,47.8-38.5,58.7c-12.6,3.7-24.5,4.3-34,1.7
		c-13.8-3.7-23.9-15.1-31.8-27.1c-7.3-11.1-14.7-21.8-9.2-32c6.5-12.2,31.4-22.9,47.8-28.1c15.8-5,37.2-11.3,49-6.6
		C544.2,237.8,545.8,252.1,550.3,266.8z"/>
	<path class="st61" d="M424.4,395.8c0,0,48,20.3,60.5-19.4"/>
	<path class="st60" d="M265.7,312l-19.3,44.6l10.1,6.7l17.8-33.2L265.7,312L265.7,312z"/>
	
		<radialGradient id="SVGID_33_" cx="248.4632" cy="-1043.3209" r="35.9449" gradientTransform="matrix(1 0 0 1 0 1430.724)" gradientUnits="userSpaceOnUse">
		<stop  offset="0" style="stop-color:#FCC58A"/>
		<stop  offset="0.575" style="stop-color:#FCC289"/>
		<stop  offset="0.962" style="stop-color:#FBB986"/>
		<stop  offset="1" style="stop-color:#FBB885"/>
	</radialGradient>
	<path class="st62" d="M266.5,362.1c-14.3-12.4-35.8-11.2-47.9,2.8c-12.1,14-10.4,35.4,4,47.8c11.4,9.9,27.3,11.1,39.4,4.2
		c6.3,5.2,15.6,4.5,20.8-1.5c5.4-6.2,4.6-15.7-1.8-21.2c-0.9-0.8-1.8-1.4-2.8-1.9C279.6,381.4,275.6,369.9,266.5,362.1L266.5,362.1z
		"/>
	<path class="st51" d="M242,375.4c-13.1,1.4-17.7,15.8-17.7,15.8s0.1-20,16.5-21.9s24.5,15.4,24.5,15.4S256.5,373.9,242,375.4
		L242,375.4z"/>
	<path class="st51" d="M253.3,391.2c4.6-12.2,9.6-8.8,9.6-8.8s-6.3-9.7-12.3,9.3c-3.3,10.5,7.5,13,7.5,13S249.6,400.8,253.3,391.2
		L253.3,391.2z"/>
	<path class="st63" d="M385.8,675.9c0,0-10.3,34.3,13.7,42.8c24,8.6,171.3-12,205.6-44.5s1.7-36,1.7-36L385.8,675.9z"/>
	
		<radialGradient id="SVGID_34_" cx="538.2279" cy="-59.6374" r="36.6676" gradientTransform="matrix(0.9916 0.1293 -0.1293 0.9916 119.4785 982.7396)" gradientUnits="userSpaceOnUse">
		<stop  offset="0" style="stop-color:#454545"/>
		<stop  offset="1" style="stop-color:#252525"/>
	</radialGradient>
	<path class="st64" d="M653.1,979.1c0,0,18.7-2.2,39.9,12.1c15.3,10.3,15.5,22.2,15.5,22.2l-98.9-14.6l5.2-22.4L653.1,979.1z"/>
	
		<linearGradient id="SVGID_35_" gradientUnits="userSpaceOnUse" x1="422.2781" y1="-600.2054" x2="644.507" y2="-600.2054" gradientTransform="matrix(1 0 0 1 0 1430.724)">
		<stop  offset="0.388" style="stop-color:#192F4B"/>
		<stop  offset="1" style="stop-color:#426897"/>
	</linearGradient>
	<path class="st65" d="M424.4,695.6c0,0,209-36,207.6,283.5"/>
	
		<linearGradient id="SVGID_36_" gradientUnits="userSpaceOnUse" x1="548.9781" y1="-620.8054" x2="771.207" y2="-620.8054" gradientTransform="matrix(1 0 0 1 0 1430.724)">
		<stop  offset="0.388" style="stop-color:#192F4B"/>
		<stop  offset="1" style="stop-color:#426897"/>
	</linearGradient>
	<path class="st66" d="M551.1,675c0,0,209-36,207.6,283.5"/>
	<pattern  id="SVGID_39_" xlink:href="#SVGID_37_" patternTransform="matrix(2.9312 0 0 2.9312 43291.7266 63010.5625)">
	</pattern>
	<path class="st67" d="M585.3,431c0,0,35.2,41.9,36.9,202.1c0,0-26.6,54.8-257.8,59.1c0,0,5.5,5.8-5.1-52.2
		c-11.2-61.5-31.8-116.3-31.8-116.3S525.4,507.2,585.3,431L585.3,431z"/>
	<path class="st34" d="M505.3,483.3c-15.2,5.9-33.3,11.9-33.3,11.9s12.2,3.8,24.3,11.1c11.9,7.2,20.6,16.3,20.6,16.3
		s18-24.2,13.2-50.2C530.1,472.4,519,478,505.3,483.3L505.3,483.3z"/>
</g>
<path id="mouth" class="st68" d="M485,360.1c-16.6,40.8-48,29.3-66,23.3s-30.7,10.7-9.3,22c35.3,18.7,84,8,96-32
	C512.7,349.8,492.3,342.1,485,360.1z"/>
<path id="lino_arm" class="st69" d="M1031.6,498.8c0,0,123.3-76,246.7,21.3"/>
<g id="Layer_2_1_">
	<pattern  id="SVGID_40_" xlink:href="#SVGID_38_" patternTransform="matrix(1.713 0 0 1.713 15546.0273 32958.3242)">
	</pattern>
	<path class="st70" d="M505.5,453.8c0,0-28.6,108.5,355.2,122.8"/>
	
		<radialGradient id="SVGID_41_" cx="1096.3597" cy="-865.34" r="296.119" fx="1095.9247" fy="-842.3569" gradientTransform="matrix(1 0 0 1 0 1430.724)" gradientUnits="userSpaceOnUse">
		<stop  offset="0" style="stop-color:#FFFFFF"/>
		<stop  offset="0.875" style="stop-color:#FFFFFF;stop-opacity:0.125"/>
		<stop  offset="1" style="stop-color:#FFFFFF;stop-opacity:0"/>
	</radialGradient>
	<path class="st71" d="M913.8,564.6L774.9,378.3c0,0-121.6-320.4,395.5-233.7c487,81.7,240.2,375.9,240.2,375.9l-165,104.6
		L913.8,564.6L913.8,564.6z"/>
	<path class="st60" d="M897.8,606.7l10.6-97.8c0,0,0-13.6,15.5-12.3s357.5,51.5,357.5,51.5s9.5,0.5,2.5,17.2
		c-7.1,16.6-52.3,94.8-52.3,94.8s-0.8,3.8-7.4,1.9c-6.5-1.9-321.9-48.5-321.9-48.5S898.1,613.2,897.8,606.7L897.8,606.7z"/>
	<path class="st48" d="M862.5,539.7c0,0-13.3,32.3-8.3,76c0,0,32.7,13.4,75.8,2.8c0,0,15.7-26.3,19.6-58.4c0,0-27-1.2-47.4-5.8
		l2.5-22.9C890.4,531.5,878,534,862.5,539.7L862.5,539.7z"/>
</g>
</svg>
