<?xml version="1.0" encoding="utf-8"?>
<!-- Generator: Adobe Illustrator 22.0.1, SVG Export Plug-In . SVG Version: 6.00 Build 0)  -->
<svg version="1.1" id="Layer_1" xmlns="http://www.w3.org/2000/svg" xmlns:xlink="http://www.w3.org/1999/xlink" x="0px" y="0px"
	 width="288px" height="315px" viewBox="0 0 288 315" style="enable-background:new 0 0 288 315;" xml:space="preserve">
<style type="text/css">
	.st0{fill:none;}
	.st1{fill:#29ABE2;}
	.st2{opacity:0.4;}
	.st3{opacity:0.1;}
	.st4{fill:url(#SVGID_1_);}
	.st5{fill:url(#SVGID_2_);}
	.st6{fill:url(#SVGID_3_);}
	.st7{fill:url(#SVGID_4_);}
	.st8{fill:url(#SVGID_5_);}
	.st9{fill:#FFFFFF;}
	.st10{fill:url(#SVGID_6_);}
	.st11{fill:#FBC48A;}
	.st12{fill:url(#SVGID_7_);}
	.st13{fill:url(#SVGID_8_);}
	.st14{fill:url(#SVGID_9_);}
	.st15{fill:#CE985E;}
	.st16{fill:url(#SVGID_10_);}
	.st17{fill:#FAB383;}
	.st18{fill:#836F67;}
	.st19{fill:url(#SVGID_11_);}
	.st20{fill:url(#SVGID_12_);}
	.st21{fill:#856848;}
	.st22{fill:#1A1A1A;}
	.st23{fill:#006986;}
	.st24{opacity:0.16;}
	.st25{opacity:0.34;fill:#FFFFFF;}
</style>
<pattern  x="60" y="58.2" width="242" height="242" patternUnits="userSpaceOnUse" id="New_Pattern" viewBox="0 -242 242 242" style="overflow:visible;">
	<g>
		<rect y="-242" class="st0" width="242" height="242"/>
		<rect y="-242" class="st1" width="242" height="242"/>
		<rect y="-242" class="st2" width="11" height="242"/>
		<rect x="22" y="-242" class="st2" width="11" height="242"/>
		<rect x="44" y="-242" class="st2" width="11" height="242"/>
		<rect x="66" y="-242" class="st2" width="11" height="242"/>
		<rect x="88" y="-242" class="st2" width="11" height="242"/>
		<rect x="110" y="-242" class="st2" width="11" height="242"/>
		<rect x="132" y="-242" class="st2" width="11" height="242"/>
		<rect x="154" y="-242" class="st2" width="11" height="242"/>
		<rect x="176" y="-242" class="st2" width="11" height="242"/>
		<rect x="198" y="-242" class="st2" width="11" height="242"/>
		<rect x="220" y="-242" class="st2" width="11" height="242"/>
		<rect y="-242" class="st2" width="242" height="11"/>
		<rect y="-220" class="st2" width="242" height="11"/>
		<rect y="-198" class="st2" width="242" height="11"/>
		<rect y="-176" class="st2" width="242" height="11"/>
		<rect y="-154" class="st2" width="242" height="11"/>
		<rect y="-132" class="st2" width="242" height="11"/>
		<rect y="-110" class="st2" width="242" height="11"/>
		<rect y="-88" class="st2" width="242" height="11"/>
		<rect y="-66" class="st2" width="242" height="11"/>
		<rect y="-44" class="st2" width="242" height="11"/>
		<rect y="-22" class="st2" width="242" height="11"/>
	</g>
</pattern>
<g>
	<g>
		<g class="st3">
			<path d="M207,313.2c0,1-28.2,1.8-63.1,1.8c-34.8,0-63.1-0.8-63.1-1.8c0-1,28.2-1.8,63.1-1.8C178.7,311.3,207,312.2,207,313.2z"/>
		</g>
		<g>
			<linearGradient id="SVGID_1_" gradientUnits="userSpaceOnUse" x1="164.4938" y1="275.8828" x2="164.4938" y2="218.628">
				<stop  offset="0" style="stop-color:#426897"/>
				<stop  offset="1" style="stop-color:#192F4B"/>
			</linearGradient>
			<path class="st4" d="M168.5,214.2c0.6,7.7,1.1,15.3,1.6,23c0.4,7.7,0.8,15.3,1.1,23c0.6,15.4,0.9,30.7,0.9,46.1l-15.1-0.6
				c1.2-15.1,2.1-30.3,2.7-45.5c0.3-7.6,0.5-15.2,0.7-22.8c0.2-7.6,0.2-15.2,0.2-22.8L168.5,214.2z"/>
			<linearGradient id="SVGID_2_" gradientUnits="userSpaceOnUse" x1="114.2712" y1="275.8826" x2="114.2712" y2="218.6277">
				<stop  offset="0" style="stop-color:#426897"/>
				<stop  offset="1" style="stop-color:#192F4B"/>
			</linearGradient>
			<path class="st5" d="M118.3,214.6c0,7.6,0.1,15.2,0.2,22.8c0.2,7.6,0.4,15.2,0.7,22.8c0.6,15.2,1.5,30.4,2.7,45.5l-15.1,0.6
				c0-15.4,0.3-30.8,0.9-46.1c0.3-7.7,0.7-15.3,1.1-23c0.4-7.7,0.9-15.3,1.6-23L118.3,214.6z"/>
			<pattern  id="SVGID_3_" xlink:href="#New_Pattern" patternTransform="matrix(1 0 0 1 968 0)">
			</pattern>
			<path class="st6" d="M104.3,149.7c-0.3,0.5-0.8,1.2-1.2,1.8c-0.4,0.7-0.8,1.3-1.2,2c-0.8,1.4-1.5,2.8-2.2,4.2
				c-1.3,2.9-2.5,5.8-3.5,8.9c-2,6-3.2,12.2-3.9,18.4c-1.3,12.5-0.1,24.9,2.7,37l-25.8,2.8c0-14.8,2.1-29.6,6.9-43.5
				c2.4-6.9,5.5-13.6,9.2-19.8c1.9-3.1,3.9-6.1,6.2-8.9c1.1-1.4,2.3-2.8,3.5-4.1c0.6-0.7,1.2-1.3,1.9-2c0.7-0.7,1.3-1.2,2.1-2
				L104.3,149.7z"/>
			<g>
				
					<linearGradient id="SVGID_4_" gradientUnits="userSpaceOnUse" x1="1155.9084" y1="203.8699" x2="1155.9084" y2="146.6153" gradientTransform="matrix(1 4.000000e-04 -4.000000e-04 1 -1016.3382 912.2162)">
					<stop  offset="0" style="stop-color:#426897"/>
					<stop  offset="1" style="stop-color:#192F4B"/>
				</linearGradient>
				<path class="st7" d="M178.6,211.8c0,9.6-14.4,8.5-36.7,8.5c-22.3,0-40.9,1-40.9-8.5c0-9.6,18.5-8.5,40.9-8.5
					C164.3,203.2,178.6,202.2,178.6,211.8z"/>
			</g>
			<g>
				<pattern  id="SVGID_5_" xlink:href="#New_Pattern" patternTransform="matrix(1 0 0 1 968 0)">
				</pattern>
				<path class="st8" d="M183.9,150.4c0-4.5-3.6-8.1-8.1-8.1h-71.3c-4.5,0-8.1,3.6-8.1,8.1v54.3c0,4.5,3.6,8.1,8.1,8.1h71.3
					c4.5,0,8.1-3.6,8.1-8.1V150.4z"/>
			</g>
			<polygon class="st9" points="126,143.2 139.2,157.6 152.5,143.2 			"/>
			<g>
				<pattern  id="SVGID_6_" xlink:href="#New_Pattern" patternTransform="matrix(1 0 0 1 968 0)">
				</pattern>
				<path class="st10" d="M179.7,144.7c1.6,0,3.4-0.1,5.1-0.3c1.7-0.2,3.4-0.5,5.1-0.8c3.4-0.7,6.6-1.7,9.7-3
					c6.1-2.6,11.3-6.4,15-11.2c3.7-4.8,6-10.4,7.3-16.4c1.2-6,1.4-12.5,1-19.1l25.9,1.2c-1.2,8.3-3.2,16.7-6.7,24.8
					c-3.5,8-8.8,15.7-15.7,21.3c-6.9,5.7-15.1,9.3-23.3,10.8c-4.1,0.8-8.2,1.1-12.2,1.1c-2,0-4-0.1-6-0.3c-2-0.2-3.9-0.5-6-0.9
					L179.7,144.7z"/>
				<g>
					<path class="st11" d="M256,63c-3-3.2-8-1.9-8-1.9L244.3,76c-0.3-0.1-0.5-0.1-0.8-0.2l1.2-17.5c-3.2-2.8-8.1-1-8.1-1l-2.9,17.1
						c-0.3,0-0.7,0-1-0.1l-1.2-15.6c-3.5-2.4-8.2,0-8.2,0l-0.9,19.5c-0.1,0.3-1.3,2.9-1.4,3.1l-8.7-4c-3.9,2.2-4.7,7.8-4.7,7.8
						l13,9.3c0.8,2.9,1.8,4.6,1.8,4.6c11.6,3.3,26.5,2.9,26.5,2.9c3.9-12.8,4.3-21.9,4.3-21.9L256,63z"/>
				</g>
			</g>
			<g>
				
					<radialGradient id="SVGID_7_" cx="-1985.6969" cy="3861.8948" r="28.0739" gradientTransform="matrix(1 -1.500000e-03 1.500000e-03 1 2159.9121 -3560.0923)" gradientUnits="userSpaceOnUse">
					<stop  offset="0" style="stop-color:#454545"/>
					<stop  offset="1" style="stop-color:#252525"/>
				</radialGradient>
				<path class="st12" d="M153.9,313.2l32.6,0c0.3,0,0.6-0.2,0.6-0.5c0.3-2.7-1.3-13.6-26.7-12.2c-6.4,0.3-7.3,9.9-7.1,12.3
					C153.4,313,153.7,313.2,153.9,313.2z"/>
			</g>
			<g>
				
					<radialGradient id="SVGID_8_" cx="212.2197" cy="304.8291" r="24.4049" gradientTransform="matrix(-1 0 0 1 320 0)" gradientUnits="userSpaceOnUse">
					<stop  offset="0" style="stop-color:#454545"/>
					<stop  offset="1" style="stop-color:#252525"/>
				</radialGradient>
				<path class="st13" d="M124.8,313.2h-21.1c-0.3,0-0.6-0.2-0.6-0.5c-0.3-2.7-1.2-12.1,11.7-12.3c11.8-0.1,10.8,9.8,10.5,12.3
					C125.4,312.9,125.1,313.2,124.8,313.2z"/>
			</g>
			<g>
				<path class="st11" d="M95.7,221.6c0,0-12-3.3-27.2,0.5c0,0-3.3,12.1,2.4,26.9c0,0,10,4.4,21.5,4.3c0,0-0.8-10.8-0.1-18.2
					c0,0,1.3,3.1,2.8,6.7c0,0,4,0,6-2.3C101,239.5,100,229.9,95.7,221.6z"/>
			</g>
		</g>
		<g>
			
				<radialGradient id="SVGID_9_" cx="-14282.2285" cy="-8570.335" r="51.4573" gradientTransform="matrix(0.9999 -1.240000e-02 1.240000e-02 0.9999 14526.9014 8483.5576)" gradientUnits="userSpaceOnUse">
				<stop  offset="0" style="stop-color:#FCC58A"/>
				<stop  offset="0.575" style="stop-color:#FCC289"/>
				<stop  offset="0.962" style="stop-color:#FBB986"/>
				<stop  offset="1" style="stop-color:#FBB885"/>
			</radialGradient>
			<path class="st14" d="M188.6,45.1c-0.1-4.5-3.7-8-8.2-7.9l-82.5,1c-4.5,0.1-8,3.6-8,8.1c0,0,0,10.1,1.8,70.1
				c0.6,19.8,4.8,27.9,9.1,27.8h78.8c4.3-0.1,8.7-9.2,8.8-29C188.8,55.1,188.6,45.1,188.6,45.1z"/>
			<g>
				<path class="st15" d="M189.7,97.6c0.2-47.9-1.2-52.6-1.2-52.6c-0.1-4.5-3.7-8-8.2-8l-82.5,1c-4.5,0.1-8,3.7-8,8.2
					c0,0-1.4,6,0,53.9c0.4,0.4,1.6,6.9,1.6,6.9c0.3-29.3,6.3-51.5,6.3-51.5s29.8,15.8,62.7,5.4l-6.1-5.4c17.7-2,23.1-5.5,23.1-5.5
					c8.9,21.2,11.1,53.3,11.1,53.3C188.7,103.2,189.7,97.6,189.7,97.6z"/>
			</g>
			<g>
				
					<linearGradient id="SVGID_10_" gradientUnits="userSpaceOnUse" x1="-14283.8516" y1="-8663.6396" x2="-14283.8516" y2="-8554.4238" gradientTransform="matrix(0.9999 -1.240000e-02 1.240000e-02 0.9999 14526.9014 8483.5576)">
					<stop  offset="0" style="stop-color:#574537"/>
					<stop  offset="0.5758" style="stop-color:#433329"/>
					<stop  offset="1" style="stop-color:#32241D"/>
				</linearGradient>
				<path class="st16" d="M91.5,107c0-1.3-7.8-3.3-9.2-52.3c-1,1.1-2.6,2-3.6,3.3C78.7,44.9,85,42.2,85,42.2c-1.8,1.7,0.1-0.1,0,0
					c0,0,0-2.4-3.9-2.6c2.9-3.6,5.8-3.7,10.2-3.9c-1-0.3,2.7-7.8,3.2-8.4c2.3-2.7,6.3-4.4,9.7-5.1c-1.2,1.3-1.7,2.8-2.7,4.2
					c11.6-4.9,16.6-8.5,29.5-8.8c10.5-0.2,25.9-0.6,36-4.6c6.6-2.6,11.4-6.6,10.4-12.9c-0.2-0.1-0.3-0.1,0,0
					c11.3,7.3,10,19.4,10,19.4s1.3-0.4,3.2-4.6c2.8,8.2,1.5,17.2-2,22.6c10.6,6.2,8,23,7.5,31c-1.8,27.7-7.6,34.9-7.6,34.9
					c0.3-16.6-1.6-42-8.9-57.1c0,0-8.4,5.9-22.4,8.8l6.5,3.4c-35.8,9-67.5-5.8-67.2-8.2C96.5,50.6,90,66.4,91.5,107z"/>
			</g>
			<path class="st17" d="M184.8,98.7c0,3-2.4,5.5-5.4,5.5c-3,0-5.5-2.4-5.5-5.4c0-3,2.4-5.5,5.4-5.5
				C182.3,93.2,184.8,95.7,184.8,98.7z"/>
			<path class="st17" d="M106.5,99.7c0,3-2.4,5.5-5.4,5.5c-3,0-5.5-2.4-5.5-5.4c0-3,2.4-5.5,5.4-5.5
				C103.9,94.2,106.4,96.6,106.5,99.7z"/>
			<path class="st18" d="M115.8,29.5c19.5-10.7,28.6-5.9,45.7-8.9c7.4-1.3,9.7-5.9,9.7-5.9c-5,16.9-27.3,8.7-43.9,11.7L115.8,29.5z"
				/>
		</g>
		<g>
			<radialGradient id="SVGID_11_" cx="116.449" cy="80.6292" r="8.7631" gradientUnits="userSpaceOnUse">
				<stop  offset="0" style="stop-color:#454545"/>
				<stop  offset="1" style="stop-color:#101010"/>
			</radialGradient>
			<path class="st19" d="M124.1,80.9c0,4.2-3.4,7.6-7.6,7.6c-4.2,0-7.6-3.4-7.6-7.6c0-4.2,3.4-7.6,7.6-7.6
				C120.7,73.3,124.1,76.7,124.1,80.9z"/>
			<path class="st9" d="M121.3,78.3c0,1.5-1.2,2.7-2.7,2.7c-1.5,0-2.7-1.2-2.7-2.7c0-1.5,1.2-2.7,2.7-2.7
				C120.1,75.6,121.3,76.8,121.3,78.3z"/>
		</g>
		<g>
			<radialGradient id="SVGID_12_" cx="164.7766" cy="80.6292" r="8.7634" gradientUnits="userSpaceOnUse">
				<stop  offset="0" style="stop-color:#454545"/>
				<stop  offset="1" style="stop-color:#101010"/>
			</radialGradient>
			<path class="st20" d="M172.4,80.9c0,4.2-3.4,7.6-7.6,7.6c-4.2,0-7.6-3.4-7.6-7.6c0-4.2,3.4-7.6,7.6-7.6
				C169,73.3,172.4,76.7,172.4,80.9z"/>
			<path class="st9" d="M169.6,78.3c0,1.5-1.2,2.7-2.7,2.7c-1.5,0-2.7-1.2-2.7-2.7c0-1.5,1.2-2.7,2.7-2.7
				C168.5,75.6,169.6,76.8,169.6,78.3z"/>
		</g>
		<g>
			<path class="st21" d="M141.9,122.2c-13.9,0-20.3-5.3-20.6-5.5c-0.8-0.7-0.9-1.9-0.2-2.7c0.7-0.8,1.9-0.9,2.7-0.2
				c0.1,0.1,5.8,4.6,18.1,4.6c10.1,0,15.3-4.6,15.4-4.6c0.8-0.7,2-0.6,2.7,0.2c0.7,0.8,0.6,2-0.1,2.7
				C159.6,116.8,153.6,122.2,141.9,122.2z"/>
		</g>
	</g>
	<path class="st22" d="M193,68.9c-7-0.5-9.5-2.1-23.7-2c-11,0.1-17.7,2.3-28.7,2.3h0c-11,0-17.7-2.3-28.7-2.3
		c-14.1-0.1-16.6,1.6-23.7,2.1c-0.6,0-1.2,0.5-1.1,1.6c0,1.8,0.1,3.4,0.1,5.1c0,1.5,1.2,1.3,1.9,3c2.3,5.5,1.3,14.6,6.7,19.3
		c1.5,1.4,4.3,3,7,3.3c12.9,1.2,24.1,2,29-11.2c1-2.7,2.5-5,3.6-9c1.5-2.8,1.6-2.2,5.1-2.4c3.6,0.2,3.7-0.4,5.1,2.4
		c1.1,4.1,2.6,6.3,3.6,9c4.9,13.2,16.1,12.4,29,11.2c2.7-0.2,5.4-1.9,7-3.3c5.4-4.8,4.5-13.9,6.7-19.3c0.7-1.7,1.9-1.5,1.9-3
		c0-1.6,0.1-3.3,0.1-5.1C194.2,69.5,193.6,69,193,68.9z M132.1,84.9c-1.4,4.9-3.5,9.7-7.8,12.4c-2.9,1.9-7,2.9-11.6,3
		c-13.5,0.2-19-4.2-19.1-15.6c0-5.4-1-10.4,2.1-12.9c3.5-2.8,11.3-3,17.1-3c6,0,15.5,1,19,4.4C134.8,76.1,133.4,80.4,132.1,84.9z
		 M187.5,84.7c-0.1,11.4-5.5,15.9-19.1,15.6c-4.6-0.1-8.7-1.2-11.6-3c-4.2-2.7-6.4-7.6-7.8-12.4c-1.3-4.5-2.6-8.9,0.3-11.7
		c3.5-3.4,12.9-4.4,19-4.4c5.8,0,13.7,0.1,17.1,3C188.5,74.4,187.5,79.3,187.5,84.7z"/>
	<path class="st23" d="M96.1,160.5c0.4-3.5,2.5-5,2.5-5s-1,1.1-1.7,5c-0.7,4-0.4,5.9-0.4,5.9S95.7,164.2,96.1,160.5z"/>
</g>
<g>
	<g class="st24">
		<g>
			<path d="M249.6,223.5c-4.1,2.7,0,7.3-0.2,11c-0.3,4.3-3,4.5-4.1,7.7c-1.5,4.4,1,8.1-2.9,12.2c-0.2,0.2,0.1,0.6,0.3,0.3
				c1.5-1.5,2.4-3.1,2.7-5.3c0.2-1,0-2,0.1-3c0.3-2.9,1.2-5.1,2.8-7.4c0.9-1.3,1.4-2.2,1.6-3.8c0.3-3-3.1-9.2,0.1-11.2
				C250,223.8,249.8,223.4,249.6,223.5L249.6,223.5z"/>
		</g>
	</g>
	<polygon class="st1" points="251.5,221.7 252.1,225.3 246.1,223.4 250.1,220.8 	"/>
	
		<ellipse transform="matrix(0.2241 -0.9746 0.9746 0.2241 8.3157 403.3897)" class="st1" cx="257.5" cy="196.5" rx="26.9" ry="22.9"/>
	<circle class="st25" cx="272.6" cy="183.5" r="3.4"/>
</g>
<g>
	<g class="st24">
		<g>
			<path d="M40.8,132.3c-1.1,1.6-1.2,3.1-0.4,4.9c1.9,4.4,7.2,5.8,7.3,11.6c0,3.3-1.9,5.6-1.1,8.9c1.4,5.3,5.4,8.5,3.2,14.6
				c-0.2,0.5,0.7,0.8,0.8,0.2c1-2.8,0.9-5.3,0-8c-0.4-1.3-1.1-2.4-1.7-3.7c-1.6-3.3-1.7-5.4-1-8.9c0.5-2.3,0.7-4-0.1-6.3
				c-1.3-3.4-8.9-9.1-6.3-12.9C41.9,132.3,41.1,131.8,40.8,132.3L40.8,132.3z"/>
		</g>
	</g>
	<polygon class="st1" points="42.1,129.1 44.8,132.9 36.8,134.2 40.1,128.9 	"/>
	
		<ellipse transform="matrix(0.9745 -0.2244 0.2244 0.9745 -20.7219 10.2804)" class="st1" cx="34.9" cy="96.3" rx="29.6" ry="34.9"/>
	<circle class="st25" cx="45.1" cy="72.7" r="4.4"/>
</g>
</svg>
