<?xml version="1.0" encoding="utf-8"?>
<!-- Generator: Adobe Illustrator 22.0.1, SVG Export Plug-In . SVG Version: 6.00 Build 0)  -->
<svg version="1.1" id="Layer_1" xmlns="http://www.w3.org/2000/svg" xmlns:xlink="http://www.w3.org/1999/xlink" x="0px" y="0px"
	 width="324.8px" height="336.2px" viewBox="0 0 324.8 336.2" style="enable-background:new 0 0 324.8 336.2;" xml:space="preserve"
	>
<style type="text/css">
	.st0{fill:#F2F2F2;}
	.st1{fill:#5B422D;}
	.st2{fill:url(#SVGID_1_);}
	.st3{fill:url(#SVGID_2_);}
	.st4{fill:#CE985E;}
	.st5{fill:#836F67;}
	.st6{fill:#EFA470;}
	.st7{fill:url(#SVGID_3_);}
	.st8{fill:#FFFFFF;}
	.st9{fill:url(#SVGID_4_);}
	.st10{fill:url(#SVGID_5_);}
	.st11{fill:url(#SVGID_6_);}
	.st12{fill:url(#SVGID_7_);}
	.st13{fill:url(#SVGID_8_);}
	.st14{fill:url(#SVGID_9_);}
	.st15{fill:url(#SVGID_10_);}
	.st16{fill:url(#SVGID_11_);}
	.st17{fill:url(#SVGID_12_);}
	.st18{fill:url(#SVGID_13_);}
	.st19{fill:url(#SVGID_14_);}
	.st20{fill:url(#SVGID_15_);}
	.st21{fill:#8C6239;}
	.st22{fill:url(#SVGID_16_);}
	.st23{fill:url(#SVGID_17_);}
	.st24{fill:url(#SVGID_18_);}
	.st25{fill:url(#SVGID_19_);}
	.st26{fill:url(#SVGID_20_);}
	.st27{fill:url(#SVGID_21_);}
	.st28{fill:url(#SVGID_22_);}
	.st29{fill:url(#SVGID_23_);}
	.st30{fill:url(#SVGID_24_);}
	.st31{fill:url(#SVGID_25_);}
	.st32{fill:#666666;}
	.st33{fill:url(#SVGID_26_);}
	.st34{fill:url(#SVGID_27_);}
	.st35{fill:url(#SVGID_28_);}
	.st36{opacity:0.26;fill:url(#SVGID_29_);enable-background:new    ;}
	.st37{opacity:0.57;fill:#FFFFFF;enable-background:new    ;}
	.st38{fill:url(#SVGID_30_);}
	.st39{fill:url(#SVGID_31_);}
	.st40{fill:#6D4A2D;}
	.st41{fill:url(#SVGID_32_);}
	.st42{fill:url(#SVGID_33_);}
	.st43{fill:url(#SVGID_34_);}
	.st44{fill:url(#SVGID_35_);}
	.st45{fill:url(#SVGID_36_);}
	.st46{fill:url(#SVGID_37_);}
	.st47{fill:url(#SVGID_38_);}
	.st48{fill:url(#SVGID_39_);}
	.st49{fill:url(#SVGID_40_);}
	.st50{fill:url(#SVGID_41_);}
	.st51{fill:url(#SVGID_42_);}
	.st52{fill:url(#SVGID_43_);}
	.st53{opacity:0.26;fill:url(#SVGID_44_);enable-background:new    ;}
	.st54{fill:url(#SVGID_45_);}
	.st55{fill:url(#SVGID_46_);}
	.st56{clip-path:url(#SVGID_48_);}
	.st57{fill:url(#SVGID_49_);}
	.st58{fill:url(#SVGID_50_);}
	.st59{fill:url(#SVGID_51_);}
	.st60{opacity:0.26;fill:url(#SVGID_52_);enable-background:new    ;}
	.st61{fill:url(#SVGID_53_);}
</style>
<circle class="st0" cx="162.4" cy="173.8" r="162.4"/>
<g id="characters__x2F__objects__x2F__postitions">
	<path class="st1" d="M163.3,178.7l-28.7,9.6l16.4,9.8c0,0,19.7-2.2,19.9-3.5s-7-15.9-7-15.9 M202.3,125.9c0,0,23.3,1.6-2,18.3
		c-0.8-9.7,0-17.8,0-17.8L202.3,125.9z"/>
	
		<linearGradient id="SVGID_1_" gradientUnits="userSpaceOnUse" x1="-322.5709" y1="1010.032" x2="-322.5709" y2="931.14" gradientTransform="matrix(0.9361 0 0 1 440.8967 -688.158)">
		<stop  offset="0" style="stop-color:#426897"/>
		<stop  offset="1" style="stop-color:#192F4B"/>
	</linearGradient>
	<path class="st2" d="M151.9,247.9c-4.9,11.7-25.5,45.4,0.4,75l-16,1.1c-23.3-28.8-2.6-57.2,5.7-73.3L151.9,247.9L151.9,247.9z"/>
	
		<radialGradient id="SVGID_2_" cx="-503.2921" cy="913.7615" r="47.2017" gradientTransform="matrix(1.0734 -0.2799 0.2735 1.0927 442.2343 -1007.744)" gradientUnits="userSpaceOnUse">
		<stop  offset="0" style="stop-color:#FCC58A"/>
		<stop  offset="0.575" style="stop-color:#FCC289"/>
		<stop  offset="0.962" style="stop-color:#FBB986"/>
		<stop  offset="1" style="stop-color:#FBB885"/>
	</radialGradient>
	<path class="st3" d="M194.1,179.1c4.2-1.1,10.8-30.8,6.3-50.4c-13.7-59.3-13.1-56.4-13.1-56.4c-1.1-4.4-5.5-7-9.7-5.9L97.8,87.2
		c-4.3,1.1-5.5,7-4.4,11.3c3.3,11.3,5.9,21.9,14.3,53.6c12.2,45.5,22.8,43,41.7,38L194.1,179.1z"/>
	<path class="st4" d="M198.4,112c-8.8-47.8-8.3-53.1-8.3-53.1c-0.9-4.4-5.2-7.3-9.5-6.4L99.9,69.6c-4.5,0.9-7,25-9.7,11.6
		c-0.5-0.7-1.9,1.2,7.1,42c0.4,0.3,7,16.4,7,16.4c-12.4-30.7-7-48-7-48s46.4,8.8,76.7-8l-5.1-1.6l9.6-2c13.7,21,16.7,50,16.3,42.9
		C194.8,122.6,198.3,112.2,198.4,112L198.4,112z"/>
	<path class="st5" d="M115.7,57.5c17.1-14.4,26.9-11.5,43.1-17.7c7-2.8,8.2-7.8,8.2-7.8c-1.8,17.8-25.1,14-40.8,20.2L115.7,57.5
		L115.7,57.5z"/>
	<path class="st6" d="M121.8,139.8c0.4,3-1.7,5.9-4.7,6.3c-3,0.4-5.8-1.7-6.2-4.7c-0.4-3,1.7-5.9,4.7-6.3
		C118.6,134.6,121.4,136.7,121.8,139.8z"/>
	<path class="st4" d="M107.4,120.6c0.6,4.4,4.6,7.5,8.9,6.8c4.4-0.6,7.3-4.7,6.8-9.1c-0.6-4.4-4.6-7.5-8.9-6.8
		C109.9,112.1,106.8,116.2,107.4,120.6z"/>
	
		<radialGradient id="SVGID_3_" cx="-846.5854" cy="854.8671" r="6.3126" gradientTransform="matrix(-1.097 0.1581 0.1533 1.1168 -944.5563 -701.975)" gradientUnits="userSpaceOnUse">
		<stop  offset="0" style="stop-color:#333333"/>
		<stop  offset="0.456" style="stop-color:#313131"/>
		<stop  offset="0.7" style="stop-color:#292929"/>
		<stop  offset="0.894" style="stop-color:#1B1B1B"/>
		<stop  offset="1" style="stop-color:#101010"/>
	</radialGradient>
	<path class="st7" d="M108.3,119.9c0.5,3.9,4.1,6.6,7.8,6.1c3.9-0.6,6.5-4.2,6-8.1s-4.1-6.6-7.8-6
		C110.4,112.4,107.7,116,108.3,119.9z"/>
	<path class="st8" d="M119.7,114.8c1,1.4,0.9,3.2-0.3,4.1c-1.2,0.9-3,0.5-4-0.9s-0.9-3.2,0.3-4.1
		C116.9,113.1,118.7,113.4,119.7,114.8z"/>
	<path class="st4" d="M169.8,109.1c0.6,4.4-2.4,8.5-6.8,9.1s-8.3-2.4-8.9-6.8c-0.6-4.4,2.4-8.5,6.8-9.1
		C165.1,101.6,169.2,104.7,169.8,109.1z"/>
	
		<radialGradient id="SVGID_4_" cx="-417.8518" cy="853.2737" r="6.3072" gradientTransform="matrix(1.097 -0.1581 0.1533 1.1168 489.4147 -909.3395)" gradientUnits="userSpaceOnUse">
		<stop  offset="0" style="stop-color:#333333"/>
		<stop  offset="0.456" style="stop-color:#313131"/>
		<stop  offset="0.7" style="stop-color:#292929"/>
		<stop  offset="0.894" style="stop-color:#1B1B1B"/>
		<stop  offset="1" style="stop-color:#101010"/>
	</radialGradient>
	<path class="st9" d="M168.8,108.7c0.5,3.9-2.1,7.5-6,8c-3.9,0.6-7.3-2.2-7.8-6.1s2.1-7.5,6-8C164.7,102.1,168.2,104.8,168.8,108.7z
		"/>
	<path class="st8" d="M166.4,105.6c1,1.4,0.9,3.2-0.3,4.1s-3,0.5-4-0.9s-0.9-3.2,0.3-4.1S165.4,104.2,166.4,105.6z"/>
	
		<linearGradient id="SVGID_5_" gradientUnits="userSpaceOnUse" x1="-14769.5186" y1="-7372.0542" x2="-14769.5186" y2="-7249.7915" gradientTransform="matrix(0.9166 -0.2027 0.1897 0.9792 15067.4004 4246.9922)">
		<stop  offset="0" style="stop-color:#574537"/>
		<stop  offset="0.576" style="stop-color:#433329"/>
		<stop  offset="1" style="stop-color:#32241D"/>
	</linearGradient>
	<path class="st10" d="M104.4,140.3c-0.4-2.2-6.3-3.5-16.6-51.1c-0.8,1.3-2.2,2.5-2.9,4c-2.6-13.1,3.1-17,3.1-17c-1.5,2,0.1-0.1,0,0
		c0,0-0.5-2.4-4.4-1.8c2.1-4.1,5-4.8,9.2-5.9c-1.1-0.1,7.1-4.7,7.4-5.4c1.7-3.2,2.1-5.2,2.6-10.6c-1,1.5-1.2,3.2-1.8,4.7
		c10.4-7.1,14.7-11.7,27.3-14.5c10.2-2.3,25.2-5.6,34.4-11.6c6-3.9,9.9-8.8,7.7-14.9c-0.3-0.1-0.3-0.1,0,0
		c12.4,5.1,13.5,17.4,13.5,17.4s1.2-0.6,2.3-5.2c4.3,7.7,4.7,16.8,2.3,23c11.5,4.1,17.8,46.1,17.5,54.2c-1.2,30.5-6.6,26-11.7,23.5
		c-2.9-16.6-4.5-39.3-14.5-52.9c0,0-5-1.9-18.1,3.7l7,2.1c-33.4,16-74.2,8.6-74.3,6.1C94.6,89.6,94.1,101.7,104.4,140.3L104.4,140.3
		z"/>
	<path class="st1" d="M169.2,178.3c0,0-6,42-33.8,1.5c19,1.2,32.5-4.6,32.5-4.6L169.2,178.3z"/>
	
		<radialGradient id="SVGID_6_" cx="10043.0957" cy="4506.7671" r="25.284" gradientTransform="matrix(-1.4758 -2.200000e-03 -1.690000e-03 1.128 14954.4463 -4735.8413)" gradientUnits="userSpaceOnUse">
		<stop  offset="0" style="stop-color:#454545"/>
		<stop  offset="1" style="stop-color:#252525"/>
	</radialGradient>
	<path class="st11" d="M160.2,334.3l-43.3-0.1c-0.4,0-0.7-0.2-0.8-0.5c-0.4-2.7,1.7-13.8,35.5-12.4c8.5,0.3,9.7,10,9.4,12.5
		C160.9,334.1,160.6,334.3,160.2,334.3L160.2,334.3z"/>
	
		<linearGradient id="SVGID_7_" gradientUnits="userSpaceOnUse" x1="-2338.2502" y1="1008.8849" x2="-2338.2502" y2="923.2939" gradientTransform="matrix(-0.9144 2.500000e-03 0.1975 1.0232 -2121.9902 -703.1367)">
		<stop  offset="0" style="stop-color:#426897"/>
		<stop  offset="1" style="stop-color:#192F4B"/>
	</linearGradient>
	<path class="st12" d="M192.6,245.6c7.1,12,7.6,18.1,11,38.9c1.1,11.5,5.2,34.2,3.7,40.2l14,1.1c1.7-18.9-4.4-31.6-8.1-47.6
		c-1.9-8-1.9-20.5-13.3-36.9L192.6,245.6L192.6,245.6z"/>
	
		<radialGradient id="SVGID_8_" cx="11807.9219" cy="4452.8394" r="26.523" gradientTransform="matrix(1.1765 -2.000000e-03 1.690000e-03 1.2529 -13674.0625 -5230.019)" gradientUnits="userSpaceOnUse">
		<stop  offset="0" style="stop-color:#454545"/>
		<stop  offset="1" style="stop-color:#252525"/>
	</radialGradient>
	<path class="st13" d="M197.4,335.6l34.6-0.1c0.3,0,0.6-0.3,0.6-0.6c0.3-3,2.3-15-16.1-15c-24,0-20,12.3-19.7,15
		C196.8,335.3,197.1,335.6,197.4,335.6L197.4,335.6z"/>
	
		<linearGradient id="SVGID_9_" gradientUnits="userSpaceOnUse" x1="-1139.0151" y1="937.3474" x2="-1139.0151" y2="811.0471" gradientTransform="matrix(-0.9361 0 0 1 -880.8497 -688.158)">
		<stop  offset="0" style="stop-color:#8C6239"/>
		<stop  offset="3.400000e-02" style="stop-color:#8F653C"/>
		<stop  offset="0.208" style="stop-color:#9C7248"/>
		<stop  offset="0.443" style="stop-color:#A3794F"/>
		<stop  offset="1" style="stop-color:#A57B51"/>
	</linearGradient>
	<path class="st14" d="M148.1,195.6c2.4-0.7,18.2-11.3,13.4-30.2c23.7-3.9,36.8-16.1,45.5-28.8c7.1-10.7-2-9-2-9
		c1.5-4.7-0.6-2.3-0.6-4.7c8.9-0.2,12.6,2.3,10.6,12.4c-2.9,14.6-1.7,15.6-1.7,15.6s13.3,25.4,8.2,82c-8.7,14.7-58.6,16.8-62.6,16.2
		C155,248.3,148.1,195.6,148.1,195.6L148.1,195.6z"/>
	
		<linearGradient id="SVGID_10_" gradientUnits="userSpaceOnUse" x1="-1102.8263" y1="930.658" x2="-1102.8263" y2="1006.4245" gradientTransform="matrix(-0.9361 0 0 1 -880.8497 -688.158)">
		<stop  offset="0" style="stop-color:#8C6239"/>
		<stop  offset="3.400000e-02" style="stop-color:#8F653C"/>
		<stop  offset="0.208" style="stop-color:#9C7248"/>
		<stop  offset="0.443" style="stop-color:#A3794F"/>
		<stop  offset="1" style="stop-color:#A57B51"/>
	</linearGradient>
	<path class="st15" d="M124.5,313.5c0,0-7.8-29.5,7.5-56.8c37.4,4.4,48.5-14.2,48.5-14.2s-1.9,24.2-3.5,29.3
		c-1.6,5.2-5.7,19.8-9.8,45.1C149.7,318.9,132.9,319.4,124.5,313.5L124.5,313.5z"/>
	
		<linearGradient id="SVGID_11_" gradientUnits="userSpaceOnUse" x1="-1152.7135" y1="932.758" x2="-1152.7135" y2="1005.194" gradientTransform="matrix(-0.9361 0 0 1 -880.8497 -688.158)">
		<stop  offset="0" style="stop-color:#8C6239"/>
		<stop  offset="3.400000e-02" style="stop-color:#8F653C"/>
		<stop  offset="0.208" style="stop-color:#9C7248"/>
		<stop  offset="0.443" style="stop-color:#A3794F"/>
		<stop  offset="1" style="stop-color:#A57B51"/>
	</linearGradient>
	<path class="st16" d="M224.6,244.6c0,0,5.4,7.6,7.5,29.3c2.5,24.6-0.1,33.2-1,35.4c-1.6,4.1-48.5,9.2-53.5,7.2
		c-5.3-2.1-15.7-53.7-14.2-57.4c1.7-4,9.2-11.6,9.2-11.6L224.6,244.6z"/>
	
		<linearGradient id="SVGID_12_" gradientUnits="userSpaceOnUse" x1="-1023.3946" y1="858.658" x2="-1023.3946" y2="907.3738" gradientTransform="matrix(-0.9361 0 0 1 -880.8497 -688.158)">
		<stop  offset="0" style="stop-color:#8C6239"/>
		<stop  offset="3.400000e-02" style="stop-color:#8F653C"/>
		<stop  offset="0.208" style="stop-color:#9C7248"/>
		<stop  offset="0.443" style="stop-color:#A3794F"/>
		<stop  offset="1" style="stop-color:#A57B51"/>
	</linearGradient>
	<path class="st17" d="M119.6,214.2c0,0-14.8-1.1-25.2,3.2c-20.6,8.5-59.7-15.6-59.7-15.6s30.4-25.9,74.1-31.3
		c3.6,4.9,8.7,17.9,10.5,24.7C117.5,205.5,119.6,214.2,119.6,214.2L119.6,214.2z"/>
	
		<linearGradient id="SVGID_13_" gradientUnits="userSpaceOnUse" x1="-966.754" y1="907.0158" x2="-1017.3667" y2="907.0158" gradientTransform="matrix(-0.9361 0 0 1 -880.8497 -688.158)">
		<stop  offset="0" style="stop-color:#8C6239"/>
		<stop  offset="1" style="stop-color:#A57B51"/>
	</linearGradient>
	<path class="st18" d="M64.5,239.7c0,0-7.7,11.7-23.3,3.5c-28.9-15.3-13.5-34.7-7.3-40.5c11.6-10.9,37.7-11.1,37.7-11.1L64.5,239.7"
		/>
	
		<linearGradient id="SVGID_14_" gradientUnits="userSpaceOnUse" x1="-1086.8788" y1="941.258" x2="-1086.8788" y2="834.258" gradientTransform="matrix(-0.9361 0 0 1 -880.8497 -688.158)">
		<stop  offset="0" style="stop-color:#8C6239"/>
		<stop  offset="3.400000e-02" style="stop-color:#8F653C"/>
		<stop  offset="0.208" style="stop-color:#9C7248"/>
		<stop  offset="0.443" style="stop-color:#A3794F"/>
		<stop  offset="1" style="stop-color:#A57B51"/>
	</linearGradient>
	<path class="st19" d="M174.5,246.2C172,243.9,161,192,161,192s-27.3-5.1-26.4-25.1c-23.7,6.3-38.9-3.8-29.3-15.5
		c-0.4-1.3,0.9-4.4,0.6-5.3c-14.6,16.5-3.2,20.9,0.3,29.8c1.5,3.2,7.9,8.7,10.5,11.7c0,0-0.6,13.9,2,28.2c2.6,14.2,5.7,27,11.8,32.7
		c3.2,3,11.4,4.6,23.5,4.6C166.3,253.1,174.5,246.2,174.5,246.2z"/>
	<path class="st1" d="M109.4,166.4l2.3-0.6l-4.1-13.7C107.6,152.2,94.6,168.2,109.4,166.4z"/>
	
		<linearGradient id="SVGID_15_" gradientUnits="userSpaceOnUse" x1="-1206.3767" y1="854.0746" x2="-1159.6066" y2="935.0836" gradientTransform="matrix(-0.9361 0 0 1 -880.8497 -688.158)">
		<stop  offset="0" style="stop-color:#8C6239"/>
		<stop  offset="3.400000e-02" style="stop-color:#8F653C"/>
		<stop  offset="0.208" style="stop-color:#9C7248"/>
		<stop  offset="0.443" style="stop-color:#A3794F"/>
		<stop  offset="1" style="stop-color:#A57B51"/>
	</linearGradient>
	<path class="st20" d="M213.4,151.1c-0.3,7.2-5-5.6,9.9,2c10.4,5.3,27.1,6.4,31.1,32.5c2.5,16.6,2.4,41.5-1.5,55.7
		c-0.6,4-23.3,26.1-23.3,20.4c0-4-6.3-21.7-6.3-21.7c-12.5,7.3-11.8-54.5-14.1-85.4"/>
	<path class="st21" d="M134.5,166.4c0,0-43.2,5.2-26.9-14.2c-0.9-3-1.6-6-1.6-6s-27.7,29.1,24.7,24.8c3.3,5.2,14.9,16.7,19.4,17.1
		C135.5,176.8,134.7,167.4,134.5,166.4"/>
	<path class="st4" d="M198.4,112c-8.8-47.8-8.3-53.1-8.3-53.1c-0.9-4.4-5.2-7.3-9.5-6.4L99.9,69.6c-4.5,0.9-7,25-9.7,11.6
		c-0.5-0.7-1.9,1.2,7.1,42c0.4,0.3,7,16.4,7,16.4c-12.4-30.7-7-48-7-48s46.4,8.8,76.7-8l-5.1-1.6l9.6-2c13.7,21,16.7,50,16.3,42.9
		C194.8,122.6,198.3,112.2,198.4,112L198.4,112z"/>
	<path class="st5" d="M115.7,57.5c17.1-14.4,26.9-11.5,43.1-17.7c7-2.8,8.2-7.8,8.2-7.8c-1.8,17.8-25.1,14-40.8,20.2L115.7,57.5
		L115.7,57.5z"/>
	<path class="st6" d="M170,134.2c0.4,3-1.7,5.9-4.7,6.3c-3,0.4-5.8-1.7-6.2-4.7s1.7-5.9,4.7-6.3C166.8,129.1,169.6,131.2,170,134.2z
		 M121.8,139.8c0.4,3-1.7,5.9-4.7,6.3c-3,0.4-5.8-1.7-6.2-4.7c-0.4-3,1.7-5.9,4.7-6.3C118.6,134.6,121.4,136.7,121.8,139.8z"/>
	<path class="st4" d="M107.4,120.6c0.6,4.4,4.6,7.5,8.9,6.8c4.4-0.6,7.3-4.7,6.8-9.1c-0.6-4.4-4.6-7.5-8.9-6.8
		C109.9,112.1,106.8,116.2,107.4,120.6z"/>
	
		<radialGradient id="SVGID_16_" cx="-846.5854" cy="854.8671" r="6.3126" gradientTransform="matrix(-1.097 0.1581 0.1533 1.1168 -944.5563 -701.975)" gradientUnits="userSpaceOnUse">
		<stop  offset="0" style="stop-color:#333333"/>
		<stop  offset="0.456" style="stop-color:#313131"/>
		<stop  offset="0.7" style="stop-color:#292929"/>
		<stop  offset="0.894" style="stop-color:#1B1B1B"/>
		<stop  offset="1" style="stop-color:#101010"/>
	</radialGradient>
	<path class="st22" d="M108.3,119.9c0.5,3.9,4.1,6.6,7.8,6.1c3.9-0.6,6.5-4.2,6-8.1s-4.1-6.6-7.8-6
		C110.4,112.4,107.7,116,108.3,119.9z"/>
	<path class="st8" d="M119.7,114.8c1,1.4,0.9,3.2-0.3,4.1c-1.2,0.9-3,0.5-4-0.9s-0.9-3.2,0.3-4.1
		C116.9,113.1,118.7,113.4,119.7,114.8z"/>
	<path class="st4" d="M169.8,109.1c0.6,4.4-2.4,8.5-6.8,9.1s-8.3-2.4-8.9-6.8c-0.6-4.4,2.4-8.5,6.8-9.1
		C165.1,101.6,169.2,104.7,169.8,109.1z"/>
	
		<radialGradient id="SVGID_17_" cx="-417.8518" cy="853.2737" r="6.3072" gradientTransform="matrix(1.097 -0.1581 0.1533 1.1168 489.4147 -909.3395)" gradientUnits="userSpaceOnUse">
		<stop  offset="0" style="stop-color:#333333"/>
		<stop  offset="0.456" style="stop-color:#313131"/>
		<stop  offset="0.7" style="stop-color:#292929"/>
		<stop  offset="0.894" style="stop-color:#1B1B1B"/>
		<stop  offset="1" style="stop-color:#101010"/>
	</radialGradient>
	<path class="st23" d="M168.8,108.7c0.5,3.9-2.1,7.5-6,8c-3.9,0.6-7.3-2.2-7.8-6.1s2.1-7.5,6-8C164.7,102.1,168.2,104.8,168.8,108.7
		z"/>
	<path class="st8" d="M166.4,105.6c1,1.4,0.9,3.2-0.3,4.1s-3,0.5-4-0.9s-0.9-3.2,0.3-4.1S165.4,104.2,166.4,105.6z"/>
	
		<linearGradient id="SVGID_18_" gradientUnits="userSpaceOnUse" x1="-14769.5186" y1="-7372.0542" x2="-14769.5186" y2="-7249.7915" gradientTransform="matrix(0.9166 -0.2027 0.1897 0.9792 15067.4004 4246.9922)">
		<stop  offset="0" style="stop-color:#574537"/>
		<stop  offset="0.576" style="stop-color:#433329"/>
		<stop  offset="1" style="stop-color:#32241D"/>
	</linearGradient>
	<path class="st24" d="M104.4,140.3c-0.4-2.2-6.3-3.5-16.6-51.1c-0.8,1.3-2.2,2.5-2.9,4c-2.6-13.1,3.1-17,3.1-17c-1.5,2,0.1-0.1,0,0
		c0,0-0.5-2.4-4.4-1.8c2.1-4.1,5-4.8,9.2-5.9c-1.1-0.1,7.1-4.7,7.4-5.4c1.7-3.2,2.1-5.2,2.6-10.6c-1,1.5-1.2,3.2-1.8,4.7
		c10.4-7.1,14.7-11.7,27.3-14.5c10.2-2.3,25.2-5.6,34.4-11.6c6-3.9,9.9-8.8,7.7-14.9c-0.3-0.1-0.3-0.1,0,0
		c12.4,5.1,13.5,17.4,13.5,17.4s1.2-0.6,2.3-5.2c4.3,7.7,4.7,16.8,2.3,23c11.5,4.1,17.8,46.1,17.5,54.2c-1.2,30.5-6.6,26-11.7,23.5
		c-2.9-16.6-4.5-39.3-14.5-52.9c0,0-5-1.9-18.1,3.7l7,2.1c-33.4,16-74.2,8.6-74.3,6.1C94.6,89.6,94.1,101.7,104.4,140.3L104.4,140.3
		z"/>
	
		<linearGradient id="SVGID_19_" gradientUnits="userSpaceOnUse" x1="-1139.0151" y1="937.3474" x2="-1139.0151" y2="811.0471" gradientTransform="matrix(-0.9361 0 0 1 -880.8497 -688.158)">
		<stop  offset="0" style="stop-color:#8C6239"/>
		<stop  offset="3.400000e-02" style="stop-color:#8F653C"/>
		<stop  offset="0.208" style="stop-color:#9C7248"/>
		<stop  offset="0.443" style="stop-color:#A3794F"/>
		<stop  offset="1" style="stop-color:#A57B51"/>
	</linearGradient>
	<path class="st25" d="M148.1,195.6c2.4-0.7,18.2-11.3,13.4-30.2c23.7-3.9,36.8-16.1,45.5-28.8c7.1-10.7-2-9-2-9
		c1.5-4.7-0.6-2.3-0.6-4.7c8.9-0.2,12.6,2.3,10.6,12.4c-2.9,14.6-1.7,15.6-1.7,15.6s13.3,25.4,8.2,82c-8.7,14.7-58.6,16.8-62.6,16.2
		C155,248.3,148.1,195.6,148.1,195.6L148.1,195.6z"/>
	
		<linearGradient id="SVGID_20_" gradientUnits="userSpaceOnUse" x1="-1023.3946" y1="858.658" x2="-1023.3946" y2="907.3738" gradientTransform="matrix(-0.9361 0 0 1 -880.8497 -688.158)">
		<stop  offset="0" style="stop-color:#8C6239"/>
		<stop  offset="3.400000e-02" style="stop-color:#8F653C"/>
		<stop  offset="0.208" style="stop-color:#9C7248"/>
		<stop  offset="0.443" style="stop-color:#A3794F"/>
		<stop  offset="1" style="stop-color:#A57B51"/>
	</linearGradient>
	<path class="st26" d="M119.6,214.2c0,0-14.8-1.1-25.2,3.2c-20.6,8.5-59.7-15.6-59.7-15.6s30.4-25.9,74.1-31.3
		c3.6,4.9,8.7,17.9,10.5,24.7C117.5,205.5,119.6,214.2,119.6,214.2L119.6,214.2z"/>
	
		<linearGradient id="SVGID_21_" gradientUnits="userSpaceOnUse" x1="-1086.8788" y1="941.258" x2="-1086.8788" y2="834.258" gradientTransform="matrix(-0.9361 0 0 1 -880.8497 -688.158)">
		<stop  offset="0" style="stop-color:#8C6239"/>
		<stop  offset="3.400000e-02" style="stop-color:#8F653C"/>
		<stop  offset="0.208" style="stop-color:#9C7248"/>
		<stop  offset="0.443" style="stop-color:#A3794F"/>
		<stop  offset="1" style="stop-color:#A57B51"/>
	</linearGradient>
	<path class="st27" d="M174.5,246.2C172,243.9,161,192,161,192s-27.3-5.1-26.4-25.1c-23.7,6.3-38.9-3.8-29.3-15.5
		c-0.4-1.3,0.9-4.4,0.6-5.3c-14.6,16.5-3.2,20.9,0.3,29.8c1.5,3.2,7.9,8.7,10.5,11.7c0,0-0.6,13.9,2,28.2c2.6,14.2,5.7,27,11.8,32.7
		c3.2,3,11.4,4.6,23.5,4.6C166.3,253.1,174.5,246.2,174.5,246.2z"/>
	<path class="st1" d="M109.4,166.4l2.3-0.6l-4.1-13.7C107.6,152.2,94.6,168.2,109.4,166.4z"/>
	<path class="st21" d="M134.5,166.4c0,0-43.2,5.2-26.9-14.2c-0.9-3-1.6-6-1.6-6s-27.7,29.1,24.7,24.8c3.3,5.2,14.9,16.7,19.4,17.1
		C135.5,176.8,134.7,167.4,134.5,166.4"/>
	
		<radialGradient id="SVGID_22_" cx="-1157.8693" cy="964.5634" r="4.27" gradientTransform="matrix(-0.864 0 0 0.8405 -852.012 -647.3225)" gradientUnits="userSpaceOnUse">
		<stop  offset="0" style="stop-color:#390000"/>
		<stop  offset="1" style="stop-color:#3B1800"/>
	</radialGradient>
	<ellipse class="st28" cx="148.4" cy="163.4" rx="4.4" ry="2.8"/>
</g>
<g id="Layer_1_1_">
	<path class="st21" d="M56.3,85.7c0,0,57.5-8.5,74.7-3c18.4,3.6,91,15,104.5-5.6C202.6,62.6,196,60.7,196,60.7s-2.2-22-10.8-36.4
		c-13.3-22.2-57-26.9-75.8-1.5c-5.1,6.8-9.9,30.2-10.8,35.3C78.4,64.7,54.3,78.6,56.3,85.7z"/>
	<path class="st1" d="M189.1,62c0,0-11.3,4.2-21.8,2.9c2-15-1.7-50.9-7.3-54C172.3,15.6,183.7,20.4,189.1,62z M141.1,67.2
		c0,0-27.5-4.6-31.4-3.6C110.5,50,120.4,11.5,138,9.3c6.3-0.8,7.7-0.2,7.7-0.2S145.9,46.8,141.1,67.2L141.1,67.2z M168.7,10.4
		c0,0,0.2-9.6-15.3-10.3s-15.9,3.6-16.5,6.4C152.3,6.4,168.7,10.4,168.7,10.4L168.7,10.4z"/>
	<path d="M78.1,97.5c0.2-0.1,0.3-0.2,0.6-0.4c1.2-0.9,2.7-2.8,1.1-5c-1.4-1.9-3.8-2-5.8-0.5s-2.4,3.7-1,5.7c0.8,1.1,1.5,1.6,2,1.9
		l0.7-0.8c-0.5-0.3-1-0.7-1.7-1.6c-0.9-1.2-1-2.7,0.6-4C74.6,92.8,78.1,97.5,78.1,97.5z M75.6,92.2c0.9-0.5,2.4-0.8,3.3,0.4
		c1,1.4,0,2.6-0.7,3.1C78.2,95.7,75.6,92.2,75.6,92.2z"/>
	
		<linearGradient id="SVGID_23_" gradientUnits="userSpaceOnUse" x1="16.7171" y1="-65.1648" x2="16.7171" y2="-40.8408" gradientTransform="matrix(-0.2322 0.9687 -0.9068 -0.2481 46.3834 144.326)">
		<stop  offset="0" style="stop-color:#ADB3B5"/>
		<stop  offset="0.126" style="stop-color:#F4F6F7"/>
		<stop  offset="0.225" style="stop-color:#ADB3B5"/>
		<stop  offset="0.332" style="stop-color:#E2E4E5"/>
		<stop  offset="0.494" style="stop-color:#F1F1F2"/>
		<stop  offset="0.622" style="stop-color:#ABACAD"/>
		<stop  offset="0.813" style="stop-color:#3C3E40"/>
		<stop  offset="0.844" style="stop-color:#424547"/>
		<stop  offset="0.888" style="stop-color:#54575A"/>
		<stop  offset="0.941" style="stop-color:#717579"/>
		<stop  offset="0.999" style="stop-color:#999FA4"/>
		<stop  offset="1" style="stop-color:#9AA0A5"/>
	</linearGradient>
	<path class="st29" d="M82.1,174.8c-1.9-0.5-3.1-2.5-2.6-4.4s2.4-3.1,4.4-2.6l15.3,4c1.9,0.5,3.1,2.5,2.6,4.4s-2.4,4.1-4.3,3.6
		L82.1,174.8z"/>
	
		<linearGradient id="SVGID_24_" gradientUnits="userSpaceOnUse" x1="25.6959" y1="-60.9738" x2="25.6959" y2="-44.1688" gradientTransform="matrix(-0.2322 0.9687 -0.9068 -0.2481 46.3834 144.326)">
		<stop  offset="0" style="stop-color:#ADB3B5"/>
		<stop  offset="0.126" style="stop-color:#F4F6F7"/>
		<stop  offset="0.225" style="stop-color:#ADB3B5"/>
		<stop  offset="0.332" style="stop-color:#E2E4E5"/>
		<stop  offset="0.494" style="stop-color:#F1F1F2"/>
		<stop  offset="0.622" style="stop-color:#ABACAD"/>
		<stop  offset="0.813" style="stop-color:#3C3E40"/>
		<stop  offset="0.844" style="stop-color:#424547"/>
		<stop  offset="0.888" style="stop-color:#54575A"/>
		<stop  offset="0.941" style="stop-color:#717579"/>
		<stop  offset="0.999" style="stop-color:#999FA4"/>
		<stop  offset="1" style="stop-color:#9AA0A5"/>
	</linearGradient>
	<path class="st30" d="M79.1,186l2.6-11.4l15.3,3.9L94.4,190L79.1,186z"/>
	
		<linearGradient id="SVGID_25_" gradientUnits="userSpaceOnUse" x1="75.2498" y1="-65.2098" x2="75.2498" y2="-41.4608" gradientTransform="matrix(-0.2322 0.9687 -0.9068 -0.2481 46.3834 144.326)">
		<stop  offset="0" style="stop-color:#000000"/>
		<stop  offset="1.200000e-02" style="stop-color:#0B0B0B"/>
		<stop  offset="5.900000e-02" style="stop-color:#2D2D2D"/>
		<stop  offset="0.102" style="stop-color:#454545"/>
		<stop  offset="0.143" style="stop-color:#545454"/>
		<stop  offset="0.176" style="stop-color:#595959"/>
		<stop  offset="1" style="stop-color:#000000"/>
	</linearGradient>
	<path class="st31" d="M62.7,271.4c-3.6-0.9-5.8-3.7-4.8-7.3l17-72c0.9-3.7,4.6-5.9,8.1-4.9l8.1,2.1c3.6,0.9,5.8,4.7,4.9,8.3
		l-17.1,71c-0.9,3.7-4.6,5.9-8.1,4.9L62.7,271.4L62.7,271.4z"/>
	<path class="st32" d="M69.7,271.2c-1.6-0.4-2.2-2.6-1.3-6.2l16-68.3c0.9-3.5,3-6.1,4.6-5.6l3.8,1c1.6,0.4,2.3,3.6,1.4,7.2L78,267.7
		c-0.9,3.5-3,5.1-4.6,4.6C73.4,272.3,69.7,271.2,69.7,271.2z"/>
	
		<linearGradient id="SVGID_26_" gradientUnits="userSpaceOnUse" x1="33.707" y1="-64.3018" x2="33.707" y2="-41.9758" gradientTransform="matrix(-0.2322 0.9687 -0.9068 -0.2481 46.3834 144.326)">
		<stop  offset="0" style="stop-color:#ADB3B5"/>
		<stop  offset="0.126" style="stop-color:#F4F6F7"/>
		<stop  offset="0.225" style="stop-color:#ADB3B5"/>
		<stop  offset="0.332" style="stop-color:#E2E4E5"/>
		<stop  offset="0.494" style="stop-color:#F1F1F2"/>
		<stop  offset="0.622" style="stop-color:#ABACAD"/>
		<stop  offset="0.813" style="stop-color:#3C3E40"/>
		<stop  offset="0.844" style="stop-color:#424547"/>
		<stop  offset="0.888" style="stop-color:#54575A"/>
		<stop  offset="0.941" style="stop-color:#717579"/>
		<stop  offset="0.999" style="stop-color:#999FA4"/>
		<stop  offset="1" style="stop-color:#9AA0A5"/>
	</linearGradient>
	<path class="st33" d="M76,189.5l1-4l20.4,5.3l-1,4L76,189.5z"/>
	
		<linearGradient id="SVGID_27_" gradientUnits="userSpaceOnUse" x1="-1099.2344" y1="208.9197" x2="-1000.2267" y2="208.9197" gradientTransform="matrix(-0.9361 0 0 -1 -880.8497 338)">
		<stop  offset="0" style="stop-color:#CCCCCC"/>
		<stop  offset="0.176" style="stop-color:#FFFFFF"/>
		<stop  offset="1" style="stop-color:#6E6E6E"/>
	</linearGradient>
	<path class="st34" d="M90.3,174.7c-24.7-6.5-39.7-32.1-33.4-57.3S88.5,77,113.3,83.5s39.7,32.1,33.4,57.3
		C140.3,165.9,115,181.1,90.3,174.7L90.3,174.7z M92.5,166c20.1,5.2,40.5-7.1,45.6-27.5c5.2-20.4-7-41.2-27-46.5
		c-20.1-5.2-40.5,7.1-45.6,27.5C60.3,140,72.4,160.8,92.5,166z"/>
	
		<linearGradient id="SVGID_28_" gradientUnits="userSpaceOnUse" x1="-1097.7844" y1="208.9531" x2="-1001.3496" y2="208.9531" gradientTransform="matrix(-0.9361 0 0 -1 -880.8497 338)">
		<stop  offset="0" style="stop-color:#FFFFFF"/>
		<stop  offset="1" style="stop-color:#B0B0B0"/>
	</linearGradient>
	<path class="st35" d="M90.5,173.6c-24.1-6.3-38.7-31.4-32.6-56s30.8-39.4,54.9-33.1s38.7,31.4,32.6,56
		C139.3,165,114.7,179.9,90.5,173.6z M92.5,166c20.1,5.2,40.5-7.1,45.6-27.5c5.2-20.4-7-41.2-27-46.5c-20.1-5.2-40.5,7.1-45.6,27.5
		C60.3,140,72.4,160.8,92.5,166z"/>
	
		<radialGradient id="SVGID_29_" cx="-75.245" cy="13.5035" r="33.8501" gradientTransform="matrix(-0.2745 1.0926 -1.073 -0.2802 95.6345 214.9964)" gradientUnits="userSpaceOnUse">
		<stop  offset="0" style="stop-color:#BAEBFF"/>
		<stop  offset="0.398" style="stop-color:#B8EAFF"/>
		<stop  offset="0.565" style="stop-color:#B1E8FE"/>
		<stop  offset="0.688" style="stop-color:#A4E4FE"/>
		<stop  offset="0.791" style="stop-color:#93DFFD"/>
		<stop  offset="0.88" style="stop-color:#7CD7FC"/>
		<stop  offset="0.958" style="stop-color:#60CFFA"/>
		<stop  offset="1" style="stop-color:#4EC9F9"/>
	</radialGradient>
	<path class="st36" d="M92.5,166c-20.1-5.2-32.2-26-27-46.5C70.7,99.1,91,86.8,111.1,92s32.2,26,27,46.5
		C133,158.9,112.6,171.2,92.5,166z"/>
	<path class="st37" d="M133,140.1c0.2-0.9,0.4-1.8,0.6-2.8c-5.6,16.4-22.6,25.9-39.3,21.5c-16.8-4.4-27.2-21.1-24.3-38.2
		c-0.3,0.9-0.6,1.8-0.8,2.7c-4.6,18,6.2,36.3,23.8,40.9C110.6,168.9,128.6,158.1,133,140.1z"/>
	<path class="st37" d="M100,138.3c-14.7-3.8-24.1-16.4-21.3-28c2.9-11.6,17.2-18,31.9-14.1c14.7,3.8,24.1,16.4,21.3,28
		C128.9,135.8,114.7,142.1,100,138.3z"/>
	
		<linearGradient id="SVGID_30_" gradientUnits="userSpaceOnUse" x1="-1008.5989" y1="209" x2="-1090.517" y2="209" gradientTransform="matrix(-0.9361 0 0 -1 -880.8497 338)">
		<stop  offset="0" style="stop-color:#FFFFFF"/>
		<stop  offset="1" style="stop-color:#6E6E6E"/>
	</linearGradient>
	<path class="st38" d="M92.2,167.1c-20.7-5.4-33.2-26.8-27.8-47.9c5.3-21,26.3-33.7,47-28.3c20.7,5.4,33.2,26.8,27.8,47.9
		C133.9,159.8,112.9,172.5,92.2,167.1L92.2,167.1z M92.5,166c20.1,5.2,40.5-7.1,45.6-27.5c5.2-20.4-7-41.2-27-46.5
		c-20.1-5.2-40.5,7.1-45.6,27.5C60.3,140,72.4,160.8,92.5,166z"/>
	
		<radialGradient id="SVGID_31_" cx="-353.4958" cy="762.8454" r="26.0597" gradientTransform="matrix(1.096 0.1624 -0.1599 1.1162 585.1269 -571.0414)" gradientUnits="userSpaceOnUse">
		<stop  offset="0" style="stop-color:#FCC58A"/>
		<stop  offset="0.575" style="stop-color:#FCC289"/>
		<stop  offset="0.962" style="stop-color:#FBB986"/>
		<stop  offset="1" style="stop-color:#FBB885"/>
	</radialGradient>
	<path class="st39" d="M59,249.8c-21.4-7-11.1-64.3,16.3-57.5s28.4,5.8,29.5,16.2s-0.5,6-6.5,11.6c2.8,2.7,3,13.8-2.5,18
		c2.2,6.4-0.7,19-11.3,17C73.8,253.1,59,249.8,59,249.8"/>
	<path class="st40" d="M221.5,231.6c-6.1,6.6-59.5,26.1-90.9,16.9c0.8,6.1,0.7,5.4,1.9,10.8c16.1,7.2,76.9-3.1,92.2-14.8
		C223.9,239.3,223.6,241.7,221.5,231.6L221.5,231.6z"/>
	<path class="st21" d="M163,253.6c0,0,3.5,27.8,7.5,40.3c-0.9,3.3-0.4,1.4-1.1,4.6C159.4,281.6,163,253.6,163,253.6z M118.5,214.4
		c0,0-3.3-9.5-3.7-17c-1.5,6.3,1.9,16.7,1.9,16.7S118.5,214.4,118.5,214.4z M105.8,176c1.3,0.9,8.4,9.8,11,11.6
		c-5.6-4.2-9.5-9-12.1-11.5L105.8,176z"/>
	
		<radialGradient id="SVGID_32_" cx="-1109.2825" cy="1012.0906" r="4.605" gradientTransform="matrix(-0.7386 0.129 0.1615 0.938 -820.0657 -602.632)" gradientUnits="userSpaceOnUse">
		<stop  offset="0" style="stop-color:#CDAF38"/>
		<stop  offset="1" style="stop-color:#DFC74A"/>
	</radialGradient>
	<path class="st41" d="M159,204.3c0.4,2.2,2.3,3.7,4.4,3.3c2-0.4,3.4-2.4,3-4.6c-0.4-2.2-2.3-3.7-4.4-3.3
		C160,200,158.6,202.1,159,204.3z"/>
	
		<radialGradient id="SVGID_33_" cx="-1036.1238" cy="1062.7301" r="4.607" gradientTransform="matrix(-0.7268 0.1847 0.2313 0.923 -834.4849 -567.9021)" gradientUnits="userSpaceOnUse">
		<stop  offset="0" style="stop-color:#CDAF38"/>
		<stop  offset="1" style="stop-color:#DFC74A"/>
	</radialGradient>
	<path class="st42" d="M160.7,222.6c0.5,2.1,2.6,3.5,4.6,3s3.2-2.7,2.7-4.8s-2.6-3.5-4.6-3S160.2,220.4,160.7,222.6z"/>
	
		<radialGradient id="SVGID_34_" cx="-1101.9036" cy="2720.8384" r="30.463" gradientTransform="matrix(-0.3413 0.1338 0.1435 0.2929 -602.2096 -395.2543)" gradientUnits="userSpaceOnUse">
		<stop  offset="0" style="stop-color:#CDAF38"/>
		<stop  offset="1" style="stop-color:#DFC74A"/>
	</radialGradient>
	<path class="st43" d="M152.2,259.3c0.4,2,1.5,3.5,4,3.1l17.7-1.8c2.4-0.4,4.1-2.4,3.7-4.4l-1.3-7.1c-0.4-2-2.6-3.3-5-2.8l-17,1.8
		c-2.4,0.4-3.1,2.9-2.8,4.9L152.2,259.3L152.2,259.3z"/>
	
		<radialGradient id="SVGID_35_" cx="-1035.4218" cy="1081.1101" r="4.607" gradientTransform="matrix(-0.7268 0.1847 0.2313 0.923 -834.4849 -567.9021)" gradientUnits="userSpaceOnUse">
		<stop  offset="0" style="stop-color:#CDAF38"/>
		<stop  offset="1" style="stop-color:#DFC74A"/>
	</radialGradient>
	<path class="st44" d="M164.5,239.7c0.5,2.1,2.6,3.5,4.6,3s3.2-2.7,2.7-4.8s-2.6-3.5-4.6-3S164,237.5,164.5,239.7z"/>
	
		<linearGradient id="SVGID_36_" gradientUnits="userSpaceOnUse" x1="-973.4529" y1="908.658" x2="-1012.7369" y2="908.658" gradientTransform="matrix(-0.9361 0 0 1 -880.8497 -688.158)">
		<stop  offset="0" style="stop-color:#6E4D2D"/>
		<stop  offset="1" style="stop-color:#785533"/>
	</linearGradient>
	<path class="st45" d="M56.8,253.1c0,0-21.6-37.7,10.4-65.2c-8.9,1-20.2,3-24.9,3.6c-9,5.4-18.1,33.3-6.4,56
		C43.3,250.8,45.8,251.2,56.8,253.1L56.8,253.1z"/>
	
		<linearGradient id="SVGID_37_" gradientUnits="userSpaceOnUse" x1="-992.851" y1="908.5046" x2="-1017.6574" y2="908.5046" gradientTransform="matrix(-0.9361 0 0 1 -880.8497 -688.158)">
		<stop  offset="0" style="stop-color:#6E4D2D"/>
		<stop  offset="1" style="stop-color:#785533"/>
	</linearGradient>
	<path class="st46" d="M71.5,191.6c0,0,0-0.8-2.4-1.4c-3.8-0.8-25,17.9-12.9,57.5c1.8,4.5,2.8,0.7,2.8,0.7s-1.4,8.8-4.7,2.3
		c-13.7-26.8-0.8-61.3,14.2-63.1C72.9,188.3,71.5,191.6,71.5,191.6z"/>
	<path class="st21" d="M204.4,122.8c0,0-0.7,4.8-1.9,5.8c10.5-4.1,6.1,4.4-0.8,10.8c-13.4,12.7-29.4,21.8-40.1,25.9
		c-1.3,9.3,0.9,12.6-6.5,25c13.8-10.6,13.6-24.4,13.6-24.4s24.1-7.7,43.5-32.2C218.8,126.9,212,121.2,204.4,122.8L204.4,122.8z
		 M213.4,150.8c0,0-11.5,38-50,39.6C198.3,185.9,213.4,150.8,213.4,150.8L213.4,150.8z M138.5,193.9c0.5,0-14.9-0.4-21.7-6.3
		C123.9,195.2,129.8,194.1,138.5,193.9z M221.5,231.6c0,0,1.3-34.3,0.6-41.6c2.4,13.4,3.4,33.6,3.4,32.6
		C223.4,223.5,221.5,231.6,221.5,231.6L221.5,231.6z M213.4,150.8c0,0,2.2,4.3,3.1,11c-0.7-9.8-2.9-11-2.9-11H213.4L213.4,150.8z
		 M153.5,194.9c0,0,1.4,42.2,8.9,51.3C156.3,241.2,146.6,207.1,153.5,194.9z"/>
	<path class="st21" d="M236.4,226.8c-2.4-1-8.8-3.1-13.7-8c4.8,7,11.2,10.9,11.2,10.9"/>
	<path class="st21" d="M56.3,85.7c0,0,57.5-8.5,74.7-3c18.4,3.6,91,15,104.5-5.6C202.6,62.6,196,60.7,196,60.7s-2.2-22-10.8-36.4
		c-13.3-22.2-57-26.9-75.8-1.5c-5.1,6.8-9.9,30.2-10.8,35.3C78.4,64.7,54.3,78.6,56.3,85.7z"/>
	<path class="st1" d="M189.1,62c0,0-11.3,4.2-21.8,2.9c2-15-1.7-50.9-7.3-54C172.3,15.6,183.7,20.4,189.1,62z M141.1,67.2
		c0,0-27.5-4.6-31.4-3.6C110.5,50,120.4,11.5,138,9.3c6.3-0.8,7.7-0.2,7.7-0.2S145.9,46.8,141.1,67.2L141.1,67.2z M168.7,10.4
		c0,0,0.2-9.6-15.3-10.3s-15.9,3.6-16.5,6.4C152.3,6.4,168.7,10.4,168.7,10.4L168.7,10.4z"/>
	
		<linearGradient id="SVGID_38_" gradientUnits="userSpaceOnUse" x1="16.7171" y1="-65.1648" x2="16.7171" y2="-40.8408" gradientTransform="matrix(-0.2322 0.9687 -0.9068 -0.2481 46.3834 144.326)">
		<stop  offset="0" style="stop-color:#ADB3B5"/>
		<stop  offset="0.126" style="stop-color:#F4F6F7"/>
		<stop  offset="0.225" style="stop-color:#ADB3B5"/>
		<stop  offset="0.332" style="stop-color:#E2E4E5"/>
		<stop  offset="0.494" style="stop-color:#F1F1F2"/>
		<stop  offset="0.622" style="stop-color:#ABACAD"/>
		<stop  offset="0.813" style="stop-color:#3C3E40"/>
		<stop  offset="0.844" style="stop-color:#424547"/>
		<stop  offset="0.888" style="stop-color:#54575A"/>
		<stop  offset="0.941" style="stop-color:#717579"/>
		<stop  offset="0.999" style="stop-color:#999FA4"/>
		<stop  offset="1" style="stop-color:#9AA0A5"/>
	</linearGradient>
	<path class="st47" d="M82.1,174.8c-1.9-0.5-3.1-2.5-2.6-4.4s2.4-3.1,4.4-2.6l15.3,4c1.9,0.5,3.1,2.5,2.6,4.4s-2.4,4.1-4.3,3.6
		L82.1,174.8z"/>
	
		<linearGradient id="SVGID_39_" gradientUnits="userSpaceOnUse" x1="25.6959" y1="-60.9738" x2="25.6959" y2="-44.1688" gradientTransform="matrix(-0.2322 0.9687 -0.9068 -0.2481 46.3834 144.326)">
		<stop  offset="0" style="stop-color:#ADB3B5"/>
		<stop  offset="0.126" style="stop-color:#F4F6F7"/>
		<stop  offset="0.225" style="stop-color:#ADB3B5"/>
		<stop  offset="0.332" style="stop-color:#E2E4E5"/>
		<stop  offset="0.494" style="stop-color:#F1F1F2"/>
		<stop  offset="0.622" style="stop-color:#ABACAD"/>
		<stop  offset="0.813" style="stop-color:#3C3E40"/>
		<stop  offset="0.844" style="stop-color:#424547"/>
		<stop  offset="0.888" style="stop-color:#54575A"/>
		<stop  offset="0.941" style="stop-color:#717579"/>
		<stop  offset="0.999" style="stop-color:#999FA4"/>
		<stop  offset="1" style="stop-color:#9AA0A5"/>
	</linearGradient>
	<path class="st48" d="M79.1,186l2.6-11.4l15.3,3.9L94.4,190L79.1,186z"/>
	
		<linearGradient id="SVGID_40_" gradientUnits="userSpaceOnUse" x1="75.2498" y1="-65.2098" x2="75.2498" y2="-41.4608" gradientTransform="matrix(-0.2322 0.9687 -0.9068 -0.2481 46.3834 144.326)">
		<stop  offset="0" style="stop-color:#000000"/>
		<stop  offset="1.200000e-02" style="stop-color:#0B0B0B"/>
		<stop  offset="5.900000e-02" style="stop-color:#2D2D2D"/>
		<stop  offset="0.102" style="stop-color:#454545"/>
		<stop  offset="0.143" style="stop-color:#545454"/>
		<stop  offset="0.176" style="stop-color:#595959"/>
		<stop  offset="1" style="stop-color:#000000"/>
	</linearGradient>
	<path class="st49" d="M62.7,271.4c-3.6-0.9-5.8-3.7-4.8-7.3l17-72c0.9-3.7,4.6-5.9,8.1-4.9l8.1,2.1c3.6,0.9,5.8,4.7,4.9,8.3
		l-17.1,71c-0.9,3.7-4.6,5.9-8.1,4.9L62.7,271.4L62.7,271.4z"/>
	<path class="st32" d="M69.7,271.2c-1.6-0.4-2.2-2.6-1.3-6.2l16-68.3c0.9-3.5,3-6.1,4.6-5.6l3.8,1c1.6,0.4,2.3,3.6,1.4,7.2L78,267.7
		c-0.9,3.5-3,5.1-4.6,4.6C73.4,272.3,69.7,271.2,69.7,271.2z"/>
	
		<linearGradient id="SVGID_41_" gradientUnits="userSpaceOnUse" x1="33.707" y1="-64.3018" x2="33.707" y2="-41.9758" gradientTransform="matrix(-0.2322 0.9687 -0.9068 -0.2481 46.3834 144.326)">
		<stop  offset="0" style="stop-color:#ADB3B5"/>
		<stop  offset="0.126" style="stop-color:#F4F6F7"/>
		<stop  offset="0.225" style="stop-color:#ADB3B5"/>
		<stop  offset="0.332" style="stop-color:#E2E4E5"/>
		<stop  offset="0.494" style="stop-color:#F1F1F2"/>
		<stop  offset="0.622" style="stop-color:#ABACAD"/>
		<stop  offset="0.813" style="stop-color:#3C3E40"/>
		<stop  offset="0.844" style="stop-color:#424547"/>
		<stop  offset="0.888" style="stop-color:#54575A"/>
		<stop  offset="0.941" style="stop-color:#717579"/>
		<stop  offset="0.999" style="stop-color:#999FA4"/>
		<stop  offset="1" style="stop-color:#9AA0A5"/>
	</linearGradient>
	<path class="st50" d="M76,189.5l1-4l20.4,5.3l-1,4L76,189.5z"/>
	
		<linearGradient id="SVGID_42_" gradientUnits="userSpaceOnUse" x1="-1099.2344" y1="208.9197" x2="-1000.2267" y2="208.9197" gradientTransform="matrix(-0.9361 0 0 -1 -880.8497 338)">
		<stop  offset="0" style="stop-color:#CCCCCC"/>
		<stop  offset="0.176" style="stop-color:#FFFFFF"/>
		<stop  offset="1" style="stop-color:#6E6E6E"/>
	</linearGradient>
	<path class="st51" d="M90.3,174.7c-24.7-6.5-39.7-32.1-33.4-57.3S88.5,77,113.3,83.5s39.7,32.1,33.4,57.3
		C140.3,165.9,115,181.1,90.3,174.7L90.3,174.7z M92.5,166c20.1,5.2,40.5-7.1,45.6-27.5c5.2-20.4-7-41.2-27-46.5
		c-20.1-5.2-40.5,7.1-45.6,27.5C60.3,140,72.4,160.8,92.5,166z"/>
	
		<linearGradient id="SVGID_43_" gradientUnits="userSpaceOnUse" x1="-1097.7844" y1="208.9531" x2="-1001.3496" y2="208.9531" gradientTransform="matrix(-0.9361 0 0 -1 -880.8497 338)">
		<stop  offset="0" style="stop-color:#FFFFFF"/>
		<stop  offset="1" style="stop-color:#B0B0B0"/>
	</linearGradient>
	<path class="st52" d="M90.5,173.6c-24.1-6.3-38.7-31.4-32.6-56s30.8-39.4,54.9-33.1s38.7,31.4,32.6,56
		C139.3,165,114.7,179.9,90.5,173.6z M92.5,166c20.1,5.2,40.5-7.1,45.6-27.5c5.2-20.4-7-41.2-27-46.5c-20.1-5.2-40.5,7.1-45.6,27.5
		C60.3,140,72.4,160.8,92.5,166z"/>
	
		<radialGradient id="SVGID_44_" cx="-75.245" cy="13.5035" r="33.8501" gradientTransform="matrix(-0.2745 1.0926 -1.073 -0.2802 95.6345 214.9964)" gradientUnits="userSpaceOnUse">
		<stop  offset="0" style="stop-color:#BAEBFF"/>
		<stop  offset="0.398" style="stop-color:#B8EAFF"/>
		<stop  offset="0.565" style="stop-color:#B1E8FE"/>
		<stop  offset="0.688" style="stop-color:#A4E4FE"/>
		<stop  offset="0.791" style="stop-color:#93DFFD"/>
		<stop  offset="0.88" style="stop-color:#7CD7FC"/>
		<stop  offset="0.958" style="stop-color:#60CFFA"/>
		<stop  offset="1" style="stop-color:#4EC9F9"/>
	</radialGradient>
	<path class="st53" d="M92.5,166c-20.1-5.2-32.2-26-27-46.5C70.7,99.1,91,86.8,111.1,92s32.2,26,27,46.5
		C133,158.9,112.6,171.2,92.5,166z"/>
	<path class="st37" d="M133,140.1c0.2-0.9,0.4-1.8,0.6-2.8c-5.6,16.4-22.6,25.9-39.3,21.5c-16.8-4.4-27.2-21.1-24.3-38.2
		c-0.3,0.9-0.6,1.8-0.8,2.7c-4.6,18,6.2,36.3,23.8,40.9C110.6,168.9,128.6,158.1,133,140.1z"/>
	<path class="st37" d="M100,138.3c-14.7-3.8-24.1-16.4-21.3-28c2.9-11.6,17.2-18,31.9-14.1c14.7,3.8,24.1,16.4,21.3,28
		C128.9,135.8,114.7,142.1,100,138.3z"/>
	
		<linearGradient id="SVGID_45_" gradientUnits="userSpaceOnUse" x1="-1008.5989" y1="209" x2="-1090.517" y2="209" gradientTransform="matrix(-0.9361 0 0 -1 -880.8497 338)">
		<stop  offset="0" style="stop-color:#FFFFFF"/>
		<stop  offset="1" style="stop-color:#6E6E6E"/>
	</linearGradient>
	<path class="st54" d="M92.2,167.1c-20.7-5.4-33.2-26.8-27.8-47.9c5.3-21,26.3-33.7,47-28.3c20.7,5.4,33.2,26.8,27.8,47.9
		C133.9,159.8,112.9,172.5,92.2,167.1L92.2,167.1z M92.5,166c20.1,5.2,40.5-7.1,45.6-27.5c5.2-20.4-7-41.2-27-46.5
		c-20.1-5.2-40.5,7.1-45.6,27.5C60.3,140,72.4,160.8,92.5,166z"/>
	
		<radialGradient id="SVGID_46_" cx="-353.4958" cy="762.8454" r="26.0597" gradientTransform="matrix(1.096 0.1624 -0.1599 1.1162 585.1269 -571.0414)" gradientUnits="userSpaceOnUse">
		<stop  offset="0" style="stop-color:#FCC58A"/>
		<stop  offset="0.575" style="stop-color:#FCC289"/>
		<stop  offset="0.962" style="stop-color:#FBB986"/>
		<stop  offset="1" style="stop-color:#FBB885"/>
	</radialGradient>
	<path class="st55" d="M59,249.8c-21.4-7-11.1-64.3,16.3-57.5s28.4,5.8,29.5,16.2s-0.5,6-6.5,11.6c2.8,2.7,3,13.8-2.5,18
		c2.2,6.4-0.7,19-11.3,17C73.8,253.1,59,249.8,59,249.8"/>
	<path class="st21" d="M204.4,122.8c0,0-0.7,4.8-1.9,5.8c10.5-4.1,6.1,4.4-0.8,10.8c-13.4,12.7-29.4,21.8-40.1,25.9
		c-1.3,9.3,0.9,12.6-6.5,25c13.8-10.6,13.6-24.4,13.6-24.4s24.1-7.7,43.5-32.2C218.8,126.9,212,121.2,204.4,122.8L204.4,122.8z"/>
</g>
<g id="Layer_4">
	<g>
		<defs>
			<path id="SVGID_47_" d="M92.5,166c-20.1-5.2-32.2-26-27-46.5C70.7,99.1,91,86.8,111.1,92s32.2,26,27,46.5
				C133,158.9,112.6,171.2,92.5,166z"/>
		</defs>
		<clipPath id="SVGID_48_">
			<use xlink:href="#SVGID_47_"  style="overflow:visible;"/>
		</clipPath>
		<g class="st56">
			
				<radialGradient id="SVGID_49_" cx="-532.4901" cy="900.7147" r="34.2072" gradientTransform="matrix(1.0734 -0.2799 0.2735 1.0927 442.2343 -1007.744)" gradientUnits="userSpaceOnUse">
				<stop  offset="0" style="stop-color:#FCC58A"/>
				<stop  offset="0.575" style="stop-color:#FCC289"/>
				<stop  offset="0.962" style="stop-color:#FBB986"/>
				<stop  offset="1" style="stop-color:#FBB885"/>
			</radialGradient>
			<path class="st57" d="M142.7,114.4c-1.1-12.9-19-33.2-33.1-30.2c-5.3-0.5-8.3-0.7-14.9-0.5c-5.1,0.1-9.2,2.1-9.7,6.2
				c-1.7,23.9,7.2,55.4,16.9,74.9c4.8,9.7,10.2,10.6,10.5,8.6c12.3,3.6,29.2-19.7,30.4-30.2"/>
			<path class="st4" d="M87.2,83.8C78,90.4,84.1,112,85.6,121c0.6,0.5,10.1,25.3,10.1,25.3c-5.2-14.9-20.1-49.3-2.6-62
				c10.9,0.3,22.1-0.3,32.7,3.2"/>
			<path class="st6" d="M121.8,145.7c0.4,4.3-3.3,8.8-7.5,9.8c-4.3,1-8.1-1.7-8.5-6.4c-0.4-4.6,2.8-9.1,7.2-9.9
				C117.5,138.5,121.4,141.4,121.8,145.7L121.8,145.7z"/>
			<path class="st4" d="M100.6,116.5c1,6.9,7,11.7,13.5,10.8c6.6-0.9,10.8-7,9.5-13.3c-1.3-6.4-7.5-11.4-13.7-10.9
				C103.9,103.6,99.8,109.7,100.6,116.5z"/>
			
				<radialGradient id="SVGID_50_" cx="-844.3322" cy="850.4091" r="9.417" gradientTransform="matrix(-1.097 0.1581 0.1533 1.1168 -944.5563 -701.975)" gradientUnits="userSpaceOnUse">
				<stop  offset="0" style="stop-color:#333333"/>
				<stop  offset="0.456" style="stop-color:#313131"/>
				<stop  offset="0.7" style="stop-color:#292929"/>
				<stop  offset="0.894" style="stop-color:#1B1B1B"/>
				<stop  offset="1" style="stop-color:#101010"/>
			</radialGradient>
			<path class="st58" d="M101.9,115.4c0.9,6.1,6.2,10.4,11.9,9.6s9.4-6.1,8.3-11.7c-1.1-5.7-6.7-10.1-12.1-9.6
				C104.7,104.1,101,109.4,101.9,115.4z"/>
			<path class="st8" d="M118.2,108.5c1.7,2.1,1.7,4.7,0,5.9c-1.7,1.2-4.3,0.5-5.9-1.7c-1.6-2.1-1.6-4.9,0-6
				C114,105.6,116.5,106.4,118.2,108.5z"/>
			
				<linearGradient id="SVGID_51_" gradientUnits="userSpaceOnUse" x1="-14814.2891" y1="-7322.8833" x2="-14814.2891" y2="-7256.2993" gradientTransform="matrix(0.9166 -0.2027 0.1897 0.9792 15067.4004 4246.9922)">
				<stop  offset="0" style="stop-color:#574537"/>
				<stop  offset="0.576" style="stop-color:#433329"/>
				<stop  offset="1" style="stop-color:#32241D"/>
			</linearGradient>
			<path class="st59" d="M125.6,86.4c-11.2-2.9-22.8-2.3-34.3-2.6c-13.2,14.1,1,48.4,4.7,63.7c-9.2-16.2-23.4-45.8-12.4-63.1
				c-1.5,0.4-3.6,1.3-5,2.3c0.4-0.7,0.9-1.2,1.3-1.6"/>
			<path class="st1" d="M107.2,173.7c1.1-0.1,1.6-0.1,2.7-0.2c-2.6-1.6-4.9-3.9-8.3-9.9C101.5,163.6,90,174.2,107.2,173.7
				L107.2,173.7z"/>
			<path class="st21" d="M129.6,169.8c-6.1,2.1-41.4,8.4-28.2-6.3c-1.9-3.4-3.2-7.4-3.2-7.4c-22.9,21.8,5.7,19.2,22.9,17.2"/>
			<path d="M70.2,91.7c0.2-0.1,0.4-0.3,0.7-0.5"/>
			
				<radialGradient id="SVGID_52_" cx="-74.7557" cy="14.8778" r="40.0393" gradientTransform="matrix(-0.2745 1.0926 -1.073 -0.2802 95.6345 214.9964)" gradientUnits="userSpaceOnUse">
				<stop  offset="0" style="stop-color:#BAEBFF"/>
				<stop  offset="0.398" style="stop-color:#B8EAFF"/>
				<stop  offset="0.565" style="stop-color:#B1E8FE"/>
				<stop  offset="0.688" style="stop-color:#A4E4FE"/>
				<stop  offset="0.791" style="stop-color:#93DFFD"/>
				<stop  offset="0.88" style="stop-color:#7CD7FC"/>
				<stop  offset="0.958" style="stop-color:#60CFFA"/>
				<stop  offset="1" style="stop-color:#4EC9F9"/>
			</radialGradient>
			<path class="st60" d="M87,173.2c-29.5-3.5-24.8-32.9-26.7-54.8c-2.4-28.3,27.3-35,48.9-34.1c26.1,1.1,35,34.8,32.4,55.7
				C138,169.3,110.3,176,87,173.2z"/>
			<path class="st37" d="M137.3,143.5c0.3-1.2,0.5-2.5,0.7-3.7c-6,23.8-30,33.9-51.9,29.5c-25.6-5.2-26.4-29.1-25.8-50.3
				c0,1.1-0.1,2.1-0.1,3.2c-0.3,21.4,0.7,46.7,26.7,50.5C109.7,175.9,130.7,167.9,137.3,143.5z"/>
			<path class="st37" d="M89.6,144.1c-15.5-5.8-32.6-19.5-24.4-39c7.2-17.2,26.3-20.5,42.9-18.7c14.6,1.6,31.3,21.1,28,36.2
				C131.8,142.4,105.9,150.3,89.6,144.1z"/>
			
				<linearGradient id="SVGID_53_" gradientUnits="userSpaceOnUse" x1="-1005.369" y1="209.0057" x2="-1092.589" y2="209.0057" gradientTransform="matrix(-0.9361 0 0 -1 -880.8497 338)">
				<stop  offset="0" style="stop-color:#FFFFFF"/>
				<stop  offset="1" style="stop-color:#6E6E6E"/>
			</linearGradient>
			<path class="st61" d="M87.2,173.6c-30.5-3-24.3-33.1-26.6-55.2c-3.1-29.5,26.9-35,49-34.4c27.4,0.7,34.7,34.9,32.6,56.1
				C139.3,170.3,110.8,175.8,87.2,173.6z M87,173.2c23.2,2.7,50.9-3.9,54.5-33.2c2.6-20.9-6.3-54.6-32.4-55.7
				c-21.5-0.9-51.2,5.7-48.9,34.1C62.2,140.3,57.5,169.8,87,173.2z"/>
		</g>
	</g>
</g>
</svg>
