<?xml version="1.0" encoding="utf-8"?>
<!-- Generator: Adobe Illustrator 22.1.0, SVG Export Plug-In . SVG Version: 6.00 Build 0)  -->
<svg version="1.1" id="Layer_1" xmlns="http://www.w3.org/2000/svg" xmlns:xlink="http://www.w3.org/1999/xlink" x="0px" y="0px"
	 viewBox="0 0 133.1 268.1" style="enable-background:new 0 0 133.1 268.1;" xml:space="preserve">
<style type="text/css">
	.st0{fill:#FFFFFF;}
</style>
<path class="st0" d="M125.5,215.3c-0.3-1.5-1.3-2.9-2.7-3.6c-0.8-0.4-1.6-0.6-2.5-0.6c-0.7,0-1.3,0.1-2,0.4c-3.6,1.4-8.5,3-14.6,4.7
	c-5.9,1.6-12.7,2.4-20.4,2.4c-10.3,0-17.2-2.6-21.1-7.9c-4.3-5.8-6.4-16-6.4-30.5V106H120c2.9,0,5.3-2.4,5.3-5.3V63
	c0-2.9-2.4-5.3-5.3-5.3H55.8V4c0-1.6-0.7-3-1.9-4c-1-0.8-2.2-1.3-3.4-1.3c-0.3,0-0.6,0-0.9,0.1L4.4,6.3C1.8,6.7,0,8.9,0,11.5v169.1
	c0,13.3,1.2,25.3,3.5,35.7c2.4,10.8,6.6,20.2,12.6,27.9c6,7.8,14.3,13.9,24.4,17.9c9.9,4,22.3,6,36.9,6c11.9,0,22.4-1.3,31.3-3.7
	c8.6-2.4,15.8-4.8,21.2-7.1c2.3-1,3.6-3.5,3.1-6L125.5,215.3L125.5,215.3z"/>
</svg>
