<?xml version="1.0" encoding="utf-8"?>
<!-- Generator: Adobe Illustrator 18.1.1, SVG Export Plug-In . SVG Version: 6.00 Build 0)  -->
<!DOCTYPE svg PUBLIC "-//W3C//DTD SVG 1.1//EN" "http://www.w3.org/Graphics/SVG/1.1/DTD/svg11.dtd" [
	<!ENTITY ns_extend "http://ns.adobe.com/Extensibility/1.0/">
	<!ENTITY ns_ai "http://ns.adobe.com/AdobeIllustrator/10.0/">
	<!ENTITY ns_graphs "http://ns.adobe.com/Graphs/1.0/">
	<!ENTITY ns_vars "http://ns.adobe.com/Variables/1.0/">
	<!ENTITY ns_imrep "http://ns.adobe.com/ImageReplacement/1.0/">
	<!ENTITY ns_sfw "http://ns.adobe.com/SaveForWeb/1.0/">
	<!ENTITY ns_custom "http://ns.adobe.com/GenericCustomNamespace/1.0/">
	<!ENTITY ns_adobe_xpath "http://ns.adobe.com/XPath/1.0/">
]>
<svg version="1.1"
	 id="Layer_1" xmlns:x="&ns_extend;" xmlns:i="&ns_ai;" xmlns:graph="&ns_graphs;" xmlns:sketch="http://www.bohemiancoding.com/sketch/ns"
	 xmlns="http://www.w3.org/2000/svg" xmlns:xlink="http://www.w3.org/1999/xlink" x="0px" y="0px" viewBox="281 368.5 50 55"
	 enable-background="new 281 368.5 50 55" xml:space="preserve">
<switch>
	
	<g i:extraneous="self">
		<title>img-sketch_arrow-short-ai</title>
		<desc>Created with Sketch.</desc>
		<g id="Page-1" sketch:type="MSPage">
			<g id="_x35_0-Helper-Arrows" transform="translate(-79.000000, -159.000000)" sketch:type="MSArtboardGroup">
				<g id="img-sketch_arrow-short-ai" transform="translate(79.000000, 158.917705)" sketch:type="MSLayerGroup">
					<path id="Shape" sketch:type="MSShapeGroup" fill="#A6A39C" d="M296.3,375.4c1.6,0.4,3.1-0.7,4.4-1.2c2.3-0.8,4.5-1.2,6.8-1.9
						c0.9-0.3,1.7-0.5,2.7-0.7c-2.7,4.5-5.3,8.9-7.8,14.2c-0.8,1.7-1.3,4-1.9,6.1c-1.7,6.4-2.9,12.8-3.1,18.5
						c-0.1,3.3-0.5,11,1.3,12.8c0.9,0.3,1.6,0,1.6-0.9c-0.1-0.5-0.4-1.2-0.5-1.7c-0.1-1.3-0.4-2.5-0.5-3.9c-0.3-2.3,0.1-4.5,0.3-6.9
						c0.4-6.8,2.4-18.7,5.7-25.4c1.3-2.4,2.5-4.8,3.9-7.2c0.9-1.5,1.9-2.9,2.8-4.4l0,0c0,1.2,0,2.3,0,3.5c0.3,3.2,0.7,6.4,1.5,9.2
						c0.3,0.8,0.8,4.7,2.7,2.8c0.4-1.5-0.9-3.9-1.2-5.2c-0.8-2.7-0.8-6-0.9-8.9c0-1.3,0.4-4.4-0.5-5c-1.5-0.9-3.2,0.4-4.3,0.7
						c-3.5,0.9-6.9,1.9-10.1,3.1c-1.1,0.4-2.7,0.3-3.1,1.7C295.9,375,296.1,375.1,296.3,375.4L296.3,375.4z"/>
				</g>
			</g>
		</g>
	</g>
</switch>

</svg>
