<?xml version="1.0" encoding="utf-8"?>
<!-- Generator: Adobe Illustrator 18.1.1, SVG Export Plug-In . SVG Version: 6.00 Build 0)  -->
<!DOCTYPE svg PUBLIC "-//W3C//DTD SVG 1.1//EN" "http://www.w3.org/Graphics/SVG/1.1/DTD/svg11.dtd" [
	<!ENTITY ns_extend "http://ns.adobe.com/Extensibility/1.0/">
	<!ENTITY ns_ai "http://ns.adobe.com/AdobeIllustrator/10.0/">
	<!ENTITY ns_graphs "http://ns.adobe.com/Graphs/1.0/">
	<!ENTITY ns_vars "http://ns.adobe.com/Variables/1.0/">
	<!ENTITY ns_imrep "http://ns.adobe.com/ImageReplacement/1.0/">
	<!ENTITY ns_sfw "http://ns.adobe.com/SaveForWeb/1.0/">
	<!ENTITY ns_custom "http://ns.adobe.com/GenericCustomNamespace/1.0/">
	<!ENTITY ns_adobe_xpath "http://ns.adobe.com/XPath/1.0/">
]>
<svg version="1.1"
	 id="Layer_1" xmlns:x="&ns_extend;" xmlns:i="&ns_ai;" xmlns:graph="&ns_graphs;" xmlns:sketch="http://www.bohemiancoding.com/sketch/ns"
	 xmlns="http://www.w3.org/2000/svg" xmlns:xlink="http://www.w3.org/1999/xlink" x="0px" y="0px" viewBox="281 368.5 50 55"
	 enable-background="new 281 368.5 50 55" xml:space="preserve">
<switch>
	
	<g i:extraneous="self">
		<title>img-sketch_arrow-short-li</title>
		<desc>Created with Sketch.</desc>
		<g id="Page-1" sketch:type="MSPage">
			<g id="_x35_0-Helper-Arrows" transform="translate(-166.000000, -159.000000)" sketch:type="MSArtboardGroup">
				<g id="img-sketch_arrow-short-li" transform="translate(166.516246, 158.917705)" sketch:type="MSLayerGroup">
					<path id="Shape" sketch:type="MSShapeGroup" fill="#A6A39C" d="M290.9,384.3c1.6-0.7,2.1-2.4,2.8-3.6c1.3-2,2.9-3.7,4.4-5.8
						c0.5-0.7,1.2-1.5,1.7-2.1c0.4,5.4,0.7,10.8,1.7,16.7c0.3,2,1.2,4.1,2,6.3c2.3,6.6,5,12.6,7.9,17.5c1.7,2.9,5.9,9.6,8.4,10
						c0.8-0.3,1.3-0.9,0.8-1.7c-0.5-0.4-0.9-0.8-1.5-1.2c-0.9-0.9-1.7-1.9-2.7-2.9c-1.5-1.7-2.5-3.9-3.7-6c-3.6-6-8.7-17.3-9.8-24.9
						c-0.3-2.8-0.7-5.6-0.9-8.4c0-1.7-0.1-3.6-0.1-5.4l0,0c0.7,0.9,1.3,1.9,2,2.9c2,2.5,4.1,5,6.4,6.8c0.7,0.5,3.3,3.5,3.7,0.8
						c-0.5-1.5-2.9-2.7-4-3.6c-2.1-1.9-4-4.7-5.8-7.1c-0.8-1.1-2.3-4-3.3-3.9c-1.7,0-2.3,2.3-2.9,3.2c-2.3,2.9-4.5,5.8-6.6,8.8
						c-0.7,0.9-2,1.9-1.5,3.3C290.4,384,290.5,384.2,290.9,384.3L290.9,384.3z"/>
				</g>
			</g>
		</g>
	</g>
</switch>

</svg>
