<?xml version="1.0" encoding="utf-8"?>
<!-- Generator: Adobe Illustrator 18.1.1, SVG Export Plug-In . SVG Version: 6.00 Build 0)  -->
<!DOCTYPE svg PUBLIC "-//W3C//DTD SVG 1.1//EN" "http://www.w3.org/Graphics/SVG/1.1/DTD/svg11.dtd" [
	<!ENTITY ns_extend "http://ns.adobe.com/Extensibility/1.0/">
	<!ENTITY ns_ai "http://ns.adobe.com/AdobeIllustrator/10.0/">
	<!ENTITY ns_graphs "http://ns.adobe.com/Graphs/1.0/">
	<!ENTITY ns_vars "http://ns.adobe.com/Variables/1.0/">
	<!ENTITY ns_imrep "http://ns.adobe.com/ImageReplacement/1.0/">
	<!ENTITY ns_sfw "http://ns.adobe.com/SaveForWeb/1.0/">
	<!ENTITY ns_custom "http://ns.adobe.com/GenericCustomNamespace/1.0/">
	<!ENTITY ns_adobe_xpath "http://ns.adobe.com/XPath/1.0/">
]>
<svg version="1.1" id="Layer_1" xmlns:x="&ns_extend;" xmlns:i="&ns_ai;" xmlns:graph="&ns_graphs;"
	 xmlns="http://www.w3.org/2000/svg" xmlns:xlink="http://www.w3.org/1999/xlink" x="0px" y="0px" viewBox="281 368.5 50 55"
	 enable-background="new 281 368.5 50 55" xml:space="preserve">
<switch>
	
	<g i:extraneous="self">
		<path fill="#A6A39C" d="M330.6,372.1c0.3-0.5,1.2-1.9-1.2-1.3c-2.4,0.6-4.1,2.7-6,4.4c-4.7,4-11.9,11.4-13.2,12.2
			c-0.9,0.5-12.5,15.4-13.1,16c-2,2.7-5.6,12.8-6.1,14c-1.4-1.8-1.2-4.9-2.6-6.6c-0.8-1.4-1.5-4.3-2.6-6.1c-1.7-2.1-1.2-5.7-2.9-7.2
			c-0.3-0.4-2.7-1.6-1.8,0.4c-0.1,0.1,1,2.6,1,3.2c0,0.1,1,4.3,2.3,5.3c0.6,1.7,1.7,4.4,2.3,6.1c1.3,2.1,1.4,4.7,2.6,6.3
			c0.4,0.6,0.9,1.7,1.3,1.9c1.3,1.4,2.3,0.1,3.5-0.4c0.8-0.3,1.9-0.5,2.8-0.5c1.4-0.1,4.2-1.7,5.6-2.1c1.5-0.5,7-1,7.6-2.5
			c0.1-0.4,0-0.6-0.5-1.2c-0.3-0.4-5.1,0.8-7.4,1.6c-0.8,0.1-7.4,2.3-8.8,2.7c0.1-1.8,1.9-6.1,2-6.5c0.1-0.4,1.4-4.1,2.7-5.6
			c0.9-2.3,13.1-17.6,13.8-17.8c0.9-0.4,15.1-16.2,17.9-16.2C330,372.5,330.3,372.6,330.6,372.1z"/>
	</g>
</switch>

</svg>
