<?xml version="1.0" encoding="utf-8"?>
<!-- Generator: Adobe Illustrator 18.1.1, SVG Export Plug-In . SVG Version: 6.00 Build 0)  -->
<!DOCTYPE svg PUBLIC "-//W3C//DTD SVG 1.1//EN" "http://www.w3.org/Graphics/SVG/1.1/DTD/svg11.dtd" [
	<!ENTITY ns_extend "http://ns.adobe.com/Extensibility/1.0/">
	<!ENTITY ns_ai "http://ns.adobe.com/AdobeIllustrator/10.0/">
	<!ENTITY ns_graphs "http://ns.adobe.com/Graphs/1.0/">
	<!ENTITY ns_vars "http://ns.adobe.com/Variables/1.0/">
	<!ENTITY ns_imrep "http://ns.adobe.com/ImageReplacement/1.0/">
	<!ENTITY ns_sfw "http://ns.adobe.com/SaveForWeb/1.0/">
	<!ENTITY ns_custom "http://ns.adobe.com/GenericCustomNamespace/1.0/">
	<!ENTITY ns_adobe_xpath "http://ns.adobe.com/XPath/1.0/">
]>
<svg version="1.1" id="Layer_1" xmlns:x="&ns_extend;" xmlns:i="&ns_ai;" xmlns:graph="&ns_graphs;"
	 xmlns="http://www.w3.org/2000/svg" xmlns:xlink="http://www.w3.org/1999/xlink" x="0px" y="0px" viewBox="281 368.5 50 55"
	 enable-background="new 281 368.5 50 55" xml:space="preserve">
<switch>
	
	<g i:extraneous="self">
		<path fill="#A6A39C" d="M297.7,378.3c-1.4-0.7-2.4,0.6-3.6,1c-3.3,1.4-6.4,3.4-9.6,5.2c-1,0.6-3.3,0.9-3.6,2.6
			c-0.1,1.1,2.3,3.1,3.3,4c2,2.1,4.4,4.6,5.9,7.2c0.7,1.1,1.6,3.9,2.9,4.6c2.6,0.1,0.3-3.1-0.1-3.9c-1.4-2.6-3.3-5.3-5.4-7.7
			c-0.9-0.9-1.6-1.7-2.4-2.6l0,0c1.7,0.4,3.4,0.7,5.2,1.1c2.7,0.9,5.3,1.6,8,2.3c7.2,2.3,17.3,9.4,22.5,14.2c1.9,1.7,3.9,3,5.2,4.9
			c0.7,1,1.6,2.1,2.3,3.1c0.3,0.6,0.6,1.1,0.9,1.7c0.7,0.7,1.3,0.3,1.9-0.4c0.1-2.7-5.7-7.9-8.3-10.2c-4.3-3.9-9.6-7.6-15.6-11
			c-1.9-1.1-3.9-2.4-5.7-3c-5.6-2-10.7-3.1-15.9-4.6c0.9-0.4,1.6-1,2.4-1.4c2.1-1.3,4.1-2.6,6.3-3.6c1.3-0.6,3-0.9,4-2.3
			C297.9,378.9,297.7,378.6,297.7,378.3z"/>
	</g>
</switch>

</svg>
