<?xml version="1.0" encoding="utf-8"?>
<!-- Generator: Adobe Illustrator 18.1.1, SVG Export Plug-In . SVG Version: 6.00 Build 0)  -->
<!DOCTYPE svg PUBLIC "-//W3C//DTD SVG 1.1//EN" "http://www.w3.org/Graphics/SVG/1.1/DTD/svg11.dtd" [
	<!ENTITY ns_extend "http://ns.adobe.com/Extensibility/1.0/">
	<!ENTITY ns_ai "http://ns.adobe.com/AdobeIllustrator/10.0/">
	<!ENTITY ns_graphs "http://ns.adobe.com/Graphs/1.0/">
	<!ENTITY ns_vars "http://ns.adobe.com/Variables/1.0/">
	<!ENTITY ns_imrep "http://ns.adobe.com/ImageReplacement/1.0/">
	<!ENTITY ns_sfw "http://ns.adobe.com/SaveForWeb/1.0/">
	<!ENTITY ns_custom "http://ns.adobe.com/GenericCustomNamespace/1.0/">
	<!ENTITY ns_adobe_xpath "http://ns.adobe.com/XPath/1.0/">
]>
<svg version="1.1"
	 id="Layer_1" xmlns:x="&ns_extend;" xmlns:i="&ns_ai;" xmlns:graph="&ns_graphs;" xmlns:sketch="http://www.bohemiancoding.com/sketch/ns"
	 xmlns="http://www.w3.org/2000/svg" xmlns:xlink="http://www.w3.org/1999/xlink" x="0px" y="0px" viewBox="281 368.5 50 55"
	 enable-background="new 281 368.5 50 55" xml:space="preserve">
<switch>
	
	<g i:extraneous="self">
		<title>img-tutorial-arrow-ai</title>
		<desc>Created with Sketch.</desc>
		<g id="Page-1" sketch:type="MSPage">
			<g id="_x35_0-Helper-Arrows" transform="translate(-446.000000, -152.000000)" sketch:type="MSArtboardGroup">
				<g id="img-tutorial-arrow-ai" transform="translate(445.689568, 151.172718)" sketch:type="MSLayerGroup">
					<path id="Shape" sketch:type="MSShapeGroup" fill="#A6A39C" d="M314.1,379c0.9,1.6,2.7,1.7,4,2.3c2.3,1,4.3,2.4,6.4,3.6
						c0.9,0.4,1.6,1,2.4,1.4c-5.1,1.3-10.4,2.6-15.9,4.6c-1.8,0.7-3.8,2-5.7,3c-6,3.4-11.4,7.1-15.6,11.1c-2.6,2.3-8.4,7.5-8.2,10.2
						c0.4,0.9,1.1,1.1,1.8,0.4c0.3-0.6,0.6-1.1,0.9-1.7c0.7-1,1.6-2.1,2.3-3.1c1.4-1.8,3.4-3.1,5.3-4.8c5.1-4.7,15.2-11.8,22.5-14.1
						c2.7-0.9,5.3-1.6,8-2.4c1.7-0.4,3.4-0.7,5.3-1.1l0,0c-0.9,0.9-1.7,1.7-2.4,2.6c-2.1,2.4-4.1,5.1-5.5,7.7c-0.4,0.9-2.8,4-0.1,4
						c1.3-0.9,2.1-3.4,2.8-4.7c1.4-2.6,3.8-5,5.8-7.1c0.9-1,3.4-3,3.3-4c-0.3-1.7-2.7-2-3.6-2.6c-3.3-1.8-6.4-3.7-9.7-5.3
						c-1.1-0.4-2.1-1.7-3.6-1C314.1,378.3,314,378.6,314.1,379L314.1,379z"/>
				</g>
			</g>
		</g>
	</g>
</switch>

</svg>
