<?xml version="1.0" encoding="utf-8"?>
<!-- Generator: Adobe Illustrator 18.1.1, SVG Export Plug-In . SVG Version: 6.00 Build 0)  -->
<!DOCTYPE svg PUBLIC "-//W3C//DTD SVG 1.1//EN" "http://www.w3.org/Graphics/SVG/1.1/DTD/svg11.dtd" [
	<!ENTITY ns_extend "http://ns.adobe.com/Extensibility/1.0/">
	<!ENTITY ns_ai "http://ns.adobe.com/AdobeIllustrator/10.0/">
	<!ENTITY ns_graphs "http://ns.adobe.com/Graphs/1.0/">
	<!ENTITY ns_vars "http://ns.adobe.com/Variables/1.0/">
	<!ENTITY ns_imrep "http://ns.adobe.com/ImageReplacement/1.0/">
	<!ENTITY ns_sfw "http://ns.adobe.com/SaveForWeb/1.0/">
	<!ENTITY ns_custom "http://ns.adobe.com/GenericCustomNamespace/1.0/">
	<!ENTITY ns_adobe_xpath "http://ns.adobe.com/XPath/1.0/">
]>
<svg version="1.1" id="Layer_1" xmlns:x="&ns_extend;" xmlns:i="&ns_ai;" xmlns:graph="&ns_graphs;"
	 xmlns="http://www.w3.org/2000/svg" xmlns:xlink="http://www.w3.org/1999/xlink" x="0px" y="0px" viewBox="281 368.5 50 55"
	 enable-background="new 281 368.5 50 55" xml:space="preserve">
<switch>
	
	<g i:extraneous="self">
		<path fill="#A6A39C" d="M282.9,398.4c1-1.5,0.4-3.4,0.4-4.7c0-2.5,0.3-5,0.6-7.5c0.1-1,0.1-1.9,0.3-2.9c3.5,4.2,6.9,8.5,11.1,12.7
			c1.5,1.5,3.5,2.6,5.3,3.9c5.7,3.9,11.6,7.3,17,9.5c3.2,1.3,10.7,4.4,13,3.1c0.6-0.7,0.6-1.6-0.3-1.9c-0.6,0-1.3-0.1-1.9-0.1
			c-1.3-0.3-2.6-0.6-3.9-0.7c-2.3-0.4-4.4-1.8-6.7-2.6c-6.6-2.8-17.5-8.9-22.8-14.5c-1.9-2-3.8-4.2-5.7-6.3
			c-1.2-1.5-2.2-2.9-3.4-4.4l0,0c1.2,0.4,2.3,0.7,3.4,1.2c3.2,0.9,6.4,1.5,9.5,1.8c0.9,0,5,0.7,3.7-1.6c-1.3-0.9-4.1-0.4-5.6-0.6
			c-2.9-0.1-6.1-1.3-9.1-2.3c-1.3-0.4-4.2-1.9-5.1-1.2c-1.5,1-0.7,3.4-0.7,4.4c-0.3,3.8-0.7,7.5-0.6,11.1c0,1.2-0.7,2.8,0.6,3.7
			C282.3,398.6,282.4,398.6,282.9,398.4z"/>
	</g>
</switch>

</svg>
