<svg version="1" xmlns="http://www.w3.org/2000/svg" width="316.1" height="534.8"><radialGradient id="a" cx="47.075" cy="20.714" r="220.339" gradientUnits="userSpaceOnUse"><stop offset="0" stop-color="#574537"/><stop offset=".684" stop-color="#554335"/><stop offset="1" stop-color="#32241d"/></radialGradient><path fill="url(#a)" d="M267.4 238.6c-7.4-4.1 28-50.2 25.5-95.5C288.3 59 247.6 6.8 177.5 1.8 140.9-.8 84.9 29.6 76.1 37.9c-7.9 7.4-23.4 52.6-26.5 98l6.9-4.2s-8.2 45.8 7.8 76c19.2 30.9 56.6 55.9 111.5 63.7 81.6 11.5 118.8-33.6 118.8-33.6s-19.8 4.9-27.2.8z"/><ellipse fill="#D6D6D6" cx="183.9" cy="529.8" rx="112.7" ry="3.3"/><linearGradient id="b" gradientUnits="userSpaceOnUse" x1="224.997" y1="458.715" x2="224.997" y2="404.324"><stop offset="0" stop-color="#fcc58a"/><stop offset=".329" stop-color="#fac287"/><stop offset=".55" stop-color="#f6b97f"/><stop offset=".739" stop-color="#edaa71"/><stop offset=".853" stop-color="#e69d65"/><stop offset="1" stop-color="#ce8857"/></linearGradient><path fill="url(#b)" d="M197.7 447.6c-16.6-18.5-14-58.7-16.2-74.5-2.3-15.8 7.6-36.7 12.1-14.3 4.9 24.5-.6 63.6 15.8 78 20.5 18 52.4 41 59 66.4 3.8 14.8-10.9 22.3-22.2 4.6-11.3-17.7-27.8-37.1-48.5-60.2z"/><radialGradient id="c" cx="431.395" cy="1862.396" r="17.192" gradientTransform="rotate(-40.059 -1522.112 1421.054)" gradientUnits="userSpaceOnUse"><stop offset="0" stop-color="#454545"/><stop offset="1" stop-color="#252525"/></radialGradient><path fill="url(#c)" d="M253.5 477.7c8.5 14 9.3 27.5 2.4 31.3-3.9 2.2-7.7.5-9.8-1.2 0 0 3 4.8 7.3 9.1 7.6 7.6 22.2 4.9 17.3-12.3-3-10.5-9.4-18.6-17.2-26.9z"/><linearGradient id="d" gradientUnits="userSpaceOnUse" x1="326.743" y1="901.75" x2="326.743" y2="856.698" gradientTransform="rotate(-14.129 -1571.226 1392.97)"><stop offset="0" stop-color="#fcc58a"/><stop offset=".329" stop-color="#fac287"/><stop offset=".55" stop-color="#f6b97f"/><stop offset=".739" stop-color="#edaa71"/><stop offset=".853" stop-color="#e69d65"/><stop offset="1" stop-color="#ce8857"/></linearGradient><path fill="url(#d)" d="M137.9 515.6c-3.5-48.7-8.9-88.2.5-132.3 11.3-52.9 11.3-36.6 15.6-21.9 4.3 14.8-9.2 30.1-7 64.3 1.7 25.4 6.4 45.5 12.1 69.9 9.4 40.3-19.4 44.8-21.2 20z"/><radialGradient id="e" cx="293.766" cy="883.697" r="17.126" gradientTransform="rotate(-11.946 -1559.75 1387.62)" gradientUnits="userSpaceOnUse"><stop offset="0" stop-color="#454545"/><stop offset="1" stop-color="#252525"/></radialGradient><path fill="url(#e)" d="M157.3 488.3c.9 16.4-4.7 28.6-12.6 28.7-4.5 0-6.3-2.6-7.3-5 .6 4.7 1 8.3 1.3 10.5 1.4 10.7 17.4 15.1 21.1-2.3 2.4-10.8.5-20.9-2.5-31.9z"/><radialGradient id="f" cx="-69.771" cy="242.822" r="356.806" gradientUnits="userSpaceOnUse"><stop offset=".65" stop-color="#db1e27"/><stop offset="1" stop-color="#4e0f10"/></radialGradient><path fill="url(#f)" d="M158.3 270.8c23.1 0 51.1 0 68.4 47.8s8.2 90.7 8.2 90.7h-126s-13.2-28.8-9.1-65.9 22.3-72.6 58.5-72.6z"/><linearGradient id="g" gradientUnits="userSpaceOnUse" x1="309.951" y1="1515.807" x2="389.076" y2="1495.566" gradientTransform="rotate(-42.994 -1302.972 1258.9)"><stop offset="0" stop-color="#fcc58a"/><stop offset=".385" stop-color="#fac287"/><stop offset=".645" stop-color="#f6b97f"/><stop offset=".867" stop-color="#edaa71"/><stop offset="1" stop-color="#e69d65"/></linearGradient><path fill="url(#g)" d="M115.4 219.8c-4.5-1.4-7.9 10.1-9.8 16.9-9.6 34.3-18.2 64.1-42.8 90.8-2.3 2.5-7.1 5.9-8.5 7.3 0 0-10.9.3-17.6 3.6l-16.3 6.8s-2.5 5.4 3.8 10.4l10.3-3.5c-.1.3-1.1 2.8-3.3 5.7l-12.1 18.7s2.8 5.7 8 5.9l11.7-15c.3.2 2.2 1.1 2.5 1.4l-10.2 18.7s3.5 5.3 8.7 4.8l10.9-18.7c.3.1 1.9 1.2 2.3 1.3L45.1 392s3.7 3.3 9 2.3l12.6-22.8s6-10.2 9.6-18.3c5.9-13.7 9.2-26.9 17.5-43.6 16-32.3 20.1-57.6 22.7-69.2 2.4-11.5 2.5-19.4-1.1-20.6z"/><path fill="#661412" d="M197.9 279.1c-13.1-10.6-25.7-8.2-39.6-8.2-14.8 0-23.9 2.8-33 12.4 6.1 3.3 15 8.2 34.6 8.2 17.2-.1 29-6.5 38-12.4z"/><radialGradient id="h" cx="120.156" cy="161.745" r="154.821" gradientTransform="matrix(.9999 0 0 1 -.085 0)" gradientUnits="userSpaceOnUse"><stop offset=".65" stop-color="#db1e27"/><stop offset="1" stop-color="#4e0f10"/></radialGradient><path fill="url(#h)" d="M96.5 216.5s107.9-4.9 131.8-4.1c0 0-8.3 45.4-38.7 63.5-22.2 13.2-50.2 7.9-65.9-3.3-19.7-14.1-27.2-56.1-27.2-56.1z"/><linearGradient id="i" gradientUnits="userSpaceOnUse" x1="161.231" y1="256.367" x2="161.231" y2="219.285"><stop offset="0" stop-color="#fcc58a"/><stop offset=".285" stop-color="#f9c287"/><stop offset=".476" stop-color="#f0ba7f"/><stop offset=".577" stop-color="#e8b277"/><stop offset=".908" stop-color="#ce985e"/></linearGradient><path fill="url(#i)" d="M139.4 205.7c.8 2.2 9.4 38.1 18.1 39.8 4.1.8 19.8-31.6 25.5-43.1l-43.6 3.3z"/><path fill="#721514" d="M144.9 224.1l-12.1 9.7-3.8-17.9 10.4-10.2zm28 .6l12.6 7.1 9.4-32.9-14.3 2.7z"/><radialGradient id="j" cx="251.37" cy="60.268" r="128.355" gradientTransform="matrix(.9601 -.0354 .0383 .9617 -124.964 22.913)" gradientUnits="userSpaceOnUse"><stop offset="0" stop-color="#fcc58a"/><stop offset=".575" stop-color="#fcc289"/><stop offset=".962" stop-color="#fbb986"/><stop offset="1" stop-color="#fbb885"/></radialGradient><path fill="url(#j)" d="M165.9 18.8c26.4 1.2 47.7 18.1 63.3 52.3 9.6 21.2 29.3 81.2 5.1 109.7-15.3 18-50.2 35.5-78.6 35.5-23.1 0-54-9.1-69.1-33.4-13.6-21.9-8.2-59-.1-93.2 14.7-62.7 57.6-72 79.4-70.9z"/><path fill="#CE985E" d="M175.1 48.7c-40.6-12.9-54.9-22.1-67.3 1.8-1.3 2.6-7.3 2.9-8.5 5.7 2.7 9.3 24.8 35.8 32.6 41.2 0 0-8.3-19-6.1-16.7 41.3 44.4 81.4 66.7 120 69.7 1.5-15.1-30.1-88.8-70.7-101.7z"/><radialGradient id="k" cx="66.178" cy="30.717" r="198.149" gradientUnits="userSpaceOnUse"><stop offset="0" stop-color="#574537"/><stop offset=".684" stop-color="#554335"/><stop offset="1" stop-color="#32241d"/></radialGradient><path fill="url(#k)" d="M256.9 189.4s-45.2-39.5-28.1-96.8c0 0 34.3 3.2 36.4 3.6-5.4 44.9-8.6 63.8-8.3 93.2z"/><path fill="none" stroke="#BD4747" stroke-width="6.593" stroke-linecap="round" stroke-miterlimit="10" d="M119 173.3s9.4 5 23 4.6c19-.5 31.3-11.5 31.3-11.5"/><circle fill="#FFA370" cx="94.7" cy="165.3" r="9.8"/><circle fill="#FFA370" cx="197.5" cy="159.3" r="9.8"/><circle fill="#CE985E" cx="188" cy="133.2" r="14.2"/><radialGradient id="l" cx="1253.919" cy="132.231" r="12.528" gradientTransform="translate(-1065.906)" gradientUnits="userSpaceOnUse"><stop offset="0" stop-color="#333"/><stop offset=".456" stop-color="#313131"/><stop offset=".7" stop-color="#292929"/><stop offset=".894" stop-color="#1b1b1b"/><stop offset="1" stop-color="#101010"/></radialGradient><circle fill="url(#l)" cx="188" cy="132.2" r="12.5"/><ellipse transform="rotate(-60.92 183.105 128.508)" fill="#FFF" cx="183.1" cy="128.5" rx="5.5" ry="4.7"/><path d="M206.2 135.7s5.4 2.3 7.6.4c2.2-1.9-.3-4.4-.3-4.4s-5.5 2-7.6 1.7l.3 2.3zm-3.6-11s6.4-.2 7.9-2.9c1.5-2.7-2-3.9-2-3.9s-4.8 4.2-7 4.7l1.1 2.1zm-5.3-9s5.5-3.8 5.5-6.9c-.1-3.1-3.8-2.2-3.8-2.2s-2.1 6.3-3.7 8l2 1.1zM83.1 132.4s-5.4 2.2-7.6.3c-2.2-1.9.3-4.4.3-4.4s5.5 2.1 7.6 1.8l-.3 2.3zm3.7-10.9s-6.4-.3-7.9-3 2.1-3.9 2.1-3.9 4.8 4.3 7 4.8l-1.2 2.1zm5.4-9s-5.5-3.8-5.4-7c.1-3.1 3.8-2.2 3.8-2.2s2 6.4 3.6 8.1l-2 1.1z" fill="#403228"/><circle fill="#CE985E" cx="97.4" cy="133.2" r="14.2"/><radialGradient id="m" cx="-914.659" cy="132.231" r="12.528" gradientTransform="matrix(-1 0 0 1 -817.298 0)" gradientUnits="userSpaceOnUse"><stop offset="0" stop-color="#333"/><stop offset=".456" stop-color="#313131"/><stop offset=".7" stop-color="#292929"/><stop offset=".894" stop-color="#1b1b1b"/><stop offset="1" stop-color="#101010"/></radialGradient><circle fill="url(#m)" cx="97.4" cy="132.2" r="12.5"/><ellipse transform="rotate(-60.936 92.436 128.51)" fill="#FFF" cx="92.4" cy="128.5" rx="5.5" ry="4.7"/><radialGradient id="n" cx="-14.353" cy="76.114" r="259.769" gradientUnits="userSpaceOnUse"><stop offset="0" stop-color="#574537"/><stop offset=".684" stop-color="#554335"/><stop offset="1" stop-color="#32241d"/></radialGradient><path fill="url(#n)" d="M92.8 50.7c6.1 2.5 27 29.5 34.9 36 2.3 1.9-6.3-19.1-3.8-17 19.4 16.7 50.1 52 78.3 64.8 43.7 19.8 64.2 16.9 79.2 13.3 0 0 3.7-94.1-60.7-119.9C189.9 15.7 125.5-.6 92.8 50.7z"/><path fill="#7D634F" d="M82.3 51.1c-1.5 3.2-3.5 6.2-3.8 6.7-9.4 17.1-16 37.5-20.7 56.4-1.4-9.1 2.8-19.5 5.3-28.1 3.2-11.1 6.6-22.5 11.5-32.9.8-1.8 4.5-11.1 7.1-11 3.8.2 2.5 4.8.6 8.9z"/><path opacity=".4" fill="#7D634F" d="M189.4 10c31.2 2.1 60 31 67.1 43.9 0 0-27.2-34.1-61.2-38.4-34-4.3-45 .4-45 .4s12.6-7.7 39.1-5.9z"/><path fill="#7D634F" d="M107.9 39.2c25.3 15.8 64.8 94 154.9 105.5 0 0-58-12.7-98-54.2-32.3-33.4-49-62.1-56.9-51.3z"/><path opacity=".4" fill="#7D634F" d="M121.7 32.3c14.4 9.4 44.3 57.5 93 69.4 0 0-26.5-8.7-54.9-39.9-28.4-31.3-29.3-34.9-38.1-29.5z"/><path fill="#7D1920" d="M235.9 185.6l-7-11.3 6.9-14.1 14-2.8 7 11.3-6.9 14.1z"/><linearGradient id="o" gradientUnits="userSpaceOnUse" x1="91.834" y1="117.875" x2="91.834" y2="18.765" gradientTransform="rotate(8.19 -1524.581 1256.423)"><stop offset="0" stop-color="#fcc58a"/><stop offset=".385" stop-color="#fac287"/><stop offset=".645" stop-color="#f6b97f"/><stop offset=".867" stop-color="#edaa71"/><stop offset="1" stop-color="#e69d65"/></linearGradient><path fill="url(#o)" d="M209.5 232.3c6.1 6.9 30.7 31.7 37.1 46 4.1 9.2 14.1 45.9 9.5 54.5-3.1 5.8-11.9 13.7-13.2 22.3-1.3 8.6 1.6 22 1.6 22s5.3.8 6.3-2.1c1-2.8 1-14.4 2.8-12.6 1.8 1.8 5.3 20.6 4.1 32.1 0 0 8.5.6 11.4-4.6 0 0 5.7.1 7.8-4.7 0 0 6.2-3.7 7.2-8.6 0 0 2.1-17.9-.1-25.1-3.4-11.2-3.6-12.4-6.7-23.7-4.9-17.8-10.9-43.3-21.8-63-7.3-13.2-37.5-42.6-42.8-44-5.1-1.4-6.1 8.3-3.2 11.5z"/></svg>