<svg id="Layer_1" xmlns="http://www.w3.org/2000/svg" xmlns:xlink="http://www.w3.org/1999/xlink" width="613.8" height="629.8"><style>.st1{fill:#bfbfbf}</style><circle cx="296.9" cy="332.9" r="294.2" fill="#f2f2f2"/><path class="st1" d="M433.4 173.6h-55.7v-36.2c0-7-5.6-12.5-12.5-12.5h-135c-8.4-1.4-13.9 4.2-13.9 12.5v36.2h-55.7c-15.3 0-27.8 12.5-27.8 27.8v47.4h25.1v264.5c0 15.3 12.5 27.8 27.8 27.8h222.8c16.7 0 27.8-12.5 27.8-27.8V248.8h25.1v-47.4c-.2-15.3-12.7-27.8-28-27.8zm-190.8-23.7h108.6v23.7H242.6v-23.7zm168.5 362c0 1.4-1.4 2.8-2.8 2.8H185.5c-1.4 0-2.8 0-2.8-2.8V247.4H411v264.5h.1zm25-289.6H157.7v-20.9c0-1.4 1.4-2.8 2.8-2.8h272.9c1.4 0 2.8 1.4 2.8 2.8v20.9h-.1z"/><path class="st1" d="M344.3 278h26.5v213h-26.5zm-59.9 0h26.5v213h-26.5zm-59.9 0H251v213h-26.5z"/><defs><circle id="SVGID_1_" cx="297.2" cy="332.4" r="294.2"/></defs><clipPath id="SVGID_2_"><use xlink:href="#SVGID_1_" overflow="visible"/></clipPath><circle cx="525.8" cy="85.1" r="82.9" fill="#52b532"/><path d="M505.5 134.5h-.5c-2.3 0-4.4-1.2-6-2.8L471.1 98c-2.8-3.5-2.3-8.5.9-11.3 3.5-2.8 8.5-2.3 11.3.9l22.4 27L568 52.5c3-3.3 8.3-3.3 11.3 0 3 3 3 8.3 0 11.3L510.9 132c-1.4 1.8-3.3 2.5-5.4 2.5z" fill="#fff"/></svg>