<svg id="Layer_1" xmlns="http://www.w3.org/2000/svg" width="600" height="404.4"><style>.st0{fill:#fff}.st1{fill:gray}.st2{fill:#666}.st3{font-family:&apos;Helvetica-Light&apos;}.st4{font-size:29.8682px}</style><path class="st0" d="M170.8 93.5c-3.6 0-6.6-3-6.6-6.6V23.2c0-3.6 3-6.6 6.6-6.6h280.3c3.6 0 6.6 3 6.6 6.6v63.7c0 3.6-3 6.6-6.6 6.6H170.8z"/><path class="st1" d="M451.1 17.5c3.2 0 5.7 2.6 5.7 5.7v63.7c0 3.2-2.6 5.7-5.7 5.7H170.8c-3.2 0-5.7-2.6-5.7-5.7V23.2c0-3.2 2.6-5.7 5.7-5.7h280.3m0-1.8H170.8c-4.1 0-7.5 3.4-7.5 7.5v63.7c0 4.1 3.4 7.5 7.5 7.5h280.3c4.1 0 7.5-3.4 7.5-7.5V23.2c0-4.1-3.4-7.5-7.5-7.5z"/><text transform="translate(248.102 64.302)" class="st2 st3 st4">Fahrzeuge</text><path class="st2" d="M435.8 59.5l-4.6-4.5 4.6-4.5-1.7-1.6-4.5 4.5-4.5-4.5-1.6 1.6L428 55l-4.5 4.5 1.6 1.7 4.5-4.5 4.5 4.5z"/><path d="M231.5 55.1c0 14.4-11.6 26-26 26s-26-11.6-26-26 11.6-26 26-26 26 11.6 26 26" fill="#a5c563"/><path class="st0" d="M205.5 62.7h-9c-.5 0-.7.2-.7.7v2.8c0 1.2-.7 2.1-1.7 2.4-1 .3-2.1 0-2.8-.9-.3-.5-.5-1-.5-1.6v-2.8c0-.3-.2-.5-.5-.5h-1.9c-.3 0-.5 0-.5-.3v-9.2c0-1.7 1-3.1 2.8-3.6.3-.2.3-.3.5-.5.9-2.3 1.7-4.5 2.6-6.8.9-2.1 1.9-2.9 4.2-2.9h14.7c2.3 0 3.5.9 4.3 2.9.9 2.3 1.7 4.3 2.6 6.6.2.3.3.5.7.7 1.6.5 2.4 1.6 2.6 3.3.2.9 0 1.7 0 2.8v6.8c0 .5-.2.5-.5.5h-1.7c-.3 0-.5.2-.5.5v2.8c0 1.6-1 2.6-2.4 2.6s-2.4-1-2.6-2.6v-2.6c0-.5-.2-.5-.5-.5-3.1-.6-6.1-.6-9.2-.6m0-13.3h11.1c.5 0 .5-.2.3-.5-.7-1.9-1.4-3.6-2.1-5.6-.3-1.2-.9-1.4-2.1-1.4h-14.6c-1.2 0-1.7.2-2.1 1.4-.7 1.9-1.4 3.6-2.1 5.6-.2.5 0 .5.3.5h11.3M193.4 52c-1.4 0-2.6 1.2-2.6 2.6 0 1.6 1.2 2.6 2.6 2.6 1.4 0 2.6-1.2 2.6-2.6s-1.2-2.6-2.6-2.6m26.9 2.6c0-1.6-1.2-2.6-2.6-2.6s-2.6 1.2-2.6 2.8c0 1.6 1.2 2.6 2.6 2.6s2.6-1.3 2.6-2.8m117.1 136.3c-3.6 0-6.6-3-6.6-6.6v-63.7c0-3.6 3-6.6 6.6-6.6h245.2c3.6 0 6.6 3 6.6 6.6v63.7c0 3.6-3 6.6-6.6 6.6H337.4z"/><path class="st1" d="M582.5 114.9c3.2 0 5.7 2.6 5.7 5.7v63.7c0 3.2-2.6 5.7-5.7 5.7H337.4c-3.2 0-5.7-2.6-5.7-5.7v-63.7c0-3.2 2.6-5.7 5.7-5.7h245.1m0-1.8H337.4c-4.1 0-7.5 3.4-7.5 7.5v63.7c0 4.1 3.4 7.5 7.5 7.5h245.2c4.1 0 7.5-3.4 7.5-7.5v-63.7c-.1-4.1-3.5-7.5-7.6-7.5z"/><text transform="translate(414.644 161.702)" class="st2 st3 st4">Handys</text><path class="st2" d="M567.2 156.9l-4.5-4.5 4.5-4.5-1.6-1.6-4.5 4.5-4.5-4.5-1.7 1.6 4.5 4.5-4.5 4.5 1.7 1.7 4.5-4.5 4.5 4.5z"/><path d="M397.7 152.5c0 14.4-11.6 25.9-25.9 25.9s-25.9-11.6-25.9-25.9c0-14.4 11.6-25.9 25.9-25.9s25.9 11.6 25.9 25.9" fill="#7787c2"/><path class="st0" d="M380.9 134.4h-18.3c-.9 0-1.2.7-1.2 1.6v33.4c0 .9.5 1.2 1.2 1.2h18.5c.9 0 1.7-.3 1.7-1.2V136c-.1-1.1-1-1.6-1.9-1.6zm-14.3 3.2c-1.4 0-1.4-1.4 0-1.4 1.3.1 1.3 1.4 0 1.4zm5.3 32.4c-2.6 0-2.6-3.5 0-3.5 2.8 0 2.8 3.5 0 3.5zm-7.9-29.9h16.4c0 7.1-.3 20.9-.3 24.9H364v-24.9zm10.7-1.8h-5.4c-1.4 0-1.4-2.6 0-2.6h5.4v2.6zM17.5 190.9c-3.6 0-6.6-3-6.6-6.6v-63.7c0-3.6 3-6.6 6.6-6.6h284.3c3.6 0 6.6 3 6.6 6.6v63.7c0 3.6-3 6.6-6.6 6.6H17.5z"/><path class="st1" d="M301.7 114.9c3.2 0 5.7 2.6 5.7 5.7v63.7c0 3.2-2.6 5.7-5.7 5.7H17.5c-3.2 0-5.7-2.6-5.7-5.7v-63.7c0-3.2 2.6-5.7 5.7-5.7h284.2m0-1.8H17.5c-4.1 0-7.5 3.4-7.5 7.5v63.7c0 4.1 3.4 7.5 7.5 7.5h284.3c4.1 0 7.5-3.4 7.5-7.5v-63.7c-.1-4.1-3.5-7.5-7.6-7.5z"/><text transform="translate(92.27 161.702)" class="st2 st3 st4">Immobilien</text><path class="st2" d="M286.4 156.9l-4.5-4.5 4.5-4.5-1.6-1.6-4.6 4.5-4.5-4.5-1.6 1.6 4.5 4.5-4.5 4.5 1.6 1.7 4.5-4.5 4.6 4.5z"/><g id="Ebene_1_2_"><path d="M77.4 152.6c0 14.2-11.5 25.7-25.7 25.7S26 166.8 26 152.6s11.5-25.7 25.7-25.7 25.7 11.5 25.7 25.7" fill="#5fb4df"/><path class="st0" d="M64.4 151.6v15.6h-8v-11.5h-8.6V167h-8.2v-15.2h-4.1c-.9 0-1.5 0-1-.5 1.9-1.7 13-12.3 16.8-15.6.3-.2.5-.2.9.2l17 15.2c.3.3.2.5-.3.5h-4.5z"/><path class="st0" d="M43.5 149c0 .3-.2.2-.7.2h-2.6c-.5 0-.7.2-.7-.2v-11c0-.3.3-.9.7-.9h2.6c.5 0 .7.5.7.9v11z"/></g><path class="st0" d="M170.8 288.3c-3.6 0-6.6-3-6.6-6.6V218c0-3.6 3-6.6 6.6-6.6h306c3.6 0 6.6 3 6.6 6.6v63.7c0 3.6-3 6.6-6.6 6.6h-306z"/><path class="st1" d="M476.8 212.3c3.2 0 5.7 2.6 5.7 5.7v63.7c0 3.2-2.6 5.7-5.7 5.7h-306c-3.2 0-5.7-2.6-5.7-5.7V218c0-3.2 2.6-5.7 5.7-5.7h306m0-1.8h-306c-4.1 0-7.5 3.4-7.5 7.5v63.7c0 4.1 3.4 7.5 7.5 7.5h306c4.1 0 7.5-3.4 7.5-7.5V218c0-4.1-3.4-7.5-7.5-7.5z"/><path d="M231.3 249.8c0 14.4-11.6 26-26 26s-26-11.6-26-26 11.6-26 26-26 26 11.6 26 26" fill="#89aad9"/><g id="camera_2_"><path class="st0" d="M211.9 236.5c.5.5.7 1.6 1 2.4.3.7.5 1.9 1 2.3 1.2.7 3.6 0 5.6.3 1 .3 1.9 1 2.3 2.4.3 1 0 2.8 0 4.3v8.8c0 1.6.2 3.3 0 4.2-.3.9-.9 1.4-1.6 1.9-2.3.7-4.9.3-7.5.3h-15.6c-2.3 0-6.1.3-7.6-.3-1.4-1.2-1.6-3.3-1.6-6.4V248c0-1.4 0-3.1.3-4.2.3-1 1.2-1.7 2.1-2.3 1-.2 2.1-.2 3.1-.2.9 0 2.1.2 2.9-.2 1.4-.9.9-4.7 2.9-5 2.1-.5 4.3-.3 6.4-.3h3.1c1.4.2 2.3.2 3.2.7zm-5.1 23.4c3.8-.7 7.5-4.3 6.9-9.4-.3-3.5-3.1-6.2-6.2-7.1-.9-.2-1.9-.3-2.9-.2-1.7.2-3.5.9-4.7 1.9-1.6 1-2.6 2.9-2.9 4.7-.5 2.6.2 4.7 1.4 6.8 1.9 2.1 4.6 4 8.4 3.3zm9.6-13.9c.2 1.4 2.4 1.4 2.4 0 0-.7-.5-1.6-1.7-1.2-.4.4-.7.5-.7 1.2z"/><path class="st0" d="M206 256.6c-2.1.2-3.3-.5-4.5-1.6-.9-1-1.6-2.8-1-4.9.2-.9.5-1.6 1-2.3s1.2-1 3.1-1.4c3.5-.2 6.2 2.4 5.6 6.1-.2 2-2 3.9-4.2 4.1z"/></g><text transform="translate(245.528 259.102)" class="st2 st3 st4">Foto &amp; Video</text><path class="st2" d="M461.5 254.3l-4.5-4.5 4.5-4.5-1.6-1.6-4.5 4.5-4.5-4.5-1.7 1.6 4.5 4.5-4.5 4.5 1.7 1.7 4.5-4.5 4.5 4.5z"/><ellipse cx="300" cy="388" rx="130.8" ry="9.4" opacity=".08" fill="#666"/></svg>