<svg id="Layer_1" xmlns="http://www.w3.org/2000/svg" width="600" height="489.7"><style>.st0{fill:#fff}</style><path class="st0" d="M583 332.1l-2.6-2.3-5.3-.5-2.3-2.7-1.1-3.5.6-1.7 1.4-1.3 1.2-2.2.3-2.6-.1-2.1.5-1.6 2.1-1.4 1.5-2.3-.3-2.6-.9-2.6-.2-2.7 2.7-3.3.8-1.2.4-1.7.7-5.9-.3-3.9 1.5-6.2-.6-3.1-1.1-1.4-4.3-3.4-2.6-4.2-1.4-1.4-.6-.5-.7-.1-.7.1-3.7 2.1-3.2 3.7-2.1 4.2-.1 3.4-3.2.2-2.4-.7-2 .4-2 3.2-.6 2.4v1.5l-.4 1.4-1.3 1.9-5.5 2.8-3.2.9-2.6-.1-5.5-1.7-2.8-1.7-4.9-4.6-13.5-4.3-3.1-2.4-1.6-2.3-.2-1.7.4-2 .3-4.3.6-1.8v-1.1l-.5-.5h-.8l-.5-.4.2-2.1-23.8-7.5-2.1-.3-6.6.8-2.4-.7-2.5.9-7.7-1.3-2.9-.8-.1-1.8 1.4-1.9 2-2 1.2-2.5-.1-3.9-1-3-1.4-2.6-1-3.1.3-6.2 2.2-6.2 2.1-3.6 4-6.8 4.3-5.2.5-1.3.7-3.2.5-1.7 4.9-6.1 1.3-2.9v-7.8l-3.6-3.2-4.6-2.1-3.8-5.6-.9-4.4-34.5-21.5-4.9-1.2h-4.7l-1.8-2.6h-6.9l-14-1.6-2.4.9-2 2.2-4.6 1.5-4.9.4-3.1-.8-3.7-2.7-1.8-1.9v-1.3l2.2-.5-3.2-3.1-4.1-2.4-3.4-.1-1.1 3.6 1 1.2-6.7.1-.2-1.2-.3-1.5-1-1.2-.5-1.5.4-1.3 1.6-2.5.4-.7-.9-1.9-1.2-.2-1.4.3-1.3-.3-.9-1.5-1-2.1-1.2-1.9-1.7-.5-1.1 1.2-.6 4-1.6 1.1-1.2-1-.5-2.2-.1-2.4-.2-1.4-2.3-1.1-3.1-.1-2 1.1 1.1 3-1.9.9-6.8 1.4-1.3-.1-1 .6-1.8 2.5-.6 1.4-.9 3.7-1.3 1.3-3.2 1.7-1.3 1.4-.1 1.4.5 1.4.4 1.6-.9 2 2 .7.6.1 3.3 2.5 2.6 1.5 2.2-.1 1.9-1 1.7-1.3 1.9-.9 6.1-1 1.8.3 2 .8 1.1.1-.7 4.4-.8-.4-.1-1.2-.1-.2h-.5l-.7.2-.5.4-.3 1 .3.9.2.7.1.7-.1 1.2v1.4l-.1 1.3-.9 1.5-1.6.6-1.4-1.8-1.5-2.5-2-1.8-3.7.4-3.9 2.5-1.5 3.2-.1.9-3.9.7-8-.1-4.8-1.3-1.2-.8-.9-1.8-.7-1.8-.7-.8-1.5-.1-3.2-1h-2.3L296 149l-.6.5-.7.9-.8.9-2.3.7-2.7 1.5-1.1.7-1 1.3-.5.9-.6.8-1.2.9-5.7 1.2h-16.4l-.3-.8-.3-1.7-.4-1.8-.7-.8-8.1-.4-1.8-1-2.3 3.6-2 2.4-2.4 1.4-10.5 2.2-2.7-.4-6.6-3.5 3.3.1 1.4-1.3 1.6-4.7-2.8.3-6.3 1.9-.2.2-4.4 1.5-3 1.7-5.6 4.5.4.1 2.1 1.6h.4v1.9l-.5 1.1-1 .3-1.4-.3-.7.4-.1.6.2.8.9 1.2.2.5-.1.5-.1.5-.3.3-1.9 1.7-1.6-.2-1.7-1-1.9-.7-1.5.4.1 1.2.6 1.1.4.4.6.9.3 1.1-.5 1.7-2.5 3.2-3.5 1.5-8.7-.4-3.3.7-4.8 2.1-.8.1-1-.4-.5-.7-.4-.6-.5-.4-3.7-1.2-2.7-1.6-.7-3.1 2.2-5.2-3.4.3-1.7-.3-1.6-.9-2.9-.6-6.3 1.1-3.3-.5-1.1-.9-1.2-.3-1.1.3-1.1.9-2.4.7.3 2.1 1.3 2.5.7 2.2-1 1.6-1.9 1.6-2 1.2-3.3.7-.2 3.5-3.2 1.9-1.9 2.5-1.6 2.9-.6 2.3 15-1.4 2.3-1.2 1.9 1.6 1.9 1.7 1.3 1.9-1 2-1.2.8-1.3.3-1.3.8-1.8 2.5-.7.2-1.1.2-2.4 2.4-.8 3.8.5 4.6-8.6 6.3-3.6 3.7-2.4 4-8.2 7.6-3.8 1.3.1 3.2-1.8.9-.5.3-.4 1.2-3.2 1.1-1.2 1.2-1.7 2.9 1.6 3.5-2.9 4.1-8.4 6.4-13.6 4.3-6.1 3.5-1.9 6.4.6 1.7 1.7 3.2.3 2-.1 2.6-.7 1.7-.9 1.6-2 6-.2.9.3 1 .7.9.9 1 .1 3.1-.5 1.5-1.4 1.8-1.3 1-4.2 2.2-3.3 3.8-1.2 1-9.1 5-16.9 15.5-1.7 2.2.4 2.4 3 3.4-4.4 5.6-4.4 7.5-1.4 1.6-.5 1.1v.9l.3.9.3.7v2l.3 1.2-.2 1.2-1.5 1.4 6.8 4.2 1.9 1.9 1.5 2.8.2 2-4.1 9.1-.4 1.4-.9 5.2-.1 1.9.1 1.7-.5 1.2-2.8.9-.7.1-.8-.1-1-.3-.2-.1-.2.1h-.2l-7.6 3.7-3 2-.5 2.1 1.3 2.5 2.2 2.8-.3 1.6-1 1.8-1.7 3.9 3-1.8 5.8-1.3 5.7-.3 4.3 2 4.1-2.1 6.4-7.6 8.1-5.3 3.2-3.4-.6-4.2-.9-.4-2.1 1-1.4-.7-.5-.8-1.2-3-.1-.7-1.1-3.1-.6-1.8.7-2.5 2.7-3.6 3.6-4.7 4.1-3.6 3.8-1.2 4.2-.2 4.1-1.1 10.7-7.3 8.1-1.6 8.4.2 18.7 4.9 1.9.9 1.2 1.8.3 3.5-1 3-3.3 3.9-.6 2.1 2.4 4.2 4.4 4.7 2.9 4.9-4.5 8.7-2.1 6.5-1.2 6.2 1.1 3 10 2.3 1.9 1.8-.1 1.4-.9 1.4-1 1.2-.6 1 .4-.2.2 1.8v1.9l-.2.1.1 1.4-.3.8.1.6 1.1.8 1.2.2 1-.8.9-.9 1-.4 2.9 1.2 8.5 9.7.6.4.5 1.9 1.4 3.8.9 3.2.7 1.9.9 1.4 5.6 6.3 2.9 1.8 3.9.8 4.1-.1 3.8-.7 7.8-3.2 3.5-2.2 1.7-.5 9.4 1 4.1-1.5 7.4-5.4 3.7-1.6 2.7-.4 1.4-1.8 1.2-2 2.1-1.1 12.8 3.2 2 1.1 1.9 1.8 2.4 3.4.2.5 1.5.5 1.1-.2.9-.5 1.2-.1 6.1 2.2 3.4-.1 2.3.7.7.1 1.6-.9.3-.6-.1-.9.4-1.9 2.9-5.6 3.4-2.3 8.9-2 1.2-.4.9-.7 1.6-2.1.1-.4 1.2-2.7.2-.3.7-5.2v-2l.2-2.1 1-1.9 1.2-.9 2.6-.3 1.4-.5 5.5-4.7 2.7-5.9-.3-6.6-3.8-7.2-2.9-2.6-.4-.7.5-1.5 1.3-1.8 2.4-2.5 2.7-1.2 5.5-1.3 2.6-1.8 6.2-8.1 3.6-1.9 1.4-1.1 1.3-1.5.7-1.6v-1.9l-.8-.6-.5-.8 1-2.3 2.7-2.8 3.4-1.9 7-1.5 3.6.7 1.8 2.5.5 4.1v5.5l-.4 5.2-2 9.4-.4 4.7.5 4.4 1.4 2.9 2.2 1.9 3.3 1.4 3.5 1.7 3.6 3.7 7.9 11.7 1.3.6 2.4.9 5.9 3.4 2.2.1.9-.5 1.9-1.7.8-.4 1 .4 1 1.7 1 .6 1.9.3 3.9-.1 1.9.7 3.2 4.2-1.8 4.3-3.6 4.4-2.3 5-.4.9-.2.5 2.1.1 1.9.7 7.2 3.9.9.6.8 1.2 1.3 2.9 2.1 3.9 1.1 2.3.7 2.4.2 3.1-.5 2.2-.7 2.2-.5 2.7 5-1.5 4.1 1.9 3.8.7 4-5 3.1-6.1.5-3-1.4-3-1.2-.8-2.7-.5-1.3-.7-1.1-1.7-1.1-3.3-1.3-1.4-.3-.4-.1-.5.1-.5.3-.4 4.1-3.8-2.2-6.3.5-2.1 3.3-2.5 2.7-.8 1.2-.7 1-1.7.4-2.3-.3-4 .5-2.4 2.4-3.5 9.1-6.1 1-1.9.6-2.1.7-1.8 1.4-1 1.5-.7 1.4-1.4 1.2-1.8 1.9-6.5 3.6-7.7.8-4-.2-2.4-1.6-6.4-.1-2.6.4-2.3-.3-1.8-1.7-1.2-1.2-2.4 1-4.5 2.2-4.4 2.4-2.2 6.1-.8 2.5.7.1 2.2 3.3 3.1.9.4 1.4-.5.6-1.1.4-1.3.9-1.2 2-1.5 1-.2.4 1.1.8 17.5-.2 2.8.2 1 .9.9 2.8 1.5 1.1 1 2.5 6.5 1.6 2.2 2.7 1.8 2.9 1.1 14.5.2 2.3-1 1.9-2.6.1-1.5-.2-2 .3-2.1 1.3-1.6 1.4.1 3 1.8 1.6.4 2.7-.9 8.4-4.3 5.4-.9 2.5.2 2.6.6 3.1 2.1.9 3v3.6l.8 3.9 1.9 2.5 4.9 4.4 1.3 3.1.1 4.1 4.2.1 5.3-2 3.5-2.2 1.7-3.5-1.6-3.2-5.2-5.3-1.2-2-.5-1.6.1-1.6.6-2.5 1-1.8 2.6-2.3.9-1.2 1-4-.9-2-2.2-.9-5.7-1.1-3.7-1.4-1.9-2.5 2.2-3.8-1.1-.7-.6-1.1-.3-1.3-.2-1.7.6-1.9v-4l.2-1.3 1.1-1.6 2.7-2.7 1-1.4 1.6-6 .5-1.3 1.2-.7 11.9-3.4 3.3-.1 2 1.7.2 2-.6 3.8.5 2 5.2 1.7 1 .9.6.9.8.9 1.5.6 1.6.3 4.4-.4 9 2.4 2.3-.5 1.7-2.9 1-4.5.1-4.7z"/><path fill="none" stroke="#ccc" stroke-width="3.345" stroke-miterlimit="10" d="M291.7 284.3V6.8"/><path fill="#99d6f4" d="M408.8 55.1l-115.4 48.3V6.9z"/><path class="st0" d="M336.2 61.1c-.2-.1-.4-.1-.6-.1-.2 0-.4 0-.6.1-1.9 1-3.8 1.5-5.5 1.5-2.6 0-3.8-1.3-3.8-4.2V49h9.1c.6 0 .9-.4.9-1v-5.7c0-.6-.3-1.1-.9-1.1h-9.1V33c0-.4-.2-.7-.8-.7h-1.3c-.2 0-.5 0-.8.2l-14.6 12.7c-.2.2-.5.5-.5.7v2.3c0 .6.7.9 1.4.9h4.2v12.5c0 4.3.8 6.6 2.6 8.3 2 2 5.7 3.3 9.8 3.3 4 0 7.3-1 10.4-3.2.3-.2.6-.5.6-.9v-7c.2-.5-.1-.8-.5-1z"/></svg>