<svg id="Layer_1" xmlns="http://www.w3.org/2000/svg" xmlns:xlink="http://www.w3.org/1999/xlink" width="432.8" height="432"><style>.st2{fill:#fff}.st4{fill:#ccc}.st7{fill:none;stroke:#e5e5e5;stroke-width:4.663;stroke-linecap:round;stroke-linejoin:round;stroke-miterlimit:10}.st8{fill:#eaeaea}</style><circle cx="216" cy="216" r="216" fill="#cceaf9"/><defs><circle id="SVGID_1_" cx="216" cy="216" r="216"/></defs><clipPath id="SVGID_2_"><use xlink:href="#SVGID_1_" overflow="visible"/></clipPath><g clip-path="url(#SVGID_2_)"><path class="st2" d="M316.1 94.6H112.8c-24.6 0-44.6 20-44.6 44.6v32.2h-1.9c-.6 0-1 .5-1 1V195c0 .6.5 1 1 1h1.9v28.5h-1.9c-.6 0-1 .5-1 1V269c0 .6.5 1 1 1h1.9v8.6h-1.9c-.6 0-1 .5-1 1v43.5c0 .6.5 1 1 1h1.9v330.6c0 24.6 20 44.6 44.6 44.6h203.3c24.6 0 44.6-20 44.6-44.6V139.1c0-24.6-20-44.5-44.6-44.5z"/><path fill="#eaeaea" stroke="#000" stroke-width="1.166" stroke-miterlimit="10" d="M78.4 164.4h269.1v465.1H78.4z"/><circle class="st4" cx="167.1" cy="129" r="4.4"/><circle cx="167.1" cy="129" r="2.6" fill="#333"/><path class="st4" d="M235.8 131.8h-45.7c-1.4 0-2.6-1.2-2.6-2.6 0-1.4 1.2-2.6 2.6-2.6h45.7c1.4 0 2.6 1.2 2.6 2.6.1 1.4-1.1 2.6-2.6 2.6z"/><circle class="st4" cx="213" cy="111.5" r="1.8"/><circle cx="213" cy="662.8" r="22.1" fill="#fff" stroke="#ccc" stroke-width="1.166" stroke-miterlimit="10"/><path class="st2" d="M331.7 233.4H93.9c-3.3 0-6-2.7-6-6v-44.6c0-3.3 2.7-6 6-6h237.8c3.3 0 6 2.7 6 6v44.6c0 3.3-2.7 6-6 6z"/><path class="st7" d="M150.7 198.9H310m-159.3 12.3h125.2"/><path class="st8" d="M137.1 229.2H96c-2 0-3.6-1.6-3.6-3.6v-41.1c0-2 1.6-3.6 3.6-3.6h41.1c2 0 3.6 1.6 3.6 3.6v41.1c0 2-1.6 3.6-3.6 3.6z"/><path class="st4" d="M126.4 211.9c-.2-.1-.2-.1-.4-.1s-.2 0-.4.1c-1.5.8-2.8 1.2-4.2 1.2-2.1 0-2.8-1-2.8-3.4V202h6.9c.5 0 1.4-.1 1.4-.6v-4.6c0-.5-.9-1-1.4-1h-6.9v-6.5c0-.3-.6-.8-1-.8h-1c-.2 0-.4.1-.6.3L104.5 199c-.2.2-.3.4-.3.6v1.8c0 .5.4.5.9.5h3.3v10.2c0 3.4.6 5.2 2.1 6.6 1.6 1.6 4.6 2.7 7.9 2.7 3.2 0 5.8-.8 8.3-2.6.3-.2.3-.4.3-.7v-5.6c-.2-.2-.4-.5-.6-.6z"/><path class="st2" d="M331.7 298.6H93.9c-3.3 0-6-2.7-6-6V248c0-3.3 2.7-6 6-6h237.8c3.3 0 6 2.7 6 6v44.6c0 3.4-2.7 6-6 6z"/><path class="st7" d="M150.7 264.1H310m-159.3 12.4h125.2"/><path class="st8" d="M137.1 294.5H96c-2 0-3.6-1.6-3.6-3.6v-41.1c0-2 1.6-3.6 3.6-3.6h41.1c2 0 3.6 1.6 3.6 3.6v41.1c0 2-1.6 3.6-3.6 3.6z"/><path class="st4" d="M126.4 277.2c-.2-.1-.2-.1-.4-.1s-.2 0-.4.1c-1.5.8-2.8 1.2-4.2 1.2-2.1 0-2.8-1-2.8-3.4v-7.7h6.9c.5 0 1.4-.1 1.4-.6v-4.6c0-.5-.9-1-1.4-1h-6.9v-6.5c0-.3-.6-.8-1-.8h-1c-.2 0-.4.1-.6.3l-11.5 10.2c-.2.2-.3.4-.3.6v1.8c0 .5.4.5.9.5h3.3v10.2c0 3.4.6 5.2 2.1 6.6 1.6 1.6 4.6 2.7 7.9 2.7 3.2 0 5.8-.8 8.3-2.6.3-.2.3-.4.3-.7v-5.6c-.2-.2-.4-.5-.6-.6z"/></g><path d="M371 69.6c-34.2 0-61.8 27.7-61.8 61.8 0 21.6 11 40.6 27.8 51.6-.3.9-.7 1.8-1.1 2.7-3.3 7-8 12.9-13.8 17.4 10.7-1 21-5.6 28.8-13.2 6.3 2.2 13.1 3.4 20.1 3.4 34.2 0 61.8-27.7 61.8-61.8S405.2 69.6 371 69.6z" fill="#0099e5"/><path class="st2" d="M403.4 155.4v-4.8s-7.8-2.6-7.8-9.4v-15.1c0-12.3-7.7-22.9-18.3-25.9 0-.2.1-.4.1-.7 0-3.3-2.7-6-6-6s-6 2.7-6 6c0 .2 0 .4.1.6-10.6 2.9-18.2 13.6-18.2 25.9v15.1c0 6.9-7.9 9.4-7.9 9.4v4.8l64 .1zm-43.3 3.9c2.3 3.8 6.5 6.4 11.3 6.4s9-2.6 11.3-6.4h-22.6z"/></svg>