<?xml version="1.0" encoding="utf-8"?>
<!-- Generator: Adobe Illustrator 18.1.1, SVG Export Plug-In . SVG Version: 6.00 Build 0)  -->
<svg version="1.1" id="Layer_1" xmlns="http://www.w3.org/2000/svg" xmlns:xlink="http://www.w3.org/1999/xlink" x="0px" y="0px"
	 viewBox="-280 372 50 50" enable-background="new -280 372 50 50" xml:space="preserve">
<circle fill="#A6A39C" cx="-255" cy="397" r="25"/>
<g>
	<path fill="#FFFFFF" d="M-267.9,397.4h24.4l-9.2,8.7c-0.3,0.3-0.3,0.8,0,1.1c0.3,0.3,0.8,0.3,1.1,0l9.8-9.3
		c0.3-0.3,0.5-0.8,0.5-1.2c0-0.5-0.2-0.9-0.6-1.2l-9.8-8.8c-0.1-0.1-0.3-0.2-0.5-0.2c-0.2,0-0.4,0.1-0.6,0.2
		c-0.3,0.3-0.3,0.8,0.1,1.1l9,8.1h-24.2c-0.4,0-0.8,0.3-0.8,0.8S-268.3,397.4-267.9,397.4z"/>
</g>
</svg>
