<?xml version="1.0" encoding="utf-8"?>
<!-- Generator: Adobe Illustrator 19.0.1, SVG Export Plug-In . SVG Version: 6.00 Build 0)  -->
<svg version="1.1" id="Layer_1" xmlns:sketch="http://www.bohemiancoding.com/sketch/ns"
	 xmlns="http://www.w3.org/2000/svg" xmlns:xlink="http://www.w3.org/1999/xlink" x="0px" y="0px" viewBox="-281 372 49 49"
	 style="enable-background:new -281 372 49 49;" xml:space="preserve">
<style type="text/css">
	.st0{fill:none;stroke:#7D7467;}
	.st1{fill:none;stroke:#A6A39C;}
	.st2{fill:#A6A39C;stroke:#A6A39C;}
	.st3{fill:#A6A39C;}
	.st4{fill:none;}
</style>
<title>ico-shape-ai-off</title>
<desc>Created with Sketch.</desc>
<g id="AI" transform="translate(1.699121, 1.714286)" sketch:type="MSShapeGroup">
	<path id="Shape" class="st0" d="M-247.4,375.3c1.1,1.1,7.7,7.8,9.1,9.1c2.5-2.5,2.5-6.6,0-9.1
		C-240.8,372.7-244.9,372.7-247.4,375.3L-247.4,375.3z"/>
	<path id="Shape_1_" class="st1" d="M-247.4,375.3c1.1,1.1,7.7,7.8,9.1,9.1c2.5-2.5,2.5-6.6,0-9.1
		C-240.8,372.7-244.9,372.7-247.4,375.3L-247.4,375.3z"/>
	<path id="Shape_2_" class="st2" d="M-263.6,409.9l-4.5-4.6l-4.5-4.6l22-22.2l9.1,9.1L-263.6,409.9z"/>
	<path id="Shape_3_" class="st1" d="M-247.4,375.3l-3.3,3.3"/>
	<path id="Shape_4_" class="st1" d="M-241.6,387.8l3.3-3.3"/>
	<path id="Shape_5_" class="st1" d="M-271.6,399.7l-1.8,1.8l-2.3,11.5l11.4-2.4l2-2.1"/>
	<path id="Shape_6_" class="st3" d="M-234.6,384.6l-1.5,1.6v27.6c0,2-1.6,3.7-3.7,3.7h-36.6c-2,0-3.7-1.7-3.7-3.7v-36.9
		c0-2,1.6-3.7,3.7-3.7h27.3l1.5-1.6c0.1-0.1,0.2-0.2,0.4-0.3h-29.2c-3,0-5.5,2.5-5.5,5.5v36.9c0,3.1,2.5,5.5,5.5,5.5h36.6
		c3,0,5.5-2.5,5.5-5.5v-29.5C-234.5,384.4-234.5,384.5-234.6,384.6L-234.6,384.6z"/>
	<path id="Shape_7_" class="st4" d="M-269.9,419.3v-1.9"/>
</g>
<g id="Layer_1_1_">
</g>
</svg>
