<svg id="Layer_1" xmlns="http://www.w3.org/2000/svg" viewBox="0 0 204.3 341.6"><style>.st0{fill:url(#SVGID_1_);} .st1{fill:url(#SVGID_2_);} .st2{fill:url(#SVGID_3_);} .st3{fill:url(#SVGID_4_);} .st4{fill:url(#SVGID_5_);} .st5{fill:#367D3D;stroke:#367D3D;stroke-width:2;stroke-miterlimit:10;} .st6{fill:#D7D6D6;} .st7{fill:url(#SVGID_6_);} .st8{fill:#FBC58A;} .st9{fill:url(#SVGID_7_);} .st10{fill:url(#SVGID_8_);} .st11{fill:url(#SVGID_9_);} .st12{fill:url(#SVGID_10_);} .st13{fill:url(#SVGID_11_);} .st14{fill:url(#SVGID_12_);} .st15{fill:#CD985D;} .st16{fill:url(#SVGID_13_);} .st17{fill:#FAB483;} .st18{fill:url(#SVGID_14_);} .st19{fill:url(#SVGID_15_);} .st20{fill:#847068;}</style><linearGradient id="SVGID_1_" gradientUnits="userSpaceOnUse" x1="111.91" y1="299.179" x2="111.91" y2="237.089"><stop offset="0" stop-color="#426998"/><stop offset="1" stop-color="#1A2F4B"/></linearGradient><path class="st0" d="M116.2 232.3c.7 8.4 1.2 16.6 1.7 25 .5 8.3.9 16.6 1.2 25 .6 16.7.9 33.3.9 50l-16.3-.6c1.3-16.4 2.2-32.9 2.9-49.4.3-8.2.6-16.5.7-24.8.2-8.2.3-16.5.2-24.7l8.7-.5z"/><linearGradient id="SVGID_2_" gradientUnits="userSpaceOnUse" x1="50.659" y1="299.179" x2="50.659" y2="237.089"><stop offset="0" stop-color="#426998"/><stop offset="1" stop-color="#1A2F4B"/></linearGradient><path class="st1" d="M55 232.8c0 8.2.1 16.5.2 24.7.2 8.3.4 16.5.7 24.8.6 16.5 1.6 33 2.9 49.4l-16.3.7c0-16.7.3-33.4.9-50 .3-8.3.7-16.6 1.2-25 .5-8.3 1-16.6 1.7-25l8.7.4z"/><linearGradient id="SVGID_3_" gradientUnits="userSpaceOnUse" x1="45.065" y1="267.359" x2="13.732" y2="184.026"><stop offset=".313" stop-color="#367D3D"/><stop offset="1" stop-color="#8EB23E"/></linearGradient><path class="st2" d="M39.8 162.3c-.4.5-.9 1.3-1.3 2s-.9 1.4-1.3 2.2c-.8 1.5-1.6 3-2.4 4.6-1.5 3.1-2.7 6.3-3.8 9.6-2.1 6.5-3.5 13.3-4.2 20-1.4 13.5-.1 27 3 40.1l-27.9 3c0-16 2.2-32.1 7.4-47.1 2.6-7.5 5.9-14.7 10-21.4 2-3.4 4.3-6.6 6.7-9.7 1.2-1.5 2.5-3 3.8-4.5.7-.7 1.3-1.4 2.1-2.1.7-.7 1.4-1.3 2.3-2.1l5.6 5.4z"/><linearGradient id="SVGID_4_" gradientUnits="userSpaceOnUse" x1="1096.72" y1="298.123" x2="1096.72" y2="236.036" gradientTransform="translate(-1016.333 912.24)"><stop offset="0" stop-color="#426998"/><stop offset="1" stop-color="#1A2F4B"/></linearGradient><path class="st3" d="M125 229.7c0 10.4-20.1 9.2-44.3 9.2-24.2 0-44.3 1.1-44.3-9.3s20.1-9.2 44.3-9.2c24.2 0 44.3-1.1 44.3 9.3z"/><linearGradient id="SVGID_5_" gradientUnits="userSpaceOnUse" x1="80.66" y1="264.513" x2="80.66" y2="164.802"><stop offset=".313" stop-color="#367D3D"/><stop offset="1" stop-color="#8EB23E"/></linearGradient><path class="st4" d="M129.9 163.1c0-4.8-3.9-8.7-8.7-8.7H40.1c-4.8 0-8.7 3.9-8.7 8.7V222c0 4.8 3.9 8.7 8.7 8.7h81.1c4.8 0 8.7-3.9 8.7-8.7v-58.9z"/><path class="st5" d="M81 155.8l11.4 9.1 32-8.8zM80.7 155.8l-11.5 9.1-31.9-8.8z"/><ellipse class="st6" cx="82.8" cy="339.6" rx="68.4" ry="2"/><linearGradient id="SVGID_6_" gradientUnits="userSpaceOnUse" x1="158.5" y1="264.512" x2="158.5" y2="164.801"><stop offset=".313" stop-color="#367D3D"/><stop offset="1" stop-color="#8EB23E"/></linearGradient><path class="st7" d="M121.6 156.9c1.7 0 3.7-.1 5.5-.3 1.9-.2 3.7-.5 5.6-.9 3.7-.7 7.2-1.8 10.5-3.2 6.6-2.8 12.3-7 16.3-12.2 4-5.2 6.5-11.2 7.9-17.8 1.3-6.6 1.6-13.6 1-20.7l28.1 1.3c-1.3 9-3.4 18.1-7.3 26.8-3.8 8.7-9.6 17-17.1 23.1-7.5 6.2-16.4 10.1-25.2 11.7-4.4.9-8.9 1.2-13.2 1.2-2.2 0-4.4-.1-6.5-.3-2.2-.2-4.2-.5-6.6-1l1-7.7z"/><path class="st8" d="M204.3 68.3c-3.3-3.5-8.7-2.1-8.7-2.1l-4 16.2c-.3-.1-.6-.2-.9-.2l1.3-19c-3.5-3.1-8.8-1.1-8.8-1.1l-3.1 18.5c-.4 0-.7 0-1-.1l-1.3-16.9c-3.8-2.6-8.8 0-8.8 0l-1 21.1c-.1.3-1.4 3.1-1.5 3.4l-9.4-4.3c-4.2 2.4-5.1 8.4-5.1 8.4l14.1 10c.8 3.1 1.9 5 1.9 5 12.6 3.6 28.8 3.2 28.8 3.2 4.3-13.9 4.6-23.8 4.6-23.8l2.9-18.3z"/><radialGradient id="SVGID_7_" cx="-2036.99" cy="3887.643" r="30.445" gradientTransform="translate(2159.893 -3560.18)" gradientUnits="userSpaceOnUse"><stop offset="0" stop-color="#464646"/><stop offset=".862" stop-color="#2A2A2A"/><stop offset="1" stop-color="#262525"/></radialGradient><path class="st9" d="M100.5 339.7l35.4-.1c.3 0 .6-.2.6-.5.3-2.9-1.4-14.7-28.9-13.3-7 .4-7.9 10.7-7.7 13.3 0 .3.3.6.6.6z"/><radialGradient id="SVGID_8_" cx="158.179" cy="330.569" r="26.468" gradientTransform="matrix(-1 0 0 1 201.798 0)" gradientUnits="userSpaceOnUse"><stop offset="0" stop-color="#464646"/><stop offset=".862" stop-color="#2A2A2A"/><stop offset="1" stop-color="#262525"/></radialGradient><path class="st10" d="M62.1 339.6H39.2c-.3 0-.6-.2-.6-.5-.3-2.9-1.3-13.2 12.7-13.3 12.8-.1 11.7 10.7 11.4 13.3 0 .3-.3.5-.6.5z"/><path class="st8" d="M30.5 240.3s-13-3.5-29.5.5c0 0-3.6 13.1 2.6 29.1 0 0 10.8 4.7 23.3 4.7 0 0-.9-11.7-.1-19.7 0 0 1.4 3.4 3.1 7.3 0 0 4.3 0 6.5-2.5-.1 0-1.3-10.4-5.9-19.4z"/><radialGradient id="SVGID_9_" cx="-5746.144" cy="-3916.759" r="23.691" gradientTransform="matrix(2.3592 -.029 .0258 2.1028 13735.58 8162.716)" gradientUnits="userSpaceOnUse"><stop offset="0" stop-color="#EB2443"/><stop offset=".23" stop-color="#DE2340"/><stop offset=".565" stop-color="#C6203A"/><stop offset=".964" stop-color="#A11C30"/><stop offset="1" stop-color="#9E1C2F"/></radialGradient><path class="st11" d="M79.3 147.2c-12.5.2-22.5-3-29.6-9.3-10-8.9-10.1-20.4-10.1-21.7l.1-6.7 78.2-1 .2 6.7c0 1.3.2 12.8-9.6 21.9-6.8 6.5-16.7 9.9-29.2 10.1z"/><linearGradient id="SVGID_10_" gradientUnits="userSpaceOnUse" x1="-14343.255" y1="-8542.425" x2="-14343.255" y2="-8547.341" gradientTransform="rotate(-.81 693501.454 -1165918.32)"><stop offset="0" stop-color="#FFF"/><stop offset=".444" stop-color="#FAFAFA"/><stop offset=".743" stop-color="#F0F0EF"/><stop offset=".998" stop-color="#E1E2E1"/><stop offset="1" stop-color="#E1E2E1"/></linearGradient><path class="st12" d="M107.3 117.3c2.8-2.2 2.7-5.8 2.7-5.8l-62.2.8s0 3.7 2.9 5.8c2.8 2 53.8 1.4 56.6-.8z"/><linearGradient id="SVGID_11_" gradientUnits="userSpaceOnUse" x1="15400.085" y1="8536.733" x2="15400.085" y2="8531.746" gradientTransform="matrix(-.9998 .0124 -.0123 -1 15581.244 8483.696)"><stop offset="0" stop-color="#FFF"/><stop offset=".444" stop-color="#FAFAFA"/><stop offset=".743" stop-color="#F0F0EF"/><stop offset=".998" stop-color="#E1E2E1"/><stop offset="1" stop-color="#E1E2E1"/></linearGradient><path class="st13" d="M63.8 140.4c-1.5 2.2-1.5 5.9-1.5 5.9l33.9-.4s-.1-3.7-1.6-5.9c-1.5-2.1-29.2-1.7-30.8.4z"/><radialGradient id="SVGID_12_" cx="-14343.62" cy="-8563.193" r="55.528" gradientTransform="rotate(-.81 693501.454 -1165918.32)" gradientUnits="userSpaceOnUse"><stop offset="0" stop-color="#FDC78A"/><stop offset=".503" stop-color="#FDC48A"/><stop offset=".842" stop-color="#FCBE87"/><stop offset="1" stop-color="#FBB885"/></radialGradient><path class="st14" d="M131.2 48.9c-.1-4.8-4-8.6-8.9-8.6l-89.5 1.1c-4.8.1-8.7 4-8.6 8.8 0 0 0 10.9 2 76 .7 21.5 5.2 30.2 9.9 30.2l85.9-1.1c4.6-.1 9-8.9 9.1-30.4.4-65.1.1-76 .1-76zm-51.9 96c-32.5-.6-36.2-20.8-36.3-29.3 0-2.1 1.9-3.5 3.9-3.3 21.3 2.4 42.7 2.2 63.9-.8 2.1-.3 4 1.1 4 3.2.1 8.5-3.1 28.7-35.5 30.2z"/><path class="st15" d="M132.5 105.8c.2-51.9-1.2-57-1.2-57-.1-4.8-4-8.7-8.9-8.6l-89.5 1.1c-4.8.1-8.7 4-8.6 8.9 0 0-1.5 6.5 0 58.4.4.4 1.7 7.5 1.7 7.5.3-31.8 6.8-55.8 6.8-55.8s32.3 17.1 68 5.8l-6.7-5.8c19.2-2.2 25.1-5.9 25.1-5.9 9.6 23 12 57.9 12 57.9.2-.4 1.3-6.5 1.3-6.5z"/><linearGradient id="SVGID_13_" gradientUnits="userSpaceOnUse" x1="-14345.38" y1="-8663.848" x2="-14345.38" y2="-8545.409" gradientTransform="rotate(-.81 693501.454 -1165918.32)"><stop offset="0" stop-color="#584638"/><stop offset=".345" stop-color="#4D3C31"/><stop offset="1" stop-color="#33241D"/></linearGradient><path class="st16" d="M26 116.1c0-1.4-8.5-3.6-9.9-56.7-1.1 1.2-2.9 2.2-3.9 3.6-.1-14.3 6.7-17.2 6.7-17.2-2 1.8.1-.1 0 0 0 0 0-2.6-4.3-2.8 3.1-3.9 6.3-4 11.1-4.3-1.1-.3 2.9-8.4 3.5-9.1 2.5-3 6.8-4.7 10.5-5.6-1.3 1.4-1.9 3.1-2.9 4.6 12.6-5.3 18-9.2 32-9.5 11.4-.3 28.1-.7 39-5 7.2-2.8 12.3-7.2 11.3-14-.3-.1-.3-.1 0 0 12.3 7.9 10.9 21 10.9 21s1.4-.4 3.5-5c3 8.9 1.7 18.6-2.1 24.5 11.5 6.7 8.7 25 8.1 33.6-2 30.1-8.2 37.9-8.2 37.9.3-18-1.7-45.5-9.7-61.9 0 0-9.1 6.4-24.3 9.6l7.1 3.7c-38.8 9.8-73.2-6.3-72.9-8.9-.2.3-7.2 17.4-5.5 61.5z"/><ellipse transform="rotate(-.81 121.04 107.315)" class="st17" cx="121.2" cy="107.1" rx="5.9" ry="5.9"/><ellipse transform="rotate(-.81 36.02 108.224)" class="st17" cx="36.2" cy="108.2" rx="5.9" ry="5.9"/><g><path class="st15" d="M70.4 101.3c-3 3-5.3-5.1-13-5-7.7.1-9 7.4-12.7 5.3-3.7-2 1.5-12.6 12.6-12.7 11-.1 16.1 9.5 13.1 12.4z"/></g><g><path class="st15" d="M86.4 101.1c3.1 2.9 5.2-5.2 12.9-5.3 7.7-.1 9.2 7.2 12.8 5 3.6-2.2-1.8-12.6-12.9-12.4-11 .1-15.9 9.9-12.8 12.7z"/></g><radialGradient id="SVGID_14_" cx="-9871.153" cy="-5994.289" r="8.782" gradientTransform="matrix(1.41 -.0175 .0175 1.41 14080.453 8372.772)" gradientUnits="userSpaceOnUse"><stop offset="0" stop-color="#464646"/><stop offset="1" stop-color="#121212"/></radialGradient><path class="st18" d="M70.4 99.1c-3 3-5.3-5.1-13-5-7.7.1-9 7.4-12.7 5.3-3.7-2.1 1.5-12.6 12.6-12.8 11-.1 16.1 9.5 13.1 12.5z"/><radialGradient id="SVGID_15_" cx="-9841.346" cy="-5994.291" r="8.783" gradientTransform="matrix(1.41 -.0175 .0175 1.41 14080.453 8372.772)" gradientUnits="userSpaceOnUse"><stop offset="0" stop-color="#464646"/><stop offset="1" stop-color="#121212"/></radialGradient><path class="st19" d="M86.4 98.9c3.1 2.9 5.2-5.2 12.9-5.3 7.7-.1 9.2 7.2 12.8 5 3.6-2.2-1.8-12.6-12.9-12.4-11.1 0-15.9 9.8-12.8 12.7z"/><path class="st20" d="M52.3 32c21.2-11.6 31-6.4 49.5-9.7 8.1-1.4 10.5-6.4 10.5-6.4-5.5 18.3-29.7 9.5-47.6 12.7L52.3 32z"/></svg>