<svg width="120" height="80" xmlns="http://www.w3.org/2000/svg"><g fill="none" fill-rule="evenodd"><rect fill="#FCD202" width="120" height="80" rx="4"/><path d="M94 0c-2.21 0-4.418 1.737-5 3.864C89 3.864 79 53 27 80h89.003A3.993 3.993 0 0 0 120 76.005V3.995A3.995 3.995 0 0 0 116 0H94z" fill="#FFDB28"/><rect fill="#D9B23D" x="9" y="29" width="23" height="21" rx="4"/><path d="M60.036 21.77l.633-3.035H8.993L8.36 21.77h51.676" fill="#FFF"/><path d="M66.26 14.6s.693-3.217.703-3.247H62.56c0 .02-.91 4.267-.91 4.287h1.127c.01 0 .693-3.205.693-3.205h2.137s-.673 3.215-.693 3.235h3.256l-.425 1.984h-3.237c0 .02-.653 3.025-.653 3.025h-2.443c0 .01-.218 1.08-.228 1.09h3.6c0-.01.645-3.035.645-3.035h3.235c0-.01.85-4.117.85-4.136H66.26" fill="#ED1C24"/><path d="M58.292 15.55c.465 0 .782.32.782.852 0 .09-.01.17-.02.26h-2.01c.21-.67.654-1.112 1.248-1.112zm1 3.987l.257-1.192c-.436.15-.862.27-1.406.27-.634 0-1.188-.22-1.217-.99h3.265c.12-.392.188-.783.188-1.143 0-1.102-.633-2.004-1.99-2.004-1.76 0-2.83 1.463-2.83 3.076 0 1.382.91 2.194 2.326 2.194.574 0 1.03-.09 1.405-.21zm-5.374-1.012c-.643 0-1.078-.28-1.078-1.092 0-.95.593-1.743 1.534-1.743.297 0 .633.09.97.22l.237-1.14a3.872 3.872 0 0 0-1.296-.242c-1.553 0-2.88 1.172-2.88 2.976 0 1.482.9 2.183 2.198 2.183.435 0 .8-.08 1.07-.19l.256-1.172c-.297.11-.624.2-1.01.2zm-6.837 1.072l.545-2.534c.217-1.022.713-1.373 1.227-1.373.663 0 .742.5.613 1.072l-.593 2.835h1.415l.623-2.905c.307-1.452-.356-2.214-1.395-2.214-.574 0-1.128.23-1.603.74l.128-.59h-1.316l-1.058 4.97h1.415zm-5.085-1.432c0-.5.435-.782 1.157-.782.14 0 .445.01.723.05l-.06.28c-.168.592-.643.993-1.207.993-.406 0-.613-.2-.613-.54zm1.365-3.657c-.653 0-1.316.15-1.534.22l-.237 1.153c.315-.09.94-.26 1.493-.26.742 0 1.01.23 1.01.62 0 .07 0 .152-.02.23l-.02.102a9.985 9.985 0 0 0-.852-.07c-1.403 0-2.53.55-2.53 1.853 0 .85.652 1.362 1.503 1.362.603 0 1.118-.24 1.454-.64l-.11.52h1.258l.614-2.845c.048-.21.068-.43.068-.64 0-.853-.465-1.604-2.098-1.604zm-6.857 5.09l.544-2.535c.218-1.022.712-1.373 1.227-1.373.663 0 .742.5.614 1.072l-.594 2.835h1.415l.622-2.905c.307-1.452-.356-2.214-1.395-2.214-.575 0-1.13.23-1.603.74l.128-.59h-1.316l-1.06 4.97h1.417zm-2.533-6.342c-.03.45.296.8.732.8a.84.84 0 0 0 .86-.8c.03-.45-.296-.8-.732-.8-.485 0-.83.35-.86.8zm-.2 1.373l-1.057 4.967h1.405l1.06-4.968H33.77zm-3.997 4.967l.554-2.594h2.138l.258-1.273h-2.128l.327-1.592h2.246l.277-1.273h-3.71l-1.406 6.732h1.443zm-1.395-3.877l.228-1.09h-1.514l.297-1.384-1.476.33-.92 4.248c-.257 1.202.396 1.863 1.583 1.863.248 0 .663-.05.96-.15l.238-1.092c-.238.06-.535.12-.792.12-.406 0-.693-.14-.593-.64l.465-2.205h1.523zm-5.363 2.415c0 .4-.485.47-.89.47-.515 0-1.09-.14-1.395-.24l-.238 1.122c.445.11 1.01.2 1.543.2 1.267 0 2.296-.48 2.296-1.683 0-1.552-1.84-1.282-1.84-1.973 0-.31.298-.42.762-.42.446 0 1.07.18 1.277.24l.237-1.13a5.33 5.33 0 0 0-1.386-.192c-1.374 0-2.205.622-2.205 1.653 0 1.514 1.84 1.263 1.84 1.955zm-5.324 1.613c1.555 0 2.604-1.143 2.84-2.635.25-1.493-.572-2.635-2.126-2.635-1.554 0-2.603 1.142-2.84 2.635-.247 1.492.574 2.635 2.127 2.635zm.13-1.152c-.564 0-1.01-.45-.802-1.483.208-1.032.703-1.482 1.267-1.482s1.01.46.792 1.483c-.208 1.022-.693 1.483-1.257 1.483zm-5.967-1.053h.624c1.99 0 3.097-.99 3.097-2.644 0-1.233-.86-2.035-2.336-2.035H11.4l-1.405 6.732h1.425l.435-2.054zm.248-1.232l.466-2.212h.593c.653 0 .97.27.97.9 0 .813-.506 1.313-1.435 1.313H12.1z" fill="#231F20"/></g></svg>