<svg id="Layer_1" xmlns="http://www.w3.org/2000/svg" width="120" height="80"><style>.st0{fill:#52b532}</style><path class="st0" d="M117 80H3c-1.6 0-3-1.3-3-3V3c0-1.6 1.4-3 3-3h114c1.7 0 3 1.4 3 3v74c0 1.7-1.3 3-3 3z"/><path d="M60.4 11c-23.8 0-42.8 11.3-42.8 25.4 0 7.8 5.9 14.9 15.2 19.3l-4 14.9c-1.1 3.6.6 4 3.6 2l17.1-11.8s6.9.8 10.5.8c23.8 0 42.8-11.3 42.8-25.4.4-13.9-18.7-25.2-42.4-25.2z" fill="#fff"/><path class="st0" d="M46.8 43.1c-.6.9-1.5 1.7-2.6 2.2-1.2.5-2.5.8-4.1.8-1.9 0-3.5-.4-4.7-1.1-.9-.5-1.6-1.2-2.1-2.1-.5-.9-.8-1.7-.8-2.5 0-.5.2-.9.5-1.2.3-.3.7-.5 1.2-.5.4 0 .8.1 1.1.4.3.3.5.7.7 1.2.2.6.5 1.1.8 1.5.3.4.7.8 1.2 1 .5.3 1.2.4 2 .4 1.2 0 2.1-.3 2.8-.8.7-.5 1.1-1.2 1.1-2 0-.6-.2-1.2-.6-1.6-.4-.4-.9-.7-1.5-.9-.6-.2-1.4-.4-2.5-.7-1.4-.3-2.6-.7-3.5-1.1-.9-.4-1.7-1-2.2-1.8-.5-.7-.8-1.7-.8-2.8 0-1.1.3-2 .9-2.8.6-.8 1.4-1.5 2.5-1.9 1.1-.4 2.4-.7 3.9-.7 1.2 0 2.2.1 3.1.4.9.3 1.6.7 2.2 1.2.6.5 1 1 1.3 1.5.3.5.4 1.1.4 1.6s-.2.9-.5 1.3-.7.6-1.2.6c-.4 0-.8-.1-1-.3-.2-.2-.5-.6-.8-1.1-.4-.7-.8-1.3-1.3-1.7-.5-.4-1.3-.6-2.4-.6-1 0-1.8.2-2.4.7-.6.4-.9 1-.9 1.6 0 .4.1.7.3 1 .2.3.5.5.9.7.4.2.7.4 1.1.5.4.1 1 .3 1.9.5 1.1.3 2.1.5 3 .8.9.3 1.6.7 2.3 1.1.6.4 1.1 1 1.4 1.7.3.7.5 1.5.5 2.5-.3 1-.6 2-1.2 3zm22.7.7c0 .7-.2 1.3-.5 1.7-.3.4-.8.6-1.3.6s-.8-.2-1.1-.6c-.3-.4-.4-.9-.4-1.7V30.5l-3.3 12.3c-.2.8-.4 1.4-.6 1.8-.1.4-.4.7-.7 1-.3.3-.8.5-1.4.5-.5 0-.9-.1-1.2-.3-.3-.2-.6-.5-.7-.8-.2-.3-.3-.6-.4-1-.1-.4-.1-.8-.2-1.2l-3-12.3v13.3c0 .7-.2 1.3-.6 1.7-.3.4-.8.6-1.3.6s-.8-.2-1.1-.5c-.3-.4-.3-.9-.3-1.7V28.6c0-.8 0-1.5.4-1.8.4-.3.8-.5 1.6-.5h1.2c.7 0 1.3.1 1.6.3.3.1.6.4.7.7.2.3.3.9.5 1.7l2.8 10.6L62.9 29c.2-.8.4-1.3.5-1.7.2-.4.4-.6.7-.8.3-.1.8-.3 1.6-.3H67c.7 0 1.4.2 1.8.5.4.3.7.9.7 1.8v15.3zm17.7-.7c-.6.9-1.5 1.7-2.6 2.2-1.2.5-2.5.8-4.1.8-1.9 0-3.5-.4-4.7-1.1-.9-.5-1.6-1.2-2.1-2.1-.5-.9-.8-1.7-.8-2.5 0-.5.2-.9.5-1.2.3-.3.7-.5 1.3-.5.4 0 .8.1 1.1.4.3.3.5.7.7 1.2.2.6.5 1.1.8 1.5.3.4.7.8 1.2 1 .5.3 1.2.4 2 .4 1.2 0 2.1-.3 2.8-.8.7-.5 1.1-1.2 1.1-2 0-.6-.2-1.2-.6-1.6-.4-.4-.9-.7-1.5-.9-.6-.2-1.4-.4-2.5-.7-1.4-.3-2.5-.7-3.5-1.1-.9-.4-1.7-1-2.2-1.8-.6-.7-.8-1.7-.8-2.8 0-1.1.3-2 .9-2.8.6-.8 1.4-1.5 2.5-1.9 1.1-.4 2.4-.7 3.9-.7 1.2 0 2.2.1 3.1.4.9.3 1.6.7 2.2 1.2.6.5 1 1 1.2 1.5.3.5.4 1.1.4 1.6s-.2.9-.5 1.3-.7.6-1.2.6c-.4 0-.8-.1-1-.3-.2-.2-.5-.6-.7-1.1-.4-.7-.8-1.3-1.3-1.7-.5-.4-1.3-.6-2.4-.6-1 0-1.8.2-2.4.7-.6.4-.9 1-.9 1.6 0 .4.1.7.3 1 .2.3.5.5.9.7.4.2.7.4 1.1.5.4.1 1 .3 1.9.5 1.1.3 2.1.5 3 .8.9.3 1.6.7 2.2 1.1.6.4 1.1 1 1.4 1.7.3.7.5 1.5.5 2.5-.3 1-.6 2-1.2 3z"/></svg>