<svg width="120" height="80" xmlns="http://www.w3.org/2000/svg"><defs><linearGradient x1="27.778%" y1="0%" x2="71.541%" y2="98.467%" id="a"><stop stop-color="#518ED2" offset="0%"/><stop stop-color="#25409C" offset="100%"/></linearGradient></defs><g fill="none" fill-rule="evenodd"><rect fill="url(#a)" width="120" height="80" rx="4"/><ellipse fill="#EE555C" cx="42.904" cy="40" rx="25.074" ry="24.875"/><ellipse fill="#F3C153" cx="77.096" cy="40" rx="25.074" ry="24.875"/><path d="M60 57.87c4.92-4.522 7.978-10.857 7.978-17.87 0-7.013-3.058-13.348-7.978-17.87-4.92 4.522-7.978 10.857-7.978 17.87 0 7.013 3.058 13.348 7.978 17.87z" fill="#EB8752"/><path d="M83.708 47.19l1.738-9.312h2.197l.229.918c.393-.46 1.148-.918 2.426-.918l-.688 2.427c-.623 0-1.803-.164-2.557 2.622l-.787 4.263h-2.558M50.036 35.512h2.532l-.519 2.467h1.363l-.454 2.012h-1.299l-.714 3.765c-.13.715-.064 1.364 1.397 1.137l-.163 1.882c-.552.357-1.298.455-1.883.455-.584 0-2.5-.357-2.012-2.889l1.752-8.829m10.972 7.531c.292-1.494.974-5.194-3.473-5.194-4.09 0-4.61 4.058-4.707 4.642-.097.584-.162 4.707 4.22 4.707 1.071.032 2.63-.098 3.247-.423l.39-1.914c-.39.097-1.852.226-2.859.226-1.005 0-2.628.066-2.336-2.044h5.518zm-5.356-1.688h3.149c.162-.91-.13-1.688-1.136-1.688-1.007 0-1.72.52-2.013 1.688 0 0 .292-1.169 0 0zm-8.018-1.299l.584-1.883c-1.201-.454-2.142-.357-2.5-.357-.356 0-3.396-.037-3.862 2.208-.357 1.72.273 2.432.877 2.694.973.422 1.526.812 2.045 1.071.642.322.524 1.396-.325 1.396-.39 0-2.078.195-3.343-.227l-.357 1.915c1.169.325 2.11.325 2.986.325.616 0 3.636.162 4.057-2.63.206-1.361-.39-1.98-.876-2.272a14.256 14.256 0 0 0-1.818-1.006c-.519-.228-.91-1.104.033-1.363.583-.066 1.785-.066 2.5.13 0 0-.715-.196 0 0m-16.426 7.141l2.11-11.232h-4.155l-3.084 6.817-.487-6.817h-4.058l-2.174 11.232h2.531l1.558-8.116.682 8.116h2.402l3.539-7.92-1.493 7.92h2.629M34 38.141l-.39 2.013c.618-.065 2.273-.325 3.15-.293.876.033 1.85-.097 1.558 1.298-.65.066-5.194-.649-5.908 3.247-.292 1.915 1.363 2.89 2.661 2.824 1.3-.065 1.656-.228 2.11-.552l.326.52h2.369l1.007-5.064c.26-1.266.68-4.318-3.572-4.318-.778.033-1.655 0-3.31.325 0 0 1.655-.325 0 0zm1.72 5.129c-.811.552-1.038 1.525-.194 1.85.813.313 2.012-.226 2.175-1.071l.195-1.006c-.422-.065-1.363-.325-2.175.227zm39.311-4.707c-.65-.39-1.103-.454-1.948-.454-.843 0-2.726.806-3.083 3.083-.422 2.694 1.428 4.025 4.025 3.149l.746 2.272c-.843.39-1.688.585-3.083.585-2.63 0-5.486-2.337-4.188-7.077.957-3.493 3.961-4.771 5.713-4.707 2.078.077 2.825.779 3.474 1.493l-1.656 1.656m21.587.389c-.487-.357-.779-1.103-1.98-1.103-1.396 0-3.571-.26-4.804 3.96-.824 2.82.843 5.389 2.661 5.389.845-.033 1.688-.39 2.207-.747l.326.747h2.726l2.207-11.816H97.3l-.682 3.57zm-.909 3.798c.26-.843.118-1.897-.162-2.271-.78-1.039-2.57-.218-3.117 1.817-.356 1.33.423 2.337 1.3 2.337.94 0 1.524-.747 1.98-1.883zm-18.86-4.609l-.39 2.013c.618-.065 2.273-.325 3.15-.293.876.033 1.85-.097 1.557 1.298-.649.066-5.194-.649-5.907 3.247-.293 1.915 1.363 2.89 2.661 2.824 1.299-.065 1.655-.228 2.11-.552l.325.52h2.37l1.006-5.064c.26-1.266.681-4.318-3.571-4.318-.779.033-1.655 0-3.311.325 0 0 1.656-.325 0 0zm3.896 4.902c-.422-.065-1.364-.325-2.176.227-.811.552-1.038 1.525-.194 1.85.813.313 2.011-.226 2.175-1.071l.195-1.006zm-19.664 4.155l1.72-9.219h2.176l.226.909c.39-.455 1.137-.909 2.402-.909l-.65 2.434c-.615 0-1.817-.194-2.563 2.565l-.78 4.22h-2.53" fill-opacity=".2" fill="#000"/><path d="M83.708 46.19l1.738-9.312h2.197l.229.918c.393-.46 1.148-.918 2.426-.918l-.688 2.427c-.623 0-1.803-.164-2.557 2.622l-.787 4.263h-2.558M50.036 34.512h2.532l-.519 2.467h1.363l-.454 2.012h-1.299l-.714 3.765c-.13.715-.064 1.364 1.397 1.137l-.163 1.882c-.552.357-1.298.455-1.883.455-.584 0-2.5-.357-2.012-2.889l1.752-8.829m10.972 7.531c.292-1.494.974-5.194-3.473-5.194-4.09 0-4.61 4.058-4.707 4.642-.097.584-.162 4.707 4.22 4.707 1.071.032 2.63-.098 3.247-.423l.39-1.914c-.39.097-1.852.226-2.859.226-1.005 0-2.628.066-2.336-2.044h5.518zm-5.356-1.688h3.149c.162-.91-.13-1.688-1.136-1.688-1.007 0-1.72.52-2.013 1.688 0 0 .292-1.169 0 0zm-8.018-1.299l.584-1.883c-1.201-.454-2.142-.357-2.5-.357-.356 0-3.396-.037-3.862 2.208-.357 1.72.273 2.432.877 2.694.973.422 1.526.812 2.045 1.071.642.322.524 1.396-.325 1.396-.39 0-2.078.195-3.343-.227l-.357 1.915c1.169.325 2.11.325 2.986.325.616 0 3.636.162 4.057-2.63.206-1.361-.39-1.98-.876-2.272a14.256 14.256 0 0 0-1.818-1.006c-.519-.228-.91-1.104.033-1.363.583-.066 1.785-.066 2.5.13 0 0-.715-.196 0 0m-16.426 7.141l2.11-11.232h-4.155l-3.084 6.817-.487-6.817h-4.058l-2.174 11.232h2.531l1.558-8.116.682 8.116h2.402l3.539-7.92-1.493 7.92h2.629M34 37.141l-.39 2.013c.618-.065 2.273-.325 3.15-.293.876.033 1.85-.097 1.558 1.298-.65.066-5.194-.649-5.908 3.247-.292 1.915 1.363 2.89 2.661 2.824 1.3-.065 1.656-.228 2.11-.552l.326.52h2.369l1.007-5.064c.26-1.266.68-4.318-3.572-4.318-.778.033-1.655 0-3.31.325 0 0 1.655-.325 0 0zm1.72 5.129c-.811.552-1.038 1.525-.194 1.85.813.313 2.012-.226 2.175-1.071l.195-1.006c-.422-.065-1.363-.325-2.175.227zm39.311-4.707c-.65-.39-1.103-.454-1.948-.454-.843 0-2.726.806-3.083 3.083-.422 2.694 1.428 4.025 4.025 3.149l.746 2.272c-.843.39-1.688.585-3.083.585-2.63 0-5.486-2.337-4.188-7.077.957-3.493 3.961-4.771 5.713-4.707 2.078.077 2.825.779 3.474 1.493l-1.656 1.656m21.587.389c-.487-.357-.779-1.103-1.98-1.103-1.396 0-3.571-.26-4.804 3.96-.824 2.82.843 5.389 2.661 5.389.845-.033 1.688-.39 2.207-.747l.326.747h2.726l2.207-11.816H97.3l-.682 3.57zm-.909 3.798c.26-.843.118-1.897-.162-2.271-.78-1.039-2.57-.218-3.117 1.817-.356 1.33.423 2.337 1.3 2.337.94 0 1.524-.747 1.98-1.883zm-18.86-4.609l-.39 2.013c.618-.065 2.273-.325 3.15-.293.876.033 1.85-.097 1.557 1.298-.649.066-5.194-.649-5.907 3.247-.293 1.915 1.363 2.89 2.661 2.824 1.299-.065 1.655-.228 2.11-.552l.325.52h2.37l1.006-5.064c.26-1.266.681-4.318-3.571-4.318-.779.033-1.655 0-3.311.325 0 0 1.656-.325 0 0zm3.896 4.902c-.422-.065-1.364-.325-2.176.227-.811.552-1.038 1.525-.194 1.85.813.313 2.011-.226 2.175-1.071l.195-1.006zm-19.664 4.155l1.72-9.219h2.176l.226.909c.39-.455 1.137-.909 2.402-.909l-.65 2.434c-.615 0-1.817-.194-2.563 2.565l-.78 4.22h-2.53" fill="#FFF"/></g></svg>