<svg xmlns="http://www.w3.org/2000/svg" viewBox="0 0 120 80"><path d="M117 80H3c-1.6 0-3-1.3-3-3V3c0-1.6 1.4-3 3-3h114c1.7 0 3 1.4 3 3v74c0 1.7-1.3 3-3 3z"/><path fill="none" d="M16.5 4h87.8v72H16.5z"/><path d="M38.2 67v-3.6c.1-1.2-.8-2.2-2-2.3h-.3c-.8-.1-1.6.3-2 1-.4-.7-1.1-1.1-1.9-1-.7 0-1.3.3-1.7.8v-.7h-1.2V67h1.3v-3.1c-.1-.7.4-1.4 1.1-1.5h.3c.8 0 1.2.5 1.2 1.5V67h1.3v-3.2c-.1-.7.4-1.4 1.2-1.5h.2c.8 0 1.3.5 1.3 1.5V67h1.2zm18.6-5.8h-2v-1.7h-1.3v1.7h-1.1v1.1h1.2V65c0 1.3.5 2.1 2 2.1.5 0 1.1-.2 1.6-.4l-.4-1.1c-.3.2-.7.3-1.1.3-.6 0-.8-.4-.8-1v-2.6h2l-.1-1.1zm10.6-.1c-.6 0-1.2.3-1.5.8v-.7h-1.2V67h1.2v-3.2c0-.9.4-1.5 1.2-1.5.3 0 .5 0 .8.1l.4-1.2c-.3-.1-.6-.1-.9-.1zm-16 .6c-.7-.4-1.5-.6-2.3-.6-1.4 0-2.4.7-2.4 1.8 0 .9.7 1.5 2 1.7l.6.1c.7.1 1 .3 1 .6 0 .4-.5.7-1.3.7-.7 0-1.4-.2-1.9-.6l-.6 1c.7.5 1.6.8 2.5.7 1.7 0 2.6-.8 2.6-1.9s-.8-1.5-2-1.7l-.6-.1c-.5-.1-1-.2-1-.6 0-.4.4-.7 1.1-.7.6 0 1.2.2 1.8.5l.5-.9zm33.3-.6c-.6 0-1.2.3-1.5.8v-.7H82V67h1.2v-3.2c0-.9.4-1.5 1.2-1.5.3 0 .5 0 .8.1l.4-1.2c-.3-.1-.6-.1-.9-.1zm-16 3c-.1 1.6 1.2 2.9 2.8 3h.3c.7 0 1.5-.2 2.1-.7l-.6-1c-.4.3-1 .5-1.5.5-1-.1-1.8-1-1.7-2 .1-.9.8-1.6 1.7-1.7.5 0 1.1.2 1.5.5l.6-1c-.6-.5-1.3-.7-2.1-.7-1.6-.1-3 1.1-3 2.7-.1.2-.1.3-.1.4zm11.6 0v-2.8h-1.2v.7c-.4-.6-1.1-.9-1.8-.8-1.7 0-3 1.3-3 3s1.3 3 3 3c.7 0 1.4-.3 1.8-.8v.7h1.2v-3zm-4.6 0c.1-1 .9-1.7 1.8-1.6 1 .1 1.7.9 1.6 1.8-.1.9-.8 1.6-1.7 1.6-.9 0-1.7-.7-1.7-1.7v-.1zm-15-3c-1.7 0-3 1.4-2.9 3 0 1.7 1.4 3 3 2.9.9 0 1.7-.2 2.4-.8l-.6-.9c-.5.4-1.1.6-1.7.6-.9.1-1.6-.5-1.7-1.4h4.2V64c0-1.7-1.1-2.9-2.7-2.9zm0 1.1c.8 0 1.4.6 1.4 1.4h-3c.1-.8.8-1.4 1.6-1.4zm31.2 1.9v-5.2h-1.2v3c-.4-.6-1.1-.9-1.8-.8-1.7 0-3 1.3-3 3s1.3 3 3 3c.7 0 1.4-.3 1.8-.8v.7h1.2v-2.9zm2 2h.2c.1 0 .1.1.2.1.1.1.1.1.1.2.1.1.1.3 0 .4 0 .1-.1.1-.1.2-.1.1-.1.1-.2.1h-.2c-.2 0-.4-.1-.5-.3-.1-.1-.1-.3 0-.4 0-.1.1-.1.1-.2.1-.1.1-.1.2-.1h.2zm0 1h.2c.1 0 .1-.1.1-.1.2-.2.2-.4 0-.6l-.1-.1h-.4c-.1 0-.1.1-.1.1-.2.2-.2.4 0 .6l.1.1h.2zm.1-.7h.2l.1.1v.1l-.1.1.2.2h-.1l-.2-.2H94v.3h-.1v-.5l.1-.1zm-.2.1v.1h.3v-.2H94l-.2.1zm-6.5-2.4c.1-1 .9-1.7 1.8-1.6s1.7.9 1.6 1.8c-.1.9-.8 1.6-1.7 1.6-.9 0-1.7-.7-1.7-1.7v-.1zm-42.1 0v-2.9H44v.7c-.4-.6-1.1-.9-1.8-.8-1.7 0-3 1.3-3 3s1.3 3 3 3c.7 0 1.4-.3 1.8-.8v.7h1.2v-2.9zm-4.6 0c.1-1 .9-1.7 1.8-1.6 1 .1 1.7.9 1.6 1.8-.1.9-.8 1.6-1.7 1.6-.9 0-1.7-.7-1.8-1.7.1 0 .1-.1.1-.1z" fill="#fff"/><path fill="#ff5f00" d="M51 17.7h18.8v33.9H51z"/><path d="M52.2 34.6c0-6.6 3-12.9 8.2-16.9-9.4-7.3-22.9-5.7-30.2 3.6s-5.7 22.9 3.6 30.2c7.8 6.1 18.8 6.1 26.6 0-5.2-4.1-8.2-10.3-8.2-16.9z" fill="#eb001b"/><path d="M95.2 34.6c0 11.9-9.6 21.5-21.5 21.5-4.8 0-9.5-1.6-13.3-4.6 9.4-7.3 11-20.9 3.6-30.2-1.1-1.3-2.3-2.6-3.6-3.6 9.4-7.4 22.9-5.7 30.2 3.6 3 3.8 4.6 8.5 4.6 13.3zm-2 13.3v-.7h.3v-.1h-.7v.1h.3v.7h.1zm1.4 0v-.8h-.2l-.3.6-.3-.6h-.2v.8h.2v-.6l.2.5h.2l.2-.5v.6h.2z" fill="#f79e1b"/></svg>