<svg width="120" height="80" xmlns="http://www.w3.org/2000/svg"><g fill="none" fill-rule="evenodd"><rect fill="#FFF" y="10" width="120" height="60" rx="4"/><path d="M0 4.01A4.002 4.002 0 0 1 3.995 0H116a4 4 0 0 1 4 4.01V10H0V4.01z" fill="#1A1F71"/><path d="M0 70h120v5.99c0 2.215-1.787 4.01-3.99 4.01H3.996A3.999 3.999 0 0 1 0 75.99V70z" fill="#F7B600"/><g fill="#1A1F71"><path d="M53.747 52.825h-7.033L51.11 27.15h7.033l-4.396 25.675M41.407 27.15l-6.39 17.66-.755-3.804-2.255-11.544s-.272-2.312-3.18-2.312h-10.56l-.124.434s3.23.67 7.01 2.936l5.822 22.305h6.982L48.62 27.15h-7.213m44.355 17.775l3.657-9.875 2.056 9.875h-5.714zm14.286 7.9L94.904 27.15h-7.07c-2.386 0-2.966 1.913-2.966 1.913l-9.582 23.762h6.696l1.34-3.813h8.168l.753 3.813h7.805zM76.282 33.56l.908-5.33s-2.805-1.08-5.73-1.08c-3.162 0-10.67 1.4-10.67 8.21 0 6.41 8.812 6.49 8.812 9.854 0 3.365-7.903 2.764-10.51.64l-.95 5.57s2.845 1.4 7.193 1.4c4.347 0 10.907-2.282 10.907-8.49 0-6.45-8.892-7.05-8.892-9.854 0-2.804 6.205-2.444 8.932-.92"/><path d="M33.38 40.975l-2.13-11.518s-.258-2.307-3.007-2.307H18.26l-.117.433s4.8 1.048 9.403 4.97c4.4 3.75 5.835 8.422 5.835 8.422"/></g></g></svg>