<svg width="120" height="80" xmlns="http://www.w3.org/2000/svg"><g fill="none" fill-rule="evenodd"><rect fill="#FCD202" width="120" height="80" rx="4"/><path d="M93.225 37.913l.986-4.63H13.82l-.986 4.63h80.39" fill="#FFF"/><path d="M102.908 26.97s1.078-4.905 1.093-4.95h-6.85c0 .03-1.415 6.51-1.415 6.54h1.755c.015 0 1.077-4.89 1.077-4.89h3.325s-1.047 4.905-1.077 4.936h5.064l-.663 3.026h-5.034c0 .03-1.016 4.615-1.016 4.615h-3.802c0 .015-.34 1.65-.354 1.666h5.604c0-.015 1-4.63 1-4.63h5.035c0-.016 1.323-6.282 1.323-6.312h-5.065" fill="#ED1C24"/><path d="M90.512 28.423c.724 0 1.216.49 1.216 1.3 0 .136-.015.258-.03.396h-3.125c.323-1.025 1.015-1.697 1.94-1.697zm1.555 6.082l.4-1.818c-.677.228-1.34.412-2.185.412-.986 0-1.848-.337-1.894-1.514h5.08c.185-.597.292-1.192.292-1.742 0-1.68-.985-3.057-3.094-3.057-2.74 0-4.403 2.232-4.403 4.692 0 2.108 1.417 3.346 3.618 3.346.894 0 1.602-.138 2.187-.32zm-8.36-1.544c-1 0-1.677-.426-1.677-1.664 0-1.452.924-2.66 2.387-2.66.46 0 .985.138 1.508.337l.37-1.742a6.165 6.165 0 0 0-2.017-.366c-2.417 0-4.48 1.788-4.48 4.54 0 2.26 1.4 3.33 3.417 3.33.678 0 1.247-.122 1.663-.29l.4-1.788c-.46.168-.97.305-1.57.305zm-10.636 1.637l.848-3.867c.338-1.56 1.108-2.094 1.91-2.094 1.03 0 1.153.765.953 1.636l-.923 4.325h2.202l.968-4.432c.477-2.216-.554-3.378-2.17-3.378-.893 0-1.755.35-2.494 1.13l.2-.9h-2.047l-1.648 7.58h2.2zm-7.91-2.186c0-.762.676-1.19 1.8-1.19.215 0 .692.015 1.123.076l-.092.428c-.26.9-1 1.513-1.877 1.513-.63 0-.954-.306-.954-.826zm2.123-5.577c-1.016 0-2.048.23-2.386.336l-.37 1.757c.492-.137 1.462-.398 2.325-.398 1.154 0 1.57.35 1.57.947 0 .107 0 .23-.03.35l-.032.154c-.554-.06-1.077-.105-1.324-.105-2.185 0-3.94.84-3.94 2.827 0 1.3 1.016 2.078 2.34 2.078.94 0 1.74-.367 2.262-.978l-.17.795h1.956l.955-4.34c.075-.322.106-.658.106-.978 0-1.3-.723-2.447-3.263-2.447zm-10.668 7.764l.846-3.867c.34-1.56 1.11-2.094 1.91-2.094 1.032 0 1.155.765.955 1.636l-.924 4.325h2.203l.97-4.432c.476-2.216-.555-3.378-2.17-3.378-.895 0-1.757.35-2.495 1.13l.2-.9H56.06l-1.647 7.58h2.202zm-3.94-9.674a1.117 1.117 0 0 0 1.138 1.222c.754 0 1.293-.535 1.34-1.222a1.121 1.121 0 0 0-1.14-1.223c-.754 0-1.293.535-1.34 1.223zm-.31 2.094l-1.646 7.58h2.185l1.647-7.58h-2.186zm-6.22 7.58l.863-3.96h3.326l.4-1.94h-3.31l.51-2.43h3.493l.43-1.94h-5.77L43.9 34.599h2.246zm-2.17-5.915l.355-1.665h-2.355l.462-2.11-2.294.505-1.432 6.48c-.4 1.834.617 2.842 2.464 2.842.386 0 1.03-.076 1.494-.23l.37-1.665c-.37.09-.833.183-1.232.183-.632 0-1.078-.214-.924-.98l.724-3.36h2.37zm-8.343 3.683c0 .612-.754.72-1.385.72-.8 0-1.693-.215-2.17-.368l-.37 1.71c.693.17 1.57.307 2.402.307 1.97 0 3.57-.733 3.57-2.567 0-2.37-2.863-1.956-2.863-3.01 0-.475.462-.643 1.185-.643.692 0 1.663.276 1.986.367l.37-1.726a8.442 8.442 0 0 0-2.156-.29c-2.14 0-3.432.948-3.432 2.522 0 2.307 2.862 1.925 2.862 2.98zm-8.28 2.46c2.416 0 4.047-1.74 4.417-4.018.384-2.278-.894-4.02-3.31-4.02-2.418 0-4.05 1.742-4.42 4.02-.384 2.277.894 4.02 3.31 4.02zm.2-1.756c-.88 0-1.57-.69-1.248-2.263.323-1.574 1.093-2.262 1.97-2.262.878 0 1.57.703 1.232 2.262-.324 1.558-1.078 2.262-1.955 2.262zm-9.284-1.607h.97c3.095 0 4.82-1.512 4.82-4.034 0-1.88-1.34-3.104-3.635-3.104H17.56l-2.186 10.27h2.217l.678-3.133zm.385-1.88l.724-3.377h.923c1.016 0 1.51.413 1.51 1.376 0 1.238-.786 2.002-2.233 2.002h-.924z" fill="#231F20"/><path d="M54.25 48.144h-4.754l-.402 1.884h4.364l-.335 1.54H48.76l-.49 2.28h4.975l-.342 1.596h-6.808l1.908-8.87h6.59l-.343 1.57zm.366 3.05h3.5l-.355 1.626h-3.497l.353-1.625zm5.81-4.61h6.368l-.335 1.56h-4.505l-.44 2.04h3.944l-.33 1.54h-3.943l-.8 3.72h-1.864l1.902-8.86zm8.946 1.518h-1.76l.34-1.583h1.76l-.34 1.582zm-1.932.782h1.76l-1.406 6.56h-1.762l1.408-6.56zm9.008 2.143l-.95 4.417h-1.78l.853-3.99c.078-.345.09-.61.032-.794-.098-.337-.386-.506-.866-.506-.59 0-1.046.247-1.37.74-.172.26-.3.594-.385 1l-.76 3.55H69.49l1.408-6.548h1.676l-.207.957c.296-.337.56-.58.792-.728.415-.265.896-.397 1.445-.397.686 0 1.21.177 1.57.532.36.356.45.944.276 1.767zm4.998 1.228a2.261 2.261 0 0 1-.365.165c-.12.042-.284.08-.487.117l-.402.073c-.38.064-.662.142-.84.234-.3.157-.486.4-.555.73-.065.29-.03.503.107.633.136.13.322.196.557.196.373 0 .74-.108 1.103-.325.36-.217.61-.612.75-1.186l.133-.637zm-.883-.8c.333-.04.575-.09.725-.15.268-.106.427-.268.475-.49.057-.268.002-.453-.164-.556-.168-.103-.434-.154-.8-.154-.41 0-.723.1-.938.3-.15.15-.275.35-.372.603h-1.676c.162-.575.426-1.046.792-1.416.585-.577 1.436-.866 2.554-.866.727 0 1.343.142 1.847.427.504.285.67.823.5 1.613l-.653 3.01c-.044.208-.093.46-.146.757-.037.225-.036.378.003.458.04.08.11.146.21.198l-.047.254h-1.89a1.756 1.756 0 0 1-.03-.373c.004-.115.016-.248.036-.396-.297.257-.62.475-.97.656-.422.213-.87.32-1.34.32-.602 0-1.062-.17-1.38-.51-.32-.34-.413-.82-.28-1.44.176-.808.617-1.39 1.324-1.752.386-.197.924-.337 1.615-.422l.603-.072zm10.453-.428l-.95 4.417h-1.78l.852-3.99c.077-.345.088-.61.03-.794-.097-.337-.385-.506-.865-.506-.59 0-1.046.247-1.37.74-.172.26-.3.594-.385 1l-.762 3.55h-1.73l1.407-6.548h1.676l-.208.957c.296-.337.56-.58.792-.728.415-.265.896-.397 1.445-.397.685 0 1.21.177 1.568.532.36.356.452.944.278 1.767zm5.522.21a1.28 1.28 0 0 0-.11-.662c-.138-.264-.413-.397-.823-.397-.585 0-1.046.287-1.384.86-.177.306-.322.71-.43 1.217-.103.48-.13.868-.08 1.16.09.547.42.82.993.82.406 0 .718-.11.936-.325.216-.217.38-.498.49-.843h1.773c-.15.522-.447 1.015-.89 1.48-.707.75-1.595 1.126-2.664 1.126-1.07 0-1.787-.313-2.155-.94-.368-.625-.444-1.437-.23-2.436.24-1.128.707-2.004 1.4-2.63.693-.626 1.53-.94 2.508-.94.833 0 1.475.185 1.926.554.45.37.623 1.023.517 1.957h-1.78zm4.187.27h2.7c.07-.452.003-.796-.198-1.03-.2-.236-.487-.353-.857-.353-.402 0-.74.124-1.014.373-.275.25-.485.586-.63 1.01zm4.266-1.52c.18.388.25.84.215 1.353-.017.3-.09.734-.22 1.3h-4.547c-.117.658-.008 1.12.33 1.384.203.164.473.247.81.247.358 0 .67-.1.94-.3.14-.11.28-.26.42-.452h1.773c-.13.39-.42.785-.87 1.186-.708.638-1.573.957-2.597.957-.845 0-1.533-.268-2.063-.806-.53-.537-.666-1.412-.406-2.624.244-1.135.723-2.006 1.436-2.61a3.691 3.691 0 0 1 2.465-.91c.553 0 1.03.102 1.43.307.4.204.695.527.886.97z" fill="#000"/></g></svg>