<svg xmlns="http://www.w3.org/2000/svg" viewBox="0 0 520 260">
  <path fill="#BCBEC0" d="M410.5 196.9h-9v4h5v8.9h4v-12.9zm-18 0h-9v4h9v-4zm-18 0h-9v4h9v-4zm-18 0h-9v4h9v-4zm-18 0h-9v4h9v-4zm-18 0h-9v4h9v-4zm-18 0h-9v4h9v-4zm-18 0h-9v4h9v-4zm-18 0h-9v4h9v-4zm-18 0h-9v4h9v-4zm-18 0h-9v4h9v-4zm-18 0h-9v4h9v-4zm-18 0h-9v4h9v-4zm-18 0h-9v4h9v-4zm-18 0h-9v4h9v-4zm-18 0h-9v4h9v-4zm-18 0h-9v4h9v-4zm-18 0h-9v4h9v-4zm-14.5 0h-4v8.5h4v-8.5zm0 17.5h-4v9h4v-9zm0 18h-4v9h4v-9zm0 18h-4v6.4h4v-6.4zm16.6 2.4h-9v4h9v-4zm18 0h-9v4h9v-4zm18 0h-9v4h9v-4zm18 0h-9v4h9v-4zm18 0h-9v4h9v-4zm18 0h-9v4h9v-4zm18 0h-9v4h9v-4zm18 0h-9v4h9v-4zm18 0h-9v4h9v-4zm18 0h-9v4h9v-4zm18 0h-9v4h9v-4zm18 0h-9v4h9v-4zm18 0h-9v4h9v-4zm18 0h-9v4h9v-4zm18 0h-9v4h9v-4zm18 0h-9v4h9v-4zm18 0h-9v4h9v-4zm15.9 0h-6.9v4h6.9v-4zm0-16h-4v9h4v-9zm0-18h-4v9h4v-9z"/>
  <path fill="#BFBFBF" d="M86 132.4h324.5v59.9H86v-59.9z"/>
  <path fill="#FFF" d="M89.7 136.2h52.9v52.9H89.7v-52.9z"/>
  <path fill="#BFBFBF" d="M94 185.8v-12.2l10.8-8.9 14.5 10.3 10.3-4.7 8.9 6.6v8.9H94"/>
  <circle cx="127.2" cy="150.2" r="7" fill="#BFBFBF"/>
  <path fill="#BFBFBF" d="M86 68h324.5v59.9H86V68z"/>
  <path fill="#FFF" d="M89.7 71.7h52.9v52.9H89.7V71.7z"/>
  <path fill="#BFBFBF" d="M94 120.9v-12.2l10.8-8.4 14.5 10.3 10.3-4.7 8.9 6.6v8.4H94"/>
  <circle cx="127.2" cy="85.8" r="7" fill="#BFBFBF"/>
  <path fill="#BFBFBF" d="M86 3.5h324.5v59.9H86V3.5z"/>
  <path fill="#FFF" d="M89.7 7.2h52.9v52.9H89.7V7.2z"/>
  <path fill="#BFBFBF" d="M94 56.9V44.7l10.8-8.9 14.5 10.3 10.3-4.7 8.9 6.6v8.9H94"/>
  <circle cx="127.2" cy="21.3" r="7" fill="#BFBFBF"/>
  <path fill="#FFF" d="M412.7 25.5c57.7 0 104.5 46.8 104.5 104.5s-48.3 104.5-106.1 104.5c-57.7 0-102.9-46.8-102.9-104.5S355 25.5 412.7 25.5z"/>
  <path fill="#FFF" d="M463.2 102.3l-27 5c47.3 91.6-40.1 93.2-56.2 73.3 7.7 5.4 70.9 21.9 30.4-62l-21.5 16.3s1.7-9.1 4-22.2c2.4-13 5.4-30 8.2-45.7 26.2 14 62.1 35.3 62.1 35.3z"/>
  <path fill="#3F9FD7" d="M412.7 36.8c51.5 0 93.2 41.7 93.2 93.2s-43.1 93.2-94.6 93.2c-51.5 0-91.8-41.7-91.8-93.2s41.7-93.2 93.2-93.2zm23.5 70.5l27-5-62.1-35.1-12.2 67.8 21.5-16.3c40.5 83.9-22.7 67.4-30.4 62 16 19.8 103.4 18.3 56.2-73.4z"/>
</svg>
