<?xml version="1.0" encoding="utf-8"?>
<!-- Generator: Adobe Illustrator 23.0.0, SVG Export Plug-In . SVG Version: 6.00 Build 0)  -->
<svg version="1.1" id="Layer_1" xmlns="http://www.w3.org/2000/svg" xmlns:xlink="http://www.w3.org/1999/xlink" x="0px" y="0px"
	 viewBox="0 0 725 407.8" style="enable-background:new 0 0 725 407.8;" xml:space="preserve">
<style type="text/css">
	.st0{fill-rule:evenodd;clip-rule:evenodd;fill:#616B77;}
	.st1{fill-rule:evenodd;clip-rule:evenodd;fill:#FFFFFF;}
	.st2{fill:#FFFFFF;}
</style>
<g>
	<g transform="translate(44.000000, 0.000000)">
		<path id="Combined-Shape" class="st0" d="M665.5,203.5c0,67.3-52.4,121.8-117,121.8s-117-54.6-117-121.8S484,81.7,548.5,81.7
			S665.5,136.2,665.5,203.5z"/>
		<path class="st1" d="M519.1,230.5l8.2,8.2l-20,20l0,0c-2.3,2.3-6,2.3-8.3,0l0,0c-2.3-2.3-2.3-6,0-8.3l0,0L519.1,230.5z
			 M566.9,139.1c3-3,8-3,11,0l0,0l40.7,40.7c3,3,3,8,0,11l0,0l-0.4,0.3c-2.9,2.9-7.5,2.9-10.3,0l0,0l-35.1,35.1l-0.4,13.6
			c-0.2,5-2.2,9.8-5.8,13.3c-3,3.1-8,3.1-11,0l0,0l-18.6-18.6h0l-13.8-13.8h0l-18.6-18.6c-3-3.1-3-8,0-11c3.5-3.5,8.3-5.6,13.3-5.8
			l0,0l13.6-0.4l35.1-35.1c-2.9-2.9-2.9-7.5,0-10.3l0,0L566.9,139.1z"/>
	</g>
	<circle id="Oval-Copy" class="st1" cx="387.9" cy="198.6" r="117"/>
	<g transform="translate(21.000000, 0.000000)">
		<path class="st0" d="M464.3,198.6c0,64.6-52.4,117-117,117c-64.6,0-117-52.4-117-117s52.3-117,117-117
			C412,81.7,464.3,134,464.3,198.6z"/>
		<g id="format-color-fill" transform="translate(8.000000, 8.000000)">
			<path id="Shape" class="st2" d="M400.9,205c0,0-16.4,17.4-16.4,28.1c0,8.9,7.3,16.1,16.4,16.1c9.1,0,16.4-7.2,16.4-16.1
				C417.3,222.4,400.9,205,400.9,205L400.9,205z M287.7,192.9l39.3-38.4l39.3,38.4H287.7z M380.9,184.4l-73.4-71.8L296,124
				l19.5,19.1l-42.3,41.3c-4.8,4.5-4.8,12.3,0,17l45.1,44.1c2.4,2.3,5.6,3.5,8.7,3.5c3.1,0,6.3-1.2,8.7-3.5l45.1-44.1
				C385.7,196.7,385.7,188.9,380.9,184.4z"/>
		</g>
	</g>
	<circle id="Oval" class="st1" cx="154" cy="198.6" r="117"/>
	<g transform="translate(-3.000000, 0.000000)">
		<path id="Path-Copy" class="st0" d="M137.5,81.7c-64.7,0-117,52.2-117,117s52.2,117,117,117s117-52.2,117-117
			S202.2,81.7,137.5,81.7z"/>
		<path class="st2" d="M184.2,193.2c14.6,24.4,7.6,55.5-15.7,69.5c-23.3,14-54.1,5.6-68.7-18.7l-14.3-23.8l13-7.8l14.3,23.8
			c10.2,17,31.3,22.7,47.6,13c16.2-9.8,21.1-31.1,10.9-48.1l-23.1-38.5l-7.5,33l-14.9-4.1l13.3-58.8l58.2,15.9l-3.4,15.1l-32.7-8.9
			L184.2,193.2L184.2,193.2z M82.1,185.2l8.2,13.6l-13,7.8L69.1,193L82.1,185.2z"/>
	</g>
</g>
</svg>
