<?xml version="1.0" encoding="utf-8"?>
<!-- Generator: Adobe Illustrator 23.0.0, SVG Export Plug-In . SVG Version: 6.00 Build 0)  -->
<svg version="1.1" id="Layer_1" xmlns="http://www.w3.org/2000/svg" xmlns:xlink="http://www.w3.org/1999/xlink" x="0px" y="0px"
	 viewBox="0 0 725 407.8" style="enable-background:new 0 0 725 407.8;" xml:space="preserve">
<style type="text/css">
	.st0{fill:#EAEAEA;}
	.st1{fill:#FFFFFF;}
	.st2{fill:#CCCCCC;}
	.st3{fill:#FFC31A;}
	.st4{fill:#FFDF69;}
	.st5{fill:#FFF4CD;}
	.st6{fill:#EAA803;}
	.st7{fill-rule:evenodd;clip-rule:evenodd;fill:#FFFFFF;}
	.st8{fill-rule:evenodd;clip-rule:evenodd;fill:#616B77;}
</style>
<g>
	<g>
		<path class="st0" d="M49.4,267.7h414.4c4.5,0,8.2,3.6,8.2,8.2v92.7c0,4.5-3.6,8.2-8.2,8.2H49.4c-4.5,0-8.2-3.6-8.2-8.2v-92.7
			C41.2,271.4,44.8,267.7,49.4,267.7z"/>
		<g>
			<path class="st1" d="M54.4,276.6h84.4c2.9,0,5.2,2.3,5.2,5.2v82.6c0,2.9-2.3,5.2-5.2,5.2H54.4c-2.9,0-5.2-2.3-5.2-5.2v-82.6
				C49.2,278.9,51.6,276.6,54.4,276.6z"/>
			<g id="Artboard_7_">
				<path id="Fill-1_7_" class="st2" d="M118.1,304.5l-30.8-8.2c-3.9-1.1-8,1.3-9.1,5.4L70,332.4c-1.1,3.9,1.3,8,5.2,9.1l8.9,2.3
					c-0.5-0.9-1.1-2-1.3-3.2c-0.4-1.4-0.5-3.2-0.5-5v-24c0-0.4,0.2-0.7,0.7-0.7l6.4-1.1c0,0,0,0,0.2,0s0.4,0,0.5,0.2
					c0.2,0.2,0.2,0.4,0.2,0.5v7.7h9.1c0.4,0,0.7,0.4,0.7,0.7v5.4c0,0.4-0.4,0.7-0.7,0.7h-9.1v10.6c0,2,0.4,3.6,0.9,4.3
					c0.5,0.7,1.6,1.1,3,1.1c1.1,0,2.1-0.2,2.9-0.4c0.9-0.2,1.6-0.5,2.1-0.7c0,0,0.2,0,0.4,0c0.2,0,0.2,0,0.4,0
					c0.2,0.2,0.4,0.4,0.4,0.5l1.1,5c0,0.4-0.2,0.7-0.4,0.9c-0.7,0.4-1.8,0.7-3,1.1l0,0l8.4,2.3c3.9,1.1,8-1.3,9.1-5.2l8.2-30.9
					C124.5,309.7,122,305.6,118.1,304.5"/>
			</g>
		</g>
		<g>
			<path class="st2" d="M436.5,295.9H162.8c-2.5,0-4.5-2-4.5-4.5s2-4.5,4.5-4.5h273.7c2.5,0,4.5,2,4.5,4.5S439,295.9,436.5,295.9z"
				/>
		</g>
		<g>
			<path class="st2" d="M299.6,317.9H162.8c-2.5,0-4.5-2-4.5-4.5s2-4.5,4.5-4.5h136.8c2.5,0,4.5,2,4.5,4.5S302.2,317.9,299.6,317.9z
				"/>
		</g>
		<g>
			<path class="st2" d="M210.7,359.3h-47.9c-2.5,0-4.5-2-4.5-4.5c0-2.5,2-4.5,4.5-4.5h47.9c2.5,0,4.5,2,4.5,4.5
				C215.2,357.3,213.3,359.3,210.7,359.3z"/>
		</g>
	</g>
	<g>
		<path class="st0" d="M49.4,149.6h414.4c4.5,0,8.2,3.6,8.2,8.2v92.7c0,4.5-3.6,8.2-8.2,8.2H49.4c-4.5,0-8.2-3.6-8.2-8.2v-92.7
			C41.2,153.4,44.8,149.6,49.4,149.6z"/>
		<g>
			<path class="st1" d="M54.4,158.6h84.4c2.9,0,5.2,2.3,5.2,5.2v82.6c0,2.9-2.3,5.2-5.2,5.2H54.4c-2.9,0-5.2-2.3-5.2-5.2v-82.6
				C49.2,160.9,51.6,158.6,54.4,158.6z"/>
			<g id="Artboard_6_">
				<path id="Fill-1_6_" class="st2" d="M118.1,186.5l-30.8-8.2c-3.9-1.1-8,1.3-9.1,5.4L70,214.4c-1.1,3.9,1.3,8,5.2,9.1l8.9,2.3
					c-0.5-0.9-1.1-2-1.3-3.2c-0.4-1.4-0.5-3.2-0.5-5v-24c0-0.4,0.2-0.7,0.7-0.7l6.4-1.1c0,0,0,0,0.2,0s0.4,0,0.5,0.2
					c0.2,0.2,0.2,0.4,0.2,0.5v7.7h9.1c0.4,0,0.7,0.4,0.7,0.7v5.4c0,0.4-0.4,0.7-0.7,0.7h-9.1v10.6c0,2,0.4,3.6,0.9,4.3
					c0.5,0.7,1.6,1.1,3,1.1c1.1,0,2.1-0.2,2.9-0.4c0.9-0.2,1.6-0.5,2.1-0.7c0,0,0.2,0,0.4,0c0.2,0,0.2,0,0.4,0
					c0.2,0.2,0.4,0.4,0.4,0.5l1.1,5c0,0.4-0.2,0.7-0.4,0.9c-0.7,0.4-1.8,0.7-3,1.1l0,0l8.4,2.3c3.9,1.1,8-1.3,9.1-5.2l8.2-30.9
					C124.5,191.6,122,187.5,118.1,186.5"/>
			</g>
		</g>
		<g>
			<path class="st2" d="M436.5,177.9H162.8c-2.5,0-4.5-2-4.5-4.5s2-4.5,4.5-4.5h273.7c2.5,0,4.5,2,4.5,4.5S439,177.9,436.5,177.9z"
				/>
		</g>
		<g>
			<path class="st2" d="M299.6,199.9H162.8c-2.5,0-4.5-2-4.5-4.5s2-4.5,4.5-4.5h136.8c2.5,0,4.5,2,4.5,4.5S302.2,199.9,299.6,199.9z
				"/>
		</g>
		<g>
			<path class="st2" d="M210.7,241.2h-47.9c-2.5,0-4.5-2-4.5-4.5s2-4.5,4.5-4.5h47.9c2.5,0,4.5,2,4.5,4.5S213.3,241.2,210.7,241.2z"
				/>
		</g>
	</g>
	<g>
		<path class="st3" d="M49.4,31.6h414.4c4.5,0,8.2,3.6,8.2,8.2v92.7c0,4.5-3.6,8.2-8.2,8.2H49.4c-4.5,0-8.2-3.6-8.2-8.2V39.8
			C41.2,35.3,44.8,31.6,49.4,31.6z"/>
		<g>
			<path class="st4" d="M54.4,40.5h84.4c2.9,0,5.2,2.3,5.2,5.2v82.6c0,2.9-2.3,5.2-5.2,5.2H54.4c-2.9,0-5.2-2.3-5.2-5.2V45.7
				C49.2,42.8,51.6,40.5,54.4,40.5z"/>
			<g id="Artboard_5_">
				<path id="Fill-1_5_" class="st5" d="M118.1,68.4l-30.8-8.2c-3.9-1.1-8,1.3-9.1,5.4l-8.4,30.8c-1.1,3.9,1.3,8,5.2,9.1l8.9,2.3
					c-0.5-0.9-1.1-2-1.3-3.2c-0.4-1.4-0.5-3.2-0.5-5v-24c0-0.4,0.2-0.7,0.7-0.7l6.4-1.1c0,0,0,0,0.2,0c0.2,0,0.4,0,0.5,0.2
					c0.2,0.2,0.2,0.4,0.2,0.5v7.7h9.1c0.4,0,0.7,0.4,0.7,0.7v5.4c0,0.4-0.4,0.7-0.7,0.7h-9.1v10.6c0,2,0.4,3.6,0.9,4.3
					s1.6,1.1,3,1.1c1.1,0,2.1-0.2,2.9-0.4c0.9-0.2,1.6-0.5,2.1-0.7c0,0,0.2,0,0.4,0s0.2,0,0.4,0c0.2,0.2,0.4,0.4,0.4,0.5l1.1,5
					c0,0.4-0.2,0.7-0.4,0.9c-0.7,0.4-1.8,0.7-3,1.1l0,0l8.4,2.3c3.9,1.1,8-1.3,9.1-5.2l8.2-30.9C124.5,73.6,122,69.5,118.1,68.4"/>
			</g>
		</g>
		<g>
			<path class="st6" d="M436.5,59.8H162.8c-2.5,0-4.5-2-4.5-4.5s2-4.5,4.5-4.5h273.7c2.5,0,4.5,2,4.5,4.5S439,59.8,436.5,59.8z"/>
		</g>
		<g>
			<path class="st6" d="M299.6,82H162.8c-2.5,0-4.5-2-4.5-4.5s2-4.5,4.5-4.5h136.8c2.5,0,4.5,2,4.5,4.5S302.2,82,299.6,82z"/>
		</g>
		<g>
			<path class="st6" d="M210.7,123.1h-47.9c-2.5,0-4.5-2-4.5-4.5s2-4.5,4.5-4.5h47.9c2.5,0,4.5,2,4.5,4.5S213.3,123.1,210.7,123.1z"
				/>
		</g>
	</g>
	<g>
		<path id="Path-Copy_4_" class="st7" d="M528.8,45.9c-86.9,0-157,70.1-157,157s70.1,157,157,157s157-70.1,157-157
			S615.7,45.9,528.8,45.9z"/>
		<g>
			<path id="Combined-Shape_1_" class="st8" d="M665.4,202.9c0,75.5-61.2,136.7-136.7,136.7c-75.5,0-136.7-61.2-136.7-136.7
				S453.3,66.3,528.8,66.3C604.2,66.3,665.4,127.5,665.4,202.9z"/>
			<g id="format-color-fill_1_" transform="translate(8.000000, 8.000000)">
				<path id="Shape_3_" class="st1" d="M592.7,211.7c0,0-19.2,20.4-19.2,32.8c0,10.4,8.6,18.8,19.2,18.8s19.2-8.4,19.2-18.8
					C611.9,232,592.7,211.7,592.7,211.7L592.7,211.7z M460.5,197.6l45.9-44.9l45.9,44.9H460.5z M569.3,187.7l-85.7-83.8L470.1,117
					l22.8,22.3l-49.4,48.3c-5.7,5.3-5.7,14.3,0,19.9l52.7,51.6c2.8,2.7,6.5,4.1,10.2,4.1c3.6,0,7.4-1.4,10.2-4.1l52.7-51.6
					C575,202,575,192.9,569.3,187.7z"/>
			</g>
		</g>
	</g>
</g>
</svg>
