<?xml version="1.0" encoding="utf-8"?>
<!-- Generator: Adobe Illustrator 23.0.0, SVG Export Plug-In . SVG Version: 6.00 Build 0)  -->
<svg version="1.1" id="Layer_1" xmlns="http://www.w3.org/2000/svg" xmlns:xlink="http://www.w3.org/1999/xlink" x="0px" y="0px"
	 viewBox="0 0 725 407.8" style="enable-background:new 0 0 725 407.8;" xml:space="preserve">
<style type="text/css">
	.st0{fill:#616B77;}
	.st1{fill:#EAEAEA;}
	.st2{fill:#FFFFFF;}
	.st3{fill:#CCCCCC;}
	.st4{fill-rule:evenodd;clip-rule:evenodd;fill:#FFFFFF;}
	.st5{fill-rule:evenodd;clip-rule:evenodd;fill:#616B77;}
</style>
<g>
	<g>
		<path class="st0" d="M462.9,267.3c0,0-0.4,0-0.7,0l0,0c-0.5,0-1.1,0-2,0H460c-0.2,0-0.4,0-0.5,0l0,0c-0.2,0-0.4,0-0.7,0l0,0
			c-0.2,0-0.5,0-0.7,0h-0.2h-0.2h-0.2h-0.2h-0.2h-0.2h-0.2c-0.2,0-0.2,0-0.4,0h-0.2c-0.2,0-0.4,0-0.5,0h-0.4c-0.2,0-0.2,0-0.4,0l0,0
			h-0.2h-0.7l0,0h-3l0,0H445v3.6h17.9L462.9,267.3L462.9,267.3L462.9,267.3z M436,267.3h-17.9v3.6H436V267.3L436,267.3z
			 M409.2,267.3h-17.9v3.6h17.9V267.3L409.2,267.3z M382.4,267.3h-17.9v3.6h17.9V267.3L382.4,267.3z M355.5,267.3h-17.9v3.6h17.9
			V267.3L355.5,267.3z M328.7,267.3h-17.9v3.6h17.9V267.3L328.7,267.3z M301.9,267.3H284v3.6h17.9V267.3L301.9,267.3z M275,267.3
			h-17.9v3.6H275V267.3L275,267.3z M248.2,267.3h-17.9v3.6h17.9V267.3L248.2,267.3z M221.4,267.3h-17.9v3.6h17.9V267.3L221.4,267.3z
			 M194.5,267.3h-17.9v3.6h17.9V267.3L194.5,267.3z M167.7,267.3h-17.9v3.6h17.9V267.3L167.7,267.3z M140.9,267.3H123v3.6h17.9
			V267.3L140.9,267.3z M114.1,267.3H96.2v3.6h17.9V267.3L114.1,267.3z M87.2,267.3H69.3v3.6h17.9V267.3L87.2,267.3z M60.4,267.3h-12
			l0,0l0,0l0,0l0,0l0,0l0,0l0,0l0,0l0,0l0,0l0,0l0,0l0,0l0,0l0,0l0,0l0,0l0,0l0,0l0,0l0,0l0,0l0,0l0,0l0,0l0,0l0,0l0,0l0,0l0,0l0,0
			l0,0l0,0l0,0l0,0l0,0l0,0l0,0l0,0l0,0l0,0l0,0l0,0l0,0l0,0l0,0l0,0l0,0l0,0l0,0l0,0l0,0l0,0l0,0l0,0l0,0l0,0l0,0l0,0l0,0l0,0l0,0
			l0,0l0,0l0,0l0,0l0,0l0,0l0,0l0,0l0,0l0,0l0,0l0,0l0,0l0,0l0,0l0,0l0,0l0,0l0,0l0,0l0,0l0,0l0,0l0,0l0,0l0,0l0,0l0,0l0,0l0,0l0,0
			l0,0l0,0l0,0l0,0l0,0l0,0l0,0l0,0l0,0l0,0l0,0l0,0l0,0l0,0l0,0l0,0l0,0l0,0l0,0l0,0l0,0l0,0l0,0l0,0l0,0l0,0l0,0l0,0l0,0l0,0l0,0
			l0,0l0,0l0,0l0,0l0,0l0,0l0,0l0,0l0,0l0,0l0,0l0,0l0,0l0,0l0,0l0,0l0,0l0,0l0,0l0,0l0,0l0,0c0,0,0,0-0.2,0l0,0l0,0l0,0l0,0l0,0
			c-1.6,0.2-3,0.9-4.3,2l2.3,2.7c0.9-0.7,2-1.1,3-1.1h12L60.4,267.3L60.4,267.3z M43.8,277.5h-3.6v17.9h3.6V277.5L43.8,277.5z
			 M43.8,304.3h-3.6v17.9h3.6V304.3L43.8,304.3z M43.8,331.2h-3.6v17.9h3.6V331.2L43.8,331.2z M43.8,358h-3.6v10l0,0l0,0l0,0l0,0
			l0,0l0,0l0,0l0,0l0,0l0,0l0,0l0,0l0,0l0,0l0,0l0,0l0,0l0,0l0,0l0,0l0,0l0,0l0,0l0,0l0,0l0,0l0,0l0,0l0,0l0,0l0,0l0,0l0,0l0,0l0,0
			l0,0l0,0l0,0l0,0l0,0l0,0l0,0l0,0l0,0l0,0l0,0l0,0l0,0l0,0l0,0l0,0l0,0l0,0l0,0l0,0l0,0l0,0l0,0l0,0l0,0l0,0l0,0l0,0l0,0l0,0l0,0
			l0,0l0,0l0,0l0,0l0,0l0,0l0,0l0,0l0,0l0,0l0,0l0,0l0,0l0,0l0,0l0,0l0,0l0,0l0,0l0,0l0,0l0,0l0,0l0,0l0,0l0,0l0,0l0,0l0,0l0,0l0,0
			l0,0l0,0l0,0l0,0l0,0l0,0l0,0l0,0l0,0l0,0l0,0l0,0l0,0l0,0l0,0l0,0l0,0l0,0l0,0l0,0l0,0l0,0l0,0l0,0l0,0l0,0l0,0l0,0l0,0l0,0l0,0
			l0,0l0,0l0,0l0,0l0,0l0,0l0,0l0,0l0,0l0,0l0,0l0,0l0,0l0,0l0,0l0,0l0,0l0,0l0,0l0,0l0,0l0,0l0,0l0,0l0,0l0,0l0,0l0,0l0,0l0,0l0,0
			l0,0l0,0l0,0l0,0l0,0l0,0l0,0l0,0l0,0l0,0l0,0l0,0l0,0l0,0l0,0l0,0l0,0l0,0l0,0l0,0l0,0l0,0l0,0l0,0l0,0l0,0l0,0l0,0l0,0l0,0l0,0
			l0,0l0,0l0,0l0,0l0,0l0,0l0,0l0,0l0,0l0,0l0,0l0,0l0,0l0,0l0,0l0,0l0,0l0,0l0,0l0,0l0,0l0,0l0,0l0,0l0,0l0,0l0,0l0,0l0,0l0,0l0,0
			l0,0l0,0l0,0l0,0l0,0l0,0l0,0l0,0l0,0l0,0l0,0l0,0l0,0l0,0l0,0l0,0l0,0l0,0l0,0l0,0l0,0l0,0l0,0l0,0l0,0l0,0l0,0l0,0l0,0l0,0l0,0
			l0,0l0,0l0,0l0,0l0,0l0,0l0,0l0,0l0,0l0,0l0,0l0,0l0,0l0,0l0,0l0,0l0,0l0,0l0,0l0,0l0,0l0,0l0,0l0,0l0,0l0,0l0,0l0,0l0,0l0,0l0,0
			l0,0l0,0l0,0l0,0l0,0l0,0l0,0l0,0l0,0l0,0l0,0l0,0l0,0l0,0l0,0l0,0l0,0l0,0l0,0l0,0l0,0l0,0l0,0l0,0l0,0l0,0l0,0l0,0l0,0l0,0l0,0
			l0,0l0,0l0,0l0,0l0,0l0,0l0,0l0,0l0,0l0,0l0,0l0,0l0,0l0,0l0,0l0,0l0,0l0,0l0,0l0,0l0,0l0,0l0,0l0,0l0,0l0,0l0,0l0,0l0,0l0,0l0,0
			l0,0l0,0l0,0l0,0l0,0l0,0l0,0l0,0l0,0l0,0l0,0l0,0l0,0l0,0l0,0l0,0l0,0l0,0l0,0l0,0l0,0l0,0l0,0l0,0l0,0l0,0l0,0l0,0l0,0l0,0l0,0
			l0,0l0,0l0,0l0,0l0,0l0,0l0,0l0,0l0,0l0,0l0,0l0,0l0,0l0,0l0,0l0,0l0,0l0,0l0,0l0,0l0,0l0,0l0,0l0,0l0,0l0,0l0,0l0,0l0,0l0,0l0,0
			l0,0l0,0l0,0l0,0l0,0l0,0l0,0l0,0l0,0l0,0l0,0l0,0l0,0l0,0l0,0l0,0l0,0l0,0l0,0c0.5,1.3,1.6,2.3,2.7,3.2l2.1-2.9
			c-1.3-0.9-2-2.3-2-3.8V358H43.8z M70.2,372.7H52.3v3.6h17.9V372.7L70.2,372.7z M97.1,372.7H79.2v3.6h17.9V372.7L97.1,372.7z
			 M123.9,372.7H106v3.6h17.9V372.7L123.9,372.7z M150.7,372.7h-17.9v3.6h17.9V372.7L150.7,372.7z M177.6,372.7h-17.9v3.6h17.9
			V372.7L177.6,372.7z M204.4,372.7h-17.9v3.6h17.9V372.7L204.4,372.7z M231.2,372.7h-17.9v3.6h9.1c4.5,0,8.8,0,8.8,0V372.7
			L231.2,372.7z M258,372.7h-17.9v3.6H258V372.7L258,372.7z M284.9,372.7H267v3.6h17.9V372.7L284.9,372.7z M311.7,372.7h-17.9v3.6
			h17.9V372.7L311.7,372.7z M338.5,372.7h-17.9v3.6h17.9V372.7L338.5,372.7z M365.4,372.7h-17.9v3.6h8.6c4.7,0,9.3,0,9.3,0V372.7
			L365.4,372.7z M392.2,372.7h-17.9v3.6h17.9V372.7L392.2,372.7z M419,372.7h-17.9v3.6H419V372.7L419,372.7z M445.9,372.7H428v3.6
			h17.9V372.7L445.9,372.7z M467.1,369.6c-0.7,1.8-2.3,3-4.3,3h-8v3.6h8l0,0l0,0l0,0l0,0l0,0l0,0l0,0l0,0l0,0l0,0l0,0l0,0l0,0l0,0
			l0,0l0,0l0,0l0,0l0,0l0,0l0,0l0,0l0,0l0,0l0,0l0,0l0,0l0,0l0,0l0,0l0,0l0,0l0,0l0,0l0,0l0,0l0,0l0,0l0,0l0,0l0,0l0,0l0,0l0,0l0,0
			l0,0l0,0l0,0l0,0l0,0l0,0l0,0l0,0l0,0l0,0l0,0l0,0l0,0l0,0l0,0l0,0l0,0l0,0l0,0l0,0l0,0l0,0l0,0l0,0l0,0l0,0l0,0l0,0l0,0l0,0l0,0
			l0,0l0,0l0,0l0,0l0,0l0,0l0,0l0,0l0,0l0,0l0,0l0,0l0,0l0,0l0,0l0,0l0,0l0,0l0,0l0,0l0,0l0,0l0,0l0,0l0,0l0,0l0,0l0,0l0,0l0,0l0,0
			l0,0l0,0l0,0l0,0l0,0l0,0l0,0l0,0l0,0l0,0l0,0l0,0l0,0l0,0l0,0l0,0l0,0l0,0l0,0l0,0l0,0l0,0l0,0l0,0l0,0l0,0l0,0l0,0l0,0l0,0l0,0
			l0,0l0,0l0,0l0,0l0,0l0,0l0,0l0,0l0,0l0,0l0,0l0,0l0,0l0,0l0,0l0,0l0,0l0,0l0,0l0,0l0,0l0,0l0,0l0,0l0,0l0,0l0,0l0,0l0,0l0,0l0,0
			l0,0l0,0l0,0l0,0l0,0l0,0l0,0l0,0l0,0l0,0l0,0l0,0l0,0l0,0l0,0l0,0l0,0l0,0l0,0l0,0l0,0l0,0l0,0l0,0l0,0l0,0l0,0l0,0l0,0l0,0l0,0
			l0,0l0,0l0,0l0,0l0,0l0,0l0,0l0,0l0,0l0,0l0,0l0,0l0,0l0,0l0,0l0,0l0,0l0,0l0,0l0,0l0,0l0,0l0,0l0,0l0,0l0,0l0,0l0,0l0,0l0,0l0,0
			l0,0l0,0l0,0l0,0l0,0l0,0l0,0l0,0l0,0l0,0l0,0l0,0l0,0l0,0l0,0l0,0c0,0,0,0,0.2,0l0,0l0,0l0,0l0,0l0,0c2.3-0.7,4.1-2.5,5-4.8
			L467.1,369.6L467.1,369.6z M470.9,344.2h-3.6v17.9h3.6V344.2L470.9,344.2z M470.9,317.4h-3.6v17.9h3.6V317.4L470.9,317.4z
			 M470.9,290.6h-3.6v17.9h3.6V290.6L470.9,290.6z M463.7,267.3l-0.5,3.6c2.3,0.4,3.9,2.3,3.9,4.7v6.1h3.6v-6.1l0,0l0,0l0,0l0,0l0,0
			l0,0l0,0l0,0l0,0l0,0l0,0l0,0l0,0l0,0l0,0l0,0l0,0l0,0l0,0l0,0l0,0l0,0l0,0l0,0l0,0l0,0l0,0l0,0l0,0l0,0l0,0l0,0l0,0l0,0l0,0l0,0
			l0,0l0,0l0,0l0,0l0,0l0,0l0,0l0,0l0,0l0,0l0,0l0,0l0,0l0,0l0,0l0,0l0,0l0,0l0,0l0,0l0,0l0,0l0,0l0,0l0,0l0,0l0,0l0,0l0,0l0,0l0,0
			l0,0l0,0l0,0l0,0l0,0l0,0l0,0l0,0l0,0l0,0l0,0l0,0l0,0l0,0l0,0l0,0l0,0l0,0l0,0l0,0l0,0l0,0l0,0l0,0l0,0l0,0l0,0l0,0l0,0l0,0l0,0
			l0,0l0,0l0,0l0,0l0,0l0,0l0,0l0,0l0,0l0,0l0,0l0,0l0,0l0,0l0,0l0,0l0,0l0,0l0,0l0,0l0,0l0,0l0,0l0,0l0,0l0,0l0,0l0,0l0,0l0,0l0,0
			l0,0l0,0l0,0l0,0l0,0l0,0l0,0l0,0l0,0l0,0l0,0l0,0l0,0l0,0l0,0l0,0l0,0l0,0l0,0l0,0l0,0l0,0l0,0l0,0l0,0l0,0l0,0l0,0l0,0l0,0l0,0
			l0,0l0,0l0,0l0,0l0,0l0,0l0,0l0,0l0,0l0,0l0,0l0,0l0,0l0,0l0,0l0,0l0,0l0,0l0,0l0,0l0,0l0,0l0,0l0,0l0,0l0,0l0,0l0,0l0,0l0,0l0,0
			l0,0l0,0l0,0l0,0l0,0l0,0l0,0l0,0l0,0l0,0l0,0l0,0l0,0l0,0l0,0l0,0l0,0l0,0l0,0l0,0l0,0l0,0l0,0l0,0l0,0l0,0l0,0l0,0l0,0l0,0l0,0
			l0,0l0,0l0,0l0,0l0,0l0,0l0,0l0,0l0,0l0,0l0,0l0,0l0,0l0,0l0,0l0,0l0,0l0,0l0,0l0,0l0,0l0,0l0,0l0,0l0,0l0,0l0,0l0,0l0,0l0,0l0,0
			l0,0l0,0l0,0l0,0l0,0l0,0l0,0l0,0l0,0l0,0l0,0l0,0l0,0l0,0l0,0l0,0l0,0l0,0l0,0l0,0l0,0l0,0l0,0l0,0l0,0l0,0l0,0l0,0l0,0l0,0l0,0
			l0,0l0,0l0,0l0,0l0,0l0,0l0,0l0,0l0,0l0,0l0,0l0,0l0,0l0,0l0,0l0,0l0,0l0,0l0,0l0,0l0,0l0,0l0,0l0,0l0,0l0,0l0,0l0,0l0,0l0,0l0,0
			l0,0l0,0l0,0l0,0l0,0l0,0l0,0l0,0l0,0l0,0l0,0l0,0l0,0l0,0l0,0l0,0l0,0c0,0,0,0,0-0.2l0,0l0,0l0,0l0,0l0,0c0,0,0,0,0-0.2l0,0V275
			l0,0c0-0.2-0.2-0.2-0.2-0.4l0,0c-0.9-2-2.5-3.6-4.5-4.3l0,0l0,0l0,0l0,0l0,0l0,0l0,0l0,0l0,0l0,0l0,0l0,0l0,0l0,0l0,0l0,0l0,0l0,0
			l0,0l0,0l0,0l0,0l0,0l0,0l0,0l0,0l0,0l0,0l0,0l0,0l0,0l0,0l0,0l0,0l0,0l0,0l0,0l0,0l0,0l0,0l0,0l0,0l0,0l0,0l0,0l0,0l0,0l0,0l0,0
			l0,0l0,0l0,0l0,0l0,0l0,0l0,0l0,0l0,0l0,0l0,0l0,0l0,0l0,0l0,0l0,0l0,0l0,0l0,0l0,0l0,0l0,0l0,0l0,0l0,0l0,0l0,0l0,0l0,0l0,0l0,0
			l0,0l0,0l0,0l0,0l0,0l0,0l0,0l0,0l0,0l0,0l0,0l0,0l0,0l0,0l0,0l0,0c0,0,0,0-0.2,0l0,0C464.6,267.5,464.3,267.3,463.7,267.3
			L463.7,267.3z"/>
	</g>
	<g>
		<path class="st1" d="M48.4,149.4h414.4c4.5,0,8.2,3.6,8.2,8.2v92.7c0,4.5-3.6,8.2-8.2,8.2H48.4c-4.5,0-8.2-3.6-8.2-8.2v-92.7
			C40.2,153.2,43.8,149.4,48.4,149.4z"/>
		<g>
			<path class="st2" d="M53.4,158.4h84.4c2.9,0,5.2,2.3,5.2,5.2v82.6c0,2.9-2.3,5.2-5.2,5.2H53.4c-2.9,0-5.2-2.3-5.2-5.2v-82.6
				C48.2,160.7,50.6,158.4,53.4,158.4z"/>
			<g id="Artboard_3_">
				<path id="Fill-1_3_" class="st3" d="M117.1,186.3l-30.8-8.2c-3.9-1.1-8,1.3-9.1,5.4L69,214.2c-1.1,3.9,1.3,8,5.2,9.1l8.9,2.3
					c-0.5-0.9-1.1-2-1.3-3.2c-0.4-1.4-0.5-3.2-0.5-5v-24c0-0.4,0.2-0.7,0.7-0.7l6.4-1.1c0,0,0,0,0.2,0s0.4,0,0.5,0.2
					c0.2,0.2,0.2,0.4,0.2,0.5v7.7h9.1c0.4,0,0.7,0.4,0.7,0.7v5.4c0,0.4-0.4,0.7-0.7,0.7h-9.1v10.6c0,2,0.4,3.6,0.9,4.3
					c0.5,0.7,1.6,1.1,3,1.1c1.1,0,2.1-0.2,2.9-0.4c0.9-0.2,1.6-0.5,2.1-0.7c0,0,0.2,0,0.4,0c0.2,0,0.2,0,0.4,0
					c0.2,0.2,0.4,0.4,0.4,0.5l1.1,5c0,0.4-0.2,0.7-0.4,0.9c-0.7,0.4-1.8,0.7-3,1.1l0,0l8.4,2.3c3.9,1.1,8-1.3,9.1-5.2l8.2-30.9
					C123.5,191.5,121,187.4,117.1,186.3"/>
			</g>
		</g>
		<g>
			<path class="st3" d="M435.5,177.7H161.8c-2.5,0-4.5-2-4.5-4.5s2-4.5,4.5-4.5h273.7c2.5,0,4.5,2,4.5,4.5S438,177.7,435.5,177.7z"
				/>
		</g>
		<g>
			<path class="st3" d="M298.6,199.7H161.8c-2.5,0-4.5-2-4.5-4.5s2-4.5,4.5-4.5h136.8c2.5,0,4.5,2,4.5,4.5S301.2,199.7,298.6,199.7z
				"/>
		</g>
		<g>
			<path class="st3" d="M209.7,241h-47.9c-2.5,0-4.5-2-4.5-4.5s2-4.5,4.5-4.5h47.9c2.5,0,4.5,2,4.5,4.5S212.3,241,209.7,241z"/>
		</g>
	</g>
	<g>
		<path class="st1" d="M48.4,31.6h414.4c4.5,0,8.2,3.6,8.2,8.2v92.7c0,4.5-3.6,8.2-8.2,8.2H48.4c-4.5,0-8.2-3.6-8.2-8.2V39.8
			C40.2,35.3,43.8,31.6,48.4,31.6z"/>
		<g>
			<path class="st2" d="M53.4,40.5h84.4c2.9,0,5.2,2.3,5.2,5.2v82.6c0,2.9-2.3,5.2-5.2,5.2H53.4c-2.9,0-5.2-2.3-5.2-5.2V45.7
				C48.2,42.8,50.6,40.5,53.4,40.5z"/>
			<g id="Artboard_2_">
				<path id="Fill-1_2_" class="st3" d="M117.1,68.4l-30.8-8.2c-3.9-1.1-8,1.3-9.1,5.4l-8.4,30.8c-1.1,3.9,1.3,8,5.2,9.1l8.9,2.3
					c-0.5-0.9-1.1-2-1.3-3.2c-0.4-1.4-0.5-3.2-0.5-5v-24c0-0.4,0.2-0.7,0.7-0.7l6.4-1.1c0,0,0,0,0.2,0c0.2,0,0.4,0,0.5,0.2
					c0.2,0.2,0.2,0.4,0.2,0.5v7.7h9.1c0.4,0,0.7,0.4,0.7,0.7v5.4c0,0.4-0.4,0.7-0.7,0.7h-9.1v10.6c0,2,0.4,3.6,0.9,4.3
					s1.6,1.1,3,1.1c1.1,0,2.1-0.2,2.9-0.4c0.9-0.2,1.6-0.5,2.1-0.7c0,0,0.2,0,0.4,0s0.2,0,0.4,0c0.2,0.2,0.4,0.4,0.4,0.5l1.1,5
					c0,0.4-0.2,0.7-0.4,0.9c-0.7,0.4-1.8,0.7-3,1.1l0,0l8.4,2.3c3.9,1.1,8-1.3,9.1-5.2l8.2-30.9C123.5,73.6,121,69.5,117.1,68.4"/>
			</g>
		</g>
		<g>
			<path class="st3" d="M435.5,59.8H161.8c-2.5,0-4.5-2-4.5-4.5s2-4.5,4.5-4.5h273.7c2.5,0,4.5,2,4.5,4.5S438,59.8,435.5,59.8z"/>
		</g>
		<g>
			<path class="st3" d="M298.6,82H161.8c-2.5,0-4.5-2-4.5-4.5s2-4.5,4.5-4.5h136.8c2.5,0,4.5,2,4.5,4.5S301.2,82,298.6,82z"/>
		</g>
		<g>
			<path class="st3" d="M209.7,123.1h-47.9c-2.5,0-4.5-2-4.5-4.5s2-4.5,4.5-4.5h47.9c2.5,0,4.5,2,4.5,4.5S212.3,123.1,209.7,123.1z"
				/>
		</g>
	</g>
	<g>
		<path id="Path-Copy_3_" class="st4" d="M527.8,45.9c-86.9,0-157,70.1-157,157s70.1,157,157,157s157-70.1,157-157
			S614.7,45.9,527.8,45.9z"/>
		<path id="Path-Copy_2_" class="st5" d="M527.8,66.3c-75.6,0-136.7,61-136.7,136.7s61,136.7,136.7,136.7s136.7-61,136.7-136.7
			S603.4,66.3,527.8,66.3z"/>
		<path id="Shape_1_" class="st2" d="M582.4,196.6c17.1,28.5,8.9,64.8-18.4,81.2c-27.3,16.4-63.2,6.6-80.3-21.9L467,228.1l15.2-9.1
			l16.7,27.8c11.9,19.8,36.6,26.6,55.6,15.2c19-11.4,24.6-36.4,12.7-56.2l-27-45l-8.8,38.5l-17.4-4.8l15.5-68.7l68,18.5l-3.9,17.7
			l-38.2-10.4L582.4,196.6L582.4,196.6z M463.1,187.3l9.5,15.9l-15.2,9.1l-9.5-15.9L463.1,187.3z"/>
	</g>
	<g>
		<g>
			<g>
				<path class="st5" d="M257.1,101.5v220.3c0,2.5-2,4.5-4.5,4.5s-4.5-2-4.5-4.5V101.5c0-2.5,2-4.5,4.5-4.5S257.1,99,257.1,101.5z"
					/>
			</g>
			<g>
				<path class="st5" d="M255.7,104.7l-20,20c-1.8,1.8-4.6,1.8-6.3,0c-1.8-1.8-1.8-4.6,0-6.3l20-20c1.8-1.8,4.6-1.8,6.3,0
					C257.5,100.2,257.5,103,255.7,104.7z"/>
			</g>
			<g>
				<path class="st5" d="M249.4,98.4c1.8-1.8,4.6-1.8,6.3,0l20,20c1.8,1.8,1.8,4.6,0,6.3c-1.8,1.8-4.6,1.8-6.3,0l-20-20
					C247.7,103,247.7,100.2,249.4,98.4z"/>
			</g>
		</g>
		<g>
			<g>
				<path class="st0" d="M257.1,101.5v220.3c0,2.5-2,4.5-4.5,4.5s-4.5-2-4.5-4.5V101.5c0-2.5,2-4.5,4.5-4.5S257.1,99,257.1,101.5z"
					/>
			</g>
			<g>
				<path class="st0" d="M255.7,104.7l-20,20c-1.8,1.8-4.6,1.8-6.3,0c-1.8-1.8-1.8-4.6,0-6.3l20-20c1.8-1.8,4.6-1.8,6.3,0
					C257.5,100.2,257.5,103,255.7,104.7z"/>
			</g>
			<g>
				<path class="st0" d="M249.4,98.4c1.8-1.8,4.6-1.8,6.3,0l20,20c1.8,1.8,1.8,4.6,0,6.3c-1.8,1.8-4.6,1.8-6.3,0l-20-20
					C247.7,103,247.7,100.2,249.4,98.4z"/>
			</g>
		</g>
	</g>
</g>
</svg>
