<?xml version="1.0" encoding="utf-8"?>
<!-- Generator: Adobe Illustrator 23.0.0, SVG Export Plug-In . SVG Version: 6.00 Build 0)  -->
<svg version="1.1" id="Layer_1" xmlns="http://www.w3.org/2000/svg" xmlns:xlink="http://www.w3.org/1999/xlink" x="0px" y="0px"
	 viewBox="0 0 725 407.8" style="enable-background:new 0 0 725 407.8;" xml:space="preserve">
<style type="text/css">
	.st0{fill:#EAEAEA;}
	.st1{fill:#FAFAFA;}
	.st2{fill:#CCCCCC;}
	.st3{fill:#FF9E3C;}
	.st4{opacity:0.44;fill:#FFFFFF;}
	.st5{opacity:0.69;fill:#FAFAFA;}
	.st6{fill:#F27A29;}
	.st7{fill-rule:evenodd;clip-rule:evenodd;fill:#FFFFFF;}
	.st8{fill-rule:evenodd;clip-rule:evenodd;fill:#616B77;}
</style>
<g>
	<g>
		<path class="st0" d="M49.4,270.7h414.4c4.5,0,8.2,3.6,8.2,8.2v92.7c0,4.5-3.6,8.2-8.2,8.2H49.4c-4.5,0-8.2-3.6-8.2-8.2v-92.7
			C41.2,274.4,44.8,270.7,49.4,270.7z"/>
		<g>
			<path class="st1" d="M54.4,279.6h84.4c2.9,0,5.2,2.3,5.2,5.2v82.6c0,2.9-2.3,5.2-5.2,5.2H54.4c-2.9,0-5.2-2.3-5.2-5.2v-82.6
				C49.2,281.9,51.6,279.6,54.4,279.6z"/>
			<g id="Artboard_4_">
				<path id="Fill-1_4_" class="st2" d="M118.1,307.5l-30.8-8.2c-3.9-1.1-8,1.3-9.1,5.4L70,335.4c-1.1,3.9,1.3,8,5.2,9.1l8.9,2.3
					c-0.5-0.9-1.1-2-1.3-3.2c-0.4-1.4-0.5-3.2-0.5-5v-24c0-0.4,0.2-0.7,0.7-0.7l6.4-1.1c0,0,0,0,0.2,0s0.4,0,0.5,0.2
					c0.2,0.2,0.2,0.4,0.2,0.5v7.7h9.1c0.4,0,0.7,0.4,0.7,0.7v5.4c0,0.4-0.4,0.7-0.7,0.7h-9.1v10.6c0,2,0.4,3.6,0.9,4.3
					c0.5,0.7,1.6,1.1,3,1.1c1.1,0,2.1-0.2,2.9-0.4c0.9-0.2,1.6-0.5,2.1-0.7c0,0,0.2,0,0.4,0c0.2,0,0.2,0,0.4,0
					c0.2,0.2,0.4,0.4,0.4,0.5l1.1,5c0,0.4-0.2,0.7-0.4,0.9c-0.7,0.4-1.8,0.7-3,1.1l0,0l8.4,2.3c3.9,1.1,8-1.3,9.1-5.2l8.2-30.9
					C124.5,312.7,122,308.6,118.1,307.5"/>
			</g>
		</g>
		<g>
			<path class="st2" d="M436.5,298.9H162.8c-2.5,0-4.5-2-4.5-4.5s2-4.5,4.5-4.5h273.7c2.5,0,4.5,2,4.5,4.5S439,298.9,436.5,298.9z"
				/>
		</g>
		<g>
			<path class="st2" d="M299.6,320.9H162.8c-2.5,0-4.5-2-4.5-4.5s2-4.5,4.5-4.5h136.8c2.5,0,4.5,2,4.5,4.5S302.2,320.9,299.6,320.9z
				"/>
		</g>
		<g>
			<path class="st2" d="M210.7,362.3h-47.9c-2.5,0-4.5-2-4.5-4.5c0-2.5,2-4.5,4.5-4.5h47.9c2.5,0,4.5,2,4.5,4.5
				C215.2,360.3,213.3,362.3,210.7,362.3z"/>
		</g>
	</g>
	<g>
		<path class="st0" d="M49.4,151.4h414.4c4.5,0,8.2,3.6,8.2,8.2v92.7c0,4.5-3.6,8.2-8.2,8.2H49.4c-4.5,0-8.2-3.6-8.2-8.2v-92.7
			C41.2,155.2,44.8,151.4,49.4,151.4z"/>
		<g>
			<path class="st1" d="M54.4,159.6h84.4c2.9,0,5.2,2.3,5.2,5.2v82.6c0,2.9-2.3,5.2-5.2,5.2H54.4c-2.9,0-5.2-2.3-5.2-5.2v-82.6
				C49.2,161.9,51.6,159.6,54.4,159.6z"/>
			<g id="Artboard">
				<path id="Fill-1" class="st2" d="M118.1,189.5l-30.8-8.2c-3.9-1.1-8,1.3-9.1,5.4L70,217.4c-1.1,3.9,1.3,8,5.2,9.1l8.9,2.3
					c-0.5-0.9-1.1-2-1.3-3.2c-0.4-1.4-0.5-3.2-0.5-5v-24c0-0.4,0.2-0.7,0.7-0.7l6.4-1.1c0,0,0,0,0.2,0s0.4,0,0.5,0.2
					c0.2,0.2,0.2,0.4,0.2,0.5v7.7h9.1c0.4,0,0.7,0.4,0.7,0.7v5.4c0,0.4-0.4,0.7-0.7,0.7h-9.1v10.6c0,2,0.4,3.6,0.9,4.3
					c0.5,0.7,1.6,1.1,3,1.1c1.1,0,2.1-0.2,2.9-0.4c0.9-0.2,1.6-0.5,2.1-0.7c0,0,0.2,0,0.4,0c0.2,0,0.2,0,0.4,0
					c0.2,0.2,0.4,0.4,0.4,0.5l1.1,5c0,0.4-0.2,0.7-0.4,0.9c-0.7,0.4-1.8,0.7-3,1.1l0,0l8.4,2.3c3.9,1.1,8-1.3,9.1-5.2l8.2-30.9
					C124.5,194.6,122,190.5,118.1,189.5"/>
			</g>
		</g>
		<g>
			<path class="st2" d="M436.5,180.9H162.8c-2.5,0-4.5-2-4.5-4.5s2-4.5,4.5-4.5h273.7c2.5,0,4.5,2,4.5,4.5S439,180.9,436.5,180.9z"
				/>
		</g>
		<g>
			<path class="st2" d="M299.6,202.9H162.8c-2.5,0-4.5-2-4.5-4.5s2-4.5,4.5-4.5h136.8c2.5,0,4.5,2,4.5,4.5S302.2,202.9,299.6,202.9z
				"/>
		</g>
		<g>
			<path class="st2" d="M210.7,244.2h-47.9c-2.5,0-4.5-2-4.5-4.5s2-4.5,4.5-4.5h47.9c2.5,0,4.5,2,4.5,4.5S213.3,244.2,210.7,244.2z"
				/>
		</g>
	</g>
	<g>
		<path class="st3" d="M49.6,29.7h119.8c4.6,0,8.4,3.7,8.4,8.6v96.8c0,4.7-3.6,8.6-8.4,8.6H49.6c-4.6,0-8.4-3.7-8.4-8.6V38.3
			C41.2,33.6,44.8,29.7,49.6,29.7z"/>
		<path class="st4" d="M169.7,113H49.3V41.1c0-2.5,2-4.4,4.4-4.4h111.5c2.5,0,4.4,2,4.4,4.4V113z"/>
		<path id="Fill-1_1_" class="st5" d="M130.7,55.7L100,47.5c-3.9-1.1-8,1.3-9.1,5.4l-8.2,30.8c-1.1,3.9,1.3,8,5.2,9.1l8.9,2.3
			c-0.5-0.9-1.1-2-1.3-3.2c-0.4-1.4-0.5-3.2-0.5-5v-24c0-0.4,0.2-0.7,0.7-0.7l6.4-1.1c0,0,0,0,0.2,0c0.2,0,0.4,0,0.5,0.2
			c0.2,0.2,0.2,0.4,0.2,0.5v7.7h9.1c0.4,0,0.7,0.4,0.7,0.7v5.4c0,0.4-0.4,0.7-0.7,0.7H103v10.6c0,2,0.4,3.6,0.9,4.3s1.6,1.1,3,1.1
			c1.1,0,2.1-0.2,2.9-0.4c0.9-0.2,1.6-0.5,2.1-0.7c0,0,0.2,0,0.4,0c0.2,0,0.2,0,0.4,0c0.2,0.2,0.4,0.4,0.4,0.5l1.1,5
			c0,0.4-0.2,0.7-0.4,0.9c-0.7,0.4-1.8,0.7-3,1.1l0,0l8.4,2.3c3.9,1.1,8-1.3,9.1-5.2l8.2-30.9C137.2,60.9,134.7,56.8,130.7,55.7"/>
		<g>
			<path class="st6" d="M101.6,133.4H53.7c-2.5,0-4.5-2-4.5-4.5c0-2.5,2-4.5,4.5-4.5h47.9c2.5,0,4.5,2,4.5,4.5
				C106.1,131.4,104.1,133.4,101.6,133.4z"/>
		</g>
		<circle class="st6" cx="165.4" cy="128.9" r="4.3"/>
	</g>
	<g>
		<path class="st3" d="M342.1,29.7h119.8c4.6,0,8.4,3.7,8.4,8.6v96.8c0,4.7-3.6,8.6-8.4,8.6H342.1c-4.6,0-8.4-3.7-8.4-8.6V38.3
			C333.7,33.6,337.4,29.7,342.1,29.7z"/>
		<path class="st4" d="M462.3,113H341.8V41.1c0-2.5,2-4.4,4.4-4.4h111.5c2.5,0,4.4,2,4.4,4.4V113z"/>
		<path id="Fill-1_8_" class="st5" d="M423.3,55.7l-30.8-8.2c-3.9-1.1-8,1.3-9.1,5.4l-8.2,30.8c-1.1,3.9,1.3,8,5.2,9.1l8.9,2.3
			c-0.5-0.9-1.1-2-1.3-3.2c-0.4-1.4-0.5-3.2-0.5-5v-24c0-0.4,0.2-0.7,0.7-0.7l6.4-1.1c0,0,0,0,0.2,0c0.2,0,0.4,0,0.5,0.2
			c0.2,0.2,0.2,0.4,0.2,0.5v7.7h9.1c0.4,0,0.7,0.4,0.7,0.7v5.4c0,0.4-0.4,0.7-0.7,0.7h-9.1v10.6c0,2,0.4,3.6,0.9,4.3s1.6,1.1,3,1.1
			c1.1,0,2.1-0.2,2.9-0.4c0.9-0.2,1.6-0.5,2.1-0.7c0,0,0.2,0,0.4,0c0.2,0,0.2,0,0.4,0c0.2,0.2,0.4,0.4,0.4,0.5l1.1,5
			c0,0.4-0.2,0.7-0.4,0.9c-0.7,0.4-1.8,0.7-3,1.1l0,0l8.4,2.3c3.9,1.1,8-1.3,9.1-5.2l8.2-30.9C429.7,60.9,427.2,56.8,423.3,55.7"/>
		<g>
			<path class="st6" d="M394.2,133.4h-47.9c-2.5,0-4.5-2-4.5-4.5c0-2.5,2-4.5,4.5-4.5h47.9c2.5,0,4.5,2,4.5,4.5
				C398.7,131.4,396.7,133.4,394.2,133.4z"/>
		</g>
		<circle class="st6" cx="458" cy="128.9" r="4.3"/>
	</g>
	<g>
		<path class="st3" d="M195.8,29.7h119.8c4.6,0,8.4,3.7,8.4,8.6v96.8c0,4.7-3.6,8.6-8.4,8.6H195.8c-4.6,0-8.4-3.7-8.4-8.6V38.3
			C187.4,33.6,191.1,29.7,195.8,29.7z"/>
		<path class="st4" d="M316,113H195.6V41.1c0-2.5,2-4.4,4.4-4.4h111.5c2.5,0,4.4,2,4.4,4.4V113z"/>
		<path id="Fill-1_9_" class="st5" d="M277,55.7l-30.8-8.2c-3.9-1.1-8,1.3-9.1,5.4l-8.2,30.8c-1.1,3.9,1.3,8,5.2,9.1l8.9,2.3
			c-0.5-0.9-1.1-2-1.3-3.2c-0.4-1.4-0.5-3.2-0.5-5v-24c0-0.4,0.2-0.7,0.7-0.7l6.4-1.1c0,0,0,0,0.2,0c0.2,0,0.4,0,0.5,0.2
			c0.2,0.2,0.2,0.4,0.2,0.5v7.7h9.1c0.4,0,0.7,0.4,0.7,0.7v5.4c0,0.4-0.4,0.7-0.7,0.7h-9.1v10.6c0,2,0.4,3.6,0.9,4.3s1.6,1.1,3,1.1
			c1.1,0,2.1-0.2,2.9-0.4c0.9-0.2,1.6-0.5,2.1-0.7c0,0,0.2,0,0.4,0c0.2,0,0.2,0,0.4,0c0.2,0.2,0.4,0.4,0.4,0.5l1.1,5
			c0,0.4-0.2,0.7-0.4,0.9c-0.7,0.4-1.8,0.7-3,1.1l0,0l8.4,2.3c3.9,1.1,8-1.3,9.1-5.2l8.2-30.9C283.4,60.9,280.9,56.8,277,55.7"/>
		<g>
			<path class="st6" d="M247.9,133.4H200c-2.5,0-4.5-2-4.5-4.5c0-2.5,2-4.5,4.5-4.5h47.9c2.5,0,4.5,2,4.5,4.5
				C252.4,131.4,250.4,133.4,247.9,133.4z"/>
		</g>
		<circle class="st6" cx="311.7" cy="128.9" r="4.3"/>
	</g>
	<g>
		<path id="Path-Copy_1_" class="st7" d="M528.8,48.9c-86.9,0-157,70.1-157,157s70.1,157,157,157s157-70.1,157-157
			S615.7,48.9,528.8,48.9z"/>
		<g>
			<path id="Combined-Shape" class="st8" d="M665.4,205.9c0,75.5-61.2,136.7-136.7,136.7c-75.5,0-136.7-61.2-136.7-136.7
				S453.3,69.3,528.8,69.3C604.2,69.3,665.4,130.5,665.4,205.9z"/>
			<path class="st7" d="M489.6,238.9l9.4,9.2l-22.9,22.5l0,0c-2.6,2.6-6.9,2.6-9.5,0l0,0c-2.6-2.6-2.6-6.8,0-9.3l0,0L489.6,238.9z
				 M544.5,136c3.5-3.4,9.2-3.4,12.7,0l0,0l46.7,45.8c3.5,3.4,3.5,9,0,12.4l0,0l-0.4,0.4c-3.3,3.2-8.6,3.2-11.9,0l0,0l-40.4,39.6
				l-0.5,15.3c-0.2,5.6-2.6,11-6.6,15c-3.5,3.4-9.2,3.4-12.7,0l0,0l-21.4-21h0L494.3,228h0l-21.4-21c-3.5-3.4-3.5-9,0-12.4
				c4.1-4,9.5-6.3,15.3-6.5l0,0l15.6-0.5l40.4-39.6c-3.3-3.2-3.3-8.4,0-11.6l0,0L544.5,136z"/>
		</g>
	</g>
</g>
</svg>
