<svg version="1.1" id="Layer_1" xmlns="http://www.w3.org/2000/svg" x="0" y="0" viewBox="0 0 725 407.8" xml:space="preserve"><style>.st0{fill:#616b77}.st0,.st1{fill-rule:evenodd;clip-rule:evenodd}.st1,.st2{fill:#fff}</style><g transform="translate(44)"><path id="Combined-Shape" class="st0" d="M665.5 203.5c0 67.3-52.4 121.8-117 121.8s-117-54.6-117-121.8S484 81.7 548.5 81.7s117 54.5 117 121.8z"/><path class="st1" d="M519.1 230.5l8.2 8.2-20 20c-2.3 2.3-6 2.3-8.3 0-2.3-2.3-2.3-6 0-8.3l20.1-19.9zm47.8-91.4c3-3 8-3 11 0l40.7 40.7c3 3 3 8 0 11l-.4.3c-2.9 2.9-7.5 2.9-10.3 0l-35.1 35.1-.4 13.6c-.2 5-2.2 9.8-5.8 13.3-3 3.1-8 3.1-11 0L537 234.5l-13.8-13.8-18.6-18.6c-3-3.1-3-8 0-11 3.5-3.5 8.3-5.6 13.3-5.8l13.6-.4 35.1-35.1c-2.9-2.9-2.9-7.5 0-10.3l.3-.4z"/></g><circle id="Oval-Copy" class="st1" cx="387.9" cy="198.6" r="117"/><g transform="translate(21)"><path class="st0" d="M464.3 198.6c0 64.6-52.4 117-117 117s-117-52.4-117-117 52.3-117 117-117c64.7.1 117 52.4 117 117z"/><g id="format-color-fill" transform="translate(8 8)"><path id="Shape" class="st2" d="M400.9 205s-16.4 17.4-16.4 28.1c0 8.9 7.3 16.1 16.4 16.1 9.1 0 16.4-7.2 16.4-16.1 0-10.7-16.4-28.1-16.4-28.1zm-113.2-12.1l39.3-38.4 39.3 38.4h-78.6zm93.2-8.5l-73.4-71.8L296 124l19.5 19.1-42.3 41.3c-4.8 4.5-4.8 12.3 0 17l45.1 44.1c2.4 2.3 5.6 3.5 8.7 3.5 3.1 0 6.3-1.2 8.7-3.5l45.1-44.1c4.9-4.7 4.9-12.5.1-17z"/></g></g><circle id="Oval" class="st1" cx="154" cy="198.6" r="117"/><g transform="translate(-3)"><path id="Path-Copy" class="st0" d="M137.5 81.7c-64.7 0-117 52.2-117 117s52.2 117 117 117 117-52.2 117-117-52.3-117-117-117z"/><path class="st2" d="M184.2 193.2c14.6 24.4 7.6 55.5-15.7 69.5-23.3 14-54.1 5.6-68.7-18.7l-14.3-23.8 13-7.8 14.3 23.8c10.2 17 31.3 22.7 47.6 13 16.2-9.8 21.1-31.1 10.9-48.1l-23.1-38.5-7.5 33-14.9-4.1 13.3-58.8 58.2 15.9-3.4 15.1-32.7-8.9 23 38.4zm-102.1-8l8.2 13.6-13 7.8-8.2-13.6 13-7.8z"/></g></svg>