<svg xmlns="http://www.w3.org/2000/svg" viewBox="0 0 520 260">
  <path fill="#BFBFBF" d="M86 196.9h324.5v59.9H86v-59.9z"/>
  <path fill="#FFF" d="M89.7 200.6h52.9v52.9H89.7v-52.9z"/>
  <path fill="#BFBFBF" d="M94 249.8v-12.2l10.8-8.4 14.5 10.3 10.3-4.7 8.9 6.6v8.4H94"/>
  <circle cx="127.2" cy="214.7" r="7" fill="#BFBFBF"/>
  <path fill="#BFBFBF" d="M86 132.4h324.5v59.9H86v-59.9z"/>
  <path fill="#FFF" d="M89.7 136.2h52.9v52.9H89.7v-52.9z"/>
  <path fill="#BFBFBF" d="M94 185.8v-12.2l10.8-8.9 14.5 10.3 10.3-4.7 8.9 6.6v8.9H94"/>
  <circle cx="127.2" cy="150.2" r="7" fill="#BFBFBF"/>
  <path fill="#BFBFBF" d="M86 68h324.5v59.9H86V68z"/>
  <path fill="#FFF" d="M89.7 71.7h52.9v52.9H89.7V71.7z"/>
  <path fill="#BFBFBF" d="M94 120.9v-12.2l10.8-8.4 14.5 10.3 10.3-4.7 8.9 6.6v8.4H94"/>
  <circle cx="127.2" cy="85.8" r="7" fill="#BFBFBF"/>
  <path fill="#FFC31A" d="M86 3.5h324.5v59.9H86V3.5z"/>
  <path fill="#FFF" d="M89.7 7.2h52.9v52.9H89.7V7.2z"/>
  <path fill="#BFBFBF" d="M94 56.9V44.7l10.8-8.9 14.5 10.3 10.3-4.7 8.9 6.6v8.9H94"/>
  <circle cx="127.2" cy="21.3" r="7" fill="#BFBFBF"/>
  <path fill="#FFF" d="M412.7 25.5c57.7 0 104.5 46.8 104.5 104.5s-48.3 104.5-106.1 104.5c-57.7 0-102.9-46.8-102.9-104.5S355 25.5 412.7 25.5z"/>
  <circle cx="412.2" cy="130.1" r="93.5" fill="#FFC31A"/>
  <path fill="#FFF" d="M463.7 91.7h-5.1V80.4c0-2.8-2.3-5.1-5.1-5.1h-95c-2.8 0-5.1 2.3-5.1 5.1v26.9c0 2.8 2.3 5.1 5.1 5.1h95c2.8 0 5.1-2.3 5.1-5.1V95.9h5.1c1.6 0 3 1.3 3 3v20.9c0 3-.8 4.1-3.4 4.7l-55.6 9.4c-4.4.8-6.7 3.8-6.7 8.9v4.9h-2.9c-1.1 0-2 .9-2 2v43.5c0 1.1.9 2 2 2h9.3c1.1 0 2-.9 2-2v-43.5c0-1.1-.9-2-2-2h-2.2v-4.9c0-3.7 1.4-4.4 3.1-4.7l55.7-9.4h.1c4.6-1.1 6.7-3.9 6.7-8.9V98.9c.2-4-3.1-7.2-7.1-7.2z"/>
</svg>
