<svg version="1.1" id="Layer_1" xmlns="http://www.w3.org/2000/svg" x="0" y="0" viewBox="0 0 725 407.8" xml:space="preserve"><style>.st0{fill:#eaeaea}.st1{fill:#fafafa}.st2{fill:#ccc}.st3{fill:#ff9e3c}.st4{opacity:.44;fill:#fff}.st5{opacity:.69;fill:#fafafa}.st6{fill:#f27a29}.st7{fill-rule:evenodd;clip-rule:evenodd;fill:#fff}</style><path class="st0" d="M49.4 270.7h414.4c4.5 0 8.2 3.6 8.2 8.2v92.7c0 4.5-3.6 8.2-8.2 8.2H49.4c-4.5 0-8.2-3.6-8.2-8.2v-92.7c0-4.5 3.6-8.2 8.2-8.2z"/><path class="st1" d="M54.4 279.6h84.4c2.9 0 5.2 2.3 5.2 5.2v82.6c0 2.9-2.3 5.2-5.2 5.2H54.4c-2.9 0-5.2-2.3-5.2-5.2v-82.6c0-2.9 2.4-5.2 5.2-5.2z"/><g id="Artboard_4_"><path id="Fill-1_4_" class="st2" d="M118.1 307.5l-30.8-8.2c-3.9-1.1-8 1.3-9.1 5.4L70 335.4c-1.1 3.9 1.3 8 5.2 9.1l8.9 2.3c-.5-.9-1.1-2-1.3-3.2-.4-1.4-.5-3.2-.5-5v-24c0-.4.2-.7.7-.7l6.4-1.1h.2c.2 0 .4 0 .5.2.2.2.2.4.2.5v7.7h9.1c.4 0 .7.4.7.7v5.4c0 .4-.4.7-.7.7h-9.1v10.6c0 2 .4 3.6.9 4.3.5.7 1.6 1.1 3 1.1 1.1 0 2.1-.2 2.9-.4.9-.2 1.6-.5 2.1-.7h.8c.2.2.4.4.4.5l1.1 5c0 .4-.2.7-.4.9-.7.4-1.8.7-3 1.1l8.4 2.3c3.9 1.1 8-1.3 9.1-5.2l8.2-30.9c.7-3.9-1.8-8-5.7-9.1"/></g><path class="st2" d="M436.5 298.9H162.8c-2.5 0-4.5-2-4.5-4.5s2-4.5 4.5-4.5h273.7c2.5 0 4.5 2 4.5 4.5s-2 4.5-4.5 4.5zM299.6 320.9H162.8c-2.5 0-4.5-2-4.5-4.5s2-4.5 4.5-4.5h136.8c2.5 0 4.5 2 4.5 4.5s-1.9 4.5-4.5 4.5zM210.7 362.3h-47.9c-2.5 0-4.5-2-4.5-4.5s2-4.5 4.5-4.5h47.9c2.5 0 4.5 2 4.5 4.5s-1.9 4.5-4.5 4.5z"/><g><path class="st0" d="M49.4 151.4h414.4c4.5 0 8.2 3.6 8.2 8.2v92.7c0 4.5-3.6 8.2-8.2 8.2H49.4c-4.5 0-8.2-3.6-8.2-8.2v-92.7c0-4.4 3.6-8.2 8.2-8.2z"/><path class="st1" d="M54.4 159.6h84.4c2.9 0 5.2 2.3 5.2 5.2v82.6c0 2.9-2.3 5.2-5.2 5.2H54.4c-2.9 0-5.2-2.3-5.2-5.2v-82.6c0-2.9 2.4-5.2 5.2-5.2z"/><g id="Artboard"><path id="Fill-1" class="st2" d="M118.1 189.5l-30.8-8.2c-3.9-1.1-8 1.3-9.1 5.4L70 217.4c-1.1 3.9 1.3 8 5.2 9.1l8.9 2.3c-.5-.9-1.1-2-1.3-3.2-.4-1.4-.5-3.2-.5-5v-24c0-.4.2-.7.7-.7l6.4-1.1h.2c.2 0 .4 0 .5.2.2.2.2.4.2.5v7.7h9.1c.4 0 .7.4.7.7v5.4c0 .4-.4.7-.7.7h-9.1v10.6c0 2 .4 3.6.9 4.3.5.7 1.6 1.1 3 1.1 1.1 0 2.1-.2 2.9-.4.9-.2 1.6-.5 2.1-.7h.8c.2.2.4.4.4.5l1.1 5c0 .4-.2.7-.4.9-.7.4-1.8.7-3 1.1l8.4 2.3c3.9 1.1 8-1.3 9.1-5.2l8.2-30.9c.7-4-1.8-8.1-5.7-9.1"/></g><path class="st2" d="M436.5 180.9H162.8c-2.5 0-4.5-2-4.5-4.5s2-4.5 4.5-4.5h273.7c2.5 0 4.5 2 4.5 4.5s-2 4.5-4.5 4.5zM299.6 202.9H162.8c-2.5 0-4.5-2-4.5-4.5s2-4.5 4.5-4.5h136.8c2.5 0 4.5 2 4.5 4.5s-1.9 4.5-4.5 4.5z"/><g><path class="st2" d="M210.7 244.2h-47.9c-2.5 0-4.5-2-4.5-4.5s2-4.5 4.5-4.5h47.9c2.5 0 4.5 2 4.5 4.5s-1.9 4.5-4.5 4.5z"/></g></g><g><path class="st3" d="M49.6 29.7h119.8c4.6 0 8.4 3.7 8.4 8.6v96.8c0 4.7-3.6 8.6-8.4 8.6H49.6c-4.6 0-8.4-3.7-8.4-8.6V38.3c0-4.7 3.6-8.6 8.4-8.6z"/><path class="st4" d="M169.7 113H49.3V41.1c0-2.5 2-4.4 4.4-4.4h111.5c2.5 0 4.4 2 4.4 4.4V113z"/><path id="Fill-1_1_" class="st5" d="M130.7 55.7L100 47.5c-3.9-1.1-8 1.3-9.1 5.4l-8.2 30.8c-1.1 3.9 1.3 8 5.2 9.1l8.9 2.3c-.5-.9-1.1-2-1.3-3.2-.4-1.4-.5-3.2-.5-5v-24c0-.4.2-.7.7-.7l6.4-1.1h.2c.2 0 .4 0 .5.2.2.2.2.4.2.5v7.7h9.1c.4 0 .7.4.7.7v5.4c0 .4-.4.7-.7.7H103v10.6c0 2 .4 3.6.9 4.3s1.6 1.1 3 1.1c1.1 0 2.1-.2 2.9-.4.9-.2 1.6-.5 2.1-.7h.8c.2.2.4.4.4.5l1.1 5c0 .4-.2.7-.4.9-.7.4-1.8.7-3 1.1l8.4 2.3c3.9 1.1 8-1.3 9.1-5.2l8.2-30.9c.7-4-1.8-8.1-5.8-9.2"/><path class="st6" d="M101.6 133.4H53.7c-2.5 0-4.5-2-4.5-4.5s2-4.5 4.5-4.5h47.9c2.5 0 4.5 2 4.5 4.5s-2 4.5-4.5 4.5z"/><circle class="st6" cx="165.4" cy="128.9" r="4.3"/></g><g><path class="st3" d="M342.1 29.7h119.8c4.6 0 8.4 3.7 8.4 8.6v96.8c0 4.7-3.6 8.6-8.4 8.6H342.1c-4.6 0-8.4-3.7-8.4-8.6V38.3c0-4.7 3.7-8.6 8.4-8.6z"/><path class="st4" d="M462.3 113H341.8V41.1c0-2.5 2-4.4 4.4-4.4h111.5c2.5 0 4.4 2 4.4 4.4V113z"/><path id="Fill-1_8_" class="st5" d="M423.3 55.7l-30.8-8.2c-3.9-1.1-8 1.3-9.1 5.4l-8.2 30.8c-1.1 3.9 1.3 8 5.2 9.1l8.9 2.3c-.5-.9-1.1-2-1.3-3.2-.4-1.4-.5-3.2-.5-5v-24c0-.4.2-.7.7-.7l6.4-1.1h.2c.2 0 .4 0 .5.2.2.2.2.4.2.5v7.7h9.1c.4 0 .7.4.7.7v5.4c0 .4-.4.7-.7.7h-9.1v10.6c0 2 .4 3.6.9 4.3s1.6 1.1 3 1.1c1.1 0 2.1-.2 2.9-.4.9-.2 1.6-.5 2.1-.7h.8c.2.2.4.4.4.5l1.1 5c0 .4-.2.7-.4.9-.7.4-1.8.7-3 1.1l8.4 2.3c3.9 1.1 8-1.3 9.1-5.2l8.2-30.9c.7-4-1.8-8.1-5.7-9.2"/><path class="st6" d="M394.2 133.4h-47.9c-2.5 0-4.5-2-4.5-4.5s2-4.5 4.5-4.5h47.9c2.5 0 4.5 2 4.5 4.5s-2 4.5-4.5 4.5z"/><circle class="st6" cx="458" cy="128.9" r="4.3"/></g><g><path class="st3" d="M195.8 29.7h119.8c4.6 0 8.4 3.7 8.4 8.6v96.8c0 4.7-3.6 8.6-8.4 8.6H195.8c-4.6 0-8.4-3.7-8.4-8.6V38.3c0-4.7 3.7-8.6 8.4-8.6z"/><path class="st4" d="M316 113H195.6V41.1c0-2.5 2-4.4 4.4-4.4h111.5c2.5 0 4.4 2 4.4 4.4V113z"/><path id="Fill-1_9_" class="st5" d="M277 55.7l-30.8-8.2c-3.9-1.1-8 1.3-9.1 5.4l-8.2 30.8c-1.1 3.9 1.3 8 5.2 9.1l8.9 2.3c-.5-.9-1.1-2-1.3-3.2-.4-1.4-.5-3.2-.5-5v-24c0-.4.2-.7.7-.7l6.4-1.1h.2c.2 0 .4 0 .5.2.2.2.2.4.2.5v7.7h9.1c.4 0 .7.4.7.7v5.4c0 .4-.4.7-.7.7h-9.1v10.6c0 2 .4 3.6.9 4.3s1.6 1.1 3 1.1c1.1 0 2.1-.2 2.9-.4.9-.2 1.6-.5 2.1-.7h.8c.2.2.4.4.4.5l1.1 5c0 .4-.2.7-.4.9-.7.4-1.8.7-3 1.1l8.4 2.3c3.9 1.1 8-1.3 9.1-5.2l8.2-30.9c.7-4-1.8-8.1-5.7-9.2"/><path class="st6" d="M247.9 133.4H200c-2.5 0-4.5-2-4.5-4.5s2-4.5 4.5-4.5h47.9c2.5 0 4.5 2 4.5 4.5s-2 4.5-4.5 4.5z"/><circle class="st6" cx="311.7" cy="128.9" r="4.3"/></g><g><path id="Path-Copy_1_" class="st7" d="M528.8 48.9c-86.9 0-157 70.1-157 157s70.1 157 157 157 157-70.1 157-157-70.1-157-157-157z"/><path id="Combined-Shape" d="M665.4 205.9c0 75.5-61.2 136.7-136.7 136.7-75.5 0-136.7-61.2-136.7-136.7S453.3 69.3 528.8 69.3c75.4 0 136.6 61.2 136.6 136.6z" fill-rule="evenodd" clip-rule="evenodd" fill="#616b77"/><path class="st7" d="M489.6 238.9l9.4 9.2-22.9 22.5c-2.6 2.6-6.9 2.6-9.5 0-2.6-2.6-2.6-6.8 0-9.3l23-22.4zM544.5 136c3.5-3.4 9.2-3.4 12.7 0l46.7 45.8c3.5 3.4 3.5 9 0 12.4l-.4.4c-3.3 3.2-8.6 3.2-11.9 0l-40.4 39.6-.5 15.3c-.2 5.6-2.6 11-6.6 15-3.5 3.4-9.2 3.4-12.7 0l-21.4-21-15.7-15.5-21.4-21c-3.5-3.4-3.5-9 0-12.4 4.1-4 9.5-6.3 15.3-6.5l15.6-.5 40.4-39.6c-3.3-3.2-3.3-8.4 0-11.6l.3-.4z"/></g></svg>