<svg version="1.1" id="Layer_1" xmlns="http://www.w3.org/2000/svg" x="0" y="0" viewBox="0 0 725 407.8" xml:space="preserve"><style>.st0{fill:#eaeaea}.st1{fill:#fff}.st2{fill:#ccc}.st6{fill:#eaa803}</style><path class="st0" d="M49.4 267.7h414.4c4.5 0 8.2 3.6 8.2 8.2v92.7c0 4.5-3.6 8.2-8.2 8.2H49.4c-4.5 0-8.2-3.6-8.2-8.2v-92.7c0-4.5 3.6-8.2 8.2-8.2z"/><path class="st1" d="M54.4 276.6h84.4c2.9 0 5.2 2.3 5.2 5.2v82.6c0 2.9-2.3 5.2-5.2 5.2H54.4c-2.9 0-5.2-2.3-5.2-5.2v-82.6c0-2.9 2.4-5.2 5.2-5.2z"/><g id="Artboard_7_"><path id="Fill-1_7_" class="st2" d="M118.1 304.5l-30.8-8.2c-3.9-1.1-8 1.3-9.1 5.4L70 332.4c-1.1 3.9 1.3 8 5.2 9.1l8.9 2.3c-.5-.9-1.1-2-1.3-3.2-.4-1.4-.5-3.2-.5-5v-24c0-.4.2-.7.7-.7l6.4-1.1h.2c.2 0 .4 0 .5.2.2.2.2.4.2.5v7.7h9.1c.4 0 .7.4.7.7v5.4c0 .4-.4.7-.7.7h-9.1v10.6c0 2 .4 3.6.9 4.3.5.7 1.6 1.1 3 1.1 1.1 0 2.1-.2 2.9-.4.9-.2 1.6-.5 2.1-.7h.8c.2.2.4.4.4.5l1.1 5c0 .4-.2.7-.4.9-.7.4-1.8.7-3 1.1l8.4 2.3c3.9 1.1 8-1.3 9.1-5.2l8.2-30.9c.7-3.9-1.8-8-5.7-9.1"/></g><path class="st2" d="M436.5 295.9H162.8c-2.5 0-4.5-2-4.5-4.5s2-4.5 4.5-4.5h273.7c2.5 0 4.5 2 4.5 4.5s-2 4.5-4.5 4.5zm-136.9 22H162.8c-2.5 0-4.5-2-4.5-4.5s2-4.5 4.5-4.5h136.8c2.5 0 4.5 2 4.5 4.5s-1.9 4.5-4.5 4.5zM210.7 359.3h-47.9c-2.5 0-4.5-2-4.5-4.5s2-4.5 4.5-4.5h47.9c2.5 0 4.5 2 4.5 4.5s-1.9 4.5-4.5 4.5z"/><path class="st0" d="M49.4 149.6h414.4c4.5 0 8.2 3.6 8.2 8.2v92.7c0 4.5-3.6 8.2-8.2 8.2H49.4c-4.5 0-8.2-3.6-8.2-8.2v-92.7c0-4.4 3.6-8.2 8.2-8.2z"/><path class="st1" d="M54.4 158.6h84.4c2.9 0 5.2 2.3 5.2 5.2v82.6c0 2.9-2.3 5.2-5.2 5.2H54.4c-2.9 0-5.2-2.3-5.2-5.2v-82.6c0-2.9 2.4-5.2 5.2-5.2z"/><g id="Artboard_6_"><path id="Fill-1_6_" class="st2" d="M118.1 186.5l-30.8-8.2c-3.9-1.1-8 1.3-9.1 5.4L70 214.4c-1.1 3.9 1.3 8 5.2 9.1l8.9 2.3c-.5-.9-1.1-2-1.3-3.2-.4-1.4-.5-3.2-.5-5v-24c0-.4.2-.7.7-.7l6.4-1.1h.2c.2 0 .4 0 .5.2.2.2.2.4.2.5v7.7h9.1c.4 0 .7.4.7.7v5.4c0 .4-.4.7-.7.7h-9.1v10.6c0 2 .4 3.6.9 4.3.5.7 1.6 1.1 3 1.1 1.1 0 2.1-.2 2.9-.4.9-.2 1.6-.5 2.1-.7h.8c.2.2.4.4.4.5l1.1 5c0 .4-.2.7-.4.9-.7.4-1.8.7-3 1.1l8.4 2.3c3.9 1.1 8-1.3 9.1-5.2l8.2-30.9c.7-4-1.8-8.1-5.7-9.1"/></g><path class="st2" d="M436.5 177.9H162.8c-2.5 0-4.5-2-4.5-4.5s2-4.5 4.5-4.5h273.7c2.5 0 4.5 2 4.5 4.5s-2 4.5-4.5 4.5zm-136.9 22H162.8c-2.5 0-4.5-2-4.5-4.5s2-4.5 4.5-4.5h136.8c2.5 0 4.5 2 4.5 4.5s-1.9 4.5-4.5 4.5zM210.7 241.2h-47.9c-2.5 0-4.5-2-4.5-4.5s2-4.5 4.5-4.5h47.9c2.5 0 4.5 2 4.5 4.5s-1.9 4.5-4.5 4.5z"/><g><path d="M49.4 31.6h414.4c4.5 0 8.2 3.6 8.2 8.2v92.7c0 4.5-3.6 8.2-8.2 8.2H49.4c-4.5 0-8.2-3.6-8.2-8.2V39.8c0-4.5 3.6-8.2 8.2-8.2z" fill="#ffc31a"/><path d="M54.4 40.5h84.4c2.9 0 5.2 2.3 5.2 5.2v82.6c0 2.9-2.3 5.2-5.2 5.2H54.4c-2.9 0-5.2-2.3-5.2-5.2V45.7c0-2.9 2.4-5.2 5.2-5.2z" fill="#ffdf69"/><g id="Artboard_5_"><path id="Fill-1_5_" d="M118.1 68.4l-30.8-8.2c-3.9-1.1-8 1.3-9.1 5.4l-8.4 30.8c-1.1 3.9 1.3 8 5.2 9.1l8.9 2.3c-.5-.9-1.1-2-1.3-3.2-.4-1.4-.5-3.2-.5-5v-24c0-.4.2-.7.7-.7l6.4-1.1h.2c.2 0 .4 0 .5.2.2.2.2.4.2.5v7.7h9.1c.4 0 .7.4.7.7v5.4c0 .4-.4.7-.7.7h-9.1v10.6c0 2 .4 3.6.9 4.3s1.6 1.1 3 1.1c1.1 0 2.1-.2 2.9-.4.9-.2 1.6-.5 2.1-.7h.8c.2.2.4.4.4.5l1.1 5c0 .4-.2.7-.4.9-.7.4-1.8.7-3 1.1l8.4 2.3c3.9 1.1 8-1.3 9.1-5.2l8.2-30.9c.9-4-1.6-8.1-5.5-9.2" fill="#fff4cd"/></g><path class="st6" d="M436.5 59.8H162.8c-2.5 0-4.5-2-4.5-4.5s2-4.5 4.5-4.5h273.7c2.5 0 4.5 2 4.5 4.5s-2 4.5-4.5 4.5zM299.6 82H162.8c-2.5 0-4.5-2-4.5-4.5s2-4.5 4.5-4.5h136.8c2.5 0 4.5 2 4.5 4.5s-1.9 4.5-4.5 4.5zM210.7 123.1h-47.9c-2.5 0-4.5-2-4.5-4.5s2-4.5 4.5-4.5h47.9c2.5 0 4.5 2 4.5 4.5s-1.9 4.5-4.5 4.5z"/></g><g><path id="Path-Copy_4_" d="M528.8 45.9c-86.9 0-157 70.1-157 157s70.1 157 157 157 157-70.1 157-157-70.1-157-157-157z" fill-rule="evenodd" clip-rule="evenodd" fill="#fff"/><path id="Combined-Shape_1_" d="M665.4 202.9c0 75.5-61.2 136.7-136.7 136.7-75.5 0-136.7-61.2-136.7-136.7S453.3 66.3 528.8 66.3c75.4 0 136.6 61.2 136.6 136.6z" fill-rule="evenodd" clip-rule="evenodd" fill="#616b77"/><g id="format-color-fill_1_" transform="translate(8 8)"><path id="Shape_3_" class="st1" d="M592.7 211.7s-19.2 20.4-19.2 32.8c0 10.4 8.6 18.8 19.2 18.8s19.2-8.4 19.2-18.8c0-12.5-19.2-32.8-19.2-32.8zm-132.2-14.1l45.9-44.9 45.9 44.9h-91.8zm108.8-9.9l-85.7-83.8-13.5 13.1 22.8 22.3-49.4 48.3c-5.7 5.3-5.7 14.3 0 19.9l52.7 51.6c2.8 2.7 6.5 4.1 10.2 4.1 3.6 0 7.4-1.4 10.2-4.1l52.7-51.6c5.7-5.5 5.7-14.6 0-19.8z"/></g></g></svg>