<svg data-name="Layer 1" xmlns="http://www.w3.org/2000/svg" viewBox="0 0 180 180"><rect width="180" height="180" rx="20" ry="20" fill="#fff"/><path d="M94.28 23h-4.16a4 4 0 0 0-2.44 1l-46.3 41a3.56 3.56 0 0 0-1 2.44v7.23a3.23 3.23 0 0 0 3 3.44h14.55v39.6c0 13.74 2.08 21.07 7.87 26.58C72.31 150.84 84.15 155 97.17 155c12.75 0 23.15-3.07 33.09-10.31a3.22 3.22 0 0 0 1.36-2.71v-22.42a3.62 3.62 0 0 0-1.72-3.07 4.26 4.26 0 0 0-3.44 0c-6.15 3.07-11.66 4.79-17.27 4.79-8.23 0-11.66-4.16-11.66-13.38V77.79h28.39a3.23 3.23 0 0 0 3.44-3.44V56a3.23 3.23 0 0 0-3-3.44H97.62V26c.09-1.27-1.63-3-3.35-3" fill="#ec2c28"/></svg>