<?xml version="1.0" encoding="utf-8"?>
<!-- Generator: Adobe Illustrator 22.0.1, SVG Export Plug-In . SVG Version: 6.00 Build 0)  -->
<svg version="1.1" id="Layer_1" xmlns="http://www.w3.org/2000/svg" xmlns:xlink="http://www.w3.org/1999/xlink" x="0px" y="0px"
	 width="973.9px" height="213.8px" viewBox="0 0 973.9 213.8" style="enable-background:new 0 0 973.9 213.8;" xml:space="preserve"
	>
<style type="text/css">
	.st0{fill:#FFFFFF;}
</style>
<title>img-logo</title>
<path class="st0" d="M187.6,61.1l-84.9,48.7c-1.6,1-2.7,2.8-2.8,4.7v97.4c0,1.7,1.3,2.4,2.8,1.5l84.9-48.7c1.6-1,2.7-2.8,2.8-4.7
	V62.6C190.4,60.9,189.1,60.2,187.6,61.1z M146.5,118.8c0.1-1.8,0.9-3.5,2.3-4.6L161,107c4.2-2.2,7.6,0,8,4.6
	c-2.8,3.6-4.3,8-4.2,12.6v4.9l-18.3,10.3V118.8z M128.9,126l12.2-7.2c1.2-0.8,2.3,0,2.3,1.9v20.6L124.7,152v-4.9
	c0-3.1-1.5-6.1-3.8-6.3C121.3,134,124.7,128.3,128.9,126z M179,131c0,3.8-2.3,8.4-5.3,9.9l-1.9,1.1v4.6c-0.1,1.7-0.9,3.2-2.3,4.2
	c-1.5,0.8-2.3,0-2.3-1.5v-4.6l-43.8,25.2v4.6c0.1,1.7-0.8,3.4-2.3,4.2c-1.5,0.8-2.3,0-2.3-1.5v-4.6l-1.9,1.1c-3,1.9-5.3,0-5.3-3.8
	v-15.6c0-3.8,2.3-8.4,5.3-9.9c3-1.9,5.3,0,5.3,3.8v8.4l45.7-26.3v-8.4c0-3.8,2.3-8.4,5.3-9.9v0c3.1-1.5,5.3,0.4,5.8,3.4V131z"/>
<g>
	<path class="st0" d="M122.8,34.9c-2.7-1.5-7.2-1.9-9.9-0.4c-2.7,1.5-2.3,3.8,0.8,5.7c3,1.5,7.2,1.9,9.9,0.4
		C126.3,39.1,125.9,36.4,122.8,34.9z"/>
	<path class="st0" d="M106,31.6c-4.9-1.5-9.5-2.7-14.5-4.2c-3-0.8-4.2-0.8-6.5,0.4c-8.7,4.9-17.2,9.9-26,14.8
		c-2.3,1.1-2.7,1.9-1.1,3.8c2.3,2.7,4.6,5.3,6.8,8.4c0.8,0.8,1.1,0.8,1.9,0.4c7-3.5,13.4-7.3,19.9-11.1s12.9-7.6,19.9-11.4
		C107.2,32.3,107.2,31.9,106,31.6z"/>
	<path class="st0" d="M80,59.7c-3-1.5-7.6-1.5-9.9-0.4c-2.7,1.5-2.3,3.8,0.4,5.7c2.7,1.5,7.2,1.9,9.9,0.4
		C83.1,63.9,82.7,61.6,80,59.7z"/>
	<path class="st0" d="M182.6,49.7l-84.2-49c-1.7-0.9-3.7-0.9-5.4,0l-84.7,49c-1.5,0.8-1.5,2.2,0,3.1l84.2,49c1.7,0.9,3.7,0.9,5.4,0
		l84.7-49C184.1,52,184.1,50.6,182.6,49.7z M146.4,52.8c-3,1.6-6.6,1.4-9.5-0.4c-1.7-0.8-3.4-1.8-4.9-3c-0.8-0.4-1.1-0.4-2.3,0
		c-6.5,3.5-11.9,6.5-17.2,9.5s-10.7,6.1-16,9.1c-0.8,0.4-1.1,0.8,0,1.5c1.9,1.1,3.4,1.9,5.3,3c2.3,1.5,2.7,3,1.5,4.6
		s-3.8,2.3-6.5,1.9c-1.5,0-3-0.8-4.2-1.1c-1.9-1.1-3.4-1.9-5.3-3c-0.8-0.4-1.1-0.4-1.5,0c-1.1,0.8-2.3,1.1-3.4,1.9
		c-0.4,0.4-1.1,0.4-1.5,0c-5.7-3.4-11.8-6.8-17.6-10.3c-3.4-1.9-4.2-4.6-1.9-6.8c0.2-0.3,0.2-0.8,0-1.1c-2.7-3.4-5.3-6.8-8.4-10.3
		c-2.7-3-2.3-5.3,1.9-7.6c8.7-4.9,17.6-9.9,26.3-15.2c4.2-2.3,7.6-2.7,13.3-1.1c5.7,1.6,11.4,3,17.2,4.6c0.9,0.4,1.8,0.4,2.7,0
		c3.8-0.8,7.2-0.8,10.7,0.8c1.8,0.9,3.6,1.9,5.3,3c4.2,2.7,8.7,4.9,12.9,7.6c0.8,0.4,0.8,0.8,0,1.1c-1.1,0.4-2.2,1-3,1.9
		c-0.8,0.4-0.8,0.8,0,1.1c1.9,1.1,3.4,1.9,5.3,3C148.6,49.4,149,51.3,146.4,52.8z"/>
</g>
<path class="st0" d="M87.7,109.7L2.8,61C1.3,60.1,0,60.8,0,62.5v97.4c0.1,1.9,1.2,3.7,2.8,4.7l84.9,48.7c1.5,0.9,2.8,0.2,2.8-1.5
	v-97.4C90.4,112.5,89.3,110.7,87.7,109.7z M71.9,156.7c-1.9-1.3-3.8-2.4-7.2-4.3c-0.1,14.8-0.2,28.2-0.2,33.9
	c-3.4-1.9-8.4-4.7-13.3-7.7c0.1-6.1,0.1-14.9,0.2-24.8c-3.8-1.9-10.3-5.8-14.1-8.1c-0.1,6.8-0.1,15.7-0.2,24.8
	c-3-1.9-9.9-5.8-13.3-7.7c0.1-10.3,0.1-22.2,0.2-33.2c-1.6-0.9-3.5-2-6.5-3.9c-1.5-0.8-2.3-1.1-1.5-1.9c2.8-1.6,5.5-3.4,8.1-5.3
	l0.1-19.1c0-0.8,0.7-0.8,1.5-0.4l4.2,2.3c0.8,0.5,1.4,1.4,1.5,2.3l-0.1,10.3c5-3,9.6-6.4,12.3-7.9c0.4-0.3,1.1-0.3,1.5,0.8
	c0.4,0,27.6,49.3,27.6,49.3C73.1,157.3,72.7,157.6,71.9,156.7z"/>
<path class="st0" d="M779.8,130.1c-9.9,0-18,8.1-18,18s8.1,18,18,18s18-8.1,18-18S789.7,130.1,779.8,130.1"/>
<path class="st0" d="M287.9,19.2h-4.6c-1,0.1-1.9,0.4-2.7,1.1l-51.2,45.4c-0.7,0.7-1.1,1.7-1.1,2.7v8c-0.1,2,1.4,3.7,3.3,3.8
	c0.2,0,0.3,0,0.5,0h15.6V124c0,15.2,2.3,23.3,8.7,29.4c7.2,7.2,20.3,11.8,34.7,11.8c14.1,0,25.6-3.4,36.6-11.4c1-0.7,1.5-1.8,1.5-3
	V126c0-1.4-0.7-2.7-1.9-3.4c-1.2-0.5-2.6-0.5-3.8,0c-6.8,3.4-12.9,5.3-19.1,5.3c-9.1,0-12.9-4.6-12.9-14.8V79.8h31.4
	c2,0.1,3.7-1.4,3.8-3.3c0-0.2,0-0.3,0-0.5V55.7c0.1-2-1.4-3.7-3.3-3.8c-0.2,0-0.3,0-0.5,0h-31.3V22.5
	C291.7,21.1,289.8,19.2,287.9,19.2"/>
<path class="st0" d="M456.1,52.4h-36.2c-2-0.1-3.7,1.4-3.8,3.3c0,0.2,0,0.3,0,0.5V118c-5.7,8-10.6,11.4-17.2,11.4
	c-11.4,0-12.9-8.4-12.9-16.8V56.1c0.1-2-1.4-3.7-3.3-3.8c-0.2,0-0.3,0-0.5,0h-36.3c-2-0.1-3.7,1.4-3.8,3.3c0,0.2,0,0.3,0,0.5v67.1
	c0,12.6,3.8,41.9,37.7,41.9c15.2,0,27.5-6.1,37.7-19.1c3.4,14.1,11,19.1,28.2,19.1c5.6,0.1,11.2-0.4,16.7-1.5
	c1.2-0.3,2.2-1.2,2.7-2.3l8-21.8c0.4-1.1,0.4-2.7-0.4-3.4c-0.7-1-1.8-1.5-3-1.5h-0.4c-8.4,0-9.9-7.6-9.9-12.2V56.1
	C459.9,54.3,458,52.4,456.1,52.4"/>
<path class="st0" d="M642.5,19.2h-4.6c-1,0.1-1.9,0.4-2.7,1.1l-50.8,45c-0.7,0.7-1.1,1.7-1.1,2.7v8c-0.1,2,1.4,3.7,3.3,3.8
	c0.2,0,0.3,0,0.5,0h15.6v43.8c0,15.2,2.3,23.3,8.7,29.4c7.2,7.2,20.3,11.8,34.7,11.8c14.1,0,25.6-3.4,36.6-11.4c1-0.7,1.5-1.8,1.5-3
	v-24.8c0-1.4-0.7-2.7-1.9-3.4c-1.2-0.5-2.6-0.5-3.8,0c-6.8,3.4-12.9,5.3-19.1,5.3c-9.1,0-12.9-4.6-12.9-14.8V79.4h31.4
	c2,0.1,3.7-1.4,3.8-3.3c0-0.2,0-0.3,0-0.5V55.3c0.1-2-1.4-3.7-3.3-3.8c-0.2,0-0.3,0-0.5,0h-31.2V22.1
	C646,20.4,644.3,19.3,642.5,19.2"/>
<path class="st0" d="M854.7,84.7c-29.8,0-43.1,20.3-43.1,40.4c0,23.3,18,39.7,43.8,39.7c8,0,13.7-1.1,22.2-3.8
	c1.5-0.4,2.6-1.8,2.7-3.4v-16.7c-0.1-1.1-0.7-2.2-1.5-3c-0.7-0.4-1.5-0.7-2.3-0.8c-0.4-0.1-0.8,0.1-1.1,0.4
	c-5.7,1.9-9.5,2.7-14.1,2.7c-11.4,0-19.1-6.1-19.1-14.8c0-9.1,7.2-15.2,18.4-15.2c5,0,9.9,0.9,14.5,2.7c0.4,0,0.8,0.4,1.1,0.4
	c0.8-0.1,1.6-0.4,2.3-0.8c1-0.7,1.5-1.8,1.5-3V92c-0.1-1.7-1.2-3.1-2.7-3.8C870,85.9,862.4,84.7,854.7,84.7"/>
<path class="st0" d="M919.1,63.8h-22.9c-2-0.1-3.7,1.4-3.8,3.3c0,0.2,0,0.3,0,0.5v92.7c-0.1,2,1.4,3.7,3.3,3.8c0.2,0,0.3,0,0.5,0
	h22.9c2,0.1,3.7-1.4,3.8-3.3c0-0.2,0-0.3,0-0.5v-42.7c3.4-4.9,7.6-7.6,11.8-7.6c8,0,8.7,8,8.7,11.4v38.5c-0.1,2,1.4,3.7,3.3,3.8
	c0.2,0,0.3,0,0.5,0h22.9c2,0.1,3.7-1.4,3.8-3.3c0-0.2,0-0.3,0-0.5v-46.5c0-24.8-16.8-28.6-26.7-28.6c-10.3,0-17.6,3.4-24.8,11V67.2
	C922.9,65.3,921.4,63.8,919.1,63.8"/>
<path class="st0" d="M741.7,52.4h-36.2c-2-0.1-3.7,1.4-3.8,3.3c0,0.2,0,0.3,0,0.5v103.7c-0.1,2,1.4,3.7,3.3,3.8c0.2,0,0.3,0,0.5,0
	h36.2c2,0.1,3.7-1.4,3.8-3.3c0-0.2,0-0.3,0-0.5V56.2C745.4,54.1,743.7,52.5,741.7,52.4"/>
<path class="st0" d="M723.5,5c-10.9-0.1-19.8,8.7-19.9,19.6c0,0.1,0,0.2,0,0.3c-0.1,10.9,8.7,19.8,19.6,19.9c0.1,0,0.2,0,0.3,0
	c11,0,19.9-8.9,19.9-19.9S734.5,5,723.5,5"/>
<path class="st0" d="M532.7,19.2h-4.6c-1,0.1-1.9,0.4-2.7,1.1l-51.2,45.4c-0.7,0.7-1.1,1.7-1.1,2.7v8c-0.1,2,1.4,3.7,3.3,3.8
	c0.2,0,0.3,0,0.5,0h15.7V124c0,15.2,2.3,23.3,8.7,29.4c7.2,7.2,20.3,11.8,34.7,11.8c14.1,0,25.6-3.4,36.6-11.4c1-0.7,1.5-1.8,1.5-3
	V126c0-1.4-0.7-2.7-1.9-3.4c-1.2-0.5-2.6-0.5-3.8,0c-6.8,3.4-12.9,5.3-19.1,5.3c-9.1,0-12.9-4.6-12.9-14.8V79.8h31.3
	c2,0.1,3.7-1.4,3.8-3.3c0-0.2,0-0.3,0-0.5V55.7c0.1-2-1.4-3.7-3.3-3.8c-0.2,0-0.3,0-0.5,0h-31.3V22.5
	C536.3,20.6,534.6,19.1,532.7,19.2"/>
</svg>
