<?xml version="1.0" encoding="utf-8"?>
<!-- Generator: Adobe Illustrator 22.1.0, SVG Export Plug-In . SVG Version: 6.00 Build 0)  -->
<svg version="1.1" id="Layer_1" xmlns="http://www.w3.org/2000/svg" xmlns:xlink="http://www.w3.org/1999/xlink" x="0px" y="0px"
	 viewBox="0 0 1274 1067.1" style="enable-background:new 0 0 1274 1067.1;" xml:space="preserve">
<style type="text/css">
	.st0{fill:#ED2C28;}
	.st1{fill:#4C4C4C;}
</style>
<path class="st0" d="M884.9,98.2L529.5,2.9C483.6-9.4,435.9,18.1,423.6,64l-95.2,355.4c-12.2,45.6,15.1,92.9,60.7,105.1L491.3,552
	c-6.5-10.7-11.4-22.9-14.4-36.5c-3.8-17-5.7-36.6-5.7-58.3V181.1c0-4.2,3.1-7.8,7.2-8.5l73.7-12.2c0.5-0.1,0.9-0.1,1.4-0.1
	c2,0,4,0.7,5.6,2.1c1.9,1.6,3.1,4.1,3.1,6.6v87.6H667c4.8,0,8.7,3.9,8.7,8.7v61.6c0,4.8-3.9,8.7-8.7,8.7H562.2v121.2
	c0,23.6,3.5,40.3,10.5,49.7c6.5,8.7,17.7,13,34.5,13c12.6,0,23.8-1.3,33.4-4c9.9-2.7,17.9-5.3,23.8-7.6c1-0.4,2.1-0.6,3.2-0.6
	c1.4,0,2.8,0.3,4.1,1c2.3,1.2,3.9,3.4,4.4,5.9l12.2,58.5c0.8,4-1.3,8.1-5.1,9.7c-8.8,3.8-20.5,7.7-34.6,11.7
	c-0.2,0.1-0.4,0.1-0.6,0.2l97.1,26c45.6,12.2,92.9-15.1,105.1-60.7l95.4-356C957.8,157.7,930.5,110.4,884.9,98.2L884.9,98.2z"/>
<path class="st1" d="M131,1011.7c-0.3-1.6-1.4-3-2.8-3.7c-0.8-0.4-1.7-0.7-2.6-0.7c-0.7,0-1.4,0.1-2.1,0.4
	c-3.7,1.5-8.8,3.1-15.2,4.9c-6.1,1.7-13.3,2.5-21.3,2.5c-10.7,0-17.9-2.7-22.1-8.3c-4.5-6-6.7-16.7-6.7-31.8v-77.5h67
	c3.1,0,5.5-2.5,5.5-5.5v-39.4c0-3.1-2.5-5.5-5.5-5.5h-67V791c0-1.6-0.7-3.2-2-4.2c-1-0.9-2.3-1.3-3.6-1.3c-0.3,0-0.6,0-0.9,0.1
	l-47.2,7.8C2,793.8,0,796.1,0,798.8v176.6c0,13.9,1.2,26.4,3.6,37.3c2.5,11.3,6.9,21.1,13.1,29.1c6.3,8.2,14.9,14.5,25.5,18.7
	c10.4,4.1,23.3,6.2,38.5,6.2c12.4,0,23.4-1.3,32.7-3.9c9-2.5,16.5-5,22.1-7.5c2.4-1,3.8-3.6,3.2-6.2L131,1011.7L131,1011.7z"/>
<path class="st1" d="M131,1011.7c-0.3-1.6-1.4-3-2.8-3.7c-0.8-0.4-1.7-0.7-2.6-0.7c-0.7,0-1.4,0.1-2.1,0.4
	c-3.7,1.5-8.8,3.1-15.2,4.9c-6.1,1.7-13.3,2.5-21.3,2.5c-10.7,0-17.9-2.7-22.1-8.3c-4.5-6-6.7-16.7-6.7-31.8v-77.5h67
	c3.1,0,5.5-2.5,5.5-5.5v-39.4c0-3.1-2.5-5.5-5.5-5.5h-67V791c0-1.6-0.7-3.2-2-4.2c-1-0.9-2.3-1.3-3.6-1.3c-0.3,0-0.6,0-0.9,0.1
	l-47.2,7.8C2,793.8,0,796.1,0,798.8v176.6c0,13.9,1.2,26.4,3.6,37.3c2.5,11.3,6.9,21.1,13.1,29.1c6.3,8.2,14.9,14.5,25.5,18.7
	c10.4,4.1,23.3,6.2,38.5,6.2c12.4,0,23.4-1.3,32.7-3.9c9-2.5,16.5-5,22.1-7.5c2.4-1,3.8-3.6,3.2-6.2L131,1011.7L131,1011.7z"/>
<path class="st1" d="M131,1011.7c-0.3-1.6-1.4-3-2.8-3.7c-0.8-0.4-1.7-0.7-2.6-0.7c-0.7,0-1.4,0.1-2.1,0.4
	c-3.7,1.5-8.8,3.1-15.2,4.9c-6.1,1.7-13.3,2.5-21.3,2.5c-10.7,0-17.9-2.7-22.1-8.3c-4.5-6-6.7-16.7-6.7-31.8v-77.5h67
	c3.1,0,5.5-2.5,5.5-5.5v-39.4c0-3.1-2.5-5.5-5.5-5.5h-67V791c0-1.6-0.7-3.2-2-4.2c-1-0.9-2.3-1.3-3.6-1.3c-0.3,0-0.6,0-0.9,0.1
	l-47.2,7.8C2,793.8,0,796.1,0,798.8v176.6c0,13.9,1.2,26.4,3.6,37.3c2.5,11.3,6.9,21.1,13.1,29.1c6.3,8.2,14.9,14.5,25.5,18.7
	c10.4,4.1,23.3,6.2,38.5,6.2c12.4,0,23.4-1.3,32.7-3.9c9-2.5,16.5-5,22.1-7.5c2.4-1,3.8-3.6,3.2-6.2L131,1011.7L131,1011.7z
	 M341.8,847.1h-47.2c-3.1,0-5.5,2.5-5.5,5.5v160.3c-2.5,0.4-5.5,0.7-9.1,1c-6.2,0.5-12.1,0.8-17.7,0.8c-14,0-23.4-3.8-28.8-11.6
	c-5.7-8.4-8.6-23.1-8.6-43.7V852.6c0-3.1-2.5-5.5-5.5-5.5h-47.2c-3.1,0-5.5,2.5-5.5,5.5v114.2c0,14.2,1.5,27.4,4.5,39.3
	c3,12.3,8.2,23,15.3,31.9c7.2,9,16.8,16.1,28.7,21.1c11.7,4.9,26.2,7.5,43.3,7.5c17.6,0,34.1-1.3,48.9-3.8
	c14.6-2.5,26.7-4.9,35.9-7.3c2.4-0.6,4.2-2.8,4.2-5.4V852.6C347.3,849.6,344.8,847.1,341.8,847.1L341.8,847.1z"/>
<path class="st1" d="M341.8,847.1h-47.2c-3.1,0-5.5,2.5-5.5,5.5v160.3c-2.5,0.4-5.5,0.7-9.1,1c-6.2,0.5-12.1,0.8-17.7,0.8
	c-14,0-23.4-3.8-28.8-11.6c-5.7-8.4-8.6-23.1-8.6-43.7V852.6c0-3.1-2.5-5.5-5.5-5.5h-47.2c-3.1,0-5.5,2.5-5.5,5.5v114.2
	c0,14.2,1.5,27.4,4.5,39.3c3,12.3,8.2,23,15.3,31.9c7.2,9,16.8,16.1,28.7,21.1c11.7,4.9,26.2,7.5,43.3,7.5c17.6,0,34.1-1.3,48.9-3.8
	c14.6-2.5,26.7-4.9,35.9-7.3c2.4-0.6,4.2-2.8,4.2-5.4V852.6C347.3,849.6,344.8,847.1,341.8,847.1L341.8,847.1z"/>
<path class="st1" d="M341.8,847.1h-47.2c-3.1,0-5.5,2.5-5.5,5.5v160.3c-2.5,0.4-5.5,0.7-9.1,1c-6.2,0.5-12.1,0.8-17.7,0.8
	c-14,0-23.4-3.8-28.8-11.6c-5.7-8.4-8.6-23.1-8.6-43.7V852.6c0-3.1-2.5-5.5-5.5-5.5h-47.2c-3.1,0-5.5,2.5-5.5,5.5v114.2
	c0,14.2,1.5,27.4,4.5,39.3c3,12.3,8.2,23,15.3,31.9c7.2,9,16.8,16.1,28.7,21.1c11.7,4.9,26.2,7.5,43.3,7.5c17.6,0,34.1-1.3,48.9-3.8
	c14.6-2.5,26.7-4.9,35.9-7.3c2.4-0.6,4.2-2.8,4.2-5.4V852.6C347.3,849.6,344.8,847.1,341.8,847.1L341.8,847.1z M513.9,1011.7
	c-0.3-1.6-1.4-3-2.8-3.7c-0.8-0.4-1.7-0.7-2.6-0.7c-0.7,0-1.4,0.1-2.1,0.4c-3.7,1.5-8.8,3.1-15.2,4.9c-6.1,1.7-13.3,2.5-21.3,2.5
	c-10.7,0-17.9-2.7-22.1-8.3c-4.5-6-6.7-16.7-6.7-31.8v-77.5h67c3.1,0,5.5-2.5,5.5-5.5v-39.4c0-3.1-2.5-5.5-5.5-5.5h-67V791
	c0-1.6-0.7-3.2-2-4.2c-1-0.9-2.3-1.3-3.6-1.3c-0.3,0-0.6,0-0.9,0.1l-47.2,7.8c-2.7,0.4-4.6,2.8-4.6,5.5v176.6
	c0,13.9,1.2,26.4,3.6,37.3c2.5,11.3,6.9,21.1,13.1,29.1c6.3,8.2,14.9,14.5,25.5,18.7c10.4,4.1,23.3,6.2,38.5,6.2
	c12.4,0,23.4-1.3,32.7-3.9c9-2.5,16.5-5,22.1-7.5c2.4-1,3.8-3.6,3.2-6.2L513.9,1011.7z"/>
<path class="st1" d="M513.9,1011.7c-0.3-1.6-1.4-3-2.8-3.7c-0.8-0.4-1.7-0.7-2.6-0.7c-0.7,0-1.4,0.1-2.1,0.4
	c-3.7,1.5-8.8,3.1-15.2,4.9c-6.1,1.7-13.3,2.5-21.3,2.5c-10.7,0-17.9-2.7-22.1-8.3c-4.5-6-6.7-16.7-6.7-31.8v-77.5h67
	c3.1,0,5.5-2.5,5.5-5.5v-39.4c0-3.1-2.5-5.5-5.5-5.5h-67V791c0-1.6-0.7-3.2-2-4.2c-1-0.9-2.3-1.3-3.6-1.3c-0.3,0-0.6,0-0.9,0.1
	l-47.2,7.8c-2.7,0.4-4.6,2.8-4.6,5.5v176.6c0,13.9,1.2,26.4,3.6,37.3c2.5,11.3,6.9,21.1,13.1,29.1c6.3,8.2,14.9,14.5,25.5,18.7
	c10.4,4.1,23.3,6.2,38.5,6.2c12.4,0,23.4-1.3,32.7-3.9c9-2.5,16.5-5,22.1-7.5c2.4-1,3.8-3.6,3.2-6.2L513.9,1011.7L513.9,1011.7z"/>
<path class="st1" d="M513.9,1011.7c-0.3-1.6-1.4-3-2.8-3.7c-0.8-0.4-1.7-0.7-2.6-0.7c-0.7,0-1.4,0.1-2.1,0.4
	c-3.7,1.5-8.8,3.1-15.2,4.9c-6.1,1.7-13.3,2.5-21.3,2.5c-10.7,0-17.9-2.7-22.1-8.3c-4.5-6-6.7-16.7-6.7-31.8v-77.5h67
	c3.1,0,5.5-2.5,5.5-5.5v-39.4c0-3.1-2.5-5.5-5.5-5.5h-67V791c0-1.6-0.7-3.2-2-4.2c-1-0.9-2.3-1.3-3.6-1.3c-0.3,0-0.6,0-0.9,0.1
	l-47.2,7.8c-2.7,0.4-4.6,2.8-4.6,5.5v176.6c0,13.9,1.2,26.4,3.6,37.3c2.5,11.3,6.9,21.1,13.1,29.1c6.3,8.2,14.9,14.5,25.5,18.7
	c10.4,4.1,23.3,6.2,38.5,6.2c12.4,0,23.4-1.3,32.7-3.9c9-2.5,16.5-5,22.1-7.5c2.4-1,3.8-3.6,3.2-6.2L513.9,1011.7L513.9,1011.7z
	 M678.7,1011.7c-0.3-1.6-1.4-3-2.8-3.7c-0.8-0.4-1.7-0.7-2.6-0.7c-0.7,0-1.4,0.1-2.1,0.4c-3.7,1.5-8.8,3.1-15.2,4.9
	c-6.1,1.7-13.3,2.5-21.3,2.5c-10.7,0-17.9-2.7-22.1-8.3c-4.5-6-6.7-16.7-6.7-31.8v-77.5h67c3.1,0,5.5-2.5,5.5-5.5v-39.4
	c0-3.1-2.5-5.5-5.5-5.5h-67V791c0-1.6-0.7-3.2-2-4.2c-1-0.9-2.3-1.3-3.6-1.3c-0.3,0-0.6,0-0.9,0.1l-47.2,7.8
	c-2.7,0.4-4.6,2.8-4.6,5.5v176.6c0,13.9,1.2,26.4,3.6,37.3c2.5,11.3,6.9,21.1,13.1,29.1c6.3,8.2,14.9,14.5,25.5,18.7
	c10.4,4.1,23.3,6.2,38.5,6.2c12.4,0,23.4-1.3,32.7-3.9c9-2.5,16.5-5,22.1-7.5c2.4-1,3.8-3.6,3.2-6.2L678.7,1011.7L678.7,1011.7z"/>
<path class="st1" d="M678.7,1011.7c-0.3-1.6-1.4-3-2.8-3.7c-0.8-0.4-1.7-0.7-2.6-0.7c-0.7,0-1.4,0.1-2.1,0.4
	c-3.7,1.5-8.8,3.1-15.2,4.9c-6.1,1.7-13.3,2.5-21.3,2.5c-10.7,0-17.9-2.7-22.1-8.3c-4.5-6-6.7-16.7-6.7-31.8v-77.5h67
	c3.1,0,5.5-2.5,5.5-5.5v-39.4c0-3.1-2.5-5.5-5.5-5.5h-67V791c0-1.6-0.7-3.2-2-4.2c-1-0.9-2.3-1.3-3.6-1.3c-0.3,0-0.6,0-0.9,0.1
	l-47.2,7.8c-2.7,0.4-4.6,2.8-4.6,5.5v176.6c0,13.9,1.2,26.4,3.6,37.3c2.5,11.3,6.9,21.1,13.1,29.1c6.3,8.2,14.9,14.5,25.5,18.7
	c10.4,4.1,23.3,6.2,38.5,6.2c12.4,0,23.4-1.3,32.7-3.9c9-2.5,16.5-5,22.1-7.5c2.4-1,3.8-3.6,3.2-6.2L678.7,1011.7L678.7,1011.7z"/>
<path class="st1" d="M678.7,1011.7c-0.3-1.6-1.4-3-2.8-3.7c-0.8-0.4-1.7-0.7-2.6-0.7c-0.7,0-1.4,0.1-2.1,0.4
	c-3.7,1.5-8.8,3.1-15.2,4.9c-6.1,1.7-13.3,2.5-21.3,2.5c-10.7,0-17.9-2.7-22.1-8.3c-4.5-6-6.7-16.7-6.7-31.8v-77.5h67
	c3.1,0,5.5-2.5,5.5-5.5v-39.4c0-3.1-2.5-5.5-5.5-5.5h-67V791c0-1.6-0.7-3.2-2-4.2c-1-0.9-2.3-1.3-3.6-1.3c-0.3,0-0.6,0-0.9,0.1
	l-47.2,7.8c-2.7,0.4-4.6,2.8-4.6,5.5v176.6c0,13.9,1.2,26.4,3.6,37.3c2.5,11.3,6.9,21.1,13.1,29.1c6.3,8.2,14.9,14.5,25.5,18.7
	c10.4,4.1,23.3,6.2,38.5,6.2c12.4,0,23.4-1.3,32.7-3.9c9-2.5,16.5-5,22.1-7.5c2.4-1,3.8-3.6,3.2-6.2L678.7,1011.7L678.7,1011.7z
	 M742.2,758.2c-9.4,0-17.6,3.1-24.4,9.2c-6.9,6.3-10.4,14.9-10.4,25.5c0,10.4,3.5,18.9,10.4,25.1c6.7,6.1,14.9,9.2,24.4,9.2
	c9.2,0,17.3-3.1,24-9.2c6.9-6.3,10.4-14.7,10.4-25.1c0-10.7-3.5-19.3-10.4-25.5C759.5,761.3,751.4,758.2,742.2,758.2z"/>
<path class="st1" d="M742.2,758.2c-9.4,0-17.6,3.1-24.4,9.2c-6.9,6.3-10.4,14.9-10.4,25.5c0,10.4,3.5,18.9,10.4,25.1
	c6.7,6.1,14.9,9.2,24.4,9.2c9.2,0,17.3-3.1,24-9.2c6.9-6.3,10.4-14.7,10.4-25.1c0-10.7-3.5-19.3-10.4-25.5
	C759.5,761.3,751.4,758.2,742.2,758.2z"/>
<path class="st1" d="M742.2,758.2c-9.4,0-17.6,3.1-24.4,9.2c-6.9,6.3-10.4,14.9-10.4,25.5c0,10.4,3.5,18.9,10.4,25.1
	c6.7,6.1,14.9,9.2,24.4,9.2c9.2,0,17.3-3.1,24-9.2c6.9-6.3,10.4-14.7,10.4-25.1c0-10.7-3.5-19.3-10.4-25.5
	C759.5,761.3,751.4,758.2,742.2,758.2z M766,847.1h-47.2c-3.1,0-5.5,2.5-5.5,5.5v203.9c0,3.1,2.5,5.5,5.5,5.5H766
	c3.1,0,5.5-2.5,5.5-5.5V852.6C771.6,849.6,769.1,847.1,766,847.1L766,847.1z"/>
<path class="st1" d="M766,847.1h-47.2c-3.1,0-5.5,2.5-5.5,5.5v203.9c0,3.1,2.5,5.5,5.5,5.5H766c3.1,0,5.5-2.5,5.5-5.5V852.6
	C771.6,849.6,769.1,847.1,766,847.1z"/>
<path class="st1" d="M766,847.1h-47.2c-3.1,0-5.5,2.5-5.5,5.5v203.9c0,3.1,2.5,5.5,5.5,5.5H766c3.1,0,5.5-2.5,5.5-5.5V852.6
	C771.6,849.6,769.1,847.1,766,847.1z M840.5,994.1c-10.3,0-19.1,3.5-26.1,10.3c-7.1,6.9-10.6,15.8-10.6,26.4s3.6,19.5,10.7,26.2
	c7,6.7,15.8,10.1,26,10.1c10,0,18.7-3.4,25.8-10.1c7.2-6.8,10.9-15.6,10.9-26.3c0-10.6-3.7-19.5-10.9-26.4
	C859.2,997.5,850.5,994.1,840.5,994.1L840.5,994.1z"/>
<path class="st1" d="M840.5,994.1c-10.3,0-19.1,3.5-26.1,10.3c-7.1,6.9-10.6,15.8-10.6,26.4s3.6,19.5,10.7,26.2
	c7,6.7,15.8,10.1,26,10.1c10,0,18.7-3.4,25.8-10.1c7.2-6.8,10.9-15.6,10.9-26.3c0-10.6-3.7-19.5-10.9-26.4
	C859.2,997.5,850.5,994.1,840.5,994.1L840.5,994.1z"/>
<path class="st1" d="M840.5,994.1c-10.3,0-19.1,3.5-26.1,10.3c-7.1,6.9-10.6,15.8-10.6,26.4s3.6,19.5,10.7,26.2
	c7,6.7,15.8,10.1,26,10.1c10,0,18.7-3.4,25.8-10.1c7.2-6.8,10.9-15.6,10.9-26.3c0-10.6-3.7-19.5-10.9-26.4
	C859.2,997.5,850.5,994.1,840.5,994.1L840.5,994.1z M1060.2,1012.5c-0.3-1.6-1.3-3-2.7-3.8c-0.8-0.5-1.7-0.7-2.6-0.7
	c-0.7,0-1.4,0.1-2.1,0.4c-5.3,2.2-11.6,4-18.9,5.4c-7.3,1.5-14.8,2.2-22.3,2.2c-19.3,0-33.1-5.2-40.9-15.3
	c-8.2-10.6-12.3-25.4-12.3-44c0-19.3,4.3-34.3,12.9-44.6c8.4-10.2,20.6-15.1,37.2-15.1c7.2,0,14.1,0.7,20.5,2.2
	c6.4,1.5,12.2,3.3,17.3,5.4c0.7,0.3,1.4,0.4,2.1,0.4c0.8,0,1.6-0.2,2.4-0.6c1.4-0.7,2.5-2,2.9-3.5l10-37.9c0.7-2.6-0.7-5.4-3.2-6.4
	c-17.4-7.1-36.2-10.7-55.7-10.7c-16,0-30.7,2.9-43.6,8.5c-12.9,5.6-24,13.6-33.1,23.6c-9,9.9-16,21.8-20.8,35.4
	c-4.8,13.4-7.2,28-7.2,43.4c0,15.6,2.1,30.2,6.4,43.6c4.3,13.6,10.9,25.5,19.7,35.3c8.8,9.9,20,17.7,33.4,23.3
	c13.3,5.5,29,8.3,46.7,8.3c11.1,0,22.2-1.1,33.1-3.2c10.9-2.2,19-4.6,24.6-7.4c2.1-1.1,3.3-3.4,2.9-5.8L1060.2,1012.5L1060.2,1012.5
	z"/>
<path class="st1" d="M1060.2,1012.5c-0.3-1.6-1.3-3-2.7-3.8c-0.8-0.5-1.7-0.7-2.6-0.7c-0.7,0-1.4,0.1-2.1,0.4
	c-5.3,2.2-11.6,4-18.9,5.4c-7.3,1.5-14.8,2.2-22.3,2.2c-19.3,0-33.1-5.2-40.9-15.3c-8.2-10.6-12.3-25.4-12.3-44
	c0-19.3,4.3-34.3,12.9-44.6c8.4-10.2,20.6-15.1,37.2-15.1c7.2,0,14.1,0.7,20.5,2.2c6.4,1.5,12.2,3.3,17.3,5.4
	c0.7,0.3,1.4,0.4,2.1,0.4c0.8,0,1.6-0.2,2.4-0.6c1.4-0.7,2.5-2,2.9-3.5l10-37.9c0.7-2.6-0.7-5.4-3.2-6.4
	c-17.4-7.1-36.2-10.7-55.7-10.7c-16,0-30.7,2.9-43.6,8.5c-12.9,5.6-24,13.6-33.1,23.6c-9,9.9-16,21.8-20.8,35.4
	c-4.8,13.4-7.2,28-7.2,43.4c0,15.6,2.1,30.2,6.4,43.6c4.3,13.6,10.9,25.5,19.7,35.3c8.8,9.9,20,17.7,33.4,23.3
	c13.3,5.5,29,8.3,46.7,8.3c11.1,0,22.2-1.1,33.1-3.2c10.9-2.2,19-4.6,24.6-7.4c2.1-1.1,3.3-3.4,2.9-5.8L1060.2,1012.5L1060.2,1012.5
	z"/>
<path class="st1" d="M1060.2,1012.5c-0.3-1.6-1.3-3-2.7-3.8c-0.8-0.5-1.7-0.7-2.6-0.7c-0.7,0-1.4,0.1-2.1,0.4
	c-5.3,2.2-11.6,4-18.9,5.4c-7.3,1.5-14.8,2.2-22.3,2.2c-19.3,0-33.1-5.2-40.9-15.3c-8.2-10.6-12.3-25.4-12.3-44
	c0-19.3,4.3-34.3,12.9-44.6c8.4-10.2,20.6-15.1,37.2-15.1c7.2,0,14.1,0.7,20.5,2.2c6.4,1.5,12.2,3.3,17.3,5.4
	c0.7,0.3,1.4,0.4,2.1,0.4c0.8,0,1.6-0.2,2.4-0.6c1.4-0.7,2.5-2,2.9-3.5l10-37.9c0.7-2.6-0.7-5.4-3.2-6.4
	c-17.4-7.1-36.2-10.7-55.7-10.7c-16,0-30.7,2.9-43.6,8.5c-12.9,5.6-24,13.6-33.1,23.6c-9,9.9-16,21.8-20.8,35.4
	c-4.8,13.4-7.2,28-7.2,43.4c0,15.6,2.1,30.2,6.4,43.6c4.3,13.6,10.9,25.5,19.7,35.3c8.8,9.9,20,17.7,33.4,23.3
	c13.3,5.5,29,8.3,46.7,8.3c11.1,0,22.2-1.1,33.1-3.2c10.9-2.2,19-4.6,24.6-7.4c2.1-1.1,3.3-3.4,2.9-5.8L1060.2,1012.5L1060.2,1012.5
	z M1269.8,905.2c-2.9-12-7.8-22.4-14.6-31.1c-6.9-8.7-16.2-15.6-27.6-20.4c-11.2-4.7-25.4-7.1-42.2-7.1c-6.9,0-14,0.7-21.1,2
	c-4.1,0.8-7.9,1.6-11.4,2.6v-91.9c0-1.6-0.7-3.1-1.9-4.1c-1-0.8-2.2-1.3-3.5-1.3c-0.3,0-0.6,0-0.9,0.1l-46.4,7.7
	c-2.6,0.4-4.6,2.7-4.6,5.4v289.7c0,3,2.4,5.4,5.4,5.4h46.4c3,0,5.4-2.4,5.4-5.4V901.4c2.6-0.7,5.9-1.4,9.8-2.2
	c6-1.2,12-1.8,17.7-1.8c7.2,0,13.2,1,17.9,2.9c4.4,1.8,7.8,4.5,10.4,8.4c2.8,4.1,4.8,9.6,6.1,16.3c1.3,7.2,2,16.1,2,26.4v105.4
	c0,3,2.4,5.4,5.4,5.4h46.4c3,0,5.4-2.4,5.4-5.4V944C1274,929.9,1272.6,916.8,1269.8,905.2L1269.8,905.2z"/>
<path class="st1" d="M1269.8,905.2c-2.9-12-7.8-22.4-14.6-31.1c-6.9-8.7-16.2-15.6-27.6-20.4c-11.2-4.7-25.4-7.1-42.2-7.1
	c-6.9,0-14,0.7-21.1,2c-4.1,0.8-7.9,1.6-11.4,2.6v-91.9c0-1.6-0.7-3.1-1.9-4.1c-1-0.8-2.2-1.3-3.5-1.3c-0.3,0-0.6,0-0.9,0.1
	l-46.4,7.7c-2.6,0.4-4.6,2.7-4.6,5.4v289.7c0,3,2.4,5.4,5.4,5.4h46.4c3,0,5.4-2.4,5.4-5.4V901.4c2.6-0.7,5.9-1.4,9.8-2.2
	c6-1.2,12-1.8,17.7-1.8c7.2,0,13.2,1,17.9,2.9c4.4,1.8,7.8,4.5,10.4,8.4c2.8,4.1,4.8,9.6,6.1,16.3c1.3,7.2,2,16.1,2,26.4v105.4
	c0,3,2.4,5.4,5.4,5.4h46.4c3,0,5.4-2.4,5.4-5.4V944C1274,929.9,1272.6,916.8,1269.8,905.2L1269.8,905.2z"/>
<path class="st1" d="M1269.8,905.2c-2.9-12-7.8-22.4-14.6-31.1c-6.9-8.7-16.2-15.6-27.6-20.4c-11.2-4.7-25.4-7.1-42.2-7.1
	c-6.9,0-14,0.7-21.1,2c-4.1,0.8-7.9,1.6-11.4,2.6v-91.9c0-1.6-0.7-3.1-1.9-4.1c-1-0.8-2.2-1.3-3.5-1.3c-0.3,0-0.6,0-0.9,0.1
	l-46.4,7.7c-2.6,0.4-4.6,2.7-4.6,5.4v289.7c0,3,2.4,5.4,5.4,5.4h46.4c3,0,5.4-2.4,5.4-5.4V901.4c2.6-0.7,5.9-1.4,9.8-2.2
	c6-1.2,12-1.8,17.7-1.8c7.2,0,13.2,1,17.9,2.9c4.4,1.8,7.8,4.5,10.4,8.4c2.8,4.1,4.8,9.6,6.1,16.3c1.3,7.2,2,16.1,2,26.4v105.4
	c0,3,2.4,5.4,5.4,5.4h46.4c3,0,5.4-2.4,5.4-5.4V944C1274,929.9,1272.6,916.8,1269.8,905.2L1269.8,905.2z"/>
<path class="st1" d="M131,1011.7c-0.3-1.6-1.4-3-2.8-3.7c-0.8-0.4-1.7-0.7-2.6-0.7c-0.7,0-1.4,0.1-2.1,0.4
	c-3.7,1.5-8.8,3.1-15.2,4.9c-6.1,1.7-13.3,2.5-21.3,2.5c-10.7,0-17.9-2.7-22.1-8.3c-4.5-6-6.7-16.7-6.7-31.8v-77.5h67
	c3.1,0,5.5-2.5,5.5-5.5v-39.4c0-3.1-2.5-5.5-5.5-5.5h-67V791c0-1.6-0.7-3.2-2-4.2c-1-0.9-2.3-1.3-3.6-1.3c-0.3,0-0.6,0-0.9,0.1
	l-47.2,7.8C2,793.8,0,796.1,0,798.8v176.6c0,13.9,1.2,26.4,3.6,37.3c2.5,11.3,6.9,21.1,13.1,29.1c6.3,8.2,14.9,14.5,25.5,18.7
	c10.4,4.1,23.3,6.2,38.5,6.2c12.4,0,23.4-1.3,32.7-3.9c9-2.5,16.5-5,22.1-7.5c2.4-1,3.8-3.6,3.2-6.2L131,1011.7L131,1011.7z
	 M341.8,847.1h-47.2c-3.1,0-5.5,2.5-5.5,5.5v160.3c-2.5,0.4-5.5,0.7-9.1,1c-6.2,0.5-12.1,0.8-17.7,0.8c-14,0-23.4-3.8-28.8-11.6
	c-5.7-8.4-8.6-23.1-8.6-43.7V852.6c0-3.1-2.5-5.5-5.5-5.5h-47.2c-3.1,0-5.5,2.5-5.5,5.5v114.2c0,14.2,1.5,27.4,4.5,39.3
	c3,12.3,8.2,23,15.3,31.9c7.2,9,16.8,16.1,28.7,21.1c11.7,4.9,26.2,7.5,43.3,7.5c17.6,0,34.1-1.3,48.9-3.8
	c14.6-2.5,26.7-4.9,35.9-7.3c2.4-0.6,4.2-2.8,4.2-5.4V852.6C347.3,849.6,344.8,847.1,341.8,847.1L341.8,847.1z M513.9,1011.7
	c-0.3-1.6-1.4-3-2.8-3.7c-0.8-0.4-1.7-0.7-2.6-0.7c-0.7,0-1.4,0.1-2.1,0.4c-3.7,1.5-8.8,3.1-15.2,4.9c-6.1,1.7-13.3,2.5-21.3,2.5
	c-10.7,0-17.9-2.7-22.1-8.3c-4.5-6-6.7-16.7-6.7-31.8v-77.5h67c3.1,0,5.5-2.5,5.5-5.5v-39.4c0-3.1-2.5-5.5-5.5-5.5h-67V791
	c0-1.6-0.7-3.2-2-4.2c-1-0.9-2.3-1.3-3.6-1.3c-0.3,0-0.6,0-0.9,0.1l-47.2,7.8c-2.7,0.4-4.6,2.8-4.6,5.5v176.6
	c0,13.9,1.2,26.4,3.6,37.3c2.5,11.3,6.9,21.1,13.1,29.1c6.3,8.2,14.9,14.5,25.5,18.7c10.4,4.1,23.3,6.2,38.5,6.2
	c12.4,0,23.4-1.3,32.7-3.9c9-2.5,16.5-5,22.1-7.5c2.4-1,3.8-3.6,3.2-6.2L513.9,1011.7z M678.7,1011.7c-0.3-1.6-1.4-3-2.8-3.7
	c-0.8-0.4-1.7-0.7-2.6-0.7c-0.7,0-1.4,0.1-2.1,0.4c-3.7,1.5-8.8,3.1-15.2,4.9c-6.1,1.7-13.3,2.5-21.3,2.5c-10.7,0-17.9-2.7-22.1-8.3
	c-4.5-6-6.7-16.7-6.7-31.8v-77.5h67c3.1,0,5.5-2.5,5.5-5.5v-39.4c0-3.1-2.5-5.5-5.5-5.5h-67V791c0-1.6-0.7-3.2-2-4.2
	c-1-0.9-2.3-1.3-3.6-1.3c-0.3,0-0.6,0-0.9,0.1l-47.2,7.8c-2.7,0.4-4.6,2.8-4.6,5.5v176.6c0,13.9,1.2,26.4,3.6,37.3
	c2.5,11.3,6.9,21.1,13.1,29.1c6.3,8.2,14.9,14.5,25.5,18.7c10.4,4.1,23.3,6.2,38.5,6.2c12.4,0,23.4-1.3,32.7-3.9
	c9-2.5,16.5-5,22.1-7.5c2.4-1,3.8-3.6,3.2-6.2L678.7,1011.7L678.7,1011.7z M742.2,758.2c-9.4,0-17.6,3.1-24.4,9.2
	c-6.9,6.3-10.4,14.9-10.4,25.5c0,10.4,3.5,18.9,10.4,25.1c6.7,6.1,14.9,9.2,24.4,9.2c9.2,0,17.3-3.1,24-9.2
	c6.9-6.3,10.4-14.7,10.4-25.1c0-10.7-3.5-19.3-10.4-25.5C759.5,761.3,751.4,758.2,742.2,758.2z M766,847.1h-47.2
	c-3.1,0-5.5,2.5-5.5,5.5v203.9c0,3.1,2.5,5.5,5.5,5.5H766c3.1,0,5.5-2.5,5.5-5.5V852.6C771.6,849.6,769.1,847.1,766,847.1z
	 M840.5,994.1c-10.3,0-19.1,3.5-26.1,10.3c-7.1,6.9-10.6,15.8-10.6,26.4s3.6,19.5,10.7,26.2c7,6.7,15.8,10.1,26,10.1
	c10,0,18.7-3.4,25.8-10.1c7.2-6.8,10.9-15.6,10.9-26.3c0-10.6-3.7-19.5-10.9-26.4C859.2,997.5,850.5,994.1,840.5,994.1L840.5,994.1z
	 M1060.2,1012.5c-0.3-1.6-1.3-3-2.7-3.8c-0.8-0.5-1.7-0.7-2.6-0.7c-0.7,0-1.4,0.1-2.1,0.4c-5.3,2.2-11.6,4-18.9,5.4
	c-7.3,1.5-14.8,2.2-22.3,2.2c-19.3,0-33.1-5.2-40.9-15.3c-8.2-10.6-12.3-25.4-12.3-44c0-19.3,4.3-34.3,12.9-44.6
	c8.4-10.2,20.6-15.1,37.2-15.1c7.2,0,14.1,0.7,20.5,2.2c6.4,1.5,12.2,3.3,17.3,5.4c0.7,0.3,1.4,0.4,2.1,0.4c0.8,0,1.6-0.2,2.4-0.6
	c1.4-0.7,2.5-2,2.9-3.5l10-37.9c0.7-2.6-0.7-5.4-3.2-6.4c-17.4-7.1-36.2-10.7-55.7-10.7c-16,0-30.7,2.9-43.6,8.5
	c-12.9,5.6-24,13.6-33.1,23.6c-9,9.9-16,21.8-20.8,35.4c-4.8,13.4-7.2,28-7.2,43.4c0,15.6,2.1,30.2,6.4,43.6
	c4.3,13.6,10.9,25.5,19.7,35.3c8.8,9.9,20,17.7,33.4,23.3c13.3,5.5,29,8.3,46.7,8.3c11.1,0,22.2-1.1,33.1-3.2
	c10.9-2.2,19-4.6,24.6-7.4c2.1-1.1,3.3-3.4,2.9-5.8L1060.2,1012.5L1060.2,1012.5z M1269.8,905.2c-2.9-12-7.8-22.4-14.6-31.1
	c-6.9-8.7-16.2-15.6-27.6-20.4c-11.2-4.7-25.4-7.1-42.2-7.1c-6.9,0-14,0.7-21.1,2c-4.1,0.8-7.9,1.6-11.4,2.6v-91.9
	c0-1.6-0.7-3.1-1.9-4.1c-1-0.8-2.2-1.3-3.5-1.3c-0.3,0-0.6,0-0.9,0.1l-46.4,7.7c-2.6,0.4-4.6,2.7-4.6,5.4v289.7c0,3,2.4,5.4,5.4,5.4
	h46.4c3,0,5.4-2.4,5.4-5.4V901.4c2.6-0.7,5.9-1.4,9.8-2.2c6-1.2,12-1.8,17.7-1.8c7.2,0,13.2,1,17.9,2.9c4.4,1.8,7.8,4.5,10.4,8.4
	c2.8,4.1,4.8,9.6,6.1,16.3c1.3,7.2,2,16.1,2,26.4v105.4c0,3,2.4,5.4,5.4,5.4h46.4c3,0,5.4-2.4,5.4-5.4V944
	C1274,929.9,1272.6,916.8,1269.8,905.2L1269.8,905.2z"/>
</svg>
