<svg xmlns="http://www.w3.org/2000/svg" viewBox="0 0 508 508"><path d="M456.2 80.1L166.1 2.3c-37.4-9.8-76.2 12.4-86.3 49.8L2.3 341.6c-9.8 37.1 12.4 75.5 49.5 85.7l83.5 22.5c-5.1-8.6-8.9-18.4-11.4-29.5-3.2-14.3-4.8-29.8-4.8-47.6V148c0-3.8 2.2-6.7 5.7-7l60.3-9.8h1c1.9 0 3.2 1 4.8 1.9 1.3 1 2.2 3.2 2.2 5.1v71.7h84.7c3.8 0 7 3.2 7 7v49.8c0 3.8-3.2 7-7 7h-85.1v98.4c0 19.4 2.9 33 8.6 40.6 5.7 7 14.6 10.5 28.2 10.5 10.5 0 19.7-1 27.3-3.2 7.9-2.2 14.6-4.1 19.4-6 1-.3 1.9-.3 2.9-.3s2.2.3 3.2 1c1.9 1 3.2 2.9 3.8 4.8l9.8 47.9c.3 3.2-1.3 6.7-4.1 7.9-7 2.9-16.8 6-28.2 9.5l77.8 20.9c37.1 9.8 75.8-12.4 85.7-49.5l78.7-290.4c9.7-37.5-12.5-75.9-49.6-85.7z" fill="#fff"/></svg>