<?xml version="1.0" encoding="utf-8"?>
<!-- Generator: Adobe Illustrator 22.0.1, SVG Export Plug-In . SVG Version: 6.00 Build 0)  -->
<svg version="1.1" id="Layer_1" xmlns="http://www.w3.org/2000/svg" xmlns:xlink="http://www.w3.org/1999/xlink" x="0px" y="0px"
	 width="613.8px" height="629.8px" viewBox="0 0 613.8 629.8" style="enable-background:new 0 0 613.8 629.8;" xml:space="preserve"
	>
<style type="text/css">
	.st0{fill:#F2F2F2;}
	.st1{fill:#BFBFBF;}
	.st2{fill:#52B532;}
	.st3{fill:#FFFFFF;}
</style>
<g>
	<circle class="st0" cx="296.9" cy="332.9" r="294.2"/>
	<g>
		<g>
			<path class="st1" d="M433.4,173.6h-55.7v-36.2c0-7-5.6-12.5-12.5-12.5h-135c-8.4-1.4-13.9,4.2-13.9,12.5v36.2h-55.7
				c-15.3,0-27.8,12.5-27.8,27.8v20.9v26.5h25.1v264.5c0,15.3,12.5,27.8,27.8,27.8h222.8c16.7,0,27.8-12.5,27.8-27.8V248.8h25.1
				v-26.5v-20.9C461.2,186.1,448.7,173.6,433.4,173.6z M242.6,149.9h108.6v23.7H242.6C242.6,173.6,242.6,149.9,242.6,149.9z
				 M411.1,511.9c0,1.4-1.4,2.8-2.8,2.8H185.5c-1.4,0-2.8,0-2.8-2.8V247.4h228.3V511.9L411.1,511.9z M436.1,222.3H157.7v-20.9
				c0-1.4,1.4-2.8,2.8-2.8h272.9c1.4,0,2.8,1.4,2.8,2.8V222.3L436.1,222.3z"/>
			<rect x="344.3" y="278" class="st1" width="26.5" height="213"/>
			<rect x="284.4" y="278" class="st1" width="26.5" height="213"/>
			<rect x="224.5" y="278" class="st1" width="26.5" height="213"/>
		</g>
	</g>
</g>
<g>
	<defs>
		<circle id="SVGID_1_" cx="297.2" cy="332.4" r="294.2"/>
	</defs>
	<clipPath id="SVGID_2_">
		<use xlink:href="#SVGID_1_"  style="overflow:visible;"/>
	</clipPath>
</g>
<g>
	<circle class="st2" cx="525.8" cy="85.1" r="82.9"/>
	<path class="st3" d="M505.5,134.5H505c-2.3,0-4.4-1.2-6-2.8L471.1,98c-2.8-3.5-2.3-8.5,0.9-11.3c3.5-2.8,8.5-2.3,11.3,0.9l22.4,27
		l62.3-62.1c3-3.3,8.3-3.3,11.3,0c3,3,3,8.3,0,11.3l-68.4,68.2C509.5,133.8,507.6,134.5,505.5,134.5z"/>
</g>
</svg>
