<?xml version="1.0" encoding="utf-8"?>
<!-- Generator: Adobe Illustrator 22.0.1, SVG Export Plug-In . SVG Version: 6.00 Build 0)  -->
<svg version="1.1" id="Layer_1" xmlns="http://www.w3.org/2000/svg" xmlns:xlink="http://www.w3.org/1999/xlink" x="0px" y="0px"
	 width="453px" height="449.7px" viewBox="0 0 453 449.7" style="enable-background:new 0 0 453 449.7;" xml:space="preserve">
<style type="text/css">
	.st0{fill:#CCEAF9;}
	.st1{fill:#29ABE2;}
	.st2{opacity:0.76;fill:#FFFFFF;enable-background:new    ;}
	.st3{opacity:0.36;enable-background:new    ;}
	.st4{fill:#FFFFFF;}
</style>
<g>
	<circle class="st0" cx="226.9" cy="224.7" r="223"/>
	<g>
		<g>
			<g>
				<g id="layer1">
					<path id="path2417" class="st1" d="M170.2,281.6c-4.7-4.3-16.3-12.5-25.7-18.2c-27.8-16.8-31.6-19.3-43.1-27.8
						c-21.1-15.8-31.2-32.8-33.7-57c-1.2-11.8-0.9-16.5,1.7-23.8c4.4-12.4,11.8-22,21.8-28.5c7.1-4.6,10.6-6.7,23.1-8
						c13.1-1.4,16-0.2,24.1,3.3c9.9,4.2,20.7,14.2,23.5,21.8l1.7,4.7l2.4-7c13.3-39.3,68.1-44.4,91.1-8.5c7.3,11.4,11.8,34,6.7,52.1
						c-5,19.6-16.7,35.4-44.8,60.6c-18.4,16.5-38.7,40.7-40,44C177.8,293,179.2,289.8,170.2,281.6z"/>
					<g id="g2221" transform="translate(129.28571,-64.285714)">
					</g>
				</g>
				<g>
					<path class="st2" d="M180.4,295.5c0.1,6.7,0.7,12.9,1.9,20.3c2.9,18.1,6.4,23.6,8.9,47.5c1.4,13.6,1.4,23.2,3.2,36.8
						c2.4,17.4,6.9,46.1,6.9,46.1l0.5,0.1c0,0-1.4-12.1-2.3-18.3c-0.8-5.3-1.6-9.9-2.5-15.2c-2.3-13.5-3.2-22.2-4.3-36.7
						c-0.7-9.5-1.3-16.6-2.7-26c-2.1-14-8.7-37.1-8.9-52.9C181,295.5,180.3,293.4,180.4,295.5L180.4,295.5z"/>
					<path class="st1" d="M179,287.7l8.3,8l-13.3,2l2.7-9.4L179,287.7z"/>
				</g>
			</g>
			<g class="st3">
				<path class="st4" d="M92.2,203.5c-1.5,0-3-0.8-3.8-2.2c-10.6-19.6-10-39.8,1.8-54.1c14.8-18.3,35.2-16.4,44-12.8
					c2.2,0.9,3.2,3.4,2.4,5.6c-0.9,2.2-3.4,3.2-5.6,2.4c-0.8-0.3-19.8-7.5-34.2,10.3C87.3,164,87,180.7,96,197.2
					c1.1,2.1,0.4,4.7-1.7,5.8C93.6,203.3,92.9,203.5,92.2,203.5z"/>
			</g>
		</g>
		<g>
			<g>
				<g id="layer1_1_">
					<path id="path2417_1_" class="st1" d="M291.5,351.3c-2.1-4-7.9-12.3-12.7-18.4c-14.5-18-16.4-20.6-22-29.1
						c-10.3-15.7-12.9-29.5-8.6-46.3c2.1-8.2,3.4-11.2,6.9-15.5c6-7.2,13.2-11.9,21.5-13.8c5.9-1.3,8.7-1.9,17.4,0.3
						c9.1,2.2,10.7,3.8,15.3,8c5.6,5.2,10.4,14.5,10.4,20.3v3.6l3.3-4.1c18.5-23.1,56.4-13.1,63,16.5c2.1,9.4,0.2,26.9-8.2,36.5
						c-8.1,11.9-19.8,19.6-44.7,29.6c-16.3,6.6-35.8,17.8-37.4,19.7C293.8,360.7,295.5,358.9,291.5,351.3z"/>
					<g id="g2221_1_" transform="translate(129.28571,-64.285714)">
					</g>
				</g>
				<g>
					<path class="st2" d="M294.9,363c-1.6,4.5-2.7,8.8-3.7,14c-2.5,12.8-1.5,17.3-5.6,33.9c-2.4,9.5-4.7,15.9-6.8,25.4
						c-0.4,1.9-1.1,5.5-1.1,5.5l0.5-0.1c0,0,2.9-13.3,5.3-21.9c1.8-6.5,3.1-11.4,4.5-18.1c2-9.9,3.2-26.9,6.9-37.6
						C295.3,363.1,295.4,361.6,294.9,363L294.9,363z"/>
					<path class="st1" d="M296,356.7l3.5,8.1l-12.1-1l6.7-6.5L296,356.7z"/>
				</g>
			</g>
			<g class="st3">
				<path class="st4" d="M261.3,286.4c-2.2,0-4.2-1.6-4.5-3.9c-2.4-17.1,3.5-31.8,15.8-39.2c15.9-9.4,30.5-2.5,36.1,2.4
					c1.9,1.7,2,4.5,0.3,6.4c-1.7,1.9-4.5,2-6.4,0.4c-0.5-0.4-11.4-9.7-25.4-1.4c-9.3,5.6-13.5,16.6-11.5,30.2
					c0.4,2.5-1.4,4.8-3.8,5.1C261.7,286.4,261.5,286.4,261.3,286.4z"/>
			</g>
		</g>
	</g>
</g>
</svg>
