<svg id="Layer_1" xmlns="http://www.w3.org/2000/svg" width="453" height="449.7"><style>.st1{fill:#29abe2}.st2,.st3{enable-background:new}.st2{fill:#fff;opacity:.76}.st3{opacity:.36}.st4{fill:#fff}</style><circle cx="226.9" cy="224.7" r="223" fill="#cceaf9"/><g id="layer1"><path id="path2417" class="st1" d="M170.2 281.6c-4.7-4.3-16.3-12.5-25.7-18.2-27.8-16.8-31.6-19.3-43.1-27.8-21.1-15.8-31.2-32.8-33.7-57-1.2-11.8-.9-16.5 1.7-23.8 4.4-12.4 11.8-22 21.8-28.5 7.1-4.6 10.6-6.7 23.1-8 13.1-1.4 16-.2 24.1 3.3 9.9 4.2 20.7 14.2 23.5 21.8l1.7 4.7 2.4-7c13.3-39.3 68.1-44.4 91.1-8.5 7.3 11.4 11.8 34 6.7 52.1-5 19.6-16.7 35.4-44.8 60.6-18.4 16.5-38.7 40.7-40 44-1.2 3.7.2.5-8.8-7.7z"/></g><path class="st2" d="M180.4 295.5c.1 6.7.7 12.9 1.9 20.3 2.9 18.1 6.4 23.6 8.9 47.5 1.4 13.6 1.4 23.2 3.2 36.8 2.4 17.4 6.9 46.1 6.9 46.1l.5.1s-1.4-12.1-2.3-18.3c-.8-5.3-1.6-9.9-2.5-15.2-2.3-13.5-3.2-22.2-4.3-36.7-.7-9.5-1.3-16.6-2.7-26-2.1-14-8.7-37.1-8.9-52.9-.1-1.7-.8-3.8-.7-1.7z"/><path class="st1" d="M179 287.7l8.3 8-13.3 2 2.7-9.4 2.3-.6z"/><g class="st3"><path class="st4" d="M92.2 203.5c-1.5 0-3-.8-3.8-2.2-10.6-19.6-10-39.8 1.8-54.1 14.8-18.3 35.2-16.4 44-12.8 2.2.9 3.2 3.4 2.4 5.6-.9 2.2-3.4 3.2-5.6 2.4-.8-.3-19.8-7.5-34.2 10.3-9.5 11.3-9.8 28-.8 44.5 1.1 2.1.4 4.7-1.7 5.8-.7.3-1.4.5-2.1.5z"/></g><g id="layer1_1_"><path id="path2417_1_" class="st1" d="M291.5 351.3c-2.1-4-7.9-12.3-12.7-18.4-14.5-18-16.4-20.6-22-29.1-10.3-15.7-12.9-29.5-8.6-46.3 2.1-8.2 3.4-11.2 6.9-15.5 6-7.2 13.2-11.9 21.5-13.8 5.9-1.3 8.7-1.9 17.4.3 9.1 2.2 10.7 3.8 15.3 8 5.6 5.2 10.4 14.5 10.4 20.3v3.6l3.3-4.1c18.5-23.1 56.4-13.1 63 16.5 2.1 9.4.2 26.9-8.2 36.5-8.1 11.9-19.8 19.6-44.7 29.6-16.3 6.6-35.8 17.8-37.4 19.7-1.9 2.1-.2.3-4.2-7.3z"/></g><path class="st2" d="M294.9 363c-1.6 4.5-2.7 8.8-3.7 14-2.5 12.8-1.5 17.3-5.6 33.9-2.4 9.5-4.7 15.9-6.8 25.4-.4 1.9-1.1 5.5-1.1 5.5l.5-.1s2.9-13.3 5.3-21.9c1.8-6.5 3.1-11.4 4.5-18.1 2-9.9 3.2-26.9 6.9-37.6.4-1 .5-2.5 0-1.1z"/><path class="st1" d="M296 356.7l3.5 8.1-12.1-1 6.7-6.5 1.9-.6z"/><g class="st3"><path class="st4" d="M261.3 286.4c-2.2 0-4.2-1.6-4.5-3.9-2.4-17.1 3.5-31.8 15.8-39.2 15.9-9.4 30.5-2.5 36.1 2.4 1.9 1.7 2 4.5.3 6.4-1.7 1.9-4.5 2-6.4.4-.5-.4-11.4-9.7-25.4-1.4-9.3 5.6-13.5 16.6-11.5 30.2.4 2.5-1.4 4.8-3.8 5.1h-.6z"/></g></svg>