<?xml version="1.0" encoding="utf-8"?>
<!-- Generator: Adobe Illustrator 22.0.1, SVG Export Plug-In . SVG Version: 6.00 Build 0)  -->
<svg version="1.1" id="Layer_1" xmlns="http://www.w3.org/2000/svg" xmlns:xlink="http://www.w3.org/1999/xlink" x="0px" y="0px"
	 width="600px" height="479.5px" viewBox="0 0 600 479.5" style="enable-background:new 0 0 600 479.5;" xml:space="preserve">
<style type="text/css">
	.st0{fill:#FFFFFF;}
	.st1{opacity:7.000000e-02;}
</style>
<g>
	<path class="st0" d="M489.5,122.8c0-60.6-49.1-109.6-109.6-109.6c-41.3,0-77.3,22.9-96,56.7H156.5v293l133.4-70.6l133.4,70.6V223.4
		C462.3,206.6,489.5,167.9,489.5,122.8z M407,336.7l-109.9-58.2l-7.9-3.9l-7.8,3.9L172.9,336V86.2h103.8
		c-4.1,11.5-6.4,23.7-6.4,36.6c0,60.5,49.1,109.6,109.6,109.6c9.4,0,18.4-1.3,27.1-3.5V336.7z M426.2,130.3h-38.3v38.3h-16.5v-38.3
		h-38.3v-16.5h38.3V75.6h16.5v38.3h38.3V130.3z"/>
	<ellipse class="st1" cx="289" cy="459" rx="179" ry="16"/>
</g>
</svg>
