<?xml version="1.0" encoding="utf-8"?>
<!-- Generator: Adobe Illustrator 22.0.1, SVG Export Plug-In . SVG Version: 6.00 Build 0)  -->
<svg version="1.1" id="Layer_1" xmlns="http://www.w3.org/2000/svg" xmlns:xlink="http://www.w3.org/1999/xlink" x="0px" y="0px"
	 width="600px" height="404.4px" viewBox="0 0 600 404.4" style="enable-background:new 0 0 600 404.4;" xml:space="preserve">
<style type="text/css">
	.st0{fill:#FFFFFF;}
	.st1{fill:#808080;}
	.st2{fill:#666666;}
	.st3{font-family:'Helvetica-Light';}
	.st4{font-size:29.8682px;}
	.st5{fill:#A5C563;}
	.st6{fill:#7787C2;}
	.st7{fill:#5FB4DF;}
	.st8{fill:#89AAD9;}
	.st9{opacity:8.000000e-02;fill:#666666;}
</style>
<g>
	<g>
		<g>
			<path class="st0" d="M170.8,93.5c-3.6,0-6.6-3-6.6-6.6V23.2c0-3.6,3-6.6,6.6-6.6h280.3c3.6,0,6.6,3,6.6,6.6v63.7
				c0,3.6-3,6.6-6.6,6.6H170.8z"/>
			<path class="st1" d="M451.1,17.5c3.2,0,5.7,2.6,5.7,5.7v63.7c0,3.2-2.6,5.7-5.7,5.7H170.8c-3.2,0-5.7-2.6-5.7-5.7V23.2
				c0-3.2,2.6-5.7,5.7-5.7H451.1 M451.1,15.7H170.8c-4.1,0-7.5,3.4-7.5,7.5v63.7c0,4.1,3.4,7.5,7.5,7.5h280.3c4.1,0,7.5-3.4,7.5-7.5
				V23.2C458.6,19.1,455.2,15.7,451.1,15.7L451.1,15.7z"/>
		</g>
		<text transform="matrix(1 0 0 1 248.1025 64.3018)" class="st2 st3 st4">Fahrzeuge</text>
		<polygon class="st2" points="435.8,59.5 431.2,55 435.8,50.5 434.1,48.9 429.6,53.4 425.1,48.9 423.5,50.5 428,55 423.5,59.5 
			425.1,61.2 429.6,56.7 434.1,61.2 		"/>
		<g>
			<path class="st5" d="M231.5,55.1c0,14.4-11.6,26-26,26c-14.4,0-26-11.6-26-26s11.6-26,26-26C219.9,29.1,231.5,40.7,231.5,55.1"/>
			<path class="st0" d="M205.5,62.7c-2.9,0-6.1,0-9,0c-0.5,0-0.7,0.2-0.7,0.7c0,0.9,0,1.9,0,2.8c0,1.2-0.7,2.1-1.7,2.4
				c-1,0.3-2.1,0-2.8-0.9c-0.3-0.5-0.5-1-0.5-1.6c0-0.9,0-1.9,0-2.8c0-0.3-0.2-0.5-0.5-0.5c-0.7,0-1.2,0-1.9,0c-0.3,0-0.5,0-0.5-0.3
				c0-3.1,0-6.1,0-9.2c0-1.7,1-3.1,2.8-3.6c0.3-0.2,0.3-0.3,0.5-0.5c0.9-2.3,1.7-4.5,2.6-6.8c0.9-2.1,1.9-2.9,4.2-2.9
				c4.9,0,9.9,0,14.7,0c2.3,0,3.5,0.9,4.3,2.9c0.9,2.3,1.7,4.3,2.6,6.6c0.2,0.3,0.3,0.5,0.7,0.7c1.6,0.5,2.4,1.6,2.6,3.3
				c0.2,0.9,0,1.7,0,2.8c0,2.3,0,4.5,0,6.8c0,0.5-0.2,0.5-0.5,0.5c-0.5,0-1.2,0-1.7,0c-0.3,0-0.5,0.2-0.5,0.5c0,0.9,0,1.7,0,2.8
				c0,1.6-1,2.6-2.4,2.6s-2.4-1-2.6-2.6c0-0.9,0-1.7,0-2.6c0-0.5-0.2-0.5-0.5-0.5C211.6,62.7,208.6,62.7,205.5,62.7 M205.5,49.4
				c3.6,0,7.5,0,11.1,0c0.5,0,0.5-0.2,0.3-0.5c-0.7-1.9-1.4-3.6-2.1-5.6c-0.3-1.2-0.9-1.4-2.1-1.4c-4.9,0-9.7,0-14.6,0
				c-1.2,0-1.7,0.2-2.1,1.4c-0.7,1.9-1.4,3.6-2.1,5.6c-0.2,0.5,0,0.5,0.3,0.5C198.1,49.4,201.9,49.4,205.5,49.4 M193.4,52
				c-1.4,0-2.6,1.2-2.6,2.6c0,1.6,1.2,2.6,2.6,2.6c1.4,0,2.6-1.2,2.6-2.6S194.8,52,193.4,52 M220.3,54.6c0-1.6-1.2-2.6-2.6-2.6
				s-2.6,1.2-2.6,2.8c0,1.6,1.2,2.6,2.6,2.6S220.3,56.1,220.3,54.6"/>
		</g>
	</g>
	<g>
		<g>
			<g>
				<path class="st0" d="M337.4,190.9c-3.6,0-6.6-3-6.6-6.6v-63.7c0-3.6,3-6.6,6.6-6.6h245.2c3.6,0,6.6,3,6.6,6.6v63.7
					c0,3.6-3,6.6-6.6,6.6H337.4z"/>
				<path class="st1" d="M582.5,114.9c3.2,0,5.7,2.6,5.7,5.7v63.7c0,3.2-2.6,5.7-5.7,5.7H337.4c-3.2,0-5.7-2.6-5.7-5.7v-63.7
					c0-3.2,2.6-5.7,5.7-5.7H582.5 M582.5,113.1H337.4c-4.1,0-7.5,3.4-7.5,7.5v63.7c0,4.1,3.4,7.5,7.5,7.5h245.2
					c4.1,0,7.5-3.4,7.5-7.5v-63.7C590,116.5,586.6,113.1,582.5,113.1L582.5,113.1z"/>
			</g>
			<text transform="matrix(1 0 0 1 414.6445 161.7021)" class="st2 st3 st4">Handys</text>
			<polygon class="st2" points="567.2,156.9 562.7,152.4 567.2,147.9 565.6,146.3 561.1,150.8 556.6,146.3 554.9,147.9 559.4,152.4 
				554.9,156.9 556.6,158.6 561.1,154.1 565.6,158.6 			"/>
			<g>
				<path class="st6" d="M397.7,152.5c0,14.4-11.6,25.9-25.9,25.9s-25.9-11.6-25.9-25.9c0-14.4,11.6-25.9,25.9-25.9
					S397.7,138.2,397.7,152.5"/>
				<path class="st0" d="M380.9,134.4h-18.3c-0.9,0-1.2,0.7-1.2,1.6v33.4c0,0.9,0.5,1.2,1.2,1.2h18.5c0.9,0,1.7-0.3,1.7-1.2v-33.4
					C382.7,134.9,381.8,134.4,380.9,134.4z M366.6,137.6c-1.4,0-1.4-1.4,0-1.4C367.9,136.3,367.9,137.6,366.6,137.6z M371.9,170
					c-2.6,0-2.6-3.5,0-3.5C374.7,166.5,374.7,170,371.9,170z M364,140.1c4,0,15.1,0,16.4,0c0,7.1-0.3,20.9-0.3,24.9
					c-3.1,0-14.7,0-16.1,0C364,161,364,146.5,364,140.1z M374.7,138.3h-5.4c-1.4,0-1.4-2.6,0-2.6h5.4V138.3z"/>
			</g>
		</g>
		<g>
			<g>
				<path class="st0" d="M17.5,190.9c-3.6,0-6.6-3-6.6-6.6v-63.7c0-3.6,3-6.6,6.6-6.6h284.3c3.6,0,6.6,3,6.6,6.6v63.7
					c0,3.6-3,6.6-6.6,6.6H17.5z"/>
				<path class="st1" d="M301.7,114.9c3.2,0,5.7,2.6,5.7,5.7v63.7c0,3.2-2.6,5.7-5.7,5.7H17.5c-3.2,0-5.7-2.6-5.7-5.7v-63.7
					c0-3.2,2.6-5.7,5.7-5.7H301.7 M301.7,113.1H17.5c-4.1,0-7.5,3.4-7.5,7.5v63.7c0,4.1,3.4,7.5,7.5,7.5h284.3
					c4.1,0,7.5-3.4,7.5-7.5v-63.7C309.2,116.5,305.8,113.1,301.7,113.1L301.7,113.1z"/>
			</g>
			<text transform="matrix(1 0 0 1 92.2705 161.7021)" class="st2 st3 st4">Immobilien</text>
			<polygon class="st2" points="286.4,156.9 281.9,152.4 286.4,147.9 284.8,146.3 280.2,150.8 275.7,146.3 274.1,147.9 278.6,152.4 
				274.1,156.9 275.7,158.6 280.2,154.1 284.8,158.6 			"/>
			<g>
				<g id="Ebene_1_2_">
					<path class="st7" d="M77.4,152.6c0,14.2-11.5,25.7-25.7,25.7s-25.7-11.5-25.7-25.7c0-14.2,11.5-25.7,25.7-25.7
						S77.4,138.4,77.4,152.6"/>
					<g>
						<path class="st0" d="M64.4,151.6c0,6.7,0,13,0,15.6c-2.1,0-5,0-8,0c0-2.7,0-7.4,0-11.5c-2.4,0-6.3,0-8.6,0c0,2.7,0,7.2,0,11.3
							c-2.1,0-5.5,0-8.2,0c0-4.8,0-10.1,0-15.2c-1.4,0-2.2,0-4.1,0c-0.9,0-1.5,0-1-0.5c1.9-1.7,13-12.3,16.8-15.6
							c0.3-0.2,0.5-0.2,0.9,0.2l17,15.2c0.3,0.3,0.2,0.5-0.3,0.5C67.9,151.6,66.5,151.6,64.4,151.6z"/>
						<path class="st0" d="M43.5,149c0,0.3-0.2,0.2-0.7,0.2h-2.6c-0.5,0-0.7,0.2-0.7-0.2v-11c0-0.3,0.3-0.9,0.7-0.9h2.6
							c0.5,0,0.7,0.5,0.7,0.9V149z"/>
					</g>
				</g>
			</g>
		</g>
	</g>
	<g>
		<g>
			<path class="st0" d="M170.8,288.3c-3.6,0-6.6-3-6.6-6.6V218c0-3.6,3-6.6,6.6-6.6h306c3.6,0,6.6,3,6.6,6.6v63.7
				c0,3.6-3,6.6-6.6,6.6H170.8z"/>
			<path class="st1" d="M476.8,212.3c3.2,0,5.7,2.6,5.7,5.7v63.7c0,3.2-2.6,5.7-5.7,5.7h-306c-3.2,0-5.7-2.6-5.7-5.7V218
				c0-3.2,2.6-5.7,5.7-5.7H476.8 M476.8,210.5h-306c-4.1,0-7.5,3.4-7.5,7.5v63.7c0,4.1,3.4,7.5,7.5,7.5h306c4.1,0,7.5-3.4,7.5-7.5
				V218C484.3,213.9,480.9,210.5,476.8,210.5L476.8,210.5z"/>
		</g>
		<g>
			<path class="st8" d="M231.3,249.8c0,14.4-11.6,26-26,26s-26-11.6-26-26c0-14.4,11.6-26,26-26S231.3,235.4,231.3,249.8"/>
			<g id="camera_2_">
				<g>
					<path class="st0" d="M211.9,236.5c0.5,0.5,0.7,1.6,1,2.4c0.3,0.7,0.5,1.9,1,2.3c1.2,0.7,3.6,0,5.6,0.3c1,0.3,1.9,1,2.3,2.4
						c0.3,1,0,2.8,0,4.3c0,2.9,0,5.9,0,8.8c0,1.6,0.2,3.3,0,4.2c-0.3,0.9-0.9,1.4-1.6,1.9c-2.3,0.7-4.9,0.3-7.5,0.3
						c-5.2,0-10.2,0-15.6,0c-2.3,0-6.1,0.3-7.6-0.3c-1.4-1.2-1.6-3.3-1.6-6.4c0-2.8,0-5.7,0-8.7c0-1.4,0-3.1,0.3-4.2
						c0.3-1,1.2-1.7,2.1-2.3c1-0.2,2.1-0.2,3.1-0.2c0.9,0,2.1,0.2,2.9-0.2c1.4-0.9,0.9-4.7,2.9-5c2.1-0.5,4.3-0.3,6.4-0.3
						c1,0,2.1,0,3.1,0C210.1,236,211,236,211.9,236.5z M206.8,259.9c3.8-0.7,7.5-4.3,6.9-9.4c-0.3-3.5-3.1-6.2-6.2-7.1
						c-0.9-0.2-1.9-0.3-2.9-0.2c-1.7,0.2-3.5,0.9-4.7,1.9c-1.6,1-2.6,2.9-2.9,4.7c-0.5,2.6,0.2,4.7,1.4,6.8
						C200.3,258.7,203,260.6,206.8,259.9z M216.4,246c0.2,1.4,2.4,1.4,2.4,0c0-0.7-0.5-1.6-1.7-1.2
						C216.7,245.2,216.4,245.3,216.4,246z"/>
					<path class="st0" d="M206,256.6c-2.1,0.2-3.3-0.5-4.5-1.6c-0.9-1-1.6-2.8-1-4.9c0.2-0.9,0.5-1.6,1-2.3s1.2-1,3.1-1.4
						c3.5-0.2,6.2,2.4,5.6,6.1C210,254.5,208.2,256.4,206,256.6z"/>
				</g>
			</g>
		</g>
		<text transform="matrix(1 0 0 1 245.5283 259.1016)" class="st2 st3 st4">Foto &amp; Video</text>
		<polygon class="st2" points="461.5,254.3 457,249.8 461.5,245.3 459.9,243.7 455.4,248.2 450.9,243.7 449.2,245.3 453.7,249.8 
			449.2,254.3 450.9,256 455.4,251.5 459.9,256 		"/>
	</g>
</g>
<ellipse class="st9" cx="300" cy="388" rx="130.8" ry="9.4"/>
</svg>
