<svg xmlns="http://www.w3.org/2000/svg" width="600" height="479.5"><path d="M489.5 122.8c0-60.6-49.1-109.6-109.6-109.6-41.3 0-77.3 22.9-96 56.7H156.5v293l133.4-70.6 133.4 70.6V223.4c39-16.8 66.2-55.5 66.2-100.6zM407 336.7l-109.9-58.2-7.9-3.9-7.8 3.9L172.9 336V86.2h103.8c-4.1 11.5-6.4 23.7-6.4 36.6 0 60.5 49.1 109.6 109.6 109.6 9.4 0 18.4-1.3 27.1-3.5v107.8zm19.2-206.4h-38.3v38.3h-16.5v-38.3h-38.3v-16.5h38.3V75.6h16.5v38.3h38.3v16.4z" fill="#fff"/><ellipse cx="289" cy="459" rx="179" ry="16" opacity=".07"/></svg>