<?xml version="1.0" encoding="utf-8"?>
<!-- Generator: Adobe Illustrator 22.0.1, SVG Export Plug-In . SVG Version: 6.00 Build 0)  -->
<svg version="1.1" id="Layer_1" xmlns="http://www.w3.org/2000/svg" xmlns:xlink="http://www.w3.org/1999/xlink" x="0px" y="0px"
	 width="600px" height="489.7px" viewBox="0 0 600 489.7" style="enable-background:new 0 0 600 489.7;" xml:space="preserve">
<style type="text/css">
	.st0{fill:#FFFFFF;}
	.st1{fill:none;stroke:#CCCCCC;stroke-width:3.3447;stroke-miterlimit:10;}
	.st2{fill:#99D6F4;}
</style>
<g>
	<polygon class="st0" points="583,332.1 580.4,329.8 575.1,329.3 572.8,326.6 571.7,323.1 572.3,321.4 573.7,320.1 574.9,317.9 
		575.2,315.3 575.1,313.2 575.6,311.6 577.7,310.2 579.2,307.9 578.9,305.3 578,302.7 577.8,300 580.5,296.7 581.3,295.5 
		581.7,293.8 582.4,287.9 582.1,284 583.6,277.8 583,274.7 581.9,273.3 577.6,269.9 575,265.7 573.6,264.3 573.6,264.3 573,263.8 
		572.3,263.7 571.6,263.8 567.9,265.9 564.7,269.6 562.6,273.8 562.5,277.2 559.3,277.4 556.9,276.7 554.9,277.1 552.9,280.3 
		552.3,282.7 552.3,284.2 551.9,285.6 550.6,287.5 545.1,290.3 541.9,291.2 539.3,291.1 533.8,289.4 531,287.7 526.1,283.1 
		512.6,278.8 509.5,276.4 507.9,274.1 507.7,272.4 508.1,270.4 508.4,266.1 509,264.3 509,263.2 508.5,262.7 507.7,262.7 
		507.2,262.3 507.4,260.2 483.6,252.7 481.5,252.4 474.9,253.2 472.5,252.5 470,253.4 462.3,252.1 459.4,251.3 459.3,249.5 
		460.7,247.6 462.7,245.6 463.9,243.1 463.8,239.2 462.8,236.2 461.4,233.6 460.4,230.5 460.7,224.3 462.9,218.1 465,214.5 
		469,207.7 473.3,202.5 473.8,201.2 474.5,198 475,196.3 479.9,190.2 481.2,187.3 481.2,179.5 477.6,176.3 473,174.2 469.2,168.6 
		468.3,164.2 468.3,164.2 433.8,142.7 428.9,141.5 424.2,141.5 422.4,138.9 415.5,138.9 401.5,137.3 399.1,138.2 397.1,140.4 
		392.5,141.9 387.6,142.3 384.5,141.5 380.8,138.8 379,136.9 379,135.6 381.2,135.1 378,132 373.9,129.6 370.5,129.5 369.4,133.1 
		370.4,134.3 363.7,134.4 363.5,133.2 363.2,131.7 362.2,130.5 361.7,129 362.1,127.7 363.7,125.2 364.1,124.5 363.2,122.6 
		362,122.4 360.6,122.7 359.3,122.4 358.4,120.9 357.4,118.8 356.2,116.9 354.5,116.4 353.4,117.6 352.8,121.6 351.2,122.7 
		350,121.7 349.5,119.5 349.4,117.1 349.2,115.7 346.9,114.6 343.8,114.5 341.8,115.6 342.9,118.6 341,119.5 334.2,120.9 
		332.9,120.8 331.9,121.4 330.1,123.9 329.5,125.3 328.6,129 327.3,130.3 324.1,132 322.8,133.4 322.7,134.8 323.2,136.2 
		323.6,137.8 322.7,139.8 324.7,140.5 325.3,140.6 328.6,143.1 331.2,144.6 333.4,144.5 335.3,143.5 337,142.2 338.9,141.3 
		345,140.3 346.8,140.6 348.8,141.4 349.9,141.5 349.2,145.9 348.4,145.5 348.3,144.3 348.2,144.1 347.7,144.1 347,144.3 
		346.5,144.7 346.2,145.7 346.5,146.6 346.7,147.3 346.8,148 346.7,149.2 346.7,150.6 346.6,151.9 345.7,153.4 344.1,154 
		342.7,152.2 341.2,149.7 339.2,147.9 335.5,148.3 331.6,150.8 330.1,154 330,154.9 326.1,155.6 318.1,155.5 313.3,154.2 
		312.1,153.4 311.2,151.6 310.5,149.8 309.8,149 308.3,148.9 305.1,147.9 302.8,147.9 296,149 295.4,149.5 294.7,150.4 293.9,151.3 
		291.6,152 288.9,153.5 287.8,154.2 286.8,155.5 286.3,156.4 285.7,157.2 284.5,158.1 278.8,159.3 262.4,159.3 262.1,158.5 
		261.8,156.8 261.4,155 260.7,154.2 252.6,153.8 250.8,152.8 248.5,156.4 246.5,158.8 244.1,160.2 233.6,162.4 230.9,162 
		224.3,158.5 227.6,158.6 229,157.3 230.6,152.6 227.8,152.9 221.5,154.8 221.3,155 216.9,156.5 213.9,158.2 208.3,162.7 
		208.7,162.8 210.8,164.4 211.2,164.4 211.2,166.3 210.7,167.4 209.7,167.7 208.3,167.4 207.6,167.8 207.5,168.4 207.7,169.2 
		208.6,170.4 208.8,170.9 208.7,171.4 208.6,171.9 208.3,172.2 206.4,173.9 204.8,173.7 203.1,172.7 201.2,172 199.7,172.4 
		199.8,173.6 200.4,174.7 200.8,175.1 201.4,176 201.7,177.1 201.2,178.8 198.7,182 195.2,183.5 186.5,183.1 183.2,183.8 
		178.4,185.9 177.6,186 176.6,185.6 176.1,184.9 175.7,184.3 175.2,183.9 171.5,182.7 168.8,181.1 168.1,178 170.3,172.8 
		166.9,173.1 165.2,172.8 163.6,171.9 160.7,171.3 154.4,172.4 151.1,171.9 150,171 148.8,170.7 147.7,171 146.6,171.9 144.2,172.6 
		144.5,174.7 145.8,177.2 146.5,179.4 145.5,181 143.6,182.6 141.6,183.8 138.3,184.5 138.1,188 134.9,189.9 133,192.4 131.4,195.3 
		130.8,197.6 145.8,196.2 148.1,195 150,196.6 151.9,198.3 153.2,200.2 152.2,202.2 151,203 149.7,203.3 148.4,204.1 146.6,206.6 
		145.9,206.8 144.8,207 142.4,209.4 141.6,213.2 142.1,217.8 133.5,224.1 129.9,227.8 127.5,231.8 119.3,239.4 115.5,240.7 
		115.6,243.9 113.8,244.8 113.3,245.1 112.9,246.3 109.7,247.4 108.5,248.6 106.8,251.5 108.4,255 105.5,259.1 97.1,265.5 
		83.5,269.8 77.4,273.3 75.5,279.7 76.1,281.4 77.8,284.6 78.1,286.6 78,289.2 77.3,290.9 76.4,292.5 74.4,298.5 74.2,299.4 
		74.5,300.4 75.2,301.3 76.1,302.3 76.2,305.4 75.7,306.9 74.3,308.7 73,309.7 68.8,311.9 65.5,315.7 64.3,316.7 55.2,321.7 
		38.3,337.2 36.6,339.4 37,341.8 40,345.2 35.6,350.8 31.2,358.3 29.8,359.9 29.3,361 29.3,361.9 29.6,362.8 29.9,363.5 29.9,364.1 
		29.9,365.5 30.2,366.7 30,367.9 28.5,369.3 35.3,373.5 37.2,375.4 38.7,378.2 38.9,380.2 34.8,389.3 34.4,390.7 33.5,395.9 
		33.4,397.8 33.5,399.5 33,400.7 30.2,401.6 29.5,401.7 28.7,401.6 27.7,401.3 27.5,401.2 27.3,401.3 27.1,401.3 19.5,405 16.5,407 
		16,409.1 17.3,411.6 19.5,414.4 19.2,416 18.2,417.8 16.5,421.7 19.5,419.9 25.3,418.6 31,418.3 35.3,420.3 39.4,418.2 45.8,410.6 
		53.9,405.3 57.1,401.9 56.5,397.7 55.6,397.3 53.5,398.3 52.1,397.6 51.6,396.8 50.4,393.8 50.3,393.1 49.2,390 48.6,388.2 
		49.3,385.7 52,382.1 55.6,377.4 59.7,373.8 63.5,372.6 67.7,372.4 71.8,371.3 82.5,364 90.6,362.4 99,362.6 117.7,367.5 
		119.6,368.4 120.8,370.2 121.1,373.7 120.1,376.7 116.8,380.6 116.2,382.7 118.6,386.9 123,391.6 125.9,396.5 121.4,405.2 
		119.3,411.7 118.1,417.9 119.2,420.9 129.2,423.2 131.1,425 131,426.4 130.1,427.8 129.1,429 128.5,430 128.9,429.8 129.1,431.6 
		129.1,433.5 128.9,433.6 129,435 128.7,435.8 128.8,436.4 129.9,437.2 131.1,437.4 132.1,436.6 133,435.7 134,435.3 136.9,436.5 
		145.4,446.2 146,446.6 146.5,448.5 147.9,452.3 148.8,455.5 149.5,457.4 150.4,458.8 156,465.1 158.9,466.9 162.8,467.7 
		166.9,467.6 170.7,466.9 178.5,463.7 182,461.5 183.7,461 193.1,462 197.2,460.5 204.6,455.1 208.3,453.5 211,453.1 212.4,451.3 
		213.6,449.3 215.7,448.2 228.5,451.4 230.5,452.5 232.4,454.3 234.8,457.7 235,458.2 236.5,458.7 237.6,458.5 238.5,458 
		239.7,457.9 245.8,460.1 249.2,460 251.5,460.7 252.2,460.8 253.8,459.9 254.1,459.3 254,458.4 254.4,456.5 257.3,450.9 
		260.7,448.6 269.6,446.6 270.8,446.2 271.7,445.5 273.3,443.4 273.4,443 274.6,440.3 274.8,440 275.5,434.8 275.5,432.8 
		275.7,430.7 276.7,428.8 277.9,427.9 280.5,427.6 281.9,427.1 287.4,422.4 290.1,416.5 289.8,409.9 286,402.7 283.1,400.1 
		282.7,399.4 283.2,397.9 284.5,396.1 286.9,393.6 289.6,392.4 295.1,391.1 297.7,389.3 303.9,381.2 307.5,379.3 308.9,378.2 
		310.2,376.7 310.9,375.1 310.9,373.2 310.1,372.6 309.6,371.8 310.6,369.5 313.3,366.7 316.7,364.8 323.7,363.3 327.3,364 
		329.1,366.5 329.6,370.6 329.6,376.1 329.2,381.3 327.2,390.7 326.8,395.4 327.3,399.8 328.7,402.7 330.9,404.6 334.2,406 
		337.7,407.7 341.3,411.4 349.2,423.1 350.5,423.7 352.9,424.6 358.8,428 361,428.1 361.9,427.6 363.8,425.9 364.6,425.5 
		365.6,425.9 366.6,427.6 367.6,428.2 369.5,428.5 373.4,428.4 375.3,429.1 378.5,433.3 376.7,437.6 373.1,442 370.8,447 
		370.4,447.9 370.2,448.4 372.3,448.5 374.2,449.2 381.4,453.1 382.3,453.7 383.1,454.9 384.4,457.8 386.5,461.7 387.6,464 
		388.3,466.4 388.5,469.5 388,471.7 387.3,473.9 386.8,476.6 391.8,475.1 395.9,477 399.7,477.7 403.7,472.7 406.8,466.6 
		407.3,463.6 405.9,460.6 404.7,459.8 402,459.3 400.7,458.6 399.6,456.9 398.5,453.6 397.2,452.2 396.9,451.8 396.8,451.3 
		396.9,450.8 397.2,450.4 401.3,446.6 399.1,440.3 399.6,438.2 402.9,435.7 405.6,434.9 406.8,434.2 407.8,432.5 408.2,430.2 
		407.9,426.2 408.4,423.8 410.8,420.3 419.9,414.2 420.9,412.3 421.5,410.2 422.2,408.4 423.6,407.4 425.1,406.7 426.5,405.3 
		427.7,403.5 429.6,397 433.2,389.3 434,385.3 433.8,382.9 432.2,376.5 432.1,373.9 432.5,371.6 432.2,369.8 430.5,368.6 
		429.3,366.2 430.3,361.7 432.5,357.3 434.9,355.1 441,354.3 443.5,355 443.6,357.2 446.9,360.3 447.8,360.7 449.2,360.2 
		449.8,359.1 450.2,357.8 451.1,356.6 453.1,355.1 454.1,354.9 454.5,356 455.3,373.5 455.1,376.3 455.3,377.3 456.2,378.2 
		459,379.7 460.1,380.7 462.6,387.2 464.2,389.4 466.9,391.2 469.8,392.3 484.3,392.5 486.6,391.5 488.5,388.9 488.6,387.4 
		488.4,385.4 488.7,383.3 490,381.7 491.4,381.8 494.4,383.6 496,384 498.7,383.1 507.1,378.8 512.5,377.9 515,378.1 517.6,378.7 
		520.7,380.8 521.6,383.8 521.6,387.4 522.4,391.3 524.3,393.8 529.2,398.2 530.5,401.3 530.6,405.4 534.8,405.5 540.1,403.5 
		543.6,401.3 545.3,397.8 543.7,394.6 538.5,389.3 537.3,387.3 536.8,385.7 536.9,384.1 537.5,381.6 538.5,379.8 541.1,377.5 
		542,376.3 543,372.3 542.1,370.3 539.9,369.4 534.2,368.3 530.5,366.9 528.6,364.4 530.8,360.6 529.7,359.9 529.1,358.8 
		528.8,357.5 528.6,355.8 529.2,353.9 529.2,349.9 529.4,348.6 530.5,347 533.2,344.3 534.2,342.9 535.8,336.9 536.3,335.6 
		537.5,334.9 549.4,331.5 552.7,331.4 554.7,333.1 554.9,335.1 554.3,338.9 554.8,340.9 560,342.6 561,343.5 561.6,344.4 
		562.4,345.3 563.9,345.9 565.5,346.2 569.9,345.8 578.9,348.2 581.2,347.7 582.9,344.8 583.9,340.3 584,335.6 	"/>
	<g>
		<line class="st1" x1="291.7" y1="284.3" x2="291.7" y2="6.8"/>
		<g>
			<polygon class="st2" points="408.8,55.1 293.4,103.4 293.4,6.9 			"/>
			<path class="st0" d="M336.2,61.1c-0.2-0.1-0.4-0.1-0.6-0.1c-0.2,0-0.4,0-0.6,0.1c-1.9,1-3.8,1.5-5.5,1.5c-2.6,0-3.8-1.3-3.8-4.2
				V49h9.1c0.6,0,0.9-0.4,0.9-1v-5.7c0-0.6-0.3-1.1-0.9-1.1h-9.1V33c0-0.4-0.2-0.7-0.8-0.7h-1.3c-0.2,0-0.5,0-0.8,0.2l-14.6,12.7
				c-0.2,0.2-0.5,0.5-0.5,0.7v2.3c0,0.6,0.7,0.9,1.4,0.9h4.2v12.5c0,4.3,0.8,6.6,2.6,8.3c2,2,5.7,3.3,9.8,3.3c4,0,7.3-1,10.4-3.2
				c0.3-0.2,0.6-0.5,0.6-0.9v-7C336.9,61.6,336.6,61.3,336.2,61.1z"/>
		</g>
	</g>
</g>
</svg>
