<?xml version="1.0" encoding="utf-8"?>
<!-- Generator: Adobe Illustrator 22.0.1, SVG Export Plug-In . SVG Version: 6.00 Build 0)  -->
<svg version="1.1" id="Layer_1" xmlns="http://www.w3.org/2000/svg" xmlns:xlink="http://www.w3.org/1999/xlink" x="0px" y="0px"
	 width="432.8px" height="432px" viewBox="0 0 432.8 432" style="enable-background:new 0 0 432.8 432;" xml:space="preserve">
<style type="text/css">
	.st0{fill:#CCEAF9;}
	.st1{clip-path:url(#SVGID_2_);}
	.st2{fill:#FFFFFF;}
	.st3{fill:#EAEAEA;stroke:#000000;stroke-width:1.1657;stroke-miterlimit:10;}
	.st4{fill:#CCCCCC;}
	.st5{fill:#333333;}
	.st6{fill:#FFFFFF;stroke:#CCCCCC;stroke-width:1.1657;stroke-miterlimit:10;}
	.st7{fill:none;stroke:#E5E5E5;stroke-width:4.663;stroke-linecap:round;stroke-linejoin:round;stroke-miterlimit:10;}
	.st8{fill:#EAEAEA;}
	.st9{fill:#0099E5;}
</style>
<g>
	<circle class="st0" cx="216" cy="216" r="216"/>
	<g>
		<g>
			<defs>
				<circle id="SVGID_1_" cx="216" cy="216" r="216"/>
			</defs>
			<clipPath id="SVGID_2_">
				<use xlink:href="#SVGID_1_"  style="overflow:visible;"/>
			</clipPath>
			<g class="st1">
				<g>
					<path class="st2" d="M316.1,94.6H112.8c-24.6,0-44.6,20-44.6,44.6v32.2h-1.9c-0.6,0-1,0.5-1,1V195c0,0.6,0.5,1,1,1h1.9v28.5
						h-1.9c-0.6,0-1,0.5-1,1V269c0,0.6,0.5,1,1,1h1.9v8.6h-1.9c-0.6,0-1,0.5-1,1v43.5c0,0.6,0.5,1,1,1h1.9v330.6
						c0,24.6,20,44.6,44.6,44.6h203.3c24.6,0,44.6-20,44.6-44.6V139.1C360.7,114.5,340.7,94.6,316.1,94.6z"/>
				</g>
				<rect x="78.4" y="164.4" class="st3" width="269.1" height="465.1"/>
				<g>
					<circle class="st4" cx="167.1" cy="129" r="4.4"/>
					<circle class="st5" cx="167.1" cy="129" r="2.6"/>
				</g>
				<g>
					<path class="st4" d="M235.8,131.8h-45.7c-1.4,0-2.6-1.2-2.6-2.6l0,0c0-1.4,1.2-2.6,2.6-2.6h45.7c1.4,0,2.6,1.2,2.6,2.6l0,0
						C238.5,130.6,237.3,131.8,235.8,131.8z"/>
					<circle class="st4" cx="213" cy="111.5" r="1.8"/>
				</g>
				<circle class="st6" cx="213" cy="662.8" r="22.1"/>
				<g>
					<path class="st2" d="M331.7,233.4H93.9c-3.3,0-6-2.7-6-6v-44.6c0-3.3,2.7-6,6-6h237.8c3.3,0,6,2.7,6,6v44.6
						C337.7,230.7,335,233.4,331.7,233.4z"/>
					<g>
						<line class="st7" x1="150.7" y1="198.9" x2="310" y2="198.9"/>
						<line class="st7" x1="150.7" y1="211.2" x2="275.9" y2="211.2"/>
					</g>
					<g>
						<g>
							<path class="st8" d="M137.1,229.2H96c-2,0-3.6-1.6-3.6-3.6v-41.1c0-2,1.6-3.6,3.6-3.6h41.1c2,0,3.6,1.6,3.6,3.6v41.1
								C140.7,227.6,139.1,229.2,137.1,229.2z"/>
						</g>
						<path class="st4" d="M126.4,211.9c-0.2-0.1-0.2-0.1-0.4-0.1c-0.2,0-0.2,0-0.4,0.1c-1.5,0.8-2.8,1.2-4.2,1.2
							c-2.1,0-2.8-1-2.8-3.4V202h6.9c0.5,0,1.4-0.1,1.4-0.6v-4.6c0-0.5-0.9-1-1.4-1h-6.9v-6.5c0-0.3-0.6-0.8-1-0.8h-1
							c-0.2,0-0.4,0.1-0.6,0.3L104.5,199c-0.2,0.2-0.3,0.4-0.3,0.6v1.8c0,0.5,0.4,0.5,0.9,0.5h3.3v10.2c0,3.4,0.6,5.2,2.1,6.6
							c1.6,1.6,4.6,2.7,7.9,2.7c3.2,0,5.8-0.8,8.3-2.6c0.3-0.2,0.3-0.4,0.3-0.7v-5.6C126.8,212.3,126.6,212,126.4,211.9z"/>
					</g>
				</g>
				<g>
					<path class="st2" d="M331.7,298.6H93.9c-3.3,0-6-2.7-6-6V248c0-3.3,2.7-6,6-6h237.8c3.3,0,6,2.7,6,6v44.6
						C337.7,296,335,298.6,331.7,298.6z"/>
					<g>
						<line class="st7" x1="150.7" y1="264.1" x2="310" y2="264.1"/>
						<line class="st7" x1="150.7" y1="276.5" x2="275.9" y2="276.5"/>
					</g>
					<g>
						<g>
							<path class="st8" d="M137.1,294.5H96c-2,0-3.6-1.6-3.6-3.6v-41.1c0-2,1.6-3.6,3.6-3.6h41.1c2,0,3.6,1.6,3.6,3.6v41.1
								C140.7,292.9,139.1,294.5,137.1,294.5z"/>
						</g>
						<path class="st4" d="M126.4,277.2c-0.2-0.1-0.2-0.1-0.4-0.1c-0.2,0-0.2,0-0.4,0.1c-1.5,0.8-2.8,1.2-4.2,1.2
							c-2.1,0-2.8-1-2.8-3.4v-7.7h6.9c0.5,0,1.4-0.1,1.4-0.6v-4.6c0-0.5-0.9-1-1.4-1h-6.9v-6.5c0-0.3-0.6-0.8-1-0.8h-1
							c-0.2,0-0.4,0.1-0.6,0.3l-11.5,10.2c-0.2,0.2-0.3,0.4-0.3,0.6v1.8c0,0.5,0.4,0.5,0.9,0.5h3.3v10.2c0,3.4,0.6,5.2,2.1,6.6
							c1.6,1.6,4.6,2.7,7.9,2.7c3.2,0,5.8-0.8,8.3-2.6c0.3-0.2,0.3-0.4,0.3-0.7v-5.6C126.8,277.6,126.6,277.3,126.4,277.2z"/>
					</g>
				</g>
			</g>
		</g>
	</g>
	<g>
		<path class="st9" d="M371,69.6c-34.2,0-61.8,27.7-61.8,61.8c0,21.6,11,40.6,27.8,51.6c-0.3,0.9-0.7,1.8-1.1,2.7
			c-3.3,7-8,12.9-13.8,17.4c10.7-1,21-5.6,28.8-13.2c6.3,2.2,13.1,3.4,20.1,3.4c34.2,0,61.8-27.7,61.8-61.8S405.2,69.6,371,69.6z"/>
		<g>
			<path class="st2" d="M403.4,155.4v-4.8c0,0-7.8-2.6-7.8-9.4c0-6.9,0-15.1,0-15.1c0-12.3-7.7-22.9-18.3-25.9
				c0-0.2,0.1-0.4,0.1-0.7c0-3.3-2.7-6-6-6s-6,2.7-6,6c0,0.2,0,0.4,0.1,0.6c-10.6,2.9-18.2,13.6-18.2,25.9c0,0,0,8.3,0,15.1
				c0,6.9-7.9,9.4-7.9,9.4v4.8L403.4,155.4L403.4,155.4z"/>
			<path class="st2" d="M360.1,159.3c2.3,3.8,6.5,6.4,11.3,6.4s9-2.6,11.3-6.4H360.1z"/>
		</g>
	</g>
</g>
</svg>
