<?xml version="1.0" encoding="utf-8"?>
<!-- Generator: Adobe Illustrator 16.0.4, SVG Export Plug-In . SVG Version: 6.00 Build 0)  -->
<!DOCTYPE svg PUBLIC "-//W3C//DTD SVG 1.0//EN" "http://www.w3.org/TR/2001/REC-SVG-20010904/DTD/svg10.dtd">
<svg version="1.0" id="Layer_1" xmlns="http://www.w3.org/2000/svg" xmlns:xlink="http://www.w3.org/1999/xlink" x="0px" y="0px"
	 width="316px" height="206px" viewBox="0 0 316 206" enable-background="new 0 0 316 206" xml:space="preserve">
<g>
	<g>
		<g>
			
				<path fill="#FFFFFF" stroke="#CCCCCC" stroke-width="2" stroke-linecap="round" stroke-linejoin="round" stroke-miterlimit="10" d="
				M214.7,182.3c0,3.9-3.1,7-7,7h-80.1c-3.9,0-7-3.1-7-7V147c0-3.9,3.1-7,7-7h80.1c3.9,0,7,3.1,7,7V182.3z"/>
			
				<polyline fill="#FFFFFF" stroke="#CCCCCC" stroke-width="2" stroke-linecap="round" stroke-linejoin="round" stroke-miterlimit="10" points="
				214.7,182.3 228.3,192.4 107,192.4 120.6,182.3 			"/>
			<rect x="106.1" y="192.4" fill="#CCCCCC" width="123" height="2.7"/>
		</g>
		<g>
			<path fill="#FFFFFF" d="M48,175.2c-4.4,0-8-3.6-8-8V8.9c0-4.4,3.6-8,8-8h239.3c4.4,0,8,3.6,8,8v158.3c0,4.4-3.6,8-8,8H48z"/>
			<path fill="#CCCCCC" d="M287.3,1.9c3.9,0,7,3.1,7,7v158.3c0,3.9-3.1,7-7,7H48c-3.9,0-7-3.1-7-7V8.9c0-3.9,3.1-7,7-7H287.3
				 M287.3-0.1H48c-5,0-9,4-9,9v158.3c0,5,4,9,9,9h239.3c5,0,9-4,9-9V8.9C296.3,3.9,292.3-0.1,287.3-0.1L287.3-0.1z"/>
		</g>
		<g>
			<path fill="#F2F2F2" d="M40.7,150.7V7.9c0-3.6,2.9-6.5,6.5-6.5h241.5c3.6,0,6.5,2.9,6.5,6.5v142.8H40.7z"/>
			<path fill="#CCCCCC" d="M288.7,1.9c3.3,0,6,2.7,6,6v142.3H41.2V7.9c0-3.3,2.7-6,6-6H288.7 M288.7,0.9H47.2c-3.9,0-7,3.1-7,7
				v143.3h255.5V7.9C295.7,4,292.5,0.9,288.7,0.9L288.7,0.9z"/>
		</g>
	</g>
</g>
<g>
	<g>
		<defs>
			<rect id="SVGID_1_" x="268.6" y="117.6" width="40.9" height="75.3"/>
		</defs>
		<clipPath id="SVGID_2_">
			<use xlink:href="#SVGID_1_"  overflow="visible"/>
		</clipPath>
		<rect x="269.1" y="117.6" clip-path="url(#SVGID_2_)" fill="#C4E1F7" width="39.7" height="74.7"/>
		<path clip-path="url(#SVGID_2_)" fill="#1485E0" d="M308.3,191.7h-38.5v-73.5h38.5V191.7z M309.4,117.6h-40.9v75.3h40.9V117.6z"/>
		<g opacity="0.44" clip-path="url(#SVGID_2_)">
			<g>
				<defs>
					<rect id="SVGID_3_" x="206.9" y="90.4" width="108.3" height="103.1"/>
				</defs>
				<clipPath id="SVGID_4_">
					<use xlink:href="#SVGID_3_"  overflow="visible"/>
				</clipPath>
				<polygon clip-path="url(#SVGID_4_)" fill-rule="evenodd" clip-rule="evenodd" fill="#FFFFFF" points="277.4,193.5 206.9,193.5 
					206.9,90.4 315.3,90.4 				"/>
			</g>
		</g>
	</g>
	<g>
		<path fill="#FFFFFF" stroke="#CCCCCC" stroke-miterlimit="10" d="M265,200v-86.1c0-2,1.6-3.8,3.5-4c4.4-0.6,12.2-1.4,20.5-1.4
			c8.3,0,16.1,0.8,20.5,1.4c1.9,0.2,3.5,2.1,3.5,4V200c0,1.3-1,2.9-2.2,3.3c-3.3,0.8-10.4,1.9-21.8,1.9s-18.4-1.1-21.8-1.9
			C266,202.9,265,201.3,265,200"/>
		<path fill="none" stroke="#CCCCCC" stroke-width="2" stroke-miterlimit="10" d="M265,200v-86.1c0-2,1.6-3.8,3.5-4
			c4.4-0.6,12.2-1.4,20.5-1.4c8.3,0,16.1,0.8,20.5,1.4c1.9,0.2,3.5,2.1,3.5,4V200c0,1.3-1,2.9-2.2,3.3c-3.3,0.8-10.4,1.9-21.8,1.9
			s-18.4-1.1-21.8-1.9C266,202.9,265,201.3,265,200z"/>
		<path fill="#CCCCCC" d="M288.7,112.2c0.5,0,0.9,0.4,0.9,0.9c0,0.5-0.4,0.9-0.9,0.9c-0.5,0-0.9-0.4-0.9-0.9
			C287.8,112.6,288.2,112.2,288.7,112.2 M288.7,111.4c-1,0-1.8,0.8-1.8,1.8c0,1,0.8,1.8,1.8,1.8c1,0,1.8-0.8,1.8-1.8
			C290.5,112.2,289.7,111.4,288.7,111.4"/>
		<path fill="#CCCCCC" d="M273.3,112.4c0.4,0,0.7,0.3,0.7,0.7c0,0.4-0.3,0.7-0.7,0.7s-0.7-0.3-0.7-0.7
			C272.6,112.8,272.9,112.4,273.3,112.4 M273.3,112c-0.7,0-1.2,0.5-1.2,1.2c0,0.7,0.5,1.2,1.2,1.2c0.7,0,1.2-0.5,1.2-1.2
			C274.5,112.5,274,112,273.3,112"/>
	</g>
	<g>
		<defs>
			<rect id="SVGID_5_" x="268.6" y="117.1" width="40.9" height="75.3"/>
		</defs>
		<use xlink:href="#SVGID_5_"  overflow="visible" fill="#CCCCCC"/>
		<clipPath id="SVGID_6_">
			<use xlink:href="#SVGID_5_"  overflow="visible"/>
		</clipPath>
		
			<rect x="269.1" y="117.7" clip-path="url(#SVGID_6_)" fill="#F2F2F2" stroke="#CCCCCC" stroke-linejoin="bevel" stroke-miterlimit="10" width="39.7" height="74.1"/>
		<path clip-path="url(#SVGID_6_)" fill="#CCCCCC" d="M308.3,191.1h-38.5v-72.9h38.5V191.1z M309.4,117.1h-40.9v75.3h40.9V117.1z"/>
		<g opacity="0.44" clip-path="url(#SVGID_6_)">
			<g>
				<defs>
					<rect id="SVGID_7_" x="206.9" y="89.8" width="108.4" height="103.1"/>
				</defs>
				<clipPath id="SVGID_8_">
					<use xlink:href="#SVGID_7_"  overflow="visible"/>
				</clipPath>
			</g>
		</g>
	</g>
	<polygon opacity="0.4" fill-rule="evenodd" clip-rule="evenodd" fill="#FFFFFF" points="267.4,192.9 266.8,192.9 266.8,115.3 
		296.5,115.3 	"/>
	<g>
		<path fill="#CCCCCC" d="M300.8,147.1l-10.9,6.4c-0.2,0.1-0.3,0.4-0.3,0.6l0.1,12.7c0,0.2,0.2,0.3,0.4,0.2l10.9-6.4
			c0.2-0.1,0.2-0.4,0.2-0.6v-12.7C301,147.1,301,147,300.8,147.1z M295,154.6c0-0.2,0.4-0.5,0.6-0.6l1.7-0.9c0.5-0.3,1.1,0,1.1,0.6
			c-0.3,0.3-0.4,0.9-0.4,1.6v0.6l-3,1.3V154.6z M293.4,155.5l1.4-0.9c0.1-0.1,0.2,0,0.2,0.2v2.6l-1,1.3v-0.6c0-0.4-0.7-0.8-1-0.8
			C293,156.5,292.9,155.7,293.4,155.5z M300,156.1c0,0.5-0.8,1-1.2,1.2l-0.8,0.1v0.6c0,0.2,0.1,0.4,0,0.5c-0.2,0.1,0,0,0-0.2v-0.6
			l-4,3.1v0.6c0,0.2-0.8,0.4-1,0.5c-0.2,0.1-1,0-1-0.2v-0.6l0.2,0.1c-0.4,0.2-0.2,0-0.2-0.5V159c0-0.5,0.1-1,0.5-1.2
			c0.4-0.2,0.5,0,0.5,0.5v1l5-3.3v-1c0-0.5,0.6-1,1-1.2c0.4-0.2,1,0,1,0.4V156.1z"/>
		<path fill="#CCCCCC" d="M287.8,153.4l-11-6.4c-0.2-0.1-0.4,0-0.4,0.2l0,12.7c0,0.2,0.2,0.5,0.4,0.6l11,6.4c0.2,0.1,0.4,0,0.4-0.2
			l0-12.7C288.1,153.8,288,153.6,287.8,153.4z M285.7,158.8c-0.2-0.1-0.5-0.3-0.9-0.5c0,1.9,0,3.5,0,4.2c-0.4-0.2-1-0.6-1.7-1
			c0-0.8,0-1.9,0-3.1c-0.5-0.2-1.3-0.7-1.8-1c0,0.9,0,1.9,0,3.1c-0.4-0.2-1.2-0.7-1.7-1c0-1.3,0-2.8,0-4.1c-0.2-0.1-0.4-0.2-0.8-0.5
			c-0.2-0.1-0.3-0.1-0.2-0.2c0.1-0.1,0.5-0.3,1-0.7l0-2.4c0-0.1,0.1-0.1,0.2,0l0.5,0.3c0.1,0,0.2,0.2,0.2,0.3l0,1.3
			c0.6-0.4,1.2-0.8,1.5-1c0,0,0.1,0,0.2,0.1C282.4,152.6,285.8,158.7,285.7,158.8C285.8,158.8,285.8,158.9,285.7,158.8z"/>
		<g>
			<path fill="#CCCCCC" d="M290.4,143.1c-0.6-0.2-1.2-0.3-1.8-0.5c-0.4-0.1-0.5-0.1-0.8,0c-1.1,0.6-2.1,1.2-3.2,1.9
				c-0.3,0.1-0.3,0.2-0.1,0.5c0.3,0.3,0.6,0.7,0.9,1c0.1,0.1,0.1,0.1,0.2,0c0.9-0.4,1.7-0.9,2.5-1.4c0.8-0.5,1.6-0.9,2.5-1.4
				C290.5,143.2,290.5,143.2,290.4,143.1z"/>
			<path fill="#CCCCCC" d="M292.5,143.6c-0.3-0.2-0.9-0.2-1.2,0c-0.3,0.2-0.3,0.5,0.1,0.7c0.4,0.2,0.9,0.2,1.2,0
				C292.9,144.1,292.8,143.8,292.5,143.6z"/>
			<path fill="#CCCCCC" d="M287.1,146.7c-0.4-0.2-0.9-0.2-1.2,0c-0.3,0.2-0.3,0.5,0,0.7c0.3,0.2,0.9,0.2,1.2,0
				C287.5,147.2,287.5,146.9,287.1,146.7z"/>
			<path fill="#CCCCCC" d="M300.2,145.5l-11-6.4c-0.2-0.1-0.5-0.1-0.7,0l-11,6.4c-0.2,0.1-0.2,0.3,0,0.4l11,6.4
				c0.2,0.1,0.5,0.1,0.7,0l11-6.4C300.4,145.8,300.4,145.6,300.2,145.5z M295.4,145.8c-0.3,0.2-0.8,0.2-1.2,0
				c-0.2-0.1-0.4-0.2-0.6-0.4c-0.1,0-0.1,0-0.3,0c-0.8,0.4-1.5,0.8-2.1,1.2c-0.7,0.4-1.3,0.8-2,1.1c-0.1,0-0.1,0.1,0,0.2
				c0.2,0.1,0.4,0.2,0.7,0.4c0.3,0.2,0.3,0.4,0.2,0.6c-0.1,0.2-0.5,0.3-0.8,0.2c-0.2,0-0.4-0.1-0.5-0.1c-0.2-0.1-0.4-0.2-0.7-0.4
				c-0.1,0-0.1,0-0.2,0c-0.1,0.1-0.3,0.1-0.4,0.2c0,0-0.1,0-0.2,0c-0.7-0.4-1.5-0.9-2.2-1.3c-0.4-0.2-0.5-0.6-0.2-0.9
				c0,0,0-0.1,0-0.1c-0.3-0.4-0.7-0.9-1-1.3c-0.3-0.4-0.3-0.7,0.2-0.9c1.1-0.6,2.2-1.2,3.3-1.9c0.5-0.3,0.9-0.3,1.7-0.1
				s1.4,0.4,2.1,0.6c0.1,0,0.2,0,0.3,0c0.5-0.1,0.9-0.1,1.3,0.1c0.2,0.1,0.4,0.2,0.7,0.4c0.5,0.3,1.1,0.6,1.6,1c0.1,0,0.1,0.1,0,0.1
				c-0.1,0-0.3,0.1-0.4,0.2c-0.1,0-0.1,0.1,0,0.1c0.2,0.1,0.4,0.2,0.7,0.4C295.7,145.4,295.7,145.6,295.4,145.8z"/>
		</g>
	</g>
</g>
<circle fill="#CCCCCC" cx="168.7" cy="161.9" r="7.3"/>
<path fill="#FFFFFF" d="M171.8,163.9c-0.1,0-0.1,0-0.2,0c-0.1,0-0.1,0-0.2,0c-0.5,0.2-1,0.4-1.4,0.4c-0.6,0-1-0.3-1-1V161h2.3
	c0.2,0,0.7-0.1,0.7-0.2v-1.4c0-0.2-0.5-0.4-0.7-0.4H169v-1.8c0-0.1,0.1-0.2,0-0.2h-0.3c-0.1,0-0.1,0-0.2,0.1l-3.4,3
	c-0.1,0.1-0.1,0.1-0.1,0.2v0.5c0,0.2,0.1,0.2,0.2,0.2h0.8v3c0,1,0.3,1.6,0.7,2c0.5,0.5,1.4,0.8,2.4,0.8c0.9,0,1.9-0.2,2.6-0.8
	c0.1-0.1,0.3-0.1,0.3-0.2v-1.7C172,164.1,171.8,164,171.8,163.9z"/>
<g opacity="0.4">
	<path fill="#FFFFFF" d="M111.4,149.9H42.3V8.5c0-3.8,3.1-6.9,6.9-6.9H178L111.4,149.9z"/>
</g>
<g>
	<path fill="#FFFFFF" stroke="#CCCCCC" stroke-miterlimit="10" d="M90.2,200.5c0,2.6-2.1,4.7-4.7,4.7H5.4c-2.6,0-4.7-2.1-4.7-4.7
		V75.7c0-2.6,2.1-4.7,4.7-4.7h80.1c2.6,0,4.7,2.1,4.7,4.7V200.5z"/>
	<path fill="none" stroke="#CCCCCC" stroke-width="2" stroke-miterlimit="10" d="M90.2,200.5c0,2.6-2.1,4.7-4.7,4.7H5.4
		c-2.6,0-4.7-2.1-4.7-4.7V75.7c0-2.6,2.1-4.7,4.7-4.7h80.1c2.6,0,4.7,2.1,4.7,4.7V200.5z"/>
	<rect x="5.4" y="83.4" fill="#C4E1F7" width="80" height="107.7"/>
	<rect x="6" y="84.8" fill="#F2F2F2" width="78.9" height="106.5"/>
	<path fill="#CCCCCC" d="M84.3,189.9H6.6V84.5h77.7V189.9z M85.5,83.4h-80V191h80V83.4z"/>
	<polyline opacity="0.4" fill-rule="evenodd" clip-rule="evenodd" fill="#FFFFFF" points="4.4,77.8 51.4,77.8 9,192.9 4.4,192.9 	
		"/>
	<circle fill="none" stroke="#CCCCCC" stroke-width="2" stroke-miterlimit="10" cx="45.5" cy="197.1" r="3.4"/>
	<path fill="#CCCCCC" d="M45.5,75.4c0.6,0,1.1,0.5,1.1,1.1s-0.5,1.1-1.1,1.1c-0.6,0-1.1-0.5-1.1-1.1S44.9,75.4,45.5,75.4 M45.5,74.8
		c-1,0-1.8,0.8-1.8,1.8s0.8,1.8,1.8,1.8c1,0,1.8-0.8,1.8-1.8S46.4,74.8,45.5,74.8"/>
	<g>
		<path fill="#CCCCCC" d="M64.8,125.6l-17.3,10.1c-0.3,0.2-0.5,0.6-0.5,1l0.1,20.1c0,0.4,0.3,0.5,0.6,0.3L64.8,147
			c0.3-0.2,0.2-0.6,0.2-1v-20.1C65,125.6,65.1,125.4,64.8,125.6z M57,137.5c0-0.4,0.1-0.8,0.3-0.9l2.3-1.4c0.8-0.5,1.3,0,1.4,0.9
			c-0.5,0.5-1,1.4-1,2.5v1l-3,2V137.5z M53.3,138.9l2.3-1.4c0.2-0.1,0.4,0,0.4,0.4v4.1l-3,2.1v-1c0-0.6-0.6-1.2-1-1.2
			C52,140.5,52.4,139.3,53.3,138.9z M63,139.9c0,0.8-0.7,1.7-1.3,2l-0.7,0.2v0.9c0,0.4,0.2,0.7,0,0.8c-0.3,0.2,0,0,0-0.3v-0.9l-8,5
			v0.9c0,0.4-0.7,0.7-1,0.8c-0.3,0.1-1,0-1-0.3v-0.9l-0.2,0.2c-0.6,0.4-0.8,0-0.8-0.8v-3.1c0-0.8,0.4-1.7,1-2c0.6-0.4,1,0,1,0.8v1.7
			l9-5.2v-1.7c0-0.8,0.4-1.7,1-2c0.6-0.3,1,0.1,1,0.7V139.9z"/>
		<path fill="#CCCCCC" d="M44.3,135.7l-17.5-10.1c-0.3-0.2-0.6,0-0.6,0.3L26.2,146c0,0.4,0.2,0.8,0.6,1l17.5,10.1
			c0.3,0.2,0.6,0,0.6-0.3l0.1-20.1C44.9,136.3,44.6,135.9,44.3,135.7z M41,144.1c-0.4-0.2-0.8-0.5-1.4-0.8c0,2.9,0,5.6,0,6.7
			c-0.7-0.4-1.7-0.9-2.6-1.5c0-1.2,0-2.9,0-4.9c-0.8-0.4-2-1.1-2.8-1.6c0,1.4,0,3.1,0,4.9c-0.6-0.4-1.9-1.1-2.6-1.5c0-2,0-4.4,0-6.5
			c-0.3-0.2-0.7-0.4-1.3-0.8c-0.3-0.2-0.4-0.2-0.3-0.4c0.2-0.1,0.8-0.5,1.6-1l0-3.8c0-0.2,0.1-0.1,0.3-0.1l0.8,0.5
			c0.2,0.1,0.3,0.3,0.3,0.5l0,2c1-0.6,1.9-1.3,2.4-1.6c0.1-0.1,0.2-0.1,0.3,0.2c0.1,0,5.4,9.7,5.4,9.7
			C41.2,144.3,41.1,144.3,41,144.1z"/>
		<g>
			<path fill="#CCCCCC" d="M48.4,119.4c-1-0.3-1.9-0.5-2.9-0.8c-0.6-0.1-0.8-0.1-1.3,0.1c-1.7,1-3.4,2-5.1,2.9
				c-0.5,0.2-0.5,0.4-0.2,0.8c0.5,0.5,0.9,1.1,1.4,1.7c0.2,0.2,0.2,0.2,0.4,0.1c1.4-0.7,2.6-1.4,3.9-2.2c1.3-0.8,2.6-1.5,3.9-2.3
				C48.6,119.5,48.6,119.4,48.4,119.4z"/>
			<path fill="#CCCCCC" d="M51.7,120c-0.5-0.3-1.4-0.4-2-0.1s-0.5,0.8,0.1,1.1c0.6,0.3,1.4,0.4,2,0.1
				C52.4,120.9,52.3,120.3,51.7,120z"/>
			<path fill="#CCCCCC" d="M43.3,124.9c-0.6-0.3-1.5-0.3-2-0.1c-0.5,0.3-0.5,0.8,0.1,1.1c0.5,0.3,1.4,0.4,2,0.1
				C43.9,125.8,43.8,125.3,43.3,124.9z"/>
			<path fill="#CCCCCC" d="M64,123.1L46.6,113c-0.3-0.2-0.8-0.2-1.1,0L28,123.1c-0.3,0.2-0.3,0.5,0,0.7l17.4,10.1
				c0.3,0.2,0.8,0.2,1.1,0L64,123.8C64.3,123.6,64.3,123.3,64,123.1z M56.4,123.6c-0.5,0.3-1.3,0.3-1.9-0.1c-0.4-0.2-0.7-0.4-1-0.6
				c-0.2-0.1-0.2-0.1-0.5,0c-1.3,0.7-2.3,1.3-3.4,1.9c-1.1,0.6-2.1,1.2-3.2,1.8c-0.2,0.1-0.2,0.1,0,0.3c0.4,0.2,0.7,0.4,1.1,0.6
				c0.5,0.3,0.5,0.6,0.3,0.9c-0.2,0.3-0.8,0.5-1.3,0.4c-0.3,0-0.6-0.2-0.8-0.2c-0.4-0.2-0.7-0.4-1.1-0.6c-0.1-0.1-0.2-0.1-0.3,0
				c-0.2,0.1-0.5,0.2-0.7,0.4c-0.1,0.1-0.2,0.1-0.3,0c-1.1-0.7-2.3-1.4-3.5-2c-0.7-0.4-0.8-0.9-0.4-1.4c0.1-0.1,0-0.1,0-0.2
				c-0.5-0.7-1.1-1.4-1.7-2c-0.5-0.6-0.5-1.1,0.4-1.5c1.7-1,3.5-2,5.2-3c0.8-0.5,1.5-0.5,2.6-0.2c1.1,0.3,2.3,0.6,3.4,0.9
				c0.2,0.1,0.3,0.1,0.5,0c0.8-0.1,1.4-0.1,2.1,0.2c0.4,0.2,0.7,0.4,1.1,0.6c0.8,0.5,1.7,1,2.6,1.5c0.2,0.1,0.2,0.1,0,0.2
				c-0.2,0.1-0.5,0.2-0.6,0.4c-0.2,0.1-0.2,0.2,0,0.2c0.4,0.2,0.7,0.4,1.1,0.6C56.8,122.9,56.9,123.3,56.4,123.6z"/>
		</g>
	</g>
</g>
<g>
	<defs>
		<path id="SVGID_9_" d="M295.7,150.2H40.2V6.9c0-3.9,3.1-7,7-7h241.5c3.9,0,7,3.1,7,7V150.2z"/>
	</defs>
	<clipPath id="SVGID_10_">
		<use xlink:href="#SVGID_9_"  overflow="visible"/>
	</clipPath>
	<g clip-path="url(#SVGID_10_)">
		<path fill="#CCCCCC" d="M201.6,65.8l-29.8,17.4c-0.5,0.3-0.8,1.1-0.8,1.7l0.2,34.6c0,0.6,0.5,0.9,1,0.6l29.5-17.4
			c0.5-0.3,0.3-1.1,0.3-1.7V66.3C202,65.7,202.2,65.5,201.6,65.8z M188,86.2c0-0.6,0.3-1.3,0.6-1.6l4.1-2.5c1.4-0.8,2.1,0,2.2,1.6
			c-0.8,0.9-1.9,2.5-1.9,4.3v1.7l-5,3.5V86.2z M181.8,88.7l4.3-2.5c0.4-0.3,0.9,0,0.9,0.6v7l-6,3.6v-1.7c0-1-0.8-2.1-1.6-2.1
			C179.5,91.4,180.4,89.5,181.8,88.7z M199,90.4c0,1.3-1.5,2.9-2.6,3.4l-1.4,0.4v1.6c0,0.6,0.4,1.2,0,1.4c-0.5,0.3,0,0,0-0.5V95
			l-14,8.6v1.6c0,0.6-1,1.2-1.5,1.4c-0.5,0.3-1.5,0-1.5-0.5v-1.6l-0.4,0.4c-1,0.6-1.6,0-1.6-1.3v-5.3c0-1.3,1-2.8,2-3.4
			c1-0.6,2,0,2,1.3v2.9l15-9v-2.8c0-1.3,0.9-2.9,1.9-3.4c1-0.5,2.1,0.1,2.1,1.2V90.4z"/>
		<path fill="#CCCCCC" d="M166.4,83.2l-30.1-17.4c-0.5-0.3-1-0.1-1,0.5l-0.1,34.6c0,0.6,0.4,1.4,1,1.7l30.1,17.4
			c0.5,0.3,1,0.1,1-0.6l0.1-34.6C167.3,84.2,166.9,83.5,166.4,83.2z M160.6,97.7c-0.6-0.4-1.3-0.8-2.5-1.4c0,5.1-0.1,9.6-0.1,11.5
			c-1.2-0.7-2.8-1.6-4.5-2.6c0-2.1,0-5.1,0.1-8.4c-1.3-0.7-3.5-2-4.8-2.8c0,2.3,0,5.3-0.1,8.4c-1-0.7-3.4-2-4.5-2.6
			c0-3.5,0-7.5,0.1-11.3c-0.5-0.3-1.2-0.7-2.2-1.3c-0.5-0.3-0.8-0.4-0.5-0.7c0.4-0.3,1.4-0.9,2.7-1.8l0-6.5c0-0.3,0.3-0.3,0.5-0.1
			l1.4,0.8c0.3,0.1,0.5,0.5,0.5,0.8l0,3.5c1.7-1,3.3-2.2,4.2-2.7c0.1-0.1,0.4-0.1,0.5,0.3c0.1,0,9.4,16.8,9.4,16.8
			C161,97.9,160.9,98.1,160.6,97.7z"/>
		<g>
			<path fill="#CCCCCC" d="M173.4,55c-1.7-0.5-3.2-0.9-4.9-1.4c-1-0.3-1.4-0.3-2.2,0.1c-3,1.7-5.8,3.4-8.8,5.1
				c-0.8,0.4-0.9,0.6-0.4,1.3c0.8,0.9,1.6,1.8,2.3,2.9c0.3,0.3,0.4,0.3,0.6,0.1c2.3-1.2,4.5-2.5,6.7-3.8c2.2-1.3,4.4-2.6,6.7-3.9
				C173.8,55.3,173.8,55.2,173.4,55z"/>
			<path fill="#CCCCCC" d="M179.1,56.2c-0.9-0.5-2.5-0.6-3.4-0.1c-0.9,0.5-0.8,1.3,0.3,1.9c1,0.5,2.5,0.6,3.4,0.1
				C180.3,57.6,180.1,56.7,179.1,56.2z"/>
			<path fill="#CCCCCC" d="M164.6,64.6c-1-0.5-2.6-0.5-3.4-0.1c-0.9,0.5-0.8,1.3,0.1,2c0.9,0.5,2.5,0.6,3.4,0.1
				C165.6,66,165.5,65.3,164.6,64.6z"/>
			<path fill="#CCCCCC" d="M200.3,61.5l-29.9-17.4c-0.5-0.3-1.4-0.3-1.9,0l-30.1,17.4c-0.5,0.3-0.5,0.8,0,1.1L168.2,80
				c0.5,0.3,1.4,0.3,1.9,0l30.1-17.4C200.8,62.3,200.8,61.8,200.3,61.5z M187.1,62.3c-0.9,0.5-2.2,0.5-3.2-0.1
				c-0.6-0.3-1.2-0.6-1.7-1c-0.3-0.1-0.4-0.1-0.8,0c-2.2,1.2-4,2.2-5.8,3.2c-1.8,1-3.6,2.1-5.4,3.1c-0.3,0.1-0.4,0.3,0,0.5
				c0.6,0.4,1.2,0.7,1.8,1c0.8,0.5,0.9,1,0.5,1.6c-0.4,0.5-1.3,0.8-2.2,0.6c-0.5,0-1-0.3-1.4-0.4c-0.6-0.4-1.2-0.6-1.8-1
				c-0.3-0.1-0.4-0.1-0.5,0c-0.4,0.3-0.8,0.4-1.2,0.7c-0.1,0.1-0.4,0.1-0.5,0c-1.9-1.2-4-2.3-6-3.5c-1.2-0.7-1.4-1.6-0.6-2.3
				c0.1-0.1,0-0.3,0-0.4c-0.9-1.2-1.8-2.3-2.9-3.5c-0.9-1-0.8-1.8,0.6-2.6c3-1.7,6-3.4,8.9-5.2c1.4-0.8,2.6-0.9,4.5-0.4
				c1.9,0.5,3.9,1,5.8,1.6c0.3,0.1,0.5,0.1,0.9,0c1.3-0.3,2.5-0.3,3.6,0.3c0.6,0.3,1.2,0.6,1.8,1c1.4,0.9,3,1.7,4.4,2.6
				c0.3,0.1,0.3,0.3,0,0.4c-0.4,0.1-0.8,0.4-1,0.6c-0.3,0.1-0.3,0.3,0,0.4c0.7,0.4,1.2,0.6,1.8,1C187.9,61.1,188.1,61.8,187.1,62.3z
				"/>
		</g>
	</g>
</g>
</svg>
