<svg version="1" xmlns="http://www.w3.org/2000/svg" xmlns:xlink="http://www.w3.org/1999/xlink" width="316" height="206"><path fill="#FFF" stroke="#CCC" stroke-width="2" stroke-linecap="round" stroke-linejoin="round" stroke-miterlimit="10" d="M214.7 182.3c0 3.9-3.1 7-7 7h-80.1c-3.9 0-7-3.1-7-7V147c0-3.9 3.1-7 7-7h80.1c3.9 0 7 3.1 7 7v35.3z"/><path fill="#FFF" stroke="#CCC" stroke-width="2" stroke-linecap="round" stroke-linejoin="round" stroke-miterlimit="10" d="M214.7 182.3l13.6 10.1H107l13.6-10.1"/><path fill="#CCC" d="M106.1 192.4h123v2.7h-123z"/><path fill="#FFF" d="M48 175.2c-4.4 0-8-3.6-8-8V8.9c0-4.4 3.6-8 8-8h239.3c4.4 0 8 3.6 8 8v158.3c0 4.4-3.6 8-8 8H48z"/><path fill="#CCC" d="M287.3 1.9c3.9 0 7 3.1 7 7v158.3c0 3.9-3.1 7-7 7H48c-3.9 0-7-3.1-7-7V8.9c0-3.9 3.1-7 7-7h239.3m0-2H48c-5 0-9 4-9 9v158.3c0 5 4 9 9 9h239.3c5 0 9-4 9-9V8.9c0-5-4-9-9-9z"/><path fill="#F2F2F2" d="M40.7 150.7V7.9c0-3.6 2.9-6.5 6.5-6.5h241.5c3.6 0 6.5 2.9 6.5 6.5v142.8H40.7z"/><path fill="#CCC" d="M288.7 1.9c3.3 0 6 2.7 6 6v142.3H41.2V7.9c0-3.3 2.7-6 6-6h241.5m0-1H47.2c-3.9 0-7 3.1-7 7v143.3h255.5V7.9c0-3.9-3.2-7-7-7z"/><defs><path id="a" d="M268.6 117.6h40.9v75.3h-40.9z"/></defs><clipPath id="b"><use xlink:href="#a" overflow="visible"/></clipPath><path clip-path="url(#b)" fill="#C4E1F7" d="M269.1 117.6h39.7v74.7h-39.7z"/><path clip-path="url(#b)" fill="#1485E0" d="M308.3 191.7h-38.5v-73.5h38.5v73.5zm1.1-74.1h-40.9v75.3h40.9v-75.3z"/><g opacity=".44" clip-path="url(#b)"><defs><path id="c" d="M206.9 90.4h108.3v103.1H206.9z"/></defs><clipPath id="d"><use xlink:href="#c" overflow="visible"/></clipPath><path clip-path="url(#d)" fill-rule="evenodd" clip-rule="evenodd" fill="#FFF" d="M277.4 193.5h-70.5V90.4h108.4z"/></g><path fill="#FFF" stroke="#CCC" stroke-miterlimit="10" d="M265 200v-86.1c0-2 1.6-3.8 3.5-4 4.4-.6 12.2-1.4 20.5-1.4s16.1.8 20.5 1.4c1.9.2 3.5 2.1 3.5 4V200c0 1.3-1 2.9-2.2 3.3-3.3.8-10.4 1.9-21.8 1.9s-18.4-1.1-21.8-1.9c-1.2-.4-2.2-2-2.2-3.3"/><path fill="none" stroke="#CCC" stroke-width="2" stroke-miterlimit="10" d="M265 200v-86.1c0-2 1.6-3.8 3.5-4 4.4-.6 12.2-1.4 20.5-1.4s16.1.8 20.5 1.4c1.9.2 3.5 2.1 3.5 4V200c0 1.3-1 2.9-2.2 3.3-3.3.8-10.4 1.9-21.8 1.9s-18.4-1.1-21.8-1.9c-1.2-.4-2.2-2-2.2-3.3z"/><path fill="#CCC" d="M288.7 112.2c.5 0 .9.4.9.9s-.4.9-.9.9-.9-.4-.9-.9.4-.9.9-.9m0-.8c-1 0-1.8.8-1.8 1.8s.8 1.8 1.8 1.8 1.8-.8 1.8-1.8-.8-1.8-1.8-1.8m-15.4 1c.4 0 .7.3.7.7 0 .4-.3.7-.7.7s-.7-.3-.7-.7c0-.3.3-.7.7-.7m0-.4c-.7 0-1.2.5-1.2 1.2s.5 1.2 1.2 1.2 1.2-.5 1.2-1.2-.5-1.2-1.2-1.2"/><defs><path id="e" d="M268.6 117.1h40.9v75.3h-40.9z"/></defs><use xlink:href="#e" overflow="visible" fill="#CCC"/><clipPath id="f"><use xlink:href="#e" overflow="visible"/></clipPath><path clip-path="url(#f)" fill="#F2F2F2" stroke="#CCC" stroke-linejoin="bevel" stroke-miterlimit="10" d="M269.1 117.7h39.7v74.1h-39.7z"/><path clip-path="url(#f)" fill="#CCC" d="M308.3 191.1h-38.5v-72.9h38.5v72.9zm1.1-74h-40.9v75.3h40.9v-75.3z"/><path opacity=".4" fill-rule="evenodd" clip-rule="evenodd" fill="#FFF" d="M267.4 192.9h-.6v-77.6h29.7z"/><g fill="#CCC"><path d="M300.8 147.1l-10.9 6.4c-.2.1-.3.4-.3.6l.1 12.7c0 .2.2.3.4.2l10.9-6.4c.2-.1.2-.4.2-.6v-12.7c-.2-.2-.2-.3-.4-.2zm-5.8 7.5c0-.2.4-.5.6-.6l1.7-.9c.5-.3 1.1 0 1.1.6-.3.3-.4.9-.4 1.6v.6l-3 1.3v-2.6zm-1.6.9l1.4-.9c.1-.1.2 0 .2.2v2.6l-1 1.3v-.6c0-.4-.7-.8-1-.8 0-.8-.1-1.6.4-1.8zm6.6.6c0 .5-.8 1-1.2 1.2l-.8.1v.6c0 .2.1.4 0 .5-.2.1 0 0 0-.2v-.6l-4 3.1v.6c0 .2-.8.4-1 .5-.2.1-1 0-1-.2v-.6l.2.1c-.4.2-.2 0-.2-.5V159c0-.5.1-1 .5-1.2.4-.2.5 0 .5.5v1l5-3.3v-1c0-.5.6-1 1-1.2.4-.2 1 0 1 .4v1.9zm-12.2-2.7l-11-6.4c-.2-.1-.4 0-.4.2v12.7c0 .2.2.5.4.6l11 6.4c.2.1.4 0 .4-.2V154c-.1-.2-.2-.4-.4-.6zm-2.1 5.4c-.2-.1-.5-.3-.9-.5v4.2c-.4-.2-1-.6-1.7-1v-3.1c-.5-.2-1.3-.7-1.8-1v3.1c-.4-.2-1.2-.7-1.7-1v-4.1c-.2-.1-.4-.2-.8-.5-.2-.1-.3-.1-.2-.2.1-.1.5-.3 1-.7v-2.4c0-.1.1-.1.2 0l.5.3c.1 0 .2.2.2.3v1.3l1.5-1s.1 0 .2.1c.2 0 3.6 6.1 3.5 6.2.1 0 .1.1 0 0zm4.7-15.7c-.6-.2-1.2-.3-1.8-.5-.4-.1-.5-.1-.8 0-1.1.6-2.1 1.2-3.2 1.9-.3.1-.3.2-.1.5.3.3.6.7.9 1 .1.1.1.1.2 0 .9-.4 1.7-.9 2.5-1.4.8-.5 1.6-.9 2.5-1.4-.1 0-.1 0-.2-.1zm2.1.5c-.3-.2-.9-.2-1.2 0-.3.2-.3.5.1.7.4.2.9.2 1.2 0 .3-.2.2-.5-.1-.7zm-5.4 3.1c-.4-.2-.9-.2-1.2 0-.3.2-.3.5 0 .7.3.2.9.2 1.2 0 .4-.2.4-.5 0-.7z"/><path d="M300.2 145.5l-11-6.4c-.2-.1-.5-.1-.7 0l-11 6.4c-.2.1-.2.3 0 .4l11 6.4c.2.1.5.1.7 0l11-6.4c.2-.1.2-.3 0-.4zm-4.8.3c-.3.2-.8.2-1.2 0-.2-.1-.4-.2-.6-.4h-.3c-.8.4-1.5.8-2.1 1.2-.7.4-1.3.8-2 1.1-.1 0-.1.1 0 .2.2.1.4.2.7.4.3.2.3.4.2.6-.1.2-.5.3-.8.2-.2 0-.4-.1-.5-.1-.2-.1-.4-.2-.7-.4h-.2c-.1.1-.3.1-.4.2h-.2c-.7-.4-1.5-.9-2.2-1.3-.4-.2-.5-.6-.2-.9v-.1c-.3-.4-.7-.9-1-1.3-.3-.4-.3-.7.2-.9 1.1-.6 2.2-1.2 3.3-1.9.5-.3.9-.3 1.7-.1s1.4.4 2.1.6h.3c.5-.1.9-.1 1.3.1.2.1.4.2.7.4.5.3 1.1.6 1.6 1 .1 0 .1.1 0 .1s-.3.1-.4.2c-.1 0-.1.1 0 .1.2.1.4.2.7.4.3.2.3.4 0 .6z"/></g><circle fill="#CCC" cx="168.7" cy="161.9" r="7.3"/><path fill="#FFF" d="M171.8 163.9h-.4c-.5.2-1 .4-1.4.4-.6 0-1-.3-1-1V161h2.3c.2 0 .7-.1.7-.2v-1.4c0-.2-.5-.4-.7-.4H169v-1.8c0-.1.1-.2 0-.2h-.3c-.1 0-.1 0-.2.1l-3.4 3c-.1.1-.1.1-.1.2v.5c0 .2.1.2.2.2h.8v3c0 1 .3 1.6.7 2 .5.5 1.4.8 2.4.8.9 0 1.9-.2 2.6-.8.1-.1.3-.1.3-.2v-1.7s-.2-.1-.2-.2z"/><path fill="#FFF" d="M111.4 149.9H42.3V8.5c0-3.8 3.1-6.9 6.9-6.9H178l-66.6 148.3z" opacity=".4"/><path fill="#FFF" stroke="#CCC" stroke-miterlimit="10" d="M90.2 200.5c0 2.6-2.1 4.7-4.7 4.7H5.4c-2.6 0-4.7-2.1-4.7-4.7V75.7c0-2.6 2.1-4.7 4.7-4.7h80.1c2.6 0 4.7 2.1 4.7 4.7v124.8z"/><path fill="none" stroke="#CCC" stroke-width="2" stroke-miterlimit="10" d="M90.2 200.5c0 2.6-2.1 4.7-4.7 4.7H5.4c-2.6 0-4.7-2.1-4.7-4.7V75.7c0-2.6 2.1-4.7 4.7-4.7h80.1c2.6 0 4.7 2.1 4.7 4.7v124.8z"/><path fill="#C4E1F7" d="M5.4 83.4h80v107.7h-80z"/><path fill="#F2F2F2" d="M6 84.8h78.9v106.5H6z"/><path fill="#CCC" d="M84.3 189.9H6.6V84.5h77.7v105.4zm1.2-106.5h-80V191h80V83.4z"/><path opacity=".4" fill-rule="evenodd" clip-rule="evenodd" fill="#FFF" d="M4.4 77.8h47L9 192.9H4.4"/><circle fill="none" stroke="#CCC" stroke-width="2" stroke-miterlimit="10" cx="45.5" cy="197.1" r="3.4"/><path fill="#CCC" d="M45.5 75.4c.6 0 1.1.5 1.1 1.1s-.5 1.1-1.1 1.1c-.6 0-1.1-.5-1.1-1.1s.5-1.1 1.1-1.1m0-.6c-1 0-1.8.8-1.8 1.8s.8 1.8 1.8 1.8 1.8-.8 1.8-1.8-.9-1.8-1.8-1.8"/><g fill="#CCC"><path d="M64.8 125.6l-17.3 10.1c-.3.2-.5.6-.5 1l.1 20.1c0 .4.3.5.6.3L64.8 147c.3-.2.2-.6.2-1v-20.1c0-.3.1-.5-.2-.3zM57 137.5c0-.4.1-.8.3-.9l2.3-1.4c.8-.5 1.3 0 1.4.9-.5.5-1 1.4-1 2.5v1l-3 2v-4.1zm-3.7 1.4l2.3-1.4c.2-.1.4 0 .4.4v4.1l-3 2.1v-1c0-.6-.6-1.2-1-1.2 0-1.4.4-2.6 1.3-3zm9.7 1c0 .8-.7 1.7-1.3 2l-.7.2v.9c0 .4.2.7 0 .8-.3.2 0 0 0-.3v-.9l-8 5v.9c0 .4-.7.7-1 .8-.3.1-1 0-1-.3v-.9l-.2.2c-.6.4-.8 0-.8-.8v-3.1c0-.8.4-1.7 1-2 .6-.4 1 0 1 .8v1.7l9-5.2V138c0-.8.4-1.7 1-2 .6-.3 1 .1 1 .7v3.2zm-18.7-4.2l-17.5-10.1c-.3-.2-.6 0-.6.3V146c0 .4.2.8.6 1l17.5 10.1c.3.2.6 0 .6-.3l.1-20.1c-.1-.4-.4-.8-.7-1zm-3.3 8.4c-.4-.2-.8-.5-1.4-.8v6.7c-.7-.4-1.7-.9-2.6-1.5v-4.9c-.8-.4-2-1.1-2.8-1.6v4.9c-.6-.4-1.9-1.1-2.6-1.5v-6.5c-.3-.2-.7-.4-1.3-.8-.3-.2-.4-.2-.3-.4.2-.1.8-.5 1.6-1v-3.8c0-.2.1-.1.3-.1l.8.5c.2.1.3.3.3.5v2c1-.6 1.9-1.3 2.4-1.6.1-.1.2-.1.3.2.1 0 5.4 9.7 5.4 9.7.1.2 0 .2-.1 0zm7.4-24.7c-1-.3-1.9-.5-2.9-.8-.6-.1-.8-.1-1.3.1-1.7 1-3.4 2-5.1 2.9-.5.2-.5.4-.2.8.5.5.9 1.1 1.4 1.7.2.2.2.2.4.1 1.4-.7 2.6-1.4 3.9-2.2 1.3-.8 2.6-1.5 3.9-2.3.1-.2.1-.3-.1-.3zm3.3.6c-.5-.3-1.4-.4-2-.1s-.5.8.1 1.1c.6.3 1.4.4 2 .1.6-.2.5-.8-.1-1.1zm-8.4 4.9c-.6-.3-1.5-.3-2-.1-.5.3-.5.8.1 1.1.5.3 1.4.4 2 .1.5-.2.4-.7-.1-1.1z"/><path d="M64 123.1L46.6 113c-.3-.2-.8-.2-1.1 0L28 123.1c-.3.2-.3.5 0 .7l17.4 10.1c.3.2.8.2 1.1 0L64 123.8c.3-.2.3-.5 0-.7zm-7.6.5c-.5.3-1.3.3-1.9-.1-.4-.2-.7-.4-1-.6-.2-.1-.2-.1-.5 0-1.3.7-2.3 1.3-3.4 1.9-1.1.6-2.1 1.2-3.2 1.8-.2.1-.2.1 0 .3.4.2.7.4 1.1.6.5.3.5.6.3.9-.2.3-.8.5-1.3.4-.3 0-.6-.2-.8-.2-.4-.2-.7-.4-1.1-.6-.1-.1-.2-.1-.3 0-.2.1-.5.2-.7.4-.1.1-.2.1-.3 0-1.1-.7-2.3-1.4-3.5-2-.7-.4-.8-.9-.4-1.4.1-.1 0-.1 0-.2-.5-.7-1.1-1.4-1.7-2-.5-.6-.5-1.1.4-1.5 1.7-1 3.5-2 5.2-3 .8-.5 1.5-.5 2.6-.2s2.3.6 3.4.9c.2.1.3.1.5 0 .8-.1 1.4-.1 2.1.2.4.2.7.4 1.1.6.8.5 1.7 1 2.6 1.5.2.1.2.1 0 .2s-.5.2-.6.4c-.2.1-.2.2 0 .2.4.2.7.4 1.1.6.7.2.8.6.3.9z"/></g><defs><path id="g" d="M295.7 150.2H40.2V6.9c0-3.9 3.1-7 7-7h241.5c3.9 0 7 3.1 7 7v143.3z"/></defs><clipPath id="h"><use xlink:href="#g" overflow="visible"/></clipPath><g clip-path="url(#h)" fill="#CCC"><path d="M201.6 65.8l-29.8 17.4c-.5.3-.8 1.1-.8 1.7l.2 34.6c0 .6.5.9 1 .6l29.5-17.4c.5-.3.3-1.1.3-1.7V66.3c0-.6.2-.8-.4-.5zM188 86.2c0-.6.3-1.3.6-1.6l4.1-2.5c1.4-.8 2.1 0 2.2 1.6-.8.9-1.9 2.5-1.9 4.3v1.7l-5 3.5v-7zm-6.2 2.5l4.3-2.5c.4-.3.9 0 .9.6v7l-6 3.6v-1.7c0-1-.8-2.1-1.6-2.1.1-2.2 1-4.1 2.4-4.9zm17.2 1.7c0 1.3-1.5 2.9-2.6 3.4l-1.4.4v1.6c0 .6.4 1.2 0 1.4-.5.3 0 0 0-.5V95l-14 8.6v1.6c0 .6-1 1.2-1.5 1.4-.5.3-1.5 0-1.5-.5v-1.6l-.4.4c-1 .6-1.6 0-1.6-1.3v-5.3c0-1.3 1-2.8 2-3.4 1-.6 2 0 2 1.3v2.9l15-9v-2.8c0-1.3.9-2.9 1.9-3.4 1-.5 2.1.1 2.1 1.2v5.3zm-32.6-7.2l-30.1-17.4c-.5-.3-1-.1-1 .5l-.1 34.6c0 .6.4 1.4 1 1.7l30.1 17.4c.5.3 1 .1 1-.6l.1-34.6c-.1-.6-.5-1.3-1-1.6zm-5.8 14.5c-.6-.4-1.3-.8-2.5-1.4 0 5.1-.1 9.6-.1 11.5-1.2-.7-2.8-1.6-4.5-2.6 0-2.1 0-5.1.1-8.4-1.3-.7-3.5-2-4.8-2.8 0 2.3 0 5.3-.1 8.4-1-.7-3.4-2-4.5-2.6 0-3.5 0-7.5.1-11.3-.5-.3-1.2-.7-2.2-1.3-.5-.3-.8-.4-.5-.7.4-.3 1.4-.9 2.7-1.8v-6.5c0-.3.3-.3.5-.1l1.4.8c.3.1.5.5.5.8v3.5c1.7-1 3.3-2.2 4.2-2.7.1-.1.4-.1.5.3.1 0 9.4 16.8 9.4 16.8.2.3.1.5-.2.1zM173.4 55c-1.7-.5-3.2-.9-4.9-1.4-1-.3-1.4-.3-2.2.1-3 1.7-5.8 3.4-8.8 5.1-.8.4-.9.6-.4 1.3.8.9 1.6 1.8 2.3 2.9.3.3.4.3.6.1 2.3-1.2 4.5-2.5 6.7-3.8 2.2-1.3 4.4-2.6 6.7-3.9.4-.1.4-.2 0-.4zm5.7 1.2c-.9-.5-2.5-.6-3.4-.1-.9.5-.8 1.3.3 1.9 1 .5 2.5.6 3.4.1.9-.5.7-1.4-.3-1.9zm-14.5 8.4c-1-.5-2.6-.5-3.4-.1-.9.5-.8 1.3.1 2 .9.5 2.5.6 3.4.1.9-.6.8-1.3-.1-2z"/><path d="M200.3 61.5l-29.9-17.4c-.5-.3-1.4-.3-1.9 0l-30.1 17.4c-.5.3-.5.8 0 1.1L168.2 80c.5.3 1.4.3 1.9 0l30.1-17.4c.6-.3.6-.8.1-1.1zm-13.2.8c-.9.5-2.2.5-3.2-.1-.6-.3-1.2-.6-1.7-1-.3-.1-.4-.1-.8 0-2.2 1.2-4 2.2-5.8 3.2-1.8 1-3.6 2.1-5.4 3.1-.3.1-.4.3 0 .5.6.4 1.2.7 1.8 1 .8.5.9 1 .5 1.6-.4.5-1.3.8-2.2.6-.5 0-1-.3-1.4-.4-.6-.4-1.2-.6-1.8-1-.3-.1-.4-.1-.5 0-.4.3-.8.4-1.2.7-.1.1-.4.1-.5 0-1.9-1.2-4-2.3-6-3.5-1.2-.7-1.4-1.6-.6-2.3.1-.1 0-.3 0-.4-.9-1.2-1.8-2.3-2.9-3.5-.9-1-.8-1.8.6-2.6 3-1.7 6-3.4 8.9-5.2 1.4-.8 2.6-.9 4.5-.4s3.9 1 5.8 1.6c.3.1.5.1.9 0 1.3-.3 2.5-.3 3.6.3.6.3 1.2.6 1.8 1 1.4.9 3 1.7 4.4 2.6.3.1.3.3 0 .4-.4.1-.8.4-1 .6-.3.1-.3.3 0 .4.7.4 1.2.6 1.8 1 1.2.6 1.4 1.3.4 1.8z"/></g></svg>