<?xml version="1.0" encoding="utf-8"?>
<!-- Generator: Adobe Illustrator 19.0.1, SVG Export Plug-In . SVG Version: 6.00 Build 0)  -->
<svg version="1.1" id="Layer_1" xmlns:sketch="http://www.bohemiancoding.com/sketch/ns"
	 xmlns="http://www.w3.org/2000/svg" xmlns:xlink="http://www.w3.org/1999/xlink" x="0px" y="0px" viewBox="-279 371 52 52"
	 style="enable-background:new -279 371 52 52;" xml:space="preserve">
<style type="text/css">
	.st0{fill:#A6A39C;}
</style>
<title>Fill 6 + Fill 7 + Fill 8</title>
<desc>Created with Sketch.</desc>
<g id="Page-1" sketch:type="MSPage">
	<g id="_x35_4-Social-Media-Icons" transform="translate(-465.500000, -19.000000)" sketch:type="MSArtboardGroup">
		<g id="Fill-6-_x2B_-Fill-7-_x2B_-Fill-8" transform="translate(465.000000, 19.000000)" sketch:type="MSLayerGroup">
			<path id="Fill-6" sketch:type="MSShapeGroup" class="st0" d="M-257.8,385.4c-2-0.1-3.4,2-3,4.7c0.4,2.7,2.3,4.6,4.3,4.6
				c2,0.1,3.2-1.7,2.9-4.4C-254.1,387.6-255.8,385.4-257.8,385.4"/>
			<path id="Fill-7" sketch:type="MSShapeGroup" class="st0" d="M-257,400.2c-3,0-5.6,1.9-5.6,4.2c0,2.3,2.2,4.2,5.2,4.2
				c4.3,0,5.8-1.8,5.8-4.1c0-0.3,0-0.6-0.1-0.8c-0.3-1.3-1.7-2-3.3-3.2C-255.6,400.3-256.3,400.2-257,400.2"/>
			<path id="Fill-8" sketch:type="MSShapeGroup" class="st0" d="M-239.8,389.7h-3.5v3.5h-1.7v-3.5h-3.5V388h3.5v-3.5h1.7v3.5h3.5
				V389.7L-239.8,389.7z M-250.7,390.2c0,1.7-0.9,3-2.2,4c-1.3,1-1.5,1.4-1.5,2.3c0,0.7,1.5,1.8,2.2,2.3c2.4,1.8,2.9,3,2.9,5.3
				c0,2.9-3.1,5.7-8.1,5.7c-4.4,0-8.1-1.8-8.1-4.7c0-2.9,3.1-5.9,7.5-5.9c0.5,0,0.9,0,1.4,0c-0.6-0.6-1.1-1.1-1.1-2
				c0-0.5,0.2-1,0.4-1.5c-0.2,0-0.5,0-0.7,0c-3.6,0-5.7-2.5-5.7-5.7c0-3.1,3.2-6,7-6h7.6l-1.7,1.8h-2
				C-251.4,386.7-250.7,388.4-250.7,390.2L-250.7,390.2z M-252.6,371.3c-14.2,0-25.6,11.5-25.6,25.7c0,14.2,11.5,25.7,25.6,25.7
				c14.2,0,25.6-11.5,25.6-25.7C-227,382.8-238.5,371.3-252.6,371.3L-252.6,371.3z"/>
		</g>
	</g>
</g>
</svg>
