<?xml version="1.0" encoding="utf-8"?>
<!-- Generator: Adobe Illustrator 19.0.1, SVG Export Plug-In . SVG Version: 6.00 Build 0)  -->
<svg version="1.1" id="Layer_1" xmlns:sketch="http://www.bohemiancoding.com/sketch/ns"
	 xmlns="http://www.w3.org/2000/svg" xmlns:xlink="http://www.w3.org/1999/xlink" x="0px" y="0px" viewBox="-279 371 52 52"
	 style="enable-background:new -279 371 52 52;" xml:space="preserve">
<style type="text/css">
	.st0{fill:#A6A39C;}
</style>
<title>Group</title>
<desc>Created with Sketch.</desc>
<g id="Page-1" sketch:type="MSPage">
	<g id="_x35_4-Social-Media-Icons" transform="translate(-359.500000, -155.000000)" sketch:type="MSArtboardGroup">
		<g id="Group" transform="translate(359.000000, 155.000000)" sketch:type="MSLayerGroup">
			<path id="Fill-25" sketch:type="MSShapeGroup" class="st0" d="M-253,393.2c0.2,0,0.4-0.1,0.5-0.2c0.1-0.1,0.2-0.3,0.2-0.5v-3.9
				c0-0.2-0.1-0.3-0.2-0.4c-0.1-0.1-0.3-0.1-0.5-0.1c-0.2,0-0.3,0-0.4,0.1c-0.1,0.1-0.2,0.2-0.2,0.4v3.9c0,0.2,0.1,0.3,0.2,0.5
				C-253.4,393.2-253.2,393.2-253,393.2"/>
			<path id="Fill-26" sketch:type="MSShapeGroup" class="st0" d="M-249.9,405.5c0,0.2,0,0.4-0.1,0.4c-0.1,0.1-0.2,0.1-0.4,0.1
				c-0.1,0-0.2,0-0.3-0.1c-0.1,0-0.2-0.1-0.3-0.2v-4.1c0.1-0.1,0.2-0.2,0.3-0.2c0.1,0,0.2-0.1,0.3-0.1c0.2,0,0.3,0.1,0.4,0.2
				c0.1,0.1,0.1,0.3,0.1,0.5V405.5L-249.9,405.5z M-249.8,400.4c-0.2,0-0.4,0.1-0.6,0.2c-0.2,0.1-0.4,0.3-0.6,0.5v-2.8h-1.3v8.8h1.3
				v-0.5c0.2,0.2,0.4,0.3,0.6,0.4c0.2,0.1,0.4,0.1,0.7,0.1c0.4,0,0.7-0.1,0.9-0.4c0.2-0.2,0.3-0.6,0.3-1.1v-3.6
				c0-0.5-0.1-0.9-0.3-1.2C-249.1,400.6-249.4,400.4-249.8,400.4L-249.8,400.4z"/>
			<path id="Fill-27" sketch:type="MSShapeGroup" class="st0" d="M-262,399.5h1.5v7.5h1.5v-7.5h1.5v-1.3h-4.5V399.5"/>
			<path id="Fill-28" sketch:type="MSShapeGroup" class="st0" d="M-254.5,405.4c-0.1,0.1-0.3,0.3-0.4,0.4c-0.1,0.1-0.3,0.1-0.4,0.1
				c-0.1,0-0.2,0-0.3-0.1c-0.1-0.1-0.1-0.2-0.1-0.3v-5h-1.3v5.4c0,0.4,0.1,0.7,0.2,0.9c0.2,0.2,0.4,0.3,0.7,0.3
				c0.2,0,0.5-0.1,0.8-0.2c0.3-0.1,0.5-0.3,0.7-0.6v0.7h1.3v-6.5h-1.3V405.4"/>
			<path id="Fill-29" sketch:type="MSShapeGroup" class="st0" d="M-240,405c0,2.6-2.1,4.7-4.7,4.7h-16.3c-2.6,0-4.7-2.1-4.7-4.7
				v-3.8c0-2.6,2.1-4.7,4.7-4.7h16.3c2.6,0,4.7,2.1,4.7,4.7V405L-240,405z M-259.1,384.5l1.1,3.9h0.1l1-3.9h1.7l-1.9,5.7v4h-1.6
				v-3.9l-2-5.9H-259.1L-259.1,384.5z M-255.1,388.7c0-0.6,0.2-1,0.6-1.3c0.4-0.3,0.9-0.5,1.6-0.5c0.6,0,1.1,0.2,1.5,0.5
				c0.4,0.3,0.6,0.8,0.6,1.3v3.7c0,0.6-0.2,1.1-0.6,1.4c-0.4,0.3-0.9,0.5-1.6,0.5c-0.6,0-1.1-0.2-1.5-0.5c-0.4-0.4-0.6-0.8-0.6-1.5
				V388.7L-255.1,388.7z M-249.7,387.1h1.5v5.5c0,0.2,0,0.3,0.1,0.4c0.1,0.1,0.2,0.1,0.3,0.1c0.1,0,0.2,0,0.4-0.2
				c0.2-0.1,0.3-0.2,0.4-0.4v-5.4h1.5v7.2h-1.5v-0.8c-0.3,0.3-0.5,0.5-0.8,0.7c-0.3,0.2-0.6,0.2-0.8,0.2c-0.3,0-0.6-0.1-0.8-0.3
				c-0.2-0.2-0.3-0.5-0.3-1V387.1L-249.7,387.1z M-252.8,371.4c-14.2,0-25.6,11.5-25.6,25.7c0,14.2,11.5,25.7,25.6,25.7
				c14.2,0,25.6-11.5,25.6-25.7C-227.2,382.9-238.6,371.4-252.8,371.4L-252.8,371.4z"/>
			<path id="Fill-30" sketch:type="MSShapeGroup" class="st0" d="M-245.4,402.9h-1.1v-0.7c0-0.3,0-0.5,0.1-0.6
				c0.1-0.1,0.2-0.2,0.4-0.2c0.2,0,0.3,0.1,0.4,0.2c0.1,0.1,0.1,0.3,0.1,0.6V402.9L-245.4,402.9z M-245.9,400.3
				c-0.6,0-1.1,0.2-1.4,0.5c-0.4,0.4-0.6,0.8-0.6,1.4v2.9c0,0.6,0.2,1.1,0.5,1.5c0.3,0.4,0.8,0.5,1.4,0.5c0.6,0,1.1-0.2,1.5-0.5
				c0.3-0.3,0.5-0.8,0.5-1.5v-0.3h-1.3v0.3c0,0.4,0,0.6-0.1,0.7c-0.1,0.1-0.2,0.2-0.5,0.2c-0.2,0-0.4-0.1-0.4-0.2
				c-0.1-0.1-0.1-0.4-0.1-0.7v-1.2h2.5v-1.7c0-0.6-0.2-1.1-0.5-1.4C-244.8,400.5-245.3,400.3-245.9,400.3L-245.9,400.3z"/>
		</g>
	</g>
</g>
</svg>
