<?xml version="1.0" encoding="utf-8"?>
<!-- Generator: Adobe Illustrator 19.0.1, SVG Export Plug-In . SVG Version: 6.00 Build 0)  -->
<svg version="1.1" id="Layer_1" xmlns:sketch="http://www.bohemiancoding.com/sketch/ns"
	 xmlns="http://www.w3.org/2000/svg" xmlns:xlink="http://www.w3.org/1999/xlink" x="0px" y="0px" viewBox="-279 371 52 52"
	 style="enable-background:new -279 371 52 52;" xml:space="preserve">
<style type="text/css">
	.st0{fill:#A6A39C;}
</style>
<title>Fill 18</title>
<desc>Created with Sketch.</desc>
<g id="_x35_4-Social-Media-Icons" transform="translate(-215.500000, -474.000000)" sketch:type="MSArtboardGroup">
	<g id="Group-19" transform="translate(62.000000, 390.643929)" sketch:type="MSLayerGroup">
		<path id="Fill-18" sketch:type="MSShapeGroup" class="st0" d="M-91.4,493.1c0-11.5-9.2-20.8-20.6-20.8v-4.9
			c14.1,0,25.5,11.5,25.5,25.7H-91.4L-91.4,493.1z M-100,493.1c0-3.2-1.2-6.2-3.5-8.5c-2.3-2.3-5.2-3.5-8.4-3.5v-4.9
			c9.3,0,16.8,7.6,16.8,17H-100L-100,493.1z M-108.6,493.1c-1.9,0-3.4-1.5-3.4-3.4c0-1.9,1.5-3.4,3.4-3.4c1.9,0,3.4,1.5,3.4,3.4
			C-105.2,491.6-106.7,493.1-108.6,493.1L-108.6,493.1z M-99.2,454.6c-14.2,0-25.6,11.5-25.6,25.7c0,14.2,11.5,25.7,25.6,25.7
			s25.6-11.5,25.6-25.7C-73.6,466.1-85.1,454.6-99.2,454.6L-99.2,454.6z"/>
	</g>
</g>
</svg>
