<?xml version="1.0" encoding="utf-8"?>
<!-- Generator: Adobe Illustrator 19.0.1, SVG Export Plug-In . SVG Version: 6.00 Build 0)  -->
<svg version="1.1" id="Layer_1" xmlns:sketch="http://www.bohemiancoding.com/sketch/ns"
	 xmlns="http://www.w3.org/2000/svg" xmlns:xlink="http://www.w3.org/1999/xlink" x="0px" y="0px" viewBox="-279 371 52 52"
	 style="enable-background:new -279 371 52 52;" xml:space="preserve">
<style type="text/css">
	.st0{fill:#A6A39C;}
</style>
<title>Fill 17</title>
<desc>Created with Sketch.</desc>
<g id="Page-1" sketch:type="MSPage">
	<g id="_x35_4-Social-Media-Icons" transform="translate(-138.500000, -474.000000)" sketch:type="MSArtboardGroup">
		<g id="Group-19" transform="translate(62.000000, 390.643929)" sketch:type="MSLayerGroup">
			<path id="Fill-17" sketch:type="MSShapeGroup" class="st0" d="M-166.6,475c0,0.2,0,0.5,0,0.7c0,7-5.3,15-15,15
				c-3,0-5.7-0.9-8.1-2.4c0.4,0,0.8,0.1,1.3,0.1c2.5,0,4.7-0.8,6.5-2.3c-2.3,0-4.2-1.6-4.9-3.7c0.3,0.1,0.6,0.1,1,0.1
				c0.5,0,0.9-0.1,1.4-0.2c-2.4-0.5-4.2-2.6-4.2-5.2v-0.1c0.7,0.4,1.5,0.6,2.4,0.7c-1.4-0.9-2.3-2.6-2.3-4.4c0-1,0.3-1.9,0.7-2.7
				c2.6,3.2,6.5,5.3,10.8,5.5c-0.1-0.4-0.1-0.8-0.1-1.2c0-2.9,2.4-5.3,5.3-5.3c1.5,0,2.9,0.6,3.8,1.7c1.2-0.2,2.3-0.7,3.3-1.3
				c-0.4,1.2-1.2,2.3-2.3,2.9c1.1-0.1,2.1-0.4,3-0.8C-164.7,473.4-165.6,474.3-166.6,475L-166.6,475z M-176.8,454.6
				c-14.2,0-25.6,11.5-25.6,25.7c0,14.2,11.5,25.7,25.6,25.7c14.2,0,25.6-11.5,25.6-25.7C-151.2,466.1-162.6,454.6-176.8,454.6
				L-176.8,454.6z"/>
		</g>
	</g>
</g>
</svg>
