<?xml version="1.0" encoding="utf-8"?>
<!-- Generator: Adobe Illustrator 19.0.1, SVG Export Plug-In . SVG Version: 6.00 Build 0)  -->
<svg version="1.1" id="Layer_1" xmlns:sketch="http://www.bohemiancoding.com/sketch/ns"
	 xmlns="http://www.w3.org/2000/svg" xmlns:xlink="http://www.w3.org/1999/xlink" x="0px" y="0px" viewBox="-279 371 52 52"
	 style="enable-background:new -279 371 52 52;" xml:space="preserve">
<style type="text/css">
	.st0{fill:#A6A39C;}
</style>
<title>Fill 16</title>
<desc>Created with Sketch.</desc>
<g id="Page-1" sketch:type="MSPage">
	<g id="_x35_4-Social-Media-Icons" transform="translate(-61.500000, -474.000000)" sketch:type="MSArtboardGroup">
		<g id="Group-19" transform="translate(62.000000, 390.643929)" sketch:type="MSLayerGroup">
			<path id="Fill-16" sketch:type="MSShapeGroup" class="st0" d="M-247.9,480.3h-3.6v12.8h-5.3v-12.8h-2.5v-4.5h2.5v-2.9
				c0-2.1,1-5.4,5.4-5.4l3.9,0v4.4h-2.9c-0.5,0-1.1,0.2-1.1,1.2v2.7h4.1L-247.9,480.3L-247.9,480.3z M-253.4,454.6
				c-14.2,0-25.6,11.5-25.6,25.7c0,14.2,11.5,25.7,25.6,25.7c14.2,0,25.6-11.5,25.6-25.7C-227.7,466.1-239.2,454.6-253.4,454.6
				L-253.4,454.6z"/>
		</g>
	</g>
</g>
</svg>
