<?xml version="1.0" encoding="utf-8"?>
<!-- Generator: Adobe Illustrator 20.1.0, SVG Export Plug-In . SVG Version: 6.00 Build 0)  -->
<svg version="1.0" id="Layer_1" xmlns="http://www.w3.org/2000/svg" xmlns:xlink="http://www.w3.org/1999/xlink" x="0px" y="0px"
	 width="316.1px" height="534.8px" viewBox="0 0 316.1 534.8" enable-background="new 0 0 316.1 534.8" xml:space="preserve">
<radialGradient id="SVGID_1_" cx="47.0746" cy="20.7142" r="220.3386" gradientUnits="userSpaceOnUse">
	<stop  offset="0" style="stop-color:#574537"/>
	<stop  offset="0.6843" style="stop-color:#554335"/>
	<stop  offset="1" style="stop-color:#32241D"/>
</radialGradient>
<path fill="url(#SVGID_1_)" d="M267.4,238.6c-7.4-4.1,28-50.2,25.5-95.5C288.3,59,247.6,6.8,177.5,1.8
	C140.9-0.8,84.9,29.6,76.1,37.9c-7.9,7.4-23.4,52.6-26.5,98l6.9-4.2c0,0-8.2,45.8,7.8,76c19.2,30.9,56.6,55.9,111.5,63.7
	c81.6,11.5,118.8-33.6,118.8-33.6S274.8,242.7,267.4,238.6z"/>
<g>
	<ellipse fill="#D6D6D6" cx="183.9" cy="529.8" rx="112.7" ry="3.3"/>
</g>
<g>
	<linearGradient id="SVGID_2_" gradientUnits="userSpaceOnUse" x1="224.9966" y1="458.7148" x2="224.9966" y2="404.3238">
		<stop  offset="0" style="stop-color:#FCC58A"/>
		<stop  offset="0.3286" style="stop-color:#FAC287"/>
		<stop  offset="0.5501" style="stop-color:#F6B97F"/>
		<stop  offset="0.7392" style="stop-color:#EDAA71"/>
		<stop  offset="0.8528" style="stop-color:#E69D65"/>
		<stop  offset="1" style="stop-color:#CE8857"/>
	</linearGradient>
	<path fill="url(#SVGID_2_)" d="M197.7,447.6c-16.6-18.5-14-58.7-16.2-74.5c-2.3-15.8,7.6-36.7,12.1-14.3c4.9,24.5-0.6,63.6,15.8,78
		c20.5,18,52.4,41,59,66.4c3.8,14.8-10.9,22.3-22.2,4.6C234.9,490.1,218.4,470.7,197.7,447.6z"/>
	
		<radialGradient id="SVGID_3_" cx="431.3952" cy="1862.3961" r="17.1918" gradientTransform="matrix(0.7654 -0.6436 0.6436 0.7654 -1271.7218 -646.2109)" gradientUnits="userSpaceOnUse">
		<stop  offset="0" style="stop-color:#454545"/>
		<stop  offset="1" style="stop-color:#252525"/>
	</radialGradient>
	<path fill="url(#SVGID_3_)" d="M253.5,477.7c8.5,14,9.3,27.5,2.4,31.3c-3.9,2.2-7.7,0.5-9.8-1.2c0,0,3,4.8,7.3,9.1
		c7.6,7.6,22.2,4.9,17.3-12.3C267.7,494.1,261.3,486,253.5,477.7z"/>
</g>
<linearGradient id="SVGID_4_" gradientUnits="userSpaceOnUse" x1="326.7425" y1="901.7505" x2="326.7425" y2="856.6976" gradientTransform="matrix(0.9697 -0.2441 0.2441 0.9697 -387.5558 -341.397)">
	<stop  offset="0" style="stop-color:#FCC58A"/>
	<stop  offset="0.3286" style="stop-color:#FAC287"/>
	<stop  offset="0.5501" style="stop-color:#F6B97F"/>
	<stop  offset="0.7392" style="stop-color:#EDAA71"/>
	<stop  offset="0.8528" style="stop-color:#E69D65"/>
	<stop  offset="1" style="stop-color:#CE8857"/>
</linearGradient>
<path fill="url(#SVGID_4_)" d="M137.9,515.6c-3.5-48.7-8.9-88.2,0.5-132.3c11.3-52.9,11.3-36.6,15.6-21.9c4.3,14.8-9.2,30.1-7,64.3
	c1.7,25.4,6.4,45.5,12.1,69.9C168.5,535.9,139.7,540.4,137.9,515.6z"/>
<radialGradient id="SVGID_5_" cx="293.7658" cy="883.6967" r="17.1264" gradientTransform="matrix(0.9784 -0.207 0.207 0.9784 -321.0182 -292.8153)" gradientUnits="userSpaceOnUse">
	<stop  offset="0" style="stop-color:#454545"/>
	<stop  offset="1" style="stop-color:#252525"/>
</radialGradient>
<path fill="url(#SVGID_5_)" d="M157.3,488.3c0.9,16.4-4.7,28.6-12.6,28.7c-4.5,0-6.3-2.6-7.3-5c0.6,4.7,1,8.3,1.3,10.5
	c1.4,10.7,17.4,15.1,21.1-2.3C162.2,509.4,160.3,499.3,157.3,488.3z"/>
<radialGradient id="SVGID_6_" cx="-69.7712" cy="242.8219" r="356.8062" gradientUnits="userSpaceOnUse">
	<stop  offset="0.6503" style="stop-color:#DB1E27"/>
	<stop  offset="1" style="stop-color:#4E0F10"/>
</radialGradient>
<path fill="url(#SVGID_6_)" d="M158.3,270.8c23.1,0,51.1,0,68.4,47.8s8.2,90.7,8.2,90.7H108.9c0,0-13.2-28.8-9.1-65.9
	S122.1,270.8,158.3,270.8z"/>
<linearGradient id="SVGID_7_" gradientUnits="userSpaceOnUse" x1="309.9509" y1="1515.8073" x2="389.0764" y2="1495.5658" gradientTransform="matrix(0.7314 -0.6819 0.6819 0.7314 -1208.379 -550.3982)">
	<stop  offset="0" style="stop-color:#FCC58A"/>
	<stop  offset="0.3854" style="stop-color:#FAC287"/>
	<stop  offset="0.645" style="stop-color:#F6B97F"/>
	<stop  offset="0.8669" style="stop-color:#EDAA71"/>
	<stop  offset="1" style="stop-color:#E69D65"/>
</linearGradient>
<path fill="url(#SVGID_7_)" d="M115.4,219.8c-4.5-1.4-7.9,10.1-9.8,16.9C96,271,87.4,300.8,62.8,327.5c-2.3,2.5-7.1,5.9-8.5,7.3
	c0,0-10.9,0.3-17.6,3.6l-16.3,6.8c0,0-2.5,5.4,3.8,10.4l10.3-3.5c-0.1,0.3-1.1,2.8-3.3,5.7l-12.1,18.7c0,0,2.8,5.7,8,5.9l11.7-15
	c0.3,0.2,2.2,1.1,2.5,1.4l-10.2,18.7c0,0,3.5,5.3,8.7,4.8l10.9-18.7c0.3,0.1,1.9,1.2,2.3,1.3L45.1,392c0,0,3.7,3.3,9,2.3l12.6-22.8
	c0,0,6-10.2,9.6-18.3c5.9-13.7,9.2-26.9,17.5-43.6c16-32.3,20.1-57.6,22.7-69.2C118.9,228.9,119,221,115.4,219.8z"/>
<path fill="#661412" d="M197.9,279.1c-13.1-10.6-25.7-8.2-39.6-8.2c-14.8,0-23.9,2.8-33,12.4c6.1,3.3,15,8.2,34.6,8.2
	C177.1,291.4,188.9,285,197.9,279.1z"/>
<radialGradient id="SVGID_8_" cx="120.1559" cy="161.7448" r="154.821" gradientTransform="matrix(0.9999 0 0 1 -8.540000e-02 0)" gradientUnits="userSpaceOnUse">
	<stop  offset="0.6503" style="stop-color:#DB1E27"/>
	<stop  offset="1" style="stop-color:#4E0F10"/>
</radialGradient>
<path fill="url(#SVGID_8_)" d="M96.5,216.5c0,0,107.9-4.9,131.8-4.1c0,0-8.3,45.4-38.7,63.5c-22.2,13.2-50.2,7.9-65.9-3.3
	C104,258.5,96.5,216.5,96.5,216.5z"/>
<linearGradient id="SVGID_9_" gradientUnits="userSpaceOnUse" x1="161.2314" y1="256.3673" x2="161.2314" y2="219.2847">
	<stop  offset="0" style="stop-color:#FCC58A"/>
	<stop  offset="0.2848" style="stop-color:#F9C287"/>
	<stop  offset="0.4764" style="stop-color:#F0BA7F"/>
	<stop  offset="0.5773" style="stop-color:#E8B277"/>
	<stop  offset="0.908" style="stop-color:#CE985E"/>
</linearGradient>
<path fill="url(#SVGID_9_)" d="M139.4,205.7c0.8,2.2,9.4,38.1,18.1,39.8c4.1,0.8,19.8-31.6,25.5-43.1L139.4,205.7z"/>
<polygon fill="#721514" points="144.9,224.1 132.8,233.8 129,215.9 139.4,205.7 "/>
<polygon fill="#721514" points="172.9,224.7 185.5,231.8 194.9,198.9 180.6,201.6 "/>
<radialGradient id="SVGID_10_" cx="251.3697" cy="60.2683" r="128.3552" gradientTransform="matrix(0.9601 -3.540000e-02 3.830000e-02 0.9617 -124.9643 22.9129)" gradientUnits="userSpaceOnUse">
	<stop  offset="0" style="stop-color:#FCC58A"/>
	<stop  offset="0.575" style="stop-color:#FCC289"/>
	<stop  offset="0.962" style="stop-color:#FBB986"/>
	<stop  offset="1" style="stop-color:#FBB885"/>
</radialGradient>
<path fill="url(#SVGID_10_)" d="M165.9,18.8c26.4,1.2,47.7,18.1,63.3,52.3c9.6,21.2,29.3,81.2,5.1,109.7
	c-15.3,18-50.2,35.5-78.6,35.5c-23.1,0-54-9.1-69.1-33.4c-13.6-21.9-8.2-59-0.1-93.2C101.2,27,144.1,17.7,165.9,18.8z"/>
<g>
	<path fill="#CE985E" d="M175.1,48.7c-40.6-12.9-54.9-22.1-67.3,1.8c-1.3,2.6-7.3,2.9-8.5,5.7c2.7,9.3,24.8,35.8,32.6,41.2
		c0,0-8.3-19-6.1-16.7c41.3,44.4,81.4,66.7,120,69.7C247.3,135.3,215.7,61.6,175.1,48.7z"/>
</g>
<radialGradient id="SVGID_11_" cx="66.1779" cy="30.7167" r="198.1489" gradientUnits="userSpaceOnUse">
	<stop  offset="0" style="stop-color:#574537"/>
	<stop  offset="0.6843" style="stop-color:#554335"/>
	<stop  offset="1" style="stop-color:#32241D"/>
</radialGradient>
<path fill="url(#SVGID_11_)" d="M256.9,189.4c0,0-45.2-39.5-28.1-96.8c0,0,34.3,3.2,36.4,3.6C259.8,141.1,256.6,160,256.9,189.4z"/>
<path fill="none" stroke="#BD4747" stroke-width="6.5928" stroke-linecap="round" stroke-miterlimit="10" d="M119,173.3
	c0,0,9.4,5,23,4.6c19-0.5,31.3-11.5,31.3-11.5"/>
<circle fill="#FFA370" cx="94.7" cy="165.3" r="9.8"/>
<circle fill="#FFA370" cx="197.5" cy="159.3" r="9.8"/>
<g>
	<circle fill="#CE985E" cx="188" cy="133.2" r="14.2"/>
	
		<radialGradient id="SVGID_12_" cx="1253.9194" cy="132.2308" r="12.5282" gradientTransform="matrix(1 0 0 1 -1065.9062 0)" gradientUnits="userSpaceOnUse">
		<stop  offset="0" style="stop-color:#333333"/>
		<stop  offset="0.4558" style="stop-color:#313131"/>
		<stop  offset="0.7002" style="stop-color:#292929"/>
		<stop  offset="0.8938" style="stop-color:#1B1B1B"/>
		<stop  offset="1" style="stop-color:#101010"/>
	</radialGradient>
	<circle fill="url(#SVGID_12_)" cx="188" cy="132.2" r="12.5"/>
	<ellipse transform="matrix(0.486 -0.874 0.874 0.486 -18.2 226.0865)" fill="#FFFFFF" cx="183.1" cy="128.5" rx="5.5" ry="4.7"/>
</g>
<g>
	<path fill="#403228" d="M206.2,135.7c0,0,5.4,2.3,7.6,0.4c2.2-1.9-0.3-4.4-0.3-4.4s-5.5,2-7.6,1.7L206.2,135.7z"/>
	<path fill="#403228" d="M202.6,124.7c0,0,6.4-0.2,7.9-2.9c1.5-2.7-2-3.9-2-3.9s-4.8,4.2-7,4.7L202.6,124.7z"/>
	<path fill="#403228" d="M197.3,115.7c0,0,5.5-3.8,5.5-6.9c-0.1-3.1-3.8-2.2-3.8-2.2s-2.1,6.3-3.7,8L197.3,115.7z"/>
</g>
<g>
	<g>
		<path fill="#403228" d="M83.1,132.4c0,0-5.4,2.2-7.6,0.3c-2.2-1.9,0.3-4.4,0.3-4.4s5.5,2.1,7.6,1.8L83.1,132.4z"/>
		<path fill="#403228" d="M86.8,121.5c0,0-6.4-0.3-7.9-3c-1.5-2.7,2.1-3.9,2.1-3.9s4.8,4.3,7,4.8L86.8,121.5z"/>
		<path fill="#403228" d="M92.2,112.5c0,0-5.5-3.8-5.4-7c0.1-3.1,3.8-2.2,3.8-2.2s2,6.4,3.6,8.1L92.2,112.5z"/>
	</g>
	<g>
		<circle fill="#CE985E" cx="97.4" cy="133.2" r="14.2"/>
		
			<radialGradient id="SVGID_13_" cx="-914.6594" cy="132.2308" r="12.5282" gradientTransform="matrix(-1 0 0 1 -817.2979 0)" gradientUnits="userSpaceOnUse">
			<stop  offset="0" style="stop-color:#333333"/>
			<stop  offset="0.4558" style="stop-color:#313131"/>
			<stop  offset="0.7002" style="stop-color:#292929"/>
			<stop  offset="0.8938" style="stop-color:#1B1B1B"/>
			<stop  offset="1" style="stop-color:#101010"/>
		</radialGradient>
		<circle fill="url(#SVGID_13_)" cx="97.4" cy="132.2" r="12.5"/>
		
			<ellipse transform="matrix(0.4858 -0.8741 0.8741 0.4858 -64.7974 146.8815)" fill="#FFFFFF" cx="92.4" cy="128.5" rx="5.5" ry="4.7"/>
	</g>
</g>
<radialGradient id="SVGID_14_" cx="-14.3532" cy="76.1143" r="259.7691" gradientUnits="userSpaceOnUse">
	<stop  offset="0" style="stop-color:#574537"/>
	<stop  offset="0.6843" style="stop-color:#554335"/>
	<stop  offset="1" style="stop-color:#32241D"/>
</radialGradient>
<path fill="url(#SVGID_14_)" d="M92.8,50.7c6.1,2.5,27,29.5,34.9,36c2.3,1.9-6.3-19.1-3.8-17c19.4,16.7,50.1,52,78.3,64.8
	c43.7,19.8,64.2,16.9,79.2,13.3c0,0,3.7-94.1-60.7-119.9C189.9,15.7,125.5-0.6,92.8,50.7z"/>
<g>
	<path fill="#7D634F" d="M82.3,51.1c-1.5,3.2-3.5,6.2-3.8,6.7c-9.4,17.1-16,37.5-20.7,56.4c-1.4-9.1,2.8-19.5,5.3-28.1
		c3.2-11.1,6.6-22.5,11.5-32.9c0.8-1.8,4.5-11.1,7.1-11C85.5,42.4,84.2,47,82.3,51.1z"/>
</g>
<path opacity="0.4" fill="#7D634F" d="M189.4,10c31.2,2.1,60,31,67.1,43.9c0,0-27.2-34.1-61.2-38.4c-34-4.3-45,0.4-45,0.4
	S162.9,8.2,189.4,10z"/>
<path fill="#7D634F" d="M107.9,39.2c25.3,15.8,64.8,94,154.9,105.5c0,0-58-12.7-98-54.2C132.5,57.1,115.8,28.4,107.9,39.2z"/>
<path opacity="0.4" fill="#7D634F" d="M121.7,32.3c14.4,9.4,44.3,57.5,93,69.4c0,0-26.5-8.7-54.9-39.9
	C131.4,30.5,130.5,26.9,121.7,32.3z"/>
<polygon fill="#7D1920" points="235.9,185.6 228.9,174.3 235.8,160.2 249.8,157.4 256.8,168.7 249.9,182.8 "/>
<linearGradient id="SVGID_15_" gradientUnits="userSpaceOnUse" x1="91.8336" y1="117.8754" x2="91.8336" y2="18.7655" gradientTransform="matrix(0.9898 0.1425 -0.1425 0.9898 163.4895 230.0683)">
	<stop  offset="0" style="stop-color:#FCC58A"/>
	<stop  offset="0.3854" style="stop-color:#FAC287"/>
	<stop  offset="0.645" style="stop-color:#F6B97F"/>
	<stop  offset="0.8669" style="stop-color:#EDAA71"/>
	<stop  offset="1" style="stop-color:#E69D65"/>
</linearGradient>
<path fill="url(#SVGID_15_)" d="M209.5,232.3c6.1,6.9,30.7,31.7,37.1,46c4.1,9.2,14.1,45.9,9.5,54.5c-3.1,5.8-11.9,13.7-13.2,22.3
	c-1.3,8.6,1.6,22,1.6,22s5.3,0.8,6.3-2.1c1-2.8,1-14.4,2.8-12.6c1.8,1.8,5.3,20.6,4.1,32.1c0,0,8.5,0.6,11.4-4.6
	c0,0,5.7,0.1,7.8-4.7c0,0,6.2-3.7,7.2-8.6c0,0,2.1-17.9-0.1-25.1c-3.4-11.2-3.6-12.4-6.7-23.7c-4.9-17.8-10.9-43.3-21.8-63
	c-7.3-13.2-37.5-42.6-42.8-44C207.6,219.4,206.6,229.1,209.5,232.3z"/>
</svg>
