<?xml version="1.0" encoding="utf-8"?>
<!-- Generator: Adobe Illustrator 18.1.1, SVG Export Plug-In . SVG Version: 6.00 Build 0)  -->
<!DOCTYPE svg PUBLIC "-//W3C//DTD SVG 1.1//EN" "http://www.w3.org/Graphics/SVG/1.1/DTD/svg11.dtd" [
	<!ENTITY ns_extend "http://ns.adobe.com/Extensibility/1.0/">
	<!ENTITY ns_ai "http://ns.adobe.com/AdobeIllustrator/10.0/">
	<!ENTITY ns_graphs "http://ns.adobe.com/Graphs/1.0/">
	<!ENTITY ns_vars "http://ns.adobe.com/Variables/1.0/">
	<!ENTITY ns_imrep "http://ns.adobe.com/ImageReplacement/1.0/">
	<!ENTITY ns_sfw "http://ns.adobe.com/SaveForWeb/1.0/">
	<!ENTITY ns_custom "http://ns.adobe.com/GenericCustomNamespace/1.0/">
	<!ENTITY ns_adobe_xpath "http://ns.adobe.com/XPath/1.0/">
]>
<svg version="1.1" id="Layer_1" xmlns:x="&ns_extend;" xmlns:i="&ns_ai;" xmlns:graph="&ns_graphs;"
	 xmlns="http://www.w3.org/2000/svg" xmlns:xlink="http://www.w3.org/1999/xlink" x="0px" y="0px" viewBox="281 371 50 50"
	 enable-background="new 281 371 50 50" xml:space="preserve">
<switch>
	
	<g i:extraneous="self">
		<g>
			<path fill="#A6A39C" d="M306,371.1c-13.7,0-24.9,11.1-24.9,24.9s11.1,24.9,24.9,24.9s24.9-11.1,24.9-24.9S319.7,371.1,306,371.1z
				 M306.5,409.2c-1.1,0-2-0.9-2-2c0-1.1,0.9-2,2-2c1.1,0,2,0.9,2,2C308.5,408.3,307.6,409.2,306.5,409.2z M310.6,395.4
				c-2.7,2.7-2.7,3.3-2.8,6.4h-2.3c0.1-3.4,0.9-5.2,3.6-7.7c1.3-1.2,2.3-2.7,2.3-4.6c0-2.8-2.3-4.8-5.1-4.8c-3.9,0-5.8,2-5.7,5.5
				h-2.2c0-5,2.9-7.4,8.1-7.4c3.9,0,7.2,2.4,7.2,6.5C313.7,392,312.4,393.7,310.6,395.4z"/>
		</g>
	</g>
</switch>

</svg>
