<?xml version="1.0" encoding="utf-8"?>
<!-- Generator: Adobe Illustrator 18.1.1, SVG Export Plug-In . SVG Version: 6.00 Build 0)  -->
<!DOCTYPE svg PUBLIC "-//W3C//DTD SVG 1.1//EN" "http://www.w3.org/Graphics/SVG/1.1/DTD/svg11.dtd" [
	<!ENTITY ns_extend "http://ns.adobe.com/Extensibility/1.0/">
	<!ENTITY ns_ai "http://ns.adobe.com/AdobeIllustrator/10.0/">
	<!ENTITY ns_graphs "http://ns.adobe.com/Graphs/1.0/">
	<!ENTITY ns_vars "http://ns.adobe.com/Variables/1.0/">
	<!ENTITY ns_imrep "http://ns.adobe.com/ImageReplacement/1.0/">
	<!ENTITY ns_sfw "http://ns.adobe.com/SaveForWeb/1.0/">
	<!ENTITY ns_custom "http://ns.adobe.com/GenericCustomNamespace/1.0/">
	<!ENTITY ns_adobe_xpath "http://ns.adobe.com/XPath/1.0/">
]>
<svg version="1.1" id="Info" xmlns:x="&ns_extend;" xmlns:i="&ns_ai;" xmlns:graph="&ns_graphs;"
	 xmlns="http://www.w3.org/2000/svg" xmlns:xlink="http://www.w3.org/1999/xlink" x="0px" y="0px" viewBox="281 371 50 50"
	 enable-background="new 281 371 50 50" xml:space="preserve">
<switch>
	
	<g i:extraneous="self">
		<circle fill="none" stroke="#A6A39C" stroke-miterlimit="10" cx="306" cy="396" r="24.4"/>
		<path fill="none" stroke="#A6A39C" stroke-miterlimit="10" d="M312.3,412.8c-0.7,0-11.2,0-12.1,0c-0.5,0-1-0.3-1.3-0.7
			c-0.2-0.3-0.3-0.7-0.3-1c0-0.3,0.2-0.8,0.3-1.2c0.3-0.3,0.7-0.7,1.2-0.7c1-0.2,1.7-0.3,1.8-0.3c0.3-0.2,0.5-0.3,0.7-0.5
			c0.2-0.2,0.2-0.5,0.2-0.8c0-0.5,0-1.2,0-2v-7c0-1.5,0-2.7-0.2-3.5c0-1-0.2-1.5-0.3-1.7c-0.2-0.2-0.3-0.3-0.5-0.5
			c-0.3-0.2-1-0.3-1.8-0.3l0,0c-0.5,0-1-0.3-1.2-0.8c-0.2-0.3-0.3-0.7-0.3-1c0-0.3,0.2-0.7,0.3-1c0.3-0.5,0.8-0.8,1.3-0.8
			c0.3,0,7.5-1.2,7.8-1.2c1.2,0,1.5,0.7,1.8,1c0.2,0.3,0.3,0.8,0.3,1.2v15.3c0,0.8,0,1.5,0,2.2c0,0.5,0.2,0.8,0.2,1
			c0.2,0.2,0.3,0.3,0.5,0.5c0.2,0.2,0.7,0.3,1.5,0.3c0.5,0.2,1,0.3,1.2,0.7c0.2,0.3,0.3,0.7,0.3,1.2c0,0.3-0.2,0.7-0.3,1
			C313.3,412.6,312.8,412.8,312.3,412.8z M306.4,383.9c-1.2,0-2.2-0.3-2.8-1c-0.8-0.7-1.3-1.7-1.3-2.8c0-1.1,0.3-2,1.2-2.8
			c0.8-0.7,1.8-1.2,2.8-1.2c1.2,0,2,0.3,2.8,1.2c0.7,0.8,1,1.7,1,2.7s-0.3,2-1,2.7C308.4,383.5,307.6,383.9,306.4,383.9z"/>
	</g>
</switch>

</svg>
