<?xml version="1.0" encoding="utf-8"?>
<!-- Generator: Adobe Illustrator 18.1.1, SVG Export Plug-In . SVG Version: 6.00 Build 0)  -->
<!DOCTYPE svg PUBLIC "-//W3C//DTD SVG 1.1//EN" "http://www.w3.org/Graphics/SVG/1.1/DTD/svg11.dtd" [
	<!ENTITY ns_extend "http://ns.adobe.com/Extensibility/1.0/">
	<!ENTITY ns_ai "http://ns.adobe.com/AdobeIllustrator/10.0/">
	<!ENTITY ns_graphs "http://ns.adobe.com/Graphs/1.0/">
	<!ENTITY ns_vars "http://ns.adobe.com/Variables/1.0/">
	<!ENTITY ns_imrep "http://ns.adobe.com/ImageReplacement/1.0/">
	<!ENTITY ns_sfw "http://ns.adobe.com/SaveForWeb/1.0/">
	<!ENTITY ns_custom "http://ns.adobe.com/GenericCustomNamespace/1.0/">
	<!ENTITY ns_adobe_xpath "http://ns.adobe.com/XPath/1.0/">
]>
<svg version="1.1" id="Layer_1" xmlns:x="&ns_extend;" xmlns:i="&ns_ai;" xmlns:graph="&ns_graphs;"
	 xmlns="http://www.w3.org/2000/svg" xmlns:xlink="http://www.w3.org/1999/xlink" x="0px" y="0px" viewBox="281 371 50 50"
	 enable-background="new 281 371 50 50" xml:space="preserve">
<switch>
	
	<g i:extraneous="self">
		<path fill="none" stroke="#A6A39C" stroke-miterlimit="10" d="M314.3,383.9h-16.8c-0.9,0-1.6-0.7-1.6-1.6v-2.6
			c0-0.9,0.7-1.6,1.6-1.6h16.8c0.9,0,1.6,0.7,1.6,1.6v2.6C315.9,383.2,315.2,383.9,314.3,383.9z"/>
		<path fill="#FFFFFF" stroke="#A6A39C" stroke-miterlimit="10" d="M328.9,413.8h-45.7c-0.9,0-1.6-0.7-1.6-1.6v-27.3
			c0-0.9,0.7-1.6,1.6-1.6h45.7c0.9,0,1.6,0.7,1.6,1.6v27.3C330.5,413.1,329.8,413.8,328.9,413.8z"/>
		<line fill="none" stroke="#A6A39C" stroke-miterlimit="10" x1="290.2" y1="383.3" x2="290.2" y2="413.8"/>
		<line fill="none" stroke="#A6A39C" stroke-miterlimit="10" x1="322.4" y1="383.3" x2="322.4" y2="413.8"/>
	</g>
</switch>

</svg>
