<?xml version="1.0" encoding="utf-8"?>
<!-- Generator: Adobe Illustrator 18.1.1, SVG Export Plug-In . SVG Version: 6.00 Build 0)  -->
<!DOCTYPE svg PUBLIC "-//W3C//DTD SVG 1.1//EN" "http://www.w3.org/Graphics/SVG/1.1/DTD/svg11.dtd" [
	<!ENTITY ns_extend "http://ns.adobe.com/Extensibility/1.0/">
	<!ENTITY ns_ai "http://ns.adobe.com/AdobeIllustrator/10.0/">
	<!ENTITY ns_graphs "http://ns.adobe.com/Graphs/1.0/">
	<!ENTITY ns_vars "http://ns.adobe.com/Variables/1.0/">
	<!ENTITY ns_imrep "http://ns.adobe.com/ImageReplacement/1.0/">
	<!ENTITY ns_sfw "http://ns.adobe.com/SaveForWeb/1.0/">
	<!ENTITY ns_custom "http://ns.adobe.com/GenericCustomNamespace/1.0/">
	<!ENTITY ns_adobe_xpath "http://ns.adobe.com/XPath/1.0/">
]>
<svg version="1.1" id="Error" xmlns:x="&ns_extend;" xmlns:i="&ns_ai;" xmlns:graph="&ns_graphs;"
	 xmlns="http://www.w3.org/2000/svg" xmlns:xlink="http://www.w3.org/1999/xlink" x="0px" y="0px" viewBox="281 371 50 50"
	 enable-background="new 281 371 50 50" xml:space="preserve">
<switch>
	
	<g i:extraneous="self">
		<circle fill="none" stroke="#A6A39C" stroke-miterlimit="10" cx="305.9" cy="396" r="24.4"/>
		<path fill="none" stroke="#A6A39C" stroke-miterlimit="10" d="M307.3,377.8c2,0,2.2,1.3,2,3.5l-0.8,16.6c-0.2,1.7-0.5,3.2-2.5,3.2
			c-2,0-2.3-1.3-2.5-3.2l-0.8-16.6c-0.2-2.3,0-3.5,2.2-3.5H307.3z M306.6,407.1c1.8,0,2.7,1,2.7,2.9v1.3c0,1.8-0.8,2.7-2.7,2.7h-1.3
			c-1.8,0-2.7-0.8-2.7-2.7V410c0-1.8,0.8-2.9,2.7-2.9H306.6z"/>
	</g>
</switch>

</svg>
