<?xml version="1.0" encoding="utf-8"?>
<!-- Generator: Adobe Illustrator 19.1.0, SVG Export Plug-In . SVG Version: 6.00 Build 0)  -->
<svg version="1.1" id="Layer_1" xmlns:sketch="http://www.bohemiancoding.com/sketch/ns"
	 xmlns="http://www.w3.org/2000/svg" xmlns:xlink="http://www.w3.org/1999/xlink" x="0px" y="0px" viewBox="-289.5 371.5 50 50"
	 style="enable-background:new -289.5 371.5 50 50;" xml:space="preserve">
<style type="text/css">
	.st0{fill:#A6A39C;stroke:#A6A39C;}
	.st1{fill:#FFFFFF;stroke:#FFFFFF;}
	.st2{fill:none;stroke:#A6A39C;}
</style>
<title>atom-circle-category-off</title>
<desc>Created with Sketch.</desc>
<g id="Page-1" sketch:type="MSPage">
	<g id="_x34_4-Context-Icons" transform="translate(-599.000000, -299.000000)" sketch:type="MSArtboardGroup">
		<g id="atom-circle-category-off" transform="translate(599.500000, 299.675000)" sketch:type="MSLayerGroup">
			<path id="Shape" sketch:type="MSShapeGroup" class="st0" d="M-268.6,414.5c-0.8,0-1.5-0.3-2.1-1l-11.3-11.6c-1.3-1.3-1.3-3,0-4.5
				l3.4-3.5c3.8-3.9,7.5-7.7,11.3-11.6c0.8-0.8,1.6-1.2,2.8-1.2h1h9.8c1.8,0,3.1,1.3,3.1,3.4v4v3.4v3.5c0,1.2-0.3,2.2-1.3,3
				l-11.6,11.9l-3.1,3.2C-267.1,414.1-268,414.5-268.6,414.5L-268.6,414.5z"/>
			<path id="Shape_1_" sketch:type="MSShapeGroup" class="st1" d="M-257.1,390.4c1.5,0,2.8-1.2,2.8-2.7s-1.1-2.9-2.8-2.9l0,0
				c-1.5,0-2.6,1.3-2.8,2.7c0,0.8,0.3,1.5,0.8,2C-258.4,390.3-257.8,390.4-257.1,390.4"/>
			<path id="Shape_2_" sketch:type="MSShapeGroup" class="st2" d="M-265,420.2c-13.1,0-23.8-10.9-23.8-24.4s10.7-24.4,23.8-24.4
				s23.8,10.9,23.8,24.4S-251.9,420.2-265,420.2L-265,420.2z"/>
		</g>
	</g>
</g>
</svg>
