<?xml version="1.0" encoding="utf-8"?>
<!-- Generator: Adobe Illustrator 19.1.0, SVG Export Plug-In . SVG Version: 6.00 Build 0)  -->
<!DOCTYPE svg PUBLIC "-//W3C//DTD SVG 1.1//EN" "http://www.w3.org/Graphics/SVG/1.1/DTD/svg11.dtd" [
	<!ENTITY ns_extend "http://ns.adobe.com/Extensibility/1.0/">
	<!ENTITY ns_ai "http://ns.adobe.com/AdobeIllustrator/10.0/">
	<!ENTITY ns_graphs "http://ns.adobe.com/Graphs/1.0/">
	<!ENTITY ns_vars "http://ns.adobe.com/Variables/1.0/">
	<!ENTITY ns_imrep "http://ns.adobe.com/ImageReplacement/1.0/">
	<!ENTITY ns_sfw "http://ns.adobe.com/SaveForWeb/1.0/">
	<!ENTITY ns_custom "http://ns.adobe.com/GenericCustomNamespace/1.0/">
	<!ENTITY ns_adobe_xpath "http://ns.adobe.com/XPath/1.0/">
]>
<svg version="1.1" id="Star" xmlns:x="&ns_extend;" xmlns:i="&ns_ai;" xmlns:graph="&ns_graphs;"
	 xmlns="http://www.w3.org/2000/svg" xmlns:xlink="http://www.w3.org/1999/xlink" x="0px" y="0px" viewBox="-300 372 50 50"
	 style="enable-background:new -300 372 50 50;" xml:space="preserve">
<style type="text/css">
	.st0{fill:#A6A39C;stroke:#A6A39C;stroke-miterlimit:10;}
	.st1{fill:#FFFFFF;}
</style>
<switch>
	
	<g i:extraneous="self">
		<path id="Circle" class="st0" d="M-275.1,421.2c-13.4,0-24.2-10.9-24.2-24.2c0-13.4,10.9-24.2,24.2-24.2
			c13.4,0,24.3,10.9,24.3,24.2C-250.8,410.3-261.7,421.2-275.1,421.2z"/>
		<path class="st1" d="M-285,413.6c-0.3,0-0.5-0.1-0.8-0.2c-0.5-0.3-0.7-0.9-0.5-1.5l3.2-11.4l-9-7.2c-0.4-0.4-0.6-1-0.4-1.5
			c0.2-0.5,0.7-0.9,1.2-0.9l11.2-0.4l3.7-11.1c0.2-0.6,0.7-0.9,1.3-0.9c0.6,0,1.1,0.4,1.3,0.9l3.8,11.1l11.2,0.2
			c0.6,0,1.1,0.4,1.3,0.9c0.2,0.5,0,1.1-0.4,1.5l-8.9,7.2l3.3,11.4c0.2,0.5,0,1.1-0.5,1.5c-0.2,0.2-0.5,0.3-0.8,0.3l0,0
			c-0.3,0-0.5-0.1-0.8-0.3l-9.2-6.6l-9.2,6.7C-284.4,413.6-284.7,413.6-285,413.6z"/>
	</g>
</switch>

</svg>
