<?xml version="1.0" encoding="utf-8"?>
<!-- Generator: Adobe Illustrator 19.1.0, SVG Export Plug-In . SVG Version: 6.00 Build 0)  -->
<!DOCTYPE svg PUBLIC "-//W3C//DTD SVG 1.1//EN" "http://www.w3.org/Graphics/SVG/1.1/DTD/svg11.dtd" [
	<!ENTITY ns_extend "http://ns.adobe.com/Extensibility/1.0/">
	<!ENTITY ns_ai "http://ns.adobe.com/AdobeIllustrator/10.0/">
	<!ENTITY ns_graphs "http://ns.adobe.com/Graphs/1.0/">
	<!ENTITY ns_vars "http://ns.adobe.com/Variables/1.0/">
	<!ENTITY ns_imrep "http://ns.adobe.com/ImageReplacement/1.0/">
	<!ENTITY ns_sfw "http://ns.adobe.com/SaveForWeb/1.0/">
	<!ENTITY ns_custom "http://ns.adobe.com/GenericCustomNamespace/1.0/">
	<!ENTITY ns_adobe_xpath "http://ns.adobe.com/XPath/1.0/">
]>
<svg version="1.1"
	 id="Layer_1" xmlns:x="&ns_extend;" xmlns:i="&ns_ai;" xmlns:graph="&ns_graphs;" xmlns:sketch="http://www.bohemiancoding.com/sketch/ns"
	 xmlns="http://www.w3.org/2000/svg" xmlns:xlink="http://www.w3.org/1999/xlink" x="0px" y="0px" viewBox="-289.5 372 50 50"
	 style="enable-background:new -289.5 372 50 50;" xml:space="preserve">
<style type="text/css">
	.st0{fill:#A6A39C;}
	.st1{fill:none;stroke:#FFFFFF;}
	.st2{fill:#FFFFFF;}
</style>
<switch>
	
	<g i:extraneous="self">
		<title>atomic-circle-li-saved_searches-gray-fill</title>
		<desc>Created with Sketch.</desc>
		<g id="Page-1" sketch:type="MSPage">
			<g id="_x34_4-Context-Icons" transform="translate(-140.000000, -300.000000)" sketch:type="MSArtboardGroup">
				<g id="atomic-circle-li-saved_searches-gray-fill" transform="translate(139.977357, 300.000000)" sketch:type="MSLayerGroup">
					<path id="Circle_8_" sketch:type="MSShapeGroup" class="st0" d="M-264.5,421.5c-13.6,0-24.5-11-24.5-24.5
						c0-13.6,11-24.5,24.5-24.5c13.6,0,24.5,11,24.5,24.5C-240,410.6-250.9,421.5-264.5,421.5L-264.5,421.5L-264.5,421.5z"/>
					<circle id="Oval" sketch:type="MSShapeGroup" class="st1" cx="-267.9" cy="384.2" r="6.2">
					</circle>
					<path id="Shape" sketch:type="MSShapeGroup" class="st2" d="M-265.4,407.3h-13.1c-0.1,0-0.4-0.1-0.4-0.4c0-4.1,2.3-7.7,5.8-9.8
						c1-0.5,3.3-1.4,4.8-1.1c0,0,0.5-1.3,1.1-1.8h-1.5c-1.9,0.1-3.7,0.6-5.3,1.4c-4.2,2.2-6.7,6.5-6.7,11.2c0,1.1,0.9,2,2,2h16.4
						C-263,408.9-264.9,407.9-265.4,407.3L-265.4,407.3L-265.4,407.3z"/>
					<circle id="Oval_1_" sketch:type="MSShapeGroup" class="st1" cx="-260" cy="400" r="7.1">
					</circle>
					<path id="Shape_1_" sketch:type="MSShapeGroup" class="st1" d="M-248.9,408.5l-4.9-4.9c-0.6,1.1-1.5,2-2.7,2.7l4.9,4.9
						c0.8,0.8,1.9,0.8,2.7,0C-248.1,410.5-248.1,409.3-248.9,408.5L-248.9,408.5L-248.9,408.5z"/>
				</g>
			</g>
		</g>
	</g>
</switch>

</svg>
