<?xml version="1.0" encoding="utf-8"?>
<!-- Generator: Adobe Illustrator 18.1.1, SVG Export Plug-In . SVG Version: 6.00 Build 0)  -->
<!DOCTYPE svg PUBLIC "-//W3C//DTD SVG 1.1//EN" "http://www.w3.org/Graphics/SVG/1.1/DTD/svg11.dtd" [
	<!ENTITY ns_extend "http://ns.adobe.com/Extensibility/1.0/">
	<!ENTITY ns_ai "http://ns.adobe.com/AdobeIllustrator/10.0/">
	<!ENTITY ns_graphs "http://ns.adobe.com/Graphs/1.0/">
	<!ENTITY ns_vars "http://ns.adobe.com/Variables/1.0/">
	<!ENTITY ns_imrep "http://ns.adobe.com/ImageReplacement/1.0/">
	<!ENTITY ns_sfw "http://ns.adobe.com/SaveForWeb/1.0/">
	<!ENTITY ns_custom "http://ns.adobe.com/GenericCustomNamespace/1.0/">
	<!ENTITY ns_adobe_xpath "http://ns.adobe.com/XPath/1.0/">
]>
<svg version="1.1"
	 id="Layer_1" xmlns:x="&ns_extend;" xmlns:i="&ns_ai;" xmlns:graph="&ns_graphs;" xmlns:sketch="http://www.bohemiancoding.com/sketch/ns"
	 xmlns="http://www.w3.org/2000/svg" xmlns:xlink="http://www.w3.org/1999/xlink" x="0px" y="0px" viewBox="281 371 50 50"
	 enable-background="new 281 371 50 50" xml:space="preserve">
<switch>
	
	<g i:extraneous="self">
		<title>atomic-ico-circle-ai-user-firma-on</title>
		<desc>Created with Sketch.</desc>
		<path id="_x33_" sketch:type="MSShapeGroup" fill="none" stroke="#A6A39C" d="M288.2,420.3c-0.9,0-2-0.9-2-2
			c0-10.9,8.8-20,19.8-20s19.8,8.9,19.8,20c0,0.9-0.9,2-2,2H288.2L288.2,420.3z"/>
		<path id="Shape" sketch:type="MSShapeGroup" fill="none" stroke="#A6A39C" d="M309.6,399c0,2.1-1.5,3.7-3.6,3.7
			c-2.1,0-3.6-1.5-3.6-3.7"/>
		<path id="Shape_1_" sketch:type="MSShapeGroup" fill="none" stroke="#A6A39C" d="M307.3,402.2l2.8,13.6"/>
		<path id="Shape_2_" sketch:type="MSShapeGroup" fill="none" stroke="#A6A39C" d="M312.1,374.1c-2-1.5-8.7-3.2-12.3-2
			c-3.5,0.9-1.6,4.7-1.6,4.7c-0.1,0.1-0.7,0.7-0.9,1.3c-0.1,0.6-0.6,0.7-0.7,1.3c-0.7,1.3-0.9,2.9-0.9,4.4c0,5.7,4.6,10.3,10.3,10.3
			c5.6,0,10.3-4.7,10.3-10.3c0-2.8-0.7-5-2.3-6.7C314.1,376.2,313.1,374.7,312.1,374.1L312.1,374.1z"/>
		<path id="Shape_3_" sketch:type="MSShapeGroup" fill="none" stroke="#A6A39C" d="M304.4,402.2l-2.6,13.6"/>
		<path id="Shape_4_" sketch:type="MSShapeGroup" fill="none" stroke="#A6A39C" d="M306,420.3c-3.6,0-6.8-8.3-7.8-20.1"/>
		<path id="Shape_5_" sketch:type="MSShapeGroup" fill="none" stroke="#A6A39C" d="M313.5,400.2c-0.9,11.7-4.2,20.1-7.8,20.1"/>
	</g>
</switch>

</svg>
