<?xml version="1.0" encoding="utf-8"?>
<!-- Generator: Adobe Illustrator 19.0.1, SVG Export Plug-In . SVG Version: 6.00 Build 0)  -->
<svg version="1.1" id="Layer_1" xmlns:sketch="http://www.bohemiancoding.com/sketch/ns"
	 xmlns="http://www.w3.org/2000/svg" xmlns:xlink="http://www.w3.org/1999/xlink" x="0px" y="0px" viewBox="-285 376 40 41"
	 style="enable-background:new -285 376 40 41;" xml:space="preserve">
<style type="text/css">
	.st0{fill:#A6A39C;}
</style>
<title>ico-circle-ai-user</title>
<desc>Created with Sketch.</desc>
<g id="Page-1" sketch:type="MSPage">
	<g id="_x34_4-Context-Icons" transform="translate(-129.000000, -282.000000)" sketch:type="MSArtboardGroup">
		<g id="ico-circle-ai-user" transform="translate(129.000000, 282.500000)" sketch:type="MSLayerGroup">
			<g id="Layer_1_1_">
			</g>
			<g id="Privat" sketch:type="MSShapeGroup">
				<path id="Shape" class="st0" d="M-265,376c-11,0-20,9-20,20c0,11,9,20,20,20c11,0,20-9,20-20C-245,385-254,376-265,376L-265,376
					z M-265.1,382.2c3.1,0,5.6,2.5,5.6,5.6c0,3.1-2.5,5.6-5.6,5.6c-3.1,0-5.6-2.5-5.6-5.6C-270.7,384.7-268.2,382.2-265.1,382.2
					L-265.1,382.2z M-255.4,407.1h-19.2c-0.6,0-1.1-0.5-1.1-1.1c0-4.1,2.3-7.6,5.7-9.4c1.4,0.8,3.1,1.3,4.9,1.3c1.8,0,3.5-0.5,5-1.3
					c3.4,1.8,5.8,5.4,5.8,9.5C-254.3,406.7-254.8,407.1-255.4,407.1L-255.4,407.1z"/>
			</g>
		</g>
	</g>
</g>
</svg>
