<?xml version="1.0" encoding="utf-8"?>
<!-- Generator: Adobe Illustrator 19.1.0, SVG Export Plug-In . SVG Version: 6.00 Build 0)  -->
<!DOCTYPE svg PUBLIC "-//W3C//DTD SVG 1.1//EN" "http://www.w3.org/Graphics/SVG/1.1/DTD/svg11.dtd" [
	<!ENTITY ns_extend "http://ns.adobe.com/Extensibility/1.0/">
	<!ENTITY ns_ai "http://ns.adobe.com/AdobeIllustrator/10.0/">
	<!ENTITY ns_graphs "http://ns.adobe.com/Graphs/1.0/">
	<!ENTITY ns_vars "http://ns.adobe.com/Variables/1.0/">
	<!ENTITY ns_imrep "http://ns.adobe.com/ImageReplacement/1.0/">
	<!ENTITY ns_sfw "http://ns.adobe.com/SaveForWeb/1.0/">
	<!ENTITY ns_custom "http://ns.adobe.com/GenericCustomNamespace/1.0/">
	<!ENTITY ns_adobe_xpath "http://ns.adobe.com/XPath/1.0/">
]>
<svg version="1.1" id="Layer_1" xmlns:x="&ns_extend;" xmlns:i="&ns_ai;" xmlns:graph="&ns_graphs;"
	 xmlns="http://www.w3.org/2000/svg" xmlns:xlink="http://www.w3.org/1999/xlink" x="0px" y="0px" viewBox="-300 372 50 50"
	 style="enable-background:new -300 372 50 50;" xml:space="preserve">
<style type="text/css">
	.st0{fill:none;stroke:#A6A39C;stroke-miterlimit:10;}
</style>
<switch>
	
	<g i:extraneous="self">
		<path class="st0" d="M-275,421.5c-13.5,0-24.4-10.9-24.4-24.4s10.9-24.4,24.4-24.4s24.4,10.9,24.4,24.4
			C-250.6,410.6-261.6,421.5-275,421.5z"/>
		<path class="st0" d="M-275,378.6c-7,0-12.6,5.8-12.6,13c0,2.3,0.6,4.3,0.6,4.3c0.9,3.9,6.5,15.8,7.5,17.5c0.6,0.9,1.9,3.7,4.5,3.7
			c2.7,0,3.7-2.4,4.4-3.7c1-1.7,6.7-13.7,7.6-17.5c0,0,0.6-2,0.6-4.3C-262.4,384.4-268,378.6-275,378.6z"/>
		<circle class="st0" cx="-275" cy="390.4" r="5"/>
	</g>
</switch>

</svg>
