<?xml version="1.0" encoding="utf-8"?>
<!-- Generator: Adobe Illustrator 19.1.0, SVG Export Plug-In . SVG Version: 6.00 Build 0)  -->
<!DOCTYPE svg PUBLIC "-//W3C//DTD SVG 1.1//EN" "http://www.w3.org/Graphics/SVG/1.1/DTD/svg11.dtd" [
	<!ENTITY ns_extend "http://ns.adobe.com/Extensibility/1.0/">
	<!ENTITY ns_ai "http://ns.adobe.com/AdobeIllustrator/10.0/">
	<!ENTITY ns_graphs "http://ns.adobe.com/Graphs/1.0/">
	<!ENTITY ns_vars "http://ns.adobe.com/Variables/1.0/">
	<!ENTITY ns_imrep "http://ns.adobe.com/ImageReplacement/1.0/">
	<!ENTITY ns_sfw "http://ns.adobe.com/SaveForWeb/1.0/">
	<!ENTITY ns_custom "http://ns.adobe.com/GenericCustomNamespace/1.0/">
	<!ENTITY ns_adobe_xpath "http://ns.adobe.com/XPath/1.0/">
]>
<svg version="1.1" id="Star" xmlns:x="&ns_extend;" xmlns:i="&ns_ai;" xmlns:graph="&ns_graphs;"
	 xmlns="http://www.w3.org/2000/svg" xmlns:xlink="http://www.w3.org/1999/xlink" x="0px" y="0px" viewBox="281 373 50 50"
	 style="enable-background:new 281 373 50 50;" xml:space="preserve">
<style type="text/css">
	.st0{fill:none;stroke:#A6A39C;stroke-miterlimit:10;}
</style>
<switch>
	
	<g i:extraneous="self">
		<path class="st0" d="M291.9,422.2c-0.2,0-0.4,0-0.7-0.2c-0.4-0.4-0.6-0.7-0.4-1.3l4.7-16.8l-13.2-10.4c-0.4-0.4-0.6-0.7-0.4-1.3
			c0.2-0.4,0.6-0.7,1.1-0.7l16.4-0.6l5.4-16.4c0.2-0.6,0.6-0.7,1.1-0.7c0.6,0,0.9,0.4,1.1,0.7l5.6,16.4l16.4,0.4
			c0.6,0,0.9,0.4,1.1,0.7c0.2,0.4,0,0.9-0.4,1.3l-13,10.6l4.8,16.6c0.2,0.6,0,0.9-0.4,1.3c-0.2,0.2-0.4,0.2-0.7,0.2
			c-0.2,0-0.6,0-0.7-0.2l-13.6-9.7l-13.6,9.9C292.5,422.2,292.3,422.2,291.9,422.2z"/>
	</g>
</switch>

</svg>
