<?xml version="1.0" encoding="utf-8"?>
<!-- Generator: Adobe Illustrator 18.1.1, SVG Export Plug-In . SVG Version: 6.00 Build 0)  -->
<!DOCTYPE svg PUBLIC "-//W3C//DTD SVG 1.1//EN" "http://www.w3.org/Graphics/SVG/1.1/DTD/svg11.dtd" [
	<!ENTITY ns_extend "http://ns.adobe.com/Extensibility/1.0/">
	<!ENTITY ns_ai "http://ns.adobe.com/AdobeIllustrator/10.0/">
	<!ENTITY ns_graphs "http://ns.adobe.com/Graphs/1.0/">
	<!ENTITY ns_vars "http://ns.adobe.com/Variables/1.0/">
	<!ENTITY ns_imrep "http://ns.adobe.com/ImageReplacement/1.0/">
	<!ENTITY ns_sfw "http://ns.adobe.com/SaveForWeb/1.0/">
	<!ENTITY ns_custom "http://ns.adobe.com/GenericCustomNamespace/1.0/">
	<!ENTITY ns_adobe_xpath "http://ns.adobe.com/XPath/1.0/">
]>
<svg version="1.1"
	 id="Layer_1" xmlns:x="&ns_extend;" xmlns:i="&ns_ai;" xmlns:graph="&ns_graphs;" xmlns:sketch="http://www.bohemiancoding.com/sketch/ns"
	 xmlns="http://www.w3.org/2000/svg" xmlns:xlink="http://www.w3.org/1999/xlink" x="0px" y="0px" viewBox="281 371 50 50"
	 enable-background="new 281 371 50 50" xml:space="preserve">
<switch>
	
	<g i:extraneous="self">
		<title>ico-circle-li-meine_inserate</title>
		<desc>Created with Sketch.</desc>
		<g id="Page-1" sketch:type="MSPage">
			<g id="_x34_4-Context-Icons" transform="translate(-601.000000, -140.000000)" sketch:type="MSArtboardGroup">
				<g id="ico-circle-li-meine_inserate" transform="translate(601.000000, 140.000000)" sketch:type="MSLayerGroup">
					<g id="_x32__1_" sketch:type="MSShapeGroup">
						<g id="Group" transform="translate(6.666667, 5.333333)">
							<ellipse id="Oval" fill="none" stroke="#A6A39C" cx="294.2" cy="378.4" rx="6.2" ry="6.2"/>
							<path id="Shape" fill="none" stroke="#A6A39C" d="M288.9,390.6c-3.8,2-6.3,5.9-6.3,10.5c0,0.6,0.5,1.1,1.1,1.1h21.2
								c0.6,0,1.1-0.5,1.1-1.1c0-4.5-2.7-8.5-6.4-10.5"/>
							<path id="Shape_1_" fill="none" stroke="#A6A39C" d="M299.8,390.6c-1.6-0.9-3.4-1.3-5.4-1.3c-2,0-3.9,0.5-5.6,1.4"/>
						</g>
						<path id="Circle_3_" fill="none" stroke="#A6A39C" d="M306.1,420.3c-13.5,0-24.4-11-24.4-24.4c0-13.5,11-24.4,24.4-24.4
							c13.5,0,24.4,11,24.4,24.4C330.5,409.4,319.6,420.3,306.1,420.3L306.1,420.3z"/>
						<g id="Group_1_" transform="translate(14.666667, 17.333333)">
							<rect id="Rectangle-path" x="292.8" y="375.7" fill="none" stroke="#A6A39C" width="17.4" height="12.5"/>
							<rect id="Rectangle-path_1_" x="289.5" y="379.1" fill="#FFFFFF" stroke="#A6A39C" width="17.4" height="12.5"/>
							<g transform="translate(0.000000, 5.333333)">
								<rect id="Rectangle-path_2_" x="286.1" y="377.1" fill="#FFFFFF" stroke="#A6A39C" width="17.4" height="12.5"/>
								<path id="Shape_2_" fill="#FFFFFF" stroke="#A6A39C" d="M304.1,385.1h-12.4l-1.8-1.8l-1.4,1.8h-2.5"/>
							</g>
						</g>
					</g>
				</g>
			</g>
		</g>
	</g>
</switch>

</svg>
