<?xml version="1.0" encoding="utf-8"?>
<!-- Generator: Adobe Illustrator 19.0.1, SVG Export Plug-In . SVG Version: 6.00 Build 0)  -->
<svg version="1.1" id="Layer_1" xmlns:sketch="http://www.bohemiancoding.com/sketch/ns"
	 xmlns="http://www.w3.org/2000/svg" xmlns:xlink="http://www.w3.org/1999/xlink" x="0px" y="0px" viewBox="-571.8 755 40 40"
	 style="enable-background:new -571.8 755 40 40;" xml:space="preserve">
<style type="text/css">
	.st0{fill:#A6A39C;}
</style>
<title>ico-circle-ai-location</title>
<desc>Created with Sketch.</desc>
<g id="Page-1" sketch:type="MSPage">
	
		<g id="_x35_3-Web-Touch-Iconography---System-Icons" transform="translate(-241.000000, -240.000000)" sketch:type="MSArtboardGroup">
		<g id="ico-circle-ai-location" transform="translate(241.000000, 240.000000)" sketch:type="MSLayerGroup">
			<g id="Privat">
			</g>
			<g id="Layer_1_1_" sketch:type="MSShapeGroup">
				<g id="Group">
					<circle id="Oval" class="st0" cx="-551.8" cy="768.8" r="3.4"/>
					<path id="Shape" class="st0" d="M-551.8,755c-11,0-20,9-20,20s9,20,20,20s20-9,20-20S-540.8,755-551.8,755L-551.8,755z
						 M-543.8,772.5c-0.6,2.6-6.2,16.5-8,16.5c-1.7,0-7.4-14-8-16.5c0,0-0.4-1.3-0.4-2.8c0-4.8,3.8-8.6,8.4-8.6s8.4,3.9,8.4,8.6
						C-543.3,771.1-543.8,772.5-543.8,772.5L-543.8,772.5z"/>
				</g>
			</g>
		</g>
	</g>
</g>
</svg>
