<?xml version="1.0" encoding="utf-8"?>
<!-- Generator: Adobe Illustrator 18.1.1, SVG Export Plug-In . SVG Version: 6.00 Build 0)  -->
<!DOCTYPE svg PUBLIC "-//W3C//DTD SVG 1.1//EN" "http://www.w3.org/Graphics/SVG/1.1/DTD/svg11.dtd" [
	<!ENTITY ns_extend "http://ns.adobe.com/Extensibility/1.0/">
	<!ENTITY ns_ai "http://ns.adobe.com/AdobeIllustrator/10.0/">
	<!ENTITY ns_graphs "http://ns.adobe.com/Graphs/1.0/">
	<!ENTITY ns_vars "http://ns.adobe.com/Variables/1.0/">
	<!ENTITY ns_imrep "http://ns.adobe.com/ImageReplacement/1.0/">
	<!ENTITY ns_sfw "http://ns.adobe.com/SaveForWeb/1.0/">
	<!ENTITY ns_custom "http://ns.adobe.com/GenericCustomNamespace/1.0/">
	<!ENTITY ns_adobe_xpath "http://ns.adobe.com/XPath/1.0/">
]>
<svg version="1.1"
	 id="Layer_1" xmlns:x="&ns_extend;" xmlns:i="&ns_ai;" xmlns:graph="&ns_graphs;" xmlns:sketch="http://www.bohemiancoding.com/sketch/ns"
	 xmlns="http://www.w3.org/2000/svg" xmlns:xlink="http://www.w3.org/1999/xlink" x="0px" y="0px" viewBox="281 371 50 50"
	 enable-background="new 281 371 50 50" xml:space="preserve">
<switch>
	
	<g i:extraneous="self">
		<path id="Circle_8_" sketch:type="MSShapeGroup" fill="#A6A39C" d="M306,420.9c-13.8,0-24.9-11.2-24.9-24.9
			c0-13.8,11.2-24.9,24.9-24.9c13.8,0,24.9,11.2,24.9,24.9C330.9,409.8,319.8,420.9,306,420.9L306,420.9z"/>
		<title>ico-circle-li-saved_searches copy</title>
		<desc>Created with Sketch.</desc>
		<circle id="Oval" sketch:type="MSShapeGroup" fill="#FFFFFF" stroke="#FFFFFF" cx="302.5" cy="383" r="6.3">
		</circle>
		<path id="Shape" sketch:type="MSShapeGroup" fill="#FFFFFF" d="M305.1,406.5h-13.3c-0.1,0-0.4-0.1-0.4-0.4c0-4.1,2.3-7.9,5.9-9.9
			c1-0.5,3.4-1.4,4.9-1.2c0,0,0.5-1.3,1.2-1.8c-0.5,0-1.5,0-1.5,0c-1.9,0.1-3.7,0.6-5.4,1.4c-4.3,2.2-6.8,6.6-6.8,11.4
			c0,1.2,0.9,2.1,2.1,2.1h16.7C307.5,408.1,305.6,407.1,305.1,406.5L305.1,406.5z"/>
		<circle id="Oval_1_" sketch:type="MSShapeGroup" fill="none" stroke="#FFFFFF" cx="310.5" cy="399.1" r="7.2">
		</circle>
		<path id="Shape_1_" sketch:type="MSShapeGroup" fill="#FFFFFF" stroke="#FFFFFF" d="M321.9,407.7l-5-5c-0.6,1.2-1.5,2.1-2.7,2.7
			l5,5c0.8,0.8,1.9,0.8,2.7,0S322.7,408.5,321.9,407.7L321.9,407.7z"/>
	</g>
</switch>

</svg>
