<?xml version="1.0" encoding="utf-8"?>
<!-- Generator: Adobe Illustrator 18.1.1, SVG Export Plug-In . SVG Version: 6.00 Build 0)  -->
<!DOCTYPE svg PUBLIC "-//W3C//DTD SVG 1.1//EN" "http://www.w3.org/Graphics/SVG/1.1/DTD/svg11.dtd" [
	<!ENTITY ns_extend "http://ns.adobe.com/Extensibility/1.0/">
	<!ENTITY ns_ai "http://ns.adobe.com/AdobeIllustrator/10.0/">
	<!ENTITY ns_graphs "http://ns.adobe.com/Graphs/1.0/">
	<!ENTITY ns_vars "http://ns.adobe.com/Variables/1.0/">
	<!ENTITY ns_imrep "http://ns.adobe.com/ImageReplacement/1.0/">
	<!ENTITY ns_sfw "http://ns.adobe.com/SaveForWeb/1.0/">
	<!ENTITY ns_custom "http://ns.adobe.com/GenericCustomNamespace/1.0/">
	<!ENTITY ns_adobe_xpath "http://ns.adobe.com/XPath/1.0/">
]>
<svg version="1.1"
	 id="Layer_1" xmlns:x="&ns_extend;" xmlns:i="&ns_ai;" xmlns:graph="&ns_graphs;" xmlns:sketch="http://www.bohemiancoding.com/sketch/ns"
	 xmlns="http://www.w3.org/2000/svg" xmlns:xlink="http://www.w3.org/1999/xlink" x="0px" y="0px" viewBox="281 371 50 50"
	 enable-background="new 281 371 50 50" xml:space="preserve">
<switch>
	
	<g i:extraneous="self">
		<circle id="Oval_1_" sketch:type="MSShapeGroup" fill="#A6A39C" cx="306" cy="396" r="25">
		</circle>
		<title>ico-circle-ai-user-privat-off</title>
		<desc>Created with Sketch.</desc>
		<circle id="Oval" sketch:type="MSShapeGroup" fill="#FFFFFF" cx="306" cy="385.4" r="7.2">
		</circle>
		<path id="Shape" sketch:type="MSShapeGroup" fill="#FFFFFF" stroke="#FFFFFF" d="M312.5,396.8c-1.9,1-4.2,1.7-6.5,1.7
			s-4.4-0.6-6.2-1.7c-4.4,2.4-7.4,6.8-7.4,12.2c0,0.8,0.6,1.4,1.4,1.4h24.9c0.8,0,1.4-0.6,1.4-1.4
			C320,403.6,316.9,399.2,312.5,396.8L312.5,396.8z"/>
		<path id="Shape_1_" sketch:type="MSShapeGroup" fill="none" stroke="#FFFFFF" d="M312.5,396.8c-1.9-1-4-1.5-6.2-1.5
			c-2.4,0-4.6,0.6-6.5,1.5"/>
	</g>
</switch>

</svg>
