<?xml version="1.0" encoding="utf-8"?>
<!-- Generator: Adobe Illustrator 18.1.1, SVG Export Plug-In . SVG Version: 6.00 Build 0)  -->
<!DOCTYPE svg PUBLIC "-//W3C//DTD SVG 1.1//EN" "http://www.w3.org/Graphics/SVG/1.1/DTD/svg11.dtd" [
	<!ENTITY ns_extend "http://ns.adobe.com/Extensibility/1.0/">
	<!ENTITY ns_ai "http://ns.adobe.com/AdobeIllustrator/10.0/">
	<!ENTITY ns_graphs "http://ns.adobe.com/Graphs/1.0/">
	<!ENTITY ns_vars "http://ns.adobe.com/Variables/1.0/">
	<!ENTITY ns_imrep "http://ns.adobe.com/ImageReplacement/1.0/">
	<!ENTITY ns_sfw "http://ns.adobe.com/SaveForWeb/1.0/">
	<!ENTITY ns_custom "http://ns.adobe.com/GenericCustomNamespace/1.0/">
	<!ENTITY ns_adobe_xpath "http://ns.adobe.com/XPath/1.0/">
]>
<svg version="1.1" id="Search" xmlns:x="&ns_extend;" xmlns:i="&ns_ai;" xmlns:graph="&ns_graphs;"
	 xmlns="http://www.w3.org/2000/svg" xmlns:xlink="http://www.w3.org/1999/xlink" x="0px" y="0px" viewBox="281 371 50 50"
	 enable-background="new 281 371 50 50" xml:space="preserve">
<switch>
	
	<g i:extraneous="self">
		<path fill="none" stroke="#A6A39C" stroke-miterlimit="10" d="M301.4,379.9c6.4,0,11.5,5.3,11.5,11.5c0,6.4-5.3,11.5-11.5,11.5
			c-6.4,0-11.5-5.3-11.5-11.5C289.9,385.2,295.2,379.9,301.4,379.9z"/>
		<path fill="none" stroke="#A6A39C" stroke-miterlimit="10" d="M319.4,404.8l-7.8-7.8c-1,1.9-2.7,3.6-4.6,4.6l7.8,7.8
			c1.4,1.4,3.4,1.4,4.6,0C320.7,408.2,320.7,406.2,319.4,404.8z"/>
		<path id="Circle_3_" fill="none" stroke="#A6A39C" stroke-miterlimit="10" d="M306,420.6c-13.6,0-24.6-11-24.6-24.6
			s11-24.6,24.6-24.6s24.6,11,24.6,24.6S319.6,420.6,306,420.6z"/>
	</g>
</switch>

</svg>
