<?xml version="1.0" encoding="utf-8"?>
<!-- Generator: Adobe Illustrator 18.1.1, SVG Export Plug-In . SVG Version: 6.00 Build 0)  -->
<!DOCTYPE svg PUBLIC "-//W3C//DTD SVG 1.1//EN" "http://www.w3.org/Graphics/SVG/1.1/DTD/svg11.dtd" [
	<!ENTITY ns_extend "http://ns.adobe.com/Extensibility/1.0/">
	<!ENTITY ns_ai "http://ns.adobe.com/AdobeIllustrator/10.0/">
	<!ENTITY ns_graphs "http://ns.adobe.com/Graphs/1.0/">
	<!ENTITY ns_vars "http://ns.adobe.com/Variables/1.0/">
	<!ENTITY ns_imrep "http://ns.adobe.com/ImageReplacement/1.0/">
	<!ENTITY ns_sfw "http://ns.adobe.com/SaveForWeb/1.0/">
	<!ENTITY ns_custom "http://ns.adobe.com/GenericCustomNamespace/1.0/">
	<!ENTITY ns_adobe_xpath "http://ns.adobe.com/XPath/1.0/">
]>
<svg version="1.1"
	 id="Layer_1" xmlns:x="&ns_extend;" xmlns:i="&ns_ai;" xmlns:graph="&ns_graphs;" xmlns:sketch="http://www.bohemiancoding.com/sketch/ns"
	 xmlns="http://www.w3.org/2000/svg" xmlns:xlink="http://www.w3.org/1999/xlink" x="0px" y="0px" viewBox="281 371 50 50"
	 enable-background="new 281 371 50 50" xml:space="preserve">
<switch>
	
	<g i:extraneous="self">
		<title>atomic-ico-circle-ai-user-firma-on</title>
		<desc>Created with Sketch.</desc>
		
			<ellipse id="Oval" sketch:type="MSShapeGroup" fill="none" stroke="#A6A39C" stroke-miterlimit="10" cx="305.9" cy="396" rx="24.3" ry="24.5">
		</ellipse>
		<path id="_x33_" sketch:type="MSShapeGroup" fill="none" stroke="#A6A39C" d="M293.7,411c-0.6,0-1.4-0.6-1.4-1.4
			c0-7.5,6.1-13.7,13.6-13.7s13.6,6.1,13.6,13.7c0,0.6-0.6,1.4-1.4,1.4H293.7L293.7,411z"/>
		<path id="Shape" sketch:type="MSShapeGroup" fill="none" stroke="#A6A39C" d="M308.3,396.5c0,1.4-1,2.4-2.4,2.4s-2.4-1-2.4-2.4"/>
		<path id="Shape_1_" sketch:type="MSShapeGroup" fill="none" stroke="#A6A39C" d="M306.8,398.6l1.9,9.3"/>
		<path id="Shape_2_" sketch:type="MSShapeGroup" fill="none" stroke="#A6A39C" d="M310,379.3c-1.4-1-6-2.2-8.4-1.4
			c-2.4,0.6-1.1,3.2-1.1,3.2c-0.1,0.1-0.5,0.5-0.6,0.9s-0.4,0.5-0.5,0.9c-0.5,0.9-0.6,2-0.6,3c0,3.9,3.2,7.1,7,7.1s7-3.2,7-7.1
			c0-1.9-0.5-3.4-1.6-4.6C311.4,380.7,310.7,379.7,310,379.3L310,379.3z"/>
		<path id="Shape_3_" sketch:type="MSShapeGroup" fill="none" stroke="#A6A39C" d="M304.8,398.6l-1.8,9.3"/>
		<path id="Shape_4_" sketch:type="MSShapeGroup" fill="none" stroke="#A6A39C" d="M305.9,411c-2.5,0-4.7-5.7-5.4-13.8"/>
		<path id="Shape_5_" sketch:type="MSShapeGroup" fill="none" stroke="#A6A39C" d="M311,397.2c-0.6,8-2.9,13.8-5.4,13.8"/>
	</g>
</switch>

</svg>
