<?xml version="1.0" encoding="utf-8"?>
<!-- Generator: Adobe Illustrator 18.1.1, SVG Export Plug-In . SVG Version: 6.00 Build 0)  -->
<!DOCTYPE svg PUBLIC "-//W3C//DTD SVG 1.1//EN" "http://www.w3.org/Graphics/SVG/1.1/DTD/svg11.dtd" [
	<!ENTITY ns_extend "http://ns.adobe.com/Extensibility/1.0/">
	<!ENTITY ns_ai "http://ns.adobe.com/AdobeIllustrator/10.0/">
	<!ENTITY ns_graphs "http://ns.adobe.com/Graphs/1.0/">
	<!ENTITY ns_vars "http://ns.adobe.com/Variables/1.0/">
	<!ENTITY ns_imrep "http://ns.adobe.com/ImageReplacement/1.0/">
	<!ENTITY ns_sfw "http://ns.adobe.com/SaveForWeb/1.0/">
	<!ENTITY ns_custom "http://ns.adobe.com/GenericCustomNamespace/1.0/">
	<!ENTITY ns_adobe_xpath "http://ns.adobe.com/XPath/1.0/">
]>
<svg version="1.1"
	 id="Layer_1" xmlns:x="&ns_extend;" xmlns:i="&ns_ai;" xmlns:graph="&ns_graphs;" xmlns:sketch="http://www.bohemiancoding.com/sketch/ns"
	 xmlns="http://www.w3.org/2000/svg" xmlns:xlink="http://www.w3.org/1999/xlink" x="0px" y="0px" viewBox="281 371 50 50"
	 enable-background="new 281 371 50 50" xml:space="preserve">
<switch>
	
	<g i:extraneous="self">
		<title>atomic-ico-circle-ai-user-firma-on</title>
		<desc>Created with Sketch.</desc>
		<circle id="Oval" sketch:type="MSShapeGroup" fill="#A6A39C" cx="306" cy="396" r="24.9">
		</circle>
		<path id="_x33_" sketch:type="MSShapeGroup" fill="#FFFFFF" d="M293.5,411.1c-0.6,0-1.4-0.6-1.4-1.4c0-7.7,6.2-13.9,13.9-13.9
			c7.7,0,13.9,6.2,13.9,13.9c0,0.6-0.6,1.4-1.4,1.4H293.5L293.5,411.1z"/>
		<path id="Shape" sketch:type="MSShapeGroup" fill="none" stroke="#A6A39C" d="M308.7,395.8c0,1.6-1.1,2.7-2.7,2.7
			c-1.6,0-2.7-1.1-2.7-2.7"/>
		<path id="Shape_1_" sketch:type="MSShapeGroup" fill="none" stroke="#A6A39C" d="M306.9,398.5l2,9.8"/>
		<path id="Shape_2_" sketch:type="MSShapeGroup" fill="#FFFFFF" d="M310.2,378.9c-1.4-1-6.1-2.2-8.7-1.4c-2.5,0.6-1.1,3.3-1.1,3.3
			c-0.1,0.1-0.5,0.5-0.6,0.9c-0.1,0.4-0.4,0.5-0.5,0.9c-0.5,0.9-0.6,2-0.6,3.1c0,4,3.3,7.3,7.3,7.3c4,0,7.3-3.3,7.3-7.3
			c0-1.9-0.5-3.5-1.6-4.7C311.7,380.3,311,379.3,310.2,378.9L310.2,378.9z"/>
		<path id="Shape_3_" sketch:type="MSShapeGroup" fill="none" stroke="#A6A39C" d="M304.9,398.5l-1.9,9.8"/>
		<path id="Shape_4_" sketch:type="MSShapeGroup" fill="none" stroke="#A6A39C" d="M306,411.1c-2.8,0-5.2-6.3-6-15.1"/>
		<path id="Shape_5_" sketch:type="MSShapeGroup" fill="none" stroke="#A6A39C" d="M311.5,396.4c-0.6,8.5-3.1,14.6-5.8,14.6"/>
	</g>
</switch>

</svg>
