<?xml version="1.0" encoding="utf-8"?>
<!-- Generator: Adobe Illustrator 18.1.1, SVG Export Plug-In . SVG Version: 6.00 Build 0)  -->
<!DOCTYPE svg PUBLIC "-//W3C//DTD SVG 1.1//EN" "http://www.w3.org/Graphics/SVG/1.1/DTD/svg11.dtd" [
	<!ENTITY ns_extend "http://ns.adobe.com/Extensibility/1.0/">
	<!ENTITY ns_ai "http://ns.adobe.com/AdobeIllustrator/10.0/">
	<!ENTITY ns_graphs "http://ns.adobe.com/Graphs/1.0/">
	<!ENTITY ns_vars "http://ns.adobe.com/Variables/1.0/">
	<!ENTITY ns_imrep "http://ns.adobe.com/ImageReplacement/1.0/">
	<!ENTITY ns_sfw "http://ns.adobe.com/SaveForWeb/1.0/">
	<!ENTITY ns_custom "http://ns.adobe.com/GenericCustomNamespace/1.0/">
	<!ENTITY ns_adobe_xpath "http://ns.adobe.com/XPath/1.0/">
]>
<svg version="1.1"
	 id="Layer_1" xmlns:x="&ns_extend;" xmlns:i="&ns_ai;" xmlns:graph="&ns_graphs;" xmlns:sketch="http://www.bohemiancoding.com/sketch/ns"
	 xmlns="http://www.w3.org/2000/svg" xmlns:xlink="http://www.w3.org/1999/xlink" x="0px" y="0px" viewBox="281 371 50 50"
	 enable-background="new 281 371 50 50" xml:space="preserve">
<switch>
	
	<g i:extraneous="self">
		<title>ico-shape-user-privat-on</title>
		<desc>Created with Sketch.</desc>
		<g id="Page-1" sketch:type="MSPage">
			
				<g id="_x34_3-UI-Iconography-_x28_Canton-Icons_x29_-Copy-2" transform="translate(-742.000000, -102.000000)" sketch:type="MSArtboardGroup">
				<g id="ico-shape-user-privat-on" transform="translate(742.000000, 102.000000)" sketch:type="MSLayerGroup">
					<g id="Group" sketch:type="MSShapeGroup">
						<path id="Shape" fill="#A6A39C" d="M306,371.2c-6.4,0-11.5,5.3-11.5,11.7c0,6.4,5.1,11.7,11.5,11.7c6.4,0,11.5-5.3,11.5-11.7
							C317.5,376.5,312.4,371.2,306,371.2L306,371.2z"/>
						<path id="Shape_1_" fill="#A6A39C" d="M324.3,420.8H288c-1.7,0-3-1.3-3-3c0-8,4.4-15.1,11.3-18.9l0.4-0.3l0.4,0.3
							c5.4,3.1,12.3,3,17.7-0.1l0.4-0.3l0.4,0.3c7.1,3.7,11.4,10.9,11.4,19C327.3,419.5,326,420.8,324.3,420.8L324.3,420.8z"/>
					</g>
				</g>
			</g>
		</g>
	</g>
</switch>

</svg>
