<?xml version="1.0" encoding="utf-8"?>
<!-- Generator: Adobe Illustrator 18.1.1, SVG Export Plug-In . SVG Version: 6.00 Build 0)  -->
<!DOCTYPE svg PUBLIC "-//W3C//DTD SVG 1.1//EN" "http://www.w3.org/Graphics/SVG/1.1/DTD/svg11.dtd" [
	<!ENTITY ns_extend "http://ns.adobe.com/Extensibility/1.0/">
	<!ENTITY ns_ai "http://ns.adobe.com/AdobeIllustrator/10.0/">
	<!ENTITY ns_graphs "http://ns.adobe.com/Graphs/1.0/">
	<!ENTITY ns_vars "http://ns.adobe.com/Variables/1.0/">
	<!ENTITY ns_imrep "http://ns.adobe.com/ImageReplacement/1.0/">
	<!ENTITY ns_sfw "http://ns.adobe.com/SaveForWeb/1.0/">
	<!ENTITY ns_custom "http://ns.adobe.com/GenericCustomNamespace/1.0/">
	<!ENTITY ns_adobe_xpath "http://ns.adobe.com/XPath/1.0/">
]>
<svg version="1.1"
	 id="Layer_1" xmlns:x="&ns_extend;" xmlns:i="&ns_ai;" xmlns:graph="&ns_graphs;" xmlns:sketch="http://www.bohemiancoding.com/sketch/ns"
	 xmlns="http://www.w3.org/2000/svg" xmlns:xlink="http://www.w3.org/1999/xlink" x="0px" y="0px" viewBox="281 371 50 50"
	 enable-background="new 281 371 50 50" xml:space="preserve">
<switch>
	
	<g i:extraneous="self">
		<title>ico-circle-li-saved_searches copy</title>
		<desc>Created with Sketch.</desc>
		<circle id="Oval" sketch:type="MSShapeGroup" fill="none" stroke="#A6A39C" cx="302.6" cy="383.2" r="6.2">
		</circle>
		<path id="Shape" sketch:type="MSShapeGroup" fill="#A6A39C" stroke="#A6A39C" stroke-width="0.2" d="M305.1,406.3h-13.1
			c-0.1,0-0.4-0.1-0.4-0.4c0-4.1,2.3-7.7,5.8-9.8c1-0.5,3.3-1.4,4.8-1.1c0,0,0.5-1.3,1.1-1.8c-0.5,0-1.5,0-1.5,0
			c-1.9,0.1-3.7,0.6-5.3,1.4c-4.2,2.2-6.7,6.5-6.7,11.2c0,1.1,0.9,2,2,2h16.3C307.5,407.9,305.6,406.9,305.1,406.3L305.1,406.3z"/>
		<circle id="Oval_1_" sketch:type="MSShapeGroup" fill="none" stroke="#A6A39C" cx="310.4" cy="399" r="7.1">
		</circle>
		<path id="Shape_1_" sketch:type="MSShapeGroup" fill="none" stroke="#A6A39C" d="M321.6,407.5l-4.9-4.9c-0.6,1.1-1.5,2-2.7,2.7
			l4.9,4.9c0.8,0.8,1.9,0.8,2.7,0S322.3,408.3,321.6,407.5L321.6,407.5z"/>
		<path id="Circle_8_" sketch:type="MSShapeGroup" fill="none" stroke="#A6A39C" stroke-miterlimit="10" d="M306,420.5
			c-13.6,0-24.5-11-24.5-24.5c0-13.6,11-24.5,24.5-24.5c13.6,0,24.5,11,24.5,24.5C330.5,409.6,319.6,420.5,306,420.5L306,420.5z"/>
	</g>
</switch>

</svg>
