<?xml version="1.0" encoding="utf-8"?>
<!-- Generator: Adobe Illustrator 18.1.1, SVG Export Plug-In . SVG Version: 6.00 Build 0)  -->
<!DOCTYPE svg PUBLIC "-//W3C//DTD SVG 1.1//EN" "http://www.w3.org/Graphics/SVG/1.1/DTD/svg11.dtd" [
	<!ENTITY ns_extend "http://ns.adobe.com/Extensibility/1.0/">
	<!ENTITY ns_ai "http://ns.adobe.com/AdobeIllustrator/10.0/">
	<!ENTITY ns_graphs "http://ns.adobe.com/Graphs/1.0/">
	<!ENTITY ns_vars "http://ns.adobe.com/Variables/1.0/">
	<!ENTITY ns_imrep "http://ns.adobe.com/ImageReplacement/1.0/">
	<!ENTITY ns_sfw "http://ns.adobe.com/SaveForWeb/1.0/">
	<!ENTITY ns_custom "http://ns.adobe.com/GenericCustomNamespace/1.0/">
	<!ENTITY ns_adobe_xpath "http://ns.adobe.com/XPath/1.0/">
]>
<svg version="1.1" id="Layer_1" xmlns:x="&ns_extend;" xmlns:i="&ns_ai;" xmlns:graph="&ns_graphs;"
	 xmlns="http://www.w3.org/2000/svg" xmlns:xlink="http://www.w3.org/1999/xlink" x="0px" y="0px" viewBox="281 363.5 50 65"
	 enable-background="new 281 363.5 50 65" xml:space="preserve">
<switch>
	
	<g i:extraneous="self">
		<g>
			<path fill="#A6A39C" d="M327.8,366.6c-2.1,0.3-4.9,0.7-7.8,0.7c-4.5,0-8.6-1.1-12.7-2c-4.2-0.9-8.5-1.8-13.1-1.8
				c-9.2,0-12.3,2-12.6,2.2l-0.7,0.5v0.5v31.6v27.7h3.1v-28c1.2-0.5,4.3-1.3,10.1-1.3c4.3,0,8.2,1.6,12.5,2.5
				c4.3,0.9,8.8,1.9,13.6,1.9c2.9,0,5.4-0.4,7.6-0.6c1.2-0.1,2.2-0.3,3.1-0.4v-30.6v-3.2C330,366.3,328.9,366.5,327.8,366.6z"/>
		</g>
	</g>
</switch>

</svg>
