<?xml version="1.0" encoding="utf-8"?>
<!-- Generator: Adobe Illustrator 18.1.1, SVG Export Plug-In . SVG Version: 6.00 Build 0)  -->
<!DOCTYPE svg PUBLIC "-//W3C//DTD SVG 1.1//EN" "http://www.w3.org/Graphics/SVG/1.1/DTD/svg11.dtd" [
	<!ENTITY ns_extend "http://ns.adobe.com/Extensibility/1.0/">
	<!ENTITY ns_ai "http://ns.adobe.com/AdobeIllustrator/10.0/">
	<!ENTITY ns_graphs "http://ns.adobe.com/Graphs/1.0/">
	<!ENTITY ns_vars "http://ns.adobe.com/Variables/1.0/">
	<!ENTITY ns_imrep "http://ns.adobe.com/ImageReplacement/1.0/">
	<!ENTITY ns_sfw "http://ns.adobe.com/SaveForWeb/1.0/">
	<!ENTITY ns_custom "http://ns.adobe.com/GenericCustomNamespace/1.0/">
	<!ENTITY ns_adobe_xpath "http://ns.adobe.com/XPath/1.0/">
]>
<svg version="1.1"
	 id="Layer_1" xmlns:x="&ns_extend;" xmlns:i="&ns_ai;" xmlns:graph="&ns_graphs;" xmlns:sketch="http://www.bohemiancoding.com/sketch/ns"
	 xmlns="http://www.w3.org/2000/svg" xmlns:xlink="http://www.w3.org/1999/xlink" x="0px" y="0px" viewBox="281 371 50 50"
	 enable-background="new 281 371 50 50" xml:space="preserve">
<switch>
	
	<g i:extraneous="self">
		<path id="Circle_3_" fill="#A6A39C" d="M306,420.8c-13.7,0-24.8-11.2-24.8-24.8c0-13.7,11.2-24.8,24.8-24.8
			c13.7,0,24.8,11.2,24.8,24.8C330.8,409.7,319.7,420.8,306,420.8L306,420.8z"/>
		<title>ico-circle-li-meine_inserate</title>
		<desc>Created with Sketch.</desc>
		<g id="Group" transform="translate(6.666667, 5.333333)">
			<ellipse id="Oval" fill="#FFFFFF" cx="294" cy="378.3" rx="6.3" ry="6.3"/>
			<path id="Shape" fill="#FFFFFF" d="M288.6,390.7c-3.8,2.1-6.4,6-6.4,10.7c0,0.6,0.5,1.2,1.2,1.2h21.6c0.6,0,1.2-0.5,1.2-1.2
				c0-4.6-2.7-8.6-6.5-10.7"/>
			<path id="Shape_1_" fill="#FFFFFF" d="M299.7,390.7c-1.7-0.9-3.5-1.3-5.5-1.3c-2.1,0-4,0.5-5.6,1.4"/>
		</g>
		<rect id="Rectangle-path" x="307.4" y="393" fill="#FFFFFF" stroke="#A6A39C" width="17.7" height="12.7"/>
		<rect id="Rectangle-path_1_" x="303.9" y="396.5" fill="#FFFFFF" stroke="#A6A39C" width="17.7" height="12.7"/>
		<rect id="Rectangle-path_2_" x="300.6" y="399.9" fill="#FFFFFF" stroke="#A6A39C" width="17.7" height="12.7"/>
		<path id="Shape_2_" fill="#FFFFFF" stroke="#A6A39C" d="M318.1,408h-12l-1.7-1.8l-1.3,1.8h-2.4"/>
	</g>
</switch>

</svg>
