<?xml version="1.0" encoding="utf-8"?>
<!-- Generator: Adobe Illustrator 19.1.0, SVG Export Plug-In . SVG Version: 6.00 Build 0)  -->
<svg version="1.1" id="Layer_1" xmlns:sketch="http://www.bohemiancoding.com/sketch/ns"
	 xmlns="http://www.w3.org/2000/svg" xmlns:xlink="http://www.w3.org/1999/xlink" x="0px" y="0px" viewBox="-289.5 371.5 50 50"
	 style="enable-background:new -289.5 371.5 50 50;" xml:space="preserve">
<style type="text/css">
	.st0{fill:#A6A39C;stroke:#A6A39C;}
	.st1{fill:#FFFFFF;stroke:#FFFFFF;}
</style>
<title>atom-circle-category-on</title>
<desc>Created with Sketch.</desc>
<g id="Page-1" sketch:type="MSPage">
	<g id="_x34_4-Context-Icons" transform="translate(-699.000000, -299.000000)" sketch:type="MSArtboardGroup">
		<g id="atom-circle-category-on" transform="translate(699.500000, 299.675000)" sketch:type="MSLayerGroup">
			<path id="Shape" sketch:type="MSShapeGroup" class="st0" d="M-265,420.2c-13.4,0-24.3-10.9-24.3-24.3s10.9-24.3,24.3-24.3
				s24.3,10.9,24.3,24.3S-251.6,420.2-265,420.2L-265,420.2z"/>
			<path id="Shape_1_" sketch:type="MSShapeGroup" class="st1" d="M-268.7,414.5c-0.8,0-1.5-0.3-2.2-1l-11.6-11.6
				c-1.3-1.3-1.3-3,0-4.5l3.5-3.5c3.9-3.9,7.7-7.7,11.6-11.6c0.8-0.8,1.7-1.2,2.9-1.2h1h10.1c1.8,0,3.2,1.3,3.2,3.4v4v3.4v3.5
				c0,1.2-0.3,2.2-1.3,3l-11.9,11.9l-3.2,3.2C-267.2,414.1-268,414.5-268.7,414.5L-268.7,414.5z"/>
			<path id="Shape_2_" sketch:type="MSShapeGroup" class="st0" d="M-256.9,390.5c1.5,0,2.9-1.2,2.9-2.7s-1.2-2.9-2.9-2.9l0,0
				c-1.5,0-2.7,1.3-2.9,2.7c0,0.8,0.3,1.5,0.8,2C-258.3,390.3-257.6,390.5-256.9,390.5"/>
		</g>
	</g>
</g>
</svg>
