<?xml version="1.0" encoding="utf-8"?>
<!-- Generator: Adobe Illustrator 19.1.0, SVG Export Plug-In . SVG Version: 6.00 Build 0)  -->
<!DOCTYPE svg PUBLIC "-//W3C//DTD SVG 1.1//EN" "http://www.w3.org/Graphics/SVG/1.1/DTD/svg11.dtd" [
	<!ENTITY ns_extend "http://ns.adobe.com/Extensibility/1.0/">
	<!ENTITY ns_ai "http://ns.adobe.com/AdobeIllustrator/10.0/">
	<!ENTITY ns_graphs "http://ns.adobe.com/Graphs/1.0/">
	<!ENTITY ns_vars "http://ns.adobe.com/Variables/1.0/">
	<!ENTITY ns_imrep "http://ns.adobe.com/ImageReplacement/1.0/">
	<!ENTITY ns_sfw "http://ns.adobe.com/SaveForWeb/1.0/">
	<!ENTITY ns_custom "http://ns.adobe.com/GenericCustomNamespace/1.0/">
	<!ENTITY ns_adobe_xpath "http://ns.adobe.com/XPath/1.0/">
]>
<svg version="1.1"
	 id="Layer_1" xmlns:x="&ns_extend;" xmlns:i="&ns_ai;" xmlns:graph="&ns_graphs;" xmlns:sketch="http://www.bohemiancoding.com/sketch/ns"
	 xmlns="http://www.w3.org/2000/svg" xmlns:xlink="http://www.w3.org/1999/xlink" x="0px" y="0px" viewBox="-288 376.9 50 39.3"
	 style="enable-background:new -288 376.9 50 39.3;" xml:space="preserve">
<style type="text/css">
	.st0{fill:#A6A39C;}
</style>
<switch>
	
	<g i:extraneous="self">
		<title>ico-shape-no_picture copy 4</title>
		<desc>Created with Sketch.</desc>
		<g id="Page-1" sketch:type="MSPage">
			<g id="_x34_5-General-Icons" transform="translate(-240.500000, -304.000000)" sketch:type="MSArtboardGroup">
				<g id="ico-shape-no_picture-copy-4" transform="translate(240.706003, 304.500000)" sketch:type="MSLayerGroup">
					<path id="Frame_1" sketch:type="MSShapeGroup" class="st0" d="M-240.8,379.2v33.6h-44.7v-33.6L-240.8,379.2L-240.8,379.2z
						 M-238.2,376.6l-50,0v38.8h50V376.6L-238.2,376.6z"/>
					<path id="Shape" sketch:type="MSShapeGroup" class="st0" d="M-281.1,409.3h36.1c1.9,0,0.3-7.4-8.2-8.4c-8.5-1-9.6,1.1-9.6,1.1
						s-3.8-9.8-9.8-9.4C-278.6,393-283.1,409.3-281.1,409.3L-281.1,409.3z"/>
					<path id="Shape_1_" sketch:type="MSShapeGroup" class="st0" d="M-246.5,388.2c0,3-2.5,5.4-5.5,5.4c-3.1,0-5.6-2.4-5.6-5.4
						c0-3,2.5-5.4,5.6-5.4C-249,382.8-246.5,385.2-246.5,388.2L-246.5,388.2z"/>
				</g>
			</g>
		</g>
	</g>
</switch>

</svg>
