<?xml version="1.0" encoding="utf-8"?>
<!-- Generator: Adobe Illustrator 18.1.1, SVG Export Plug-In . SVG Version: 6.00 Build 0)  -->
<!DOCTYPE svg PUBLIC "-//W3C//DTD SVG 1.1//EN" "http://www.w3.org/Graphics/SVG/1.1/DTD/svg11.dtd" [
	<!ENTITY ns_extend "http://ns.adobe.com/Extensibility/1.0/">
	<!ENTITY ns_ai "http://ns.adobe.com/AdobeIllustrator/10.0/">
	<!ENTITY ns_graphs "http://ns.adobe.com/Graphs/1.0/">
	<!ENTITY ns_vars "http://ns.adobe.com/Variables/1.0/">
	<!ENTITY ns_imrep "http://ns.adobe.com/ImageReplacement/1.0/">
	<!ENTITY ns_sfw "http://ns.adobe.com/SaveForWeb/1.0/">
	<!ENTITY ns_custom "http://ns.adobe.com/GenericCustomNamespace/1.0/">
	<!ENTITY ns_adobe_xpath "http://ns.adobe.com/XPath/1.0/">
]>
<svg version="1.1" id="Layer_1" xmlns:x="&ns_extend;" xmlns:i="&ns_ai;" xmlns:graph="&ns_graphs;"
	 xmlns="http://www.w3.org/2000/svg" xmlns:xlink="http://www.w3.org/1999/xlink" x="0px" y="0px" viewBox="281 371 50 50"
	 enable-background="new 281 371 50 50" xml:space="preserve">
<switch>
	
	<g i:extraneous="self">
		<path fill="#A6A39C" d="M283.3,389.7c-0.1,0.1-0.2,0.1-0.2,0.2L283.3,389.7z M283.1,389.9L283.1,389.9v27c0,3.3,0.6,3.9,3.9,3.9
			h9.2c3.3,0,3.9-0.6,3.9-3.9v-10.5h11.8V417c0,3.3,0.7,3.9,3.9,3.9c0.1,0,9.2,0,9.2,0c3.3,0,3.9-0.7,3.9-3.9v-26.2
			c0-0.1-0.1-0.2-0.3-0.3L306,371.1l-22.7,18.6L283.1,389.9z"/>
	</g>
</switch>

</svg>
