<?xml version="1.0" encoding="utf-8"?>
<!-- Generator: Adobe Illustrator 18.1.1, SVG Export Plug-In . SVG Version: 6.00 Build 0)  -->
<!DOCTYPE svg PUBLIC "-//W3C//DTD SVG 1.1//EN" "http://www.w3.org/Graphics/SVG/1.1/DTD/svg11.dtd" [
	<!ENTITY ns_extend "http://ns.adobe.com/Extensibility/1.0/">
	<!ENTITY ns_ai "http://ns.adobe.com/AdobeIllustrator/10.0/">
	<!ENTITY ns_graphs "http://ns.adobe.com/Graphs/1.0/">
	<!ENTITY ns_vars "http://ns.adobe.com/Variables/1.0/">
	<!ENTITY ns_imrep "http://ns.adobe.com/ImageReplacement/1.0/">
	<!ENTITY ns_sfw "http://ns.adobe.com/SaveForWeb/1.0/">
	<!ENTITY ns_custom "http://ns.adobe.com/GenericCustomNamespace/1.0/">
	<!ENTITY ns_adobe_xpath "http://ns.adobe.com/XPath/1.0/">
]>
<svg version="1.1" id="Search" xmlns:x="&ns_extend;" xmlns:i="&ns_ai;" xmlns:graph="&ns_graphs;"
	 xmlns="http://www.w3.org/2000/svg" xmlns:xlink="http://www.w3.org/1999/xlink" x="0px" y="0px" viewBox="281 371 50 50"
	 enable-background="new 281 371 50 50" xml:space="preserve">
<switch>
	
	<g i:extraneous="self">
		<path id="Circle_3_" fill="#A6A39C" stroke="#A6A39C" stroke-miterlimit="10" d="M306,420.4c-13.5,0-24.4-10.9-24.4-24.4
			s10.9-24.4,24.4-24.4s24.4,10.9,24.4,24.4S319.5,420.4,306,420.4z"/>
		<path fill="none" stroke="#FFFFFF" stroke-miterlimit="10" d="M301.5,380c6.4,0,11.4,5.2,11.4,11.4c0,6.4-5.2,11.4-11.4,11.4
			c-6.4,0-11.4-5.2-11.4-11.4C290,385.2,295.2,380,301.5,380z"/>
		<path fill="#FFFFFF" stroke="#FFFFFF" stroke-miterlimit="10" d="M319.3,404.7l-7.7-7.7c-1,1.8-2.7,3.5-4.5,4.5l7.7,7.7
			c1.3,1.3,3.4,1.3,4.5,0C320.6,408.1,320.6,406.1,319.3,404.7z"/>
	</g>
</switch>

</svg>
