<svg id="Layer_1" xmlns="http://www.w3.org/2000/svg" width="209.2" height="154.8"><style>.st3{fill:none;stroke-linecap:round;stroke-linejoin:round;stroke-miterlimit:10;stroke:#c3c3c3;stroke-width:2.7904}</style><path d="M182.9 60.1H4.5c-2.5 0-4.5-2-4.5-4.5v-51C0 2.1 2 .1 4.5.1h178.4c2.5 0 4.5 2 4.5 4.5v51c0 2.5-2 4.5-4.5 4.5z" fill="#f1f1f1"/><path d="M70.7 11.9h104.7m-40.9 13.3h40.9m-104.7 0h44.1M70.7 38.6h104.7" fill="none" stroke="#ccc" stroke-width="4.818" stroke-linecap="round" stroke-linejoin="round" stroke-miterlimit="10"/><path d="M55.8 60.2H4.6c-2.5 0-4.5-2-4.5-4.5V4.5C.1 2 2.1 0 4.6 0h51.2c2.5 0 4.5 2 4.5 4.5v51.2c-.1 2.4-2.1 4.5-4.5 4.5z" fill="#e1e1e1"/><path class="st3" d="M7.8 43.4l12.7-25.8 13.1 17.8 9.2-6.8 9.7 14.8z"/><circle class="st3" cx="36.2" cy="21" r="4.1"/><path d="M179.6 49.1h21.3c3.4 0 6.2 2.8 6.2 6.2V83c0 3.4-2.8 6.6-6.2 7l-51.3 4.1c-3.4 0-6.2 2.8-6.2 6.2v28.3" fill="none" stroke="#999" stroke-width="4.14" stroke-miterlimit="10"/><path d="M192.2 73.3H89c-3.8 0-7-3.1-7-7V31.8c0-3.8 3.1-7 7-7h103.2c3.8 0 7 3.1 7 7v34.5c0 3.9-3.1 7-7 7z" fill="#fad3d3"/><path fill="#ef4d4a" d="M137.4 106h12.4v48.8h-12.4z"/><path d="M84.1 45.2h.4c1.4 0 2.5 1.1 2.5 2.5v13.4c0 1.4 1.1 2.5 2.5 2.5s2.5-1.1 2.5-2.5v-6.3c0-1.4 1.1-2.5 2.5-2.5h22.3c1.4 0 2.5 1.1 2.5 2.5V64c0 1.4 1.1 2.5 2.5 2.5h.4c1.4 0 2.5-1.1 2.5-2.5V39.3c0-1.4 1.1-2.5 2.5-2.5s2.5 1.1 2.5 2.5v16.8c0 1.4 1.1 2.5 2.5 2.5s2.5-1.1 2.5-2.5V49c0-1.4 1.1-2.5 2.5-2.5s2.5 1.1 2.5 2.5v12.2c0 1.4 1.1 2.5 2.5 2.5s2.5-1.1 2.5-2.5V50.7c0-1.4 1.1-2.5 2.5-2.5h2.5c1.4 0 2.5 1.1 2.5 2.5s1.1 2.5 2.5 2.5h4.2c1.4 0 2.5 1.1 2.5 2.5v5.5c0 1.4 1.1 2.5 2.5 2.5s2.5-1.1 2.5-2.5V47.7c0-1.4 1.1-2.5 2.5-2.5h29.8V31.1c0-3.6-2.5-6.4-6-6.4H88.2c-3.7 0-6.2 3-6.2 6.6v11.4c0 1.4.8 2.5 2.1 2.5z" fill="#ed2c28"/><path d="M88.7 28.6h103.8m-51.9 81v41.8" stroke="#f7a8a8" stroke-width="2.484" fill="none" stroke-linecap="round" stroke-linejoin="round" stroke-miterlimit="10"/></svg>