<?xml version="1.0" encoding="utf-8"?>
<!-- Generator: Adobe Illustrator 20.1.0, SVG Export Plug-In . SVG Version: 6.00 Build 0)  -->
<svg version="1.1" id="Layer_1" xmlns="http://www.w3.org/2000/svg" xmlns:xlink="http://www.w3.org/1999/xlink" x="0px" y="0px"
	 width="204.4px" height="139.8px" viewBox="0 0 204.4 139.8" style="enable-background:new 0 0 204.4 139.8;" xml:space="preserve"
	>
<style type="text/css">
	.st0{enable-background:new    ;}
	.st1{fill:#666666;}
	.st2{fill:#999999;}
	.st3{fill:#F1F1F1;}
	.st4{fill:none;stroke:#CCCCCC;stroke-width:3.7749;stroke-linecap:round;stroke-linejoin:round;stroke-miterlimit:10;}
	.st5{fill:#E1E1E1;}
	.st6{fill:none;stroke:#C3C3C3;stroke-width:2.1864;stroke-linecap:round;stroke-linejoin:round;stroke-miterlimit:10;}
	.st7{fill:none;stroke:#C3C3C3;stroke-width:3;stroke-linecap:round;stroke-linejoin:round;stroke-miterlimit:10;}
	.st8{fill:#FFFFFF;}
	.st9{fill:#ED2C28;}
	.st10{fill:none;stroke:#F27E7C;stroke-width:3;stroke-linecap:round;stroke-linejoin:round;stroke-miterlimit:10;}
	.st11{opacity:0.6;fill:#FFFFFF;enable-background:new    ;}
</style>
<g>
	<g>
		<g>
			<g>
				<g>
					<g>
						<g>
							<g class="st0">
								<path class="st1" d="M53.3,13c0.2,0.2,0.3,0.5,0.3,0.8v10.7c0,0.3-0.1,0.6-0.3,0.8c-0.2,0.2-0.4,0.3-0.8,0.3
									s-0.6-0.1-0.7-0.3c-0.2-0.2-0.3-0.5-0.3-0.8v-7.4l-3.1,5.8c-0.1,0.3-0.3,0.5-0.5,0.6s-0.4,0.2-0.6,0.2
									c-0.2,0-0.4-0.1-0.6-0.2c-0.2-0.1-0.3-0.3-0.5-0.6l-3.1-5.7v7.3c0,0.3-0.1,0.6-0.3,0.8c-0.2,0.2-0.4,0.3-0.7,0.3
									s-0.6-0.1-0.7-0.3c-0.2-0.2-0.3-0.5-0.3-0.8V13.9c0-0.3,0.1-0.6,0.3-0.8c0.2-0.2,0.5-0.3,0.8-0.3c0.5,0,0.8,0.3,1.1,0.8
									l4,7.6l4-7.6c0.3-0.5,0.6-0.8,1.1-0.8C52.8,12.7,53.1,12.8,53.3,13z"/>
								<path class="st1" d="M63.6,23.3c0.1,0.2,0.2,0.4,0.2,0.6c0,0.4-0.2,0.7-0.7,0.9c-0.4,0.2-0.9,0.4-1.4,0.5
									c-0.5,0.1-1,0.2-1.5,0.2c-1.4,0-2.5-0.4-3.4-1.2c-0.8-0.8-1.2-1.9-1.2-3.3c0-0.9,0.2-1.7,0.5-2.4c0.4-0.7,0.9-1.2,1.5-1.6
									c0.7-0.4,1.4-0.6,2.2-0.6c0.8,0,1.5,0.2,2.1,0.5c0.6,0.3,1,0.8,1.4,1.5c0.3,0.6,0.5,1.4,0.5,2.3c0,0.5-0.2,0.8-0.7,0.8h-5.3
									c0.1,0.8,0.3,1.4,0.7,1.8c0.4,0.4,1,0.6,1.7,0.6c0.4,0,0.7,0,1-0.1c0.3-0.1,0.6-0.2,1-0.4c0.4-0.2,0.6-0.3,0.8-0.3
									C63.4,23.1,63.5,23.1,63.6,23.3z M58.6,18.6c-0.4,0.4-0.6,0.9-0.7,1.7H62c0-0.7-0.2-1.3-0.5-1.7C61.1,18.2,60.6,18,60,18
									C59.4,18,58.9,18.2,58.6,18.6z"/>
								<path class="st1" d="M65.8,24.9c-0.4-0.2-0.6-0.6-0.6-1c0-0.2,0.1-0.4,0.2-0.6c0.1-0.2,0.3-0.2,0.5-0.2
									c0.2,0,0.5,0.1,0.8,0.3c0.4,0.2,0.7,0.3,1.1,0.4c0.3,0.1,0.7,0.1,1.2,0.1c0.5,0,0.9-0.1,1.2-0.3c0.3-0.2,0.4-0.4,0.4-0.7
									c0-0.2-0.1-0.4-0.2-0.5c-0.1-0.1-0.3-0.2-0.6-0.3s-0.7-0.2-1.3-0.4c-1.1-0.2-1.8-0.5-2.3-0.9c-0.5-0.4-0.7-0.9-0.7-1.6
									c0-0.5,0.2-1,0.5-1.4c0.3-0.4,0.7-0.8,1.3-1c0.5-0.2,1.2-0.4,1.9-0.4c0.5,0,1,0.1,1.5,0.2c0.5,0.1,0.9,0.3,1.3,0.5
									c0.4,0.2,0.6,0.6,0.6,1c0,0.2-0.1,0.4-0.2,0.6c-0.1,0.2-0.3,0.2-0.5,0.2c-0.1,0-0.3,0-0.4-0.1c-0.1-0.1-0.3-0.1-0.5-0.2
									c-0.3-0.2-0.6-0.3-0.9-0.4c-0.3-0.1-0.6-0.1-0.9-0.1c-0.4,0-0.8,0.1-1.1,0.3s-0.4,0.4-0.4,0.7c0,0.3,0.1,0.5,0.4,0.7
									c0.3,0.2,0.8,0.3,1.5,0.5c0.8,0.2,1.4,0.4,1.9,0.6c0.5,0.2,0.8,0.5,1,0.8c0.2,0.3,0.3,0.7,0.3,1.2c0,0.8-0.3,1.5-1,2
									c-0.7,0.5-1.6,0.7-2.7,0.7C67.6,25.6,66.6,25.4,65.8,24.9z"/>
								<path class="st1" d="M85.9,17.4c0.6,0.6,0.9,1.5,0.9,2.8v4.4c0,0.3-0.1,0.6-0.3,0.8c-0.2,0.2-0.5,0.3-0.8,0.3
									c-0.3,0-0.6-0.1-0.8-0.3c-0.2-0.2-0.3-0.4-0.3-0.8v-0.4c-0.2,0.5-0.5,0.8-1,1.1c-0.4,0.3-0.9,0.4-1.5,0.4
									c-0.6,0-1.1-0.1-1.6-0.4c-0.5-0.2-0.9-0.6-1.1-1c-0.3-0.4-0.4-0.9-0.4-1.4c0-0.6,0.2-1.2,0.5-1.5s0.9-0.6,1.6-0.8
									c0.7-0.2,1.8-0.3,3.1-0.3h0.5v-0.4c0-0.6-0.1-1-0.4-1.3c-0.3-0.3-0.7-0.4-1.2-0.4c-0.3,0-0.7,0.1-1.1,0.2
									c-0.4,0.1-0.8,0.2-1.3,0.4C80.4,18.9,80.2,19,80,19c-0.2,0-0.4-0.1-0.5-0.2c-0.1-0.2-0.2-0.4-0.2-0.6c0-0.2,0.1-0.4,0.2-0.5
									c0.1-0.2,0.3-0.3,0.5-0.4c0.4-0.2,0.9-0.4,1.5-0.5c0.6-0.1,1.2-0.2,1.7-0.2C84.4,16.5,85.3,16.8,85.9,17.4z M84.1,23.4
									c0.4-0.4,0.6-0.9,0.6-1.6v-0.4h-0.3c-0.8,0-1.4,0-1.9,0.1c-0.4,0.1-0.8,0.2-1,0.4c-0.2,0.2-0.3,0.4-0.3,0.7
									c0,0.4,0.1,0.7,0.4,0.9s0.6,0.4,1,0.4C83.2,24,83.7,23.8,84.1,23.4z"/>
								<path class="st1" d="M96.6,17.4c0.5,0.6,0.8,1.5,0.8,2.7v4.4c0,0.3-0.1,0.6-0.3,0.8c-0.2,0.2-0.5,0.3-0.8,0.3
									c-0.3,0-0.6-0.1-0.8-0.3c-0.2-0.2-0.3-0.5-0.3-0.8v-4.3c0-0.7-0.1-1.2-0.4-1.5c-0.3-0.3-0.7-0.5-1.2-0.5
									c-0.6,0-1.2,0.2-1.6,0.6c-0.4,0.4-0.6,1-0.6,1.6v4c0,0.3-0.1,0.6-0.3,0.8c-0.2,0.2-0.5,0.3-0.8,0.3s-0.6-0.1-0.8-0.3
									c-0.2-0.2-0.3-0.5-0.3-0.8v-7c0-0.3,0.1-0.6,0.3-0.8c0.2-0.2,0.5-0.3,0.8-0.3c0.3,0,0.6,0.1,0.8,0.3
									c0.2,0.2,0.3,0.4,0.3,0.7V18c0.3-0.5,0.7-0.9,1.2-1.1c0.5-0.3,1.1-0.4,1.7-0.4C95.3,16.5,96,16.8,96.6,17.4z"/>
								<path class="st1" d="M107.1,17.4c0.5,0.6,0.8,1.5,0.8,2.7v4.4c0,0.3-0.1,0.6-0.3,0.8c-0.2,0.2-0.5,0.3-0.8,0.3
									c-0.3,0-0.6-0.1-0.8-0.3c-0.2-0.2-0.3-0.5-0.3-0.8v-4.3c0-0.7-0.1-1.2-0.4-1.5c-0.3-0.3-0.7-0.5-1.2-0.5
									c-0.6,0-1.2,0.2-1.6,0.6c-0.4,0.4-0.6,1-0.6,1.6v4c0,0.3-0.1,0.6-0.3,0.8c-0.2,0.2-0.5,0.3-0.8,0.3s-0.6-0.1-0.8-0.3
									c-0.2-0.2-0.3-0.5-0.3-0.8v-7c0-0.3,0.1-0.6,0.3-0.8c0.2-0.2,0.5-0.3,0.8-0.3c0.3,0,0.6,0.1,0.8,0.3
									c0.2,0.2,0.3,0.4,0.3,0.7V18c0.3-0.5,0.7-0.9,1.2-1.1c0.5-0.3,1.1-0.4,1.7-0.4C105.8,16.5,106.6,16.8,107.1,17.4z"/>
								<path class="st1" d="M111.8,25.1c-0.7-0.4-1.2-0.9-1.6-1.6s-0.6-1.5-0.6-2.4c0-0.9,0.2-1.7,0.6-2.4s0.9-1.2,1.6-1.6
									c0.7-0.4,1.5-0.6,2.4-0.6s1.7,0.2,2.4,0.6c0.7,0.4,1.2,0.9,1.6,1.6s0.5,1.5,0.5,2.4c0,0.9-0.2,1.7-0.5,2.4s-0.9,1.2-1.6,1.6
									c-0.7,0.4-1.5,0.6-2.4,0.6S112.5,25.4,111.8,25.1z M115.8,23.2c0.4-0.5,0.6-1.2,0.6-2.1c0-0.9-0.2-1.6-0.6-2.1
									c-0.4-0.5-0.9-0.7-1.7-0.7c-0.7,0-1.3,0.2-1.7,0.7c-0.4,0.5-0.6,1.2-0.6,2.1c0,0.9,0.2,1.6,0.6,2.1c0.4,0.5,0.9,0.7,1.7,0.7
									C114.9,23.9,115.4,23.6,115.8,23.2z"/>
								<path class="st1" d="M128,17.4c0.5,0.6,0.8,1.5,0.8,2.7v4.4c0,0.3-0.1,0.6-0.3,0.8c-0.2,0.2-0.5,0.3-0.8,0.3
									c-0.3,0-0.6-0.1-0.8-0.3c-0.2-0.2-0.3-0.5-0.3-0.8v-4.3c0-0.7-0.1-1.2-0.4-1.5c-0.3-0.3-0.7-0.5-1.2-0.5
									c-0.6,0-1.2,0.2-1.6,0.6c-0.4,0.4-0.6,1-0.6,1.6v4c0,0.3-0.1,0.6-0.3,0.8c-0.2,0.2-0.5,0.3-0.8,0.3c-0.3,0-0.6-0.1-0.8-0.3
									c-0.2-0.2-0.3-0.5-0.3-0.8v-7c0-0.3,0.1-0.6,0.3-0.8c0.2-0.2,0.5-0.3,0.8-0.3c0.3,0,0.6,0.1,0.8,0.3
									c0.2,0.2,0.3,0.4,0.3,0.7V18c0.3-0.5,0.7-0.9,1.2-1.1c0.5-0.3,1.1-0.4,1.7-0.4C126.7,16.5,127.5,16.8,128,17.4z"/>
								<path class="st1" d="M132.6,25.1c-0.7-0.4-1.2-0.9-1.5-1.6c-0.4-0.7-0.5-1.5-0.5-2.4s0.2-1.7,0.6-2.4
									c0.4-0.7,0.9-1.2,1.6-1.6c0.7-0.4,1.5-0.6,2.4-0.6c0.5,0,0.9,0.1,1.4,0.2c0.5,0.1,0.9,0.3,1.3,0.5c0.4,0.3,0.6,0.6,0.6,1
									c0,0.3-0.1,0.5-0.2,0.6s-0.3,0.2-0.5,0.2c-0.1,0-0.3,0-0.4-0.1c-0.1-0.1-0.3-0.1-0.4-0.2c-0.3-0.2-0.5-0.3-0.8-0.4
									s-0.5-0.1-0.8-0.1c-0.7,0-1.3,0.2-1.7,0.7c-0.4,0.5-0.6,1.2-0.6,2.1c0,0.9,0.2,1.6,0.6,2.1s1,0.7,1.7,0.7
									c0.3,0,0.6,0,0.8-0.1c0.2-0.1,0.5-0.2,0.8-0.4c0.2-0.1,0.3-0.2,0.5-0.2c0.1-0.1,0.3-0.1,0.4-0.1c0.2,0,0.4,0.1,0.5,0.3
									s0.2,0.4,0.2,0.6c0,0.2,0,0.4-0.1,0.5s-0.2,0.3-0.4,0.4c-0.4,0.2-0.8,0.4-1.3,0.6c-0.5,0.1-1,0.2-1.5,0.2
									C134.1,25.6,133.3,25.4,132.6,25.1z"/>
								<path class="st1" d="M147.3,23.3c0.1,0.2,0.2,0.4,0.2,0.6c0,0.4-0.2,0.7-0.7,0.9c-0.4,0.2-0.9,0.4-1.4,0.5
									c-0.5,0.1-1,0.2-1.5,0.2c-1.4,0-2.5-0.4-3.4-1.2c-0.8-0.8-1.2-1.9-1.2-3.3c0-0.9,0.2-1.7,0.5-2.4c0.4-0.7,0.9-1.2,1.5-1.6
									c0.7-0.4,1.4-0.6,2.2-0.6c0.8,0,1.5,0.2,2.1,0.5c0.6,0.3,1,0.8,1.4,1.5c0.3,0.6,0.5,1.4,0.5,2.3c0,0.5-0.2,0.8-0.7,0.8h-5.3
									c0.1,0.8,0.3,1.4,0.7,1.8c0.4,0.4,1,0.6,1.7,0.6c0.4,0,0.7,0,1-0.1c0.3-0.1,0.6-0.2,1-0.4c0.4-0.2,0.6-0.3,0.8-0.3
									C147,23.1,147.2,23.1,147.3,23.3z M142.2,18.6c-0.4,0.4-0.6,0.9-0.7,1.7h4.1c0-0.7-0.2-1.3-0.5-1.7s-0.8-0.6-1.4-0.6
									C143.1,18,142.6,18.2,142.2,18.6z"/>
								<path class="st1" d="M149.4,24.9c-0.4-0.2-0.6-0.6-0.6-1c0-0.2,0.1-0.4,0.2-0.6c0.1-0.2,0.3-0.2,0.5-0.2
									c0.2,0,0.5,0.1,0.8,0.3c0.4,0.2,0.7,0.3,1.1,0.4c0.3,0.1,0.7,0.1,1.2,0.1c0.5,0,0.9-0.1,1.2-0.3c0.3-0.2,0.4-0.4,0.4-0.7
									c0-0.2-0.1-0.4-0.2-0.5c-0.1-0.1-0.3-0.2-0.6-0.3s-0.7-0.2-1.3-0.4c-1.1-0.2-1.8-0.5-2.3-0.9c-0.5-0.4-0.7-0.9-0.7-1.6
									c0-0.5,0.2-1,0.5-1.4c0.3-0.4,0.7-0.8,1.3-1c0.5-0.2,1.2-0.4,1.9-0.4c0.5,0,1,0.1,1.5,0.2s0.9,0.3,1.3,0.5
									c0.4,0.2,0.6,0.6,0.6,1c0,0.2-0.1,0.4-0.2,0.6c-0.1,0.2-0.3,0.2-0.5,0.2c-0.1,0-0.3,0-0.4-0.1c-0.1-0.1-0.3-0.1-0.5-0.2
									c-0.3-0.2-0.6-0.3-0.9-0.4c-0.3-0.1-0.6-0.1-0.9-0.1c-0.4,0-0.8,0.1-1.1,0.3c-0.3,0.2-0.4,0.4-0.4,0.7
									c0,0.3,0.1,0.5,0.4,0.7c0.3,0.2,0.8,0.3,1.5,0.5c0.8,0.2,1.4,0.4,1.9,0.6s0.8,0.5,1,0.8s0.3,0.7,0.3,1.2c0,0.8-0.3,1.5-1,2
									c-0.7,0.5-1.6,0.7-2.7,0.7C151.3,25.6,150.2,25.4,149.4,24.9z"/>
							</g>
							<g>
								<g>
									<g>
										<path class="st2" d="M16.3,0c-5,0-9,4.1-9,9.1s4,9,9,9s9.1-4.1,9-9.1C25.4,4.1,21.3,0,16.3,0L16.3,0z"/>
									</g>
									<g>
										<path class="st2" d="M23.8,21.4l-0.3,0.2c-2.1,1.2-4.6,1.8-7.1,1.8c-2.4,0-4.8-0.6-6.9-1.7l-0.3-0.2l-0.3,0.2
											C3.4,24.6,0,30.2,0,36.4c0,1.2,1,2.3,2.3,2.3h28.6c1.2,0,2.3-1,2.3-2.3c0-6.3-3.5-11.9-9-14.8L23.8,21.4L23.8,21.4z"/>
									</g>
								</g>
							</g>
							<g>
								<g>
									<path class="st3" d="M157.2,131.4H17.4c-2,0-3.5-1.6-3.5-3.5V88c0-2,1.6-3.5,3.5-3.5h139.8c2,0,3.5,1.6,3.5,3.5v39.9
										C160.7,129.8,159.1,131.4,157.2,131.4z"/>
									<line class="st4" x1="69.2" y1="93.6" x2="151.2" y2="93.6"/>
									<line class="st4" x1="119.2" y1="104.1" x2="151.2" y2="104.1"/>
									<line class="st4" x1="69.2" y1="104.1" x2="103.8" y2="104.1"/>
									<g>
										<path class="st5" d="M57.5,131.4H17.4c-1.9,0-3.5-1.6-3.5-3.5V87.8c0-1.9,1.6-3.5,3.5-3.5h40.1c1.9,0,3.5,1.6,3.5,3.5
											v40.1C61,129.9,59.5,131.4,57.5,131.4z"/>
										<g>
											<polygon class="st6" points="20,118.4 29.9,98.1 40.1,112.1 47.4,106.7 55,118.4 											"/>
										</g>
										<circle class="st6" cx="42.2" cy="100.7" r="3.2"/>
									</g>
								</g>
								<g>
									<path class="st2" d="M70.1,127.7H120c1,0,1.8-0.8,1.8-1.8v-8.7c0-1-0.8-1.8-1.8-1.8H70.1c-1,0-1.8,0.8-1.8,1.8v8.7
										C68.3,126.9,69.1,127.7,70.1,127.7z"/>
									<line class="st7" x1="86.8" y1="121.5" x2="115.6" y2="121.5"/>
									<path class="st8" d="M74.7,123.3h3.6v0.6h-3.6V123.3z M74.7,124.6h3.6v0.6h-3.6V124.6z M80.2,120.7l-3.8-3l-3.8,3h2v1.9
										h3.6v-1.9"/>
								</g>
							</g>
							<g>
								<g>
									<path class="st3" d="M157.2,79H17.4c-2,0-3.5-1.6-3.5-3.5V35.6c0-2,1.6-3.5,3.5-3.5h139.8c2,0,3.5,1.6,3.5,3.5v39.9
										C160.7,77.5,159.1,79,157.2,79z"/>
									<line class="st4" x1="69.2" y1="41.3" x2="151.2" y2="41.3"/>
									<line class="st4" x1="119.2" y1="51.7" x2="151.2" y2="51.7"/>
									<line class="st4" x1="69.2" y1="51.7" x2="103.8" y2="51.7"/>
									<g>
										<g>
											<path class="st5" d="M13,35.5c0-2.5,2-4.5,4.5-4.5h29.4l0.1,0.9c0.7,8.1-2.7,15.1-9.8,20.2c-5.7,4.1-13.9,7.1-23,8.2
												l-1.1,0.1V35.5H13z"/>
											<path class="st8" d="M46,32c1.5,17.1-16,25.3-32,27.4V35.5c0-1.9,1.6-3.5,3.5-3.5H46 M47.8,30H46H17.5
												c-3,0-5.5,2.5-5.5,5.5v23.9v2.3l2.3-0.3c9.3-1.2,17.6-4.2,23.5-8.4c7.5-5.4,11-12.7,10.2-21.1L47.8,30L47.8,30z"/>
										</g>
										<path class="st5" d="M57.5,79.1H17.4c-1.9,0-3.5-1.6-3.5-3.5V35.5c0-1.9,1.6-3.5,3.5-3.5h40.1c1.9,0,3.5,1.6,3.5,3.5v40.1
											C61,77.5,59.5,79.1,57.5,79.1z"/>
										<g>
											<polygon class="st6" points="20,66 29.9,45.7 40.1,59.7 47.4,54.4 55,66 											"/>
										</g>
										<circle class="st6" cx="42.2" cy="48.4" r="3.2"/>
									</g>
								</g>
								<g>
									<path class="st9" d="M70.1,75.3H120c1,0,1.8-0.8,1.8-1.8v-8.7c0-1-0.8-1.8-1.8-1.8H70.1c-1,0-1.8,0.8-1.8,1.8v8.7
										C68.3,74.5,69.1,75.3,70.1,75.3z"/>
									<line class="st10" x1="86.8" y1="69.2" x2="115.6" y2="69.2"/>
									<path class="st8" d="M74.7,71h3.6v0.6h-3.6V71z M74.7,72.3h3.6v0.6h-3.6V72.3z M80.2,68.4l-3.8-3l-3.8,3h2v1.9h3.6v-1.9"/>
								</g>
							</g>
							<g>
								<polygon class="st11" points="109.6,135.7 78.2,73 76.6,65.5 114.9,43.7 								"/>
								<g>
									<path class="st9" d="M121.5,141.5c-7,0-12.7-5.7-12.7-12.7V56.7c0-7,5.7-12.7,12.7-12.7h72.1c7,0,12.7,5.7,12.7,12.7v72.1
										c0,7-5.7,12.7-12.7,12.7H121.5z"/>
									<path class="st8" d="M193.7,46.1c5.9,0,10.7,4.8,10.7,10.7v72.1c0,5.9-4.8,10.7-10.7,10.7h-72.1c-5.9,0-10.7-4.8-10.7-10.7
										V56.8c0-5.9,4.8-10.7,10.7-10.7H193.7 M193.7,42.1h-72.1c-8.1,0-14.7,6.6-14.7,14.7v72.1c0,8.1,6.6,14.7,14.7,14.7h72.1
										c8.1,0,14.7-6.6,14.7-14.7V56.8C208.3,48.7,201.7,42.1,193.7,42.1L193.7,42.1z"/>
								</g>
								<path class="st8" d="M142.5,108.4h31v5.4h-31V108.4z M142.5,119.6h31v5.4h-31V119.6z M189.7,86.3l-32.1-25.7l-32.1,25.6h17
									v16.4h31V86.2"/>
							</g>
						</g>
					</g>
				</g>
			</g>
		</g>
	</g>
</g>
</svg>
