<?xml version="1.0" encoding="utf-8"?>
<!-- Generator: Adobe Illustrator 20.1.0, SVG Export Plug-In . SVG Version: 6.00 Build 0)  -->
<svg version="1.1" id="Layer_1" xmlns="http://www.w3.org/2000/svg" xmlns:xlink="http://www.w3.org/1999/xlink" x="0px" y="0px"
	 width="204.4px" height="139.8px" viewBox="0 0 204.4 139.8" style="enable-background:new 0 0 204.4 139.8;" xml:space="preserve"
	>
<style type="text/css">
	.st0{fill:#999999;}
	.st1{fill:#F1F1F1;}
	.st2{fill:none;stroke:#CCCCCC;stroke-width:3.7749;stroke-linecap:round;stroke-linejoin:round;stroke-miterlimit:10;}
	.st3{fill:#E1E1E1;}
	.st4{fill:none;stroke:#C3C3C3;stroke-width:2.1864;stroke-linecap:round;stroke-linejoin:round;stroke-miterlimit:10;}
	.st5{fill:none;stroke:#C3C3C3;stroke-width:3;stroke-linecap:round;stroke-linejoin:round;stroke-miterlimit:10;}
	.st6{fill:#FFFFFF;}
	.st7{fill:#ED2C28;}
	.st8{fill:none;stroke:#F27E7C;stroke-width:3;stroke-linecap:round;stroke-linejoin:round;stroke-miterlimit:10;}
	.st9{opacity:0.6;fill:#FFFFFF;enable-background:new    ;}
	.st10{enable-background:new    ;}
	.st11{fill:#666666;}
</style>
<g>
	<g>
		<g>
			<g>
				<g>
					<g>
						<g>
							<g>
								<g>
									<g>
										<path class="st0" d="M16.3,0c-5,0-9,4.1-9,9.1s4,9,9,9s9.1-4.1,9-9.1C25.4,4.1,21.3,0,16.3,0L16.3,0z"/>
									</g>
									<g>
										<path class="st0" d="M23.8,21.4l-0.3,0.2c-2.1,1.2-4.6,1.8-7.1,1.8c-2.4,0-4.8-0.6-6.9-1.7l-0.3-0.2l-0.3,0.2
											C3.4,24.6,0,30.2,0,36.4c0,1.2,1,2.3,2.3,2.3h28.6c1.2,0,2.3-1,2.3-2.3c0-6.3-3.5-11.9-9-14.8L23.8,21.4L23.8,21.4z"/>
									</g>
								</g>
							</g>
							<g>
								<g>
									<path class="st1" d="M157.2,131.4H17.4c-2,0-3.5-1.6-3.5-3.5V88c0-2,1.6-3.5,3.5-3.5h139.8c2,0,3.5,1.6,3.5,3.5v39.9
										C160.7,129.8,159.1,131.4,157.2,131.4z"/>
									<line class="st2" x1="69.2" y1="93.6" x2="151.2" y2="93.6"/>
									<line class="st2" x1="119.2" y1="104.1" x2="151.2" y2="104.1"/>
									<line class="st2" x1="69.2" y1="104.1" x2="103.8" y2="104.1"/>
									<g>
										<path class="st3" d="M57.5,131.4H17.4c-1.9,0-3.5-1.6-3.5-3.5V87.8c0-1.9,1.6-3.5,3.5-3.5h40.1c1.9,0,3.5,1.6,3.5,3.5
											v40.1C61,129.9,59.5,131.4,57.5,131.4z"/>
										<g>
											<polygon class="st4" points="20,118.4 29.9,98.1 40.1,112.1 47.4,106.7 55,118.4 											"/>
										</g>
										<circle class="st4" cx="42.2" cy="100.7" r="3.2"/>
									</g>
								</g>
								<g>
									<path class="st0" d="M70.1,127.7H120c1,0,1.8-0.8,1.8-1.8v-8.7c0-1-0.8-1.8-1.8-1.8H70.1c-1,0-1.8,0.8-1.8,1.8v8.7
										C68.3,126.9,69.1,127.7,70.1,127.7z"/>
									<line class="st5" x1="86.8" y1="121.5" x2="115.6" y2="121.5"/>
									<path class="st6" d="M74.7,123.3h3.6v0.6h-3.6V123.3z M74.7,124.6h3.6v0.6h-3.6V124.6z M80.2,120.7l-3.8-3l-3.8,3h2v1.9
										h3.6v-1.9"/>
								</g>
							</g>
							<g>
								<g>
									<path class="st1" d="M157.2,79H17.4c-2,0-3.5-1.6-3.5-3.5V35.6c0-2,1.6-3.5,3.5-3.5h139.8c2,0,3.5,1.6,3.5,3.5v39.9
										C160.7,77.5,159.1,79,157.2,79z"/>
									<line class="st2" x1="69.2" y1="41.3" x2="151.2" y2="41.3"/>
									<line class="st2" x1="119.2" y1="51.7" x2="151.2" y2="51.7"/>
									<line class="st2" x1="69.2" y1="51.7" x2="103.8" y2="51.7"/>
									<g>
										<g>
											<path class="st3" d="M13,35.5c0-2.5,2-4.5,4.5-4.5h29.4l0.1,0.9c0.7,8.1-2.7,15.1-9.8,20.2c-5.7,4.1-13.9,7.1-23,8.2
												l-1.1,0.1V35.5H13z"/>
											<path class="st6" d="M46,32c1.5,17.1-16,25.3-32,27.4V35.5c0-1.9,1.6-3.5,3.5-3.5H46 M47.8,30H46H17.5
												c-3,0-5.5,2.5-5.5,5.5v23.9v2.3l2.3-0.3c9.3-1.2,17.6-4.2,23.5-8.4c7.5-5.4,11-12.7,10.2-21.1L47.8,30L47.8,30z"/>
										</g>
										<path class="st3" d="M57.5,79.1H17.4c-1.9,0-3.5-1.6-3.5-3.5V35.5c0-1.9,1.6-3.5,3.5-3.5h40.1c1.9,0,3.5,1.6,3.5,3.5v40.1
											C61,77.5,59.5,79.1,57.5,79.1z"/>
										<g>
											<polygon class="st4" points="20,66 29.9,45.7 40.1,59.7 47.4,54.4 55,66 											"/>
										</g>
										<circle class="st4" cx="42.2" cy="48.4" r="3.2"/>
									</g>
								</g>
								<g>
									<path class="st7" d="M70.1,75.3H120c1,0,1.8-0.8,1.8-1.8v-8.7c0-1-0.8-1.8-1.8-1.8H70.1c-1,0-1.8,0.8-1.8,1.8v8.7
										C68.3,74.5,69.1,75.3,70.1,75.3z"/>
									<line class="st8" x1="86.8" y1="69.2" x2="115.6" y2="69.2"/>
									<path class="st6" d="M74.7,71h3.6v0.6h-3.6V71z M74.7,72.3h3.6v0.6h-3.6V72.3z M80.2,68.4l-3.8-3l-3.8,3h2v1.9h3.6v-1.9"/>
								</g>
							</g>
							<g>
								<polygon class="st9" points="109.6,135.7 78.2,73 76.6,65.5 114.9,43.7 								"/>
								<g>
									<path class="st7" d="M121.5,141.5c-7,0-12.7-5.7-12.7-12.7V56.7c0-7,5.7-12.7,12.7-12.7h72.1c7,0,12.7,5.7,12.7,12.7v72.1
										c0,7-5.7,12.7-12.7,12.7H121.5z"/>
									<path class="st6" d="M193.7,46.1c5.9,0,10.7,4.8,10.7,10.7v72.1c0,5.9-4.8,10.7-10.7,10.7h-72.1c-5.9,0-10.7-4.8-10.7-10.7
										V56.8c0-5.9,4.8-10.7,10.7-10.7H193.7 M193.7,42.1h-72.1c-8.1,0-14.7,6.6-14.7,14.7v72.1c0,8.1,6.6,14.7,14.7,14.7h72.1
										c8.1,0,14.7-6.6,14.7-14.7V56.8C208.3,48.7,201.7,42.1,193.7,42.1L193.7,42.1z"/>
								</g>
								<path class="st6" d="M142.5,108.4h31v5.4h-31V108.4z M142.5,119.6h31v5.4h-31V119.6z M189.7,86.3l-32.1-25.7l-32.1,25.6h17
									v16.4h31V86.2"/>
							</g>
						</g>
					</g>
				</g>
			</g>
		</g>
	</g>
</g>
<g class="st10">
	<path class="st11" d="M53.6,13.4c0.2,0.2,0.3,0.5,0.3,0.8v10.7c0,0.3-0.1,0.6-0.3,0.8c-0.2,0.2-0.4,0.3-0.8,0.3s-0.6-0.1-0.7-0.3
		c-0.2-0.2-0.3-0.5-0.3-0.8v-7.4l-3.1,5.8c-0.1,0.3-0.3,0.5-0.5,0.6s-0.4,0.2-0.6,0.2c-0.2,0-0.4-0.1-0.6-0.2
		c-0.2-0.1-0.3-0.3-0.5-0.6l-3.1-5.7v7.3c0,0.3-0.1,0.6-0.3,0.8c-0.2,0.2-0.4,0.3-0.7,0.3s-0.6-0.1-0.7-0.3
		c-0.2-0.2-0.3-0.5-0.3-0.8V14.3c0-0.3,0.1-0.6,0.3-0.8s0.5-0.3,0.8-0.3c0.5,0,0.8,0.3,1.1,0.8l4,7.6l4-7.6c0.3-0.5,0.6-0.8,1.1-0.8
		C53.2,13.1,53.4,13.2,53.6,13.4z"/>
	<path class="st11" d="M64,23.7c0.1,0.2,0.2,0.4,0.2,0.6c0,0.4-0.2,0.7-0.7,0.9c-0.4,0.2-0.9,0.4-1.4,0.5s-1,0.2-1.5,0.2
		c-1.4,0-2.5-0.4-3.4-1.2C56.4,24,56,22.9,56,21.5c0-0.9,0.2-1.7,0.5-2.4c0.4-0.7,0.9-1.2,1.5-1.6c0.7-0.4,1.4-0.6,2.2-0.6
		s1.5,0.2,2.1,0.5s1,0.8,1.4,1.5c0.3,0.6,0.5,1.4,0.5,2.3c0,0.5-0.2,0.8-0.7,0.8h-5.3c0.1,0.8,0.3,1.4,0.7,1.8s1,0.6,1.7,0.6
		c0.4,0,0.7,0,1-0.1s0.6-0.2,1-0.4c0.4-0.2,0.6-0.3,0.8-0.3C63.7,23.5,63.8,23.5,64,23.7z M58.9,19c-0.4,0.4-0.6,0.9-0.7,1.7h4.1
		c0-0.7-0.2-1.3-0.5-1.7c-0.3-0.4-0.8-0.6-1.4-0.6C59.7,18.4,59.2,18.6,58.9,19z"/>
	<path class="st11" d="M66.2,15c-0.2-0.2-0.4-0.5-0.4-0.9s0.1-0.6,0.4-0.9c0.2-0.2,0.6-0.3,1-0.3s0.7,0.1,1,0.3
		c0.2,0.2,0.4,0.5,0.4,0.9s-0.1,0.7-0.4,0.9c-0.2,0.2-0.6,0.3-1,0.3S66.4,15.2,66.2,15z M66.4,25.7c-0.2-0.2-0.3-0.5-0.3-0.8v-7
		c0-0.3,0.1-0.6,0.3-0.8c0.2-0.2,0.5-0.3,0.8-0.3s0.6,0.1,0.8,0.3c0.2,0.2,0.3,0.4,0.3,0.8v7c0,0.3-0.1,0.6-0.3,0.8
		c-0.2,0.2-0.5,0.3-0.8,0.3S66.6,25.9,66.4,25.7z"/>
	<path class="st11" d="M78.1,17.8c0.5,0.6,0.8,1.5,0.8,2.7v4.4c0,0.3-0.1,0.6-0.3,0.8c-0.2,0.2-0.5,0.3-0.8,0.3s-0.6-0.1-0.8-0.3
		c-0.2-0.2-0.3-0.5-0.3-0.8v-4.3c0-0.7-0.1-1.2-0.4-1.5s-0.7-0.5-1.2-0.5c-0.6,0-1.2,0.2-1.6,0.6s-0.6,1-0.6,1.6v4
		c0,0.3-0.1,0.6-0.3,0.8c-0.2,0.2-0.5,0.3-0.8,0.3s-0.6-0.1-0.8-0.3c-0.2-0.2-0.3-0.5-0.3-0.8v-7c0-0.3,0.1-0.6,0.3-0.8
		c0.2-0.2,0.5-0.3,0.8-0.3s0.6,0.1,0.8,0.3c0.2,0.2,0.3,0.4,0.3,0.7v0.5c0.3-0.5,0.7-0.9,1.2-1.1c0.5-0.3,1.1-0.4,1.7-0.4
		C76.8,16.9,77.6,17.2,78.1,17.8z"/>
	<path class="st11" d="M88.6,23.7c0.1,0.2,0.2,0.4,0.2,0.6c0,0.4-0.2,0.7-0.7,0.9c-0.4,0.2-0.9,0.4-1.4,0.5s-1,0.2-1.5,0.2
		c-1.4,0-2.5-0.4-3.4-1.2c-0.8-0.8-1.2-1.9-1.2-3.3c0-0.9,0.2-1.7,0.5-2.4c0.4-0.7,0.9-1.2,1.5-1.6c0.7-0.4,1.4-0.6,2.2-0.6
		c0.8,0,1.5,0.2,2.1,0.5s1,0.8,1.4,1.5c0.3,0.6,0.5,1.4,0.5,2.3c0,0.5-0.2,0.8-0.7,0.8h-5.3c0.1,0.8,0.3,1.4,0.7,1.8
		c0.4,0.4,1,0.6,1.7,0.6c0.4,0,0.7,0,1-0.1s0.6-0.2,1-0.4c0.4-0.2,0.6-0.3,0.8-0.3C88.3,23.5,88.5,23.5,88.6,23.7z M83.5,19
		c-0.4,0.4-0.6,0.9-0.7,1.7H87c0-0.7-0.2-1.3-0.5-1.7c-0.3-0.4-0.8-0.6-1.4-0.6C84.4,18.4,83.9,18.6,83.5,19z"/>
	<path class="st11" d="M96.1,25.7c-0.2-0.2-0.3-0.5-0.3-0.8V14.3c0-0.3,0.1-0.6,0.3-0.8c0.2-0.2,0.5-0.3,0.8-0.3
		c0.4,0,0.6,0.1,0.9,0.3s0.3,0.5,0.3,0.8v10.6c0,0.3-0.1,0.6-0.3,0.8c-0.2,0.2-0.5,0.3-0.9,0.3C96.6,26,96.3,25.9,96.1,25.7z"/>
	<path class="st11" d="M108.1,17.8c0.5,0.6,0.8,1.5,0.8,2.7v4.4c0,0.3-0.1,0.6-0.3,0.8c-0.2,0.2-0.5,0.3-0.8,0.3s-0.6-0.1-0.8-0.3
		c-0.2-0.2-0.3-0.5-0.3-0.8v-4.3c0-0.7-0.1-1.2-0.4-1.5s-0.7-0.5-1.2-0.5c-0.6,0-1.2,0.2-1.6,0.6s-0.6,1-0.6,1.6v4
		c0,0.3-0.1,0.6-0.3,0.8c-0.2,0.2-0.5,0.3-0.8,0.3s-0.6-0.1-0.8-0.3c-0.2-0.2-0.3-0.5-0.3-0.8v-7c0-0.3,0.1-0.6,0.3-0.8
		c0.2-0.2,0.5-0.3,0.8-0.3s0.6,0.1,0.8,0.3c0.2,0.2,0.3,0.4,0.3,0.7v0.5c0.3-0.5,0.7-0.9,1.2-1.1c0.5-0.3,1.1-0.4,1.7-0.4
		C106.8,16.9,107.6,17.2,108.1,17.8z"/>
	<path class="st11" d="M111.2,25.3c-0.4-0.2-0.6-0.6-0.6-1c0-0.2,0.1-0.4,0.2-0.6s0.3-0.2,0.5-0.2s0.5,0.1,0.8,0.3
		c0.4,0.2,0.7,0.3,1.1,0.4c0.3,0.1,0.7,0.1,1.2,0.1s0.9-0.1,1.2-0.3s0.4-0.4,0.4-0.7c0-0.2-0.1-0.4-0.2-0.5s-0.3-0.2-0.6-0.3
		s-0.7-0.2-1.3-0.4c-1.1-0.2-1.8-0.5-2.3-0.9s-0.7-0.9-0.7-1.6c0-0.5,0.2-1,0.5-1.4s0.7-0.8,1.3-1c0.5-0.2,1.2-0.4,1.9-0.4
		c0.5,0,1,0.1,1.5,0.2s0.9,0.3,1.3,0.5s0.6,0.6,0.6,1c0,0.2-0.1,0.4-0.2,0.6s-0.3,0.2-0.5,0.2c-0.1,0-0.3,0-0.4-0.1
		s-0.3-0.1-0.5-0.2c-0.3-0.2-0.6-0.3-0.9-0.4s-0.6-0.1-0.9-0.1c-0.4,0-0.8,0.1-1.1,0.3c-0.3,0.2-0.4,0.4-0.4,0.7
		c0,0.3,0.1,0.5,0.4,0.7s0.8,0.3,1.5,0.5c0.8,0.2,1.4,0.4,1.9,0.6s0.8,0.5,1,0.8s0.3,0.7,0.3,1.2c0,0.8-0.3,1.5-1,2
		s-1.6,0.7-2.7,0.7C113.1,26,112,25.8,111.2,25.3z"/>
	<path class="st11" d="M127.4,23.7c0.1,0.2,0.2,0.4,0.2,0.6c0,0.4-0.2,0.7-0.7,0.9c-0.4,0.2-0.9,0.4-1.4,0.5s-1,0.2-1.5,0.2
		c-1.4,0-2.5-0.4-3.4-1.2c-0.8-0.8-1.2-1.9-1.2-3.3c0-0.9,0.2-1.7,0.5-2.4c0.4-0.7,0.9-1.2,1.5-1.6c0.7-0.4,1.4-0.6,2.2-0.6
		c0.8,0,1.5,0.2,2.1,0.5s1,0.8,1.4,1.5c0.3,0.6,0.5,1.4,0.5,2.3c0,0.5-0.2,0.8-0.7,0.8h-5.3c0.1,0.8,0.3,1.4,0.7,1.8
		c0.4,0.4,1,0.6,1.7,0.6c0.4,0,0.7,0,1-0.1s0.6-0.2,1-0.4c0.4-0.2,0.6-0.3,0.8-0.3C127.1,23.5,127.3,23.5,127.4,23.7z M122.3,19
		c-0.4,0.4-0.6,0.9-0.7,1.7h4.1c0-0.7-0.2-1.3-0.5-1.7s-0.8-0.6-1.4-0.6C123.2,18.4,122.7,18.6,122.3,19z"/>
	<path class="st11" d="M135.1,17.1c0.2,0.2,0.3,0.4,0.3,0.7c0,0.3-0.1,0.6-0.2,0.7c-0.2,0.2-0.4,0.3-0.8,0.3l-0.5,0.1
		c-0.7,0.1-1.2,0.3-1.6,0.7c-0.3,0.4-0.5,0.9-0.5,1.5v3.8c0,0.3-0.1,0.6-0.3,0.8c-0.2,0.2-0.5,0.3-0.8,0.3s-0.6-0.1-0.8-0.3
		c-0.2-0.2-0.3-0.5-0.3-0.8v-7c0-0.3,0.1-0.6,0.3-0.8c0.2-0.2,0.5-0.3,0.8-0.3s0.6,0.1,0.8,0.3c0.2,0.2,0.3,0.4,0.3,0.7v0.7
		c0.2-0.5,0.6-0.9,1-1.2s1-0.5,1.5-0.5h0.3C134.7,16.9,135,16.9,135.1,17.1z"/>
	<path class="st11" d="M142.9,17.8c0.6,0.6,0.9,1.5,0.9,2.8V25c0,0.3-0.1,0.6-0.3,0.8c-0.2,0.2-0.5,0.3-0.8,0.3s-0.6-0.1-0.8-0.3
		c-0.2-0.2-0.3-0.4-0.3-0.8v-0.4c-0.2,0.5-0.5,0.8-1,1.1s-0.9,0.4-1.5,0.4s-1.1-0.1-1.6-0.4c-0.5-0.2-0.9-0.6-1.1-1
		c-0.3-0.4-0.4-0.9-0.4-1.4c0-0.6,0.2-1.2,0.5-1.5s0.9-0.6,1.6-0.8c0.7-0.2,1.8-0.3,3.1-0.3h0.5v-0.4c0-0.6-0.1-1-0.4-1.3
		c-0.3-0.3-0.7-0.4-1.2-0.4c-0.3,0-0.7,0.1-1.1,0.2c-0.4,0.1-0.8,0.2-1.3,0.4c-0.3,0.2-0.5,0.2-0.7,0.2s-0.4-0.1-0.5-0.2
		s-0.2-0.4-0.2-0.6s0.1-0.4,0.2-0.5c0.1-0.2,0.3-0.3,0.5-0.4c0.4-0.2,0.9-0.4,1.5-0.5s1.2-0.2,1.7-0.2
		C141.4,16.9,142.3,17.2,142.9,17.8z M141.1,23.8c0.4-0.4,0.6-0.9,0.6-1.6v-0.4h-0.3c-0.8,0-1.4,0-1.9,0.1s-0.8,0.2-1,0.4
		c-0.2,0.2-0.3,0.4-0.3,0.7c0,0.4,0.1,0.7,0.4,0.9c0.3,0.2,0.6,0.4,1,0.4C140.2,24.4,140.7,24.2,141.1,23.8z"/>
	<path class="st11" d="M151.5,25.1c0,0.3-0.1,0.5-0.4,0.7c-0.2,0.1-0.6,0.2-1,0.2h-0.5c-2-0.1-3-1.2-3-3.2v-3.9h-0.9
		c-0.3,0-0.6-0.1-0.7-0.2c-0.2-0.1-0.3-0.4-0.3-0.6c0-0.3,0.1-0.5,0.3-0.6s0.4-0.2,0.7-0.2h0.9v-1.7c0-0.3,0.1-0.6,0.3-0.8
		s0.5-0.3,0.8-0.3s0.6,0.1,0.8,0.3s0.3,0.5,0.3,0.8v1.7h1.5c0.3,0,0.6,0.1,0.7,0.2c0.2,0.1,0.3,0.4,0.3,0.6c0,0.3-0.1,0.5-0.3,0.6
		s-0.4,0.2-0.7,0.2h-1.5V23c0,0.9,0.4,1.4,1.2,1.4h0.5C151.2,24.4,151.5,24.6,151.5,25.1z"/>
	<path class="st11" d="M160.2,23.7c0.1,0.2,0.2,0.4,0.2,0.6c0,0.4-0.2,0.7-0.7,0.9c-0.4,0.2-0.9,0.4-1.4,0.5s-1,0.2-1.5,0.2
		c-1.4,0-2.5-0.4-3.4-1.2s-1.2-1.9-1.2-3.3c0-0.9,0.2-1.7,0.5-2.4s0.9-1.2,1.5-1.6c0.7-0.4,1.4-0.6,2.2-0.6s1.5,0.2,2.1,0.5
		s1,0.8,1.4,1.5c0.3,0.6,0.5,1.4,0.5,2.3c0,0.5-0.2,0.8-0.7,0.8h-5.3c0.1,0.8,0.3,1.4,0.7,1.8s1,0.6,1.7,0.6c0.4,0,0.7,0,1-0.1
		s0.6-0.2,1-0.4c0.4-0.2,0.6-0.3,0.8-0.3C159.9,23.5,160,23.5,160.2,23.7z M155.1,19c-0.4,0.4-0.6,0.9-0.7,1.7h4.1
		c0-0.7-0.2-1.3-0.5-1.7c-0.3-0.4-0.8-0.6-1.4-0.6C156,18.4,155.5,18.6,155.1,19z"/>
</g>
</svg>
