<?xml version="1.0" encoding="utf-8"?>
<!-- Generator: Adobe Illustrator 20.1.0, SVG Export Plug-In . SVG Version: 6.00 Build 0)  -->
<svg version="1.1" id="Layer_1" xmlns="http://www.w3.org/2000/svg" xmlns:xlink="http://www.w3.org/1999/xlink" x="0px" y="0px"
	 width="209.2px" height="154.8px" viewBox="0 0 209.2 154.8" style="enable-background:new 0 0 209.2 154.8;" xml:space="preserve"
	>
<style type="text/css">
	.st0{fill:#F1F1F1;}
	.st1{fill:none;stroke:#CCCCCC;stroke-width:4.8178;stroke-linecap:round;stroke-linejoin:round;stroke-miterlimit:10;}
	.st2{fill:#E1E1E1;}
	.st3{fill:none;stroke:#C3C3C3;stroke-width:2.7904;stroke-linecap:round;stroke-linejoin:round;stroke-miterlimit:10;}
	.st4{fill:none;stroke:#999999;stroke-width:4.1396;stroke-miterlimit:10;}
	.st5{fill:#FAD3D3;}
	.st6{fill:#EF4D4A;}
	.st7{fill:#ED2C28;}
	.st8{fill:none;stroke:#F7A8A8;stroke-width:2.4838;stroke-linecap:round;stroke-linejoin:round;stroke-miterlimit:10;}
</style>
<g>
	<g>
		<g>
			<g>
				<path class="st0" d="M182.9,60.1H4.5c-2.5,0-4.5-2-4.5-4.5v-51c0-2.5,2-4.5,4.5-4.5h178.4c2.5,0,4.5,2,4.5,4.5v51
					C187.4,58.1,185.4,60.1,182.9,60.1z"/>
				<line class="st1" x1="70.7" y1="11.9" x2="175.4" y2="11.9"/>
				<line class="st1" x1="134.5" y1="25.2" x2="175.4" y2="25.2"/>
				<line class="st1" x1="70.7" y1="25.2" x2="114.8" y2="25.2"/>
				<line class="st1" x1="70.7" y1="38.6" x2="175.4" y2="38.6"/>
				<g>
					<path class="st2" d="M55.8,60.2H4.6c-2.5,0-4.5-2-4.5-4.5V4.5C0.1,2,2.1,0,4.6,0h51.2c2.5,0,4.5,2,4.5,4.5v51.2
						C60.2,58.1,58.2,60.2,55.8,60.2z"/>
					<g>
						<polygon class="st3" points="7.8,43.4 20.5,17.6 33.6,35.4 42.8,28.6 52.5,43.4 						"/>
					</g>
					<circle class="st3" cx="36.2" cy="21" r="4.1"/>
				</g>
			</g>
			<g>
				<path class="st4" d="M179.6,49.1h21.3c3.4,0,6.2,2.8,6.2,6.2V83c0,3.4-2.8,6.6-6.2,7l-51.3,4.1c-3.4,0-6.2,2.8-6.2,6.2v28.3"/>
				<path class="st5" d="M192.2,73.3H89c-3.8,0-7-3.1-7-7V31.8c0-3.8,3.1-7,7-7h103.2c3.8,0,7,3.1,7,7v34.5
					C199.2,70.2,196.1,73.3,192.2,73.3z"/>
				<rect x="137.4" y="106" class="st6" width="12.4" height="48.8"/>
				<path class="st7" d="M84.1,45.2h0.4c1.4,0,2.5,1.1,2.5,2.5v13.4c0,1.4,1.1,2.5,2.5,2.5l0,0c1.4,0,2.5-1.1,2.5-2.5v-6.3
					c0-1.4,1.1-2.5,2.5-2.5h22.3c1.4,0,2.5,1.1,2.5,2.5V64c0,1.4,1.1,2.5,2.5,2.5h0.4c1.4,0,2.5-1.1,2.5-2.5V39.3
					c0-1.4,1.1-2.5,2.5-2.5l0,0c1.4,0,2.5,1.1,2.5,2.5v16.8c0,1.4,1.1,2.5,2.5,2.5l0,0c1.4,0,2.5-1.1,2.5-2.5V49
					c0-1.4,1.1-2.5,2.5-2.5l0,0c1.4,0,2.5,1.1,2.5,2.5v12.2c0,1.4,1.1,2.5,2.5,2.5l0,0c1.4,0,2.5-1.1,2.5-2.5V50.7
					c0-1.4,1.1-2.5,2.5-2.5h2.5c1.4,0,2.5,1.1,2.5,2.5l0,0c0,1.4,1.1,2.5,2.5,2.5h4.2c1.4,0,2.5,1.1,2.5,2.5v5.5
					c0,1.4,1.1,2.5,2.5,2.5l0,0c1.4,0,2.5-1.1,2.5-2.5V47.7c0-1.4,1.1-2.5,2.5-2.5l0,0c1.4,0,29.8,0,29.8,0V31.1
					c0-3.6-2.5-6.4-6-6.4H88.2c-3.7,0-6.2,3-6.2,6.6v11.4C82,44.1,82.8,45.2,84.1,45.2z"/>
				<line class="st8" x1="88.7" y1="28.6" x2="192.5" y2="28.6"/>
				<line class="st8" x1="140.6" y1="109.6" x2="140.6" y2="151.4"/>
			</g>
		</g>
	</g>
</g>
</svg>
