<?xml version="1.0" encoding="utf-8"?>
<!-- Generator: Adobe Illustrator 20.1.0, SVG Export Plug-In . SVG Version: 6.00 Build 0)  -->
<svg version="1.1" id="Layer_1" xmlns="http://www.w3.org/2000/svg" xmlns:xlink="http://www.w3.org/1999/xlink" x="0px" y="0px"
	 viewBox="0 0 6.9 8.1" style="enable-background:new 0 0 6.9 8.1;" xml:space="preserve">
<style type="text/css">
	.st0{clip-path:url(#SVGID_2_);fill:#FFFFFF;}
	.st1{clip-path:url(#SVGID_4_);fill:#FFFFFF;}
	.st2{clip-path:url(#SVGID_6_);enable-background:new    ;}
	.st3{clip-path:url(#SVGID_8_);}
	.st4{clip-path:url(#SVGID_10_);}
	.st5{clip-path:url(#SVGID_12_);fill:#FFFFFF;}
</style>
<g>
	<defs>
		<path id="SVGID_1_" d="M4,3c0-0.3-0.2-0.5-0.5-0.5C3.2,2.5,3,2.8,3,3v0.3h1V3z"/>
	</defs>
	<clipPath id="SVGID_2_">
		<use xlink:href="#SVGID_1_"  style="overflow:visible;"/>
	</clipPath>
	<rect x="0.5" y="0" class="st0" width="6" height="5.9"/>
</g>
<g>
	<defs>
		<path id="SVGID_3_" d="M2.5,5.4h2V3.7h-2V5.4z M3.5,4.2c0.2,0,0.3,0.2,0.3,0.3c0,0.2-0.2,0.3-0.3,0.3c-0.2,0-0.3-0.2-0.3-0.3
			C3.1,4.4,3.3,4.2,3.5,4.2z"/>
	</defs>
	<clipPath id="SVGID_4_">
		<use xlink:href="#SVGID_3_"  style="overflow:visible;"/>
	</clipPath>
	<rect x="0" y="1.2" class="st1" width="7" height="6.7"/>
</g>
<g>
	<defs>
		<rect id="SVGID_5_" width="6.9" height="8.1"/>
	</defs>
	<clipPath id="SVGID_6_">
		<use xlink:href="#SVGID_5_"  style="overflow:visible;"/>
	</clipPath>
	<g class="st2">
		<g>
			<defs>
				<rect id="SVGID_7_" x="-0.5" y="-0.2" width="8" height="9"/>
			</defs>
			<clipPath id="SVGID_8_">
				<use xlink:href="#SVGID_7_"  style="overflow:visible;"/>
			</clipPath>
			<g class="st3">
				<defs>
					<path id="SVGID_9_" d="M3.5,0L0,2v4.1l3.5,2l3.5-2V2L3.5,0z M4.8,5.4c0,0.2-0.2,0.3-0.3,0.3h-2c-0.2,0-0.3-0.2-0.3-0.3V3.7
						c0-0.2,0.2-0.3,0.3-0.3h0.2V3c0-0.5,0.4-0.8,0.8-0.8c0.5,0,0.8,0.4,0.8,0.8v0.3h0.2c0.2,0,0.3,0.2,0.3,0.3V5.4z"/>
				</defs>
				<clipPath id="SVGID_10_">
					<use xlink:href="#SVGID_9_"  style="overflow:visible;"/>
				</clipPath>
				<g class="st4">
					<defs>
						<rect id="SVGID_11_" x="-0.5" y="-0.2" width="8" height="9"/>
					</defs>
					<clipPath id="SVGID_12_">
						<use xlink:href="#SVGID_11_"  style="overflow:visible;"/>
					</clipPath>
					<rect x="-2.5" y="-2.5" class="st5" width="11.9" height="13.1"/>
				</g>
			</g>
		</g>
	</g>
</g>
</svg>
