<svg xmlns="http://www.w3.org/2000/svg" xmlns:xlink="http://www.w3.org/1999/xlink" viewBox="0 0 6.9 8.1"><defs><path id="a" d="M4 3c0-.3-.2-.5-.5-.5S3 2.8 3 3v.3h1V3z"/></defs><clipPath id="b"><use xlink:href="#a" overflow="visible"/></clipPath><path clip-path="url(#b)" fill="#fff" d="M.5 0h6v5.9h-6z"/><defs><path id="c" d="M2.5 5.4h2V3.7h-2v1.7zm1-1.2c.2 0 .3.2.3.3 0 .2-.2.3-.3.3-.2 0-.3-.2-.3-.3-.1-.1.1-.3.3-.3z"/></defs><clipPath id="d"><use xlink:href="#c" overflow="visible"/></clipPath><path clip-path="url(#d)" fill="#fff" d="M0 1.2h7v6.7H0z"/><g><defs><path id="e" d="M0 0h6.9v8.1H0z"/></defs><clipPath id="f"><use xlink:href="#e" overflow="visible"/></clipPath><g clip-path="url(#f)"><defs><path id="g" d="M-.5-.2h8v9h-8z"/></defs><clipPath id="h"><use xlink:href="#g" overflow="visible"/></clipPath><g clip-path="url(#h)"><defs><path id="i" d="M3.5 0L0 2v4.1l3.5 2 3.5-2V2L3.5 0zm1.3 5.4c0 .2-.2.3-.3.3h-2c-.2 0-.3-.2-.3-.3V3.7c0-.2.2-.3.3-.3h.2V3c0-.5.4-.8.8-.8.5 0 .8.4.8.8v.3h.2c.2 0 .3.2.3.3v1.8z"/></defs><clipPath id="j"><use xlink:href="#i" overflow="visible"/></clipPath><g clip-path="url(#j)"><defs><path id="k" d="M-.5-.2h8v9h-8z"/></defs><clipPath id="l"><use xlink:href="#k" overflow="visible"/></clipPath><path clip-path="url(#l)" fill="#fff" d="M-2.5-2.5H9.4v13.1H-2.5z"/></g></g></g></g></svg>