<svg version="1.1" id="Layer_1" xmlns="http://www.w3.org/2000/svg" x="0" y="0" viewBox="0 0 13.7 13.7" xml:space="preserve"><style>.st0{fill:#fff}</style><path d="M12.3 2.2L4.5.1c-1-.3-2.1.3-2.3 1.3L.1 9.2c-.3 1 .3 2 1.3 2.3l7.8 2.1c1 .3 2-.3 2.3-1.3l2.1-7.8c.3-1-.3-2.1-1.3-2.3z"/><path class="st0" d="M8.9 5.6h-.4v-.7c0-1-.8-1.7-1.7-1.7-1 0-1.7.8-1.7 1.7v.7h-.3c-.3 0-.7.4-.7.7v3.4c0 .4.3.7.7.7h4c.4 0 .7-.3.7-.7V6.3c0-.4-.2-.7-.6-.7zm-3.1-.7c0-.6.4-1.1 1-1.1.5 0 1 .5 1 1.1v.7h-2v-.7zm2.8 4.8H5.1c-.1 0-.2-.1-.2-.2v-3c0-.1.1-.2.2-.2h3.6c.1 0 .2.1.2.2v3c-.1.2-.1.2-.3.2z"/><circle class="st0" cx="6.8" cy="7.9" r=".5"/></svg>