<svg xmlns="http://www.w3.org/2000/svg" viewBox="0 0 26.6 26.6"><path d="M23.9 4.2L8.7.1c-2-.5-4 .6-4.5 2.6L.1 17.9c-.5 1.9.6 4 2.6 4.5l15.2 4.1c1.9.5 4-.6 4.5-2.6l4.1-15.2c.5-2-.7-4-2.6-4.5z" fill="#999"/><path d="M1.6 16.9V9.5h3c1.5 0 2.3 1 2.3 2.2s-.8 2.2-2.3 2.2h-2v2.9l-1 .1zM6 11.8c0-.8-.6-1.4-1.5-1.4H2.6v2.9h1.9c.8-.1 1.5-.7 1.5-1.5zm1.6 5.1V9.5h.9v6.6H12v.8H7.6zm5-2.8V9.6h.9v4.5c0 1.4.7 2.2 2.1 2.2s2.1-.8 2.1-2.2V9.6h.9v4.5c0 1.8-1 3-3 3s-3-1.2-3-3zm6.9 1.8l.5-.7c.5.5 1.3 1.1 2.3 1.1 1.3 0 1.7-.7 1.7-1.3 0-1.9-4.4-.8-4.4-3.5 0-1.2 1.1-2 2.5-2 1.1 0 2 .4 2.6 1l-.5.6c-.5-.6-1.4-.9-2.1-.9-.9 0-1.5.5-1.5 1.2 0 1.6 4.4.7 4.4 3.5 0 1.1-.7 2.2-2.7 2.2-1.2 0-2.1-.5-2.8-1.2z" fill="#fff"/></svg>