<svg id="Layer_1" xmlns="http://www.w3.org/2000/svg" viewBox="0 0 40 29.2"><style>.st0{fill:#999}</style><path class="st0" d="M28 15.9V8c0-.3-.2-.5-.5-.5s-.5.2-.5.5v7.9c-.3.2-.5.5-.5.8 0 .6.4 1 1 1s1-.4 1-1c0-.3-.2-.6-.5-.8z"/><path class="st0" d="M29.2 15.6c.2.3.3.6.4 1l2.6-2c.4-.3.5-1 .2-1.4s-1-.5-1.4-.2l-2.6 2c.3.1.6.3.8.6z"/><path class="st0" d="M28.6 4.3V2h1c.6 0 1-.4 1-1s-.4-1-1-1h-4c-.6 0-1 .4-1 1s.4 1 1 1h1v2.3C20.1 4.8 15 10.1 15 16.7c0 6.9 5.6 12.5 12.5 12.5S40 23.6 40 16.7c0-6.5-5-11.9-11.4-12.4zm-1.1 22.9c-5.8 0-10.5-4.7-10.5-10.5S21.7 6.2 27.5 6.2 38 10.9 38 16.7s-4.7 10.5-10.5 10.5z"/><linearGradient id="SVGID_1_" gradientUnits="userSpaceOnUse" y1="16.75" x2="17.5" y2="16.75"><stop offset=".001" stop-color="#595a5c"/><stop offset="1" stop-color="#101010"/></linearGradient><path d="M17.5 6.4H6.2c-.6 0-1 .4-1 1s.4 1 1 1h9.5c.6-.8 1.2-1.4 1.8-2zM3.1 11c-.6 0-1 .4-1 1s.4 1 1 1h10.5c.2-.7.4-1.4.7-2H3.1zm9.9 4.7H1c-.6 0-1 .4-1 1s.4 1 1 1h12v-2zm-6.7 9.4c-.6 0-1 .4-1 1s.4 1 1 1h11c-.6-.6-1.1-1.3-1.6-2H6.3zm-3.2-4.6c-.6 0-1 .4-1 1s.4 1 1 1h11c-.3-.6-.5-1.3-.7-2H3.1z" fill="url(#SVGID_1_)"/></svg>