<svg xmlns="http://www.w3.org/2000/svg" viewBox="0 0 160 160"><linearGradient id="a" gradientUnits="userSpaceOnUse" x1="-754.667" y1="521.31" x2="-753.755" y2="522.633" gradientTransform="matrix(81.1 0 0 92.075 61246.723 -47980.512)"><stop offset=".001" stop-color="#58595b"/><stop offset="1" stop-color="#0e0e0e"/></linearGradient><path d="M80.3 160c-1.6 0-3.1-.3-4.5-1.2l-61.3-35.4c-3-1.7-4.7-4.7-4.7-8V44.6c0-3.3 1.7-6.3 4.7-8L75.8 1.2c3-1.6 6.4-1.6 9 0l61.3 35.4c2.8 1.6 4.5 4.7 4.5 8v70.7c0 3.3-1.7 6.3-4.5 8l-61.3 35.4c-1.2.8-3 1.3-4.5 1.3zm.2-151.4h-.3L18.8 44.1l-.3.3v70.7c0 .2.2.3.3.5L80.1 151h.5l61.3-35.4c.2 0 .2-.2.2-.3V44.6c0-.2-.2-.3-.2-.3L80.5 8.6z" fill="url(#a)"/><g transform="translate(434 525)"><linearGradient id="b" gradientUnits="userSpaceOnUse" x1="-2474.538" y1="512.187" x2="-2460.932" y2="518.506" gradientTransform="matrix(14.9 0 0 20.9 36420.754 -11180.615)"><stop offset=".001" stop-color="#58595b"/><stop offset="1" stop-color="#0e0e0e"/></linearGradient><path d="M-410.9-426.5v-36.1h14.6c7.3 0 11.3 5 11.3 10.9s-4.2 10.9-11.3 10.9h-10.1v14.4l-4.5-.1zm21.2-25.2c0-4-3-7-7.1-7h-9.6v13.7h9.6c4.2.1 7.1-2.7 7.1-6.7z" fill="url(#b)"/><linearGradient id="c" gradientUnits="userSpaceOnUse" x1="-2470.981" y1="511.631" x2="-2454.498" y2="517.981" gradientTransform="matrix(12.3 0 0 20.8 29949.96 -11128.224)"><stop offset=".001" stop-color="#58595b"/><stop offset="1" stop-color="#0e0e0e"/></linearGradient><path fill="url(#c)" d="M-381.4-426.5v-36.2h4.6v32.2h16.8v4z"/><linearGradient id="d" gradientUnits="userSpaceOnUse" x1="-2477.811" y1="510.978" x2="-2465.886" y2="517.207" gradientTransform="matrix(17 0 0 21.2 41691.898 -11337.79)"><stop offset=".001" stop-color="#58595b"/><stop offset="1" stop-color="#0e0e0e"/></linearGradient><path d="M-357-440.6v-22.1h4.5v22.1c0 6.6 3.5 10.8 10.3 10.8s10.3-4.2 10.3-10.8v-22.1h4.5v22.1c0 9-5 14.8-14.8 14.8-10 0-14.8-5.9-14.8-14.8z" fill="url(#d)"/><linearGradient id="e" gradientUnits="userSpaceOnUse" x1="-2476.949" y1="510.561" x2="-2463.953" y2="516.704" gradientTransform="matrix(15.6 0 0 21.5 38218.07 -11495.259)"><stop offset=".001" stop-color="#58595b"/><stop offset="1" stop-color="#0e0e0e"/></linearGradient><path d="M-323-431.6l2.8-3.5c2.3 2.8 6.3 5.2 11.3 5.2 6.4 0 8.5-3.5 8.5-6.3 0-9.4-21.4-4.2-21.4-17 0-5.9 5.4-10.1 12.5-10.1 5.4 0 9.7 1.9 12.7 5l-2.8 3.3c-2.8-3-6.4-4.3-10.4-4.3-4.3 0-7.5 2.3-7.5 5.7 0 8.2 21.4 3.5 21.4 17 0 5.2-3.6 10.6-13.4 10.6-6 .2-10.5-2.3-13.7-5.6z" fill="url(#e)"/></g></svg>