<svg xmlns="http://www.w3.org/2000/svg" viewBox="0 0 160 160"><g transform="translate(543 494)"><linearGradient id="a" gradientUnits="userSpaceOnUse" x1="-2918.994" y1="507.259" x2="-2912.179" y2="514.074" gradientTransform="matrix(16.2 0 0 16.2 46760.754 -8686.656)"><stop offset=".001" stop-color="#58595b"/><stop offset="1" stop-color="#0e0e0e"/></linearGradient><path d="M-469.8-426.4c-8.1 0-14.5 6.5-14.5 14.5 0 8.1 6.5 14.5 14.5 14.5s14.5-6.5 14.5-14.5-6.4-14.5-14.5-14.5zm0 22.3c-4.3 0-7.7-3.4-7.7-7.7 0-4.3 3.4-7.7 7.7-7.7 4.3 0 7.7 3.4 7.7 7.7 0 4.3-3.4 7.7-7.7 7.7z" fill="url(#a)"/><linearGradient id="b" gradientUnits="userSpaceOnUse" x1="-2919.719" y1="492.944" x2="-2912.731" y2="504.815" gradientTransform="matrix(15.8 0 0 9.3 45603.133 -5051.902)"><stop offset=".001" stop-color="#58595b"/><stop offset="1" stop-color="#0e0e0e"/></linearGradient><path d="M-429.3-390.9l-28.3 16.7 28.3-16.7z" fill="url(#b)"/><linearGradient id="c" gradientUnits="userSpaceOnUse" x1="-2919.719" y1="492.944" x2="-2912.731" y2="504.815" gradientTransform="matrix(15.8 0 0 9.3 45603.133 -5051.902)"><stop offset=".001" stop-color="#58595b"/><stop offset="1" stop-color="#0e0e0e"/></linearGradient><path d="M-429.3-390.9l-28.3 16.7 28.3-16.7z" fill="url(#c)"/><linearGradient id="d" gradientUnits="userSpaceOnUse" x1="-2921.198" y1="506.754" x2="-2915.198" y2="513.923" gradientTransform="matrix(18.4 0 0 15.4 53199.828 -8249.83)"><stop offset=".001" stop-color="#58595b"/><stop offset="1" stop-color="#0e0e0e"/></linearGradient><path d="M-468.9-367.5c-.7.4-1.6.4-2.2-.2l-30.9-26.9 31.7 27.6 1.4-.5z" fill="url(#d)"/><linearGradient id="e" gradientUnits="userSpaceOnUse" x1="-2921.198" y1="506.754" x2="-2915.198" y2="513.923" gradientTransform="matrix(18.4 0 0 15.4 53199.828 -8249.83)"><stop offset=".001" stop-color="#58595b"/><stop offset="1" stop-color="#0e0e0e"/></linearGradient><path d="M-468.9-367.5c-.7.4-1.6.4-2.2-.2l-30.9-26.9 31.7 27.6 1.4-.5z" fill="url(#e)"/><linearGradient id="f" gradientUnits="userSpaceOnUse" x1="-2928.148" y1="519.46" x2="-2926.546" y2="521.46" gradientTransform="matrix(68.9 0 0 55.2 201207.89 -29128.703)"><stop offset=".001" stop-color="#58595b"/><stop offset="1" stop-color="#0e0e0e"/></linearGradient><path d="M-421.4-443.8H-541c-1.1 0-2 .9-2 2v95.1c0 1.1.9 2 2 2h119.6c1.1 0 2-.9 2-2v-95.1c-.2-1.1-.9-2-2-2zm-5 54.7v37.5h-109.5v-19.8l21.7-16 9.9-7.2 1.3-.9 1.1 1.1 30.7 26.5c.5.5 1.4.5 2.2.2l11.3-6.6 28.3-16.5 2.9-1.6v3.2c-.1.1.1.1.1.1zm0-12.5c0 .7-.4 1.3-.9 1.6l-40.7 23.9c-.7.4-1.6.4-2.2-.2l-31-27.1c-.7-.5-1.6-.7-2.3-.2l-29.1 21.2c-1.3.9-3 0-3-1.6v-50.8c0-1.1.9-2 2-2h105.5c1.1 0 2 .9 2 2l-.3 33.2z" fill="url(#f)"/><linearGradient id="g" gradientUnits="userSpaceOnUse" x1="-2897.516" y1="459.597" x2="-2877.444" y2="487.197" gradientTransform="matrix(5.5 0 0 4 15379.178 -2277.299)"><stop offset=".001" stop-color="#58595b"/><stop offset="1" stop-color="#0e0e0e"/></linearGradient><path d="M-504.3-394.6l-9.9 7.2 9.9-7.2z" fill="url(#g)"/><linearGradient id="h" gradientUnits="userSpaceOnUse" x1="-2897.516" y1="459.597" x2="-2877.444" y2="487.197" gradientTransform="matrix(5.5 0 0 4 15379.178 -2277.299)"><stop offset=".001" stop-color="#58595b"/><stop offset="1" stop-color="#0e0e0e"/></linearGradient><path d="M-504.3-394.6l-9.9 7.2 9.9-7.2z" fill="url(#h)"/><linearGradient id="i" gradientUnits="userSpaceOnUse" x1="-2819.047" y1="366.292" x2="-2750.047" y2="424.397" gradientTransform="matrix(1.6 0 0 1.9 3994.383 -1175.897)"><stop offset=".001" stop-color="#58595b"/><stop offset="1" stop-color="#0e0e0e"/></linearGradient><path d="M-426.4-389.1v-3.4l-2.9 1.6c1.3-.7 2.9.2 2.9 1.8z" fill="url(#i)"/><linearGradient id="j" gradientUnits="userSpaceOnUse" x1="-2819.047" y1="366.292" x2="-2750.047" y2="424.397" gradientTransform="matrix(1.6 0 0 1.9 3994.383 -1175.897)"><stop offset=".001" stop-color="#58595b"/><stop offset="1" stop-color="#0e0e0e"/></linearGradient><path d="M-426.4-389.1v-3.4l-2.9 1.6c1.3-.7 2.9.2 2.9 1.8z" fill="url(#j)"/><linearGradient id="k" gradientUnits="userSpaceOnUse" x1="-2819.047" y1="366.292" x2="-2750.047" y2="424.397" gradientTransform="matrix(1.6 0 0 1.9 3994.383 -1175.897)"><stop offset=".001" stop-color="#58595b"/><stop offset="1" stop-color="#0e0e0e"/></linearGradient><path d="M-426.4-389.1v-3.4l-2.9 1.6c1.3-.7 2.9.2 2.9 1.8z" fill="url(#k)"/><linearGradient id="l" gradientUnits="userSpaceOnUse" x1="-2903.751" y1="447.817" x2="-2886.227" y2="477.655" gradientTransform="matrix(6.3 0 0 3.7 17749.424 -2108.728)"><stop offset=".001" stop-color="#58595b"/><stop offset="1" stop-color="#0e0e0e"/></linearGradient><path fill="url(#l)" d="M-457.6-374.2l-11.3 6.7z"/><linearGradient id="m" gradientUnits="userSpaceOnUse" x1="-2903.751" y1="447.817" x2="-2886.227" y2="477.655" gradientTransform="matrix(6.3 0 0 3.7 17749.424 -2108.728)"><stop offset=".001" stop-color="#58595b"/><stop offset="1" stop-color="#0e0e0e"/></linearGradient><path fill="url(#m)" d="M-457.6-374.2l-11.3 6.7z"/><linearGradient id="n" gradientUnits="userSpaceOnUse" x1="-2903.751" y1="447.817" x2="-2886.227" y2="477.655" gradientTransform="matrix(6.3 0 0 3.7 17749.424 -2108.728)"><stop offset=".001" stop-color="#58595b"/><stop offset="1" stop-color="#0e0e0e"/></linearGradient><path fill="url(#n)" d="M-457.6-374.2l-11.3 6.7z"/><linearGradient id="o" gradientUnits="userSpaceOnUse" x1="-2780.805" y1="298.833" x2="-2680.441" y2="399.197" gradientTransform="matrix(1.1 0 0 1.1 2469.33 -735.171)"><stop offset=".001" stop-color="#58595b"/><stop offset="1" stop-color="#0e0e0e"/></linearGradient><path d="M-535.8-353.7v2h2c-1.1-.1-2-1-2-2z" fill="url(#o)"/><linearGradient id="p" gradientUnits="userSpaceOnUse" x1="-2780.805" y1="298.833" x2="-2680.441" y2="399.197" gradientTransform="matrix(1.1 0 0 1.1 2469.33 -735.171)"><stop offset=".001" stop-color="#58595b"/><stop offset="1" stop-color="#0e0e0e"/></linearGradient><path d="M-535.8-353.7v2h2c-1.1-.1-2-1-2-2z" fill="url(#p)"/><linearGradient id="q" gradientUnits="userSpaceOnUse" x1="-2780.805" y1="298.833" x2="-2680.441" y2="399.197" gradientTransform="matrix(1.1 0 0 1.1 2469.33 -735.171)"><stop offset=".001" stop-color="#58595b"/><stop offset="1" stop-color="#0e0e0e"/></linearGradient><path d="M-535.8-353.7v2h2c-1.1-.1-2-1-2-2z" fill="url(#q)"/><linearGradient id="r" gradientUnits="userSpaceOnUse" x1="-2785.941" y1="249.514" x2="-2685.578" y2="349.878" gradientTransform="matrix(1.1 0 0 1.1 2529.23 -735.171)"><stop offset=".001" stop-color="#58595b"/><stop offset="1" stop-color="#0e0e0e"/></linearGradient><path d="M-428.4-351.8h2v-2c0 1.1-.9 2-2 2z" fill="url(#r)"/><linearGradient id="s" gradientUnits="userSpaceOnUse" x1="-2785.941" y1="249.514" x2="-2685.578" y2="349.878" gradientTransform="matrix(1.1 0 0 1.1 2529.23 -735.171)"><stop offset=".001" stop-color="#58595b"/><stop offset="1" stop-color="#0e0e0e"/></linearGradient><path d="M-428.4-351.8h2v-2c0 1.1-.9 2-2 2z" fill="url(#s)"/><linearGradient id="t" gradientUnits="userSpaceOnUse" x1="-2785.941" y1="249.514" x2="-2685.578" y2="349.878" gradientTransform="matrix(1.1 0 0 1.1 2529.23 -735.171)"><stop offset=".001" stop-color="#58595b"/><stop offset="1" stop-color="#0e0e0e"/></linearGradient><path d="M-428.4-351.8h2v-2c0 1.1-.9 2-2 2z" fill="url(#t)"/><linearGradient id="u" gradientUnits="userSpaceOnUse" x1="-2788.925" y1="120.187" x2="-2704.001" y2="230.587" gradientTransform="matrix(1.3 0 0 .6 3073.192 -496.618)"><stop offset=".001" stop-color="#58595b"/><stop offset="1" stop-color="#0e0e0e"/></linearGradient><path d="M-501.9-394.6l-1.1-1.1-1.3.9c.8-.4 1.8-.4 2.4.2z" fill="url(#u)"/><linearGradient id="v" gradientUnits="userSpaceOnUse" x1="-2788.925" y1="120.187" x2="-2704.001" y2="230.587" gradientTransform="matrix(1.3 0 0 .6 3073.192 -496.618)"><stop offset=".001" stop-color="#58595b"/><stop offset="1" stop-color="#0e0e0e"/></linearGradient><path d="M-501.9-394.6l-1.1-1.1-1.3.9c.8-.4 1.8-.4 2.4.2z" fill="url(#v)"/><linearGradient id="w" gradientUnits="userSpaceOnUse" x1="-2788.925" y1="120.187" x2="-2704.001" y2="230.587" gradientTransform="matrix(1.3 0 0 .6 3073.192 -496.618)"><stop offset=".001" stop-color="#58595b"/><stop offset="1" stop-color="#0e0e0e"/></linearGradient><path d="M-501.9-394.6l-1.1-1.1-1.3.9c.8-.4 1.8-.4 2.4.2z" fill="url(#w)"/><linearGradient id="x" gradientUnits="userSpaceOnUse" x1="-2916.092" y1="497.593" x2="-2906.968" y2="509.338" gradientTransform="matrix(12.1 0 0 9.4 34713.7 -5102.392)"><stop offset=".001" stop-color="#58595b"/><stop offset="1" stop-color="#0e0e0e"/></linearGradient><path d="M-535.1-372.2l21-15.2-21.7 16v.9c0-.8.2-1.3.7-1.7z" fill="url(#x)"/><linearGradient id="y" gradientUnits="userSpaceOnUse" x1="-2916.092" y1="497.593" x2="-2906.968" y2="509.338" gradientTransform="matrix(12.1 0 0 9.4 34713.7 -5102.392)"><stop offset=".001" stop-color="#58595b"/><stop offset="1" stop-color="#0e0e0e"/></linearGradient><path d="M-535.1-372.2l21-15.2-21.7 16v.9c0-.8.2-1.3.7-1.7z" fill="url(#y)"/><linearGradient id="z" gradientUnits="userSpaceOnUse" x1="-2916.092" y1="497.593" x2="-2906.968" y2="509.338" gradientTransform="matrix(12.1 0 0 9.4 34713.7 -5102.392)"><stop offset=".001" stop-color="#58595b"/><stop offset="1" stop-color="#0e0e0e"/></linearGradient><path d="M-535.1-372.2l21-15.2-21.7 16v.9c0-.8.2-1.3.7-1.7z" fill="url(#z)"/><linearGradient id="A" gradientUnits="userSpaceOnUse" x1="-2927.705" y1="518.932" x2="-2926.099" y2="520.932" gradientTransform="matrix(68.7128 0 0 55.2 200669.25 -29139.504)"><stop offset=".001" stop-color="#58595b"/><stop offset="1" stop-color="#0e0e0e"/></linearGradient><path d="M-403.4-463.1h-119.5c-1.1 0-2 .9-2 2v10.9h7v-3.9c0-1.1.9-2 2-2h105.3c1.1 0 2 .9 2 2v81.1c0 1.1-.9 2-2 2h-2.5v7h9.5c1.1 0 2-.9 2-2v-95.1c.1-1.2-.8-2-1.8-2z" fill="url(#A)"/><linearGradient id="B" gradientUnits="userSpaceOnUse" x1="-2927.582" y1="518.785" x2="-2925.977" y2="520.785" gradientTransform="matrix(68.8 0 0 55.2 200935.172 -29150.504)"><stop offset=".001" stop-color="#58595b"/><stop offset="1" stop-color="#0e0e0e"/></linearGradient><path d="M-385-482.9h-119.5c-1.1 0-2 .9-2 2v10.9h7v-3.9c0-1.1.9-2 2-2H-392c1.1 0 2 .9 2 2v81.1c0 1.1-.9 2-2 2h-2.5v7h9.5c1.1 0 2-.9 2-2v-95.1c0-1.1-.9-2-2-2z" fill="url(#B)"/></g></svg>