<svg xmlns="http://www.w3.org/2000/svg" viewBox="0 0 35 35"><circle cx="17.5" cy="17.5" r="17.5"/><path fill="#FFF" d="M17.5 21.648c1.074 0 1.944-.829 1.944-1.852 0-1.028-.875-1.852-1.944-1.852-1.074 0-1.944.829-1.944 1.852s.87 1.852 1.944 1.852zm5.833-8.333c1.074 0 1.944.829 1.944 1.852v9.259c0 1.023-.871 1.852-1.944 1.852H11.667c-1.074 0-1.944-.829-1.944-1.852v-9.259c0-1.028.875-1.852 1.944-1.852h.972v-1.852c0-2.557 2.176-4.63 4.861-4.63 1.289 0 2.526.488 3.437 1.356a4.52 4.52 0 011.424 3.274v1.852h.972zM17.5 8.685c-1.611 0-2.917 1.244-2.917 2.778v1.852h5.833v-1.852c.001-1.534-1.305-2.778-2.916-2.778z"/></svg>