<svg xmlns="http://www.w3.org/2000/svg" viewBox="0 0 160 160"><linearGradient id="a" gradientUnits="userSpaceOnUse" x1="53.442" y1="80.473" x2="118.993" y2="146.023"><stop offset=".006" stop-color="#ffcd0a"/><stop offset="1" stop-color="#f07b29"/></linearGradient><path fill="url(#a)" d="M55.4 60.7h-4.9v38.5h22.8V95H55.4z"/><linearGradient id="b" gradientUnits="userSpaceOnUse" x1="74.968" y1="58.948" x2="140.518" y2="124.498"><stop offset=".006" stop-color="#ffcd0a"/><stop offset="1" stop-color="#f07b29"/></linearGradient><path d="M103.2 84.2c0 7-3.7 11.5-11 11.5-7.2 0-11-4.5-11-11.5V60.7h-4.8v23.5c0 9.5 5.1 15.8 15.8 15.8 10.4 0 15.8-6.2 15.8-15.8V60.7h-4.8v23.5z" fill="url(#b)"/><linearGradient id="c" gradientUnits="userSpaceOnUse" x1="67.021" y1="66.894" x2="132.572" y2="132.444"><stop offset=".006" stop-color="#ffcd0a"/><stop offset="1" stop-color="#f07b29"/></linearGradient><path d="M143.7 25.2L52.3.7C50.4.2 48.5 0 46.7 0c-9.8 0-18.9 6.5-21.5 16.4L.7 107.6c-3.1 11.7 3.9 23.8 15.6 27l91.2 24.7c1.9.5 3.8.7 5.6.7 9.7 0 18.8-6.5 21.4-16.3l24.8-91.5c3-11.8-4-23.9-15.6-27zm5.9 24.5l-9.2 33.9c-4.6-8.4-21.6-5.7-21.6-13.3 0-3.6 3.4-6.1 8-6.1 4.3 0 8.1 1.4 11.1 4.6l3-3.5C137.6 62 133 60 127.3 60c-7.6 0-13.3 4.5-13.3 10.8 0 13.6 22.8 8.1 22.8 18.1 0 3-2.2 6.7-9.1 6.7-5.3 0-9.6-2.6-12-5.5l-3 3.7c3.4 3.5 8.2 6.2 14.6 6 4.1 0 7.1-.9 9.4-2.3l-11.8 43.6c-1.4 5.2-6.2 8.9-11.7 8.9-1 0-2-.1-3-.4L19 124.9c-6.4-1.8-10.3-8.4-8.6-14.8L19 77.9V99.3h4.8V84h10.8c7.6 0 12-5.3 12-11.6s-4.3-11.6-12-11.6h-11L34.8 19c1.4-5.3 6.3-9 11.9-9 1 0 2.1.1 3.1.4l91.4 24.5c6.3 1.7 10.1 8.3 8.4 14.8zM23.8 79.5V64.9H34c4.4 0 7.6 3.2 7.6 7.5s-3.1 7.2-7.6 7.1H23.8z" fill="url(#c)"/></svg>