<?xml version="1.0" encoding="utf-8"?>
<!-- Generator: Adobe Illustrator 20.1.0, SVG Export Plug-In . SVG Version: 6.00 Build 0)  -->
<svg version="1.1" id="Layer_1" xmlns="http://www.w3.org/2000/svg" xmlns:xlink="http://www.w3.org/1999/xlink" x="0px" y="0px"
	 viewBox="0 0 30 30" style="enable-background:new 0 0 30 30;" xml:space="preserve">
<style type="text/css">
	.st0{fill:url(#SVGID_1_);}
	.st1{fill:#999999;}
</style>
<linearGradient id="SVGID_1_" gradientUnits="userSpaceOnUse" x1="0.1" y1="9.3" x2="29.9" y2="9.3">
	<stop  offset="1.000000e-03" style="stop-color:#595A5C"/>
	<stop  offset="1" style="stop-color:#101010"/>
</linearGradient>
<path class="st0" d="M29.8,0.7c-0.1-0.2-0.3-0.4-0.5-0.5c-0.1-0.1-0.3-0.1-0.4-0.1h-6.8c-0.6,0-1,0.4-1,1s0.4,1,1,1h4.3L14.1,14.5
	l-5-5c-0.4-0.4-1-0.4-1.4,0l-7.3,7.3c-0.4,0.4-0.4,1,0,1.4c0.2,0.2,0.5,0.3,0.7,0.3s0.5-0.1,0.7-0.3l6.6-6.6l5,5
	c0.4,0.4,1,0.4,1.4,0L27.9,3.5v4.3c0,0.6,0.4,1,1,1s1-0.4,1-1V1.1C29.9,1,29.9,0.9,29.8,0.7z"/>
<path class="st1" d="M4,18.9l-0.8,0.8C2.8,20,2.4,20.3,2,20.4V30h2V18.9z M10,16.1l-1.6-1.6L8,14.9V30h2V16.1z M16,18.2
	c-0.5,0.5-1.2,0.7-1.9,0.7H14V30h2V18.2z M22,12.2l-2,2V30h2V12.2z M28,10.7c-1-0.3-1.7-1.1-2-2V30h2V10.7z"/>
</svg>
