<svg xmlns="http://www.w3.org/2000/svg" viewBox="0 0 26.5 30"><path d="M25.9 7.2L13.7.2c-.3-.2-.7-.2-1 0L.5 7.2c-.3.1-.5.4-.5.8v14c0 .3.2.7.5.8l12.2 7c.3.2.7.2 1 0l12.2-7c.3-.2.5-.5.5-.8V8c-.1-.4-.2-.7-.5-.8z" fill="#999"/><path d="M3.7 19.5H2.3v-8.7h3.5c1.6 0 2.8 1.1 2.8 2.7s-1.1 2.7-2.8 2.7H3.7v3.3zm0-4.6h2c.9 0 1.4-.5 1.4-1.4 0-.8-.6-1.4-1.4-1.4h-2v2.8zm12.1 4.6h-1.7L12 16.2h-1.3v3.3H9.2v-8.7h3.5c1.7 0 2.8 1.1 2.8 2.7 0 1.5-1 2.3-2 2.6l2.3 3.4zm-5.2-4.6h2c.9 0 1.5-.6 1.5-1.4s-.6-1.4-1.5-1.4h-2v2.8zm9.7 4.8c-2.5 0-4.3-1.9-4.3-4.5s1.8-4.5 4.3-4.5 4.3 1.9 4.3 4.5-1.8 4.5-4.3 4.5zm0-7.7c-1.7 0-2.8 1.3-2.8 3.2s1.1 3.2 2.8 3.2c1.7 0 2.8-1.3 2.8-3.2S22 12 20.3 12z" fill="#fff"/></svg>