<svg id="Layer_1" xmlns="http://www.w3.org/2000/svg" viewBox="0 0 26.5 30"><style>.st0{fill:#fff}</style><path class="st0" d="M4.4 12.1H2.5V15h1.9c.8-.1 1.5-.7 1.5-1.5s-.6-1.4-1.5-1.4z"/><path class="st0" d="M25.9 7.2L13.7.2c-.3-.2-.7-.2-1 0L.5 7.2c-.3.1-.5.4-.5.8v14c0 .3.2.7.5.8l12.2 7c.3.2.7.2 1 0l12.2-7c.3-.2.5-.5.5-.8V8c-.1-.4-.2-.7-.5-.8zM4.5 15.6h-2v2.9l-1 .1v-7.4h3c1.5 0 2.3 1 2.3 2.2 0 1.2-.8 2.2-2.3 2.2zm7.4 3H7.5v-7.4h.9v6.6h3.5v.8zm6.6-2.8c0 1.8-1 3-3 3s-3-1.2-3-3v-4.5h.9v4.5c0 1.4.7 2.2 2.1 2.2s2.1-.8 2.1-2.2v-4.5h.9v4.5zm3.7 3c-1.2 0-2.1-.5-2.8-1.2l.5-.7c.5.5 1.3 1.1 2.3 1.1 1.3 0 1.7-.7 1.7-1.3 0-1.9-4.4-.8-4.4-3.5 0-1.2 1.1-2 2.5-2 1.1 0 2 .4 2.6 1l-.5.6c-.5-.6-1.4-.9-2.1-.9-.9 0-1.5.5-1.5 1.2 0 1.6 4.4.7 4.4 3.5 0 1.1-.7 2.2-2.7 2.2z"/></svg>