<?xml version="1.0" encoding="utf-8"?>
<!-- Generator: Adobe Illustrator 20.1.0, SVG Export Plug-In . SVG Version: 6.00 Build 0)  -->
<svg version="1.1" id="Layer_1" xmlns="http://www.w3.org/2000/svg" xmlns:xlink="http://www.w3.org/1999/xlink" x="0px" y="0px"
	 viewBox="0 0 30 30" style="enable-background:new 0 0 30 30;" xml:space="preserve">
<style type="text/css">
	.st0{fill:url(#SVGID_1_);}
	.st1{fill:#999999;}
</style>
<linearGradient id="SVGID_1_" gradientUnits="userSpaceOnUse" x1="0" y1="10.9" x2="30" y2="10.9">
	<stop  offset="1.000000e-03" style="stop-color:#595A5C"/>
	<stop  offset="1" style="stop-color:#101010"/>
</linearGradient>
<path class="st0" d="M19.9,16.9c-0.3,0-0.5-0.1-0.7-0.3c-0.4-0.4-0.4-1.1,0-1.5c1.1-1.1,1.7-2.6,1.7-4.2s-0.6-3.1-1.7-4.2
	c-0.4-0.4-0.4-1.1,0-1.5s1.1-0.4,1.5,0c1.5,1.5,2.3,3.5,2.3,5.6s-0.8,4.1-2.3,5.6C20.4,16.8,20.2,16.9,19.9,16.9z M24.9,21.8
	c-0.3,0-0.5-0.1-0.7-0.3c-0.4-0.4-0.4-1.1,0-1.5c2.4-2.4,3.8-5.7,3.8-9.1s-1.3-6.7-3.8-9.1c-0.4-0.4-0.4-1.1,0-1.5s1.1-0.4,1.5,0
	C28.4,3.1,30,6.9,30,10.9s-1.6,7.8-4.4,10.6C25.4,21.7,25.1,21.8,24.9,21.8z M5.1,21.8c-0.3,0-0.5-0.1-0.7-0.3
	C1.6,18.7,0,14.9,0,10.9S1.6,3.1,4.4,0.3c0.4-0.4,1.1-0.4,1.5,0s0.4,1.1,0,1.5c-2.4,2.4-3.8,5.7-3.8,9.1c0,3.5,1.3,6.7,3.8,9.1
	c0.4,0.4,0.4,1.1,0,1.5C5.7,21.7,5.4,21.8,5.1,21.8z M10.1,16.9c-0.3,0-0.5-0.1-0.7-0.3C7.8,15,7,13,7,10.9s0.8-4.1,2.3-5.6
	c0.4-0.4,1.1-0.4,1.5,0s0.4,1.1,0,1.5C9.7,7.9,9.1,9.4,9.1,11s0.6,3.1,1.7,4.2c0.4,0.4,0.4,1.1,0,1.5C10.6,16.8,10.4,16.9,10.1,16.9
	z"/>
<path class="st1" d="M17.2,11c0-1.2-1-2.2-2.2-2.2s-2.2,1-2.2,2.2c0,0.9,0.5,1.6,1.2,1.9V30h2V12.9C16.7,12.5,17.2,11.8,17.2,11z"/>
</svg>
