<?xml version="1.0" encoding="utf-8"?>
<!-- Generator: Adobe Illustrator 20.1.0, SVG Export Plug-In . SVG Version: 6.00 Build 0)  -->
<svg version="1.1" id="Layer_1" xmlns="http://www.w3.org/2000/svg" xmlns:xlink="http://www.w3.org/1999/xlink" x="0px" y="0px"
	 viewBox="0 0 40 29.2" style="enable-background:new 0 0 40 29.2;" xml:space="preserve">
<style type="text/css">
	.st0{fill:#999999;}
	.st1{fill:url(#SVGID_1_);}
</style>
<path class="st0" d="M28,15.9V8c0-0.3-0.2-0.5-0.5-0.5S27,7.7,27,8v7.9c-0.3,0.2-0.5,0.5-0.5,0.8c0,0.6,0.4,1,1,1s1-0.4,1-1
	C28.5,16.4,28.3,16.1,28,15.9z"/>
<path class="st0" d="M29.2,15.6c0.2,0.3,0.3,0.6,0.4,1l2.6-2c0.4-0.3,0.5-1,0.2-1.4s-1-0.5-1.4-0.2l-2.6,2
	C28.7,15.1,29,15.3,29.2,15.6z"/>
<path class="st0" d="M28.6,4.3V2h1c0.6,0,1-0.4,1-1s-0.4-1-1-1h-4c-0.6,0-1,0.4-1,1s0.4,1,1,1h1v2.3C20.1,4.8,15,10.1,15,16.7
	c0,6.9,5.6,12.5,12.5,12.5S40,23.6,40,16.7C40,10.2,35,4.8,28.6,4.3z M27.5,27.2c-5.8,0-10.5-4.7-10.5-10.5S21.7,6.2,27.5,6.2
	S38,10.9,38,16.7S33.3,27.2,27.5,27.2z"/>
<linearGradient id="SVGID_1_" gradientUnits="userSpaceOnUse" x1="0" y1="16.75" x2="17.5003" y2="16.75">
	<stop  offset="1.000000e-03" style="stop-color:#595A5C"/>
	<stop  offset="1" style="stop-color:#101010"/>
</linearGradient>
<path class="st1" d="M17.5,6.4H6.2c-0.6,0-1,0.4-1,1s0.4,1,1,1h9.5C16.3,7.6,16.9,7,17.5,6.4z M3.1,11c-0.6,0-1,0.4-1,1s0.4,1,1,1
	h10.5c0.2-0.7,0.4-1.4,0.7-2H3.1z M13,15.7H1c-0.6,0-1,0.4-1,1s0.4,1,1,1h12v-0.9V15.7z M6.3,25.1c-0.6,0-1,0.4-1,1s0.4,1,1,1h11
	c-0.6-0.6-1.1-1.3-1.6-2H6.3z M3.1,20.5c-0.6,0-1,0.4-1,1s0.4,1,1,1h11c-0.3-0.6-0.5-1.3-0.7-2H3.1z"/>
</svg>
