<svg version="1.1" id="Layer_1" xmlns="http://www.w3.org/2000/svg" x="0" y="0" viewBox="0 0 26.6 26.6" xml:space="preserve"><style>.st0{fill:#fff}</style><path class="st0" d="M4.4 10.4H2.5v2.9h1.9c.8-.1 1.5-.7 1.5-1.5s-.6-1.4-1.5-1.4z"/><path class="st0" d="M23.9 4.2L8.7.1c-2-.5-4 .6-4.5 2.6L2.4 9.5h2.2c1.5 0 2.3 1 2.3 2.2 0 1.2-.8 2.2-2.3 2.2h-2v2.9l-1 .1v-4.5L.1 17.9c-.5 1.9.6 4 2.6 4.5l15.2 4.1c1.9.5 4-.6 4.5-2.6l2-7.4c-.4.4-1.1.7-2.1.7-1.2 0-2.1-.5-2.8-1.2l.5-.7c.5.5 1.3 1.1 2.3 1.1 1.3 0 1.7-.7 1.7-1.3 0-1.9-4.4-.8-4.4-3.5 0-1.2 1.1-2 2.5-2 1.1 0 2 .4 2.6 1l-.5.6c-.5-.6-1.4-.9-2.1-.9-.9 0-1.5.5-1.5 1.2 0 1.5 3.8.8 4.3 3l1.5-5.7c.6-2.1-.6-4.1-2.5-4.6zM12 16.9H7.6V9.5h.9v6.6H12v.8zm6.6-2.8c0 1.8-1 3-3 3s-3-1.2-3-3V9.6h.9v4.5c0 1.4.7 2.2 2.1 2.2 1.4 0 2.1-.8 2.1-2.2V9.6h.9v4.5z"/><path class="st0" d="M6 11.8c0-.8-.6-1.4-1.5-1.4H2.6v2.9h1.9c.8-.1 1.5-.7 1.5-1.5z"/></svg>