<svg version="1.1" id="Layer_1" xmlns="http://www.w3.org/2000/svg" x="0" y="0" viewBox="0 0 26.6 26.6" xml:space="preserve"><style>.st0{fill:#999}</style><path class="st0" d="M14.2 11.6c0-.8-.6-1.5-1.6-1.5h-2.1v3h2.1c1 0 1.6-.7 1.6-1.5zm-7.4 0c0-.8-.6-1.5-1.5-1.5h-2v3h2.1c.9 0 1.4-.5 1.4-1.5z"/><ellipse class="st0" cx="20.8" cy="13.4" rx="3" ry="3.4"/><path class="st0" d="M23.9 4.2L8.7.1c-2-.5-4 .6-4.5 2.6l-1.6 6h2.9c1.7 0 3 1.2 3 2.9s-1.2 2.9-3 2.9H3.3V18H1.8v-6.2L.1 18c-.5 1.9.6 4 2.6 4.5l15.2 4.1c1.9.5 4-.6 4.5-2.6l2-7.5c-.8 1.1-2.1 1.8-3.6 1.8-2.6 0-4.5-2-4.5-4.8s1.9-4.8 4.5-4.8c2.5 0 4.3 1.8 4.5 4.4l1.2-4.3c.5-2.1-.7-4.1-2.6-4.6zm-9.7 13.7L12 14.5h-1.4V18H9.1V8.7h3.7c1.8 0 3 1.2 3 2.9 0 1.6-1.1 2.4-2.1 2.7l2.4 3.6h-1.9z"/><path d="M25.3 13.4V13l-.9 3.4M3.3 17.9v-3.5h2.2c1.8 0 3-1.2 3-2.9s-1.3-2.9-3-2.9H2.6l-.8 2.9v6.2h1.5zm0-7.8h2.1c.8 0 1.5.6 1.5 1.5 0 1-.5 1.5-1.5 1.5H3.3v-3zm12.4 1.5c0-1.7-1.2-2.9-3-2.9H9.1v9.2h1.6v-3.5H12l2.2 3.5H16l-2.4-3.6c1.1-.3 2.1-1.1 2.1-2.7zm-5.2 1.5v-3h2.1c1 0 1.6.6 1.6 1.5 0 .8-.6 1.5-1.6 1.5h-2.1zm10.3-4.5c-2.6 0-4.5 2-4.5 4.8s1.9 4.8 4.5 4.8c1.5 0 2.8-.7 3.6-1.8l.9-3.4c-.2-2.5-2-4.4-4.5-4.4zm0 8.2c-1.8 0-3-1.4-3-3.4s1.2-3.4 3-3.4 3 1.4 3 3.4c-.1 2-1.2 3.4-3 3.4z" fill="#fff"/></svg>