<svg xmlns="http://www.w3.org/2000/svg" viewBox="0 0 26.5 30"><path d="M25.9 7.2L13.7.2c-.3-.2-.7-.2-1 0L.5 7.2c-.3.1-.5.4-.5.8v14c0 .3.2.7.5.8l12.2 7c.3.2.7.2 1 0l12.2-7c.3-.2.5-.5.5-.8V8c-.1-.4-.2-.7-.5-.8z" fill="#999"/><path d="M1.5 18.6v-7.4h3c1.5 0 2.3 1 2.3 2.2s-.8 2.2-2.3 2.2h-2v2.9l-1 .1zm4.4-5.1c0-.8-.6-1.4-1.5-1.4H2.5V15h1.9c.8-.1 1.5-.7 1.5-1.5zm1.6 5.1v-7.4h.9v6.6h3.5v.8H7.5zm5-2.8v-4.5h.9v4.5c0 1.4.7 2.2 2.1 2.2s2.1-.8 2.1-2.2v-4.5h.9v4.5c0 1.8-1 3-3 3s-3-1.2-3-3zm6.9 1.8l.5-.7c.5.5 1.3 1.1 2.3 1.1 1.3 0 1.7-.7 1.7-1.3 0-1.9-4.4-.8-4.4-3.5 0-1.2 1.1-2 2.5-2 1.1 0 2 .4 2.6 1l-.5.6c-.5-.6-1.4-.9-2.1-.9-.9 0-1.5.5-1.5 1.2 0 1.6 4.4.7 4.4 3.5 0 1.1-.7 2.2-2.7 2.2-1.2 0-2.1-.5-2.8-1.2z" fill="#fff"/></svg>