<svg xmlns="http://www.w3.org/2000/svg" viewBox="0 0 30 30"><linearGradient id="a" gradientUnits="userSpaceOnUse" x1=".1" y1="9.3" x2="29.9" y2="9.3"><stop offset=".001" stop-color="#595a5c"/><stop offset="1" stop-color="#101010"/></linearGradient><path d="M29.8.7c-.1-.2-.3-.4-.5-.5-.1-.1-.3-.1-.4-.1h-6.8c-.6 0-1 .4-1 1s.4 1 1 1h4.3L14.1 14.5l-5-5c-.4-.4-1-.4-1.4 0L.4 16.8c-.4.4-.4 1 0 1.4.2.2.5.3.7.3s.5-.1.7-.3l6.6-6.6 5 5c.4.4 1 .4 1.4 0L27.9 3.5v4.3c0 .6.4 1 1 1s1-.4 1-1V1.1c0-.1 0-.2-.1-.4z" fill="url(#a)"/><path d="M4 18.9l-.8.8c-.4.3-.8.6-1.2.7V30h2V18.9zm6-2.8l-1.6-1.6-.4.4V30h2V16.1zm6 2.1c-.5.5-1.2.7-1.9.7H14V30h2V18.2zm6-6l-2 2V30h2V12.2zm6-1.5c-1-.3-1.7-1.1-2-2V30h2V10.7z" fill="#999"/></svg>