<svg id="Layer_1" xmlns="http://www.w3.org/2000/svg" viewBox="0 0 160 160"><style>.st0{fill:none}</style><g id="Group_11_" transform="translate(543 494)"><circle id="Oval_1_" class="st0" cx="-469.8" cy="-411.8" r="7.7"/><path id="Shape_112_" class="st0" d="M-428.4-436.8h-105.5c-1.1 0-2 .9-2 2v50.9c0 1.6 1.8 2.5 3 1.6l29.1-21.3c.7-.5 1.8-.5 2.3.2l31 27.1c.5.5 1.4.5 2.2.2l40.7-23.9c.5-.4.9-.9.9-1.6v-33.2c.3-1.1-.6-2-1.7-2zm-41.4 39.7c-8.1 0-14.5-6.5-14.5-14.5 0-8.1 6.5-14.5 14.5-14.5s14.5 6.5 14.5 14.5-6.4 14.5-14.5 14.5z"/><linearGradient id="Shape_1_" gradientUnits="userSpaceOnUse" x1="-2172.392" y1="-479.322" x2="-2165.577" y2="-486.137" gradientTransform="matrix(16.2 0 0 -16.2 34665.754 -8234.038)"><stop offset=".006" stop-color="#ffcd0a"/><stop offset="1" stop-color="#f07b29"/></linearGradient><path id="Shape_111_" d="M-469.8-426.4c-8.1 0-14.5 6.5-14.5 14.5 0 8.1 6.5 14.5 14.5 14.5s14.5-6.5 14.5-14.5-6.4-14.5-14.5-14.5zm0 22.3c-4.3 0-7.7-3.4-7.7-7.7 0-4.3 3.4-7.7 7.7-7.7 4.3 0 7.7 3.4 7.7 7.7 0 4.3-3.4 7.7-7.7 7.7z" fill="url(#Shape_1_)"/><linearGradient id="Shape_2_" gradientUnits="userSpaceOnUse" x1="-2173.454" y1="-449.388" x2="-2166.467" y2="-461.259" gradientTransform="matrix(15.8 0 0 -9.3 33812.133 -4646.825)"><stop offset=".006" stop-color="#ffcd0a"/><stop offset="1" stop-color="#f07b29"/></linearGradient><path id="Shape_110_" d="M-429.3-390.9l-28.3 16.7 28.3-16.7z" fill="url(#Shape_2_)"/><linearGradient id="Shape_3_" gradientUnits="userSpaceOnUse" x1="-2173.454" y1="-449.388" x2="-2166.467" y2="-461.259" gradientTransform="matrix(15.8 0 0 -9.3 33812.133 -4646.825)"><stop offset=".006" stop-color="#ffcd0a"/><stop offset="1" stop-color="#f07b29"/></linearGradient><path id="Shape_109_" d="M-429.3-390.9l-28.3 16.7 28.3-16.7z" fill="url(#Shape_3_)"/><linearGradient id="Shape_4_" gradientUnits="userSpaceOnUse" x1="-2172.989" y1="-477.72" x2="-2166.99" y2="-484.889" gradientTransform="matrix(18.4 0 0 -15.4 39432.828 -7802.724)"><stop offset=".006" stop-color="#ffcd0a"/><stop offset="1" stop-color="#f07b29"/></linearGradient><path id="Shape_108_" d="M-468.9-367.5c-.7.4-1.6.4-2.2-.2l-30.9-26.9 31.7 27.6 1.4-.5z" fill="url(#Shape_4_)"/><linearGradient id="Shape_5_" gradientUnits="userSpaceOnUse" x1="-2172.989" y1="-477.72" x2="-2166.99" y2="-484.889" gradientTransform="matrix(18.4 0 0 -15.4 39432.828 -7802.724)"><stop offset=".006" stop-color="#ffcd0a"/><stop offset="1" stop-color="#f07b29"/></linearGradient><path id="Shape_107_" d="M-468.9-367.5c-.7.4-1.6.4-2.2-.2l-30.9-26.9 31.7 27.6 1.4-.5z" fill="url(#Shape_5_)"/><linearGradient id="Shape_6_" gradientUnits="userSpaceOnUse" x1="-2171.297" y1="-506.392" x2="-2169.695" y2="-508.392" gradientTransform="matrix(68.9 0 0 -55.2 149060.89 -28407.375)"><stop offset=".006" stop-color="#ffcd0a"/><stop offset="1" stop-color="#f07b29"/></linearGradient><path id="Shape_106_" d="M-421.4-443.8H-541c-1.1 0-2 .9-2 2v95.1c0 1.1.9 2 2 2h119.6c1.1 0 2-.9 2-2v-95.1c-.2-1.1-.9-2-2-2zm-5 54.7v37.5h-109.5v-19.8l21.7-16 9.9-7.2 1.3-.9 1.1 1.1 30.7 26.5c.5.5 1.4.5 2.2.2l11.3-6.6 28.3-16.5 2.9-1.6v3.2c-.1.1.1.1.1.1zm0-12.5c0 .7-.4 1.3-.9 1.6l-40.7 23.9c-.7.4-1.6.4-2.2-.2l-31-27.1c-.7-.5-1.6-.7-2.3-.2l-29.1 21.2c-1.3.9-3 0-3-1.6v-50.8c0-1.1.9-2 2-2h105.5c1.1 0 2 .9 2 2l-.3 33.2z" fill="url(#Shape_6_)"/><linearGradient id="Shape_7_" gradientUnits="userSpaceOnUse" x1="-2176.959" y1="-367.448" x2="-2156.886" y2="-395.048" gradientTransform="matrix(5.5 0 0 -4 11416.178 -1908.739)"><stop offset=".006" stop-color="#ffcd0a"/><stop offset="1" stop-color="#f07b29"/></linearGradient><path id="Shape_105_" d="M-504.3-394.6l-9.9 7.2 9.9-7.2z" fill="url(#Shape_7_)"/><linearGradient id="Shape_8_" gradientUnits="userSpaceOnUse" x1="-2176.959" y1="-367.448" x2="-2156.886" y2="-395.048" gradientTransform="matrix(5.5 0 0 -4 11416.178 -1908.739)"><stop offset=".006" stop-color="#ffcd0a"/><stop offset="1" stop-color="#f07b29"/></linearGradient><path id="Shape_104_" d="M-504.3-394.6l-9.9 7.2 9.9-7.2z" fill="url(#Shape_8_)"/><linearGradient id="Shape_9_" gradientUnits="userSpaceOnUse" x1="-2194.678" y1="-179.936" x2="-2125.678" y2="-238.041" gradientTransform="matrix(1.6 0 0 -1.9 2995.383 -821.805)"><stop offset=".006" stop-color="#ffcd0a"/><stop offset="1" stop-color="#f07b29"/></linearGradient><path id="Shape_103_" d="M-426.4-389.1v-3.4l-2.9 1.6c1.3-.7 2.9.2 2.9 1.8z" fill="url(#Shape_9_)"/><linearGradient id="Shape_10_" gradientUnits="userSpaceOnUse" x1="-2194.678" y1="-179.936" x2="-2125.678" y2="-238.041" gradientTransform="matrix(1.6 0 0 -1.9 2995.383 -821.805)"><stop offset=".006" stop-color="#ffcd0a"/><stop offset="1" stop-color="#f07b29"/></linearGradient><path id="Shape_102_" d="M-426.4-389.1v-3.4l-2.9 1.6c1.3-.7 2.9.2 2.9 1.8z" fill="url(#Shape_10_)"/><linearGradient id="Shape_11_" gradientUnits="userSpaceOnUse" x1="-2194.678" y1="-179.936" x2="-2125.678" y2="-238.041" gradientTransform="matrix(1.6 0 0 -1.9 2995.383 -821.805)"><stop offset=".006" stop-color="#ffcd0a"/><stop offset="1" stop-color="#f07b29"/></linearGradient><path id="Shape_101_" d="M-426.4-389.1v-3.4l-2.9 1.6c1.3-.7 2.9.2 2.9 1.8z" fill="url(#Shape_11_)"/><linearGradient id="Shape_12_" gradientUnits="userSpaceOnUse" x1="-2178.196" y1="-348.765" x2="-2160.672" y2="-378.603" gradientTransform="matrix(6.3 0 0 -3.7 13178.423 -1742.235)"><stop offset=".006" stop-color="#ffcd0a"/><stop offset="1" stop-color="#f07b29"/></linearGradient><path id="Shape_100_" fill="url(#Shape_12_)" d="M-457.6-374.2l-11.3 6.7z"/><linearGradient id="Shape_13_" gradientUnits="userSpaceOnUse" x1="-2178.196" y1="-348.765" x2="-2160.672" y2="-378.603" gradientTransform="matrix(6.3 0 0 -3.7 13178.423 -1742.235)"><stop offset=".006" stop-color="#ffcd0a"/><stop offset="1" stop-color="#f07b29"/></linearGradient><path id="Shape_99_" fill="url(#Shape_13_)" d="M-457.6-374.2l-11.3 6.7z"/><linearGradient id="Shape_14_" gradientUnits="userSpaceOnUse" x1="-2178.196" y1="-348.765" x2="-2160.672" y2="-378.603" gradientTransform="matrix(6.3 0 0 -3.7 13178.423 -1742.235)"><stop offset=".006" stop-color="#ffcd0a"/><stop offset="1" stop-color="#f07b29"/></linearGradient><path id="Shape_98_" fill="url(#Shape_14_)" d="M-457.6-374.2l-11.3 6.7z"/><linearGradient id="Shape_15_" gradientUnits="userSpaceOnUse" x1="-2218.069" y1="18.065" x2="-2117.705" y2="-82.298" gradientTransform="matrix(1.1 0 0 -1.1 1850.33 -386.592)"><stop offset=".006" stop-color="#ffcd0a"/><stop offset="1" stop-color="#f07b29"/></linearGradient><path id="Shape_97_" d="M-535.8-353.7v2h2c-1.1-.1-2-1-2-2z" fill="url(#Shape_15_)"/><linearGradient id="Shape_16_" gradientUnits="userSpaceOnUse" x1="-2218.069" y1="18.065" x2="-2117.705" y2="-82.298" gradientTransform="matrix(1.1 0 0 -1.1 1850.33 -386.592)"><stop offset=".006" stop-color="#ffcd0a"/><stop offset="1" stop-color="#f07b29"/></linearGradient><path id="Shape_96_" d="M-535.8-353.7v2h2c-1.1-.1-2-1-2-2z" fill="url(#Shape_16_)"/><linearGradient id="Shape_17_" gradientUnits="userSpaceOnUse" x1="-2218.069" y1="18.065" x2="-2117.705" y2="-82.298" gradientTransform="matrix(1.1 0 0 -1.1 1850.33 -386.592)"><stop offset=".006" stop-color="#ffcd0a"/><stop offset="1" stop-color="#f07b29"/></linearGradient><path id="Shape_95_" d="M-535.8-353.7v2h2c-1.1-.1-2-1-2-2z" fill="url(#Shape_17_)"/><linearGradient id="Shape_18_" gradientUnits="userSpaceOnUse" x1="-2223.237" y1="67.353" x2="-2122.874" y2="-33.011" gradientTransform="matrix(1.1 0 0 -1.1 1910.23 -386.592)"><stop offset=".006" stop-color="#ffcd0a"/><stop offset="1" stop-color="#f07b29"/></linearGradient><path id="Shape_94_" d="M-428.4-351.8h2v-2c0 1.1-.9 2-2 2z" fill="url(#Shape_18_)"/><linearGradient id="Shape_19_" gradientUnits="userSpaceOnUse" x1="-2223.237" y1="67.353" x2="-2122.874" y2="-33.011" gradientTransform="matrix(1.1 0 0 -1.1 1910.23 -386.592)"><stop offset=".006" stop-color="#ffcd0a"/><stop offset="1" stop-color="#f07b29"/></linearGradient><path id="Shape_93_" d="M-428.4-351.8h2v-2c0 1.1-.9 2-2 2z" fill="url(#Shape_19_)"/><linearGradient id="Shape_20_" gradientUnits="userSpaceOnUse" x1="-2223.237" y1="67.353" x2="-2122.874" y2="-33.011" gradientTransform="matrix(1.1 0 0 -1.1 1910.23 -386.592)"><stop offset=".006" stop-color="#ffcd0a"/><stop offset="1" stop-color="#f07b29"/></linearGradient><path id="Shape_92_" d="M-428.4-351.8h2v-2c0 1.1-.9 2-2 2z" fill="url(#Shape_20_)"/><linearGradient id="Shape_21_" gradientUnits="userSpaceOnUse" x1="-2195.832" y1="455.048" x2="-2110.909" y2="344.649" gradientTransform="matrix(1.3 0 0 -.6 2302.192 -151.484)"><stop offset=".006" stop-color="#ffcd0a"/><stop offset="1" stop-color="#f07b29"/></linearGradient><path id="Shape_91_" d="M-501.9-394.6l-1.1-1.1-1.3.9c.8-.4 1.8-.4 2.4.2z" fill="url(#Shape_21_)"/><linearGradient id="Shape_22_" gradientUnits="userSpaceOnUse" x1="-2195.832" y1="455.048" x2="-2110.909" y2="344.649" gradientTransform="matrix(1.3 0 0 -.6 2302.192 -151.484)"><stop offset=".006" stop-color="#ffcd0a"/><stop offset="1" stop-color="#f07b29"/></linearGradient><path id="Shape_90_" d="M-501.9-394.6l-1.1-1.1-1.3.9c.8-.4 1.8-.4 2.4.2z" fill="url(#Shape_22_)"/><linearGradient id="Shape_23_" gradientUnits="userSpaceOnUse" x1="-2195.832" y1="455.048" x2="-2110.909" y2="344.649" gradientTransform="matrix(1.3 0 0 -.6 2302.192 -151.484)"><stop offset=".006" stop-color="#ffcd0a"/><stop offset="1" stop-color="#f07b29"/></linearGradient><path id="Shape_89_" d="M-501.9-394.6l-1.1-1.1-1.3.9c.8-.4 1.8-.4 2.4.2z" fill="url(#Shape_23_)"/><linearGradient id="Shape_24_" gradientUnits="userSpaceOnUse" x1="-2174.023" y1="-454.425" x2="-2164.899" y2="-466.169" gradientTransform="matrix(12.1 0 0 -9.4 25734.7 -4696.626)"><stop offset=".006" stop-color="#ffcd0a"/><stop offset="1" stop-color="#f07b29"/></linearGradient><path id="Shape_88_" d="M-535.1-372.2l21-15.2-21.7 16v.9c0-.8.2-1.3.7-1.7z" fill="url(#Shape_24_)"/><linearGradient id="Shape_25_" gradientUnits="userSpaceOnUse" x1="-2174.023" y1="-454.425" x2="-2164.899" y2="-466.169" gradientTransform="matrix(12.1 0 0 -9.4 25734.7 -4696.626)"><stop offset=".006" stop-color="#ffcd0a"/><stop offset="1" stop-color="#f07b29"/></linearGradient><path id="Shape_87_" d="M-535.1-372.2l21-15.2-21.7 16v.9c0-.8.2-1.3.7-1.7z" fill="url(#Shape_25_)"/><linearGradient id="Shape_26_" gradientUnits="userSpaceOnUse" x1="-2174.023" y1="-454.425" x2="-2164.899" y2="-466.169" gradientTransform="matrix(12.1 0 0 -9.4 25734.7 -4696.626)"><stop offset=".006" stop-color="#ffcd0a"/><stop offset="1" stop-color="#f07b29"/></linearGradient><path id="Shape_86_" d="M-535.1-372.2l21-15.2-21.7 16v.9c0-.8.2-1.3.7-1.7z" fill="url(#Shape_26_)"/><linearGradient id="Shape_27_" gradientUnits="userSpaceOnUse" x1="-2170.863" y1="-505.864" x2="-2169.256" y2="-507.864" gradientTransform="matrix(68.7128 0 0 -55.2 148664.516 -28418.176)"><stop offset=".006" stop-color="#ffcd0a"/><stop offset="1" stop-color="#f07b29"/></linearGradient><path id="Shape_85_" d="M-403.4-463.1h-119.5c-1.1 0-2 .9-2 2v10.9h7v-3.9c0-1.1.9-2 2-2h105.3c1.1 0 2 .9 2 2v81.1c0 1.1-.9 2-2 2h-2.5v7h9.5c1.1 0 2-.9 2-2v-95.1c.1-1.2-.8-2-1.8-2z" fill="url(#Shape_27_)"/><linearGradient id="Shape_28_" gradientUnits="userSpaceOnUse" x1="-2170.736" y1="-505.717" x2="-2169.131" y2="-507.717" gradientTransform="matrix(68.8 0 0 -55.2 148864.172 -28429.176)"><stop offset=".006" stop-color="#ffcd0a"/><stop offset="1" stop-color="#f07b29"/></linearGradient><path id="Shape_84_" d="M-385-482.9h-119.5c-1.1 0-2 .9-2 2v10.9h7v-3.9c0-1.1.9-2 2-2H-392c1.1 0 2 .9 2 2v81.1c0 1.1-.9 2-2 2h-2.5v7h9.5c1.1 0 2-.9 2-2v-95.1c0-1.1-.9-2-2-2z" fill="url(#Shape_28_)"/></g></svg>