<?xml version="1.0" encoding="utf-8"?>
<!-- Generator: Adobe Illustrator 16.0.4, SVG Export Plug-In . SVG Version: 6.00 Build 0)  -->
<!DOCTYPE svg PUBLIC "-//W3C//DTD SVG 1.1//EN" "http://www.w3.org/Graphics/SVG/1.1/DTD/svg11.dtd" [
	<!ENTITY ns_extend "http://ns.adobe.com/Extensibility/1.0/">
	<!ENTITY ns_ai "http://ns.adobe.com/AdobeIllustrator/10.0/">
	<!ENTITY ns_graphs "http://ns.adobe.com/Graphs/1.0/">
	<!ENTITY ns_vars "http://ns.adobe.com/Variables/1.0/">
	<!ENTITY ns_imrep "http://ns.adobe.com/ImageReplacement/1.0/">
	<!ENTITY ns_sfw "http://ns.adobe.com/SaveForWeb/1.0/">
	<!ENTITY ns_custom "http://ns.adobe.com/GenericCustomNamespace/1.0/">
	<!ENTITY ns_adobe_xpath "http://ns.adobe.com/XPath/1.0/">
]>
<svg version="1.1" id="Layer_1" xmlns:x="&ns_extend;" xmlns:i="&ns_ai;" xmlns:graph="&ns_graphs;"
	 xmlns="http://www.w3.org/2000/svg" xmlns:xlink="http://www.w3.org/1999/xlink" x="0px" y="0px" width="35px" height="35px"
	 viewBox="0 0 35 35" enable-background="new 0 0 35 35" xml:space="preserve">
<metadata>
	<sfw  xmlns="&ns_sfw;">
		<slices></slices>
		<sliceSourceBounds  bottomLeftOrigin="true" width="35" height="35" x="280" y="192"></sliceSourceBounds>
	</sfw>
</metadata>
<g id="Ebene_2">
	<circle fill="#FCDB51" cx="17.5" cy="17.5" r="16.75"/>
</g>
<g id="Ebene_1">
	<g>
		<path d="M15.716,12.378c-0.047-0.137-0.384,0.016-0.442-0.11c-0.16-0.378,0.117-0.562,0.221-0.833
			c0.927,0.117,1.165-0.753,1.882-0.665c0.197-0.41,0.408-0.808,1.104-0.719c0.395-0.282,0.42-0.999,0.334-1.608
			c0.192,0.025,0.301,0.14,0.44,0.221c0.663-2.099-2.95-2.812-2.488-0.776c0.202,0.097,0.495,0.181,0.61-0.054
			c0.065-0.308-0.249-0.233-0.279-0.444c0.54-0.458,1.341-0.161,1.382,0.444c0.027,0.388-0.383,0.674-0.164,1.108
			c-0.146,0.326-0.77,0.645-1.105,0.276c-0.389,0.416-1.545,0.408-1.44-0.443c-0.624-0.038-1.194-0.769-0.718-1.385
			c-0.459-0.363-0.308-1.398,0.387-1.385c-0.177-0.725,0.357-1.261,1.05-1.109c0.314-0.291,1.038-0.585,1.439-0.166
			c0.518-0.379,1.256-0.161,1.492,0.332c0.759-0.347,1.562,0.356,1.218,1.107c0.674,0.187,1.354,1.025,0.883,1.829
			c0.334,0.254,0.699,0.721,0.5,1.331c0.266-0.075,0.86-0.12,1.049,0.055c0.47-0.502,1.59-0.491,1.936,0.112
			c0.551-0.38,1.536-0.172,1.492,0.665c0.562,0.176,1.2,0.571,0.943,1.385c0.523,0.288,0.763,1.33,0.164,1.719
			c0.47,0.583-0.02,1.333-0.719,1.385c0.12,0.893-0.781,1.34-1.438,0.941c-0.231,0.408-1.2,0.582-1.383,0
			c-0.493,0.28-1.043-0.062-1.215-0.442c0.152-0.741-0.566-1.287,0.056-1.83c0.591-0.167,1.252-0.964,1.881-0.277
			c-0.806,0.481,0.353,1.279,0.662,0.499c0.269-1.59-1.263-1.872-2.543-1.552c0.185,0.185,0.403,0.335,0.551,0.553
			c-0.64,0.018-1.579-0.02-2.045,0.333c0.72,0.205,1.021,1.744,0.222,2.104c-0.336-0.974-1.576-1.043-1.768-2.162
			c-0.34,0.083-0.467,0.428-0.998,0.499c-0.532,0.072-1.065-0.292-1.49-0.221c-0.366,0.061-0.612,0.46-0.887,0.443
			c-0.338-0.022-0.546-0.437-0.607-0.555c0.408-0.053,0.89-0.031,0.994-0.388c-0.724,0.262-2.796,0.828-2.875-0.388
			c-0.026-0.395,0.196-0.752,0.553-0.887C14.703,11.914,14.892,12.464,15.716,12.378z M18.205,11.435
			c0.152,0.208,0.492,0.092,0.553-0.11c0.057,0.11,0.098,0.237,0.221,0.277c0.062-0.505-0.367-0.812-0.828-0.61
			C18.447,11.055,18.193,11.207,18.205,11.435z"/>
		<path d="M8.03,8.941c0.056,0,0.111,0,0.166,0C8.611,9.18,8.944,9.656,9.413,9.829c0.121,0.044,0.272-0.012,0.388,0.056
			c0.296,0.171,0.419,0.557,0.663,0.775c0.643,0.58,1.558,0.929,1.935,1.662c0.722,0.119,0.818,0.87,1.106,1.663
			c0.326,0.899,0.174,1.269,0.112,2.105c-0.14,0.075-0.25,0.275-0.444,0.277c-0.812,0.003-0.583-1.492-0.83-2.216
			c-0.312-0.92-1.687-1.973-2.268-2.604c-0.27-0.026-0.647,0.058-0.829-0.056c-0.155-0.171,0.03-0.337,0.111-0.444
			c-0.48,0-0.959,0-1.438,0c-0.338-0.31-0.498-0.964-0.388-1.55c0.07-0.077,0.26-0.077,0.332,0C7.895,9.286,7.98,9.132,8.03,8.941z
			 M8.085,9.662c0.348,0.083,0.734,0.57,1.051,0.332C8.912,9.628,8.487,9.464,8.14,9.218C8.107,9.351,8.062,9.471,8.085,9.662z
			 M8.085,10.882c0.311-0.022,0.579-0.087,0.941-0.057c-0.013-0.8-0.833-0.791-1.328-1.108C7.707,10.227,7.79,10.66,8.085,10.882z"
			/>
		<path d="M19.809,13.153c0.028,0.95,1.482,0.707,1.271,1.717c-0.173,0.088-0.352,0.166-0.497,0.278
			c0.044,0.208-0.067,0.264-0.054,0.442c-0.477,0.19-0.486,0.842-0.997,0.998c0.022,0.391-0.122,0.615-0.276,0.833
			c0.865,1.129,2.828,1.154,3.706,2.271c0.718-0.17,1.052-0.724,1.052-1.608c0.186-0.185,0.327-0.407,0.329-0.775
			c0.16-0.099,0.228-0.29,0.558-0.22c-0.043-0.28,0.096-0.381,0.164-0.556c0.506,0.146,0.715-0.564,1.16-0.665
			c0.127-0.028,0.197,0.113,0.445,0.111c0.305-0.003,0.477-0.262,0.661-0.223c0.25,0.055,0.364,0.337,0.387,0.61
			c0.197,0.118,0.449,0.176,0.554,0.388c-0.07,0.521-0.338,0.484-0.164,1.052c-0.295,0.296-0.748,0.437-0.887,0.886
			c-0.187,0.037-0.283,0.16-0.551,0.111c-0.137,0.362-0.396,0.604-0.941,0.557c-0.149,0.582-0.709,0.303-1.104,0.386
			c-0.442,0.096-0.827,0.665-1.44,0.444c0.002,0.221,0.364,0.558,0.334,0.998c0.211,0.047,0.369,0.147,0.551,0.223
			c0.018,0.164,0.174,0.195,0.111,0.443c0.092,0.021,0.446,0.049,0.555,0.222c0.082,0.175,0.02,0.243,0,0.442
			c0.33,0.142,0.615-0.354,1.049-0.113c0.126,1.762,0.6,3.455,1.715,4.382c-0.064,0.209-0.374,0.175-0.441,0.385
			c0.522,1.269-0.447,1.774-1.328,2.106c-0.209-0.271-0.287-0.121-0.719-0.109c0.073-0.777,0.088-1.615,0.662-1.885
			c0.348-1.297-0.29-2.627-0.938-3.436c-0.269,0.373-0.588,1.115-1.273,0.719c-0.236,0.375-1.109,0.479-1.326,0
			c-0.744,0.701-1.093-0.164-2.101,0c-0.319,0.053-0.729,0.441-1.218,0.113c-0.619,0.58-1.264-0.171-1.991,0.273
			c0.111,0.396,0.488,0.533,0.331,1.055c-1.014,0.629-2.55,0.615-3.372,1.439c-0.252,0.251-0.287,0.627-0.665,0.777
			c-0.234-0.009-0.108-0.373-0.331-0.391c-0.457,0.061-0.18,0.854-0.331,1.221c-0.337,0.387-1.321,0.514-1.936,0.277
			c-0.04-0.173,0.058-0.203,0.055-0.333c-0.257,0.019-0.436-0.041-0.608-0.11c0.337-0.553,0.773-1,1.494-1.164
			c0.188-0.16,0.265-0.435,0.387-0.664c0.884-0.082,1.525-0.449,2.212-0.83c0.458-0.256,1.113-0.418,1.272-0.945
			c-0.69-0.102-1.086-0.496-1.659-0.721c0.215-0.688-0.449-1.01-0.444-1.439c0.006-0.391,0.513-0.48,0.332-1.051
			c0.386-0.428,0.936-0.688,1.272-1.166c0.203,0.02,0.488-0.045,0.608,0.057c0.101-0.156,0.168-0.349,0.331-0.443
			c0.811,0.188,1.144,0.011,1.937,0.057c-0.953-0.43-2.163-0.604-2.875-1.273c-0.895,0.768-1.251-0.469-2.046-0.609
			c-0.065-0.154-0.061-0.383-0.056-0.61c-0.374-0.416-1.068-0.557-1.713-0.719c-0.613-0.153-1.396-0.481-1.935-0.442
			c-1.044,0.071-0.995,1.499-1.714,1.992c-0.234,0.124-0.389-0.107-0.553-0.221c-0.232,0.281-0.067,0.647,0,1.053
			C6.4,20.107,6.006,20.49,5.27,20.523c-0.094-0.053-0.142-0.152-0.11-0.332c-0.24,0-0.48,0-0.719,0
			c0.01-0.512,0.562-1.018,0.885-1.385c0.245-0.279,0.233-0.601,0.553-0.721c0.133-0.051,0.336-0.035,0.552-0.109
			c1.209-0.417,1.984-2.312,3.097-2.217c0.218,0.02,0.306,0.195,0.497,0.277c0.859,0.374,1.964,0.249,3.042,0.555
			c0.294-0.11,0.423-0.389,0.773-0.444c-0.188-0.725,0.094-1.211,0.774-1.219c0.09-0.262,0.21-0.491,0.388-0.666
			c0.419-0.021,0.775-0.109,0.995-0.331c0.649,0.182,0.91-0.429,1.659-0.222c0.229-0.031,0.323-0.194,0.499-0.278
			C18.923,13.559,19.244,13.234,19.809,13.153z M4.768,20.023c0.042-0.127,0.309-0.021,0.443-0.056
			c0.083-0.323,0.22-0.594,0.276-0.942c-0.013-0.045-0.047-0.065-0.11-0.06C5.102,19.216,4.773,19.693,4.768,20.023z M5.708,19.082
			c-0.095,0.424-0.298,0.734-0.331,1.221c0.562-0.045,0.852-0.367,1.217-0.609c-0.047-0.211-0.095-0.426-0.111-0.666
			C6.164,19.031,5.882,19.078,5.708,19.082z M25.229,28.945c0.156-0.012,0.229-0.103,0.385-0.109
			c0.076-0.462,0.183-0.891,0.277-1.333C25.223,27.534,25.363,28.376,25.229,28.945z M26.057,27.615
			c-0.058,0.498-0.189,0.914-0.277,1.385c0.605-0.215,1.586-0.657,1.053-1.497C26.7,27.707,26.18,27.553,26.057,27.615z
			 M10.242,28.779c0.825,0.125,0.875-0.527,1.272-0.832C10.868,28.002,10.64,28.475,10.242,28.779z M10.794,29.223
			c0.562,0.109,1.142-0.017,1.493-0.277c0-0.258,0-0.516,0-0.776C11.439,27.865,11.148,28.704,10.794,29.223z"/>
	</g>
</g>
<path id="border" fill="#CCCCCC" d="M17.5,1C26.6,1,34,8.402,34,17.5C34,26.6,26.6,34,17.5,34C8.402,34,1,26.6,1,17.5
	C1,8.402,8.402,1,17.5,1 M17.5,0C7.835,0,0,7.835,0,17.5S7.835,35,17.5,35S35,27.165,35,17.5S27.165,0,17.5,0L17.5,0z"/>
</svg>
