<?xml version="1.0" encoding="utf-8"?>
<!-- Generator: Adobe Illustrator 16.0.4, SVG Export Plug-In . SVG Version: 6.00 Build 0)  -->
<!DOCTYPE svg PUBLIC "-//W3C//DTD SVG 1.1//EN" "http://www.w3.org/Graphics/SVG/1.1/DTD/svg11.dtd" [
	<!ENTITY ns_extend "http://ns.adobe.com/Extensibility/1.0/">
	<!ENTITY ns_ai "http://ns.adobe.com/AdobeIllustrator/10.0/">
	<!ENTITY ns_graphs "http://ns.adobe.com/Graphs/1.0/">
	<!ENTITY ns_vars "http://ns.adobe.com/Variables/1.0/">
	<!ENTITY ns_imrep "http://ns.adobe.com/ImageReplacement/1.0/">
	<!ENTITY ns_sfw "http://ns.adobe.com/SaveForWeb/1.0/">
	<!ENTITY ns_custom "http://ns.adobe.com/GenericCustomNamespace/1.0/">
	<!ENTITY ns_adobe_xpath "http://ns.adobe.com/XPath/1.0/">
]>
<svg version="1.1" id="Layer_1" xmlns:x="&ns_extend;" xmlns:i="&ns_ai;" xmlns:graph="&ns_graphs;"
	 xmlns="http://www.w3.org/2000/svg" xmlns:xlink="http://www.w3.org/1999/xlink" x="0px" y="0px" width="35px" height="35px"
	 viewBox="0 0 35 35" enable-background="new 0 0 35 35" xml:space="preserve">
<metadata>
	<sfw  xmlns="&ns_sfw;">
		<slices></slices>
		<sliceSourceBounds  bottomLeftOrigin="true" width="35" height="35" x="280" y="192"></sliceSourceBounds>
	</sfw>
</metadata>
<g id="Ebene_4">
	<g>
		<path fill="#EA3648" d="M17.5,0.997c-0.012,0-0.023,0.002-0.036,0.002c0.054,10.901-0.051,21.944-0.006,33.003
			c0.015,0,0.028,0.002,0.042,0.002c9.111,0,16.502-7.39,16.502-16.504C34.002,8.385,26.611,0.997,17.5,0.997z"/>
		<path fill="#EA3648" d="M10.319,15.342c-0.476,3.924-0.931,7.867-1.397,11.799c0.637-0.469,1.172-1.49,1.864-2.08
			c0.476,1.549,0.891,3.162,1.452,4.627c0.445-1.56,0.913-3.104,1.397-4.627c0.65,0.703,1.218,1.481,1.864,2.186
			c-0.466-3.969-0.979-7.891-1.398-11.903C12.839,15.342,11.58,15.342,10.319,15.342z"/>
		<path fill="#EA3648" d="M8.824,14.729c2.256,0,4.514,0,6.771,0c0-0.474,0-0.949,0-1.425c-2.258,0-4.516,0-6.771,0
			C8.824,13.78,8.824,14.255,8.824,14.729z"/>
		<path fill="#EA3648" d="M8.611,8.326c0.208-0.401,0.95-0.438,1.347-0.311c1.35,0.439,0.997,3.355,0.62,4.677
			c1.071,0,2.142,0,3.21,0c0.022-3.595-0.89-7.21-4.455-6.86C8.476,5.915,7.512,6.389,7.057,6.975c-0.801,1.03-0.958,3.144,0,4.105
			c0.519,0.519,1.812,0.829,2.693,0.208C10.919,10.464,10.436,7.941,8.611,8.326z"/>
	</g>
</g>
<path fill="#FFFFFF" d="M28.691,12.718c0-1.028,0-2.055,0-3.082c-3.735,0-7.474,0-11.208,0c-0.003,0-0.002,0.004-0.004,0.005
	c0.002-2.889,0-5.771-0.015-8.642C8.368,1.018,0.998,8.398,0.998,17.5c0,9.102,7.366,16.479,16.46,16.502
	c-0.011-2.729-0.013-5.454-0.01-8.178c3.75,0,7.496,0,11.244,0c0-1.027,0-2.053,0-3.082c-3.733,0-7.471,0-11.208,0
	c-0.018,0.002-0.022,0.019-0.03,0.031c0.002-1.168,0.004-2.338,0.007-3.504c3.744,0,7.486,0,11.23,0c0-1.025,0-2.055,0-3.083
	c-3.735,0-7.474,0-11.208,0c-0.01,0.001-0.01,0.013-0.017,0.018c0.003-1.165,0.004-2.327,0.006-3.489
	C21.213,12.718,24.951,12.718,28.691,12.718z M7.057,11.081c-0.958-0.962-0.801-3.076,0-4.105C7.512,6.39,8.476,5.915,9.335,5.832
	c3.563-0.351,4.477,3.266,4.454,6.86c-1.069,0-2.14,0-3.21,0c0.377-1.321,0.729-4.239-0.62-4.677
	C9.563,7.887,8.82,7.924,8.612,8.326c1.825-0.385,2.307,2.138,1.139,2.964C8.869,11.91,7.575,11.6,7.057,11.081z M13.633,25.062
	c-0.485,1.521-0.952,3.065-1.397,4.627c-0.56-1.467-0.975-3.08-1.451-4.627c-0.691,0.59-1.227,1.609-1.864,2.08
	c0.467-3.935,0.923-7.877,1.397-11.801c1.261,0,2.52,0,3.779,0c0.421,4.016,0.933,7.936,1.398,11.903
	C14.851,26.543,14.283,25.766,13.633,25.062z M15.595,14.729c-2.258,0-4.516,0-6.771,0c0-0.474,0-0.949,0-1.425
	c2.256,0,4.514,0,6.771,0C15.595,13.78,15.595,14.255,15.595,14.729z"/>
<path id="border" fill="#CCCCCC" d="M17.5,1C26.6,1,34,8.402,34,17.5C34,26.6,26.6,34,17.5,34C8.402,34,1,26.6,1,17.5
	C1,8.402,8.402,1,17.5,1 M17.5,0C7.835,0,0,7.835,0,17.5S7.835,35,17.5,35S35,27.165,35,17.5S27.165,0,17.5,0L17.5,0z"/>
</svg>
