<?xml version="1.0" encoding="utf-8"?>
<!-- Generator: Adobe Illustrator 16.0.4, SVG Export Plug-In . SVG Version: 6.00 Build 0)  -->
<!DOCTYPE svg PUBLIC "-//W3C//DTD SVG 1.1//EN" "http://www.w3.org/Graphics/SVG/1.1/DTD/svg11.dtd" [
	<!ENTITY ns_extend "http://ns.adobe.com/Extensibility/1.0/">
	<!ENTITY ns_ai "http://ns.adobe.com/AdobeIllustrator/10.0/">
	<!ENTITY ns_graphs "http://ns.adobe.com/Graphs/1.0/">
	<!ENTITY ns_vars "http://ns.adobe.com/Variables/1.0/">
	<!ENTITY ns_imrep "http://ns.adobe.com/ImageReplacement/1.0/">
	<!ENTITY ns_sfw "http://ns.adobe.com/SaveForWeb/1.0/">
	<!ENTITY ns_custom "http://ns.adobe.com/GenericCustomNamespace/1.0/">
	<!ENTITY ns_adobe_xpath "http://ns.adobe.com/XPath/1.0/">
]>
<svg version="1.1" id="Layer_1" xmlns:x="&ns_extend;" xmlns:i="&ns_ai;" xmlns:graph="&ns_graphs;"
	 xmlns="http://www.w3.org/2000/svg" xmlns:xlink="http://www.w3.org/1999/xlink" x="0px" y="0px" width="35px" height="35px"
	 viewBox="0 0 35 35" enable-background="new 0 0 35 35" xml:space="preserve">
<metadata>
	<sfw  xmlns="&ns_sfw;">
		<slices></slices>
		<sliceSourceBounds  bottomLeftOrigin="true" width="35" height="35" x="280" y="192"></sliceSourceBounds>
	</sfw>
</metadata>
<g id="Ebene_4" display="none">
	<circle display="inline" fill="#40CFFF" cx="17.5" cy="17.5" r="17.5"/>
</g>
<g id="Ebene_2" display="none">
</g>
<g id="Ebene_3">
	<g>
		<path fill="#2CB75E" d="M5.17,5.17C2.014,8.326,0.062,12.685,0.062,17.5c0,9.63,7.808,17.438,17.438,17.438
			c4.814,0,9.175-1.951,12.331-5.104L5.17,5.17z"/>
		<path fill="#FFFFFF" d="M17.5,0.062c-4.815,0-9.174,1.952-12.33,5.107L29.831,29.83c3.155-3.156,5.106-7.516,5.106-12.331
			C34.938,7.87,27.13,0.062,17.5,0.062z"/>
	</g>
</g>
<g id="Ebene_1">
	<path fill="#63531A" d="M6.956,20.396c0.369,0,0.736,0,1.104,0C8.033,20.48,7.166,20.492,6.956,20.396z"/>
	<path fill="#107C3A" d="M6.846,20.616c0.221,0.034,0.586-0.072,0.718,0.056C7.341,20.637,6.977,20.742,6.846,20.616z"/>
	<path fill="#777777" d="M13.083,11.216c0.207,0.16,0.392,0.344,0.553,0.55C13.428,11.606,13.245,11.423,13.083,11.216z"/>
	<path fill="#D1D1D1" d="M24.676,13.085c0.245,0.197,0.467,0.417,0.661,0.659C25.096,13.547,24.874,13.328,24.676,13.085z"/>
	<path fill="#010202" d="M15.402,6.709c-0.026-0.393,0.141-0.593,0.165-0.934c-0.07-0.235-0.273,0.003-0.498-0.055
		c0.144-0.404,0.722-0.378,0.995-0.111c0.185-0.053,0.257-0.219,0.441-0.273c-0.013-0.227-0.187-0.29-0.22-0.496
		c0.609-0.16,1.547,1.351,1.435-0.11c0.557,0.311,0.668,0.849,0.497,1.65c0.385,0.087,0.482-0.399,0.661-0.331
		c0.007,0.939-0.647,1.221-1.599,1.208c-0.051,1.003,0.425,1.484,0.883,1.979c0.247-0.047,0.454-0.133,0.771-0.11
		c0.106-0.005-0.086-0.204,0.057-0.274c0.542-0.009,1.087-0.019,1.435,0.166c0.104-0.154,0.104-0.41,0.222-0.551
		c-0.356-0.659-1.022-1.28-0.771-2.363c0.154-0.083,0.348-0.134,0.605-0.11c-0.168,0.745,0.182,1.12,0.662,1.704
		c0.233,0.283,0.668,0.878,0.719,0.879c0.429,0.015,0.613-1.217-0.057-1.32c-0.117,0.122-0.25,0.226-0.33,0.386
		c-0.015-0.274-0.019-0.753-0.056-1.155c0.244-0.234,0.646-0.309,0.886-0.549c0.256,0.166,0.487,0.353,0.715,0.549
		c0.227,0.038,0.315-0.052,0.496-0.055c0.674,0.413,1.191,0.976,1.711,1.54c0.123,0.115-0.004,0.177-0.053,0.274
		c1.062,0.16,1.025,1.626-0.275,1.485c-0.114,1.077-0.739,1.645-1.326,2.253c-0.045-0.156,0.078-0.143,0.056-0.276
		c-0.126,0.076-0.176,0.227-0.274,0.331c0.455,0.337,0.873,0.709,1.324,1.044c0.197,0.242,0.42,0.462,0.66,0.659
		c0.493,0.648,1.077,1.203,1.438,1.979c1.078,0.399,1.017,2.206,2.483,2.034c-0.356-2.677-2.807-4.241-3.091-6.871
		c-0.104-0.935,0.298-1.571,0.714-2.198c0.251-0.372,0.847-1.002,0.831-1.43c-0.013-0.362-0.379-0.504-0.387-0.769
		c0.746,0.193,1.99,1.462,1.877,2.475c-0.111,0.996-1.139,1.517-1.987,1.922c-0.087,1.596,0.87,2.476,1.548,3.628
		c0.553,0.946,1.291,2.083,1.27,3.132c-0.016,0.77-0.385,1.164-1.383,1.046c-0.176-0.155-0.444-0.215-0.604-0.387
		c0.099,1.021,0.22,2.021,1.325,2.033c-0.062,1.605-0.145,3.195-0.885,4.124c-0.452,0.114-0.784,0.354-0.938,0.769
		c-0.514,0.035-1.135-0.082-1.051,0.662c-0.127-0.232-0.25-0.726-0.105-1.047c-0.313-0.092-0.414-0.394-0.662-0.55
		c-0.26-0.054-0.336,0.071-0.5,0.111c0.033-0.315,0.23-0.468,0.334-0.718c-0.074-0.272-0.551-0.321-0.832-0.219
		c0.129-0.428,0.49-0.615,1.049-0.604c0.107-0.137,0.121-0.361,0.111-0.605c-0.137-0.082-0.334-0.105-0.555-0.109
		c0.641-0.504,1.756-0.074,1.771,0.717c0.277-0.17,0.492-0.896,0.274-1.377c-0.454-1.003-2.735-1.52-2.481-3.135
		c-0.777,0.106-0.993,0.772-0.938,1.705c-2.28-0.073-3.889-0.817-4.97-2.088c-0.656-0.023-0.727-0.635-1.05-0.988
		c0.131,0,0.257,0,0.387,0c0-0.202,0-0.403,0-0.605c-0.089-0.174-0.495-0.116-0.662-0.053c0.204-0.557,0.944-0.457,1.547-0.496
		c0.08-0.392-0.374-0.252-0.389-0.55c0.791-0.293,0.896,0.527,1.491,0.604c0.197-0.034-0.018-0.309,0.056-0.548
		c1.054,0.026,0.675,1.282,0.222,1.648c0.156,0.564,1.03,1.086,1.654,0.658c0.045-1.001,0.357-1.73,1.546-1.592
		c-1.377-1.394-4.885-0.672-6.458-1.87c-0.168-0.04-0.201,0.056-0.331,0.055c-1.231-0.716-2.334-1.561-3.368-2.474
		c-0.161-0.206-0.346-0.39-0.553-0.55c-0.615-0.762-1.75-1.004-2.152-1.979c-0.215-0.225-0.604-0.277-1.049-0.273
		c0.283-0.233,0.783-0.249,1.27-0.276c0.111-0.459-0.179-0.993-0.772-0.934c0.378-0.32,1.393-0.004,1.545-0.551
		c-0.113-0.198-0.291-0.332-0.497-0.439c0.721-0.131,1.263,0.392,1.656,0.77c0.234,0.013,0.357-0.084,0.553-0.108
		c-0.003-0.182-0.093-0.275-0.055-0.496c0.246-0.076,0.583,0.534,0.552,0.88c-0.05,0.561-0.796,0.645-0.885,1.099
		c0.472,1.107,1.876,1.284,2.982,1.76c-0.113-1.208-0.741-1.902-0.828-3.134C15.402,7.258,15.402,6.984,15.402,6.709z M17.169,5.609
		c-0.097-0.232-0.263-0.397-0.496-0.494c-0.002,0.13,0.093,0.162,0.055,0.33c-0.332,0.125-0.631,0.595-0.993,0.218
		c0.062,0.449-0.227,0.838-0.111,1.155C15.965,6.243,16.746,6.105,17.169,5.609z M16.782,6.215
		c-0.876,0.169-1.516,1.014-1.048,2.033c0.622-0.826,0.851-2.046,2.207-2.143c0.116-0.161,0.26-0.523,0.11-0.769
		C17.651,5.436,17.097,5.845,16.782,6.215z M21.751,8.798c-0.442-0.785-1.204-1.255-1.489-2.199
		c-0.049-0.138,0.106-0.473-0.111-0.439C19.682,7.295,20.805,8.592,21.751,8.798z M25.229,8.467
		c-0.224-0.106-0.492-0.168-0.553-0.438c0.037-0.096,0.262,0.004,0.278-0.111c-0.599-0.444-0.909-1.361-1.935-1.209
		c-0.26-0.162-0.447-0.397-0.715-0.549c-0.186,0.184-0.482,0.255-0.723,0.384c-0.037,0.204,0.098,0.236,0.057,0.44
		c0.487,0.18,0.922,0.519,0.828,1.099c-0.05,0.312-0.574,0.902-0.771,0.935c-0.444,0.07-0.594-0.438-0.938-0.441
		c0.015,0.198-0.101,0.266-0.11,0.441c0.717,0.449,1.346,1.605,2.317,1.539c0.784-0.055,1.027-1.1,1.382-1.759
		c0.141-0.064,0.186-0.22,0.385-0.22C24.954,8.572,25.646,8.622,25.229,8.467z M15.789,8.467c0.415,0.668,0.39,1.773,0.884,2.364
		c0.192-0.357,0.468-0.632,0.828-0.823c-0.185,0-0.37,0-0.554,0c0.224-0.347,0.663-0.479,0.994-0.716
		c-0.461-0.518-1.041-1.19-0.827-2.198c0.515-0.093,1.449-0.059,1.379-0.55c-0.31,0.231-0.448-0.173-0.606-0.276
		C16.626,6.443,16.423,7.67,15.789,8.467z M29.148,20.943c0-0.146,0-0.291,0-0.438c-1.334-0.108-1.012-1.332-1.379-2.419
		c-0.194-0.572-0.596-0.893-0.662-1.319c0.66,0.676,0.928,1.986,2.373,1.704c0.297-0.272,0.398-0.697,0.332-1.208
		c-0.127-0.94-0.836-1.964-1.383-2.859c-0.654-1.077-1.643-2.155-1.38-3.736c1.146-0.199,2.438-1.401,1.656-2.639
		c-0.171,0.49-0.067,1.249-0.771,1.208c0.517-0.495,0.744-1.907-0.058-2.253c0.045,0.136,0.071,0.293,0.058,0.494
		c-0.603,1.112-1.793,1.917-1.547,3.573c0.159,1.1,0.918,2.214,1.489,3.188c0.565,0.966,1.747,2.407,1.49,3.682
		c-1.726,0.323-1.615-1.65-2.761-2.088c-0.365-0.753-0.896-1.341-1.437-1.924c-0.198-0.242-0.419-0.462-0.661-0.659
		c-0.396-0.395-0.842-0.739-1.328-1.044c-0.207,0.159-0.389,0.344-0.552,0.549c-0.308,0.261-0.616,0.52-0.993,0.714
		c-0.705-0.125-0.91,0.505-1.712,0.44c-0.257,0-0.516,0-0.772,0c-0.172,0.027-0.215-0.079-0.33-0.11
		c-0.008-0.11,0.375-0.255,0.109-0.275c-0.664,0.04-1.488-0.057-1.544-0.439c0.638-0.004,0.87-0.43,0.662-0.99
		c-0.639-1.719-5.739-1.166-5.188-4.452c-0.195-0.229-0.369-0.477-0.719-0.55c0.009,0.227-0.125,0.314-0.221,0.439
		c0.205,0.348,0.585,0.914,0.276,1.431c0.074-0.624-0.253-0.849-0.441-1.21c-0.202,0-0.405,0-0.607,0
		c0.128,0.221,0.23,0.942,0.662,1.044c-0.181,0.208-0.689-0.062-0.938,0.166c0.585,0.553,0.935,1.341,1.877,1.538
		c1.157,1.433,2.654,2.525,4.252,3.518c0.219-0.093,0.581-0.044,0.883-0.055c0.076,0.125,0.387,0.021,0.553,0.055
		c0.084,0.009,0.205-0.02,0.223,0.055c-0.369,0.016-0.738,0.034-0.994,0.165c2.309,0.762,5.656,0.487,7.01,2.199
		c-0.043-0.141-0.121-0.533,0-0.66c0.205,0.31,0.391,0.641,0.331,1.209c0.038,0.275-0.071,0.693,0.058,0.879
		c-0.334,2.668,2.795,2.17,2.598,4.562c-0.277,0.299-0.262,0.713-0.664,0.821c-0.544,0.146-1.337-0.504-1.82,0
		c0.461,0.33,1.321,0.26,1.768,0.606c-0.428-0.047-1.262-0.207-1.381,0.22c0.396,0.024,0.56,0.286,0.719,0.548
		c0.379-0.172,0.648-0.745,1.27-0.492c-0.432,0.176-1.097,0.408-0.939,0.988c0.185-0.127,0.607-0.02,0.886-0.055
		c-0.013-0.561,0.521-0.582,0.882-0.771c0.45-0.729,0.688-1.66,0.719-2.805C29.219,21.419,29.111,21.113,29.148,20.943z
		 M13.857,7.479c-0.136-0.022-0.388,0.31-0.774,0.22C12.974,8,13.013,8.506,13.195,8.688C13.324,8.229,14.263,8.122,13.857,7.479z
		 M19.377,13.524c-0.079,0.048-0.175,0.083-0.164,0.22c1.432,0.142,2.191-0.676,2.758-1.208c-0.082,0.229-0.24,0.381-0.273,0.659
		c0.943-0.637,1.8-1.359,2.154-2.583c0.035,0.239-0.074,0.621,0.057,0.77c0.4-0.513,0.749-1.085,0.883-1.87
		c0.465,0.044,0.736-0.106,0.988-0.275c0.031-0.229-0.026-0.373-0.105-0.495c-0.335,0-0.665,0-0.996,0
		c-0.564,0.597-0.662,1.826-1.547,1.978c-1.544,0.269-1.967-1.966-3.752-1.647C19.37,9.155,19.4,9.275,19.324,9.292
		c-0.188,0.035-0.514-0.07-0.607,0.055c-0.504,0.065-0.958,0.185-1.214,0.496c0.188-0.023,0.315,0.016,0.275,0.219
		c-0.305,0.301-0.841,0.372-0.883,0.934c0.925,0.172,2.042,1.539,0.938,2.254c0.265-0.043,0.354,0.086,0.606,0.055
		C18.616,13.496,19.707,13.172,19.377,13.524z M19.322,15.503c0.15,0.154-0.006,0.47-0.109,0.551
		c-0.387,0.068-0.816-0.204-1.05,0.055c0.558-0.041,0.206,0.82,0.497,1.044c-0.105,0.025-0.332-0.075-0.277,0.11
		c0.016,0.388,0.299,0.51,0.663,0.549c0.405,0.495,0.894,0.907,1.489,1.209c-0.174-1.126-1.465-1.849-0.661-3.133
		C19.665,15.821,19.527,15.392,19.322,15.503z M23.793,19.68c0.018-0.826,0.324-1.359,1.051-1.48c0-0.257,0-0.513,0-0.77
		c-0.535-0.201-1.061-0.409-1.326-0.879c0.334-0.001,0.683-0.016,0.94,0.055c0.019-0.369-0.735-0.441-1.329-0.385
		c-0.875,0.084-0.348,1.538-1.048,1.759c-0.696,0.222-1.71-0.405-1.655-1.044c0.027-0.321,0.98-1.077,0.109-1.429
		c0.076,0.167,0.089,0.454-0.055,0.551c-0.146,0-0.295,0-0.441,0c-0.84,1.265,0.691,1.792,0.662,3.08
		c0.781,0.283,1.498,0.633,2.482,0.713c0.096,0.125,0.422,0.021,0.607,0.055C23.793,19.829,23.793,19.755,23.793,19.68z
		 M26.169,22.156c-0.171-0.2-0.101,0.301-0.11,0.439c0.041,0.165-0.097,0.159-0.055,0.326c0.454-0.064,0.549,0.223,0.992,0.164
		c-0.098-0.288-0.244-0.523-0.33-0.82C26.486,22.24,26.365,22.161,26.169,22.156z"/>
	<path fill="#FFD730" d="M15.623,6.819c-0.115-0.317,0.173-0.707,0.111-1.155c0.362,0.377,0.661-0.093,0.993-0.218
		c0.039-0.168-0.057-0.2-0.055-0.33c0.233,0.096,0.399,0.262,0.496,0.494C17.521,5.997,16.287,7.595,15.623,6.819z"/>
	<path fill="#FFD730" d="M18.053,5.335c0.148,0.246,0.004,0.608-0.111,0.769c-0.782,0.183-1.702,3.404-2.207,2.143
		c-0.468-1.019,0.172-1.863,1.048-2.033C17.097,5.845,17.651,5.436,18.053,5.335z"/>
	<path fill="#FFD730" d="M24.73,8.578c-0.201,0-0.246,0.156-0.388,0.22c-0.353,0.66-0.596,1.705-1.38,1.759
		c-0.975,0.067-1.604-1.09-2.316-1.539c0.011-0.175,0.125-0.243,0.109-0.441c0.346,0.003,0.493,0.511,0.938,0.441
		c0.197-0.033,0.724-0.623,0.771-0.935c0.094-0.581-0.341-0.919-0.828-1.099c0.041-0.204-0.094-0.237-0.057-0.44
		c0.238-0.129,0.537-0.2,0.723-0.384c0.266,0.152,0.455,0.387,0.713,0.549c1.025-0.152,1.336,0.765,1.937,1.209
		c-0.019,0.115-0.241,0.015-0.278,0.111c0.062,0.27,0.329,0.333,0.553,0.438C25.188,8.628,24.775,8.418,24.73,8.578z M23.352,7.039
		c0.037,0.272-0.187,0.291-0.108,0.605c0.219,0.112,0.432,0.23,0.771,0.219C23.947,7.437,23.727,7.161,23.352,7.039z"/>
	<path fill="#63531A" d="M24.73,8.578c0.045-0.16,0.455,0.051,0.496-0.11C25.646,8.622,24.954,8.572,24.73,8.578z"/>
	<path fill="#FFD730" d="M17.887,6.268c0.158,0.103,0.298,0.507,0.606,0.276c0.069,0.491-0.864,0.458-1.379,0.55
		c-0.214,1.008,0.366,1.68,0.827,2.198c-0.331,0.237-0.77,0.369-0.994,0.716c0.184,0,0.369,0,0.554,0
		c-0.36,0.191-0.636,0.466-0.828,0.823c-0.494-0.59-0.469-1.696-0.884-2.364C16.423,7.67,16.626,6.443,17.887,6.268z"/>
	<path fill="#B79A23" d="M24.514,13.25c0.242,0.197,0.463,0.417,0.661,0.659C24.93,13.713,24.708,13.493,24.514,13.25z"/>
	<path fill="#63531A" d="M22.634,12.755c0.163-0.206,0.345-0.39,0.552-0.549C23.025,12.413,22.844,12.595,22.634,12.755z"/>
	<path fill="#FFD730" d="M25.175,13.91c0.538,0.583,1.069,1.17,1.437,1.924c1.146,0.438,1.035,2.412,2.761,2.088
		c0.257-1.275-0.925-2.716-1.49-3.682c-0.571-0.975-1.329-2.088-1.489-3.188c-0.246-1.656,0.944-2.46,1.547-3.573
		c0.016-0.201-0.012-0.358-0.058-0.494c0.802,0.346,0.572,1.758,0.058,2.253c0.703,0.041,0.602-0.718,0.771-1.208
		c0.781,1.238-0.513,2.439-1.655,2.639c-0.264,1.581,0.725,2.659,1.379,3.736c0.547,0.895,1.256,1.919,1.383,2.859
		c0.066,0.512-0.035,0.935-0.332,1.208c-1.445,0.281-1.713-1.029-2.373-1.705c0.066,0.427,0.468,0.747,0.662,1.319
		c0.367,1.087,0.045,2.312,1.379,2.419c0,0.146,0,0.291,0,0.438c-0.125,0.078-0.021,0.385-0.055,0.551
		c-0.029,1.146-0.27,2.078-0.72,2.805c-0.362,0.188-0.896,0.211-0.882,0.771c-0.277,0.035-0.701-0.072-0.885,0.055
		c-0.157-0.58,0.508-0.812,0.938-0.988c-0.618-0.253-0.89,0.32-1.271,0.492c-0.157-0.262-0.318-0.523-0.717-0.548
		c0.117-0.427,0.951-0.267,1.379-0.22c-0.442-0.348-1.307-0.276-1.767-0.606c0.484-0.504,1.277,0.146,1.821,0
		c0.402-0.108,0.387-0.522,0.664-0.821c0.197-2.395-2.93-1.896-2.596-4.562c-0.039-0.275,0.069-0.695-0.06-0.879
		c0.06-0.569-0.126-0.9-0.331-1.209c-0.119,0.126-0.043,0.519,0,0.66c-1.354-1.712-4.699-1.437-7.01-2.199
		c0.256-0.13,0.625-0.148,0.994-0.165c-0.02-0.075-0.141-0.046-0.223-0.055c-0.076-0.126-0.383-0.021-0.553-0.055
		c-0.302,0.011-0.664-0.038-0.883,0.055c-1.598-0.993-3.095-2.085-4.252-3.518c-0.942-0.197-1.292-0.985-1.877-1.538
		c0.249-0.229,0.758,0.042,0.938-0.166c-0.432-0.102-0.534-0.824-0.662-1.044c0.203,0,0.405,0,0.607,0
		c0.188,0.362,0.516,0.586,0.441,1.21c0.309-0.517-0.071-1.083-0.276-1.431c0.096-0.125,0.229-0.212,0.221-0.439
		c0.351,0.073,0.524,0.32,0.719,0.55c-0.551,3.286,4.549,2.733,5.188,4.452c0.208,0.56-0.021,0.985-0.662,0.99
		c0.058,0.382,0.883,0.479,1.547,0.439c0.264,0.02-0.117,0.166-0.111,0.275c0.115,0.031,0.158,0.137,0.332,0.11
		c0.131,0.09,0.643,0.09,0.771,0c0.804,0.065,1.009-0.566,1.711-0.44c0.378-0.194,0.688-0.453,0.994-0.714
		c0.21-0.16,0.394-0.343,0.552-0.549c0.486,0.306,0.932,0.649,1.328,1.044C24.708,13.493,24.93,13.713,25.175,13.91z"/>
	<path fill="#63531A" d="M18.438,13.306c0.388,0,0.774,0,1.16,0c-0.05,0.096-0.125,0.17-0.222,0.219
		C19.707,13.172,18.616,13.496,18.438,13.306z"/>
	<path fill="#FFD730" d="M19.322,9.292c0.074-0.017,0.046-0.137,0.055-0.219c1.785-0.318,2.208,1.916,3.752,1.647
		c0.885-0.152,0.98-1.381,1.547-1.978c0.331,0,0.661,0,0.996,0c0.079,0.122,0.139,0.266,0.107,0.495
		c-0.252,0.169-0.525,0.319-0.99,0.275c-0.135,0.784-0.48,1.356-0.883,1.87c-0.129-0.149-0.021-0.531-0.057-0.77
		c-0.354,1.224-1.211,1.947-2.154,2.583c0.033-0.278,0.193-0.431,0.275-0.659c-0.566,0.533-1.328,1.351-2.76,1.208
		c-0.011-0.138,0.085-0.172,0.164-0.22c0.098-0.049,0.172-0.123,0.223-0.219c-0.387,0-0.773,0-1.16,0
		c-0.254,0.031-0.345-0.099-0.606-0.055c1.104-0.716-0.013-2.082-0.938-2.254c0.042-0.562,0.578-0.633,0.883-0.934
		c0.04-0.204-0.088-0.243-0.275-0.219c0.256-0.311,0.71-0.43,1.214-0.496C18.9,9.312,19.227,9.418,19.322,9.292z"/>
	<path fill="#010202" d="M6.846,20.616c-0.575-0.882-0.83-2.378-0.995-3.738c-0.069-0.582,0.075-1.323-0.44-1.648
		c-0.284-0.579-0.085-1.638-0.443-2.144c0.245-0.232,0.282-0.84,0.167-1.265c0.246,0.141,0.491,0.282,0.662,0.496
		c0.326-0.204,0.194-0.68,0.054-0.989c0.228-0.179,0.468,0.553,0.719,0.714c0.073-0.057,0.204-0.053,0.276-0.111
		c-0.054-0.349-0.206-0.603-0.331-0.879c0.534,0.458,0.898,1.083,1.104,1.869c0.234-0.042,0.246-0.305,0.331-0.495
		c0.346,0.346,0.108,1.143-0.166,1.374c-0.271,0.061-0.61,0.052-0.829,0.165c0.146,1.227,0.547,2.203,1.049,3.079
		c0.457-1.826,0.022-3.772,0.442-5.333c-0.042-0.123-0.31-0.021-0.442-0.054c0.087-0.134,0.198-0.244,0.332-0.33
		c0.242-0.003,0.341,0.137,0.497,0.22c0.252-0.168,0.365-0.572,0.11-0.826c0.527-0.211,0.656,0.445,1.049,0.551
		c0.163-0.131-0.067-0.333-0.055-0.494c0.427-0.11,0.686,0.89,0.773,1.483c0.258,0.037,0.205-0.235,0.276-0.385
		c0.897,0.716-0.229,1.717-0.994,1.814c0,0.074,0,0.147,0,0.22c-0.092,0.096-0.092,0.565,0,0.659
		c0.007,0.798,0.252,1.362,0.387,2.034c0.243,0.088,0.46,0.201,0.717,0.275c0.538-0.681-0.897-1.766-0.11-2.693
		c0.166,0,0.331,0,0.497,0c-0.175,0.563,0.085,1.387,0.386,1.815c0.219-0.381,0.21-0.667,0.11-1.156
		c0.131-0.272,0.52-0.29,0.663-0.548c0.306,0.062,0.42,0.315,0.664,0.438c0.169,0.042,0.105-0.15,0.276-0.108
		c0.722,0.452,1.334,1.015,1.71,1.813c0.852,0.093,0.815,1.344-0.055,1.374c-0.057,0.916-0.662,1.283-1.049,1.867
		c-0.118,0.028-0.106-0.076-0.111-0.16c-0.127,0.072-0.178,0.225-0.276,0.326c1.076,0.869,2.54,1.357,3.367,2.475
		c1.986,0.402,2.988,1.789,4.747,2.418c0.104-0.447-0.241-0.822-0.496-1.043c-0.474-0.411-1.267-0.862-1.987-1.213
		c-0.744-0.354-1.582-0.537-2.098-1.043c-0.638-0.627-0.812-1.348-1.271-2.194c-0.234-0.136-0.485-0.251-0.827-0.272
		c0.643-0.424,2.306-0.134,2.76,0.272c0.488,0.438,0.62,1.169,0.663,1.922c1.397,1.062,3.366,1.56,4.25,3.134
		c0.114,0.979-0.437,1.377-1.104,1.318c-1.021-0.092-2.035-1.311-2.812-1.594c0.439,0.75,1.263,1.602,2.429,1.812
		c-0.078,1.553-1.063,2.201-1.655,3.243c-0.484,0.159-0.869,0.419-1.158,0.771c-0.396,0.008-0.917-0.105-0.884,0.328
		c-0.249-0.099-0.268-0.43-0.275-0.769c-0.364-0.171-0.564,0.175-0.883,0.22c0.018-0.404,0.219-0.625,0.331-0.936
		c-0.117-0.194-0.382-0.242-0.719-0.219c0.029-0.742,0.827-0.72,1.271-1.045c-0.148-0.164-0.52-0.104-0.718-0.223
		c0.749-0.749,1.654,0.102,1.711,0.882c0.51-0.114,0.594-0.653,0.605-1.266c-0.695-0.698-2.151-0.644-2.595-1.597
		c-0.651,0.141-1.238,0.347-1.766,0.605c-0.256,0.91,0.231,1.32,0.717,1.648c-0.805,1.031-1.988,1.686-3.589,1.925
		c-0.312,0-0.625,0-0.938,0c-0.472-0.212-0.962-0.048-1.38-0.165c-0.311-0.088-0.504-0.562-0.883-0.329
		c0.08-0.179,0.27-0.244,0.442-0.331c-0.117-0.141-0.279-0.236-0.277-0.493c-0.244-0.024-0.456,0.276-0.551,0.218
		c0.039-0.617,0.6-0.72,0.993-0.986c0.031-0.271-0.347-0.133-0.551-0.166c0.126-0.586,0.891-0.438,1.38-0.273
		c0.077-0.334-0.263-0.252-0.221-0.552c0.396-0.312,0.823,0.129,0.993,0.386c0.013,0.288,0,0.551-0.055,0.771
		c0.411,0.541,1.628,0.18,1.987-0.163c-0.095-0.621-0.594-0.839-0.883-1.265c0.038-1.854,1.768-2.017,2.982-2.695
		c-1.99-0.774-4.892-0.252-6.294-1.648c-0.359-0.357-0.543-0.732-0.993-1.043C7.432,20.544,7.067,20.65,6.846,20.616z
		 M12.366,15.559c-0.167,0.163-0.343,0.317-0.442,0.55c0.183,0.146,0.224,0.436,0.387,0.604
		C12.584,16.413,13.023,15.746,12.366,15.559z M8.723,12.481c0.301-0.214,0.534-0.496,0.938-0.605
		c-0.044-0.408,0.01-0.785-0.386-0.935c0.166,0.426-0.315,0.978-0.663,0.716c0.039,0.349-0.123,0.5-0.166,0.769
		c-0.121,0.007-0.023,0.232-0.055,0.33C8.574,12.736,8.63,12.59,8.723,12.481z M10.379,11.602c0.022-0.133-0.102-0.12-0.056-0.275
		c-0.204,0.016-0.197,0.241-0.496,0.165c-0.042,0.226,0.085,0.281,0.055,0.495c-0.847,0.271-1.783,0.991-1.379,2.144
		c0.879-0.425,1.089-1.518,1.932-1.979C10.399,11.984,10.503,11.678,10.379,11.602z M6.349,12.206
		c-0.007-0.141-0.103-0.193-0.166-0.276c-0.226,0.369,0.08,0.644,0,0.935c-0.307-0.152-0.427-0.491-0.772-0.604
		c-0.244,0.945-0.014,1.901,0.164,2.858c0.105,0.099,0.257,0.147,0.333,0.275c0.252,1.745,0.348,3.649,0.993,5.002
		c0.019,0,0.037,0,0.055,0c0.21,0.096,1.077,0.084,1.104,0c-0.056-0.157-0.421-0.201-0.276-0.388
		c1.362-0.267,0.553-1.612,0.442-2.419c-0.662-0.815-1.32-2.002-1.436-3.188c-0.116-1.18,0.911-1.525,0.221-2.417
		c-0.041,0.161-0.173,0.231-0.389,0.22c-0.111,0.272,0.034,0.801-0.219,0.934c-0.064-0.009-0.06-0.086-0.055-0.165
		C6.439,12.845,6.439,12.336,6.349,12.206z M10.158,16.494c-0.272-0.797-0.508-1.907-0.331-2.97c0.478-0.166,0.93-0.356,1.269-0.659
		c-0.06-0.28,0.151-0.488-0.055-0.604c0.038,0.184-0.093,0.201-0.221,0.22c-1.298-0.13-1.25,1.533-2.263,1.869
		c-0.093,0.786-0.287,1.473-0.276,2.363c-0.092,0.06-0.092,0.493,0,0.55c0.027,0.065,0.059,0.124,0.11,0.164
		c0.051-0.096,0.173-0.12,0.332-0.109c0.042-0.188-0.225-0.07-0.166-0.274c0.37-0.145,0.672-0.36,1.104-0.441
		C9.812,16.584,10.351,16.673,10.158,16.494z M7.84,13.03c-0.08,0.239-0.342,0.016-0.442-0.055c-0.14,0.192-0.419,0.534-0.331,0.769
		c0.108-0.13,0.366-0.112,0.607-0.11C7.77,13.509,7.96,13.19,7.84,13.03z M11.262,14.35c-0.398,0.001-0.302,0.555-0.276,0.823
		c0.079,0.842,0.634,1.375,1.104,1.65C11.845,16,11.081,15.416,11.262,14.35z M13.636,14.844c-0.175-0.008-0.185,0.146-0.388,0.11
		c-0.353-0.39-0.618-0.482-1.048-0.11c-0.043,0.226,0.085,0.283,0.055,0.496c1.197,0.165,0.419,1.598-0.219,1.813
		c-0.292-0.094-0.304-0.469-0.609-0.55c-0.007,0.102-0.036,0.184-0.11,0.221c0.402,0.633,0.787,1.615,1.547,1.76
		c1.08,0.2,1.531-0.871,1.987-1.595c0.123-0.19,0.594-0.032,0.772-0.165c-0.241-0.254-0.765-0.229-0.938-0.55
		c-0.01-0.121,0.194-0.025,0.275-0.056C14.6,15.68,14.131,15.25,13.636,14.844z M9.385,16.988c-0.178-0.013-0.234,0.098-0.441,0.056
		c0.021,0.199,0.327,0.114,0.221,0.438c-0.28-0.005-0.576-0.023-0.718,0.11c-0.171,0.488,0.341,0.807,0.387,1.211
		c0.07,0.609-0.262,1.062-0.718,1.374c0.504,0.449,1.248,0.663,2.152,0.712c-0.041,0.163-0.297,0.108-0.275,0.334
		c1.383,0.148,2.09-0.668,2.705-1.102c-0.029,0.188-0.147,0.291-0.166,0.495c0.929-0.377,1.377-1.232,1.823-2.089
		c0.048,0.232-0.169,0.488,0,0.66c0.256-0.461,0.716-0.717,0.662-1.486c0.273-0.167,0.735-0.147,0.719-0.603
		c-0.24,0-0.479,0-0.719,0c-0.437,1.03-1.62,2.25-2.705,1.429c-0.746-0.564-1.035-1.812-2.318-1.758
		c-0.191,0.088,0.345,0.196,0.166,0.274c-0.104,0.011-0.122-0.062-0.221-0.056C9.877,16.896,9.444,16.896,9.385,16.988z
		 M9.937,21.385c-0.17,0.008-0.307-0.023-0.387-0.109c-0.01-0.094,0.313-0.217,0.056-0.221c-0.714-0.029-1.066-0.621-1.767-0.492
		c0.679,1.16,1.825,1.699,3.422,1.979c1.413,0.245,2.966,0.224,4.141,0.771c0.046-0.195-0.281-0.305-0.165-0.387
		c0.406,0.008,0.429,0.266,0.552,0.494c0.366,0.686,0.569,1.615,1.158,2.146c0.592,0.529,2.132,0.524,2.319,1.265
		c0.149,0.592-0.289,1.356-0.718,1.428c-0.679,0.116-0.916-0.483-1.711-0.383c-0.146,0.131-0.333,0.218-0.387,0.438
		c0.58,0.138,0.66,0.229,1.27,0.056c0.006,0.142,0.215,0.079,0.221,0.22c-0.436,0.137-0.987,0.152-1.048,0.66
		c0.416-0.117,0.883-0.027,1.212-0.165c-0.021,0.325-0.539,0.159-0.439,0.606c0.068-0.025,0.572-0.09,0.883-0.059
		c0.256-0.35,0.664-0.549,1.104-0.714c0.533-0.954,1.406-1.567,1.548-2.914c-1.441-0.469-2.375-1.446-2.929-2.804
		c0.752,0.551,2.312,1.857,3.258,2.145c1.529,0.463,1.246-1.107,0.662-1.703c-0.95-0.975-2.689-1.477-3.697-2.363
		c-0.07-0.989-0.299-1.829-1.104-2.088c-0.051,0.181,0.768,0.594,0.276,0.879c-0.358-0.541-0.854-1.237-1.712-1.098
		c0.735,0.641,0.82,1.668,1.547,2.359c0.528,0.508,1.403,0.646,2.099,0.988c0.688,0.34,1.469,0.822,1.932,1.209
		c0.334,0.281,1.109,1.346,0.275,1.431c-0.394,0.04-1.539-0.876-1.986-1.151c-0.654-0.408-1.422-0.953-2.042-1.154
		c-0.209-0.068-0.486-0.049-0.607-0.11c-0.272-0.138-0.506-0.492-0.772-0.716c-0.863-0.727-1.82-1.194-2.76-1.758
		c-0.417,0.322-0.968,1.02-1.6,0.768c-0.312,0.314-0.769,0.482-1.326,0.551C10.452,21.385,10.195,21.385,9.937,21.385z
		 M11.096,27.925c-0.911,0.046-0.077-1.604-0.938-1.428c0.112,0.054,0.12,0.211,0.11,0.386c-0.047,0.172-0.303,0.137-0.331,0.328
		c-0.074,1.008,0.872,1.029,1.435,1.43c0.214,0.151,0.403,0.518,0.607,0.551c0.475,0.084,1.373-0.362,1.823-0.604
		c0.586-0.312,1.06-0.727,1.38-1.099c-0.651-0.192-0.9-0.835-0.718-1.704c0.465-0.436,1.304-0.498,1.877-0.825
		c-0.148-0.165-0.214-0.409-0.331-0.604c-0.552-0.06-0.97-0.244-1.27-0.551c0.272-0.076,0.559-0.143,0.827-0.22
		c-0.676-0.181-2.001,0.438-2.759,0.987c-0.443,0.322-0.821,0.812-0.719,1.486c0.363,0.389,0.878,0.627,0.828,1.428
		c-0.342,0.229-0.7,0.438-1.27,0.438C11.464,27.925,11.279,27.925,11.096,27.925z M9.771,27.047
		c-0.163-0.021-0.448-0.209-0.552-0.109C9.493,27,9.385,27.499,9.275,27.652c0.123,0.043,0.299,0.033,0.332,0.166
		c0.007,1.109,0.902,1.63,2.097,1.373C11.1,28.438,9.63,28.544,9.771,27.047z M17.335,27.157c0.111,0.069,0.331,0.034,0.331,0.219
		c-0.013,0.208-0.174,0.269-0.221,0.44c0.302,0.012,0.418,0.207,0.718,0.222C18.012,27.654,17.9,26.943,17.335,27.157z
		 M8.999,27.652c-0.08,0.14-0.334,0.104-0.387,0.271c0.566-0.028,0.358,0.708,0.995,0.604c-0.068-0.205-0.119-0.43-0.167-0.656
		C9.208,27.883,9.208,27.665,8.999,27.652z M9.164,28.807c0.165,0.096,0.44,0.365,0.717,0.164c-0.134-0.066-0.178-0.227-0.22-0.385
		C9.486,28.65,9.284,28.688,9.164,28.807z"/>
	<path fill="#63531A" d="M8.446,12.426c0,0.091,0,0.184,0,0.274c0.112-0.016,0.108-0.149,0.221-0.164
		c0.003-0.034,0.008-0.065,0.055-0.055C8.63,12.59,8.573,12.736,8.39,12.755C8.423,12.658,8.325,12.433,8.446,12.426z"/>
	<path fill="#FFD730" d="M8.446,12.426c0.042-0.269,0.204-0.42,0.166-0.769c0.348,0.262,0.829-0.29,0.663-0.716
		c0.396,0.15,0.661,0.683,0.706,1.092c-0.406,0.109-1.086,1.15-1.544,1.198c-0.047-0.009,0.234-0.729,0.231-0.695
		c-0.113,0.015-0.109,0.148-0.221,0.164C8.446,12.609,8.446,12.517,8.446,12.426z"/>
	<path fill="#FFD730" d="M10.434,12.151c-0.005,0.263-1.435,3.121-1.932,1.979c-0.403-1.152,0.532-1.873,1.379-2.144
		c0.03-0.214-0.097-0.269-0.055-0.495c0.299,0.077,0.292-0.148,0.496-0.165c-0.045,0.155,0.079,0.142,0.056,0.275
		C10.413,11.768,10.308,12.075,10.434,12.151z"/>
	<path fill="#FFD730" d="M6.349,12.976c-0.005,0.078-0.01,0.155,0.055,0.165c0.253-0.133,0.108-0.662,0.219-0.934
		c0.216,0.011,0.348-0.059,0.389-0.22c0.69,0.892-0.337,1.238-0.221,2.417c0.116,1.186,0.774,2.373,1.436,3.188
		c0.111,0.805,0.92,2.152-0.442,2.419c-0.146,0.185,0.22,0.229,0.276,0.386c-0.368,0-0.735,0-1.104,0c-0.019,0-0.036,0-0.055,0
		c-0.645-1.354-0.74-3.255-0.993-5c-0.076-0.127-0.228-0.176-0.333-0.275c-0.178-0.958-0.408-1.913-0.164-2.858
		c0.345,0.113,0.466,0.452,0.772,0.604c0.08-0.291-0.226-0.566,0-0.935c0.063,0.083,0.159,0.135,0.166,0.276
		C6.349,12.462,6.349,12.719,6.349,12.976z"/>
	<path fill="#FFD730" d="M8.281,16.713c-0.011-0.89,0.183-1.577,0.276-2.363c1.014-0.336,0.965-2,2.263-1.869
		c0.128-0.02,0.259-0.037,0.221-0.22c0.206,0.117-0.005,0.325,0.055,0.604c-0.339,0.303-0.791,0.494-1.269,0.659
		c-0.177,1.062,0.059,2.172,0.331,2.97c0,0.019,0,0.037,0,0.055c-0.149,0.033-0.438-0.07-0.497,0.054
		c-0.433,0.082-0.734,0.297-1.104,0.441c-0.059,0.204,0.208,0.086,0.166,0.274c-0.159-0.01-0.28,0.014-0.332,0.109
		c-0.051-0.04-0.083-0.099-0.11-0.164C8.281,17.08,8.281,16.896,8.281,16.713z"/>
	<path fill="#FFD730" d="M7.674,13.635c-0.242-0.002-0.499-0.021-0.607,0.11c-0.088-0.235,0.191-0.577,0.331-0.769
		c0.1,0.071,0.363,0.293,0.442,0.055C7.96,13.19,7.77,13.509,7.674,13.635z"/>
	<path fill="#FFD730" d="M14.961,16.218c-0.081,0.031-0.286-0.065-0.275,0.056c0.173,0.321,0.696,0.296,0.938,0.55
		c-0.179,0.133-0.65-0.025-0.772,0.165c-0.456,0.724-0.907,1.795-1.987,1.595c-0.76-0.145-1.145-1.126-1.547-1.76
		c0.075-0.037,0.103-0.119,0.11-0.221c0.305,0.082,0.316,0.456,0.609,0.55c0.639-0.215,1.416-1.648,0.219-1.813
		c0.03-0.213-0.099-0.27-0.055-0.496c0.431-0.372,0.696-0.28,1.048,0.11c0.203,0.036,0.212-0.119,0.388-0.11
		C14.131,15.25,14.6,15.68,14.961,16.218z M13.636,15.34c0.047,0.266-0.158,0.282-0.11,0.548c0.202,0.128,0.436,0.226,0.717,0.275
		C14.193,15.735,14.01,15.442,13.636,15.34z"/>
	<path fill="#010202" d="M14.243,16.163c-0.281-0.049-0.516-0.146-0.717-0.275c-0.047-0.267,0.157-0.282,0.11-0.548
		C14.01,15.442,14.193,15.735,14.243,16.163z"/>
	<path fill="#FFD730" d="M19.874,15.888c0.041,1.304,2.459,4.101,0.661,3.133c-0.596-0.304-1.084-0.715-1.489-1.209
		c-0.364-0.039-0.647-0.161-0.663-0.549c-0.055-0.185,0.172-0.085,0.277-0.11c-0.291-0.224,0.061-1.085-0.497-1.044
		c0.231-0.258,0.663,0.014,1.05-0.055c0.104-0.081,0.26-0.397,0.109-0.551C19.527,15.392,19.665,15.821,19.874,15.888z"/>
	<path fill="#FFD730" d="M23.186,19.846c-0.984-0.08-1.703-0.429-2.482-0.712c0.027-1.287-1.502-1.814-0.662-3.08
		c0.146,0,0.295,0,0.439,0c0.146-0.097,0.131-0.383,0.057-0.551c0.871,0.352-0.082,1.108-0.109,1.429
		c-0.055,0.639,0.959,1.266,1.655,1.044c0.7-0.221,0.173-1.674,1.048-1.759c0.596-0.057,1.348,0.016,1.329,0.385
		c-0.26-0.071,0.521,0.34,0.188,0.341c0.265,0.471,0.119,0.229,0.199,0.483c0,0.257,0,0.513,0,0.77
		c-0.729,0.123-1.033,0.656-1.053,1.482c-0.062,0.012-0.045,0.102-0.057,0.166C23.555,19.846,23.37,19.846,23.186,19.846z"/>
	<path fill="#63531A" d="M23.186,19.846c0.187,0,0.369,0,0.553,0c0.012-0.062-0.008-0.154,0.057-0.166c0,0.075,0,0.149,0,0.221
		C23.605,19.866,23.279,19.971,23.186,19.846z"/>
	<path fill="#FFD730" d="M9.937,16.988c0.099-0.007,0.117,0.067,0.221,0.056c0.179-0.079-0.356-0.187-0.166-0.274
		c1.283-0.055,1.572,1.193,2.318,1.757c1.085,0.82,2.269-0.397,2.705-1.428c0.24,0,0.479,0,0.719,0
		c0.016,0.455-0.446,0.436-0.719,0.603c0.054,0.771-0.406,1.026-0.662,1.485c-0.169-0.172,0.048-0.427,0-0.66
		c-0.445,0.855-0.894,1.713-1.823,2.09c0.019-0.204,0.137-0.307,0.166-0.495c-0.614,0.435-1.322,1.25-2.705,1.103
		c-0.021-0.227,0.234-0.172,0.275-0.334c-0.904-0.05-1.648-0.264-2.152-0.713c0.456-0.312,0.788-0.765,0.718-1.373
		c-0.046-0.404-0.558-0.724-0.387-1.212c0.142-0.133,0.438-0.115,0.718-0.11c0.106-0.324-0.2-0.239-0.221-0.438
		c0.208,0.042,0.263-0.068,0.441-0.056C9.57,16.988,9.753,16.988,9.937,16.988z"/>
	<path fill="#FFD730" d="M10.71,21.385c0.558-0.068,1.014-0.234,1.326-0.551c0.632,0.252,1.184-0.443,1.6-0.768
		c0.94,0.562,1.897,1.031,2.76,1.758c0.266,0.224,0.5,0.578,0.772,0.716c0.122,0.062,0.398,0.042,0.607,0.11
		c0.622,0.201,1.388,0.746,2.043,1.154c0.447,0.275,1.594,1.191,1.986,1.151c0.832-0.085,0.059-1.147-0.277-1.431
		c-0.461-0.387-1.241-0.869-1.932-1.209c-0.691-0.342-1.566-0.48-2.098-0.988c-0.727-0.693-0.812-1.723-1.547-2.361
		c0.857-0.14,1.354,0.559,1.712,1.1c0.489-0.285-0.328-0.698-0.276-0.879c0.806,0.258,1.033,1.099,1.104,2.088
		c1.008,0.889,2.747,1.391,3.696,2.363c0.586,0.596,0.869,2.166-0.662,1.702c-0.945-0.282-2.506-1.593-3.256-2.144
		c0.553,1.355,1.484,2.335,2.928,2.804c-0.143,1.347-1.016,1.96-1.547,2.914c-0.439,0.165-0.85,0.362-1.104,0.714
		c-0.312-0.031-0.814,0.031-0.883,0.059c-0.098-0.447,0.419-0.281,0.439-0.606c-0.331,0.138-0.796,0.048-1.212,0.165
		c0.061-0.508,0.612-0.523,1.048-0.66c-0.006-0.141-0.215-0.078-0.221-0.22c-0.61,0.176-0.689,0.082-1.27-0.056
		c0.053-0.223,0.241-0.31,0.387-0.438c0.795-0.103,1.032,0.499,1.711,0.383c0.429-0.069,0.867-0.836,0.72-1.428
		c-0.188-0.738-1.729-0.734-2.321-1.265c-0.589-0.529-0.792-1.461-1.158-2.146c-0.123-0.229-0.146-0.486-0.552-0.494
		c-0.116,0.082,0.211,0.188,0.165,0.387c-1.175-0.549-2.728-0.523-4.141-0.771c-1.597-0.278-2.743-0.817-3.422-1.979
		c0.701-0.129,1.052,0.463,1.767,0.492c0.257,0.004-0.066,0.127-0.056,0.221c0.08,0.086,0.216,0.117,0.387,0.109
		C10.068,21.479,10.579,21.479,10.71,21.385z"/>
	<path fill="#FFD730" d="M11.648,27.925c0.569-0.001,0.927-0.21,1.27-0.438c0.05-0.801-0.464-1.038-0.828-1.428
		c-0.102-0.675,0.276-1.164,0.719-1.485c0.757-0.55,2.083-1.169,2.759-0.987c-0.269,0.077,0.413,0.139,0.14,0.213
		c0.299,0.311,0.242,0.172,0.303,0.559c0.117,0.192,0.183,0.438,0.331,0.604c-0.573,0.327-1.412,0.391-1.877,0.825
		c-0.183,0.87,0.067,1.512,0.718,1.704c-0.32,0.373-0.793,0.785-1.38,1.099c-0.45,0.241-1.348,0.688-1.823,0.604
		c-0.204-0.034-0.387,0.066-0.601-0.084c-0.563-0.399-1.515-0.889-1.441-1.896c0.028-0.189,0.283-0.154,0.331-0.328
		c0.01-0.175,0.002-0.332-0.11-0.386c0.861-0.176,0.027,1.476,0.938,1.428C11.155,28.02,11.589,28.02,11.648,27.925z"/>
	<path fill="#FFD730" d="M11.703,29.189c-1.195,0.256-2.09-0.264-2.097-1.373c-0.033-0.131-0.209-0.123-0.332-0.164
		c0.109-0.155,0.218-0.654-0.056-0.717c0.104-0.1,0.39,0.088,0.552,0.109"/>
	<path fill="#FFD730" d="M9.44,27.872c0.048,0.228,0.099,0.451,0.166,0.657c-0.637,0.104-0.429-0.635-0.995-0.604
		c0.052-0.167,0.307-0.133,0.387-0.272C9.208,27.665,9.208,27.883,9.44,27.872z"/>
	<path fill="#E2403E" d="M20.15,6.16c0.218-0.034,0.062,0.301,0.108,0.439c0.286,0.944,1.048,1.414,1.49,2.199
		C20.805,8.592,19.682,7.295,20.15,6.16z"/>
	<path fill="#1B1A0D" d="M15.402,6.709c0,0.275,0,0.549,0,0.824C15.311,7.384,15.311,6.857,15.402,6.709z"/>
	<path fill="#010202" d="M24.014,7.863c-0.341,0.011-0.554-0.107-0.771-0.219c-0.076-0.314,0.146-0.333,0.108-0.605
		C23.727,7.161,23.947,7.437,24.014,7.863z"/>
	<path fill="#FFD730" d="M13.195,8.688C13.013,8.506,12.974,8,13.083,7.698c0.386,0.09,0.638-0.242,0.774-0.22
		C14.263,8.122,13.324,8.229,13.195,8.688z"/>
	<path fill="#63531A" d="M18.715,9.347c0.096-0.125,0.422-0.02,0.607-0.055C19.227,9.418,18.9,9.312,18.715,9.347z"/>
	<path fill="#1B1A0D" d="M10.379,11.602c0.125,0.076,0.02,0.383,0.055,0.549C10.308,12.075,10.413,11.768,10.379,11.602z"/>
	<path fill="#1B1A0D" d="M6.349,12.206c0.09,0.13,0.09,0.639,0,0.77C6.349,12.719,6.349,12.462,6.349,12.206z"/>
	<path fill="#63531A" d="M17.887,13.965c0.169,0.034,0.476-0.071,0.552,0.055C18.271,13.985,17.963,14.09,17.887,13.965z"/>
	<path fill="#124526" d="M9.992,13.91c0,0.22,0,0.44,0,0.659C9.9,14.475,9.9,14.005,9.992,13.91z"/>
	<path fill="#E2403E" d="M12.09,16.823c-0.47-0.275-1.025-0.808-1.104-1.65c-0.026-0.268-0.122-0.822,0.276-0.823
		C11.081,15.416,11.845,16,12.09,16.823z"/>
	<path fill="#1B1A0D" d="M9.661,16.603c0.059-0.124,0.347-0.021,0.497-0.054c0-0.018,0-0.036,0-0.055
		C10.351,16.673,9.812,16.584,9.661,16.603z"/>
	<path fill="#63531A" d="M9.385,16.988c0.06-0.092,0.493-0.092,0.552,0C9.753,16.988,9.57,16.988,9.385,16.988z"/>
	<path fill="#1B1A0D" d="M8.281,16.713c0,0.183,0,0.367,0,0.55C8.189,17.206,8.189,16.773,8.281,16.713z"/>
	<path fill="#63531A" d="M29.148,20.943c-0.037,0.17,0.068,0.476-0.057,0.551C29.13,21.328,29.023,21.021,29.148,20.943z"/>
	<path fill="#1B1A0D" d="M26.059,22.596c0.01-0.139-0.061-0.64,0.11-0.438C26.007,22.18,26.219,22.57,26.059,22.596z"/>
	<path fill="#FFD730" d="M26.169,22.156c0.196,0.005,0.317,0.084,0.497,0.109c0.086,0.297,0.232,0.532,0.33,0.82
		c-0.443,0.059-0.538-0.229-0.992-0.164c-0.042-0.167,0.096-0.161,0.055-0.326C26.219,22.57,26.007,22.18,26.169,22.156z"/>
	<path fill="#1B1A0D" d="M11.096,27.925c0.184,0,0.369,0,0.552,0C11.589,28.02,11.155,28.02,11.096,27.925z"/>
	<path fill="#FFD730" d="M18.163,28.038c-0.3-0.015-0.416-0.21-0.718-0.222c0.047-0.172,0.208-0.232,0.221-0.44
		c0-0.185-0.22-0.147-0.331-0.219C17.9,26.943,18.012,27.654,18.163,28.038z"/>
	<path fill="#FFD730" d="M9.661,28.586c0.042,0.158,0.086,0.316,0.22,0.385c-0.277,0.201-0.552-0.068-0.717-0.164
		C9.284,28.688,9.486,28.65,9.661,28.586z"/>
	<path fill="#1B1A0D" d="M10.875,29.411c0.313,0,0.626,0,0.938,0C11.627,29.502,11.062,29.502,10.875,29.411z"/>
	<path fill="#1B1A0D" d="M19.156,13.91c0.257,0,0.516,0,0.771,0C19.799,14,19.287,14,19.156,13.91z"/>
	<path display="none" fill="#1B1A0D" d="M22.882,17.133c0.093,0.132,0.015,0.434,0.04,0.631
		C22.83,17.631,22.908,17.331,22.882,17.133z"/>
	<path display="none" fill="#1B1A0D" d="M12.079,20.285c0.185,0,0.369,0,0.554,0C12.539,20.352,12.172,20.352,12.079,20.285z"/>
</g>
<path id="border" fill="#CCCCCC" d="M17.5,1C26.6,1,34,8.401,34,17.5C34,26.6,26.6,34,17.5,34C8.402,34,1,26.6,1,17.5
	C1,8.401,8.402,1,17.5,1 M17.5,0C7.835,0,0,7.835,0,17.5S7.835,35,17.5,35S35,27.165,35,17.5S27.165,0,17.5,0L17.5,0z"/>
</svg>
