<?xml version="1.0" encoding="utf-8"?>
<!-- Generator: Adobe Illustrator 16.0.4, SVG Export Plug-In . SVG Version: 6.00 Build 0)  -->
<!DOCTYPE svg PUBLIC "-//W3C//DTD SVG 1.1//EN" "http://www.w3.org/Graphics/SVG/1.1/DTD/svg11.dtd" [
	<!ENTITY ns_extend "http://ns.adobe.com/Extensibility/1.0/">
	<!ENTITY ns_ai "http://ns.adobe.com/AdobeIllustrator/10.0/">
	<!ENTITY ns_graphs "http://ns.adobe.com/Graphs/1.0/">
	<!ENTITY ns_vars "http://ns.adobe.com/Variables/1.0/">
	<!ENTITY ns_imrep "http://ns.adobe.com/ImageReplacement/1.0/">
	<!ENTITY ns_sfw "http://ns.adobe.com/SaveForWeb/1.0/">
	<!ENTITY ns_custom "http://ns.adobe.com/GenericCustomNamespace/1.0/">
	<!ENTITY ns_adobe_xpath "http://ns.adobe.com/XPath/1.0/">
]>
<svg version="1.1" id="Layer_1" xmlns:x="&ns_extend;" xmlns:i="&ns_ai;" xmlns:graph="&ns_graphs;"
	 xmlns="http://www.w3.org/2000/svg" xmlns:xlink="http://www.w3.org/1999/xlink" x="0px" y="0px" width="35px" height="35px"
	 viewBox="0 0 35 35" enable-background="new 0 0 35 35" xml:space="preserve">
<metadata>
	<sfw  xmlns="&ns_sfw;">
		<slices></slices>
		<sliceSourceBounds  bottomLeftOrigin="true" width="35" height="35" x="280" y="192"></sliceSourceBounds>
	</sfw>
</metadata>
<g id="Ebene_3">
	<g>
		<path fill="#FCDB51" d="M17.654,32.363c0-10.481,0-21.592,0-31.829c0.165,0,0.33,0,0.495,0c-0.215-0.009-0.429-0.033-0.646-0.033
			C8.111,0.501,0.5,8.13,0.5,17.541s7.611,17.041,17.001,17.041c0.133,0,0.263-0.018,0.399-0.021
			c-0.125-0.016-0.215-0.039-0.247-0.072C17.557,34.364,17.654,32.989,17.654,32.363z"/>
		<path fill="#E8423F" d="M34.432,18.947c0.094-0.939,0.071-1.851,0-2.812c-0.697-8.536-7.666-15.274-16.285-15.6
			c-0.164,0-0.329,0-0.494,0c0,10.236,0,21.347,0,31.829c0,0.628-0.098,2.003,0,2.125c0.032,0.034,0.122,0.06,0.247,0.073
			C26.63,34.357,33.729,27.566,34.432,18.947z"/>
	</g>
</g>
<g id="Ebene_1">
	<g>
		<path fill="#80561D" d="M13.825,7.059c-0.036-0.083,0.238-0.083,0.202,0C13.96,7.059,13.893,7.059,13.825,7.059z"/>
		<path fill="#4A2A19" d="M21.76,7.558c0,4.094,0,8.188,0,12.281c0,0.019,0,0.035,0,0.05C21.678,15.896,21.678,11.552,21.76,7.558z"
			/>
		<path fill="#4A2A19" d="M26.833,7.61c0,0.316,0,0.633,0,0.951c-0.388-0.033-0.924-0.049-1.206-0.049c0.37,0,0.736,0,1.105,0
			C26.879,8.327,26.682,7.794,26.833,7.61z"/>
		<path fill="#4A2A19" d="M28.639,7.61c0.086,0.383,0.086,1.118,0,1.503C28.639,8.611,28.639,8.112,28.639,7.61z"/>
		<path fill="#80561D" d="M26.982,7.81c0.385-0.083,1.117-0.083,1.504,0C27.986,7.81,27.484,7.81,26.982,7.81z"/>
		<path fill="#80561D" d="M15.183,8.31c0.073,0.01,0.044,0.122,0.05,0.201c-0.017,0-0.033,0-0.05,0
			C15.183,8.445,15.183,8.377,15.183,8.31z"/>
		<path fill="#BA9D25" d="M27.436,8.963c0.252-0.117,0.719-0.017,1.051-0.053C28.236,9.029,27.771,8.929,27.436,8.963z"/>
		<path fill="#BA9D25" d="M11.917,9.665c-0.023-0.082,0.274-0.082,0.251,0C12.084,9.665,12.002,9.665,11.917,9.665z"/>
		<path fill="#4A2A19" d="M12.37,9.865c0.101,0,0.202,0,0.302,0C12.679,9.948,12.362,9.948,12.37,9.865z"/>
		<path fill="#4A2A19" d="M23.367,9.916c0.117,0,0.232,0,0.351,0C23.711,9.997,23.374,9.997,23.367,9.916z"/>
		<path fill="#010202" d="M25.173,11.484c0-0.451,0.005-0.967,0.005-1.419c0.35,0,0.748,0.002,1.098,0.002c0,0.45,0,0.993,0,1.444
			c0.267-0.006,0.648-0.009,1.008-0.006c0,0.317,0.004,0.601,0.004,0.917c-0.334,0-0.671,0-1.008,0c0,0.018,0,0.035,0,0.05
			c0,0.384-0.014,0.912-0.014,1.353c-0.354,0-0.738,0-1.088,0c0-0.466-0.031-0.912-0.031-1.392c-0.352,0-0.674-0.011-1.024-0.011
			c0-0.316,0-0.635,0-0.952C24.449,11.46,24.91,11.481,25.173,11.484z M25.324,12.271c0,0.452,0,0.902,0,1.354 M25.324,10.216
			c0,0.451,0.003,0.994-0.004,1.404 M26.129,12.271c0.335,0,0.669,0,1.001,0c0-0.216,0-0.434,0-0.65c-0.333,0-0.666,0-1.001,0"/>
		<path fill="#4A2A19" d="M27.436,10.064c0.336,0.034,0.803-0.066,1.051,0.051C28.154,10.083,27.688,10.182,27.436,10.064z"/>
		<path fill="#4A2A19" d="M12.32,11.669c-0.011-0.042,0.019-0.046,0.049-0.049c0.05,0,0.101,0,0.152,0c0,0.017,0,0.033,0,0.049
			C12.452,11.669,12.387,11.669,12.32,11.669z"/>
		<path fill="#80561D" d="M12.521,11.669c0-0.017,0-0.033,0-0.049c0.133,0,0.266,0,0.401,0c0,0.017,0,0.033,0,0.049
			C12.787,11.669,12.654,11.669,12.521,11.669z"/>
		<path fill="#4A2A19" d="M12.922,11.669c0-0.017,0-0.033,0-0.049c0.087,0.028,0.295-0.061,0.3,0.049
			C13.122,11.669,13.022,11.669,12.922,11.669z"/>
		<path fill="#BA9D25" d="M15.482,13.022c-0.009-0.082,0.311-0.082,0.301,0C15.684,13.022,15.583,13.022,15.482,13.022z"/>
		<path fill="#BA9D25" d="M13.825,13.322c-0.036-0.08,0.238-0.08,0.202,0C13.96,13.322,13.893,13.322,13.825,13.322z"/>
		<path fill="#4A2A19" d="M7.7,13.473c0.116,0,0.233,0,0.352,0c0,0.018,0,0.034,0,0.051C7.947,13.495,7.721,13.585,7.7,13.473z"/>
		<path fill="#80561D" d="M8.052,13.524c0-0.017,0-0.033,0-0.051c0.4,0,0.803,0,1.203,0c0,0.018,0,0.034,0,0.051
			C8.854,13.524,8.452,13.524,8.052,13.524z"/>
		<path fill="#4A2A19" d="M9.255,13.524c0-0.017,0-0.033,0-0.051c0.068,0,0.135,0,0.201,0C9.441,13.542,9.332,13.515,9.255,13.524z"
			/>
		<path fill="#80561D" d="M23.316,13.724c0.201,0,0.4,0,0.603,0c0,0.017,0,0.034,0,0.051C23.734,13.743,23.42,13.841,23.316,13.724z
			"/>
		<path fill="#80561D" d="M27.436,13.774c0.252-0.116,0.719-0.018,1.051-0.051C28.236,13.841,27.771,13.74,27.436,13.774z"/>
		<path fill="#4A2A19" d="M8.303,14.527c0.015-0.066,0.125-0.041,0.2-0.053c0,0.019,0,0.035,0,0.053
			C8.436,14.527,8.37,14.527,8.303,14.527z"/>
		<path fill="#80561D" d="M8.503,14.527c0-0.018,0-0.034,0-0.053c0.068,0,0.133,0,0.2,0C8.695,14.551,8.581,14.522,8.503,14.527z"/>
		<path fill="#4A2A19" d="M26.781,15.328c0.119,0.202,0.019,0.619,0.052,0.902C26.719,16.03,26.812,15.613,26.781,15.328z"/>
		<path fill="#BA9D25" d="M26.982,16.032c0.502,0,1.004,0,1.504,0C28.102,16.113,27.368,16.113,26.982,16.032z"/>
		<path fill="#80561D" d="M23.77,16.23c0.619,0,1.235,0,1.857,0C25.123,16.313,24.271,16.313,23.77,16.23z"/>
		<path fill="#80561D" d="M26.833,16.23c0.603,0,1.202,0,1.806,0C28.154,16.313,27.316,16.313,26.833,16.23z"/>
		<path fill="#BA9D25" d="M13.324,16.331c0,0.118,0,0.234,0,0.352c-0.017,0-0.033,0-0.052,0
			C13.303,16.578,13.211,16.353,13.324,16.331z"/>
		<path fill="#80561D" d="M13.273,16.682c0.019,0,0.035,0,0.052,0c0,0.083,0,0.167,0,0.251c-0.017,0-0.033,0-0.052,0
			C13.273,16.85,13.273,16.765,13.273,16.682z"/>
		<path fill="#4A2A19" d="M13.273,16.932c0.019,0,0.035,0,0.052,0c-0.005,0.079,0.024,0.191-0.052,0.2
			C13.273,17.066,13.273,17.001,13.273,16.932z"/>
		<path fill="#80561D" d="M7.65,17.033c0.022,0.081-0.274,0.081-0.251,0C7.482,17.033,7.566,17.033,7.65,17.033z"/>
		<path fill="#BA9D25" d="M13.273,17.333c0,0.066,0,0.133,0,0.2c-0.017,0-0.032,0-0.049,0C13.232,17.458,13.206,17.35,13.273,17.333
			z"/>
		<path fill="#80561D" d="M8.303,19.939c0.021,0.082-0.274,0.082-0.251,0C8.135,19.939,8.218,19.939,8.303,19.939z"/>
		<path fill="#FFD730" d="M21.76,20.791c0.221,0.007,0.496-0.006,0.752,0c0.221,0.007,0.549-0.081,0.605,0.1
			c-0.071,0.189-0.389,0.098-0.605,0.102c-0.252,0.005-0.535-0.004-0.752,0C21.76,20.925,21.76,20.859,21.76,20.791z"/>
		<path fill="#BA9D25" d="M9.91,22.195c0.034,0.08-0.238,0.08-0.202,0C9.775,22.195,9.843,22.195,9.91,22.195z"/>
		<path fill="#BA9D25" d="M16.639,23.098c0.017,0,0.033,0,0.049,0c0,0.086,0,0.17,0,0.252
			C16.579,23.354,16.666,23.172,16.639,23.098z"/>
		<path fill="#BA9D25" d="M11.616,23.35c0.009,0.058,0.093,0.043,0.152,0.051C11.777,23.539,11.41,23.402,11.616,23.35z"/>
		<path fill="#BA9D25" d="M7.901,26.104c-0.038-0.082,0.235-0.082,0.2,0C8.034,26.104,7.966,26.104,7.901,26.104z"/>
		<path fill="#4A2A19" d="M11.416,26.104c0.039-0.082,0.413-0.082,0.453,0C11.717,26.104,11.565,26.104,11.416,26.104z"/>
		<path fill="#80561D" d="M8.804,26.406c0.084,0,0.168,0,0.251,0C9.078,26.49,8.782,26.49,8.804,26.406z"/>
		<path fill="#80561D" d="M8.353,26.908c0.037,0.078-0.237,0.078-0.2,0C8.218,26.908,8.286,26.908,8.353,26.908z"/>
		<path fill="#BA9D25" d="M11.565,27.458c0.04-0.083,0.416-0.083,0.453,0C11.869,27.458,11.717,27.458,11.565,27.458z"/>
		<path fill="#80561D" d="M9.206,28.812c0.037,0.082-0.237,0.082-0.201,0C9.073,28.812,9.139,28.812,9.206,28.812z"/>
		<path fill="#80561D" d="M17.04,28.912c0.089,0.046,0.154,0.111,0.201,0.202C17.152,29.068,17.085,29.004,17.04,28.912z"/>
		<path fill="#BA9D25" d="M15.985,27.307c0.091-0.093,0.136-0.23,0.25-0.299C16.182,27.137,16.11,27.249,15.985,27.307z"/>
		<path fill="#80561D" d="M15.583,27.709c0.114-0.152,0.248-0.289,0.402-0.402C15.872,27.465,15.739,27.598,15.583,27.709z"/>
		<path fill="#BA9D25" d="M12.571,27.759c0.138,0.099,0.253,0.216,0.352,0.353C12.784,28.016,12.666,27.898,12.571,27.759z"/>
		<path fill="#4A2A19" d="M15.383,27.057c0.114-0.152,0.246-0.287,0.401-0.398C15.67,26.812,15.538,26.943,15.383,27.057z"/>
		<path fill="#BA9D25" d="M12.418,24.503c0.045-0.092,0.114-0.155,0.202-0.198C12.574,24.389,12.509,24.457,12.418,24.503z"/>
		<path fill="#80561D" d="M12.22,24.701c0.044-0.085,0.111-0.152,0.198-0.198C12.374,24.589,12.308,24.654,12.22,24.701z"/>
		<path fill="#4A2A19" d="M12.018,24.9c0.045-0.084,0.112-0.151,0.202-0.199c-0.016,0.104-0.138,0.098-0.151,0.199
			C12.051,24.9,12.035,24.9,12.018,24.9z"/>
		<path fill="#BA9D25" d="M11.768,25.202c0.051-0.132,0.198-0.168,0.25-0.302c0.017,0,0.033,0,0.051,0
			C11.99,25.023,11.887,25.124,11.768,25.202z"/>
		<path fill="#4A2A19" d="M8.804,27.355c0.097-0.135,0.213-0.254,0.353-0.349C9.06,27.146,8.943,27.264,8.804,27.355z"/>
		<path fill="#BA9D25" d="M9.255,26.908c0.017-0.104,0.138-0.1,0.151-0.201C9.515,26.742,9.312,26.874,9.255,26.908z"/>
		<path fill="#BA9D25" d="M7.298,26.557c0.046-0.088,0.113-0.154,0.201-0.199C7.452,26.443,7.386,26.511,7.298,26.557z"/>
		<path fill="#BA9D25" d="M8.052,25.455c0.12,0.094,0.198,0.232,0.301,0.35C8.217,25.723,8.114,25.609,8.052,25.455z"/>
		<path fill="#80561D" d="M7.298,25.503c0.062-0.104,0.146-0.188,0.251-0.251C7.486,25.359,7.402,25.439,7.298,25.503z"/>
		<path fill="#010202" d="M17.651,10.507c-0.219-0.136-0.306-0.409-0.223-0.645c-0.007-0.046-0.027-0.087-0.03-0.137
			c-0.025-0.68,0.106-1.346,0.066-2.035c-0.036-0.611-0.183-1.204-0.248-1.812c0,0,0-0.001,0-0.003L6.186,6.036
			c0,7.903,0.018,15.159,0.018,23.065c3.89,0,7.671,0.002,11.448,0.008L17.651,10.507L17.651,10.507z M7.807,26.609l-0.302,0.146
			c0.074-0.238,0.408-0.445,0.653-0.352C8.155,26.586,7.893,26.507,7.807,26.609z M7.907,25.002h-0.15
			c0.023-0.096,0.333-0.162,0.402-0.05c0.163,0.021,0.262,0.104,0.352,0.198C8.331,25.426,8.09,25.041,7.907,25.002z M8.961,28.162
			c0.22,0.014,0.078,0.388,0.251,0.449C8.968,28.837,8.804,28.341,8.961,28.162z M13.53,9.162c-0.007-0.057,0.012-0.087,0.05-0.101
			h2.863c0.058,0.008,0.042,0.091,0.051,0.152C15.523,9.18,14.417,9.28,13.53,9.162z"/>
		<path fill="#010202" d="M14.729,7.107C14.684,7.32,14.85,7.322,15.03,7.31c0-0.068,0-0.134,0-0.203
			C14.938,7.01,14.846,7.093,14.729,7.107z"/>
		<path fill="#010202" d="M14.228,7.159c0.009,0.14,0.087,0.214,0.251,0.199c0.073-0.118,0.106-0.093,0.05-0.251
			C14.405,7.101,14.287,7.101,14.228,7.159z"/>
		<path fill="#010202" d="M16.135,7.409c0,0.05,0,0.101,0,0.15c0.101,0.094,0.37,0.076,0.304-0.15
			C16.29,7.362,16.282,7.362,16.135,7.409z"/>
		<path fill="#010202" d="M14.729,7.509c0,0.049,0,0.101,0,0.15c0.099,0.092,0.37,0.074,0.301-0.15
			C14.885,7.463,14.877,7.463,14.729,7.509z"/>
		<path fill="#010202" d="M16.788,7.76C16.385,7.357,16.534,8.265,16.788,7.76L16.788,7.76z"/>
		<path fill="#010202" d="M14.729,7.909c-0.046,0.214,0.121,0.215,0.301,0.203C15.106,7.867,14.905,7.9,14.729,7.909z"/>
		<path fill="#010202" d="M12.822,8.211c0.071,0.123,0.173,0.088,0.301,0.049c0-0.066,0-0.135,0-0.201
			C12.969,8.059,12.792,8.031,12.822,8.211z"/>
		<path fill="#010202" d="M16.639,8.211c0.073,0.151,0.304,0.088,0.352-0.051C16.965,8.031,16.596,7.989,16.639,8.211z"/>
		<path fill="#010202" d="M14.729,8.31c-0.048,0.259,0.151,0.271,0.301,0.201C15.078,8.252,14.88,8.24,14.729,8.31z"/>
		<path fill="#010202" d="M7.449,26.908c0.039-0.014,0.058-0.043,0.05-0.102"/>
		<path fill="#4A2A19" d="M9.156,25.455c0.088,0.045,0.155,0.109,0.2,0.197C9.268,25.609,9.201,25.542,9.156,25.455z"/>
		<path fill="#BA9D25" d="M11.114,21.693c0.106-0.078,0.188-0.182,0.301-0.252C11.332,21.545,11.279,21.68,11.114,21.693z"/>
		<path fill="#4A2A19" d="M6.244,11.72c0.088,0.044,0.155,0.111,0.2,0.2C6.355,11.875,6.289,11.807,6.244,11.72z"/>
		<path fill="#FCDB51" d="M9.139,25.436c-0.107-0.16-0.222-0.312-0.302-0.502c-0.327,0.09-0.67-0.222-1.004-0.199
			c-0.396,0.029-0.562,0.291-0.652,0.755c0.021,0.071,0.043-0.007,0.101,0c0.103-0.063,0.189-0.146,0.251-0.251
			c0.143-0.187,0.496-0.049,0.501,0.197c0.062,0.157,0.166,0.271,0.302,0.354c0.179,0.104,0.321,0.249,0.501,0.35
			c-0.016,0.069-0.126,0.043-0.201,0.053c-0.141,0.039-0.129-0.071-0.251-0.053c-0.014-0.068-0.696-0.035-0.904,0.2
			c-0.087,0.048-0.154,0.114-0.199,0.2c-0.233,0.307,0.039,0.643,0.15,0.9c0.073-0.291,0.166-0.565,0.352-0.748
			c0.127,0.058,0.126,0.24,0.353,0.199c0.068,0.006,0.169,0.012,0.2,0c0.39-0.029,0.68-0.16,1.054-0.199
			c-0.013,0.101-0.134,0.098-0.149,0.199c-0.022,0.047-0.044,0.09-0.101,0.101c-0.139,0.097-0.255,0.215-0.351,0.352
			c-0.205,0.16-0.451,0.656-0.202,0.952c0.004,0.082-0.024,0.189,0.049,0.201c0.023,0.191,0.132,0.303,0.353,0.301
			c-0.036,0.082,0.236,0.082,0.2,0c0.066,0,0.134,0,0.2,0c0.122-0.17-0.259-0.184-0.25-0.402c0.545-0.594,0.727-1.547,1.557-1.856
			c0.556-0.052,0.895,0.112,1.254,0.252c0.007,0.085,0.345,0.085,0.353,0c0.237-0.216,0.462,0.082,0.4,0.452
			c0.546-0.191,0.497-0.571,0.15-0.903c-0.011-0.013-0.16-0.054-0.2-0.098c-0.025-0.032-0.021-0.183-0.05-0.202
			c-0.205-0.105-1.296-0.175-1.305-0.1c-0.05,0-0.1,0-0.152,0c0.154-0.299,0.39-0.515,0.604-0.756
			c0.123-0.076,1.208-1.314,1.355-1.552c0.139,0.479,0.188,1.052,0.303,1.552c0.945-1.707,1.82-3.494,2.81-5.158
			c0.167,0.017,0.076,0.643,0.151,0.649c0.035,0.435,0.147,0.792,0.15,1.255c0.005,0.077,0.051,0.334,0.051,0.399
			c0.004,0.081,0.081,2.069,0.05,2.207c-0.011,0.974-0.427,1.546-0.854,2.104c-0.156,0.114-0.288,0.246-0.4,0.4
			c-0.678,0.459-1.353,1.191-2.46,1.053c-0.096-0.139-0.214-0.255-0.353-0.351C12.37,27.641,12.24,27.484,12,27.439
			c-0.038-0.084-0.413-0.084-0.451,0c-0.562,0.068-0.862,0.879-0.403,1.258c0.082-0.871,1.09-0.403,1.155,0.146
			c1.417,0.307,2.427-0.555,3.264-1.154c0.155-0.106,0.289-0.242,0.402-0.398c0.124-0.059,0.196-0.173,0.25-0.3
			c0.357-0.347,0.477-0.929,0.854-1.253c-0.052,0.547-0.131,1.215-0.402,1.753c-0.141,0.282-0.459,0.463-0.4,0.753
			c0.065,0.33,0.576,0.33,0.751,0.65c0.046,0.09,0.192,0.192,0.281,0.24c0.042-0.009,0.237,0.555,0.239,0.582
			c-3.716,0.083-6.374,4.327-11.769-0.57C0.5,24.355,2.787,7.617,5.32,7.714C5.736,7.729,5.628,6.05,5.824,5.888
			c0.102-0.084,1.226-0.59,1.679-0.676c5.138-0.987,8.893-1.925,10.041,0.326c0,1.554-0.009,3.562-0.009,4.971
			c-0.317,0.033-0.641-0.099-0.813-0.21c0.06-0.191,0.301-0.204,0.353-0.401c-0.437,0.05-0.653-0.118-0.754-0.402
			c0.101-0.301,0.535-0.632,0.251-1.002c0.039-0.174,0.458,0.027,0.503-0.25c0.005-0.027,0.012-0.104,0-0.201
			c-0.027-0.152-0.113-0.292-0.202-0.45c-0.148-0.103-0.185-0.202-0.4-0.352c-0.389-0.098-0.715-0.255-1.155-0.301
			c0.604-0.715-0.768-1.271-1.054-0.55c-0.036,0.253,0.068,0.365,0.1,0.55c-0.201-0.051-0.585,0.1-0.603,0.1
			c-0.103,0.016-0.637,0.197-0.905,0.553c-0.041,0.057-0.185,0.348-0.2,0.45c-0.087,0.438,0.331,0.344,0.503,0.401
			c0.02,0.106-0.036,0.134-0.051,0.201C13.091,8.866,13.3,9.248,13.36,9.397c0.015,0.205-0.089,0.03-0.185,0.054
			C13.14,9.44,13.033,9.44,12.908,9.447c-0.334,0.311-1.027,0.119-1.005,0.201c-0.438,0.021-0.639,0.619-0.402,1.001
			c-0.147-0.002-0.29-0.195-0.25-0.5c0-0.067,0-0.134,0-0.2c-0.792,0.091-0.699,1.472,0.301,1.253
			c0.073-0.027,0.151-0.038,0.251-0.05c0.1,0,0.2,0,0.3,0c0.228-0.017,0.602-0.064,0.752,0.05c-0.401,0.157-0.627,0.404-0.55,0.451
			c0.066,0,0.133,0,0.201,0c0.133,0,0.268,0,0.401,0c0.1,0,0.2,0,0.3,0c1.083,0.072,1.845,0.464,2.662,0.802
			c0.073,0.21,0.23,0.336,0.251,0.602c-0.133,0-0.288,0.02-0.353-0.049c-0.076,0-0.2,0-0.299,0
			c-0.358,0.094-0.642,0.263-0.907,0.451c-0.188-0.047-0.353-0.115-0.551-0.15c-0.083-0.025-0.083-0.017-0.202,0
			c-0.538,0.113-0.944,0.361-1.505,0.45c-0.135,0-0.268,0-0.402,0c-0.31-0.006-0.511-0.124-0.603-0.351c0-0.117,0-0.235,0-0.352
			c0.066-0.167,0.261-0.208,0.351-0.35c-0.022-0.262-3.115-3.642-3.264-3.709C7.775,8.35,7.241,7.632,6.679,6.94
			C6.46,7.075,6.284,7.769,6.276,7.844c0.017,1.135,1.216,2.509,1.305,2.554c0.767,0.823,1.935,1.243,2.763,2.007
			c-0.015,0.067-0.127,0.041-0.201,0.049c-1.413-0.612-2.762-1.286-3.967-2.105c-0.199,0.361-0.207,1.057,0.05,1.352
			c0.045,0.089,0.112,0.158,0.2,0.201c0.951,0.546,2.089,0.962,3.265,1.305c0.137,0.04,0.381,0.02,0.452,0.2
			c-0.052,0-0.586,0.051-0.704,0.051c-0.065,0-0.134,0-0.199,0c-0.402,0-0.804,0-1.206,0c-0.118,0-0.235,0-0.352,0
			c-0.067,0-0.584-0.02-0.753-0.051c-0.265,0.03-0.434-0.037-0.653-0.05c-0.04,0.045,0.623,1.034,1.204,1.104
			c0.168,0.05,0.878,0.015,1.207,0c0.63-0.021,1.115-0.191,1.657-0.302c-0.456,0.531-1.134,0.817-1.758,1.153
			c-0.621,0.333-1.249,0.744-1.958,0.953c-0.031,0.179,0.058,0.242,0.1,0.352c0.071,0.128,0.752,0.468,0.903,0.401
			c1.192-0.249,1.861-1.016,2.662-1.654c0.108-0.11,0.222-0.18,0.301-0.302c0.083-0.1,0.134-0.234,0.301-0.25
			c-0.35,0.963-1.021,1.716-1.607,2.457c-0.601,0.76-1.194,1.508-1.808,2.256c-0.092,0.084-0.235,0.154-0.1,0.201
			c0.217,0.066,0.519,0.224,0.904,0.198c0.414-0.055,1.223-0.614,1.307-0.753c0.976-1.111,1.573-2.606,2.31-3.959
			c0.034,0,0.067,0,0.1,0c0,0.084,0,0.167,0,0.252c-0.67,2.389-1.551,4.566-2.46,6.719c0.051,0,0.101,0,0.151,0
			c-0.036,0.077,0.236,0.077,0.201,0c0.49-0.08,0.895-0.246,1.206-0.502c0.165-0.021,0.216-0.152,0.3-0.256
			c0.824-1.014,1.499-4.986,1.508-5.059c0.046-0.421,0.057-0.878,0.251-1.154c0.314,0.103,0.058,2.23,0.05,2.307
			c0,0.116-0.111,2.396-0.1,2.355c0.934-0.252,1.394-0.979,1.506-2.056c0-0.177,0.009-2.313-0.1-2.306
			c-0.016-0.232,0.088-0.346,0.303-0.351c0.219,0.1,0.188,0.41,0.25,0.603c0.153,0.473,0.623,1.427,0.552,1.955
			c-0.042,0.32-0.733,1.15-0.954,1.452c-0.988,1.36-2.18,2.941-3.063,4.16c-0.205,0.059,1.011-0.055,0.854,0.104
			c-0.155,0.11-2.079,2.082-2.21,2.252c-0.188,0.188-0.76,0.119-0.903-0.052"/>
		<path fill="#E8423F" d="M14.981,6.255c0.706,0.129,0.126,0.914-0.403,0.651c-0.213-0.154-0.207-0.661,0.151-0.651
			C14.813,6.255,14.897,6.255,14.981,6.255z"/>
		<path fill="#E8423F" d="M14.528,7.107c0.056,0.157,0.022,0.134-0.051,0.251c-0.164,0.014-0.241-0.06-0.25-0.199
			C14.287,7.101,14.405,7.101,14.528,7.107z"/>
		<path fill="#E8423F" d="M15.282,7.31c-0.06-0.011-0.041-0.093-0.051-0.151c0.065-0.07,0.237-0.07,0.301,0c0,0.033,0,0.065,0,0.1
			C15.475,7.299,15.398,7.324,15.282,7.31z"/>
		<path fill="#E8423F" d="M13.374,7.409c0.115-0.109,0.312-0.018,0.3,0.15c-0.057,0.044-0.133,0.066-0.251,0.052
			C13.385,7.565,13.371,7.495,13.374,7.409z"/>
		<path fill="#E8423F" d="M13.474,8.06c-0.083,0.162-0.024,0.271,0,0.451c-0.233,0.032-0.127-0.274-0.15-0.451
			c0.231-0.27,0.501-0.503,1.004-0.502c0.321,0.006,0.219,0.1,0,0.1C14.051,7.666,13.519,7.972,13.474,8.06z"/>
		<path fill="#E8423F" d="M16.788,7.76C16.534,8.265,16.385,7.357,16.788,7.76L16.788,7.76z"/>
		<path fill="#80561D" d="M23.919,7.81c0.065,0.051,1.388-0.221,1.558-0.049c0.209,0.206-0.146,0.619,0,0.951
			c-0.236-0.237,0.15-0.701-0.052-0.901c-0.151-0.151-1.196,0.117-1.456,0C23.954,7.81,23.938,7.81,23.919,7.81z"/>
		<path fill="#E8423F" d="M16.99,8.161c-0.047,0.138-0.278,0.201-0.352,0.051C16.596,7.989,16.965,8.031,16.99,8.161z"/>
		<path fill="#E8423F" d="M14.932,11.317c0.172,0.246,0.421,0.414,0.551,0.702c-0.001,0.048-0.061,0.039-0.1,0.052
			c-0.535-0.186-1.061-0.379-1.657-0.502c-0.015-0.068-0.802-0.101-0.904-0.101c0.076-0.141,0.26-0.176,0.451-0.2
			c0.068,0,0.136,0,0.202,0c0.385,0.035,0.583,0.255,1.004,0.251c-0.119-0.258-0.449-0.581-0.703-0.753
			c-0.305-0.205-0.674-0.278-1.104-0.351c-0.098-0.071-0.757-0.083-1.056,0.1c-0.164-0.298,0.053-0.602,0.253-0.703
			c0.067,0,0.133,0,0.2,0c0.121,0.035,0.127,0.042,0.2,0.052c0.034,0,0.423,0.058,0.415-0.025c0.49-0.375,0.752,0.03,0.84,0.076
			C13.914,10.261,14.809,11.239,14.932,11.317z"/>
		<path fill="#FFD730" d="M14.428,9.665c0.05,0,0.101,0,0.151,0c0.059-0.008,0.09,0.01,0.101,0.049
			c-0.079,0.088-0.45,0.134-0.653,0.051c0.022-0.146,0.105-0.229,0.25-0.252c-0.026,0.041-0.052,0.082-0.049,0.151
			c0,0.016,0,0.032,0,0.049C14.308,9.709,14.419,9.74,14.428,9.665z"/>
		<path fill="#FFD730" d="M17.142,10.968c-0.018,0-0.035,0-0.051,0c0.022-0.146,0.105-0.228,0.25-0.253c0,0.135,0,0.27,0,0.403
			C17.239,11.104,17.243,10.982,17.142,10.968z"/>
		<path fill="#4A2A19" d="M20.907,23.498c0.079-0.121,0.179-0.221,0.299-0.3C21.128,23.316,21.025,23.42,20.907,23.498z"/>
		<path fill="#80561D" d="M19.954,24.604c-0.146,0.188-0.166-0.527,0-0.502C19.893,24.176,19.854,24.532,19.954,24.604z"/>
		<path fill="#4A2A19" d="M23.718,23.247c0.089,0.048,0.156,0.112,0.201,0.202C23.831,23.402,23.764,23.335,23.718,23.247z"/>
		<path fill="#E8423F" d="M8.201,26.355c-0.09-0.219,0.804,0.051,0.853,0.051c0.119-0.02,0.218-0.053,0.251-0.148
			c-0.384-0.238-0.753-0.486-1.055-0.803c0.194-0.059,0.318-0.184,0.352-0.403c0.408,0.244,0.478,0.827,1.055,0.904
			c0.137-0.024,0.22-0.024,0.352,0c0.222-0.063,0.455-0.115,0.553-0.304c0.188-0.146,1.443-1.447,1.605-1.652
			c0.238-0.273,0.389-0.714,0.954-0.703c-0.137,0.416-0.465,0.641-0.704,0.954c-0.113,0.103-0.792,0.796-0.854,0.899
			c-0.174,0.312-0.521,0.449-0.552,0.906c0.094,0.164,0.203,0.029,0.402,0.047c0.15,0,0.301,0,0.453,0c0.116,0,0.233,0,0.352,0
			c-0.057,0.17,0.127,0.443,0.101,0.554c-0.396,0.104-0.709-0.244-1.156-0.251c-0.17,0.023-0.294,0.021-0.402,0
			c-0.271,0.064-0.447,0.222-0.654,0.351c-0.105,0.062-0.188,0.146-0.25,0.251c-0.267,0.338-0.409,0.795-0.652,1.155
			c-0.152,0.021-0.086-0.183-0.201-0.202c-0.146-0.009-0.296,0.23-0.351,0.15c-0.004-0.557,0.809-1.116,0.854-1.202
			c0.233-0.083,0.219-0.313-0.052-0.353c-0.03,0.043-0.959,0.193-1.054,0.2C8.257,26.751,8.073,26.784,8,26.707
			c0.049-0.064,0.134-0.098,0.201-0.15"/>
		<path fill="#E8423F" d="M22.966,24.354c0.646-0.144,0.774,0.971,0.099,0.899c-0.028,0.006-0.018,0.063-0.053,0.093
			c-0.012,0.067-0.064,0.266-0.146,0.311c-0.238,0.221-0.885,0.213-0.902-0.2c0.016-0.132-0.021-0.216-0.15-0.202
			c-0.666,0.057-0.551-1.038,0.098-0.9c0.068-0.016,0.045-0.125,0.054-0.201c0-0.033,0-0.066,0-0.101
			c0.216-0.3,0.849-0.325,0.952,0.101C22.92,24.23,22.893,24.341,22.966,24.354z"/>
		<path fill="#BA9D25" d="M23.52,26.609c0.121-0.164,0.252-0.318,0.449-0.404C23.825,26.344,23.676,26.479,23.52,26.609z"/>
		<path fill="#4A2A19" d="M21.509,25.956c0.089,0.043,0.156,0.108,0.201,0.198C21.621,26.109,21.555,26.043,21.509,25.956z"/>
		<path fill="#BA9D25" d="M22.561,27.458c0.188-0.015,0.448,0.044,0.557-0.052C23.125,27.589,22.629,27.521,22.561,27.458z"/>
		<path fill="#E8423F" d="M12.521,26.355c0.25,0.064,0.561,0.291,0.401,0.602c-0.11-0.241-0.338-0.363-0.504-0.551
			C12.43,26.367,12.462,26.346,12.521,26.355z"/>
		<path fill="#E8423F" d="M7.398,26.757c0.074-0.237,0.408-0.446,0.653-0.351c-0.003,0.18-0.266,0.101-0.352,0.203
			c-0.089,0.041-0.157,0.108-0.201,0.197c0.007,0.059-0.012,0.09-0.05,0.102C7.39,26.898,7.406,26.816,7.398,26.757z"/>
		<path fill="#FFD730" d="M21.561,28.26c-0.23-0.001-0.272-0.193-0.252-0.449c0.062-0.019,0.08-0.088,0.149-0.101
			c0.503-0.083,1.302-0.161,1.908,0c0.305,0.021,0.243,0.571-0.052,0.552C22.706,28.343,22.279,28.343,21.561,28.26z"/>
		<path fill="#E8423F" d="M8.854,28.162c0.22,0.014,0.078,0.388,0.251,0.449C8.861,28.837,8.697,28.341,8.854,28.162z"/>
		<path fill="#FFD730" d="M22.865,28.512c-0.014,0.174-0.146,0.217-0.305,0.254c-0.033,0.116-0.305,0.06-0.25,0
			c-0.146-0.021-0.246-0.09-0.299-0.201c0-0.039,0-0.068,0-0.103C22.331,28.303,22.898,28.393,22.865,28.512z"/>
		<path fill="#010202" d="M21.561,19.891c0-2.556,0.008-11.43,0.008-12.481c0-0.345,0.511-0.812,0.896-0.802
			c0.232,0.006,0.428,0.106,0.594,0.325c0.09,0.12,0.258,0.429,0.258,0.577c0,0.761,0.009,1.744,0.009,2.407
			c0.159,0,0.37-0.018,0.437-0.018c0-0.701-0.023-1.536,0.008-2.289c0.619,0,1.237,0,1.859,0c0,0.299,0,0.602,0,0.901
			c0.318,0,0.812,0.009,1.205,0.009c0-0.318,0-0.594,0-0.91c0.604,0,1.204,0,1.807,0c0,0.502,0,1.001,0,1.503
			c-0.334,0-0.697-0.003-1.031-0.003c0,0.183,0.008,0.638,0.008,0.836c0.271,0,0.727-0.004,1.002-0.004
			c0,0.238,0.013,0.772,0.013,1.026c0,0.886,0.011,2.264,0.011,2.958c-0.336,0-0.718,0-1.056,0c0,0.168,0,0.657,0,0.852
			c0.358,0,0.851,0,1.056,0c0,0.313,0,1.191,0,1.453c-0.604,0-1.203,0-1.808,0c-0.032-0.284,0.067-0.701-0.052-0.902
			c-0.383,0-0.77,0-1.154,0c0,0.3,0,0.602,0,0.902c-0.621,0-1.238,0-1.857,0c0-0.768,0-1.536,0-2.306
			c-0.137,0-0.299-0.004-0.432-0.004c-0.033,1.845,0.016,3.932-0.021,5.87c-0.016,0.259,0.002,0.79,0,1.101
			c0.035,0.271,0.453,0.15,0.453,0.453c0,0.08,0,0.164,0,0.252c-0.068,0.162-0.16,0.305-0.402,0.299c-0.051,0-0.1,0-0.15,0
			c-0.01,0.059,0.42,1.102,0.805,1.402c0.045,0.089,0.11,0.155,0.199,0.201c0.202,0.184,0.485,0.287,0.701,0.45
			c0.196-0.058,0.174-0.332,0.402-0.351c0.102,0,0.201,0,0.304,0c0.153,0.062,0.281,0.149,0.302,0.351
			c0.026,0.104-0.063,0.327,0.049,0.354c0.248,0.052,0.42,0.181,0.502,0.397c0.131,0.123,0.06,0.314,0,0.353
			c0,0.019,0,0.032,0,0.052c-0.121,0.162-0.258,0.309-0.502,0.351c-0.017,0-0.032,0-0.049,0c0,0.118,0,0.231,0,0.351
			c-0.011,0.191-0.183,0.217-0.252,0.35c-0.035,0-0.066,0-0.102,0c-0.069,0-0.137,0-0.2,0c-0.224-0.024-0.272-0.229-0.399-0.35
			c-0.369,0.172-0.713,0.36-1.008,0.603c-0.121,0.079-0.221,0.179-0.303,0.3c-0.164,0.203-0.312,0.421-0.398,0.701
			c0.111,0.189,0.414,0.188,0.451,0.453c0,0.082,0,0.164,0,0.25c-0.053,0.148-0.15,0.253-0.302,0.302
			c-0.089,0.028-0.294-0.062-0.3,0.049c-0.146,0.358-0.613,0.634-1.057,0.402c-0.139-0.034-0.176-0.13-0.201-0.2
			c0.043-0.323-0.312-0.223-0.4-0.251c-0.15-0.05-0.253-0.152-0.301-0.302c0-0.101,0-0.201,0-0.301c0-0.018,0-0.033,0-0.053
			c0.074-0.111,0.123-0.138,0.201-0.201c0.088-0.023,0.209-0.021,0.25-0.099c-0.043-0.306-0.203-0.497-0.35-0.701
			c-0.113-0.155-0.248-0.289-0.402-0.401c-0.262-0.226-0.614-0.358-0.902-0.551c-0.195,0.059-0.173,0.331-0.402,0.35
			c-0.102,0-0.203,0-0.304,0c-0.159-0.055-0.256-0.172-0.3-0.35c-0.029-0.103,0.061-0.33-0.051-0.351
			c-0.692-0.044-0.68-1.106,0-1.151c0.016,0,0.033,0,0.051,0c0-0.117,0-0.236,0-0.354c0.048-0.188,0.165-0.303,0.354-0.352
			c0.066,0,0.133,0,0.201,0c0.247,0,0.26,0.24,0.4,0.352c0.811-0.411,1.518-0.922,1.705-1.956c0.141-0.021,0.002-0.158-0.1-0.099
			c-0.24,0.006-0.332-0.138-0.4-0.299c0-0.088,0-0.172,0-0.252c0.016-0.269,0.348-0.222,0.451-0.402
			C21.585,20.598,21.518,20.441,21.561,19.891z M22.999,20.785c-0.502-0.012-0.785,0.041-1.239,0.008 M21.762,20.995
			c0.004-0.011,0.473-0.031,0.693-0.002 M23.467,21.693c0.77-0.783-1.648-0.463-2.158-0.45c-0.068,0.151-0.09,0.423,0.1,0.45
			C21.979,21.775,22.898,21.775,23.467,21.693z M23.218,23.75c-0.338-0.4-0.573-0.896-0.804-1.404
			c-0.145,0.523-0.391,0.951-0.703,1.305c-0.082,0.119-0.186,0.257-0.352,0.352c-0.42,0.346-0.896,0.643-1.506,0.803
			c0.033,0.271,0.34,0.185,0.502,0.25c0.467,0.19,0.879,0.492,1.252,0.752c0.086,0.059,0.143,0.084,0.203,0.2
			c0.297,0.321,0.728,0.802,0.924,1.224c0.348-1.252,0.82-1.996,2.108-2.318c-0.214-0.227-0.401-0.307-0.674-0.457
			c-0.276-0.153-0.515-0.316-0.754-0.501c-0.052-0.029-0.093-0.041-0.119-0.07C23.262,23.84,23.248,23.811,23.218,23.75z
			 M19.501,26.004c0.492-0.148,0.046-1.457,0.2-2.104c-0.114-0.194-0.489-0.194-0.604,0C19.195,24.521,18.805,26.218,19.501,26.004z
			 M25.178,24.9c0,0.49-0.103,1.053,0.248,1.104c0.439,0.065,0.348-0.341,0.354-0.901c0.004-0.651,0.172-1.498-0.453-1.354
			C25.1,23.919,25.178,24.417,25.178,24.9z M18.896,24.451c-0.018,0-0.033,0-0.051,0c-0.435,0.127-0.422,0.775,0.051,0.85
			C18.982,25.136,18.982,24.622,18.896,24.451z M26.078,25.253c0.338-0.022,0.338-0.726,0-0.75 M21.509,25.956
			c-0.444-0.375-0.975-0.666-1.606-0.853c-0.08,0.084-0.105,0.539,0.053,0.551c0.406,0.178,0.777,0.391,1.104,0.65 M21.309,26.557
			c0.191,0.246,0.375,0.496,0.45,0.851c0.007,0.213,0.349,0.06,0.515,0.108c-0.006-0.078-0.014-0.166-0.012-0.209
			c-0.061-0.509-0.318-0.816-0.553-1.152 M21.458,27.709c-0.069,0.014-0.087,0.083-0.149,0.102
			c-0.021,0.256,0.021,0.448,0.252,0.449c0.467,0.081,1.287,0.081,1.756,0c0.293,0.02,0.355-0.531,0.052-0.552
			C22.848,27.626,21.979,27.626,21.458,27.709z M22.865,28.512c0.023-0.154-0.897-0.222-0.854,0.053
			c0.055,0.111,0.151,0.18,0.299,0.201c-0.021,0.077,0.275,0.077,0.25,0C22.717,28.729,22.854,28.686,22.865,28.512z"/>
		<path fill="#E8423F" d="M15.783,7.209c0.069,0,0.135,0,0.201,0c0.065,0.219-0.126,0.317-0.251,0.2
			C15.73,7.322,15.745,7.253,15.783,7.209z"/>
		<path fill="#E8423F" d="M13.876,7.409c-0.034,0-0.067,0-0.1,0c-0.069-0.225,0.202-0.244,0.301-0.15c0,0.033,0,0.066,0,0.1
			C14.032,7.397,13.963,7.413,13.876,7.409z"/>
		<path fill="#E8423F" d="M15.434,7.558c0.491,0.01,0.793,0.226,1.005,0.518c0,0.033,0.021,0.172,0.034,0.285
			c0.017,0.1-0.045,0.156-0.134,0.15c0.108-0.508-0.35-0.8-0.854-0.852c-0.235,0-0.272,0.04-0.251-0.101
			C15.298,7.558,15.367,7.558,15.434,7.558z"/>
		<path fill="#E8423F" d="M13.173,7.909c-0.081,0.015-0.084-0.046-0.151-0.048c-0.004-0.088,0.012-0.157,0.05-0.202
			c0.05,0,0.101,0,0.151,0C13.322,7.751,13.259,7.863,13.173,7.909z"/>
		<path fill="#E8423F" d="M13.122,8.06c0,0.065,0,0.134,0,0.201c-0.128,0.039-0.23,0.074-0.301-0.049
			C12.792,8.031,12.969,8.059,13.122,8.06z"/>
		<path fill="#E8423F" d="M16.337,9.062c0.058,0.008,0.042,0.091,0.051,0.152c-0.971-0.034-2.077,0.065-2.964-0.051
			c-0.007-0.057,0.012-0.087,0.05-0.101C14.428,9.062,15.383,9.062,16.337,9.062z"/>
		<path fill="#FFD730" d="M12.47,10.566c0.213-0.03,0.333,0.037,0.502,0.05c-0.006,0.111-0.213,0.022-0.301,0.05
			c-0.219-0.047-0.855,0.106-0.754-0.1c0.018,0,0.033,0,0.05,0C12.136,10.566,12.303,10.566,12.47,10.566z"/>
		<path fill="#E8423F" d="M10.913,10.818c-0.128-0.179-0.004-0.451,0.1-0.552c0.185,0.668,0.579,0.595,0.652,0.602
			c0.386,0,0.771,0,1.155,0c0.151,0,0.302,0,0.451,0c0.159-0.024,0.196,0.071,0.302,0.101c0.009,0.043-0.02,0.047-0.05,0.05
			c-0.237,0.02-1.107,0.004-1.655,0c-0.084,0-0.169,0-0.253,0c-0.132,0-0.268,0-0.401,0c-0.034,0-0.067,0-0.101,0
			C11.008,10.956,10.95,10.896,10.913,10.818z"/>
		<path fill="#E8423F" d="M26.115,11.62c0.332,0,0.684,0,1.015,0c0,0.216,0,0.434,0,0.65c-0.332,0-0.666,0-1,0
			c0,0.37,0,0.909,0.007,1.36c-0.25,0-0.56-0.006-0.812-0.006c0-0.451,0-0.901,0-1.354c-0.332,0-0.685,0.003-1.019,0.003
			c0-0.217,0-0.447,0-0.665c0.318,0,0.664-0.003,0.983-0.003c0.005-0.392,0-0.94,0-1.4c0.25,0,0.581,0.008,0.833,0.008
			C26.116,10.678,26.115,11.243,26.115,11.62z"/>
		<path fill="#FFD730" d="M25.492,15.166c0,0.251-0.018,0.544-0.018,0.899c-0.289,0-1.445,0.035-1.576,0.012
			c0-0.154,0.01-0.925,0.01-1.209c0-0.456-0.018-0.777-0.018-1.069c-0.197,0-0.379-0.007-0.58-0.007c0-1.204,0-2.5,0-3.703
			c0.201,0,0.447-0.006,0.648-0.006c0-0.311,0.003-1.161,0.003-2.299c0.358,0,1.278-0.023,1.504-0.008c0,0.35,0.005,0.61,0.005,0.91
			c0.5,0,1.004,0,1.506,0c0-0.3,0-0.601,0-0.902c0.504,0,1.006,0,1.508,0c0,0.369,0,0.789,0,1.156c-0.328,0-0.812-0.002-1.053-0.002
			c0,0.368,0.004,0.765,0.004,1.133c0.285,0,0.701,0.005,1.049,0.005c0,1.203,0.002,2.447,0.002,3.649
			c-0.357,0-0.803,0.026-1.055,0.026c0,0.367,0,0.777,0,1.145c0.289,0,0.719-0.023,1.053,0.007c0,0.369,0,0.736,0,1.104
			c-0.5,0-1.004,0-1.508,0c0-0.285,0-0.568,0-0.853 M26.227,10.042c-0.31,0-0.912-0.003-1.058-0.003
			c0,0.352-0.003,0.943-0.003,1.419c-0.324,0-0.82-0.015-1.049-0.015c0,0.318,0,0.634,0,0.953c0.271,0,0.732,0.001,1.049,0.001
			c0,0.433,0.003,1.029,0.003,1.401c0.353,0,0.737-0.003,1.093-0.003c0-0.754,0.006-1.314,0.014-1.404
			c0.391,0,0.838,0.003,1.004,0.003c0-0.187-0.004-0.616-0.004-0.921c-0.332,0-0.719,0.002-1.053,0.009
			C26.223,11.032,26.227,10.492,26.227,10.042z"/>
		<path fill="#4A2A19" d="M21.408,21.895"/>
		<path fill="#4A2A19" d="M21.509,21.994"/>
		<path fill="#FFD730" d="M22.684,21.954c-0.067,0.687-0.438,1.248-0.771,1.667c-0.156,0.109-0.451,0.294-0.566,0.445
			c-0.355,0.295-0.921,0.651-1.438,0.789c-0.097-0.068-0.015-0.681,0.048-0.754c0.354-0.164,0.676-0.36,0.953-0.604
			c0.119-0.078,0.221-0.181,0.299-0.3c0.294-0.329,0.482-0.758,0.605-1.256C21.979,21.943,22.518,21.954,22.684,21.954z"/>
		<path fill="#FFD730" d="M23.062,21.943c0.133,0.524,0.338,0.968,0.654,1.304c0.047,0.09,0.113,0.155,0.201,0.202
			c0.303,0.283,0.686,0.488,1.059,0.701c-0.047,0.142,0.067,1.053-0.134,1.033c-1.165-0.459-2.171-1.562-2.435-2.918
			c0-0.033,0.15-0.285,0.15-0.322C22.73,21.943,22.898,21.943,23.062,21.943z"/>
		<path fill="#FFD730" d="M25.324,23.75c0.625-0.145,0.457,0.701,0.453,1.354c-0.004,0.562,0.086,0.967-0.354,0.9
			c-0.352-0.051-0.248-0.613-0.248-1.104C25.178,24.417,25.1,23.919,25.324,23.75z"/>
		<path fill="#010202" d="M22.611,23.699c0.436,0.033,0.351,0.587,0.805,0.604c0.132,0.069,0.238,0.107,0.286,0.174
			c-0.005,0.09,0.067,0.148,0.058,0.244c0,0.065,0,0.127,0,0.192c0,0.05-0.094,0.089-0.094,0.14
			c-0.143,0.141-0.213,0.354-0.501,0.352c-0.151,0.229-0.257,0.51-0.604,0.552c-0.08,0-0.16,0.026-0.248,0.026
			c-0.26-0.076-0.487-0.209-0.502-0.527c-0.763,0.02-0.777-1.219-0.052-1.254c0.093-0.246,0.218-0.452,0.503-0.502
			C22.377,23.699,22.497,23.699,22.611,23.699z M22.913,24.15c-0.103-0.426-0.735-0.4-0.952-0.101c0,0.033,0,0.066,0,0.101
			c0,0.021,0.005,0.084,0.002,0.119c-0.007,0.037-0.02,0.071-0.055,0.082c-0.646-0.138-0.766,0.957-0.098,0.9
			c0.064-0.003,0.11,0.004,0.137,0.05c0.035,0.07,0.021,0.119,0.016,0.152c0.02,0.412,0.664,0.421,0.902,0.2
			c0.135-0.104,0.117-0.371,0.197-0.402c0.679,0.07,0.549-1.043-0.098-0.9C22.881,24.341,22.916,24.193,22.913,24.15z"/>
		<path fill="#FFD730" d="M26.078,24.503c0.338,0.022,0.338,0.726,0,0.75C25.917,25.217,25.917,24.535,26.078,24.503z"/>
		<path fill="#E8423F" d="M8.095,24.915c0.164,0.019,0.257,0.149,0.346,0.242c-0.177,0.274-0.614-0.116-0.799-0.155
			C7.634,24.896,7.969,24.861,8.095,24.915z"/>
		<path fill="#FFD730" d="M23.116,21.011c-0.45,0-0.902,0-1.356,0c-0.117-4.118-0.05-9.542-0.05-13.635
			c0.21-0.368,0.403-0.584,0.703-0.619c0.426-0.046,0.604,0.427,0.703,0.751"/>
		<path fill="#FFD730" d="M21.408,21.693c-0.188-0.027-0.17-0.299-0.1-0.45c0.508-0.013,2.926-0.333,2.158,0.45
			C22.781,21.797,22.087,21.848,21.408,21.693z"/>
		<path fill="#FFD730" d="M22.561,27.458l-0.75,0.062c0,0-0.174-0.584-0.465-0.91c-0.072-0.086-0.386-0.396-0.462-0.447
			c-0.383-0.252-0.524-0.325-0.991-0.516c-0.166-0.066-0.004-0.576-0.041-0.847c0.609-0.159,1.088-0.454,1.508-0.801
			c0.138-0.099,0.254-0.213,0.352-0.351c0.312-0.354,0.559-0.782,0.703-1.307c0.23,0.508,0.466,1.004,0.803,1.404
			c0.045,0.09,0.1,0.148,0.2,0.199c0.239,0.185,0.478,0.349,0.754,0.502c0.272,0.15,0.591,0.224,0.806,0.449 M22.264,23.699
			c-0.287,0.05-0.412,0.256-0.504,0.502c-0.728,0.035-0.712,1.271,0.053,1.254c0.015,0.318,0.24,0.424,0.5,0.501
			c0.065,0.004,0.17,0.002,0.248,0c0.349-0.042,0.453-0.322,0.605-0.552c0.289,0,0.359-0.211,0.501-0.354
			c0-0.051,0.177-0.535-0.249-0.749c-0.455-0.018-0.371-0.569-0.807-0.604"/>
		<path fill="#FFD730" d="M19.1,23.898c0.113-0.193,0.488-0.193,0.603,0c-0.154,0.647,0.293,1.957-0.198,2.104
			C18.805,26.218,19.195,24.521,19.1,23.898z"/>
		<path fill="#FFD730" d="M18.896,25.301c-0.473-0.074-0.484-0.724-0.051-0.85c0.018,0,0.033,0,0.051,0
			c0.049,0.134,0.063,0.285,0.063,0.434C18.961,25.021,18.945,25.163,18.896,25.301z"/>
		<path fill="#FFD730" d="M24.872,25.104c0.194,0,0.099,0.471,0.05,0.551c-0.334,0.166-0.676,0.328-0.953,0.552
			c-0.199,0.086-0.33,0.239-0.449,0.403c-0.133,0.268-0.35,0.453-0.402,0.8c-0.107,0.095-0.368,0.034-0.557,0.051
			c0.112-0.589,0.359-1.046,0.707-1.401C23.583,25.646,24.27,25.217,24.872,25.104z"/>
		<path fill="#BA9D25" d="M23.367,27.709c-0.637,0-1.271,0-1.909,0"/>
		<path fill="#4A2A19" d="M29.243,29.409"/>
		<path fill="#E8423F" d="M15.03,7.107c0,0.068,0,0.135,0,0.203c-0.18,0.012-0.347,0.01-0.301-0.203
			C14.846,7.093,14.938,7.01,15.03,7.107z"/>
		<path fill="#E8423F" d="M16.438,7.409c0.066,0.226-0.203,0.243-0.304,0.15c0-0.049,0-0.099,0-0.15
			C16.282,7.362,16.29,7.362,16.438,7.409z"/>
		<path fill="#E8423F" d="M15.03,7.509c0.069,0.224-0.202,0.242-0.301,0.15c0-0.049,0-0.101,0-0.15
			C14.877,7.463,14.885,7.463,15.03,7.509z"/>
		<path fill="#E8423F" d="M15.03,8.112c-0.18,0.013-0.347,0.012-0.301-0.203C14.905,7.9,15.106,7.867,15.03,8.112z"/>
		<path fill="#E8423F" d="M15.03,8.511c-0.15,0.07-0.349,0.058-0.301-0.201C14.88,8.24,15.078,8.252,15.03,8.511z"/>
		<path fill="#E8423F" d="M16.287,8.711c0.072,0.028,0.258-0.058,0.251,0.05c-0.167,0.188-0.504,0.1-0.754,0.1
			C15.02,8.864,14.01,8.898,13.273,8.81c-0.051-0.167,0.157-0.077,0.252-0.099c0.402,0,0.803,0,1.206,0c0.117,0,0.235,0,0.353,0
			C15.482,8.711,15.885,8.711,16.287,8.711z"/>
	</g>
</g>
<path id="border" fill="#CCCCCC" d="M17.5,1C26.6,1,34,8.402,34,17.5C34,26.598,26.6,34,17.5,34C8.402,34,1,26.598,1,17.5
	C1,8.402,8.402,1,17.5,1 M17.5,0C7.835,0,0,7.835,0,17.5C0,27.164,7.835,35,17.5,35S35,27.164,35,17.5C35,7.835,27.165,0,17.5,0
	L17.5,0z"/>
</svg>
