<?xml version="1.0" encoding="utf-8"?>
<!-- Generator: Adobe Illustrator 16.0.4, SVG Export Plug-In . SVG Version: 6.00 Build 0)  -->
<!DOCTYPE svg PUBLIC "-//W3C//DTD SVG 1.1//EN" "http://www.w3.org/Graphics/SVG/1.1/DTD/svg11.dtd" [
	<!ENTITY ns_extend "http://ns.adobe.com/Extensibility/1.0/">
	<!ENTITY ns_ai "http://ns.adobe.com/AdobeIllustrator/10.0/">
	<!ENTITY ns_graphs "http://ns.adobe.com/Graphs/1.0/">
	<!ENTITY ns_vars "http://ns.adobe.com/Variables/1.0/">
	<!ENTITY ns_imrep "http://ns.adobe.com/ImageReplacement/1.0/">
	<!ENTITY ns_sfw "http://ns.adobe.com/SaveForWeb/1.0/">
	<!ENTITY ns_custom "http://ns.adobe.com/GenericCustomNamespace/1.0/">
	<!ENTITY ns_adobe_xpath "http://ns.adobe.com/XPath/1.0/">
]>
<svg version="1.1" id="Layer_1" xmlns:x="&ns_extend;" xmlns:i="&ns_ai;" xmlns:graph="&ns_graphs;"
	 xmlns="http://www.w3.org/2000/svg" xmlns:xlink="http://www.w3.org/1999/xlink" x="0px" y="0px" width="35px" height="35px"
	 viewBox="0 0 35 35" enable-background="new 0 0 35 35" xml:space="preserve">
<metadata>
	<sfw  xmlns="&ns_sfw;">
		<slices></slices>
		<sliceSourceBounds  bottomLeftOrigin="true" width="35" height="35" x="280" y="192"></sliceSourceBounds>
	</sfw>
</metadata>
<g id="Ebene_1">
	<g id="Ebene_2">
		<circle fill="#EA3648" cx="17.438" cy="17.5" r="16.917"/>
	</g>
	<g id="Ebene_1_1_">
		<g id="Ebene_4">
			<ellipse fill="#FFFFFF" cx="18.846" cy="8.301" rx="2.469" ry="2.808"/>
			<circle fill="#FFFFFF" cx="18.264" cy="16.324" r="1.88"/>
			<polygon fill="#FFFFFF" points="11.845,13.855 10.343,13.715 9.45,13.715 9.239,13.787 9.055,13.882 9.401,15.289 10.459,15.34 
				11.919,15.196 			"/>
			<polygon fill="#FFFFFF" points="17.202,17.756 18.684,20.479 19.669,27.225 19.412,28.281 18.8,28.307 16.405,19.85 
				16.498,18.229 			"/>
			<polygon fill="#FFFFFF" points="16.356,28.188 16.356,28.657 16.145,29.295 14.971,28.938 14.738,28.753 14.996,28.162 			"/>
		</g>
		<path fill="#010202" d="M18.443,8.052c-0.131,0-0.262,0-0.391,0c0.061-0.144,0.301-0.112,0.504-0.113
			c0.049,0.122,0.146,0.192,0.111,0.396c-0.098,0.226-0.197,0.94,0.337,0.728c0.152,0.099-0.325,0.041-0.448,0.054
			C18.482,9.101,18.51,8.978,18.5,8.892C18.582,8.735,18.637,8.124,18.443,8.052z"/>
		<path fill="#010202" d="M18.559,9.565c-0.183-0.199,0.439-0.081,0.617-0.111C19.166,9.689,18.742,9.508,18.559,9.565z"/>
		<path fill="#FFD730" d="M18.053,13.489c0.899,0,1.799,0,2.694,0c0,0.579,0,1.16,0,1.738c-0.896,0-1.795,0-2.694,0
			C18.053,14.65,18.053,14.068,18.053,13.489z"/>
		<path fill="#010202" d="M14.809,28.645c0.511-0.021,1.013,0,1.52,0c0,0.131,0,0.262,0,0.393c0.003,0.287,0.023,0.585-0.115,0.73
			c-0.467,0.182-1.24,0.112-2.021,0.112c-0.587,0-1.749,0.138-1.52-0.624C12.87,28.607,14.547,29.35,14.809,28.645z"/>
		<path fill="#010202" d="M12.033,13.713c2.663-0.185,4.476-1.217,5.568-2.97c-0.825-0.453-1.657-1.121-1.799-2.243
			c-0.372-2.899,3.395-4.298,5.4-2.411c1.167,1.1,1.229,3.479-0.505,4.373c0.439,0.534,1.218,0.499,1.686,1.009
			c0.391,0.426,0.758,1.875,0.955,2.523c0.292,0.944,0.684,1.928,0.562,2.804c-0.16,0.14-0.334,0.261-0.676,0.222
			c-0.422,0.085-1.496-0.184-1.465,0.169c0.436,3.963,0.979,7.811,1.465,11.718c-0.537,0.211-1.012,0.534-1.632,0.842
			c-0.384,0.192-1.478,0.819-1.631,0.224c-0.172-0.705,1.188-0.943,1.347-1.515c-0.158-0.356-1.453-0.075-2.076-0.168
			c-0.649-3.076-1.119-6.363-1.856-9.418c-0.034-0.142,0.084-0.522-0.224-0.507c-0.041,0.72,0.167,1.593,0.34,2.469
			c0.461,2.387,1.005,4.999,1.404,7.516c-1.312,0-2.625,0-3.938,0c0.284-4.394,0.733-8.615,1.013-13.009
			c-0.75-0.094-1.894-0.094-2.643,0c-0.471,0-0.939,0-1.407,0c-0.356-0.094-1.128,0.009-1.462,0c0.503,4.841,1.103,9.591,1.63,14.41
			c-0.223,0.095-0.592,0.046-0.841,0.115c-0.287-2.337-0.545-4.753-0.845-7.181c-0.377-3.057-0.718-6.452-1.349-8.802
			c0.328-0.145,0.136-0.559,0.112-0.953c-0.507-0.172-0.697-0.981-0.168-1.291c-0.179-1.543-0.383-3.059-0.564-4.598
			C8.193,6.728,7.905,6.807,7.871,6.369c-0.108-1.426,3.055-0.727,1.577,0.449c0.214,1.524,0.34,3.135,0.561,4.654
			c0.549,0.227,0.741,0.998,0.113,1.29c0.091,0.21,0.055,0.544,0.113,0.785C10.4,13.904,11.593,13.722,12.033,13.713z M19.794,9.902
			c0.251-0.06,0.452,0.407,0.786,0.448c1.509-0.649,1.656-3.005,0.562-4.092c-1.607-1.604-4.917-0.765-5.171,1.514
			c-0.157,1.383,0.628,2.28,1.743,2.803c0.131-0.203,0.266-0.409,0.339-0.673c-0.78-0.395-1.577-1.398-1.071-2.581
			c0.302-0.699,1.218-1.126,1.915-1.119c2.07,0.012,2.764,2.806,0.844,3.7c-0.072,0.17-0.164,0.323-0.225,0.505
			c-0.178,0.18-1.008,0.18-1.182,0c-0.052-0.194-0.102-0.387-0.227-0.505c-0.004,0.38,0.053,0.694,0.11,1.01
			c0.489,0,0.978,0,1.468,0C19.697,10.554,19.812,10.292,19.794,9.902z M19.962,7.545c-0.362-0.472-1.815-0.358-2.138,0.058
			c-0.141,0.831-0.007,1.823,0.395,2.298c0.557-0.023,1.252,0.089,1.575-0.167C20.085,9.236,19.922,8.29,19.962,7.545z M8.042,6.481
			c0.195,0.599,1.71,0.333,1.63-0.336C9.63,5.797,9.195,5.666,8.658,5.754C8.191,5.826,7.91,6.079,8.042,6.481z M9.84,11.415
			C9.63,9.942,9.43,8.458,9.334,6.874c-0.233,0.048-0.418,0.145-0.73,0.112c0.19,1.532,0.38,3.061,0.562,4.599
			C9.348,11.485,9.762,11.618,9.84,11.415z M8.83,12.312c0.083,0.659,1.541,0.492,1.517-0.167c-0.015-0.392-0.302-0.482-0.787-0.448
			C9.055,11.73,8.783,11.95,8.83,12.312z M10.064,13.713c0.013-0.325-0.098-0.537-0.056-0.895c-0.168,0.074-0.429,0.056-0.674,0.056
			c0.005,0.239,0.094,0.391,0.057,0.673 M17.544,15.284c0.132,0,0.262,0,0.396,0c0-0.616,0-1.232,0-1.85
			c-0.118,0.033-0.37-0.069-0.396,0.055 M18.053,13.489c0,0.579,0,1.16,0,1.738c0.793-0.046,1.965-0.039,2.694,0
			c-0.024-0.448,0.022-1.26,0-1.738 M9.166,13.882c0.159,0.271,0.876-0.013,1.125,0.169c0.157,0.396,0.037,0.723,0.169,1.12
			c0.319,0.093,1.03,0.093,1.348,0c-0.009-0.458-0.065-0.867-0.111-1.289C10.984,13.789,9.878,13.789,9.166,13.882z M10.291,14.162
			c-0.219-0.118-0.647-0.028-0.957-0.056c-0.004,0.071-0.072,0.077-0.055,0.169C9.49,14.319,10.251,14.473,10.291,14.162z
			 M10.291,14.5c-0.19-0.056-0.937-0.188-0.957,0.113c0.2,0.083,0.759,0.101,0.957,0C10.291,14.576,10.291,14.538,10.291,14.5z
			 M9.391,14.948c0.291-0.064,0.848,0.137,0.956-0.111C10.156,14.78,9.408,14.647,9.391,14.948z M9.448,15.115
			c0,0.018,0,0.039,0,0.056c0.16,0.064,0.828,0.158,0.898-0.056C10.175,15.022,9.615,15.022,9.448,15.115z M9.672,15.454
			c0.448,4.142,1.065,8.479,1.574,12.614c0.042,0.351-0.065,1.736,0.505,1.572c0.301-0.086-0.026-1.311-0.057-1.572
			c-0.499-4.357-0.944-8.524-1.405-12.727C10.102,15.383,9.511,15.238,9.672,15.454z M16.926,15.396
			c-0.052,0.573,0.723,0.327,1.013,0.562c-0.224,0.061-0.694-0.129-0.733,0.111c0.108,0.19,0.712-0.112,0.733,0.168
			c-0.224,0.061-0.694-0.13-0.733,0.113c0.116,0.165,0.617-0.054,0.733,0.113c-0.094,0.188-0.674-0.112-0.678,0.165
			c0.583,0.132,1.408,0.021,2.082,0.059c0.021-0.489-0.125-0.811-0.112-1.291c-0.584,0.07-1.458-0.145-1.855,0.113
			c0.114,0.165,0.614-0.054,0.729,0.112C17.625,15.887,17.064,15.475,16.926,15.396z"/>
		<path fill="#FFD730" d="M19.738,9.902c1.921-0.894,1.229-3.688-0.844-3.7c-0.694-0.005-1.615,0.42-1.914,1.119
			c-0.506,1.183,0.291,2.187,1.072,2.58c-0.074,0.264-0.208,0.47-0.34,0.673c-1.115-0.522-1.899-1.42-1.743-2.802
			c0.256-2.279,3.565-3.119,5.172-1.514c1.092,1.088,0.944,3.444-0.563,4.093c-0.335-0.04-0.537-0.509-0.786-0.449
			C19.775,9.902,19.756,9.902,19.738,9.902z"/>
		<path fill="#988844" d="M18.334,10.407c0.174,0.18,1.004,0.18,1.182,0C19.451,10.677,18.393,10.677,18.334,10.407z"/>
		<path fill="#FFD730" d="M9.166,11.582c-0.182-1.535-0.373-3.063-0.562-4.596c0.313,0.032,0.497-0.064,0.73-0.112
			C9.43,8.458,9.63,9.942,9.839,11.415C9.762,11.618,9.348,11.485,9.166,11.582z"/>
		<path fill="#010202" d="M19.006,8.107c-0.006-0.32,0.797-0.32,0.786,0C19.605,7.928,19.212,7.999,19.006,8.107z"/>
		<path fill="#010202" d="M18.105,8.498c-0.016-0.144,0.021-0.239,0.17-0.221C18.387,8.38,18.307,8.546,18.105,8.498z"/>
		<path fill="#010202" d="M19.23,8.498c-0.015-0.144,0.021-0.239,0.168-0.221C19.509,8.38,19.432,8.546,19.23,8.498z"/>
		<path fill="#FFD730" d="M8.658,5.754c0.537-0.088,0.971,0.043,1.014,0.391c0.08,0.669-1.436,0.937-1.63,0.336
			C7.91,6.079,8.191,5.826,8.658,5.754z"/>
		<path fill="#FFD730" d="M9.559,11.696c0.485-0.034,0.772,0.056,0.787,0.448c0.024,0.659-1.432,0.826-1.517,0.167
			C8.783,11.95,9.055,11.73,9.559,11.696z"/>
		<path fill="#FFD730" d="M9.391,13.546c0.038-0.282-0.051-0.434-0.057-0.673c0.245,0,0.505,0.018,0.674-0.056
			c-0.042,0.359,0.068,0.57,0.056,0.895C9.803,13.697,9.417,13.799,9.391,13.546z"/>
		<path fill="#FFD730" d="M17.544,13.489c0.025-0.125,0.278-0.023,0.396-0.055c0,0.617,0,1.232,0,1.85c-0.134,0-0.263,0-0.396,0
			C17.544,14.685,17.544,14.09,17.544,13.489z"/>
		<path fill="#FFD730" d="M10.291,15.34c0.462,4.203,0.905,8.37,1.406,12.727c0.028,0.261,0.356,1.483,0.055,1.574
			c-0.571,0.164-0.464-1.223-0.504-1.574c-0.511-4.133-1.127-8.471-1.574-12.613C9.511,15.238,10.102,15.383,10.291,15.34z"/>
	</g>
</g>
<path id="border" fill="#CCCCCC" d="M17.5,1C26.6,1,34,8.402,34,17.5C34,26.598,26.6,34,17.5,34C8.402,34,1,26.598,1,17.5
	C1,8.402,8.402,1,17.5,1 M17.5,0C7.835,0,0,7.835,0,17.5C0,27.164,7.835,35,17.5,35S35,27.164,35,17.5C35,7.835,27.165,0,17.5,0
	L17.5,0z"/>
</svg>
