<?xml version="1.0" encoding="utf-8"?>
<!-- Generator: Adobe Illustrator 16.0.4, SVG Export Plug-In . SVG Version: 6.00 Build 0)  -->
<!DOCTYPE svg PUBLIC "-//W3C//DTD SVG 1.1//EN" "http://www.w3.org/Graphics/SVG/1.1/DTD/svg11.dtd" [
	<!ENTITY ns_extend "http://ns.adobe.com/Extensibility/1.0/">
	<!ENTITY ns_ai "http://ns.adobe.com/AdobeIllustrator/10.0/">
	<!ENTITY ns_graphs "http://ns.adobe.com/Graphs/1.0/">
	<!ENTITY ns_vars "http://ns.adobe.com/Variables/1.0/">
	<!ENTITY ns_imrep "http://ns.adobe.com/ImageReplacement/1.0/">
	<!ENTITY ns_sfw "http://ns.adobe.com/SaveForWeb/1.0/">
	<!ENTITY ns_custom "http://ns.adobe.com/GenericCustomNamespace/1.0/">
	<!ENTITY ns_adobe_xpath "http://ns.adobe.com/XPath/1.0/">
]>
<svg version="1.1" id="Layer_1" xmlns:x="&ns_extend;" xmlns:i="&ns_ai;" xmlns:graph="&ns_graphs;"
	 xmlns="http://www.w3.org/2000/svg" xmlns:xlink="http://www.w3.org/1999/xlink" x="0px" y="0px" width="35px" height="35px"
	 viewBox="0 0 35 35" enable-background="new 0 0 35 35" xml:space="preserve">
<metadata>
	<sfw  xmlns="&ns_sfw;">
		<slices></slices>
		<sliceSourceBounds  bottomLeftOrigin="true" width="35" height="35" x="280" y="192"></sliceSourceBounds>
	</sfw>
</metadata>
<g id="Ebene_2">
	<circle fill="#2CB75E" cx="17.438" cy="17.437" r="16.688"/>
</g>
<g>
	<rect x="14.096" y="10.162" fill="#FFFFFF" width="7.208" height="16.928"/>
	<polygon fill="#FFFFFF" points="19.339,6.099 18.713,6.544 18.663,5.687 19.189,5.818 	"/>
	<path fill="#2CB75E" d="M13.875,11.645c0-0.368,0-0.737,0-1.104c2.555,0,5.111,0,7.667,0c0,0.367,0,0.736,0,1.104
		C18.984,11.645,16.43,11.645,13.875,11.645z"/>
	<path fill="#11843D" d="M13.875,11.707c0-0.021,0-0.042,0-0.062c2.555,0,5.111,0,7.667,0
		C19.107,11.788,16.409,11.665,13.875,11.707z"/>
	<path fill="#2CB75E" d="M21.549,26.688c-2.554,0-5.195-0.008-7.751-0.008c0-0.367,0.016-0.865,0.016-1.232
		c2.575-0.008,5.17-0.018,7.729-0.018C21.542,25.797,21.549,26.318,21.549,26.688z"/>
	<path fill="#FFFFFF" d="M16.697,5.143c0,0.552,0,1.104,0,1.656c-0.799,0.522-1.319,0.859-2.393,1.596
		c-1.065-0.981-0.999-3.897-0.121-5.031C14.839,4.136,15.609,4.798,16.697,5.143z"/>
	<path fill="#FFFFFF" d="M16.819,10.295c-0.45,0-0.901,0-1.351,0c0.019-0.372-0.048-0.826,0.062-1.104
		c0.103-0.102,0.275-0.133,0.367-0.246C16.766,8.836,16.901,9.458,16.819,10.295z"/>
	<path fill="#FFFFFF" d="M19.945,10.295c-0.45,0-0.899,0-1.35,0c0.02-0.372-0.051-0.826,0.062-1.104
		c0.104-0.102,0.275-0.133,0.367-0.246C19.895,8.835,20.018,9.467,19.945,10.295z"/>
	<path fill="#FFFFFF" d="M21.174,10.295c-0.348,0-0.697,0-1.043,0c-0.015-0.626-0.083-1.311,0.493-1.349
		C21.27,8.931,21.188,9.646,21.174,10.295z"/>
	<path fill="#FFFFFF" d="M14.181,11.89c0.368,0,0.735,0,1.104,0c0,0.838,0,1.677,0,2.515c-0.414-0.383-0.759-0.835-1.104-1.287
		C14.181,12.708,14.181,12.3,14.181,11.89z"/>
	<path fill="#2CB75E" d="M21.542,24.343c0.007,0.152,0,0.168-0.101,0.036c-0.055-0.027-0.662-0.729-0.817-0.917
		c-0.358-0.34-0.624-0.868-0.981-1.205c-0.308-0.413-0.637-0.796-0.982-1.164c-0.198-0.325-0.477-0.553-0.736-0.86
		c-0.077-0.092-0.253-0.106-0.257-0.233c-0.705-0.704-1.285-1.562-1.94-2.312c-0.638-0.754-1.245-1.517-1.851-2.299
		c0-0.757,0-1.514,0-2.27c0.088,0.035,0.15,0.095,0.184,0.185c2.497,2.942,4.988,5.886,7.483,8.832
		C21.542,22.871,21.542,23.607,21.542,24.343z"/>
	<path fill="#2CB75E" d="M18.902,18.577c-0.289-0.076-0.927-0.912-1.042-1.167c1.213-1.427,2.436-2.84,3.616-4.293
		c0.146,0.614,0.023,1.493,0.064,2.208c0,0.041,0,0.081,0,0.122c-0.053,0.012-0.062,0.062-0.125,0.062
		C20.629,16.578,19.688,17.499,18.902,18.577z"/>
	<path fill="#FFFFFF" d="M16.451,18.82c-0.329,0.349-0.653,0.695-0.92,1.104c-0.144-0.592-0.021-1.452-0.063-2.146
		c-0.009-0.27,0.208,0.056,0.248,0.123c0.134,0.049,0.151,0.213,0.244,0.307C16.146,18.393,16.342,18.562,16.451,18.82z"/>
	<path fill="#FFFFFF" d="M18.965,18.82c0.235-0.461,0.631-0.76,0.922-1.164c0.141,0.632,0.021,1.533,0.059,2.268
		C19.588,19.588,19.32,19.164,18.965,18.82z"/>
	<path fill="#2CB75E" d="M17.556,20.047c-0.076,0.275-3.043,3.729-3.65,4.448c-0.144-0.613,0.01-1.584-0.031-2.302
		c0.164-0.346,0.456-0.564,0.674-0.855c0.223-0.271,0.445-0.537,0.675-0.8c0.442-0.538,0.895-1.067,1.349-1.595
		C16.935,19.275,17.205,19.701,17.556,20.047z"/>
	<path fill="#292D2D" d="M13.752,12.626c0.056,0.109,0.137,0.189,0.244,0.246c0-0.306,0-0.614,0-0.919
		c0.011-0.133-0.217-0.028-0.306-0.062c0-0.491,0-0.982,0-1.473c-0.056-0.241,0.323-0.044,0.368-0.184
		c-0.037-0.732-0.053-1.444,0.614-1.473c0.344,0.004,0.571,0.123,0.674,0.368c0.303-0.48,1.279-0.447,1.594,0
		c0.102-0.598,0.102-1.608,0-2.208c-0.417,0.133-2.397,1.67-2.714,1.763c-0.168-0.198-0.333-0.46-0.474-0.721
		c-1.288-2.361,0.081-4.701,0.551-4.906c0.519,1.016,1.493,1.574,2.637,1.964c0.143-0.349,0.022-0.961,0.063-1.411
		c0.136-0.149,0.246-0.327,0.428-0.43c0.186,0,0.367,0,0.552,0c0.619,0.222,0.392,1.286,0.43,2.085
		c0.165,0.081,0.312,0.161,0.489,0.245c0.35,0.22,0.357,0.236,0.695,0.527c-0.173,0.109-0.658,0.469-1.186,0.822
		c0,0.737,0,1.473,0,2.208c0.193,0.109,0.381-0.313,0.676-0.307c0.402,0.006,0.764,0.052,0.855,0.368
		c0.201,0.017,0.131-0.238,0.31-0.245c0.113-0.048,0.224-0.102,0.368-0.123c0.748-0.012,0.787,0.685,0.734,1.473
		c0.01,0.135,0.262,0.026,0.367,0.061c0,0.533,0,1.063,0,1.595c-0.123,0-0.246,0-0.367,0c0,0.328,0,0.655,0,0.981
		c0.064,0.118,0.326-0.15,0.389-0.235c0,0.911,0.029,1.933,0.029,2.874c-0.092,0.13-0.271,0.227-0.357,0.368
		c-0.102,1.779-0.102,3.988,0,5.764c0.088,0.159,0.209,0.285,0.309,0.433c0,0.919,0,1.839,0,2.761
		c-0.074,0.312-0.203-0.252-0.367-0.246c0,0.204,0,0.408,0,0.613c0.024,0.139,0.301,0.023,0.43,0.06c0,0.534,0,1.065,0,1.597
		c-0.143,0-0.285,0-0.43,0c0.017,0.693,0.067,1.418-0.432,1.597c-0.427,0.041-0.807-0.047-0.922-0.321
		c-0.089,0.189-0.199,0.284-0.428,0.321c-0.526,0.056-0.877-0.062-1.105-0.308c-0.141,0.758-0.019,1.778-0.06,2.637
		c-0.212,0.334-0.541,0.545-1.043,0.432c-0.129-0.134-0.252-0.279-0.366-0.432c0-0.876,0-1.758,0-2.637
		c-0.132-0.123-0.149,0.052-0.247,0.123c-0.117,0.086-0.185,0.138-0.305,0.185c-0.479,0.024-0.898-0.002-1.043-0.308
		c-0.219,0.412-1.283,0.42-1.427-0.064c0-0.368-0.033-0.705-0.033-1.074c-0.009-0.175-0.145-0.139-0.319-0.148
		c0-0.531,0-1.062,0-1.598c0.124,0,0.246,0,0.368,0c0-0.182,0-0.365,0-0.551c-0.095-0.169-0.25,0.439-0.368,0.246
		c0-0.92,0-1.838,0-2.762c0.063-0.244,0.261-0.35,0.368-0.553c0.103-1.775,0.103-3.983,0-5.763
		c-0.063-0.162-0.243-0.207-0.306-0.368C13.731,14.569,13.608,13.464,13.752,12.626z M17.186,3.67c0,0.47,0,0.941,0,1.411
		c0.384,0.024,0.704,0.113,1.042,0.184c-0.028-0.563,0.064-1.253-0.061-1.717C17.951,3.262,17.27,3.312,17.186,3.67z M14.181,3.364
		c-0.876,1.134-0.944,4.049,0.122,5.031c0.654-0.492,1.564-1.083,2.393-1.596c0-0.552,0-1.104,0-1.656
		C15.609,4.798,14.839,4.136,14.181,3.364z M16.879,5.205c0,0.511,0,1.021,0,1.532c0.589-0.002,1.145-0.042,1.655-0.123
		c0-0.368,0-0.736,0-1.104C17.931,5.462,17.533,5.207,16.879,5.205z M18.718,5.695c0,0.306,0.021,0.556,0.021,0.786
		c0.209-0.187,0.428-0.279,0.601-0.452C19.193,5.917,18.961,5.849,18.718,5.695z M17.186,6.921c0,0.655,0,1.309,0,1.963
		c0.302-0.084,0.742-0.084,1.042,0c0-0.675,0-1.349,0-2.024C17.816,6.814,17.592,6.958,17.186,6.921z M15.285,9.315
		c-0.131-0.115-0.21-0.331-0.369-0.37c-0.12-0.029-0.382-0.002-0.491,0.062c-0.313,0.185-0.236,0.803-0.244,1.287
		c0.368,0,0.735,0,1.104,0C15.285,9.968,15.285,9.64,15.285,9.315z M15.898,8.946c-0.093,0.112-0.264,0.144-0.367,0.246
		c-0.111,0.277-0.043,0.732-0.062,1.104c0.45,0,0.9,0,1.351,0C16.901,9.458,16.766,8.836,15.898,8.946z M17.004,9.253
		c0,0.347,0,0.695,0,1.042c0.469,0,0.94,0,1.409,0c0-0.347,0-0.695,0-1.042C18.161,8.864,17.25,8.84,17.004,9.253z M19.027,8.946
		c-0.094,0.112-0.266,0.144-0.368,0.246c-0.111,0.277-0.042,0.732-0.062,1.104c0.448,0,0.897,0,1.348,0
		C20.018,9.467,19.895,8.835,19.027,8.946z M20.622,8.946c-0.576,0.039-0.507,0.723-0.493,1.349c0.348,0,0.697,0,1.044,0
		C21.188,9.646,21.27,8.931,20.622,8.946z M13.875,11.707c2.534-0.042,5.234,0.081,7.667-0.062c0-0.369,0-0.737,0-1.104
		c-2.453-0.144-5.174-0.02-7.729-0.06C13.852,10.868,13.732,11.418,13.875,11.707z M14.181,13.118
		c0.344,0.453,0.69,0.904,1.104,1.287c0-0.837,0-1.677,0-2.515c-0.369,0-0.736,0-1.104,0C14.181,12.3,14.181,12.708,14.181,13.118z
		 M15.467,11.951c0,0.9,0,1.798,0,2.7c0.394,0.507,1.396,1.672,1.351,1.473c0-1.412,0-2.739,0-4.149
		C16.404,11.974,15.837,11.951,15.467,11.951z M18.352,11.89c-0.449,0-0.897,0-1.348,0c0.039,1.513-0.084,3.19,0.062,4.6
		c0.169,0.319,0.4,0.58,0.673,0.798c0.187-0.284,0.457-0.484,0.613-0.798C18.352,15.094,18.346,13.493,18.352,11.89z M19.945,11.951
		c-0.422,0-1.006,0-1.35,0c0,1.287,0,2.576,0,3.865c0,0.102,0,0.205,0,0.308c-0.012,0.102,0.942-0.96,1.289-1.412 M21.174,11.951
		c-0.229-0.142-0.714-0.021-1.043-0.062c0,0.774,0,1.809,0,2.454c0,0.095,0.092,0.013,0.123-0.061c0.309-0.388,0.7-0.69,0.921-1.166
		C21.174,12.728,21.174,12.34,21.174,11.951z M21.542,22.133c-2.496-2.943-4.988-5.889-7.484-8.832
		c-0.035-0.089-0.096-0.15-0.185-0.185c0,0.755,0,1.513,0,2.27c0.606,0.782,1.266,1.514,1.901,2.271
		c0.658,0.752,2.685,3.109,2.884,3.436c0.347,0.367,2.732,3.256,2.787,3.281c0.078,0.1,0.103,0.121,0.097-0.031
		C21.542,23.607,21.542,22.871,21.542,22.133z M21.542,15.326c-0.041-0.716,0.081-1.594-0.063-2.208
		c-1.183,1.453-2.403,2.866-3.617,4.293c0.236,0.235,0.756,0.878,1.042,1.167C19.688,17.499,21.542,15.366,21.542,15.326z
		 M14.365,16.307c0.001-0.062-0.05-0.073-0.061-0.123c-0.077-0.014-0.125-0.095-0.121,0.062c0,0.123,0,0.244,0,0.367
		c0,1.577,0,3.147,0,4.725c0,0.062,0.106,0.078,0.121,0c0.295-0.464,0.763-0.752,0.982-1.291c0-0.878,0-1.758,0-2.636
		C15.002,17.017,14.682,16.667,14.365,16.307z M21.051,21.215c-0.019,0.045,0.131,0.171,0.123,0.186c0.102-0.195,0-0.938,0-1.291
		c0-1.278,0.047-3.007-0.061-3.925c-0.018,0.088-0.102,0.103-0.125,0.186c-0.282,0.37-0.661,0.643-0.857,1.104
		c0,0.899,0,1.797,0,2.698C20.439,20.516,20.704,20.908,21.051,21.215z M15.96,18.207c-0.093-0.093-0.11-0.257-0.244-0.306
		c-0.039-0.066-0.256-0.393-0.247-0.123c0.042,0.695-0.081,1.553,0.062,2.146c0.266-0.408,0.592-0.756,0.92-1.104
		C16.342,18.562,16.146,18.393,15.96,18.207z M19.945,19.925c-0.039-0.735,0.08-1.636-0.061-2.268
		c-0.287,0.405-0.686,0.702-0.921,1.165C19.32,19.164,19.588,19.588,19.945,19.925z M16.572,18.943
		c-0.454,0.527-0.907,1.057-1.349,1.595c-0.229,0.263-0.453,0.528-0.675,0.8c-0.219,0.291-0.511,0.51-0.674,0.855
		c0.041,0.718-0.009,1.611-0.009,2.242c0.608-0.723,3.614-4.113,3.69-4.39C17.205,19.701,16.935,19.275,16.572,18.943z
		 M18.352,21.029c-0.213-0.276-0.413-0.567-0.674-0.797c-0.179,0.287-0.442,0.498-0.611,0.797c-0.146,1.287-0.023,2.844-0.062,4.229
		c0.449,0,0.899,0,1.348,0C18.352,23.962,18.352,22.329,18.352,21.029z M16.757,25.26c0-0.734,0.016-1.337,0.016-2.066
		c0-0.35,0.016-0.65,0.016-1c-0.03-0.226,0.117-1.076-0.092-0.735c-0.223,0.229-0.457,0.442-0.615,0.735
		c-0.232,0.219-0.462,0.439-0.615,0.738c0,0.776,0,1.555,0,2.327C15.898,25.26,16.328,25.26,16.757,25.26z M18.718,21.459
		c0-0.095-0.165-0.202-0.12,0c0,1.268,0,2.533,0,3.801c0.448,0,0.897,0,1.348,0c-0.038-0.773,0.082-1.714-0.059-2.389
		c-0.011-0.018,0.01-0.053,0-0.062C19.484,22.343,19.128,21.893,18.718,21.459z M14.181,24.464c0,0.267,0,0.531,0,0.796
		c0.368,0,0.735,0,1.104,0c-0.041-0.693-0.011-1.541-0.011-2.214c0,0.06-0.101,0.144-0.111,0.19
		C14.847,23.657,14.436,23.98,14.181,24.464z M20.254,23.236c-0.016-0.068-0.066-0.096-0.125-0.122c0,0.717,0,1.431,0,2.145
		c0.33-0.038,0.816,0.083,1.044-0.06c0-0.284,0-0.572,0-0.856C20.885,23.957,20.553,23.614,20.254,23.236z M21.512,25.475
		c-2.464,0-5.144,0.014-7.698-0.027c0,0.408,0,0.816,0,1.225c2.505,0,5.274,0.012,7.722,0.012
		C21.533,26.314,21.512,25.846,21.512,25.475z M15.285,26.855c-0.369,0-0.736,0-1.104,0c-0.002,0.612-0.102,1.328,0.429,1.41
		C15.444,28.406,15.279,27.545,15.285,26.855z M16.451,28.268c0.443-0.15,0.378-0.808,0.368-1.412c-0.45,0-0.9,0-1.351,0
		c0.023,0.408-0.054,0.916,0.063,1.228C15.741,28.24,16.046,28.305,16.451,28.268z M17.739,28.329
		c0.252-0.074,0.566-0.089,0.613-0.367c0.145-0.247,0.021-0.755,0.062-1.104c-0.47,0-0.94,0-1.409,0c0,0.39,0,0.777,0,1.166
		C17.182,28.191,17.41,28.311,17.739,28.329z M18.598,27.962c0.221,0.411,1.205,0.427,1.348-0.062c0-0.348,0-0.692,0-1.043
		c-0.449,0-0.898,0-1.348,0C18.598,27.225,18.598,27.592,18.598,27.962z M21.174,26.855c-0.348,0-0.697,0-1.043,0
		c0.016,0.537-0.097,1.201,0.245,1.41c0.188-0.043,0.226,0.063,0.369,0.062C21.279,28.23,21.174,27.492,21.174,26.855z
		 M17.186,28.329c0,0.041,0,0.081,0,0.124c0.005,0.438-0.004,0.936,0,1.408c0.005,0.484-0.059,0.961,0.246,1.166
		c0.186,0,0.367,0,0.552,0c0.313-0.215,0.243-0.725,0.245-1.228c0.002-0.522,0.047-1.099-0.06-1.472
		C17.974,28.529,17.396,28.469,17.186,28.329z"/>
	<path fill="#FFFFFF" d="M15.285,10.295c-0.369,0-0.736,0-1.104,0c0.008-0.485-0.069-1.104,0.244-1.287
		c0.109-0.064,0.372-0.091,0.491-0.062c0.158,0.038,0.237,0.255,0.369,0.37C15.285,9.64,15.285,9.968,15.285,10.295z"/>
	<path fill="#0B4E25" d="M21.417,15.877c0,1.922,0,3.844,0,5.764C21.314,19.865,21.314,17.657,21.417,15.877z"/>
	<path fill="#FFFFFF" d="M20.744,28.329c-0.145,0.001-0.182-0.106-0.369-0.062c-0.342-0.209-0.229-0.875-0.246-1.41
		c0.348,0,0.697,0,1.044,0C21.174,27.492,21.279,28.23,20.744,28.329z"/>
	<path fill="#FFFFFF" d="M15.531,28.082c-0.117-0.312-0.04-0.816-0.062-1.227c0.45,0,0.9,0,1.351,0
		c0.011,0.604,0.075,1.261-0.368,1.41C16.046,28.305,15.741,28.24,15.531,28.082z"/>
	<path fill="#FFFFFF" d="M17.004,28.021c0-0.388,0-0.775,0-1.166c0.469,0,0.94,0,1.409,0c-0.041,0.352,0.082,0.857-0.062,1.105
		c-0.047,0.279-0.36,0.293-0.614,0.367C17.41,28.311,17.182,28.191,17.004,28.021z"/>
	<path fill="#FFFFFF" d="M14.61,28.268c-0.53-0.084-0.431-0.799-0.429-1.412c0.368,0,0.735,0,1.104,0
		C15.279,27.545,15.444,28.406,14.61,28.268z"/>
	<path fill="#FFFFFF" d="M18.169,28.329c0.104,0.373,0.062,0.948,0.06,1.472c-0.002,0.504,0.067,1.012-0.245,1.227
		c-0.185,0-0.366,0-0.552,0c-0.304-0.205-0.24-0.68-0.246-1.164c-0.004-0.475,0.005-0.973,0-1.409c0-0.043,0-0.083,0-0.124
		C17.396,28.469,17.974,28.529,18.169,28.329z"/>
	<path fill="#FFFFFF" d="M18.169,3.549c0.126,0.464,0.031,1.154,0.06,1.716c-0.338-0.071-0.659-0.159-1.042-0.183
		c0-0.471,0-0.942,0-1.411C17.27,3.312,17.951,3.262,18.169,3.549z"/>
	<path fill="#FFFFFF" d="M18.534,5.511c0,0.196,0,0.392,0,0.588c0,0.171,0,0.344,0,0.516c-0.511,0.08-1.065,0.12-1.654,0.123
		c0-0.51,0-1.021,0-1.532C17.533,5.207,17.931,5.462,18.534,5.511z"/>
	<path fill="#FFFFFF" d="M18.23,6.86c0,0.675,0,1.349,0,2.024c-0.302-0.084-0.743-0.084-1.044,0c0-0.655,0-1.309,0-1.963
		C17.592,6.958,17.816,6.814,18.23,6.86z"/>
	<path fill="#FFFFFF" d="M18.413,9.253c0,0.347,0,0.695,0,1.042c-0.47,0-0.94,0-1.409,0c0-0.347,0-0.695,0-1.042
		C17.25,8.84,18.161,8.864,18.413,9.253z"/>
	<path fill="#FFFFFF" d="M18.598,26.855c0.448,0,0.897,0,1.348,0c0,0.352,0,0.696,0,1.043c-0.143,0.486-1.127,0.475-1.348,0.062
		C18.598,27.592,18.598,27.225,18.598,26.855z"/>
	<path fill="#052211" d="M13.996,15.877c0.103,1.779,0.103,3.988,0,5.764C13.996,19.721,13.996,17.798,13.996,15.877z"/>
	<path fill="#0F6F34" d="M13.875,11.707c-0.143-0.288-0.022-0.839-0.061-1.228c2.556,0.041,5.276-0.083,7.729,0.061
		c-2.557,0-5.111,0-7.667,0c0,0.367,0,0.736,0,1.104C13.875,11.665,13.875,11.685,13.875,11.707z"/>
	<path fill="#FFFFFF" d="M20.744,28.329c-0.145,0.001-0.146,0-0.369-0.062c-0.342-0.209-0.229-0.875-0.246-1.41"/>
</g>
<path id="border" fill="#CCCCCC" d="M17.5,1C26.6,1,34,8.402,34,17.5C34,26.6,26.6,34,17.5,34C8.402,34,1,26.6,1,17.5
	C1,8.402,8.402,1,17.5,1 M17.5,0C7.835,0,0,7.835,0,17.5S7.835,35,17.5,35S35,27.165,35,17.5S27.165,0,17.5,0L17.5,0z"/>
</svg>
