<?xml version="1.0" encoding="utf-8"?>
<!-- Generator: Adobe Illustrator 16.0.4, SVG Export Plug-In . SVG Version: 6.00 Build 0)  -->
<!DOCTYPE svg PUBLIC "-//W3C//DTD SVG 1.1//EN" "http://www.w3.org/Graphics/SVG/1.1/DTD/svg11.dtd" [
	<!ENTITY ns_extend "http://ns.adobe.com/Extensibility/1.0/">
	<!ENTITY ns_ai "http://ns.adobe.com/AdobeIllustrator/10.0/">
	<!ENTITY ns_graphs "http://ns.adobe.com/Graphs/1.0/">
	<!ENTITY ns_vars "http://ns.adobe.com/Variables/1.0/">
	<!ENTITY ns_imrep "http://ns.adobe.com/ImageReplacement/1.0/">
	<!ENTITY ns_sfw "http://ns.adobe.com/SaveForWeb/1.0/">
	<!ENTITY ns_custom "http://ns.adobe.com/GenericCustomNamespace/1.0/">
	<!ENTITY ns_adobe_xpath "http://ns.adobe.com/XPath/1.0/">
]>
<svg version="1.1" id="Layer_1" xmlns:x="&ns_extend;" xmlns:i="&ns_ai;" xmlns:graph="&ns_graphs;"
	 xmlns="http://www.w3.org/2000/svg" xmlns:xlink="http://www.w3.org/1999/xlink" x="0px" y="0px" width="35px" height="35px"
	 viewBox="0 0 35 35" enable-background="new 0 0 35 35" xml:space="preserve">
<metadata>
	<sfw  xmlns="&ns_sfw;">
		<slices></slices>
		<sliceSourceBounds  bottomLeftOrigin="true" width="34.999" height="34.999" x="280" y="192.001"></sliceSourceBounds>
	</sfw>
</metadata>
<path fill="#FFFFFF" d="M17.5,34.498c-9.373,0-16.999-7.626-16.999-16.999S8.127,0.5,17.5,0.5s16.999,7.626,16.999,16.999
	S26.873,34.498,17.5,34.498z"/>
<path fill="#5A98E2" d="M17.5,17.499L5.127,5.125C1.959,8.291,0,12.666,0,17.499c0,9.666,7.835,17.5,17.5,17.5
	c4.833,0,9.207-1.959,12.373-5.127L17.5,17.499z"/>
<path id="border" fill="#CCCCCC" d="M17.5,1c9.098,0,16.499,7.401,16.499,16.499c0,9.099-7.401,16.499-16.499,16.499
	c-9.098,0-16.499-7.4-16.499-16.499C1.001,8.401,8.402,1,17.5,1 M17.5,0C7.835,0,0.001,7.834,0.001,17.499
	c0,9.664,7.834,17.499,17.499,17.499c9.664,0,17.499-7.835,17.499-17.499C34.999,7.834,27.164,0,17.5,0L17.5,0z"/>
</svg>
