<svg width="19" height="39" xmlns="http://www.w3.org/2000/svg"><path d="M17.544 30.859a.804.804 0 00-.356-.097.706.706 0 00-.287.055c-.506.208-1.204.43-2.08.68-.835.236-1.82.347-2.915.347-1.464 0-2.45-.375-3.024-1.152-.616-.832-.917-2.316-.917-4.41V15.533h9.169a.756.756 0 00.752-.762V9.306a.756.756 0 00-.752-.763h-9.17V.763A.74.74 0 007.692.18.723.723 0 007.198 0c-.04 0-.082 0-.123.014L.615 1.096A.759.759 0 000 1.845v24.492c0 1.928.164 3.662.493 5.174.342 1.567.944 2.926 1.792 4.036.863 1.137 2.04 2.01 3.49 2.593 1.423.569 3.189.86 5.269.86 1.697 0 3.202-.18 4.475-.54 1.231-.348 2.258-.694 3.024-1.041.329-.139.52-.5.438-.86l-1.054-5.187a.737.737 0 00-.383-.513z" fill="#FFF"/></svg>