<?xml version="1.0" encoding="utf-8"?>
<!-- Generator: Adobe Illustrator 18.1.1, SVG Export Plug-In . SVG Version: 6.00 Build 0)  -->
<!DOCTYPE svg PUBLIC "-//W3C//DTD SVG 1.1//EN" "http://www.w3.org/Graphics/SVG/1.1/DTD/svg11.dtd" [
	<!ENTITY ns_extend "http://ns.adobe.com/Extensibility/1.0/">
	<!ENTITY ns_ai "http://ns.adobe.com/AdobeIllustrator/10.0/">
	<!ENTITY ns_graphs "http://ns.adobe.com/Graphs/1.0/">
	<!ENTITY ns_vars "http://ns.adobe.com/Variables/1.0/">
	<!ENTITY ns_imrep "http://ns.adobe.com/ImageReplacement/1.0/">
	<!ENTITY ns_sfw "http://ns.adobe.com/SaveForWeb/1.0/">
	<!ENTITY ns_custom "http://ns.adobe.com/GenericCustomNamespace/1.0/">
	<!ENTITY ns_adobe_xpath "http://ns.adobe.com/XPath/1.0/">
]>
<svg version="1.1" id="Sort_by_price_copy" xmlns:x="&ns_extend;" xmlns:i="&ns_ai;" xmlns:graph="&ns_graphs;"
	 xmlns="http://www.w3.org/2000/svg" xmlns:xlink="http://www.w3.org/1999/xlink" x="0px" y="0px" viewBox="281 371 50 50"
	 enable-background="new 281 371 50 50" xml:space="preserve">
<switch>
	
	<g i:extraneous="self">
		<ellipse fill="#A6A39C" cx="306" cy="396" rx="24.7" ry="24.9"/>
		<g>
			<g>
				<path fill="#FFFFFF" d="M294.4,405.1c-5,0-9.1-4.1-9.1-9.1s4.1-9.1,9.1-9.1s9.1,4.1,9.1,9.1S299.4,405.1,294.4,405.1z
					 M294.4,388.5c-4.1,0-7.5,3.3-7.5,7.5s3.3,7.5,7.5,7.5s7.5-3.3,7.5-7.5S298.5,388.5,294.4,388.5z"/>
			</g>
			<g>
				<g>
					<path fill="#FFFFFF" d="M294.1,397.5c-0.5,0-0.8-0.3-0.8-0.8v-5.8c0-0.5,0.3-0.8,0.8-0.8c0.5,0,0.8,0.3,0.8,0.8v5.8
						C294.9,397.2,294.6,397.5,294.1,397.5z"/>
				</g>
				<g>
					<path fill="#FFFFFF" d="M297.7,397.5h-3.5c-0.5,0-0.8-0.3-0.8-0.8c0-0.5,0.3-0.8,0.8-0.8h3.5c0.5,0,0.8,0.3,0.8,0.8
						C298.5,397.2,298.2,397.5,297.7,397.5z"/>
				</g>
			</g>
		</g>
		<g>
			<g>
				<path fill="#FFFFFF" d="M320.3,406.8L320.3,406.8h-8.8v-11.9v-1.7h-1.7h-3l9.1-11.3h0.2l8.8,11.3h-3h-1.7v1.7V406.8
					 M311.5,408.4h8.8c1,0,1.7-0.7,1.7-1.5v-12.1h3c0.7,0,1.2-0.3,1.5-0.8c0.3-0.5,0.3-1.2,0-1.7l-8.9-11.6
					c-0.3-0.3-0.8-0.7-1.3-0.7c-0.5,0-1,0.2-1.3,0.7l-9.3,11.6c-0.3,0.5-0.5,1.2-0.2,1.7c0.3,0.5,0.8,0.8,1.5,0.8h3v12.1
					C309.8,407.8,310.6,408.4,311.5,408.4L311.5,408.4z"/>
			</g>
		</g>
	</g>
</switch>

</svg>
