<?xml version="1.0" encoding="utf-8"?>
<!-- Generator: Adobe Illustrator 18.1.1, SVG Export Plug-In . SVG Version: 6.00 Build 0)  -->
<!DOCTYPE svg PUBLIC "-//W3C//DTD SVG 1.1//EN" "http://www.w3.org/Graphics/SVG/1.1/DTD/svg11.dtd" [
	<!ENTITY ns_extend "http://ns.adobe.com/Extensibility/1.0/">
	<!ENTITY ns_ai "http://ns.adobe.com/AdobeIllustrator/10.0/">
	<!ENTITY ns_graphs "http://ns.adobe.com/Graphs/1.0/">
	<!ENTITY ns_vars "http://ns.adobe.com/Variables/1.0/">
	<!ENTITY ns_imrep "http://ns.adobe.com/ImageReplacement/1.0/">
	<!ENTITY ns_sfw "http://ns.adobe.com/SaveForWeb/1.0/">
	<!ENTITY ns_custom "http://ns.adobe.com/GenericCustomNamespace/1.0/">
	<!ENTITY ns_adobe_xpath "http://ns.adobe.com/XPath/1.0/">
]>
<svg version="1.1" id="Sort_by_price_copy" xmlns:x="&ns_extend;" xmlns:i="&ns_ai;" xmlns:graph="&ns_graphs;"
	 xmlns="http://www.w3.org/2000/svg" xmlns:xlink="http://www.w3.org/1999/xlink" x="0px" y="0px" viewBox="-300 372 50 50"
	 enable-background="new -300 372 50 50" xml:space="preserve">
<switch>
	
	<g i:extraneous="self">
		<g id="Circle_2_">
			<path fill="#A6A39C" d="M-275,421.8c-13.6,0-24.8-11.1-24.8-24.8s11.1-24.8,24.8-24.8s24.8,11.1,24.8,24.8
				S-261.4,421.8-275,421.8z M-275,373.9c-12.7,0-23.1,10.4-23.1,23.1s10.4,23.1,23.1,23.1s23.1-10.4,23.1-23.1
				S-262.3,373.9-275,373.9z"/>
		</g>
		<g>
			<g>
				<path fill="#A6A39C" d="M-286.5,406.1c-5,0-9.1-4.1-9.1-9.1c0-5,4.1-9.1,9.1-9.1c5,0,9.1,4.1,9.1,9.1
					C-277.5,402-281.5,406.1-286.5,406.1z M-286.5,389.6c-4.1,0-7.4,3.3-7.4,7.4c0,4.1,3.3,7.4,7.4,7.4c4.1,0,7.4-3.3,7.4-7.4
					C-279.1,392.9-282.5,389.6-286.5,389.6z"/>
			</g>
			<g>
				<g>
					<path fill="#A6A39C" d="M-286.8,398.5c-0.5,0-0.8-0.4-0.8-0.8v-5.8c0-0.5,0.4-0.8,0.8-0.8c0.5,0,0.8,0.4,0.8,0.8v5.8
						C-286,398.1-286.4,398.5-286.8,398.5z"/>
				</g>
				<g>
					<path fill="#A6A39C" d="M-283.3,398.5h-3.5c-0.5,0-0.8-0.4-0.8-0.8c0-0.5,0.4-0.8,0.8-0.8h3.5c0.5,0,0.8,0.4,0.8,0.8
						C-282.4,398.1-282.8,398.5-283.3,398.5z"/>
				</g>
			</g>
		</g>
		<g>
			<g>
				<path fill="#A6A39C" d="M-269.5,386.3C-269.5,386.3-269.5,386.3-269.5,386.3h8.8v11.9v1.6h1.6l2.9,0l-9.1,11.3l-0.1,0l-8.7-11.3
					h2.9h1.6v-1.6V386.3 M-260.7,384.6h-8.8c-0.9,0-1.7,0.7-1.7,1.5v12h-3c-0.6,0-1.1,0.3-1.4,0.8c-0.3,0.5-0.3,1.2,0.1,1.7
					l8.9,11.5c0.3,0.4,0.8,0.6,1.3,0.6c0.5,0,1-0.2,1.3-0.6l9.3-11.5c0.4-0.5,0.4-1.1,0.1-1.7c-0.3-0.5-0.8-0.8-1.4-0.8h-3v-12
					C-259.1,385.3-259.8,384.6-260.7,384.6L-260.7,384.6z"/>
			</g>
		</g>
	</g>
</switch>

</svg>
