<?xml version="1.0" encoding="utf-8"?>
<!-- Generator: Adobe Illustrator 18.1.1, SVG Export Plug-In . SVG Version: 6.00 Build 0)  -->
<!DOCTYPE svg PUBLIC "-//W3C//DTD SVG 1.1//EN" "http://www.w3.org/Graphics/SVG/1.1/DTD/svg11.dtd" [
	<!ENTITY ns_extend "http://ns.adobe.com/Extensibility/1.0/">
	<!ENTITY ns_ai "http://ns.adobe.com/AdobeIllustrator/10.0/">
	<!ENTITY ns_graphs "http://ns.adobe.com/Graphs/1.0/">
	<!ENTITY ns_vars "http://ns.adobe.com/Variables/1.0/">
	<!ENTITY ns_imrep "http://ns.adobe.com/ImageReplacement/1.0/">
	<!ENTITY ns_sfw "http://ns.adobe.com/SaveForWeb/1.0/">
	<!ENTITY ns_custom "http://ns.adobe.com/GenericCustomNamespace/1.0/">
	<!ENTITY ns_adobe_xpath "http://ns.adobe.com/XPath/1.0/">
]>
<svg version="1.1" id="Sort_by_price_copy" xmlns:x="&ns_extend;" xmlns:i="&ns_ai;" xmlns:graph="&ns_graphs;"
	 xmlns="http://www.w3.org/2000/svg" xmlns:xlink="http://www.w3.org/1999/xlink" x="0px" y="0px" viewBox="-300 372 50 50"
	 enable-background="new -300 372 50 50" xml:space="preserve">
<switch>
	
	<g i:extraneous="self">
		<g id="Circle_2_">
			<path fill="#A6A39C" d="M-275,422c-13.8,0-25-11.2-25-25s11.2-25,25-25s25,11.2,25,25S-261.2,422-275,422z M-275,373.7
				c-12.8,0-23.3,10.4-23.3,23.3c0,12.8,10.4,23.3,23.3,23.3c12.8,0,23.3-10.4,23.3-23.3C-251.7,384.2-262.1,373.7-275,373.7z"/>
		</g>
		<g>
			<path fill="#A6A39C" d="M-269.4,386.2C-269.4,386.2-269.4,386.2-269.4,386.2h8.8v12v1.7h1.7l2.9,0l-9.2,11.3l-0.1,0l-8.8-11.4
				h2.9h1.7v-1.7L-269.4,386.2 M-260.6,384.6h-8.8c-0.9,0-1.7,0.7-1.7,1.5v12.1h-3.1c-0.6,0-1.1,0.3-1.4,0.8
				c-0.3,0.5-0.3,1.2,0.1,1.7l8.9,11.6c0.3,0.4,0.8,0.6,1.4,0.6c0.5,0,1-0.2,1.3-0.6l9.4-11.6c0.4-0.5,0.4-1.2,0.1-1.7
				c-0.3-0.5-0.8-0.8-1.4-0.8h-3.1v-12.1C-258.9,385.3-259.6,384.6-260.6,384.6L-260.6,384.6z"/>
		</g>
		<g>
			<path fill="#A6A39C" d="M-285.5,388.6h-7.5c-0.5,0-0.8,0.4-0.8,0.8v15.1c0,0.5,0.4,0.8,0.8,0.8s0.8-0.4,0.8-0.8v-7.8h3.7
				c0.5,0,0.8-0.4,0.8-0.8s-0.4-0.8-0.8-0.8h-3.7v-4.8h6.6c0.5,0,0.8-0.4,0.8-0.8S-285,388.6-285.5,388.6z"/>
			<path fill="#A6A39C" d="M-277.2,396.3c0.2-0.4,0.1-0.9-0.3-1.1c-1.3-0.7-3.2-0.7-4.6,0.1c-0.1,0-0.1,0.1-0.2,0.1v-0.9
				c0-0.5-0.4-0.8-0.8-0.8s-0.8,0.4-0.8,0.8v10.1c0,0.5,0.4,0.8,0.8,0.8s0.8-0.4,0.8-0.8v-6.1c0-0.8,0.3-1.4,1-1.8
				c1-0.6,2.3-0.5,3-0.1C-278,396.9-277.5,396.7-277.2,396.3z"/>
			<circle fill="#A6A39C" cx="-278" cy="404.6" r="1.2"/>
		</g>
	</g>
</switch>

</svg>
