<?xml version="1.0" encoding="utf-8"?>
<!-- Generator: Adobe Illustrator 18.1.1, SVG Export Plug-In . SVG Version: 6.00 Build 0)  -->
<!DOCTYPE svg PUBLIC "-//W3C//DTD SVG 1.1//EN" "http://www.w3.org/Graphics/SVG/1.1/DTD/svg11.dtd" [
	<!ENTITY ns_extend "http://ns.adobe.com/Extensibility/1.0/">
	<!ENTITY ns_ai "http://ns.adobe.com/AdobeIllustrator/10.0/">
	<!ENTITY ns_graphs "http://ns.adobe.com/Graphs/1.0/">
	<!ENTITY ns_vars "http://ns.adobe.com/Variables/1.0/">
	<!ENTITY ns_imrep "http://ns.adobe.com/ImageReplacement/1.0/">
	<!ENTITY ns_sfw "http://ns.adobe.com/SaveForWeb/1.0/">
	<!ENTITY ns_custom "http://ns.adobe.com/GenericCustomNamespace/1.0/">
	<!ENTITY ns_adobe_xpath "http://ns.adobe.com/XPath/1.0/">
]>
<svg version="1.1" id="Sort_by_price_copy" xmlns:x="&ns_extend;" xmlns:i="&ns_ai;" xmlns:graph="&ns_graphs;"
	 xmlns="http://www.w3.org/2000/svg" xmlns:xlink="http://www.w3.org/1999/xlink" x="0px" y="0px" viewBox="281 377 50 50"
	 enable-background="new 281 377 50 50" xml:space="preserve">
<switch>
	
	<g i:extraneous="self">
		<ellipse fill="#A6A39C" cx="306" cy="402" rx="24.8" ry="25"/>
		<g>
			<path fill="#FFFFFF" d="M311.5,391.2C311.7,391.2,311.7,391.2,311.5,391.2h8.8v12v1.7h1.7h3l-9.1,11.3h-0.2l-8.8-11.3h3h1.7v-1.7
				V391.2 M320.5,389.5h-8.8c-1,0-1.7,0.7-1.7,1.5v12.1h-3c-0.7,0-1.2,0.3-1.5,0.8s-0.3,1.2,0,1.7l9,11.6c0.3,0.3,0.8,0.7,1.3,0.7
				s1-0.2,1.3-0.7l9.3-11.6c0.3-0.5,0.5-1.2,0.2-1.7s-0.8-0.8-1.5-0.8h-3V391C322.1,390.2,321.3,389.5,320.5,389.5L320.5,389.5z"/>
		</g>
		<g>
			<path fill="#FFFFFF" d="M295.5,393.2h-7.5c-0.5,0-0.8,0.3-0.8,0.8v15.1c0,0.5,0.3,0.8,0.8,0.8s0.8-0.3,0.8-0.8v-7.8h3.7
				c0.5,0,0.8-0.3,0.8-0.8c0-0.5-0.3-0.8-0.8-0.8h-3.7v-4.8h6.6c0.5,0,0.8-0.3,0.8-0.8S296,393.2,295.5,393.2z"/>
			<path fill="#FFFFFF" d="M303.7,400.9c0.2-0.3,0.2-0.8-0.3-1.2c-1.3-0.7-3.2-0.7-4.7,0.2l-0.2,0.2v-1c0-0.5-0.3-0.8-0.8-0.8
				c-0.5,0-0.8,0.3-0.8,0.8v10.1c0,0.5,0.3,0.8,0.8,0.8c0.5,0,0.8-0.3,0.8-0.8v-6c0-0.8,0.3-1.3,1-1.8c1-0.5,2.3-0.5,3-0.2
				C303,401.4,303.5,401.2,303.7,400.9z"/>
			<circle fill="#FFFFFF" cx="303" cy="409.2" r="1.3"/>
		</g>
	</g>
</switch>

</svg>
