<?xml version="1.0" encoding="utf-8"?>
<!-- Generator: Adobe Illustrator 18.1.1, SVG Export Plug-In . SVG Version: 6.00 Build 0)  -->
<!DOCTYPE svg PUBLIC "-//W3C//DTD SVG 1.1//EN" "http://www.w3.org/Graphics/SVG/1.1/DTD/svg11.dtd" [
	<!ENTITY ns_extend "http://ns.adobe.com/Extensibility/1.0/">
	<!ENTITY ns_ai "http://ns.adobe.com/AdobeIllustrator/10.0/">
	<!ENTITY ns_graphs "http://ns.adobe.com/Graphs/1.0/">
	<!ENTITY ns_vars "http://ns.adobe.com/Variables/1.0/">
	<!ENTITY ns_imrep "http://ns.adobe.com/ImageReplacement/1.0/">
	<!ENTITY ns_sfw "http://ns.adobe.com/SaveForWeb/1.0/">
	<!ENTITY ns_custom "http://ns.adobe.com/GenericCustomNamespace/1.0/">
	<!ENTITY ns_adobe_xpath "http://ns.adobe.com/XPath/1.0/">
]>
<svg version="1.1" id="Sort_by_price_copy" xmlns:x="&ns_extend;" xmlns:i="&ns_ai;" xmlns:graph="&ns_graphs;"
	 xmlns="http://www.w3.org/2000/svg" xmlns:xlink="http://www.w3.org/1999/xlink" x="0px" y="0px" viewBox="-300 372 50 50"
	 enable-background="new -300 372 50 50" xml:space="preserve">
<switch>
	
	<g i:extraneous="self">
		<g id="Circle_2_">
			<path fill="#A6A39C" d="M-275,421.9c-13.7,0-24.9-11.2-24.9-24.9c0-13.7,11.2-24.9,24.9-24.9s24.9,11.2,24.9,24.9
				C-250.1,410.8-261.3,421.9-275,421.9z M-275,373.8c-12.8,0-23.2,10.4-23.2,23.2s10.4,23.2,23.2,23.2s23.2-10.4,23.2-23.2
				C-251.8,384.2-262.2,373.8-275,373.8z"/>
		</g>
		<g>
			<g>
				<path fill="#A6A39C" d="M-286.6,406.2c-5,0-9.1-4.1-9.1-9.1c0-5,4.1-9.1,9.1-9.1s9.1,4.1,9.1,9.1
					C-277.5,402.1-281.6,406.2-286.6,406.2z M-286.6,389.6c-4.1,0-7.5,3.3-7.5,7.5s3.3,7.5,7.5,7.5s7.5-3.3,7.5-7.5
					S-282.5,389.6-286.6,389.6z"/>
			</g>
			<g>
				<g>
					<path fill="#A6A39C" d="M-286.9,398.5c-0.5,0-0.8-0.4-0.8-0.8v-5.9c0-0.5,0.4-0.8,0.8-0.8s0.8,0.4,0.8,0.8v5.9
						C-286.1,398.2-286.4,398.5-286.9,398.5z"/>
				</g>
				<g>
					<path fill="#A6A39C" d="M-283.3,398.5h-3.5c-0.5,0-0.8-0.4-0.8-0.8c0-0.5,0.4-0.8,0.8-0.8h3.5c0.5,0,0.8,0.4,0.8,0.8
						C-282.5,398.2-282.9,398.5-283.3,398.5z"/>
				</g>
			</g>
		</g>
		<g>
			<g>
				<path fill="#A6A39C" d="M-260.7,407.8C-260.7,407.8-260.7,407.8-260.7,407.8h-8.8v-11.9v-1.7h-1.7l-2.9,0l9.2-11.3l0.1,0
					l8.7,11.3h-2.9h-1.7v1.7V407.8 M-269.5,409.5h8.8c0.9,0,1.7-0.7,1.7-1.5v-12h3.1c0.6,0,1.1-0.3,1.4-0.8c0.3-0.5,0.3-1.2-0.1-1.7
					l-8.9-11.5c-0.3-0.4-0.8-0.6-1.3-0.6c-0.5,0-1,0.2-1.3,0.6l-9.3,11.5c-0.4,0.5-0.4,1.1-0.1,1.7c0.3,0.5,0.8,0.8,1.4,0.8h3.1v12
					C-271.1,408.8-270.4,409.5-269.5,409.5L-269.5,409.5z"/>
			</g>
		</g>
	</g>
</switch>

</svg>
