<?xml version="1.0" encoding="utf-8"?>
<!-- Generator: Adobe Illustrator 18.1.1, SVG Export Plug-In . SVG Version: 6.00 Build 0)  -->
<!DOCTYPE svg PUBLIC "-//W3C//DTD SVG 1.1//EN" "http://www.w3.org/Graphics/SVG/1.1/DTD/svg11.dtd" [
	<!ENTITY ns_extend "http://ns.adobe.com/Extensibility/1.0/">
	<!ENTITY ns_ai "http://ns.adobe.com/AdobeIllustrator/10.0/">
	<!ENTITY ns_graphs "http://ns.adobe.com/Graphs/1.0/">
	<!ENTITY ns_vars "http://ns.adobe.com/Variables/1.0/">
	<!ENTITY ns_imrep "http://ns.adobe.com/ImageReplacement/1.0/">
	<!ENTITY ns_sfw "http://ns.adobe.com/SaveForWeb/1.0/">
	<!ENTITY ns_custom "http://ns.adobe.com/GenericCustomNamespace/1.0/">
	<!ENTITY ns_adobe_xpath "http://ns.adobe.com/XPath/1.0/">
]>
<svg version="1.1" id="Sort_by_price_copy" xmlns:x="&ns_extend;" xmlns:i="&ns_ai;" xmlns:graph="&ns_graphs;"
	 xmlns="http://www.w3.org/2000/svg" xmlns:xlink="http://www.w3.org/1999/xlink" x="0px" y="0px" viewBox="281 371 50 50"
	 enable-background="new 281 371 50 50" xml:space="preserve">
<switch>
	
	<g i:extraneous="self">
		<ellipse fill="#A6A39C" cx="306" cy="396" rx="24.7" ry="24.8"/>
		<g>
			<g>
				<path fill="#FFFFFF" d="M294.6,404.8c-5,0-9.1-4.1-9.1-9.1s4.1-9.1,9.1-9.1c5,0,9.1,4.1,9.1,9.1S299.5,404.8,294.6,404.8z
					 M294.6,388.3c-4.1,0-7.4,3.3-7.4,7.4c0,4.1,3.3,7.4,7.4,7.4c4.1,0,7.4-3.3,7.4-7.4C302,391.6,298.7,388.3,294.6,388.3z"/>
			</g>
			<g>
				<g>
					<path fill="#FFFFFF" d="M294.2,397.2c-0.5,0-0.8-0.3-0.8-0.8v-5.8c0-0.5,0.3-0.8,0.8-0.8s0.8,0.3,0.8,0.8v5.8
						C295.1,396.9,294.7,397.2,294.2,397.2z"/>
				</g>
				<g>
					<path fill="#FFFFFF" d="M297.9,397.2h-3.5c-0.5,0-0.8-0.3-0.8-0.8s0.3-0.8,0.8-0.8h3.5c0.5,0,0.8,0.3,0.8,0.8
						S298.4,397.2,297.9,397.2z"/>
				</g>
			</g>
		</g>
		<g>
			<g>
				<path fill="#FFFFFF" d="M311.8,385L311.8,385h8.8v11.9v1.7h1.7h3l-9.1,11.2h-0.2l-8.8-11.2h3h1.7v-1.7V385 M320.5,383.3h-8.8
					c-1,0-1.7,0.7-1.7,1.5v12.1h-3c-0.7,0-1.2,0.3-1.5,0.8c-0.3,0.5-0.3,1.2,0,1.7l8.9,11.6c0.3,0.3,0.8,0.7,1.3,0.7s1-0.2,1.3-0.7
					l9.2-11.6c0.3-0.5,0.5-1.2,0.2-1.7s-0.8-0.8-1.5-0.8h-3v-12.1C322.2,384,321.3,383.3,320.5,383.3L320.5,383.3z"/>
			</g>
		</g>
	</g>
</switch>

</svg>
