<?xml version="1.0" encoding="utf-8"?>
<!-- Generator: Adobe Illustrator 18.1.1, SVG Export Plug-In . SVG Version: 6.00 Build 0)  -->
<!DOCTYPE svg PUBLIC "-//W3C//DTD SVG 1.1//EN" "http://www.w3.org/Graphics/SVG/1.1/DTD/svg11.dtd" [
	<!ENTITY ns_extend "http://ns.adobe.com/Extensibility/1.0/">
	<!ENTITY ns_ai "http://ns.adobe.com/AdobeIllustrator/10.0/">
	<!ENTITY ns_graphs "http://ns.adobe.com/Graphs/1.0/">
	<!ENTITY ns_vars "http://ns.adobe.com/Variables/1.0/">
	<!ENTITY ns_imrep "http://ns.adobe.com/ImageReplacement/1.0/">
	<!ENTITY ns_sfw "http://ns.adobe.com/SaveForWeb/1.0/">
	<!ENTITY ns_custom "http://ns.adobe.com/GenericCustomNamespace/1.0/">
	<!ENTITY ns_adobe_xpath "http://ns.adobe.com/XPath/1.0/">
]>
<svg version="1.1" id="Sort_by_price_copy" xmlns:x="&ns_extend;" xmlns:i="&ns_ai;" xmlns:graph="&ns_graphs;"
	 xmlns="http://www.w3.org/2000/svg" xmlns:xlink="http://www.w3.org/1999/xlink" x="0px" y="0px" viewBox="281 371 50 50"
	 enable-background="new 281 371 50 50" xml:space="preserve">
<switch>
	
	<g i:extraneous="self">
		<ellipse fill="#A6A39C" cx="306" cy="396" rx="24.8" ry="25"/>
		<g>
			<path fill="#FFFFFF" d="M320.5,406.7L320.5,406.7h-8.8v-12v-1.7H310h-3l9.1-11.3h0.2l8.8,11.3h-3h-1.7v1.7V406.7 M311.5,408.4
				h8.8c1,0,1.7-0.7,1.7-1.5v-12.1h3c0.7,0,1.2-0.3,1.5-0.8c0.3-0.5,0.3-1.2,0-1.7l-9-11.6c-0.3-0.3-0.8-0.7-1.3-0.7s-1,0.2-1.3,0.7
				l-9.3,11.6c-0.3,0.5-0.5,1.2-0.2,1.7s0.8,0.8,1.5,0.8h3v12.1C309.8,407.7,310.6,408.4,311.5,408.4L311.5,408.4z"/>
		</g>
		<g>
			<path fill="#FFFFFF" d="M295.5,387.6h-7.5c-0.5,0-0.8,0.3-0.8,0.8v15.1c0,0.5,0.3,0.8,0.8,0.8s0.8-0.3,0.8-0.8v-7.8h3.7
				c0.5,0,0.8-0.3,0.8-0.8s-0.3-0.8-0.8-0.8h-3.7v-4.8h6.6c0.5,0,0.8-0.3,0.8-0.8S296,387.6,295.5,387.6z"/>
			<path fill="#FFFFFF" d="M303.7,395.3c0.2-0.3,0.2-0.8-0.3-1.2c-1.3-0.7-3.2-0.7-4.6,0.2l-0.2,0.2v-1c0-0.5-0.3-0.8-0.8-0.8
				s-0.8,0.3-0.8,0.8v10.1c0,0.5,0.3,0.8,0.8,0.8s0.8-0.3,0.8-0.8v-6c0-0.8,0.3-1.3,1-1.8c1-0.5,2.3-0.5,3-0.2
				C303,395.8,303.5,395.6,303.7,395.3z"/>
			<circle fill="#FFFFFF" cx="303" cy="403.6" r="1.3"/>
		</g>
	</g>
</switch>

</svg>
