<?xml version="1.0" encoding="utf-8"?>
<!-- Generator: Adobe Illustrator 18.1.1, SVG Export Plug-In . SVG Version: 6.00 Build 0)  -->
<svg version="1.1" id="Layer_1" xmlns:sketch="http://www.bohemiancoding.com/sketch/ns"
	 xmlns="http://www.w3.org/2000/svg" xmlns:xlink="http://www.w3.org/1999/xlink" x="0px" y="0px" viewBox="-285 376 41 42"
	 enable-background="new -285 376 41 42" xml:space="preserve">
<title>ico-circle-li-user-privat</title>
<desc>Created with Sketch.</desc>
<g id="ico-circle-li-user-privat" transform="translate(403.216493, 141.600000)" sketch:type="MSLayerGroup">
	<g id="Layer_1_1_" sketch:type="MSShapeGroup">
		<path id="Shape" fill="#A6A39C" d="M-667.7,275.6c-11.2,0-20.3-9.1-20.3-20.3c0-11.2,9.1-20.3,20.3-20.3s20.3,9.1,20.3,20.3
			C-647.4,266.5-656.5,275.6-667.7,275.6L-667.7,275.6z"/>
	</g>
	<g id="_x36__social_person" transform="translate(6.761169, 5.408935)" sketch:type="MSShapeGroup">
		<g id="Group">
			<path id="Shape_1_" fill="#FFFFFF" d="M-674.5,235.7c-4.7,0-8.6,3.8-8.6,8.6s3.8,8.6,8.6,8.6c4.7,0,8.6-3.8,8.6-8.6
				S-669.7,235.7-674.5,235.7L-674.5,235.7z M-674.5,251.2c-2.9,0-5.4-1.8-6.4-4.3c1.2,0,12.6,0,12.8,0
				C-669.1,249.4-671.6,251.2-674.5,251.2L-674.5,251.2z"/>
			<path id="Shape_2_" fill="#FFFFFF" d="M-669.3,254c-1.5,0.8-3.3,1.3-5.2,1.3c-1.9,0-3.6-0.5-5.2-1.3c-3.3,0.9-5.9,3-7.1,7.4h24.6
				C-663.4,256.9-666,254.8-669.3,254L-669.3,254z"/>
		</g>
	</g>
</g>
</svg>
