<svg xmlns="http://www.w3.org/2000/svg" viewBox="0 0 520 260"><circle cx="400.4" cy="130" r="93" fill="#52B532"/><path fill="#FFF" d="M418 64c-4.8 5.3-6.5 12.8-4.2 19.7.1.3.2.5.2.8-3.6 3-8.2 7.1-12.7 11.6-5.6 5.6-10.8 11.7-13.9 15.4-2.5-.6-5-1-7.6-1.2-4.9-.2-9.8 1.8-13.3 5.2l21.1 21.1-39.9 48.5 48.5-39.9 21.1 21.1c4.8-5.3 6.5-12.8 4.2-19.7-.1-.4-.2-.9-.4-1.3 3.6-3 9.7-8.1 15.2-13.7 4.4-4.4 8.6-9.2 11.7-12.8 2.4.6 4.9 1 7.4 1.1 4.9.2 9.8-1.8 13.3-5.2L418 64z"/><circle cx="262.3" cy="130" r="93.5" fill="#FFC31A"/><path fill="#FFF" d="M313.8 91.5h-5.1V80.3c0-2.8-2.3-5.1-5.1-5.1h-95c-2.8 0-5.1 2.3-5.1 5.1v26.9c0 2.8 2.3 5.1 5.1 5.1h95c2.8 0 5.1-2.3 5.1-5.1V95.8h5.1c1.6 0 3 1.3 3 3v20.9c0 3-.8 4.1-3.4 4.7l-55.6 9.4c-4.4.8-6.7 3.8-6.7 8.9v4.9h-2.9c-1.1 0-2 .9-2 2V193c0 1.1.9 2 2 2h9.3c1.1 0 2-.9 2-2v-43.5c0-1.1-.9-2-2-2h-2.2v-4.9c0-3.7 1.4-4.4 3.1-4.7l55.7-9.4h.1c4.6-1.1 6.7-3.9 6.7-8.9V98.8c.2-4-3.1-7.3-7.1-7.3zm-143.5 10.8l-27 5c47.3 91.6-40.1 93.2-56.2 73.3 7.7 5.4 70.9 21.9 30.4-62L96 135.1s1.7-9.1 4-22.2c2.4-13 5.4-30 8.2-45.7 26.2 13.8 62.1 35.1 62.1 35.1z"/><path fill="#3F9FD7" d="M119.8 36.8c51.5 0 93.2 41.7 93.2 93.2s-43.1 93.2-94.6 93.2c-51.5 0-91.8-41.7-91.8-93.2s41.7-93.2 93.2-93.2zm23.5 70.5l27-5-62.1-35.1L96 135.1l21.5-16.3c40.5 83.9-22.7 67.4-30.4 62 16 19.7 103.4 18.2 56.2-73.5z"/></svg>