<svg version="1.1" id="Layer_1" xmlns="http://www.w3.org/2000/svg" x="0" y="0" viewBox="0 0 725 407.8" xml:space="preserve"><style>.st0{fill:#616b77}.st1{fill:#eaeaea}.st2{fill:#fff}.st3{fill:#ccc}.st5{fill-rule:evenodd;clip-rule:evenodd;fill:#616b77}</style><path class="st0" d="M462.9 267.3H445v3.6h17.9v-3.6zm-26.9 0h-17.9v3.6H436v-3.6zm-26.8 0h-17.9v3.6h17.9v-3.6zm-26.8 0h-17.9v3.6h17.9v-3.6zm-26.9 0h-17.9v3.6h17.9v-3.6zm-26.8 0h-17.9v3.6h17.9v-3.6zm-26.8 0H284v3.6h17.9v-3.6zm-26.9 0h-17.9v3.6H275v-3.6zm-26.8 0h-17.9v3.6h17.9v-3.6zm-26.8 0h-17.9v3.6h17.9v-3.6zm-26.9 0h-17.9v3.6h17.9v-3.6zm-26.8 0h-17.9v3.6h17.9v-3.6zm-26.8 0H123v3.6h17.9v-3.6zm-26.8 0H96.2v3.6h17.9v-3.6zm-26.9 0H69.3v3.6h17.9v-3.6zm-26.8 0H48.2c-1.6.2-3 .9-4.3 2l2.3 2.7c.9-.7 2-1.1 3-1.1h12l-.8-3.6zm-16.6 10.2h-3.6v17.9h3.6v-17.9zm0 26.8h-3.6v17.9h3.6v-17.9zm0 26.9h-3.6v17.9h3.6v-17.9zm0 26.8h-3.6v10c.5 1.3 1.6 2.3 2.7 3.2l2.1-2.9c-1.3-.9-2-2.3-2-3.8V358h.8zm26.4 14.7H52.3v3.6h17.9v-3.6zm26.9 0H79.2v3.6h17.9v-3.6zm26.8 0H106v3.6h17.9v-3.6zm26.8 0h-17.9v3.6h17.9v-3.6zm26.9 0h-17.9v3.6h17.9v-3.6zm26.8 0h-17.9v3.6h17.9v-3.6zm26.8 0h-17.9v3.6h17.9v-3.6zm26.8 0h-17.9v3.6H258v-3.6zm26.9 0H267v3.6h17.9v-3.6zm26.8 0h-17.9v3.6h17.9v-3.6zm26.8 0h-17.9v3.6h17.9v-3.6zm26.9 0h-17.9v3.6h17.9v-3.6zm26.8 0h-17.9v3.6h17.9v-3.6zm26.8 0h-17.9v3.6H419v-3.6zm26.9 0H428v3.6h17.9v-3.6zm21.2-3.1c-.7 1.8-2.3 3-4.3 3h-8v3.6h8.2c2.3-.7 4.1-2.5 5-4.8l-.9-1.8zm3.8-25.4h-3.6v17.9h3.6v-17.9zm0-26.8h-3.6v17.9h3.6v-17.9zm0-26.8h-3.6v17.9h3.6v-17.9zm-7.2-23.3l-.5 3.6c2.3.4 3.9 2.3 3.9 4.7v6.1h3.6V275c0-.2-.2-.2-.2-.4-.9-2-2.5-3.6-4.5-4.3h-.2c-1.2-2.8-1.5-3-2.1-3z"/><path class="st1" d="M48.4 149.4h414.4c4.5 0 8.2 3.6 8.2 8.2v92.7c0 4.5-3.6 8.2-8.2 8.2H48.4c-4.5 0-8.2-3.6-8.2-8.2v-92.7c0-4.4 3.6-8.2 8.2-8.2z"/><path class="st2" d="M53.4 158.4h84.4c2.9 0 5.2 2.3 5.2 5.2v82.6c0 2.9-2.3 5.2-5.2 5.2H53.4c-2.9 0-5.2-2.3-5.2-5.2v-82.6c0-2.9 2.4-5.2 5.2-5.2z"/><g id="Artboard_3_"><path id="Fill-1_3_" class="st3" d="M117.1 186.3l-30.8-8.2c-3.9-1.1-8 1.3-9.1 5.4L69 214.2c-1.1 3.9 1.3 8 5.2 9.1l8.9 2.3c-.5-.9-1.1-2-1.3-3.2-.4-1.4-.5-3.2-.5-5v-24c0-.4.2-.7.7-.7l6.4-1.1h.2c.2 0 .4 0 .5.2.2.2.2.4.2.5v7.7h9.1c.4 0 .7.4.7.7v5.4c0 .4-.4.7-.7.7h-9.1v10.6c0 2 .4 3.6.9 4.3.5.7 1.6 1.1 3 1.1 1.1 0 2.1-.2 2.9-.4.9-.2 1.6-.5 2.1-.7h.8c.2.2.4.4.4.5l1.1 5c0 .4-.2.7-.4.9-.7.4-1.8.7-3 1.1l8.4 2.3c3.9 1.1 8-1.3 9.1-5.2l8.2-30.9c.7-3.9-1.8-8-5.7-9.1"/></g><path class="st3" d="M435.5 177.7H161.8c-2.5 0-4.5-2-4.5-4.5s2-4.5 4.5-4.5h273.7c2.5 0 4.5 2 4.5 4.5s-2 4.5-4.5 4.5zm-136.9 22H161.8c-2.5 0-4.5-2-4.5-4.5s2-4.5 4.5-4.5h136.8c2.5 0 4.5 2 4.5 4.5s-1.9 4.5-4.5 4.5zM209.7 241h-47.9c-2.5 0-4.5-2-4.5-4.5s2-4.5 4.5-4.5h47.9c2.5 0 4.5 2 4.5 4.5s-1.9 4.5-4.5 4.5z"/><path class="st1" d="M48.4 31.6h414.4c4.5 0 8.2 3.6 8.2 8.2v92.7c0 4.5-3.6 8.2-8.2 8.2H48.4c-4.5 0-8.2-3.6-8.2-8.2V39.8c0-4.5 3.6-8.2 8.2-8.2z"/><path class="st2" d="M53.4 40.5h84.4c2.9 0 5.2 2.3 5.2 5.2v82.6c0 2.9-2.3 5.2-5.2 5.2H53.4c-2.9 0-5.2-2.3-5.2-5.2V45.7c0-2.9 2.4-5.2 5.2-5.2z"/><g id="Artboard_2_"><path id="Fill-1_2_" class="st3" d="M117.1 68.4l-30.8-8.2c-3.9-1.1-8 1.3-9.1 5.4l-8.4 30.8c-1.1 3.9 1.3 8 5.2 9.1l8.9 2.3c-.5-.9-1.1-2-1.3-3.2-.4-1.4-.5-3.2-.5-5v-24c0-.4.2-.7.7-.7l6.4-1.1h.2c.2 0 .4 0 .5.2.2.2.2.4.2.5v7.7h9.1c.4 0 .7.4.7.7v5.4c0 .4-.4.7-.7.7h-9.1v10.6c0 2 .4 3.6.9 4.3s1.6 1.1 3 1.1c1.1 0 2.1-.2 2.9-.4.9-.2 1.6-.5 2.1-.7h.8c.2.2.4.4.4.5l1.1 5c0 .4-.2.7-.4.9-.7.4-1.8.7-3 1.1l8.4 2.3c3.9 1.1 8-1.3 9.1-5.2l8.2-30.9c.9-4-1.6-8.1-5.5-9.2"/></g><path class="st3" d="M435.5 59.8H161.8c-2.5 0-4.5-2-4.5-4.5s2-4.5 4.5-4.5h273.7c2.5 0 4.5 2 4.5 4.5s-2 4.5-4.5 4.5zM298.6 82H161.8c-2.5 0-4.5-2-4.5-4.5s2-4.5 4.5-4.5h136.8c2.5 0 4.5 2 4.5 4.5s-1.9 4.5-4.5 4.5zm-88.9 41.1h-47.9c-2.5 0-4.5-2-4.5-4.5s2-4.5 4.5-4.5h47.9c2.5 0 4.5 2 4.5 4.5s-1.9 4.5-4.5 4.5z"/><path id="Path-Copy_3_" d="M527.8 45.9c-86.9 0-157 70.1-157 157s70.1 157 157 157 157-70.1 157-157-70.1-157-157-157z" fill-rule="evenodd" clip-rule="evenodd" fill="#fff"/><path id="Path-Copy_2_" class="st5" d="M527.8 66.3c-75.6 0-136.7 61-136.7 136.7s61 136.7 136.7 136.7 136.7-61 136.7-136.7S603.4 66.3 527.8 66.3z"/><path id="Shape_1_" class="st2" d="M582.4 196.6c17.1 28.5 8.9 64.8-18.4 81.2-27.3 16.4-63.2 6.6-80.3-21.9L467 228.1l15.2-9.1 16.7 27.8c11.9 19.8 36.6 26.6 55.6 15.2 19-11.4 24.6-36.4 12.7-56.2l-27-45-8.8 38.5-17.4-4.8 15.5-68.7 68 18.5-3.9 17.7-38.2-10.4 27 45zm-119.3-9.3l9.5 15.9-15.2 9.1-9.5-15.9 15.2-9.1z"/><path class="st5" d="M257.1 101.5v220.3c0 2.5-2 4.5-4.5 4.5s-4.5-2-4.5-4.5V101.5c0-2.5 2-4.5 4.5-4.5s4.5 2 4.5 4.5z"/><path class="st5" d="M255.7 104.7l-20 20c-1.8 1.8-4.6 1.8-6.3 0-1.8-1.8-1.8-4.6 0-6.3l20-20c1.8-1.8 4.6-1.8 6.3 0 1.8 1.8 1.8 4.6 0 6.3z"/><path class="st5" d="M249.4 98.4c1.8-1.8 4.6-1.8 6.3 0l20 20c1.8 1.8 1.8 4.6 0 6.3-1.8 1.8-4.6 1.8-6.3 0l-20-20c-1.7-1.7-1.7-4.5 0-6.3z"/><path class="st0" d="M257.1 101.5v220.3c0 2.5-2 4.5-4.5 4.5s-4.5-2-4.5-4.5V101.5c0-2.5 2-4.5 4.5-4.5s4.5 2 4.5 4.5z"/><path class="st0" d="M255.7 104.7l-20 20c-1.8 1.8-4.6 1.8-6.3 0-1.8-1.8-1.8-4.6 0-6.3l20-20c1.8-1.8 4.6-1.8 6.3 0 1.8 1.8 1.8 4.6 0 6.3z"/><path class="st0" d="M249.4 98.4c1.8-1.8 4.6-1.8 6.3 0l20 20c1.8 1.8 1.8 4.6 0 6.3-1.8 1.8-4.6 1.8-6.3 0l-20-20c-1.7-1.7-1.7-4.5 0-6.3z"/></svg>