<svg id="Layer_1" xmlns="http://www.w3.org/2000/svg" width="520" height="260"><style>.st0{fill:#e6e7e8}.st1{fill:#fff}.st2{fill:#bfbfbf}.st4{enable-background:new}</style><path class="st0" d="M86 196.9h324.5v59.9H86v-59.9z"/><path class="st1" d="M89.7 200.6h52.9v52.9H89.7v-52.9z"/><path class="st0" d="M94 249.8v-12.2l10.8-8.4 14.5 10.3 10.3-4.7 8.9 6.6v8.4H94"/><circle class="st0" cx="127.2" cy="214.7" r="7"/><path class="st2" d="M86 132.4h324.5v59.9H86v-59.9z"/><path class="st1" d="M89.7 136.2h52.9v52.9H89.7v-52.9z"/><path class="st2" d="M94 185.8v-12.2l10.8-8.9 14.5 10.3 10.3-4.7 8.9 6.6v8.9H94"/><circle class="st2" cx="127.2" cy="150.2" r="7"/><path class="st2" d="M86 68h324.5v59.9H86V68z"/><path class="st1" d="M89.7 71.7h52.9v52.9H89.7V71.7z"/><path class="st2" d="M94 120.9v-12.2l10.8-8.4 14.5 10.3 10.3-4.7 8.9 6.6v8.4H94"/><circle class="st2" cx="127.2" cy="85.8" r="7"/><path class="st2" d="M86 3.5h324.5v59.9H86V3.5z"/><path class="st1" d="M89.7 7.2h52.9v52.9H89.7V7.2z"/><path class="st2" d="M94 56.9V44.7l10.8-8.9 14.5 10.3 10.3-4.7 8.9 6.6v8.9H94"/><circle class="st2" cx="127.2" cy="21.3" r="7"/><path class="st1" d="M412.8 25.5c57.7 0 104.5 46.8 104.5 104.5S469 234.5 411.2 234.5c-57.7 0-102.9-46.8-102.9-104.5S355.1 25.5 412.8 25.5z"/><circle cx="412.8" cy="130" r="93" fill="#52b532"/><path class="st1" d="M430.4 64c-4.8 5.3-6.5 12.8-4.2 19.7.1.3.2.5.2.8-3.6 3-8.2 7.1-12.7 11.6-5.6 5.6-10.8 11.7-13.9 15.4-2.5-.6-5-1-7.6-1.2-4.9-.2-9.8 1.8-13.3 5.2l21.1 21.1-39.9 48.5 48.5-39.9 21.1 21.1c4.8-5.3 6.5-12.8 4.2-19.7-.1-.4-.2-.9-.4-1.3 3.6-3 9.7-8.1 15.2-13.7 4.4-4.4 8.6-9.2 11.7-12.8 2.4.6 4.9 1 7.4 1.1 4.9.2 9.8-1.8 13.3-5.2L430.4 64z"/><g class="st4"><path class="st2" d="M64.3 46h-4.9V30.4h-6.1v-3.7c3.4.1 6.6-1.1 7.1-4.8h3.9V46z"/></g><g class="st4"><path class="st2" d="M51.5 94.2c-.2-5.5 3-9.8 8.8-9.8 4.4 0 8.3 2.8 8.3 7.6 0 3.6-1.9 5.6-4.3 7.3-2.4 1.7-5.2 3.1-7 5.6h11.4v4.2H51c0-5.6 3.4-8 7.6-10.8 2.1-1.4 5-2.9 5.1-5.9 0-2.3-1.5-3.7-3.6-3.7-2.9 0-3.8 3-3.8 5.6h-4.8z"/></g><g class="st4"><path class="st2" d="M58.1 159.2c2.1.2 5.1-.2 5.1-3 0-2-1.6-3.2-3.4-3.2-2.4 0-3.8 1.8-3.7 4.3h-4.7c.2-4.9 3.4-8.3 8.3-8.3 3.9 0 8.1 2.4 8.1 6.7 0 2.3-1.1 4.3-3.4 4.9v.1c2.7.6 4.3 2.8 4.3 5.5 0 5.1-4.2 7.9-9 7.9-5.4 0-9.1-3.2-9-8.8h4.7c.1 2.6 1.4 4.8 4.2 4.8 2.2 0 3.9-1.5 3.9-3.8 0-3.7-3.2-3.6-5.6-3.6v-3.5z"/></g></svg>