<svg id="Layer_1" xmlns="http://www.w3.org/2000/svg" viewBox="0 0 200 200"><style>.st0{fill:#FFFFFF;} .st1{fill:#FFCC06;}</style><path class="st0" d="M0 0h200v200H0z"/><path class="st1" d="M20 7.5h160.3c6.8 0 12.3 5.5 12.3 12.3v160.3c0 6.8-5.5 12.3-12.3 12.3H20c-6.8 0-12.3-5.5-12.3-12.3V19.8C7.7 13 13.2 7.5 20 7.5z"/><path class="st0" d="M160.1 99l-59-53c-1.2-1.2-1.8-1.2-3-.6C92.5 50.3 82 60.1 71.4 70V53.7c0-1.2-.6-3-2.4-3h-9c-1.2 0-2.4 1.8-2.4 3v29.1c-8.5 7.9-15.4 14.5-17.8 16.8-1.8 1.8.6 1.8 3.5 1.8h14.3v53h28.6v-39.2H116v39.9h28v-54.2h14.8c1.8-.1 2.5-.7 1.3-1.9z"/></svg>