<svg id="Layer_1" xmlns="http://www.w3.org/2000/svg" viewBox="0 0 200 200"><style>.st0{fill:#FFFFFF;} .st1{fill:#04A7DF;}</style><path class="st0" d="M0 0h200v200H0z"/><path class="st1" d="M20.1 7.5h160.3c6.8 0 12.3 5.5 12.3 12.3v160.3c0 6.8-5.5 12.3-12.3 12.3H20.1c-6.8 0-12.3-5.5-12.3-12.3V19.8c0-6.8 5.5-12.3 12.3-12.3z"/><path class="st0" d="M157.9 82.7c-6.2-.4-11 5.2-10.9 11.8l.1 14.3-94.9.1-.1-14.3c-.1-6.4-4.9-12-11.1-11.7-6.2-.4-11 5.2-10.9 11.8l.3 26.6c.1 6.4 4.9 12 11.1 11.7h3.9l.1 7.9c0 2.6 1.8 4.6 4.8 4.8 3.1 0 4.9-1.9 4.6-4.9l-.1-7.9 91-.1.1 7.9c0 2.6 1.8 4.6 4.8 4.8 2.9-.3 4.6-2.2 4.6-4.9l-.1-7.9h3.9c6.2.4 11-5.2 10.9-11.8l-.3-26.6c-.7-5.9-5.3-11.3-11.8-11.6"/><path class="st0" d="M57.3 95l.1 8.3h38.9l-.4-35.2c0-3.3-2.4-5.7-4.8-5.4l-25.3.4C57 63 50.1 69.3 49.3 80.6c4.7 2.5 8 9.1 8 14.4M140.6 95.2c-.3-7.9 2.7-14 8.4-17.4-.9-8.2-8.1-15.3-16.8-15.6l-25.3.4c-2.9.5-4.5 2.7-4.6 5.6l.4 35.2 38 .4-.1-8.6z"/></svg>