<svg id="Layer_1" xmlns="http://www.w3.org/2000/svg" viewBox="0 0 200 200"><style>.st0{fill:#FFFFFF;} .st1{fill:#64BC47;}</style><path class="st0" d="M0 0v200h200V0H0zm172.9 105.9v28.2c0 2.2-.8 2.2-2.2 2.2h-7.2c-1.4 0-2.2.8-2.2 2.2V150c0 6.5-4.4 10.9-10.1 10.9-5.8 0-10.1-4.4-10.9-10.9v-10.9c0-2.2-.8-2.2-2.2-2.2-12.4-2.1-24.7-2.1-37.8-2.1H62.6c-2.2 0-2.9.8-2.9 2.9v11.5c0 5.1-2.9 8.7-7.2 10.1-4.4 1.4-8.7 0-11.5-3.6-1.4-2.2-2.2-4.4-2.2-6.5v-11.5c0-1.4-.8-2.2-2.2-2.2h-7.9c-1.4 0-2.2 0-2.2-1.4V95.8c0-7.2 4.4-13.1 11.5-15.2 1.4-.8 1.4-1.4 2.2-2.2 3.6-9.3 7.2-18.8 10.9-28.2 3.7-8.6 8-12.2 17.5-12.2h61.5c9.3 0 14.5 3.6 18.1 12.3 3.6 9.3 7.2 18.1 10.9 27.5.8 1.4 1.4 2.2 2.9 2.9 6.5 2.2 10.1 6.5 10.9 13.7.8 3.6 0 7.2 0 11.5z"/><path class="st1" d="M180.5 7.5H20.2C13.3 7.5 7.8 13 7.9 19.8v160.3c0 6.8 5.5 12.3 12.3 12.3h160.3c6.8 0 12.3-5.5 12.3-12.3V19.8c0-6.8-5.5-12.3-12.3-12.3z"/><path class="st0" d="M159.3 95.3c-.7-5.9-3.6-9.4-8.9-11.1-1.2-.6-1.7-1.2-2.4-2.4-3-7.6-5.9-14.8-8.9-22.4-2.9-7.1-7.2-10-14.7-10h-50c-7.7 0-11.2 2.9-14.2 9.9-3 7.6-5.9 15.4-8.9 22.9-.7.7-.7 1.1-1.8 1.8-5.8 1.7-9.4 6.5-9.4 12.4v31.2c0 1.1.7 1.1 1.8 1.1h6.4c1.1 0 1.8.7 1.8 1.8v9.4c0 1.7.7 3.5 1.8 5.3 2.3 2.9 5.8 4.1 9.4 2.9 3.5-1.1 5.9-4.1 5.9-8.2v-9.4c0-1.7.6-2.4 2.4-2.4h30.7c10.7 0 20.7 0 30.8 1.7 1.1 0 1.8 0 1.8 1.8v8.9c.7 5.3 4.1 8.9 8.9 8.9 4.6 0 8.2-3.6 8.2-8.9v-9.4c0-1.1.7-1.8 1.8-1.8h5.9c1.1 0 1.8 0 1.8-1.8v-22.9c-.2-3.4.4-6.3-.2-9.3zM59.1 109.5c-4.7 0-8.9-3.6-8.9-8.9 0-4.7 4.1-8.9 8.9-8.9 4.6 0 8.8 4.1 8.9 8.9 0 4.7-4.1 8.9-8.9 8.9zm3.3-26.6c-1.1 0-1.8 0-1.1-1.8 2.4-6.5 4.7-12.4 7.1-18.9 1.2-4.1 2.9-4.7 7.1-4.7h49.4c4.1 0 5.9.6 7.1 4.7 2.4 6.5 4.7 12.4 7.1 18.9.7 1.1.7 1.8-1.1 1.8H62.4zm79 27c-4.7 0-8.9-3.7-8.9-8.9s4.1-9.4 8.9-9.4c4.7 0 8.9 3.6 8.9 8.9 0 5.3-4.1 9.5-8.9 9.4z"/></svg>