<svg id="Layer_1" xmlns="http://www.w3.org/2000/svg" viewBox="0 0 200 200"><style>.st0{fill:#FFFFFF;} .st1{fill:#FFCC06;}</style><path class="st0" d="M0 0h200v200H0z"/><path class="st1" d="M20 7.5h160.3c6.8 0 12.3 5.5 12.3 12.3v160.3c0 6.8-5.5 12.3-12.3 12.3H20c-6.8 0-12.3-5.5-12.3-12.3V19.8C7.7 13 13.2 7.5 20 7.5z"/><path class="st0" d="M58.2 160.9c-8.4 0-18.2-4.3-19.3-13.3-.6-6 .6-11.5 4.9-15.7C48 127 55.3 124 62.5 124c4.3 0 7.9 1.2 11.5 2.4V57.9s17-4.3 25.4-6c15.1-3 48.4-10.9 48.4-10.9v81.8c-.6 4.9-.6 8.4-4.3 13.3-4.3 5.4-13.9 9.7-23.6 9.7-10.9 0-17.6-5.4-17.6-14.6 0-5.4 1.8-10.3 5.4-13.9 4.9-4.9 12.1-7.9 20-7.9 3.6 0 7.3.6 10.3 1.8 0-5.4.1-36.7.1-47.6-12.1 2.4-22.5 5.2-34 7.6-5.9 1.4-12.6 3.2-18.6 5.1v55c0 13.9-6 24.2-17 28.4-3.6.6-6.6 1.2-10.3 1.2z" id="music_note_1_"/></svg>