<svg id="Layer_1" xmlns="http://www.w3.org/2000/svg" viewBox="0 0 200 200"><style>.st0{fill:#FFFFFF;} .st1{fill:#04A7DF;}</style><path class="st0" d="M0 0h200v200H0z"/><path class="st1" d="M20.5 7.5h160.3c6.8 0 12.3 5.5 12.3 12.3v160.3c0 6.8-5.5 12.3-12.3 12.3H20.5c-6.8 0-12.3-5.5-12.3-12.3V19.8C8.1 13 13.6 7.5 20.5 7.5z"/><path class="st0" d="M140.2 53.9c-2.5-1.2-3.7-3.1-5.6-3.1h-16.2c-.6 9.2-8.5 16.7-17.8 16.8-9.1-.2-17-7.6-17.6-16.8H66.7c-1.9 0-3.1 1.9-5.6 3.1L30.6 78.8l15.5 16.8 16.2-13.1V146c0 1.2 2.5 3.1 3.7 3.1h69c1.2 0 3.7-1.9 3.7-3.1V82.5l16.2 13.1 15.5-16.8-30.2-24.9z"/></svg>