<?xml version="1.0" standalone="no"?>
<!DOCTYPE svg PUBLIC "-//W3C//DTD SVG 20010904//EN"
 "http://www.w3.org/TR/2001/REC-SVG-20010904/DTD/svg10.dtd">
<svg version="1.0" xmlns="http://www.w3.org/2000/svg"
 width="700.000000pt" height="700.000000pt" viewBox="0 0 700.000000 700.000000"
 preserveAspectRatio="xMidYMid meet">
<metadata>
Created by potrace 1.11, written by Peter Selinger 2001-2013
</metadata>
<g transform="translate(0.000000,700.000000) scale(0.100000,-0.100000)"
fill="#000000" stroke="none">
<path d="M1865 6985 c-319 -59 -601 -285 -725 -581 -29 -71 -1085 -3996 -1122
-4174 -25 -121 -21 -305 11 -423 79 -300 295 -545 579 -659 61 -24 1243 -350
1249 -344 1 1 -17 42 -41 92 -70 143 -115 306 -153 554 -15 105 -17 264 -20
1825 -3 1681 -3 1711 16 1742 16 25 30 33 73 42 127 26 794 131 828 131 27 0
48 -8 69 -26 l31 -26 0 -514 0 -514 605 -2 605 -3 27 -28 28 -27 0 -381 0
-381 -33 -29 -32 -29 -600 0 -600 0 0 -757 c0 -808 4 -886 50 -1025 39 -114
91 -178 185 -225 165 -83 496 -64 828 48 49 16 103 29 121 29 42 0 81 -30 95
-73 26 -81 141 -674 136 -703 -3 -17 -15 -40 -28 -51 -22 -20 -185 -84 -300
-117 -130 -38 -153 -27 328 -157 779 -211 698 -193 875 -194 131 0 168 4 240
23 302 82 552 303 659 582 32 82 1102 4020 1132 4165 93 447 -157 915 -581
1084 -84 33 -4109 1114 -4210 1130 -86 14 -238 12 -325 -4z"/>
</g>
</svg>
