<?xml version="1.0" encoding="utf-8"?>
<!-- Generator: Adobe Illustrator 20.1.0, SVG Export Plug-In . SVG Version: 6.00 Build 0)  -->
<svg version="1.1" id="Layer_1" xmlns="http://www.w3.org/2000/svg" xmlns:xlink="http://www.w3.org/1999/xlink" x="0px" y="0px"
	 width="30px" height="30px" viewBox="0 0 30 30" enable-background="new 0 0 30 30" xml:space="preserve">
<g id="Layer_1_1_">
</g>
<g id="Layer_5" display="none">
	<rect x="-871.6" y="-1587.7" display="inline" fill="#333333" width="3016" height="1758"/>
</g>
<g id="Layer_4">
</g>
<g id="Layer_3">
</g>
<g id="Layer_2">
	<g>
		<path fill="#999999" d="M9.6,30c-0.3,0-0.6-0.1-0.9-0.3c-0.6-0.5-0.7-1.3-0.2-1.9l10.3-12.5c0.1-0.1,0.1-0.2,0-0.3L8.8,2.3
			C8.4,1.7,8.5,0.8,9,0.3c0.6-0.4,1.5-0.3,2,0.3l10,12.6c0.9,1.2,0.9,2.8-0.1,3.8L10.7,29.5C10.4,29.8,10,30,9.6,30z"/>
	</g>
</g>
</svg>
