<?xml version="1.0" encoding="utf-8"?>
<!-- Generator: Adobe Illustrator 16.0.4, SVG Export Plug-In . SVG Version: 6.00 Build 0)  -->
<!DOCTYPE svg PUBLIC "-//W3C//DTD SVG 1.1//EN" "http://www.w3.org/Graphics/SVG/1.1/DTD/svg11.dtd">
<svg version="1.1" id="Layer_1" xmlns="http://www.w3.org/2000/svg" xmlns:xlink="http://www.w3.org/1999/xlink" x="0px" y="0px"
	 width="30.008px" height="30px" viewBox="0 0 30.008 30" style="enable-background:new 0 0 30.008 30;" xml:space="preserve">
<style type="text/css">
<![CDATA[
	.st0{display:inline;fill:#333333;}
	.st1{display:none;}
	.st2{fill:#A6A39C;}
]]>
</style>
<g id="Layer_1_1_">
</g>
<g id="Layer_5" class="st1">
	<rect x="-1107.899" y="-493.492" class="st0" width="3016" height="1758"/>
</g>
<g id="Layer_4">
</g>
<g id="Layer_3">
</g>
<g id="Layer_2">
	<path class="st2" d="M29.779,24.457c0.33-0.434,0.305-1.051-0.094-1.447c-0.045-0.046-0.099-0.087-0.148-0.119l-0.004-0.011
		l-6.441-4.606l-0.01,0.006c-0.432-0.316-1.033-0.282-1.43,0.106c-0.035,0.04-0.068,0.082-0.103,0.128l0,0
		c-0.021,0.024-0.039,0.051-0.056,0.08c-0.434,0.616-0.43,0.695-0.778,1.232c-0.495,0.777-1.067,1.979-1.635,3.345
		c-1.812-0.278-4.505-1.851-7.453-4.8c-2.949-2.944-4.521-5.641-4.795-7.45c1.363-0.565,2.562-1.139,3.344-1.633
		c0.534-0.351,0.612-0.347,1.234-0.777c0.026-0.02,0.051-0.035,0.08-0.056c0,0,0.002,0,0.002-0.003
		c0.041-0.029,0.086-0.062,0.125-0.102c0.391-0.391,0.423-0.996,0.108-1.43V6.913L7.124,0.47H7.113
		C7.075,0.417,7.037,0.366,6.991,0.32C6.595-0.074,5.977-0.104,5.543,0.228C2.458,2.344-0.334,4.667,0.032,7.417
		c0.392,2.95,3.908,9.448,8.507,14.047c4.6,4.597,11.102,8.114,14.049,8.504C25.342,30.335,27.663,27.546,29.779,24.457"/>
</g>
</svg>
