<?xml version="1.0" encoding="utf-8"?>
<!-- Generator: Adobe Illustrator 20.1.0, SVG Export Plug-In . SVG Version: 6.00 Build 0)  -->
<svg version="1.1" id="Layer_1" xmlns="http://www.w3.org/2000/svg" xmlns:xlink="http://www.w3.org/1999/xlink" x="0px" y="0px"
	 width="30px" height="30px" viewBox="0 0 30 30" enable-background="new 0 0 30 30" xml:space="preserve">
<g id="Layer_1_1_">
</g>
<g id="Layer_5" display="none">
	<rect x="-1107.9" y="-493.5" display="inline" fill="#333333" width="3016" height="1758"/>
</g>
<g id="Layer_4">
</g>
<g id="Layer_3">
</g>
<g id="Layer_2">
	<path d="M29.8,24.5c0.3-0.4,0.3-1.1-0.1-1.4c0,0-0.1-0.1-0.1-0.1l0,0l-6.4-4.6l0,0c-0.4-0.3-1-0.3-1.4,0.1c0,0-0.1,0.1-0.1,0.1l0,0
		c0,0,0,0.1-0.1,0.1c-0.4,0.6-0.4,0.7-0.8,1.2c-0.5,0.8-1.1,2-1.6,3.3c-1.8-0.3-4.5-1.9-7.5-4.8c-2.9-2.9-4.5-5.6-4.8-7.4
		c1.4-0.6,2.6-1.1,3.3-1.6c0.5-0.4,0.6-0.3,1.2-0.8c0,0,0.1,0,0.1-0.1c0,0,0,0,0,0c0,0,0.1-0.1,0.1-0.1C12,8,12,7.4,11.7,6.9v0
		L7.1,0.5h0C7.1,0.4,7,0.4,7,0.3C6.6-0.1,6-0.1,5.5,0.2C2.5,2.3-0.3,4.7,0,7.4c0.4,2.9,3.9,9.4,8.5,14c4.6,4.6,11.1,8.1,14,8.5
		C25.3,30.3,27.7,27.5,29.8,24.5"/>
</g>
</svg>
