<?xml version="1.0" encoding="utf-8"?>
<!-- Generator: Adobe Illustrator 20.1.0, SVG Export Plug-In . SVG Version: 6.00 Build 0)  -->
<svg version="1.1" id="Layer_1" xmlns="http://www.w3.org/2000/svg" xmlns:xlink="http://www.w3.org/1999/xlink" x="0px" y="0px"
	 width="30px" height="30px" viewBox="0 0 30 30" enable-background="new 0 0 30 30" xml:space="preserve">
<g id="Layer_1_1_">
</g>
<g id="Layer_5" display="none">
	<rect x="-688.3" y="-753" display="inline" fill="#333333" width="3016" height="1758"/>
</g>
<g id="Layer_4">
</g>
<g id="Layer_3">
</g>
<g>
	<circle cx="10.2" cy="21.2" r="0.9"/>
	<rect x="9.9" y="13.4" transform="matrix(0.7071 -0.7071 0.7071 0.7071 -5.5569 14.7342)" width="10.2" height="1.4"/>
	<path d="M15,0C6.7,0,0,6.7,0,15c0,8.3,6.7,15,15,15s15-6.7,15-15C30,6.7,23.3,0,15,0z M14,4.4l2.8,1.3L9.4,13L14,4.4z M15.5,23.7
		l-7.7,0l0-7.7L18.2,5.6l7.7,7.7L15.5,23.7z"/>
	<rect x="12.2" y="15.6" transform="matrix(0.7069 -0.7073 0.7073 0.7069 -6.5118 16.9869)" width="10.1" height="1.4"/>
</g>
</svg>
