<?xml version="1.0" encoding="utf-8"?>
<!-- Generator: Adobe Illustrator 20.1.0, SVG Export Plug-In . SVG Version: 6.00 Build 0)  -->
<svg version="1.1" id="Layer_1" xmlns="http://www.w3.org/2000/svg" xmlns:xlink="http://www.w3.org/1999/xlink" x="0px" y="0px"
	 width="53px" height="53px" viewBox="0 0 53 53" enable-background="new 0 0 53 53" xml:space="preserve">
<path fill="#999999" d="M26.4,52.8C11.9,52.8,0,40.9,0,26.4S11.9,0,26.4,0s26.4,11.9,26.4,26.4C52.6,40.9,40.9,52.8,26.4,52.8z
	 M26.4,3.7C13.8,3.7,3.6,14,3.6,26.6s10.3,22.8,22.8,22.8s22.8-10.3,22.8-22.8C49.1,13.8,39,3.7,26.4,3.7z M41.3,26.9H27.2V11.1
	c0-0.9-0.7-1.7-1.7-1.7c-0.9,0-1.7,0.7-1.7,1.7v17.5c0,0.9,0.7,1.7,1.7,1.7h15.8c0.9,0,1.7-0.7,1.7-1.7C43,27.7,42.2,26.9,41.3,26.9
	z"/>
</svg>
