<?xml version="1.0" encoding="utf-8"?>
<!-- Generator: Adobe Illustrator 16.0.4, SVG Export Plug-In . SVG Version: 6.00 Build 0)  -->
<!DOCTYPE svg PUBLIC "-//W3C//DTD SVG 1.1//EN" "http://www.w3.org/Graphics/SVG/1.1/DTD/svg11.dtd">
<svg version="1.1" id="Layer_1" xmlns="http://www.w3.org/2000/svg" xmlns:xlink="http://www.w3.org/1999/xlink" x="0px" y="0px"
	 width="30px" height="30px" viewBox="0 0 30 30" style="enable-background:new 0 0 30 30;" xml:space="preserve">
<style type="text/css">
<![CDATA[
	.st0{display:inline;fill:#333333;}
	.st1{display:none;}
	.st2{fill:#A6A39C;}
]]>
</style>
<g id="Layer_1_1_">
</g>
<g id="Layer_5" class="st1">
	<rect x="-293.425" y="-831.636" class="st0" width="3016" height="1758"/>
</g>
<g id="Layer_4">
</g>
<g id="Layer_3">
</g>
<g>
	<path class="st2" d="M8,9.962c-2.782,0-5.037,2.255-5.037,5.037c0,2.783,2.255,5.038,5.037,5.038c2.783,0,5.038-2.255,5.038-5.038
		C13.038,12.217,10.783,9.962,8,9.962z M10.368,18.191l-3.066-2.729l-0.057-0.427l0.218-4.099h0.639l0.215,4.043l2.536,2.716
		L10.368,18.191z"/>
	<path class="st2" d="M15,0C6.729,0,0,6.729,0,14.999C0,23.271,6.729,30,15,30c8.271,0,15-6.729,15-15.001C30,6.729,23.271,0,15,0z
		 M8,21c-3.314,0-6-2.686-6-6c0-3.312,2.687-6,6-6c3.314,0,6,2.688,6,6C14,18.314,11.314,21,8,21z M22.883,12.324v10.172H19.15
		V12.324H16l5-6.821l5,6.821H22.883z"/>
</g>
</svg>
