<?xml version="1.0" encoding="utf-8"?>
<!-- Generator: Adobe Illustrator 20.1.0, SVG Export Plug-In . SVG Version: 6.00 Build 0)  -->
<svg version="1.1" id="Layer_1" xmlns="http://www.w3.org/2000/svg" xmlns:xlink="http://www.w3.org/1999/xlink" x="0px" y="0px"
	 width="30px" height="30px" viewBox="0 0 30 30" enable-background="new 0 0 30 30" xml:space="preserve">
<g id="Layer_1_1_">
</g>
<g id="Layer_5" display="none">
	<rect x="-135.312" y="-545.766" display="inline" fill="#333333" width="3016" height="1758"/>
</g>
<g id="Layer_4">
</g>
<g id="Layer_3">
</g>
<g id="Layer_2">
	<g>
		<g id="Sort_by_price_copy_11_">
			<g>
				<g>
					<g>
						<path fill="#999999" d="M22.192,18.004c-4.098,0-7.432-3.333-7.432-7.431c0-4.099,3.334-7.434,7.432-7.434
							c4.1,0,7.433,3.335,7.433,7.434C29.625,14.671,26.292,18.004,22.192,18.004z M22.192,4.577c-3.306,0-5.993,2.69-5.993,5.996
							c0,3.305,2.69,5.993,5.993,5.993c3.306,0,5.994-2.688,5.994-5.993C28.186,7.266,25.498,4.577,22.192,4.577z"/>
					</g>
				</g>
			</g>
			<g>
				<path fill="#999999" d="M22.192,11.545c-0.395,0-0.719-0.322-0.719-0.718V6.392c0-0.397,0.323-0.719,0.719-0.719
					c0.397,0,0.72,0.323,0.72,0.719v4.436C22.912,11.223,22.589,11.545,22.192,11.545z"/>
			</g>
			<g>
				<path fill="#999999" d="M24.877,11.545h-2.685c-0.395,0-0.719-0.322-0.719-0.718c0-0.397,0.323-0.719,0.719-0.719h2.685
					c0.397,0,0.719,0.322,0.719,0.719C25.596,11.223,25.274,11.545,24.877,11.545z"/>
			</g>
		</g>
		<g id="Layer_1_127_">
			<g>
				<g>
					<path fill="#999999" d="M7.301,27.707c-0.006,0-0.014,0-0.02,0c-0.367-0.008-0.719-0.168-0.965-0.445l-5.757-6.426
						c-0.265-0.295-0.241-0.752,0.056-1.015c0.295-0.265,0.751-0.241,1.016,0.056l5.674,6.334l6.012-6.349
						c0.274-0.29,0.728-0.302,1.016-0.029c0.289,0.274,0.301,0.731,0.027,1.019L8.265,27.29C8.011,27.555,7.662,27.707,7.301,27.707
						z"/>
				</g>
				<g>
					<path fill="#999999" d="M7.254,27.582c-0.397,0-0.72-0.322-0.72-0.719V3.013c0-0.397,0.323-0.72,0.72-0.72
						c0.397,0,0.719,0.323,0.719,0.72v23.85C7.973,27.26,7.651,27.582,7.254,27.582z"/>
				</g>
			</g>
		</g>
	</g>
</g>
</svg>
