<?xml version="1.0" encoding="utf-8"?>
<!-- Generator: Adobe Illustrator 20.1.0, SVG Export Plug-In . SVG Version: 6.00 Build 0)  -->
<svg version="1.1" id="Layer_1" xmlns="http://www.w3.org/2000/svg" xmlns:xlink="http://www.w3.org/1999/xlink" x="0px" y="0px"
	 width="30px" height="30px" viewBox="0 0 30 30" enable-background="new 0 0 30 30" xml:space="preserve">
<g id="Layer_1_1_">
</g>
<g id="Layer_5" display="none">
	<rect x="-214.4" y="-831.6" display="inline" fill="#333333" width="3016" height="1758"/>
</g>
<g id="Layer_4">
</g>
<g id="Layer_3">
</g>
<g>
	<path fill="#999999" d="M8,10c-2.8,0-5,2.3-5,5c0,2.8,2.3,5,5,5c2.8,0,5-2.3,5-5C13,12.2,10.8,10,8,10z M10.4,18.2l-3.1-2.7L7.2,15
		l0.2-4.1H8l0.2,4l2.5,2.7L10.4,18.2z"/>
	<path fill="#999999" d="M15,0C6.7,0,0,6.7,0,15s6.7,15,15,15s15-6.7,15-15S23.3,0,15,0z M8,21c-3.3,0-6-2.7-6-6s2.7-6,6-6
		s6,2.7,6,6S11.3,21,8,21z M21,22.5l-5-6.8h3.1V5.5h3.7v10.2H26L21,22.5z"/>
</g>
</svg>
