<?xml version="1.0" encoding="utf-8"?>
<!-- Generator: Adobe Illustrator 20.1.0, SVG Export Plug-In . SVG Version: 6.00 Build 0)  -->
<svg version="1.1" id="Layer_1" xmlns="http://www.w3.org/2000/svg" xmlns:xlink="http://www.w3.org/1999/xlink" x="0px" y="0px"
	 width="30px" height="30px" viewBox="0 0 30 30" style="enable-background:new 0 0 30 30;" xml:space="preserve">
<path d="M26.5,13.9l3.3-4.7c0.3-0.3,0.3-0.8,0-1.1s-0.7-0.3-1,0c-0.1,0-0.1,0.1-0.2,0.1L25.4,13c-1.1-1.2-2.4-2.1-3.7-2.9l2.6-6.4
	c0.2-0.4,0-0.9-0.4-1.1c-0.4-0.2-0.8,0-1,0.4l-2.6,6.4c-1.4-0.7-3-1-4.6-1.1V0.8C15.7,0.4,15.3,0,15,0c-0.4,0-0.7,0.4-0.7,0.8v7.5
	c-1.4,0.1-2.7,0.4-4,0.9L7.7,3.1C7.5,2.6,7,2.5,6.7,2.6C6.3,2.8,6.1,3.3,6.3,3.7l2.5,6.1c-1.5,0.8-2.9,1.8-4.1,3.1L1.6,8.4
	C1.3,8.1,0.8,8,0.6,8.2C0.4,8.4,0.2,9,0.4,9.3L3.6,14C2.2,15.5,1,17.3,0,19.1C3.7,25.8,9,30,15,30s11.3-4.2,15-10.8
	c-0.9-1.8-2.2-3.5-3.5-5V13.9z M15,28.5c-5.1,0-9.7-3.3-13.2-9.3c3.5-6,8.1-9.3,13.2-9.3s9.7,3.3,13.2,9.3
	C24.7,25.2,20,28.5,15,28.5z"/>
<path d="M15,25.3c-3.5,0-6.3-2.9-6.3-6.5s2.8-6.5,6.3-6.5s6.3,2.9,6.3,6.5S18.5,25.3,15,25.3z M15,13.8c-2.6,0-4.8,2.2-4.8,4.9
	s2.2,4.9,4.8,4.9s4.8-2.2,4.8-4.9S17.6,13.8,15,13.8z"/>
</svg>
