<?xml version="1.0" encoding="utf-8"?>
<!-- Generator: Adobe Illustrator 20.1.0, SVG Export Plug-In . SVG Version: 6.00 Build 0)  -->
<svg version="1.1" id="Layer_1" xmlns="http://www.w3.org/2000/svg" xmlns:xlink="http://www.w3.org/1999/xlink" x="0px" y="0px"
	 width="11.7px" height="11.3px" viewBox="0 0 11.7 11.3" style="enable-background:new 0 0 11.7 11.3;" xml:space="preserve">
<style type="text/css">
	.st0{display:none;}
	.st1{display:inline;fill:#333333;}
	.st2{fill:#999999;}
	.st3{fill:#FFFFFF;}
</style>
<g id="Layer_1_1_">
</g>
<g id="Layer_5" class="st0">
	<rect x="-457.3" y="-551.6" class="st1" width="3016" height="1758"/>
</g>
<g id="Layer_4">
</g>
<g id="Layer_3">
</g>
<g id="Layer_2">
	<g>
		<g id="Layer_1_120_">
			<g id="Layer_1_123_">
				<g>
					<g>
						<path class="st2" d="M1.4,11.3c-0.2,0-0.4-0.2-0.4-0.4V0.4C1.1,0.2,1.2,0,1.4,0s0.4,0.2,0.4,0.4V11
							C1.8,11.2,1.6,11.3,1.4,11.3z"/>
					</g>
				</g>
			</g>
			<g id="Layer_1_122_">
				<g>
					<g>
						<path class="st2" d="M5.8,11.3c-0.2,0-0.4-0.2-0.4-0.4V0.4C5.5,0.2,5.6,0,5.8,0C6,0,6.2,0.2,6.2,0.4V11
							C6.2,11.2,6.1,11.3,5.8,11.3z"/>
					</g>
				</g>
			</g>
			<g id="Layer_1_121_">
				<g>
					<g>
						<path class="st2" d="M10.3,11.3c-0.2,0-0.4-0.2-0.4-0.4V0.4C9.9,0.2,10,0,10.3,0c0.2,0,0.4,0.2,0.4,0.4V11
							C10.6,11.2,10.5,11.3,10.3,11.3z"/>
					</g>
				</g>
			</g>
		</g>
		<g id="Layer_1_copy_3_">
			<g>
				<circle class="st3" cx="1.5" cy="5.6" r="1.3"/>
				<path class="st2" d="M1.5,7.1C0.7,7.1,0,6.4,0,5.6s0.7-1.5,1.5-1.5S3,4.8,3,5.6S2.3,7.1,1.5,7.1z M1.5,4.5
					C0.9,4.5,0.4,5,0.4,5.6s0.5,1.1,1.1,1.1s1.1-0.5,1.1-1.1S2.1,4.5,1.5,4.5z"/>
			</g>
			<g>
				<circle class="st3" cx="5.9" cy="5.6" r="1.3"/>
				<path class="st2" d="M5.9,7.1c-0.8,0-1.5-0.7-1.5-1.5s0.7-1.5,1.5-1.5s1.5,0.7,1.5,1.5S6.8,7.1,5.9,7.1z M5.9,4.5
					C5.3,4.5,4.8,5,4.8,5.6s0.5,1.1,1.1,1.1S7,6.2,7,5.6C7.1,5,6.5,4.5,5.9,4.5z"/>
			</g>
			<g>
				<circle class="st3" cx="10.2" cy="5.6" r="1.3"/>
				<path class="st2" d="M10.2,7.1c-0.8,0-1.5-0.7-1.5-1.5s0.7-1.5,1.5-1.5s1.5,0.7,1.5,1.5S11.1,7.1,10.2,7.1z M10.2,4.5
					C9.6,4.5,9.1,5,9.1,5.6s0.5,1.1,1.1,1.1s1.1-0.5,1.1-1.1C11.4,5,10.8,4.5,10.2,4.5z"/>
			</g>
		</g>
	</g>
</g>
</svg>
