<?xml version="1.0" encoding="utf-8"?>
<!-- Generator: Adobe Illustrator 16.0.4, SVG Export Plug-In . SVG Version: 6.00 Build 0)  -->
<!DOCTYPE svg PUBLIC "-//W3C//DTD SVG 1.1//EN" "http://www.w3.org/Graphics/SVG/1.1/DTD/svg11.dtd">
<svg version="1.1" id="Layer_1" xmlns="http://www.w3.org/2000/svg" xmlns:xlink="http://www.w3.org/1999/xlink" x="0px" y="0px"
	 width="30px" height="30px" viewBox="0 0 30 30" style="enable-background:new 0 0 30 30;" xml:space="preserve">
<style type="text/css">
<![CDATA[
	.st0{display:inline;fill:#333333;}
	.st1{display:none;}
	.st2{fill:#A6A39C;}
]]>
</style>
<g id="Layer_1_1_">
</g>
<g id="Layer_5" class="st1">
	<rect x="-451.489" y="-1477.45" class="st0" width="3016" height="1758"/>
</g>
<g id="Layer_4">
</g>
<g id="Layer_3">
</g>
<g>
	<path class="st2" d="M15,0C6.729,0,0,6.729,0,14.998C0,23.271,6.729,30,15,30c8.271,0,15-6.729,15-15.002C30,6.729,23.271,0,15,0z
		 M6,23.949c0.874-3,3.081-4.795,5.518-5.445c-1.229,0.882-2.393,1.445,2.043,5.445H6z M14.201,23.283
		c-0.493-0.678-2.669-3.43-1.399-4.971c0.421,0.483,0.909,0.725,1.436,0.84c-0.101,0.141-0.171,0.297-0.171,0.479
		c0,0.346,0.218,0.639,0.526,0.777L14.201,23.283z M14.999,17.471c-3.494,0-6.325-2.831-6.325-6.325c0-1.483,0.516-2.844,1.37-3.924
		l-0.029,0.002c0,0-2.457-3.274,3.273-2.961c5.729,0.313,6.394,2.641,6.392,2.641c1.021,1.123,1.646,2.61,1.646,4.242
		C21.324,14.64,18.49,17.471,14.999,17.471z M15.406,20.402c0.301-0.146,0.514-0.43,0.514-0.771c0-0.18-0.07-0.334-0.17-0.475
		c0.529-0.115,1.023-0.36,1.447-0.844c1.27,1.543-0.906,4.295-1.398,4.975L15.406,20.402z M16.439,23.949
		c4.437-4,3.271-4.563,2.043-5.445c2.436,0.65,4.643,2.445,5.518,5.445H16.439z"/>
	<path class="st2" d="M14.996,16.402c1.322,0,2.541-0.637,3.502-1.711L11.5,14.699C12.461,15.766,13.676,16.402,14.996,16.402z"/>
</g>
</svg>
