<?xml version="1.0" encoding="utf-8"?>
<!-- Generator: Adobe Illustrator 20.1.0, SVG Export Plug-In . SVG Version: 6.00 Build 0)  -->
<svg version="1.1" id="Layer_1" xmlns="http://www.w3.org/2000/svg" xmlns:xlink="http://www.w3.org/1999/xlink" x="0px" y="0px"
	 width="30px" height="30px" viewBox="0 0 30 30" enable-background="new 0 0 30 30" xml:space="preserve">
<path fill="#999999" d="M28.5,11.9l-2.1-0.4c-0.2-0.7-0.5-1.4-0.8-2l1.2-1.7C27.3,7,27.2,6,26.6,5.3l-1.9-1.9
	c-0.4-0.4-0.8-0.5-1.3-0.5c-0.4,0-0.8,0.1-1.1,0.3l-1.7,1.2c-0.7-0.4-1.4-0.7-2.1-0.9l-0.4-2.1C17.9,0.7,17.2,0,16.3,0h-2.6
	c-0.9,0-1.7,0.7-1.8,1.5l-0.4,2.1c-0.7,0.2-1.4,0.5-2,0.9L7.7,3.3C7.4,3.1,7,3,6.6,3c-0.5,0-1,0.2-1.3,0.5L3.4,5.4
	C2.8,6,2.7,7,3.2,7.8l1.3,1.8c-0.3,0.7-0.6,1.3-0.8,2L1.6,12C0.7,12.1,0,12.8,0,13.7v2.6c0,0.9,0.7,1.7,1.5,1.8l2.1,0.4
	c0.2,0.7,0.5,1.4,0.9,2l-1.2,1.7c-0.5,0.7-0.4,1.7,0.2,2.4l1.9,1.9C5.8,26.9,6.2,27,6.7,27c0.4,0,0.8-0.1,1.1-0.3l1.8-1.3
	c0.6,0.3,1.3,0.6,2,0.8l0.4,2.1c0.2,0.9,0.9,1.5,1.8,1.5h2.6c0.9,0,1.7-0.7,1.8-1.5l0.4-2.1c0.7-0.2,1.4-0.5,2-0.8l1.7,1.2
	c0.3,0.2,0.7,0.3,1.1,0.3c0.5,0,1-0.2,1.3-0.5l1.9-1.9c0.6-0.6,0.7-1.6,0.2-2.4l-1.2-1.7c0.3-0.7,0.6-1.3,0.8-2l2.1-0.4
	c0.9-0.2,1.5-0.9,1.5-1.8v-2.6C30,12.8,29.4,12,28.5,11.9z M15,21.5c-3.6,0-6.5-2.9-6.5-6.5s2.9-6.5,6.5-6.5s6.5,2.9,6.5,6.5
	S18.6,21.5,15,21.5z"/>
</svg>
