<?xml version="1.0" encoding="utf-8"?>
<!-- Generator: Adobe Illustrator 20.1.0, SVG Export Plug-In . SVG Version: 6.00 Build 0)  -->
<svg version="1.1" id="Layer_1" xmlns="http://www.w3.org/2000/svg" xmlns:xlink="http://www.w3.org/1999/xlink" x="0px" y="0px"
	 width="51px" height="23px" viewBox="0 0 51 23" enable-background="new 0 0 51 23" xml:space="preserve">
<path fill="#999999" d="M25.4,14.7c-0.6,0.6-1.2,1.2-1.8,1.8c-1.3,1.3-2.7,2.6-4.3,3.7c-1.9,1.3-4,2.3-6.3,2.6
	c-3.6,0.4-6.9-0.4-9.5-3.1c-1.7-1.7-2.6-3.9-3-6.3c-0.3-2.4,0-4.8,1.1-6.9C3.5,3,6.3,1,10.2,0.4c2.9-0.4,5.5,0.2,7.9,1.7
	c2,1.2,3.7,2.7,5.3,4.4C24,7,24.6,7.6,25.2,8.2c0.1,0.1,0.1,0.1,0.2,0.2c0.4-0.4,0.8-0.8,1.2-1.2c1.3-1.3,2.6-2.6,4.1-3.7
	c1.8-1.4,3.7-2.4,5.9-2.9C39,0,41.4,0.1,43.7,1.1c2.7,1.1,4.6,2.9,5.7,5.6c1.1,2.7,1.4,5.6,0.4,8.4c-1.5,4.2-4.5,6.8-8.9,7.6
	c-3.1,0.6-5.9-0.2-8.5-1.9c-1.6-1-3-2.2-4.3-3.5c-0.8-0.8-1.6-1.6-2.5-2.4C25.5,14.8,25.5,14.7,25.4,14.7z M28.5,11.4
	c0.3,0.4,0.6,0.7,0.8,0.9c1.2,1.2,2.5,2.4,3.7,3.5c1.1,1,2.4,1.7,3.9,2.1c1.9,0.5,3.7,0.4,5.4-0.7c2.6-1.6,3.8-4.6,3.1-7.5
	C44.7,7,42.7,5.2,40,4.9c-1.9-0.2-3.6,0.3-5.2,1.2c-1.6,0.9-2.9,2-4.2,3.3C29.9,10.1,29.1,10.8,28.5,11.4z M22.3,11.6
	c-0.3-0.3-0.5-0.6-0.8-0.9c-1.2-1.2-2.5-2.4-3.8-3.5c-1.2-1-2.5-1.8-4.1-2.2c-1.8-0.5-3.6-0.3-5.2,0.7c-2.7,1.6-3.9,4.7-3.1,7.7
	c0.7,2.5,2.3,4.1,4.9,4.6c1.8,0.4,3.5,0,5.1-0.8c1.2-0.6,2.3-1.4,3.3-2.3C20,13.9,21.2,12.7,22.3,11.6z"/>
</svg>
