<?xml version="1.0" encoding="utf-8"?>
<!-- Generator: Adobe Illustrator 20.1.0, SVG Export Plug-In . SVG Version: 6.00 Build 0)  -->
<svg version="1.1" id="Info" xmlns="http://www.w3.org/2000/svg" xmlns:xlink="http://www.w3.org/1999/xlink" x="0px" y="0px"
	 width="30px" height="30px" viewBox="0 0 30 30" enable-background="new 0 0 30 30" xml:space="preserve">
<path d="M15,0C6.7,0,0,6.7,0,15s6.7,15,15,15s15-6.7,15-15S23.3,0,15,0z M13.4,4.2c0.5-0.4,1.1-0.7,1.7-0.7c0.7,0,1.2,0.2,1.7,0.7
	c0.4,0.5,0.6,1,0.6,1.6S17.2,7,16.8,7.4c-0.4,0.5-0.9,0.7-1.6,0.7s-1.3-0.2-1.7-0.6c-0.5-0.4-0.8-1-0.8-1.7
	C12.7,5.3,12.9,4.7,13.4,4.2L13.4,4.2z M19.4,25.3c0,0.2-0.3,0.4-0.6,0.4h-7.3c-0.3,0-0.6-0.2-0.8-0.4c-0.1-0.2-0.2-0.4-0.2-0.6
	s0.1-0.5,0.2-0.7c0.2-0.2,0.4-0.4,0.7-0.4c0.6-0.1,1-0.2,1.1-0.2c0.2-0.1,0.3-0.2,0.4-0.3C13,23,13,22.8,13,22.6v-5.4
	c0-0.9,0-1.6-0.1-2.1c0-0.6-0.1-0.9-0.2-1l-0.3-0.3c-0.2-0.1-0.6-0.2-1.1-0.2c-0.3,0-0.6-0.2-0.7-0.5c-0.1-0.2-0.2-0.4-0.2-0.6
	s0.1-0.4,0.2-0.6c0.2-0.3,0.5-0.5,0.8-0.5c0.2,0,4.5-0.7,4.7-0.7c0.7,0,0.9,0.4,1.1,0.6c0.1,0.2,0.2,0.5,0.2,0.7v10.6
	c0,0.3,0.1,0.5,0.1,0.6l0.3,0.3c0.1,0.1,0.4,0.2,0.9,0.2c0.3,0.1,0.6,0.2,0.7,0.4c0.1,0.2,0.2,0.4,0.2,0.7
	C19.5,24.9,19.4,25.1,19.4,25.3L19.4,25.3z"/>
</svg>
