<?xml version="1.0" encoding="utf-8"?>
<!-- Generator: Adobe Illustrator 20.1.0, SVG Export Plug-In . SVG Version: 6.00 Build 0)  -->
<svg version="1.1" id="Layer_1" xmlns="http://www.w3.org/2000/svg" xmlns:xlink="http://www.w3.org/1999/xlink" x="0px" y="0px"
	 width="30px" height="30px" viewBox="0 0 30 30" enable-background="new 0 0 30 30" xml:space="preserve">
<g id="Layer_1_1_">
</g>
<g id="Layer_5" display="none">
	<rect x="-135.4" y="-1266.4" display="inline" fill="#333333" width="3016" height="1758"/>
</g>
<g id="Layer_4">
</g>
<g id="Layer_3">
</g>
<g id="Layer_2">
	<g>
		<path d="M9.8,0.1c0.3,0,0.6,0.1,0.8,0.4l10.3,12.8c0.8,1,0.8,2.5-0.1,3.4L10.4,29.4c-0.4,0.4-1,0.5-1.5,0.1
			c-0.4-0.4-0.5-1-0.1-1.5l10.5-12.7c0.2-0.2,0.2-0.5,0-0.7L9,1.7C8.6,1.3,8.7,0.6,9.2,0.2C9.4,0.1,9.6,0.1,9.8,0.1z"/>
	</g>
</g>
</svg>
