<?xml version="1.0" encoding="utf-8"?>
<!-- Generator: Adobe Illustrator 20.1.0, SVG Export Plug-In . SVG Version: 6.00 Build 0)  -->
<svg version="1.1" id="Layer_1" xmlns="http://www.w3.org/2000/svg" xmlns:xlink="http://www.w3.org/1999/xlink" x="0px" y="0px"
	 width="32px" height="32px" viewBox="0 0 32 32" enable-background="new 0 0 32 32" xml:space="preserve">
<path fill="#999999" d="M0.3,31.7L2,23.3l1.7-1.7l1.2,1.1l-1.5,1.5l-1.1,5.7l5.8-1l1.6-1.7l1.2,1.1l-2,2.1L0.3,31.7z M9.1,30.1
	l-6.9-6.9L23.5,1.8c2.1-1.9,5.2-2,7-0.2c1.9,1.9,1.9,5-0.2,7L9.1,30.1L9.1,30.1z M4.4,23.1l4.7,4.7L29.2,7.6
	c1.4-1.4,1.5-3.4,0.2-4.8c-1.3-1.3-3.3-1.2-4.8,0.2L4.4,23.1L4.4,23.1z"/>
</svg>
