<?xml version="1.0" encoding="utf-8"?>
<!-- Generator: Adobe Illustrator 20.1.0, SVG Export Plug-In . SVG Version: 6.00 Build 0)  -->
<svg version="1.1" id="Layer_1" xmlns="http://www.w3.org/2000/svg" xmlns:xlink="http://www.w3.org/1999/xlink" x="0px" y="0px"
	 width="9.9px" height="14.8px" viewBox="0 0 9.9 14.8" enable-background="new 0 0 9.9 14.8" xml:space="preserve">
<g id="Layer_2">
	<g>
		<path d="M5,14.8l-0.4-0.5C3.5,12.8,0,7.6,0,4.9C0,2.2,2.2,0,5,0s5,2.2,5,4.9c0,2.8-3.8,8.4-4.6,9.4L5,14.8z M5,0.5
			c-2.5,0-4.5,2-4.5,4.4c0,2.6,3.5,7.7,4.5,9.2l0,0C5.7,13,9.5,7.5,9.5,4.9C9.5,2.4,7.5,0.5,5,0.5z M4.9,6.4C4,6.4,3.3,5.6,3.3,4.7
			c0-0.9,0.8-1.6,1.7-1.6c0.9,0,1.7,0.7,1.7,1.6S5.9,6.4,4.9,6.4z M4.9,3.5c-0.7,0-1.2,0.5-1.2,1.2s0.5,1.2,1.2,1.2s1.2-0.5,1.2-1.2
			S5.6,3.5,4.9,3.5z"/>
	</g>
</g>
</svg>
