<?xml version="1.0" encoding="utf-8"?>
<!-- Generator: Adobe Illustrator 20.1.0, SVG Export Plug-In . SVG Version: 6.00 Build 0)  -->
<svg version="1.1" id="Layer_1" xmlns="http://www.w3.org/2000/svg" xmlns:xlink="http://www.w3.org/1999/xlink" x="0px" y="0px"
	 width="30px" height="30px" viewBox="0 0 30 30" enable-background="new 0 0 30 30" xml:space="preserve">
<g id="Layer_1_1_">
</g>
<g id="Layer_5" display="none">
	<rect x="-372.1" y="-831.6" display="inline" fill="#333333" width="3016" height="1758"/>
</g>
<g id="Layer_4">
</g>
<g id="Layer_3">
</g>
<path d="M15,0C6.7,0,0,6.7,0,15c0,8.3,6.7,15,15,15s15-6.7,15-15C30,6.7,23.3,0,15,0z M8.7,11.9H5.6v2h2.9v1.4H5.6v3.7H3.9v-8.6h4.8
	V11.9z M12.1,14c-0.1,0-0.3,0-0.4,0.1c-0.1,0-0.3,0.1-0.4,0.2c-0.1,0.1-0.2,0.2-0.3,0.4c-0.1,0.1-0.1,0.3-0.1,0.5v3.9H9.2v-6.5h1.6
	v0.9h0c0.2-0.3,0.4-0.6,0.6-0.8c0.2-0.2,0.5-0.3,0.9-0.3c0,0,0.1,0,0.1,0s0.1,0,0.1,0v1.6c-0.1,0-0.2,0-0.3,0
	C12.2,14,12.1,14,12.1,14z M14,19.1h-1.6v-1.9H14V19.1z M21,22.5l-5-6.8h3.1V5.5h3.7v10.2H26L21,22.5z"/>
</svg>
