<?xml version="1.0" encoding="utf-8"?>
<!-- Generator: Adobe Illustrator 20.1.0, SVG Export Plug-In . SVG Version: 6.00 Build 0)  -->
<svg version="1.1" id="Layer_1" xmlns="http://www.w3.org/2000/svg" xmlns:xlink="http://www.w3.org/1999/xlink" x="0px" y="0px"
	 width="30px" height="30px" viewBox="0 0 30 30" enable-background="new 0 0 30 30" xml:space="preserve">
<g id="Layer_1_1_">
</g>
<g id="Layer_5" display="none">
	<rect x="-292.8" y="-545.8" display="inline" fill="#333333" width="3016" height="1758"/>
</g>
<g id="Layer_4">
</g>
<g id="Layer_3">
</g>
<g id="Layer_2">
	<g>
		<g id="Sort_by_price_copy_9_">
			<g>
				<path fill="#999999" d="M22.2,2.5h-6.5c-0.4,0-0.7,0.3-0.7,0.7v13.1c0,0.4,0.3,0.7,0.7,0.7c0.4,0,0.7-0.3,0.7-0.7V9.6h3.2
					c0.4,0,0.7-0.3,0.7-0.7c0-0.4-0.3-0.7-0.7-0.7h-3.2V4h5.7c0.4,0,0.7-0.3,0.7-0.7C22.9,2.8,22.6,2.5,22.2,2.5z"/>
				<path fill="#999999" d="M29.3,9.2c0.2-0.3,0.1-0.8-0.3-1c-1.1-0.6-2.8-0.6-4,0.1c-0.1,0-0.1,0.1-0.2,0.1V7.6
					c0-0.4-0.3-0.7-0.7-0.7c-0.4,0-0.7,0.3-0.7,0.7v8.7c0,0.4,0.3,0.7,0.7,0.7c0.4,0,0.7-0.3,0.7-0.7v-5.2c0-0.7,0.3-1.2,0.9-1.5
					c0.8-0.5,2-0.4,2.6-0.1C28.7,9.6,29.1,9.5,29.3,9.2z"/>
				<circle fill="#999999" cx="28.7" cy="16.3" r="1.1"/>
			</g>
		</g>
		<path fill="#999999" d="M14.8,20c-0.3-0.3-0.8-0.3-1.1,0l-5.6,5.9V2.5c0-0.4-0.3-0.7-0.7-0.7S6.7,2.1,6.7,2.5v23.3l-5.1-5.7
			c-0.3-0.3-0.7-0.3-1.1-0.1c-0.3,0.3-0.3,0.8-0.1,1.1l6,6.7c0.3,0.3,0.6,0.5,1,0.5c0,0,0,0,0,0c0.4,0,0.7-0.2,1-0.4l6.4-6.7
			C15.1,20.8,15.1,20.3,14.8,20z"/>
	</g>
</g>
</svg>
