<?xml version="1.0" encoding="utf-8"?>
<!-- Generator: Adobe Illustrator 16.0.4, SVG Export Plug-In . SVG Version: 6.00 Build 0)  -->
<!DOCTYPE svg PUBLIC "-//W3C//DTD SVG 1.1//EN" "http://www.w3.org/Graphics/SVG/1.1/DTD/svg11.dtd">
<svg version="1.1" id="Layer_1" xmlns="http://www.w3.org/2000/svg" xmlns:xlink="http://www.w3.org/1999/xlink" x="0px" y="0px"
	 width="30px" height="30px" viewBox="0 0 30 30" style="enable-background:new 0 0 30 30;" xml:space="preserve">
<style type="text/css">
<![CDATA[
	.st0{display:inline;fill:#333333;}
	.st1{display:none;}
	.st2{fill:#A6A39C;}
]]>
</style>
<g id="Layer_1_1_">
</g>
<g id="Layer_5" class="st1">
	<rect x="-451.034" y="-831.636" class="st0" width="3016" height="1758"/>
</g>
<g id="Layer_4">
</g>
<g id="Layer_3">
</g>
<path class="st2" d="M15,0C6.729,0,0,6.729,0,15c0,8.271,6.729,15,15,15c8.271,0,15-6.729,15-15C30,6.729,23.271,0,15,0z
	 M8.701,11.916h-3.06v2.018h2.88v1.416h-2.88v3.718H3.913V10.5h4.788V11.916z M12.061,14.028c-0.144,0-0.288,0.021-0.432,0.06
	c-0.144,0.041-0.276,0.106-0.396,0.199c-0.12,0.092-0.216,0.211-0.288,0.359c-0.072,0.148-0.108,0.33-0.108,0.546v3.876H9.18v-6.457
	h1.585v0.863h0.024c0.168-0.312,0.372-0.562,0.612-0.75c0.24-0.188,0.532-0.282,0.876-0.282c0.048,0,0.098,0.003,0.15,0.007
	c0.052,0.004,0.103,0.01,0.15,0.018v1.584c-0.088-0.008-0.174-0.014-0.258-0.018C12.235,14.03,12.149,14.028,12.061,14.028z
	 M13.969,19.068h-1.584v-1.871h1.584V19.068z M22.881,12.322v10.172h-3.732V12.322h-3.149l5-6.82l5,6.82H22.881z"/>
</svg>
