<?xml version="1.0" encoding="utf-8"?>
<!-- Generator: Adobe Illustrator 20.1.0, SVG Export Plug-In . SVG Version: 6.00 Build 0)  -->
<svg version="1.1" id="Layer_1" xmlns="http://www.w3.org/2000/svg" xmlns:xlink="http://www.w3.org/1999/xlink" x="0px" y="0px"
	 width="30px" height="30px" viewBox="0 0 30 30" enable-background="new 0 0 30 30" xml:space="preserve">
<path fill="#999999" d="M29.7,12.3c-0.4-0.4-1-0.4-1.4,0l-2,2C25.9,7.4,20.2,1.8,13.2,1.8C5.9,1.8,0,7.7,0,15s5.9,13.2,13.2,13.2
	c2.4,0,4.7-0.6,6.7-1.8c0.5-0.3,0.6-0.9,0.4-1.4c-0.3-0.5-0.9-0.6-1.4-0.4c-1.7,1-3.7,1.5-5.7,1.5C7,26.1,2,21.1,2,15
	S7,3.9,13.2,3.9c5.9,0,10.8,4.7,11.1,10.5l-2.1-2.1c-0.4-0.4-1-0.4-1.4,0s-0.4,1,0,1.4l3.7,3.7c0.2,0.2,0.5,0.3,0.7,0.3
	c0.3,0,0.5-0.1,0.7-0.3l3.7-3.7C30.1,13.3,30.1,12.7,29.7,12.3z"/>
</svg>
