<?xml version="1.0" encoding="utf-8"?>
<!-- Generator: Adobe Illustrator 20.1.0, SVG Export Plug-In . SVG Version: 6.00 Build 0)  -->
<svg version="1.1" id="Layer_1" xmlns="http://www.w3.org/2000/svg" xmlns:xlink="http://www.w3.org/1999/xlink" x="0px" y="0px"
	 width="30px" height="30px" viewBox="0 0 30 30" enable-background="new 0 0 30 30" xml:space="preserve">
<g id="Layer_1_1_">
</g>
<g id="Layer_5" display="none">
	<rect x="-1183.1" y="-1506.3" display="inline" fill="#333333" width="3016" height="1758"/>
</g>
<g id="Layer_4">
</g>
<g id="Layer_3">
</g>
<path d="M28.8,23.9l-6.7-6.6c0.9-1.7,1.4-3.6,1.4-5.6C23.6,5.2,18.3,0,11.8,0S0.1,5.2,0.1,11.7s5.2,11.7,11.7,11.7
	c1.9,0,3.7-0.5,5.3-1.3l6.8,6.7c0.7,0.7,1.6,1,2.5,1c0.9,0,1.8-0.3,2.5-1C30.2,27.5,30.2,25.2,28.8,23.9z M11.8,20.3
	c-4.7,0-8.6-3.8-8.6-8.6s3.8-8.6,8.6-8.6s8.6,3.8,8.6,8.6S16.6,20.3,11.8,20.3z"/>
</svg>
