<?xml version="1.0" encoding="utf-8"?>
<!-- Generator: Adobe Illustrator 20.1.0, SVG Export Plug-In . SVG Version: 6.00 Build 0)  -->
<svg version="1.1" id="Layer_1" xmlns="http://www.w3.org/2000/svg" xmlns:xlink="http://www.w3.org/1999/xlink" x="0px" y="0px"
	 width="30px" height="30px" viewBox="0 0 30 30" enable-background="new 0 0 30 30" xml:space="preserve">
<g id="Layer_1_1_">
</g>
<g id="Layer_5" display="none">
	<rect x="-1183.1" y="-1506.3" display="inline" fill="#333333" width="3016" height="1758"/>
</g>
<g id="Layer_4">
</g>
<g id="Layer_3">
</g>
<path fill="#999999" d="M28.83,23.88l-6.691-6.583c0.9-1.659,1.411-3.559,1.411-5.579C23.551,5.246,18.305,0,11.834,0
	S0.117,5.246,0.117,11.717s5.246,11.717,11.717,11.717c1.9,0,3.689-0.462,5.276-1.265l6.81,6.701
	c0.682,0.671,1.568,1.005,2.455,1.005c0.905,0,1.81-0.349,2.495-1.045C30.226,27.452,30.208,25.236,28.83,23.88z M11.834,20.3
	c-4.74,0-8.583-3.843-8.583-8.583s3.843-8.583,8.583-8.583s8.583,3.843,8.583,8.583S16.574,20.3,11.834,20.3z"/>
</svg>
