<?xml version="1.0" encoding="utf-8"?>
<!-- Generator: Adobe Illustrator 20.1.0, SVG Export Plug-In . SVG Version: 6.00 Build 0)  -->
<svg version="1.1" id="Layer_1" xmlns="http://www.w3.org/2000/svg" xmlns:xlink="http://www.w3.org/1999/xlink" x="0px" y="0px"
	 width="30px" height="30px" viewBox="0 0 30 30" enable-background="new 0 0 30 30" xml:space="preserve">
<g id="Layer_1_1_">
</g>
<g id="Layer_5" display="none">
	<rect x="-1266.8" y="-1508" display="inline" fill="#333333" width="3016" height="1758"/>
</g>
<g id="Layer_4">
</g>
<g id="Layer_3">
</g>
<g id="Layer_2">
	<g>
		<g>
			<path d="M22.8,7.1c-0.2,0-0.4-0.1-0.6-0.2l-6.7-4.7c-0.3-0.2-0.8-0.2-1,0L7.7,6.8C7.3,7.1,6.7,7,6.4,6.6C6.1,6.1,6.2,5.5,6.6,5.2
				l6.8-4.6c0.9-0.6,2.3-0.6,3.3,0l6.7,4.7c0.4,0.3,0.5,0.9,0.2,1.4C23.4,6.9,23.1,7.1,22.8,7.1z"/>
		</g>
		<g>
			<path d="M15,29.9c-0.6,0-1.2-0.2-1.6-0.5l-6.7-4.7c-0.4-0.3-0.5-0.9-0.2-1.4c0.3-0.4,0.9-0.5,1.4-0.2l6.7,4.7
				c0.3,0.2,0.8,0.2,1,0l6.8-4.6c0.4-0.3,1.1-0.2,1.4,0.3c0.3,0.4,0.2,1.1-0.3,1.4l-6.8,4.6C16.2,29.7,15.6,29.9,15,29.9z"/>
		</g>
	</g>
</g>
</svg>
