<?xml version="1.0" encoding="utf-8"?>
<!-- Generator: Adobe Illustrator 20.1.0, SVG Export Plug-In . SVG Version: 6.00 Build 0)  -->
<svg version="1.1" id="Layer_1" xmlns="http://www.w3.org/2000/svg" xmlns:xlink="http://www.w3.org/1999/xlink" x="0px" y="0px"
	 viewBox="0 0 50 50" style="enable-background:new 0 0 50 50;" xml:space="preserve">
<style type="text/css">
	.st0{fill:#FFFFFF;}
	.st1{fill:#CCCCCC;}
	.st2{fill:url(#SVGID_1_);}
</style>
<g>
	<path class="st0" d="M25,49.5c-13.5,0-24.5-11-24.5-24.5c0-13.5,11-24.5,24.5-24.5c13.5,0,24.5,11,24.5,24.5
		C49.5,38.5,38.5,49.5,25,49.5z"/>
	<path class="st1" d="M25,1c13.2,0,24,10.8,24,24S38.2,49,25,49S1,38.2,1,25S11.8,1,25,1 M25,0C11.2,0,0,11.2,0,25s11.2,25,25,25
		s25-11.2,25-25S38.8,0,25,0L25,0z"/>
</g>
<linearGradient id="SVGID_1_" gradientUnits="userSpaceOnUse" x1="-48.6696" y1="100.7286" x2="-48.6696" y2="100.6096" gradientTransform="matrix(224 0 0 -225.72 10927 22748.7207)">
	<stop  offset="0" style="stop-color:#37C2F2"/>
	<stop  offset="1" style="stop-color:#416AB3"/>
</linearGradient>
<path class="st2" d="M15.5,35.1v5.4l5-2.9c1.4,0.4,2.9,0.6,4.4,0.6c8.3,0,15-6.3,15-14c0-7.7-6.7-14-15-14c-8.3,0-15,6.3-15,14
	C10,28.6,12.2,32.5,15.5,35.1L15.5,35.1z"/>
<path class="st0" d="M23.5,20.1l-8.1,8.6l7.4-4l3.8,4l8-8.6l-7.3,4C27.3,24.1,23.5,20.1,23.5,20.1z"/>
</svg>
