<?xml version="1.0" encoding="utf-8"?>
<!-- Generator: Adobe Illustrator 20.1.0, SVG Export Plug-In . SVG Version: 6.00 Build 0)  -->
<svg version="1.1" id="Layer_1" xmlns="http://www.w3.org/2000/svg" xmlns:xlink="http://www.w3.org/1999/xlink" x="0px" y="0px"
	 width="64px" height="64px" viewBox="0 0 64 64" style="enable-background:new 0 0 64 64;" xml:space="preserve">
<style type="text/css">
	.st0{display:none;}
	.st1{display:inline;fill:#333333;}
	.st2{fill:#24A300;}
</style>
<g id="Layer_1_1_">
</g>
<g id="Layer_5" class="st0">
	<rect x="-1248.4" y="-476.6" class="st1" width="3016" height="1758"/>
</g>
<g id="Layer_4">
</g>
<g id="Layer_3">
</g>
<path class="st2" d="M61.4-0.1H2.7C1.2-0.1,0,1.2,0,2.7V47c0,1.5,1.3,3,3,3h12L9.2,64.1l19.9-14.3h32.1c1.5,0,2.8-1.3,2.8-3V2.7
	C64.1,1.2,62.9-0.1,61.4-0.1z M14.7,32.4c-4.5,0-6.6-2.4-6.6-4.1c0-0.9,0.6-1.5,1.5-1.5c1.9,0,1.5,2.8,5.1,2.8c1.9,0,3-1.1,3-2.1
	c0-0.6-0.2-1.3-1.5-1.7l-4.1-1.1c-3.2-0.9-3.9-2.6-3.9-4.3c0-3.4,3.2-4.9,6.2-4.9c2.8,0,6.2,1.5,6.2,3.6c0,0.9-0.9,1.5-1.7,1.5
	c-1.7,0-1.3-2.4-4.7-2.4c-1.7,0-2.6,0.9-2.6,1.9c0,1.1,1.3,1.5,2.6,1.7l2.8,0.9c3.2,0.6,4.1,2.8,4.1,4.5
	C21.1,30.3,19,32.4,14.7,32.4z M40,30.5c0,0.9-0.4,1.7-1.5,1.7s-1.7-0.9-1.7-1.7v-9.6l0,0l-3.4,10.5c-0.2,0.6-0.9,1.1-1.5,1.1
	c-0.6,0-1.3-0.2-1.5-1.1l-3.4-10.5l0,0v9.8c0,0.9-0.4,1.7-1.5,1.7c-1.1,0-1.7-0.9-1.7-1.7V17.9c0-1.5,1.1-1.7,1.9-1.7h1.1
	c1.1,0,1.7,0.4,1.9,1.7l3.2,10.1l0,0l3-10.1c0.4-1.3,0.9-1.7,1.9-1.7h1.1c1.1,0,1.9,0.4,1.9,1.7v12.6H40z M49.2,32.4
	c-4.5,0-6.6-2.4-6.6-4.1c0-0.9,0.6-1.5,1.5-1.5c1.9,0,1.5,2.8,5.1,2.8c1.9,0,3-1.1,3-2.1c0-0.6-0.2-1.3-1.5-1.7l-4.1-1.1
	c-3.2-0.9-3.9-2.6-3.9-4.3c0-3.4,3.2-4.9,6.2-4.9c2.8,0,6.2,1.5,6.2,3.6c0,0.9-0.9,1.5-1.7,1.5c-1.7,0-1.3-2.4-4.7-2.4
	c-1.7,0-2.6,0.9-2.6,1.9c0,1.1,1.3,1.5,2.6,1.7l3,0.6c3.2,0.6,4.1,2.8,4.1,4.5C55.8,30.3,53.7,32.4,49.2,32.4z"/>
</svg>
