<?xml version="1.0" encoding="utf-8"?>
<!-- Generator: Adobe Illustrator 20.1.0, SVG Export Plug-In . SVG Version: 6.00 Build 0)  -->
<svg version="1.1" id="Layer_1" xmlns="http://www.w3.org/2000/svg" xmlns:xlink="http://www.w3.org/1999/xlink" x="0px" y="0px"
	 width="30px" height="30px" viewBox="0 0 30 30" enable-background="new 0 0 30 30" xml:space="preserve">
<g id="Layer_1_1_">
</g>
<g id="Layer_5" display="none">
	<rect x="-1265.4" y="-493.6" display="inline" fill="#333333" width="3016" height="1758"/>
</g>
<g id="Layer_4">
</g>
<g id="Layer_3">
</g>
<g id="Layer_2">
	<path d="M28.7,0H1.3C0.6,0,0,0.6,0,1.3V22c0,0.7,0.6,1.4,1.4,1.4H7L4.3,30l9.3-6.7h15c0.7,0,1.3-0.6,1.3-1.4V1.3
		C30,0.6,29.4,0,28.7,0z M9.6,14.2c-0.2,0.4-0.6,0.7-1.1,0.9c-0.5,0.2-1,0.3-1.7,0.3c-0.8,0-1.4-0.1-1.9-0.4
		c-0.4-0.2-0.6-0.5-0.9-0.8c-0.2-0.4-0.3-0.7-0.3-1c0-0.2,0.1-0.4,0.2-0.5c0.1-0.1,0.3-0.2,0.5-0.2c0.2,0,0.3,0.1,0.4,0.2
		C5,12.7,5.1,12.8,5.2,13c0.1,0.2,0.2,0.5,0.3,0.6C5.6,13.8,5.8,14,6,14.1c0.2,0.1,0.5,0.2,0.8,0.2c0.5,0,0.8-0.1,1.1-0.3
		c0.3-0.2,0.4-0.5,0.4-0.8c0-0.3-0.1-0.5-0.2-0.6c-0.2-0.2-0.4-0.3-0.6-0.4c-0.2-0.1-0.6-0.2-1-0.3c-0.6-0.1-1-0.3-1.4-0.5
		c-0.4-0.2-0.7-0.4-0.9-0.7C4,10.4,3.9,10,3.9,9.5c0-0.4,0.1-0.8,0.4-1.1c0.2-0.3,0.6-0.6,1-0.8c0.4-0.2,1-0.3,1.6-0.3
		c0.5,0,0.9,0.1,1.2,0.2C8.4,7.7,8.7,7.8,8.9,8c0.2,0.2,0.4,0.4,0.5,0.6c0.1,0.2,0.2,0.4,0.2,0.6c0,0.2-0.1,0.4-0.2,0.5
		C9.2,9.9,9.1,10,8.9,10c-0.2,0-0.3,0-0.4-0.1C8.4,9.8,8.3,9.6,8.2,9.4C8,9.1,7.9,8.9,7.7,8.7c-0.2-0.2-0.5-0.2-1-0.2
		c-0.4,0-0.7,0.1-1,0.3C5.5,8.9,5.3,9.1,5.3,9.4c0,0.2,0,0.3,0.1,0.4c0.1,0.1,0.2,0.2,0.3,0.3c0.1,0.1,0.3,0.1,0.5,0.2
		c0.2,0,0.4,0.1,0.8,0.2c0.4,0.1,0.8,0.2,1.2,0.3c0.4,0.1,0.7,0.3,0.9,0.4c0.2,0.2,0.4,0.4,0.6,0.7c0.1,0.3,0.2,0.6,0.2,1
		C9.9,13.4,9.8,13.8,9.6,14.2z M18.6,14.5c0,0.3,0,0.5-0.2,0.7c-0.1,0.1-0.3,0.2-0.5,0.2c-0.2,0-0.4-0.1-0.5-0.2
		c-0.1-0.1-0.2-0.4-0.2-0.7V9.1L16,14.1c-0.1,0.3-0.1,0.6-0.2,0.7c-0.1,0.1-0.1,0.3-0.3,0.4c-0.1,0.1-0.3,0.2-0.6,0.2
		c-0.2,0-0.3,0-0.5-0.1c-0.1-0.1-0.2-0.2-0.3-0.3c-0.1-0.1-0.1-0.3-0.2-0.4s-0.1-0.3-0.1-0.5l-1.2-4.9v5.4c0,0.3-0.1,0.5-0.2,0.7
		c-0.1,0.1-0.3,0.2-0.5,0.2c-0.2,0-0.4-0.1-0.5-0.2c-0.1-0.1-0.2-0.4-0.2-0.7V8.4c0-0.3,0.1-0.6,0.3-0.7c0.2-0.1,0.4-0.2,0.7-0.2
		h0.5c0.3,0,0.5,0,0.6,0.1c0.1,0.1,0.2,0.1,0.3,0.3c0.1,0.1,0.1,0.4,0.2,0.7l1.1,4.3l1.1-4.3c0.1-0.3,0.2-0.5,0.2-0.7
		c0.1-0.1,0.2-0.2,0.3-0.3c0.1-0.1,0.3-0.1,0.6-0.1h0.5c0.3,0,0.5,0.1,0.7,0.2c0.2,0.1,0.2,0.3,0.2,0.7L18.6,14.5
		C18.6,14.5,18.6,14.5,18.6,14.5z M25.8,14.2c-0.2,0.4-0.6,0.7-1.1,0.9s-1,0.3-1.7,0.3c-0.8,0-1.4-0.1-1.9-0.4
		c-0.4-0.2-0.6-0.5-0.9-0.8c-0.2-0.4-0.3-0.7-0.3-1c0-0.2,0.1-0.4,0.2-0.5c0.1-0.1,0.3-0.2,0.5-0.2c0.2,0,0.3,0.1,0.4,0.2
		c0.1,0.1,0.2,0.3,0.3,0.5c0.1,0.2,0.2,0.5,0.3,0.6c0.1,0.2,0.3,0.3,0.5,0.4c0.2,0.1,0.5,0.2,0.8,0.2c0.5,0,0.8-0.1,1.1-0.3
		c0.3-0.2,0.4-0.5,0.4-0.8c0-0.3-0.1-0.5-0.2-0.6c-0.2-0.2-0.4-0.3-0.6-0.4c-0.2-0.1-0.6-0.2-1-0.3c-0.6-0.1-1-0.3-1.4-0.5
		c-0.4-0.2-0.7-0.4-0.9-0.7c-0.2-0.3-0.3-0.7-0.3-1.1c0-0.4,0.1-0.8,0.4-1.1c0.2-0.3,0.6-0.6,1-0.8c0.4-0.2,1-0.3,1.6-0.3
		c0.5,0,0.9,0.1,1.2,0.2C24.7,7.7,25,7.8,25.2,8c0.2,0.2,0.4,0.4,0.5,0.6c0.1,0.2,0.2,0.4,0.2,0.6c0,0.2-0.1,0.4-0.2,0.5
		c-0.1,0.1-0.3,0.2-0.5,0.2c-0.2,0-0.3,0-0.4-0.1c-0.1-0.1-0.2-0.2-0.3-0.4c-0.1-0.3-0.3-0.5-0.5-0.7c-0.2-0.2-0.5-0.2-1-0.2
		c-0.4,0-0.7,0.1-1,0.3c-0.2,0.2-0.4,0.4-0.4,0.6c0,0.2,0,0.3,0.1,0.4c0.1,0.1,0.2,0.2,0.4,0.3c0.1,0.1,0.3,0.1,0.5,0.2
		c0.2,0,0.4,0.1,0.8,0.2c0.4,0.1,0.8,0.2,1.2,0.3s0.7,0.3,0.9,0.4c0.2,0.2,0.4,0.4,0.6,0.7c0.1,0.3,0.2,0.6,0.2,1
		C26.2,13.4,26.1,13.8,25.8,14.2z"/>
</g>
</svg>
