<?xml version="1.0" encoding="utf-8"?>
<!-- Generator: Adobe Illustrator 16.0.4, SVG Export Plug-In . SVG Version: 6.00 Build 0)  -->
<!DOCTYPE svg PUBLIC "-//W3C//DTD SVG 1.1//EN" "http://www.w3.org/Graphics/SVG/1.1/DTD/svg11.dtd" [
	<!ENTITY ns_extend "http://ns.adobe.com/Extensibility/1.0/">
	<!ENTITY ns_ai "http://ns.adobe.com/AdobeIllustrator/10.0/">
	<!ENTITY ns_graphs "http://ns.adobe.com/Graphs/1.0/">
	<!ENTITY ns_vars "http://ns.adobe.com/Variables/1.0/">
	<!ENTITY ns_imrep "http://ns.adobe.com/ImageReplacement/1.0/">
	<!ENTITY ns_sfw "http://ns.adobe.com/SaveForWeb/1.0/">
	<!ENTITY ns_custom "http://ns.adobe.com/GenericCustomNamespace/1.0/">
	<!ENTITY ns_adobe_xpath "http://ns.adobe.com/XPath/1.0/">
]>
<svg version="1.1" id="Layer_1" xmlns:x="&ns_extend;" xmlns:i="&ns_ai;" xmlns:graph="&ns_graphs;"
	 xmlns="http://www.w3.org/2000/svg" xmlns:xlink="http://www.w3.org/1999/xlink" x="0px" y="0px" width="35px" height="30px"
	 viewBox="0 0 35 30" enable-background="new 0 0 35 30" xml:space="preserve">
<metadata>
	<sfw  xmlns="&ns_sfw;">
		<slices></slices>
		<sliceSourceBounds  bottomLeftOrigin="true" width="29.52" height="26.499" x="281.25" y="196.751"></sliceSourceBounds>
	</sfw>
</metadata>
<g id="Sort_by_price_copy">
	<g>
		<path fill="#999999" d="M23.186,2H16.72C16.322,2,16,2.322,16,2.72v13.112c0,0.398,0.322,0.721,0.72,0.721
			c0.397,0,0.721-0.322,0.721-0.721V9.08h3.184c0.398,0,0.721-0.323,0.721-0.72c0-0.398-0.322-0.721-0.721-0.721h-3.184V3.441h5.745
			c0.396,0,0.719-0.323,0.719-0.721C23.904,2.322,23.582,2,23.186,2z"/>
		<path fill="#999999" d="M30.314,8.665c0.197-0.346,0.074-0.785-0.272-0.981c-1.118-0.631-2.796-0.58-3.993,0.115
			c-0.061,0.035-0.104,0.085-0.16,0.123V7.107c0-0.398-0.322-0.72-0.721-0.72s-0.721,0.322-0.721,0.72v8.727
			c0,0.398,0.322,0.721,0.721,0.721c0.396,0,0.721-0.322,0.721-0.721v-5.24c0-0.685,0.299-1.206,0.887-1.551
			c0.847-0.492,1.967-0.44,2.561-0.104C29.682,9.134,30.121,9.011,30.314,8.665z"/>
		<circle fill="#999999" cx="29.689" cy="15.833" r="1.081"/>
	</g>
</g>
<g id="Layer_1_1_">
	<g>
		<path fill="none" stroke="#999999" stroke-width="1.5" stroke-linecap="round" stroke-miterlimit="10" d="M2,20.085l6.004,6.7
			c0.25,0.281,0.67,0.285,0.928,0.014l6.357-6.714"/>
		
			<line fill="none" stroke="#999999" stroke-width="1.5" stroke-linecap="round" stroke-miterlimit="10" x1="8.423" y1="2" x2="8.423" y2="26.868"/>
	</g>
</g>
</svg>
