<?xml version="1.0" encoding="utf-8"?>
<!-- Generator: Adobe Illustrator 20.1.0, SVG Export Plug-In . SVG Version: 6.00 Build 0)  -->
<svg version="1.1" id="Layer_1" xmlns="http://www.w3.org/2000/svg" xmlns:xlink="http://www.w3.org/1999/xlink" x="0px" y="0px"
	 width="20px" height="20px" viewBox="0 0 20 20" enable-background="new 0 0 20 20" xml:space="preserve">
<path fill="#999999" d="M10,0.2c-5.4,0-9.8,4.4-9.8,9.8s4.4,9.8,9.8,9.8s9.8-4.4,9.8-9.8S15.4,0.2,10,0.2z M14.9,7.6l-6.5,6.3
	c-0.3,0.3-0.9,0.2-1.1-0.1l-2.7-3.1c-0.3-0.3-0.2-0.8,0.1-1C5,9.4,5.5,9.5,5.8,9.8l2.1,2.6l5.9-5.9c0.3-0.3,0.8-0.3,1.1,0
	C15.2,6.8,15.2,7.3,14.9,7.6z"/>
</svg>
