<?xml version="1.0" encoding="utf-8"?>
<!-- Generator: Adobe Illustrator 20.1.0, SVG Export Plug-In . SVG Version: 6.00 Build 0)  -->
<svg version="1.1" id="Layer_1" xmlns="http://www.w3.org/2000/svg" xmlns:xlink="http://www.w3.org/1999/xlink" x="0px" y="0px"
	 width="19px" height="18.3px" viewBox="0 0 19 18.3" enable-background="new 0 0 19 18.3" xml:space="preserve">
<g id="Layer_1_1_">
</g>
<g id="Layer_5" display="none">
	<rect x="-451.4" y="-466.5" display="inline" fill="#333333" width="3016" height="1758"/>
</g>
<g id="Layer_4">
</g>
<g id="Layer_3">
</g>
<g id="Layer_2">
	<g>
		<g>
			<path d="M10.6,11H5.5V5.8h5.1V11z M6.7,9.8h2.8V7H6.7V9.8z"/>
		</g>
		<g>
			<path d="M23.9,9H12c-0.3,0-0.6-0.3-0.6-0.6s0.3-0.6,0.6-0.6h11.9c0.3,0,0.6,0.3,0.6,0.6C24.5,8.7,24.2,9,23.9,9z"/>
		</g>
		<g>
			<path d="M10.6,17.6H5.5v-5.1h5.1V17.6z M6.7,16.4h2.8v-2.8H6.7V16.4z"/>
		</g>
		<g>
			<path d="M23.9,15.6H12c-0.3,0-0.6-0.3-0.6-0.6c0-0.3,0.3-0.6,0.6-0.6h11.9c0.3,0,0.6,0.3,0.6,0.6S24.2,15.6,23.9,15.6z"/>
		</g>
		<g>
			<path d="M10.6,24.2H5.5V19h5.1V24.2z M6.7,23h2.8v-2.8H6.7V23z"/>
		</g>
		<g>
			<path d="M23.9,22.2H12c-0.3,0-0.6-0.3-0.6-0.6c0-0.3,0.3-0.6,0.6-0.6h11.9c0.3,0,0.6,0.3,0.6,0.6C24.5,21.9,24.2,22.2,23.9,22.2z
				"/>
		</g>
	</g>
</g>
</svg>
