<?xml version="1.0" encoding="utf-8"?>
<!-- Generator: Adobe Illustrator 20.1.0, SVG Export Plug-In . SVG Version: 6.00 Build 0)  -->
<svg version="1.1" id="Layer_1" xmlns="http://www.w3.org/2000/svg" xmlns:xlink="http://www.w3.org/1999/xlink" x="0px" y="0px"
	 width="19px" height="18.3px" viewBox="0 0 19 18.3" enable-background="new 0 0 19 18.3" xml:space="preserve">
<g id="Layer_1_1_">
</g>
<g id="Layer_5" display="none">
	<rect x="-451.4" y="-466.5" display="inline" fill="#333333" width="3016" height="1758"/>
</g>
<g id="Layer_4">
</g>
<g id="Layer_3">
</g>
<g id="Layer_2">
	<g>
		<g>
			<path d="M5.1,5.1H0v-5.2h5.1V5.1z M1.2,3.9H4V1.1H1.2V3.9z"/>
		</g>
		<g>
			<path d="M18.4,3.1H6.5c-0.3,0-0.6-0.3-0.6-0.6s0.3-0.6,0.6-0.6h11.9c0.3,0,0.6,0.3,0.6,0.6S18.7,3.1,18.4,3.1z"/>
		</g>
		<g>
			<path d="M5.1,11.8H0V6.6h5.1V11.8z M1.2,10.5H4V7.7H1.2V10.5z"/>
		</g>
		<g>
			<path d="M18.4,9.8H6.5c-0.3,0-0.6-0.3-0.6-0.6c0-0.3,0.3-0.6,0.6-0.6h11.9c0.3,0,0.6,0.3,0.6,0.6C19,9.4,18.7,9.8,18.4,9.8z"/>
		</g>
		<g>
			<path d="M5.1,18.4H0v-5.2h5.1V18.4z M1.2,17.1H4v-2.8H1.2V17.1z"/>
		</g>
		<g>
			<path d="M18.4,16.4H6.5c-0.3,0-0.6-0.3-0.6-0.6c0-0.3,0.3-0.6,0.6-0.6h11.9c0.3,0,0.6,0.3,0.6,0.6C19,16,18.7,16.4,18.4,16.4z"/>
		</g>
	</g>
</g>
</svg>
