<?xml version="1.0" encoding="utf-8"?>
<!-- Generator: Adobe Illustrator 20.1.0, SVG Export Plug-In . SVG Version: 6.00 Build 0)  -->
<svg version="1.1" id="Layer_1" xmlns="http://www.w3.org/2000/svg" xmlns:xlink="http://www.w3.org/1999/xlink" x="0px" y="0px"
	 width="19px" height="16.5px" viewBox="0 0 19 16.5" enable-background="new 0 0 19 16.5" xml:space="preserve">
<g id="Layer_1_1_">
</g>
<g id="Layer_5" display="none">
	<rect x="-530.3" y="-466.5" display="inline" fill="#333333" width="3016" height="1758"/>
</g>
<g id="Layer_4">
</g>
<g id="Layer_3">
</g>
<g id="Layer_2">
	<g>
		<g>
			<path d="M24.5,23.2h-19v-5h19V23.2z M6.7,22h16.6v-2.6H6.7V22z"/>
		</g>
		<g>
			<path d="M24.5,23.2h-19V6.8h19V23.2z M6.7,22h16.6V8H6.7V22z"/>
		</g>
		<g>
			<path d="M8.2,17.6c-0.1,0-0.2,0-0.3-0.1c-0.2-0.2-0.2-0.4-0.1-0.6l2.1-2.5c0.2-0.2,0.4-0.2,0.6-0.1c0.2,0.2,0.2,0.4,0.1,0.6
				l-2.1,2.5C8.5,17.5,8.3,17.6,8.2,17.6z"/>
		</g>
		<g>
			<path d="M13.4,17.3c-0.1,0-0.2,0-0.3-0.1l-3-2.3c-0.2-0.1-0.2-0.4-0.1-0.6c0.1-0.2,0.4-0.2,0.6-0.1l3,2.3
				c0.2,0.1,0.2,0.4,0.1,0.6C13.6,17.3,13.5,17.3,13.4,17.3z"/>
		</g>
		<g>
			<path d="M13.4,17.3c-0.1,0-0.2,0-0.3-0.1c-0.2-0.2-0.2-0.4-0.1-0.6l4.2-5.1c0.2-0.2,0.4-0.2,0.6-0.1c0.2,0.2,0.2,0.4,0.1,0.6
				l-4.2,5.1C13.6,17.3,13.5,17.3,13.4,17.3z"/>
		</g>
		<g>
			<path d="M22.3,17.6c-0.1,0-0.2-0.1-0.3-0.1L17.3,12c-0.2-0.2-0.1-0.5,0-0.6c0.2-0.2,0.5-0.1,0.6,0l4.7,5.4c0.2,0.2,0.1,0.5,0,0.6
				C22.5,17.5,22.4,17.6,22.3,17.6z"/>
		</g>
		<g>
			<path d="M11.7,12.8c-1,0-1.8-0.8-1.8-1.8s0.8-1.8,1.8-1.8c1,0,1.8,0.8,1.8,1.8S12.7,12.8,11.7,12.8z M11.7,10.1
				c-0.5,0-0.9,0.4-0.9,0.9c0,0.5,0.4,0.9,0.9,0.9c0.5,0,0.9-0.4,0.9-0.9C12.6,10.5,12.2,10.1,11.7,10.1z"/>
		</g>
	</g>
</g>
</svg>
