<?xml version="1.0" encoding="utf-8"?>
<!-- Generator: Adobe Illustrator 20.1.0, SVG Export Plug-In . SVG Version: 6.00 Build 0)  -->
<svg version="1.1" id="Layer_1" xmlns="http://www.w3.org/2000/svg" xmlns:xlink="http://www.w3.org/1999/xlink" x="0px" y="0px"
	 width="19px" height="16.455px" viewBox="5.5 6.773 19 16.455" enable-background="new 5.5 6.773 19 16.455" xml:space="preserve">
<g id="Layer_1_1_">
</g>
<g id="Layer_5" display="none">
	<rect x="-530.333" y="-466.52" display="inline" fill="#333333" width="3016" height="1758"/>
</g>
<g id="Layer_4">
</g>
<g id="Layer_3">
</g>
<g id="Layer_2">
	<g>
		<g>
			<path fill="#999999" d="M24.5,23.228h-19v-5.004h19V23.228z M6.688,22.04h16.625v-2.629H6.688V22.04z"/>
		</g>
		<g>
			<path fill="#999999" d="M24.5,23.228h-19V6.773h19V23.228z M6.688,22.04h16.625V7.96H6.688V22.04z"/>
		</g>
		<g>
			<path fill="#999999" d="M8.214,17.551c-0.101,0-0.202-0.033-0.285-0.103c-0.188-0.158-0.214-0.438-0.057-0.627l2.12-2.545
				c0.157-0.188,0.438-0.216,0.627-0.057c0.189,0.158,0.215,0.438,0.057,0.627l-2.12,2.544C8.469,17.496,8.342,17.551,8.214,17.551z
				"/>
		</g>
		<g>
			<path fill="#999999" d="M13.383,17.339c-0.094,0-0.189-0.029-0.27-0.093l-3.048-2.332c-0.196-0.15-0.232-0.43-0.083-0.624
				c0.149-0.196,0.429-0.234,0.624-0.083l3.048,2.334c0.196,0.148,0.232,0.43,0.083,0.623C13.65,17.278,13.518,17.339,13.383,17.339
				z"/>
		</g>
		<g>
			<path fill="#999999" d="M13.383,17.339c-0.099,0-0.199-0.033-0.282-0.101c-0.19-0.156-0.218-0.436-0.062-0.627l4.215-5.142
				c0.155-0.19,0.436-0.218,0.626-0.062c0.19,0.156,0.219,0.437,0.062,0.627l-4.214,5.142C13.64,17.283,13.512,17.339,13.383,17.339
				z"/>
		</g>
		<g>
			<path fill="#999999" d="M22.316,17.551c-0.123,0-0.246-0.051-0.335-0.15l-4.717-5.354c-0.163-0.184-0.145-0.465,0.04-0.628
				c0.185-0.163,0.466-0.145,0.628,0.04l4.718,5.353c0.162,0.185,0.146,0.467-0.039,0.629C22.525,17.515,22.42,17.551,22.316,17.551
				z"/>
		</g>
		<g>
			<path fill="#999999" d="M11.714,12.821c-1.006,0-1.824-0.818-1.824-1.824c0-1.006,0.818-1.824,1.824-1.824
				c1.005,0,1.823,0.818,1.823,1.824C13.537,12.003,12.719,12.821,11.714,12.821z M11.714,10.064c-0.515,0-0.934,0.418-0.934,0.934
				c0,0.515,0.418,0.933,0.934,0.933c0.515,0,0.933-0.418,0.933-0.933C12.646,10.482,12.229,10.064,11.714,10.064z"/>
		</g>
	</g>
</g>
</svg>
