<?xml version="1.0" encoding="utf-8"?>
<!-- Generator: Adobe Illustrator 20.1.0, SVG Export Plug-In . SVG Version: 6.00 Build 0)  -->
<svg version="1.1" id="Layer_1" xmlns:sketch="http://www.bohemiancoding.com/sketch/ns"
	 xmlns="http://www.w3.org/2000/svg" xmlns:xlink="http://www.w3.org/1999/xlink" x="0px" y="0px" width="20px" height="20px"
	 viewBox="0 0 20 20" style="enable-background:new 0 0 20 20;" xml:space="preserve">
<title></title>
<g>
	<path d="M17.7,18.6H2.3c-1,0-1.7-0.4-2.1-1s-0.3-1.5,0.2-2.3l8-12.9c0.4-0.7,1-1,1.6-1l0,0c0.6,0,1.2,0.4,1.6,1l7.9,12.8
		c0.5,0.8,0.6,1.7,0.2,2.3C19.4,18.2,18.7,18.6,17.7,18.6z M10,2.5C9.8,2.5,9.5,2.7,9.3,3L1.4,15.8C1.1,16.3,1,16.7,1.2,17
		s0.6,0.5,1.2,0.5h15.4c0.6,0,1-0.2,1.2-0.5s0.1-0.7-0.2-1.2L10.7,3C10.5,2.7,10.2,2.5,10,2.5z"/>
</g>
<path d="M11,15.2c0,0.5-0.3,0.8-0.8,0.8H9.8C9.2,16,9,15.7,9,15.2v-0.4C9,14.3,9.3,14,9.8,14h0.4c0.6,0,0.8,0.3,0.8,0.9V15.2z
	 M10.8,11.6c0,0.5-0.1,1-0.8,1s-0.8-0.5-0.8-1L9,7.2c0-0.4,0-0.7,0.2-0.9c0.1-0.1,0.3-0.2,0.6-0.2h0.7c0.2,0,0.4,0,0.5,0.2
	c0.2,0.2,0.2,0.5,0.2,0.9L10.8,11.6z"/>
</svg>
