<svg version="1" xmlns="http://www.w3.org/2000/svg" width="933.333" height="933.333" viewBox="0 0 700 700"><path d="M186.5 1.5C154.6 7.4 126.4 30 114 59.6 111.1 66.7 5.5 459.2 1.8 477c-2.5 12.1-2.1 30.5 1.1 42.3 7.9 30 29.5 54.5 57.9 65.9 6.1 2.4 124.3 35 124.9 34.4.1-.1-1.7-4.2-4.1-9.2-7-14.3-11.5-30.6-15.3-55.4-1.5-10.5-1.7-26.4-2-182.5-.3-168.1-.3-171.1 1.6-174.2 1.6-2.5 3-3.3 7.3-4.2 12.7-2.6 79.4-13.1 82.8-13.1 2.7 0 4.8.8 6.9 2.6l3.1 2.6V289l60.5.2 60.5.3 2.7 2.8 2.8 2.7v76.2l-3.3 2.9-3.2 2.9H266v75.7c0 80.8.4 88.6 5 102.5 3.9 11.4 9.1 17.8 18.5 22.5 16.5 8.3 49.6 6.4 82.8-4.8 4.9-1.6 10.3-2.9 12.1-2.9 4.2 0 8.1 3 9.5 7.3 2.6 8.1 14.1 67.4 13.6 70.3-.3 1.7-1.5 4-2.8 5.1-2.2 2-18.5 8.4-30 11.7-13 3.8-15.3 2.7 32.8 15.7 77.9 21.1 69.8 19.3 87.5 19.4 13.1 0 16.8-.4 24-2.3 30.2-8.2 55.2-30.3 65.9-58.2 3.2-8.2 110.2-402 113.2-416.5 9.3-44.7-15.7-91.5-58.1-108.4-8.4-3.3-410.9-111.4-421-113-8.6-1.4-23.8-1.2-32.5.4z"/></svg>