<svg xmlns="http://www.w3.org/2000/svg" viewBox="0 0 160 160"><g transform="translate(659 492)"><linearGradient id="a" gradientUnits="userSpaceOnUse" x1="-2520.465" y1="-508.28" x2="-2518.85" y2="-509.43" gradientTransform="matrix(83.9 0 0 -83.8 210827.594 -43048.441)"><stop offset=".001" stop-color="#595a5c"/><stop offset="1" stop-color="#101010"/></linearGradient><path d="M-579.1-492c-44.1 0-79.9 35.9-79.9 80 0 44.9 34.7 80 79 80 44.8 0 81-35.9 81-80s-35.9-80-80.1-80zm-70.4 80c0-38.8 31.5-70.5 70.4-70.5 17.7 0 33.9 6.5 46.3 17.4l-23.3 23.3-21.2-21.2c-3.6-3.6-9.3-3.6-12.8 0l-.2.2c-3.6 3.6-3.6 9.4 0 12.8l1.1 1.1c-.4 10.5-2.3 18.3-10.1 26.2l-14.5 14.5c-3.8 3.8-4.4 9.9-1.1 14.3l-1.7 1.7c-3.6 3.6-4.4 9-2.5 13.4l-13.3 13.4c-10.6-12.2-17.1-28.5-17.1-46.6zm47.9 31.5l-1.7 1.7c-1.1 1.1-2.7 1.7-4.2 1.9l4.8-4.8 1.1 1.2zm-11.1-7.4c0-.2 0-.2 0 0l1.7-1.7 1.5 1.5-5.1 5.2c0-2 .6-3.7 1.9-5zm23.5-20.7l-16.4 16.4-4.2-4.2c-2.3-2.1-2.9-5.3-.8-7.6.2-.2.4-.4.8-.2l12.4-12.4 8.2 8zm-4.2-12c6.5-7.3 8.8-14.5 9.7-23.1l14.9 14.9-16.4 16.4-8.2-8.2zm11.1 18.7l7.8 7.8-12.4 12.4c-2.3 2.3-5.7 2.3-8 0l-3.8-3.8 16.4-16.4zm11.6 11.7l18.5 18.5c1.1 1.1.8 3.2-.6 4.6-1.3 1.3-3.4 1.7-4.6.6l-18.5-18.5 5.2-5.2zm-7.8-15.5l16.4-16.4 14.5 14.5c-8.6.8-15.8 3.2-23.1 9.7l-7.8-7.8zm20.2-20.2l5.1-5.2 20.8 20.8c1.3 1.3 1.3 3.6 0 5.2l-.2.2c-1.3 1.3-3.6 1.3-5.1 0l-20.6-21zm-6.7-6.9l-21.2-21.2c-1.3-1.3-1.3-3.6 0-5.2l.2-.2c1.3-1.3 3.6-1.3 5.1 0l21.2 21.2-5.3 5.4zm-15 91.3c-17.5 0-33.4-6.3-45.6-17l13.5-13.6c4.2 1.5 9.3.6 12.8-2.9l1.7-1.7c4.4 3.2 10.5 2.9 14.3-1.1l3.4-3.4 18.5 18.5c1.5 1.5 3.4 2.3 5.5 2.3 5-.2 9.2-4 9.5-9 .2-2.3-.6-4.6-2.3-6.3l-18.3-18.5c7.2-6.5 14.5-8 24.4-8.4l1.1 1.1c3.6 3.6 9.3 3.6 12.8 0l.2-.2c3.6-3.6 3.6-9.4 0-12.8l-20.8-20.8 23.3-23.3c10.9 12.4 17.5 28.6 17.5 46.2 0 39.2-32.1 70.9-71.5 70.9z" fill="url(#a)"/><linearGradient id="b" gradientUnits="userSpaceOnUse" x1="-2537.909" y1="-311.394" x2="-2519.089" y2="-342.485" gradientTransform="matrix(7.2 0 0 -3.1 17660.596 -1458.124)"><stop offset=".001" stop-color="#595a5c"/><stop offset="1" stop-color="#101010"/></linearGradient><path d="M-526.7-437.6l-8 .4c-1.5 0-2.7 1.3-2.7 2.9 0 1.5 1.3 2.7 2.9 2.7h.2l8-.4c1.5 0 2.7-1.3 2.7-2.9-.2-1.5-1.5-2.7-3.1-2.7z" fill="url(#b)"/><linearGradient id="c" gradientUnits="userSpaceOnUse" x1="-2557.506" y1="-427.635" x2="-2513.819" y2="-441.202" gradientTransform="matrix(3.1 0 0 -7.1 7319.644 -3533.99)"><stop offset=".001" stop-color="#595a5c"/><stop offset="1" stop-color="#101010"/></linearGradient><path d="M-557.2-454.2c1.5 0 2.9-1.1 2.9-2.7l.4-8c0-1.5-1.1-2.9-2.7-2.9-1.5 0-2.9 1.1-2.9 2.7l-.4 8c.1 1.6 1.2 2.9 2.7 2.9z" fill="url(#c)"/></g></svg>