<svg xmlns="http://www.w3.org/2000/svg" viewBox="0 0 160 160"><linearGradient id="a" gradientUnits="userSpaceOnUse" x1="18.395" y1="54.524" x2="19.38" y2="104.755"><stop offset=".001" stop-color="#595a5c"/><stop offset="1" stop-color="#101010"/></linearGradient><path d="M34.1 68.8c0 1.5-.3 3-.9 4.4-.7 1.8-1.7 3.5-2.9 5.2-1.1 1.5-2.4 3-3.8 4.4-1.4 1.4-2.8 2.7-4.2 4-.7.7-1.5 1.4-2.3 2.2-.8.8-1.6 1.7-2.4 2.5-.8.8-1.4 1.6-2 2.4-.6.7 0 1.8.9 1.8h17.2c1 0 1.8.8 1.8 1.8v5.2c0 1-.8 1.8-1.8 1.8h-29c-1 0-1.8-.8-1.8-1.8v-1.9c0-2.3.4-4.3 1.1-6.2.7-1.9 1.7-3.6 2.9-5.2s2.5-3.1 4-4.5 2.9-2.8 4.4-4.2c1.1-1.1 2.2-2.1 3.2-3.1s1.9-1.9 2.6-2.8c.8-.9 1.3-1.8 1.8-2.7.4-.9.6-1.8.6-2.8 0-2.1-.6-3.5-1.8-4.4-1.2-.8-2.6-1.3-4.4-1.3-1.3 0-2.5.2-3.6.6-1.1.4-2.1.9-3 1.4-.9.5-1.7 1.1-2.4 1.6-.8.7-2 .5-2.6-.3l-3.1-4.3c-.5-.9-.4-2 .4-2.6 1.8-1.4 3.7-2.6 5.9-3.6 2.7-1.2 5.7-1.9 8.8-1.9 2.9 0 5.3.3 7.4 1 2.1.7 3.8 1.6 5.1 2.8s2.3 2.7 3 4.4c.7 1.8 1 3.8.9 6.1z" fill="url(#a)"/><linearGradient id="b" gradientUnits="userSpaceOnUse" x1="52.719" y1="54.548" x2="53.717" y2="105.452"><stop offset=".001" stop-color="#595a5c"/><stop offset="1" stop-color="#101010"/></linearGradient><path d="M70.8 80c0 8.2-1.6 14.5-4.7 18.9-3.1 4.4-7.4 6.6-12.9 6.6s-9.8-2.2-12.9-6.6c-3.1-4.4-4.7-10.7-4.7-18.9 0-4.1.4-7.7 1.2-10.8.8-3.1 2-5.8 3.6-8 1.5-2.2 3.4-3.8 5.6-4.9 2.2-1.1 4.6-1.7 7.3-1.7 5.5 0 9.8 2.2 12.9 6.6 3.1 4.3 4.6 10.6 4.6 18.8zm-10.7 0c0-2.4-.1-4.7-.4-6.7-.2-2-.6-3.7-1.1-5.2-.5-1.5-1.2-2.6-2.1-3.4-.9-.8-2-1.2-3.3-1.2-1.3 0-2.4.4-3.3 1.2-.9.8-1.6 1.9-2.1 3.4s-.9 3.2-1.2 5.2c-.2 2-.4 4.2-.4 6.7 0 2.4.1 4.7.4 6.7.2 2 .6 3.8 1.2 5.2.5 1.5 1.2 2.6 2.1 3.4.9.8 2 1.2 3.3 1.2 1.3 0 2.4-.4 3.3-1.2.9-.8 1.6-1.9 2.1-3.4s.9-3.2 1.1-5.2c.3-2.1.4-4.3.4-6.7z" fill="url(#b)"/><linearGradient id="c" gradientUnits="userSpaceOnUse" x1="89.719" y1="54.548" x2="90.717" y2="105.452"><stop offset=".001" stop-color="#595a5c"/><stop offset="1" stop-color="#101010"/></linearGradient><path d="M107.8 80c0 8.2-1.6 14.5-4.7 18.9-3.1 4.4-7.4 6.6-12.9 6.6s-9.8-2.2-12.9-6.6c-3.1-4.4-4.7-10.7-4.7-18.9 0-4.1.4-7.7 1.2-10.8.8-3.1 2-5.8 3.6-8 1.5-2.2 3.4-3.8 5.6-4.9 2.2-1.1 4.6-1.7 7.3-1.7 5.5 0 9.8 2.2 12.9 6.6 3.1 4.3 4.6 10.6 4.6 18.8zm-10.7 0c0-2.4-.1-4.7-.4-6.7-.2-2-.6-3.7-1.1-5.2-.5-1.5-1.2-2.6-2.1-3.4-.9-.8-2-1.2-3.3-1.2s-2.4.4-3.3 1.2c-.9.8-1.6 1.9-2.1 3.4s-.9 3.2-1.2 5.2c-.2 2-.4 4.2-.4 6.7 0 2.4.1 4.7.4 6.7.2 2 .6 3.8 1.2 5.2.5 1.5 1.2 2.6 2.1 3.4.9.8 2 1.2 3.3 1.2s2.4-.4 3.3-1.2c.9-.8 1.6-1.9 2.1-3.4s.9-3.2 1.1-5.2c.3-2.1.4-4.3.4-6.7z" fill="url(#c)"/><linearGradient id="d" gradientUnits="userSpaceOnUse" x1="133.846" y1="54.438" x2="134.815" y2="103.859"><stop offset=".001" stop-color="#595a5c"/><stop offset="1" stop-color="#101010"/></linearGradient><path d="M112 72.9h14.6c.6 0 1-.5 1-1V55.6c0-.6.5-1 1-1h11.5c.6 0 1 .5 1 1V72c0 .6.5 1 1 1h14.6c.6 0 1 .5 1 1v10.4c0 .6-.5 1-1 1h-14.6c-.6 0-1 .5-1 1v16.4c0 .6-.5 1-1 1h-11.5c-.6 0-1-.5-1-1V86.4c0-.6-.5-1-1-1H112c-.6 0-1-.5-1-1V74c0-.6.4-1.1 1-1.1z" fill="url(#d)"/></svg>