<svg xmlns="http://www.w3.org/2000/svg" viewBox="0 0 160 160"><linearGradient id="a" gradientUnits="userSpaceOnUse" x1="-968.991" y1="-24.123" x2="-968.079" y2="-25.446" gradientTransform="matrix(81.1 0 0 -92.075 78628.422 -2202.066)"><stop offset=".001" stop-color="#58595b"/><stop offset="1" stop-color="#0e0e0e"/></linearGradient><path d="M80.3 160c-1.6 0-3.1-.3-4.5-1.2l-61.3-35.4c-3-1.7-4.7-4.7-4.7-8V44.6c0-3.3 1.7-6.3 4.7-8L75.8 1.2c3-1.6 6.4-1.6 9 0l61.3 35.4c2.8 1.6 4.5 4.7 4.5 8v70.7c0 3.3-1.7 6.3-4.5 8l-61.3 35.4c-1.2.8-3 1.3-4.5 1.3zm.2-151.4h-.3L18.8 44.1l-.3.3v70.7c0 .2.2.3.3.5L80.1 151h.5l61.3-35.4c.2 0 .2-.2.2-.3V44.6c0-.2-.2-.3-.2-.3L80.5 8.6z" fill="url(#a)"/><linearGradient id="b" gradientUnits="userSpaceOnUse" x1="27.233" y1="80" x2="134.966" y2="80"><stop offset=".001" stop-color="#58595b"/><stop offset="1" stop-color="#0e0e0e"/></linearGradient><path d="M34 100.8h-6.8v-42h16.9c7.7 0 13.5 5.3 13.5 13s-5.3 13-13.5 13H34v16zm0-22.2h9.7c4.3 0 6.8-2.4 6.8-6.8 0-3.9-2.9-6.8-6.8-6.8H34v13.6zm58.5 22.2h-8.2l-10.2-16h-6.3v15.9h-7.2v-42h16.9c8.2 0 13.5 5.3 13.5 13 0 7.2-4.8 11.1-9.7 12.6l11.2 16.5zM67.3 78.6H77c4.3 0 7.2-2.9 7.2-6.8S81.3 65 77 65h-9.7v13.6zm46.9 23.1c-12.1 0-20.8-9.2-20.8-21.7s8.7-21.7 20.8-21.7S135 67.4 135 80s-8.7 21.7-20.8 21.7zm0-37.2c-8.2 0-13.5 6.3-13.5 15.5s5.3 15.5 13.5 15.5 13.5-6.3 13.5-15.5-5.3-15.5-13.5-15.5z" fill="url(#b)"/></svg>