<svg xmlns="http://www.w3.org/2000/svg" viewBox="0 0 160 160"><linearGradient id="a" gradientUnits="userSpaceOnUse" x1="53.14" y1="34.07" x2="99.766" y2="139.374"><stop offset=".001" stop-color="#58595b"/><stop offset="1" stop-color="#0e0e0e"/></linearGradient><path d="M93.4 70.6c0-8.9-6.1-15-15.5-15H58.4V104h8.3V85.7h7.2l11.7 18.4H95l-12.9-19c5.8-1.7 11.3-6.2 11.3-14.5zm-27.3 7.9V62.9h11.2c4.9 0 8.3 3.3 8.3 7.8s-3.3 7.8-8.3 7.8H66.1z" fill="url(#a)"/><linearGradient id="b" gradientUnits="userSpaceOnUse" x1="58.584" y1="31.66" x2="105.209" y2="136.963"><stop offset=".001" stop-color="#58595b"/><stop offset="1" stop-color="#0e0e0e"/></linearGradient><path d="M143.7 25.4L52.3.9C50.4.4 48.5.2 46.7.2c-9.8 0-18.9 6.5-21.5 16.4L.7 107.7c-3.1 11.7 3.9 23.8 15.6 27l91.2 24.7c1.9.5 3.8.7 5.6.7 9.7 0 18.8-6.5 21.4-16.3l24.8-91.5c3-11.7-4-23.8-15.6-26.9zm5.9 24.4l-6.4 23.6c-2.6-10.9-11.5-18.2-23.1-18.2-13.9 0-23.9 10.6-23.9 25s10 25 23.9 25c6.4 0 12-2.2 16.2-6.1l-11.4 42.2c-1.4 5.2-6.2 8.9-11.7 8.9-1 0-2-.1-3-.4L19 125.1c-6.4-1.8-10.3-8.4-8.6-14.8L20 74.5v29.6h7.8V85.7h11.6c9.4 0 15.5-6.1 15.5-15s-6.7-15-15.5-15H25l9.8-36.6c1.4-5.3 6.3-9 11.9-9 1 0 2.1.1 3.1.4L141.2 35c6.3 1.7 10.1 8.4 8.4 14.8zm-14 30.4c0 10.6-6.1 17.8-15.5 17.8s-15.5-7.2-15.5-17.8 6.1-17.8 15.5-17.8 15.5 7.2 15.5 17.8zM27.8 78.5V62.9H39c4.5 0 7.8 3.3 7.8 7.8 0 5.1-2.9 7.8-7.8 7.8H27.8z" fill="url(#b)"/></svg>