<svg width="199" height="225" xmlns="http://www.w3.org/2000/svg"><defs><linearGradient x1="21.337%" y1="14.926%" x2="79.42%" y2="86.783%" id="a"><stop stop-color="#58595B" offset=".1%"/><stop stop-color="#0E0E0E" offset="100%"/></linearGradient></defs><g fill="none"><path d="M194.477 53.804L102.515 1.13a6.857 6.857 0 0 0-7.538 0L3.015 53.804C1.508 54.557 0 56.814 0 59.824v105.352c0 2.257 1.508 5.267 3.769 6.02L95.73 223.87a6.857 6.857 0 0 0 7.538 0l91.962-52.675c2.261-1.505 3.769-3.763 3.769-6.02V59.824c-1.508-3.01-2.261-5.267-4.523-6.02z" fill="url(#a)"/><path d="M99 61L44 91.777h14.542V154H89.12v-26.431h19.762V154h30.577V91.777H154z" fill="#FFF"/></g></svg>