<svg xmlns="http://www.w3.org/2000/svg" viewBox="0 0 160 160"><linearGradient id="a" gradientUnits="userSpaceOnUse" x1="10.149" y1="-881.32" x2="147.85" y2="-881.32" gradientTransform="translate(0 974.233)"><stop offset=".001" stop-color="#595a5c"/><stop offset="1" stop-color="#101010"/></linearGradient><path d="M15.2 158.7c-1.4 0-2.6-.6-3.7-1.6-2-2-1.8-5.3.2-7.1L139.3 28.5c2-2 5.3-1.8 7.1.2 2 2 1.8 5.3-.2 7.1L18.7 157.3c-1 .8-2.3 1.4-3.5 1.4z" fill="url(#a)"/><g transform="translate(420 681)"><linearGradient id="b" gradientUnits="userSpaceOnUse" x1="-1239.681" y1="-1623.06" x2="-1140.442" y2="-1523.822" gradientTransform="translate(840 974.233)"><stop offset=".001" stop-color="#595a5c"/><stop offset="1" stop-color="#101010"/></linearGradient><path d="M-399-549.6l6.5-6.1c-2-1.2-3.7-3.4-3.7-5.9 0-3.7 3-6.7 6.7-6.7h9.9l9.1-8.5h-12.2l4.9-9.7c.2-.6.4-1.2.4-1.6l2.4-40.4c1.6-19.9 15.8-34.5 34.1-34.5 15.6 0 28.6 11 32.6 26.8l6.9-6.7c-5.1-14.2-16.2-24.3-30-27.8-1.4-6.5-5.1-10.3-9.7-10.3-4.7 0-8.1 4.1-9.7 10.3-18 4.3-31.4 20.3-33.1 41.2l-2.4 39.7-6.3 13.4c-6.9 1.4-12.6 7.5-12.6 15 .5 4.9 2.7 9 6.2 11.8zm58.4-122.3s.2.2 0 0c.2.2 0 .2 0 0 0 .2 0 .2 0 0 0 .2 0 0 0 0z" fill="url(#b)"/><linearGradient id="c" gradientUnits="userSpaceOnUse" x1="-1242.428" y1="-1620.313" x2="-1143.19" y2="-1521.075" gradientTransform="translate(840 974.233)"><stop offset=".001" stop-color="#595a5c"/><stop offset="1" stop-color="#101010"/></linearGradient><path d="M-288.9-576.4l-6.9-13.6-1.4-22.7-8.1 7.7 1 16.2c0 .6.2 1.2.4 1.6l5.1 10.3h-36.3l-9.1 8.5h52.1a6.7 6.7 0 0 1 0 13.4h-66.1l-9.1 8.5h7.1v6.3c0 10.5 8.5 19.1 19.1 19.1s19.1-8.5 19.1-19.1v-6.3h29.8c8.3 0 15.4-6.9 15.4-15.4.5-7-5-13.2-12.1-14.5zm-41.2 36.5c0 5.9-4.7 10.5-10.5 10.5-5.9 0-10.5-4.7-10.5-10.5v-6.3h20.9l.1 6.3z" fill="url(#c)"/></g></svg>