<svg xmlns="http://www.w3.org/2000/svg" viewBox="0 0 160 160"><linearGradient id="a" gradientUnits="userSpaceOnUse" x1="-543.524" y1="154.619" x2="-542.359" y2="131.341" gradientTransform="matrix(89.9 0 0 -4.5 48872.117 744.753)"><stop offset=".001" stop-color="#595a5c"/><stop offset="1" stop-color="#101010"/></linearGradient><path d="M91.3 117v1.6c0 .9-.7 1.6-1.6 1.6H70.5c-.9 0-1.6-.7-1.6-1.6V117H0v3.2s0 4.8 4.8 4.8h150.4c4.8 0 4.8-4.8 4.8-4.8V117H91.3z" fill="url(#a)"/><linearGradient id="b" gradientUnits="userSpaceOnUse" x1="-543.727" y1="-5.032" x2="-542.193" y2="-7.456" gradientTransform="matrix(68.3 0 0 -43.2 37169.11 -191.769)"><stop offset=".001" stop-color="#595a5c"/><stop offset="1" stop-color="#101010"/></linearGradient><path d="M136.3 35H24.4c-2.7 0-4.8 2.1-4.8 4.8v67.3c0 2.7 2.1 4.8 4.8 4.8h111.9c2.7 0 4.8-2.1 4.8-4.8V39.8c0-2.7-2.1-4.8-4.8-4.8zm-1.6 70.3H26V41.2h108.7v64.1z" fill="url(#b)"/><linearGradient id="c" gradientUnits="userSpaceOnUse" x1="40.529" y1="-900.729" x2="66.503" y2="-900.729" gradientTransform="translate(0 974.233)"><stop offset=".001" stop-color="#595a5c"/><stop offset="1" stop-color="#101010"/></linearGradient><path d="M43.4 63.3l3.9 16.6L52 63.3h3l4.6 16.6 3.9-16.6h3l-5.3 20.5h-2.8l-4.6-16.9L49 83.8h-2.8l-5.3-20.5h2.5z" fill="url(#c)"/><linearGradient id="d" gradientUnits="userSpaceOnUse" x1="67.407" y1="-900.729" x2="93.38" y2="-900.729" gradientTransform="translate(0 974.233)"><stop offset=".001" stop-color="#595a5c"/><stop offset="1" stop-color="#101010"/></linearGradient><path d="M70.3 63.3l3.9 16.6 4.6-16.6h3l4.6 16.6 3.9-16.6h3L88 83.8h-2.8l-4.6-16.9-4.8 16.9H73l-5.3-20.5h2.6z" fill="url(#d)"/><linearGradient id="e" gradientUnits="userSpaceOnUse" x1="94.284" y1="-900.729" x2="120.257" y2="-900.729" gradientTransform="translate(0 974.233)"><stop offset=".001" stop-color="#595a5c"/><stop offset="1" stop-color="#101010"/></linearGradient><path d="M97.2 63.3l3.9 16.6 4.6-16.6h3l4.6 16.6 3.9-16.6h3L115 83.7h-2.8l-4.6-16.9-4.8 16.9H100l-5.3-20.5h2.5z" fill="url(#e)"/></svg>