<svg xmlns="http://www.w3.org/2000/svg" viewBox="0 0 199 225"><linearGradient id="a" gradientUnits="userSpaceOnUse" x1="5.716" y1="89.245" x2="199.39" y2="139.148"><stop offset=".001" stop-color="#58595b"/><stop offset="1" stop-color="#0e0e0e"/></linearGradient><path d="M186.8 51.6l-133.2-35c-8.9-2.2-18.6 3-20.8 11.9L19.6 79.2l-5 19.1-14.6 56c-2.2 8.9 3 18.6 11.9 20.8l36.8 9.7v-71.1H31.2l66.3-38.4 66.3 38.4h-17.5v77.7h-36.9v-33H85.6v33H73.5l71.6 18.8c8.9 2.2 18.6-3 20.8-11.9l16.1-61.9 7-26.8 9.6-37c3-9.8-2.2-18.8-11.8-21z" fill="url(#a)"/><path fill="#fff" d="M85.6 158.3h23.8v33h36.9v-77.7h17.5L97.5 75.2l-66.3 38.4h17.5v71.2l24.8 6.5h12.1z"/></svg>