<svg xmlns="http://www.w3.org/2000/svg" viewBox="0 0 160 160"><g transform="translate(158 12)"><linearGradient id="a" gradientUnits="userSpaceOnUse" x1="-1011.848" y1="-34.327" x2="-1009.984" y2="-34.327" gradientTransform="matrix(85.9877 0 0 -65.2 86848.18 -2173.13)"><stop offset=".006" stop-color="#ffcd0a"/><stop offset="1" stop-color="#f07b29"/></linearGradient><path d="M-1 69.1c-1.5-1.9-3.9-4.7-6.9-8l6-10.8c1.3-2.4.4-5.4-2-6.7-2.4-1.3-5.4-.4-6.7 2l-4.5 8.4c-3.7-3.2-8-6.3-12.8-9.7l5.8-14.9c.9-2.6-.4-5.4-2.8-6.3-2.4-.9-5.4.4-6.3 2.8l-5.2 13.4c-4.3-2.2-8.9-4.1-13.8-5.6l3.7-17.9c.6-2.6-1.1-5.2-3.9-6-2.6-.6-5.2 1.1-6 3.9l-3.7 17.5c-4.1-.9-8.2-1.3-12.8-1.7V9.2c0-2.6-2.2-4.8-4.8-4.8s-4.8 2.2-4.8 4.8v20.5c-4.5.2-8.7.9-12.8 1.5l-3.5-17.3c-.6-2.6-3.2-4.5-5.8-3.9-2.6.6-4.5 3.2-3.9 6l3.7 17.9c-4.8 1.5-9.7 3.3-13.8 5.6l-5.2-13.4c-.9-2.6-3.9-3.7-6.3-2.8-2.6.9-3.7 3.9-2.8 6.3l5.8 14.7c-4.8 3-9.1 6.3-12.8 9.5l-4.5-8.2c-1.3-2.4-4.3-3.2-6.7-2-2.4 1.3-3.2 4.3-2 6.7l5.8 10.4c-3.2 3.3-5.8 6.1-7.3 8.2-4.1 5.2-4.1 12.5 0 17.7 7.1 9.1 33.1 38.7 75.7 39.3h2.2C-34.1 125.3-8 95.8-1 86.6c4-5 4-12.3 0-17.5zm-146.1 11.5c-1.3-1.7-1.3-4.1 0-5.6 4.1-5.4 14.5-17.1 30.5-25.9-6 8-9.5 17.9-9.5 28.5s3.5 20.5 9.5 28.5c-16.2-8.2-26.4-20.1-30.5-25.5zm70.3 35.6H-79c-20.5-.7-37-17.5-37-38.1S-99.6 40.5-79.2 40h2.6c20.5.7 36.8 17.5 36.8 38.1s-16.5 37.5-37 38.1zm68.1-35.6c-4.1 5.4-14.5 17.1-30.5 25.9 6-8 9.5-17.9 9.5-28.5s-3.5-20.5-9.5-28.5c16 8.6 26.4 20.5 30.5 25.9 1.1 1.3 1.1 3.6 0 5.2z" fill="url(#a)"/><linearGradient id="b" gradientUnits="userSpaceOnUse" x1="-1000.173" y1="-32.698" x2="-998.316" y2="-32.698" gradientTransform="matrix(25.4 0 0 -25.4 25302.871 -752.687)"><stop offset=".006" stop-color="#ffcd0a"/><stop offset="1" stop-color="#f07b29"/></linearGradient><path d="M-77.9 54.2c-3.2 0-6.1.7-9.1 1.9 2.8 1.5 4.7 4.7 4.7 8 0 5.2-4.3 9.3-9.3 9.3-3.5 0-6.5-1.9-8-4.7-1.1 2.8-1.9 6-1.9 9.1 0 13 10.6 23.6 23.6 23.6s23.6-10.6 23.6-23.6-10.8-23.6-23.6-23.6z" fill="url(#b)"/></g></svg>