<svg xmlns="http://www.w3.org/2000/svg" viewBox="0 0 30 30"><linearGradient id="a" gradientUnits="userSpaceOnUse" y1="10.9" x2="30" y2="10.9"><stop offset=".001" stop-color="#595a5c"/><stop offset="1" stop-color="#101010"/></linearGradient><path d="M19.9 16.9c-.3 0-.5-.1-.7-.3-.4-.4-.4-1.1 0-1.5 1.1-1.1 1.7-2.6 1.7-4.2s-.6-3.1-1.7-4.2c-.4-.4-.4-1.1 0-1.5s1.1-.4 1.5 0c1.5 1.5 2.3 3.5 2.3 5.6s-.8 4.1-2.3 5.6c-.3.4-.5.5-.8.5zm5 4.9c-.3 0-.5-.1-.7-.3-.4-.4-.4-1.1 0-1.5 2.4-2.4 3.8-5.7 3.8-9.1s-1.3-6.7-3.8-9.1c-.4-.4-.4-1.1 0-1.5s1.1-.4 1.5 0C28.4 3.1 30 6.9 30 10.9s-1.6 7.8-4.4 10.6c-.2.2-.5.3-.7.3zm-19.8 0c-.3 0-.5-.1-.7-.3C1.6 18.7 0 14.9 0 10.9S1.6 3.1 4.4.3c.4-.4 1.1-.4 1.5 0s.4 1.1 0 1.5c-2.4 2.4-3.8 5.7-3.8 9.1 0 3.5 1.3 6.7 3.8 9.1.4.4.4 1.1 0 1.5-.2.2-.5.3-.8.3zm5-4.9c-.3 0-.5-.1-.7-.3C7.8 15 7 13 7 10.9s.8-4.1 2.3-5.6c.4-.4 1.1-.4 1.5 0s.4 1.1 0 1.5C9.7 7.9 9.1 9.4 9.1 11s.6 3.1 1.7 4.2c.4.4.4 1.1 0 1.5-.2.1-.4.2-.7.2z" fill="url(#a)"/><path d="M17.2 11c0-1.2-1-2.2-2.2-2.2s-2.2 1-2.2 2.2c0 .9.5 1.6 1.2 1.9V30h2V12.9c.7-.4 1.2-1.1 1.2-1.9z" fill="#999"/></svg>