<svg xmlns="http://www.w3.org/2000/svg" viewBox="0 0 160 160"><linearGradient id="a" gradientUnits="userSpaceOnUse" x1="41.011" y1="-962.007" x2="175.422" y2="-827.595" gradientTransform="translate(0 974.233)"><stop offset=".001" stop-color="#595a5c"/><stop offset="1" stop-color="#101010"/></linearGradient><path d="M154.3 25.8l-8.6 8.6C130.9 13.2 106.5.1 80.1.1 38.5.1 4.4 31.4.5 72.9.2 76.5 3 79.8 6.4 80h.5c3.5 0 6.4-2.7 6.7-6.2 3.2-34.5 31.6-60.4 66.3-60.4 22.7 0 43.9 11.8 56 30.6l-10.4 10.4c-2.2 2.2-.5 5.7 2.5 5.7h28.6c1.7 0 3.5-1.5 3.5-3.5V28c-.1-2.7-3.6-4.2-5.8-2.2z" fill="url(#a)"/><linearGradient id="b" gradientUnits="userSpaceOnUse" x1="12.258" y1="-933.254" x2="146.67" y2="-798.843" gradientTransform="translate(0 974.233)"><stop offset=".001" stop-color="#595a5c"/><stop offset="1" stop-color="#101010"/></linearGradient><path d="M153.6 80c-3.7-.2-6.9 2.5-7.1 5.9-3.2 34.5-31.6 60.4-66.3 60.4-22.7 0-43.9-11.8-56-30.6l10.4-10.4c2.2-2.2.5-5.7-2.5-5.7H3.5c-1.7 0-3.5 1.5-3.5 3.5v28.6c0 3 3.7 4.4 5.7 2.5l8.6-8.6c14.8 21.2 39.4 34.3 65.6 34.3 41.7 0 75.7-31.3 79.6-72.7.5-3.5-2.2-6.7-5.9-7.2z" fill="url(#b)"/></svg>