<?xml version="1.0" encoding="utf-8"?>
<!-- Generator: Adobe Illustrator 16.0.4, SVG Export Plug-In . SVG Version: 6.00 Build 0)  -->
<!DOCTYPE svg PUBLIC "-//W3C//DTD SVG 1.1//EN" "http://www.w3.org/Graphics/SVG/1.1/DTD/svg11.dtd" [
	<!ENTITY ns_extend "http://ns.adobe.com/Extensibility/1.0/">
	<!ENTITY ns_ai "http://ns.adobe.com/AdobeIllustrator/10.0/">
	<!ENTITY ns_graphs "http://ns.adobe.com/Graphs/1.0/">
	<!ENTITY ns_vars "http://ns.adobe.com/Variables/1.0/">
	<!ENTITY ns_imrep "http://ns.adobe.com/ImageReplacement/1.0/">
	<!ENTITY ns_sfw "http://ns.adobe.com/SaveForWeb/1.0/">
	<!ENTITY ns_custom "http://ns.adobe.com/GenericCustomNamespace/1.0/">
	<!ENTITY ns_adobe_xpath "http://ns.adobe.com/XPath/1.0/">
]>
<svg version="1.1" id="Layer_1" xmlns:x="&ns_extend;" xmlns:i="&ns_ai;" xmlns:graph="&ns_graphs;"
	 xmlns="http://www.w3.org/2000/svg" xmlns:xlink="http://www.w3.org/1999/xlink" x="0px" y="0px" width="35px" height="35px"
	 viewBox="0 0 35 35" enable-background="new 0 0 35 35" xml:space="preserve">
<metadata>
	<sfw  xmlns="&ns_sfw;">
		<slices></slices>
		<sliceSourceBounds  bottomLeftOrigin="true" width="37.5" height="37.471" x="277.5" y="192.029"></sliceSourceBounds>
	</sfw>
</metadata>
<g id="Ebene_2_1_" display="none">
	<circle display="inline" fill="#40CFFF" cx="15" cy="15" r="17.5"/>
</g>
<g id="Ebene_1">
	<g id="Ebene_2">
	</g>
	<g id="Ebene_1_1_">
		<g>
			<path fill="#FFFFFF" d="M0.125,17.5v0.012V17.5z"/>
			<path fill="#2CB75E" d="M0.125,17.512C0.132,27.135,7.908,34.938,17.5,34.938c9.596,0,17.375-7.809,17.375-17.438H0.125V17.512z"
				/>
			<path fill="#FFFFFF" d="M17.5,0.062c-9.579,0-17.346,7.78-17.373,17.389h34.745C34.848,7.842,27.081,0.062,17.5,0.062z"/>
			<polygon fill="#FFFFFF" points="0.125,17.488 0.125,17.5 0.125,17.5 			"/>
			<path fill="#FFFFFF" d="M0.125,17.452v0.037C0.125,17.476,0.126,17.464,0.125,17.452L0.125,17.452z"/>
			<path fill="#FFFFFF" d="M34.872,17.452c0,0.018,0.003,0.033,0.003,0.049v-0.049H34.872z"/>
			<path fill="#FFFFFF" d="M0.127,17.452c0,0.013-0.002,0.024-0.002,0.037V17.5h34.75c0-0.016-0.003-0.031-0.003-0.049L0.127,17.452
				L0.127,17.452z"/>
		</g>
		<g>
			<path fill="#FFD730" stroke="#0D0E0F" stroke-width="0.0588" d="M10.062,8.14c0,0.059,0.039,0.099,0.112,0.118
				c0.078,0.022,0.203,0.031,0.376,0.031h0.16c0.07,0,0.13-0.007,0.183-0.022c0.054-0.017,0.098-0.045,0.137-0.08
				c0.041-0.038,0.076-0.087,0.108-0.146c0.032-0.059,0.064-0.129,0.096-0.211c0.006-0.025,0.028-0.036,0.062-0.036
				c0.014,0,0.031,0.003,0.052,0.013c0.02,0.008,0.039,0.018,0.059,0.024c-0.024,0.092-0.044,0.192-0.062,0.302
				c-0.018,0.105-0.034,0.211-0.048,0.315c-0.002,0.036-0.013,0.056-0.027,0.064c-0.016,0.009-0.032,0.013-0.049,0.013
				c-0.023,0-0.056,0-0.095-0.004c-0.041-0.001-0.085-0.003-0.133-0.007c-0.047-0.001-0.096-0.003-0.145-0.007
				C10.8,8.505,10.756,8.504,10.72,8.504H9.764c-0.083,0-0.176,0.002-0.28,0.007c-0.105,0.003-0.2,0.01-0.285,0.015
				C9.193,8.514,9.191,8.5,9.191,8.48c0-0.019,0-0.032,0-0.042c0-0.042,0.014-0.065,0.043-0.067C9.34,8.348,9.416,8.329,9.462,8.305
				c0.047-0.022,0.071-0.062,0.071-0.119V6.028c0-0.03-0.003-0.053-0.008-0.072S9.508,5.92,9.49,5.907
				C9.474,5.892,9.448,5.881,9.412,5.871C9.375,5.86,9.33,5.85,9.27,5.842C9.242,5.834,9.227,5.809,9.227,5.769
				c0-0.009,0-0.022,0-0.04c0-0.017,0.003-0.033,0.008-0.046c0.09,0.006,0.186,0.011,0.287,0.015
				c0.102,0.003,0.191,0.005,0.269,0.005c0.039,0,0.084,0,0.137,0c0.05-0.002,0.102-0.003,0.156-0.004
				c0.056-0.003,0.111-0.003,0.165-0.008c0.056-0.001,0.105-0.006,0.149-0.008c0.003,0.014,0.005,0.031,0.006,0.047
				c0.002,0.017,0.003,0.031,0.003,0.039c0,0.04-0.014,0.066-0.043,0.073c-0.12,0.018-0.2,0.04-0.242,0.067
				c-0.04,0.026-0.062,0.069-0.062,0.127V8.14H10.062z"/>
			<path fill="#FFD730" stroke="#0D0E0F" stroke-width="0.0588" d="M12.417,8.187c0,0.028,0.001,0.051,0.006,0.07
				c0.002,0.02,0.015,0.036,0.033,0.05c0.019,0.015,0.045,0.028,0.08,0.038c0.036,0.01,0.083,0.019,0.143,0.028
				c0.027,0.005,0.042,0.03,0.042,0.073c0,0.008,0,0.021-0.002,0.039c-0.002,0.018-0.003,0.03-0.007,0.042
				c-0.089-0.004-0.186-0.011-0.288-0.015c-0.104-0.004-0.192-0.007-0.273-0.007c-0.082,0-0.173,0.002-0.274,0.007
				c-0.101,0.003-0.196,0.01-0.286,0.015c-0.007-0.012-0.009-0.026-0.009-0.042c0-0.018,0-0.031,0-0.039
				c0-0.045,0.015-0.07,0.043-0.073c0.058-0.01,0.105-0.018,0.142-0.028c0.035-0.009,0.06-0.022,0.077-0.038
				c0.017-0.014,0.027-0.03,0.033-0.049c0.005-0.02,0.01-0.042,0.01-0.07v-2.16c0-0.03-0.004-0.053-0.01-0.072
				c-0.005-0.018-0.017-0.035-0.033-0.048c-0.017-0.016-0.042-0.026-0.078-0.037C11.73,5.86,11.683,5.85,11.624,5.842
				c-0.028-0.008-0.043-0.034-0.043-0.073c0-0.009,0-0.022,0-0.04c0-0.017,0.002-0.033,0.009-0.046
				c0.09,0.006,0.185,0.01,0.286,0.014c0.101,0.004,0.192,0.006,0.273,0.006c0.079,0,0.17,0,0.273-0.006
				c0.103-0.004,0.199-0.009,0.289-0.015c0.003,0.014,0.004,0.03,0.006,0.047c0.002,0.018,0.002,0.031,0.002,0.039
				c0,0.039-0.014,0.065-0.042,0.072c-0.059,0.009-0.105,0.02-0.141,0.03c-0.036,0.01-0.062,0.021-0.081,0.037
				c-0.018,0.014-0.03,0.03-0.034,0.049s-0.006,0.042-0.006,0.072v2.159H12.417z"/>
			<path fill="#FFD730" stroke="#0D0E0F" stroke-width="0.0588" d="M14.541,7.009c0.117,0.012,0.227,0.036,0.327,0.071
				c0.1,0.037,0.187,0.083,0.26,0.143c0.072,0.059,0.13,0.127,0.17,0.209C15.337,7.511,15.36,7.6,15.36,7.699
				c0,0.13-0.025,0.249-0.074,0.348c-0.049,0.101-0.118,0.184-0.207,0.252c-0.089,0.067-0.195,0.118-0.323,0.153
				c-0.126,0.035-0.267,0.051-0.421,0.051h-0.728c-0.051,0-0.107,0.001-0.171,0.003c-0.062,0-0.122,0.003-0.18,0.01
				c-0.034,0.003-0.068,0.004-0.101,0.007c-0.035,0.002-0.067,0.002-0.097,0.002l-0.004-0.031c-0.002-0.008-0.003-0.017-0.003-0.022
				c0-0.007,0-0.013,0-0.02c0-0.032,0.005-0.052,0.016-0.062c0.009-0.011,0.021-0.017,0.035-0.02
				C13.2,8.355,13.27,8.335,13.31,8.309c0.041-0.026,0.062-0.067,0.062-0.125V6.028c0-0.06-0.019-0.1-0.056-0.124
				c-0.037-0.024-0.108-0.046-0.215-0.063c-0.022-0.004-0.037-0.017-0.042-0.031c-0.006-0.017-0.009-0.035-0.009-0.06
				c0-0.005,0-0.012,0-0.018c0-0.008,0.001-0.014,0.003-0.02c0-0.011,0.001-0.021,0.004-0.03c0.085,0.006,0.181,0.011,0.285,0.015
				c0.104,0.004,0.19,0.006,0.258,0.006h0.582c0.18,0,0.328,0.019,0.445,0.054c0.12,0.037,0.212,0.085,0.282,0.149
				c0.071,0.062,0.12,0.136,0.15,0.217c0.029,0.082,0.044,0.167,0.044,0.256c0,0.167-0.054,0.298-0.161,0.399
				c-0.105,0.099-0.241,0.17-0.403,0.217v0.014H14.541z M13.966,6.928c0.111,0,0.201-0.016,0.274-0.043
				c0.074-0.027,0.132-0.068,0.176-0.12c0.042-0.05,0.074-0.105,0.091-0.169c0.02-0.065,0.028-0.13,0.028-0.198
				c0-0.066-0.009-0.129-0.031-0.189c-0.021-0.059-0.055-0.108-0.1-0.152C14.358,6.015,14.3,5.98,14.226,5.955
				c-0.073-0.024-0.16-0.037-0.262-0.037h-0.067v1.01H13.966z M13.898,8.144c0,0.065,0.03,0.106,0.091,0.126
				c0.061,0.018,0.128,0.027,0.208,0.027c0.193,0,0.337-0.043,0.436-0.127c0.096-0.084,0.143-0.221,0.143-0.411
				c0-0.105-0.018-0.194-0.054-0.272c-0.035-0.077-0.081-0.141-0.141-0.192c-0.059-0.049-0.127-0.088-0.207-0.113
				c-0.08-0.027-0.161-0.04-0.249-0.04h-0.228L13.898,8.144L13.898,8.144z"/>
			<path fill="#FFD730" stroke="#0D0E0F" stroke-width="0.0588" d="M16.516,5.919v1.038h0.593c0.053,0,0.091-0.021,0.109-0.067
				c0.019-0.043,0.037-0.116,0.051-0.217c0-0.023,0.011-0.039,0.025-0.045c0.013-0.007,0.031-0.011,0.055-0.011
				c0.008,0,0.021,0,0.039,0.002c0.018,0.001,0.032,0.002,0.041,0.006c-0.007,0.067-0.011,0.143-0.017,0.231
				c-0.003,0.087-0.007,0.161-0.007,0.221c0,0.052,0.001,0.113,0.006,0.183c0.003,0.071,0.009,0.149,0.018,0.24
				c-0.009,0.005-0.023,0.009-0.041,0.01c-0.018,0-0.032,0-0.039,0c-0.051,0-0.08-0.019-0.08-0.06
				c-0.018-0.109-0.037-0.183-0.058-0.222S17.154,7.17,17.107,7.17h-0.594v0.966c0,0.061,0.036,0.1,0.109,0.12
				c0.072,0.02,0.196,0.031,0.37,0.031h0.178c0.084,0,0.154-0.011,0.214-0.035c0.06-0.023,0.106-0.055,0.152-0.098
				c0.04-0.042,0.083-0.091,0.116-0.146c0.031-0.055,0.067-0.117,0.102-0.186c0.006-0.021,0.025-0.03,0.059-0.03
				c0.016,0,0.031,0.002,0.054,0.012c0.018,0.009,0.039,0.019,0.06,0.025c-0.008,0.022-0.016,0.045-0.021,0.065
				c-0.009,0.02-0.015,0.04-0.021,0.062c-0.015,0.029-0.024,0.064-0.031,0.101c-0.011,0.038-0.016,0.068-0.024,0.092
				c-0.006,0.028-0.014,0.062-0.02,0.096c-0.008,0.037-0.016,0.071-0.021,0.102c-0.008,0.035-0.014,0.064-0.021,0.09
				c-0.005,0.026-0.011,0.043-0.016,0.05c-0.01,0.023-0.03,0.036-0.066,0.036c-0.021,0-0.053-0.001-0.094-0.004
				c-0.043-0.003-0.09-0.004-0.138-0.007c-0.049-0.001-0.101-0.003-0.15-0.007c-0.051-0.001-0.093-0.004-0.129-0.004h-0.958
				c-0.083,0-0.175,0.003-0.279,0.007c-0.105,0.003-0.2,0.011-0.284,0.016c-0.006-0.013-0.007-0.026-0.007-0.046
				c0-0.019,0-0.033,0-0.042c0-0.042,0.013-0.065,0.041-0.069c0.106-0.021,0.183-0.042,0.231-0.065
				c0.045-0.023,0.068-0.062,0.068-0.12V6.028c0-0.03-0.003-0.053-0.013-0.072c-0.008-0.019-0.024-0.034-0.047-0.047
				c-0.025-0.013-0.056-0.023-0.092-0.034c-0.038-0.009-0.086-0.021-0.146-0.032c-0.027-0.007-0.042-0.035-0.042-0.079
				c0-0.015,0-0.028,0-0.04c0-0.012,0.003-0.027,0.009-0.042c0.121,0.008,0.228,0.014,0.32,0.017
				c0.092,0.003,0.172,0.004,0.239,0.004h0.865c0.126,0,0.235-0.004,0.327-0.013c0.09-0.009,0.153-0.014,0.188-0.014
				c0.031,0,0.053,0.014,0.066,0.039c0.008,0.023,0.016,0.065,0.021,0.127s0.014,0.125,0.027,0.192
				c0.01,0.049,0.021,0.095,0.031,0.143c0.01,0.045,0.025,0.102,0.051,0.168c-0.014,0.006-0.028,0.012-0.047,0.018
				c-0.014,0.005-0.031,0.007-0.05,0.007c-0.027,0-0.052-0.012-0.064-0.039c-0.033-0.074-0.066-0.14-0.1-0.191
				c-0.033-0.052-0.068-0.097-0.108-0.128c-0.04-0.035-0.089-0.058-0.143-0.072c-0.054-0.014-0.12-0.021-0.195-0.021h-0.562l0,0
				H16.516z"/>
			<path fill="#FFD730" stroke="#0D0E0F" stroke-width="0.0588" d="M19.245,7.256h-0.183v0.9c0,0.065,0.025,0.112,0.084,0.14
				c0.056,0.027,0.146,0.049,0.279,0.066c0.039,0.005,0.061,0.036,0.061,0.086c0,0.022-0.006,0.05-0.014,0.079
				c-0.078-0.005-0.182-0.011-0.303-0.016c-0.123-0.004-0.257-0.007-0.398-0.007c-0.102,0-0.197,0.003-0.293,0.007
				c-0.096,0.004-0.184,0.01-0.264,0.016c-0.006-0.013-0.01-0.025-0.01-0.04c0-0.015,0-0.025,0-0.035
				c0-0.049,0.018-0.076,0.047-0.082c0.061-0.012,0.105-0.023,0.145-0.032c0.039-0.01,0.062-0.022,0.084-0.036
				c0.021-0.013,0.033-0.028,0.039-0.047c0.008-0.02,0.013-0.042,0.013-0.07V6.028c0-0.06-0.022-0.101-0.062-0.126
				c-0.037-0.025-0.117-0.047-0.232-0.061c-0.014-0.004-0.023-0.015-0.033-0.025c-0.008-0.013-0.014-0.033-0.014-0.061
				c0-0.012,0-0.025,0-0.039c0-0.015,0.002-0.026,0.011-0.035c0.079,0.006,0.168,0.011,0.271,0.015
				c0.104,0.004,0.195,0.006,0.276,0.006h0.634c0.15,0,0.283,0.02,0.402,0.057c0.117,0.037,0.219,0.089,0.301,0.158
				c0.082,0.068,0.146,0.151,0.191,0.247c0.043,0.094,0.062,0.2,0.062,0.316c0,0.151-0.045,0.29-0.137,0.414
				c-0.091,0.125-0.22,0.219-0.377,0.283l0.659,0.986c0.054,0.074,0.109,0.127,0.179,0.155c0.065,0.029,0.127,0.049,0.178,0.064
				c0.019,0.003,0.027,0.01,0.037,0.02c0.009,0.01,0.015,0.027,0.015,0.054c0,0.011,0,0.024,0,0.039c0,0.015-0.002,0.03-0.009,0.043
				c-0.028-0.001-0.075-0.004-0.131-0.006c-0.056,0-0.114-0.002-0.172-0.006c-0.063-0.001-0.125-0.004-0.185-0.006
				c-0.061,0-0.11,0-0.147,0c-0.062,0-0.117-0.026-0.177-0.077c-0.059-0.051-0.118-0.118-0.176-0.201L19.245,7.256z M19.189,7.038
				c0.086,0,0.166-0.007,0.236-0.024c0.072-0.018,0.129-0.047,0.182-0.088c0.05-0.042,0.088-0.097,0.113-0.167
				c0.025-0.068,0.041-0.155,0.041-0.263c0-0.179-0.041-0.317-0.127-0.422c-0.084-0.104-0.232-0.155-0.443-0.155h-0.127v1.119
				H19.189L19.189,7.038z"/>
			<path fill="#FFD730" stroke="#0D0E0F" stroke-width="0.0588" d="M22.333,5.919v2.267c0,0.028,0.004,0.051,0.006,0.07
				c0.004,0.019,0.021,0.036,0.035,0.049c0.019,0.016,0.037,0.028,0.065,0.038c0.033,0.009,0.078,0.019,0.136,0.028
				c0.041,0.008,0.062,0.033,0.062,0.072c0,0.008-0.003,0.021-0.003,0.039c-0.002,0.017-0.002,0.03-0.002,0.042
				c-0.094-0.004-0.19-0.011-0.293-0.016c-0.103-0.005-0.188-0.005-0.271-0.005s-0.172,0.002-0.271,0.007
				c-0.1,0.005-0.195,0.01-0.283,0.016C21.508,8.514,21.502,8.5,21.5,8.484c-0.002-0.018-0.002-0.031-0.002-0.04
				c0-0.02,0.004-0.036,0.014-0.049c0.006-0.014,0.021-0.021,0.055-0.029c0.104-0.015,0.17-0.033,0.197-0.06
				c0.027-0.022,0.041-0.064,0.041-0.122V5.919h-0.373c-0.078,0-0.145,0.008-0.201,0.023c-0.053,0.017-0.1,0.041-0.143,0.074
				c-0.041,0.034-0.074,0.077-0.105,0.128c-0.032,0.053-0.065,0.118-0.102,0.191c-0.012,0.026-0.033,0.04-0.062,0.04
				c-0.016,0-0.034-0.004-0.059-0.012c-0.021-0.007-0.039-0.013-0.051-0.019c0.021-0.07,0.037-0.129,0.051-0.183
				c0.014-0.053,0.023-0.106,0.033-0.156c0.014-0.067,0.021-0.126,0.025-0.178c0.006-0.052,0.014-0.089,0.02-0.112
				c0.01-0.026,0.033-0.039,0.066-0.039c0.031,0,0.092,0.005,0.184,0.012c0.092,0.009,0.201,0.013,0.33,0.013h1.299
				c0.127,0,0.236-0.004,0.328-0.013c0.09-0.007,0.152-0.012,0.186-0.012c0.029,0,0.056,0.012,0.07,0.039
				c0.006,0.022,0.014,0.06,0.016,0.112c0.009,0.051,0.015,0.109,0.029,0.178c0.008,0.05,0.021,0.104,0.031,0.156
				c0.012,0.054,0.029,0.114,0.053,0.183c-0.014,0.006-0.035,0.012-0.053,0.019c-0.02,0.007-0.041,0.012-0.057,0.012
				c-0.033,0-0.053-0.014-0.066-0.04c-0.035-0.074-0.066-0.139-0.098-0.191c-0.035-0.052-0.07-0.095-0.109-0.128
				c-0.043-0.033-0.092-0.057-0.146-0.074c-0.057-0.016-0.121-0.023-0.194-0.023H22.333z"/>
			<path fill="#FFD730" stroke="#0D0E0F" stroke-width="0.0588" d="M24.503,5.919v1.038h0.593c0.057,0,0.092-0.021,0.11-0.067
				c0.021-0.043,0.039-0.116,0.053-0.217c0.005-0.023,0.011-0.039,0.023-0.045c0.016-0.007,0.03-0.011,0.055-0.011
				c0.011,0,0.022,0,0.039,0.002c0.019,0.001,0.033,0.002,0.039,0.006c-0.006,0.067-0.008,0.143-0.017,0.231
				c-0.006,0.087-0.006,0.161-0.006,0.221c0,0.052,0,0.113,0.006,0.183c0.002,0.071,0.011,0.149,0.017,0.24
				c-0.006,0.005-0.021,0.009-0.039,0.01c-0.017,0-0.028,0-0.039,0c-0.051,0-0.075-0.019-0.078-0.06
				c-0.021-0.109-0.038-0.183-0.059-0.222S25.143,7.17,25.096,7.17h-0.593v0.966c0,0.061,0.039,0.1,0.108,0.12
				c0.072,0.02,0.193,0.031,0.371,0.031h0.177c0.086,0,0.157-0.011,0.213-0.035c0.062-0.023,0.106-0.055,0.153-0.098
				c0.043-0.042,0.082-0.091,0.119-0.146c0.031-0.055,0.068-0.117,0.101-0.186c0.01-0.021,0.028-0.03,0.06-0.03
				c0.016,0,0.03,0.002,0.051,0.012c0.02,0.009,0.039,0.019,0.061,0.025c-0.006,0.022-0.012,0.045-0.018,0.065
				c-0.01,0.02-0.017,0.04-0.023,0.062c-0.014,0.029-0.023,0.064-0.031,0.101c-0.008,0.038-0.016,0.068-0.023,0.092
				c-0.008,0.028-0.012,0.062-0.02,0.096c-0.008,0.037-0.014,0.071-0.02,0.102c-0.01,0.035-0.014,0.064-0.021,0.09
				c-0.012,0.026-0.014,0.043-0.018,0.05c-0.01,0.023-0.031,0.036-0.066,0.036c-0.018,0-0.055-0.001-0.096-0.004
				s-0.09-0.004-0.137-0.007c-0.049-0.001-0.101-0.003-0.15-0.007c-0.049-0.001-0.096-0.004-0.129-0.004h-0.957
				c-0.08,0-0.174,0.003-0.279,0.007c-0.104,0.003-0.201,0.011-0.281,0.016c-0.008-0.013-0.014-0.026-0.014-0.046
				c0-0.019,0-0.033,0-0.042c0-0.042,0.016-0.065,0.045-0.069c0.105-0.021,0.184-0.042,0.23-0.065
				c0.045-0.024,0.068-0.062,0.068-0.12V6.028c0-0.03-0.006-0.053-0.015-0.072c-0.008-0.019-0.022-0.034-0.049-0.047
				c-0.026-0.013-0.056-0.023-0.093-0.034c-0.038-0.009-0.088-0.021-0.146-0.032c-0.026-0.007-0.043-0.035-0.043-0.079
				c0-0.015,0-0.028,0-0.04c0-0.012,0.005-0.027,0.015-0.042c0.117,0.008,0.225,0.014,0.313,0.017
				c0.095,0.003,0.174,0.004,0.24,0.004h0.86c0.127,0,0.238-0.004,0.328-0.013c0.094-0.009,0.154-0.014,0.189-0.014
				c0.029,0,0.055,0.014,0.066,0.039c0.012,0.023,0.018,0.065,0.021,0.127c0.006,0.062,0.019,0.125,0.03,0.192
				c0.009,0.049,0.019,0.095,0.025,0.143c0.012,0.045,0.029,0.102,0.053,0.168c-0.014,0.006-0.028,0.012-0.049,0.018
				c-0.012,0.006-0.029,0.008-0.049,0.008c-0.029,0-0.053-0.012-0.068-0.039c-0.03-0.075-0.063-0.14-0.1-0.191
				c-0.031-0.054-0.064-0.097-0.109-0.128c-0.037-0.035-0.088-0.058-0.141-0.072c-0.059-0.014-0.121-0.021-0.199-0.021L24.503,5.919
				L24.503,5.919z M24.954,4.777c0.092,0.032,0.155,0.076,0.198,0.13c0.043,0.055,0.064,0.106,0.064,0.155
				c0,0.036-0.008,0.064-0.027,0.09c-0.019,0.026-0.049,0.044-0.086,0.056c-0.061,0.016-0.117,0.032-0.17,0.049
				c-0.049,0.016-0.1,0.032-0.147,0.048c-0.048,0.017-0.103,0.037-0.154,0.061c-0.055,0.023-0.114,0.049-0.187,0.078
				c-0.021-0.021-0.045-0.039-0.051-0.057C24.387,5.37,24.38,5.354,24.38,5.34c0-0.021,0.011-0.042,0.021-0.055L24.954,4.777z"/>
			<path fill="#FFD730" stroke="#0D0E0F" stroke-width="0.0588" d="M15.884,9.501v1.037h0.592c0.054,0,0.092-0.021,0.112-0.066
				c0.018-0.044,0.036-0.116,0.049-0.217c0.002-0.022,0.012-0.039,0.025-0.045c0.014-0.007,0.032-0.01,0.055-0.01
				c0.008,0,0.021,0,0.042,0c0.018,0,0.032,0.003,0.04,0.006c-0.006,0.066-0.012,0.142-0.014,0.231
				c-0.005,0.087-0.007,0.161-0.007,0.221c0,0.052,0.001,0.114,0.004,0.185c0.002,0.07,0.01,0.149,0.017,0.239
				c-0.007,0.004-0.021,0.009-0.04,0.01c-0.02,0.003-0.032,0.003-0.042,0.003c-0.05,0-0.077-0.019-0.08-0.059
				c-0.015-0.11-0.036-0.185-0.056-0.223c-0.021-0.038-0.056-0.057-0.105-0.057h-0.594v0.965c0,0.059,0.037,0.099,0.112,0.119
				c0.071,0.021,0.196,0.031,0.369,0.031h0.178c0.084,0,0.154-0.012,0.211-0.036c0.057-0.022,0.108-0.055,0.154-0.096
				c0.045-0.043,0.083-0.091,0.118-0.147c0.035-0.056,0.068-0.118,0.103-0.187c0.007-0.021,0.026-0.029,0.059-0.029
				c0.016,0,0.03,0.002,0.052,0.011c0.019,0.01,0.038,0.018,0.058,0.027c-0.007,0.023-0.013,0.044-0.019,0.065
				c-0.008,0.02-0.013,0.039-0.019,0.06c-0.014,0.031-0.025,0.064-0.035,0.102c-0.008,0.037-0.016,0.069-0.024,0.091
				c-0.006,0.027-0.012,0.062-0.019,0.096c-0.009,0.037-0.016,0.071-0.021,0.105c-0.007,0.033-0.015,0.062-0.021,0.087
				c-0.006,0.026-0.012,0.044-0.015,0.052c-0.01,0.022-0.033,0.035-0.068,0.035c-0.021,0-0.054,0-0.094-0.004
				c-0.042-0.003-0.088-0.004-0.139-0.006c-0.049,0-0.098-0.003-0.149-0.007c-0.05-0.002-0.094-0.003-0.129-0.003h-0.956
				c-0.081,0-0.175,0.001-0.281,0.006c-0.105,0.005-0.2,0.01-0.283,0.016c-0.009-0.012-0.01-0.026-0.01-0.044
				c0-0.019,0-0.032,0-0.042c0-0.042,0.014-0.066,0.042-0.068c0.106-0.019,0.183-0.042,0.229-0.065
				c0.047-0.021,0.072-0.062,0.072-0.121v-2.16c0-0.03-0.005-0.051-0.013-0.071c-0.01-0.019-0.025-0.036-0.049-0.047
				c-0.022-0.013-0.054-0.025-0.091-0.036c-0.037-0.01-0.085-0.02-0.146-0.031c-0.03-0.008-0.043-0.035-0.043-0.075
				c0-0.017,0-0.03,0-0.043c0-0.012,0-0.026,0.01-0.041c0.118,0.007,0.226,0.015,0.318,0.017c0.092,0.004,0.172,0.005,0.24,0.005
				h0.863c0.126,0,0.235-0.005,0.327-0.015c0.091-0.007,0.154-0.012,0.189-0.012c0.028,0,0.052,0.012,0.064,0.04
				c0.01,0.022,0.016,0.067,0.022,0.126c0.006,0.061,0.015,0.126,0.028,0.192c0.01,0.049,0.019,0.096,0.03,0.141
				c0.011,0.047,0.027,0.103,0.05,0.17c-0.014,0.006-0.029,0.011-0.045,0.017c-0.017,0.004-0.034,0.007-0.051,0.007
				c-0.031,0-0.054-0.012-0.068-0.038c-0.031-0.075-0.065-0.14-0.099-0.192c-0.032-0.054-0.07-0.096-0.108-0.131
				c-0.042-0.031-0.089-0.056-0.145-0.071C16.586,9.506,16.522,9.5,16.446,9.5L15.884,9.501L15.884,9.501z"/>
			<path fill="#FFD730" stroke="#0D0E0F" stroke-width="0.0588" d="M19.062,9.501v2.265c0,0.03,0,0.052,0.004,0.072
				c0.004,0.018,0.018,0.035,0.033,0.049c0.018,0.016,0.041,0.027,0.069,0.037c0.028,0.011,0.074,0.019,0.131,0.028
				c0.041,0.008,0.062,0.034,0.062,0.072c0,0.009,0,0.022,0,0.039c-0.004,0.017-0.008,0.03-0.01,0.043
				c-0.092-0.004-0.186-0.01-0.287-0.016c-0.104-0.003-0.192-0.006-0.272-0.006s-0.172,0.002-0.271,0.006
				c-0.101,0.006-0.195,0.01-0.285,0.016c-0.004-0.013-0.01-0.026-0.01-0.043s-0.002-0.03-0.002-0.039
				c0-0.018,0.002-0.035,0.01-0.049c0.009-0.013,0.025-0.022,0.057-0.028c0.105-0.014,0.17-0.034,0.193-0.058
				c0.027-0.024,0.043-0.064,0.043-0.124V9.501h-0.373c-0.076,0-0.143,0.007-0.198,0.022c-0.055,0.017-0.1,0.041-0.142,0.072
				c-0.042,0.033-0.078,0.078-0.109,0.129c-0.035,0.053-0.066,0.116-0.098,0.192c-0.016,0.026-0.033,0.039-0.064,0.039
				c-0.018,0-0.037-0.004-0.06-0.011c-0.021-0.007-0.037-0.013-0.051-0.019c0.021-0.068,0.036-0.129,0.051-0.183
				c0.015-0.051,0.026-0.105,0.034-0.158c0.014-0.065,0.02-0.125,0.023-0.174c0.008-0.053,0.014-0.09,0.021-0.113
				c0.014-0.027,0.034-0.04,0.07-0.04c0.029,0,0.091,0.004,0.183,0.013c0.092,0.01,0.2,0.014,0.329,0.014h1.297
				c0.127,0,0.236-0.004,0.326-0.014c0.092-0.009,0.154-0.013,0.188-0.013c0.028,0,0.055,0.013,0.065,0.04
				c0.013,0.022,0.017,0.06,0.021,0.113c0.004,0.05,0.015,0.108,0.028,0.174c0.009,0.053,0.019,0.107,0.027,0.158
				c0.016,0.054,0.031,0.116,0.055,0.183c-0.016,0.006-0.028,0.012-0.055,0.019c-0.02,0.006-0.039,0.011-0.055,0.011
				c-0.027,0-0.053-0.013-0.066-0.039c-0.033-0.076-0.065-0.14-0.098-0.192c-0.031-0.053-0.072-0.096-0.111-0.129
				c-0.041-0.031-0.086-0.057-0.145-0.072c-0.053-0.017-0.117-0.022-0.195-0.022H19.062z"/>
			<path fill="#FFD730" stroke="#0D0E0F" stroke-width="0.0588" d="M11.488,14.492v0.828c0,0.065,0.027,0.112,0.083,0.14
				c0.055,0.026,0.147,0.048,0.279,0.065c0.04,0.005,0.058,0.035,0.058,0.085c0,0.022-0.002,0.05-0.008,0.078
				c-0.08-0.004-0.183-0.01-0.305-0.017c-0.123-0.002-0.254-0.004-0.399-0.004c-0.102,0-0.2,0.002-0.293,0.004
				c-0.094,0.005-0.183,0.011-0.264,0.017c-0.006-0.011-0.008-0.022-0.008-0.039c0-0.016,0-0.026,0-0.037
				c0-0.048,0.016-0.075,0.046-0.08c0.059-0.011,0.106-0.022,0.143-0.032c0.036-0.011,0.064-0.021,0.085-0.036
				c0.021-0.012,0.033-0.028,0.04-0.047c0.007-0.019,0.01-0.042,0.01-0.071V13.19c0-0.057-0.021-0.099-0.061-0.125
				c-0.041-0.027-0.12-0.046-0.235-0.06c-0.012-0.005-0.023-0.015-0.032-0.026c-0.008-0.011-0.013-0.031-0.013-0.06
				c0-0.011,0-0.022,0-0.038c0-0.015,0.003-0.025,0.008-0.036c0.079,0.006,0.17,0.011,0.273,0.016
				c0.102,0.004,0.194,0.007,0.276,0.007h0.636c0.299,0,0.534,0.069,0.703,0.206c0.168,0.139,0.253,0.331,0.253,0.578
				c0,0.11-0.021,0.219-0.062,0.322c-0.042,0.102-0.106,0.19-0.189,0.266c-0.082,0.076-0.182,0.137-0.3,0.184
				c-0.118,0.046-0.253,0.069-0.404,0.069L11.488,14.492L11.488,14.492z M11.615,14.276c0.17,0,0.31-0.043,0.417-0.133
				c0.104-0.089,0.157-0.239,0.157-0.452c0-0.193-0.042-0.342-0.125-0.449c-0.082-0.104-0.231-0.158-0.448-0.158h-0.127v1.194h0.127
				L11.615,14.276L11.615,14.276z"/>
			<path fill="#FFD730" stroke="#0D0E0F" stroke-width="0.0588" d="M14.176,14.719h-0.885l-0.219,0.6
				c-0.008,0.014-0.014,0.03-0.019,0.047c-0.001,0.018-0.003,0.031-0.003,0.04c0,0.031,0.015,0.057,0.045,0.078
				c0.028,0.019,0.087,0.036,0.178,0.05c0.039,0.005,0.059,0.033,0.059,0.08c0,0.02-0.002,0.044-0.007,0.074
				c-0.076-0.005-0.156-0.01-0.241-0.017c-0.084-0.002-0.166-0.004-0.249-0.004c-0.056,0-0.115,0.001-0.177,0.003
				c-0.063,0.002-0.13,0.009-0.206,0.017c-0.006-0.011-0.009-0.022-0.009-0.038s0-0.026,0-0.036c0-0.053,0.018-0.083,0.054-0.085
				c0.088-0.018,0.151-0.037,0.188-0.056c0.037-0.02,0.068-0.054,0.091-0.104l1.014-2.481c0.021-0.049,0.058-0.073,0.101-0.073
				c0.014,0,0.027,0.001,0.043,0.002c0.014,0,0.029,0.002,0.046,0.006l1.015,2.56c0.016,0.044,0.049,0.075,0.096,0.097
				c0.048,0.021,0.101,0.037,0.156,0.044c0.042,0.009,0.062,0.038,0.062,0.085c0,0.022-0.002,0.048-0.008,0.078
				c-0.09-0.004-0.178-0.01-0.267-0.017c-0.086-0.003-0.167-0.005-0.243-0.005c-0.041,0-0.086,0-0.143,0.002
				c-0.057,0.001-0.113,0.003-0.173,0.005s-0.118,0.005-0.174,0.007c-0.056,0-0.107,0.002-0.146,0.005
				c-0.006-0.011-0.009-0.023-0.009-0.038s0-0.026,0-0.036c0-0.024,0.004-0.044,0.016-0.056c0.009-0.014,0.019-0.021,0.031-0.025
				c0.073-0.015,0.127-0.029,0.162-0.049c0.036-0.02,0.054-0.047,0.054-0.084c0-0.018-0.006-0.038-0.012-0.065L14.176,14.719z
				 M14.097,14.505l-0.357-0.969l-0.368,0.969H14.097z"/>
			<path fill="#FFD730" stroke="#0D0E0F" stroke-width="0.0588" d="M16.527,13.084v2.266c0,0.027,0.002,0.053,0.007,0.071
				c0.002,0.018,0.013,0.036,0.032,0.049c0.016,0.016,0.04,0.029,0.071,0.038c0.031,0.011,0.074,0.019,0.13,0.027
				c0.042,0.008,0.063,0.032,0.063,0.072c0,0.008,0,0.021-0.004,0.039c0,0.018-0.002,0.032-0.005,0.043
				c-0.09-0.004-0.184-0.01-0.288-0.017c-0.104-0.003-0.192-0.005-0.272-0.005c-0.081,0-0.172,0.002-0.271,0.005
				c-0.101,0.004-0.195,0.01-0.285,0.017c-0.003-0.011-0.008-0.025-0.009-0.043c-0.001-0.017-0.002-0.03-0.002-0.039
				c0-0.019,0.004-0.037,0.012-0.049c0.006-0.014,0.024-0.022,0.056-0.029c0.105-0.014,0.17-0.033,0.196-0.058
				c0.027-0.024,0.041-0.064,0.041-0.124v-2.265h-0.373c-0.078,0-0.145,0.007-0.2,0.022c-0.055,0.017-0.103,0.041-0.144,0.074
				c-0.04,0.033-0.077,0.077-0.109,0.128c-0.032,0.053-0.064,0.116-0.098,0.192c-0.013,0.027-0.033,0.039-0.063,0.039
				c-0.017,0-0.037-0.003-0.059-0.011c-0.022-0.007-0.041-0.013-0.051-0.018c0.02-0.069,0.038-0.13,0.051-0.184
				c0.015-0.052,0.025-0.105,0.033-0.158c0.011-0.065,0.021-0.125,0.025-0.177c0.004-0.051,0.013-0.087,0.02-0.111
				c0.012-0.025,0.034-0.039,0.068-0.039c0.032,0,0.092,0.003,0.182,0.014c0.091,0.009,0.203,0.013,0.332,0.013h1.297
				c0.127,0,0.236-0.004,0.328-0.013c0.09-0.009,0.153-0.014,0.188-0.014c0.028,0,0.053,0.014,0.065,0.039
				c0.009,0.023,0.014,0.061,0.02,0.111c0.004,0.053,0.014,0.111,0.029,0.177c0.008,0.053,0.018,0.105,0.028,0.158
				c0.013,0.054,0.028,0.115,0.054,0.184c-0.015,0.006-0.031,0.011-0.054,0.018c-0.021,0.007-0.038,0.011-0.057,0.011
				c-0.03,0-0.054-0.012-0.064-0.039c-0.035-0.076-0.068-0.14-0.1-0.192c-0.034-0.052-0.068-0.095-0.109-0.128
				c-0.043-0.033-0.089-0.058-0.144-0.074c-0.055-0.016-0.12-0.022-0.196-0.022h-0.371V13.084z"/>
			<path fill="#FFD730" stroke="#0D0E0F" stroke-width="0.0588" d="M18.877,14.419h-0.184v0.901c0,0.065,0.027,0.112,0.084,0.14
				c0.057,0.026,0.148,0.048,0.279,0.065c0.041,0.005,0.06,0.035,0.06,0.085c0,0.022-0.003,0.05-0.009,0.078
				c-0.078-0.004-0.185-0.01-0.307-0.017c-0.121-0.002-0.258-0.004-0.398-0.004c-0.102,0-0.196,0.002-0.293,0.004
				c-0.092,0.005-0.18,0.011-0.263,0.017c-0.007-0.011-0.007-0.022-0.007-0.039c0-0.016,0-0.026,0-0.037
				c0-0.048,0.017-0.075,0.046-0.08c0.059-0.011,0.107-0.022,0.143-0.032c0.037-0.011,0.062-0.021,0.084-0.036
				c0.022-0.012,0.035-0.028,0.041-0.047c0.007-0.019,0.013-0.042,0.013-0.071V13.19c0-0.057-0.022-0.099-0.063-0.125
				c-0.035-0.027-0.118-0.046-0.23-0.06c-0.014-0.005-0.025-0.016-0.033-0.027c-0.01-0.011-0.014-0.03-0.014-0.06
				c0-0.011,0-0.023,0-0.037c0-0.015,0-0.026,0.008-0.036c0.077,0.006,0.169,0.011,0.271,0.016c0.104,0.004,0.193,0.007,0.275,0.007
				h0.637c0.148,0,0.281,0.018,0.4,0.056c0.119,0.037,0.219,0.09,0.301,0.159c0.084,0.069,0.148,0.149,0.191,0.245
				c0.043,0.094,0.064,0.2,0.064,0.315c0,0.152-0.046,0.291-0.138,0.416s-0.217,0.218-0.377,0.283l0.66,0.986
				c0.053,0.073,0.11,0.126,0.176,0.156c0.063,0.028,0.127,0.05,0.187,0.063c0.012,0.002,0.022,0.01,0.028,0.02
				c0.011,0.01,0.017,0.028,0.017,0.054c0,0.013,0,0.025,0,0.039c0,0.014-0.002,0.028-0.01,0.042
				c-0.029-0.003-0.076-0.006-0.132-0.008c-0.055,0-0.112-0.002-0.174-0.006c-0.062-0.002-0.121-0.004-0.183-0.004
				c-0.062-0.002-0.11-0.002-0.147-0.002c-0.062,0-0.116-0.025-0.178-0.077c-0.06-0.049-0.115-0.116-0.173-0.2L18.877,14.419z
				 M18.822,14.203c0.087,0,0.164-0.007,0.234-0.026c0.07-0.017,0.131-0.046,0.182-0.087c0.052-0.042,0.089-0.097,0.117-0.167
				c0.025-0.067,0.041-0.156,0.041-0.26c0-0.178-0.047-0.319-0.129-0.423c-0.084-0.103-0.233-0.153-0.442-0.153h-0.13v1.12h0.13
				v-0.002h-0.003V14.203z"/>
			<path fill="#FFD730" stroke="#0D0E0F" stroke-width="0.0588" d="M21.572,15.35c0,0.027,0.005,0.053,0.009,0.071
				s0.015,0.036,0.03,0.049c0.019,0.016,0.046,0.029,0.082,0.038c0.033,0.01,0.082,0.019,0.144,0.027
				c0.022,0.004,0.041,0.03,0.041,0.072c0,0.008-0.002,0.021-0.002,0.039c-0.004,0.018-0.004,0.032-0.006,0.043
				c-0.093-0.004-0.188-0.01-0.289-0.017c-0.104-0.003-0.194-0.005-0.271-0.005c-0.082,0-0.172,0.002-0.273,0.005
				c-0.104,0.004-0.197,0.01-0.287,0.017c-0.006-0.011-0.008-0.025-0.008-0.043c0-0.017,0-0.03,0-0.039
				c0-0.045,0.016-0.07,0.043-0.072c0.055-0.01,0.104-0.018,0.139-0.027c0.037-0.01,0.062-0.021,0.08-0.038
				c0.016-0.013,0.027-0.03,0.033-0.049c0.008-0.02,0.008-0.043,0.008-0.071v-2.158c0-0.029,0-0.053-0.008-0.07
				c-0.006-0.02-0.02-0.037-0.033-0.051c-0.018-0.016-0.043-0.027-0.08-0.037c-0.035-0.01-0.084-0.02-0.139-0.028
				c-0.027-0.009-0.043-0.035-0.043-0.072c0-0.009,0-0.022,0-0.039c0-0.018,0.002-0.034,0.008-0.049
				c0.09,0.007,0.186,0.011,0.287,0.017c0.102,0.004,0.193,0.006,0.273,0.006c0.078,0,0.168-0.002,0.271-0.006
				c0.103-0.004,0.196-0.009,0.289-0.017c0.002,0.017,0.002,0.032,0.006,0.049c0,0.016,0.002,0.029,0.002,0.039
				c0,0.038-0.019,0.064-0.041,0.072c-0.062,0.008-0.106,0.018-0.144,0.028c-0.036,0.009-0.063,0.021-0.082,0.037
				c-0.018,0.014-0.026,0.031-0.03,0.051c-0.004,0.017-0.009,0.041-0.009,0.07V15.35z"/>
			<path fill="#FFD730" stroke="#0D0E0F" stroke-width="0.0588" d="M23.079,13.084v1.039h0.592c0.056,0,0.091-0.022,0.106-0.069
				c0.023-0.043,0.037-0.116,0.054-0.216c0.002-0.024,0.015-0.039,0.024-0.045c0.017-0.008,0.029-0.011,0.056-0.011
				c0.008,0,0.021,0,0.041,0.002c0.016,0,0.026,0.002,0.039,0.006c-0.007,0.065-0.013,0.143-0.019,0.23
				c-0.004,0.087-0.006,0.163-0.006,0.222c0,0.052,0.002,0.112,0.006,0.183c0,0.071,0.006,0.151,0.019,0.241
				c-0.013,0.004-0.023,0.008-0.039,0.009c-0.021,0.001-0.033,0.003-0.041,0.003c-0.052,0-0.078-0.02-0.08-0.062
				c-0.019-0.108-0.035-0.182-0.06-0.22c-0.02-0.039-0.055-0.059-0.102-0.059h-0.594v0.965c0,0.06,0.035,0.1,0.105,0.122
				c0.073,0.02,0.198,0.03,0.371,0.03h0.178c0.086,0,0.153-0.012,0.213-0.035c0.059-0.022,0.109-0.056,0.156-0.098
				c0.045-0.041,0.084-0.091,0.116-0.146c0.033-0.057,0.066-0.119,0.101-0.188c0.012-0.021,0.029-0.031,0.061-0.031
				c0.014,0,0.027,0.004,0.051,0.014c0.018,0.009,0.037,0.019,0.057,0.026c-0.002,0.023-0.008,0.044-0.02,0.065
				c-0.006,0.02-0.01,0.04-0.018,0.06c-0.014,0.032-0.023,0.065-0.033,0.104c-0.01,0.037-0.018,0.067-0.025,0.089
				c-0.008,0.029-0.01,0.062-0.02,0.099c-0.004,0.036-0.014,0.069-0.018,0.103c-0.011,0.032-0.017,0.062-0.021,0.088
				c-0.01,0.025-0.016,0.042-0.016,0.052c-0.015,0.023-0.033,0.035-0.066,0.035c-0.023,0-0.057,0-0.098-0.004
				c-0.043-0.002-0.088-0.003-0.139-0.006c-0.05,0-0.101-0.003-0.146-0.007c-0.055-0.001-0.096-0.002-0.133-0.002h-0.955
				c-0.084,0-0.174,0.002-0.279,0.006c-0.107,0.005-0.199,0.01-0.287,0.016c-0.006-0.011-0.008-0.025-0.008-0.044s0-0.033,0-0.042
				c0-0.043,0.014-0.065,0.043-0.069c0.107-0.02,0.184-0.042,0.23-0.066c0.047-0.021,0.067-0.061,0.067-0.119v-2.159
				c0-0.029-0.002-0.052-0.012-0.07c-0.011-0.02-0.027-0.037-0.05-0.048c-0.022-0.012-0.057-0.025-0.094-0.036
				c-0.037-0.008-0.088-0.018-0.146-0.031c-0.027-0.009-0.041-0.035-0.041-0.079c0-0.014,0-0.027,0-0.039
				c0-0.014,0-0.026,0.008-0.042c0.119,0.01,0.229,0.017,0.319,0.019c0.092,0.002,0.173,0.003,0.242,0.003h0.861
				c0.127,0,0.234-0.003,0.324-0.012c0.094-0.01,0.154-0.014,0.191-0.014c0.026,0,0.053,0.014,0.065,0.038
				c0.007,0.023,0.015,0.064,0.019,0.127c0.006,0.062,0.021,0.125,0.033,0.192c0.004,0.049,0.018,0.094,0.026,0.142
				c0.013,0.044,0.026,0.103,0.054,0.167c-0.017,0.006-0.029,0.012-0.05,0.018c-0.017,0.005-0.03,0.008-0.049,0.008
				c-0.033,0-0.058-0.013-0.067-0.039c-0.033-0.074-0.068-0.139-0.099-0.192c-0.031-0.052-0.069-0.095-0.113-0.128
				c-0.038-0.034-0.086-0.056-0.143-0.073c-0.056-0.013-0.119-0.02-0.195-0.02h-0.555v-0.002H23.079z"/>
		</g>
	</g>
</g>
<path id="border" fill="#CCCCCC" d="M17.5,0.97c9.1,0,16.5,7.401,16.5,16.5c0,9.096-7.4,16.5-16.5,16.5
	c-9.098,0-16.5-7.404-16.5-16.5C1,8.372,8.402,0.97,17.5,0.97 M17.5-0.03C7.835-0.03,0,7.805,0,17.47c0,9.663,7.835,17.5,17.5,17.5
	S35,27.133,35,17.47C35,7.805,27.165-0.03,17.5-0.03L17.5-0.03z"/>
</svg>
