<?xml version="1.0" encoding="utf-8"?>
<!-- Generator: Adobe Illustrator 16.0.4, SVG Export Plug-In . SVG Version: 6.00 Build 0)  -->
<!DOCTYPE svg PUBLIC "-//W3C//DTD SVG 1.1//EN" "http://www.w3.org/Graphics/SVG/1.1/DTD/svg11.dtd" [
	<!ENTITY ns_extend "http://ns.adobe.com/Extensibility/1.0/">
	<!ENTITY ns_ai "http://ns.adobe.com/AdobeIllustrator/10.0/">
	<!ENTITY ns_graphs "http://ns.adobe.com/Graphs/1.0/">
	<!ENTITY ns_vars "http://ns.adobe.com/Variables/1.0/">
	<!ENTITY ns_imrep "http://ns.adobe.com/ImageReplacement/1.0/">
	<!ENTITY ns_sfw "http://ns.adobe.com/SaveForWeb/1.0/">
	<!ENTITY ns_custom "http://ns.adobe.com/GenericCustomNamespace/1.0/">
	<!ENTITY ns_adobe_xpath "http://ns.adobe.com/XPath/1.0/">
]>
<svg version="1.1" id="Layer_1" xmlns:x="&ns_extend;" xmlns:i="&ns_ai;" xmlns:graph="&ns_graphs;"
	 xmlns="http://www.w3.org/2000/svg" xmlns:xlink="http://www.w3.org/1999/xlink" x="0px" y="0px" width="35px" height="35px"
	 viewBox="0 0 35 35" enable-background="new 0 0 35 35" xml:space="preserve">
<metadata>
	<sfw  xmlns="&ns_sfw;">
		<slices></slices>
		<sliceSourceBounds  bottomLeftOrigin="true" width="35" height="35" x="280" y="192"></sliceSourceBounds>
	</sfw>
</metadata>
<g>
	<path fill="none" d="M0.03,16.899C0.023,17.094,0,17.283,0,17.48c0.01,0,0.02,0,0.03,0C0.03,17.287,0.03,17.092,0.03,16.899z"/>
	<path fill="#CE1126" d="M0,17.48c0,0.007,0,0.013,0,0.02C0,17.493,0,17.487,0,17.48L0,17.48z"/>
	<path fill="#EA3648" d="M35,17.5c0-0.007-0.001-0.013-0.001-0.02c-11.656,0-23.312,0-34.969,0c-0.01,0-0.02,0-0.03,0
		c0,0.007,0,0.013,0,0.02C0,27.168,7.835,35,17.5,35C27.168,35,35,27.168,35,17.5z"/>
	<path fill="#104BA0" d="M34.999,17.48C34.986,7.825,27.159,0,17.5,0C8.038,0,0.35,7.514,0.03,16.899c0,0.193,0,0.388,0,0.581
		C11.687,17.48,23.343,17.48,34.999,17.48z"/>
</g>
<g>
	<path fill="#FFDE76" d="M11.298,5.826h-0.19v0.471H10.59v0.389h0.507v0.49h0.231c0,0,0.01-0.114,0.01,0.147
		c-0.39-0.033-0.505,0.292-0.567,0.524c0.02,0.555,0.526,0.586,0.526,0.586l-0.021,0.062l-0.21-0.032l-0.252-0.041
		c0,0-0.286-0.095-0.517-0.2c-0.613-0.25-1.508-0.281-2.219-0.326C6.901,7.893,6.227,8.559,5.88,9.072
		c-0.6,1.278-0.136,2.42-0.074,2.618c-0.169,0.021-1.506,0.113-1.588,0.156c2.59,1.072,2.59,2.671,2.834,2.986
		c1.302-0.639,4.253-0.377,4.253-0.377"/>
	<path fill="#FFDE76" d="M11.277,5.827l0.181-0.001v0.471h0.512v0.389h-0.508v0.49h-0.233c0,0-0.01-0.114-0.01,0.147
		c0.391-0.033,0.508,0.292,0.57,0.524c-0.021,0.555-0.53,0.586-0.53,0.586l0.023,0.062l0.212-0.032l0.253-0.041
		c0,0,0.285-0.095,0.518-0.2c0.614-0.251,1.515-0.283,2.229-0.328c1.178-0.004,1.856,0.663,2.207,1.176
		c0.602,1.278,0.137,2.42,0.074,2.618c0.168,0.021,1.631,0.113,1.715,0.156c-2.354,0.733-2.721,2.671-2.964,2.986
		c-0.945-0.592-4.275-0.377-4.275-0.377"/>
</g>
<path id="border" fill="#CCCCCC" d="M17.5,1C26.6,1,34,8.402,34,17.5C34,26.6,26.6,34,17.5,34C8.402,34,1,26.6,1,17.5
	C1,8.402,8.402,1,17.5,1 M17.5,0C7.835,0,0,7.835,0,17.5S7.835,35,17.5,35S35,27.165,35,17.5S27.165,0,17.5,0L17.5,0z"/>
</svg>
