<?xml version="1.0" encoding="utf-8"?>
<!-- Generator: Adobe Illustrator 16.0.4, SVG Export Plug-In . SVG Version: 6.00 Build 0)  -->
<!DOCTYPE svg PUBLIC "-//W3C//DTD SVG 1.1//EN" "http://www.w3.org/Graphics/SVG/1.1/DTD/svg11.dtd">
<svg version="1.1" id="Layer_1" xmlns="http://www.w3.org/2000/svg" xmlns:xlink="http://www.w3.org/1999/xlink" x="0px" y="0px"
	 width="1171.4px" height="490px" viewBox="0 0 1171.4 490" enable-background="new 0 0 1171.4 490" xml:space="preserve">
<g>
	<g id="XMLID_1_">
		<g>
			<path fill="#FFFFFF" d="M376.5,172.9L306.2,186c123,238.5-104.5,242.5-146.2,190.9c20,14.1,184.6,57.1,79.2-161.3l-56,42.6
				c0,0,4.3-23.8,10.4-57.7c6.1-34,14.1-78.1,21.4-118.8C283.2,117.3,376.5,172.9,376.5,172.9z"/>
			<path fill="#3F9FD7" d="M245,2.5c133.9,0,242.5,108.6,242.5,242.5c0,133.9-112.2,242.5-246.1,242.5
				C107.5,487.5,2.5,378.9,2.5,245C2.5,111.1,111.1,2.5,245,2.5z M306.2,186l70.3-13.1L214.9,81.6l-31.8,176.6l56-42.6
				C344.6,434,180,391.1,160,376.9C201.7,428.5,429.2,424.5,306.2,186z"/>
		</g>
	</g>
</g>
<g>
	<path fill="#FFC31A" d="M828.7,245c0,133.9-108.6,242.5-242.5,242.5c-133.9,0-242.5-108.6-242.5-242.5
		c0-133.9,108.6-242.5,242.5-242.5C720.1,2.5,828.7,111.1,828.7,245z"/>
	<path fill="#FFFFFF" d="M719.9,145.3h-13.3V116c0-7.3-5.9-13.3-13.3-13.3H446.9c-7.3,0-13.3,5.9-13.3,13.3v69.6
		c0,7.3,5.9,13.3,13.3,13.3h246.5c7.3,0,13.3-5.9,13.3-13.3v-29.3h13.3c4.3,0,7.7,3.5,7.7,7.7v54.2c0,7.7-2.1,10.6-8.9,12.3
		l-144.1,24.3c-11.4,2.1-17.3,9.8-17.3,23v12.6h-7.5c-2.9,0-5.2,2.3-5.2,5.2v112.7c0,2.9,2.3,5.2,5.2,5.2h24.2
		c2.9,0,5.2-2.3,5.2-5.2V295.6c0-2.9-2.3-5.2-5.2-5.2h-5.6v-12.6c0-9.6,3.7-11.3,8-12.1v0l144.3-24.3l0.4-0.1
		c11.9-2.9,17.5-10.2,17.5-23.1v-54.2C738.7,153.7,730.3,145.3,719.9,145.3z"/>
</g>
<g>
	<path fill="#52B532" d="M1168.5,245c0,133.9-108.6,242.5-242.5,242.5c-133.9,0-242.5-108.6-242.5-242.5
		C683.5,111.1,792.1,2.5,926,2.5C1059.9,2.5,1168.5,111.1,1168.5,245z"/>
	<path fill="#FFFFFF" d="M971.8,72.9c-12.6,13.9-16.8,33.5-11.1,51.4c0.2,0.7,0.4,1.4,0.6,2.1c-9.3,7.9-21.5,18.6-33,30.2
		c-14.7,14.7-28.3,30.6-36.2,40.2c-6.5-1.6-13.1-2.7-19.8-3.1c-12.7-0.4-25.6,4.8-34.8,13.6l55.1,55.1L788.5,388.7l126.3-104.1
		l55.1,55.1c12.6-13.9,16.8-33.5,11.1-51.4c-0.3-1.1-0.6-2.2-1-3.3c9.5-7.8,25.2-21.2,39.7-35.7c11.6-11.6,22.4-23.9,30.4-33.3
		c6.3,1.6,12.7,2.6,19.3,3c12.7,0.4,25.6-4.8,34.8-13.6L971.8,72.9z"/>
</g>
</svg>
