<svg id="Layer_1" data-name="Layer 1" xmlns="http://www.w3.org/2000/svg" viewBox="0 0 973.9 213.77"><title>img-logo</title><path d="M197.7,63.9c1.5-.9,2.8-0.2,2.8,1.5v97.4a5.93,5.93,0,0,1-2.8,4.7l-84.9,48.7c-1.5.9-2.8,0.2-2.8-1.5V117.3a5.93,5.93,0,0,1,2.8-4.7Z" transform="translate(-10.1 -2.82)" style="fill:#00a8df"/><path d="M183.3,114.8c-3,1.5-5.3,6.1-5.3,9.9v8.4l-45.7,26.3V151c0-3.8-2.3-5.7-5.3-3.8-3,1.5-5.3,6.1-5.3,9.9v15.6c0,3.8,2.3,5.7,5.3,3.8l1.9-1.1V180c0,1.5.8,2.3,2.3,1.5a4.49,4.49,0,0,0,2.3-4.2v-4.6l43.8-25.2v4.6c0,1.5.8,2.3,2.3,1.5a5.38,5.38,0,0,0,2.3-4.2v-4.6l1.9-1.1c3-1.5,5.3-6.1,5.3-9.9V118.2c-0.5-3-2.7-4.9-5.8-3.4" transform="translate(-10.1 -2.82)" style="fill:#fff"/><path d="M134.8,149.9v4.9l18.7-10.7V123.5c0-1.9-1.1-2.7-2.3-1.9L139,128.8c-4.2,2.3-7.6,8-8,14.8,2.3,0.2,3.8,3.2,3.8,6.3" transform="translate(-10.1 -2.82)" style="fill:#fff"/><path d="M174.9,127a20,20,0,0,1,4.2-12.6c-0.4-4.6-3.8-6.8-8-4.6L158.9,117a6.22,6.22,0,0,0-2.3,4.6v20.6l18.3-10.3V127h0Z" transform="translate(-10.1 -2.82)" style="fill:#fff"/><path d="M103.1,3.5a5.74,5.74,0,0,1,5.4,0l84.2,49c1.5,0.9,1.5,2.3,0,3.1l-84.7,49a5.74,5.74,0,0,1-5.4,0l-84.2-49c-1.5-.9-1.5-2.3,0-3.1Z" transform="translate(-10.1 -2.82)" style="fill:#62bb46"/><path d="M122.6,61.7c-5.3,3-10.7,6.1-16,9.1-0.8.4-1.1,0.8,0,1.5,1.9,1.1,3.4,1.9,5.3,3,2.3,1.5,2.7,3,1.5,4.6s-3.8,2.3-6.5,1.9c-1.5,0-3-.8-4.2-1.1-1.9-1.1-3.4-1.9-5.3-3-0.8-.4-1.1-0.4-1.5,0-1.1.8-2.3,1.1-3.4,1.9a1.09,1.09,0,0,1-1.5,0c-5.7-3.4-11.8-6.8-17.6-10.3-3.4-1.9-4.2-4.6-1.9-6.8a1.08,1.08,0,0,0,0-1.1c-2.7-3.4-5.3-6.8-8.4-10.3-2.7-3-2.3-5.3,1.9-7.6,8.7-4.9,17.6-9.9,26.3-15.2,4.2-2.3,7.6-2.7,13.3-1.1s11.4,3,17.2,4.6a3.15,3.15,0,0,0,2.7,0c3.8-.8,7.2-0.8,10.7.8a47.39,47.39,0,0,1,5.3,3c4.2,2.7,8.7,4.9,12.9,7.6,0.8,0.4.8,0.8,0,1.1a7.71,7.71,0,0,0-3,1.9c-0.8.4-.8,0.8,0,1.1,1.9,1.1,3.4,1.9,5.3,3,3,1.9,3.4,3.8.8,5.3a9.53,9.53,0,0,1-9.5-.4,23.75,23.75,0,0,1-4.9-3c-0.8-.4-1.1-0.4-2.3,0-6.5,3.5-11.9,6.5-17.2,9.5m-26-14.8c6.5-3.8,12.9-7.6,19.9-11.4,0.8-.4.8-0.8-0.4-1.1-4.9-1.5-9.5-2.7-14.5-4.2-3-.8-4.2-0.8-6.5.4-8.7,4.9-17.2,9.9-26,14.8-2.3,1.1-2.7,1.9-1.1,3.8,2.3,2.7,4.6,5.3,6.8,8.4,0.8,0.8,1.1.8,1.9,0.4,7-3.5,13.4-7.3,19.9-11.1M80.2,62.1c-2.7,1.5-2.3,3.8.4,5.7,2.7,1.5,7.2,1.9,9.9.4s2.3-3.8-.4-5.7c-3-1.5-7.6-1.5-9.9-.4m52.7-24.4c-2.7-1.5-7.2-1.9-9.9-.4s-2.3,3.8.8,5.7c3,1.5,7.2,1.9,9.9.4s2.3-4.2-.8-5.7" transform="translate(-10.1 -2.82)" style="fill:#fff"/><path d="M12.9,63.8c-1.5-.9-2.8-0.2-2.8,1.5v97.4a5.93,5.93,0,0,0,2.8,4.7l84.9,48.7c1.5,0.9,2.8.2,2.8-1.5V117.2a5.93,5.93,0,0,0-2.8-4.7Z" transform="translate(-10.1 -2.82)" style="fill:#ffcb05"/><path d="M82.8,158.9s-27.2-49.3-27.6-49.3c-0.4-1.1-1.1-1.1-1.5-.8-2.7,1.5-7.3,4.9-12.3,7.9l0.1-10.3a3.27,3.27,0,0,0-1.5-2.3l-4.2-2.3c-0.8-.4-1.5-0.4-1.5.4l-0.1,19.1a96.3,96.3,0,0,1-8.1,5.3c-0.8.8,0,1.1,1.5,1.9,3,1.9,4.9,3,6.5,3.9-0.1,11-.1,22.9-0.2,33.2,3.4,1.9,10.3,5.8,13.3,7.7,0.1-9.1.1-18,.2-24.8,3.8,2.3,10.3,6.2,14.1,8.1-0.1,9.9-.1,18.7-0.2,24.8,4.9,3,9.9,5.8,13.3,7.7,0-5.7.1-19.1,0.2-33.9,3.4,1.9,5.3,3,7.2,4.3,0.8,0.9,1.2.6,0.8-.6" transform="translate(-10.1 -2.82)" style="fill:#fff"/><path d="M789.9,132.9a18,18,0,1,0,18,18,18,18,0,0,0-18-18" transform="translate(-10.1 -2.82)" style="fill:#ec2c28"/><path d="M298,22h-4.6a4.47,4.47,0,0,0-2.7,1.1L239.5,68.5a3.94,3.94,0,0,0-1.1,2.7v8a3.57,3.57,0,0,0,3.8,3.8h15.6v43.8c0,15.2,2.3,23.3,8.7,29.4,7.2,7.2,20.3,11.8,34.7,11.8,14.1,0,25.6-3.4,36.6-11.4a3.56,3.56,0,0,0,1.5-3V128.8a4,4,0,0,0-1.9-3.4,4.71,4.71,0,0,0-3.8,0c-6.8,3.4-12.9,5.3-19.1,5.3-9.1,0-12.9-4.6-12.9-14.8V82.6H333a3.57,3.57,0,0,0,3.8-3.8V58.5a3.57,3.57,0,0,0-3.8-3.8H301.7V25.3c0.1-1.4-1.8-3.3-3.7-3.3" transform="translate(-10.1 -2.82)" style="fill:#ec2c28"/><path d="M466.2,55.2H430a3.57,3.57,0,0,0-3.8,3.8v61.8c-5.7,8-10.6,11.4-17.2,11.4-11.4,0-12.9-8.4-12.9-16.8V58.9a3.57,3.57,0,0,0-3.8-3.8H356a3.57,3.57,0,0,0-3.8,3.8V126c0,12.6,3.8,41.9,37.7,41.9,15.2,0,27.5-6.1,37.7-19.1,3.4,14.1,11,19.1,28.2,19.1a77.94,77.94,0,0,0,16.7-1.5,4.14,4.14,0,0,0,2.7-2.3l8-21.8c0.4-1.1.4-2.7-.4-3.4a3.56,3.56,0,0,0-3-1.5h-0.4c-8.4,0-9.9-7.6-9.9-12.2V58.9c0.5-1.8-1.4-3.7-3.3-3.7" transform="translate(-10.1 -2.82)" style="fill:#ec2c28"/><path d="M652.6,22H648a4.47,4.47,0,0,0-2.7,1.1l-50.8,45a3.94,3.94,0,0,0-1.1,2.7v8a3.57,3.57,0,0,0,3.8,3.8h15.6v43.8c0,15.2,2.3,23.3,8.7,29.4,7.2,7.2,20.3,11.8,34.7,11.8,14.1,0,25.6-3.4,36.6-11.4a3.56,3.56,0,0,0,1.5-3V128.4a4,4,0,0,0-1.9-3.4,4.71,4.71,0,0,0-3.8,0c-6.8,3.4-12.9,5.3-19.1,5.3-9.1,0-12.9-4.6-12.9-14.8V82.2H688a3.57,3.57,0,0,0,3.8-3.8V58.1a3.57,3.57,0,0,0-3.8-3.8H656.8V24.9a4.84,4.84,0,0,0-4.2-2.9" transform="translate(-10.1 -2.82)" style="fill:#ec2c28"/><path d="M864.8,87.5c-29.8,0-43.1,20.3-43.1,40.4,0,23.3,18,39.7,43.8,39.7,8,0,13.7-1.1,22.2-3.8a3.73,3.73,0,0,0,2.7-3.4V143.7a4.81,4.81,0,0,0-1.5-3,5.29,5.29,0,0,0-2.3-.8,1.19,1.19,0,0,0-1.1.4c-5.7,1.9-9.5,2.7-14.1,2.7-11.4,0-19.1-6.1-19.1-14.8,0-9.1,7.2-15.2,18.4-15.2a39.53,39.53,0,0,1,14.5,2.7c0.4,0,.8.4,1.1,0.4a5.29,5.29,0,0,0,2.3-.8,3.56,3.56,0,0,0,1.5-3V94.8a4.55,4.55,0,0,0-2.7-3.8,76.11,76.11,0,0,0-22.6-3.5" transform="translate(-10.1 -2.82)" style="fill:#ec2c28"/><path d="M929.2,66.6H906.3a3.57,3.57,0,0,0-3.8,3.8v92.7a3.57,3.57,0,0,0,3.8,3.8h22.9a3.57,3.57,0,0,0,3.8-3.8V120.4c3.4-4.9,7.6-7.6,11.8-7.6,8,0,8.7,8,8.7,11.4v38.5a3.57,3.57,0,0,0,3.8,3.8h22.9a3.57,3.57,0,0,0,3.8-3.8V116.2c0-24.8-16.8-28.6-26.7-28.6-10.3,0-17.6,3.4-24.8,11V70c0.5-1.9-1-3.4-3.3-3.4" transform="translate(-10.1 -2.82)" style="fill:#ec2c28"/><path d="M751.8,55.2H715.6a3.57,3.57,0,0,0-3.8,3.8V162.7a3.57,3.57,0,0,0,3.8,3.8h36.2a3.57,3.57,0,0,0,3.8-3.8V59a4.09,4.09,0,0,0-3.8-3.8" transform="translate(-10.1 -2.82)" style="fill:#ec2c28"/><path d="M733.6,7.8a19.76,19.76,0,0,0-19.9,19.9,19.76,19.76,0,0,0,19.9,19.9,19.9,19.9,0,1,0,0-39.8" transform="translate(-10.1 -2.82)" style="fill:#ec2c28"/><path d="M542.8,22h-4.6a4.47,4.47,0,0,0-2.7,1.1L484.3,68.5a3.94,3.94,0,0,0-1.1,2.7v8A3.57,3.57,0,0,0,487,83h15.7v43.8c0,15.2,2.3,23.3,8.7,29.4,7.2,7.2,20.3,11.8,34.7,11.8,14.1,0,25.6-3.4,36.6-11.4a3.56,3.56,0,0,0,1.5-3V128.8a4,4,0,0,0-1.9-3.4,4.71,4.71,0,0,0-3.8,0c-6.8,3.4-12.9,5.3-19.1,5.3-9.1,0-12.9-4.6-12.9-14.8V82.6h31.3a3.57,3.57,0,0,0,3.8-3.8V58.5a3.57,3.57,0,0,0-3.8-3.8H546.5V25.3a3.56,3.56,0,0,0-3.7-3.3" transform="translate(-10.1 -2.82)" style="fill:#ec2c28"/></svg>