<svg id="Layer_1" xmlns="http://www.w3.org/2000/svg" width="204.4" height="139.8"><style>.st2{fill:#999}.st3{fill:#f1f1f1}.st4{fill:none;stroke:#ccc;stroke-width:3.7749;stroke-linecap:round;stroke-linejoin:round;stroke-miterlimit:10}.st5{fill:#e1e1e1}.st6{fill:none;stroke:#c3c3c3;stroke-width:2.1864;stroke-linecap:round;stroke-linejoin:round;stroke-miterlimit:10}.st8{fill:#fff}.st9{fill:#ed2c28}</style><path d="M53.3 13c.2.2.3.5.3.8v10.7c0 .3-.1.6-.3.8-.2.2-.4.3-.8.3s-.6-.1-.7-.3c-.2-.2-.3-.5-.3-.8v-7.4l-3.1 5.8c-.1.3-.3.5-.5.6s-.4.2-.6.2c-.2 0-.4-.1-.6-.2-.2-.1-.3-.3-.5-.6l-3.1-5.7v7.3c0 .3-.1.6-.3.8-.2.2-.4.3-.7.3s-.6-.1-.7-.3c-.2-.2-.3-.5-.3-.8V13.9c0-.3.1-.6.3-.8.2-.2.5-.3.8-.3.5 0 .8.3 1.1.8l4 7.6 4-7.6c.3-.5.6-.8 1.1-.8.4-.1.7 0 .9.2zm3 1.6c-.2-.3-.3-.6-.3-.9 0-.4.1-.6.4-.9.2-.2.6-.3 1-.3s.7.1 1 .3c.2.2.4.5.4.9s-.1.7-.4.9c-.2.2-.6.3-1 .3s-.8-.1-1.1-.3zm.2 10.7c-.2-.2-.3-.5-.3-.8v-7c0-.3.1-.6.3-.8.2-.2.5-.3.8-.3s.6.1.8.3c.2.2.3.4.3.8v7c0 .3-.1.6-.3.8-.2.2-.5.3-.8.3s-.6-.1-.8-.3zm11.7-2c.1.2.2.4.2.6 0 .4-.2.7-.7.9-.4.2-.9.4-1.4.5-.5.1-1 .2-1.5.2-1.4 0-2.5-.4-3.4-1.2-.8-.8-1.2-1.9-1.2-3.3 0-.9.2-1.7.5-2.4.4-.7.9-1.2 1.5-1.6.7-.4 1.4-.6 2.2-.6.8 0 1.5.2 2.1.5.6.3 1 .8 1.4 1.5.3.6.5 1.4.5 2.3 0 .5-.2.8-.7.8h-5.3c.1.8.3 1.4.7 1.8.4.4 1 .6 1.7.6.4 0 .7 0 1-.1.3-.1.6-.2 1-.4s.6-.3.8-.3c.3 0 .5 0 .6.2zm-5.1-4.7c-.4.4-.6.9-.7 1.7h4.1c0-.7-.2-1.3-.5-1.7-.3-.4-.8-.6-1.4-.6-.6 0-1.1.2-1.5.6zm7.4-4c-.2-.2-.4-.5-.4-.9s.1-.6.4-.9c.2-.2.6-.3 1-.3s.7.1 1 .3c.2.2.4.5.4.9s-.1.7-.4.9c-.2.2-.6.3-1 .3s-.8-.1-1-.3zm.1 10.7c-.2-.2-.3-.5-.3-.8v-7c0-.3.1-.6.3-.8.2-.2.5-.3.8-.3s.6.1.8.3c.2.2.3.4.3.8v7c0 .3-.1.6-.3.8-.2.2-.5.3-.8.3s-.6-.1-.8-.3zm15.7-7.9c.6.6.9 1.5.9 2.8v4.4c0 .3-.1.6-.3.8-.2.2-.5.3-.8.3-.3 0-.6-.1-.8-.3-.2-.2-.3-.4-.3-.8v-.4c-.2.5-.5.8-1 1.1-.4.3-.9.4-1.5.4s-1.1-.1-1.6-.4c-.5-.2-.9-.6-1.1-1-.3-.4-.4-.9-.4-1.4 0-.6.2-1.2.5-1.5s.9-.6 1.6-.8c.7-.2 1.8-.3 3.1-.3h.5v-.4c0-.6-.1-1-.4-1.3-.3-.3-.7-.4-1.2-.4-.3 0-.7.1-1.1.2-.4.1-.8.2-1.3.4-.3.2-.5.2-.7.2-.2 0-.4-.1-.5-.2-.1-.2-.2-.4-.2-.6 0-.2.1-.4.2-.5.1-.2.3-.3.5-.4.4-.2.9-.4 1.5-.5.6-.1 1.2-.2 1.7-.2 1.2-.1 2.1.2 2.7.8zm-1.8 6c.4-.4.6-.9.6-1.6v-.4h-.3c-.8 0-1.4 0-1.9.1-.4.1-.8.2-1 .4-.2.2-.3.4-.3.7 0 .4.1.7.4.9s.6.4 1 .4c.6.1 1.1-.1 1.5-.5zm12.5-6c.5.6.8 1.5.8 2.7v4.4c0 .3-.1.6-.3.8-.2.2-.5.3-.8.3-.3 0-.6-.1-.8-.3-.2-.2-.3-.5-.3-.8v-4.3c0-.7-.1-1.2-.4-1.5-.3-.3-.7-.5-1.2-.5-.6 0-1.2.2-1.6.6-.4.4-.6 1-.6 1.6v4c0 .3-.1.6-.3.8-.2.2-.5.3-.8.3s-.6-.1-.8-.3c-.2-.2-.3-.5-.3-.8v-7c0-.3.1-.6.3-.8.2-.2.5-.3.8-.3.3 0 .6.1.8.3.2.2.3.4.3.7v.7c.3-.5.7-.9 1.2-1.1.5-.3 1.1-.4 1.7-.4 1 0 1.8.3 2.3.9zm10.5 0c.5.6.8 1.5.8 2.7v4.4c0 .3-.1.6-.3.8-.2.2-.5.3-.8.3-.3 0-.6-.1-.8-.3-.2-.2-.3-.5-.3-.8v-4.3c0-.7-.1-1.2-.4-1.5-.3-.3-.7-.5-1.2-.5-.6 0-1.2.2-1.6.6-.4.4-.6 1-.6 1.6v4c0 .3-.1.6-.3.8-.2.2-.5.3-.8.3s-.6-.1-.8-.3c-.2-.2-.3-.5-.3-.8v-7c0-.3.1-.6.3-.8.2-.2.5-.3.8-.3.3 0 .6.1.8.3.2.2.3.4.3.7v.7c.3-.5.7-.9 1.2-1.1.5-.3 1.1-.4 1.7-.4 1 0 1.8.3 2.3.9zm10.8-.6c.2.2.3.5.3.8v7c0 .3-.1.6-.3.8-.2.2-.5.3-.8.3-.3 0-.6-.1-.8-.3-.2-.2-.3-.4-.3-.7v-.5c-.3.5-.6.8-1.1 1.1-.5.3-1 .4-1.6.4-2.2 0-3.2-1.2-3.2-3.6v-4.4c0-.3.1-.6.3-.8.2-.2.5-.3.8-.3.3 0 .6.1.8.3.2.2.3.5.3.8V22c0 .6.1 1.1.4 1.4.3.3.6.5 1.2.5s1.1-.2 1.5-.6.6-1 .6-1.6v-4c0-.3.1-.6.3-.8.2-.2.5-.3.8-.3.4-.1.6 0 .8.2zm10.2.6c.5.6.8 1.5.8 2.7v4.4c0 .3-.1.6-.3.8-.2.2-.5.3-.8.3-.3 0-.6-.1-.8-.3-.2-.2-.3-.5-.3-.8v-4.3c0-.7-.1-1.2-.4-1.5-.3-.3-.7-.5-1.2-.5-.6 0-1.2.2-1.6.6-.4.4-.6 1-.6 1.6v4c0 .3-.1.6-.3.8-.2.2-.5.3-.8.3-.3 0-.6-.1-.8-.3-.2-.2-.3-.5-.3-.8v-7c0-.3.1-.6.3-.8.2-.2.5-.3.8-.3.3 0 .6.1.8.3.2.2.3.4.3.7v.7c.3-.5.7-.9 1.2-1.1.5-.3 1.1-.4 1.7-.4 1 0 1.7.3 2.3.9zm4.6 7.7c-.7-.4-1.2-.9-1.5-1.6-.4-.7-.5-1.5-.5-2.4s.2-1.7.6-2.4c.4-.7.9-1.2 1.6-1.6.7-.4 1.5-.6 2.4-.6.5 0 .9.1 1.4.2.5.1.9.3 1.3.5.4.3.6.6.6 1 0 .3-.1.5-.2.6s-.3.2-.5.2c-.1 0-.3 0-.4-.1-.1-.1-.3-.1-.4-.2-.3-.2-.5-.3-.8-.4s-.5-.1-.8-.1c-.7 0-1.3.2-1.7.7-.4.5-.6 1.2-.6 2.1 0 .9.2 1.6.6 2.1s1 .7 1.7.7c.3 0 .6 0 .8-.1.2-.1.5-.2.8-.4.2-.1.3-.2.5-.2.1-.1.3-.1.4-.1.2 0 .4.1.5.3s.2.4.2.6c0 .2 0 .4-.1.5s-.2.3-.4.4c-.4.2-.8.4-1.3.6-.5.1-1 .2-1.5.2-1.3 0-2-.2-2.7-.5zm7.4-10.5c-.2-.2-.4-.5-.4-.9s.1-.6.4-.9c.2-.2.6-.3 1-.3s.7.1 1 .3c.2.2.4.5.4.9s-.1.7-.4.9c-.2.2-.6.3-1 .3s-.8-.1-1-.3zm.1 10.7c-.2-.2-.3-.5-.3-.8v-7c0-.3.1-.6.3-.8.2-.2.5-.3.8-.3s.6.1.8.3c.2.2.3.4.3.8v7c0 .3-.1.6-.3.8-.2.2-.5.3-.8.3s-.6-.1-.8-.3z" fill="#666"/><path class="st2" d="M16.3 0c-5 0-9 4.1-9 9.1s4 9 9 9 9.1-4.1 9-9.1c.1-4.9-4-9-9-9zm7.5 21.4l-.3.2c-2.1 1.2-4.6 1.8-7.1 1.8-2.4 0-4.8-.6-6.9-1.7l-.3-.2-.3.2C3.4 24.6 0 30.2 0 36.4c0 1.2 1 2.3 2.3 2.3h28.6c1.2 0 2.3-1 2.3-2.3 0-6.3-3.5-11.9-9-14.8l-.4-.2z"/><path class="st3" d="M157.2 131.4H17.4c-2 0-3.5-1.6-3.5-3.5V88c0-2 1.6-3.5 3.5-3.5h139.8c2 0 3.5 1.6 3.5 3.5v39.9c0 1.9-1.6 3.5-3.5 3.5z"/><path class="st4" d="M69.2 93.6h82m-32 10.5h32m-82 0h34.6"/><path class="st5" d="M57.5 131.4H17.4c-1.9 0-3.5-1.6-3.5-3.5V87.8c0-1.9 1.6-3.5 3.5-3.5h40.1c1.9 0 3.5 1.6 3.5 3.5v40.1c0 2-1.5 3.5-3.5 3.5z"/><path class="st6" d="M20 118.4l9.9-20.3 10.2 14 7.3-5.4 7.6 11.7z"/><circle class="st6" cx="42.2" cy="100.7" r="3.2"/><path class="st2" d="M70.1 127.7H120c1 0 1.8-.8 1.8-1.8v-8.7c0-1-.8-1.8-1.8-1.8H70.1c-1 0-1.8.8-1.8 1.8v8.7c0 1 .8 1.8 1.8 1.8z"/><path fill="none" stroke="#c3c3c3" stroke-width="3" stroke-linecap="round" stroke-linejoin="round" stroke-miterlimit="10" d="M86.8 121.5h28.8"/><path class="st8" d="M74.7 123.3h3.6v.6h-3.6v-.6zm0 1.3h3.6v.6h-3.6v-.6zm5.5-3.9l-3.8-3-3.8 3h2v1.9h3.6v-1.9"/><path class="st3" d="M157.2 79H17.4c-2 0-3.5-1.6-3.5-3.5V35.6c0-2 1.6-3.5 3.5-3.5h139.8c2 0 3.5 1.6 3.5 3.5v39.9c0 2-1.6 3.5-3.5 3.5z"/><path class="st4" d="M69.2 41.3h82m-32 10.4h32m-82 0h34.6"/><path class="st5" d="M13 35.5c0-2.5 2-4.5 4.5-4.5h29.4l.1.9c.7 8.1-2.7 15.1-9.8 20.2-5.7 4.1-13.9 7.1-23 8.2l-1.1.1V35.5H13z"/><path class="st8" d="M46 32c1.5 17.1-16 25.3-32 27.4V35.5c0-1.9 1.6-3.5 3.5-3.5H46m1.8-2H17.5c-3 0-5.5 2.5-5.5 5.5v26.2l2.3-.3c9.3-1.2 17.6-4.2 23.5-8.4 7.5-5.4 11-12.7 10.2-21.1l-.2-1.9z"/><path class="st5" d="M57.5 79.1H17.4c-1.9 0-3.5-1.6-3.5-3.5V35.5c0-1.9 1.6-3.5 3.5-3.5h40.1c1.9 0 3.5 1.6 3.5 3.5v40.1c0 1.9-1.5 3.5-3.5 3.5z"/><path class="st6" d="M20 66l9.9-20.3 10.2 14 7.3-5.3L55 66z"/><circle class="st6" cx="42.2" cy="48.4" r="3.2"/><path class="st9" d="M70.1 75.3H120c1 0 1.8-.8 1.8-1.8v-8.7c0-1-.8-1.8-1.8-1.8H70.1c-1 0-1.8.8-1.8 1.8v8.7c0 1 .8 1.8 1.8 1.8z"/><path fill="none" stroke="#f27e7c" stroke-width="3" stroke-linecap="round" stroke-linejoin="round" stroke-miterlimit="10" d="M86.8 69.2h28.8"/><path class="st8" d="M74.7 71h3.6v.6h-3.6V71zm0 1.3h3.6v.6h-3.6v-.6zm5.5-3.9l-3.8-3-3.8 3h2v1.9h3.6v-1.9"/><path opacity=".6" fill="#fff" d="M109.6 135.7L78.2 73l-1.6-7.5 38.3-21.8z"/><path class="st9" d="M121.5 141.5c-7 0-12.7-5.7-12.7-12.7V56.7c0-7 5.7-12.7 12.7-12.7h72.1c7 0 12.7 5.7 12.7 12.7v72.1c0 7-5.7 12.7-12.7 12.7h-72.1z"/><path class="st8" d="M193.7 46.1c5.9 0 10.7 4.8 10.7 10.7v72.1c0 5.9-4.8 10.7-10.7 10.7h-72.1c-5.9 0-10.7-4.8-10.7-10.7V56.8c0-5.9 4.8-10.7 10.7-10.7h72.1m0-4h-72.1c-8.1 0-14.7 6.6-14.7 14.7v72.1c0 8.1 6.6 14.7 14.7 14.7h72.1c8.1 0 14.7-6.6 14.7-14.7V56.8c-.1-8.1-6.7-14.7-14.7-14.7z"/><path class="st8" d="M142.5 108.4h31v5.4h-31v-5.4zm0 11.2h31v5.4h-31v-5.4zm47.2-33.3l-32.1-25.7-32.1 25.6h17v16.4h31V86.2"/></svg>