<svg xmlns="http://www.w3.org/2000/svg" width="300" height="300"><style>.st0{display:none}.st2{fill:#0099e5}</style><path fill="#ff7a2a" d="M0 0h300v300H0z" id="Ebene_6"/><g id="Bump"><path class="st2" d="M150.3 194.7c-17.9 25.8-63.5 21.1-75.4 6.3 9.1 6.4 83.8 25.9 35.9-73.1l-25.4 19.3s7.8-43.1 14.4-80.1c31 16.2 73.3 41.4 73.3 41.4l-31.9 6c12 23.2 16.6 41.6 16.4 55.8 12-24.1 36.6-40.9 65.2-41.6-6.3-54.8-52.8-97.4-109.3-97.4-60.8 0-110 49.2-110 110 0 60.7 47.6 110 108.4 110 16.9 0 32.9-3.8 47.4-10.6-6-10.9-9.4-23.5-9.4-37.1-.1-3.2.1-6.1.4-8.9z"/><path class="st2" d="M224.7 132.9c-38.9 0-70.5 31.6-70.5 70.5 0 39.5 30.5 70.5 69.5 70.5 39.5 0 71.6-31.6 71.6-70.5s-31.7-70.5-70.6-70.5zm-16.8 104.4l-9.5-14.3-9.5 14.3h-14l16.3-23.9-14.9-21.5h14.2l8 11.9 7.9-11.9h13.8l-14.9 21.3 16.8 24.2h-14.2zm51.1 0h-15.6v-49.9h-19.3v-11.7c2.7.1 5.3-.1 7.9-.6 2.5-.5 4.8-1.3 6.8-2.5s3.7-2.8 5.1-4.8c1.4-2 2.3-4.4 2.7-7.4H259v76.9z"/></g></svg>