<?xml version="1.0" encoding="utf-8"?>
<!-- Generator: Adobe Illustrator 23.0.0, SVG Export Plug-In . SVG Version: 6.00 Build 0)  -->
<svg version="1.1" id="Layer_1" xmlns="http://www.w3.org/2000/svg" xmlns:xlink="http://www.w3.org/1999/xlink" x="0px" y="0px"
	 viewBox="0 0 32 32" style="enable-background:new 0 0 32 32;" xml:space="preserve">
<title>Icon / Premium / Bump1</title>
<desc>Created with Sketch.</desc>
<g>
	<path id="Combined-Shape" class="st0" style="fill-rule:evenodd;clip-rule:evenodd;fill:#616B77;" d="M13,4c6.64,0,12,5.36,12,12s-5.36,12-12,12S1,22.64,1,16S6.36,4,13,4z M17.794,15.442
		l-2.373-3.949l3.353,0.914l0.346-1.554l-5.968-1.627l-1.365,6.034l1.53,0.417l0.771-3.383l2.373,3.949
		c1.046,1.741,0.55,3.935-1.117,4.937s-3.837,0.41-4.883-1.331l-1.465-2.438l-1.333,0.801l1.465,2.438
		c1.502,2.5,4.66,3.361,7.054,1.923C18.574,21.135,19.297,17.942,17.794,15.442z M7.322,14.625l-1.333,0.801l0.837,1.393
		l1.333-0.801L7.322,14.625z"/>
	<g id="Group-7" transform="translate(17.000000, 0.000000)">
		<g id="Group-2" transform="translate(0.072222, 0.361111)">
			<path id="Shape" class="st1" style="fill-rule:evenodd;clip-rule:evenodd;fill:#ED2C28;" d="M12.84,2.255l-8.165-2.19C3.623-0.211,2.531,0.414,2.246,1.467L0.065,9.616
				c-0.276,1.044,0.349,2.125,1.393,2.412l2.35,0.633l3.611,0.985l2.19,0.588c1.044,0.276,2.133-0.349,2.412-1.393l2.215-8.174
				C14.509,3.612,13.884,2.531,12.84,2.255z"/>
		</g>
		<g class="st2" style="enable-background:new;" >
			<path class="st3" style="fill:#FFFFFF;" d="M8.876,6.966h0.717c0.342,0,0.595-0.086,0.759-0.256c0.164-0.171,0.247-0.397,0.247-0.68
				c0-0.273-0.082-0.486-0.245-0.638C10.191,5.24,9.967,5.164,9.682,5.164c-0.258,0-0.474,0.07-0.647,0.212S8.773,5.701,8.773,5.928
				H7.429c0-0.354,0.095-0.671,0.286-0.952c0.19-0.281,0.457-0.5,0.801-0.659c0.343-0.158,0.721-0.237,1.133-0.237
				c0.717,0,1.279,0.172,1.686,0.515s0.609,0.815,0.609,1.418c0,0.31-0.095,0.596-0.283,0.856c-0.189,0.261-0.438,0.461-0.745,0.601
				c0.382,0.136,0.666,0.341,0.854,0.614c0.188,0.272,0.281,0.596,0.281,0.968c0,0.603-0.22,1.085-0.659,1.448
				c-0.438,0.362-1.02,0.544-1.743,0.544c-0.676,0-1.229-0.178-1.659-0.535C7.56,10.151,7.345,9.68,7.345,9.093h1.345
				c0,0.255,0.096,0.463,0.287,0.624c0.19,0.161,0.426,0.242,0.705,0.242c0.319,0,0.57-0.085,0.752-0.254
				c0.181-0.169,0.271-0.394,0.271-0.673c0-0.677-0.372-1.015-1.117-1.015H8.876V6.966z"/>
		</g>
		<path id="x" class="st4" style="fill-rule:evenodd;clip-rule:evenodd;fill:#FFFFFF;" d="M5.363,10.003L4.556,8.981l-0.827,1.022c-0.12,0.143-0.221,0.245-0.304,0.306
			C3.342,10.37,3.237,10.4,3.109,10.4c-0.141,0-0.261-0.038-0.361-0.114C2.65,10.21,2.6,10.122,2.6,10.024
			c0-0.101,0.076-0.245,0.228-0.432l1.007-1.244L2.942,7.312C2.787,7.141,2.71,6.992,2.71,6.865c0-0.098,0.046-0.184,0.139-0.256
			C2.941,6.536,3.062,6.5,3.211,6.5c0.13,0,0.238,0.032,0.324,0.095c0.086,0.063,0.185,0.163,0.3,0.299l0.721,0.85l0.701-0.85
			c0.117-0.141,0.218-0.241,0.304-0.302C5.646,6.53,5.753,6.5,5.881,6.5c0.147,0,0.268,0.036,0.365,0.107
			C6.342,6.679,6.39,6.765,6.39,6.865c0,0.073-0.02,0.142-0.059,0.209C6.291,7.141,6.231,7.22,6.15,7.312L5.257,8.348l1.007,1.244
			C6.421,9.786,6.5,9.933,6.5,10.031c0,0.101-0.049,0.187-0.147,0.26C6.255,10.364,6.135,10.4,5.991,10.4
			c-0.128,0-0.236-0.032-0.324-0.095C5.578,10.242,5.477,10.141,5.363,10.003z"/>
	</g>
</g>
</svg>
