<svg xmlns="http://www.w3.org/2000/svg" viewBox="0 0 32 32"><path d="M13 4c6.64 0 12 5.36 12 12s-5.36 12-12 12S1 22.64 1 16 6.36 4 13 4zm4.794 11.442l-2.373-3.949 3.353.914.346-1.554-5.968-1.627-1.365 6.034 1.53.417.771-3.383 2.373 3.949c1.046 1.741.55 3.935-1.117 4.937s-3.837.41-4.883-1.331l-1.465-2.438-1.333.801 1.465 2.438c1.502 2.5 4.66 3.361 7.054 1.923 2.392-1.438 3.115-4.631 1.612-7.131zm-10.472-.817l-1.333.801.837 1.393 1.333-.801-.837-1.393z" fill-rule="evenodd" clip-rule="evenodd"/><path d="M29.912 2.616L21.747.426a1.996 1.996 0 00-2.429 1.402l-2.18 8.15a1.985 1.985 0 001.392 2.411l2.35.633 3.611.985 2.19.588a1.981 1.981 0 002.412-1.393l2.215-8.174a1.979 1.979 0 00-1.396-2.412z" fill-rule="evenodd" clip-rule="evenodd" fill="#ed2c28"/><text transform="translate(24.047 10.95)" font-size="9.533" font-family="Roboto-Bold" fill="#fff">3</text><path d="M22.363 10.003l-.807-1.022-.827 1.022a1.93 1.93 0 01-.304.306.519.519 0 01-.316.091.579.579 0 01-.361-.114c-.098-.076-.148-.164-.148-.262 0-.101.076-.245.228-.432l1.007-1.244-.893-1.036c-.155-.171-.232-.32-.232-.447 0-.098.046-.184.139-.256a.566.566 0 01.362-.109c.13 0 .238.032.324.095.086.063.185.163.3.299l.721.85.701-.85c.117-.141.218-.241.304-.302a.529.529 0 01.32-.092.6.6 0 01.365.107c.096.072.144.158.144.258 0 .073-.02.142-.059.209-.04.067-.1.146-.181.238l-.893 1.036 1.007 1.244c.157.194.236.341.236.439 0 .101-.049.187-.147.26a.587.587 0 01-.362.109.542.542 0 01-.324-.095 1.7 1.7 0 01-.304-.302z" fill-rule="evenodd" clip-rule="evenodd" fill="#fff"/></svg>