<?xml version="1.0" encoding="utf-8"?>
<!-- Generator: Adobe Illustrator 22.0.1, SVG Export Plug-In . SVG Version: 6.00 Build 0)  -->
<svg version="1.1" id="Layer_1" xmlns="http://www.w3.org/2000/svg" xmlns:xlink="http://www.w3.org/1999/xlink" x="0px" y="0px"
	 width="300px" height="300px" viewBox="0 0 300 300" style="enable-background:new 0 0 300 300;" xml:space="preserve">
<style type="text/css">
	.st0{fill:none;}
	.st1{fill:#0099E5;}
</style>
<g id="Bump">
	<path class="st0" d="M141.8,111.5l32.3-6c0,0-43-25.5-74.3-41.9C93,101,85.1,144.7,85.1,144.7l25.8-19.5
		c48.6,100.4-27.2,80.7-36.4,74.1c12.1,15,58.3,19.7,76.4-6.3c1.1-8.9,3.6-17.2,7.4-24.8C158.7,153.6,153.9,135,141.8,111.5z"/>
	<path class="st1" d="M150.9,192.9c-18.2,26.1-64.4,21.3-76.4,6.3c9.2,6.5,84.9,26.2,36.4-74.1l-25.8,19.5c0,0,7.9-43.7,14.7-81.2
		c31.5,16.5,74.3,41.9,74.3,41.9l-32.3,6c12.1,23.5,16.9,42.1,16.6,56.6c12.1-24.5,37.2-41.5,66.1-42.2C218.2,70.2,171,27,113.8,27
		C52,27.1,2.1,77,2.1,138.6S50.3,250.1,112,250.1c17.1,0,33.4-3.8,48-10.7c-6.1-11.1-9.6-23.9-9.6-37.7
		C150.4,198.7,150.6,195.7,150.9,192.9L150.9,192.9z"/>
	<path class="st1" d="M226.4,130.3c-39.4,0-71.5,32.1-71.5,71.5c0,40.1,30.9,71.5,70.4,71.5c40,0,72.6-32.1,72.6-71.5
		C297.9,162.2,265.8,130.3,226.4,130.3L226.4,130.3z M204.9,236.1l-9.6-14.5l-9.6,14.5h-14.1l16.6-24.2l-15.2-21.9h14.5l8.1,12l8-12
		h13.9l-15.1,21.5l17,24.5H204.9z M266.1,218.8v17.3h-14.4v-17.3h-31.6V205l32.4-43.5h13.5v44.9h9.9v12.5H266.1z"/>
	<path class="st1" d="M232.7,205.1h20.5V178h-0.3L232.7,205.1z"/>
</g>
</svg>
