<?xml version="1.0" encoding="utf-8"?>
<!-- Generator: Adobe Illustrator 22.0.1, SVG Export Plug-In . SVG Version: 6.00 Build 0)  -->
<svg version="1.1" xmlns="http://www.w3.org/2000/svg" xmlns:xlink="http://www.w3.org/1999/xlink" x="0px" y="0px" width="300px"
	 height="300px" viewBox="0 0 300 300" style="enable-background:new 0 0 300 300;" xml:space="preserve">
<style type="text/css">
	.st0{display:none;}
	.st1{display:inline;fill:#FF7A2A;}
	.st2{fill:#0099E5;}
</style>
<g id="Ebene_6" class="st0">
	<rect class="st1" width="300" height="300"/>
</g>
<g id="Ebene_3" class="st0">
</g>
<g id="Bump">
	<g>
		<path class="st2" d="M150.3,194.7c-17.9,25.8-63.5,21.1-75.4,6.3c9.1,6.4,83.8,25.9,35.9-73.1l-25.4,19.3h0
			c0,0,7.8-43.1,14.4-80.1c31,16.2,73.3,41.4,73.3,41.4l-31.9,6c12,23.2,16.6,41.6,16.4,55.8c12-24.1,36.6-40.9,65.2-41.6
			c-6.3-54.8-52.8-97.4-109.3-97.4c-60.8,0-110,49.2-110,110c0,60.7,47.6,110,108.4,110c16.9,0,32.9-3.8,47.4-10.6
			c-6-10.9-9.4-23.5-9.4-37.1C149.8,200.4,150,197.5,150.3,194.7z"/>
	</g>
	<g>
		<path class="st2" d="M224.7,132.9c-38.9,0-70.5,31.6-70.5,70.5c0,39.5,30.5,70.5,69.5,70.5c39.5,0,71.6-31.6,71.6-70.5
			C295.3,164.5,263.6,132.9,224.7,132.9z M207.9,237.3l-9.5-14.3l-9.5,14.3h-14l16.3-23.9l-14.9-21.5h14.2l8,11.9l7.9-11.9h13.8
			l-14.9,21.3l16.8,24.2H207.9z M259,237.3h-15.6v-49.9h-19.3v-11.7c2.7,0.1,5.3-0.1,7.9-0.6c2.5-0.5,4.8-1.3,6.8-2.5
			c2-1.2,3.7-2.8,5.1-4.8c1.4-2,2.3-4.4,2.7-7.4H259V237.3z"/>
	</g>
</g>
</svg>
