<svg id="Layer_1" xmlns="http://www.w3.org/2000/svg" width="300" height="300"><style>.st1{fill:#0099e5}</style><g id="Bump"><path d="M141.8 111.5l32.3-6s-43-25.5-74.3-41.9C93 101 85.1 144.7 85.1 144.7l25.8-19.5c48.6 100.4-27.2 80.7-36.4 74.1 12.1 15 58.3 19.7 76.4-6.3 1.1-8.9 3.6-17.2 7.4-24.8.4-14.6-4.4-33.2-16.5-56.7z" fill="none"/><path class="st1" d="M150.9 192.9c-18.2 26.1-64.4 21.3-76.4 6.3 9.2 6.5 84.9 26.2 36.4-74.1l-25.8 19.5s7.9-43.7 14.7-81.2c31.5 16.5 74.3 41.9 74.3 41.9l-32.3 6c12.1 23.5 16.9 42.1 16.6 56.6 12.1-24.5 37.2-41.5 66.1-42.2C218.2 70.2 171 27 113.8 27 52 27.1 2.1 77 2.1 138.6S50.3 250.1 112 250.1c17.1 0 33.4-3.8 48-10.7-6.1-11.1-9.6-23.9-9.6-37.7 0-3 .2-6 .5-8.8z"/><path class="st1" d="M226.4 130.3c-39.4 0-71.5 32.1-71.5 71.5 0 40.1 30.9 71.5 70.4 71.5 40 0 72.6-32.1 72.6-71.5 0-39.6-32.1-71.5-71.5-71.5zm-21.5 105.8l-9.6-14.5-9.6 14.5h-14.1l16.6-24.2L173 190h14.5l8.1 12 8-12h13.9l-15.1 21.5 17 24.5h-14.5zm61.2-17.3v17.3h-14.4v-17.3h-31.6V205l32.4-43.5H266v44.9h9.9v12.5h-9.8z"/><path class="st1" d="M232.7 205.1h20.5V178h-.3l-20.2 27.1z"/></g></svg>