<?xml version="1.0" encoding="utf-8"?>
<!-- Generator: Adobe Illustrator 22.0.1, SVG Export Plug-In . SVG Version: 6.00 Build 0)  -->
<svg version="1.1" id="Layer_1" xmlns="http://www.w3.org/2000/svg" xmlns:xlink="http://www.w3.org/1999/xlink" x="0px" y="0px"
	 width="300px" height="300px" viewBox="0 0 300 300" style="enable-background:new 0 0 300 300;" xml:space="preserve">
<style type="text/css">
	.st0{fill:#0099E5;}
</style>
<g id="Bump">
	<path class="st0" d="M151,192.8c-18.4,26.5-65.3,21.6-77.6,6.5c9.3,6.6,86.1,26.6,36.9-75.2l-26.1,19.8c0,0,8-44.4,14.8-82.3
		c31.8,16.7,75.4,42.5,75.4,42.5l-32.8,6.2c12.3,23.9,17.1,42.7,16.8,57.4c12.3-24.8,37.7-42,67-42.7
		C219,68.7,171.2,24.9,113.1,24.9C50.6,24.9,0,75.5,0,137.9c0,62.4,48.9,113,111.5,113c17.3,0,33.9-3.9,48.7-10.8
		c-6.2-11.1-9.7-24.2-9.7-38.2C150.4,198.8,150.6,195.8,151,192.8L151,192.8z"/>
	<path class="st0" d="M227.5,129.3c-39.9,0-72.5,32.5-72.5,72.5c0,40.6,31.4,72.5,71.4,72.5c40.6,0,73.6-32.5,73.6-72.5
		S267.4,129.3,227.5,129.3L227.5,129.3z M205.6,236.7l-9.7-14.7l-9.7,14.7h-14.4l16.8-24.6L173.2,190h14.6l8.2,12.2l8.1-12.2h14.2
		l-15.4,21.9l17.2,24.8H205.6L205.6,236.7z M274.5,175.4c-3.9,3.4-7.4,7.6-10.3,12.6c-3,5-5.5,10.2-7.6,15.8
		c-2.1,5.6-3.6,11.3-4.7,17c-1.1,5.7-1.7,11-1.7,16h-16.1c0.9-11,3.5-21.8,7.8-32s10.1-19.6,17.1-28.1h-35.2v-14h50.6V175.4
		L274.5,175.4z"/>
</g>
</svg>
