<?xml version="1.0" encoding="utf-8"?>
<!-- Generator: Adobe Illustrator 22.0.1, SVG Export Plug-In . SVG Version: 6.00 Build 0)  -->
<svg version="1.1" id="Layer_1" xmlns="http://www.w3.org/2000/svg" xmlns:xlink="http://www.w3.org/1999/xlink" x="0px" y="0px"
	 width="300px" height="300px" viewBox="0 0 300 300" style="enable-background:new 0 0 300 300;" xml:space="preserve">
<style type="text/css">
	.st0{fill:#0099E5;}
</style>
<g id="Bump">
	<path class="st0" d="M150.9,193.4c-18.2,26.2-64.5,21.4-76.6,6.4c9.2,6.5,85.1,26.3,36.5-74.3L85,145.2c0,0,7.9-43.8,14.6-81.4
		c31.5,16.5,74.5,42.1,74.5,42.1l-32.4,6.1c12.2,23.6,16.9,42.3,16.7,56.7c12.2-24.5,37.2-41.6,66.3-42.3
		c-6.4-55.7-53.7-99-111.1-99c-61.8,0-111.8,50-111.8,111.8c0,61.7,48.4,111.8,110.1,111.8c17.2,0,33.4-3.9,48.2-10.8
		c-6.1-11.1-9.6-23.9-9.6-37.7C150.4,199.2,150.6,196.3,150.9,193.4L150.9,193.4z"/>
	<path class="st0" d="M226.5,130.6c-39.5,0-71.6,32.1-71.6,71.6c0,40.1,31,71.6,70.6,71.6c40.1,0,72.8-32.1,72.8-71.6
		S266,130.6,226.5,130.6L226.5,130.6z M209.4,236.7l-9.7-14.5l-9.7,14.5h-14.2l16.6-24.3l-15.1-21.8h14.4l8.1,12.1l8-12.1h14
		l-15.1,21.6l17.1,24.6h-14.4L209.4,236.7z M261.4,236.7h-15.9V186h-19.6v-11.9c2.7,0.1,5.4-0.1,8-0.6c2.5-0.5,4.9-1.3,6.9-2.5
		c2-1.2,3.8-2.8,5.2-4.9c1.4-2,2.3-4.5,2.7-7.5h12.6V236.7z"/>
</g>
</svg>
