<?xml version="1.0" encoding="utf-8"?>
<!-- Generator: Adobe Illustrator 23.0.0, SVG Export Plug-In . SVG Version: 6.00 Build 0)  -->
<svg version="1.1" id="Layer_1" xmlns="http://www.w3.org/2000/svg" xmlns:xlink="http://www.w3.org/1999/xlink" x="0px" y="0px"
	 viewBox="0 0 46 46" style="enable-background:new 0 0 46 46;" xml:space="preserve">
<title>Icon / Premium / Bump</title>
<desc>Created with Sketch.</desc>
<g id="Page-1">
	<g id="For-Zeplin" transform="translate(-125.000000, -53.000000)">
		<g id="VF---Unity" transform="translate(36.000000, 34.000000)">
			<g transform="translate(82.000000, 12.000000)">
				<path id="Combined-Shape" style="fill-rule:evenodd;clip-rule:evenodd;fill:#616B77;" class="st0" d="M30.167,7.542c12.519,0,22.625,10.106,22.625,22.625S42.686,52.792,30.167,52.792
					S7.542,42.686,7.542,30.167S17.648,7.542,30.167,7.542z M39.206,29.115l-4.474-7.445l6.322,1.724l0.652-2.93l-11.253-3.068
					L27.88,28.772l2.885,0.787l1.454-6.378l4.474,7.445c1.972,3.283,1.036,7.419-2.106,9.308c-3.142,1.888-7.234,0.773-9.207-2.51
					l-2.761-4.596l-2.514,1.511l2.761,4.596c2.832,4.714,8.786,6.337,13.299,3.626C40.677,39.848,42.039,33.829,39.206,29.115z
					 M19.462,27.575l-2.514,1.511l1.578,2.626l2.514-1.511L19.462,27.575z"/>
				
					<g id="undo-variant" transform="translate(32.994916, 30.166780) rotate(59.000000) translate(-32.994916, -30.166780) translate(20.739661, 16.968814)">
				</g>
			</g>
		</g>
	</g>
</g>
</svg>
