<svg xmlns="http://www.w3.org/2000/svg" viewBox="0 0 32 32"><path class="st0" d="M16 4C9.36 4 4 9.36 4 16s5.36 12 12 12 12-5.36 12-12S22.64 4 16 4z"/><path class="st1" d="M20.794 15.442c1.502 2.5.78 5.693-1.613 7.131-2.393 1.438-5.551.577-7.054-1.923l-1.465-2.438 1.333-.801 1.465 2.438c1.046 1.741 3.216 2.333 4.883 1.331 1.667-1.001 2.163-3.196 1.117-4.937l-2.373-3.949-.771 3.383-1.53-.417 1.365-6.034 5.968 1.627-.346 1.554-3.353-.914 2.374 3.949zm-10.472-.817l.837 1.393-1.333.801-.837-1.393 1.333-.801z" fill="#fff"/></svg>