<svg id="Layer_1" xmlns="http://www.w3.org/2000/svg" width="300" height="300"><style>.st0{fill:#0099e5}</style><g id="Bump"><path class="st0" d="M151 192.8c-18.4 26.5-65.3 21.6-77.6 6.5 9.3 6.6 86.1 26.6 36.9-75.2l-26.1 19.8s8-44.4 14.8-82.3c31.8 16.7 75.4 42.5 75.4 42.5l-32.8 6.2c12.3 23.9 17.1 42.7 16.8 57.4 12.3-24.8 37.7-42 67-42.7C219 68.7 171.2 24.9 113.1 24.9 50.6 24.9 0 75.5 0 137.9s48.9 113 111.5 113c17.3 0 33.9-3.9 48.7-10.8-6.2-11.1-9.7-24.2-9.7-38.2-.1-3.1.1-6.1.5-9.1z"/><path class="st0" d="M227.5 129.3c-39.9 0-72.5 32.5-72.5 72.5 0 40.6 31.4 72.5 71.4 72.5 40.6 0 73.6-32.5 73.6-72.5s-32.6-72.5-72.5-72.5zm-21.9 107.4l-9.7-14.7-9.7 14.7h-14.4l16.8-24.6-15.4-22.1h14.6l8.2 12.2 8.1-12.2h14.2l-15.4 21.9 17.2 24.8h-14.5zm68.9-61.3c-3.9 3.4-7.4 7.6-10.3 12.6-3 5-5.5 10.2-7.6 15.8-2.1 5.6-3.6 11.3-4.7 17-1.1 5.7-1.7 11-1.7 16h-16.1c.9-11 3.5-21.8 7.8-32s10.1-19.6 17.1-28.1h-35.2v-14h50.6v12.7h.1z"/></g></svg>