<?xml version="1.0" encoding="utf-8"?>
<!-- Generator: Adobe Illustrator 22.0.1, SVG Export Plug-In . SVG Version: 6.00 Build 0)  -->
<svg version="1.1" xmlns="http://www.w3.org/2000/svg" xmlns:xlink="http://www.w3.org/1999/xlink" x="0px" y="0px" width="300px"
	 height="300px" viewBox="0 0 300 300" style="enable-background:new 0 0 300 300;" xml:space="preserve">
<style type="text/css">
	.st0{display:none;}
	.st1{display:inline;fill:#FF7A2A;}
	.st2{fill:#0099E5;}
</style>
<g id="Ebene_6" class="st0">
	<rect class="st1" width="300" height="300"/>
</g>
<g id="Ebene_3" class="st0">
</g>
<g id="Bump">
	<g>
		<path class="st2" d="M153.6,191.8c-17,24.5-60.3,20-71.7,6c8.6,6.1,79.6,24.6,34.1-69.5l-24.1,18.3h0c0,0,7.4-41,13.7-76
			c29.4,15.4,69.7,39.3,69.7,39.3l-30.3,5.7c11.4,22.1,15.8,39.5,15.5,53c11.4-22.9,34.8-38.8,61.9-39.5
			c-5.9-52-50.1-92.5-103.8-92.5c-57.7,0-104.5,46.8-104.5,104.4c0,57.7,45.2,104.4,103,104.4c16,0,31.3-3.6,45-10
			c-5.7-10.3-9-22.4-9-35.3C153.1,197.3,153.3,194.5,153.6,191.8z"/>
	</g>
	<g>
		<path class="st2" d="M224.3,133.1c-36.9,0-67,30-67,67c0,37.5,29,67,66,67c37.5,0,68-30,68-67
			C291.3,163.1,261.2,133.1,224.3,133.1z M204.1,232.3l-9-13.6l-9,13.6h-13.3l15.5-22.7l-14.2-20.4h13.5l7.6,11.3l7.5-11.3h13.1
			l-14.2,20.2l15.9,22.9H204.1z M267.7,175.7c-3.6,3.1-6.8,7-9.5,11.6c-2.8,4.6-5.1,9.4-7,14.6c-1.9,5.2-3.3,10.4-4.3,15.7
			s-1.6,10.2-1.6,14.8h-14.9c0.8-10.2,3.2-20.1,7.2-29.6c4-9.5,9.3-18.1,15.8-26h-32.5v-12.9h46.8V175.7z"/>
	</g>
</g>
</svg>
