<svg xmlns="http://www.w3.org/2000/svg" width="300" height="300"><style>.st2{fill:#0099e5}</style><path fill="#ff7a2a" d="M0 0h300v300H0z" id="Ebene_6"/><g id="Bump"><path class="st2" d="M153.6 191.8c-17 24.5-60.3 20-71.7 6 8.6 6.1 79.6 24.6 34.1-69.5l-24.1 18.3s7.4-41 13.7-76c29.4 15.4 69.7 39.3 69.7 39.3l-30.3 5.7c11.4 22.1 15.8 39.5 15.5 53 11.4-22.9 34.8-38.8 61.9-39.5-5.9-52-50.1-92.5-103.8-92.5C60.9 36.6 14.1 83.4 14.1 141c0 57.7 45.2 104.4 103 104.4 16 0 31.3-3.6 45-10-5.7-10.3-9-22.4-9-35.3 0-2.8.2-5.6.5-8.3z"/><path class="st2" d="M224.3 133.1c-36.9 0-67 30-67 67 0 37.5 29 67 66 67 37.5 0 68-30 68-67s-30.1-67-67-67zm-20.2 99.2l-9-13.6-9 13.6h-13.3l15.5-22.7-14.2-20.4h13.5l7.6 11.3 7.5-11.3h13.1l-14.2 20.2 15.9 22.9h-13.4zm63.6-56.6c-3.6 3.1-6.8 7-9.5 11.6-2.8 4.6-5.1 9.4-7 14.6-1.9 5.2-3.3 10.4-4.3 15.7s-1.6 10.2-1.6 14.8h-14.9c.8-10.2 3.2-20.1 7.2-29.6s9.3-18.1 15.8-26h-32.5v-12.9h46.8v11.8z"/></g></svg>