<?xml version="1.0" encoding="utf-8"?>
<!-- Generator: Adobe Illustrator 22.0.1, SVG Export Plug-In . SVG Version: 6.00 Build 0)  -->
<svg version="1.1" xmlns="http://www.w3.org/2000/svg" xmlns:xlink="http://www.w3.org/1999/xlink" x="0px" y="0px" width="300px"
	 height="300px" viewBox="0 0 300 300" style="enable-background:new 0 0 300 300;" xml:space="preserve">
<style type="text/css">
	.st0{display:none;}
	.st1{display:inline;fill:#FF7A2A;}
	.st2{fill:none;}
	.st3{fill:#0099E5;}
</style>
<g id="Ebene_6" class="st0">
	<rect class="st1" width="300" height="300"/>
</g>
<g id="Ebene_3" class="st0">
</g>
<g id="Bump">
	<path class="st2" d="M142.2,113.5l30.6-5.7c0,0-40.7-24.2-70.4-39.7c-6.4,35.5-13.9,76.9-13.9,76.9h0l24.4-18.5
		c46,95.1-25.8,76.4-34.5,70.2c11.5,14.2,55.2,18.7,72.4-6c1-8.4,3.4-16.3,7-23.5C158.2,153.4,153.7,135.8,142.2,113.5z"/>
	<path class="st3" d="M150.9,190.6c-17.2,24.7-61,20.2-72.4,6c8.7,6.2,80.4,24.8,34.5-70.2l-24.4,18.5h0c0,0,7.5-41.4,13.9-76.9
		c29.8,15.6,70.4,39.7,70.4,39.7l-30.6,5.7c11.5,22.3,16,39.9,15.7,53.6c11.5-23.2,35.2-39.3,62.6-40c-6-52.6-50.7-93.5-104.9-93.5
		C57.2,33.6,9.9,80.9,9.9,139.2c0,58.3,45.7,105.6,104.1,105.6c16.2,0,31.6-3.6,45.5-10.1c-5.8-10.5-9.1-22.6-9.1-35.7
		C150.4,196.1,150.6,193.3,150.9,190.6z"/>
	<g>
		<path class="st3" d="M222.4,131.3c-37.3,0-67.7,30.4-67.7,67.7c0,38,29.3,67.7,66.7,67.7c37.9,0,68.8-30.4,68.8-67.7
			C290.1,161.6,259.7,131.3,222.4,131.3z M202,231.6l-9.1-13.7l-9.1,13.7h-13.4l15.7-22.9L171.7,188h13.7l7.7,11.4l7.6-11.4h13.2
			l-14.3,20.4l16.1,23.2H202z M260,215.2v16.4h-13.6v-16.4h-29.9v-13.1l30.7-41.2H260v42.5h9.4v11.8H260z"/>
		<polygon class="st3" points="228.3,202.2 247.7,202.2 247.7,176.5 247.4,176.5 		"/>
	</g>
</g>
</svg>
