<svg xmlns="http://www.w3.org/2000/svg" width="300" height="300"><style>.st3{fill:#0099e5}</style><path fill="#ff7a2a" d="M0 0h300v300H0z" id="Ebene_6"/><g id="Bump"><path d="M142.2 113.5l30.6-5.7s-40.7-24.2-70.4-39.7C96 103.6 88.5 145 88.5 145l24.4-18.5c46 95.1-25.8 76.4-34.5 70.2 11.5 14.2 55.2 18.7 72.4-6 1-8.4 3.4-16.3 7-23.5.4-13.8-4.1-31.4-15.6-53.7z" fill="none"/><path class="st3" d="M150.9 190.6c-17.2 24.7-61 20.2-72.4 6 8.7 6.2 80.4 24.8 34.5-70.2l-24.4 18.5s7.5-41.4 13.9-76.9c29.8 15.6 70.4 39.7 70.4 39.7l-30.6 5.7c11.5 22.3 16 39.9 15.7 53.6 11.5-23.2 35.2-39.3 62.6-40-6-52.6-50.7-93.5-104.9-93.5C57.2 33.6 9.9 80.9 9.9 139.2c0 58.3 45.7 105.6 104.1 105.6 16.2 0 31.6-3.6 45.5-10.1-5.8-10.5-9.1-22.6-9.1-35.7 0-2.9.2-5.7.5-8.4z"/><path class="st3" d="M222.4 131.3c-37.3 0-67.7 30.4-67.7 67.7 0 38 29.3 67.7 66.7 67.7 37.9 0 68.8-30.4 68.8-67.7-.1-37.4-30.5-67.7-67.8-67.7zM202 231.6l-9.1-13.7-9.1 13.7h-13.4l15.7-22.9-14.4-20.7h13.7l7.7 11.4 7.6-11.4h13.2l-14.3 20.4 16.1 23.2H202zm58-16.4v16.4h-13.6v-16.4h-29.9v-13.1l30.7-41.2H260v42.5h9.4v11.8H260z"/><path class="st3" d="M228.3 202.2h19.4v-25.7h-.3z"/></g></svg>