<svg xmlns="http://www.w3.org/2000/svg" width="490" height="490"><path fill="#FFF" d="M376.5 172.9L306.2 186c123 238.5-104.5 242.5-146.2 190.9 20 14.1 184.6 57.1 79.2-161.3l-56 42.6s4.3-23.8 10.4-57.7c6.1-34 14.1-78.1 21.4-118.8 68.2 35.6 161.5 91.2 161.5 91.2z"/><path fill="#3F9FD7" d="M245 2.5c133.9 0 242.5 108.6 242.5 242.5S375.3 487.5 241.4 487.5C107.5 487.5 2.5 378.9 2.5 245S111.1 2.5 245 2.5zM306.2 186l70.3-13.1-161.6-91.3-31.8 176.6 56-42.6C344.6 434 180 391.1 160 376.9c41.7 51.6 269.2 47.6 146.2-190.9z"/></svg>