<svg xmlns="http://www.w3.org/2000/svg" viewBox="0 0 46 46"><path d="M23.167.542c12.519 0 22.625 10.106 22.625 22.625S35.686 45.792 23.167 45.792.542 35.686.542 23.167 10.648.542 23.167.542zm9.039 21.573l-4.474-7.445 6.322 1.724.652-2.93-11.253-3.068-2.573 11.376 2.885.787 1.454-6.378 4.474 7.445c1.972 3.283 1.036 7.419-2.106 9.308-3.142 1.888-7.234.773-9.207-2.51l-2.761-4.596-2.514 1.511 2.761 4.596c2.832 4.714 8.786 6.337 13.299 3.626 4.512-2.713 5.874-8.732 3.041-13.446zm-19.744-1.54l-2.514 1.511 1.578 2.626 2.514-1.511-1.578-2.626z" fill-rule="evenodd" clip-rule="evenodd" fill="#616b77"/></svg>