<svg id="Layer_1" xmlns="http://www.w3.org/2000/svg" width="300" height="300"><style>.st0{fill:#0099e5}</style><g id="Bump"><path class="st0" d="M150.9 193.4c-18.2 26.2-64.5 21.4-76.6 6.4 9.2 6.5 85.1 26.3 36.5-74.3L85 145.2s7.9-43.8 14.6-81.4c31.5 16.5 74.5 42.1 74.5 42.1l-32.4 6.1c12.2 23.6 16.9 42.3 16.7 56.7 12.2-24.5 37.2-41.6 66.3-42.3-6.4-55.7-53.7-99-111.1-99-61.8 0-111.8 50-111.8 111.8C1.8 200.9 50.2 251 111.9 251c17.2 0 33.4-3.9 48.2-10.8-6.1-11.1-9.6-23.9-9.6-37.7-.1-3.3.1-6.2.4-9.1z"/><path class="st0" d="M226.5 130.6c-39.5 0-71.6 32.1-71.6 71.6 0 40.1 31 71.6 70.6 71.6 40.1 0 72.8-32.1 72.8-71.6s-32.3-71.6-71.8-71.6zm-17.1 106.1l-9.7-14.5-9.7 14.5h-14.2l16.6-24.3-15.1-21.8h14.4l8.1 12.1 8-12.1h14l-15.1 21.6 17.1 24.6h-14.4v-.1zm52 0h-15.9V186h-19.6v-11.9c2.7.1 5.4-.1 8-.6 2.5-.5 4.9-1.3 6.9-2.5s3.8-2.8 5.2-4.9c1.4-2 2.3-4.5 2.7-7.5h12.6v78.1z"/></g></svg>