<svg id="Layer_1" xmlns="http://www.w3.org/2000/svg" viewBox="0 0 160 160"><style/><path class="st0" d="M-228.4-332.8c-44.2 0-79-35.2-79-80.1 0-44 35.9-79.9 79.9-79.9 44.2 0 80.1 35.9 80.1 80.1.1 43.9-36.3 79.9-81 79.9zm1-150.5c-38.9 0-70.4 31.5-70.4 70.3 0 39.6 30.5 70.5 69.4 70.5 39.5 0 71.5-31.5 71.5-70.5 0-38.7-31.6-70.3-70.5-70.3z" transform="translate(307.325 492.825)"/><path class="st0" d="M52 116.9c6.3 4.4 57.4 17.8 24.6-49.9L59.3 80.2s5.3-29.4 9.7-54.7C90.2 36.6 119.3 54 119.3 54l-21.7 4.2c37.8 73.3-32.6 74.6-45.6 58.7z"/></svg>