<svg xmlns="http://www.w3.org/2000/svg" width="1171.4" height="490"><path fill="#FFF" d="M376.5 172.9L306.2 186c123 238.5-104.5 242.5-146.2 190.9 20 14.1 184.6 57.1 79.2-161.3l-56 42.6s4.3-23.8 10.4-57.7c6.1-34 14.1-78.1 21.4-118.8 68.2 35.6 161.5 91.2 161.5 91.2z"/><path fill="#3F9FD7" d="M245 2.5c133.9 0 242.5 108.6 242.5 242.5S375.3 487.5 241.4 487.5C107.5 487.5 2.5 378.9 2.5 245S111.1 2.5 245 2.5zM306.2 186l70.3-13.1-161.6-91.3-31.8 176.6 56-42.6C344.6 434 180 391.1 160 376.9c41.7 51.6 269.2 47.6 146.2-190.9z"/><path fill="#FFC31A" d="M828.7 245c0 133.9-108.6 242.5-242.5 242.5S343.7 378.9 343.7 245 452.3 2.5 586.2 2.5 828.7 111.1 828.7 245z"/><path fill="#FFF" d="M719.9 145.3h-13.3V116c0-7.3-5.9-13.3-13.3-13.3H446.9c-7.3 0-13.3 5.9-13.3 13.3v69.6c0 7.3 5.9 13.3 13.3 13.3h246.5c7.3 0 13.3-5.9 13.3-13.3v-29.3H720c4.3 0 7.7 3.5 7.7 7.7v54.2c0 7.7-2.1 10.6-8.9 12.3l-144.1 24.3c-11.4 2.1-17.3 9.8-17.3 23v12.6h-7.5c-2.9 0-5.2 2.3-5.2 5.2v112.7c0 2.9 2.3 5.2 5.2 5.2h24.2c2.9 0 5.2-2.3 5.2-5.2V295.6c0-2.9-2.3-5.2-5.2-5.2h-5.6v-12.6c0-9.6 3.7-11.3 8-12.1l144.3-24.3.4-.1c11.9-2.9 17.5-10.2 17.5-23.1V164c0-10.3-8.4-18.7-18.8-18.7z"/><path fill="#52B532" d="M1168.5 245c0 133.9-108.6 242.5-242.5 242.5S683.5 378.9 683.5 245 792.1 2.5 926 2.5s242.5 108.6 242.5 242.5z"/><path fill="#FFF" d="M971.8 72.9c-12.6 13.9-16.8 33.5-11.1 51.4l.6 2.1c-9.3 7.9-21.5 18.6-33 30.2-14.7 14.7-28.3 30.6-36.2 40.2-6.5-1.6-13.1-2.7-19.8-3.1-12.7-.4-25.6 4.8-34.8 13.6l55.1 55.1-104.1 126.3 126.3-104.1 55.1 55.1c12.6-13.9 16.8-33.5 11.1-51.4-.3-1.1-.6-2.2-1-3.3 9.5-7.8 25.2-21.2 39.7-35.7 11.6-11.6 22.4-23.9 30.4-33.3 6.3 1.6 12.7 2.6 19.3 3 12.7.4 25.6-4.8 34.8-13.6L971.8 72.9z"/></svg>