<svg width="73" height="32" xmlns="http://www.w3.org/2000/svg"><g fill-rule="evenodd"><path d="M72 16.5C72 23.402 66.626 29 60 29s-12-5.598-12-12.5S53.374 4 60 4s12 5.598 12 12.5z"/><path d="M56.976 19.268l.843.842-2.05 2.053h-.001a.599.599 0 01-.847 0h-.001a.598.598 0 01.002-.847l2.054-2.048zm4.91-9.373a.8.8 0 011.13 0l4.173 4.172a.802.802 0 010 1.132l-.036.035a.749.749 0 01-1.06 0l-3.606 3.605-.045 1.393a2.02 2.02 0 01-.592 1.365.8.8 0 01-1.132 0l-1.909-1.91h.001l-1.414-1.413-1.91-1.91a.8.8 0 010-1.13 2.023 2.023 0 011.365-.592l1.393-.045 3.606-3.606a.75.75 0 010-1.061l.035-.035z" fill="#FFF"/><circle fill="#FFF" cx="39" cy="16" r="12"/><path d="M49 16c0 6.626-5.374 12-12 12-6.63 0-12-5.374-12-12S30.37 4 37 4c6.626 0 12 5.374 12 12z"/><path d="M43.316 17.47s-1.684 1.788-1.684 2.883c0 .91.754 1.647 1.684 1.647.93 0 1.684-.737 1.684-1.647 0-1.095-1.684-2.882-1.684-2.882zm-11.613-1.235l4.034-3.944 4.034 3.944h-8.068zm9.558-.873L33.733 8l-1.188 1.161 2.004 1.96-4.336 4.241c-.497.462-.497 1.26 0 1.746l4.631 4.53a1.285 1.285 0 001.785 0l4.632-4.53c.497-.486.497-1.284 0-1.746z" fill-rule="nonzero" fill="#FFF"/><circle fill="#FFF" cx="15" cy="16" r="12"/><path d="M13 4c6.64 0 12 5.36 12 12s-5.36 12-12 12S1 22.64 1 16 6.36 4 13 4zm4.794 11.442l-2.372-3.949 3.353.915.346-1.554-5.969-1.627-1.365 6.033 1.53.418.771-3.383 2.373 3.949c1.046 1.74.55 3.935-1.117 4.936-1.667 1.002-3.837.41-4.883-1.331L8.996 17.41l-1.333.801 1.465 2.438c1.502 2.5 4.66 3.361 7.053 1.923 2.393-1.438 3.116-4.63 1.613-7.13zm-10.472-.817l-1.333.802.837 1.392 1.333-.8-.837-1.394z"/></g></svg>