<?xml version="1.0" encoding="utf-8"?>
<!-- Generator: Adobe Illustrator 23.0.0, SVG Export Plug-In . SVG Version: 6.00 Build 0)  -->
<svg version="1.1" id="Layer_1" xmlns="http://www.w3.org/2000/svg" xmlns:xlink="http://www.w3.org/1999/xlink" x="0px" y="0px"
	 viewBox="0 0 135 48" style="enable-background:new 0 0 135 48;" xml:space="preserve">
<title>Icon / Premium / Combo</title>
<desc>Created with Sketch.</desc>
<g id="Page-1">
	<g id="For-Zeplin" transform="translate(-809.000000, -53.000000)">
		<g transform="translate(808.000000, 46.000000)">
			<g id="combo" transform="translate(17.920000, 7.520000)">
				<g id="XMLID_1_" transform="translate(0.000000, 1.000000)">
					<g id="Group">
						<path id="Shape" class="st0" style="fill:#FFFFFF;" d="M25.523,11.043l-8.155,1.5C31.636,39.845,5.246,40.302,0.408,34.396
							c2.32,1.614,21.414,6.536,9.187-18.464l-6.496,4.877c0,0,0.499-2.724,1.206-6.605c0.708-3.892,1.636-8.94,2.482-13.599
							C14.7,4.679,25.523,11.043,25.523,11.043z"/>
					</g>
				</g>
				<g transform="translate(32.111175, 3.760000)">
					<path class="st0" style="fill:#FFFFFF;" d="M33.321,5.124h-1.543V1.77c0-0.836-0.684-1.522-1.543-1.522H1.653c-0.847,0-1.543,0.675-1.543,1.522v7.967
						c0,0.836,0.684,1.522,1.543,1.522h28.594c0.847,0,1.543-0.675,1.543-1.522V6.383h1.543c0.499,0,0.893,0.401,0.893,0.881v6.204
						c0,0.881-0.244,1.213-1.032,1.408l-16.716,2.782c-1.322,0.24-2.007,1.122-2.007,2.633v1.442h-0.87
						c-0.336,0-0.603,0.263-0.603,0.595V35.23c0,0.332,0.267,0.595,0.603,0.595h2.807c0.336,0,0.603-0.263,0.603-0.595V22.329
						c0-0.332-0.267-0.595-0.603-0.595h-0.65v-1.442c0-1.099,0.429-1.294,0.928-1.385l0,0l16.739-2.782l0.046-0.011
						c1.38-0.332,2.03-1.168,2.03-2.644V7.265C35.502,6.085,34.527,5.124,33.321,5.124z"/>
				</g>
				<g transform="translate(72.343258, 0.000000)">
					<path class="st0" style="fill:#FFFFFF;" d="M22.221,0.596c-1.462,1.591-1.949,3.835-1.288,5.884c0.023,0.08,0.046,0.16,0.07,0.24
						c-1.079,0.904-2.494,2.129-3.828,3.457c-1.705,1.683-3.283,3.503-4.199,4.602c-0.754-0.183-1.52-0.309-2.297-0.355
						c-1.473-0.046-2.97,0.549-4.037,1.557l6.392,6.307L0.958,36.746L15.609,24.83l6.392,6.307c1.462-1.591,1.949-3.835,1.288-5.884
						c-0.035-0.126-0.07-0.252-0.116-0.378c1.102-0.893,2.923-2.427,4.605-4.087c1.346-1.328,2.598-2.736,3.526-3.812
						c0.731,0.183,1.473,0.298,2.239,0.343c1.473,0.046,2.97-0.549,4.037-1.557L22.221,0.596z"/>
				</g>
			</g>
			<g transform="translate(82.720000, 0.000000)">
				<path id="Combined-Shape" class="st1" style="fill-rule:evenodd;clip-rule:evenodd;fill:#616B77;" d="M52.64,31.02c0,12.976-10.103,23.5-22.56,23.5S7.52,43.996,7.52,31.02
					s10.103-23.5,22.56-23.5S52.64,18.044,52.64,31.02z"/>
				<path class="st2" style="fill-rule:evenodd;clip-rule:evenodd;fill:#FFFFFF;" d="M24.394,36.223l1.585,1.583l-3.854,3.86c0,0.002,0,0.002-0.002,0.002c-0.438,0.44-1.152,0.44-1.592,0
					l-0.002-0.002c-0.44-0.442-0.438-1.154,0.004-1.592L24.394,36.223z M33.625,18.602c0.587-0.587,1.54-0.587,2.126,0l7.845,7.843
					c0.587,0.587,0.587,1.54,0,2.128l-0.068,0.066c-0.551,0.551-1.444,0.551-1.993,0l-6.779,6.777l-0.085,2.619
					c-0.032,0.966-0.429,1.884-1.113,2.566c-0.587,0.588-1.54,0.588-2.128,0l-3.589-3.589h0.002l-2.658-2.658h-0.002l-3.589-3.589
					c-0.587-0.588-0.587-1.54,0-2.126c0.682-0.684,1.602-1.081,2.566-1.113l2.619-0.085l6.779-6.779
					c-0.551-0.551-0.551-1.444,0-1.995L33.625,18.602z"/>
			</g>
			<circle id="Oval-Copy" class="st2" style="fill-rule:evenodd;clip-rule:evenodd;fill:#FFFFFF;" cx="73.32" cy="30.08" r="22.56"/>
			<g transform="translate(39.480000, 0.000000)">
				<path class="st1" style="fill-rule:evenodd;clip-rule:evenodd;fill:#616B77;" d="M52.64,30.08c0,12.457-10.103,22.56-22.56,22.56c-12.466,0-22.56-10.103-22.56-22.56
					S17.614,7.52,30.08,7.52C42.537,7.52,52.64,17.623,52.64,30.08z"/>
				<g id="format-color-fill" transform="translate(16.040000, 15.040000)">
					<path class="st0" style="fill:#FFFFFF;" d="M25.914,17.805c0,0-3.166,3.36-3.166,5.419c0,1.71,1.418,3.096,3.166,3.096
						c1.749,0,3.166-1.386,3.166-3.096C29.08,21.164,25.914,17.805,25.914,17.805L25.914,17.805z M4.082,15.482l7.583-7.416
						l7.583,7.416H4.082z M22.051,13.841L7.897,0L5.665,2.183l3.768,3.685L1.28,13.841c-0.934,0.867-0.934,2.369,0,3.282
						l8.707,8.515c0.459,0.449,1.077,0.681,1.678,0.681s1.219-0.232,1.678-0.681l8.707-8.515
						C22.985,16.21,22.985,14.708,22.051,13.841z"/>
				</g>
			</g>
			<circle id="Oval" class="st2" style="fill-rule:evenodd;clip-rule:evenodd;fill:#FFFFFF;" cx="28.2" cy="30.08" r="22.56"/>
			<g transform="translate(-5.640000, 0.000000)">
				<path class="st1" style="fill-rule:evenodd;clip-rule:evenodd;fill:#616B77;" d="M30.08,7.52c12.483,0,22.56,10.077,22.56,22.56S42.563,52.64,30.08,52.64S7.52,42.563,7.52,30.08
					S17.597,7.52,30.08,7.52z M39.094,29.032l-4.461-7.424l6.304,1.719l0.65-2.921l-11.22-3.059L27.8,28.689l2.877,0.784l1.45-6.36
					l4.461,7.424c1.967,3.273,1.034,7.398-2.1,9.281c-3.133,1.883-7.214,0.77-9.18-2.503l-2.754-4.583l-2.507,1.506l2.754,4.583
					c2.824,4.7,8.761,6.319,13.261,3.615C40.56,39.734,41.918,33.732,39.094,29.032z M19.406,27.496l-2.507,1.506l1.573,2.619
					l2.507-1.506L19.406,27.496z"/>
				
					<g id="undo-variant" transform="translate(32.900000, 30.080000) rotate(59.000000) translate(-32.900000, -30.080000) translate(20.680000, 16.920000)">
				</g>
			</g>
		</g>
	</g>
</g>
</svg>
