<svg xmlns="http://www.w3.org/2000/svg" viewBox="0 0 72.034 24.011"><path class="st0" d="M60.029 0c-4.927 0-9.155 2.97-11.006 7.215.64 1.468 1 3.087 1 4.791s-.36 3.322-1 4.79c1.851 4.245 6.079 7.215 11.006 7.215 6.631 0 12.006-5.375 12.006-12.006S66.659 0 60.029 0zM36.017 0c-4.927 0-9.155 2.97-11.006 7.215.64 1.468 1 3.087 1 4.791s-.36 3.322-1 4.79c1.851 4.245 6.079 7.215 11.006 7.215 6.631 0 12.006-5.375 12.006-12.006S42.648 0 36.017 0z"/><circle class="st0" cx="12.006" cy="12.006" r="12.006"/><path class="st1" d="M5.44 11.185l1.334-.802.837 1.393-1.333.802z"/><path class="st1" fill="#FFF" d="M18.572 6.612l-5.968-1.627-1.365 6.034 1.53.417.771-3.383 2.373 3.949c1.046 1.741.55 3.935-1.117 4.937-1.667 1.001-3.837.41-4.883-1.331L8.448 13.17l-1.334.8 1.465 2.438c1.502 2.5 4.66 3.361 7.054 1.923 2.393-1.438 3.116-4.631 1.613-7.131l-2.373-3.949 3.353.914.346-1.553zm24.015 7.339s-1.684 1.787-1.684 2.882c0 .91.754 1.647 1.684 1.647s1.684-.737 1.684-1.647c0-1.095-1.684-2.882-1.684-2.882zm-2.055-2.109L33.004 4.48l-1.187 1.161 2.004 1.96-4.337 4.241c-.497.461-.497 1.26 0 1.746l4.632 4.529a1.284 1.284 0 001.786 0l4.632-4.529c.495-.485.495-1.284-.002-1.746zm-9.557.873l4.034-3.945 4.034 3.945h-8.068z"/><path class="st2" fill="#FFF" d="M61.813 5.647a.8.8 0 011.131 0l4.173 4.172a.802.802 0 010 1.132l-.036.035a.749.749 0 01-1.06 0l-3.606 3.605-.045 1.393a2.02 2.02 0 01-.592 1.365.8.8 0 01-1.132 0l-1.909-1.909h.001l-1.414-1.414h-.001l-1.909-1.909a.8.8 0 010-1.131 2.023 2.023 0 011.365-.592l1.393-.045 3.606-3.606a.75.75 0 010-1.061l.035-.035zm-4.91 9.373l.843.842-2.05 2.053-.001.001a.599.599 0 01-.847 0l-.001-.001a.598.598 0 01.002-.847l2.054-2.048z"/></svg>