<svg xmlns="http://www.w3.org/2000/svg" viewBox="0 0 135 48"><g transform="translate(-1 -7)"><path class="st0" d="M43.443 19.563l-8.155 1.5c14.268 27.302-12.122 27.759-16.96 21.853 2.32 1.614 21.414 6.536 9.187-18.464l-6.496 4.877s.499-2.724 1.206-6.605c.708-3.892 1.636-8.94 2.482-13.599 7.913 4.074 18.736 10.438 18.736 10.438zM83.352 16.404H81.81V13.05c0-.836-.684-1.522-1.543-1.522H51.684c-.847 0-1.543.675-1.543 1.522v7.967c0 .836.684 1.522 1.543 1.522h28.594c.847 0 1.543-.675 1.543-1.522v-3.354h1.543c.5 0 .893.401.893.881v6.204c0 .881-.244 1.213-1.032 1.408L66.51 28.938c-1.322.24-2.007 1.122-2.007 2.633v1.442h-.87a.595.595 0 00-.603.595V46.51c0 .332.267.595.603.595h2.807a.595.595 0 00.603-.595V33.609a.595.595 0 00-.603-.595h-.65v-1.442c0-1.099.43-1.294.928-1.385l16.74-2.782.045-.011c1.38-.332 2.03-1.168 2.03-2.644v-6.205c.001-1.18-.974-2.141-2.18-2.141zM112.484 8.116A5.976 5.976 0 00111.196 14l.07.24c-1.079.904-2.494 2.129-3.828 3.457-1.705 1.683-3.283 3.503-4.199 4.602a12.99 12.99 0 00-2.297-.355c-1.473-.046-2.97.549-4.037 1.557l6.392 6.307-12.076 14.458 14.651-11.916 6.392 6.307a5.976 5.976 0 001.288-5.884c-.035-.126-.07-.252-.116-.378 1.102-.893 2.923-2.427 4.605-4.087 1.346-1.328 2.598-2.736 3.526-3.812.731.183 1.473.298 2.24.343 1.472.046 2.97-.549 4.036-1.557L112.484 8.116z" fill="#fff"/><path class="st1" d="M135.36 31.02c0 12.976-10.103 23.5-22.56 23.5s-22.56-10.524-22.56-23.5 10.103-23.5 22.56-23.5 22.56 10.524 22.56 23.5z" fill-rule="evenodd" clip-rule="evenodd" fill="#616b77"/><path class="st2" d="M107.114 36.223l1.585 1.583-3.854 3.86c0 .002 0 .002-.002.002-.438.44-1.152.44-1.592 0l-.002-.002a1.123 1.123 0 01.004-1.592l3.861-3.851zm9.231-17.621a1.503 1.503 0 012.126 0l7.845 7.843c.587.587.587 1.54 0 2.128l-.068.066a1.408 1.408 0 01-1.993 0l-6.779 6.777-.085 2.619a3.8 3.8 0 01-1.113 2.566 1.504 1.504 0 01-2.128 0l-3.589-3.589h.002l-2.658-2.658h-.002l-3.589-3.589a1.503 1.503 0 010-2.126 3.804 3.804 0 012.566-1.113l2.619-.085 6.779-6.779a1.41 1.41 0 010-1.995l.067-.065z" fill-rule="evenodd" clip-rule="evenodd" fill="#fff"/><circle class="st2" cx="73.32" cy="30.08" r="22.56" fill-rule="evenodd" clip-rule="evenodd" fill="#fff"/><g><path class="st1" d="M92.12 30.08c0 12.457-10.103 22.56-22.56 22.56C57.094 52.64 47 42.537 47 30.08S57.094 7.52 69.56 7.52c12.457 0 22.56 10.103 22.56 22.56z" fill-rule="evenodd" clip-rule="evenodd" fill="#616b77"/><path class="st0" d="M81.434 32.845s-3.166 3.36-3.166 5.419c0 1.71 1.418 3.096 3.166 3.096 1.749 0 3.166-1.386 3.166-3.096 0-2.06-3.166-5.419-3.166-5.419zm-21.832-2.323l7.583-7.416 7.583 7.416H59.602zm17.969-1.641L63.417 15.04l-2.232 2.183 3.768 3.685-8.153 7.973c-.934.867-.934 2.369 0 3.282l8.707 8.515c.459.449 1.077.681 1.678.681s1.219-.232 1.678-.681l8.707-8.515c.935-.913.935-2.415.001-3.282z" fill="#fff"/></g><circle class="st2" cx="28.2" cy="30.08" r="22.56" fill-rule="evenodd" clip-rule="evenodd" fill="#fff"/><g><path class="st1" d="M24.44 7.52C36.923 7.52 47 17.597 47 30.08S36.923 52.64 24.44 52.64 1.88 42.563 1.88 30.08 11.957 7.52 24.44 7.52zm9.014 21.512l-4.461-7.424 6.304 1.719.65-2.921-11.22-3.059-2.567 11.342 2.877.784 1.45-6.36 4.461 7.424c1.967 3.273 1.034 7.398-2.1 9.281-3.133 1.883-7.214.77-9.18-2.503l-2.754-4.583-2.507 1.506 2.754 4.583c2.824 4.7 8.761 6.319 13.261 3.615 4.498-2.702 5.856-8.704 3.032-13.404zm-19.688-1.536l-2.507 1.506 1.573 2.619 2.507-1.506-1.573-2.619z" fill-rule="evenodd" clip-rule="evenodd" fill="#616b77"/></g></g></svg>