<svg xmlns="http://www.w3.org/2000/svg" viewBox="0 0 73 32"><path class="st0" d="M72 16.5C72 23.402 66.626 29 60 29s-12-5.598-12-12.5S53.374 4 60 4s12 5.598 12 12.5z"/><path class="st1" d="M56.976 19.268l.843.842-2.05 2.053-.001.001a.599.599 0 01-.847 0l-.001-.001a.598.598 0 01.002-.847l2.054-2.048zm4.909-9.373a.8.8 0 011.131 0l4.173 4.172a.802.802 0 010 1.132l-.036.035a.749.749 0 01-1.06 0l-3.606 3.605-.045 1.393a2.02 2.02 0 01-.592 1.365.8.8 0 01-1.132 0l-1.909-1.909h.001l-1.414-1.414h-.001l-1.909-1.909a.8.8 0 010-1.131 2.023 2.023 0 011.365-.592l1.393-.045 3.606-3.606a.75.75 0 010-1.061l.035-.035z" fill-rule="evenodd" clip-rule="evenodd" fill="#fff"/><circle fill="#FFF" class="st1" cx="39" cy="16" r="12"/><path class="st0" d="M49 16c0 6.626-5.374 12-12 12-6.631 0-12-5.374-12-12S30.369 4 37 4c6.626 0 12 5.374 12 12z" fill-rule="evenodd" clip-rule="evenodd"/><path class="st2" fill="#FFF" d="M43.316 17.471s-1.684 1.787-1.684 2.882c0 .91.754 1.647 1.684 1.647.93 0 1.684-.737 1.684-1.647 0-1.095-1.684-2.882-1.684-2.882zm-11.613-1.236l4.034-3.945 4.034 3.945h-8.068zm9.558-.873L33.733 8l-1.188 1.161 2.004 1.96-4.336 4.241c-.497.461-.497 1.26 0 1.746l4.632 4.529a1.281 1.281 0 001.785.001l4.632-4.529c.496-.487.496-1.285-.001-1.747z"/><circle class="st1" fill="#FFF" cx="15" cy="16" r="12"/><path class="st0" d="M13 4C6.36 4 1 9.36 1 16s5.36 12 12 12 12-5.36 12-12S19.64 4 13 4z"/><path class="st2" fill="#FFF" d="M17.794 15.442c1.502 2.5.78 5.693-1.613 7.131-2.393 1.438-5.551.577-7.054-1.923l-1.465-2.438 1.333-.801 1.465 2.438c1.046 1.741 3.216 2.333 4.883 1.331 1.667-1.001 2.163-3.196 1.117-4.937l-2.373-3.949-.771 3.383-1.53-.417 1.365-6.034 5.968 1.627-.346 1.554-3.353-.914 2.374 3.949zm-10.472-.817l.837 1.393-1.333.801-.837-1.393 1.333-.801z"/></svg>