<?xml version="1.0" encoding="utf-8"?>
<!-- Generator: Adobe Illustrator 23.0.0, SVG Export Plug-In . SVG Version: 6.00 Build 0)  -->
<svg version="1.1" id="Layer_1" xmlns="http://www.w3.org/2000/svg" xmlns:xlink="http://www.w3.org/1999/xlink" x="0px" y="0px"
	 viewBox="0 0 46 48" style="enable-background:new 0 0 46 48;" xml:space="preserve">
<title>Icon / Premium / Bump</title>
<desc>Created with Sketch.</desc>
<g id="Page-1">
	<g id="For-Zeplin" transform="translate(-611.000000, -53.000000)">
		<g transform="translate(604.000000, 46.000000)">
			<path id="Combined-Shape" class="st0" style="fill-rule:evenodd;clip-rule:evenodd;fill:#616B77;" d="M52.792,31.109c0,13.013-10.132,23.568-22.625,23.568S7.542,44.123,7.542,31.109
				S17.674,7.542,30.167,7.542S52.792,18.096,52.792,31.109z"/>
			<path class="st1" style="fill-rule:evenodd;clip-rule:evenodd;fill:#FFFFFF;" d="M24.465,36.328l1.589,1.588l-3.865,3.871c0,0.002,0,0.002-0.002,0.002c-0.439,0.441-1.156,0.441-1.597,0
				l-0.002-0.002c-0.441-0.443-0.439-1.158,0.004-1.597L24.465,36.328z M33.722,18.656c0.588-0.588,1.544-0.588,2.132,0l7.868,7.866
				c0.588,0.588,0.588,1.544,0,2.134l-0.068,0.066c-0.552,0.552-1.448,0.552-1.999,0l-6.799,6.797l-0.085,2.626
				c-0.032,0.969-0.43,1.889-1.116,2.574c-0.588,0.59-1.544,0.59-2.134,0l-3.599-3.599h0.002l-2.666-2.666h-0.002l-3.599-3.599
				c-0.588-0.59-0.588-1.544,0-2.132c0.684-0.686,1.606-1.084,2.574-1.116l2.626-0.085l6.799-6.799c-0.552-0.552-0.552-1.448,0-2
				L33.722,18.656z"/>
		</g>
	</g>
</g>
</svg>
