<svg xmlns="http://www.w3.org/2000/svg" width="490" height="490"><path fill="#52B532" d="M487.5 245c0 133.9-108.6 242.5-242.5 242.5S2.5 378.9 2.5 245 111.1 2.5 245 2.5 487.5 111.1 487.5 245z"/><path fill="#FFF" d="M290.8 72.9c-12.6 13.9-16.8 33.5-11.1 51.4l.6 2.1c-9.3 7.9-21.5 18.6-33 30.2-14.7 14.7-28.3 30.6-36.2 40.2-6.5-1.6-13.1-2.7-19.8-3.1-12.7-.4-25.6 4.8-34.8 13.6l55.1 55.1-104.1 126.3 126.3-104.1 55.1 55.1c12.6-13.9 16.8-33.5 11.1-51.4-.3-1.1-.6-2.2-1-3.3 9.5-7.8 25.2-21.2 39.7-35.7 11.6-11.6 22.4-23.9 30.4-33.3 6.3 1.6 12.7 2.6 19.3 3 12.7.4 25.6-4.8 34.8-13.6L290.8 72.9z"/></svg>