<svg xmlns="http://www.w3.org/2000/svg" viewBox="0 0 32 32"><path d="M31.154 16c0 8.716-6.787 15.785-15.154 15.785S.846 24.716.846 16 7.632.215 16 .215 31.154 7.284 31.154 16z" fill-rule="evenodd" clip-rule="evenodd"/><path d="M12.181 19.495l1.065 1.063-2.589 2.593-.001.001a.756.756 0 01-1.07 0l-.001-.001a.755.755 0 01.003-1.07l2.593-2.586zm6.2-11.836a1.01 1.01 0 011.428 0l5.27 5.269a1.013 1.013 0 010 1.43l-.045.044c-.37.37-.97.37-1.339 0l-4.554 4.553-.057 1.759a2.55 2.55 0 01-.748 1.724 1.011 1.011 0 01-1.43 0l-2.411-2.411h.001l-1.786-1.786h-.001L10.3 15.829a1.01 1.01 0 010-1.428 2.555 2.555 0 011.724-.748l1.759-.057 4.554-4.554a.948.948 0 010-1.34l.044-.043z" fill-rule="evenodd" clip-rule="evenodd" fill="#fff"/></svg>