<svg xmlns="http://www.w3.org/2000/svg" viewBox="0 0 46 48"><path class="st0" d="M45.792 24.109c0 13.013-10.132 23.568-22.625 23.568S.542 37.123.542 24.109 10.674.542 23.167.542s22.625 10.554 22.625 23.567z" fill-rule="evenodd" clip-rule="evenodd" fill="#616b77"/><path class="st1" d="M17.465 29.328l1.589 1.588-3.865 3.871c0 .002 0 .002-.002.002a1.13 1.13 0 01-1.597 0l-.002-.002a1.127 1.127 0 01.004-1.597l3.873-3.862zm9.257-17.672a1.509 1.509 0 012.132 0l7.868 7.866a1.511 1.511 0 010 2.134l-.068.066a1.414 1.414 0 01-1.999 0l-6.799 6.797-.085 2.626a3.813 3.813 0 01-1.116 2.574c-.588.59-1.544.59-2.134 0l-3.599-3.599h.002l-2.666-2.666h-.002l-3.599-3.599a1.509 1.509 0 010-2.132 3.813 3.813 0 012.574-1.116l2.626-.085 6.799-6.799a1.415 1.415 0 010-2l.066-.067z" fill-rule="evenodd" clip-rule="evenodd" fill="#fff"/></svg>