<svg xmlns="http://www.w3.org/2000/svg" viewBox="0 0 32 32"><g fill-rule="evenodd" clip-rule="evenodd"><path d="M28 16.5C28 23.402 22.626 29 16 29S4 23.402 4 16.5 9.374 4 16 4s12 5.598 12 12.5z"/><path d="M12.976 19.268l.843.842-2.05 2.053-.001.001a.599.599 0 01-.847 0l-.001-.001a.598.598 0 01.002-.847l2.054-2.048zm4.909-9.373a.8.8 0 011.131 0l4.173 4.172a.802.802 0 010 1.132l-.036.035a.749.749 0 01-1.06 0l-3.606 3.605-.045 1.393a2.02 2.02 0 01-.592 1.365.8.8 0 01-1.132 0l-1.909-1.909h.001l-1.414-1.414h-.001l-1.909-1.909a.8.8 0 010-1.131 2.023 2.023 0 011.365-.592l1.393-.045 3.606-3.606a.75.75 0 010-1.061l.035-.035z" fill="#fff"/></g></svg>