<svg xmlns="http://www.w3.org/2000/svg" viewBox="0 0 46 46"><path d="M45.792 23.167c0 12.493-10.132 22.625-22.625 22.625C10.665 45.792.542 35.66.542 23.167S10.665.542 23.167.542c12.493 0 22.625 10.132 22.625 22.625z" fill-rule="evenodd" clip-rule="evenodd"/><path d="M35.074 25.94S31.9 29.307 31.9 31.372c0 1.715 1.422 3.105 3.175 3.105 1.754 0 3.175-1.39 3.175-3.105.001-2.065-3.175-5.434-3.175-5.434l-.001.002zM13.18 23.61l7.605-7.437 7.605 7.437H13.18zm18.02-1.646L17.006 8.084l-2.239 2.188 3.78 3.695-8.178 7.996c-.937.87-.937 2.376 0 3.292l8.732 8.54c.46.45 1.08.683 1.683.683s1.223-.233 1.683-.683l8.732-8.54c.938-.915.938-2.42.001-3.291z" fill="#fff"/></svg>