<svg xmlns="http://www.w3.org/2000/svg" width="490" height="490"><path fill="#FFC31A" d="M487.7 244.1c0 133.9-108.6 242.5-242.5 242.5-134 0-242.5-108.6-242.5-242.5S111.2 1.6 245.2 1.6c133.9 0 242.5 108.6 242.5 242.5z"/><path fill="#FFF" d="M378.9 144.4h-13.3v-29.3c0-7.3-5.9-13.3-13.3-13.3H105.9c-7.3 0-13.3 5.9-13.3 13.3v69.6c0 7.3 5.9 13.3 13.3 13.3h246.5c7.3 0 13.3-5.9 13.3-13.3v-29.3H379c4.3 0 7.7 3.5 7.7 7.7v54.2c0 7.7-2.1 10.6-8.9 12.3l-144.1 24.3c-11.4 2.1-17.3 9.8-17.3 23v12.6h-7.5c-2.9 0-5.2 2.3-5.2 5.2v112.7c0 2.9 2.3 5.2 5.2 5.2h24.2c2.9 0 5.2-2.3 5.2-5.2V294.7c0-2.9-2.3-5.2-5.2-5.2h-5.6v-12.6c0-9.6 3.7-11.3 8-12.1l144.3-24.3.4-.1c11.9-2.9 17.5-10.2 17.5-23.1v-54.2c0-10.3-8.4-18.7-18.8-18.7z"/></svg>