<?xml version="1.0" encoding="utf-8"?>
<!-- Generator: Adobe Illustrator 23.0.0, SVG Export Plug-In . SVG Version: 6.00 Build 0)  -->
<svg version="1.1" id="Layer_1" xmlns="http://www.w3.org/2000/svg" xmlns:xlink="http://www.w3.org/1999/xlink" x="0px" y="0px"
	 viewBox="0 0 46 46" style="enable-background:new 0 0 46 46;" xml:space="preserve">
<title>Icon / Premium / Highlight</title>
<desc>Created with Sketch.</desc>
<g id="Page-1">
	<g id="For-Zeplin" transform="translate(-368.000000, -53.000000)">
		<g transform="translate(361.000000, 46.000000)">
			<path id="Combined-Shape" class="st0" style="fill-rule:evenodd;clip-rule:evenodd;fill:#616B77;" d="M52.792,30.167c0,12.493-10.132,22.625-22.625,22.625
				c-12.502,0-22.625-10.132-22.625-22.625S17.665,7.542,30.167,7.542C42.66,7.542,52.792,17.674,52.792,30.167z"/>
			<g id="format-color-fill" transform="translate(16.100339, 15.083390)">
				<path id="Shape" class="st1" style="fill:#FFFFFF;" d="M25.974,17.856c0,0-3.175,3.369-3.175,5.434c0,1.715,1.422,3.105,3.175,3.105
					c1.754,0,3.175-1.39,3.175-3.105C29.15,21.225,25.974,17.856,25.974,17.856L25.974,17.856z M4.08,15.527l7.605-7.437
					l7.605,7.437H4.08z M22.1,13.881L7.906,0L5.667,2.189l3.779,3.695l-8.177,7.996c-0.937,0.87-0.937,2.376,0,3.292l8.732,8.54
					c0.46,0.45,1.08,0.683,1.683,0.683c0.603,0,1.223-0.233,1.683-0.683l8.732-8.54C23.037,16.257,23.037,14.751,22.1,13.881z"/>
			</g>
		</g>
	</g>
</g>
</svg>
