<svg xmlns="http://www.w3.org/2000/svg" viewBox="0 0 32 32"><path d="M13 4C6.4 4 1 9.4 1 16s5.4 12 12 12 12-5.4 12-12S19.6 4 13 4z" fill-rule="evenodd" clip-rule="evenodd"/><path fill="#FFF" d="M17.8 15.4c1.5 2.5.8 5.7-1.6 7.1-2.4 1.4-5.6.6-7.1-1.9l-1.5-2.4 1.3-.8 1.5 2.4c1 1.7 3.2 2.3 4.9 1.3 1.7-1 2.2-3.2 1.1-4.9L14 12.3l-.8 3.4-1.5-.4 1.4-6 6 1.6-.3 1.6-3.4-.9 2.4 3.8zm-10.5-.8l.8 1.4-1.3.8-.8-1.4 1.3-.8z"/><path d="M29.872 2.661l-8.1-2.2c-1.1-.3-2.2.3-2.5 1.4l-2.1 8.1c-.3 1 .3 2.1 1.4 2.4l2.4.6 3.6 1 2.2.6c1 .3 2.1-.3 2.4-1.4l2.2-8.2c.2-1-.4-2.1-1.5-2.3z" fill-rule="evenodd" clip-rule="evenodd" fill="#ed2c28"/><path fill="#FFF" d="M28.5 8.4h.8v1.1h-.8V11h-1.3V9.5h-2.8l-.1-.9 2.8-4.5h1.4v4.3zm-2.9 0h1.5V6l-.1.2-1.4 2.2z"/><path d="M22.4 10l-.8-1-.8 1-.3.3c-.1.1-.2.1-.3.1-.1 0-.3 0-.4-.1-.1-.1-.1-.2-.1-.3 0-.1.1-.2.2-.4l1-1.2-.9-1c-.2-.3-.3-.4-.3-.5 0-.1 0-.2.1-.3.1-.1.2-.1.4-.1.1 0 .2 0 .3.1l.3.3.7.9.7-.9.3-.3c.1-.1.2-.1.3-.1.1 0 .3 0 .4.1.1.1.1.2.1.3 0 .1 0 .1-.1.2 0 .1-.1.1-.2.2l-.9 1 1 1.2c.3.3.4.4.4.5 0 .1 0 .2-.1.3-.1.1-.2.1-.4.1-.1 0-.2 0-.3-.1l-.3-.3z" fill-rule="evenodd" clip-rule="evenodd" fill="#fff"/></svg>