<svg xmlns="http://www.w3.org/2000/svg" viewBox="0 0 32 32"><path d="M13 4C6.36 4 1 9.36 1 16s5.36 12 12 12 12-5.36 12-12S19.64 4 13 4z"/><path fill="#FFF" d="M17.794 15.442c1.502 2.5.78 5.693-1.613 7.131-2.393 1.438-5.551.577-7.054-1.923l-1.465-2.438 1.333-.801 1.465 2.438c1.046 1.741 3.216 2.333 4.883 1.331 1.667-1.001 2.163-3.196 1.117-4.937l-2.373-3.949-.771 3.383-1.53-.417 1.365-6.034 5.968 1.627-.346 1.554-3.353-.914 2.374 3.949zm-10.472-.817l.837 1.393-1.333.801-.837-1.393 1.333-.801z"/><g><path fill="#ED2C28" d="M29.912 2.616L21.747.426a1.996 1.996 0 00-2.429 1.402l-2.18 8.15a1.985 1.985 0 001.392 2.411l2.35.633 3.611.985 2.19.588a1.981 1.981 0 002.412-1.393l2.215-8.174a1.979 1.979 0 00-1.396-2.412z"/><path fill="#FFF" d="M28.487 8.399h.769v1.084h-.769v1.467h-1.345V9.483h-2.779l-.06-.846 2.825-4.464h1.359v4.226zm-2.843 0h1.499V6.007l-.089.153-1.41 2.239zM22.363 10.003l-.807-1.022-.827 1.022a1.93 1.93 0 01-.304.306.519.519 0 01-.316.091.579.579 0 01-.361-.114c-.098-.076-.148-.164-.148-.262 0-.101.076-.245.228-.432l1.007-1.244-.893-1.036c-.155-.171-.232-.32-.232-.447 0-.098.046-.184.139-.256a.566.566 0 01.362-.109c.13 0 .238.032.324.095.086.063.185.163.3.299l.721.85.701-.85c.117-.141.218-.241.304-.302a.529.529 0 01.32-.092.6.6 0 01.365.107c.096.072.144.158.144.258 0 .073-.02.142-.059.209-.04.067-.1.146-.181.238l-.893 1.036 1.007 1.244c.157.194.236.341.236.439 0 .101-.049.187-.147.26a.587.587 0 01-.362.109.542.542 0 01-.324-.095 1.7 1.7 0 01-.304-.302z"/></g></svg>