<svg xmlns="http://www.w3.org/2000/svg" width="32" height="32"><path fill-rule="evenodd" clip-rule="evenodd" d="M13 4C6.4 4 1 9.4 1 16s5.4 12 12 12 12-5.4 12-12S19.6 4 13 4zM6 15.4l1.3-.8.8 1.4-1.3.8-.8-1.4zm12.8-2.9l-3.4-.9 2.4 3.8c1.5 2.5.8 5.7-1.6 7.1-2.4 1.4-5.6.6-7.1-1.9l-1.5-2.4 1.3-.8 1.5 2.4c1 1.7 3.2 2.3 4.9 1.3s2.2-3.2 1.1-4.9L14 12.3l-.8 3.4-1.5-.4 1.4-6 6 1.6-.3 1.6z"/><g fill-rule="evenodd" clip-rule="evenodd" fill="#ED2C28"><path d="M25.6 8.4h1.5V6l-.1.2z"/><path d="M29.872 2.661l-8.1-2.2c-1.1-.3-2.2.3-2.5 1.4l-2.1 8.1c-.3 1 .3 2.1 1.4 2.4l2.4.6 3.6 1 2.2.6c1 .3 2.1-.3 2.4-1.4l2.2-8.2c.2-1-.4-2.1-1.5-2.3zM29.3 9.5h-.8V11h-1.3V9.5h-2.8l-.1-.9 2.8-4.5h1.4v4.3h.8v1.1z"/></g><path fill-rule="evenodd" clip-rule="evenodd" fill="#FFF" d="M22.4 10l-.8-1-.8 1-.3.3c-.1.1-.2.1-.3.1-.1 0-.3 0-.4-.1s-.1-.2-.1-.3.1-.2.2-.4l1-1.2-.9-1c-.2-.3-.3-.4-.3-.5s0-.2.1-.3c.1-.1.2-.1.4-.1.1 0 .2 0 .3.1l.3.3.7.9.7-.9.3-.3c.1-.1.2-.1.3-.1.1 0 .3 0 .4.1s.1.2.1.3c0 .1 0 .1-.1.2 0 .1-.1.1-.2.2l-.9 1 1 1.2c.3.3.4.4.4.5s0 .2-.1.3-.2.1-.4.1c-.1 0-.2 0-.3-.1l-.3-.3z"/></svg>