<svg version="1.1" id="Layer_1" xmlns="http://www.w3.org/2000/svg" x="0" y="0" viewBox="0 0 32 32" xml:space="preserve"><style>.st1{fill:#fff}</style><g transform="translate(-3)"><path id="Path-Copy" d="M16 4C9.4 4 4 9.4 4 16s5.4 12 12 12 12-5.4 12-12S22.6 4 16 4z" fill-rule="evenodd" clip-rule="evenodd" fill="#616b77"/><path id="Shape" class="st1" d="M20.8 15.4c1.5 2.5.8 5.7-1.6 7.1-2.4 1.4-5.6.6-7.1-1.9l-1.5-2.4 1.3-.8 1.5 2.4c1 1.7 3.2 2.3 4.9 1.3 1.7-1 2.2-3.2 1.1-4.9L17 12.3l-.8 3.4-1.5-.4 1.4-6 6 1.6-.3 1.6-3.4-.9 2.4 3.8zm-10.5-.8l.8 1.4-1.3.8-.8-1.4 1.3-.8z"/></g><g id="Group-7" transform="translate(17)"><path d="M12.8 2.3L4.7.1C3.6-.2 2.5.4 2.2 1.5L.1 9.6c-.3 1 .3 2.1 1.4 2.4l2.4.6 3.6 1 2.2.6c1 .3 2.1-.3 2.4-1.4l2.2-8.2c.2-1-.4-2.1-1.5-2.3z" fill-rule="evenodd" clip-rule="evenodd" fill="#ed2c28" transform="translate(.072 .361)" id="Group-2"/><path class="st1" d="M11.5 8.4h.8v1.1h-.8V11h-1.3V9.5H7.4l-.1-.9 2.8-4.5h1.4v4.3zm-2.9 0h1.5V6l-.1.2-1.4 2.2z"/><path id="x" d="M5.4 10l-.8-1-.8 1-.3.3c-.1.1-.2.1-.3.1-.1 0-.3 0-.4-.1-.1-.1-.1-.2-.1-.3 0-.1.1-.2.2-.4l1-1.2-.9-1c-.2-.3-.3-.4-.3-.5 0-.1 0-.2.1-.3.1-.1.2-.1.4-.1.1 0 .2 0 .3.1l.3.3.7.9.7-.9.3-.3c.1-.1.2-.1.3-.1.1 0 .3 0 .4.1.1.1.1.2.1.3 0 .1 0 .1-.1.2 0 .1-.1.1-.2.2l-.9 1 1 1.2c.3.3.4.4.4.5 0 .1 0 .2-.1.3-.1.1-.2.1-.4.1-.1 0-.2 0-.3-.1l-.3-.3z" fill-rule="evenodd" clip-rule="evenodd" fill="#fff"/></g></svg>