<?xml version="1.0" encoding="utf-8"?>
<!-- Generator: Adobe Illustrator 19.1.0, SVG Export Plug-In . SVG Version: 6.00 Build 0)  -->
<!DOCTYPE svg PUBLIC "-//W3C//DTD SVG 1.1//EN" "http://www.w3.org/Graphics/SVG/1.1/DTD/svg11.dtd" [
	<!ENTITY ns_extend "http://ns.adobe.com/Extensibility/1.0/">
	<!ENTITY ns_ai "http://ns.adobe.com/AdobeIllustrator/10.0/">
	<!ENTITY ns_graphs "http://ns.adobe.com/Graphs/1.0/">
	<!ENTITY ns_vars "http://ns.adobe.com/Variables/1.0/">
	<!ENTITY ns_imrep "http://ns.adobe.com/ImageReplacement/1.0/">
	<!ENTITY ns_sfw "http://ns.adobe.com/SaveForWeb/1.0/">
	<!ENTITY ns_custom "http://ns.adobe.com/GenericCustomNamespace/1.0/">
	<!ENTITY ns_adobe_xpath "http://ns.adobe.com/XPath/1.0/">
]>
<svg version="1.1"
	 id="Layer_1" xmlns:x="&ns_extend;" xmlns:i="&ns_ai;" xmlns:graph="&ns_graphs;" xmlns:sketch="http://www.bohemiancoding.com/sketch/ns"
	 xmlns="http://www.w3.org/2000/svg" xmlns:xlink="http://www.w3.org/1999/xlink" x="0px" y="0px" viewBox="-285 377 40 40"
	 style="enable-background:new -285 377 40 40;" xml:space="preserve">
<style type="text/css">
	.st0{fill:#A6A39C;}
</style>
<switch>
	
	<g i:extraneous="self">
		<title>Group Copy 6</title>
		<desc>Created with Sketch.</desc>
		<g id="_x35_3-Premium-Feature-Icons" transform="translate(-332.500000, -342.000000)" sketch:type="MSArtboardGroup">
			<g id="Group-Copy-6" transform="translate(332.000000, 341.500000)" sketch:type="MSLayerGroup">
				<g id="Highlight_1_" transform="translate(0.683631, 0.683631)" sketch:type="MSShapeGroup">
					<g id="Group">
						<path id="Shape" class="st0" d="M-265.2,377.1c-10.9,0-19.8,8.8-19.8,19.7c0,10.9,8.6,19.7,19.5,19.7
							c10.9,0,20.1-8.8,20.1-19.7C-245.4,385.9-254.2,377.1-265.2,377.1L-265.2,377.1z M-265.1,409.5c-1.9,0-3.5-1.1-3.5-2.5h7
							C-261.7,408.4-263.2,409.5-265.1,409.5L-265.1,409.5z M-261.7,405.6h-7v-0.7h7V405.6L-261.7,405.6z M-257.1,392.2
							L-257.1,392.2c0,2.9-1.6,4.8-2.8,6.3c-0.9,1.1-1.7,2.1-1.7,3.2v0.4l0,0v0.5v0.7l-7.1,0v-0.7v-0.5h0v-0.4
							c0-1.1-0.8-2.1-1.7-3.2c-1.2-1.5-2.8-3.4-2.8-6.4l0,0c0-4.6,3.6-8.4,8.1-8.4C-260.7,383.7-257.1,387.5-257.1,392.2
							L-257.1,392.2C-257.1,392.1-257.1,392.1-257.1,392.2C-257.1,392.1-257.1,392.1-257.1,392.2L-257.1,392.2z"/>
						<path id="Shape_1_" class="st0" d="M-265.2,384.6c-4,0-7.2,3.4-7.2,7.6h0c0,2.6,1.4,4.3,2.6,5.8c0.9,1.1,1.7,2.1,1.9,3.3
							l2.4,0v-7l-4.2-4.3l0.5-0.5l4.1,4.1l4.1-4.1l0.5,0.5l-4.2,4.3v7l0.5,0l0,0l1.9,0c0.2-1.2,1-2.3,1.9-3.3
							c1.2-1.5,2.6-3.2,2.6-5.9C-258,388-261.2,384.6-265.2,384.6L-265.2,384.6z"/>
					</g>
				</g>
			</g>
		</g>
	</g>
</switch>

</svg>
