<?xml version="1.0" encoding="utf-8"?>
<!-- Generator: Adobe Illustrator 19.1.0, SVG Export Plug-In . SVG Version: 6.00 Build 0)  -->
<!DOCTYPE svg PUBLIC "-//W3C//DTD SVG 1.1//EN" "http://www.w3.org/Graphics/SVG/1.1/DTD/svg11.dtd" [
	<!ENTITY ns_extend "http://ns.adobe.com/Extensibility/1.0/">
	<!ENTITY ns_ai "http://ns.adobe.com/AdobeIllustrator/10.0/">
	<!ENTITY ns_graphs "http://ns.adobe.com/Graphs/1.0/">
	<!ENTITY ns_vars "http://ns.adobe.com/Variables/1.0/">
	<!ENTITY ns_imrep "http://ns.adobe.com/ImageReplacement/1.0/">
	<!ENTITY ns_sfw "http://ns.adobe.com/SaveForWeb/1.0/">
	<!ENTITY ns_custom "http://ns.adobe.com/GenericCustomNamespace/1.0/">
	<!ENTITY ns_adobe_xpath "http://ns.adobe.com/XPath/1.0/">
]>
<svg version="1.1"
	 id="Layer_1" xmlns:x="&ns_extend;" xmlns:i="&ns_ai;" xmlns:graph="&ns_graphs;" xmlns:sketch="http://www.bohemiancoding.com/sketch/ns"
	 xmlns="http://www.w3.org/2000/svg" xmlns:xlink="http://www.w3.org/1999/xlink" x="0px" y="0px" viewBox="-275 371 61 51"
	 style="enable-background:new -275 371 61 51;" xml:space="preserve">
<style type="text/css">
	.st0{fill:none;}
	.st1{fill:#A6A39C;}
</style>
<switch>
	
	<g i:extraneous="self">
		<title>Group Copy 2</title>
		<desc>Created with Sketch.</desc>
		<path id="Shape" class="st0" d="M-246.2,388.7l6.5-1.2c0,0-8.7-5.2-15-8.5c-1.4,7.6-3,16.4-3,16.4h0l5.2-4
			c9.8,20.3-5.5,16.3-7.4,15c2.5,3,11.8,4,15.5-1.3c0.2-1.8,0.7-3.5,1.5-5C-242.8,397.2-243.7,393.5-246.2,388.7L-246.2,388.7z"/>
		<path id="Shape_1_" class="st1" d="M-244.3,405.2c-3.7,5.3-13,4.3-15.5,1.3c1.9,1.3,17.2,5.3,7.4-15l-5.2,4h0c0,0,1.6-8.8,3-16.4
			c6.3,3.3,15,8.5,15,8.5l-6.5,1.2c2.5,4.8,3.4,8.5,3.4,11.4c2.5-4.9,7.5-8.4,13.4-8.5c-1.3-11.2-10.8-19.9-22.4-19.9
			c-12.4,0-22.5,10.1-22.5,22.5c0,12.4,9.8,22.5,22.2,22.5c3.5,0,6.7-0.8,9.7-2.2c-1.2-2.2-1.9-4.8-1.9-7.6
			C-244.4,406.3-244.4,405.7-244.3,405.2L-244.3,405.2z"/>
		<g id="Group_1_" transform="translate(30.933333, 20.906667)">
			<path id="Shape_2_" class="st1" d="M-260,371.6c-8,0-14.5,6.5-14.5,14.4c0,8.1,6.3,14.4,14.2,14.4c8.1,0,14.7-6.5,14.7-14.4
				C-245.5,378.1-252,371.6-260,371.6L-260,371.6z M-264.3,393l-1.9-2.9l-1.9,2.9h-2.9l3.3-4.9l-3.1-4.4h2.9l1.6,2.4l1.6-2.4h2.8
				l-3.1,4.4l3.4,4.9H-264.3L-264.3,393z M-252,389.5v3.5h-2.9v-3.5h-6.4v-2.8l6.5-8.8h2.7v9.1h2v2.5H-252L-252,389.5z"/>
			<path id="Shape_3_" class="st1" d="M-258.7,386.7h4.1v-5.5h-0.1L-258.7,386.7z"/>
		</g>
	</g>
</switch>

</svg>
