<?xml version="1.0" encoding="utf-8"?>
<!-- Generator: Adobe Illustrator 19.1.0, SVG Export Plug-In . SVG Version: 6.00 Build 0)  -->
<!DOCTYPE svg PUBLIC "-//W3C//DTD SVG 1.1//EN" "http://www.w3.org/Graphics/SVG/1.1/DTD/svg11.dtd" [
	<!ENTITY ns_extend "http://ns.adobe.com/Extensibility/1.0/">
	<!ENTITY ns_ai "http://ns.adobe.com/AdobeIllustrator/10.0/">
	<!ENTITY ns_graphs "http://ns.adobe.com/Graphs/1.0/">
	<!ENTITY ns_vars "http://ns.adobe.com/Variables/1.0/">
	<!ENTITY ns_imrep "http://ns.adobe.com/ImageReplacement/1.0/">
	<!ENTITY ns_sfw "http://ns.adobe.com/SaveForWeb/1.0/">
	<!ENTITY ns_custom "http://ns.adobe.com/GenericCustomNamespace/1.0/">
	<!ENTITY ns_adobe_xpath "http://ns.adobe.com/XPath/1.0/">
]>
<svg version="1.1"
	 id="Layer_1" xmlns:x="&ns_extend;" xmlns:i="&ns_ai;" xmlns:graph="&ns_graphs;" xmlns:sketch="http://www.bohemiancoding.com/sketch/ns"
	 xmlns="http://www.w3.org/2000/svg" xmlns:xlink="http://www.w3.org/1999/xlink" x="0px" y="0px" viewBox="-275 371 61 51"
	 style="enable-background:new -275 371 61 51;" xml:space="preserve">
<style type="text/css">
	.st0{fill:#A6A39C;}
</style>
<switch>
	
	<g i:extraneous="self">
		<title>Group Copy 3</title>
		<desc>Created with Sketch.</desc>
		<path id="Shape" class="st0" d="M-244.2,405.1c-3.7,5.3-13.1,4.3-15.5,1.3c1.9,1.3,17.2,5.3,7.4-15.1l-5.2,4h0c0,0,1.6-8.9,3-16.5
			c6.4,3.3,15.1,8.5,15.1,8.5l-6.6,1.2c2.5,4.8,3.4,8.6,3.4,11.5c2.5-5,7.5-8.4,13.4-8.6c-1.3-11.3-10.9-20-22.5-20
			c-12.5,0-22.6,10.1-22.6,22.6c0,12.5,9.8,22.6,22.3,22.6c3.5,0,6.8-0.8,9.8-2.2c-1.2-2.2-1.9-4.8-1.9-7.6
			C-244.3,406.2-244.3,405.6-244.2,405.1L-244.2,405.1z"/>
		<path id="Shape_1_" class="st0" d="M-228.9,392.3c-8,0-14.5,6.5-14.5,14.5c0,8.1,6.3,14.5,14.3,14.5c8.1,0,14.7-6.5,14.7-14.5
			C-214.4,398.8-220.9,392.3-228.9,392.3L-228.9,392.3z M-233.3,413.8l-2-2.9l-2,2.9h-2.9l3.4-4.9l-3.1-4.4h2.9l1.6,2.4l1.6-2.4h2.8
			l-3.1,4.4l3.5,5H-233.3L-233.3,413.8z M-219.5,401.6c-0.8,0.7-1.5,1.5-2.1,2.5c-0.6,1-1.1,2-1.5,3.2c-0.4,1.1-0.7,2.2-0.9,3.4
			c-0.2,1.1-0.3,2.2-0.3,3.2h-3.2c0.2-2.2,0.7-4.4,1.6-6.4c0.9-2.1,2-3.9,3.4-5.6h-7V399h10.1L-219.5,401.6L-219.5,401.6z"/>
	</g>
</switch>

</svg>
