<?xml version="1.0" encoding="utf-8"?>
<!-- Generator: Adobe Illustrator 19.1.0, SVG Export Plug-In . SVG Version: 6.00 Build 0)  -->
<!DOCTYPE svg PUBLIC "-//W3C//DTD SVG 1.1//EN" "http://www.w3.org/Graphics/SVG/1.1/DTD/svg11.dtd" [
	<!ENTITY ns_extend "http://ns.adobe.com/Extensibility/1.0/">
	<!ENTITY ns_ai "http://ns.adobe.com/AdobeIllustrator/10.0/">
	<!ENTITY ns_graphs "http://ns.adobe.com/Graphs/1.0/">
	<!ENTITY ns_vars "http://ns.adobe.com/Variables/1.0/">
	<!ENTITY ns_imrep "http://ns.adobe.com/ImageReplacement/1.0/">
	<!ENTITY ns_sfw "http://ns.adobe.com/SaveForWeb/1.0/">
	<!ENTITY ns_custom "http://ns.adobe.com/GenericCustomNamespace/1.0/">
	<!ENTITY ns_adobe_xpath "http://ns.adobe.com/XPath/1.0/">
]>
<svg version="1.1"
	 id="Layer_1" xmlns:x="&ns_extend;" xmlns:i="&ns_ai;" xmlns:graph="&ns_graphs;" xmlns:sketch="http://www.bohemiancoding.com/sketch/ns"
	 xmlns="http://www.w3.org/2000/svg" xmlns:xlink="http://www.w3.org/1999/xlink" x="0px" y="0px" viewBox="-285 377 40 40"
	 style="enable-background:new -285 377 40 40;" xml:space="preserve">
<style type="text/css">
	.st0{fill:none;}
	.st1{fill:#A6A39C;}
</style>
<switch>
	
	<g i:extraneous="self">
		<title>ico-premium-combo(fixed)</title>
		<desc>Created with Sketch.</desc>
		<g id="Group" transform="translate(8.394299, 15.247059)">
			<path id="Shape" class="st0" d="M-283.4,383.3v8.4l9.3,2.7v-12.4l-0.1,0l-2.3,3.9L-283.4,383.3z"/>
			<path id="Shape_1_" class="st0" d="M-273,382L-273,382l-0.1,12.5l9.3-2.7v-8.4l-6.9,2.6L-273,382z"/>
			<g id="Shape_2_">
				<path class="st0" d="M-273,382L-273,382l-0.1,12.5l9.3-2.7v-8.4l-6.9,2.6L-273,382z"/>
				<path class="st0" d="M-276.5,386l-6.9-2.6v8.4l9.3,2.7v-12.4l-0.1,0L-276.5,386z"/>
				<g>
					<path class="st0" d="M-276.5,386l-6.9-2.6v8.4l9.3,2.7v-12.4l-0.1,0L-276.5,386z"/>
					<path class="st0" d="M-273,382L-273,382l-0.1,12.5l9.3-2.7v-8.4l-6.9,2.6L-273,382z"/>
					<path class="st0" d="M-284.8,382l8,3l2.8-4.8l-8-3L-284.8,382z"/>
					<g>
						<path class="st0" d="M-273,382L-273,382l-0.1,12.5l9.3-2.7v-8.4l-6.9,2.6L-273,382z"/>
						<path class="st0" d="M-276.5,386l-6.9-2.6v8.4l9.3,2.7v-12.4l-0.1,0L-276.5,386z"/>
						<g>
							<path class="st0" d="M-276.5,386l-6.9-2.6v8.4l9.3,2.7v-12.4l-0.1,0L-276.5,386z"/>
							<path class="st0" d="M-284.8,382l8,3l2.8-4.8l-8-3L-284.8,382z"/>
							<path class="st0" d="M-273,382L-273,382l-0.1,12.5l9.3-2.7v-8.4l-6.9,2.6L-273,382z"/>
							<path class="st0" d="M-273.1,380.3l2.8,4.8l8-3l-2.8-4.8L-273.1,380.3z"/>
						</g>
					</g>
				</g>
			</g>
		</g>
		<path id="Shape_3_" class="st0" d="M-264.6,397.2L-264.6,397.2l-0.1,12.5l9.3-2.7v-8.4l-6.9,2.6L-264.6,397.2z"/>
		<path id="Shape_4_" class="st0" d="M-268.1,401.2l-6.9-2.6v8.4l9.3,2.7v-12.4l-0.1,0L-268.1,401.2z"/>
		<path id="Shape_5_" class="st0" d="M-276.4,397.2l8,3l2.8-4.8l-8-3L-276.4,397.2z"/>
		<path id="Shape_6_" class="st0" d="M-265.1,389.5l8.4,2.8l3-3.3l-8.4-2.8L-265.1,389.5z"/>
		<path id="Shape_7_" class="st0" d="M-264.7,395.5l2.8,4.8l8-3l-2.8-4.8L-264.7,395.5z"/>
		<path id="Shape_8_" class="st1" d="M-265.2,377.2c-10.8,0-19.6,8.8-19.6,19.7c0,10.8,8.5,19.7,19.3,19.7
			c10.8,0,19.8-8.8,19.8-19.7C-245.6,386-254.4,377.2-265.2,377.2L-265.2,377.2z M-265.7,409.7l-9.3-2.7v-8.4l6.9,2.6l2.3-3.9l0.1,0
			L-265.7,409.7L-265.7,409.7z M-268.4,400.2l-8-3l2.8-4.8l8,3L-268.4,400.2L-268.4,400.2z M-273.7,392.4l-3.1-3.3l8.4-2.8l3.1,3.3
			L-273.7,392.4L-273.7,392.4z M-255.3,407l-9.3,2.7v-12.5l0.1,0l2.3,4l6.9-2.6V407L-255.3,407z M-261.9,400.3l-2.8-4.8l8-3l2.8,4.8
			L-261.9,400.3L-261.9,400.3z M-256.6,392.4l-8.4-2.8l3-3.3l8.4,2.8L-256.6,392.4L-256.6,392.4z"/>
	</g>
</switch>

</svg>
