<?xml version="1.0" encoding="utf-8"?>
<!-- Generator: Adobe Illustrator 19.1.0, SVG Export Plug-In . SVG Version: 6.00 Build 0)  -->
<!DOCTYPE svg PUBLIC "-//W3C//DTD SVG 1.1//EN" "http://www.w3.org/Graphics/SVG/1.1/DTD/svg11.dtd" [
	<!ENTITY ns_extend "http://ns.adobe.com/Extensibility/1.0/">
	<!ENTITY ns_ai "http://ns.adobe.com/AdobeIllustrator/10.0/">
	<!ENTITY ns_graphs "http://ns.adobe.com/Graphs/1.0/">
	<!ENTITY ns_vars "http://ns.adobe.com/Variables/1.0/">
	<!ENTITY ns_imrep "http://ns.adobe.com/ImageReplacement/1.0/">
	<!ENTITY ns_sfw "http://ns.adobe.com/SaveForWeb/1.0/">
	<!ENTITY ns_custom "http://ns.adobe.com/GenericCustomNamespace/1.0/">
	<!ENTITY ns_adobe_xpath "http://ns.adobe.com/XPath/1.0/">
]>
<svg version="1.1"
	 id="Layer_1" xmlns:x="&ns_extend;" xmlns:i="&ns_ai;" xmlns:graph="&ns_graphs;" xmlns:sketch="http://www.bohemiancoding.com/sketch/ns"
	 xmlns="http://www.w3.org/2000/svg" xmlns:xlink="http://www.w3.org/1999/xlink" x="0px" y="0px" viewBox="-285 376 41 41"
	 style="enable-background:new -285 376 41 41;" xml:space="preserve">
<style type="text/css">
	.st0{fill:none;}
	.st1{fill:#A6A39C;}
</style>
<switch>
	
	<g i:extraneous="self">
		<title>Group Copy 5</title>
		<desc>Created with Sketch.</desc>
		<path id="Shape" class="st0" d="M-263.4,393.8c0.5-0.2,0.5,0,0.8-0.2c0.4-0.2,0.2-0.9,0.6-0.9c0.4-0.1,0.9,0.7,1.2,0.9
			c0.4,0.4,0.7,0.7,1.1,1c-0.9-3.2-1.8-6.3-2.7-9.5h-0.1c-4.6,1.3-9.2,2.7-13.7,3.9c0.4,1.6,0.9,3.2,1.4,4.8
			c0.5,1.6,0.8,3.3,1.4,4.8c0.4-0.8,1-1.4,1.4-2.3c0.2-0.6,0.4-1.3,0.6-1.9c0.2-0.6,0.3-1.3,0.7-1.8c0.7-0.2,1,0,1.4-0.4
			c0.4-0.4,0.3-1.3,0.9-1.4c0.4,0,0.9,0.5,1.2,0.8c1,1,2,2,3,2.9c-0.3,1.3-0.8,2.3-1.5,3.1c-2.4,0.6-4.9,1.5-7.5,2.1
			c0.1,0.4,0.2,0.7,0.3,1.1c4.6-1.3,9.1-2.7,13.8-3.9c0-0.3-0.2-0.7-0.3-1.1c-1.8,0.5-3.6,1.1-5.5,1.5c0.1-0.3,0.4-0.6,0.6-0.9
			C-263.8,395.5-263.9,394.5-263.4,393.8L-263.4,393.8z"/>
		<path id="Shape_1_" class="st0" d="M-261.3,382.9c-5.7,1.7-11.4,3.3-17.1,4.9v0.1c1.7,5.6,3.3,11.5,5,17.1
			c5.6-1.7,11.4-3.3,17.1-5C-258,394.3-259.6,388.6-261.3,382.9C-261.2,382.9-261.3,382.9-261.3,382.9L-261.3,382.9z"/>
		<path id="Shape_2_" class="st1" d="M-259.4,395.7c-1.8,0.5-3.6,1.1-5.5,1.5c0.1-0.3,0.4-0.6,0.6-0.9c0.4-0.8,0.4-1.8,0.8-2.5
			c0.5-0.2,0.5,0,0.8-0.2c0.4-0.2,0.2-0.9,0.6-0.9c0.4-0.1,0.9,0.7,1.2,0.9c0.4,0.4,0.7,0.7,1.1,1c-0.9-3.2-1.8-6.3-2.7-9.5h-0.1
			c-4.6,1.3-9.2,2.7-13.7,3.9c0.4,1.6,0.9,3.2,1.4,4.8c0.5,1.6,0.8,3.3,1.4,4.8c0.4-0.8,1-1.4,1.4-2.3c0.2-0.6,0.4-1.3,0.6-1.9
			c0.2-0.6,0.3-1.3,0.7-1.8c0.7-0.2,1,0,1.4-0.4c0.4-0.4,0.3-1.3,0.9-1.4c0.4,0,0.9,0.5,1.2,0.8c1,1,2,2,3,2.9
			c-0.3,1.3-0.8,2.3-1.5,3.1c-2.4,0.6-4.9,1.5-7.5,2.1c0.1,0.4,0.2,0.7,0.3,1.1c4.6-1.3,9.1-2.7,13.8-3.9
			C-259.1,396.5-259.3,396-259.4,395.7L-259.4,395.7z M-274.4,391.4c-0.5-0.9,0.2-2,1.1-2.1c0.3,0,0.6,0,0.9,0.1
			c0.3,0.1,0.6,0.5,0.6,0.6C-271,391.8-273.7,392.9-274.4,391.4L-274.4,391.4z"/>
		<g id="Shape_3_">
			<path class="st0" d="M-261.2,382.9L-261.2,382.9c-5.7,1.7-11.4,3.3-17.1,4.9v0.1c1.7,5.6,3.3,11.5,5,17.1
				c5.6-1.7,11.4-3.3,17.1-5C-258,394.3-259.6,388.6-261.2,382.9L-261.2,382.9z"/>
			<path class="st0" d="M-258.4,389c0.8,0.1,1.7,0.1,2.4,0.2c-0.2,1.5-0.3,3.1-0.4,4.7c0,0.5-0.1,1.1-0.1,1.6
				c0.1,0.4,0.2,0.8,0.4,1.1c0.1,0.4,0.2,0.8,0.3,1.2c0.2,0.8,0.4,1.6,0.7,2.3c0.2-4,0.6-8.3,0.9-12.5c-1.5-0.2-3.1-0.2-4.6-0.4
				C-258.7,387.8-258.6,388.4-258.4,389L-258.4,389z"/>
			<path class="st1" d="M-264.7,376.3c-11.1,0-20.1,9-20.1,20.1c0,11.1,8.7,20.1,19.8,20.1c11.1,0,20.4-9,20.4-20.1
				C-244.6,385.3-253.6,376.3-264.7,376.3L-264.7,376.3z M-278.4,387.9L-278.4,387.9c5.7-1.7,11.4-3.3,17.1-5h0.1
				c1.6,5.7,3.2,11.4,4.9,17.1c-5.6,1.7-11.4,3.3-17.1,5C-275.1,399.3-276.6,393.5-278.4,387.9L-278.4,387.9z M-259.7,409.4
				C-259.7,409.4-259.7,409.4-259.7,409.4l-7.1-3.8c2.9,0.2,5.8,0.4,8.8,0.6C-258.5,407.2-259.1,408.3-259.7,409.4L-259.7,409.4z
				 M-255.3,401.2c-0.1,1.4-0.2,2.7-0.3,4.1c-4.2-0.3-8-0.6-12.1-0.9l12.4-3.6C-255.3,401-255.3,401-255.3,401.2L-255.3,401.2z
				 M-255.2,400.1c-0.3-0.7-0.5-1.5-0.7-2.3c-0.1-0.4-0.2-0.8-0.3-1.2c-0.1-0.4-0.3-0.8-0.4-1.1c0-0.5,0.1-1.1,0.1-1.6
				c0.1-1.6,0.2-3.2,0.4-4.7c-0.7-0.1-1.6-0.2-2.4-0.2c-0.2-0.6-0.3-1.2-0.5-1.8c1.5,0.2,3.2,0.2,4.6,0.4
				C-254.5,391.8-254.9,396.1-255.2,400.1L-255.2,400.1z M-251.2,393.8c-0.9,1.6-1.9,3.5-2.8,5l0.4-6.3
				C-252.8,392.9-252.1,393.4-251.2,393.8L-251.2,393.8L-251.2,393.8z"/>
		</g>
	</g>
</switch>

</svg>
