<?xml version="1.0" encoding="utf-8"?>
<!-- Generator: Adobe Illustrator 19.1.0, SVG Export Plug-In . SVG Version: 6.00 Build 0)  -->
<!DOCTYPE svg PUBLIC "-//W3C//DTD SVG 1.1//EN" "http://www.w3.org/Graphics/SVG/1.1/DTD/svg11.dtd" [
	<!ENTITY ns_extend "http://ns.adobe.com/Extensibility/1.0/">
	<!ENTITY ns_ai "http://ns.adobe.com/AdobeIllustrator/10.0/">
	<!ENTITY ns_graphs "http://ns.adobe.com/Graphs/1.0/">
	<!ENTITY ns_vars "http://ns.adobe.com/Variables/1.0/">
	<!ENTITY ns_imrep "http://ns.adobe.com/ImageReplacement/1.0/">
	<!ENTITY ns_sfw "http://ns.adobe.com/SaveForWeb/1.0/">
	<!ENTITY ns_custom "http://ns.adobe.com/GenericCustomNamespace/1.0/">
	<!ENTITY ns_adobe_xpath "http://ns.adobe.com/XPath/1.0/">
]>
<svg version="1.1"
	 id="Layer_1" xmlns:x="&ns_extend;" xmlns:i="&ns_ai;" xmlns:graph="&ns_graphs;" xmlns:sketch="http://www.bohemiancoding.com/sketch/ns"
	 xmlns="http://www.w3.org/2000/svg" xmlns:xlink="http://www.w3.org/1999/xlink" x="0px" y="0px" viewBox="-281 372 49 49"
	 style="enable-background:new -281 372 49 49;" xml:space="preserve">
<style type="text/css">
	.st0{fill:#A6A39C;}
</style>
<switch>
	
	<g i:extraneous="self">
		<title>Group Copy 4</title>
		<desc>Created with Sketch.</desc>
		<g id="_x35_3-Premium-Feature-Icons" transform="translate(-342.500000, -145.000000)" sketch:type="MSArtboardGroup">
			<g id="Group-Copy-4" transform="translate(342.000000, 145.000000)" sketch:type="MSLayerGroup">
				<g id="Bump" transform="translate(0.825000, 0.825000)" sketch:type="MSShapeGroup">
					<path id="Shape" class="st0" d="M-257.1,372.1c-13.2,0-23.8,10.7-23.8,23.8c0,13.2,10.3,23.8,23.5,23.8
						c13.2,0,24.2-10.7,24.2-23.8C-233.2,382.7-243.9,372.1-257.1,372.1L-257.1,372.1z M-265.4,408.9c2,1.4,18.2,5.6,7.8-15.8
						l-5.5,4.2h0c0,0,1.7-9.3,3.1-17.3c6.7,3.5,15.9,9,15.9,9l-6.9,1.3C-239,413.5-261.3,413.9-265.4,408.9L-265.4,408.9z"/>
				</g>
			</g>
		</g>
	</g>
</switch>

</svg>
