<svg xmlns="http://www.w3.org/2000/svg" viewBox="0 0 289.27 288.75"><title>ico-premium-highlight</title><path d="M144.62 0C64.75 0 .02 64.64.02 144.38s62.6 144.37 142.5 144.37 146.77-64.64 146.77-144.37S224.5 0 144.62 0z" fill="#fbc33d"/><path d="M144.65 244.44c-14.1 0-25.51-8.19-25.51-18.32h51c0 10.13-11.4 18.32-25.49 18.32zM119.08 210.48h51.11v5.11h-51.11zM203.65 117.45c-.35 21.42-11.55 35.27-20.58 46.42-6.73 8.34-12.57 15.52-12.57 23.72v11.81l-51.65.13v-11.88c0-8.18-5.84-15.33-12.6-23.61-9.13-11.19-20.49-25.04-20.62-46.78.1-33.92 26.52-61.48 59-61.48s58.65 27.32 59 61v.65z" fill="#fff"/><path d="M144.64 62.44c-29.06 0-52.7 24.85-52.7 55.39.2 19.33 10.29 31.69 19.2 42.6 6.47 7.92 12.62 15.45 13.81 24.44h17.36V133.6l-30.68-31.11 3.39-3.31 29.76 30.17 29.73-30.18 3.36 3.31-30.85 31.26v51.12h3.56l13.84-.06c1.18-9 7.3-16.54 13.74-24.5 8.89-11 19-23.44 19.18-42.87-.2-30.35-23.76-54.99-52.7-54.99z" fill="#fbc33d"/></svg>