<svg xmlns="http://www.w3.org/2000/svg" viewBox="0 0 288.99 288.75"><title>ico-premium-combo</title><path d="M144.49.01A144.44 144.44 0 0 0 0 144.39c0 79.73 62.54 144.37 142.35 144.37S289 224.12 289 144.39A144.43 144.43 0 0 0 144.51.01z" fill="#ff7a2a"/><path fill="#fff" d="M140.28 230.53L71.6 210.84v-62l51.3 19.23 16.76-28.82.62.18v91.1"/><path fill="#fff" d="M120.28 160.85l-58.82-22.07 20.44-35.14 58.87 22.08-20.49 35.13M81.47 103.41L58.88 79.19l61.84-20.95 22.66 24.01-61.91 21.16M216.98 210.9l-68.64 19.82v-91.63l.55-.16 17.2 29.6 50.89-19.09v61.49-.03"/><path fill="#fff" d="M168.67 161.28l-20.44-35.14 58.87-22.08 20.44 35.13-58.87 22.09M207.58 103.09l-62.3-20.9 22.54-24.17 62.29 20.92-22.53 24.15"/></svg>