<?xml version="1.0" encoding="UTF-8" standalone="no"?>
<svg width="120px" height="80px" viewBox="0 0 120 80" version="1.1" xmlns="http://www.w3.org/2000/svg" xmlns:xlink="http://www.w3.org/1999/xlink" xmlns:sketch="http://www.bohemiancoding.com/sketch/ns">
    <!-- Generator: Sketch 3.3 (11970) - http://www.bohemiancoding.com/sketch -->
    <title>card_master v020</title>
    <desc>Created with Sketch.</desc>
    <defs>
        <linearGradient x1="27.7777778%" y1="0%" x2="71.5410644%" y2="98.4673948%" id="linearGradient-1">
            <stop stop-color="#518ED2" offset="0%"></stop>
            <stop stop-color="#25409C" offset="100%"></stop>
        </linearGradient>
    </defs>
    <g id="assets-various" stroke="none" stroke-width="1" fill="none" fill-rule="evenodd" sketch:type="MSPage">
        <g id="Artboard-2" sketch:type="MSArtboardGroup" transform="translate(-191.000000, -138.000000)">
            <g id="card_master-v02" sketch:type="MSLayerGroup" transform="translate(191.000000, 138.000000)">
                <g id="assets-various" sketch:type="MSShapeGroup">
                    <g id="Artboard-2">
                        <g id="card_master">
                            <rect id="Rectangle-11" fill="url(#linearGradient-1)" x="0" y="0" width="120" height="80" rx="4"></rect>
                            <ellipse id="Oval-2" fill="#EE555C" cx="42.9040909" cy="40" rx="25.074" ry="24.875"></ellipse>
                            <ellipse id="Oval-2" fill="#F3C153" cx="77.0959091" cy="40" rx="25.074" ry="24.875"></ellipse>
                            <path d="M60,57.8696997 C64.9198975,53.3478578 67.9780909,47.0128295 67.9780909,40 C67.9780909,32.9871705 64.9198975,26.6521422 60,22.1303003 C55.0801025,26.6521422 52.0219091,32.9871705 52.0219091,40 C52.0219091,47.0128295 55.0801025,53.3478578 60,57.8696997 L60,57.8696997 Z" id="Oval-2" fill="#EB8752"></path>
                        </g>
                    </g>
                </g>
                <g id="Group-Copy-4" transform="translate(19.000000, 35.000000)" fill-opacity="0.2" fill="#000000" sketch:type="MSShapeGroup">
                    <path d="M64.7079107,12.1905 L66.4455536,2.87839286 L68.6426786,2.87839286 L68.8716964,3.79639286 C69.265125,3.33691071 70.0196786,2.87839286 71.2983214,2.87839286 L70.6098214,5.30453571 C69.9868929,5.30453571 68.8066071,5.14108929 68.0525357,7.92739286 L67.2656786,12.1905 L64.7079107,12.1905" id="Fill-6"></path>
                    <path d="M31.0360179,0.512035714 L33.5682321,0.512035714 L33.0489643,2.97916071 L34.4119821,2.97916071 L33.9578036,4.99114286 L32.6593929,4.99114286 L31.9453393,8.75619643 C31.8151607,9.47073214 31.8807321,10.1201786 33.341625,9.89308929 L33.1786607,11.775375 C32.6270893,12.1321607 31.8807321,12.2300357 31.2958929,12.2300357 C30.7120179,12.2300357 28.7959821,11.8727679 29.2839107,9.34103571 L31.0360179,0.512035714" id="Fill-7"></path>
                    <path d="M42.0081429,8.042625 C42.3003214,6.54942857 42.9820714,2.84898214 38.5352679,2.84898214 C34.4447679,2.84898214 33.9255,6.90669643 33.8281071,7.49057143 C33.7307143,8.07541071 33.665625,12.1977321 38.0478214,12.1977321 C39.1191429,12.2300357 40.6774286,12.1003393 41.2945714,11.775375 L41.6841429,9.86078571 C41.2945714,9.95769643 39.8331964,10.0873929 38.8264821,10.0873929 C37.8207321,10.0873929 36.1978393,10.1529643 36.4895357,8.042625 L42.0081429,8.042625 Z M36.6520179,6.35464286 L39.8008929,6.35464286 C39.963375,5.44580357 39.6711964,4.66666071 38.6649643,4.66666071 C37.65825,4.66666071 36.9441964,5.18641071 36.6520179,6.35464286 C36.6520179,6.35464286 36.9441964,5.18641071 36.6520179,6.35464286 Z" id="Fill-8"></path>
                    <path d="M28.6344643,5.05623214 L29.2183393,3.17346429 C28.0168393,2.71928571 27.0761786,2.81619643 26.7184286,2.81619643 C26.3616429,2.81619643 23.3222143,2.77907143 22.8559821,5.02392857 C22.4991964,6.74421429 23.1293571,7.45633929 23.7325179,7.71766071 C24.7064464,8.13953571 25.2585,8.52958929 25.7777679,8.78898214 C26.4204643,9.11057143 26.3023393,10.1847857 25.4528036,10.1847857 C25.0632321,10.1847857 23.37525,10.3800536 22.109625,9.95769643 L21.7528393,11.8727679 C22.9215536,12.1977321 23.8622143,12.1977321 24.7392321,12.1977321 C25.3554107,12.1977321 28.3745893,12.3602143 28.7959821,9.568125 C29.0023393,8.20655357 28.4068929,7.58796429 27.9199286,7.29626786 C27.4334464,6.97130357 26.6215179,6.517125 26.10225,6.28955357 C25.5829821,6.06246429 25.1929286,5.18641071 26.1350357,4.92653571 C26.7184286,4.86096429 27.9199286,4.86096429 28.6344643,5.05623214 C28.6344643,5.05623214 27.9199286,4.86096429 28.6344643,5.05623214" id="Fill-10"></path>
                    <path d="M12.2088214,12.1977321 L14.3191607,0.965732143 L10.1640536,0.965732143 L7.07978571,7.78323214 L6.59282143,0.965732143 L2.53510714,0.965732143 L0.360642857,12.1977321 L2.892375,12.1977321 L4.45017857,4.08230357 L5.13192857,12.1977321 L7.53444643,12.1977321 L11.0728929,4.27708929 L9.57969643,12.1977321 L12.2088214,12.1977321" id="Fill-11"></path>
                    <path d="M15.0004286,3.14116071 L14.6108571,5.153625 C15.228,5.08901786 16.8831964,4.82914286 17.7597321,4.86096429 C18.6362679,4.89375 19.6101964,4.76405357 19.3180179,6.159375 C18.6685714,6.22494643 14.1238929,5.51041071 13.4103214,9.40564286 C13.1176607,11.3211964 14.7728571,12.295125 16.0712679,12.2300357 C17.3701607,12.1649464 17.7269464,12.0024643 18.1816071,11.6784643 L18.5070536,12.1977321 L20.8758214,12.1977321 L21.8825357,7.13378571 C22.1424107,5.86816071 22.5638036,2.81619643 18.3113036,2.81619643 C17.5326429,2.84898214 16.6561071,2.81619643 15.0004286,3.14116071 C15.0004286,3.14116071 16.6561071,2.81619643 15.0004286,3.14116071 Z M16.7207143,8.26971429 C15.9087857,8.82176786 15.6821786,9.79521429 16.5264107,10.1201786 C17.3388214,10.4326071 18.5379107,9.89357143 18.700875,9.04885714 L18.8961429,8.042625 C18.4737857,7.97753571 17.5326429,7.71766071 16.7207143,8.26971429 Z" id="Fill-12"></path>
                    <path d="M56.0312679,3.56255357 C55.3818214,3.17346429 54.9276429,3.10885714 54.0834107,3.10885714 C53.2396607,3.10885714 51.3568929,3.91548214 50.999625,6.19216071 C50.57775,8.886375 52.4277321,10.2170893 55.0245536,9.34103571 L55.7713929,11.6128929 C54.9276429,12.0024643 54.0834107,12.1977321 52.6876071,12.1977321 C50.0584821,12.1977321 47.2017857,9.86078571 48.5001964,5.12083929 C49.45725,1.62819643 52.461,0.349553571 54.2131071,0.414160714 C56.2906607,0.490821429 57.0379821,1.19282143 57.6869464,1.90735714 L56.0312679,3.56255357" id="Fill-14"></path>
                    <path d="M77.61825,3.952125 C77.1308036,3.59533929 76.8391071,2.84898214 75.6376071,2.84898214 C74.2422857,2.84898214 72.0668571,2.58910714 70.8335357,6.80882143 C70.0095536,9.62983929 71.6772857,12.1977321 73.4949643,12.1977321 C74.3396786,12.1649464 75.1834286,11.8081607 75.7022143,11.451375 L76.0276607,12.1977321 L78.7541786,12.1977321 L80.9614286,0.381857143 L78.2995179,0.381857143 L77.61825,3.952125 Z M76.7094107,7.75044643 C76.9692857,6.90669643 76.8270536,5.85273214 76.5469286,5.47858929 C75.7677857,4.44005357 73.976625,5.26114286 73.4303571,7.29626786 C73.0740536,8.6265 73.8527143,9.63321429 74.72925,9.63321429 C75.670875,9.63321429 76.2542679,8.886375 76.7094107,7.75044643 Z" id="Fill-15"></path>
                    <path d="M57.8489464,3.14116071 L57.459375,5.153625 C58.0765179,5.08901786 59.7317143,4.82914286 60.60825,4.86096429 C61.4852679,4.89375 62.4587143,4.76405357 62.1660536,6.159375 C61.5170893,6.22494643 56.9724107,5.51041071 56.2588393,9.40564286 C55.9661786,11.3211964 57.6218571,12.295125 58.9202679,12.2300357 C60.2186786,12.1649464 60.5754643,12.0024643 61.0306071,11.6784643 L61.3550893,12.1977321 L63.7243393,12.1977321 L64.7310536,7.13378571 C64.9909286,5.86816071 65.4123214,2.81619643 61.1598214,2.81619643 C60.3811607,2.84898214 59.504625,2.81619643 57.8489464,3.14116071 C57.8489464,3.14116071 59.504625,2.81619643 57.8489464,3.14116071 Z M61.7446607,8.042625 C61.3227857,7.97753571 60.3811607,7.71766071 59.5692321,8.26971429 C58.7577857,8.82176786 58.5306964,9.79521429 59.3749286,10.1201786 C60.1878214,10.4326071 61.3864286,9.89357143 61.549875,9.04885714 L61.7446607,8.042625 Z" id="Fill-17"></path>
                    <path d="M42.0814286,12.1977321 L43.8012321,2.97916071 L45.9766607,2.97916071 L46.2032679,3.888 C46.5928393,3.43285714 47.3396786,2.97916071 48.6053036,2.97916071 L47.9558571,5.41301786 C47.3396786,5.41301786 46.1381786,5.21871429 45.3918214,7.97753571 L44.6126786,12.1977321 L42.0814286,12.1977321" id="Fill-19"></path>
                </g>
                <g id="Group-Copy-3" transform="translate(19.000000, 34.000000)" fill="#FFFFFF" sketch:type="MSShapeGroup">
                    <path d="M64.7079107,12.1905 L66.4455536,2.87839286 L68.6426786,2.87839286 L68.8716964,3.79639286 C69.265125,3.33691071 70.0196786,2.87839286 71.2983214,2.87839286 L70.6098214,5.30453571 C69.9868929,5.30453571 68.8066071,5.14108929 68.0525357,7.92739286 L67.2656786,12.1905 L64.7079107,12.1905" id="Fill-6"></path>
                    <path d="M31.0360179,0.512035714 L33.5682321,0.512035714 L33.0489643,2.97916071 L34.4119821,2.97916071 L33.9578036,4.99114286 L32.6593929,4.99114286 L31.9453393,8.75619643 C31.8151607,9.47073214 31.8807321,10.1201786 33.341625,9.89308929 L33.1786607,11.775375 C32.6270893,12.1321607 31.8807321,12.2300357 31.2958929,12.2300357 C30.7120179,12.2300357 28.7959821,11.8727679 29.2839107,9.34103571 L31.0360179,0.512035714" id="Fill-7"></path>
                    <path d="M42.0081429,8.042625 C42.3003214,6.54942857 42.9820714,2.84898214 38.5352679,2.84898214 C34.4447679,2.84898214 33.9255,6.90669643 33.8281071,7.49057143 C33.7307143,8.07541071 33.665625,12.1977321 38.0478214,12.1977321 C39.1191429,12.2300357 40.6774286,12.1003393 41.2945714,11.775375 L41.6841429,9.86078571 C41.2945714,9.95769643 39.8331964,10.0873929 38.8264821,10.0873929 C37.8207321,10.0873929 36.1978393,10.1529643 36.4895357,8.042625 L42.0081429,8.042625 Z M36.6520179,6.35464286 L39.8008929,6.35464286 C39.963375,5.44580357 39.6711964,4.66666071 38.6649643,4.66666071 C37.65825,4.66666071 36.9441964,5.18641071 36.6520179,6.35464286 C36.6520179,6.35464286 36.9441964,5.18641071 36.6520179,6.35464286 Z" id="Fill-8"></path>
                    <path d="M28.6344643,5.05623214 L29.2183393,3.17346429 C28.0168393,2.71928571 27.0761786,2.81619643 26.7184286,2.81619643 C26.3616429,2.81619643 23.3222143,2.77907143 22.8559821,5.02392857 C22.4991964,6.74421429 23.1293571,7.45633929 23.7325179,7.71766071 C24.7064464,8.13953571 25.2585,8.52958929 25.7777679,8.78898214 C26.4204643,9.11057143 26.3023393,10.1847857 25.4528036,10.1847857 C25.0632321,10.1847857 23.37525,10.3800536 22.109625,9.95769643 L21.7528393,11.8727679 C22.9215536,12.1977321 23.8622143,12.1977321 24.7392321,12.1977321 C25.3554107,12.1977321 28.3745893,12.3602143 28.7959821,9.568125 C29.0023393,8.20655357 28.4068929,7.58796429 27.9199286,7.29626786 C27.4334464,6.97130357 26.6215179,6.517125 26.10225,6.28955357 C25.5829821,6.06246429 25.1929286,5.18641071 26.1350357,4.92653571 C26.7184286,4.86096429 27.9199286,4.86096429 28.6344643,5.05623214 C28.6344643,5.05623214 27.9199286,4.86096429 28.6344643,5.05623214" id="Fill-10"></path>
                    <path d="M12.2088214,12.1977321 L14.3191607,0.965732143 L10.1640536,0.965732143 L7.07978571,7.78323214 L6.59282143,0.965732143 L2.53510714,0.965732143 L0.360642857,12.1977321 L2.892375,12.1977321 L4.45017857,4.08230357 L5.13192857,12.1977321 L7.53444643,12.1977321 L11.0728929,4.27708929 L9.57969643,12.1977321 L12.2088214,12.1977321" id="Fill-11"></path>
                    <path d="M15.0004286,3.14116071 L14.6108571,5.153625 C15.228,5.08901786 16.8831964,4.82914286 17.7597321,4.86096429 C18.6362679,4.89375 19.6101964,4.76405357 19.3180179,6.159375 C18.6685714,6.22494643 14.1238929,5.51041071 13.4103214,9.40564286 C13.1176607,11.3211964 14.7728571,12.295125 16.0712679,12.2300357 C17.3701607,12.1649464 17.7269464,12.0024643 18.1816071,11.6784643 L18.5070536,12.1977321 L20.8758214,12.1977321 L21.8825357,7.13378571 C22.1424107,5.86816071 22.5638036,2.81619643 18.3113036,2.81619643 C17.5326429,2.84898214 16.6561071,2.81619643 15.0004286,3.14116071 C15.0004286,3.14116071 16.6561071,2.81619643 15.0004286,3.14116071 Z M16.7207143,8.26971429 C15.9087857,8.82176786 15.6821786,9.79521429 16.5264107,10.1201786 C17.3388214,10.4326071 18.5379107,9.89357143 18.700875,9.04885714 L18.8961429,8.042625 C18.4737857,7.97753571 17.5326429,7.71766071 16.7207143,8.26971429 Z" id="Fill-12"></path>
                    <path d="M56.0312679,3.56255357 C55.3818214,3.17346429 54.9276429,3.10885714 54.0834107,3.10885714 C53.2396607,3.10885714 51.3568929,3.91548214 50.999625,6.19216071 C50.57775,8.886375 52.4277321,10.2170893 55.0245536,9.34103571 L55.7713929,11.6128929 C54.9276429,12.0024643 54.0834107,12.1977321 52.6876071,12.1977321 C50.0584821,12.1977321 47.2017857,9.86078571 48.5001964,5.12083929 C49.45725,1.62819643 52.461,0.349553571 54.2131071,0.414160714 C56.2906607,0.490821429 57.0379821,1.19282143 57.6869464,1.90735714 L56.0312679,3.56255357" id="Fill-14"></path>
                    <path d="M77.61825,3.952125 C77.1308036,3.59533929 76.8391071,2.84898214 75.6376071,2.84898214 C74.2422857,2.84898214 72.0668571,2.58910714 70.8335357,6.80882143 C70.0095536,9.62983929 71.6772857,12.1977321 73.4949643,12.1977321 C74.3396786,12.1649464 75.1834286,11.8081607 75.7022143,11.451375 L76.0276607,12.1977321 L78.7541786,12.1977321 L80.9614286,0.381857143 L78.2995179,0.381857143 L77.61825,3.952125 Z M76.7094107,7.75044643 C76.9692857,6.90669643 76.8270536,5.85273214 76.5469286,5.47858929 C75.7677857,4.44005357 73.976625,5.26114286 73.4303571,7.29626786 C73.0740536,8.6265 73.8527143,9.63321429 74.72925,9.63321429 C75.670875,9.63321429 76.2542679,8.886375 76.7094107,7.75044643 Z" id="Fill-15"></path>
                    <path d="M57.8489464,3.14116071 L57.459375,5.153625 C58.0765179,5.08901786 59.7317143,4.82914286 60.60825,4.86096429 C61.4852679,4.89375 62.4587143,4.76405357 62.1660536,6.159375 C61.5170893,6.22494643 56.9724107,5.51041071 56.2588393,9.40564286 C55.9661786,11.3211964 57.6218571,12.295125 58.9202679,12.2300357 C60.2186786,12.1649464 60.5754643,12.0024643 61.0306071,11.6784643 L61.3550893,12.1977321 L63.7243393,12.1977321 L64.7310536,7.13378571 C64.9909286,5.86816071 65.4123214,2.81619643 61.1598214,2.81619643 C60.3811607,2.84898214 59.504625,2.81619643 57.8489464,3.14116071 C57.8489464,3.14116071 59.504625,2.81619643 57.8489464,3.14116071 Z M61.7446607,8.042625 C61.3227857,7.97753571 60.3811607,7.71766071 59.5692321,8.26971429 C58.7577857,8.82176786 58.5306964,9.79521429 59.3749286,10.1201786 C60.1878214,10.4326071 61.3864286,9.89357143 61.549875,9.04885714 L61.7446607,8.042625 Z" id="Fill-17"></path>
                    <path d="M42.0814286,12.1977321 L43.8012321,2.97916071 L45.9766607,2.97916071 L46.2032679,3.888 C46.5928393,3.43285714 47.3396786,2.97916071 48.6053036,2.97916071 L47.9558571,5.41301786 C47.3396786,5.41301786 46.1381786,5.21871429 45.3918214,7.97753571 L44.6126786,12.1977321 L42.0814286,12.1977321" id="Fill-19"></path>
                </g>
            </g>
        </g>
    </g>
</svg>