<svg id="Highlight" xmlns="http://www.w3.org/2000/svg" viewBox="0 0 289 288.8"><style>.st0{fill:#9ECE64;} .st1{fill:#FFFFFF;}</style><path class="st0" d="M144.5 0C64.7 0 0 64.6 0 144.4c0 79.7 62.5 144.4 142.4 144.4S289 224.1 289 144.4 224.3 0 144.5 0z"/><path class="st1" d="M46.9 84.8v-.4C88 72.8 129.1 61.2 169.7 49.1h.4c11.6 41 23.3 82 35.4 122.6-40.5 12.2-82.3 23.3-122.8 35.6-12.4-40.4-23.5-82-35.8-122.5zM181.3 239.1l-.3.6-51-28.2c20.7 1.3 41.9 3 63.6 4.6-4.1 7.6-8.1 15.4-12.3 23zM213.1 180.4c-.5 10-1.5 19.4-2 29.4-30.1-1.9-57.7-4.1-87.1-6.4l89.2-26c0 1.5-.1 1.8-.1 3zM213.9 172.5c-2-5.3-3.8-10.8-5.2-16.3-.7-2.6-1.6-5.6-2.4-8.3-.8-2.6-1.8-5.4-2.6-8.1.3-3.6.7-7.9 1-11.7.9-11.6 1.4-22.6 2.8-33.7-5.1-.6-11.2-1.2-17.1-1.6-1.1-4.3-2.4-8.4-3.6-12.7 10.9 1.1 22.7 1.4 33.4 2.8-1.7 30.2-4.6 60.6-6.3 89.6zM242.1 127.2c-6.8 11.2-13.4 25.3-19.9 35.7l3.2-44.8c5.7 2.8 10.8 6.2 16.7 8.7v.4z"/><title>ico-premium-gallery</title><path class="st0" d="M183.5 142.3c-13.3 3.5-26.1 7.5-39.4 11.1 1-2.4 3.2-4.2 4.4-6.8 2.6-5.6 2.5-12.9 6-17.9 3.2-1.1 3.9.2 6-1.2 2.6-1.7 1.6-6.1 4.4-6.7 3.2-.7 6.6 4.7 8.4 6.3 3 2.9 4.9 5.3 8 7.1-6.4-22.8-13.2-45.3-19.5-68.2h-.8c-33.1 9.4-66.2 19.2-98.6 28.2 2.8 11.7 6.6 23.1 9.9 34.5 3.4 11.6 5.8 23.5 10.3 34.5 2.6-5.5 7.2-10 9.9-16.3 1.8-4.1 2.9-9.4 4-13.9s1.9-9.7 5.2-13.1c5.1-1.4 7.1 0 10.3-3.2 2.8-2.8 2.4-9.5 6.8-9.9 2.7-.2 6.3 3.6 8.3 5.6 7.5 7.1 14.2 14.6 21.5 20.6-1.7 8.2-5.4 15.8-10.7 22.2-17.2 4.6-35.4 10.4-53.7 15.1.4 2.9 1.6 5 2 7.9 33.2-9.3 65.7-19.3 99.4-28.2 0-1.7-1.7-5-2.1-7.7zM75 111.7c-3.6-6.7 1.1-14.2 8-15.1 2.2-.4 4.4-.1 6.4.8 1.7 1.1 3.2 2.6 4.4 4.4 6.1 13.1-13.2 20.4-18.8 9.9z"/></svg>