<svg data-name="Layer 1" xmlns="http://www.w3.org/2000/svg" viewBox="0 0 100 80"><title>img-bump</title><path fill="#d8d8d8" d="M15.3 27.4h62.6V39H15.3z"/><path fill="#fff" d="M15.9 28.1h10.2v10.2H15.9z"/><path fill="#d8d8d8" d="M16.8 37.7v-2.4l2-1.7 2.8 2.1 2-1 1.8 1.3v1.7h-8.6"/><circle cx="23.2" cy="30.9" r="1.4" fill="#d8d8d8"/><path fill="#bfbfbf" d="M21.3 14.9h62.6v11.6H21.3z"/><path fill="#fff" d="M22 15.6h10.2v10.2H22z"/><path fill="#bfbfbf" d="M22.8 25.2v-2.4l2.1-1.7 2.8 2 2-.9 1.7 1.3v1.7h-8.6"/><circle cx="29.2" cy="18.3" r="1.4" fill="#bfbfbf"/><path fill="#d8d8d8" d="M15.3 40h62.6v11.6H15.3z"/><path fill="#fff" d="M15.9 40.7h10.2v10.2H15.9z"/><path fill="#d8d8d8" d="M16.8 50.2v-2.4l2-1.7 2.8 2.1 2-1 1.8 1.3v1.7h-8.6"/><circle cx="23.2" cy="43.4" r="1.4" fill="#d8d8d8"/><path fill="#fff" d="M15.3 52.4h62.6V64H15.3z"/><path d="M77.8 52.4h-2.3v.9h2.3v-.9zm-4.6 0h-2.3v.9h2.3v-.9zm-4.6 0h-2.3v.9h2.3v-.9zm-4.7 0h-2.3v.9h2.3v-.9zm-4.6 0H57v.9h2.3v-.9zm-4.6 0h-2.3v.9h2.3v-.9zm-4.7 0h-2.3v.9H50v-.9zm-4.6 0h-2.3v.9h2.3v-.9zm-4.7 0h-2.3v.9h2.3v-.9zm-4.6 0h-2.3v.9h2.3v-.9zm-4.6 0h-2.3v.9h2.3v-.9zm-4.7 0h-2.3v.9h2.3v-.9zm-4.6 0h-2.3v.9h2.3v-.9zm-4.7 0h-2.3v.9h2.3v-.9zm-1.3 2.4h-.9v2.3h.9v-2.3zm0 4.6h-.9v2.3h.9v-2.3zm1.3 3.7h-2.3v.9h2.3v-.9zm4.7 0h-2.3v.9h2.3v-.9zm4.6 0h-2.3v.9h2.3v-.9zm4.7 0h-2.3v.9h2.3v-.9zm4.6 0h-2.3v.9h2.3v-.9zm4.6 0h-2.3v.9h2.3v-.9zm4.7 0h-2.3v.9h2.3v-.9zm4.6 0h-2.3v.9H50v-.9zm4.7 0h-2.3v.9h2.3v-.9zm4.6 0H57v.9h2.3v-.9zm4.6 0h-2.3v.9h2.3v-.9zm4.7 0h-2.3v.9h2.3v-.9zm4.6 0h-2.3v.9h2.3v-.9zm4.7 0h-2.3v.9h2.3v-.9zm0-3.7H77v2.3h.8l.1-2.3zm0-4.6H77v2.3h.8l.1-2.3z" fill="#d8d8d8"/><g data-name="53-Premium-Feature-Icons"><path d="M81.7 58.7a24.66 24.66 0 0 1-9.7-2.3 1.08 1.08 0 0 1-.6-1.1 1 1 0 0 1 1-.8h.2a23 23 0 0 0 4.5.5c1.7 0 2.7-.4 3.2-1.1 1.2-1.9.1-6.5-3.4-14.6l-4 3.1a1.06 1.06 0 0 1-1.6-.3 1 1 0 0 1-.2-.9c.5-2.7 1.8-9.7 2.9-16.1a1.11 1.11 0 0 1 1.27-.93h.13c.1 0 .2.1.3.1 5.4 2.9 12.2 6.8 14.8 8.3a1.14 1.14 0 0 1 .43 1.55 1.56 1.56 0 0 1-.8.6l-5 .9c5 9.2 6.4 15.9 4.1 19.7-1.33 2.18-3.93 3.38-7.53 3.38z" fill="#3f9fd7"/><path d="M75.2 24.7a.2.2 0 0 1 .2.1c5.4 2.9 12.2 6.8 14.8 8.3a.48.48 0 0 1 .2.6.53.53 0 0 1-.3.2l-5.3 1a.45.45 0 0 0-.4.49.2.2 0 0 0 .1.2C94.1 53.3 88.8 58 81.8 58a23.15 23.15 0 0 1-9.4-2.2.37.37 0 0 1-.21-.48.53.53 0 0 1 .3-.2h.1a24 24 0 0 0 4.6.5c5.3 0 6.2-3.5.4-17a.48.48 0 0 0-.59-.26h-.2l-4.2 3.2a.48.48 0 0 1-.68 0 .33.33 0 0 1-.1-.4c.5-2.7 1.8-9.7 2.9-16.1a.46.46 0 0 1 .5-.4m-.1-1.4a1.93 1.93 0 0 0-1.9 1.5c-1.1 6.4-2.4 13.4-2.9 16.1a1.84 1.84 0 0 0 1.39 2.2 1.8 1.8 0 0 0 1.6-.4l3.3-2.5c3.2 7.3 4.2 11.7 3.2 13.2-.1.2-.6.8-2.6.8a21.18 21.18 0 0 1-4.4-.5h-.31a1.72 1.72 0 0 0-1.7 1.4 1.75 1.75 0 0 0 1 2 26.56 26.56 0 0 0 10 2.3c3.8 0 6.7-1.3 8.1-3.8 2.3-3.9 1.1-10.5-3.6-19.5l4.1-.8a1.81 1.81 0 0 0 1.5-2.07 2 2 0 0 0-.9-1.3c-2.6-1.5-9.4-5.5-14.8-8.3a2.28 2.28 0 0 0-1.1-.3z" fill="#fff"/></g></svg>