<svg data-name="Layer 1" xmlns="http://www.w3.org/2000/svg" viewBox="0 0 100 80"><title>img-combo</title><path fill="#f1c604" d="M44.44 27.35h7v.7h-7zM47.94 32c1.9 0 3.5-1.1 3.5-2.5h-7c0 1.5 1.56 2.5 3.5 2.5zM56 14.55a8.17 8.17 0 0 0-8-8.3h-.06a8.33 8.33 0 0 0-8.1 8.4c0 3 1.6 4.9 2.8 6.4.9 1.1 1.7 2.1 1.7 3.2v1.6h7.1v-1.6c0-1.1.8-2.1 1.7-3.2 1.3-1.6 2.8-3.5 2.9-6.5zm-3.5 5.9a7.47 7.47 0 0 0-1.9 3.3h-2.4v-7l4.2-4.3-.5-.5-4 4.3-4.1-4.1-.5.5L47.5 17v7h-2.4a7 7 0 0 0-1.9-3.3c-1.2-1.5-2.6-3.2-2.6-5.8a7.21 7.21 0 1 1 14.4-.1c.14 2.5-1.26 4.25-2.46 5.7z"/><path fill="#ff7a2a" d="M48.64 78.35l17.8-5.9v-17l-14.5 4.8-3.3-5.2v23.3"/><path fill="#ff7a2a" d="M48.64 52.45l3.8 6.1 16.7-5.6-3.2-6.4-17.3 5.9M65.94 45.15l5-5.2-17.1-6-5.2 5.4 17.3 5.8M47.24 78.35l-17.8-5.9v-17l14.6 4.8 3.2-5.2v23.3"/><path fill="#ff7a2a" d="M47.24 52.45l-3.8 6.1-16.7-5.6 3.3-6.4 17.2 5.9M30.04 45.15l-5.1-5.2 17.2-6 5.1 5.4-17.2 5.8"/><path d="M23.64 39.25a17.64 17.64 0 0 1-6.5 4 .81.81 0 0 1-.9-.3.77.77 0 0 1 .1-1l.1-.1a14.42 14.42 0 0 0 2.7-2.2c.9-.9 1.3-1.7 1.1-2.4-.3-1.7-3.4-3.6-9.8-6.1L9.94 35a.82.82 0 0 1-.91.72h-.09a1.06 1.06 0 0 1-.6-.4c-1.2-1.8-4.3-6.2-7.1-10.3a.82.82 0 0 1 .13-1.15h.07a.31.31 0 0 1 .2-.1c4.5-1.4 10.3-2.9 12.5-3.5a1 1 0 0 1 1.1.6.82.82 0 0 1-.1.7l-2.2 3.2c7.7 2.3 12 5.2 12.9 8.4.5 2.08-.2 4.08-2.2 6.08z" fill="#3f9fd7"/><path d="M76.54 46h-.1l-2.7-9c2.2 2.5 4.5 5.2 6.8 7.8-1.3.45-2.7.85-4 1.2zm10.3-3c-1.2 1.1-2.4 2.1-3.6 3.1C80 42.4 77 39 73.94 35.4l13.2 7.3a.45.45 0 0 1-.3.3zm1.1-.8a20.13 20.13 0 0 1 1.3-2.5c.2-.4.5-.8.7-1.2l.6-1.2c.4-.4 1-.8 1.5-1.2l4.2-3.6a16.8 16.8 0 0 0-1.8-2.1 11.4 11.4 0 0 0 1-1.9c1.1 1.4 2.4 2.8 3.5 4.2-3.7 3.15-7.5 6.35-11 9.45zm8.4-1.9c-2.1.5-4.4 1.4-6.4 1.8l5.5-4.8c.3 1 .5 1.9.9 3zM82.44 19a1.56 1.56 0 0 0-.6-.8 1.61 1.61 0 0 0-2.6.8c-.6 1.8 2.5 3.2 3.3 1-.1 0 0-.65-.1-1z" fill="#9ece64"/><path d="M97 23c-6.1-3.3-12.2-6.7-18.2-10.1-3.2 6.1-6.7 12.1-10 18.2 6.1 3.2 12.1 6.8 18.2 10C90.34 35 93.64 29 97 23zm-23.6 3.9c2.6 1.6 5.4 3 7.9 4.4a8.23 8.23 0 0 0 3.8-1.3 38.06 38.06 0 0 1-.1-4.8 2.71 2.71 0 0 0-.3-1.6c-.5-.5-1.3.4-1.9.4s-.8-.4-1.6-.8a4.35 4.35 0 0 0-2.1.9 9.93 9.93 0 0 1-2 1.1c-1 .4-2.1.4-3 .7a36.33 36.33 0 0 1 2.8-5.1c.9-1.7 1.8-3.4 2.8-5.1 4.8 2.7 9.7 5.4 14.6 8.1l.1.1c-1.9 3.4-3.7 6.7-5.6 10.1a9.7 9.7 0 0 1-.1-1.7c0-.4.2-1.4-.2-1.7s-.8.4-1.3.3a9.22 9.22 0 0 1-.8-.5 13.83 13.83 0 0 0-2.7 1.4c-.4.2-.9.1-1.3.3 1.9 1.1 3.9 2.1 5.8 3.2a5.25 5.25 0 0 1-.7 1.1c-4.9-2.9-9.8-5.4-14.6-8.2a3 3 0 0 1 .54-1.35z" fill="#9ece64"/></svg>