<svg data-name="Layer 3" xmlns="http://www.w3.org/2000/svg" viewBox="0 0 99.95 80"><title>img-highlight</title><path fill="#d8d8d8" d="M15.25 15.6h68.5v12.7h-68.5z"/><path fill="#fff" d="M16.05 16.4h11.2v11.2h-11.2z"/><path fill="#d8d8d8" d="M16.95 26.9v-2.6l2.3-1.9 3 2.2 2.2-1 1.9 1.4v1.9h-9.4"/><circle cx="23.95" cy="19.4" r="1.5" fill="#d8d8d8"/><path fill="#f1c604" d="M15.55 29.3h68.5V42h-68.5z"/><path fill="#fff" d="M16.25 30.1h11.2v11.2h-11.2z"/><path fill="#f1c604" d="M17.15 40.6V38l2.3-1.9 3 2.2 2.2-1 1.9 1.4v1.9h-9.4"/><circle cx="24.15" cy="33.1" r="1.5" fill="#f1c604"/><path fill="#d8d8d8" d="M15.55 43.1h68.5v12.7h-68.5z"/><path fill="#fff" d="M16.25 43.8h11.2V55h-11.2z"/><path fill="#d8d8d8" d="M17.15 54.3v-2.6l2.3-1.9 3 2.2 2.2-1 1.9 1.4v1.9h-9.4"/><circle cx="24.15" cy="46.8" r="1.5" fill="#d8d8d8"/><path fill="#d8d8d8" d="M15.55 57.3h68.5V70h-68.5z"/><path fill="#fff" d="M16.25 58h11.2v11.2h-11.2z"/><path fill="#d8d8d8" d="M17.15 68.5v-2.6l2.3-1.9 3 2.3 2.2-1.1 1.9 1.5v1.8h-9.4"/><circle cx="24.15" cy="61" r="1.5" fill="#d8d8d8"/><path d="M11.65 35l-9-1c-.2 0-.3-.1-.5-.1a1.79 1.79 0 0 0-2 1.8 2 2 0 0 0 2 1.8.9.9 0 0 0 .5-.1l9-1.1a.65.65 0 1 0 .1-1.3h-.1zM12.45 31.2l-5.6-3.6c-.1-.1-.2-.1-.3-.2a1.34 1.34 0 0 0-1.85.41l-.05.09a1.4 1.4 0 0 0 .8 1.8c.1.1.2.1.3.2L12 32.1a.5.5 0 0 0 .6-.8s-.05-.1-.15-.1zM12.45 40.5l-5.6 3.6c-.1.1-.2.1-.3.2a1.36 1.36 0 0 1-1.87-.45 1.4 1.4 0 0 1 .8-1.8.37.37 0 0 1 .3-.1L12 39.6a.49.49 0 0 1 .7.7.16.16 0 0 1-.11.2h-.14zM88.45 35.3l9-1c.2 0 .3-.1.5-.1a1.84 1.84 0 0 1 2 1.67V36a2 2 0 0 1-2 1.8.9.9 0 0 1-.5-.1l-9-1a.65.65 0 0 1-.1-1.3zM87.65 31.5l5.6-3.6c.1-.1.2-.1.3-.2a1.34 1.34 0 0 1 1.85.41l.05.09a1.4 1.4 0 0 1-.8 1.8.37.37 0 0 1-.3.1L88 32.3a.5.5 0 0 1-.6-.8h.2zM87.65 40.8l5.6 3.6c.1.1.2.1.3.2a1.38 1.38 0 0 0 1.8-.3 1.4 1.4 0 0 0-.3-1.8c-.1-.1-.2-.1-.3-.2a.37.37 0 0 0-.3-.1L88 39.9a.49.49 0 0 0-.7.7c.15.1.25.1.35.2z" fill="#f1c604"/></svg>