<svg data-name="Layer 2" xmlns="http://www.w3.org/2000/svg" viewBox="0 0 100 80"><title>img-gallery</title><path fill="#d8d8d8" d="M15.2 58.35h69.3v12.8H15.2z"/><path fill="#fff" d="M16 59.15h11.3v11.3H16z"/><path fill="#d8d8d8" d="M16.9 69.65v-2.6l2.3-1.8 3.1 2.2 2.2-1 1.9 1.4v1.8h-9.5"/><circle cx="24" cy="62.15" r="1.5" fill="#d8d8d8"/><path fill="#d8d8d8" d="M15.2 44.45h69.3v12.8H15.2z"/><path fill="#fff" d="M16 45.25h11.3v11.3H16z"/><path fill="#d8d8d8" d="M16.9 55.85v-2.6l2.3-1.9 3.1 2.2 2.2-1 1.9 1.4v1.9h-9.5"/><circle cx="24" cy="48.25" r="1.5" fill="#d8d8d8"/><path fill="#d8d8d8" d="M15.2 21.75h21.7v20.7H15.2z"/><path fill="#fff" d="M16.3 22.85h19.6v14.2H16.3z"/><path fill="#d8d8d8" d="M17.7 36.05v-3.2l4-2.4 5.5 2.8 3.9-1.3 3.5 1.8v2.3H17.7"/><circle cx="32.4" cy="26.25" r="1.5" fill="#d8d8d8"/><path fill="#d8d8d8" d="M39.2 21.75h21.7v20.7H39.2z"/><path fill="#fff" d="M40.2 22.85h19.6v14.2H40.2z"/><path fill="#d8d8d8" d="M41.6 36.05v-3.2l4-2.4 5.5 2.8 4-1.3 3.4 1.8v2.3H41.6"/><circle cx="56.4" cy="26.25" r="1.5" fill="#d8d8d8"/><path fill="#bcbcbc" d="M62.8 21.75h21.7v20.7H62.8z"/><path fill="#fff" d="M63.9 22.85h19.6v14.2H63.9z"/><path fill="#bcbcbc" d="M65.3 36.05v-3.2l4-2.4 5.5 2.8 4-1.3 3.4 1.8v2.3H65.3"/><circle cx="80.1" cy="26.25" r="1.5" fill="#bcbcbc"/><path fill="#b0d97c" d="M79.4 22.15l-6 10.1 10.1-5.9-4.1-4.2"/><path d="M86.1 30.65a10.82 10.82 0 0 1-7.4-3.6c-3.6-3.6-4.7-8.5-2.3-10.9a4.67 4.67 0 0 1 3.4-1.3 10.82 10.82 0 0 1 7.4 3.6 13.14 13.14 0 0 1 3.4 5.8 5.22 5.22 0 0 1-1.1 5.1 4.84 4.84 0 0 1-3.4 1.3z" fill="#b0d97c"/><path d="M79.7 15.45a10.7 10.7 0 0 1 7.1 3.4c3.4 3.4 4.5 8 2.3 10.1a3.77 3.77 0 0 1-3 1.1 10.7 10.7 0 0 1-7.1-3.4c-3.4-3.4-4.5-8-2.3-10.1a3.77 3.77 0 0 1 3-1.1m0-1a5.75 5.75 0 0 0-3.8 1.4c-2.6 2.6-1.6 7.7 2.3 11.6a11.83 11.83 0 0 0 7.8 3.7 5.75 5.75 0 0 0 3.8-1.4 5.76 5.76 0 0 0 1.2-5.5 12.59 12.59 0 0 0-3.5-6 11 11 0 0 0-7.8-3.8z" fill="#fff"/><path d="M85.7 25.25a5.43 5.43 0 0 1-3.4-1.6 5.26 5.26 0 0 1-1.5-2.6 2.52 2.52 0 0 1 .5-2.5l7-7.1 6.1 6.1-7.1 7.1a1.91 1.91 0 0 1-1.6.6z" fill="#b0d97c"/><path d="M88.3 12.15l5.4 5.4-6.1 6.1-.7.7a2.11 2.11 0 0 1-1.3.5 4.59 4.59 0 0 1-3.1-1.5c-1.5-1.5-1.9-3.4-1-4.4l.7-.7 6.1-6.1m0-1.5l-.7.7-6.1 6.1-.7.7c-1.4 1.4-.9 3.9 1 5.8a5.48 5.48 0 0 0 3.8 1.8 3.23 3.23 0 0 0 2.1-.8l.7-.7 6.1-6.1.7-.7-.7-.7-5.4-5.4-.8-.7z" fill="#fff"/><path d="M92.4 21.85a8.38 8.38 0 0 1-5.8-2.8 8.94 8.94 0 0 1-2.6-4.5 4 4 0 0 1 .9-4 3.39 3.39 0 0 1 2.7-1 8.38 8.38 0 0 1 5.8 2.8c2.9 2.9 3.7 6.6 1.8 8.5a4.55 4.55 0 0 1-2.8 1z" fill="#b0d97c"/><path d="M87.6 10.05a8 8 0 0 1 5.4 2.6c2.6 2.6 3.4 6.1 1.8 7.8a3.34 3.34 0 0 1-2.3.9 8 8 0 0 1-5.4-2.6c-2.6-2.6-3.4-6.1-1.8-7.8a2.81 2.81 0 0 1 2.3-.9m0-1.1a4.47 4.47 0 0 0-3.1 1.2c-2.1 2.1-1.3 6.2 1.8 9.2a9.19 9.19 0 0 0 6.2 2.9 4.47 4.47 0 0 0 3.1-1.2c2.1-2.1 1.3-6.2-1.8-9.2A9.6 9.6 0 0 0 87.6 9z" fill="#fff"/></svg>