<svg data-name="Layer 1" xmlns="http://www.w3.org/2000/svg" viewBox="0 0 945.7 945.8"><title>premium-logo</title><path fill="#f07729" d="M570.4 107.4l138.5-44.2 31.2 142 142 30.9-44 138.5 107.6 97.9-107.4 98 44.2 138.4-142 31.2-30.9 142.1-138.6-44-97.8 107.6-98-107.4-138.4 44.2-31.2-142-142.1-30.9 44-138.5L0 473.3l107.3-98-44.2-138.4 142-31.2L236 63.6l138.6 44L472.4 0l98 107.4"/><path fill="#f07729" d="M570.4 107.4l138.5-44.2 31.2 142 142 30.9-44 138.5 107.6 97.9-107.4 98 44.2 138.4-142 31.2-30.9 142.1-138.6-44-97.8 107.6-98-107.4-138.4 44.2-31.2-142-142.1-30.9 44-138.5L0 473.3l107.3-98-44.2-138.4 142-31.2L236 63.6l138.6 44L472.4 0l98 107.4"/><path d="M483.3 244h-14a13.07 13.07 0 0 0-8.2 3.5l-156.8 139a12.65 12.65 0 0 0-3.5 8.2v24.5c0 7 4.7 11.7 11.7 11.7h47.8v134.4c0 46.6 7 71.4 26.8 90.1 22.2 22.2 62.1 36.2 106.4 36.2 43.1 0 78.4-10.5 112.3-35a10.55 10.55 0 0 0 4.7-9.3v-76.1a12.14 12.14 0 0 0-5.8-10.5 14.62 14.62 0 0 0-11.6 0c-21 10.5-39.7 16.3-58.6 16.3-28 0-39.7-14-39.7-45.5V429.7h95.9c7 0 11.7-4.7 11.7-11.7v-62.1c0-7-4.7-11.7-11.7-11.7h-95.9v-90.1c.2-4.3-5.6-10.1-11.5-10.1" fill="#fff"/><path d="M472.8 161.1C300.6 161.1 161 300.7 161 472.9s139.6 311.8 311.8 311.8 311.8-139.6 311.8-311.8S645 161.1 472.8 161.1zm0 575c-145.4 0-263.2-117.9-263.2-263.2s117.9-263.2 263.2-263.2S736 327.6 736 472.9 618.2 736.1 472.8 736.1z" fill="#fff"/></svg>