<?xml version="1.0" encoding="utf-8"?>
<!-- Generator: Adobe Illustrator 20.1.0, SVG Export Plug-In . SVG Version: 6.00 Build 0)  -->
<svg version="1.1" id="Layer_1" xmlns="http://www.w3.org/2000/svg" xmlns:xlink="http://www.w3.org/1999/xlink" x="0px" y="0px"
	 viewBox="0 0 26.2 25.5" style="enable-background:new 0 0 26.2 25.5;" xml:space="preserve">
<style type="text/css">
	.st0{fill:url(#SVGID_1_);}
	.st1{fill:url(#SVGID_2_);}
	.st2{fill:url(#SVGID_3_);}
	.st3{fill:url(#SVGID_4_);}
	.st4{fill:#FFFFFF;}
</style>
<g>
	<g>
		<linearGradient id="SVGID_1_" gradientUnits="userSpaceOnUse" x1="-0.2376" y1="7.6797" x2="26.3704" y2="15.4098">
			<stop  offset="1.000000e-03" style="stop-color:#58595B"/>
			<stop  offset="1" style="stop-color:#0E0E0E"/>
		</linearGradient>
		<path class="st0" d="M14.2,11.2c0-0.8-0.6-1.4-1.6-1.4h-2.1c0-0.1,0,2.8,0,2.8h2.1C13.5,12.6,14.2,12,14.2,11.2z"/>
		<linearGradient id="SVGID_2_" gradientUnits="userSpaceOnUse" x1="1.741357e-02" y1="6.802" x2="26.6254" y2="14.5321">
			<stop  offset="1.000000e-03" style="stop-color:#58595B"/>
			<stop  offset="1" style="stop-color:#0E0E0E"/>
		</linearGradient>
		<path class="st1" d="M17.6,12.8c0,2,1.1,3.3,2.9,3.3c1.8,0,2.9-1.3,2.9-3.3c0-2-1.1-3.3-2.9-3.3C18.7,9.5,17.6,10.8,17.6,12.8z"/>
		<linearGradient id="SVGID_3_" gradientUnits="userSpaceOnUse" x1="-0.8002" y1="9.6162" x2="25.8078" y2="17.3464">
			<stop  offset="1.000000e-03" style="stop-color:#58595B"/>
			<stop  offset="1" style="stop-color:#0E0E0E"/>
		</linearGradient>
		<path class="st2" d="M6.9,11.2c0-0.8-0.6-1.4-1.4-1.4H3.4c0-0.1,0,2.8,0,2.8h2.1C6.4,12.6,6.9,12.1,6.9,11.2z"/>
		<linearGradient id="SVGID_4_" gradientUnits="userSpaceOnUse" x1="-0.5603" y1="8.7906" x2="26.0477" y2="16.5207">
			<stop  offset="1.000000e-03" style="stop-color:#58595B"/>
			<stop  offset="1" style="stop-color:#0E0E0E"/>
		</linearGradient>
		<path class="st3" d="M24.6,4.7L7.1,0.1C5.9-0.2,4.7,0.5,4.4,1.6L2.6,8.3h2.9c1.7,0,2.9,1.1,2.9,2.8s-1.1,2.8-2.9,2.8H3.4v3.4H2
			v-6.5l-1.9,7.4c-0.3,1.2,0.4,2.4,1.6,2.7l17.5,4.6c1.2,0.3,2.4-0.4,2.7-1.6l2.1-8.1c-0.8,1-2,1.7-3.4,1.7c-2.6,0-4.4-2-4.4-4.7
			s1.9-4.7,4.4-4.7c2.3,0,4.1,1.8,4.3,4.2l1.3-4.9C26.5,6.1,25.8,4.9,24.6,4.7z M14.1,17.2L12,13.9h-1.3v3.4H9.1v-9h3.6
			c1.8,0,2.9,1.1,2.9,2.8c0,1.6-1,2.4-2.1,2.7l2.5,3.5H14.1z"/>
	</g>
	<path class="st4" d="M15.5,11.1c0-1.7-1.1-2.8-2.9-2.8H9.1v9h1.6v-3.4H12l2.2,3.4h1.8l-2.5-3.5C14.5,13.5,15.5,12.7,15.5,11.1z
		 M10.6,12.6c0,0,0-2.9,0-2.8h2.1c1,0,1.6,0.6,1.6,1.4s-0.7,1.4-1.6,1.4H10.6z"/>
	<path class="st4" d="M3.4,17.2v-3.4h2.2c1.8,0,2.9-1.1,2.9-2.8S7.3,8.3,5.6,8.3H2.6L2,10.8v6.5H3.4z M3.4,9.8h2.1
		c0.8,0,1.4,0.6,1.4,1.4c0,0.9-0.5,1.4-1.4,1.4H3.4C3.4,12.6,3.4,9.7,3.4,9.8z"/>
	<path class="st4" d="M20.5,8.1c-2.5,0-4.4,2-4.4,4.7s1.8,4.7,4.4,4.7c1.5,0,2.7-0.6,3.4-1.7l0.9-3.5C24.6,9.8,22.9,8.1,20.5,8.1z
		 M20.5,16.1c-1.8,0-2.9-1.3-2.9-3.3c0-2,1.1-3.3,2.9-3.3c1.8,0,2.9,1.3,2.9,3.3C23.4,14.8,22.3,16.1,20.5,16.1z"/>
</g>
</svg>
