<svg id="Layer_1" xmlns="http://www.w3.org/2000/svg" viewBox="0 0 26.2 25.5"><style>.st4{fill:#fff}</style><linearGradient id="SVGID_1_" gradientUnits="userSpaceOnUse" x1="-.238" y1="7.68" x2="26.37" y2="15.41"><stop offset=".001" stop-color="#58595b"/><stop offset="1" stop-color="#0e0e0e"/></linearGradient><path d="M14.2 11.2c0-.8-.6-1.4-1.6-1.4h-2.1v2.8h2.1c.9 0 1.6-.6 1.6-1.4z" fill="url(#SVGID_1_)"/><linearGradient id="SVGID_2_" gradientUnits="userSpaceOnUse" x1=".017" y1="6.802" x2="26.625" y2="14.532"><stop offset=".001" stop-color="#58595b"/><stop offset="1" stop-color="#0e0e0e"/></linearGradient><path d="M17.6 12.8c0 2 1.1 3.3 2.9 3.3 1.8 0 2.9-1.3 2.9-3.3 0-2-1.1-3.3-2.9-3.3-1.8 0-2.9 1.3-2.9 3.3z" fill="url(#SVGID_2_)"/><linearGradient id="SVGID_3_" gradientUnits="userSpaceOnUse" x1="-.8" y1="9.616" x2="25.808" y2="17.346"><stop offset=".001" stop-color="#58595b"/><stop offset="1" stop-color="#0e0e0e"/></linearGradient><path d="M6.9 11.2c0-.8-.6-1.4-1.4-1.4H3.4v2.8h2.1c.9 0 1.4-.5 1.4-1.4z" fill="url(#SVGID_3_)"/><linearGradient id="SVGID_4_" gradientUnits="userSpaceOnUse" x1="-.56" y1="8.791" x2="26.048" y2="16.521"><stop offset=".001" stop-color="#58595b"/><stop offset="1" stop-color="#0e0e0e"/></linearGradient><path d="M24.6 4.7L7.1.1C5.9-.2 4.7.5 4.4 1.6L2.6 8.3h2.9c1.7 0 2.9 1.1 2.9 2.8s-1.1 2.8-2.9 2.8H3.4v3.4H2v-6.5L.1 18.2c-.3 1.2.4 2.4 1.6 2.7l17.5 4.6c1.2.3 2.4-.4 2.7-1.6l2.1-8.1c-.8 1-2 1.7-3.4 1.7-2.6 0-4.4-2-4.4-4.7s1.9-4.7 4.4-4.7c2.3 0 4.1 1.8 4.3 4.2l1.3-4.9c.3-1.3-.4-2.5-1.6-2.7zM14.1 17.2L12 13.9h-1.3v3.4H9.1v-9h3.6c1.8 0 2.9 1.1 2.9 2.8 0 1.6-1 2.4-2.1 2.7l2.5 3.5h-1.9z" fill="url(#SVGID_4_)"/><path class="st4" d="M15.5 11.1c0-1.7-1.1-2.8-2.9-2.8H9.1v9h1.6v-3.4H12l2.2 3.4H16l-2.5-3.5c1-.3 2-1.1 2-2.7zm-4.9 1.5V9.8h2.1c1 0 1.6.6 1.6 1.4s-.7 1.4-1.6 1.4h-2.1zM3.4 17.2v-3.4h2.2c1.8 0 2.9-1.1 2.9-2.8S7.3 8.3 5.6 8.3h-3L2 10.8v6.5h1.4zm0-7.4h2.1c.8 0 1.4.6 1.4 1.4 0 .9-.5 1.4-1.4 1.4H3.4V9.8zM20.5 8.1c-2.5 0-4.4 2-4.4 4.7s1.8 4.7 4.4 4.7c1.5 0 2.7-.6 3.4-1.7l.9-3.5c-.2-2.5-1.9-4.2-4.3-4.2zm0 8c-1.8 0-2.9-1.3-2.9-3.3 0-2 1.1-3.3 2.9-3.3 1.8 0 2.9 1.3 2.9 3.3 0 2-1.1 3.3-2.9 3.3z"/></svg>