<?xml version="1.0" encoding="utf-8"?>
<!-- Generator: Adobe Illustrator 22.1.0, SVG Export Plug-In . SVG Version: 6.00 Build 0)  -->
<svg version="1.1" id="Layer_1" xmlns="http://www.w3.org/2000/svg" xmlns:xlink="http://www.w3.org/1999/xlink" x="0px" y="0px"
	 viewBox="0 0 800 800" style="enable-background:new 0 0 800 800;" xml:space="preserve">
<style type="text/css">
	.st0{fill:url(#SVGID_1_);}
	.st1{fill:url(#SVGID_2_);}
	.st2{fill:#FFFFFF;}
</style>
<g>
	
		<linearGradient id="SVGID_1_" gradientUnits="userSpaceOnUse" x1="35.0827" y1="578.4541" x2="439.0827" y2="12.4541" gradientTransform="matrix(1 0 0 -1 0 802)">
		<stop  offset="6.000000e-03" style="stop-color:#FFCC06"/>
		<stop  offset="0.498" style="stop-color:#F8A317"/>
		<stop  offset="1" style="stop-color:#F17A28"/>
	</linearGradient>
	<path class="st0" d="M146.5,384.2c6.2-1,11.8-2.9,16.6-5.6c4.9-2.7,8.8-6.6,11.7-11.7c2.9-5.1,4.4-11.7,4.4-19.8
		s-1.5-14.8-4.4-19.8c-2.9-5.1-6.8-9-11.7-11.7c-4.9-2.7-10.4-4.6-16.6-5.6c-6.2-1-12.5-1.5-18.8-1.5H85v77.3h42.7
		C134,385.8,140.3,385.2,146.5,384.2z"/>
	
		<linearGradient id="SVGID_2_" gradientUnits="userSpaceOnUse" x1="193.4502" y1="691.4938" x2="597.4502" y2="125.4938" gradientTransform="matrix(1 0 0 -1 0 802)">
		<stop  offset="6.000000e-03" style="stop-color:#FFCC06"/>
		<stop  offset="0.498" style="stop-color:#F8A317"/>
		<stop  offset="1" style="stop-color:#F17A28"/>
	</linearGradient>
	<path class="st1" d="M712.5,130.9l-448-120c-58-15.5-117.9,19.2-133.6,77l-51.4,192h57.3c15.4,0,28,2.1,38,6.3
		c9.9,4.2,17.8,9.5,23.6,15.9s9.8,13.7,12,21.7c2.3,8,3.4,15.8,3.4,23.2s-1.1,15.2-3.4,23.2c-2.3,8-6.3,15.3-12,21.7
		c-5.8,6.4-13.6,11.8-23.6,15.9c-10,4.2-22.6,6.3-38,6.3H85v105.8H52.4V381.3L11,536c-15.5,57.5,19,117.2,76.5,132.5L536.4,789
		c57.5,15.5,117.2-19,132.5-76.5l55.6-207.2c-0.4,0.4-0.9,0.8-1.3,1.2c-7.5,6.3-16.3,11.2-26.5,14.6c-10.2,3.4-21,5.1-32.6,5.1
		c-15.4,0-30-2.7-43.7-8.1c-13.8-5.4-24.8-13.8-32.9-25.1l26.8-23.1c5.9,8.8,13.4,15.3,22.6,19.5c9.2,4.2,18.6,6.3,28.3,6.3
		c5.4,0,11-0.8,16.6-2.5c5.6-1.7,10.8-4.2,15.4-7.6c4.6-3.4,8.4-7.6,11.4-12.5c2.9-5,4.4-10.7,4.4-17.3c0-9.3-2.9-16.3-8.8-21.2
		c-5.9-4.9-13.2-8.9-21.9-12.2c-8.7-3.3-18.2-6.4-28.5-9.5c-10.3-3.1-19.8-7.3-28.5-12.7c-8.7-5.4-16-12.7-21.9-21.9
		c-5.9-9.2-8.8-21.5-8.8-37.1c0-7,1.5-14.5,4.6-22.4c3.1-7.9,7.9-15.1,14.4-21.7c6.6-6.6,15-12,25.3-16.4
		c10.3-4.4,22.7-6.6,37.1-6.6c13.1,0,25.7,1.8,37.6,5.4c12,3.6,22.5,11,31.5,22l-26.5,24.1c-4.1-6.3-9.8-11.4-17.3-15.3
		c-7.5-3.8-15.9-5.8-25.4-5.8c-9,0-16.6,1.2-22.6,3.6c-6,2.4-10.8,5.4-14.4,9.2c-3.6,3.7-6.2,7.7-7.6,12c-1.5,4.3-2.2,8.3-2.2,11.9
		c0,10.2,2.9,18,8.8,23.4c5.9,5.4,13.2,9.8,21.9,13.2c8.7,3.4,18.2,6.4,28.5,9.2c10.3,2.7,19.8,6.5,28.5,11.4
		c8.7,4.9,16,11.4,21.9,19.7c2.5,3.5,4.5,7.6,5.9,12.3l44.6-166.2C804.3,206.1,769.8,146.4,712.5,130.9z M375.9,520.1H233.1V279.9
		h32.6v209.6h110.2V520.1z M570.2,432.2c0,14-2.4,26.7-7.1,38.2c-4.7,11.4-11.3,21.3-19.7,29.7c-8.4,8.4-18.2,14.8-29.5,19.3
		c-11.3,4.5-23.5,6.8-36.6,6.8c-13.1,0-25.3-2.3-36.6-6.8c-11.3-4.5-21.1-11-29.5-19.3c-8.4-8.4-14.9-18.3-19.7-29.7
		c-4.7-11.4-7.1-24.1-7.1-38.2V279.9H417v147.2c0,7.5,1,15.2,3.1,23.2c2,8,5.4,15.4,10.2,22.2c4.7,6.8,11,12.3,18.7,16.6
		c7.7,4.3,17.2,6.4,28.5,6.4c11.3,0,20.8-2.1,28.5-6.4c7.7-4.3,13.9-9.8,18.7-16.6c4.7-6.8,8.1-14.2,10.2-22.2
		c2-8,3.1-15.8,3.1-23.2V279.9h32.6V432.2z"/>
	<path class="st2" d="M85,520.1V414.2h51.9c15.4,0,28-2.1,38-6.3c9.9-4.2,17.8-9.5,23.6-15.9c5.8-6.4,9.8-13.7,12-21.7
		c2.3-8,3.4-15.8,3.4-23.2s-1.1-15.2-3.4-23.2c-2.3-8-6.3-15.3-12-21.7s-13.6-11.8-23.6-15.9c-10-4.2-22.6-6.3-38-6.3H79.5
		L52.4,381.3v138.8H85z M85,308.4h42.7c6.3,0,12.6,0.5,18.8,1.5c6.2,1,11.8,2.9,16.6,5.6c4.9,2.7,8.8,6.6,11.7,11.7
		c2.9,5.1,4.4,11.7,4.4,19.8s-1.5,14.8-4.4,19.8c-2.9,5.1-6.8,9-11.7,11.7c-4.9,2.7-10.4,4.6-16.6,5.6c-6.2,1-12.5,1.5-18.8,1.5H85
		V308.4z"/>
	<polygon class="st2" points="265.7,279.9 233.1,279.9 233.1,520.1 375.9,520.1 375.9,489.5 265.7,489.5 	"/>
	<path class="st2" d="M537.7,427.1c0,7.5-1,15.2-3.1,23.2c-2,8-5.4,15.4-10.2,22.2c-4.7,6.8-11,12.3-18.7,16.6
		c-7.7,4.3-17.2,6.4-28.5,6.4c-11.3,0-20.8-2.1-28.5-6.4c-7.7-4.3-13.9-9.8-18.7-16.6c-4.7-6.8-8.1-14.2-10.2-22.2
		c-2-8-3.1-15.8-3.1-23.2V279.9h-32.6v152.3c0,14,2.4,26.7,7.1,38.2c4.7,11.4,11.3,21.3,19.7,29.7c8.4,8.4,18.2,14.8,29.5,19.3
		c11.3,4.5,23.5,6.8,36.6,6.8c13.1,0,25.3-2.3,36.6-6.8c11.3-4.5,21.1-11,29.5-19.3c8.4-8.4,14.9-18.3,19.7-29.7
		c4.7-11.4,7.1-24.1,7.1-38.2V279.9h-32.6V427.1z"/>
	<path class="st2" d="M716.9,398.1c-8.7-4.9-18.2-8.6-28.5-11.4c-10.3-2.7-19.8-5.8-28.5-9.2c-8.7-3.4-16-7.8-21.9-13.2
		c-5.9-5.4-8.8-13.2-8.8-23.4c0-3.6,0.7-7.6,2.2-11.9c1.5-4.3,4-8.3,7.6-12c3.6-3.7,8.4-6.8,14.4-9.2c6-2.4,13.5-3.6,22.6-3.6
		c9.5,0,18,1.9,25.4,5.8c7.5,3.8,13.2,8.9,17.3,15.3l26.5-24.1c-9-11.1-19.6-18.4-31.5-22c-12-3.6-24.5-5.4-37.6-5.4
		c-14.5,0-26.8,2.2-37.1,6.6c-10.3,4.4-18.7,9.9-25.3,16.4c-6.6,6.6-11.4,13.8-14.4,21.7c-3.1,7.9-4.6,15.4-4.6,22.4
		c0,15.6,2.9,28,8.8,37.1c5.9,9.2,13.2,16.4,21.9,21.9c8.7,5.4,18.2,9.7,28.5,12.7c10.3,3.1,19.8,6.2,28.5,9.5
		c8.7,3.3,16,7.3,21.9,12.2c5.9,4.9,8.8,11.9,8.8,21.2c0,6.6-1.5,12.3-4.4,17.3c-2.9,5-6.7,9.2-11.4,12.5c-4.6,3.4-9.8,5.9-15.4,7.6
		c-5.7,1.7-11.2,2.5-16.6,2.5c-9.7,0-19.2-2.1-28.3-6.3c-9.2-4.2-16.7-10.7-22.6-19.5l-26.8,23.1c8.1,11.3,19.1,19.7,32.9,25.1
		c13.8,5.4,28.4,8.1,43.7,8.1c11.5,0,22.4-1.7,32.6-5.1c10.2-3.4,19-8.3,26.5-14.6c0.5-0.4,0.9-0.8,1.3-1.2l20.2-75.2
		c-1.4-4.7-3.4-8.8-5.9-12.3C732.9,409.6,725.6,403,716.9,398.1z"/>
</g>
</svg>
