<?xml version="1.0" encoding="utf-8"?>
<!-- Generator: Adobe Illustrator 20.1.0, SVG Export Plug-In . SVG Version: 6.00 Build 0)  -->
<svg version="1.1" id="Layer_1" xmlns="http://www.w3.org/2000/svg" xmlns:xlink="http://www.w3.org/1999/xlink" x="0px" y="0px"
	 viewBox="0 0 30 29.2" style="enable-background:new 0 0 30 29.2;" xml:space="preserve">
<style type="text/css">
	.st0{fill:url(#SVGID_1_);}
	.st1{fill:url(#SVGID_2_);}
	.st2{fill:#FFFFFF;}
</style>
<g>
	
		<linearGradient id="SVGID_1_" gradientUnits="userSpaceOnUse" x1="9.927662e-06" y1="15.9585" x2="30.0394" y2="15.9585" gradientTransform="matrix(1 0 0 -1 0 28.89)">
		<stop  offset="6.000000e-03" style="stop-color:#FFCC06"/>
		<stop  offset="0.498" style="stop-color:#F8A317"/>
		<stop  offset="1" style="stop-color:#F17A28"/>
	</linearGradient>
	<path class="st0" d="M6.3,14c0.3-0.2,0.4-0.6,0.4-1.1c0-0.8-0.6-1.5-1.5-1.5h-2v2.8h2C5.7,14.4,6.1,14.3,6.3,14z"/>
	
		<linearGradient id="SVGID_2_" gradientUnits="userSpaceOnUse" x1="0" y1="14.2924" x2="30.0394" y2="14.2924" gradientTransform="matrix(1 0 0 -1 0 28.89)">
		<stop  offset="6.000000e-03" style="stop-color:#FFCC06"/>
		<stop  offset="0.498" style="stop-color:#F8A317"/>
		<stop  offset="1" style="stop-color:#F17A28"/>
	</linearGradient>
	<path class="st1" d="M28.1,5.3l-20-5.3C6.8-0.3,5.3,0.6,5.1,1.9l-2.2,8.4h2.6c1.6,0,2.7,1.1,2.7,2.6c0,1.3-0.8,2.6-2.7,2.6H3.3v3.3
		L2,18.7v-5.2l-1.9,7.2c-0.4,1.4,0.5,2.7,1.8,3.1l20,5.3c1.4,0.4,2.7-0.5,3.1-1.8l2.4-9c-0.5,0.4-1.2,0.7-2.3,0.7
		c-1.3,0-2.4-0.4-3.2-1.3l-0.1-0.1l0.7-1l0.1,0.1c0.3,0.3,1.1,1.1,2.5,1.1c1.6,0,1.8-1,1.8-1.3c0-0.9-0.9-1.1-2-1.4
		c-1.3-0.4-2.8-0.8-2.8-2.5c0-1.4,1.2-2.4,2.9-2.4c1.2,0,2.3,0.4,3,1.2l0.1,0.1l-0.8,0.9l-0.1-0.1c-0.5-0.6-1.3-1-2.3-1
		c-1,0-1.6,0.5-1.6,1.2c0,0.7,0.9,0.9,1.9,1.2c1.1,0.3,2.5,0.7,2.9,2L30,8.4C30.3,7.1,29.5,5.6,28.1,5.3z M13.7,18.8h-5v-8.4h1.2
		v7.3h3.8V18.8z M20.9,15.6c0,2.2-1.3,3.4-3.5,3.4c-2,0-3.3-1.3-3.3-3.4v-5.1h1.2v5.1c0,1.5,0.8,2.3,2.2,2.3c1.4,0,2.2-0.8,2.2-2.3
		v-5.1h1.2V15.6z"/>
	<polygon class="st2" points="9.9,10.4 8.6,10.4 8.6,18.8 13.7,18.8 13.7,17.6 9.9,17.6 	"/>
	<path class="st2" d="M3.3,18.9v-3.3h2.1c1.9,0,2.7-1.3,2.7-2.6c0-1.5-1.1-2.6-2.7-2.6H2.8L2,13.6v5.2L3.3,18.9z M3.3,11.5h2
		c0.8,0,1.5,0.6,1.5,1.5c0,0.4-0.2,0.8-0.4,1.1c-0.3,0.2-0.6,0.3-1,0.3h-2V11.5z"/>
	<path class="st2" d="M25.1,13.8c-1-0.3-1.9-0.5-1.9-1.2c0-0.7,0.6-1.2,1.6-1.2c1,0,1.8,0.3,2.3,1l0.1,0.1l0.8-0.9l-0.1-0.1
		c-0.7-0.8-1.7-1.2-3-1.2c-1.7,0-2.9,1-2.9,2.4c0,1.7,1.5,2.1,2.8,2.5c1.1,0.3,2,0.5,2,1.4c0,0.3-0.1,1.3-1.8,1.3
		c-1.4,0-2.2-0.8-2.5-1.1l-0.1-0.1l-0.7,1l0.1,0.1c0.8,0.9,1.8,1.3,3.2,1.3c1.1,0,1.8-0.3,2.3-0.7l0.7-2.5
		C27.7,14.5,26.3,14.1,25.1,13.8z"/>
	<path class="st2" d="M19.7,15.6c0,1.5-0.8,2.3-2.2,2.3c-1.4,0-2.2-0.8-2.2-2.3v-5.1h-1.2v5.1c0,2.1,1.3,3.4,3.3,3.4
		c2.2,0,3.5-1.2,3.5-3.4v-5.1h-1.2V15.6z"/>
</g>
</svg>
