<?xml version="1.0" encoding="utf-8"?>
<!-- Generator: Adobe Illustrator 22.1.0, SVG Export Plug-In . SVG Version: 6.00 Build 0)  -->
<svg version="1.1" id="Layer_1" xmlns="http://www.w3.org/2000/svg" xmlns:xlink="http://www.w3.org/1999/xlink" x="0px" y="0px"
	 viewBox="0 0 800 800" style="enable-background:new 0 0 800 800;" xml:space="preserve">
<style type="text/css">
	.st0{fill:url(#SVGID_1_);}
	.st1{fill:url(#SVGID_2_);}
	.st2{fill:url(#SVGID_3_);}
	.st3{fill:url(#SVGID_4_);}
	.st4{fill:#FFFFFF;}
</style>
<g>
	
		<linearGradient id="SVGID_1_" gradientUnits="userSpaceOnUse" x1="51.534" y1="611.371" x2="414.5159" y2="12.901" gradientTransform="matrix(1 0 0 -1 0 802)">
		<stop  offset="1.000000e-03" style="stop-color:#58595B"/>
		<stop  offset="1" style="stop-color:#0E0E0E"/>
	</linearGradient>
	<path class="st0" d="M165.6,377.1c6.2-1,11.8-2.9,16.6-5.6c4.5-2.5,8.1-6.1,10.9-10.9c2.7-4.8,4.1-11.2,4.1-19.2
		c0-8-1.4-14.5-4.1-19.2c-2.8-4.8-6.3-8.4-10.9-10.9c-4.8-2.7-10.4-4.6-16.6-5.6c-6.6-1.1-13.3-1.6-20-1.6h-41.8v74.6h41.8
		C152.3,378.7,159,378.1,165.6,377.1z"/>
	
		<linearGradient id="SVGID_2_" gradientUnits="userSpaceOnUse" x1="376.3409" y1="808.3717" x2="739.3227" y2="209.9017" gradientTransform="matrix(1 0 0 -1 0 802)">
		<stop  offset="1.000000e-03" style="stop-color:#58595B"/>
		<stop  offset="1" style="stop-color:#0E0E0E"/>
	</linearGradient>
	<path class="st1" d="M691.6,329c-8.2-8.9-18.3-16.2-29.8-21.5c-11.5-5.3-24.6-8-39-8c-14.4,0-27.5,2.7-39,8
		c-11.5,5.3-21.6,12.5-29.8,21.5c-8.2,8.9-14.7,19.6-19.2,31.8c-4.5,12.2-6.8,25.4-6.8,39.2c0,13.8,2.3,27,6.8,39.2
		c4.5,12.2,10.9,22.9,19.2,31.8c8.2,8.9,18.2,16.1,29.8,21.5c11.5,5.3,24.6,7.9,39,7.9c14.4,0,27.5-2.7,39-7.9
		c11.5-5.3,21.6-12.5,29.8-21.5c8.2-8.9,14.7-19.6,19.2-31.8c4.5-12.2,6.8-25.4,6.8-39.2c0-13.8-2.3-27-6.8-39.2
		C706.3,348.6,699.9,337.9,691.6,329z"/>
	
		<linearGradient id="SVGID_3_" gradientUnits="userSpaceOnUse" x1="208.6111" y1="706.6409" x2="571.593" y2="108.1709" gradientTransform="matrix(1 0 0 -1 0 802)">
		<stop  offset="1.000000e-03" style="stop-color:#58595B"/>
		<stop  offset="1" style="stop-color:#0E0E0E"/>
	</linearGradient>
	<path class="st2" d="M407.9,360.6c2.7-4.8,4.1-11.2,4.1-19.2c0-8-1.4-14.5-4.1-19.2c-2.8-4.8-6.3-8.4-10.9-10.9
		c-4.8-2.7-10.4-4.6-16.6-5.6c-6.6-1.1-13.3-1.6-20-1.6h-41.8v74.6h41.8c6.7,0,13.4-0.5,20-1.6c6.2-1,11.8-2.9,16.6-5.6
		C401.6,369,405.2,365.4,407.9,360.6z"/>
	
		<linearGradient id="SVGID_4_" gradientUnits="userSpaceOnUse" x1="213.0509" y1="709.3337" x2="576.0328" y2="110.8637" gradientTransform="matrix(1 0 0 -1 0 802)">
		<stop  offset="1.000000e-03" style="stop-color:#58595B"/>
		<stop  offset="1" style="stop-color:#0E0E0E"/>
	</linearGradient>
	<path class="st3" d="M712.5,131.9l-448-120c-58-15.5-117.9,19.2-133.6,77L84.7,261.5h71.1c17.7,0,32.6,2.5,44.2,7.4
		c11.7,4.9,21.2,11.4,28.1,19.1c6.9,7.7,11.8,16.6,14.5,26.2c2.6,9.4,4,18.5,4,27.2c0,8.7-1.3,17.9-4,27.2
		c-2.7,9.7-7.6,18.5-14.5,26.2c-6.9,7.7-16.4,14.1-28.1,19.1c-11.6,4.9-26.5,7.4-44.2,7.4h-52v117.2H56.7V366.2L11,537
		c-15.5,57.5,19,117.2,76.5,132.5L536.4,790c57.5,15.5,117.2-19,132.5-76.5l55.7-208.2c-12.2,12.1-26.9,21.8-43.7,28.8
		c-17.6,7.4-37.2,11.1-58.1,11.1c-20.9,0-40.5-3.7-58.1-11.1c-17.7-7.4-33-17.7-45.6-30.7c-12.6-13-22.6-28.5-29.7-46.1
		c-7.1-17.6-10.7-36.9-10.7-57.3c0-20.4,3.6-39.7,10.7-57.3c7.1-17.6,17.1-33.1,29.7-46.1c12.6-13,28-23.4,45.6-30.7
		c17.6-7.4,37.2-11.1,58.1-11.1c20.9,0,40.5,3.7,58.1,11.1c17.6,7.4,33,17.7,45.6,30.7c12.6,13,22.6,28.5,29.7,46.1l0,0
		c2.6,6.6,4.8,13.3,6.5,20.3l26.4-98.4C804.3,207.1,769.8,147.4,712.5,131.9z M417.8,538.5l-67.6-117.2h-31.5v117.2h-47.1V261.5
		h99.1c17.7,0,32.6,2.5,44.2,7.4c11.7,4.9,21.2,11.4,28.1,19.1c6.9,7.7,11.8,16.6,14.5,26.2c2.6,9.4,4,18.5,4,27.2
		c0,9.2-1.6,18.1-4.9,26.6c-3.2,8.5-7.9,16.3-14,23.1c-6,6.9-13.5,12.7-22.2,17.4c-6.4,3.4-13.3,5.9-20.7,7.4L476,538.5H417.8z"/>
	<path class="st4" d="M103.8,538.5V421.3h52c17.7,0,32.6-2.5,44.2-7.4c11.7-4.9,21.2-11.3,28.1-19.1c6.9-7.7,11.8-16.6,14.5-26.2
		c2.6-9.3,4-18.5,4-27.2c0-8.7-1.3-17.9-4-27.2c-2.7-9.7-7.6-18.5-14.5-26.2c-6.9-7.7-16.4-14.1-28.1-19.1
		c-11.7-4.9-26.5-7.4-44.2-7.4H84.7l-28,104.8v172.3H103.8z M103.8,304.1h41.8c6.7,0,13.4,0.5,20,1.6c6.2,1,11.8,2.9,16.6,5.6
		c4.5,2.5,8.1,6.1,10.9,10.9c2.8,4.8,4.1,11.2,4.1,19.2c0,8-1.4,14.5-4.1,19.2c-2.8,4.8-6.3,8.4-10.9,10.9
		c-4.8,2.7-10.4,4.6-16.6,5.6c-6.6,1.1-13.3,1.6-20,1.6h-41.8V304.1z"/>
	<path class="st4" d="M420.4,408.4c8.7-4.7,16.1-10.5,22.2-17.4c6.1-6.9,10.8-14.6,14-23.1c3.2-8.5,4.9-17.4,4.9-26.6
		c0-8.7-1.3-17.9-4-27.2c-2.7-9.7-7.6-18.5-14.5-26.2c-6.9-7.7-16.4-14.1-28.1-19.1c-11.7-4.9-26.5-7.4-44.2-7.4h-99.1v277.1h47.1
		V421.3h31.5l67.6,117.2H476l-76.3-122.7C407.1,414.3,414.1,411.9,420.4,408.4z M380.5,377.1c-6.6,1.1-13.3,1.6-20,1.6h-41.8v-74.6
		h41.8c6.7,0,13.4,0.5,20,1.6c6.2,1,11.8,2.9,16.6,5.6c4.5,2.5,8.1,6.1,10.9,10.9c2.8,4.8,4.1,11.2,4.1,19.2c0,8-1.4,14.5-4.1,19.2
		c-2.8,4.8-6.3,8.4-10.9,10.9C392.3,374.2,386.7,376.1,380.5,377.1z"/>
	<path class="st4" d="M756.3,342.7c-7.1-17.6-17.1-33.1-29.7-46.1c-12.6-13-28-23.4-45.6-30.7c-17.6-7.4-37.2-11.1-58.1-11.1
		c-20.9,0-40.5,3.7-58.1,11.1c-17.6,7.4-33,17.7-45.6,30.7c-12.6,13-22.6,28.5-29.7,46.1c-7.1,17.6-10.7,36.9-10.7,57.3
		c0,20.4,3.6,39.7,10.7,57.3c7.1,17.6,17.1,33.1,29.7,46.1c12.6,13,28,23.4,45.6,30.7c17.6,7.4,37.2,11.1,58.1,11.1
		c20.9,0,40.5-3.7,58.1-11.1c16.8-7,31.5-16.7,43.7-28.8L762.7,363C761.1,356,758.9,349.2,756.3,342.7L756.3,342.7z M710.8,439.2
		c-4.5,12.2-10.9,22.9-19.2,31.8c-8.2,8.9-18.3,16.1-29.8,21.5c-11.5,5.3-24.6,7.9-39,7.9c-14.4,0-27.5-2.7-39-7.9
		c-11.6-5.3-21.6-12.5-29.8-21.5c-8.2-8.9-14.7-19.6-19.2-31.8c-4.5-12.2-6.8-25.4-6.8-39.2c0-13.8,2.3-27,6.8-39.2
		c4.5-12.2,10.9-22.9,19.2-31.8c8.2-8.9,18.3-16.2,29.8-21.5c11.5-5.3,24.6-8,39-8c14.4,0,27.5,2.7,39,8
		c11.5,5.3,21.6,12.5,29.8,21.5c8.2,8.9,14.7,19.6,19.2,31.8c4.5,12.2,6.8,25.4,6.8,39.2C717.6,413.8,715.3,427,710.8,439.2z"/>
</g>
</svg>
