<svg id="Layer_1" xmlns="http://www.w3.org/2000/svg" viewBox="0 0 800 800"><style>.st4{fill:#fff}</style><linearGradient id="SVGID_1_" gradientUnits="userSpaceOnUse" x1="51.534" y1="611.371" x2="414.516" y2="12.901" gradientTransform="matrix(1 0 0 -1 0 802)"><stop offset=".001" stop-color="#58595b"/><stop offset="1" stop-color="#0e0e0e"/></linearGradient><path d="M165.6 377.1c6.2-1 11.8-2.9 16.6-5.6 4.5-2.5 8.1-6.1 10.9-10.9 2.7-4.8 4.1-11.2 4.1-19.2s-1.4-14.5-4.1-19.2c-2.8-4.8-6.3-8.4-10.9-10.9-4.8-2.7-10.4-4.6-16.6-5.6-6.6-1.1-13.3-1.6-20-1.6h-41.8v74.6h41.8c6.7 0 13.4-.6 20-1.6z" fill="url(#SVGID_1_)"/><linearGradient id="SVGID_2_" gradientUnits="userSpaceOnUse" x1="376.341" y1="808.372" x2="739.323" y2="209.902" gradientTransform="matrix(1 0 0 -1 0 802)"><stop offset=".001" stop-color="#58595b"/><stop offset="1" stop-color="#0e0e0e"/></linearGradient><path d="M691.6 329c-8.2-8.9-18.3-16.2-29.8-21.5-11.5-5.3-24.6-8-39-8-14.4 0-27.5 2.7-39 8S562.2 320 554 329c-8.2 8.9-14.7 19.6-19.2 31.8S528 386.2 528 400c0 13.8 2.3 27 6.8 39.2 4.5 12.2 10.9 22.9 19.2 31.8 8.2 8.9 18.2 16.1 29.8 21.5 11.5 5.3 24.6 7.9 39 7.9 14.4 0 27.5-2.7 39-7.9 11.5-5.3 21.6-12.5 29.8-21.5 8.2-8.9 14.7-19.6 19.2-31.8s6.8-25.4 6.8-39.2c0-13.8-2.3-27-6.8-39.2-4.5-12.2-10.9-22.9-19.2-31.8z" fill="url(#SVGID_2_)"/><linearGradient id="SVGID_3_" gradientUnits="userSpaceOnUse" x1="208.611" y1="706.641" x2="571.593" y2="108.171" gradientTransform="matrix(1 0 0 -1 0 802)"><stop offset=".001" stop-color="#58595b"/><stop offset="1" stop-color="#0e0e0e"/></linearGradient><path d="M407.9 360.6c2.7-4.8 4.1-11.2 4.1-19.2s-1.4-14.5-4.1-19.2c-2.8-4.8-6.3-8.4-10.9-10.9-4.8-2.7-10.4-4.6-16.6-5.6-6.6-1.1-13.3-1.6-20-1.6h-41.8v74.6h41.8c6.7 0 13.4-.5 20-1.6 6.2-1 11.8-2.9 16.6-5.6 4.6-2.5 8.2-6.1 10.9-10.9z" fill="url(#SVGID_3_)"/><linearGradient id="SVGID_4_" gradientUnits="userSpaceOnUse" x1="213.051" y1="709.334" x2="576.033" y2="110.864" gradientTransform="matrix(1 0 0 -1 0 802)"><stop offset=".001" stop-color="#58595b"/><stop offset="1" stop-color="#0e0e0e"/></linearGradient><path d="M712.5 131.9l-448-120c-58-15.5-117.9 19.2-133.6 77L84.7 261.5h71.1c17.7 0 32.6 2.5 44.2 7.4 11.7 4.9 21.2 11.4 28.1 19.1 6.9 7.7 11.8 16.6 14.5 26.2 2.6 9.4 4 18.5 4 27.2s-1.3 17.9-4 27.2c-2.7 9.7-7.6 18.5-14.5 26.2-6.9 7.7-16.4 14.1-28.1 19.1-11.6 4.9-26.5 7.4-44.2 7.4h-52v117.2H56.7V366.2L11 537c-15.5 57.5 19 117.2 76.5 132.5L536.4 790c57.5 15.5 117.2-19 132.5-76.5l55.7-208.2c-12.2 12.1-26.9 21.8-43.7 28.8-17.6 7.4-37.2 11.1-58.1 11.1s-40.5-3.7-58.1-11.1c-17.7-7.4-33-17.7-45.6-30.7-12.6-13-22.6-28.5-29.7-46.1-7.1-17.6-10.7-36.9-10.7-57.3s3.6-39.7 10.7-57.3c7.1-17.6 17.1-33.1 29.7-46.1 12.6-13 28-23.4 45.6-30.7 17.6-7.4 37.2-11.1 58.1-11.1s40.5 3.7 58.1 11.1c17.6 7.4 33 17.7 45.6 30.7 12.6 13 22.6 28.5 29.7 46.1 2.6 6.6 4.8 13.3 6.5 20.3l26.4-98.4c15.2-57.5-19.3-117.2-76.6-132.7zM417.8 538.5l-67.6-117.2h-31.5v117.2h-47.1v-277h99.1c17.7 0 32.6 2.5 44.2 7.4 11.7 4.9 21.2 11.4 28.1 19.1 6.9 7.7 11.8 16.6 14.5 26.2 2.6 9.4 4 18.5 4 27.2 0 9.2-1.6 18.1-4.9 26.6-3.2 8.5-7.9 16.3-14 23.1-6 6.9-13.5 12.7-22.2 17.4-6.4 3.4-13.3 5.9-20.7 7.4L476 538.5h-58.2z" fill="url(#SVGID_4_)"/><path class="st4" d="M103.8 538.5V421.3h52c17.7 0 32.6-2.5 44.2-7.4 11.7-4.9 21.2-11.3 28.1-19.1 6.9-7.7 11.8-16.6 14.5-26.2 2.6-9.3 4-18.5 4-27.2s-1.3-17.9-4-27.2c-2.7-9.7-7.6-18.5-14.5-26.2-6.9-7.7-16.4-14.1-28.1-19.1-11.7-4.9-26.5-7.4-44.2-7.4H84.7l-28 104.8v172.3h47.1zm0-234.4h41.8c6.7 0 13.4.5 20 1.6 6.2 1 11.8 2.9 16.6 5.6 4.5 2.5 8.1 6.1 10.9 10.9 2.8 4.8 4.1 11.2 4.1 19.2s-1.4 14.5-4.1 19.2c-2.8 4.8-6.3 8.4-10.9 10.9-4.8 2.7-10.4 4.6-16.6 5.6-6.6 1.1-13.3 1.6-20 1.6h-41.8v-74.6zM420.4 408.4c8.7-4.7 16.1-10.5 22.2-17.4 6.1-6.9 10.8-14.6 14-23.1 3.2-8.5 4.9-17.4 4.9-26.6 0-8.7-1.3-17.9-4-27.2-2.7-9.7-7.6-18.5-14.5-26.2-6.9-7.7-16.4-14.1-28.1-19.1-11.7-4.9-26.5-7.4-44.2-7.4h-99.1v277.1h47.1V421.3h31.5l67.6 117.2H476l-76.3-122.7c7.4-1.5 14.4-3.9 20.7-7.4zm-39.9-31.3c-6.6 1.1-13.3 1.6-20 1.6h-41.8v-74.6h41.8c6.7 0 13.4.5 20 1.6 6.2 1 11.8 2.9 16.6 5.6 4.5 2.5 8.1 6.1 10.9 10.9 2.8 4.8 4.1 11.2 4.1 19.2s-1.4 14.5-4.1 19.2c-2.8 4.8-6.3 8.4-10.9 10.9-4.8 2.7-10.4 4.6-16.6 5.6zM756.3 342.7c-7.1-17.6-17.1-33.1-29.7-46.1-12.6-13-28-23.4-45.6-30.7-17.6-7.4-37.2-11.1-58.1-11.1s-40.5 3.7-58.1 11.1c-17.6 7.4-33 17.7-45.6 30.7-12.6 13-22.6 28.5-29.7 46.1-7.1 17.6-10.7 36.9-10.7 57.3s3.6 39.7 10.7 57.3c7.1 17.6 17.1 33.1 29.7 46.1 12.6 13 28 23.4 45.6 30.7 17.6 7.4 37.2 11.1 58.1 11.1s40.5-3.7 58.1-11.1c16.8-7 31.5-16.7 43.7-28.8l38-142.3c-1.6-7-3.8-13.8-6.4-20.3zm-45.5 96.5c-4.5 12.2-10.9 22.9-19.2 31.8-8.2 8.9-18.3 16.1-29.8 21.5-11.5 5.3-24.6 7.9-39 7.9-14.4 0-27.5-2.7-39-7.9-11.6-5.3-21.6-12.5-29.8-21.5-8.2-8.9-14.7-19.6-19.2-31.8S528 413.8 528 400c0-13.8 2.3-27 6.8-39.2 4.5-12.2 10.9-22.9 19.2-31.8 8.2-8.9 18.3-16.2 29.8-21.5 11.5-5.3 24.6-8 39-8 14.4 0 27.5 2.7 39 8s21.6 12.5 29.8 21.5c8.2 8.9 14.7 19.6 19.2 31.8s6.8 25.4 6.8 39.2c0 13.8-2.3 27-6.8 39.2z"/></svg>