<svg id="Layer_1" xmlns="http://www.w3.org/2000/svg" viewBox="0 0 30 29.2"><style>.st2{fill:#fff}</style><linearGradient id="SVGID_1_" gradientUnits="userSpaceOnUse" y1="15.959" x2="30.039" y2="15.959" gradientTransform="matrix(1 0 0 -1 0 28.89)"><stop offset=".006" stop-color="#ffcc06"/><stop offset=".498" stop-color="#f8a317"/><stop offset="1" stop-color="#f17a28"/></linearGradient><path d="M6.3 14c.3-.2.4-.6.4-1.1 0-.8-.6-1.5-1.5-1.5h-2v2.8h2c.5.2.9.1 1.1-.2z" fill="url(#SVGID_1_)"/><linearGradient id="SVGID_2_" gradientUnits="userSpaceOnUse" y1="14.292" x2="30.039" y2="14.292" gradientTransform="matrix(1 0 0 -1 0 28.89)"><stop offset=".006" stop-color="#ffcc06"/><stop offset=".498" stop-color="#f8a317"/><stop offset="1" stop-color="#f17a28"/></linearGradient><path d="M28.1 5.3L8.1 0c-1.3-.3-2.8.6-3 1.9l-2.2 8.4h2.6c1.6 0 2.7 1.1 2.7 2.6 0 1.3-.8 2.6-2.7 2.6H3.3v3.3L2 18.7v-5.2L.1 20.7c-.4 1.4.5 2.7 1.8 3.1l20 5.3c1.4.4 2.7-.5 3.1-1.8l2.4-9c-.5.4-1.2.7-2.3.7-1.3 0-2.4-.4-3.2-1.3l-.1-.1.7-1 .1.1c.3.3 1.1 1.1 2.5 1.1 1.6 0 1.8-1 1.8-1.3 0-.9-.9-1.1-2-1.4-1.3-.4-2.8-.8-2.8-2.5 0-1.4 1.2-2.4 2.9-2.4 1.2 0 2.3.4 3 1.2l.1.1-.8.9-.1-.1c-.5-.6-1.3-1-2.3-1-1 0-1.6.5-1.6 1.2s.9.9 1.9 1.2c1.1.3 2.5.7 2.9 2L30 8.4c.3-1.3-.5-2.8-1.9-3.1zM13.7 18.8h-5v-8.4h1.2v7.3h3.8v1.1zm7.2-3.2c0 2.2-1.3 3.4-3.5 3.4-2 0-3.3-1.3-3.3-3.4v-5.1h1.2v5.1c0 1.5.8 2.3 2.2 2.3 1.4 0 2.2-.8 2.2-2.3v-5.1h1.2v5.1z" fill="url(#SVGID_2_)"/><path class="st2" d="M9.9 10.4H8.6v8.4h5.1v-1.2H9.9zM3.3 18.9v-3.3h2.1c1.9 0 2.7-1.3 2.7-2.6 0-1.5-1.1-2.6-2.7-2.6H2.8L2 13.6v5.2l1.3.1zm0-7.4h2c.8 0 1.5.6 1.5 1.5 0 .4-.2.8-.4 1.1-.3.2-.6.3-1 .3h-2v-2.9zM25.1 13.8c-1-.3-1.9-.5-1.9-1.2s.6-1.2 1.6-1.2 1.8.3 2.3 1l.1.1.8-.9-.1-.1c-.7-.8-1.7-1.2-3-1.2-1.7 0-2.9 1-2.9 2.4 0 1.7 1.5 2.1 2.8 2.5 1.1.3 2 .5 2 1.4 0 .3-.1 1.3-1.8 1.3-1.4 0-2.2-.8-2.5-1.1l-.1-.1-.7 1 .1.1c.8.9 1.8 1.3 3.2 1.3 1.1 0 1.8-.3 2.3-.7l.7-2.5c-.3-1.4-1.7-1.8-2.9-2.1zM19.7 15.6c0 1.5-.8 2.3-2.2 2.3-1.4 0-2.2-.8-2.2-2.3v-5.1h-1.2v5.1c0 2.1 1.3 3.4 3.3 3.4 2.2 0 3.5-1.2 3.5-3.4v-5.1h-1.2v5.1z"/></svg>