<svg xmlns="http://www.w3.org/2000/svg" width="35" height="35"><path fill="#FFF" d="M12.888.469v33.892l.011.005V.465z"/><path fill="#23B758" d="M.375 17.395c0 7.85 5.306 14.442 12.513 16.412V.979C5.681 2.952.375 9.543.375 17.395z"/><path fill="#FFF" d="M22.111 34.045V1.005A17.64 17.64 0 0 0 19.812.55h-4.626c-.78.102-1.542.254-2.288.451V34.05c1.469.39 3.006.618 4.602.618 1.6 0 3.143-.227 4.611-.623z"/><path fill="#EA3648" d="M22.473 1.019c-.119-.036-.24-.059-.361-.092V33.82c.121-.03.242-.059.361-.094v.002c7.072-2.097 12.235-8.619 12.235-16.354 0-7.735-5.163-14.261-12.235-16.355z"/><path fill="#CCC" d="M17.5 1C26.6 1 34 8.402 34 17.5 34 26.6 26.6 34 17.5 34 8.402 34 1 26.6 1 17.5 1 8.402 8.402 1 17.5 1m0-1C7.835 0 0 7.835 0 17.5S7.835 35 17.5 35 35 27.165 35 17.5 27.165 0 17.5 0z"/><path d="M27.334 6.707v5.857m-2.788-2.897h5.577" fill="none" stroke="#FFF" stroke-width=".754"/></svg>