<svg xmlns="http://www.w3.org/2000/svg" width="35" height="35"><path fill="#FFF" d="M15.347 34.854c.707.087 1.423.146 2.153.146s1.445-.059 2.152-.146h-4.305z"/><path fill="#EA3648" d="M17.5 0v34.854h2.152C28.3 33.791 35 26.436 35 17.5 35 7.835 27.165 0 17.5 0z"/><path fill="#FFF" d="M17.5 0C7.835 0 0 7.835 0 17.5c0 8.936 6.701 16.291 15.347 17.354H17.5V0z"/><path d="M8.624 12.164c-.41.175-.682.489-1.107.648m-.191.268c.131-.466.277-.918.419-1.374-.37-.278-.779-.519-1.145-.801.475-.047 1.14.096 1.488-.076.133-.515.363-.935.496-1.45.227.461.374 1 .573 1.489.408.089.979.012 1.451.038-.342.293-.768.504-1.108.8.082.503.295.876.382 1.374-.461-.213-.812-.537-1.259-.763m.001 4.514c-.41.176-.682.49-1.107.649m-.191.266c.131-.466.277-.917.419-1.374-.37-.279-.779-.519-1.145-.801.475-.047 1.14.096 1.488-.076.133-.516.363-.935.496-1.451.227.461.374 1 .573 1.488.408.089.979.013 1.451.039-.342.294-.768.505-1.107.801.082.504.295.876.382 1.374-.461-.212-.812-.536-1.259-.763m0 4.513c-.41.177-.682.49-1.107.648m-.191.268c.131-.467.277-.917.419-1.374-.37-.277-.779-.517-1.145-.8.475-.049 1.14.096 1.488-.076.133-.516.363-.936.496-1.449.227.459.374.999.573 1.487.408.089.979.013 1.451.038-.342.294-.768.505-1.107.8.082.505.295.878.382 1.374-.461-.212-.812-.534-1.259-.764m0 4.516c-.41.175-.682.488-1.107.648m-.191.268c.131-.467.277-.919.419-1.374-.37-.279-.779-.519-1.145-.8.475-.049 1.14.096 1.488-.078.133-.516.363-.934.496-1.449.227.461.374 1.001.573 1.487.408.089.979.014 1.451.04-.342.294-.768.503-1.107.8.082.503.295.876.382 1.374-.461-.212-.812-.536-1.259-.766" fill="#EA3648"/><path d="M26.415 12.164c-.41.175-.683.489-1.104.648m-.193.268c.131-.466.276-.918.418-1.374-.369-.278-.779-.519-1.144-.801.474-.047 1.14.096 1.486-.076.135-.515.362-.935.495-1.45.228.461.374 1 .573 1.489.406.089.98.012 1.449.038-.342.294-.769.505-1.106.801.082.503.295.876.383 1.374-.462-.213-.812-.537-1.26-.763m.003 4.513c-.41.176-.683.49-1.104.649m-.193.266c.131-.466.276-.917.418-1.374-.369-.279-.779-.519-1.144-.801.474-.047 1.14.096 1.486-.076.135-.516.362-.935.495-1.451.228.461.374 1 .573 1.488.406.089.98.013 1.449.039-.342.294-.769.505-1.106.801.082.504.295.876.383 1.374-.462-.212-.812-.536-1.26-.763m.003 4.513c-.41.177-.683.49-1.104.648m-.193.268c.131-.467.276-.917.418-1.374-.369-.277-.779-.517-1.144-.8.474-.049 1.14.096 1.486-.076.135-.516.362-.936.495-1.449.228.459.374.999.573 1.487.406.089.98.013 1.449.038-.342.294-.769.505-1.106.8.082.505.295.878.383 1.374-.462-.212-.812-.534-1.26-.764m.003 4.516c-.41.175-.683.488-1.104.648m-.193.268c.131-.467.276-.919.418-1.374-.369-.279-.779-.519-1.144-.8.474-.049 1.14.096 1.486-.078.135-.516.362-.934.495-1.449.228.461.374 1.001.573 1.487.406.089.98.014 1.449.04-.342.294-.769.503-1.106.8.082.503.295.876.383 1.374-.462-.212-.812-.536-1.26-.766m-8.894-1.359c.228.461.409.956.608 1.441.407.09.979.015 1.449.041-.341.293-.767.502-1.104.799.082.504.295.877.381 1.375-.461-.213-.867-.512-1.312-.738" fill="#FFF"/><path fill="#EA3648" d="M17.498 27.891c-.448.229-.854.526-1.315.738.087-.496.3-.871.382-1.374-.34-.297-.766-.506-1.107-.8.471-.025 1.042.051 1.449-.038.2-.487.382-.983.609-1.442"/><path fill="#FFF" d="M17.518 20.289c.228.461.409.954.608 1.441.407.09.979.014 1.449.039-.341.293-.767.504-1.104.799.082.506.295.879.381 1.375-.461-.213-.867-.51-1.312-.738"/><path fill="#EA3648" d="M17.498 23.225c-.448.229-.854.526-1.315.738.087-.498.3-.871.382-1.374-.34-.297-.766-.506-1.107-.8.471-.025 1.042.049 1.449-.04.2-.485.382-.981.609-1.442"/><path fill="#FFF" d="M17.518 15.622c.228.461.409.955.608 1.442.407.089.979.013 1.449.039-.341.294-.767.503-1.104.8.082.503.295.878.381 1.375-.461-.213-.867-.51-1.312-.737"/><path fill="#EA3648" d="M17.498 18.557c-.448.229-.854.526-1.315.738.087-.496.3-.869.382-1.374-.34-.295-.766-.505-1.107-.799.471-.027 1.042.05 1.449-.039.2-.487.382-.982.609-1.442"/><path fill="#FFF" d="M17.518 10.956c.228.46.409.954.608 1.442.407.089.979.012 1.449.038-.341.294-.767.504-1.104.8.082.504.295.878.381 1.374-.461-.212-.867-.51-1.312-.738"/><path fill="#EA3648" d="M17.498 13.891c-.448.228-.854.526-1.315.738.087-.497.3-.87.382-1.374-.34-.296-.766-.506-1.107-.8.471-.026 1.042.05 1.449-.039.2-.487.382-.981.609-1.442"/><path fill="#FFF" d="M17.518 6.289c.228.46.409.955.608 1.442.407.089.979.012 1.449.039-.341.294-.767.503-1.104.8.082.503.295.877.381 1.374-.461-.212-.867-.511-1.312-.738"/><path fill="#EA3648" d="M17.498 9.224c-.448.229-.854.526-1.315.738.087-.496.3-.87.382-1.374-.34-.296-.766-.506-1.107-.8.471-.026 1.042.051 1.449-.038.2-.488.382-.982.609-1.442"/><path fill="#CCC" d="M17.5 1C26.6 1 34 8.402 34 17.5 34 26.6 26.6 34 17.5 34 8.402 34 1 26.6 1 17.5 1 8.402 8.402 1 17.5 1m0-1C7.835 0 0 7.835 0 17.5S7.835 35 17.5 35 35 27.165 35 17.5 27.165 0 17.5 0z"/></svg>