<svg xmlns="http://www.w3.org/2000/svg" width="35" height="35"><path fill="#131819" d="M.7 17.455c0 .15.019.294.022.445v-.889c-.004.149-.022.293-.022.444zm16.808 16.789l.001-33.58h-.001C8.375.664.96 7.944.722 17.01v.889c.238 9.063 7.652 16.345 16.786 16.345z"/><path fill="#44B1E0" d="M34.314 17.455c0-9.27-7.521-16.785-16.798-16.789v33.579c9.279-.006 16.798-7.52 16.798-16.79z"/><path fill="#2993CE" d="M17.509.594h.008v.071h-.008zm0 33.65h.008v.058h-.008z"/><path fill="#2993CE" d="M17.509.665h.008v33.58h-.008z"/><path fill="#15252D" d="M19.714 13.821h2.104l.78-2.141.775 2.124h2.087l-1.599 1.183.58 1.96-1.871-1.128-1.847 1.184.62-2.037"/><path fill="#FFF" d="M20.252 13.999h1.709l.635-1.742.629 1.727h1.698l-1.298.964.473 1.594-1.526-.918-1.504.964.507-1.657"/><path fill="#15252D" d="M25.6 13.821h2.105l.775-2.141.776 2.124h2.087l-1.597 1.183.578 1.96-1.869-1.128-1.848 1.184.622-2.037"/><path fill="#FFF" d="M26.135 13.999h1.711l.634-1.742.629 1.727h1.696l-1.297.964.471 1.594-1.524-.918-1.497.964.499-1.657"/><path fill="#15252D" d="M22.686 18.98h2.104l.772-2.138.778 2.123h2.088l-1.598 1.181.578 1.965-1.872-1.131-1.845 1.182.621-2.034"/><path fill="#FFF" d="M23.219 19.158h1.713l.63-1.741.633 1.728h1.698l-1.297.962.468 1.596-1.527-.92-1.497.966.503-1.655M3.258 13.646s.557-.032.972-.428c0 0 .703-.415 1.553-.028.245.141.481.289.815.345.176.057.891.228 1.513-.07.365-.159 1.409-.929 2.733-.031.176.102 1.162.372 2-.014.459-.241 1.166-.744 2.314-.088.271.172.526.244.526.244l.087.098"/><path fill="#FFF" d="M3.265 13.61h12.502v1.958H3.265z"/><path fill="#131819" d="M3.258 15.598s.559-.031.972-.429c0 0 .703-.413 1.553-.026.245.141.482.288.815.343.176.057.891.228 1.513-.071.365-.157 1.409-.928 2.733-.029.176.1 1.161.371 2-.015.459-.243 1.166-.744 2.314-.087.271.172.529.243.529.243l.14.091"/><path fill="#FFF" d="M3.258 16.955s.557-.031.972-.427c0 0 .703-.412 1.553-.028.245.142.481.291.815.344.176.056.891.229 1.513-.071.365-.158 1.409-.928 2.733-.031.176.102 1.162.372 2-.012.459-.244 1.166-.746 2.314-.089.271.171.526.244.526.244l.073.074"/><path fill="#FFF" d="M3.265 16.921h12.502v1.955H3.265z"/><path fill="#131819" d="M3.258 18.908s.559-.032.972-.43c0 0 .703-.412 1.553-.028.245.146.482.291.815.346.176.058.891.229 1.513-.069.365-.156 1.409-.93 2.733-.026.176.097 1.161.368 2-.019.459-.24 1.166-.744 2.314-.086.271.172.529.243.529.243l.098.067"/><path fill="#FFF" d="M3.258 19.954s.557-.033.972-.435c0 0 .703-.412 1.553-.024.245.144.481.288.815.347.176.055.891.227 1.513-.074.365-.153 1.409-.926 2.733-.022.176.098 1.162.366 2-.019.459-.242 1.166-.744 2.314-.088.271.172.526.241.526.241l.087.099"/><path fill="#FFF" d="M3.265 19.917h12.502v1.958H3.265z"/><path fill="#131819" d="M3.258 21.904s.559-.03.972-.428c0 0 .703-.41 1.553-.029.245.144.482.287.815.346.176.059.891.227 1.513-.072.365-.156 1.409-.928 2.733-.027.176.101 1.161.369 2-.012.459-.246 1.166-.746 2.314-.091.271.173.529.242.529.242l.154.075"/><path fill="#131819" d="M2.723 21.881h13.191v.539H2.723zm0-3.001h13.23v.274H2.723zm0-3.286h13.12v.458H2.723z"/><path fill="#CCC" d="M17.5 1C26.6 1 34 8.402 34 17.5 34 26.6 26.6 34 17.5 34 8.402 34 1 26.6 1 17.5 1 8.402 8.402 1 17.5 1m0-1C7.835 0 0 7.835 0 17.5S7.835 35 17.5 35 35 27.165 35 17.5 27.165 0 17.5 0z"/></svg>