<svg xmlns="http://www.w3.org/2000/svg" width="35" height="35"><path fill="none" d="M.03 16.899c-.007.195-.03.384-.03.581h.03v-.581z"/><path fill="#EA3648" d="M35 17.5l-.001-.02H0v.02C0 27.168 7.835 35 17.5 35 27.168 35 35 27.168 35 17.5z"/><path fill="#104BA0" d="M34.999 17.48C34.986 7.825 27.159 0 17.5 0 8.038 0 .35 7.514.03 16.899v.581h34.969z"/><g fill="#FFDE76"><path d="M11.298 5.826h-.19v.471h-.518v.389h.507v.49h.231s.01-.114.01.147c-.39-.033-.505.292-.567.524.02.555.526.586.526.586l-.021.062-.21-.032-.252-.041s-.286-.095-.517-.2c-.613-.25-1.508-.281-2.219-.326-1.177-.003-1.851.663-2.198 1.176-.6 1.278-.136 2.42-.074 2.618-.169.021-1.506.113-1.588.156 2.59 1.072 2.59 2.671 2.834 2.986 1.302-.639 4.253-.377 4.253-.377"/><path d="M11.277 5.827l.181-.001v.471h.512v.389h-.508v.49h-.233s-.01-.114-.01.147c.391-.033.508.292.57.524-.021.555-.53.586-.53.586l.023.062.212-.032.253-.041s.285-.095.518-.2c.614-.251 1.515-.283 2.229-.328 1.178-.004 1.856.663 2.207 1.176.602 1.278.137 2.42.074 2.618.168.021 1.631.113 1.715.156-2.354.733-2.721 2.671-2.964 2.986-.945-.592-4.275-.377-4.275-.377"/></g><path fill="#CCC" d="M17.5 1C26.6 1 34 8.402 34 17.5 34 26.6 26.6 34 17.5 34 8.402 34 1 26.6 1 17.5 1 8.402 8.402 1 17.5 1m0-1C7.835 0 0 7.835 0 17.5S7.835 35 17.5 35 35 27.165 35 17.5 27.165 0 17.5 0z"/></svg>