<svg xmlns="http://www.w3.org/2000/svg" width="35" height="35"><path fill="#FFF" d="M17.5 34.125c9.184 0 16.625-7.443 16.625-16.625C34.125 8.316 26.684.875 17.5.875c-.375 0-.74.032-1.107.057v33.137c.367.025.732.056 1.107.056z"/><path fill="#319FDD" d="M17.5 34.125V.875C7.188 1.312.875 8.691.875 17.5s6.5 16.25 16.625 16.625z"/><path fill="#CCC" d="M34 17.5C34 26.6 26.6 34 17.5 34S1 26.6 1 17.5C1 8.402 8.402 1 17.5 1S34 8.402 34 17.5m1 0C35 7.835 27.166 0 17.5 0 7.836 0 0 7.835 0 17.5S7.836 35 17.5 35C27.166 35 35 27.165 35 17.5z"/></svg>