<svg xmlns="http://www.w3.org/2000/svg" width="35" height="35"><path fill="#FFF" d="M17.5 34.498C8.127 34.498.501 26.872.501 17.499S8.127.5 17.5.5s16.999 7.626 16.999 16.999S26.873 34.498 17.5 34.498z"/><path fill="#5A98E2" d="M17.5 17.499L5.127 5.125A17.438 17.438 0 0 0 0 17.499c0 9.666 7.835 17.5 17.5 17.5 4.833 0 9.207-1.959 12.373-5.127L17.5 17.499z"/><path fill="#CCC" d="M17.5 1c9.098 0 16.499 7.401 16.499 16.499 0 9.099-7.401 16.499-16.499 16.499-9.098 0-16.499-7.4-16.499-16.499C1.001 8.401 8.402 1 17.5 1m0-1C7.835 0 .001 7.834.001 17.499c0 9.664 7.834 17.499 17.499 17.499 9.664 0 17.499-7.835 17.499-17.499C34.999 7.834 27.164 0 17.5 0z"/></svg>