<svg xmlns="http://www.w3.org/2000/svg" width="35" height="35"><circle fill="#FED630" cx="17.5" cy="17.479" r="17.479"/><path d="M11.97 11.023s-.656-.286-1.674-2.909C9.28 5.492 7.632 5.761 7.617 5.763c-.052.011-.172.022-.202.174a.209.209 0 0 0 .131.234c.039.017 1.005.267 1.446 2.988.488 3.02 2.125 3.758 2.468 3.846-.836-1.617.51-1.982.51-1.982m12.742-2.908c1.021-2.623 2.665-2.354 2.677-2.352.053.012.18.022.205.174a.208.208 0 0 1-.129.234c-.037.017-1.007.267-1.453 2.988-.484 3.02-2.129 3.758-2.459 3.846.828-1.618-.512-1.982-.512-1.982m.65 2.34s.639 1.2.268 2.937c.053.08.753.688 2.002.288s1.312-1.845 2.396-2.198c-.687-1.155-2.244-2.631-4.666-1.027zm2.843.516c-.324 0-.892.271-1.349.489-.351.168-.559.265-.66.265h-.01a8.959 8.959 0 0 0-.455-.015v-.1c.002 0 .234 0 .463.015.074.006.352-.126.619-.254.465-.223 1.045-.499 1.392-.499.567 0 1.538.481 1.579.501l-.045.09c-.007-.006-.99-.492-1.534-.492zm-15.223-.563c-2.422-1.605-3.979-.129-4.668 1.025 1.091.354 1.155 1.797 2.407 2.199 1.25.4 1.951-.209 1.999-.29-.369-1.734.262-2.934.262-2.934zm-.825 1.269c-.104 0-.316-.099-.673-.269-.454-.216-1.019-.485-1.341-.485-.543 0-1.522.486-1.532.492l-.045-.09c.041-.021 1.01-.502 1.577-.502.345 0 .922.275 1.384.495.273.13.556.264.633.259.224-.016.451-.016.453-.016v.101c-.002 0-.225 0-.445.016l-.011-.001zm4.54 12.679h4.867s.092.881-.586.881h-3.792c-.526 0-.489-.881-.489-.881"/><path d="M15.417 16.491l-4.021-2.738s-1.015 2.15 1.123 5.429c-.735 1.058.429 2.024.575 2.295.304.547.844 2.152.988 2.166.249 0 .961-.586 1.054-.828.185-.51.295-1.187.295-1.187l-.014-5.137zm-1.199.315c-.653 0-1.182-.498-1.182-1.113 0-.186.05-.361.134-.515l1.879 1.306a1.22 1.22 0 0 1-.831.322z"/><path d="M13.392 15.693c0 .43.37.779.826.779a.862.862 0 0 0 .575-.219l-1.313-.912a.732.732 0 0 0-.088.352m10.198-1.94l-4.027 2.738-.013 5.137s.114.677.292 1.187c.104.242.815.828 1.059.828.154-.014.688-1.619.994-2.166.141-.271 1.301-1.237.574-2.295 2.129-3.279 1.121-5.429 1.121-5.429zm-2.856 3.053c-.319 0-.612-.124-.83-.322l1.875-1.306c.089.154.142.329.142.515 0 .615-.525 1.113-1.187 1.113z"/><path d="M21.562 15.693c0 .43-.369.779-.828.779a.876.876 0 0 1-.574-.219l1.314-.912a.807.807 0 0 1 .088.352"/><path d="M23.203 13a2.71 2.71 0 0 0 .093-.125c.778-1.102-.075-1.57-.521-1.701a.873.873 0 0 0 .05-.312c0-.567-.472-1.026-1.044-1.026-.141 0-.256.024-.383.067a1.03 1.03 0 0 0-.996-.707c-.228 0-.445.077-.623.209a1.05 1.05 0 0 0-.881-.486c-.229 0-.434.073-.61.196-.22.163-.774-.185-.774-.185s-.683.291-.971.123a1.05 1.05 0 0 0-.514-.135c-.361 0-.678.184-.862.461a1.031 1.031 0 0 0-.608-.196c-.46 0-.85.301-.981.716a1.03 1.03 0 0 0-1.37 1.264c-.441.123-1.304.603-.511 1.727.028.039.055.076.083.111a1.68 1.68 0 0 0-.335.455l4.194 2.905s-.013 3.084.005 4.206c.013.97-.038 1.582-.188 2.143-.019.077-.333.473-.519.65-.744.701-1.224.65-1.281.677-.291.103-.628.33-.291 1.646.336 1.299.92 1.401.92 1.401h6.426s.572-.104.917-1.401c.332-1.314 0-1.543-.294-1.646-.051-.025-.535.024-1.287-.677-.179-.178-.496-.573-.51-.65-.153-.561-.204-1.173-.191-2.143.014-1.121 0-4.206 0-4.206l4.194-2.905c-.001.002-.123-.259-.337-.456z"/><path fill="#E7423F" d="M19.512 25.171c.215-.343.279-.329.293-.329.867.648 1.439 1.669 1.439 2.805 0 1.963-1.694 3.558-3.774 3.558-2.082 0-3.77-1.595-3.77-3.558 0-1.136.564-2.155 1.439-2.805.028-.014.154-.076.287.344.135.422.131.483.12.498-.574.484-.937 1.185-.937 1.963 0 1.467 1.282 2.65 2.861 2.65 1.583 0 2.856-1.186 2.856-2.65 0-.791-.37-1.492-.956-1.989 0-.002-.1-.09.142-.487"/><path fill="#E7423F" d="M18.49 27.098c.052.229.09.473.09.728 0 .993-.508 1.797-1.136 1.797-.627 0-1.137-.804-1.137-1.797 0-.255.035-.497.097-.716.575-.001 1.869-.012 2.086-.012"/><path fill="#CCC" d="M17.5 1C26.6 1 34 8.402 34 17.5 34 26.6 26.6 34 17.5 34 8.402 34 1 26.6 1 17.5 1 8.402 8.402 1 17.5 1m0-1C7.835 0 0 7.835 0 17.5S7.835 35 17.5 35 35 27.165 35 17.5 27.165 0 17.5 0z"/></svg>