<svg xmlns="http://www.w3.org/2000/svg" width="35" height="35"><path fill="#FFF" d="M32.7 9.849c-.019-.029-.028-.06-.044-.089-2.356.004-6.055.012-6.999.012V2.585c-.067-.037-.14-.065-.206-.101v7.375c.945.002 4.836-.006 7.249-.01z"/><path fill="#FFF" d="M34.445 15.725v1.618h-8.787V13.16h8.301c-.016-.058-.027-.114-.044-.172-1.968.004-7.229.024-8.405.024-.119 1.341-.019 2.905-.053 4.331h-1.539c0-1.924-.047-3.914-.047-5.839 1.581 0 6.936-.006 9.555-.008-.027-.07-.051-.142-.078-.212-2.312.005-6.938.021-8.102.021h-1.337V1.773c-.066-.028-.138-.048-.205-.075v9.607h-5.55V9.912l3.955-.052V1.167c-.051-.015-.103-.025-.151-.039v8.629H18.13v-9.2c-.022 0-.049-.003-.075-.004V17.31H.539c-.001.064-.009.126-.009.19 0 9.374 7.614 16.973 17.004 16.973 9.394 0 17.006-7.599 17.006-16.973-.001-.6-.033-1.192-.095-1.775zm-12.538 1.56h-3.753V13.16h3.753v4.125zm.195-.001v-4.33h-3.953v-1.393h5.549c0 1.907.004 3.83.004 5.737-.536 0-1.065-.014-1.6-.014z"/><path d="M18.053.554L17.91.548V17.19H9.384V2.605C4.161 5.457.61 10.966.539 17.311h17.516V.554h-.002z"/><path fill="#FFF" d="M9.384 2.605l.642 14.483 7.884.103V.548c-.127-.003-.249-.02-.377-.02-2.952 0-5.73.754-8.149 2.077z"/><path fill="#268BCC" d="M23.871 11.503s7.24-.003 9.555-.008a23.024 23.024 0 0 0-.77-1.735c-2.413.004-6.055.012-6.999.012V2.585c-.5-.263-1.261-.601-1.788-.813l.002 9.731zm1.786 5.84h8.788v-1.618a16.862 16.862 0 0 0-.487-2.565h-8.302l.001 4.183zm-7.602-5.848v1.665h3.854v4.125c.532 0 1.479.058 2.011.058 0-1.907-.047-3.932-.047-5.839-1.852-.001-3.971-.009-5.818-.009z"/><path fill="#FFD730" d="M23.917 17.343h1.741c.033-1.426 0-2.92 0-4.183 1.176 0 6.333.004 8.301 0a21.809 21.809 0 0 0-.534-1.665c-2.618.002-7.974.008-9.556.008 0 1.927.048 3.916.048 5.84zm8.739-7.582a17.047 17.047 0 0 0-6.999-7.173v7.187c.945-.002 4.643-.011 6.999-.014z"/><path fill="#FFD730" d="M18.055 9.774v1.721c1.85 0 3.965.008 5.816.008 0-1.62.038-6.969.038-9.731a25.442 25.442 0 0 0-1.951-.644v8.629l-3.903.017z"/><path fill="#268BCC" d="M21.958 9.758V1.129C20.73.799 19.374.71 18.055.665v9.109c1.277 0 2.625-.016 3.903-.016z"/><path fill="#FFD730" d="M18.055 17.31c1.252 0 2.604-.025 3.854-.025V13.16h-3.854v4.15z"/><path fill="#7E7E7E" d="M8.957 20.197c.073-.121.701-.07.478.104.02-.211-.331-.056-.478-.104z"/><path fill="#010202" d="M15.897 20.729c-.008-.062.002-.065 0-.104-.021-.265-.441-.127-.688-.16-.077-.205.124-.354-.053-.584 1.299.431 2.524-1.424 3.655-.214.178-.052.291-.168.479-.214.778.11 1.187.062 2.015.055.071.089.188.129.155.319.188-.079.396-.141.688-.105.049.127.215.141.158.37.608-.168.426.461.957.373.201.166.168.572.525.586.22.688 1.005 1.558.425 2.394-.421-2.176-2.883-3.818-5.563-2.926.354.166.854.174 1.012.532-.408.244-1.197.203-1.379-.215-.361.356-.915.521-1.642.373-.258.062-.229.408-.584.372-.251-.034.174-.186.106-.372-.05-.205-.727-.115-.266-.48zm1.802-.639c-.007-.135-.078-.205-.212-.211-.044.229-.298.162-.425.053-.22.293.518.355.637.158z"/><path fill="#7E7E7E" d="M14.679 23.918c-.285-.018-.992.109-.742-.268-.103.442.607.067.742.268z"/><path fill="#010202" d="M21.354 26.043c.186.402.408.762.795.957-.211.459-.707.254-.953.107-.145-.328.094-.623.105-.955-.539.186-.685 1.416-.213 1.966-1.064.401-2.232.698-2.807 1.597-.178-.021-.233-.158-.372-.215-.438.322-.623.898-1.482.797.081-.324.289-.521.372-.852-.289.049-.393.281-.477.531a1.076 1.076 0 0 0-.479.058c.247-.341.578-.593.796-.959 1.371-.024 2.229-.563 2.806-1.382-1.58-.938.018-2.319 1.59-2.234.088.09.158.23.206.32 0 .02.03.045.113.264zM8.957 20.197c-.311.062-.389-.105-.423-.318 1.772-.113 2.326 1 4.132.852.526.588.875 1.354 1.432 1.912-.236.33-.383.75-.478 1.227-.206-.098-.552-.053-.688-.217-.272-.674-.202-1.538-.689-2.02-.372-.365-1.439-.793-1.96-.479-.181.006-.031-.324-.212-.32-.746.35-1.275-.025-1.694-.424.278-.23.885.191 1.06-.105.221-.178-.407-.229-.48-.108z"/><path fill="#E0403D" d="M15.738 20.676c.062.006.151-.011.159.055-.461.365-1.91.271-1.43-.53.114.237.366.396.603.444.124 0 .567.046.668.031z"/><path fill="#010202" d="M13.938 23.65c.009-1.729 2.347-1.114 2.967-2.23.561.258 1.054-.039 1.43-.266.556.486.017 1.369-.319 1.753 1.955.29 3.867.624 5.143 1.597.854-.705 1.604.209 2.488.264-.017.32-.617.223-.849.162-.182.121.242.205.054.316-.725.045-.664-1.172-1.481-.688.584.742.534 2.115 1.748 2.229.084.863.243 1.988.528 2.818-.188.131-.438.194-.635.315-.109.567-.898.446-1.38.642.089-.41.499-.494.636-.853-.43-.173-.43.517-.953.427-.119-.186.465-.556.742-.691.252-.038.363.062.582.054.295-.76.006-1.795-.531-2.125-.559-.349-1.604-.324-2.062-.744-.655-.603-.556-2.014-1.961-1.862.067.194.312.226.478.319-.192.157-3.377.276-4.079.269.019-.279.36-.472.211-.744-.594.074-.397.945-.902 1.115-.939-.207-2.07-1.062-3.125-.959-.875.09-.995.912-1.537 1.438-.197.004-.306-.081-.423-.16-.23.106-.272.399-.371.64-.333.11-.722.162-1.112.215-.153-.199.467-.521.477-.903-.437.038-.378.672-.902.475-.017-.312.588-.43.794-.688 1.416-.069 1.673-1.302 2.649-1.81.938-.105 1.93.397 2.595.055.025-.114-.075-.104-.158-.107-.136-.206-.846.169-.742-.273zm6.673-4.569c.23-.214.818-.335.951.054.229-.22.799-.222.902.104.176-.003.264-.089.479-.052.068.105.254.096.211.316.354-.021.683-.012.688.318.791.003.883.705 1.327 1.062 0 .274.119.556 0 .798-.597-.892-1.295-1.681-2.651-1.808-.267-.453-.98-.151-1.271-.533-.81.117-1.683-.229-2.438.16-.115-.494.646-.632.853-.315.143-.24.77-.513.949-.104z"/><path d="M1.001 16.812h33.187v.525H1.001z"/><path d="M17.659.417h.524v16.888h-.524z"/><path fill="#CCC" d="M17.5 1C26.6 1 34 8.402 34 17.5 34 26.598 26.6 34 17.5 34 8.402 34 1 26.598 1 17.5 1 8.402 8.402 1 17.5 1m0-1C7.835 0 0 7.835 0 17.5 0 27.164 7.835 35 17.5 35S35 27.164 35 17.5C35 7.835 27.165 0 17.5 0z"/></svg>