<svg xmlns="http://www.w3.org/2000/svg" width="35" height="35"><circle fill="#FCDB51" cx="17.5" cy="17.5" r="16.75"/><path d="M15.716 12.378c-.047-.137-.384.016-.442-.11-.16-.378.117-.562.221-.833.927.117 1.165-.753 1.882-.665.197-.41.408-.808 1.104-.719.395-.282.42-.999.334-1.608.192.025.301.14.44.221.663-2.099-2.95-2.812-2.488-.776.202.097.495.181.61-.054.065-.308-.249-.233-.279-.444.54-.458 1.341-.161 1.382.444.027.388-.383.674-.164 1.108-.146.326-.77.645-1.105.276-.389.416-1.545.408-1.44-.443-.624-.038-1.194-.769-.718-1.385-.459-.363-.308-1.398.387-1.385-.177-.725.357-1.261 1.05-1.109.314-.291 1.038-.585 1.439-.166.518-.379 1.256-.161 1.492.332.759-.347 1.562.356 1.218 1.107.674.187 1.354 1.025.883 1.829.334.254.699.721.5 1.331.266-.075.86-.12 1.049.055.47-.502 1.59-.491 1.936.112.551-.38 1.536-.172 1.492.665.562.176 1.2.571.943 1.385.523.288.763 1.33.164 1.719.47.583-.02 1.333-.719 1.385.12.893-.781 1.34-1.438.941-.231.408-1.2.582-1.383 0-.493.28-1.043-.062-1.215-.442.152-.741-.566-1.287.056-1.83.591-.167 1.252-.964 1.881-.277-.806.481.353 1.279.662.499.269-1.59-1.263-1.872-2.543-1.552.185.185.403.335.551.553-.64.018-1.579-.02-2.045.333.72.205 1.021 1.744.222 2.104-.336-.974-1.576-1.043-1.768-2.162-.34.083-.467.428-.998.499-.532.072-1.065-.292-1.49-.221-.366.061-.612.46-.887.443-.338-.022-.546-.437-.607-.555.408-.053.89-.031.994-.388-.724.262-2.796.828-2.875-.388a.874.874 0 0 1 .553-.887c.146.594.335 1.144 1.159 1.058zm2.489-.943c.152.208.492.092.553-.11.057.11.098.237.221.277.062-.505-.367-.812-.828-.61.296.063.042.215.054.443zM8.03 8.941h.166c.415.239.748.715 1.217.888.121.044.272-.012.388.056.296.171.419.557.663.775.643.58 1.558.929 1.935 1.662.722.119.818.87 1.106 1.663.326.899.174 1.269.112 2.105-.14.075-.25.275-.444.277-.812.003-.583-1.492-.83-2.216-.312-.92-1.687-1.973-2.268-2.604-.27-.026-.647.058-.829-.056-.155-.171.03-.337.111-.444H7.919c-.338-.31-.498-.964-.388-1.55.07-.077.26-.077.332 0 .032-.211.117-.365.167-.556zm.055.721c.348.083.734.57 1.051.332-.224-.366-.649-.53-.996-.776-.033.133-.078.253-.055.444zm0 1.22c.311-.022.579-.087.941-.057-.013-.8-.833-.791-1.328-1.108.009.51.092.943.387 1.165z"/><path d="M19.809 13.153c.028.95 1.482.707 1.271 1.717-.173.088-.352.166-.497.278.044.208-.067.264-.054.442-.477.19-.486.842-.997.998.022.391-.122.615-.276.833.865 1.129 2.828 1.154 3.706 2.271.718-.17 1.052-.724 1.052-1.608a1.02 1.02 0 0 0 .329-.775c.16-.099.228-.29.558-.22-.043-.28.096-.381.164-.556.506.146.715-.564 1.16-.665.127-.028.197.113.445.111.305-.003.477-.262.661-.223.25.055.364.337.387.61.197.118.449.176.554.388-.07.521-.338.484-.164 1.052-.295.296-.748.437-.887.886-.187.037-.283.16-.551.111-.137.362-.396.604-.941.557-.149.582-.709.303-1.104.386-.442.096-.827.665-1.44.444.002.221.364.558.334.998.211.047.369.147.551.223.018.164.174.195.111.443.092.021.446.049.555.222.082.175.02.243 0 .442.33.142.615-.354 1.049-.113.126 1.762.6 3.455 1.715 4.382-.064.209-.374.175-.441.385.522 1.269-.447 1.774-1.328 2.106-.209-.271-.287-.121-.719-.109.073-.777.088-1.615.662-1.885.348-1.297-.29-2.627-.938-3.436-.269.373-.588 1.115-1.273.719-.236.375-1.109.479-1.326 0-.744.701-1.093-.164-2.101 0-.319.053-.729.441-1.218.113-.619.58-1.264-.171-1.991.273.111.396.488.533.331 1.055-1.014.629-2.55.615-3.372 1.439-.252.251-.287.627-.665.777-.234-.009-.108-.373-.331-.391-.457.061-.18.854-.331 1.221-.337.387-1.321.514-1.936.277-.04-.173.058-.203.055-.333a1.262 1.262 0 0 1-.608-.11c.337-.553.773-1 1.494-1.164.188-.16.265-.435.387-.664.884-.082 1.525-.449 2.212-.83.458-.256 1.113-.418 1.272-.945-.69-.102-1.086-.496-1.659-.721.215-.688-.449-1.01-.444-1.439.006-.391.513-.48.332-1.051.386-.428.936-.688 1.272-1.166.203.02.488-.045.608.057.101-.156.168-.349.331-.443.811.188 1.144.011 1.937.057-.953-.43-2.163-.604-2.875-1.273-.895.768-1.251-.469-2.046-.609-.065-.154-.061-.383-.056-.61-.374-.416-1.068-.557-1.713-.719-.613-.153-1.396-.481-1.935-.442-1.044.071-.995 1.499-1.714 1.992-.234.124-.389-.107-.553-.221-.232.281-.067.647 0 1.053-.42.357-.814.74-1.55.773-.094-.053-.142-.152-.11-.332h-.719c.01-.512.562-1.018.885-1.385.245-.279.233-.601.553-.721.133-.051.336-.035.552-.109 1.209-.417 1.984-2.312 3.097-2.217.218.02.306.195.497.277.859.374 1.964.249 3.042.555.294-.11.423-.389.773-.444-.188-.725.094-1.211.774-1.219.09-.262.21-.491.388-.666.419-.021.775-.109.995-.331.649.182.91-.429 1.659-.222.229-.031.323-.194.499-.278.768.128 1.089-.197 1.654-.278zm-15.041 6.87c.042-.127.309-.021.443-.056.083-.323.22-.594.276-.942-.013-.045-.047-.065-.11-.06-.275.251-.604.728-.609 1.058zm.94-.941c-.095.424-.298.734-.331 1.221.562-.045.852-.367 1.217-.609-.047-.211-.095-.426-.111-.666-.319.003-.601.05-.775.054zm19.521 9.863c.156-.012.229-.103.385-.109.076-.462.183-.891.277-1.333-.668.031-.528.873-.662 1.442zm.828-1.33c-.058.498-.189.914-.277 1.385.605-.215 1.586-.657 1.053-1.497-.133.204-.653.05-.776.112zm-15.815 1.164c.825.125.875-.527 1.272-.832-.646.055-.874.528-1.272.832zm.552.444c.562.109 1.142-.017 1.493-.277v-.776c-.848-.305-1.139.534-1.493 1.053z"/><path fill="#CCC" d="M17.5 1C26.6 1 34 8.402 34 17.5 34 26.6 26.6 34 17.5 34 8.402 34 1 26.6 1 17.5 1 8.402 8.402 1 17.5 1m0-1C7.835 0 0 7.835 0 17.5S7.835 35 17.5 35 35 27.165 35 17.5 27.165 0 17.5 0z"/></svg>