<?xml version="1.0" encoding="utf-8"?>
<!-- Generator: Adobe Illustrator 16.0.4, SVG Export Plug-In . SVG Version: 6.00 Build 0)  -->
<!DOCTYPE svg PUBLIC "-//W3C//DTD SVG 1.1//EN" "http://www.w3.org/Graphics/SVG/1.1/DTD/svg11.dtd" [
	<!ENTITY ns_extend "http://ns.adobe.com/Extensibility/1.0/">
	<!ENTITY ns_ai "http://ns.adobe.com/AdobeIllustrator/10.0/">
	<!ENTITY ns_graphs "http://ns.adobe.com/Graphs/1.0/">
	<!ENTITY ns_vars "http://ns.adobe.com/Variables/1.0/">
	<!ENTITY ns_imrep "http://ns.adobe.com/ImageReplacement/1.0/">
	<!ENTITY ns_sfw "http://ns.adobe.com/SaveForWeb/1.0/">
	<!ENTITY ns_custom "http://ns.adobe.com/GenericCustomNamespace/1.0/">
	<!ENTITY ns_adobe_xpath "http://ns.adobe.com/XPath/1.0/">
]>
<svg version="1.1" id="Layer_1" xmlns:x="&ns_extend;" xmlns:i="&ns_ai;" xmlns:graph="&ns_graphs;"
	 xmlns="http://www.w3.org/2000/svg" xmlns:xlink="http://www.w3.org/1999/xlink" x="0px" y="0px" width="35px" height="35px"
	 viewBox="0 0 35 35" enable-background="new 0 0 35 35" xml:space="preserve">
<metadata>
	<sfw  xmlns="&ns_sfw;">
		<slices></slices>
		<sliceSourceBounds  bottomLeftOrigin="true" width="35" height="35" x="280" y="192"></sliceSourceBounds>
	</sfw>
</metadata>
<g id="Ebene_4" display="none">
	<circle display="inline" fill="#40CFFF" cx="17.417" cy="17.417" r="17.417"/>
</g>
<g id="Ebene_3">
</g>
<g id="Ebene_2">
	<g>
		<path fill="#FFFFFF" d="M15.347,34.854C16.054,34.941,16.77,35,17.5,35c0.73,0,1.445-0.059,2.152-0.146H17.5H15.347z"/>
		<path fill="#EA3648" d="M17.5,0v34.854h2.152C28.3,33.791,35,26.436,35,17.5C35,7.835,27.165,0,17.5,0z"/>
		<path fill="#FFFFFF" d="M17.5,0C7.835,0,0,7.835,0,17.5c0,8.936,6.701,16.291,15.347,17.354H17.5V0z"/>
	</g>
</g>
<g id="Ebene_1">
	<g>
		<path fill="#EA3648" d="M8.624,12.164c-0.41,0.175-0.682,0.489-1.107,0.648"/>
		<path fill="#EA3648" d="M7.326,13.08c0.131-0.466,0.277-0.918,0.419-1.374c-0.37-0.278-0.779-0.519-1.145-0.801
			c0.475-0.047,1.14,0.096,1.488-0.076c0.133-0.515,0.363-0.935,0.496-1.45c0.227,0.461,0.374,1,0.573,1.489
			c0.408,0.089,0.979,0.012,1.451,0.038c-0.342,0.293-0.768,0.504-1.108,0.8c0.082,0.503,0.295,0.876,0.382,1.374
			c-0.461-0.213-0.812-0.537-1.259-0.763"/>
	</g>
	<g>
		<path fill="#EA3648" d="M8.624,16.831c-0.41,0.176-0.682,0.49-1.107,0.649"/>
		<path fill="#EA3648" d="M7.326,17.746c0.131-0.466,0.277-0.917,0.419-1.374c-0.37-0.279-0.779-0.519-1.145-0.801
			c0.475-0.047,1.14,0.096,1.488-0.076c0.133-0.516,0.363-0.935,0.496-1.451c0.227,0.461,0.374,1,0.573,1.488
			c0.408,0.089,0.979,0.013,1.451,0.039c-0.342,0.294-0.768,0.505-1.107,0.801c0.082,0.504,0.295,0.876,0.382,1.374
			c-0.461-0.212-0.812-0.536-1.259-0.763"/>
	</g>
	<g>
		<path fill="#EA3648" d="M8.624,21.496c-0.41,0.177-0.682,0.49-1.107,0.648"/>
		<path fill="#EA3648" d="M7.326,22.412c0.131-0.467,0.277-0.917,0.419-1.374c-0.37-0.277-0.779-0.517-1.145-0.8
			c0.475-0.049,1.14,0.096,1.488-0.076c0.133-0.516,0.363-0.936,0.496-1.449c0.227,0.459,0.374,0.999,0.573,1.487
			c0.408,0.089,0.979,0.013,1.451,0.038c-0.342,0.294-0.768,0.505-1.107,0.8c0.082,0.505,0.295,0.878,0.382,1.374
			c-0.461-0.212-0.812-0.534-1.259-0.764"/>
	</g>
	<g>
		<path fill="#EA3648" d="M8.624,26.164c-0.41,0.175-0.682,0.488-1.107,0.648"/>
		<path fill="#EA3648" d="M7.326,27.08c0.131-0.467,0.277-0.919,0.419-1.374c-0.37-0.279-0.779-0.519-1.145-0.8
			c0.475-0.049,1.14,0.096,1.488-0.078c0.133-0.516,0.363-0.934,0.496-1.449c0.227,0.461,0.374,1.001,0.573,1.487
			c0.408,0.089,0.979,0.014,1.451,0.04c-0.342,0.294-0.768,0.503-1.107,0.8c0.082,0.503,0.295,0.876,0.382,1.374
			c-0.461-0.212-0.812-0.536-1.259-0.766"/>
	</g>
	<g>
		<path fill="#FFFFFF" d="M26.415,12.164c-0.41,0.175-0.683,0.489-1.104,0.648"/>
		<path fill="#FFFFFF" d="M25.118,13.08c0.131-0.466,0.276-0.918,0.418-1.374c-0.369-0.278-0.779-0.519-1.144-0.801
			c0.474-0.047,1.14,0.096,1.486-0.076c0.135-0.515,0.362-0.935,0.495-1.45c0.228,0.461,0.374,1,0.573,1.489
			c0.406,0.089,0.98,0.012,1.449,0.038c-0.342,0.294-0.769,0.505-1.106,0.801c0.082,0.503,0.295,0.876,0.383,1.374
			c-0.462-0.213-0.812-0.537-1.26-0.763"/>
	</g>
	<g>
		<path fill="#FFFFFF" d="M26.415,16.831c-0.41,0.176-0.683,0.49-1.104,0.649"/>
		<path fill="#FFFFFF" d="M25.118,17.746c0.131-0.466,0.276-0.917,0.418-1.374c-0.369-0.279-0.779-0.519-1.144-0.801
			c0.474-0.047,1.14,0.096,1.486-0.076c0.135-0.516,0.362-0.935,0.495-1.451c0.228,0.461,0.374,1,0.573,1.488
			c0.406,0.089,0.98,0.013,1.449,0.039c-0.342,0.294-0.769,0.505-1.106,0.801c0.082,0.504,0.295,0.876,0.383,1.374
			c-0.462-0.212-0.812-0.536-1.26-0.763"/>
	</g>
	<g>
		<path fill="#FFFFFF" d="M26.415,21.496c-0.41,0.177-0.683,0.49-1.104,0.648"/>
		<path fill="#FFFFFF" d="M25.118,22.412c0.131-0.467,0.276-0.917,0.418-1.374c-0.369-0.277-0.779-0.517-1.144-0.8
			c0.474-0.049,1.14,0.096,1.486-0.076c0.135-0.516,0.362-0.936,0.495-1.449c0.228,0.459,0.374,0.999,0.573,1.487
			c0.406,0.089,0.98,0.013,1.449,0.038c-0.342,0.294-0.769,0.505-1.106,0.8c0.082,0.505,0.295,0.878,0.383,1.374
			c-0.462-0.212-0.812-0.534-1.26-0.764"/>
	</g>
	<g>
		<path fill="#FFFFFF" d="M26.415,26.164c-0.41,0.175-0.683,0.488-1.104,0.648"/>
		<path fill="#FFFFFF" d="M25.118,27.08c0.131-0.467,0.276-0.919,0.418-1.374c-0.369-0.279-0.779-0.519-1.144-0.8
			c0.474-0.049,1.14,0.096,1.486-0.078c0.135-0.516,0.362-0.934,0.495-1.449c0.228,0.461,0.374,1.001,0.573,1.487
			c0.406,0.089,0.98,0.014,1.449,0.04c-0.342,0.294-0.769,0.503-1.106,0.8c0.082,0.503,0.295,0.876,0.383,1.374
			c-0.462-0.212-0.812-0.536-1.26-0.766"/>
	</g>
	<g>
		<path fill="#FFFFFF" d="M17.518,24.955c0.228,0.461,0.409,0.956,0.608,1.441c0.407,0.09,0.979,0.015,1.449,0.041
			c-0.341,0.293-0.767,0.502-1.104,0.799c0.082,0.504,0.295,0.877,0.381,1.375c-0.461-0.213-0.867-0.512-1.312-0.738"/>
		<path fill="#EA3648" d="M17.498,27.891c-0.448,0.229-0.854,0.526-1.315,0.738c0.087-0.496,0.3-0.871,0.382-1.374
			c-0.34-0.297-0.766-0.506-1.107-0.8c0.471-0.025,1.042,0.051,1.449-0.038c0.2-0.487,0.382-0.983,0.609-1.442"/>
	</g>
	<g>
		<path fill="#FFFFFF" d="M17.518,20.289c0.228,0.461,0.409,0.954,0.608,1.441c0.407,0.09,0.979,0.014,1.449,0.039
			c-0.341,0.293-0.767,0.504-1.104,0.799c0.082,0.506,0.295,0.879,0.381,1.375c-0.461-0.213-0.867-0.51-1.312-0.738"/>
		<path fill="#EA3648" d="M17.498,23.225c-0.448,0.229-0.854,0.526-1.315,0.738c0.087-0.498,0.3-0.871,0.382-1.374
			c-0.34-0.297-0.766-0.506-1.107-0.8c0.471-0.025,1.042,0.049,1.449-0.04c0.2-0.485,0.382-0.981,0.609-1.442"/>
	</g>
	<g>
		<path fill="#FFFFFF" d="M17.518,15.622c0.228,0.461,0.409,0.955,0.608,1.442c0.407,0.089,0.979,0.013,1.449,0.039
			c-0.341,0.294-0.767,0.503-1.104,0.8c0.082,0.503,0.295,0.878,0.381,1.375c-0.461-0.213-0.867-0.51-1.312-0.737"/>
		<path fill="#EA3648" d="M17.498,18.557c-0.448,0.229-0.854,0.526-1.315,0.738c0.087-0.496,0.3-0.869,0.382-1.374
			c-0.34-0.295-0.766-0.505-1.107-0.799c0.471-0.027,1.042,0.05,1.449-0.039c0.2-0.487,0.382-0.982,0.609-1.442"/>
	</g>
	<g>
		<path fill="#FFFFFF" d="M17.518,10.956c0.228,0.46,0.409,0.954,0.608,1.442c0.407,0.089,0.979,0.012,1.449,0.038
			c-0.341,0.294-0.767,0.504-1.104,0.8c0.082,0.504,0.295,0.878,0.381,1.374c-0.461-0.212-0.867-0.51-1.312-0.738"/>
		<path fill="#EA3648" d="M17.498,13.891c-0.448,0.228-0.854,0.526-1.315,0.738c0.087-0.497,0.3-0.87,0.382-1.374
			c-0.34-0.296-0.766-0.506-1.107-0.8c0.471-0.026,1.042,0.05,1.449-0.039c0.2-0.487,0.382-0.981,0.609-1.442"/>
	</g>
	<g>
		<path fill="#FFFFFF" d="M17.518,6.289c0.228,0.46,0.409,0.955,0.608,1.442c0.407,0.089,0.979,0.012,1.449,0.039
			c-0.341,0.294-0.767,0.503-1.104,0.8c0.082,0.503,0.295,0.877,0.381,1.374c-0.461-0.212-0.867-0.511-1.312-0.738"/>
		<path fill="#EA3648" d="M17.498,9.224c-0.448,0.229-0.854,0.526-1.315,0.738c0.087-0.496,0.3-0.87,0.382-1.374
			c-0.34-0.296-0.766-0.506-1.107-0.8c0.471-0.026,1.042,0.051,1.449-0.038c0.2-0.488,0.382-0.982,0.609-1.442"/>
	</g>
</g>
<path id="border" fill="#CCCCCC" d="M17.5,1C26.6,1,34,8.402,34,17.5C34,26.6,26.6,34,17.5,34C8.402,34,1,26.6,1,17.5
	C1,8.402,8.402,1,17.5,1 M17.5,0C7.835,0,0,7.835,0,17.5S7.835,35,17.5,35S35,27.165,35,17.5S27.165,0,17.5,0L17.5,0z"/>
</svg>
