<?xml version="1.0" encoding="utf-8"?>
<!-- Generator: Adobe Illustrator 16.0.4, SVG Export Plug-In . SVG Version: 6.00 Build 0)  -->
<!DOCTYPE svg PUBLIC "-//W3C//DTD SVG 1.1//EN" "http://www.w3.org/Graphics/SVG/1.1/DTD/svg11.dtd" [
	<!ENTITY ns_extend "http://ns.adobe.com/Extensibility/1.0/">
	<!ENTITY ns_ai "http://ns.adobe.com/AdobeIllustrator/10.0/">
	<!ENTITY ns_graphs "http://ns.adobe.com/Graphs/1.0/">
	<!ENTITY ns_vars "http://ns.adobe.com/Variables/1.0/">
	<!ENTITY ns_imrep "http://ns.adobe.com/ImageReplacement/1.0/">
	<!ENTITY ns_sfw "http://ns.adobe.com/SaveForWeb/1.0/">
	<!ENTITY ns_custom "http://ns.adobe.com/GenericCustomNamespace/1.0/">
	<!ENTITY ns_adobe_xpath "http://ns.adobe.com/XPath/1.0/">
]>
<svg version="1.1" id="Layer_1" xmlns:x="&ns_extend;" xmlns:i="&ns_ai;" xmlns:graph="&ns_graphs;"
	 xmlns="http://www.w3.org/2000/svg" xmlns:xlink="http://www.w3.org/1999/xlink" x="0px" y="0px" width="35px" height="35px"
	 viewBox="0 0 35 35" enable-background="new 0 0 35 35" xml:space="preserve">
<metadata>
	<sfw  xmlns="&ns_sfw;">
		<slices></slices>
		<sliceSourceBounds  bottomLeftOrigin="true" width="7830.64" height="7920.235" x="-7515.64" y="192"></sliceSourceBounds>
	</sfw>
</metadata>
<g id="Ebene_4" display="none">
	<circle display="inline" fill="#40CFFF" cx="17.5" cy="17.5" r="17.5"/>
</g>
<g id="Ebene_1">
	<g display="none">
		<rect x="5.062" y="5.048" display="inline" fill="#FED630" width="24.965" height="24.994"/>
	</g>
	<g>
		<circle fill="#FED630" cx="17.5" cy="17.479" r="17.479"/>
	</g>
</g>
<g id="Ebene_2" display="none">
</g>
<g>
	<path d="M11.97,11.023c0,0-0.656-0.286-1.674-2.909C9.28,5.492,7.632,5.761,7.617,5.763C7.565,5.774,7.445,5.785,7.415,5.937
		C7.389,6.089,7.508,6.156,7.546,6.171c0.039,0.017,1.005,0.267,1.446,2.988c0.488,3.02,2.125,3.758,2.468,3.846
		C10.624,11.388,11.97,11.023,11.97,11.023"/>
	<path d="M24.712,8.115c1.021-2.623,2.665-2.354,2.677-2.352c0.053,0.012,0.18,0.022,0.205,0.174
		c0.024,0.153-0.09,0.219-0.129,0.234c-0.037,0.017-1.007,0.267-1.453,2.988c-0.484,3.02-2.129,3.758-2.459,3.846
		c0.828-1.618-0.512-1.982-0.512-1.982"/>
	<path d="M23.691,13.363c0,0,0.639,1.2,0.268,2.937c0.053,0.08,0.753,0.688,2.002,0.288s1.312-1.845,2.396-2.198
		C27.67,13.235,26.113,11.759,23.691,13.363z M26.534,13.879c-0.324,0-0.892,0.271-1.349,0.489c-0.351,0.168-0.559,0.265-0.66,0.265
		c-0.002,0-0.006,0-0.01,0c-0.224-0.014-0.453-0.015-0.455-0.015v-0.1c0.002,0,0.234,0,0.463,0.015
		c0.074,0.006,0.352-0.126,0.619-0.254c0.465-0.223,1.045-0.499,1.392-0.499c0.567,0,1.538,0.481,1.579,0.501l-0.045,0.09
		C28.061,14.365,27.078,13.879,26.534,13.879z"/>
	<path d="M11.311,13.316c-2.422-1.605-3.979-0.129-4.668,1.025c1.091,0.354,1.155,1.797,2.407,2.199
		c1.25,0.4,1.951-0.209,1.999-0.29C10.68,14.516,11.311,13.316,11.311,13.316z M10.486,14.585c-0.104,0-0.316-0.099-0.673-0.269
		c-0.454-0.216-1.019-0.485-1.341-0.485c-0.543,0-1.522,0.486-1.532,0.492l-0.045-0.09c0.041-0.021,1.01-0.502,1.577-0.502
		c0.345,0,0.922,0.275,1.384,0.495c0.273,0.13,0.556,0.264,0.633,0.259c0.224-0.016,0.451-0.016,0.453-0.016v0.101
		c-0.002,0-0.225,0-0.445,0.016C10.493,14.585,10.489,14.585,10.486,14.585z"/>
	<path d="M15.026,27.264h4.867c0,0,0.092,0.881-0.586,0.881h-3.792C14.989,28.145,15.026,27.264,15.026,27.264"/>
	<path d="M15.417,16.491l-4.021-2.738c0,0-1.015,2.15,1.123,5.429c-0.735,1.058,0.429,2.024,0.575,2.295
		c0.304,0.547,0.844,2.152,0.988,2.166c0.249,0,0.961-0.586,1.054-0.828c0.185-0.51,0.295-1.187,0.295-1.187L15.417,16.491z
		 M14.218,16.806c-0.653,0-1.182-0.498-1.182-1.113c0-0.186,0.05-0.361,0.134-0.515l1.879,1.306
		C14.835,16.682,14.543,16.806,14.218,16.806z"/>
	<path d="M13.392,15.693c0,0.43,0.37,0.779,0.826,0.779c0.223,0,0.425-0.085,0.575-0.219l-1.313-0.912
		C13.423,15.446,13.392,15.565,13.392,15.693"/>
	<path d="M23.59,13.753l-4.027,2.738l-0.013,5.137c0,0,0.114,0.677,0.292,1.187c0.104,0.242,0.815,0.828,1.059,0.828
		c0.154-0.014,0.688-1.619,0.994-2.166c0.141-0.271,1.301-1.237,0.574-2.295C24.598,15.903,23.59,13.753,23.59,13.753z
		 M20.734,16.806c-0.319,0-0.612-0.124-0.83-0.322l1.875-1.306c0.089,0.154,0.142,0.329,0.142,0.515
		C21.921,16.308,21.396,16.806,20.734,16.806z"/>
	<path d="M21.562,15.693c0,0.43-0.369,0.779-0.828,0.779c-0.217,0-0.422-0.085-0.574-0.219l1.314-0.912
		C21.525,15.446,21.562,15.565,21.562,15.693"/>
	<path d="M23.203,13c0.031-0.039,0.062-0.081,0.093-0.125c0.778-1.102-0.075-1.57-0.521-1.701c0.037-0.097,0.05-0.203,0.05-0.312
		c0-0.567-0.472-1.026-1.044-1.026c-0.141,0-0.256,0.024-0.383,0.067c-0.129-0.411-0.523-0.707-0.996-0.707
		c-0.228,0-0.445,0.077-0.623,0.209c-0.19-0.291-0.51-0.486-0.881-0.486c-0.229,0-0.434,0.073-0.61,0.196
		c-0.22,0.163-0.774-0.185-0.774-0.185s-0.683,0.291-0.971,0.123c-0.153-0.085-0.326-0.135-0.514-0.135
		c-0.361,0-0.678,0.184-0.862,0.461c-0.17-0.123-0.379-0.196-0.608-0.196c-0.46,0-0.85,0.301-0.981,0.716
		c-0.12-0.049-0.25-0.077-0.387-0.077c-0.569,0-1.032,0.46-1.032,1.028c0,0.11,0.016,0.215,0.049,0.313
		c-0.441,0.123-1.304,0.603-0.511,1.727c0.028,0.039,0.055,0.076,0.083,0.111c-0.213,0.197-0.335,0.455-0.335,0.455l4.194,2.905
		c0,0-0.013,3.084,0.005,4.206c0.013,0.97-0.038,1.582-0.188,2.143c-0.019,0.077-0.333,0.473-0.519,0.65
		c-0.744,0.701-1.224,0.65-1.281,0.677c-0.291,0.103-0.628,0.33-0.291,1.646c0.336,1.299,0.92,1.401,0.92,1.401h6.426
		c0,0,0.572-0.104,0.917-1.401c0.332-1.314,0-1.543-0.294-1.646c-0.051-0.025-0.535,0.024-1.287-0.677
		c-0.179-0.178-0.496-0.573-0.51-0.65c-0.153-0.561-0.204-1.173-0.191-2.143c0.014-1.121,0-4.206,0-4.206l4.194-2.905
		C23.539,13.458,23.417,13.197,23.203,13z"/>
	<path fill="#E7423F" d="M19.512,25.171c0.215-0.343,0.279-0.329,0.293-0.329c0.867,0.648,1.439,1.669,1.439,2.805
		c0,1.963-1.694,3.558-3.774,3.558c-2.082,0-3.77-1.595-3.77-3.558c0-1.136,0.564-2.155,1.439-2.805
		c0.028-0.014,0.154-0.076,0.287,0.344c0.135,0.422,0.131,0.483,0.12,0.498c-0.574,0.484-0.937,1.185-0.937,1.963
		c0,1.467,1.282,2.65,2.861,2.65c1.583,0,2.856-1.186,2.856-2.65c0-0.791-0.37-1.492-0.956-1.989
		C19.37,25.656,19.27,25.568,19.512,25.171"/>
	<path fill="#E7423F" d="M18.49,27.098c0.052,0.229,0.09,0.473,0.09,0.728c0,0.993-0.508,1.797-1.136,1.797
		c-0.627,0-1.137-0.804-1.137-1.797c0-0.255,0.035-0.497,0.097-0.716C16.979,27.109,18.273,27.098,18.49,27.098"/>
</g>
<path id="border" fill="#CCCCCC" d="M17.5,1C26.6,1,34,8.402,34,17.5C34,26.6,26.6,34,17.5,34C8.402,34,1,26.6,1,17.5
	C1,8.402,8.402,1,17.5,1 M17.5,0C7.835,0,0,7.835,0,17.5S7.835,35,17.5,35S35,27.165,35,17.5S27.165,0,17.5,0L17.5,0z"/>
</svg>
