<?xml version="1.0" encoding="utf-8"?>
<!-- Generator: Adobe Illustrator 16.0.4, SVG Export Plug-In . SVG Version: 6.00 Build 0)  -->
<!DOCTYPE svg PUBLIC "-//W3C//DTD SVG 1.1//EN" "http://www.w3.org/Graphics/SVG/1.1/DTD/svg11.dtd" [
	<!ENTITY ns_extend "http://ns.adobe.com/Extensibility/1.0/">
	<!ENTITY ns_ai "http://ns.adobe.com/AdobeIllustrator/10.0/">
	<!ENTITY ns_graphs "http://ns.adobe.com/Graphs/1.0/">
	<!ENTITY ns_vars "http://ns.adobe.com/Variables/1.0/">
	<!ENTITY ns_imrep "http://ns.adobe.com/ImageReplacement/1.0/">
	<!ENTITY ns_sfw "http://ns.adobe.com/SaveForWeb/1.0/">
	<!ENTITY ns_custom "http://ns.adobe.com/GenericCustomNamespace/1.0/">
	<!ENTITY ns_adobe_xpath "http://ns.adobe.com/XPath/1.0/">
]>
<svg version="1.1" id="Layer_1" xmlns:x="&ns_extend;" xmlns:i="&ns_ai;" xmlns:graph="&ns_graphs;"
	 xmlns="http://www.w3.org/2000/svg" xmlns:xlink="http://www.w3.org/1999/xlink" x="0px" y="0px" width="35px" height="35px"
	 viewBox="0 0 35 35" enable-background="new 0 0 35 35" xml:space="preserve">
<metadata>
	<sfw  xmlns="&ns_sfw;">
		<slices></slices>
		<sliceSourceBounds  bottomLeftOrigin="true" width="35" height="35" x="280" y="192"></sliceSourceBounds>
	</sfw>
</metadata>
<g id="Ebene_3">
	<g>
		<path fill="#EA3648" d="M17.655,0.812c-9.218,0-16.847,7.485-16.847,16.696c0,0.045,0.005,0.093,0.005,0.139h17.01V34.17
			c9.068-0.178,16.365-7.562,16.365-16.661C34.188,8.297,26.872,0.812,17.655,0.812z"/>
		<path fill="#FFFFFF" d="M17.823,34.188V34.17c-0.11,0-0.216,0.018-0.325,0.018H17.823z"/>
		<path fill="#FFFFFF" d="M0.813,17.647c0.077,9.146,7.514,16.541,16.685,16.541c0.109,0,0.215-0.019,0.325-0.019V17.647H0.813z"/>
	</g>
</g>
<g id="Ebene_1">
	<g>
		<path fill="#FFFFFF" d="M11.588,7.307c0,3.467,0,6.934,0,10.401c0.313,0,0.628,0,0.943,0c0-3.492,0-6.98,0-10.471
			c-0.219-0.074-0.587-0.012-0.868-0.033C11.616,7.221,11.585,7.25,11.588,7.307z M22.459,7.307c0,3.126,0,6.252,0,9.38
			c0.213,0,0.428,0,0.643,0c0-3.162,0-6.322,0-9.482c-0.201,0-0.404,0-0.604,0C22.454,7.213,22.457,7.259,22.459,7.307z
			 M23.669,7.307c0,3.126,0,6.252,0,9.38c0.213,0,0.423,0,0.644,0c0-3.162,0-6.322,0-9.482c-0.203,0-0.405,0-0.606,0
			C23.663,7.213,23.667,7.259,23.669,7.307z M8.076,7.816C7.987,8.191,8.062,8.713,8.037,9.143C8.441,9.164,8.941,9.1,9.284,9.177
			C9.264,9.408,9.327,9.716,9.247,9.89c-0.404,0-0.806,0-1.209,0c0,0.431,0,0.861,0,1.292c0.479,0,0.956,0,1.436,0
			c0-0.272,0-0.543,0-0.817c0.188,0.022,0.477-0.043,0.604,0.034c0,0.261,0,0.521,0,0.784c0.22,0.017,0.521-0.037,0.679,0.034
			c-0.024,0.226,0.049,0.543-0.038,0.713c-0.214,0-0.428,0-0.642,0c-0.022,0.275,0.045,0.63-0.038,0.85
			c-0.184-0.016-0.441,0.033-0.565-0.034c0-0.273,0-0.544,0-0.816c-0.479,0-0.957,0-1.436,0c0,0.431,0,0.86,0,1.291
			c0.344,0.077,0.842,0.013,1.248,0.033c-0.024,0.229,0.048,0.545-0.038,0.714c-0.404,0-0.806,0-1.209,0
			c0.026,0.434-0.049,0.951,0.039,1.327c0.466,0,0.933,0,1.397,0c0-0.285,0-0.566,0-0.85c0.188,0.021,0.477-0.043,0.604,0.034
			c0,0.271,0,0.543,0,0.815c0.477,0,0.956,0,1.434,0c-0.023-2.482,0.051-5.052-0.038-7.477c-0.456,0.022-1.005-0.043-1.396,0.035
			c0,0.271,0,0.543,0,0.815C9.888,8.645,9.6,8.713,9.473,8.633c0-0.272,0-0.544,0-0.815C9.009,7.816,8.542,7.816,8.076,7.816z
			 M18.535,7.852c0,0.317,0,0.635,0,0.951c0.172,0.017,0.41-0.033,0.525,0.033c0,0.388,0,0.771,0,1.157c-0.176,0-0.354,0-0.525,0
			c0,0.329,0,0.657,0,0.985c0.375,0,0.755,0,1.131,0c0.021-0.353-0.046-0.79,0.038-1.087c0.243,0.02,0.573-0.039,0.757,0.034
			c0,0.351,0,0.701,0,1.053c0.225,0,0.449,0,0.678,0c-0.025,0.374,0.051,0.838-0.037,1.155c-0.215,0-0.427,0-0.641,0
			c0,0.363,0,0.727,0,1.087c-0.253-0.021-0.604,0.045-0.795-0.035c0-0.35,0-0.703,0-1.052c-0.369,0.02-0.828-0.042-1.133,0.034
			c0,0.316,0,0.635,0,0.953c0.173,0.013,0.412-0.035,0.527,0.035c0,0.383,0,0.77,0,1.152c-0.178,0-0.354,0-0.527,0
			c0.021,0.322-0.047,0.723,0.037,0.988c0.363,0,0.728,0,1.096,0c0.02-0.353-0.046-0.792,0.036-1.086
			c0.243,0.019,0.573-0.04,0.758,0.034c0,0.35,0,0.702,0,1.053c0.326,0,0.651,0,0.979,0c0.025-0.351-0.047-0.794,0.037-1.086
			c0.291,0,0.578,0,0.871,0c0-1.77,0-3.533,0-5.302c-0.304,0-0.604,0-0.908,0c0-0.363,0-0.725,0-1.088c-0.328,0-0.652,0-0.979,0
			c0,0.364,0,0.725,0,1.088c-0.254-0.023-0.604,0.045-0.796-0.036c0-0.349,0-0.701,0-1.053C19.297,7.838,18.839,7.774,18.535,7.852z
			 M25.367,7.816c-0.111,0.287,0.035,0.804-0.077,1.088c-0.29,0-0.576,0-0.868,0c0,1.768,0,3.532,0,5.302c0.305,0,0.604,0,0.907,0
			c0,0.359,0,0.724,0,1.086c0.327,0,0.653,0,0.983,0c0-0.363,0-0.727,0-1.086c0.252,0.019,0.604-0.047,0.791,0.034
			c0,0.35,0,0.702,0,1.053c0.367,0,0.729,0,1.101,0c0-0.33,0-0.659,0-0.988c-0.153-0.021-0.406,0.045-0.495-0.035
			c0.021-0.375-0.047-0.835,0.037-1.153c0.15,0,0.305,0,0.458,0c0-0.33,0-0.659,0-0.986c-0.37,0-0.733,0-1.101,0
			c0,0.362,0,0.726,0,1.086c-0.252-0.021-0.604,0.045-0.791-0.035c0-0.35,0-0.703,0-1.052c-0.227,0-0.455,0-0.681,0
			c0.022-0.374-0.052-0.838,0.036-1.156c0.216,0,0.43,0,0.645,0c0.021-0.353-0.049-0.79,0.037-1.087
			c0.242,0.02,0.571-0.038,0.754,0.035c0,0.351,0,0.701,0,1.053c0.367,0,0.729,0,1.101,0c0-0.328,0-0.657,0-0.985
			c-0.153-0.022-0.406,0.041-0.495-0.035C27.73,9.58,27.662,9.122,27.746,8.8c0.15,0,0.305,0,0.458,0c0-0.328,0-0.658,0-0.986
			c-0.37,0-0.733,0-1.101,0c0,0.364,0,0.725,0,1.088c-0.25-0.022-0.604,0.046-0.791-0.034c0-0.349,0-0.701,0-1.054
			C25.994,7.816,25.682,7.816,25.367,7.816z M22.195,16.79c-0.168,0.078-0.114,0.35-0.038,0.474c0.817,0,1.636,0,2.454,0
			c0.072-0.124,0.101-0.281,0.037-0.44C23.907,16.744,23.003,16.81,22.195,16.79z M22.044,18.248c0.808,0.059,1.876,0.059,2.683,0
			c0.207-0.165,0.193-0.68,0-0.847c-0.795-0.078-1.75-0.012-2.605-0.038C21.83,17.469,21.83,18.07,22.044,18.248z M22.234,18.384
			c-0.18,0.06-0.184,0.343-0.077,0.478c0.731,0.058,1.724,0.058,2.454,0c0.082-0.108,0.084-0.258,0.037-0.405
			C23.99,18.303,23.021,18.428,22.234,18.384z M22.459,19.1c-0.059,0.358,0.074,0.812-0.225,0.885
			c-0.241,0.061-0.623-0.383-0.797-0.508c-0.32-0.248-0.74-0.552-1.319-0.444c-0.994,0.175-1.661,1.805-1.661,3.161
			c0.001,1.137,0.465,2.299,1.096,2.785c0.465,0.354,1.213,0.354,1.735,0.104c0.329-0.157,0.521-0.471,0.907-0.579
			c-0.747,1.208-0.521,4.093,1.02,4.28c1.254,0.154,1.831-1.406,1.812-2.514c-0.012-0.709-0.332-1.295-0.416-1.804
			c0.66,0.578,1.683,1.171,2.568,0.542c1.541-1.078,1.354-4.719-0.039-5.742c-0.117-0.084-0.348-0.211-0.488-0.234
			c-1.187-0.221-1.266,0.822-2.153,0.951c-0.24-0.17-0.164-0.623-0.187-0.987c-0.22,0-0.431,0-0.643,0
			c-0.006,0.903-0.1,2.172,0.792,2.241c0.922,0.074,1.091-0.94,1.923-0.914c0.771,0.023,1.09,1.025,1.137,1.561
			c0.078,0.919-0.301,2.03-1.098,2.143c-0.85,0.123-1.264-0.861-2.001-0.746c-0.585,0.094-0.528,0.966-0.415,1.496
			c0.135,0.606,0.369,1.217,0.305,1.766c-0.054,0.434-0.34,1.1-0.946,1.088c-0.597-0.012-0.863-0.664-0.905-1.154
			c-0.047-0.55,0.189-1.195,0.303-1.732c0.108-0.523,0.188-1.385-0.455-1.463c-0.724-0.088-1.129,0.871-1.963,0.748
			c-1.18-0.17-1.326-2.326-0.753-3.193c0.134-0.204,0.438-0.502,0.794-0.51c0.807-0.022,1.043,1.025,1.963,0.915
			c0.842-0.101,0.764-1.291,0.754-2.242C22.904,19.05,22.477,18.886,22.459,19.1z M10.188,24.504
			c0.042-0.08,0.187-0.059,0.228-0.139c-0.138,0-0.145-0.116-0.228-0.168C10.242,24.323,10.092,24.447,10.188,24.504z M13.702,24.4
			c0.115,0.013,0.168,0.072,0.263,0.104c-0.034-0.093-0.013-0.242-0.076-0.307C13.889,24.323,13.758,24.323,13.702,24.4z
			 M9.321,25.286c0.132,0.051,0.178,0.18,0.264,0.267c-0.007-0.15,0.146-0.341,0.076-0.438C9.584,25.204,9.418,25.211,9.321,25.286z
			 M14.569,25.553c0.01-0.158,0.166-0.188,0.227-0.305c-0.174,0-0.246-0.098-0.377-0.134C14.455,25.273,14.489,25.438,14.569,25.553
			z"/>
		<path fill="#FFFFFF" d="M11.663,7.206c0.28,0.021,0.648-0.041,0.868,0.033c0,3.49,0,6.979,0,10.471c-0.314,0-0.629,0-0.943,0
			c0-3.467,0-6.934,0-10.401C11.585,7.25,11.616,7.221,11.663,7.206z"/>
		<path fill="#FFFFFF" d="M22.497,7.206c0.2,0,0.403,0,0.604,0c0,3.16,0,6.32,0,9.482c-0.215,0-0.431,0-0.644,0
			c0-3.127,0-6.253,0-9.38C22.457,7.259,22.454,7.213,22.497,7.206z"/>
		<path fill="#FFFFFF" d="M23.705,7.206c0.202,0,0.404,0,0.607,0c0,3.16,0,6.32,0,9.482c-0.222,0-0.433,0-0.645,0
			c0-3.127,0-6.253,0-9.38C23.667,7.259,23.663,7.213,23.705,7.206z"/>
		<path fill="#FFFFFF" d="M9.473,7.816c0,0.272,0,0.544,0,0.815C9.6,8.713,9.888,8.645,10.078,8.667c0-0.272,0-0.544,0-0.815
			c0.392-0.078,0.942-0.013,1.396-0.035c0.088,2.425,0.014,4.995,0.038,7.477c-0.478,0-0.957,0-1.434,0c0-0.272,0-0.544,0-0.815
			c-0.128-0.077-0.417-0.013-0.604-0.034c0,0.284,0,0.565,0,0.85c-0.464,0-0.932,0-1.397,0c-0.087-0.377-0.013-0.893-0.039-1.327
			c0.404,0,0.806,0,1.209,0c0.086-0.169,0.013-0.485,0.038-0.714c-0.406-0.02-0.903,0.045-1.248-0.033c0-0.43,0-0.859,0-1.291
			c0.479,0,0.956,0,1.436,0c0,0.272,0,0.543,0,0.816c0.124,0.066,0.381,0.019,0.566,0.034c0.083-0.219,0.016-0.573,0.038-0.85
			c0.213,0,0.427,0,0.642,0c0.087-0.17,0.014-0.487,0.038-0.713c-0.158-0.071-0.46-0.018-0.679-0.034c0-0.262,0-0.523,0-0.784
			c-0.129-0.078-0.417-0.012-0.604-0.034c0,0.273,0,0.544,0,0.817c-0.479,0-0.957,0-1.436,0c0-0.431,0-0.861,0-1.292
			c0.404,0,0.806,0,1.209,0c0.08-0.174,0.017-0.482,0.037-0.713C8.941,9.099,8.441,9.164,8.037,9.143
			c0.026-0.43-0.049-0.952,0.039-1.327C8.542,7.816,9.009,7.816,9.473,7.816z"/>
		<path fill="#FFFFFF" d="M19.666,7.816c0,0.352,0,0.704,0,1.053c0.189,0.08,0.54,0.012,0.795,0.036c0-0.363,0-0.725,0-1.088
			c0.327,0,0.65,0,0.979,0c0,0.364,0,0.725,0,1.088c0.305,0,0.604,0,0.908,0c0,1.768,0,3.532,0,5.302c-0.291,0-0.58,0-0.869,0
			c-0.086,0.293-0.013,0.735-0.039,1.086c-0.326,0-0.65,0-0.979,0c0-0.351,0-0.703,0-1.053c-0.184-0.075-0.516-0.015-0.757-0.034
			c-0.084,0.294-0.019,0.734-0.038,1.086c-0.367,0-0.729,0-1.096,0c-0.084-0.265-0.016-0.665-0.035-0.988c0.174,0,0.352,0,0.525,0
			c0-0.384,0-0.769,0-1.152c-0.115-0.069-0.354-0.021-0.525-0.035c0-0.317,0-0.637,0-0.953c0.304-0.076,0.762-0.013,1.131-0.034
			c0,0.35,0,0.702,0,1.052c0.189,0.079,0.542,0.013,0.796,0.035c0-0.36,0-0.724,0-1.087c0.213,0,0.427,0,0.64,0
			c0.088-0.316,0.014-0.781,0.037-1.155c-0.228,0-0.451,0-0.677,0c0-0.352,0-0.702,0-1.053c-0.185-0.073-0.515-0.014-0.758-0.034
			c-0.082,0.297-0.017,0.734-0.036,1.087c-0.376,0-0.757,0-1.133,0c0-0.328,0-0.657,0-0.985c0.174,0,0.352,0,0.527,0
			c0-0.386,0-0.77,0-1.157c-0.115-0.066-0.355-0.018-0.527-0.033c0-0.317,0-0.634,0-0.951C18.839,7.774,19.297,7.838,19.666,7.816z"
			/>
		<path fill="#FFFFFF" d="M26.312,7.816c0,0.352,0,0.704,0,1.053c0.187,0.08,0.539,0.012,0.791,0.036c0-0.363,0-0.725,0-1.088
			c0.365,0,0.729,0,1.1,0c0,0.328,0,0.659,0,0.986c-0.153,0-0.307,0-0.457,0c-0.085,0.321-0.016,0.78-0.037,1.155
			c0.09,0.077,0.341,0.013,0.494,0.036c0,0.329,0,0.657,0,0.985c-0.369,0-0.732,0-1.1,0c0-0.353,0-0.703,0-1.054
			C26.922,9.853,26.592,9.91,26.35,9.89c-0.088,0.297-0.016,0.735-0.037,1.088c-0.217,0-0.429,0-0.645,0
			c-0.088,0.317-0.014,0.781-0.035,1.155c0.225,0,0.453,0,0.68,0c0,0.349,0,0.702,0,1.052c0.187,0.079,0.539,0.013,0.791,0.035
			c0-0.36,0-0.725,0-1.087c0.365,0,0.729,0,1.1,0c0,0.328,0,0.657,0,0.986c-0.153,0-0.307,0-0.457,0
			c-0.085,0.318-0.016,0.778-0.037,1.153c0.09,0.081,0.341,0.013,0.494,0.035c0,0.329,0,0.657,0,0.988c-0.369,0-0.732,0-1.1,0
			c0-0.351,0-0.703,0-1.053c-0.188-0.081-0.539-0.015-0.791-0.034c0,0.359,0,0.724,0,1.086c-0.328,0-0.656,0-0.982,0
			c0-0.363,0-0.727,0-1.086c-0.303,0-0.604,0-0.908,0c0-1.77,0-3.534,0-5.302c0.291,0,0.579,0,0.869,0
			c0.111-0.284-0.034-0.801,0.075-1.088C25.682,7.816,25.994,7.816,26.312,7.816z"/>
		<path fill="#FFFFFF" d="M24.648,16.824c0.062,0.158,0.035,0.316-0.037,0.44c-0.818,0-1.637,0-2.454,0
			c-0.076-0.124-0.13-0.397,0.038-0.474C23.003,16.81,23.907,16.744,24.648,16.824z"/>
		<path fill="#FFFFFF" d="M22.12,17.363c0.854,0.026,1.812-0.04,2.604,0.038c0.194,0.167,0.207,0.682,0,0.847
			c-0.806,0.059-1.873,0.059-2.682,0C21.83,18.07,21.83,17.469,22.12,17.363z"/>
		<path fill="#FFFFFF" d="M24.648,18.455c0.047,0.146,0.045,0.297-0.037,0.406c-0.73,0.057-1.723,0.057-2.454,0
			c-0.104-0.135-0.103-0.418,0.077-0.479C23.021,18.428,23.99,18.303,24.648,18.455z"/>
		<path fill="#FFFFFF" d="M23.104,18.997c0.008,0.951,0.086,2.142-0.756,2.242c-0.918,0.11-1.156-0.939-1.963-0.915
			c-0.354,0.008-0.66,0.305-0.793,0.51c-0.574,0.867-0.426,3.023,0.752,3.193c0.836,0.123,1.24-0.834,1.963-0.748
			c0.646,0.078,0.564,0.939,0.457,1.463c-0.115,0.537-0.35,1.184-0.305,1.732c0.042,0.49,0.311,1.145,0.906,1.154
			c0.605,0.012,0.894-0.654,0.947-1.088c0.063-0.549-0.172-1.158-0.305-1.766c-0.113-0.529-0.17-1.404,0.414-1.496
			c0.737-0.115,1.15,0.869,2.001,0.746c0.795-0.112,1.177-1.223,1.097-2.143c-0.045-0.533-0.365-1.535-1.136-1.561
			c-0.833-0.024-1.001,0.988-1.923,0.914c-0.891-0.069-0.797-1.338-0.792-2.241c0.213,0,0.424,0,0.644,0
			c0.021,0.364-0.056,0.817,0.187,0.987c0.888-0.129,0.966-1.172,2.151-0.951c0.143,0.023,0.373,0.15,0.49,0.234
			c1.394,1.023,1.578,4.664,0.037,5.742c-0.887,0.629-1.906,0.036-2.566-0.543c0.084,0.51,0.404,1.096,0.414,1.805
			c0.02,1.106-0.56,2.668-1.812,2.515c-1.54-0.188-1.767-3.073-1.019-4.281c-0.389,0.108-0.579,0.422-0.907,0.579
			c-0.522,0.251-1.271,0.251-1.735-0.104c-0.633-0.486-1.095-1.648-1.096-2.785c-0.002-1.356,0.667-2.986,1.66-3.161
			c0.58-0.106,0.999,0.196,1.32,0.444c0.174,0.125,0.556,0.567,0.795,0.506c0.3-0.071,0.168-0.523,0.225-0.883
			C22.477,18.886,22.904,19.05,23.104,18.997z"/>
		<path fill="#EA3648" d="M15.873,19.386c-0.122-0.09-0.35-0.214-0.492-0.235c-1.187-0.219-0.842,0.849-1.926,0.869
			c0.548-0.494-0.362-1.064-0.362-1.221c-0.144-0.131-0.321-0.682-0.562-1.094c-0.163,0-0.385,0-0.453,0c0,0.001,0,0.006,0,0.007
			h-0.029c-0.165,0-0.287-0.003-0.461-0.003c-0.241,0.378-0.403,0.932-0.496,1.082c-0.037,0.146-0.755,0.631-0.372,1.259
			c-0.02-0.007-0.257-0.135-0.637-0.276c-0.641-0.293-1.427-0.127-1.755,0.137c-0.258,0.062-1.273,1.229-1.271,2.585
			c0.001,0.87,0.128,2.536,1.731,2.791c-0.215,0.185-0.212,0.374-0.24,0.476c0.063,0.799,0.654,0.911,0.963,0.574
			c0.031,0.53,0.149,0.832,0.263,1.172c0.358,0.73,0.77,1.393,2.329,1.393c0.938,0.054,1.926-0.48,2.297-1.545
			c0.112-0.321,0.312-0.434,0.207-1.049c0.657,0.57,1.266-0.188,0.718-1.06C17.797,24.909,17.266,20.404,15.873,19.386z
			 M14.955,24.398c-0.237,0.045-0.688-0.107-0.427-1.115c-0.143-0.053-0.292,0.074-0.333,0.117
			c-0.151,0.143-0.168,0.107-0.193,0.117c-0.22-0.699-0.952-0.498-1.072,0.01c-0.135,0.63,0.26,0.84,0.322,0.873
			c-0.251,0.104-0.528,0.422-0.56,0.457c-0.115,0.199-0.092,0.306-0.05,0.447c0.13,0.045,0.328,0.008,0.473-0.158
			c0.061-0.032,0.116-0.032,0.176-0.037c0.565,0.009,0.554,0.888,0.349,1.414c-0.194,0.488-0.798,1.054-1.619,1.039
			c-0.54-0.006-1.177-0.264-1.538-1.004c-0.12-0.229-0.182-0.707-0.073-1.082c0.073-0.268,0.251-0.326,0.291-0.346
			c0.082-0.029,0.147-0.035,0.28,0.01c0.111,0.082,0.273,0.219,0.457,0.172c0.035-0.041,0.087-0.148,0.072-0.236
			c-0.043-0.253-0.273-0.503-0.641-0.645c0.041-0.027,0.278-0.156,0.331-0.387c0.096-0.293-0.07-0.604-0.14-0.689
			c-0.147-0.181-0.302-0.314-0.543-0.279c-0.177,0.035-0.306,0.221-0.344,0.293c-0.063,0.119-0.07,0.158-0.137,0.128
			c-0.137-0.062-0.201-0.284-0.407-0.214c-0.013,0.021,0.01,0.084,0.009,0.152c-0.025,0.703,0.004,0.93-0.486,0.948
			c-1.076-0.104-1.04-1.889-0.547-2.851c0.109-0.223,0.45-0.51,0.754-0.668c0.585-0.309,1.253-0.008,1.329,0.771
			c-0.022,0.108-0.012,0.396-0.42,0.658c0.28,0.326,0.751,0.062,0.939-0.205c0.002,0.064,0.023,0.678,0.753,0.753v0.013h0.166
			v-0.015c0.545-0.042,0.789-0.411,0.784-0.754c0.399,0.468,0.759,0.437,0.904,0.224c0.033-0.041-0.091-0.215-0.206-0.319
			c-0.136-0.119-0.233-0.238-0.211-0.425c0.013-0.402,0.287-0.812,0.921-0.819c0.766-0.013,1.159,0.662,1.358,1.179
			c0.099,0.248,0.18,0.66,0.185,0.982C15.879,23.798,15.576,24.282,14.955,24.398z"/>
		<path fill="#FFFFFF" d="M10.188,24.197c0.083,0.052,0.09,0.168,0.228,0.168c-0.041,0.082-0.186,0.059-0.228,0.139
			C10.092,24.447,10.242,24.323,10.188,24.197z"/>
		<path fill="#FFFFFF" d="M13.889,24.197c0.063,0.063,0.042,0.214,0.076,0.307c-0.096-0.031-0.148-0.093-0.263-0.104
			C13.758,24.323,13.889,24.323,13.889,24.197z"/>
		<path fill="#FFFFFF" d="M9.66,25.114c0.071,0.098-0.083,0.288-0.075,0.438c-0.086-0.087-0.132-0.216-0.264-0.267
			C9.418,25.211,9.584,25.204,9.66,25.114z"/>
		<path fill="#FFFFFF" d="M14.419,25.114c0.131,0.036,0.203,0.134,0.377,0.134c-0.061,0.116-0.217,0.146-0.227,0.305
			C14.489,25.438,14.455,25.273,14.419,25.114z"/>
	</g>
</g>
<path id="border" fill="#CCCCCC" d="M17.5,1C26.6,1,34,8.402,34,17.5C34,26.6,26.6,34,17.5,34C8.402,34,1,26.6,1,17.5
	C1,8.402,8.402,1,17.5,1 M17.5,0C7.835,0,0,7.835,0,17.5S7.835,35,17.5,35S35,27.165,35,17.5S27.165,0,17.5,0L17.5,0z"/>
</svg>
