<?xml version="1.0" encoding="utf-8"?>
<!-- Generator: Adobe Illustrator 16.0.4, SVG Export Plug-In . SVG Version: 6.00 Build 0)  -->
<!DOCTYPE svg PUBLIC "-//W3C//DTD SVG 1.1//EN" "http://www.w3.org/Graphics/SVG/1.1/DTD/svg11.dtd" [
	<!ENTITY ns_extend "http://ns.adobe.com/Extensibility/1.0/">
	<!ENTITY ns_ai "http://ns.adobe.com/AdobeIllustrator/10.0/">
	<!ENTITY ns_graphs "http://ns.adobe.com/Graphs/1.0/">
	<!ENTITY ns_vars "http://ns.adobe.com/Variables/1.0/">
	<!ENTITY ns_imrep "http://ns.adobe.com/ImageReplacement/1.0/">
	<!ENTITY ns_sfw "http://ns.adobe.com/SaveForWeb/1.0/">
	<!ENTITY ns_custom "http://ns.adobe.com/GenericCustomNamespace/1.0/">
	<!ENTITY ns_adobe_xpath "http://ns.adobe.com/XPath/1.0/">
]>
<svg version="1.1" id="Layer_1" xmlns:x="&ns_extend;" xmlns:i="&ns_ai;" xmlns:graph="&ns_graphs;"
	 xmlns="http://www.w3.org/2000/svg" xmlns:xlink="http://www.w3.org/1999/xlink" x="0px" y="0px" width="35px" height="35px"
	 viewBox="0 0 35 35" enable-background="new 0 0 35 35" xml:space="preserve">
<metadata>
	<sfw  xmlns="&ns_sfw;">
		<slices></slices>
		<sliceSourceBounds  bottomLeftOrigin="true" width="35" height="35" x="280" y="192"></sliceSourceBounds>
	</sfw>
</metadata>
<g id="Ebene_1">
	<g>
		<path fill="#FFD730" d="M17.5,0c-0.584,0-1.161,0.031-1.73,0.087c1.125-0.003,2.253-0.004,3.384-0.003
			C18.609,0.032,18.059,0,17.5,0z"/>
		<path fill="#FCDB51" d="M0.078,15.968c8.47,5.69,16.899,11.418,25.371,17.109c5.164-2.642,8.854-7.759,9.462-13.795
			C26.354,13.555,17.848,7.78,9.296,2.045C4.194,4.76,0.603,9.922,0.078,15.968z"/>
		<path fill="#EA3648" d="M19.154,0.083c-1.131-0.001-2.259,0-3.384,0.003C13.447,0.315,11.262,1,9.296,2.045
			c8.552,5.735,17.058,11.51,25.614,17.237C34.971,18.695,35,18.102,35,17.5C35,8.394,28.042,0.917,19.154,0.083z"/>
		<path fill="#EA3648" d="M0,17.5C0,27.165,7.834,35,17.5,35c2.865,0,5.562-0.704,7.947-1.923
			c-8.47-5.691-16.9-11.419-25.369-17.109C0.034,16.473,0,16.982,0,17.5z"/>
	</g>
</g>
<g id="Ebene_3">
	<path fill="#131819" d="M12.309,22.639c-0.999,0.101-1.323-0.468-1.671-1.014c-0.233,0.033-0.609-0.068-0.753,0.055
		c-0.158-0.338,0.289-0.531,0.538-0.642c-0.259-0.131-0.651-0.117-0.969-0.056c0.169-0.463,0.79-0.729,1.454-0.531
		c-0.019-0.212-0.482-0.443-0.916-0.43c0.173-0.603,1.202-0.354,1.456,0c0.037-0.375-0.333-0.629-0.324-0.797
		c0.561,0.086,0.878,0.41,1.026,0.904c0.224-0.1,0.217-0.426,0.215-0.747c0.602,0.357,0.224,1.368,0.431,2.136
		c0.372-0.188,0.29-0.666,0.378-0.961c0.377-1.277,1.121-2.203,0.97-4.162c-0.238-3.086-2.261-5.137-5.283-5.439
		c0.103-0.309,0.259-0.562,0.377-0.854c-1.1-0.278-2.426-1.235-1.726-2.612c0.441,0.719,0.766,1.553,1.563,1.92
		c0.124-0.145,0.06-0.473,0.161-0.639c0.012-0.259-0.333-0.169-0.323-0.427c0.134-0.543,0.82-0.54,0.7-1.333
		c0.489,0.122,0.52,0.695,1.241,0.586c0.164,0.089,0.699,0.089,0.862,0c1.052-0.647,2.373,0.362,2.912,1.067
		c0.567-0.086,1.116-0.06,1.401,0.267c0.025,0.344-0.014,0.625-0.108,0.854c-0.228,0.146-0.754,0-0.861,0.266
		c0.365,0.839,1.375-0.096,2.154,0.213c-0.127,0.104-0.33,0.135-0.482,0.213c-0.048-0.01-0.053,0.021-0.055,0.054
		c0.127,0.123,0.482,0.02,0.7,0.054c0.25-0.019,0.36,0.105,0.592,0.105c-0.22,0.102-0.584,0.062-0.755,0.214
		c-0.188,0.174,0.342,0.088,0.487,0.107c0.258,0.01,0.402,0.132,0.591,0.213c-0.166,0.137-0.658-0.048-0.699,0.213
		c0.207,0.256,0.599,0.204,0.863,0.266c1.938,0.466,3.649,1.38,5.335,2.401c1.223,0.74,2.618,1.785,3.613,2.987
		c0.26,0.314,0.762,1.048,0.808,1.388c0.026,0.207,0.039,0.858-0.433,0.799c-0.443-0.055-0.284-1.152-0.646-1.226
		c0.049,1.216,0.543,2.448,0.594,3.841c0,0.248,0,0.496,0,0.746c-0.197,1.688-0.185,3.676-0.646,4.961
		c-0.082,0.225-1.104,1.123-1.403,1.332c-0.384,0.27-0.822,0.392-1.453,0.373c-0.201,0.032-0.537-0.07-0.648,0.053
		c-0.383,0.061-0.782,0.082-1.077,0.215c-0.336,0.15-0.435,0.502-0.699,0.533c-0.071-0.604,0.091-0.977,0.376-1.227
		c-0.232-0.172-0.816-0.245-1.025,0c-0.182-0.537,0.345-0.836,0.863-0.854c-0.172-0.224-0.486-0.301-0.916-0.268
		c0.098-0.462,0.635-0.627,1.188-0.479c0.003-0.271-0.423-0.582-0.812-0.645c0.338-0.428,1.235-0.253,1.562,0.057
		c0.037-0.428-0.154-0.627-0.217-0.959c0.484,0.107,0.923,0.261,0.916,0.854c0.299,0.273,0.856,0.288,1.08,0.641
		c0.031,0.277-0.096,0.4-0.055,0.692c0.504-0.104,0.48-0.774,0.434-1.174c-0.08-0.625-0.465-1.392-0.756-2.024
		c-0.271-0.596-0.752-1.18-0.973-1.814c-0.369-1.066-0.212-2.684-0.377-3.896c-0.107-0.793-0.201-1.812-0.916-2.131
		c0.062,0.558,0.615,1.096,0.592,1.919c0.018,0.212,0.018,0.239,0.055,0.479c0.045,0.65,0.15,1.238,0.217,1.867
		c-1.271,0.357-1.282,2.017-1.614,3.146c-0.159,0.54-1.257,1.189-1.942,1.229c-0.762,0.039-1.371-0.168-1.994-0.375
		c-0.156-0.068-0.21-0.09-0.271-0.104c-0.326,0.021-0.599-0.015-0.753-0.161c-0.386,0.034-0.675,0.422-0.97,0.373
		c-0.031-0.668,0.396-0.888,0.808-1.119c-0.221-0.223-0.798-0.057-0.969,0.106c-0.051-0.46,0.448-0.837,1.077-0.802
		c0.008-0.203-0.443-0.414-0.862-0.373c0.22-0.25,0.779-0.43,1.239-0.267c-0.109-0.298-0.396-0.426-0.701-0.534
		c0.009-0.062,0.099-0.045,0.163-0.055c0.16-0.045,0.295-0.036,0.538-0.011c0.429-0.015,0.504,0.331,0.81,0.438
		c0.184-0.232-0.123-0.537-0.055-0.641c0.646-0.104,0.506,0.449,0.701,0.904c0.279,0.66,1.216,0.936,1.994,0.804
		c-0.146-0.306-0.812-0.086-0.971-0.377c0-0.034,0-0.069,0-0.104c-0.035-0.306-0.08-0.678-0.055-0.963
		c0.025-1.004-0.08-1.877-0.216-2.72c0.417-1.011,1.733-1.123,3.071-1.228c-1.26-0.479-2.994-0.483-4.635-0.585
		c0.436-0.708,0.66-1.885-0.376-2.08c-0.078,0.322,0.417,0.497,0.431,0.853c0.009,0.327-0.549,1.065-0.754,1.439
		c-0.762,1.381-1.639,3.054-2.158,4.429c-0.39,0.147-0.823,0.252-1.349,0.267C12.92,22.639,12.615,22.639,12.309,22.639z
		 M12.579,8.13c0.036,0.393-0.062,0.65-0.107,0.961c0.483-0.141,0.438-1.559-0.163-1.334C12.256,8.024,12.552,7.945,12.579,8.13z
		 M12.417,8.876c0.099-0.292-0.225-0.167-0.215-0.373c0.008-0.187,0.329-0.065,0.324-0.266C11.837,7.705,11.656,9.164,12.417,8.876z
		 M7.512,7.918c-0.259,2.085,2.252,1.896,3.449,2.719c0.157,0.167,0.186,0.458,0.485,0.481c-0.341-1.046-1.748-1.114-2.696-1.708
		C8.11,9.008,7.883,8.397,7.512,7.757c0,0.036,0,0.072,0,0.106C7.512,7.881,7.512,7.9,7.512,7.918z M9.884,9.785
		c0.61,0.23,1.116,0.567,1.562,0.959C11.31,9.955,10.361,8.677,9.884,9.785z M9.83,9.091c0-0.054,0-0.107,0-0.161
		C9.534,9.028,9.378,9.265,9.236,9.517c0.237-0.02,0.278,0.153,0.487,0.16C9.913,9.846,9.8,9.259,9.83,9.091z M9.398,10.157
		c-0.022,0.271,0.109,0.391,0.215,0.533c0.228-0.023,0.26-0.242,0.377-0.372C9.802,10.256,9.655,10.152,9.398,10.157z M10.1,10.371
		c-0.059,0.539,0.654,0.596,0.969,0.587C10.787,10.722,10.542,10.448,10.1,10.371z"/>
	<path fill="#FEFEFE" d="M12.309,7.757c0.601-0.225,0.646,1.193,0.163,1.334c0.046-0.311,0.144-0.568,0.107-0.961
		C12.552,7.945,12.256,8.024,12.309,7.757z"/>
	<path fill="#FEFEFE" d="M12.526,8.237c0.005,0.201-0.316,0.08-0.324,0.266c-0.009,0.206,0.314,0.082,0.215,0.373
		C11.656,9.164,11.837,7.705,12.526,8.237z"/>
	<path fill="#FFD730" d="M9.723,9.677c-0.208-0.007-0.25-0.18-0.487-0.16C9.378,9.265,9.534,9.028,9.83,8.931
		c0,0.054,0,0.107,0,0.161C9.672,9.165,9.88,9.602,9.723,9.677z"/>
	<path fill="#FFD730" d="M9.991,10.318c-0.118,0.13-0.15,0.349-0.377,0.372c-0.106-0.142-0.238-0.262-0.215-0.533
		C9.655,10.152,9.802,10.256,9.991,10.318z"/>
	<path fill="#FFD730" d="M11.068,10.958c-0.314,0.008-1.027-0.049-0.969-0.587C10.542,10.448,10.787,10.722,11.068,10.958z"/>
	<path fill="#E8423F" d="M9.021,13.517c-0.069,0.075-0.233,0.053-0.376,0.054c0.039-0.447-0.119-0.701-0.215-1.014
		C8.791,12.715,8.951,13.072,9.021,13.517z"/>
	<path fill="#E8423F" d="M9.776,13.517c-0.017,0.253-0.244-0.032-0.432,0.054c0.116-0.258,0.329-0.42,0.269-0.854
		C9.776,12.844,9.915,13.272,9.776,13.517z"/>
	<path fill="#E8423F" d="M10.261,14.051c-0.157-0.024-0.247-0.112-0.27-0.267c0.238,0.004,0.338-0.128,0.431-0.267
		C10.583,13.697,10.267,13.859,10.261,14.051z"/>
	<path fill="#110C06" d="M21.689,27.648c-0.127,0-0.252,0-0.377,0c-0.012-0.133,0.082-0.166,0.16-0.213
		C21.221,27.648,21.568,27.538,21.689,27.648z"/>
	<path fill="#131819" d="M15.382,8.397c-0.729,0.309-0.956-0.224-1.347-0.534C14.493,7.356,15.368,7.712,15.382,8.397z"/>
	<path fill="#FFD730" d="M11.447,10.744C11,10.352,10.494,10.015,9.884,9.785C10.361,8.677,11.31,9.955,11.447,10.744z"/>
	<path fill="#42380E" d="M16.731,10.477c0.092,0.157,0.554-0.05,0.645,0.108c-0.218-0.034-0.573,0.068-0.7-0.054
		C16.679,10.498,16.684,10.467,16.731,10.477z"/>
	<path fill="#AF9422" d="M17.214,10.904c0.041,0.155,0.444-0.048,0.487,0.107C17.556,10.992,17.025,11.078,17.214,10.904z"/>
	<path fill="#131819" d="M7.136,14.583c0.018-0.463-0.496-0.399-0.863-0.479c0.191-0.447,1.014-0.44,1.456-0.213
		c-0.052-0.5-0.633-0.477-0.863-0.8c0.623-0.302,1.241,0.101,1.617,0.373c0.06-0.557-0.218-0.78-0.378-1.12
		c0.689,0.03,0.933,0.499,1.079,1.068c0.329-0.103,0.274-0.583,0.27-1.014c0.411,0.182,0.617,0.72,0.485,1.28
		c0.302-0.092,0.499-0.289,0.592-0.587c0.44,1.209-1.16,1.299-1.025,2.561c0.024,0.14,0,0.601,0,0.746
		c0.016,0.27,0.029,0.542,0.271,0.588c0.207-0.168,0.005-0.621-0.109-0.801c1.407-0.512,2.17-1.658,3.343-2.4
		c0.384,0.635,0.729,1.306,0.809,2.241c0,0.248,0,0.497,0,0.745c-0.086,0.663-0.736,0.69-1.562,0.908
		c-0.864,0.228-1.783,0.271-2.75,0.426c-0.196,0-0.395,0-0.592,0c-0.942-0.116-1.323-0.791-1.564-1.602
		c0.255-0.002,0.33,0.172,0.594,0.161c-0.233-0.375-0.789-0.429-0.808-1.013c0-0.178,0-0.356,0-0.534
		C7.136,14.939,7.136,14.762,7.136,14.583z"/>
	<path fill="#544711" d="M13.819,16.77c0-0.249,0-0.497,0-0.745"/>
	<path fill="#42380E" d="M12.309,22.639c0.307,0,0.612,0,0.917,0"/>
	<path fill="#EA3648" d="M7.512,7.864c0-0.035,0-0.07,0-0.106c0.371,0.64,0.598,1.25,1.239,1.653
		c0.948,0.593,2.354,0.662,2.696,1.708c-0.3-0.024-0.329-0.314-0.485-0.481c-1.197-0.823-3.708-0.634-3.449-2.719
		C7.512,7.9,7.512,7.881,7.512,7.864z"/>
</g>
<path id="border" fill="#CCCCCC" d="M17.5,1C26.6,1,34,8.402,34,17.5C34,26.598,26.6,34,17.5,34C8.402,34,1,26.598,1,17.5
	C1,8.402,8.402,1,17.5,1 M17.5,0C7.835,0,0,7.835,0,17.5C0,27.164,7.835,35,17.5,35S35,27.164,35,17.5C35,7.835,27.165,0,17.5,0
	L17.5,0z"/>
</svg>
