<svg xmlns="http://www.w3.org/2000/svg" width="35" height="35"><path fill="#FFF" d="M.498 17.5c0 .023.003.046.003.07h33.997l.002-.07H.498z"/><path fill="#131819" d="M17.499.5C8.109.5.498 8.111.498 17.5H34.5c0-9.389-7.611-17-17.001-17z"/><path fill="#FFF" d="M17.499 34.5c9.366 0 16.959-7.572 16.999-16.93H.501C.54 26.928 8.133 34.5 17.499 34.5z"/><path fill="#CCC" d="M17.499 1c9.099 0 16.5 7.402 16.5 16.5 0 9.098-7.401 16.5-16.5 16.5-9.098 0-16.5-7.402-16.5-16.5C.999 8.402 8.401 1 17.499 1m0-1C7.834 0-.001 7.835-.001 17.5c0 9.664 7.835 17.5 17.5 17.5s17.5-7.836 17.5-17.5c0-9.665-7.835-17.5-17.5-17.5z"/></svg>