<?xml version="1.0" encoding="utf-8"?>
<!-- Generator: Adobe Illustrator 22.0.1, SVG Export Plug-In . SVG Version: 6.00 Build 0)  -->
<svg version="1.0" id="Layer_1" xmlns="http://www.w3.org/2000/svg" xmlns:xlink="http://www.w3.org/1999/xlink" x="0px" y="0px"
	 width="35px" height="35px" viewBox="0 0 35 35" style="enable-background:new 0 0 35 35;" xml:space="preserve">
<style type="text/css">
	.st0{fill:#EA3648;}
	.st1{fill:#FFFFFF;}
	.st2{fill:#CCCCCC;}
</style>
<g id="Ebene_2">
</g>
<g id="Ebene_1">
	<circle class="st0" cx="17.5" cy="17.5" r="16.6"/>
	<polygon class="st1" points="28.7,10.2 24.8,10.2 24.8,6.2 23.6,6.2 23.6,10.2 19.7,10.2 19.7,11.3 23.6,11.3 23.6,15.2 24.8,15.2 
		24.8,11.3 28.7,11.3 	"/>
	<path id="border" class="st2" d="M17.5,1.2c9,0,16.3,7.3,16.3,16.3s-7.3,16.3-16.3,16.3S1.2,26.5,1.2,17.5S8.5,1.2,17.5,1.2
		 M17.5,0.2C7.9,0.2,0.2,7.9,0.2,17.5s7.7,17.3,17.3,17.3s17.3-7.7,17.3-17.3S27.1,0.2,17.5,0.2L17.5,0.2z"/>
</g>
</svg>
