<svg xmlns="http://www.w3.org/2000/svg" width="35" height="35"><path fill="#FFD730" d="M17.5 0c-.584 0-1.161.031-1.73.087a953.02 953.02 0 0 1 3.384-.003A17.376 17.376 0 0 0 17.5 0z"/><path fill="#FCDB51" d="M.078 15.968c8.47 5.69 16.899 11.418 25.371 17.109 5.164-2.642 8.854-7.759 9.462-13.795C26.354 13.555 17.848 7.78 9.296 2.045 4.194 4.76.603 9.922.078 15.968z"/><path fill="#EA3648" d="M19.154.083c-1.131-.001-2.259 0-3.384.003a17.407 17.407 0 0 0-6.474 1.959c8.552 5.735 17.058 11.51 25.614 17.237.061-.587.09-1.18.09-1.782C35 8.394 28.042.917 19.154.083zM0 17.5C0 27.165 7.834 35 17.5 35a17.41 17.41 0 0 0 7.947-1.923c-8.47-5.691-16.9-11.419-25.369-17.109A17.593 17.593 0 0 0 0 17.5z"/><path fill="#131819" d="M12.309 22.639c-.999.101-1.323-.468-1.671-1.014-.233.033-.609-.068-.753.055-.158-.338.289-.531.538-.642-.259-.131-.651-.117-.969-.056.169-.463.79-.729 1.454-.531-.019-.212-.482-.443-.916-.43.173-.603 1.202-.354 1.456 0 .037-.375-.333-.629-.324-.797.561.086.878.41 1.026.904.224-.1.217-.426.215-.747.602.357.224 1.368.431 2.136.372-.188.29-.666.378-.961.377-1.277 1.121-2.203.97-4.162-.238-3.086-2.261-5.137-5.283-5.439.103-.309.259-.562.377-.854-1.1-.278-2.426-1.235-1.726-2.612.441.719.766 1.553 1.563 1.92.124-.145.06-.473.161-.639.012-.259-.333-.169-.323-.427.134-.543.82-.54.7-1.333.489.122.52.695 1.241.586.164.089.699.089.862 0 1.052-.647 2.373.362 2.912 1.067.567-.086 1.116-.06 1.401.267.025.344-.014.625-.108.854-.228.146-.754 0-.861.266.365.839 1.375-.096 2.154.213-.127.104-.33.135-.482.213-.048-.01-.053.021-.055.054.127.123.482.02.7.054.25-.019.36.105.592.105-.22.102-.584.062-.755.214-.188.174.342.088.487.107.258.01.402.132.591.213-.166.137-.658-.048-.699.213.207.256.599.204.863.266 1.938.466 3.649 1.38 5.335 2.401 1.223.74 2.618 1.785 3.613 2.987.26.314.762 1.048.808 1.388.026.207.039.858-.433.799-.443-.055-.284-1.152-.646-1.226.049 1.216.543 2.448.594 3.841v.746c-.197 1.688-.185 3.676-.646 4.961-.082.225-1.104 1.123-1.403 1.332-.384.27-.822.392-1.453.373-.201.032-.537-.07-.648.053-.383.061-.782.082-1.077.215-.336.15-.435.502-.699.533-.071-.604.091-.977.376-1.227-.232-.172-.816-.245-1.025 0-.182-.537.345-.836.863-.854-.172-.224-.486-.301-.916-.268.098-.462.635-.627 1.188-.479.003-.271-.423-.582-.812-.645.338-.428 1.235-.253 1.562.057.037-.428-.154-.627-.217-.959.484.107.923.261.916.854.299.273.856.288 1.08.641.031.277-.096.4-.055.692.504-.104.48-.774.434-1.174-.08-.625-.465-1.392-.756-2.024-.271-.596-.752-1.18-.973-1.814-.369-1.066-.212-2.684-.377-3.896-.107-.793-.201-1.812-.916-2.131.062.558.615 1.096.592 1.919.018.212.018.239.055.479.045.65.15 1.238.217 1.867-1.271.357-1.282 2.017-1.614 3.146-.159.54-1.257 1.189-1.942 1.229-.762.039-1.371-.168-1.994-.375a1.585 1.585 0 0 0-.271-.104c-.326.021-.599-.015-.753-.161-.386.034-.675.422-.97.373-.031-.668.396-.888.808-1.119-.221-.223-.798-.057-.969.106-.051-.46.448-.837 1.077-.802.008-.203-.443-.414-.862-.373.22-.25.779-.43 1.239-.267-.109-.298-.396-.426-.701-.534.009-.062.099-.045.163-.055.16-.045.295-.036.538-.011.429-.015.504.331.81.438.184-.232-.123-.537-.055-.641.646-.104.506.449.701.904.279.66 1.216.936 1.994.804-.146-.306-.812-.086-.971-.377v-.104c-.035-.306-.08-.678-.055-.963.025-1.004-.08-1.877-.216-2.72.417-1.011 1.733-1.123 3.071-1.228-1.26-.479-2.994-.483-4.635-.585.436-.708.66-1.885-.376-2.08-.078.322.417.497.431.853.009.327-.549 1.065-.754 1.439-.762 1.381-1.639 3.054-2.158 4.429-.39.147-.823.252-1.349.267-.304.007-.609.007-.915.007zm.27-14.509c.036.393-.062.65-.107.961.483-.141.438-1.559-.163-1.334-.053.267.243.188.27.373zm-.162.746c.099-.292-.225-.167-.215-.373.008-.187.329-.065.324-.266-.689-.532-.87.927-.109.639zm-4.905-.958c-.259 2.085 2.252 1.896 3.449 2.719.157.167.186.458.485.481-.341-1.046-1.748-1.114-2.696-1.708-.64-.402-.867-1.013-1.238-1.653v.161zm2.372 1.867c.61.23 1.116.567 1.562.959-.136-.789-1.085-2.067-1.562-.959zm-.054-.694V8.93c-.296.098-.452.335-.594.587.237-.02.278.153.487.16.19.169.077-.418.107-.586zm-.432 1.066c-.022.271.109.391.215.533.228-.023.26-.242.377-.372-.188-.062-.335-.166-.592-.161zm.702.214c-.059.539.654.596.969.587-.282-.236-.527-.51-.969-.587z"/><path fill="#FEFEFE" d="M12.309 7.757c.601-.225.646 1.193.163 1.334.046-.311.144-.568.107-.961-.027-.185-.323-.106-.27-.373z"/><path fill="#FEFEFE" d="M12.526 8.237c.005.201-.316.08-.324.266-.009.206.314.082.215.373-.761.288-.58-1.171.109-.639z"/><path fill="#FFD730" d="M9.723 9.677c-.208-.007-.25-.18-.487-.16.142-.252.298-.489.594-.586v.161c-.158.073.05.51-.107.585zm.268.641c-.118.13-.15.349-.377.372-.106-.142-.238-.262-.215-.533.256-.005.403.099.592.161zm1.077.64c-.314.008-1.027-.049-.969-.587.443.077.688.351.969.587z"/><path fill="#E8423F" d="M9.021 13.517c-.069.075-.233.053-.376.054.039-.447-.119-.701-.215-1.014.361.158.521.515.591.96zm.755 0c-.017.253-.244-.032-.432.054.116-.258.329-.42.269-.854.163.127.302.555.163.8zm.485.534c-.157-.024-.247-.112-.27-.267.238.004.338-.128.431-.267.161.18-.155.342-.161.534z"/><path fill="#110C06" d="M21.689 27.648h-.377c-.012-.133.082-.166.16-.213-.251.213.096.103.217.213z"/><path fill="#131819" d="M15.382 8.397c-.729.309-.956-.224-1.347-.534.458-.507 1.333-.151 1.347.534z"/><path fill="#FFD730" d="M11.447 10.744a5.059 5.059 0 0 0-1.563-.959c.477-1.108 1.426.17 1.563.959z"/><path fill="#42380E" d="M16.731 10.477c.092.157.554-.05.645.108-.218-.034-.573.068-.7-.054.003-.033.008-.064.055-.054z"/><path fill="#AF9422" d="M17.214 10.904c.041.155.444-.048.487.107-.145-.019-.676.067-.487-.107z"/><path fill="#131819" d="M7.136 14.583c.018-.463-.496-.399-.863-.479.191-.447 1.014-.44 1.456-.213-.052-.5-.633-.477-.863-.8.623-.302 1.241.101 1.617.373.06-.557-.218-.78-.378-1.12.689.03.933.499 1.079 1.068.329-.103.274-.583.27-1.014.411.182.617.72.485 1.28a.845.845 0 0 0 .592-.587c.44 1.209-1.16 1.299-1.025 2.561.024.14 0 .601 0 .746.016.27.029.542.271.588.207-.168.005-.621-.109-.801 1.407-.512 2.17-1.658 3.343-2.4.384.635.729 1.306.809 2.241v.745c-.086.663-.736.69-1.562.908-.864.228-1.783.271-2.75.426h-.592c-.942-.116-1.323-.791-1.564-1.602.255-.002.33.172.594.161-.233-.375-.789-.429-.808-1.013v-.534c-.002-.178-.002-.355-.002-.534z"/><path fill="#544711" d="M13.819 16.77v-.745"/><path fill="#42380E" d="M12.309 22.639h.917"/><path fill="#EA3648" d="M7.512 7.864v-.106c.371.64.598 1.25 1.239 1.653.948.593 2.354.662 2.696 1.708-.3-.024-.329-.314-.485-.481-1.197-.823-3.708-.634-3.449-2.719l-.001-.055z"/><path fill="#CCC" d="M17.5 1C26.6 1 34 8.402 34 17.5 34 26.598 26.6 34 17.5 34 8.402 34 1 26.598 1 17.5 1 8.402 8.402 1 17.5 1m0-1C7.835 0 0 7.835 0 17.5 0 27.164 7.835 35 17.5 35S35 27.164 35 17.5C35 7.835 27.165 0 17.5 0z"/></svg>