<svg xmlns="http://www.w3.org/2000/svg" width="35" height="35"><path fill="#2D6DBA" d="M24.044 2.009A16.76 16.76 0 0 0 17.501.688v33.625c2.322 0 4.531-.472 6.544-1.321 5.529-2.341 9.549-7.558 10.182-13.773.059-.565.086-1.139.086-1.719s-.027-1.153-.086-1.718c-.631-6.218-4.654-11.43-10.183-13.773z"/><path fill="#EF3F58" d="M17.499.688a16.754 16.754 0 0 0-10.692 3.84 16.803 16.803 0 0 0-5.777 9.584 16.974 16.974 0 0 0-.001 6.779 16.808 16.808 0 0 0 7.072 10.553 16.74 16.74 0 0 0 9.398 2.871V.688z"/><path fill="#CCC" d="M17.5 1C26.6 1 34 8.402 34 17.5 34 26.6 26.6 34 17.5 34 8.402 34 1 26.6 1 17.5 1 8.402 8.402 1 17.5 1m0-1C7.835 0 0 7.835 0 17.5S7.835 35 17.5 35 35 27.165 35 17.5 27.165 0 17.5 0z"/></svg>