<svg xmlns="http://www.w3.org/2000/svg" width="35" height="35"><path fill="#FFF" d="M17.5 35c8.289 0 15.221-5.771 17.025-13.512H.474C2.281 29.229 9.209 35 17.5 35zm0-35C9.208 0 2.28 5.774.474 13.515h34.055C32.721 5.774 25.792 0 17.5 0z"/><path fill="#5A98E2" d="M.474 13.515A17.449 17.449 0 0 0 0 17.5c0 1.374.174 2.704.474 3.988h34.051c.301-1.284.475-2.614.475-3.988 0-1.373-.174-2.703-.473-3.985H.474z"/><path fill="#CCC" d="M17.502 1.002c9.098 0 16.499 7.401 16.499 16.499 0 9.097-7.401 16.5-16.499 16.5-9.098 0-16.499-7.401-16.499-16.5 0-9.097 7.401-16.499 16.499-16.499m0-1C7.837.002.003 7.836.003 17.501c0 9.664 7.834 17.5 17.499 17.5 9.664 0 17.499-7.836 17.499-17.5S27.166.002 17.502.002z"/></svg>