<svg xmlns="http://www.w3.org/2000/svg" width="35" height="35"><path fill="#FCDB51" d="M17.654 32.363V.534h.495c-.215-.009-.429-.033-.646-.033C8.111.501.5 8.13.5 17.541s7.611 17.041 17.001 17.041c.133 0 .263-.018.399-.021-.125-.016-.215-.039-.247-.072-.096-.125.001-1.5.001-2.126z"/><path fill="#E8423F" d="M34.432 18.947c.094-.939.071-1.851 0-2.812C33.735 7.599 26.766.861 18.147.535h-.494v31.829c0 .628-.098 2.003 0 2.125.032.034.122.06.247.073 8.73-.205 15.829-6.996 16.532-15.615z"/><path fill="#80561D" d="M13.825 7.059c-.036-.083.238-.083.202 0h-.202z"/><path fill="#4A2A19" d="M21.76 7.558v12.331a309.083 309.083 0 0 1 0-12.331zm5.073.052v.951a16.868 16.868 0 0 0-1.206-.049h1.105c.147-.185-.05-.718.101-.902zm1.806 0c.086.383.086 1.118 0 1.503V7.61z"/><path fill="#80561D" d="M26.982 7.81c.385-.083 1.117-.083 1.504 0h-1.504zm-11.799.5c.073.01.044.122.05.201h-.05V8.31z"/><path fill="#BA9D25" d="M27.436 8.963c.252-.117.719-.017 1.051-.053-.251.119-.716.019-1.051.053zm-15.519.702c-.023-.082.274-.082.251 0h-.251z"/><path fill="#4A2A19" d="M12.37 9.865h.302c.007.083-.31.083-.302 0zm10.997.051h.351c-.007.081-.344.081-.351 0z"/><path fill="#010202" d="M25.173 11.484c0-.451.005-.967.005-1.419l1.098.002v1.444c.267-.006.648-.009 1.008-.006 0 .317.004.601.004.917H26.28v.05c0 .384-.014.912-.014 1.353h-1.088c0-.466-.031-.912-.031-1.392-.352 0-.674-.011-1.024-.011v-.952c.326-.01.787.011 1.05.014zm.151.787v1.354m0-3.409c0 .451.003.994-.004 1.404m.809.651h1.001v-.65h-1.001"/><path fill="#4A2A19" d="M27.436 10.064c.336.034.803-.066 1.051.051-.333-.032-.799.067-1.051-.051zM12.32 11.669c-.011-.042.019-.046.049-.049h.152v.049h-.201z"/><path fill="#80561D" d="M12.521 11.669v-.049h.401v.049h-.401z"/><path fill="#4A2A19" d="M12.922 11.669v-.049c.087.028.295-.061.3.049h-.3z"/><path fill="#BA9D25" d="M15.482 13.022c-.009-.082.311-.082.301 0h-.301zm-1.657.3c-.036-.08.238-.08.202 0h-.202z"/><path fill="#4A2A19" d="M7.7 13.473h.352v.051c-.105-.029-.331.061-.352-.051z"/><path fill="#80561D" d="M8.052 13.524v-.051h1.203v.051H8.052z"/><path fill="#4A2A19" d="M9.255 13.524v-.051h.201c-.015.069-.124.042-.201.051z"/><path fill="#80561D" d="M23.316 13.724h.603v.051c-.185-.032-.499.066-.603-.051zm4.12.05c.252-.116.719-.018 1.051-.051-.251.118-.716.017-1.051.051z"/><path fill="#4A2A19" d="M8.303 14.527c.015-.066.125-.041.2-.053v.053h-.2z"/><path fill="#80561D" d="M8.503 14.527v-.053h.2c-.008.077-.122.048-.2.053z"/><path fill="#4A2A19" d="M26.781 15.328c.119.202.019.619.052.902-.114-.2-.021-.617-.052-.902z"/><path fill="#BA9D25" d="M26.982 16.032h1.504c-.384.081-1.118.081-1.504 0z"/><path fill="#80561D" d="M23.77 16.23h1.857a6.956 6.956 0 0 1-1.857 0zm3.063 0h1.806a6.58 6.58 0 0 1-1.806 0z"/><path fill="#BA9D25" d="M13.324 16.331v.352h-.052c.031-.105-.061-.33.052-.352z"/><path fill="#80561D" d="M13.273 16.682h.052v.251h-.052v-.251z"/><path fill="#4A2A19" d="M13.273 16.932h.052c-.005.079.024.191-.052.2v-.2z"/><path fill="#80561D" d="M7.65 17.033c.022.081-.274.081-.251 0h.251z"/><path fill="#BA9D25" d="M13.273 17.333v.2h-.049c.008-.075-.018-.183.049-.2z"/><path fill="#80561D" d="M8.303 19.939c.021.082-.274.082-.251 0h.251z"/><path fill="#FFD730" d="M21.76 20.791c.221.007.496-.006.752 0 .221.007.549-.081.605.1-.071.189-.389.098-.605.102-.252.005-.535-.004-.752 0v-.202z"/><path fill="#BA9D25" d="M9.91 22.195c.034.08-.238.08-.202 0h.202zm6.729.903h.049v.252c-.109.004-.022-.178-.049-.252zm-5.023.252c.009.058.093.043.152.051.009.138-.358.001-.152-.051zm-3.715 2.754c-.038-.082.235-.082.2 0h-.2z"/><path fill="#4A2A19" d="M11.416 26.104c.039-.082.413-.082.453 0h-.453z"/><path fill="#80561D" d="M8.804 26.406h.251c.023.084-.273.084-.251 0zm-.451.502c.037.078-.237.078-.2 0h.2z"/><path fill="#BA9D25" d="M11.565 27.458c.04-.083.416-.083.453 0h-.453z"/><path fill="#80561D" d="M9.206 28.812c.037.082-.237.082-.201 0h.201zm7.834.1a.452.452 0 0 1 .201.202.437.437 0 0 1-.201-.202z"/><path fill="#BA9D25" d="M15.985 27.307c.091-.093.136-.23.25-.299-.053.129-.125.241-.25.299z"/><path fill="#80561D" d="M15.583 27.709a1.94 1.94 0 0 1 .402-.402 1.705 1.705 0 0 1-.402.402z"/><path fill="#BA9D25" d="M12.571 27.759c.138.099.253.216.352.353a1.358 1.358 0 0 1-.352-.353z"/><path fill="#4A2A19" d="M15.383 27.057c.114-.152.246-.287.401-.398a1.892 1.892 0 0 1-.401.398z"/><path fill="#BA9D25" d="M12.418 24.503a.422.422 0 0 1 .202-.198.466.466 0 0 1-.202.198z"/><path fill="#80561D" d="M12.22 24.701a.462.462 0 0 1 .198-.198.456.456 0 0 1-.198.198z"/><path fill="#4A2A19" d="M12.018 24.9a.479.479 0 0 1 .202-.199c-.016.104-.138.098-.151.199h-.051z"/><path fill="#BA9D25" d="M11.768 25.202c.051-.132.198-.168.25-.302h.051a1.02 1.02 0 0 1-.301.302z"/><path fill="#4A2A19" d="M8.804 27.355a1.41 1.41 0 0 1 .353-.349c-.097.14-.214.258-.353.349z"/><path fill="#BA9D25" d="M9.255 26.908c.017-.104.138-.1.151-.201.109.035-.094.167-.151.201zm-1.957-.351a.455.455 0 0 1 .201-.199.482.482 0 0 1-.201.199zm.754-1.102c.12.094.198.232.301.35a.709.709 0 0 1-.301-.35z"/><path fill="#80561D" d="M7.298 25.503a.718.718 0 0 1 .251-.251.718.718 0 0 1-.251.251z"/><path fill="#010202" d="M17.651 10.507a.548.548 0 0 1-.223-.645c-.007-.046-.027-.087-.03-.137-.025-.68.106-1.346.066-2.035-.036-.611-.183-1.204-.248-1.812v-.003l-11.03.161c0 7.903.018 15.159.018 23.065 3.89 0 7.671.002 11.448.008l-.001-18.602zM7.807 26.609l-.302.146c.074-.238.408-.445.653-.352-.003.183-.265.104-.351.206zm.1-1.607h-.15c.023-.096.333-.162.402-.05a.564.564 0 0 1 .352.198c-.18.276-.421-.109-.604-.148zm1.054 3.16c.22.014.078.388.251.449-.244.226-.408-.27-.251-.449zm4.569-19c-.007-.057.012-.087.05-.101h2.863c.058.008.042.091.051.152-.971-.033-2.077.067-2.964-.051z"/><path fill="#010202" d="M14.729 7.107c-.045.213.121.215.301.203v-.203c-.092-.097-.184-.014-.301 0zm-.501.052c.009.14.087.214.251.199.073-.118.106-.093.05-.251-.124-.006-.242-.006-.301.052zm1.907.25v.15c.101.094.37.076.304-.15-.149-.047-.157-.047-.304 0zm-1.406.1v.15c.099.092.37.074.301-.15-.145-.046-.153-.046-.301 0zm2.059.251c-.403-.403-.254.505 0 0zm-2.059.149c-.046.214.121.215.301.203.076-.245-.125-.212-.301-.203zm-1.907.302c.071.123.173.088.301.049v-.201c-.154 0-.331-.028-.301.152zm3.817 0c.073.151.304.088.352-.051-.026-.129-.395-.171-.352.051zm-1.91.099c-.048.259.151.271.301.201.048-.259-.15-.271-.301-.201zm-7.28 18.598c.039-.014.058-.043.05-.102"/><path fill="#4A2A19" d="M9.156 25.455a.443.443 0 0 1 .2.197.439.439 0 0 1-.2-.197z"/><path fill="#BA9D25" d="M11.114 21.693c.106-.078.188-.182.301-.252-.083.104-.136.239-.301.252z"/><path fill="#4A2A19" d="M6.244 11.72a.44.44 0 0 1 .2.2.45.45 0 0 1-.2-.2z"/><path fill="#FCDB51" d="M9.139 25.436c-.107-.16-.222-.312-.302-.502-.327.09-.67-.222-1.004-.199-.396.029-.562.291-.652.755.021.071.043-.007.101 0a.727.727 0 0 0 .251-.251c.143-.187.496-.049.501.197a.711.711 0 0 0 .302.354c.179.104.321.249.501.35-.016.069-.126.043-.201.053-.141.039-.129-.071-.251-.053-.014-.068-.696-.035-.904.2a.48.48 0 0 0-.199.2c-.233.307.039.643.15.9.073-.291.166-.565.352-.748.127.058.126.24.353.199a.73.73 0 0 0 .2 0c.39-.029.68-.16 1.054-.199-.013.101-.134.098-.149.199-.022.047-.044.09-.101.101a1.414 1.414 0 0 0-.351.352c-.205.16-.451.656-.202.952.004.082-.024.189.049.201.023.191.132.303.353.301-.036.082.236.082.2 0h.2c.122-.17-.259-.184-.25-.402.545-.594.727-1.547 1.557-1.856.556-.052.895.112 1.254.252.007.085.345.085.353 0 .237-.216.462.082.4.452.546-.191.497-.571.15-.903-.011-.013-.16-.054-.2-.098-.025-.032-.021-.183-.05-.202-.205-.105-1.296-.175-1.305-.1h-.152c.154-.299.39-.515.604-.756.123-.076 1.208-1.314 1.355-1.552.139.479.188 1.052.303 1.552.945-1.707 1.82-3.494 2.81-5.158.167.017.076.643.151.649.035.435.147.792.15 1.255.005.077.051.334.051.399.004.081.081 2.069.05 2.207-.011.974-.427 1.546-.854 2.104a1.807 1.807 0 0 0-.4.4c-.678.459-1.353 1.191-2.46 1.053a1.37 1.37 0 0 0-.353-.351c-.184-.102-.314-.259-.554-.304-.038-.084-.413-.084-.451 0-.562.068-.862.879-.403 1.258.082-.871 1.09-.403 1.155.146 1.417.307 2.427-.555 3.264-1.154.155-.106.289-.242.402-.398.124-.059.196-.173.25-.3.357-.347.477-.929.854-1.253-.052.547-.131 1.215-.402 1.753-.141.282-.459.463-.4.753.065.33.576.33.751.65.046.09.192.192.281.24.042-.009.237.555.239.582-3.716.083-6.374 4.327-11.769-.57C.5 24.355 2.787 7.617 5.32 7.714c.416.015.308-1.664.504-1.826.102-.084 1.226-.59 1.679-.676 5.138-.987 8.893-1.925 10.041.326 0 1.554-.009 3.562-.009 4.971-.317.033-.641-.099-.813-.21.06-.191.301-.204.353-.401-.437.05-.653-.118-.754-.402.101-.301.535-.632.251-1.002.039-.174.458.027.503-.25a.742.742 0 0 0 0-.201c-.027-.152-.113-.292-.202-.45-.148-.103-.185-.202-.4-.352-.389-.098-.715-.255-1.155-.301.604-.715-.768-1.271-1.054-.55-.036.253.068.365.1.55-.201-.051-.585.1-.603.1-.103.016-.637.197-.905.553-.041.057-.185.348-.2.45-.087.438.331.344.503.401.02.106-.036.134-.051.201-.017.221.192.603.252.752.015.205-.089.03-.185.054a1.155 1.155 0 0 0-.267-.004c-.334.311-1.027.119-1.005.201-.438.021-.639.619-.402 1.001-.147-.002-.29-.195-.25-.5v-.2c-.792.091-.699 1.472.301 1.253.073-.027.151-.038.251-.05h.3c.228-.017.602-.064.752.05-.401.157-.627.404-.55.451h.902c1.083.072 1.845.464 2.662.802.073.21.23.336.251.602-.133 0-.288.02-.353-.049h-.299c-.358.094-.642.263-.907.451-.188-.047-.353-.115-.551-.15-.083-.025-.083-.017-.202 0-.538.113-.944.361-1.505.45h-.402c-.31-.006-.511-.124-.603-.351v-.352c.066-.167.261-.208.351-.35-.022-.262-3.115-3.642-3.264-3.709-.61-.647-1.144-1.365-1.706-2.057-.219.135-.395.829-.403.904.017 1.135 1.216 2.509 1.305 2.554.767.823 1.935 1.243 2.763 2.007-.015.067-.127.041-.201.049-1.413-.612-2.762-1.286-3.967-2.105-.199.361-.207 1.057.05 1.352a.438.438 0 0 0 .2.201c.951.546 2.089.962 3.265 1.305.137.04.381.02.452.2-.052 0-.586.051-.704.051H7.682a7.82 7.82 0 0 1-.753-.051c-.265.03-.434-.037-.653-.05-.04.045.623 1.034 1.204 1.104.168.05.878.015 1.207 0 .63-.021 1.115-.191 1.657-.302-.456.531-1.134.817-1.758 1.153-.621.333-1.249.744-1.958.953-.031.179.058.242.1.352.071.128.752.468.903.401 1.192-.249 1.861-1.016 2.662-1.654.108-.11.222-.18.301-.302.083-.1.134-.234.301-.25-.35.963-1.021 1.716-1.607 2.457a157.87 157.87 0 0 1-1.808 2.256c-.092.084-.235.154-.1.201.217.066.519.224.904.198.414-.055 1.223-.614 1.307-.753.976-1.111 1.573-2.606 2.31-3.959h.1v.252c-.67 2.389-1.551 4.566-2.46 6.719h.151c-.036.077.236.077.201 0 .49-.08.895-.246 1.206-.502.165-.021.216-.152.3-.256.824-1.014 1.499-4.986 1.508-5.059.046-.421.057-.878.251-1.154.314.103.058 2.23.05 2.307 0 .116-.111 2.396-.1 2.355.934-.252 1.394-.979 1.506-2.056 0-.177.009-2.313-.1-2.306-.016-.232.088-.346.303-.351.219.1.188.41.25.603.153.473.623 1.427.552 1.955-.042.32-.733 1.15-.954 1.452-.988 1.36-2.18 2.941-3.063 4.16-.205.059 1.011-.055.854.104-.155.11-2.079 2.082-2.21 2.252-.188.188-.76.119-.903-.052"/><path fill="#E8423F" d="M14.981 6.255c.706.129.126.914-.403.651-.213-.154-.207-.661.151-.651h.252zm-.453.852c.056.157.022.134-.051.251-.164.014-.241-.06-.25-.199.06-.058.178-.058.301-.052zm.754.203c-.06-.011-.041-.093-.051-.151.065-.07.237-.07.301 0v.1a.342.342 0 0 1-.25.051zm-1.908.099c.115-.109.312-.018.3.15-.057.044-.133.066-.251.052-.038-.046-.052-.116-.049-.202zm.1.651c-.083.162-.024.271 0 .451-.233.032-.127-.274-.15-.451.231-.27.501-.503 1.004-.502.321.006.219.1 0 .1-.277.008-.809.314-.854.402zm3.314-.3c-.254.505-.403-.403 0 0z"/><path fill="#80561D" d="M23.919 7.81c.065.051 1.388-.221 1.558-.049.209.206-.146.619 0 .951-.236-.237.15-.701-.052-.901-.151-.151-1.196.117-1.456 0l-.05-.001z"/><path fill="#E8423F" d="M16.99 8.161c-.047.138-.278.201-.352.051-.042-.223.327-.181.352-.051zm-2.058 3.156c.172.246.421.414.551.702-.001.048-.061.039-.1.052-.535-.186-1.061-.379-1.657-.502-.015-.068-.802-.101-.904-.101.076-.141.26-.176.451-.2h.202c.385.035.583.255 1.004.251-.119-.258-.449-.581-.703-.753-.305-.205-.674-.278-1.104-.351-.098-.071-.757-.083-1.056.1-.164-.298.053-.602.253-.703h.2c.121.035.127.042.2.052.034 0 .423.058.415-.025.49-.375.752.03.84.076.39.346 1.285 1.324 1.408 1.402z"/><path fill="#FFD730" d="M14.428 9.665h.151c.059-.008.09.01.101.049-.079.088-.45.134-.653.051.022-.146.105-.229.25-.252-.026.041-.052.082-.049.151v.049c.08-.004.191.027.2-.048zm2.714 1.303h-.051c.022-.146.105-.228.25-.253v.403c-.102-.014-.098-.136-.199-.15z"/><path fill="#4A2A19" d="M20.907 23.498a1.03 1.03 0 0 1 .299-.3 1.068 1.068 0 0 1-.299.3z"/><path fill="#80561D" d="M19.954 24.604c-.146.188-.166-.527 0-.502-.061.074-.1.43 0 .502z"/><path fill="#4A2A19" d="M23.718 23.247a.456.456 0 0 1 .201.202.472.472 0 0 1-.201-.202z"/><path fill="#E8423F" d="M8.201 26.355c-.09-.219.804.051.853.051.119-.02.218-.053.251-.148-.384-.238-.753-.486-1.055-.803a.465.465 0 0 0 .352-.403c.408.244.478.827 1.055.904a.87.87 0 0 1 .352 0c.222-.063.455-.115.553-.304.188-.146 1.443-1.447 1.605-1.652.238-.273.389-.714.954-.703-.137.416-.465.641-.704.954-.113.103-.792.796-.854.899-.174.312-.521.449-.552.906.094.164.203.029.402.047h.805c-.057.17.127.443.101.554-.396.104-.709-.244-1.156-.251-.17.023-.294.021-.402 0-.271.064-.447.222-.654.351a.7.7 0 0 0-.25.251c-.267.338-.409.795-.652 1.155-.152.021-.086-.183-.201-.202-.146-.009-.296.23-.351.15-.004-.557.809-1.116.854-1.202.233-.083.219-.313-.052-.353-.03.043-.959.193-1.054.2-.144-.005-.328.028-.401-.049.049-.064.134-.098.201-.15m14.765-2.203c.646-.144.774.971.099.899-.028.006-.018.063-.053.093-.012.067-.064.266-.146.311-.238.221-.885.213-.902-.2.016-.132-.021-.216-.15-.202-.666.057-.551-1.038.098-.9.068-.016.045-.125.054-.201v-.101c.216-.3.849-.325.952.101.002.076-.025.187.048.2z"/><path fill="#BA9D25" d="M23.52 26.609c.121-.164.252-.318.449-.404a8.266 8.266 0 0 1-.449.404z"/><path fill="#4A2A19" d="M21.509 25.956a.424.424 0 0 1 .201.198.453.453 0 0 1-.201-.198z"/><path fill="#BA9D25" d="M22.561 27.458c.188-.015.448.044.557-.052.007.183-.489.115-.557.052z"/><path fill="#E8423F" d="M12.521 26.355c.25.064.561.291.401.602-.11-.241-.338-.363-.504-.551.012-.039.044-.06.103-.051zm-5.123.402c.074-.237.408-.446.653-.351-.003.18-.266.101-.352.203a.414.414 0 0 0-.201.197c.007.059-.012.09-.05.102-.058-.01-.042-.092-.05-.151z"/><path fill="#FFD730" d="M21.561 28.26c-.23-.001-.272-.193-.252-.449.062-.019.08-.088.149-.101.503-.083 1.302-.161 1.908 0 .305.021.243.571-.052.552-.608.081-1.035.081-1.753-.002z"/><path fill="#E8423F" d="M8.854 28.162c.22.014.078.388.251.449-.244.226-.408-.27-.251-.449z"/><path fill="#FFD730" d="M22.865 28.512c-.014.174-.146.217-.305.254-.033.116-.305.06-.25 0-.146-.021-.246-.09-.299-.201v-.103c.32-.159.887-.069.854.05z"/><path fill="#010202" d="M21.561 19.891c0-2.556.008-11.43.008-12.481 0-.345.511-.812.896-.802.232.006.428.106.594.325.09.12.258.429.258.577 0 .761.009 1.744.009 2.407.159 0 .37-.018.437-.018 0-.701-.023-1.536.008-2.289h1.859v.901c.318 0 .812.009 1.205.009v-.91h1.807v1.503l-1.031-.003c0 .183.008.638.008.836.271 0 .727-.004 1.002-.004 0 .238.013.772.013 1.026 0 .886.011 2.264.011 2.958h-1.056v.852h1.056v1.453h-1.808c-.032-.284.067-.701-.052-.902h-1.154v.902h-1.857v-2.306c-.137 0-.299-.004-.432-.004-.033 1.845.016 3.932-.021 5.87-.016.259.002.79 0 1.101.035.271.453.15.453.453v.252c-.068.162-.16.305-.402.299h-.15c-.01.059.42 1.102.805 1.402.045.089.11.155.199.201.202.184.485.287.701.45.196-.058.174-.332.402-.351h.304c.153.062.281.149.302.351.026.104-.063.327.049.354.248.052.42.181.502.397.131.123.06.314 0 .353v.052c-.121.162-.258.309-.502.351h-.049v.351c-.011.191-.183.217-.252.35h-.302c-.224-.024-.272-.229-.399-.35-.369.172-.713.36-1.008.603a1.069 1.069 0 0 0-.303.3 2.065 2.065 0 0 0-.398.701c.111.189.414.188.451.453v.25a.46.46 0 0 1-.302.302c-.089.028-.294-.062-.3.049-.146.358-.613.634-1.057.402-.139-.034-.176-.13-.201-.2.043-.323-.312-.223-.4-.251a.451.451 0 0 1-.301-.302v-.354c.074-.111.123-.138.201-.201.088-.023.209-.021.25-.099-.043-.306-.203-.497-.35-.701a1.82 1.82 0 0 0-.402-.401c-.262-.226-.614-.358-.902-.551-.195.059-.173.331-.402.35h-.304c-.159-.055-.256-.172-.3-.35-.029-.103.061-.33-.051-.351-.692-.044-.68-1.106 0-1.151h.051v-.354a.457.457 0 0 1 .354-.352h.201c.247 0 .26.24.4.352.811-.411 1.518-.922 1.705-1.956.141-.021.002-.158-.1-.099-.24.006-.332-.138-.4-.299v-.252c.016-.269.348-.222.451-.402.02-.345-.047-.502-.004-1.052zm1.438.894c-.502-.012-.785.041-1.239.008m.002.202c.004-.011.473-.031.693-.002m1.012.7c.77-.783-1.648-.463-2.158-.45-.068.151-.09.423.1.45a8.64 8.64 0 0 0 2.058 0zm-.249 2.057c-.338-.4-.573-.896-.804-1.404a3.263 3.263 0 0 1-.703 1.305 1.092 1.092 0 0 1-.352.352c-.42.346-.896.643-1.506.803.033.271.34.185.502.25.467.19.879.492 1.252.752.086.059.143.084.203.2.297.321.728.802.924 1.224.348-1.252.82-1.996 2.108-2.318-.214-.227-.401-.307-.674-.457a5.804 5.804 0 0 1-.754-.501c-.052-.029-.093-.041-.119-.07-.033-.046-.047-.075-.077-.136zm-3.717 2.254c.492-.148.046-1.457.2-2.104-.114-.194-.489-.194-.604 0 .098.621-.292 2.318.404 2.104zm5.677-1.104c0 .49-.103 1.053.248 1.104.439.065.348-.341.354-.901.004-.651.172-1.498-.453-1.354-.227.17-.149.668-.149 1.151zm-6.282-.449h-.051c-.435.127-.422.775.051.85.086-.165.086-.679 0-.85zm7.182.802c.338-.022.338-.726 0-.75m-4.569 1.453a4.387 4.387 0 0 0-1.606-.853c-.08.084-.105.539.053.551.406.178.777.391 1.104.65m.249.253c.191.246.375.496.45.851.007.213.349.06.515.108-.006-.078-.014-.166-.012-.209-.061-.509-.318-.816-.553-1.152m-.251 1.554c-.069.014-.087.083-.149.102-.021.256.021.448.252.449a6.375 6.375 0 0 0 1.756 0c.293.02.355-.531.052-.552a7.409 7.409 0 0 0-1.911.001zm1.407.803c.023-.154-.897-.222-.854.053.055.111.151.18.299.201-.021.077.275.077.25 0 .157-.037.294-.08.305-.254z"/><path fill="#E8423F" d="M15.783 7.209h.201c.065.219-.126.317-.251.2-.003-.087.012-.156.05-.2zm-1.907.2h-.1c-.069-.225.202-.244.301-.15v.1c-.045.038-.114.054-.201.05zm1.558.149c.491.01.793.226 1.005.518 0 .033.021.172.034.285.017.1-.045.156-.134.15.108-.508-.35-.8-.854-.852-.235 0-.272.04-.251-.101h.2zm-2.261.351c-.081.015-.084-.046-.151-.048-.004-.088.012-.157.05-.202h.151c.099.092.036.204-.05.25zm-.051.151v.201c-.128.039-.23.074-.301-.049-.029-.181.148-.153.301-.152zm3.215 1.002c.058.008.042.091.051.152-.971-.034-2.077.065-2.964-.051-.007-.057.012-.087.05-.101h2.863z"/><path fill="#FFD730" d="M12.47 10.566c.213-.03.333.037.502.05-.006.111-.213.022-.301.05-.219-.047-.855.106-.754-.1h.553z"/><path fill="#E8423F" d="M10.913 10.818c-.128-.179-.004-.451.1-.552.185.668.579.595.652.602h1.606c.159-.024.196.071.302.101.009.043-.02.047-.05.05-.237.02-1.107.004-1.655 0h-.755a.463.463 0 0 1-.2-.201zm15.202.802h1.015v.65h-1c0 .37 0 .909.007 1.36-.25 0-.56-.006-.812-.006V12.27l-1.019.003v-.665l.983-.003c.005-.392 0-.94 0-1.4.25 0 .581.008.833.008-.006.465-.007 1.03-.007 1.407z"/><path fill="#FFD730" d="M25.492 15.166c0 .251-.018.544-.018.899-.289 0-1.445.035-1.576.012 0-.154.01-.925.01-1.209 0-.456-.018-.777-.018-1.069-.197 0-.379-.007-.58-.007v-3.703c.201 0 .447-.006.648-.006 0-.311.003-1.161.003-2.299.358 0 1.278-.023 1.504-.008 0 .35.005.61.005.91h1.506v-.902h1.508V8.94l-1.053-.002c0 .368.004.765.004 1.133.285 0 .701.005 1.049.005l.002 3.649c-.357 0-.803.026-1.055.026v1.145c.289 0 .719-.023 1.053.007v1.104h-1.508v-.853m-.749-5.112l-1.058-.003c0 .352-.003.943-.003 1.419-.324 0-.82-.015-1.049-.015v.953l1.049.001.003 1.401 1.093-.003c0-.754.006-1.314.014-1.404.391 0 .838.003 1.004.003 0-.187-.004-.616-.004-.921-.332 0-.719.002-1.053.009 0-.45.004-.99.004-1.44zm-3.543 11.912c-.067.687-.438 1.248-.771 1.667-.156.109-.451.294-.566.445-.355.295-.921.651-1.438.789-.097-.068-.015-.681.048-.754a3.92 3.92 0 0 0 .953-.604c.119-.078.221-.181.299-.3.294-.329.482-.758.605-1.256.165.002.704.013.87.013z"/><path fill="#FFD730" d="M23.062 21.943c.133.524.338.968.654 1.304.047.09.113.155.201.202.303.283.686.488 1.059.701-.047.142.067 1.053-.134 1.033-1.165-.459-2.171-1.562-2.435-2.918 0-.033.15-.285.15-.322h.505zm2.262 1.807c.625-.145.457.701.453 1.354-.004.562.086.967-.354.9-.352-.051-.248-.613-.248-1.104.003-.483-.075-.981.149-1.15z"/><path fill="#010202" d="M22.611 23.699c.436.033.351.587.805.604.132.069.238.107.286.174-.005.09.067.148.058.244v.192c0 .05-.094.089-.094.14-.143.141-.213.354-.501.352-.151.229-.257.51-.604.552-.08 0-.16.026-.248.026-.26-.076-.487-.209-.502-.527-.763.02-.777-1.219-.052-1.254.093-.246.218-.452.503-.502l.349-.001zm.302.451c-.103-.426-.735-.4-.952-.101v.101c0 .021.005.084.002.119-.007.037-.02.071-.055.082-.646-.138-.766.957-.098.9.064-.003.11.004.137.05.035.07.021.119.016.152.02.412.664.421.902.2.135-.104.117-.371.197-.402.679.07.549-1.043-.098-.9-.083-.01-.048-.158-.051-.201z"/><path fill="#FFD730" d="M26.078 24.503c.338.022.338.726 0 .75-.161-.036-.161-.718 0-.75z"/><path fill="#E8423F" d="M8.095 24.915c.164.019.257.149.346.242-.177.274-.614-.116-.799-.155-.008-.106.327-.141.453-.087z"/><path fill="#FFD730" d="M23.116 21.011H21.76c-.117-4.118-.05-9.542-.05-13.635.21-.368.403-.584.703-.619.426-.046.604.427.703.751m-1.708 14.185c-.188-.027-.17-.299-.1-.45.508-.013 2.926-.333 2.158.45-.685.104-1.379.155-2.058 0zm1.153 5.765l-.75.062s-.174-.584-.465-.91a4.933 4.933 0 0 0-.462-.447c-.383-.252-.524-.325-.991-.516-.166-.066-.004-.576-.041-.847.609-.159 1.088-.454 1.508-.801.138-.099.254-.213.352-.351.312-.354.559-.782.703-1.307.23.508.466 1.004.803 1.404.045.09.1.148.2.199.239.185.478.349.754.502.272.15.591.224.806.449m-2.714-1.196c-.287.05-.412.256-.504.502-.728.035-.712 1.271.053 1.254.015.318.24.424.5.501.065.004.17.002.248 0 .349-.042.453-.322.605-.552.289 0 .359-.211.501-.354 0-.051.177-.535-.249-.749-.455-.018-.371-.569-.807-.604m-3.511.201c.113-.193.488-.193.603 0-.154.647.293 1.957-.198 2.104-.7.216-.31-1.481-.405-2.104zm-.204 1.403c-.473-.074-.484-.724-.051-.85h.051c.049.134.063.285.063.434.002.136-.014.278-.063.416z"/><path fill="#FFD730" d="M24.872 25.104c.194 0 .099.471.05.551-.334.166-.676.328-.953.552-.199.086-.33.239-.449.403-.133.268-.35.453-.402.8-.107.095-.368.034-.557.051.112-.589.359-1.046.707-1.401.315-.414 1.002-.843 1.604-.956z"/><path fill="#BA9D25" d="M23.367 27.709h-1.909"/><path fill="#E8423F" d="M15.03 7.107v.203c-.18.012-.347.01-.301-.203.117-.014.209-.097.301 0zm1.408.302c.066.226-.203.243-.304.15v-.15c.148-.047.156-.047.304 0zm-1.408.1c.069.224-.202.242-.301.15v-.15c.148-.046.156-.046.301 0zm0 .603c-.18.013-.347.012-.301-.203.176-.009.377-.042.301.203zm0 .399c-.15.07-.349.058-.301-.201.151-.07.349-.058.301.201zm1.257.2c.072.028.258-.058.251.05-.167.188-.504.1-.754.1-.764.003-1.774.037-2.511-.051-.051-.167.157-.077.252-.099h2.762z"/><path fill="#CCC" d="M17.5 1C26.6 1 34 8.402 34 17.5 34 26.598 26.6 34 17.5 34 8.402 34 1 26.598 1 17.5 1 8.402 8.402 1 17.5 1m0-1C7.835 0 0 7.835 0 17.5 0 27.164 7.835 35 17.5 35S35 27.164 35 17.5C35 7.835 27.165 0 17.5 0z"/></svg>