<svg xmlns="http://www.w3.org/2000/svg" width="35" height="35"><path fill="#2CB75E" d="M5.17 5.17A17.382 17.382 0 0 0 .062 17.5c0 9.63 7.808 17.438 17.438 17.438 4.814 0 9.175-1.951 12.331-5.104L5.17 5.17z"/><path fill="#FFF" d="M17.5.062A17.386 17.386 0 0 0 5.17 5.169L29.831 29.83a17.387 17.387 0 0 0 5.106-12.331C34.938 7.87 27.13.062 17.5.062z"/><path fill="#63531A" d="M6.956 20.396H8.06c-.027.084-.894.096-1.104 0z"/><path fill="#107C3A" d="M6.846 20.616c.221.034.586-.072.718.056-.223-.035-.587.07-.718-.056z"/><path fill="#777" d="M13.083 11.216c.207.16.392.344.553.55a3.096 3.096 0 0 1-.553-.55z"/><path fill="#D1D1D1" d="M24.676 13.085c.245.197.467.417.661.659a4.626 4.626 0 0 1-.661-.659z"/><path fill="#010202" d="M15.402 6.709c-.026-.393.141-.593.165-.934-.07-.235-.273.003-.498-.055.144-.404.722-.378.995-.111.185-.053.257-.219.441-.273-.013-.227-.187-.29-.22-.496.609-.16 1.547 1.351 1.435-.11.557.311.668.849.497 1.65.385.087.482-.399.661-.331.007.939-.647 1.221-1.599 1.208-.051 1.003.425 1.484.883 1.979.247-.047.454-.133.771-.11.106-.005-.086-.204.057-.274.542-.009 1.087-.019 1.435.166.104-.154.104-.41.222-.551-.356-.659-1.022-1.28-.771-2.363.154-.083.348-.134.605-.11-.168.745.182 1.12.662 1.704.233.283.668.878.719.879.429.015.613-1.217-.057-1.32-.117.122-.25.226-.33.386-.015-.274-.019-.753-.056-1.155.244-.234.646-.309.886-.549.256.166.487.353.715.549.227.038.315-.052.496-.055.674.413 1.191.976 1.711 1.54.123.115-.004.177-.053.274 1.062.16 1.025 1.626-.275 1.485-.114 1.077-.739 1.645-1.326 2.253-.045-.156.078-.143.056-.276-.126.076-.176.227-.274.331.455.337.873.709 1.324 1.044.197.242.42.462.66.659.493.648 1.077 1.203 1.438 1.979 1.078.399 1.017 2.206 2.483 2.034-.356-2.677-2.807-4.241-3.091-6.871-.104-.935.298-1.571.714-2.198.251-.372.847-1.002.831-1.43-.013-.362-.379-.504-.387-.769.746.193 1.99 1.462 1.877 2.475-.111.996-1.139 1.517-1.987 1.922-.087 1.596.87 2.476 1.548 3.628.553.946 1.291 2.083 1.27 3.132-.016.77-.385 1.164-1.383 1.046-.176-.155-.444-.215-.604-.387.099 1.021.22 2.021 1.325 2.033-.062 1.605-.145 3.195-.885 4.124-.452.114-.784.354-.938.769-.514.035-1.135-.082-1.051.662-.127-.232-.25-.726-.105-1.047-.313-.092-.414-.394-.662-.55-.26-.054-.336.071-.5.111.033-.315.23-.468.334-.718-.074-.272-.551-.321-.832-.219.129-.428.49-.615 1.049-.604.107-.137.121-.361.111-.605-.137-.082-.334-.105-.555-.109.641-.504 1.756-.074 1.771.717.277-.17.492-.896.274-1.377-.454-1.003-2.735-1.52-2.481-3.135-.777.106-.993.772-.938 1.705-2.28-.073-3.889-.817-4.97-2.088-.656-.023-.727-.635-1.05-.988h.387v-.605c-.089-.174-.495-.116-.662-.053.204-.557.944-.457 1.547-.496.08-.392-.374-.252-.389-.55.791-.293.896.527 1.491.604.197-.034-.018-.309.056-.548 1.054.026.675 1.282.222 1.648.156.564 1.03 1.086 1.654.658.045-1.001.357-1.73 1.546-1.592-1.377-1.394-4.885-.672-6.458-1.87-.168-.04-.201.056-.331.055-1.231-.716-2.334-1.561-3.368-2.474a3.13 3.13 0 0 0-.553-.55c-.615-.762-1.75-1.004-2.152-1.979-.215-.225-.604-.277-1.049-.273.283-.233.783-.249 1.27-.276.111-.459-.179-.993-.772-.934.378-.32 1.393-.004 1.545-.551-.113-.198-.291-.332-.497-.439.721-.131 1.263.392 1.656.77.234.013.357-.084.553-.108-.003-.182-.093-.275-.055-.496.246-.076.583.534.552.88-.05.561-.796.645-.885 1.099.472 1.107 1.876 1.284 2.982 1.76-.113-1.208-.741-1.902-.828-3.134-.005-.273-.005-.547-.005-.822zm1.767-1.1a.888.888 0 0 0-.496-.494c-.002.13.093.162.055.33-.332.125-.631.595-.993.218.062.449-.227.838-.111 1.155.341-.575 1.122-.713 1.545-1.209zm-.387.606c-.876.169-1.516 1.014-1.048 2.033.622-.826.851-2.046 2.207-2.143.116-.161.26-.523.11-.769-.4.1-.954.509-1.269.879zm4.969 2.583c-.442-.785-1.204-1.255-1.489-2.199-.049-.138.106-.473-.111-.439-.469 1.135.654 2.432 1.6 2.638zm3.478-.331c-.224-.106-.492-.168-.553-.438.037-.096.262.004.278-.111-.599-.444-.909-1.361-1.935-1.209-.26-.162-.447-.397-.715-.549-.186.184-.482.255-.723.384-.037.204.098.236.057.44.487.18.922.519.828 1.099-.05.312-.574.902-.771.935-.444.07-.594-.438-.938-.441.015.198-.101.266-.11.441.717.449 1.346 1.605 2.317 1.539.784-.055 1.027-1.1 1.382-1.759.141-.064.186-.22.385-.22.223-.006.915.044.498-.111zm-9.44 0c.415.668.39 1.773.884 2.364.192-.357.468-.632.828-.823h-.554c.224-.347.663-.479.994-.716-.461-.518-1.041-1.19-.827-2.198.515-.093 1.449-.059 1.379-.55-.31.231-.448-.173-.606-.276-1.261.175-1.464 1.402-2.098 2.199zm13.359 12.476v-.438c-1.334-.108-1.012-1.332-1.379-2.419-.194-.572-.596-.893-.662-1.319.66.676.928 1.986 2.373 1.704.297-.272.398-.697.332-1.208-.127-.94-.836-1.964-1.383-2.859-.654-1.077-1.643-2.155-1.38-3.736 1.146-.199 2.438-1.401 1.656-2.639-.171.49-.067 1.249-.771 1.208.517-.495.744-1.907-.058-2.253.045.136.071.293.058.494-.603 1.112-1.793 1.917-1.547 3.573.159 1.1.918 2.214 1.489 3.188.565.966 1.747 2.407 1.49 3.682-1.726.323-1.615-1.65-2.761-2.088-.365-.753-.896-1.341-1.437-1.924a4.626 4.626 0 0 0-.661-.659 7.55 7.55 0 0 0-1.328-1.044 3.186 3.186 0 0 0-.552.549c-.308.261-.616.52-.993.714-.705-.125-.91.505-1.712.44h-.772c-.172.027-.215-.079-.33-.11-.008-.11.375-.255.109-.275-.664.04-1.488-.057-1.544-.439.638-.004.87-.43.662-.99-.639-1.719-5.739-1.166-5.188-4.452-.195-.229-.369-.477-.719-.55.009.227-.125.314-.221.439.205.348.585.914.276 1.431.074-.624-.253-.849-.441-1.21h-.607c.128.221.23.942.662 1.044-.181.208-.689-.062-.938.166.585.553.935 1.341 1.877 1.538 1.157 1.433 2.654 2.525 4.252 3.518.219-.093.581-.044.883-.055.076.125.387.021.553.055.084.009.205-.02.223.055-.369.016-.738.034-.994.165 2.309.762 5.656.487 7.01 2.199-.043-.141-.121-.533 0-.66.205.31.391.641.331 1.209.038.275-.071.693.058.879-.334 2.668 2.795 2.17 2.598 4.562-.277.299-.262.713-.664.821-.544.146-1.337-.504-1.82 0 .461.33 1.321.26 1.768.606-.428-.047-1.262-.207-1.381.22.396.024.56.286.719.548.379-.172.648-.745 1.27-.492-.432.176-1.097.408-.939.988.185-.127.607-.02.886-.055-.013-.561.521-.582.882-.771.45-.729.688-1.66.719-2.805.117-.069.009-.375.046-.545zM13.857 7.479c-.136-.022-.388.31-.774.22-.109.301-.07.807.112.989.129-.459 1.068-.566.662-1.209zm5.52 6.045c-.079.048-.175.083-.164.22 1.432.142 2.191-.676 2.758-1.208-.082.229-.24.381-.273.659.943-.637 1.8-1.359 2.154-2.583.035.239-.074.621.057.77.4-.513.749-1.085.883-1.87.465.044.736-.106.988-.275a.673.673 0 0 0-.105-.495h-.996c-.564.597-.662 1.826-1.547 1.978-1.544.269-1.967-1.966-3.752-1.647-.01.082.02.202-.056.219-.188.035-.514-.07-.607.055-.504.065-.958.185-1.214.496.188-.023.315.016.275.219-.305.301-.841.372-.883.934.925.172 2.042 1.539.938 2.254.265-.043.354.086.606.055.177.191 1.268-.133.938.219zm-.055 1.979c.15.154-.006.47-.109.551-.387.068-.816-.204-1.05.055.558-.041.206.82.497 1.044-.105.025-.332-.075-.277.11.016.388.299.51.663.549.405.495.894.907 1.489 1.209-.174-1.126-1.465-1.849-.661-3.133-.209-.067-.347-.496-.552-.385zm4.471 4.177c.018-.826.324-1.359 1.051-1.48v-.77c-.535-.201-1.061-.409-1.326-.879.334-.001.683-.016.94.055.019-.369-.735-.441-1.329-.385-.875.084-.348 1.538-1.048 1.759-.696.222-1.71-.405-1.655-1.044.027-.321.98-1.077.109-1.429.076.167.089.454-.055.551h-.441c-.84 1.265.691 1.792.662 3.08.781.283 1.498.633 2.482.713.096.125.422.021.607.055.003-.077.003-.151.003-.226zm2.376 2.476c-.171-.2-.101.301-.11.439.041.165-.097.159-.055.326.454-.064.549.223.992.164-.098-.288-.244-.523-.33-.82-.18-.025-.301-.104-.497-.109z"/><path fill="#FFD730" d="M15.623 6.819c-.115-.317.173-.707.111-1.155.362.377.661-.093.993-.218.039-.168-.057-.2-.055-.33a.885.885 0 0 1 .496.494c.353.387-.881 1.985-1.545 1.209z"/><path fill="#FFD730" d="M18.053 5.335c.148.246.004.608-.111.769-.782.183-1.702 3.404-2.207 2.143-.468-1.019.172-1.863 1.048-2.033.314-.369.868-.778 1.27-.879zm6.677 3.243c-.201 0-.246.156-.388.22-.353.66-.596 1.705-1.38 1.759-.975.067-1.604-1.09-2.316-1.539.011-.175.125-.243.109-.441.346.003.493.511.938.441.197-.033.724-.623.771-.935.094-.581-.341-.919-.828-1.099.041-.204-.094-.237-.057-.44.238-.129.537-.2.723-.384.266.152.455.387.713.549 1.025-.152 1.336.765 1.937 1.209-.019.115-.241.015-.278.111.062.27.329.333.553.438-.039.161-.452-.049-.497.111zm-1.378-1.539c.037.272-.187.291-.108.605.219.112.432.23.771.219-.068-.426-.288-.702-.663-.824z"/><path fill="#63531A" d="M24.73 8.578c.045-.16.455.051.496-.11.42.154-.272.104-.496.11z"/><path fill="#FFD730" d="M17.887 6.268c.158.103.298.507.606.276.069.491-.864.458-1.379.55-.214 1.008.366 1.68.827 2.198-.331.237-.77.369-.994.716h.554c-.36.191-.636.466-.828.823-.494-.59-.469-1.696-.884-2.364.634-.797.837-2.024 2.098-2.199z"/><path fill="#B79A23" d="M24.514 13.25c.242.197.463.417.661.659a4.204 4.204 0 0 1-.661-.659z"/><path fill="#63531A" d="M22.634 12.755c.163-.206.345-.39.552-.549a2.99 2.99 0 0 1-.552.549z"/><path fill="#FFD730" d="M25.175 13.91c.538.583 1.069 1.17 1.437 1.924 1.146.438 1.035 2.412 2.761 2.088.257-1.275-.925-2.716-1.49-3.682-.571-.975-1.329-2.088-1.489-3.188-.246-1.656.944-2.46 1.547-3.573a1.197 1.197 0 0 0-.058-.494c.802.346.572 1.758.058 2.253.703.041.602-.718.771-1.208.781 1.238-.513 2.439-1.655 2.639-.264 1.581.725 2.659 1.379 3.736.547.895 1.256 1.919 1.383 2.859.066.512-.035.935-.332 1.208-1.445.281-1.713-1.029-2.373-1.705.066.427.468.747.662 1.319.367 1.087.045 2.312 1.379 2.419v.438c-.125.078-.021.385-.055.551-.029 1.146-.27 2.078-.72 2.805-.362.188-.896.211-.882.771-.277.035-.701-.072-.885.055-.157-.58.508-.812.938-.988-.618-.253-.89.32-1.271.492-.157-.262-.318-.523-.717-.548.117-.427.951-.267 1.379-.22-.442-.348-1.307-.276-1.767-.606.484-.504 1.277.146 1.821 0 .402-.108.387-.522.664-.821.197-2.395-2.93-1.896-2.596-4.562-.039-.275.069-.695-.06-.879.06-.569-.126-.9-.331-1.209-.119.126-.043.519 0 .66-1.354-1.712-4.699-1.437-7.01-2.199.256-.13.625-.148.994-.165-.02-.075-.141-.046-.223-.055-.076-.126-.383-.021-.553-.055-.302.011-.664-.038-.883.055-1.598-.993-3.095-2.085-4.252-3.518-.942-.197-1.292-.985-1.877-1.538.249-.229.758.042.938-.166-.432-.102-.534-.824-.662-1.044h.607c.188.362.516.586.441 1.21.309-.517-.071-1.083-.276-1.431.096-.125.229-.212.221-.439.351.073.524.32.719.55-.551 3.286 4.549 2.733 5.188 4.452.208.56-.021.985-.662.99.058.382.883.479 1.547.439.264.02-.117.166-.111.275.115.031.158.137.332.11.131.09.643.09.771 0 .804.065 1.009-.566 1.711-.44.378-.194.688-.453.994-.714.21-.16.394-.343.552-.549.486.306.932.649 1.328 1.044.201.237.423.457.668.654z"/><path fill="#63531A" d="M18.438 13.306h1.16a.5.5 0 0 1-.222.219c.331-.353-.76-.029-.938-.219z"/><path fill="#FFD730" d="M19.322 9.292c.074-.017.046-.137.055-.219 1.785-.318 2.208 1.916 3.752 1.647.885-.152.98-1.381 1.547-1.978h.996a.668.668 0 0 1 .107.495c-.252.169-.525.319-.99.275-.135.784-.48 1.356-.883 1.87-.129-.149-.021-.531-.057-.77-.354 1.224-1.211 1.947-2.154 2.583.033-.278.193-.431.275-.659-.566.533-1.328 1.351-2.76 1.208-.011-.138.085-.172.164-.22a.502.502 0 0 0 .223-.219h-1.16c-.254.031-.345-.099-.606-.055 1.104-.716-.013-2.082-.938-2.254.042-.562.578-.633.883-.934.04-.204-.088-.243-.275-.219.256-.311.71-.43 1.214-.496.185-.035.512.071.607-.055z"/><path fill="#010202" d="M6.846 20.616c-.575-.882-.83-2.378-.995-3.738-.069-.582.075-1.323-.44-1.648-.284-.579-.085-1.638-.443-2.144.245-.232.282-.84.167-1.265.246.141.491.282.662.496.326-.204.194-.68.054-.989.228-.179.468.553.719.714.073-.057.204-.053.276-.111-.054-.349-.206-.603-.331-.879.534.458.898 1.083 1.104 1.869.234-.042.246-.305.331-.495.346.346.108 1.143-.166 1.374-.271.061-.61.052-.829.165.146 1.227.547 2.203 1.049 3.079.457-1.826.022-3.772.442-5.333-.042-.123-.31-.021-.442-.054a1.1 1.1 0 0 1 .332-.33c.242-.003.341.137.497.22.252-.168.365-.572.11-.826.527-.211.656.445 1.049.551.163-.131-.067-.333-.055-.494.427-.11.686.89.773 1.483.258.037.205-.235.276-.385.897.716-.229 1.717-.994 1.814v.22c-.092.096-.092.565 0 .659.007.798.252 1.362.387 2.034.243.088.46.201.717.275.538-.681-.897-1.766-.11-2.693h.497c-.175.563.085 1.387.386 1.815.219-.381.21-.667.11-1.156.131-.272.52-.29.663-.548.306.062.42.315.664.438.169.042.105-.15.276-.108.722.452 1.334 1.015 1.71 1.813.852.093.815 1.344-.055 1.374-.057.916-.662 1.283-1.049 1.867-.118.028-.106-.076-.111-.16-.127.072-.178.225-.276.326 1.076.869 2.54 1.357 3.367 2.475 1.986.402 2.988 1.789 4.747 2.418.104-.447-.241-.822-.496-1.043-.474-.411-1.267-.862-1.987-1.213-.744-.354-1.582-.537-2.098-1.043-.638-.627-.812-1.348-1.271-2.194a1.788 1.788 0 0 0-.827-.272c.643-.424 2.306-.134 2.76.272.488.438.62 1.169.663 1.922 1.397 1.062 3.366 1.56 4.25 3.134.114.979-.437 1.377-1.104 1.318-1.021-.092-2.035-1.311-2.812-1.594.439.75 1.263 1.602 2.429 1.812-.078 1.553-1.063 2.201-1.655 3.243a2.45 2.45 0 0 0-1.158.771c-.396.008-.917-.105-.884.328-.249-.099-.268-.43-.275-.769-.364-.171-.564.175-.883.22.018-.404.219-.625.331-.936-.117-.194-.382-.242-.719-.219.029-.742.827-.72 1.271-1.045-.148-.164-.52-.104-.718-.223.749-.749 1.654.102 1.711.882.51-.114.594-.653.605-1.266-.695-.698-2.151-.644-2.595-1.597a7.736 7.736 0 0 0-1.766.605c-.256.91.231 1.32.717 1.648-.805 1.031-1.988 1.686-3.589 1.925h-.938c-.472-.212-.962-.048-1.38-.165-.311-.088-.504-.562-.883-.329.08-.179.27-.244.442-.331-.117-.141-.279-.236-.277-.493-.244-.024-.456.276-.551.218.039-.617.6-.72.993-.986.031-.271-.347-.133-.551-.166.126-.586.891-.438 1.38-.273.077-.334-.263-.252-.221-.552.396-.312.823.129.993.386.013.288 0 .551-.055.771.411.541 1.628.18 1.987-.163-.095-.621-.594-.839-.883-1.265.038-1.854 1.768-2.017 2.982-2.695-1.99-.774-4.892-.252-6.294-1.648-.359-.357-.543-.732-.993-1.043-.134-.127-.499-.021-.72-.055zm5.52-5.057c-.167.163-.343.317-.442.55.183.146.224.436.387.604.273-.3.712-.967.055-1.154zm-3.643-3.078c.301-.214.534-.496.938-.605-.044-.408.01-.785-.386-.935.166.426-.315.978-.663.716.039.349-.123.5-.166.769-.121.007-.023.232-.055.33.183-.02.239-.166.332-.275zm1.656-.879c.022-.133-.102-.12-.056-.275-.204.016-.197.241-.496.165-.042.226.085.281.055.495-.847.271-1.783.991-1.379 2.144.879-.425 1.089-1.518 1.932-1.979-.036-.168.068-.474-.056-.55zm-4.03.604c-.007-.141-.103-.193-.166-.276-.226.369.08.644 0 .935-.307-.152-.427-.491-.772-.604-.244.945-.014 1.901.164 2.858.105.099.257.147.333.275.252 1.745.348 3.649.993 5.002h.055c.21.096 1.077.084 1.104 0-.056-.157-.421-.201-.276-.388 1.362-.267.553-1.612.442-2.419-.662-.815-1.32-2.002-1.436-3.188-.116-1.18.911-1.525.221-2.417-.041.161-.173.231-.389.22-.111.272.034.801-.219.934-.064-.009-.06-.086-.055-.165.091-.128.091-.637.001-.767zm3.809 4.288c-.272-.797-.508-1.907-.331-2.97.478-.166.93-.356 1.269-.659-.06-.28.151-.488-.055-.604.038.184-.093.201-.221.22-1.298-.13-1.25 1.533-2.263 1.869-.093.786-.287 1.473-.276 2.363-.092.06-.092.493 0 .55a.39.39 0 0 0 .11.164c.051-.096.173-.12.332-.109.042-.188-.225-.07-.166-.274.37-.145.672-.36 1.104-.441.151-.019.69.07.497-.109zM7.84 13.03c-.08.239-.342.016-.442-.055-.14.192-.419.534-.331.769.108-.13.366-.112.607-.11.096-.125.286-.444.166-.604zm3.422 1.32c-.398.001-.302.555-.276.823.079.842.634 1.375 1.104 1.65-.245-.823-1.009-1.407-.828-2.473zm2.374.494c-.175-.008-.185.146-.388.11-.353-.39-.618-.482-1.048-.11-.043.226.085.283.055.496 1.197.165.419 1.598-.219 1.813-.292-.094-.304-.469-.609-.55-.007.102-.036.184-.11.221.402.633.787 1.615 1.547 1.76 1.08.2 1.531-.871 1.987-1.595.123-.19.594-.032.772-.165-.241-.254-.765-.229-.938-.55-.01-.121.194-.025.275-.056-.36-.538-.829-.968-1.324-1.374zm-4.251 2.144c-.178-.013-.234.098-.441.056.021.199.327.114.221.438-.28-.005-.576-.023-.718.11-.171.488.341.807.387 1.211.07.609-.262 1.062-.718 1.374.504.449 1.248.663 2.152.712-.041.163-.297.108-.275.334 1.383.148 2.09-.668 2.705-1.102-.029.188-.147.291-.166.495.929-.377 1.377-1.232 1.823-2.089.048.232-.169.488 0 .66.256-.461.716-.717.662-1.486.273-.167.735-.147.719-.603h-.719c-.437 1.03-1.62 2.25-2.705 1.429-.746-.564-1.035-1.812-2.318-1.758-.191.088.345.196.166.274-.104.011-.122-.062-.221-.056-.062-.091-.495-.091-.554.001zm.552 4.397c-.17.008-.307-.023-.387-.109-.01-.094.313-.217.056-.221-.714-.029-1.066-.621-1.767-.492.679 1.16 1.825 1.699 3.422 1.979 1.413.245 2.966.224 4.141.771.046-.195-.281-.305-.165-.387.406.008.429.266.552.494.366.686.569 1.615 1.158 2.146.592.529 2.132.524 2.319 1.265.149.592-.289 1.356-.718 1.428-.679.116-.916-.483-1.711-.383-.146.131-.333.218-.387.438.58.138.66.229 1.27.056.006.142.215.079.221.22-.436.137-.987.152-1.048.66.416-.117.883-.027 1.212-.165-.021.325-.539.159-.439.606.068-.025.572-.09.883-.059.256-.35.664-.549 1.104-.714.533-.954 1.406-1.567 1.548-2.914-1.441-.469-2.375-1.446-2.929-2.804.752.551 2.312 1.857 3.258 2.145 1.529.463 1.246-1.107.662-1.703-.95-.975-2.689-1.477-3.697-2.363-.07-.989-.299-1.829-1.104-2.088-.051.181.768.594.276.879-.358-.541-.854-1.237-1.712-1.098.735.641.82 1.668 1.547 2.359.528.508 1.403.646 2.099.988.688.34 1.469.822 1.932 1.209.334.281 1.109 1.346.275 1.431-.394.04-1.539-.876-1.986-1.151-.654-.408-1.422-.953-2.042-1.154-.209-.068-.486-.049-.607-.11-.272-.138-.506-.492-.772-.716-.863-.727-1.82-1.194-2.76-1.758-.417.322-.968 1.02-1.6.768-.312.314-.769.482-1.326.551-.263-.004-.52-.004-.778-.004zm1.159 6.54c-.911.046-.077-1.604-.938-1.428.112.054.12.211.11.386-.047.172-.303.137-.331.328-.074 1.008.872 1.029 1.435 1.43.214.151.403.518.607.551.475.084 1.373-.362 1.823-.604a4.893 4.893 0 0 0 1.38-1.099c-.651-.192-.9-.835-.718-1.704.465-.436 1.304-.498 1.877-.825-.148-.165-.214-.409-.331-.604-.552-.06-.97-.244-1.27-.551.272-.076.559-.143.827-.22-.676-.181-2.001.438-2.759.987-.443.322-.821.812-.719 1.486.363.389.878.627.828 1.428-.342.229-.7.438-1.27.438l-.551.001zm-1.325-.878c-.163-.021-.448-.209-.552-.109.274.062.166.561.056.714.123.043.299.033.332.166.007 1.109.902 1.63 2.097 1.373-.604-.753-2.074-.647-1.933-2.144zm7.564.11c.111.069.331.034.331.219-.013.208-.174.269-.221.44.302.012.418.207.718.222-.151-.384-.263-1.095-.828-.881zm-8.336.495c-.08.14-.334.104-.387.271.566-.028.358.708.995.604a6.221 6.221 0 0 1-.167-.656c-.232.012-.232-.206-.441-.219zm.165 1.155c.165.096.44.365.717.164-.134-.066-.178-.227-.22-.385-.175.064-.377.102-.497.221z"/><path fill="#63531A" d="M8.446 12.426v.274c.112-.016.108-.149.221-.164.003-.034.008-.065.055-.055-.092.109-.149.255-.332.274.033-.097-.065-.322.056-.329z"/><path fill="#FFD730" d="M8.446 12.426c.042-.269.204-.42.166-.769.348.262.829-.29.663-.716.396.15.661.683.706 1.092-.406.109-1.086 1.15-1.544 1.198-.047-.009.234-.729.231-.695-.113.015-.109.148-.221.164l-.001-.274z"/><path fill="#FFD730" d="M10.434 12.151c-.005.263-1.435 3.121-1.932 1.979-.403-1.152.532-1.873 1.379-2.144.03-.214-.097-.269-.055-.495.299.077.292-.148.496-.165-.045.155.079.142.056.275.035.167-.07.474.056.55zm-4.085.825c-.005.078-.01.155.055.165.253-.133.108-.662.219-.934.216.011.348-.059.389-.22.69.892-.337 1.238-.221 2.417.116 1.186.774 2.373 1.436 3.188.111.805.92 2.152-.442 2.419-.146.185.22.229.276.386H6.902c-.645-1.354-.74-3.255-.993-5-.076-.127-.228-.176-.333-.275-.178-.958-.408-1.913-.164-2.858.345.113.466.452.772.604.08-.291-.226-.566 0-.935.063.083.159.135.166.276l-.001.767z"/><path fill="#FFD730" d="M8.281 16.713c-.011-.89.183-1.577.276-2.363 1.014-.336.965-2 2.263-1.869.128-.02.259-.037.221-.22.206.117-.005.325.055.604-.339.303-.791.494-1.269.659-.177 1.062.059 2.172.331 2.97v.055c-.149.033-.438-.07-.497.054-.433.082-.734.297-1.104.441-.059.204.208.086.166.274-.159-.01-.28.014-.332.109a.39.39 0 0 1-.11-.164v-.55zm-.607-3.078c-.242-.002-.499-.021-.607.11-.088-.235.191-.577.331-.769.1.071.363.293.442.055.12.159-.07.478-.166.604zm7.287 2.583c-.081.031-.286-.065-.275.056.173.321.696.296.938.55-.179.133-.65-.025-.772.165-.456.724-.907 1.795-1.987 1.595-.76-.145-1.145-1.126-1.547-1.76.075-.037.103-.119.11-.221.305.082.316.456.609.55.639-.215 1.416-1.648.219-1.813.03-.213-.099-.27-.055-.496.431-.372.696-.28 1.048.11.203.036.212-.119.388-.11.494.406.963.836 1.324 1.374zm-1.325-.878c.047.266-.158.282-.11.548.202.128.436.226.717.275-.05-.428-.233-.721-.607-.823z"/><path fill="#010202" d="M14.243 16.163a1.918 1.918 0 0 1-.717-.275c-.047-.267.157-.282.11-.548.374.102.557.395.607.823z"/><path fill="#FFD730" d="M19.874 15.888c.041 1.304 2.459 4.101.661 3.133a4.627 4.627 0 0 1-1.489-1.209c-.364-.039-.647-.161-.663-.549-.055-.185.172-.085.277-.11-.291-.224.061-1.085-.497-1.044.231-.258.663.014 1.05-.055.104-.081.26-.397.109-.551.205-.111.343.318.552.385z"/><path fill="#FFD730" d="M23.186 19.846c-.984-.08-1.703-.429-2.482-.712.027-1.287-1.502-1.814-.662-3.08h.439c.146-.097.131-.383.057-.551.871.352-.082 1.108-.109 1.429-.055.639.959 1.266 1.655 1.044.7-.221.173-1.674 1.048-1.759.596-.057 1.348.016 1.329.385-.26-.071.521.34.188.341.265.471.119.229.199.483v.77c-.729.123-1.033.656-1.053 1.482-.062.012-.045.102-.057.166-.183.002-.368.002-.552.002z"/><path fill="#63531A" d="M23.186 19.846h.553c.012-.062-.008-.154.057-.166v.221c-.191-.035-.517.07-.61-.055z"/><path fill="#FFD730" d="M9.937 16.988c.099-.007.117.067.221.056.179-.079-.356-.187-.166-.274 1.283-.055 1.572 1.193 2.318 1.757 1.085.82 2.269-.397 2.705-1.428h.719c.016.455-.446.436-.719.603.054.771-.406 1.026-.662 1.485-.169-.172.048-.427 0-.66-.445.855-.894 1.713-1.823 2.09.019-.204.137-.307.166-.495-.614.435-1.322 1.25-2.705 1.103-.021-.227.234-.172.275-.334-.904-.05-1.648-.264-2.152-.713.456-.312.788-.765.718-1.373-.046-.404-.558-.724-.387-1.212.142-.133.438-.115.718-.11.106-.324-.2-.239-.221-.438.208.042.263-.068.441-.056l.554-.001z"/><path fill="#FFD730" d="M10.71 21.385c.558-.068 1.014-.234 1.326-.551.632.252 1.184-.443 1.6-.768.94.562 1.897 1.031 2.76 1.758.266.224.5.578.772.716.122.062.398.042.607.11.622.201 1.388.746 2.043 1.154.447.275 1.594 1.191 1.986 1.151.832-.085.059-1.147-.277-1.431-.461-.387-1.241-.869-1.932-1.209-.691-.342-1.566-.48-2.098-.988-.727-.693-.812-1.723-1.547-2.361.857-.14 1.354.559 1.712 1.1.489-.285-.328-.698-.276-.879.806.258 1.033 1.099 1.104 2.088 1.008.889 2.747 1.391 3.696 2.363.586.596.869 2.166-.662 1.702-.945-.282-2.506-1.593-3.256-2.144.553 1.355 1.484 2.335 2.928 2.804-.143 1.347-1.016 1.96-1.547 2.914-.439.165-.85.362-1.104.714-.312-.031-.814.031-.883.059-.098-.447.419-.281.439-.606-.331.138-.796.048-1.212.165.061-.508.612-.523 1.048-.66-.006-.141-.215-.078-.221-.22-.61.176-.689.082-1.27-.056.053-.223.241-.31.387-.438.795-.103 1.032.499 1.711.383.429-.069.867-.836.72-1.428-.188-.738-1.729-.734-2.321-1.265-.589-.529-.792-1.461-1.158-2.146-.123-.229-.146-.486-.552-.494-.116.082.211.188.165.387-1.175-.549-2.728-.523-4.141-.771-1.597-.278-2.743-.817-3.422-1.979.701-.129 1.052.463 1.767.492.257.004-.066.127-.056.221.08.086.216.117.387.109.135.098.646.098.777.004z"/><path fill="#FFD730" d="M11.648 27.925c.569-.001.927-.21 1.27-.438.05-.801-.464-1.038-.828-1.428-.102-.675.276-1.164.719-1.485.757-.55 2.083-1.169 2.759-.987-.269.077.413.139.14.213.299.311.242.172.303.559.117.192.183.438.331.604-.573.327-1.412.391-1.877.825-.183.87.067 1.512.718 1.704-.32.373-.793.785-1.38 1.099-.45.241-1.348.688-1.823.604-.204-.034-.387.066-.601-.084-.563-.399-1.515-.889-1.441-1.896.028-.189.283-.154.331-.328.01-.175.002-.332-.11-.386.861-.176.027 1.476.938 1.428.058.091.492.091.551-.004z"/><path fill="#FFD730" d="M11.703 29.189c-1.195.256-2.09-.264-2.097-1.373-.033-.131-.209-.123-.332-.164.109-.155.218-.654-.056-.717.104-.1.39.088.552.109"/><path fill="#FFD730" d="M9.44 27.872c.048.228.099.451.166.657-.637.104-.429-.635-.995-.604.052-.167.307-.133.387-.272.21.012.21.23.442.219z"/><path fill="#E2403E" d="M20.15 6.16c.218-.034.062.301.108.439.286.944 1.048 1.414 1.49 2.199-.943-.206-2.066-1.503-1.598-2.638z"/><path fill="#1B1A0D" d="M15.402 6.709v.824c-.091-.149-.091-.676 0-.824z"/><path fill="#010202" d="M24.014 7.863c-.341.011-.554-.107-.771-.219-.076-.314.146-.333.108-.605.376.122.596.398.663.824z"/><path fill="#FFD730" d="M13.195 8.688c-.182-.182-.221-.688-.112-.99.386.09.638-.242.774-.22.406.644-.533.751-.662 1.21z"/><path fill="#63531A" d="M18.715 9.347c.096-.125.422-.02.607-.055-.095.126-.422.02-.607.055z"/><path fill="#1B1A0D" d="M10.379 11.602c.125.076.02.383.055.549-.126-.076-.021-.383-.055-.549zm-4.03.604c.09.13.09.639 0 .77v-.77z"/><path fill="#63531A" d="M17.887 13.965c.169.034.476-.071.552.055-.168-.035-.476.07-.552-.055z"/><path fill="#124526" d="M9.992 13.91v.659c-.092-.094-.092-.564 0-.659z"/><path fill="#E2403E" d="M12.09 16.823c-.47-.275-1.025-.808-1.104-1.65-.026-.268-.122-.822.276-.823-.181 1.066.583 1.65.828 2.473z"/><path fill="#1B1A0D" d="M9.661 16.603c.059-.124.347-.021.497-.054v-.055c.193.179-.346.09-.497.109z"/><path fill="#63531A" d="M9.385 16.988c.06-.092.493-.092.552 0h-.552z"/><path fill="#1B1A0D" d="M8.281 16.713v.55c-.092-.057-.092-.49 0-.55z"/><path fill="#63531A" d="M29.148 20.943c-.037.17.068.476-.057.551.039-.166-.068-.473.057-.551z"/><path fill="#1B1A0D" d="M26.059 22.596c.01-.139-.061-.64.11-.438-.162.022.05.412-.11.438z"/><path fill="#FFD730" d="M26.169 22.156c.196.005.317.084.497.109.086.297.232.532.33.82-.443.059-.538-.229-.992-.164-.042-.167.096-.161.055-.326.16-.025-.052-.415.11-.439z"/><path fill="#1B1A0D" d="M11.096 27.925h.552c-.059.095-.493.095-.552 0z"/><path fill="#FFD730" d="M18.163 28.038c-.3-.015-.416-.21-.718-.222.047-.172.208-.232.221-.44 0-.185-.22-.147-.331-.219.565-.214.677.497.828.881zm-8.502.548c.042.158.086.316.22.385-.277.201-.552-.068-.717-.164.12-.119.322-.157.497-.221z"/><path fill="#1B1A0D" d="M10.875 29.411h.938c-.186.091-.751.091-.938 0zm8.281-15.501h.771c-.128.09-.64.09-.771 0z"/><path fill="#CCC" d="M17.5 1C26.6 1 34 8.401 34 17.5 34 26.6 26.6 34 17.5 34 8.402 34 1 26.6 1 17.5 1 8.401 8.402 1 17.5 1m0-1C7.835 0 0 7.835 0 17.5S7.835 35 17.5 35 35 27.165 35 17.5 27.165 0 17.5 0z"/></svg>