<svg xmlns="http://www.w3.org/2000/svg" width="35" height="35"><circle fill="#EA3648" cx="17.438" cy="17.5" r="16.917"/><g fill="#FFF"><ellipse cx="18.846" cy="8.301" rx="2.469" ry="2.808"/><circle cx="18.264" cy="16.324" r="1.88"/><path d="M11.845 13.855l-1.502-.14H9.45l-.211.072-.184.095.346 1.407 1.058.051 1.46-.144zm5.357 3.901l1.482 2.723.985 6.746-.257 1.056-.612.026-2.395-8.457.093-1.621zm-.846 10.432v.469l-.211.638-1.174-.357-.233-.185.258-.591z"/></g><path fill="#010202" d="M18.443 8.052h-.391c.061-.144.301-.112.504-.113.049.122.146.192.111.396-.098.226-.197.94.337.728.152.099-.325.041-.448.054-.074-.016-.046-.139-.056-.225.082-.157.137-.768-.057-.84zm.116 1.513c-.183-.199.439-.081.617-.111-.01.235-.434.054-.617.111z"/><path fill="#FFD730" d="M18.053 13.489h2.694v1.738h-2.694v-1.738z"/><path fill="#010202" d="M14.809 28.645c.511-.021 1.013 0 1.52 0v.393c.003.287.023.585-.115.73-.467.182-1.24.112-2.021.112-.587 0-1.749.138-1.52-.624.197-.649 1.874.094 2.136-.611z"/><path fill="#010202" d="M12.033 13.713c2.663-.185 4.476-1.217 5.568-2.97-.825-.453-1.657-1.121-1.799-2.243-.372-2.899 3.395-4.298 5.4-2.411 1.167 1.1 1.229 3.479-.505 4.373.439.534 1.218.499 1.686 1.009.391.426.758 1.875.955 2.523.292.944.684 1.928.562 2.804-.16.14-.334.261-.676.222-.422.085-1.496-.184-1.465.169.436 3.963.979 7.811 1.465 11.718-.537.211-1.012.534-1.632.842-.384.192-1.478.819-1.631.224-.172-.705 1.188-.943 1.347-1.515-.158-.356-1.453-.075-2.076-.168-.649-3.076-1.119-6.363-1.856-9.418-.034-.142.084-.522-.224-.507-.041.72.167 1.593.34 2.469.461 2.387 1.005 4.999 1.404 7.516h-3.938c.284-4.394.733-8.615 1.013-13.009a12.42 12.42 0 0 0-2.643 0h-1.407c-.356-.094-1.128.009-1.462 0 .503 4.841 1.103 9.591 1.63 14.41-.223.095-.592.046-.841.115-.287-2.337-.545-4.753-.845-7.181-.377-3.057-.718-6.452-1.349-8.802.328-.145.136-.559.112-.953-.507-.172-.697-.981-.168-1.291-.179-1.543-.383-3.059-.564-4.598-.241-.313-.529-.234-.563-.672-.108-1.426 3.055-.727 1.577.449.214 1.524.34 3.135.561 4.654.549.227.741.998.113 1.29.091.21.055.544.113.785.165.357 1.358.175 1.798.166zm7.761-3.811c.251-.06.452.407.786.448 1.509-.649 1.656-3.005.562-4.092-1.607-1.604-4.917-.765-5.171 1.514-.157 1.383.628 2.28 1.743 2.803.131-.203.266-.409.339-.673-.78-.395-1.577-1.398-1.071-2.581.302-.699 1.218-1.126 1.915-1.119 2.07.012 2.764 2.806.844 3.7-.072.17-.164.323-.225.505-.178.18-1.008.18-1.182 0-.052-.194-.102-.387-.227-.505-.004.38.053.694.11 1.01h1.468c.012-.358.127-.62.109-1.01zm.168-2.357c-.362-.472-1.815-.358-2.138.058-.141.831-.007 1.823.395 2.298.557-.023 1.252.089 1.575-.167.291-.498.128-1.444.168-2.189zM8.042 6.481c.195.599 1.71.333 1.63-.336-.042-.348-.477-.479-1.014-.391-.467.072-.748.325-.616.727zm1.798 4.934c-.21-1.473-.41-2.957-.506-4.541-.233.048-.418.145-.73.112.19 1.532.38 3.061.562 4.599.182-.1.596.033.674-.17zm-1.01.897c.083.659 1.541.492 1.517-.167-.015-.392-.302-.482-.787-.448-.505.033-.777.253-.73.615zm1.234 1.401c.013-.325-.098-.537-.056-.895-.168.074-.429.056-.674.056.005.239.094.391.057.673m8.153 1.737h.396v-1.85c-.118.033-.37-.069-.396.055m.509 0v1.738a28.468 28.468 0 0 1 2.694 0c-.024-.448.022-1.26 0-1.738m-11.581.393c.159.271.876-.013 1.125.169.157.396.037.723.169 1.12.319.093 1.03.093 1.348 0-.009-.458-.065-.867-.111-1.289a11.515 11.515 0 0 0-2.531 0zm1.125.28c-.219-.118-.647-.028-.957-.056-.004.071-.072.077-.055.169.211.044.972.198 1.012-.113zm0 .338c-.19-.056-.937-.188-.957.113.2.083.759.101.957 0V14.5zm-.9.448c.291-.064.848.137.956-.111-.191-.057-.939-.19-.956.111zm.057.167v.056c.16.064.828.158.898-.056-.171-.093-.731-.093-.898 0zm.224.339c.448 4.142 1.065 8.479 1.574 12.614.042.351-.065 1.736.505 1.572.301-.086-.026-1.311-.057-1.572-.499-4.357-.944-8.524-1.405-12.727-.187.042-.778-.103-.617.113zm7.254-.058c-.052.573.723.327 1.013.562-.224.061-.694-.129-.733.111.108.19.712-.112.733.168-.224.061-.694-.13-.733.113.116.165.617-.054.733.113-.094.188-.674-.112-.678.165.583.132 1.408.021 2.082.059.021-.489-.125-.811-.112-1.291-.584.07-1.458-.145-1.855.113.114.165.614-.054.729.112-.48.266-1.041-.146-1.179-.225z"/><path fill="#FFD730" d="M19.738 9.902c1.921-.894 1.229-3.688-.844-3.7-.694-.005-1.615.42-1.914 1.119-.506 1.183.291 2.187 1.072 2.58-.074.264-.208.47-.34.673-1.115-.522-1.899-1.42-1.743-2.802.256-2.279 3.565-3.119 5.172-1.514 1.092 1.088.944 3.444-.563 4.093-.335-.04-.537-.509-.786-.449h-.054z"/><path fill="#988844" d="M18.334 10.407c.174.18 1.004.18 1.182 0-.065.27-1.123.27-1.182 0z"/><path fill="#FFD730" d="M9.166 11.582c-.182-1.535-.373-3.063-.562-4.596.313.032.497-.064.73-.112.096 1.584.296 3.068.505 4.541-.077.203-.491.07-.673.167z"/><path fill="#010202" d="M19.006 8.107c-.006-.32.797-.32.786 0-.187-.179-.58-.108-.786 0zm-.901.391c-.016-.144.021-.239.17-.221.112.103.032.269-.17.221zm1.125 0c-.015-.144.021-.239.168-.221.111.103.034.269-.168.221z"/><path fill="#FFD730" d="M8.658 5.754c.537-.088.971.043 1.014.391.08.669-1.436.937-1.63.336-.132-.402.149-.655.616-.727zm.901 5.942c.485-.034.772.056.787.448.024.659-1.432.826-1.517.167-.046-.361.226-.581.73-.615z"/><path fill="#FFD730" d="M9.391 13.546c.038-.282-.051-.434-.057-.673.245 0 .505.018.674-.056-.042.359.068.57.056.895-.261-.015-.647.087-.673-.166zm8.153-.057c.025-.125.278-.023.396-.055v1.85h-.396v-1.795zm-7.253 1.851c.462 4.203.905 8.37 1.406 12.727.028.261.356 1.483.055 1.574-.571.164-.464-1.223-.504-1.574-.511-4.133-1.127-8.471-1.574-12.613-.163-.216.428-.071.617-.114z"/><path fill="#CCC" d="M17.5 1C26.6 1 34 8.402 34 17.5 34 26.598 26.6 34 17.5 34 8.402 34 1 26.598 1 17.5 1 8.402 8.402 1 17.5 1m0-1C7.835 0 0 7.835 0 17.5 0 27.164 7.835 35 17.5 35S35 27.164 35 17.5C35 7.835 27.165 0 17.5 0z"/></svg>