<svg xmlns="http://www.w3.org/2000/svg" width="35" height="35"><path d="M17.5.997l-.036.002c.054 10.901-.051 21.944-.006 33.003l.042.002c9.111 0 16.502-7.39 16.502-16.504C34.002 8.385 26.611.997 17.5.997zm-7.181 14.345c-.476 3.924-.931 7.867-1.397 11.799.637-.469 1.172-1.49 1.864-2.08.476 1.549.891 3.162 1.452 4.627.445-1.56.913-3.104 1.397-4.627.65.703 1.218 1.481 1.864 2.186-.466-3.969-.979-7.891-1.398-11.903-1.262-.002-2.521-.002-3.782-.002zm-1.495-.613h6.771v-1.425H8.824v1.425zm-.213-6.403c.208-.401.95-.438 1.347-.311 1.35.439.997 3.355.62 4.677h3.21c.022-3.595-.89-7.21-4.455-6.86-.857.083-1.821.557-2.276 1.143-.801 1.03-.958 3.144 0 4.105.519.519 1.812.829 2.693.208 1.169-.824.686-3.347-1.139-2.962z" fill="#EA3648"/><path fill="#FFF" d="M28.691 12.718V9.636H17.483c-.003 0-.002.004-.004.005.002-2.889 0-5.771-.015-8.642C8.368 1.018.998 8.398.998 17.5s7.366 16.479 16.46 16.502c-.011-2.729-.013-5.454-.01-8.178h11.244v-3.082H17.484c-.018.002-.022.019-.03.031l.007-3.504h11.23v-3.083H17.483c-.01.001-.01.013-.017.018l.006-3.489c3.741.003 7.479.003 11.219.003zM7.057 11.081c-.958-.962-.801-3.076 0-4.105.455-.586 1.419-1.061 2.278-1.144 3.563-.351 4.477 3.266 4.454 6.86h-3.21c.377-1.321.729-4.239-.62-4.677-.396-.128-1.139-.091-1.347.311 1.825-.385 2.307 2.138 1.139 2.964-.882.62-2.176.31-2.694-.209zm6.576 13.981a155.3 155.3 0 0 0-1.397 4.627c-.56-1.467-.975-3.08-1.451-4.627-.691.59-1.227 1.609-1.864 2.08.467-3.935.923-7.877 1.397-11.801h3.779c.421 4.016.933 7.936 1.398 11.903-.644-.701-1.212-1.478-1.862-2.182zm1.962-10.333H8.824v-1.425h6.771v1.425z"/><path fill="#CCC" d="M17.5 1C26.6 1 34 8.402 34 17.5 34 26.6 26.6 34 17.5 34 8.402 34 1 26.6 1 17.5 1 8.402 8.402 1 17.5 1m0-1C7.835 0 0 7.835 0 17.5S7.835 35 17.5 35 35 27.165 35 17.5 27.165 0 17.5 0z"/></svg>