<svg xmlns="http://www.w3.org/2000/svg" width="35" height="35"><circle fill="#FFF" cx="17.5" cy="17.406" r="17.084"/><path fill="#EF5E5E" d="M13.584 9.969c.327.191.624.418.892.668.683-.473 1.293.635.669 1.041.119.238.215.502.223.854.609.135.666 1.311-.184 1.227-.128.118-.086.213-.187.372-.081.125-.374.295-.409.445-.027.116.114.326.074.482-.117.479-1.03.612-1.152-.038-.793-.074-1.258-.477-1.597-1.003.982.023 1.88-.232 1.707-1.264-.167-1.015-1.892-1.318-2.674-.556-.612.596-.658 1.422-.745 2.453.325.086.805.013 1.191.037v.447h.631v.817h-.593c-.086.075-.014.309-.038.446h-1.004c.291 2.817.64 5.576.928 8.396a42.489 42.489 0 0 1-1.634-2.936c-.444 1.166-.585 2.636-1.041 3.791-.286-1.287-.64-2.506-.929-3.791-.574.947-1.104 1.944-1.635 2.936.191-2.742.59-5.604.891-8.361-.212-.085-.582-.013-.855-.037-.071-.09-.022-.299-.037-.446h-.595c-.062-.192-.062-.623 0-.817h.558c.1-.073-.022-.37.073-.447h1.041c-.02-.415.034-.759.112-1.077-.134-.217-.379-.269-.41-.558-.044-.42.321-.772.781-.668.204-.341.393-.699.633-1.003-.42-.581.334-1.336.854-.855.317-.203.615-.425 1.003-.557-.161-.835.971-.94 1.189-.371.354-.005.708-.084 1.041 0 .218-.234.433-.517.857-.41.294.077.451.437.371.783z"/><path d="M27.854 15.066h-3.535c.367-1.442.082-3.12-.894-3.416-.749-.229-1.481.235-1.59.824-.063.343.054.689.192.785.599.408.887-.578.234-.589.1-.304.282-.48.618-.471.92.026.979 1.445.468 2.001-.271.294-1.234.616-1.941.354-.793-.294-1.227-1.221-1.241-2.199-.031-1.983 1.632-3.282 3.573-3.142 2.793.204 4.03 2.704 4.116 5.853zm.701.353v.274c-.262.26-.721.157-1.127.157-1.185 0-2.691.063-3.767-.078-.294-.685.61-.512 1.396-.512h2.449c.398.002.84-.096 1.049.159z"/><path d="M23.35 16.047c.815-.182 2.053-.038 3.301-.038.701 0 2.761-.293 2.643.588-.062.468-.732.393-1.438.393h-3.611c-.643 0-1.32.084-1.355-.432-.036-.375.163-.444.46-.511zm.155 1.139h4.154c.323 0 1.096-.072 1.166.196.127.481-.603.394-1.125.394h-3.03c-.704-.001-1.779.038-1.165-.59zm4.854.747c.414 2.523.787 5.092 1.203 7.617-.693-.489-1.34-1.026-2.02-1.53-.357.351-.686.731-1.091 1.18-.044.05-.304.389-.349.391-.131.008-.64-.676-.737-.781-.287-.317-.479-.519-.698-.787-.708.479-1.354 1.018-2.021 1.53.315-2.454.783-5.1 1.166-7.617 1.518-.003 3.034-.003 4.547-.003z"/><path fill="#CCC" d="M17.5.979c9.1 0 16.5 7.402 16.5 16.5s-7.4 16.5-16.5 16.5c-9.098 0-16.5-7.4-16.5-16.5S8.402.979 17.5.979m0-1C7.835-.021 0 7.814 0 17.479c0 9.664 7.835 17.5 17.5 17.5S35 27.145 35 17.479c0-9.665-7.835-17.5-17.5-17.5z"/></svg>