<svg xmlns="http://www.w3.org/2000/svg" width="35" height="35"><circle fill="#FFF" cx="17.5" cy="17.5" r="17"/><circle fill="#FFF" cx="17.5" cy="17.5" r="17"/><path fill="#131819" d="M11.278 4.417c.041-.185.132.057.245 0 .95.934.203 3.434 1.279 4.274.527.411 1.493.683 2.262 1.038.77.353 1.576.59 2.199 1.1-.433.727-.87 1.45-.916 2.565-.419.23-.814-.202-1.096.061-.343-.727-1.207-.496-1.468-1.284-.146-.023-.132.113-.305.062-.05-.154-.168-.242-.184-.426-.647-.047-.715-.851-1.281-.795.114-.826-.629-.797-.612-1.527-.928-.294-1.052-1.391-1.099-2.564-.101-.269-.549-.187-.855-.245.067-.28.324-.369.67-.368-.133-.23-.494-.236-.732-.366.259-.238.562-.116.978-.121-.118-.269-.337-.439-.551-.612.324-.138.728.17.978.307-.077-.329-.146-.667-.368-.853.415-.15.684.372.855.673.103-.168.103-.755.001-.919zm11.726 2.014c-.637-.1-.67-.797-1.102-1.096.81-.556 1.841.461 1.102 1.096z"/><path fill="#131819" d="M9.262 12.967c-.169-.383-.518-.582-.67-.978.656-.026.927.335 1.282.609-.027-.441-.073-.864-.246-1.159.46-.032.766.619.915 1.1.675.527 1.043 1.358 1.528 2.076-.518.029-.662-.315-.975-.489.479 1.252 2.412.374 3.724-.06 1.007-.334 1.973-.561 2.811-.792-.265-.123-.672.142-1.04.122.124-1.859 1.247-3.309 3.175-3.482.811-.07 1.784-.001 2.26-.486.828-.85.031-3.24 1.832-2.505-.193-.22-.498-.295-.793-.243-.992.172-.521 1.877-1.16 2.566-.922.991-2.477.243-4.213.243-.117-.149-.248-.323-.121-.548-1.175.212-2.813-.223-2.137-1.467.521 1.402 2.879.325 4.086.916.222-.605-.363-.937-1.035-.855-.201.124-.133.521-.426.548-.063-.159-.149-.302-.122-.55-.182.143-.163.49-.428.55-.22-.684-.135-1.304-.121-2.078 1.627.454 2.594-.716 4.336-.549.428.221.596.708.914 1.04.938-.11 1.877.192 1.584 1.159-.1.347-.572.516-1.097.548 1.185.623-.021 2.132.485 3.178a.402.402 0 0 1-.305.06c.242.228.17.764.369 1.037-.104.14-.332-.111-.488-.121.024.34.158.569.242.854-.125.122-.404.047-.546 0 .033.219.103.41 0 .611-.146-.021-.256-.073-.368-.122-.047.226.104.26.061.488-.146.153-.129-.129-.364-.062-.01 1.54.04 3.066.548 4.033.428.815 1.315 1.431 1.098 2.809-.141.144-.162-.096-.303-.124 0 .163.021.35-.062.428-.406.021-.303-.471-.61-.549.61 1.228.099 2.779.245 4.215.152 1.502 1.104 2.685 1.465 3.848a3.275 3.275 0 0 1-1.525 1.467c-.78.373-2.082.204-1.897 1.466-.333-.131-.524-.405-.545-.854-.442.025-.536.402-.729.67-.34-.219-.117-.805 0-1.1-.396.076-.586.355-.918.488-.023-.531.258-.757.487-1.037-.414-.047-.655.076-.978.119.095-.434.406-.65.791-.79-.266-.144-.531-.284-.916-.312.186-.319.811-.457 1.285-.303.531-.406 1.637-.354 2.26-.062.021.221.082.41.182.55.447-1.123-.699-1.699-1.1-2.383-.098.025-.051.191-.244.121-.028-.219-.166-.324-.125-.611-.26-.095.016.344-.246.245-.02-.224-.146-.338-.184-.55-.051-.162-.135.189-.242 0-.121-.139-.121-.406-.184-.611-.16-.017-.051.237-.244.186-.078-.192-.215-.563-.063-.793-.046-.215-.284.185-.304 0-.041-.246.058-.35.062-.547-.045-.227-.188.024-.307-.121-.048-1.11.53-2.059.427-2.935-.177-1.475-2.253-2.532-2.381-4.151 1.279-.021 2.206-.397 2.381-1.526-.372.112-.404.704-.795.975-.572.403-1.368.405-2.26.304-.135-.031-.084.119-.183.122-.992-.208-1.959.274-2.809-.184-.173.015-.077.293-.306.247-.119-.125-.286-.201-.426-.307-1.824.646-2.3-2.733-4.334-1.528-.188-.43.333-.682.671-.794-.117-.267-.538-.233-.793-.365.064-.322.481-.289.793-.368.05-.292-.65-.363-.793-.67.381-.15.89-.023 1.162.123zm11.606-5.804c-.136-.009-.134-.151-.123-.305-.166-.043-.123.121-.243.123.02.395.705.384.791.06-.061-.03-.201-.275-.243-.124.153.063-.049.272-.182.246zm-3.36.733c.189-.014.19-.216.246-.365h-.246v.365zm.549 0c.2-.003.232-.173.242-.365h-.242v.365zm.123 1.162h.244a.58.58 0 0 0-.182-.365c0 .141-.105.178-.062.365zm-.552 0h.246c-.021-.141-.063-.264-.183-.306a.418.418 0 0 0-.063.306zm.919 0c.402-.003.879.066.975-.247-.301-.084-.711-.057-1.098-.06-.01.153.094.189.123.307zm-.43 0v-.247h-.182c-.016.163.023.266.182.247z"/><path fill="#FFF" d="M17.508 7.529h.246c-.056.15-.056.354-.246.365v-.365zm.549 0h.242c-.01.193-.042.362-.242.365v-.365zm.181 1.161a.596.596 0 0 1 .186.365h-.244c-.043-.184.062-.221.058-.365zm-.364.368h-.246a.392.392 0 0 1 .063-.306"/><path fill="#131819" d="M17.936 8.811h.182v.247c-.16.019-.199-.084-.182-.247zm1.16 13.009c-3.521-.299-3.483 3.748-2.81 6.595-.636.724-2.355.714-3.603.548-.527-.068-.979-.066-1.16.488-.236-.07-.212-.514-.123-.73-.143-.101-.393.217-.611.242-.069-.414.133-.559.243-.79-.324.022-.512.179-.792.244.077-.37.262-.636.609-.731-.091-.191-.468-.104-.732-.119.027-.385.363-.455.732-.491-.097-.226-.461-.191-.67-.306.979-.812 2.506.604 3.359-.062.141.145.162.406.365.491.182-.75-.837-1.417-.365-2.261-.117-.117-.154-.008-.306 0-.036-.362.07-.584.184-.793-.062-.103-.259-.067-.368-.123.088-.244.376-.715-.062-.795.112-.213.298-.354.368-.61.046-.251-.293-.114-.246-.364.165-.199.308-.425.487-.611.046-.207-.249-.074-.183-.305.168-.221.382-.393.55-.611-.017-.127-.164-.121-.243-.184.575-.734 1.833-1.396 3.113-1.344.299.014.792.005 1.099.121.527.201 1.37 1.562 1.165 2.501z"/><path fill="#FFF" d="M21.05 6.92c.042-.154.185.091.243.121-.086.324-.773.333-.791-.06.119-.002.077-.168.243-.123-.011.154-.013.298.123.306.133.025.335-.184.182-.244z"/><path fill="#CCC" d="M17.5 1C26.6 1 34 8.401 34 17.5 34 26.6 26.6 34 17.5 34 8.402 34 1 26.598 1 17.5 1 8.402 8.402 1 17.5 1m0-1C7.835 0 0 7.834 0 17.5 0 27.164 7.835 35 17.5 35S35 27.164 35 17.5C35 7.834 27.165 0 17.5 0z"/></svg>