<svg xmlns="http://www.w3.org/2000/svg" width="35" height="35"><path fill="#FFF" d="M.125 17.5v.012-.012z"/><path fill="#2CB75E" d="M.125 17.512C.132 27.135 7.908 34.938 17.5 34.938c9.596 0 17.375-7.809 17.375-17.438H.125v.012z"/><path fill="#FFF" d="M17.5.062C7.921.062.154 7.842.127 17.451h34.745C34.848 7.842 27.081.062 17.5.062zM.125 17.488v.012zm0-.036zm34.747 0c0 .018.003.033.003.049v-.049h-.003z"/><path fill="#FFF" d="M.127 17.452l-.002.037v.011h34.75c0-.016-.003-.031-.003-.049l-34.745.001z"/><path d="M10.062 8.14c0 .059.039.099.112.118.078.022.203.031.376.031h.16a.67.67 0 0 0 .183-.022.367.367 0 0 0 .137-.08.56.56 0 0 0 .108-.146c.032-.059.064-.129.096-.211.006-.025.028-.036.062-.036a.12.12 0 0 1 .052.013c.02.008.039.018.059.024a3.332 3.332 0 0 0-.062.302 8.898 8.898 0 0 0-.048.315c-.002.036-.013.056-.027.064a.097.097 0 0 1-.049.013c-.023 0-.056 0-.095-.004a2.247 2.247 0 0 1-.133-.007 2.422 2.422 0 0 1-.145-.007 3.165 3.165 0 0 0-.128-.003h-.956c-.083 0-.176.002-.28.007-.105.003-.2.01-.285.015a.1.1 0 0 1-.008-.046v-.042c0-.042.014-.065.043-.067.106-.023.182-.042.228-.066.047-.022.071-.062.071-.119V6.028c0-.03-.003-.053-.008-.072s-.017-.036-.035-.049a.19.19 0 0 0-.078-.036.918.918 0 0 0-.142-.029c-.028-.008-.043-.033-.043-.073v-.04a.13.13 0 0 1 .008-.046 10.699 10.699 0 0 0 .556.02h.137l.156-.004c.056-.003.111-.003.165-.008.056-.001.105-.006.149-.008a.335.335 0 0 1 .006.047.38.38 0 0 1 .003.039c0 .04-.014.066-.043.073-.12.018-.2.04-.242.067-.04.026-.062.069-.062.127V8.14h.002zm2.355.047c0 .028.001.051.006.07.002.02.015.036.033.05a.23.23 0 0 0 .08.038c.036.01.083.019.143.028.027.005.042.03.042.073 0 .008 0 .021-.002.039s-.003.03-.007.042c-.089-.004-.186-.011-.288-.015a5.534 5.534 0 0 0-.547 0c-.101.003-.196.01-.286.015a.081.081 0 0 1-.009-.042v-.039c0-.045.015-.07.043-.073.058-.01.105-.018.142-.028a.173.173 0 0 0 .077-.038.1.1 0 0 0 .033-.049.274.274 0 0 0 .01-.07v-2.16a.235.235 0 0 0-.01-.072.097.097 0 0 0-.033-.048.195.195 0 0 0-.078-.037.918.918 0 0 0-.142-.029c-.028-.008-.043-.034-.043-.073v-.04c0-.017.002-.033.009-.046a10.771 10.771 0 0 0 .559.02c.079 0 .17 0 .273-.006.103-.004.199-.009.289-.015.003.014.004.03.006.047.002.018.002.031.002.039 0 .039-.014.065-.042.072-.059.009-.105.02-.141.03a.211.211 0 0 0-.081.037c-.018.014-.03.03-.034.049s-.006.042-.006.072v2.159h.002zm2.124-1.178c.117.012.227.036.327.071a.89.89 0 0 1 .26.143.597.597 0 0 1 .232.476c0 .13-.025.249-.074.348a.693.693 0 0 1-.207.252.94.94 0 0 1-.323.153 1.577 1.577 0 0 1-.421.051h-.728a5.486 5.486 0 0 0-.351.013l-.101.007c-.035.002-.067.002-.097.002l-.004-.031a.103.103 0 0 1-.003-.022v-.02c0-.032.005-.052.016-.062a.06.06 0 0 1 .035-.02.569.569 0 0 0 .208-.061c.041-.026.062-.067.062-.125V6.028c0-.06-.019-.1-.056-.124a.609.609 0 0 0-.215-.063c-.022-.004-.037-.017-.042-.031a.172.172 0 0 1-.009-.06v-.018a.06.06 0 0 1 .003-.02c0-.011.001-.021.004-.03a9.04 9.04 0 0 0 .543.021h.582c.18 0 .328.019.445.054.12.037.212.085.282.149.071.062.12.136.15.217a.761.761 0 0 1 .044.256.52.52 0 0 1-.161.399.971.971 0 0 1-.403.217v.014h.002zm-.575-.081a.787.787 0 0 0 .274-.043.434.434 0 0 0 .267-.289.663.663 0 0 0-.003-.387.395.395 0 0 0-.1-.152.493.493 0 0 0-.178-.102.84.84 0 0 0-.262-.037h-.067v1.01h.069zm-.068 1.216c0 .065.03.106.091.126a.724.724 0 0 0 .208.027c.193 0 .337-.043.436-.127.096-.084.143-.221.143-.411a.638.638 0 0 0-.054-.272.539.539 0 0 0-.348-.305.764.764 0 0 0-.249-.04h-.228l.001 1.002zm2.618-2.225v1.038h.593c.053 0 .091-.021.109-.067a.885.885 0 0 0 .051-.217c0-.023.011-.039.025-.045a.116.116 0 0 1 .055-.011c.008 0 .021 0 .039.002a.132.132 0 0 1 .041.006c-.007.067-.011.143-.017.231-.003.087-.007.161-.007.221a4.286 4.286 0 0 0 .024.423.098.098 0 0 1-.041.01h-.039c-.051 0-.08-.019-.08-.06-.018-.109-.037-.183-.058-.222s-.057-.058-.104-.058h-.594v.966c0 .061.036.1.109.12.072.02.196.031.37.031h.178a.571.571 0 0 0 .214-.035.451.451 0 0 0 .152-.098.856.856 0 0 0 .116-.146c.031-.055.067-.117.102-.186.006-.021.025-.03.059-.03.016 0 .031.002.054.012a.36.36 0 0 0 .06.025.694.694 0 0 0-.021.065.41.41 0 0 0-.021.062.374.374 0 0 0-.031.101c-.011.038-.016.068-.024.092-.006.028-.014.062-.02.096-.008.037-.016.071-.021.102l-.021.09a.15.15 0 0 1-.016.05c-.01.023-.03.036-.066.036a1.34 1.34 0 0 1-.094-.004l-.138-.007a2.509 2.509 0 0 1-.15-.007c-.051-.001-.093-.004-.129-.004h-.958c-.083 0-.175.003-.279.007-.105.003-.2.011-.284.016a.104.104 0 0 1-.007-.046v-.042c0-.042.013-.065.041-.069a1.06 1.06 0 0 0 .231-.065c.045-.023.068-.062.068-.12V6.028a.152.152 0 0 0-.013-.072.101.101 0 0 0-.047-.047.562.562 0 0 0-.092-.034c-.038-.009-.086-.021-.146-.032-.027-.007-.042-.035-.042-.079v-.04c0-.012.003-.027.009-.042a9.863 9.863 0 0 0 .559.021h.865c.126 0 .235-.004.327-.013.09-.009.153-.014.188-.014a.07.07 0 0 1 .066.039c.008.023.016.065.021.127s.014.125.027.192l.031.143c.01.045.025.102.051.168-.014.006-.028.012-.047.018a.151.151 0 0 1-.05.007c-.027 0-.052-.012-.064-.039a1.337 1.337 0 0 0-.1-.191.497.497 0 0 0-.108-.128.346.346 0 0 0-.143-.072.792.792 0 0 0-.195-.021h-.568zm2.729 1.337h-.183v.9c0 .065.025.112.084.14a.967.967 0 0 0 .279.066c.039.005.061.036.061.086 0 .022-.006.05-.014.079a12.225 12.225 0 0 0-.701-.023 6.912 6.912 0 0 0-.557.023.091.091 0 0 1-.01-.04v-.035c0-.049.018-.076.047-.082.061-.012.105-.023.145-.032a.267.267 0 0 0 .084-.036.083.083 0 0 0 .039-.047.182.182 0 0 0 .013-.07V6.028c0-.06-.022-.101-.062-.126a.603.603 0 0 0-.232-.061c-.014-.004-.023-.015-.033-.025a.116.116 0 0 1-.014-.061v-.039c0-.015.002-.026.011-.035a7.357 7.357 0 0 0 .547.021h.634c.15 0 .283.02.402.057a.871.871 0 0 1 .301.158.71.71 0 0 1 .191.247c.043.094.062.2.062.316a.68.68 0 0 1-.137.414.854.854 0 0 1-.377.283l.659.986a.42.42 0 0 0 .179.155c.065.029.127.049.178.064.019.003.027.01.037.02.009.01.015.027.015.054v.039a.09.09 0 0 1-.009.043l-.131-.006c-.056 0-.114-.002-.172-.006-.063-.001-.125-.004-.185-.006h-.147c-.062 0-.117-.026-.177-.077a1.09 1.09 0 0 1-.176-.201l-.651-.986zm-.056-.218c.086 0 .166-.007.236-.024a.475.475 0 0 0 .182-.088.379.379 0 0 0 .113-.167.763.763 0 0 0 .041-.263c0-.179-.041-.317-.127-.422-.084-.104-.232-.155-.443-.155h-.127v1.119h.125zm3.144-1.119v2.267c0 .028.004.051.006.07.004.019.021.036.035.049a.196.196 0 0 0 .065.038c.033.009.078.019.136.028.041.008.062.033.062.072 0 .008-.003.021-.003.039-.002.017-.002.03-.002.042-.094-.004-.19-.011-.293-.016-.103-.005-.188-.005-.271-.005s-.172.002-.271.007c-.1.005-.195.01-.283.016a.13.13 0 0 1-.014-.042c-.002-.018-.002-.031-.002-.04 0-.02.004-.036.014-.049.006-.014.021-.021.055-.029.104-.015.17-.033.197-.06.027-.022.041-.064.041-.122V5.919h-.373a.783.783 0 0 0-.201.023.463.463 0 0 0-.143.074.497.497 0 0 0-.105.128 3.105 3.105 0 0 0-.102.191.064.064 0 0 1-.062.04.198.198 0 0 1-.059-.012c-.021-.007-.039-.013-.051-.019.021-.07.037-.129.051-.183.014-.053.023-.106.033-.156.014-.067.021-.126.025-.178a.817.817 0 0 1 .02-.112c.01-.026.033-.039.066-.039.031 0 .092.005.184.012.092.009.201.013.33.013h1.299c.127 0 .236-.004.328-.013.09-.007.152-.012.186-.012.029 0 .056.012.07.039.006.022.014.06.016.112.009.051.015.109.029.178.008.05.021.104.031.156.012.054.029.114.053.183l-.053.019a.188.188 0 0 1-.057.012c-.033 0-.053-.014-.066-.04a2.073 2.073 0 0 0-.098-.191.614.614 0 0 0-.109-.128.468.468 0 0 0-.146-.074.717.717 0 0 0-.194-.023h-.374zm2.17 0v1.038h.593c.057 0 .092-.021.11-.067a.786.786 0 0 0 .053-.217c.005-.023.011-.039.023-.045a.122.122 0 0 1 .055-.011c.011 0 .022 0 .039.002.019.001.033.002.039.006-.006.067-.008.143-.017.231-.006.087-.006.161-.006.221 0 .052 0 .113.006.183.002.071.011.149.017.24-.006.005-.021.009-.039.01h-.039c-.051 0-.075-.019-.078-.06-.021-.109-.038-.183-.059-.222s-.057-.058-.104-.058h-.593v.966c0 .061.039.1.108.12.072.02.193.031.371.031h.177a.545.545 0 0 0 .213-.035.446.446 0 0 0 .153-.098.921.921 0 0 0 .119-.146c.031-.055.068-.117.101-.186.01-.021.028-.03.06-.03.016 0 .03.002.051.012.02.009.039.019.061.025l-.018.065a.329.329 0 0 0-.023.062.461.461 0 0 0-.031.101 1.222 1.222 0 0 1-.023.092c-.008.028-.012.062-.02.096l-.02.102c-.01.035-.014.064-.021.09-.012.026-.014.043-.018.05-.01.023-.031.036-.066.036a1.46 1.46 0 0 1-.096-.004l-.137-.007a2.509 2.509 0 0 1-.15-.007c-.049-.001-.096-.004-.129-.004h-.957c-.08 0-.174.003-.279.007-.104.003-.201.011-.281.016a.081.081 0 0 1-.014-.046v-.042c0-.042.016-.065.045-.069a1.03 1.03 0 0 0 .23-.065c.045-.024.068-.062.068-.12V6.028a.164.164 0 0 0-.015-.072c-.008-.019-.022-.034-.049-.047a.576.576 0 0 0-.093-.034c-.038-.009-.088-.021-.146-.032-.026-.007-.043-.035-.043-.079v-.04a.08.08 0 0 1 .015-.042 9.53 9.53 0 0 0 .553.021h.86c.127 0 .238-.004.328-.013a2.45 2.45 0 0 1 .189-.014c.029 0 .055.014.066.039a.349.349 0 0 1 .021.127c.006.062.019.125.03.192.009.049.019.095.025.143.012.045.029.102.053.168-.014.006-.028.012-.049.018a.114.114 0 0 1-.049.008.073.073 0 0 1-.068-.039.894.894 0 0 0-.1-.191.373.373 0 0 0-.109-.128.326.326 0 0 0-.141-.072.838.838 0 0 0-.199-.021l-.553-.001zm.451-1.142a.418.418 0 0 1 .198.13.255.255 0 0 1 .064.155.143.143 0 0 1-.027.09.166.166 0 0 1-.086.056 3.282 3.282 0 0 0-.17.049l-.147.048a1.693 1.693 0 0 0-.154.061c-.055.023-.114.049-.187.078-.021-.021-.045-.039-.051-.057-.007-.017-.014-.033-.014-.047 0-.021.011-.042.021-.055l.553-.508zm-9.07 4.724v1.037h.592c.054 0 .092-.021.112-.066a.918.918 0 0 0 .049-.217c.002-.022.012-.039.025-.045a.123.123 0 0 1 .055-.01h.042a.12.12 0 0 1 .04.006 3.299 3.299 0 0 0-.014.231 3.901 3.901 0 0 0-.003.406c.002.07.01.149.017.239a.095.095 0 0 1-.04.01c-.02.003-.032.003-.042.003-.05 0-.077-.019-.08-.059a.752.752 0 0 0-.056-.223c-.021-.038-.056-.057-.105-.057h-.594v.965c0 .059.037.099.112.119.071.021.196.031.369.031h.178a.504.504 0 0 0 .365-.132.746.746 0 0 0 .118-.147 2.42 2.42 0 0 0 .103-.187c.007-.021.026-.029.059-.029.016 0 .03.002.052.011.019.01.038.018.058.027a3.832 3.832 0 0 0-.019.065c-.008.02-.013.039-.019.06a.64.64 0 0 0-.035.102.762.762 0 0 1-.024.091l-.019.096a1.146 1.146 0 0 0-.021.105l-.021.087a.435.435 0 0 1-.015.052c-.01.022-.033.035-.068.035-.021 0-.054 0-.094-.004-.042-.003-.088-.004-.139-.006-.049 0-.098-.003-.149-.007a3.337 3.337 0 0 0-.129-.003h-.956c-.081 0-.175.001-.281.006-.105.005-.2.01-.283.016-.009-.012-.01-.026-.01-.044v-.042c0-.042.014-.066.042-.068a.908.908 0 0 0 .229-.065c.047-.021.072-.062.072-.121v-2.16a.18.18 0 0 0-.013-.071.102.102 0 0 0-.049-.047.43.43 0 0 0-.091-.036 1.828 1.828 0 0 0-.146-.031c-.03-.008-.043-.035-.043-.075v-.043c0-.012 0-.026.01-.041.118.007.226.015.318.017.092.004.172.005.24.005h.863c.126 0 .235-.005.327-.015.091-.007.154-.012.189-.012.028 0 .052.012.064.04.01.022.016.067.022.126.006.061.015.126.028.192.01.049.019.096.03.141.011.047.027.103.05.17l-.045.017a.224.224 0 0 1-.051.007c-.031 0-.054-.012-.068-.038a1.175 1.175 0 0 0-.099-.192.577.577 0 0 0-.108-.131.427.427 0 0 0-.145-.071.733.733 0 0 0-.194-.021l-.562.001zm3.178 0v2.265c0 .03 0 .052.004.072a.104.104 0 0 0 .033.049.205.205 0 0 0 .069.037.73.73 0 0 0 .131.028c.041.008.062.034.062.072v.039l-.01.043c-.092-.004-.186-.01-.287-.016-.104-.003-.192-.006-.272-.006s-.172.002-.271.006l-.285.016c-.004-.013-.01-.026-.01-.043l-.002-.039c0-.018.002-.035.01-.049.009-.013.025-.022.057-.028.105-.014.17-.034.193-.058.027-.024.043-.064.043-.124V9.501h-.373a.767.767 0 0 0-.198.022.463.463 0 0 0-.142.072.478.478 0 0 0-.109.129 1.177 1.177 0 0 0-.098.192c-.016.026-.033.039-.064.039a.207.207 0 0 1-.06-.011.65.65 0 0 1-.051-.019c.021-.068.036-.129.051-.183a1.2 1.2 0 0 0 .034-.158c.014-.065.02-.125.023-.174a.943.943 0 0 1 .021-.113c.014-.027.034-.04.07-.04.029 0 .091.004.183.013.092.01.2.014.329.014h1.297c.127 0 .236-.004.326-.014a2.25 2.25 0 0 1 .188-.013c.028 0 .055.013.065.04.013.022.017.06.021.113.004.05.015.108.028.174l.027.158c.016.054.031.116.055.183-.016.006-.028.012-.055.019a.206.206 0 0 1-.055.011.072.072 0 0 1-.066-.039 1.414 1.414 0 0 0-.098-.192.508.508 0 0 0-.111-.129.395.395 0 0 0-.145-.072.65.65 0 0 0-.195-.022h-.363zm-7.574 4.991v.828c0 .065.027.112.083.14.055.026.147.048.279.065.04.005.058.035.058.085 0 .022-.002.05-.008.078l-.305-.017a13.477 13.477 0 0 0-.692 0c-.094.005-.183.011-.264.017a.075.075 0 0 1-.008-.039v-.037c0-.048.016-.075.046-.08.059-.011.106-.022.143-.032a.297.297 0 0 0 .085-.036.086.086 0 0 0 .04-.047.206.206 0 0 0 .01-.071V13.19c0-.057-.021-.099-.061-.125a.612.612 0 0 0-.235-.06.088.088 0 0 1-.032-.026c-.008-.011-.013-.031-.013-.06v-.038a.08.08 0 0 1 .008-.036 10.332 10.332 0 0 0 .549.023h.636c.299 0 .534.069.703.206.168.139.253.331.253.578a.87.87 0 0 1-.062.322.741.741 0 0 1-.189.266.955.955 0 0 1-.3.184 1.107 1.107 0 0 1-.404.069l-.32-.001zm.127-.216c.17 0 .31-.043.417-.133.104-.089.157-.239.157-.452 0-.193-.042-.342-.125-.449-.082-.104-.231-.158-.448-.158h-.127v1.194h.127l-.001-.002zm2.561.443h-.885l-.219.6a.22.22 0 0 0-.019.047l-.003.04c0 .031.015.057.045.078a.496.496 0 0 0 .178.05c.039.005.059.033.059.08 0 .02-.002.044-.007.074-.076-.005-.156-.01-.241-.017-.084-.002-.166-.004-.249-.004a2.894 2.894 0 0 0-.383.02.074.074 0 0 1-.009-.038v-.036c0-.053.018-.083.054-.085a.801.801 0 0 0 .188-.056.215.215 0 0 0 .091-.104l1.014-2.481c.021-.049.058-.073.101-.073l.043.002a.2.2 0 0 1 .046.006l1.015 2.56a.172.172 0 0 0 .096.097.572.572 0 0 0 .156.044c.042.009.062.038.062.085a.396.396 0 0 1-.008.078 7.804 7.804 0 0 1-.267-.017 7.042 7.042 0 0 0-.243-.005c-.041 0-.086 0-.143.002l-.173.005-.174.007c-.056 0-.107.002-.146.005a.076.076 0 0 1-.009-.038v-.036c0-.024.004-.044.016-.056a.056.056 0 0 1 .031-.025.593.593 0 0 0 .162-.049c.036-.02.054-.047.054-.084 0-.018-.006-.038-.012-.065l-.221-.611zm-.079-.214l-.357-.969-.368.969h.725zm2.43-1.421v2.266c0 .027.002.053.007.071a.07.07 0 0 0 .032.049c.016.016.04.029.071.038a.72.72 0 0 0 .13.027c.042.008.063.032.063.072 0 .008 0 .021-.004.039a.163.163 0 0 1-.005.043 12.77 12.77 0 0 1-.288-.017 9.6 9.6 0 0 0-.543 0 7.44 7.44 0 0 0-.285.017c-.003-.011-.008-.025-.009-.043l-.002-.039c0-.019.004-.037.012-.049.006-.014.024-.022.056-.029.105-.014.17-.033.196-.058.027-.024.041-.064.041-.124v-2.265h-.373a.773.773 0 0 0-.2.022.427.427 0 0 0-.253.202 1.777 1.777 0 0 0-.098.192c-.013.027-.033.039-.063.039a.173.173 0 0 1-.059-.011c-.022-.007-.041-.013-.051-.018.02-.069.038-.13.051-.184.015-.052.025-.105.033-.158.011-.065.021-.125.025-.177a.533.533 0 0 1 .02-.111c.012-.025.034-.039.068-.039.032 0 .092.003.182.014.091.009.203.013.332.013h1.297c.127 0 .236-.004.328-.013.09-.009.153-.014.188-.014a.07.07 0 0 1 .065.039.533.533 0 0 1 .02.111c.004.053.014.111.029.177.008.053.018.105.028.158.013.054.028.115.054.184a.676.676 0 0 1-.054.018.174.174 0 0 1-.057.011c-.03 0-.054-.012-.064-.039a1.844 1.844 0 0 0-.1-.192.536.536 0 0 0-.109-.128.428.428 0 0 0-.144-.074.71.71 0 0 0-.196-.022h-.371v.002zm2.35 1.335h-.184v.901c0 .065.027.112.084.14.057.026.148.048.279.065.041.005.06.035.06.085a.39.39 0 0 1-.009.078 55.36 55.36 0 0 1-.307-.017 24.073 24.073 0 0 0-.398-.004c-.102 0-.196.002-.293.004l-.263.017c-.007-.011-.007-.022-.007-.039v-.037c0-.048.017-.075.046-.08.059-.011.107-.022.143-.032a.29.29 0 0 0 .084-.036.08.08 0 0 0 .041-.047.2.2 0 0 0 .013-.071V13.19c0-.057-.022-.099-.063-.125-.035-.027-.118-.046-.23-.06a.073.073 0 0 1-.033-.027c-.01-.011-.014-.03-.014-.06v-.037c0-.015 0-.026.008-.036a9.892 9.892 0 0 0 .546.023h.637c.148 0 .281.018.4.056.119.037.219.09.301.159a.666.666 0 0 1 .191.245c.043.094.064.2.064.315 0 .152-.046.291-.138.416s-.217.218-.377.283l.66.986c.053.073.11.126.176.156a.98.98 0 0 0 .187.063c.012.002.022.01.028.02.011.01.017.028.017.054v.039a.081.081 0 0 1-.01.042 2.164 2.164 0 0 0-.132-.008c-.055 0-.112-.002-.174-.006-.062-.002-.121-.004-.183-.004-.062-.002-.11-.002-.147-.002-.062 0-.116-.025-.178-.077a.955.955 0 0 1-.173-.2l-.652-.986zm-.055-.216a.892.892 0 0 0 .234-.026.394.394 0 0 0 .299-.254.757.757 0 0 0 .041-.26.667.667 0 0 0-.129-.423c-.084-.103-.233-.153-.442-.153h-.13v1.12h.13v-.002h-.003v-.002zm2.75 1.147c0 .027.005.053.009.071s.015.036.03.049a.202.202 0 0 0 .082.038.96.96 0 0 0 .144.027c.022.004.041.03.041.072l-.002.039c-.004.018-.004.032-.006.043a11.06 11.06 0 0 1-.289-.017 9.736 9.736 0 0 0-.544 0 7.2 7.2 0 0 0-.287.017.09.09 0 0 1-.008-.043v-.039c0-.045.016-.07.043-.072.055-.01.104-.018.139-.027a.18.18 0 0 0 .08-.038.102.102 0 0 0 .033-.049c.008-.02.008-.043.008-.071v-2.158c0-.029 0-.053-.008-.07a.136.136 0 0 0-.033-.051.193.193 0 0 0-.08-.037 1.123 1.123 0 0 0-.139-.028c-.027-.009-.043-.035-.043-.072v-.039a.13.13 0 0 1 .008-.049c.09.007.186.011.287.017a7.045 7.045 0 0 0 .833-.017c.002.017.002.032.006.049l.002.039c0 .038-.019.064-.041.072a1.082 1.082 0 0 0-.144.028.202.202 0 0 0-.082.037.08.08 0 0 0-.03.051.299.299 0 0 0-.009.07v2.158zm1.507-2.266v1.039h.592c.056 0 .091-.022.106-.069a.817.817 0 0 0 .054-.216.06.06 0 0 1 .024-.045.112.112 0 0 1 .056-.011c.008 0 .021 0 .041.002.016 0 .026.002.039.006a5.026 5.026 0 0 0-.025.452c0 .052.002.112.006.183 0 .071.006.151.019.241-.013.004-.023.008-.039.009l-.041.003c-.052 0-.078-.02-.08-.062a.687.687 0 0 0-.06-.22c-.02-.039-.055-.059-.102-.059h-.594v.965c0 .06.035.1.105.122.073.02.198.03.371.03h.178a.579.579 0 0 0 .213-.035.49.49 0 0 0 .156-.098.617.617 0 0 0 .116-.146 3.87 3.87 0 0 0 .101-.188c.012-.021.029-.031.061-.031a.13.13 0 0 1 .051.014c.018.009.037.019.057.026a.154.154 0 0 1-.02.065c-.006.02-.01.04-.018.06a.67.67 0 0 0-.033.104l-.025.089c-.008.029-.01.062-.02.099-.004.036-.014.069-.018.103a.503.503 0 0 0-.021.088.182.182 0 0 0-.016.052c-.015.023-.033.035-.066.035-.023 0-.057 0-.098-.004l-.139-.006c-.05 0-.101-.003-.146-.007l-.133-.002h-.955a7.295 7.295 0 0 0-.566.022.091.091 0 0 1-.008-.044v-.042c0-.043.014-.065.043-.069a.897.897 0 0 0 .23-.066c.047-.021.067-.061.067-.119v-2.159a.144.144 0 0 0-.012-.07.11.11 0 0 0-.05-.048.532.532 0 0 0-.094-.036l-.146-.031c-.027-.009-.041-.035-.041-.079v-.039c0-.014 0-.026.008-.042a5.412 5.412 0 0 0 .561.022h.861c.127 0 .234-.003.324-.012a2 2 0 0 1 .191-.014c.026 0 .053.014.065.038a.588.588 0 0 1 .019.127c.006.062.021.125.033.192.004.049.018.094.026.142.013.044.026.103.054.167-.017.006-.029.012-.05.018a.157.157 0 0 1-.049.008c-.033 0-.058-.013-.067-.039a1.975 1.975 0 0 0-.099-.192.44.44 0 0 0-.256-.201.854.854 0 0 0-.195-.02h-.555v-.002h.009z" fill="#FFD730" stroke="#0D0E0F" stroke-width=".059"/><path fill="#CCC" d="M17.5.97C26.6.97 34 8.371 34 17.47c0 9.096-7.4 16.5-16.5 16.5-9.098 0-16.5-7.404-16.5-16.5C1 8.372 8.402.97 17.5.97m0-1C7.835-.03 0 7.805 0 17.47c0 9.663 7.835 17.5 17.5 17.5S35 27.133 35 17.47c0-9.665-7.835-17.5-17.5-17.5z"/></svg>