<?xml version="1.0" encoding="utf-8"?>
<!-- Generator: Adobe Illustrator 16.0.4, SVG Export Plug-In . SVG Version: 6.00 Build 0)  -->
<!DOCTYPE svg PUBLIC "-//W3C//DTD SVG 1.1//EN" "http://www.w3.org/Graphics/SVG/1.1/DTD/svg11.dtd">
<svg version="1.1" id="Layer_1" xmlns="http://www.w3.org/2000/svg" xmlns:xlink="http://www.w3.org/1999/xlink" x="0px" y="0px"
	 width="490px" height="490px" viewBox="0 0 490 490" enable-background="new 0 0 490 490" xml:space="preserve">
<g>
	<g id="XMLID_1_">
		<g>
			<path fill="#FFFFFF" d="M376.5,172.9L306.2,186c123,238.5-104.5,242.5-146.2,190.9c20,14.1,184.6,57.1,79.2-161.3l-56,42.6
				c0,0,4.3-23.8,10.4-57.7c6.1-34,14.1-78.1,21.4-118.8C283.2,117.3,376.5,172.9,376.5,172.9z"/>
			<path fill="#3F9FD7" d="M245,2.5c133.9,0,242.5,108.6,242.5,242.5c0,133.9-112.2,242.5-246.1,242.5
				C107.5,487.5,2.5,378.9,2.5,245C2.5,111.1,111.1,2.5,245,2.5z M306.2,186l70.3-13.1L214.9,81.6l-31.8,176.6l56-42.6
				C344.6,434,180,391.1,160,376.9C201.7,428.5,429.2,424.5,306.2,186z"/>
		</g>
	</g>
</g>
</svg>
