<?xml version="1.0" encoding="utf-8"?>
<!-- Generator: Adobe Illustrator 16.0.4, SVG Export Plug-In . SVG Version: 6.00 Build 0)  -->
<!DOCTYPE svg PUBLIC "-//W3C//DTD SVG 1.1//EN" "http://www.w3.org/Graphics/SVG/1.1/DTD/svg11.dtd">
<svg version="1.1" id="Layer_1" xmlns="http://www.w3.org/2000/svg" xmlns:xlink="http://www.w3.org/1999/xlink" x="0px" y="0px"
	 width="490px" height="490px" viewBox="0 0 490 490" enable-background="new 0 0 490 490" xml:space="preserve">
<g>
	<path fill="#52B532" d="M487.5,245c0,133.9-108.6,242.5-242.5,242.5C111.1,487.5,2.5,378.9,2.5,245C2.5,111.1,111.1,2.5,245,2.5
		C378.9,2.5,487.5,111.1,487.5,245z"/>
	<path fill="#FFFFFF" d="M290.8,72.9c-12.6,13.9-16.8,33.5-11.1,51.4c0.2,0.7,0.4,1.4,0.6,2.1c-9.3,7.9-21.5,18.6-33,30.2
		c-14.7,14.7-28.3,30.6-36.2,40.2c-6.5-1.6-13.1-2.7-19.8-3.1c-12.7-0.4-25.6,4.8-34.8,13.6l55.1,55.1L107.5,388.7l126.3-104.1
		l55.1,55.1c12.6-13.9,16.8-33.5,11.1-51.4c-0.3-1.1-0.6-2.2-1-3.3c9.5-7.8,25.2-21.2,39.7-35.7c11.6-11.6,22.4-23.9,30.4-33.3
		c6.3,1.6,12.7,2.6,19.3,3c12.7,0.4,25.6-4.8,34.8-13.6L290.8,72.9z"/>
</g>
</svg>
