<?xml version="1.0" encoding="utf-8"?>
<!-- Generator: Adobe Illustrator 16.0.4, SVG Export Plug-In . SVG Version: 6.00 Build 0)  -->
<!DOCTYPE svg PUBLIC "-//W3C//DTD SVG 1.1//EN" "http://www.w3.org/Graphics/SVG/1.1/DTD/svg11.dtd">
<svg version="1.1" id="Layer_1" xmlns="http://www.w3.org/2000/svg" xmlns:xlink="http://www.w3.org/1999/xlink" x="0px" y="0px"
	 width="490px" height="490px" viewBox="0 0 490 490" enable-background="new 0 0 490 490" xml:space="preserve">
<g>
	<path fill="#FFC31A" d="M487.7,244.1c0,133.9-108.6,242.5-242.5,242.5C111.2,486.6,2.7,378,2.7,244.1
		C2.7,110.2,111.2,1.6,245.2,1.6C379.1,1.6,487.7,110.2,487.7,244.1z"/>
	<path fill="#FFFFFF" d="M378.9,144.4h-13.3v-29.3c0-7.3-5.9-13.3-13.3-13.3H105.9c-7.3,0-13.3,5.9-13.3,13.3v69.6
		c0,7.3,5.9,13.3,13.3,13.3h246.5c7.3,0,13.3-5.9,13.3-13.3v-29.3h13.3c4.3,0,7.7,3.5,7.7,7.7v54.2c0,7.7-2.1,10.6-8.9,12.3
		l-144.1,24.3c-11.4,2.1-17.3,9.8-17.3,23v12.6h-7.5c-2.9,0-5.2,2.3-5.2,5.2v112.7c0,2.9,2.3,5.2,5.2,5.2h24.2
		c2.9,0,5.2-2.3,5.2-5.2V294.7c0-2.9-2.3-5.2-5.2-5.2h-5.6v-12.6c0-9.6,3.7-11.3,8-12.1v0l144.3-24.3l0.4-0.1
		c11.9-2.9,17.5-10.2,17.5-23.1v-54.2C397.7,152.8,389.3,144.4,378.9,144.4z"/>
</g>
</svg>
