<?xml version="1.0" encoding="utf-8"?>
<!-- Generator: Adobe Illustrator 20.1.0, SVG Export Plug-In . SVG Version: 6.00 Build 0)  -->
<svg version="1.1" id="Layer_1" xmlns:sketch="http://www.bohemiancoding.com/sketch/ns"
	 xmlns="http://www.w3.org/2000/svg" xmlns:xlink="http://www.w3.org/1999/xlink" x="0px" y="0px" width="30px" height="30px"
	 viewBox="0 0 30 30" enable-background="new 0 0 30 30" xml:space="preserve">
<title>Fill 16</title>
<desc>Created with Sketch.</desc>
<g id="Page-1" sketch:type="MSPage">
	<g id="_x35_4-Social-Media-Icons" transform="translate(-61.500000, -474.000000)" sketch:type="MSArtboardGroup">
		<g id="Group-19" transform="translate(62.000000, 390.643929)" sketch:type="MSLayerGroup">
			<path id="Fill-16" sketch:type="MSShapeGroup" fill="#999999" d="M17.7,98.4h-2.1v7.5h-3.1v-7.5H11v-2.6h1.5V94
				c0-1.2,0.6-3.2,3.2-3.2H18v2.6h-1.7c-0.3,0-0.6,0.1-0.6,0.7v1.6H18L17.7,98.4L17.7,98.4z M14.5,83.4c-8.3,0-15,6.7-15,15
				s6.7,15,15,15c8.3,0,15-6.7,15-15C29.6,90.1,22.8,83.4,14.5,83.4L14.5,83.4z"/>
		</g>
	</g>
</g>
</svg>
