<?xml version="1.0" encoding="utf-8"?>
<!-- Generator: Adobe Illustrator 16.0.4, SVG Export Plug-In . SVG Version: 6.00 Build 0)  -->
<!DOCTYPE svg PUBLIC "-//W3C//DTD SVG 1.1//EN" "http://www.w3.org/Graphics/SVG/1.1/DTD/svg11.dtd">
<svg version="1.1" id="Layer_1" xmlns="http://www.w3.org/2000/svg" xmlns:xlink="http://www.w3.org/1999/xlink" x="0px" y="0px"
	 width="29.883px" height="30px" viewBox="0 0 29.883 30" enable-background="new 0 0 29.883 30" xml:space="preserve">
<g>
	<path fill="#3F729B" d="M14.94,0C6.655,0,0,6.71,0,15c0,8.287,6.712,15,14.939,15c8.292,0,14.943-6.713,14.943-15
		C29.882,6.71,23.229,0,14.94,0L14.94,0z"/>
</g>
<g>
	<path fill="#FFFFFF" d="M5.186,18.218c0-2.143,0-4.285,0-6.429c0.01-0.06,0.029-0.121,0.03-0.182
		c0.023-0.754,0.057-1.507,0.243-2.244c0.416-1.662,1.38-2.871,2.964-3.556c0.859-0.371,1.773-0.479,2.697-0.517
		c0.204-0.008,0.405-0.03,0.608-0.045c2.143,0,4.284,0,6.427,0c0.061,0.01,0.121,0.026,0.183,0.033
		c0.622,0.053,1.254,0.053,1.865,0.168c2.229,0.417,3.659,1.723,4.227,3.938c0.245,0.958,0.247,1.942,0.256,2.92
		c0.02,1.915,0.016,3.832-0.016,5.746c-0.009,0.745-0.039,1.502-0.177,2.231c-0.413,2.223-1.726,3.647-3.931,4.21
		c-0.952,0.243-1.93,0.25-2.9,0.257c-2.033,0.014-4.064-0.008-6.095-0.021c-0.768-0.006-1.534-0.052-2.282-0.243
		c-1.631-0.413-2.827-1.356-3.516-2.907c-0.388-0.875-0.502-1.806-0.541-2.75C5.221,18.622,5.199,18.421,5.186,18.218z
		 M22.957,15.004c-0.012,0-0.023,0-0.03,0c0-0.814,0.015-1.626-0.007-2.438c-0.019-0.766-0.046-1.535-0.127-2.296
		c-0.075-0.736-0.334-1.413-0.833-1.981c-0.688-0.784-1.59-1.113-2.59-1.176c-1.15-0.07-2.307-0.087-3.458-0.102
		c-1.136-0.014-2.273-0.007-3.409,0.015c-0.765,0.015-1.534,0.048-2.297,0.126C9.473,7.227,8.796,7.488,8.227,7.987
		c-0.783,0.689-1.113,1.591-1.173,2.589c-0.071,1.151-0.087,2.307-0.103,3.462c-0.014,1.134-0.008,2.271,0.014,3.406
		c0.016,0.766,0.047,1.534,0.125,2.296c0.077,0.735,0.335,1.412,0.835,1.98c0.688,0.784,1.592,1.113,2.589,1.175
		c1.15,0.069,2.305,0.088,3.459,0.101c1.135,0.015,2.274,0.015,3.406-0.015c0.845-0.022,1.696-0.038,2.525-0.168
		c1.416-0.223,2.376-1.046,2.76-2.453c0.125-0.461,0.188-0.951,0.207-1.431C22.92,17.623,22.931,16.314,22.957,15.004z"/>
	<path fill="#FFFFFF" d="M19.957,15.001c0,2.777-2.244,5.02-5.022,5.018c-2.766-0.002-5.008-2.244-5.007-5.012
		c0-2.778,2.245-5.02,5.022-5.018C17.717,9.992,19.957,12.234,19.957,15.001z M11.696,15.001c0,1.774,1.452,3.248,3.209,3.249
		c1.81,0.002,3.281-1.44,3.281-3.214c0.004-1.816-1.441-3.276-3.237-3.278C13.154,11.759,11.696,13.21,11.696,15.001z"/>
	<path fill="#FFFFFF" d="M21.325,9.805c-0.004,0.65-0.535,1.176-1.188,1.169c-0.642-0.006-1.164-0.536-1.166-1.176
		c-0.003-0.648,0.53-1.178,1.182-1.176C20.805,8.624,21.327,9.151,21.325,9.805z"/>
</g>
</svg>
