<svg xmlns="http://www.w3.org/2000/svg" width="30" height="30" viewBox="0 0 29.883 30"><path fill="#CD5043" d="M15 0C6.717 0 0 6.715 0 15c0 8.284 6.717 15 15 15 8.285 0 15-6.716 15-15 0-8.285-6.715-15-15-15zm-1.033 20.268c-2.605 1.018-5.633-.017-7.023-2.396-1.463-2.5-.867-5.553 1.416-7.36 2.193-1.738 5.604-1.46 7.148.34l-1.3 1.402c-1.298-.753-2.56-1.118-3.9-.46-.933.458-1.538 1.19-1.84 2.193-.583 1.938.6 4.013 2.573 4.477 1.816.427 3.445-.544 3.74-2.312h-2.883v-1.867h5.122c.6 2.52-.695 5.063-3.05 5.983zm9.888-4.5h-1.61v1.61h-1.487v-1.61h-1.61V14.28h1.61v-1.61h1.486v1.61h1.61v1.488z"/></svg>