<svg xmlns="http://www.w3.org/2000/svg" width="30" height="30" viewBox="0 0 29.883 30">
  <path fill="#39A0CD" d="M15 0C6.716 0 0 6.716 0 15s6.716 15 15 15 15-6.716 15-15S23.284 0 15 0zm7.06 11.38c.007.156.01.312.01.47 0 4.81-3.662 10.364-10.362 10.364-2.057 0-3.972-.604-5.583-1.638.284.033.575.053.87.053 1.706 0 3.276-.59 4.523-1.567-1.594-.03-2.94-1.084-3.404-2.528.224.04.45.062.687.062.338 0 .66-.046.96-.13-1.662-.334-2.92-1.808-2.92-3.57v-.047c.49.273 1.055.436 1.65.457-.975-.653-1.62-1.77-1.62-3.034 0-.67.18-1.294.495-1.83 1.798 2.202 4.48 3.653 7.51 3.804-.064-.265-.096-.544-.096-.83 0-2.01 1.63-3.64 3.642-3.64 1.048 0 1.994.44 2.658 1.15.83-.166 1.608-.47 2.312-.885-.27.85-.85 1.563-1.6 2.013.732-.087 1.435-.28 2.09-.57-.49.733-1.107 1.373-1.82 1.89z"/>
</svg>
