<svg xmlns="http://www.w3.org/2000/svg" width="30" height="30"><g fill="#999"><path d="M18.9 11.5h1.6c.4 0 .6-.2.6-.6V9.3c0-.4-.2-.6-.6-.6h-1.6c-.4 0-.6.2-.6.6v1.6c0 .4.2.6.6.6zm-4.1 6.9c1.9 0 3.4-1.5 3.4-3.4s-1.5-3.5-3.4-3.5-3.5 1.5-3.5 3.4 1.6 3.5 3.5 3.5z"/><path d="M14.8 0C6.5 0-.2 6.7-.2 15s6.7 15 15 15 15-6.7 15-15-6.7-15-15-15zm7.4 20.3c0 1.4-.6 2-2 2H9.3c-1.3 0-2-.6-2-1.9v-11c0-1.2.6-1.9 1.9-1.9h11c1.2 0 1.9.7 1.9 1.9.1 3.6.1 7.3.1 10.9z"/><path d="M21.1 13.9h-1.8c.2.9.2 1.8-.2 2.6-.3.8-.9 1.5-1.6 2.1-.7.5-1.5.9-2.4.9-1.2 0-2.3-.3-3.2-1-1.4-1.2-1.9-2.8-1.6-4.6H8.5v6.5c0 .8.1.9.9.9h10.8c.8 0 .9-.1.9-.9v-6.5z"/></g></svg>