<svg id="Layer_1" xmlns="http://www.w3.org/2000/svg" viewBox="0 0 50 50"><style>.st0{fill:#fff}</style><path class="st0" d="M25 49.5C11.5 49.5.5 38.5.5 25S11.5.5 25 .5s24.5 11 24.5 24.5-11 24.5-24.5 24.5z"/><path d="M25 1c13.2 0 24 10.8 24 24S38.2 49 25 49 1 38.2 1 25 11.8 1 25 1m0-1C11.2 0 0 11.2 0 25s11.2 25 25 25 25-11.2 25-25S38.8 0 25 0z" fill="#ccc"/><linearGradient id="SVGID_1_" gradientUnits="userSpaceOnUse" x1="-48.67" y1="100.729" x2="-48.67" y2="100.61" gradientTransform="matrix(224 0 0 -225.72 10927 22748.72)"><stop offset="0" stop-color="#37c2f2"/><stop offset="1" stop-color="#416ab3"/></linearGradient><path d="M15.5 35.1v5.4l5-2.9c1.4.4 2.9.6 4.4.6 8.3 0 15-6.3 15-14s-6.7-14-15-14-15 6.3-15 14c.1 4.4 2.3 8.3 5.6 10.9z" fill="url(#SVGID_1_)"/><path class="st0" d="M23.5 20.1l-8.1 8.6 7.4-4 3.8 4 8-8.6-7.3 4-3.8-4z"/></svg>