<svg width="24" height="24" xmlns="http://www.w3.org/2000/svg"><defs><linearGradient x1="50%" y1="0%" x2="50%" y2="100.001%" id="a"><stop stop-color="#00B2FF" offset="0%"/><stop stop-color="#006AFF" offset="100%"/></linearGradient></defs><g fill="none" fill-rule="evenodd"><path d="M12 .48C18.336.48 23.52 5.664 23.52 12c0 6.336-5.184 11.52-11.52 11.52C5.664 23.52.48 18.336.48 12 .48 5.664 5.664.48 12 .48zM12 0C5.376 0 0 5.376 0 12s5.376 12 12 12 12-5.376 12-12S18.624 0 12 0z" fill="#CCC" fill-rule="nonzero"/><path d="M6.993.007C3.053.007 0 2.893 0 6.79c0 2.04.836 3.8 2.196 5.018a.563.563 0 01.189.398l.038 1.244a.56.56 0 00.785.495l1.387-.612a.558.558 0 01.373-.028 7.606 7.606 0 002.025.269c3.94 0 6.993-2.886 6.993-6.784 0-3.897-3.053-6.783-6.993-6.783z" fill="url(#a)" transform="translate(5 5)"/><path d="M7.794 13.774l2.055-3.258a1.05 1.05 0 011.516-.28L13 11.46a.42.42 0 00.505-.001l2.206-1.675c.294-.223.68.13.482.442l-2.053 3.257a1.05 1.05 0 01-1.517.28l-1.634-1.225a.42.42 0 00-.505.001l-2.207 1.676c-.294.224-.68-.13-.482-.442z" fill="#FFF"/></g></svg>