<svg xmlns="http://www.w3.org/2000/svg" height="50" width="50"><circle cx="25" cy="25" r="25" fill="#67bd55"/><path d="M40 24.6c0 8.1-6.6 14.6-14.7 14.6-2.6 0-5-.7-7.1-1.8L10 40l2.7-7.8c-1.3-2.2-2.1-4.8-2.1-7.5 0-8.1 6.6-14.6 14.7-14.6C33.4 10 40 16.5 40 24.6zM25.3 12.3c-6.8 0-12.4 5.5-12.4 12.3 0 2.7.9 5.2 2.4 7.2l-1.5 4.6 4.8-1.5c2 1.3 4.3 2 6.8 2 6.8 0 12.4-5.5 12.4-12.3s-5.7-12.3-12.5-12.3zM32.7 28c-.1-.1-.3-.2-.7-.4-.4-.2-2.1-1-2.5-1.2-.3-.1-.6-.2-.8.2-.2.4-.9 1.2-1.1 1.4-.2.2-.4.3-.8.1-.4-.2-1.5-.6-2.9-1.8-1.1-.9-1.8-2.1-2-2.5-.2-.4 0-.6.2-.7.2-.2.4-.4.5-.6.2-.2.2-.4.4-.6.1-.2.1-.4 0-.6-.1-.2-.8-1.9-1.1-2.7-.4-.7-.7-.6-.9-.6h-.7c-.2 0-.6.1-1 .4-.3.4-1.3 1.2-1.3 3s1.3 3.5 1.5 3.7c.2.2 2.5 4 6.2 5.4 3.7 1.4 3.7 1 4.3.9.7-.1 2.1-.9 2.4-1.7.4-.9.4-1.6.3-1.7z" fill="#fff"/></svg>