<svg width="24" height="24" xmlns="http://www.w3.org/2000/svg"><g fill="none"><path d="M12.006.396h.1v.1h-.1z" fill="#2993CE"/><circle fill="#24D366" cx="12" cy="12" r="12"/><path d="M18.75 11.555c0 3.521-2.86 6.347-6.37 6.347a6.593 6.593 0 01-3.077-.782L5.75 18.25l1.17-3.391a6.468 6.468 0 01-.91-3.26c0-3.523 2.86-6.349 6.37-6.349a6.29 6.29 0 016.37 6.305zm-6.37-5.348c-2.947 0-5.373 2.391-5.373 5.348 0 1.173.39 2.26 1.04 3.13l-.65 2 2.08-.652c.866.565 1.863.87 2.946.87 2.947 0 5.374-2.392 5.374-5.348 0-2.957-2.47-5.348-5.417-5.348zm3.207 6.826c-.044-.044-.13-.087-.304-.174-.173-.087-.91-.435-1.083-.522-.13-.043-.26-.087-.347.087-.086.174-.39.522-.476.609-.087.087-.174.13-.347.043-.173-.087-.65-.26-1.257-.782a3.649 3.649 0 01-.866-1.087c-.087-.174 0-.261.086-.305.087-.086.174-.173.217-.26.087-.087.087-.174.173-.261a.278.278 0 000-.261 29.198 29.198 0 01-.476-1.174c-.174-.304-.304-.26-.39-.26h-.304a.802.802 0 00-.433.173c-.13.174-.563.522-.563 1.304 0 .783.563 1.522.65 1.609.086.087 1.083 1.739 2.686 2.348 1.604.608 1.604.434 1.864.391.303-.043.91-.391 1.04-.74.173-.39.173-.695.13-.738z" fill="#FFF"/></g></svg>