<svg xmlns="http://www.w3.org/2000/svg" width="30" height="30" viewBox="0 0 29.883 30"><path fill="#39A0CD" d="M15 0C6.716 0 0 6.716 0 15s6.716 15 15 15 15-6.716 15-15S23.284 0 15 0zm7.06 11.38c.007.156.01.312.01.47 0 4.81-3.662 10.364-10.362 10.364-2.057 0-3.972-.604-5.583-1.638a7.314 7.314 0 005.393-1.514 3.652 3.652 0 01-3.404-2.528c.224.04.45.062.687.062.338 0 .66-.046.96-.13a3.647 3.647 0 01-2.92-3.57v-.047c.49.273 1.055.436 1.65.457a3.65 3.65 0 01-1.125-4.864 10.345 10.345 0 007.51 3.804 3.64 3.64 0 013.546-4.47c1.048 0 1.994.44 2.658 1.15a7.41 7.41 0 002.312-.885c-.27.85-.85 1.563-1.6 2.013a7.279 7.279 0 002.09-.57 7.45 7.45 0 01-1.82 1.89z"/></svg>