<svg width="24" height="24" xmlns="http://www.w3.org/2000/svg" xmlns:xlink="http://www.w3.org/1999/xlink"><defs><path id="a" d="M.005.004H16v10.908H.005z"/></defs><g fill="none" fill-rule="evenodd"><path d="M12 0C5.374 0 0 5.372 0 12c0 6.627 5.374 12 12 12 6.628 0 12-5.373 12-12 0-6.628-5.372-12-12-12z" fill="#DB3539" fill-rule="nonzero"/><g transform="translate(4 7)"><mask id="b" fill="#fff"><use xlink:href="#a"/></mask><path d="M8.19 0c.853.005 4.324.037 5.28.299a1.771 1.771 0 011.237 1.263C15 2.676 15 5 15 5s0 2.324-.293 3.439a1.772 1.772 0 01-1.237 1.263C12.378 10 8 10 8 10s-4.378 0-5.47-.298a1.772 1.772 0 01-1.237-1.263C1.035 7.459 1.004 5.54 1 5.094v-.188c.003-.446.034-2.364.292-3.344A1.772 1.772 0 012.53.299C3.486.037 6.957.005 7.81 0zM6.568 2.89v4.22L10.228 5l-3.66-2.11z" fill="#FFFFFE" mask="url(#b)"/></g></g></svg>