<svg width="24" height="24" xmlns="http://www.w3.org/2000/svg"><path d="M11.658 0C5.22 0 0 5.22 0 11.658c0 6.439 5.22 11.659 11.658 11.659 6.439 0 11.659-5.22 11.659-11.659C23.317 5.22 18.097 0 11.658 0zm6.008 9.246c.005.119.007.238.007.358 0 3.665-2.68 7.896-7.586 7.896A7.33 7.33 0 016 16.252a5.206 5.206 0 003.948-1.153c-1.14-.024-2.141-.797-2.492-1.926.164.03.33.047.503.047.248 0 .483-.035.703-.1-1.243-.262-2.136-1.4-2.138-2.72v-.035c.359.208.773.332 1.208.348-1.17-.816-1.53-2.438-.823-3.706 1.355 1.734 3.353 2.787 5.498 2.899a2.86 2.86 0 01.507-2.356 2.628 2.628 0 012.089-1.05c.767 0 1.46.335 1.946.876a5.298 5.298 0 001.692-.674 2.76 2.76 0 01-1.171 1.534A5.167 5.167 0 0019 7.8a5.583 5.583 0 01-1.332 1.44l-.002.005z" fill="#1EA1F2"/></svg>