<svg xmlns="http://www.w3.org/2000/svg" width="30" height="30"><path fill="#3F729B" d="M14.94 0C6.655 0 0 6.71 0 15c0 8.287 6.712 15 14.939 15 8.292 0 14.943-6.713 14.943-15 0-8.29-6.653-15-14.942-15z"/><g fill="#FFF"><path d="M5.186 18.218v-6.429c.01-.06.029-.121.03-.182.023-.754.057-1.507.243-2.244.416-1.662 1.38-2.871 2.964-3.556.859-.371 1.773-.479 2.697-.517.204-.008.405-.03.608-.045h6.427c.061.01.121.026.183.033.622.053 1.254.053 1.865.168 2.229.417 3.659 1.723 4.227 3.938.245.958.247 1.942.256 2.92.02 1.915.016 3.832-.016 5.746-.009.745-.039 1.502-.177 2.231-.413 2.223-1.726 3.647-3.931 4.21-.952.243-1.93.25-2.9.257-2.033.014-4.064-.008-6.095-.021-.768-.006-1.534-.052-2.282-.243-1.631-.413-2.827-1.356-3.516-2.907-.388-.875-.502-1.806-.541-2.75-.007-.205-.029-.406-.042-.609zm17.771-3.214h-.03c0-.814.015-1.626-.007-2.438a28.357 28.357 0 0 0-.127-2.296c-.075-.736-.334-1.413-.833-1.981-.688-.784-1.59-1.113-2.59-1.176a72.537 72.537 0 0 0-3.458-.102 107.614 107.614 0 0 0-3.409.015c-.765.015-1.534.048-2.297.126-.733.075-1.41.336-1.979.835-.783.689-1.113 1.591-1.173 2.589-.071 1.151-.087 2.307-.103 3.462-.014 1.134-.008 2.271.014 3.406.016.766.047 1.534.125 2.296.077.735.335 1.412.835 1.98.688.784 1.592 1.113 2.589 1.175 1.15.069 2.305.088 3.459.101 1.135.015 2.274.015 3.406-.015.845-.022 1.696-.038 2.525-.168 1.416-.223 2.376-1.046 2.76-2.453.125-.461.188-.951.207-1.431.049-1.306.06-2.615.086-3.925z"/><path d="M19.957 15.001a5.012 5.012 0 0 1-5.022 5.018 5.01 5.01 0 0 1-5.007-5.012 5.012 5.012 0 0 1 5.022-5.018 5.011 5.011 0 0 1 5.007 5.012zm-8.261 0c0 1.774 1.452 3.248 3.209 3.249 1.81.002 3.281-1.44 3.281-3.214.004-1.816-1.441-3.276-3.237-3.278a3.25 3.25 0 0 0-3.253 3.243zm9.629-5.196a1.176 1.176 0 0 1-2.354-.007 1.177 1.177 0 1 1 2.354.007z"/></g></svg>