<svg xmlns="http://www.w3.org/2000/svg" width="30" height="30"><g fill="#DB3539"><path d="M13.362 21.27c-.24.306-.408.476-.604.476-.13 0-.195-.058-.235-.205V17.2h-.958v4.232c0 .37.034.627.1.786.108.27.31.416.624.416.35 0 .67-.225 1.07-.666v.582h1v-5.353h-1v4.073zm3.802-4.166c-.357 0-.713.217-1.025.604v-2.35h-.98v7.19h.95v-.528c.36.402.68.605 1.03.605.382 0 .68-.207.81-.607.06-.227.11-.576.11-1.072V18.8c0-.507-.068-.854-.136-1.07-.13-.4-.39-.626-.777-.626zM17.077 21c0 .538-.14.743-.42.743-.16 0-.353-.082-.517-.244l.004-3.26c.162-.16.354-.25.513-.25.28 0 .42.16.42.69V21zm-2.833-9.284c.317 0 .492-.268.44-.803V8.767c.052-.537-.124-.787-.44-.787-.318 0-.482.25-.442.787v2.146c-.04.535.125.803.442.803zm-2.56 3.652l-3.395.002v1.028H9.4v6.152h1.12v-6.152h1.157m8.517.716c-.496 0-.878.192-1.16.56-.207.272-.326.717-.326 1.29v1.877c0 .57.13.97.34 1.24.28.37.67.55 1.177.55.513 0 .908-.19 1.174-.58.12-.17.2-.36.23-.58.01-.1.04-.31.04-.63v-.15h-1.03c0 .4 0 .627-.01.678-.06.26-.19.39-.43.39-.334 0-.46-.244-.46-.74v-.965h1.92v-1.1c0-.57-.117-.99-.32-1.264-.274-.367-.664-.56-1.15-.56zm.43 2.12h-.88v-.594c0-.502.124-.64.448-.64.32 0 .43.145.43.645v.59z"/><path d="M15 0C6.717 0 0 6.715 0 15c0 8.284 6.717 15 15 15 8.285 0 15-6.716 15-15 0-8.285-6.715-15-15-15zm1.48 7.13h.997v4.373c.04.15.105.207.235.207.192 0 .364-.172.604-.475V7.13h.957v5.354h-.957v-.55c-.4.442-.732.665-1.088.665-.313 0-.53-.15-.64-.42-.065-.17-.11-.42-.11-.79V7.13zm-2.226-.065c.43 0 .846.15 1.117.52.21.274.31.71.31 1.288v1.932c0 .576-.08.975-.28 1.244-.27.36-.71.56-1.14.56-.43 0-.87-.2-1.14-.57-.21-.27-.31-.67-.31-1.25V8.88c0-.58.12-1.02.33-1.293.27-.37.645-.522 1.13-.522zm-3.858-1.772l.752 2.824.75-2.824h1.126l-1.34 4.28v2.91h-1.08v-2.91S9.498 5.93 9.27 5.293h1.128zm12.592 14.395c0 1.293-.15 2.582-.15 2.582s-.146 1.102-.63 1.584c-.606.637-1.288.64-1.603.676-2.242.162-5.606.166-5.606.166s-4.17-.037-5.45-.158c-.36-.065-1.16-.048-1.77-.684-.48-.482-.63-1.584-.63-1.584S7 20.98 7 19.688V18.48c0-1.29.148-2.58.148-2.58s.148-1.097.627-1.583c.61-.635 1.292-.64 1.606-.678 2.24-.17 5.61-.16 5.61-.16H15s3.36-.01 5.604.16c.312.03.992.03 1.604.67.48.48.63 1.58.63 1.58s.152 1.29.152 2.58v1.21h-.002z"/></g></svg>