<svg width="24" height="24" xmlns="http://www.w3.org/2000/svg"><g fill="none"><path d="M11.952 0C5.324 0 0 5.368 0 12c0 6.63 5.37 12 11.951 12 6.634 0 11.955-5.37 11.955-12 0-6.632-5.323-12-11.954-12z" fill="#F00075"/><g fill="#FFF"><path d="M5.13 14.253v-4.5c.007-.043.02-.085.021-.128.016-.528.04-1.055.17-1.57.292-1.164.966-2.01 2.075-2.49.601-.26 1.241-.335 1.888-.362.143-.006.284-.021.426-.032h4.499c.042.007.084.019.128.024.435.037.877.037 1.305.117 1.56.292 2.561 1.206 2.959 2.757.172.67.173 1.36.18 2.044.013 1.34.01 2.682-.012 4.022-.006.522-.027 1.051-.124 1.562-.289 1.556-1.208 2.553-2.752 2.947-.666.17-1.35.175-2.03.18-1.423.01-2.844-.006-4.266-.015-.538-.004-1.074-.036-1.597-.17-1.142-.29-1.98-.95-2.462-2.035-.271-.613-.351-1.264-.378-1.925-.005-.144-.02-.284-.03-.426zm12.44-2.25h-.021c0-.57.01-1.138-.005-1.707a19.85 19.85 0 00-.089-1.607 2.423 2.423 0 00-.583-1.387c-.482-.548-1.113-.779-1.813-.823a50.776 50.776 0 00-2.42-.071 75.33 75.33 0 00-2.387.01 19.66 19.66 0 00-1.608.088 2.429 2.429 0 00-1.385.585c-.548.482-.78 1.114-.821 1.812-.05.806-.061 1.615-.072 2.424-.01.793-.006 1.59.01 2.384.01.536.032 1.074.087 1.607.054.515.235.988.585 1.386.481.549 1.114.78 1.812.822a49.82 49.82 0 002.421.071c.795.01 1.592.01 2.384-.01.592-.016 1.188-.027 1.768-.118.991-.156 1.663-.732 1.932-1.717.087-.323.131-.666.145-1.002.034-.914.042-1.83.06-2.747z"/><path d="M15.47 12a3.508 3.508 0 01-3.516 3.513 3.507 3.507 0 01-3.504-3.508 3.508 3.508 0 013.515-3.513 3.508 3.508 0 013.505 3.509zm-5.783 0c0 1.242 1.017 2.274 2.247 2.275 1.267.001 2.296-1.008 2.296-2.25a2.273 2.273 0 00-2.266-2.294A2.275 2.275 0 009.687 12zm6.74-3.636a.824.824 0 11-1.647-.005.824.824 0 011.648.005z"/></g></g></svg>