<svg xmlns="http://www.w3.org/2000/svg" width="52" height="52"><path fill="#999" d="M36.2 20.744v.7c0 7-5.3 15-15 15-3 0-5.7-.9-8.1-2.4.4 0 .8.1 1.3.1 2.5 0 4.7-.8 6.5-2.3-2.3 0-4.2-1.6-4.9-3.7.3.1.6.1 1 .1.5 0 .9-.1 1.4-.2-2.4-.5-4.2-2.6-4.2-5.2v-.1c.7.4 1.5.6 2.4.7-1.4-.9-2.3-2.6-2.3-4.4 0-1 .3-1.9.7-2.7 2.6 3.2 6.5 5.3 10.8 5.5-.1-.4-.1-.8-.1-1.2 0-2.9 2.4-5.3 5.3-5.3 1.5 0 2.9.6 3.8 1.7 1.2-.2 2.3-.7 3.3-1.3-.4 1.2-1.2 2.3-2.3 2.9 1.1-.1 2.1-.4 3-.8-.7 1.3-1.6 2.2-2.6 2.9zM26 .344C11.8.344.4 11.844.4 26.044s11.5 25.7 25.6 25.7c14.2 0 25.6-11.5 25.6-25.7S40.2.344 26 .344z"/></svg>