<svg xmlns="http://www.w3.org/2000/svg" width="52" height="52"><g fill="#999"><path d="M25.8 22.1c.2 0 .4-.1.5-.2s.2-.3.2-.5v-3.9c0-.2-.1-.3-.2-.4-.1-.1-.3-.1-.5-.1s-.3 0-.4.1-.2.2-.2.4v3.9c0 .2.1.3.2.5 0 .2.2.2.4.2M28.9 34.4c0 .2 0 .4-.1.4-.1.1-.2.1-.4.1-.1 0-.2 0-.3-.1-.1 0-.2-.1-.3-.2v-4.1c.1-.1.2-.2.3-.2s.2-.1.3-.1c.2 0 .3.1.4.2s.1.3.1.5v3.5zm.1-5.1c-.2 0-.4.1-.6.2s-.4.3-.6.5v-2.8h-1.3V36h1.3v-.5c.2.2.4.3.6.4.2.1.4.1.7.1.4 0 .7-.1.9-.4.2-.2.3-.6.3-1.1v-3.6c0-.5-.1-.9-.3-1.2-.3-.2-.6-.4-1-.4zM16.8 28.4h1.5v7.5h1.5v-7.5h1.5v-1.3h-4.5v1.3M24.3 34.3l-.4.4c-.1.1-.3.1-.4.1s-.2 0-.3-.1-.1-.2-.1-.3v-5h-1.3v5.4c0 .4.1.7.2.9.2.2.4.3.7.3.2 0 .5-.1.8-.2s.5-.3.7-.6v.7h1.3v-6.5h-1.3l.1 4.9"/><path d="M38.8 33.9c0 2.6-2.1 4.7-4.7 4.7H17.8c-2.6 0-4.7-2.1-4.7-4.7v-3.8c0-2.6 2.1-4.7 4.7-4.7h16.3c2.6 0 4.7 2.1 4.7 4.7v3.8zM19.7 13.4l1.1 3.9h.1l1-3.9h1.7l-1.9 5.7v4h-1.6v-3.9l-2-5.9 1.6.1zm4 4.2c0-.6.2-1 .6-1.3s.9-.5 1.6-.5c.6 0 1.1.2 1.5.5s.6.8.6 1.3v3.7c0 .6-.2 1.1-.6 1.4s-.9.5-1.6.5c-.6 0-1.1-.2-1.5-.5-.4-.4-.6-.8-.6-1.5v-3.6zm5.4-1.6h1.5v5.5c0 .2 0 .3.1.4s.2.1.3.1.2 0 .4-.2c.2-.1.3-.2.4-.4V16h1.5v7.2h-1.5v-.8c-.3.3-.5.5-.8.7s-.6.2-.8.2c-.3 0-.6-.1-.8-.3-.2-.2-.3-.5-.3-1v-6zM26 .3C11.8.3.4 11.8.4 26S11.9 51.7 26 51.7c14.2 0 25.6-11.5 25.6-25.7S40.2.3 26 .3z"/><path d="M33.4 31.8h-1.1v-.7c0-.3 0-.5.1-.6s.2-.2.4-.2.3.1.4.2c.1.1.1.3.1.6l.1.7zm-.5-2.6c-.6 0-1.1.2-1.4.5-.4.4-.6.8-.6 1.4V34c0 .6.2 1.1.5 1.5.3.4.8.5 1.4.5s1.1-.2 1.5-.5c.3-.3.5-.8.5-1.5v-.3h-1.3v.3c0 .4 0 .6-.1.7s-.2.2-.5.2c-.2 0-.4-.1-.4-.2-.1-.1-.1-.4-.1-.7v-1.2h2.5v-1.7c0-.6-.2-1.1-.5-1.4-.4-.3-.9-.5-1.5-.5z"/></g></svg>