<svg version="1" xmlns="http://www.w3.org/2000/svg" xmlns:xlink="http://www.w3.org/1999/xlink" width="188.4" height="315"><pattern x="-7.6" y="58.2" width="242" height="242" patternUnits="userSpaceOnUse" id="c" viewBox="0 -242 242 242" overflow="visible"><path fill="none" d="M0-242h242V0H0z"/><path fill="#29ABE2" d="M0-242h242V0H0z"/><path opacity=".4" d="M0-242h11V0H0zm22 0h11V0H22zm22 0h11V0H44zm22 0h11V0H66zm22 0h11V0H88zm22 0h11V0h-11zm22 0h11V0h-11zm22 0h11V0h-11zm22 0h11V0h-11zm22 0h11V0h-11zm22 0h11V0h-11z"/><path opacity=".4" d="M0-242h242v11H0zm0 22h242v11H0zm0 22h242v11H0zm0 22h242v11H0zm0 22h242v11H0zm0 22h242v11H0zm0 22h242v11H0zm0 22h242v11H0zm0 22h242v11H0zm0 22h242v11H0zm0 22h242v11H0z"/></pattern><ellipse cx="76.3" cy="313.2" rx="63.1" ry="1.8" opacity=".1"/><linearGradient id="a" gradientUnits="userSpaceOnUse" x1="96.936" y1="275.883" x2="96.936" y2="218.628"><stop offset="0" stop-color="#426897"/><stop offset="1" stop-color="#192f4b"/></linearGradient><path fill="url(#a)" d="M100.9 214.2c.6 7.7 1.1 15.3 1.6 23 .4 7.7.8 15.3 1.1 23 .6 15.4.9 30.7.9 46.1l-15.1-.6c1.2-15.1 2.1-30.3 2.7-45.5.3-7.6.5-15.2.7-22.8.2-7.6.2-15.2.2-22.8l7.9-.4z"/><linearGradient id="b" gradientUnits="userSpaceOnUse" x1="46.714" y1="275.883" x2="46.714" y2="218.628"><stop offset="0" stop-color="#426897"/><stop offset="1" stop-color="#192f4b"/></linearGradient><path fill="url(#b)" d="M50.7 214.6c0 7.6.1 15.2.2 22.8.2 7.6.4 15.2.7 22.8.6 15.2 1.5 30.4 2.7 45.5l-15.1.6c0-15.4.3-30.8.9-46.1.3-7.7.7-15.3 1.1-23 .4-7.7.9-15.3 1.6-23l7.9.4z"/><pattern id="d" xlink:href="#c" patternTransform="translate(968)"/><path fill="url(#d)" d="M36.7 149.7c-.3.5-.8 1.2-1.2 1.8-.4.7-.8 1.3-1.2 2-.8 1.4-1.5 2.8-2.2 4.2-1.3 2.9-2.5 5.8-3.5 8.9-2 6-3.2 12.2-3.9 18.4-1.3 12.5-.1 24.9 2.7 37l-25.8 2.8c0-14.8 2.1-29.6 6.9-43.5 2.4-6.9 5.5-13.6 9.2-19.8 1.9-3.1 3.9-6.1 6.2-8.9 1.1-1.4 2.3-2.8 3.5-4.1.6-.7 1.2-1.3 1.9-2s1.3-1.2 2.1-2l5.3 5.2z"/><linearGradient id="e" gradientUnits="userSpaceOnUse" x1="1088.351" y1="203.87" x2="1088.351" y2="146.615" gradientTransform="translate(-1016.338 912.243)"><stop offset="0" stop-color="#426897"/><stop offset="1" stop-color="#192f4b"/></linearGradient><path fill="url(#e)" d="M111.1 211.8c0 9.6-14.4 8.5-36.7 8.5-22.3 0-40.9 1-40.9-8.5 0-9.6 18.5-8.5 40.9-8.5 22.3-.1 36.7-1.1 36.7 8.5z"/><pattern id="f" xlink:href="#c" patternTransform="translate(968)"/><path fill="url(#f)" d="M116.3 150.4c0-4.5-3.6-8.1-8.1-8.1H37c-4.5 0-8.1 3.6-8.1 8.1v54.3c0 4.5 3.6 8.1 8.1 8.1h71.3c4.5 0 8.1-3.6 8.1-8.1v-54.3z"/><path fill="#FFF" d="M58.4 143.2l13.3 14.4L85 143.2z"/><pattern id="g" xlink:href="#c" patternTransform="translate(968)"/><path fill="url(#g)" d="M112.1 144.7c1.6 0 3.4-.1 5.1-.3 1.7-.2 3.4-.5 5.1-.8 3.4-.7 6.6-1.7 9.7-3 6.1-2.6 11.3-6.4 15-11.2 3.7-4.8 6-10.4 7.3-16.4 1.2-6 1.4-12.5 1-19.1l25.9 1.2c-1.2 8.3-3.2 16.7-6.7 24.8-3.5 8-8.8 15.7-15.7 21.3-6.9 5.7-15.1 9.3-23.3 10.8-4.1.8-8.2 1.1-12.2 1.1-2 0-4-.1-6-.3-2-.2-3.9-.5-6-.9l.8-7.2z"/><path fill="#FBC48A" d="M188.4 63c-3-3.2-8-1.9-8-1.9L176.8 76c-.3-.1-.5-.1-.8-.2l1.2-17.5c-3.2-2.8-8.1-1-8.1-1l-2.9 17.1c-.3 0-.7 0-1-.1L164 58.7c-3.5-2.4-8.2 0-8.2 0l-.9 19.5c-.1.3-1.3 2.9-1.4 3.1l-8.7-4c-3.9 2.2-4.7 7.8-4.7 7.8l13 9.3c.8 2.9 1.8 4.6 1.8 4.6 11.6 3.3 26.5 2.9 26.5 2.9 3.9-12.8 4.3-21.9 4.3-21.9l2.7-17z"/><radialGradient id="h" cx="-2053.254" cy="3861.895" r="28.074" gradientTransform="translate(2159.912 -3560.194)" gradientUnits="userSpaceOnUse"><stop offset="0" stop-color="#454545"/><stop offset="1" stop-color="#252525"/></radialGradient><path fill="url(#h)" d="M86.4 313.2H119c.3 0 .6-.2.6-.5.3-2.7-1.3-13.6-26.7-12.2-6.4.3-7.3 9.9-7.1 12.3.1.2.3.4.6.4z"/><radialGradient id="i" cx="144.662" cy="304.829" r="24.405" gradientTransform="matrix(-1 0 0 1 184.885 0)" gradientUnits="userSpaceOnUse"><stop offset="0" stop-color="#454545"/><stop offset="1" stop-color="#252525"/></radialGradient><path fill="url(#i)" d="M57.3 313.2H36.2c-.3 0-.6-.2-.6-.5-.3-2.7-1.2-12.1 11.7-12.3 11.8-.1 10.8 9.8 10.5 12.3 0 .2-.2.5-.5.5z"/><path fill="#FBC48A" d="M28.1 221.6s-12-3.3-27.2.5c0 0-3.3 12.1 2.4 26.9 0 0 10 4.4 21.5 4.3 0 0-.8-10.8-.1-18.2 0 0 1.3 3.1 2.8 6.7 0 0 4 0 6-2.3 0 0-1.1-9.6-5.4-17.9z"/><radialGradient id="j" cx="-14349.786" cy="-8570.335" r="51.457" gradientTransform="rotate(-.81 693492.968 -1165931.065)" gradientUnits="userSpaceOnUse"><stop offset="0" stop-color="#fcc58a"/><stop offset=".575" stop-color="#fcc289"/><stop offset=".962" stop-color="#fbb986"/><stop offset="1" stop-color="#fbb885"/></radialGradient><path fill="url(#j)" d="M121 45.1c-.1-4.5-3.7-8-8.2-7.9l-82.5 1c-4.5.1-8 3.6-8 8.1 0 0 0 10.1 1.8 70.1.6 19.8 4.8 27.9 9.1 27.8H112c4.3-.1 8.7-9.2 8.8-29 .5-60.1.2-70.1.2-70.1z"/><path fill="#CE985E" d="M122.2 97.6C122.4 49.7 121 45 121 45c-.1-4.5-3.7-8-8.2-8l-82.5 1c-4.5.1-8 3.7-8 8.2 0 0-1.4 6 0 53.9.4.4 1.6 6.9 1.6 6.9.3-29.3 6.3-51.5 6.3-51.5S60 71.3 92.9 60.9l-6.1-5.4c17.7-2 23.1-5.5 23.1-5.5 8.9 21.2 11.1 53.3 11.1 53.3.2-.1 1.2-5.7 1.2-5.7z"/><linearGradient id="k" gradientUnits="userSpaceOnUse" x1="-14351.409" y1="-8663.64" x2="-14351.409" y2="-8554.424" gradientTransform="rotate(-.81 693492.968 -1165931.065)"><stop offset="0" stop-color="#574537"/><stop offset=".576" stop-color="#433329"/><stop offset="1" stop-color="#32241d"/></linearGradient><path fill="url(#k)" d="M24 107c0-1.3-7.8-3.3-9.2-52.3-1 1.1-2.6 2-3.6 3.3-.1-13.2 6.2-15.9 6.2-15.9-1.8 1.7.1-.1 0 0 0 0 0-2.4-3.9-2.6 2.9-3.6 5.8-3.7 10.2-3.9-1-.3 2.7-7.8 3.2-8.4 2.3-2.7 6.3-4.4 9.7-5.1-1.2 1.3-1.7 2.8-2.7 4.2 11.6-4.9 16.6-8.5 29.5-8.8 10.5-.2 25.9-.6 36-4.6 6.6-2.6 11.4-6.6 10.4-12.9-.2-.1-.3-.1 0 0 11.3 7.3 10 19.4 10 19.4s1.3-.4 3.2-4.6c2.8 8.2 1.5 17.2-2 22.6 10.6 6.2 8 23 7.5 31-1.8 27.7-7.6 34.9-7.6 34.9.3-16.6-1.6-42-8.9-57.1 0 0-8.4 5.9-22.4 8.8l6.5 3.4c-35.8 9-67.5-5.8-67.2-8.2 0 .4-6.5 16.2-4.9 56.8z"/><circle transform="rotate(-.725 111.767 98.783) scale(.99998)" fill="#FAB383" cx="111.8" cy="98.8" r="5.5"/><circle transform="matrix(.9999 -.01229 .01229 .9999 -1.223 .418)" fill="#FAB383" cx="33.4" cy="99.7" r="5.5"/><path fill="#836F67" d="M48.2 29.5c19.5-10.7 28.6-5.9 45.7-8.9 7.4-1.3 9.7-5.9 9.7-5.9-5 16.9-27.3 8.7-43.9 11.7l-11.5 3.1z"/><radialGradient id="l" cx="48.891" cy="80.629" r="8.763" gradientUnits="userSpaceOnUse"><stop offset="0" stop-color="#454545"/><stop offset="1" stop-color="#101010"/></radialGradient><circle fill="url(#l)" cx="48.9" cy="80.9" r="7.6"/><circle fill="#FFF" cx="51.1" cy="78.3" r="2.7"/><radialGradient id="m" cx="97.219" cy="80.629" r="8.763" gradientUnits="userSpaceOnUse"><stop offset="0" stop-color="#454545"/><stop offset="1" stop-color="#101010"/></radialGradient><circle fill="url(#m)" cx="97.3" cy="80.9" r="7.6"/><circle fill="#FFF" cx="99.4" cy="78.3" r="2.7"/><path fill="#856848" d="M74.4 122.2c-13.9 0-20.3-5.3-20.6-5.5-.8-.7-.9-1.9-.2-2.7.7-.8 1.9-.9 2.7-.2.1.1 5.8 4.6 18.1 4.6 10.1 0 15.3-4.6 15.4-4.6.8-.7 2-.6 2.7.2.7.8.6 2-.1 2.7-.3.1-6.4 5.5-18 5.5z"/><path fill="#1A1A1A" d="M125.4 68.9c-7-.5-9.5-2.1-23.7-2-11 .1-17.7 2.3-28.7 2.3s-17.7-2.3-28.7-2.3c-14.1-.1-16.6 1.6-23.7 2.1-.6 0-1.2.5-1.1 1.6 0 1.8.1 3.4.1 5.1 0 1.5 1.2 1.3 1.9 3 2.3 5.5 1.3 14.6 6.7 19.3 1.5 1.4 4.3 3 7 3.3 12.9 1.2 24.1 2 29-11.2 1-2.7 2.5-5 3.6-9 1.5-2.8 1.6-2.2 5.1-2.4 3.6.2 3.7-.4 5.1 2.4 1.1 4.1 2.6 6.3 3.6 9 4.9 13.2 16.1 12.4 29 11.2 2.7-.2 5.4-1.9 7-3.3 5.4-4.8 4.5-13.9 6.7-19.3.7-1.7 1.9-1.5 1.9-3 0-1.6.1-3.3.1-5.1.3-1.1-.2-1.6-.9-1.7zm-60.8 16c-1.4 4.9-3.5 9.7-7.8 12.4-2.9 1.9-7 2.9-11.6 3-13.5.2-19-4.2-19.1-15.6 0-5.4-1-10.4 2.1-12.9 3.5-2.8 11.3-3 17.1-3 6 0 15.5 1 19 4.4 2.9 2.9 1.5 7.2.3 11.7zm55.3-.2c-.1 11.4-5.5 15.9-19.1 15.6-4.6-.1-8.7-1.2-11.6-3-4.2-2.7-6.4-7.6-7.8-12.4-1.3-4.5-2.6-8.9.3-11.7 3.5-3.4 12.9-4.4 19-4.4 5.8 0 13.7.1 17.1 3 3.1 2.6 2.2 7.5 2.1 12.9z"/><path fill="#006986" d="M28.6 160.5c.4-3.5 2.5-5 2.5-5s-1 1.1-1.7 5c-.7 4-.4 5.9-.4 5.9s-.8-2.2-.4-5.9z"/></svg>