<svg id="Layer_1" xmlns="http://www.w3.org/2000/svg" viewBox="0 0 275.6 341.6"><style>.st7{fill:#fbc58a}.st14{fill:#cd985d}.st16{fill:#fab483}.st20{opacity:.82;fill:#ec2c28;enable-background:new}.st21{fill:#29abe2}.st23{opacity:.34;fill:#fff;enable-background:new}</style><radialGradient id="SVGID_1_" cx="211.741" cy="634.298" r="48.402" fx="177.108" fy="668.111" gradientTransform="translate(0 -500.05)" gradientUnits="userSpaceOnUse"><stop offset="0" stop-color="#fff"/><stop offset=".446" stop-color="#fbfbfb"/><stop offset=".924" stop-color="#eee"/><stop offset="1" stop-color="#ebebeb"/></radialGradient><path d="M182.1 156.9c1.7 0 3.7-.1 5.5-.3 1.9-.2 3.7-.5 5.6-.9 3.7-.7 7.2-1.8 10.5-3.2 6.6-2.8 12.3-7 16.3-12.2s6.5-11.2 7.9-17.8c1.3-6.6 1.1-8.4 2.1-15.9l27-3.5c-1.3 9-3.4 18.1-7.3 26.8-3.8 8.7-9.6 17-17.1 23.1-7.5 6.2-16.4 10.1-25.2 11.7-4.4.9-8.9 1.2-13.2 1.2-2.2 0-4.4-.1-6.5-.3-2.2-.2-4.2-.5-6.6-1l1-7.7z" fill="url(#SVGID_1_)"/><linearGradient id="SVGID_2_" gradientUnits="userSpaceOnUse" x1="172.35" y1="799.204" x2="172.35" y2="737.114" gradientTransform="translate(0 -500.05)"><stop offset="0" stop-color="#426998"/><stop offset="1" stop-color="#1a2f4b"/></linearGradient><path d="M176.7 232.3c.7 8.4 1.2 16.6 1.7 25 .5 8.3.9 16.6 1.2 25 .6 16.7.9 33.3.9 50l-16.3-.6c1.3-16.4 2.2-32.9 2.9-49.4.3-8.2.6-16.5.7-24.8.2-8.2.3-16.5.2-24.7l8.7-.5z" fill="url(#SVGID_2_)"/><linearGradient id="SVGID_3_" gradientUnits="userSpaceOnUse" x1="111.15" y1="799.204" x2="111.15" y2="737.114" gradientTransform="translate(0 -500.05)"><stop offset="0" stop-color="#426998"/><stop offset="1" stop-color="#1a2f4b"/></linearGradient><path d="M115.5 232.8c0 8.2.1 16.5.2 24.7.2 8.3.4 16.5.7 24.8.6 16.5 1.6 33 2.9 49.4l-16.3.7c0-16.7.3-33.4.9-50 .3-8.3.7-16.6 1.2-25 .5-8.3 1-16.6 1.7-25l8.7.4z" fill="url(#SVGID_3_)"/><radialGradient id="SVGID_4_" cx="105.04" cy="694.203" r="54.484" fx="112.125" fy="689.406" gradientTransform="translate(0 -500.05)" gradientUnits="userSpaceOnUse"><stop offset="0" stop-color="#fff"/><stop offset="1" stop-color="#ebebeb"/></radialGradient><path d="M100.3 162.3c-.4.5-.9 1.3-1.3 2s-.9 1.4-1.3 2.2c-.8 1.5-1.6 3-2.4 4.6-1.5 3.1-2.7 6.3-3.8 9.6-2.1 6.5-3.5 13.3-4.2 20-1.4 13.5-.4 19.7 2.7 32.8l-27.2-.3c0-16 1.9-21.5 7.1-36.5 2.6-7.5 5.9-14.7 10-21.4 2-3.4 4.3-6.6 6.7-9.7 1.2-1.5 2.5-3 3.8-4.5.7-.7 1.3-1.4 2.1-2.1.7-.7 1.4-1.3 2.3-2.1l5.5 5.4z" fill="url(#SVGID_4_)"/><linearGradient id="SVGID_5_" gradientUnits="userSpaceOnUse" x1="1157.533" y1="798.148" x2="1157.533" y2="736.061" gradientTransform="translate(-1016.333 412.19)"><stop offset="0" stop-color="#426998"/><stop offset="1" stop-color="#1a2f4b"/></linearGradient><path d="M185.5 229.7c0 10.4-20.1 9.2-44.3 9.2s-44.3 1.1-44.3-9.3 20.1-9.2 44.3-9.2 44.3-1.1 44.3 9.3z" fill="url(#SVGID_5_)"/><radialGradient id="SVGID_6_" cx="141.674" cy="665.075" r="62.1" gradientTransform="translate(0 -500.05)" gradientUnits="userSpaceOnUse"><stop offset="0" stop-color="#fff"/><stop offset="1" stop-color="#ebebeb"/></radialGradient><path d="M190.4 163.1c0-4.8-3.9-8.7-8.7-8.7h-81.1c-4.8 0-8.7 3.9-8.7 8.7V222c0 4.8 3.9 8.7 8.7 8.7h81.1c4.8 0 8.7-3.9 8.7-8.7v-58.9z" fill="url(#SVGID_6_)"/><ellipse cx="143.3" cy="339.6" rx="68.4" ry="2" fill="#d7d6d6"/><path class="st7" d="M262 85.9c-3.3-3.5-8-3.5-8-3.5h-1.9c-.3-.1-.6-.2-.9-.2l1.3-19c-3.5-3.1-8.8-1.1-8.8-1.1l-3.1 18.5c-.4 0-.7 0-1-.1l-1.3-16.9c-3.8-2.6-8.8 0-8.8 0l-1 21.1c-.1.3-1.2.5-4 3.9-2.7 3.3-.4 8.4-.4 8.4l5.9 9.5c12.6 3.6 25.9 3.3 25.9 3.3 9.3-10.9 6.1-23.9 6.1-23.9z"/><radialGradient id="SVGID_7_" cx="-1976.466" cy="4387.668" r="30.445" gradientTransform="translate(2159.893 -4060.23)" gradientUnits="userSpaceOnUse"><stop offset="0" stop-color="#464646"/><stop offset=".862" stop-color="#2a2a2a"/><stop offset="1" stop-color="#262525"/></radialGradient><path d="M161 339.7l35.4-.1c.3 0 .6-.2.6-.5.3-2.9-1.4-14.7-28.9-13.3-7 .4-7.9 10.7-7.7 13.3 0 .3.3.6.6.6z" fill="url(#SVGID_7_)"/><radialGradient id="SVGID_8_" cx="-489.297" cy="830.594" r="26.468" gradientTransform="matrix(-1 0 0 1 -385.154 -500.05)" gradientUnits="userSpaceOnUse"><stop offset="0" stop-color="#464646"/><stop offset=".862" stop-color="#2a2a2a"/><stop offset="1" stop-color="#262525"/></radialGradient><path d="M122.6 339.6H99.7c-.3 0-.6-.2-.6-.5-.3-2.9-1.3-13.2 12.7-13.3 12.8-.1 11.7 10.7 11.4 13.3 0 .3-.3.5-.6.5z" fill="url(#SVGID_8_)"/><path class="st7" d="M91 240.3s-13-3.5-29.5.5c0 0-3.6 13.1 2.6 29.1 0 0 10.8 4.7 23.3 4.7 0 0-.9-11.7-.1-19.7 0 0 1.4 3.4 3.1 7.3 0 0 4.3 0 6.5-2.5-.1 0-1.3-10.4-5.9-19.4z"/><radialGradient id="SVGID_9_" cx="-5892.192" cy="-3676.923" r="23.691" gradientTransform="matrix(2.3592 -.029 .0258 2.1028 14134.472 7654.127)" gradientUnits="userSpaceOnUse"><stop offset="0" stop-color="#eb2443"/><stop offset=".23" stop-color="#de2340"/><stop offset=".565" stop-color="#c6203a"/><stop offset=".964" stop-color="#a11c30"/><stop offset="1" stop-color="#9e1c2f"/></radialGradient><path d="M139.8 147.2c-12.5.2-22.5-3-29.6-9.3-10-8.9-10.1-20.4-10.1-21.7l.1-6.7 78.2-1 .2 6.7c0 1.3.2 12.8-9.6 21.9-6.8 6.5-16.7 9.9-29.2 10.1z" fill="url(#SVGID_9_)"/><linearGradient id="SVGID_10_" gradientUnits="userSpaceOnUse" x1="-16282.256" y1="-8037.446" x2="-16282.256" y2="-8042.362" gradientTransform="rotate(-.81 657847.55 -1166166.676)"><stop offset="0" stop-color="#fff"/><stop offset=".444" stop-color="#fafafa"/><stop offset=".743" stop-color="#f0f0ef"/><stop offset=".998" stop-color="#e1e2e1"/><stop offset="1" stop-color="#e1e2e1"/></linearGradient><path d="M167.8 117.3c2.8-2.2 2.7-5.8 2.7-5.8l-62.2.8s0 3.7 2.9 5.8c2.8 2 53.8 1.4 56.6-.8z" fill="url(#SVGID_10_)"/><linearGradient id="SVGID_11_" gradientUnits="userSpaceOnUse" x1="14758.854" y1="8032.445" x2="14758.854" y2="8027.458" gradientTransform="matrix(-.9998 .0124 -.0123 -1 14994.352 7987.335)"><stop offset="0" stop-color="#fff"/><stop offset=".444" stop-color="#fafafa"/><stop offset=".743" stop-color="#f0f0ef"/><stop offset=".998" stop-color="#e1e2e1"/><stop offset="1" stop-color="#e1e2e1"/></linearGradient><path d="M124.3 140.4c-1.5 2.2-1.5 5.9-1.5 5.9l33.9-.4s-.1-3.7-1.6-5.9c-1.5-2.1-29.2-1.7-30.8.4z" fill="url(#SVGID_11_)"/><radialGradient id="SVGID_12_" cx="-14290.199" cy="-8058.214" r="55.528" gradientTransform="rotate(-.81 657847.55 -1166166.676)" gradientUnits="userSpaceOnUse"><stop offset="0" stop-color="#fdc78a"/><stop offset=".503" stop-color="#fdc48a"/><stop offset=".842" stop-color="#fcbe87"/><stop offset="1" stop-color="#fbb885"/></radialGradient><path d="M191.7 48.9c-.1-4.8-4-8.6-8.9-8.6l-89.5 1.1c-4.8.1-8.7 4-8.6 8.8 0 0 0 10.9 2 76 .7 21.5 5.2 30.2 9.9 30.2l85.9-1.1c4.6-.1 9-8.9 9.1-30.4.4-65.1.1-76 .1-76zm-51.9 96c-32.5-.6-36.2-20.8-36.3-29.3 0-2.1 1.9-3.5 3.9-3.3 21.3 2.4 42.7 2.2 63.9-.8 2.1-.3 4 1.1 4 3.2.1 8.5-3.1 28.7-35.5 30.2z" fill="url(#SVGID_12_)"/><path class="st14" d="M193 105.8c.2-51.9-1.2-57-1.2-57-.1-4.8-4-8.7-8.9-8.6l-89.5 1.1c-4.8.1-8.7 4-8.6 8.9 0 0-1.5 6.5 0 58.4.4.4 1.7 7.5 1.7 7.5.3-31.8 6.8-55.8 6.8-55.8s32.3 17.1 68 5.8l-6.7-5.8c19.2-2.2 25.1-5.9 25.1-5.9 9.6 23 12 57.9 12 57.9.2-.4 1.3-6.5 1.3-6.5z"/><linearGradient id="SVGID_13_" gradientUnits="userSpaceOnUse" x1="-16284.236" y1="-8158.869" x2="-16284.236" y2="-8040.43" gradientTransform="rotate(-.81 657847.55 -1166166.676)"><stop offset="0" stop-color="#584638"/><stop offset=".345" stop-color="#4d3c31"/><stop offset="1" stop-color="#33241d"/></linearGradient><path d="M86.5 116.1c0-1.4-8.5-3.6-9.9-56.7-1.1 1.2-2.9 2.2-3.9 3.6-.1-14.3 6.7-17.2 6.7-17.2-2 1.8.1-.1 0 0 0 0 0-2.6-4.3-2.8 3.1-3.9 6.3-4 11.1-4.3-1.1-.3 2.9-8.4 3.5-9.1 2.5-3 6.8-4.7 10.5-5.6-1.3 1.4-1.9 3.1-2.9 4.6 12.6-5.3 18-9.2 32-9.5 11.4-.3 28.1-.7 39-5 7.2-2.8 12.3-7.2 11.3-14-.3-.1-.3-.1 0 0 12.3 7.9 10.9 21 10.9 21s1.4-.4 3.5-5c3 8.9 1.7 18.6-2.1 24.5 11.5 6.7 8.7 25 8.1 33.6-2 30.1-8.2 37.9-8.2 37.9.3-18-1.7-45.5-9.7-61.9 0 0-9.1 6.4-24.3 9.6l7.1 3.7c-38.8 9.8-73.2-6.3-72.9-8.9-.2.3-7.2 17.4-5.5 61.5z" fill="url(#SVGID_13_)"/><circle transform="rotate(-.81 181.697 107.102)" class="st16" cx="181.7" cy="107.1" r="5.9"/><circle transform="rotate(-.81 96.697 108.198)" class="st16" cx="96.7" cy="108.2" r="5.9"/><path class="st14" d="M130.9 101.3c-3 3-5.3-5.1-13-5s-9 7.4-12.7 5.3c-3.7-2 1.5-12.6 12.6-12.7 11-.1 16.1 9.5 13.1 12.4zm16-.2c3.1 2.9 5.2-5.2 12.9-5.3 7.7-.1 9.2 7.2 12.8 5s-1.8-12.6-12.9-12.4c-11 .1-15.9 9.9-12.8 12.7z"/><radialGradient id="SVGID_14_" cx="-9918.005" cy="-5636.593" r="8.782" gradientTransform="rotate(-.682 640464.58 -1140598.32) scale(1.4101)" gradientUnits="userSpaceOnUse"><stop offset="0" stop-color="#464646"/><stop offset="1" stop-color="#121212"/></radialGradient><path d="M130.9 99.1c-3 3-5.3-5.1-13-5s-9 7.4-12.7 5.3 1.5-12.6 12.6-12.8c11-.1 16.1 9.5 13.1 12.5z" fill="url(#SVGID_14_)"/><radialGradient id="SVGID_15_" cx="-9888.184" cy="-5636.595" r="8.773" gradientTransform="rotate(-.682 640464.58 -1140598.32) scale(1.4101)" gradientUnits="userSpaceOnUse"><stop offset="0" stop-color="#464646"/><stop offset="1" stop-color="#121212"/></radialGradient><path d="M146.9 98.9c3.1 2.9 5.2-5.2 12.9-5.3 7.7-.1 9.2 7.2 12.8 5s-1.8-12.6-12.9-12.4c-11.1 0-15.9 9.8-12.8 12.7z" fill="url(#SVGID_15_)"/><path d="M112.8 32c21.2-11.6 31-6.4 49.5-9.7 8.1-1.4 10.5-6.4 10.5-6.4-5.5 18.3-29.7 9.5-47.6 12.7L112.8 32z" fill="#847068"/><path class="st20" d="M145.4 169h-1.1c-.3 0-.6 0-.9.3l-14.2 12.5c-.3.3-.3.6-.3.9v2.3c0 .6.3 1.1.9 1.1h4.3v12.2c0 4.3.6 6.5 2.3 8.2 2 2 5.7 3.4 9.6 3.4s7.1-.9 10.2-3.1c.3-.3.6-.6.3-.9v-6.8c0-.3-.3-.9-.6-.9-.3-.3-.9-.3-1.1 0-2 .9-3.7 1.4-5.4 1.4-2.6 0-3.7-1.4-3.7-4v-9.4h8.8c.6 0 1.1-.3 1.1-.9v-5.7c0-.6-.3-1.1-.9-1.1H146v-8.2c.6-.7 0-1.3-.6-1.3"/><path d="M244.6 219.7c-4.1 2.7 0 7.3-.2 11-.3 4.3-3 4.5-4.1 7.7-1.5 4.4 1 8.1-2.9 12.2-.2.2.1.6.3.3 1.5-1.5 2.4-3.1 2.7-5.3.2-1 0-2 .1-3 .3-2.9 1.2-5.1 2.8-7.4.9-1.3 1.4-2.2 1.6-3.8.3-3-3.1-9.2.1-11.2 0-.2-.2-.6-.4-.5z"/><path class="st21" d="M246.5 217.9l.6 3.6-6-1.9 4-2.6 1.4.9z"/><ellipse transform="rotate(-77.05 252.501 192.615)" cx="252.5" cy="192.6" rx="26.9" ry="22.9" opacity=".66" fill="#ec2c28"/><circle class="st23" cx="267.6" cy="179.7" r="3.4"/><path d="M35.8 128.5c-1.1 1.6-1.2 3.1-.4 4.9 1.9 4.4 7.2 5.8 7.3 11.6 0 3.3-1.9 5.6-1.1 8.9 1.4 5.3 5.4 8.5 3.2 14.6-.2.5.7.8.8.2 1-2.8.9-5.3 0-8-.4-1.3-1.1-2.4-1.7-3.7-1.6-3.3-1.7-5.4-1-8.9.5-2.3.7-4-.1-6.3-1.3-3.4-8.9-9.1-6.3-12.9.4-.4-.4-.9-.7-.4z"/><path class="st21" d="M37.1 125.3l2.7 3.8-8 1.3 3.3-5.3 2 .2z"/><ellipse transform="rotate(-12.967 29.891 92.4)" class="st20" cx="29.9" cy="92.4" rx="29.6" ry="34.9"/><circle class="st23" cx="40.1" cy="68.9" r="4.4"/><path class="st20" d="M254 117.4c3.5 0 2.5-6.8 1.9-7.5-.7-.7-20-1.1-25.9-3.3-2.7 4.8-1.7 5.7-1 7.5 4 .8 22 3.1 25 3.3zM63.4 233c-3.6.4-1.9 7.1-1.1 7.7s22.4-1.9 28.8-.4c-.7-5.7-.7-5.7-1-6.8-4.4-.4-23.6-.7-26.7-.5z"/></svg>