<svg id="Layer_1" xmlns="http://www.w3.org/2000/svg" xmlns:xlink="http://www.w3.org/1999/xlink" width="618" height="639"><style>.st0{fill:none}.st1{fill:#29abe2}.st2{opacity:.4;enable-background:new}.st11{fill:#fff}.st13{fill:#fbc48a}</style><pattern y="639" width="242" height="242" patternUnits="userSpaceOnUse" id="SVGID_5_" viewBox="0 -242 242 242" overflow="visible"><path class="st0" d="M0-242h242V0H0z"/><path class="st0" d="M0-242h242V0H0z"/><path class="st1" d="M0-242h242V0H0z"/><path class="st2" d="M0-242h11V0H0zm22 0h11V0H22zm22 0h11V0H44zm22 0h11V0H66zm22 0h11V0H88zm22 0h11V0h-11zm22 0h11V0h-11zm22 0h11V0h-11zm22 0h11V0h-11zm22 0h11V0h-11zm22 0h11V0h-11z"/><path class="st2" d="M0-11h242V0H0zm0-22h242v11H0zm0-22h242v11H0zm0-22h242v11H0zm0-22h242v11H0zm0-22h242v11H0zm0-22h242v11H0zm0-22h242v11H0zm0-22h242v11H0zm0-22h242v11H0zm0-22h242v11H0z"/></pattern><pattern y="639" width="242" height="242" patternUnits="userSpaceOnUse" id="SVGID_7_" viewBox="0 -242 242 242" overflow="visible"><path class="st0" d="M0-242h242V0H0z"/><path class="st0" d="M0-242h242V0H0z"/><path class="st1" d="M0-242h242V0H0z"/><path class="st2" d="M0-242h11V0H0zm22 0h11V0H22zm22 0h11V0H44zm22 0h11V0H66zm22 0h11V0H88zm22 0h11V0h-11zm22 0h11V0h-11zm22 0h11V0h-11zm22 0h11V0h-11zm22 0h11V0h-11zm22 0h11V0h-11z"/><path class="st2" d="M0-11h242V0H0zm0-22h242v11H0zm0-22h242v11H0zm0-22h242v11H0zm0-22h242v11H0zm0-22h242v11H0zm0-22h242v11H0zm0-22h242v11H0zm0-22h242v11H0zm0-22h242v11H0zm0-22h242v11H0z"/></pattern><pattern y="639" width="242" height="242" patternUnits="userSpaceOnUse" id="SVGID_8_" viewBox="0 -242 242 242" overflow="visible"><path class="st0" d="M0-242h242V0H0z"/><path class="st0" d="M0-242h242V0H0z"/><path class="st1" d="M0-242h242V0H0z"/><path class="st2" d="M0-242h11V0H0zm22 0h11V0H22zm22 0h11V0H44zm22 0h11V0H66zm22 0h11V0H88zm22 0h11V0h-11zm22 0h11V0h-11zm22 0h11V0h-11zm22 0h11V0h-11zm22 0h11V0h-11zm22 0h11V0h-11z"/><path class="st2" d="M0-11h242V0H0zm0-22h242v11H0zm0-22h242v11H0zm0-22h242v11H0zm0-22h242v11H0zm0-22h242v11H0zm0-22h242v11H0zm0-22h242v11H0zm0-22h242v11H0zm0-22h242v11H0zm0-22h242v11H0z"/></pattern><circle cx="301" cy="338.9" r="294.9" fill="#f2f2f2"/><defs><path id="SVGID_1_" d="M595.9 338.9c0 162.8-132 294.9-294.9 294.9S6.1 501.7 6.1 338.9 138.2 44 301 44c119.4 0 222.2 71 268.6 173 5.3 11.8 20.7 12.8 21.7 17.2 1 4.7-3.5 35.1-1.8 43.2 4.2 19.8 6.4 40.4 6.4 61.5z"/></defs><clipPath id="SVGID_2_"><use xlink:href="#SVGID_1_" overflow="visible"/></clipPath><g clip-path="url(#SVGID_2_)"><path d="M452.8 940.2c0 2.9-79.7 5.2-178 5.2s-177.9-2.3-177.9-5.2 79.7-5.2 177.9-5.2c98.3 0 178 2.3 178 5.2z" opacity=".1"/><linearGradient id="SVGID_3_" gradientUnits="userSpaceOnUse" x1="332.954" y1="-194.405" x2="332.954" y2="-32.874" gradientTransform="matrix(1 0 0 -1 0 640.55)"><stop offset="0" stop-color="#426897"/><stop offset="1" stop-color="#192f4b"/></linearGradient><path d="M344.2 661.1c1.8 21.8 3.2 43.3 4.5 64.9 1.2 21.6 2.2 43.3 3.1 64.9 1.6 43.3 2.5 86.7 2.4 130.1l-42.5-1.7c3.3-42.7 5.8-85.6 7.5-128.5.8-21.5 1.5-42.9 1.9-64.4.4-21.4.7-43 .5-64.3l22.6-1z" fill="url(#SVGID_3_)"/><linearGradient id="SVGID_4_" gradientUnits="userSpaceOnUse" x1="191.246" y1="-194.404" x2="191.246" y2="-32.873" gradientTransform="matrix(1 0 0 -1 0 640.55)"><stop offset="0" stop-color="#426897"/><stop offset="1" stop-color="#192f4b"/></linearGradient><path d="M202.5 662.2c-.1 21.3.1 42.9.6 64.4.4 21.5 1.1 42.9 1.9 64.4 1.7 42.9 4.1 85.8 7.5 128.5l-42.5 1.7c-.1-43.5.8-86.9 2.4-130.2.8-21.7 1.9-43.3 3.1-64.9 1.3-21.7 2.7-43.2 4.4-64.9l22.6 1z" fill="url(#SVGID_4_)"/><pattern id="SVGID_6_" xlink:href="#SVGID_5_" patternTransform="matrix(1 0 0 -1 1276 -16762.35)"/><path d="M163 478.9c-.9 1.4-2.3 3.4-3.4 5.2-1.2 1.9-2.3 3.8-3.4 5.7-2.2 3.9-4.2 7.9-6.1 11.9-3.8 8.1-7.1 16.5-9.8 25-5.5 17-9.1 34.5-10.9 52-3.6 35.1-.3 70.3 7.7 104.3l-72.6 7.8c-.1-41.6 5.8-83.5 19.3-122.6 6.8-19.5 15.4-38.3 26-55.7 5.3-8.7 11.1-17.1 17.4-25.1 3.2-4 6.4-7.9 9.9-11.7 1.7-1.9 3.5-3.7 5.3-5.6 1.9-1.9 3.6-3.5 6-5.6l14.6 14.4z" fill="url(#SVGID_6_)"/><linearGradient id="SVGID_9_" gradientUnits="userSpaceOnUse" x1="1279.672" y1="-1653.423" x2="1279.672" y2="-1491.893" gradientTransform="matrix(1 .0004 .0004 -1 -1016.632 1552.756)"><stop offset="0" stop-color="#426897"/><stop offset="1" stop-color="#192f4b"/></linearGradient><path d="M372.8 654.1c0 27.1-40.5 24-103.5 24S154 681 154 654c0-27.1 52.3-24 115.3-24s103.5-3 103.5 24.1z" fill="url(#SVGID_9_)"/><pattern id="SVGID_10_" xlink:href="#SVGID_7_" patternTransform="matrix(1 0 0 -1 1276 -16762.35)"/><path d="M387.7 481c0-12.6-10.2-22.8-22.7-22.8H163.8c-12.6 0-22.7 10.2-22.7 22.8v153.1c0 12.6 10.2 22.7 22.7 22.7H365c12.6 0 22.7-10.2 22.7-22.7V481z" fill="url(#SVGID_10_)"/><path class="st11" d="M224.3 460l37.3 40.7 37.6-40.7z"/><pattern id="SVGID_11_" xlink:href="#SVGID_8_" patternTransform="matrix(1 0 0 -1 1276 -16762.35)"/><path d="M375.9 464.8c4.4 0 9.5-.3 14.3-.8 4.9-.5 9.7-1.3 14.5-2.3 9.5-1.9 18.8-4.8 27.4-8.4 17.3-7.3 31.9-18.2 42.3-31.6 10.5-13.4 17-29.3 20.5-46.3 3.5-17.1 4.1-35.3 2.7-53.7l73 3.3c-3.3 23.4-9 47.1-19 69.8-10 22.6-24.9 44.2-44.4 60.2-19.4 16.2-42.7 26.2-65.7 30.6-11.5 2.2-23 3.2-34.4 3.1-5.7 0-11.3-.3-17-.9s-11-1.3-17.1-2.6l2.9-20.4z" fill="url(#SVGID_11_)"/><path class="st13" d="M591 234.3c-8.5-9-22.5-5.4-22.5-5.4L558.1 271c-.8-.2-1.5-.4-2.3-.6l3.4-49.4c-9.1-8-22.8-2.9-22.8-2.9l-8.1 48.2c-1-.1-1.9-.1-2.7-.2l-3.5-44c-9.9-6.8-23 0-23 0l-2.6 55c-.3.8-3.6 8.1-3.8 8.8l-24.5-11.3c-11 6.3-13.2 21.9-13.2 21.9l36.6 26.1c2.1 8.1 5 13.1 5 13.1 32.8 9.2 74.9 8.2 74.9 8.2 11.1-36.2 12.1-61.9 12.1-61.9l7.4-47.7z"/><radialGradient id="SVGID_12_" cx="-1790.043" cy="-3833.302" r="79.204" gradientTransform="matrix(1 -.0015 -.0015 -1 2161.014 -2919.503)" gradientUnits="userSpaceOnUse"><stop offset="0" stop-color="#454545"/><stop offset="1" stop-color="#252525"/></radialGradient><path d="M303.2 940.3l92-.1c.8 0 1.6-.6 1.6-1.4.8-7.6-3.6-38.3-75.3-34.5-18.1 1-20.6 27.8-20 34.6.2.7.9 1.4 1.7 1.4z" fill="url(#SVGID_12_)"/><radialGradient id="SVGID_13_" cx="199.053" cy="-276.07" r="68.853" gradientTransform="rotate(180 186 320.275)" gradientUnits="userSpaceOnUse"><stop offset="0" stop-color="#454545"/><stop offset="1" stop-color="#252525"/></radialGradient><path d="M221 940.1h-59.5c-.8 0-1.6-.6-1.6-1.4-.8-7.6-3.5-34.3 32.9-34.6 33.3-.3 30.4 27.8 29.8 34.6 0 .8-.8 1.4-1.6 1.4z" fill="url(#SVGID_13_)"/><path class="st13" d="M138.8 681.8s-33.8-9.2-76.7 1.3c0 0-9.2 34.2 6.7 75.8 0 0 28.1 12.3 60.6 12.2 0 0-2.3-30.3-.4-51.2 0 0 3.8 8.9 8 18.9 0 0 11.2 0 16.8-6.6.1 0-2.9-27.1-15-50.4z"/><radialGradient id="SVGID_14_" cx="-14162.601" cy="8986.963" r="145.174" gradientTransform="scale(1 -1) rotate(.711 743075.081 1167651.893)" gradientUnits="userSpaceOnUse"><stop offset="0" stop-color="#fcc58a"/><stop offset=".575" stop-color="#fcc289"/><stop offset=".962" stop-color="#fbb986"/><stop offset="1" stop-color="#fbb885"/></radialGradient><path d="M400.9 183.8c-.2-12.6-10.5-22.4-23-22.3l-232.7 2.9c-12.6.2-22.6 10.3-22.5 22.9 0 0 0 28.4 5.2 197.7 1.7 55.9 13.6 78.7 25.7 78.5H376c12.1-.2 24.4-26 24.7-81.9.9-169.4.2-197.8.2-197.8z" fill="url(#SVGID_14_)"/><path d="M404.1 331.9c.6-135-3.2-148.4-3.2-148.4-.2-12.6-10.5-22.6-23-22.5l-232.8 3c-12.6.2-22.6 10.5-22.5 23 0 0-4 16.8 0 152 1.1 1.1 4.4 19.5 4.4 19.5.7-82.7 17.7-145.3 17.7-145.3s84.1 44.6 176.9 15.1l-17.3-15.1c49.9-5.7 65.2-15.4 65.2-15.4 25 59.8 31.2 150.5 31.2 150.5.6-.6 3.4-16.4 3.4-16.4z" fill="#ce985e"/><linearGradient id="SVGID_15_" gradientUnits="userSpaceOnUse" x1="-14167.143" y1="9250.249" x2="-14167.143" y2="8942.124" gradientTransform="scale(1 -1) rotate(.711 743075.081 1167651.893)"><stop offset="0" stop-color="#574537"/><stop offset=".576" stop-color="#433329"/><stop offset="1" stop-color="#32241d"/></linearGradient><path d="M127.1 358.6c0-3.8-22.1-9.4-25.8-147.4-2.9 3.2-7.5 5.8-10.1 9.4-.1-37.2 17.5-44.8 17.5-44.8-5.2 4.7.4-.2 0 0 0 0-.1-6.7-11.1-7.3 8.1-10.1 16.3-10.4 28.9-11.1-3-.8 7.6-21.9 9-23.6 6.5-7.7 17.6-12.3 27.2-14.5-3.4 3.6-4.9 8-7.6 11.9 32.7-13.7 47-23.9 83.3-24.8 29.7-.7 73-1.7 101.5-13 18.6-7.4 32.1-18.7 29.4-36.3-.7-.3-.7-.3 0 0 31.9 20.7 28.3 54.7 28.3 54.7s3.6-1.1 9.1-12.9c7.8 23.3 4.3 48.4-5.5 63.8 29.8 17.4 22.6 65 21.1 87.4-5.2 78.2-21.5 98.5-21.5 98.5.9-46.7-4.4-118.4-25.2-161 0 0-23.7 16.6-63.3 24.9l18.4 9.7c-101 25.5-190.5-16.3-189.6-23-.1.3-18.4 44.8-14 159.4z" fill="url(#SVGID_15_)"/><path d="M390.3 335.1c.1 8.5-6.7 15.5-15.3 15.6-8.5.1-15.5-6.7-15.7-15.3-.1-8.5 6.7-15.5 15.3-15.7 8.6 0 15.6 6.8 15.7 15.4zm-221.1 2.7c.1 8.5-6.7 15.5-15.3 15.6-8.5.1-15.5-6.7-15.6-15.3-.1-8.5 6.7-15.5 15.3-15.6 8.5-.1 15.5 6.8 15.6 15.3z" fill="#fab383"/><path d="M195.5 139.8c55-30.2 80.7-16.8 128.8-25.2 21-3.7 27.2-16.7 27.2-16.7-14.2 47.6-77.1 24.6-123.8 33.1l-32.2 8.8z" fill="#836f67"/><radialGradient id="SVGID_16_" cx="197.404" cy="356.456" r="24.723" gradientTransform="matrix(1 0 0 -1 0 640.55)" gradientUnits="userSpaceOnUse"><stop offset="0" stop-color="#454545"/><stop offset="1" stop-color="#101010"/></radialGradient><circle cx="197.5" cy="285" r="21.5" fill="url(#SVGID_16_)"/><circle class="st11" cx="203.6" cy="277.5" r="7.5"/><radialGradient id="SVGID_17_" cx="333.749" cy="356.456" r="24.724" gradientTransform="matrix(1 0 0 -1 0 640.55)" gradientUnits="userSpaceOnUse"><stop offset="0" stop-color="#454545"/><stop offset="1" stop-color="#101010"/></radialGradient><circle cx="333.8" cy="285" r="21.5" fill="url(#SVGID_17_)"/><circle class="st11" cx="340" cy="277.5" r="7.5"/><path d="M269.3 401.3c-39.1 0-57.3-15-58-15.6-2.3-1.9-2.5-5.3-.6-7.6s5.3-2.5 7.6-.6c.3.2 16.4 13.1 51.1 13.1 28.4 0 43.3-12.9 43.4-13 2.2-2 5.6-1.8 7.6.4s1.8 5.6-.4 7.6c-.8.6-17.9 15.7-50.7 15.7z" fill="#856848"/><path d="M413.3 251c-19.9-1.5-26.9-5.9-66.8-5.7-31 .2-49.9 6.6-81 6.6h-.1c-31 0-49.9-6.4-81-6.6-39.9-.2-46.9 4.4-66.8 6-1.8.1-3.4 1.4-3.2 4.5 0 5.2.4 9.7.4 14.3 0 4.1 3.4 3.6 5.5 8.4 6.4 15.4 3.8 41.1 18.9 54.5 4.3 3.8 12.1 8.6 19.7 9.3 36.5 3.4 67.9 5.7 81.9-31.5 2.9-7.7 7.1-14 10.1-25.5 4.2-7.8 4.4-6.2 14.5-6.8 10.1.5 10.3-1.1 14.5 6.8 3 11.5 7.2 17.8 10.1 25.5 14 37.2 45.4 34.8 81.9 31.5 7.6-.7 15.4-5.5 19.7-9.3 15.2-13.4 12.6-39.1 18.9-54.5 2-4.8 5.5-4.3 5.5-8.5 0-4.5.4-9.2.4-14.3.4-3.1-1.3-4.5-3.1-4.7zm-171.7 45.2c-3.9 13.7-10 27.5-22 35-8.2 5.2-19.7 8.3-32.7 8.5-38.2.6-53.6-11.8-53.8-44.1-.1-15.2-2.8-29.2 5.9-36.4 9.7-8 31.8-8.3 48.3-8.3 17 0 43.8 2.7 53.5 12.4 8.2 7.9 4.4 20.2.8 32.9zm156.2-.6c-.2 32.2-15.6 44.7-53.8 44.1-13-.2-24.5-3.2-32.7-8.5-12-7.6-18.1-21.3-22-35-3.6-12.7-7.4-25 .8-33 9.7-9.6 36.5-12.4 53.5-12.4 16.4 0 38.5.3 48.3 8.3 8.7 7.3 6 21.3 5.9 36.5z" fill="#1a1a1a"/><path d="M140.1 509.4c1-9.8 6.9-14.2 6.9-14.2s-2.9 3-4.9 14.2c-2 11.3-1 16.5-1 16.5s-2.1-6.2-1-16.5z" fill="#006986"/></g><path d="M530 7.4c-45.2 0-81.9 36.6-81.9 81.9 0 28.5 14.6 53.7 36.8 68.3-.5 1.2-.9 2.4-1.5 3.5-4.3 9.3-10.6 17.1-18.2 23 14.2-1.3 27.8-7.4 38.1-17.5 8.3 2.9 17.3 4.4 26.6 4.4 45.2 0 81.9-36.6 81.9-81.9S575.2 7.4 530 7.4z" fill="#52b532"/><path class="st11" d="M510.1 138.5h-.5c-2.3 0-4.4-1.2-5.9-2.8l-27.6-33.3c-2.8-3.5-2.3-8.4.9-11.2 3.5-2.8 8.4-2.3 11.2.9l22.2 26.7L572 57.4c3-3.3 8.2-3.3 11.2 0 3 3 3 8.2 0 11.2l-67.7 67.5c-1.4 1.7-3.3 2.4-5.4 2.4z"/></svg>