<svg id="Layer_1" xmlns="http://www.w3.org/2000/svg" xmlns:xlink="http://www.w3.org/1999/xlink" width="288" height="315"><style>.st1{fill:#29abe2}.st2{opacity:.4}.st9{fill:#fff}.st11{fill:#fbc48a}.st25{opacity:.34;fill:#fff}</style><pattern x="60" y="58.2" width="242" height="242" patternUnits="userSpaceOnUse" id="New_Pattern" viewBox="0 -242 242 242" overflow="visible"><path fill="none" d="M0-242h242V0H0z"/><path class="st1" d="M0-242h242V0H0z"/><path class="st2" d="M0-242h11V0H0zm22 0h11V0H22zm22 0h11V0H44zm22 0h11V0H66zm22 0h11V0H88zm22 0h11V0h-11zm22 0h11V0h-11zm22 0h11V0h-11zm22 0h11V0h-11zm22 0h11V0h-11zm22 0h11V0h-11z"/><path class="st2" d="M0-242h242v11H0zm0 22h242v11H0zm0 22h242v11H0zm0 22h242v11H0zm0 22h242v11H0zm0 22h242v11H0zm0 22h242v11H0zm0 22h242v11H0zm0 22h242v11H0zm0 22h242v11H0zm0 22h242v11H0z"/></pattern><path d="M207 313.2c0 1-28.2 1.8-63.1 1.8-34.8 0-63.1-.8-63.1-1.8s28.2-1.8 63.1-1.8c34.8-.1 63.1.8 63.1 1.8z" opacity=".1"/><linearGradient id="SVGID_1_" gradientUnits="userSpaceOnUse" x1="164.494" y1="275.883" x2="164.494" y2="218.628"><stop offset="0" stop-color="#426897"/><stop offset="1" stop-color="#192f4b"/></linearGradient><path d="M168.5 214.2c.6 7.7 1.1 15.3 1.6 23 .4 7.7.8 15.3 1.1 23 .6 15.4.9 30.7.9 46.1l-15.1-.6c1.2-15.1 2.1-30.3 2.7-45.5.3-7.6.5-15.2.7-22.8.2-7.6.2-15.2.2-22.8l7.9-.4z" fill="url(#SVGID_1_)"/><linearGradient id="SVGID_2_" gradientUnits="userSpaceOnUse" x1="114.271" y1="275.883" x2="114.271" y2="218.628"><stop offset="0" stop-color="#426897"/><stop offset="1" stop-color="#192f4b"/></linearGradient><path d="M118.3 214.6c0 7.6.1 15.2.2 22.8.2 7.6.4 15.2.7 22.8.6 15.2 1.5 30.4 2.7 45.5l-15.1.6c0-15.4.3-30.8.9-46.1.3-7.7.7-15.3 1.1-23 .4-7.7.9-15.3 1.6-23l7.9.4z" fill="url(#SVGID_2_)"/><pattern id="SVGID_3_" xlink:href="#New_Pattern" patternTransform="translate(968)"/><path d="M104.3 149.7c-.3.5-.8 1.2-1.2 1.8-.4.7-.8 1.3-1.2 2-.8 1.4-1.5 2.8-2.2 4.2-1.3 2.9-2.5 5.8-3.5 8.9-2 6-3.2 12.2-3.9 18.4-1.3 12.5-.1 24.9 2.7 37l-25.8 2.8c0-14.8 2.1-29.6 6.9-43.5 2.4-6.9 5.5-13.6 9.2-19.8 1.9-3.1 3.9-6.1 6.2-8.9 1.1-1.4 2.3-2.8 3.5-4.1.6-.7 1.2-1.3 1.9-2s1.3-1.2 2.1-2l5.3 5.2z" fill="url(#SVGID_3_)"/><linearGradient id="SVGID_4_" gradientUnits="userSpaceOnUse" x1="1155.908" y1="203.87" x2="1155.908" y2="146.615" gradientTransform="translate(-1016.338 912.216)"><stop offset="0" stop-color="#426897"/><stop offset="1" stop-color="#192f4b"/></linearGradient><path d="M178.6 211.8c0 9.6-14.4 8.5-36.7 8.5-22.3 0-40.9 1-40.9-8.5 0-9.6 18.5-8.5 40.9-8.5 22.4-.1 36.7-1.1 36.7 8.5z" fill="url(#SVGID_4_)"/><pattern id="SVGID_5_" xlink:href="#New_Pattern" patternTransform="translate(968)"/><path d="M183.9 150.4c0-4.5-3.6-8.1-8.1-8.1h-71.3c-4.5 0-8.1 3.6-8.1 8.1v54.3c0 4.5 3.6 8.1 8.1 8.1h71.3c4.5 0 8.1-3.6 8.1-8.1v-54.3z" fill="url(#SVGID_5_)"/><path class="st9" d="M126 143.2l13.2 14.4 13.3-14.4z"/><pattern id="SVGID_6_" xlink:href="#New_Pattern" patternTransform="translate(968)"/><path d="M179.7 144.7c1.6 0 3.4-.1 5.1-.3 1.7-.2 3.4-.5 5.1-.8 3.4-.7 6.6-1.7 9.7-3 6.1-2.6 11.3-6.4 15-11.2 3.7-4.8 6-10.4 7.3-16.4 1.2-6 1.4-12.5 1-19.1l25.9 1.2c-1.2 8.3-3.2 16.7-6.7 24.8-3.5 8-8.8 15.7-15.7 21.3-6.9 5.7-15.1 9.3-23.3 10.8-4.1.8-8.2 1.1-12.2 1.1-2 0-4-.1-6-.3-2-.2-3.9-.5-6-.9l.8-7.2z" fill="url(#SVGID_6_)"/><path class="st11" d="M256 63c-3-3.2-8-1.9-8-1.9L244.3 76c-.3-.1-.5-.1-.8-.2l1.2-17.5c-3.2-2.8-8.1-1-8.1-1l-2.9 17.1c-.3 0-.7 0-1-.1l-1.2-15.6c-3.5-2.4-8.2 0-8.2 0l-.9 19.5c-.1.3-1.3 2.9-1.4 3.1l-8.7-4c-3.9 2.2-4.7 7.8-4.7 7.8l13 9.3c.8 2.9 1.8 4.6 1.8 4.6 11.6 3.3 26.5 2.9 26.5 2.9 3.9-12.8 4.3-21.9 4.3-21.9l2.8-17z"/><radialGradient id="SVGID_7_" cx="-1985.697" cy="3861.895" r="28.074" gradientTransform="translate(2159.912 -3560.092)" gradientUnits="userSpaceOnUse"><stop offset="0" stop-color="#454545"/><stop offset="1" stop-color="#252525"/></radialGradient><path d="M153.9 313.2h32.6c.3 0 .6-.2.6-.5.3-2.7-1.3-13.6-26.7-12.2-6.4.3-7.3 9.9-7.1 12.3.1.2.4.4.6.4z" fill="url(#SVGID_7_)"/><radialGradient id="SVGID_8_" cx="212.22" cy="304.829" r="24.405" gradientTransform="matrix(-1 0 0 1 320 0)" gradientUnits="userSpaceOnUse"><stop offset="0" stop-color="#454545"/><stop offset="1" stop-color="#252525"/></radialGradient><path d="M124.8 313.2h-21.1c-.3 0-.6-.2-.6-.5-.3-2.7-1.2-12.1 11.7-12.3 11.8-.1 10.8 9.8 10.5 12.3.1.2-.2.5-.5.5z" fill="url(#SVGID_8_)"/><path class="st11" d="M95.7 221.6s-12-3.3-27.2.5c0 0-3.3 12.1 2.4 26.9 0 0 10 4.4 21.5 4.3 0 0-.8-10.8-.1-18.2 0 0 1.3 3.1 2.8 6.7 0 0 4 0 6-2.3-.1 0-1.1-9.6-5.4-17.9z"/><radialGradient id="SVGID_9_" cx="-14282.228" cy="-8570.335" r="51.457" gradientTransform="rotate(-.81 693560.54 -1165931.076)" gradientUnits="userSpaceOnUse"><stop offset="0" stop-color="#fcc58a"/><stop offset=".575" stop-color="#fcc289"/><stop offset=".962" stop-color="#fbb986"/><stop offset="1" stop-color="#fbb885"/></radialGradient><path d="M188.6 45.1c-.1-4.5-3.7-8-8.2-7.9l-82.5 1c-4.5.1-8 3.6-8 8.1 0 0 0 10.1 1.8 70.1.6 19.8 4.8 27.9 9.1 27.8h78.8c4.3-.1 8.7-9.2 8.8-29 .4-60.1.2-70.1.2-70.1z" fill="url(#SVGID_9_)"/><path d="M189.7 97.6c.2-47.9-1.2-52.6-1.2-52.6-.1-4.5-3.7-8-8.2-8l-82.5 1c-4.5.1-8 3.7-8 8.2 0 0-1.4 6 0 53.9.4.4 1.6 6.9 1.6 6.9.3-29.3 6.3-51.5 6.3-51.5s29.8 15.8 62.7 5.4l-6.1-5.4c17.7-2 23.1-5.5 23.1-5.5 8.9 21.2 11.1 53.3 11.1 53.3.2-.1 1.2-5.7 1.2-5.7z" fill="#ce985e"/><linearGradient id="SVGID_10_" gradientUnits="userSpaceOnUse" x1="-14283.852" y1="-8663.64" x2="-14283.852" y2="-8554.424" gradientTransform="rotate(-.81 693560.54 -1165931.076)"><stop offset="0" stop-color="#574537"/><stop offset=".576" stop-color="#433329"/><stop offset="1" stop-color="#32241d"/></linearGradient><path d="M91.5 107c0-1.3-7.8-3.3-9.2-52.3-1 1.1-2.6 2-3.6 3.3 0-13.1 6.3-15.8 6.3-15.8-1.8 1.7.1-.1 0 0 0 0 0-2.4-3.9-2.6 2.9-3.6 5.8-3.7 10.2-3.9-1-.3 2.7-7.8 3.2-8.4 2.3-2.7 6.3-4.4 9.7-5.1-1.2 1.3-1.7 2.8-2.7 4.2 11.6-4.9 16.6-8.5 29.5-8.8 10.5-.2 25.9-.6 36-4.6 6.6-2.6 11.4-6.6 10.4-12.9-.2-.1-.3-.1 0 0 11.3 7.3 10 19.4 10 19.4s1.3-.4 3.2-4.6c2.8 8.2 1.5 17.2-2 22.6 10.6 6.2 8 23 7.5 31-1.8 27.7-7.6 34.9-7.6 34.9.3-16.6-1.6-42-8.9-57.1 0 0-8.4 5.9-22.4 8.8l6.5 3.4c-35.8 9-67.5-5.8-67.2-8.2 0 .3-6.5 16.1-5 56.7z" fill="url(#SVGID_10_)"/><path d="M184.8 98.7c0 3-2.4 5.5-5.4 5.5-3 0-5.5-2.4-5.5-5.4 0-3 2.4-5.5 5.4-5.5 3-.1 5.5 2.4 5.5 5.4zm-78.3 1c0 3-2.4 5.5-5.4 5.5-3 0-5.5-2.4-5.5-5.4 0-3 2.4-5.5 5.4-5.5 2.9-.1 5.4 2.3 5.5 5.4z" fill="#fab383"/><path d="M115.8 29.5c19.5-10.7 28.6-5.9 45.7-8.9 7.4-1.3 9.7-5.9 9.7-5.9-5 16.9-27.3 8.7-43.9 11.7l-11.5 3.1z" fill="#836f67"/><radialGradient id="SVGID_11_" cx="116.449" cy="80.629" r="8.763" gradientUnits="userSpaceOnUse"><stop offset="0" stop-color="#454545"/><stop offset="1" stop-color="#101010"/></radialGradient><path d="M124.1 80.9c0 4.2-3.4 7.6-7.6 7.6-4.2 0-7.6-3.4-7.6-7.6 0-4.2 3.4-7.6 7.6-7.6 4.2 0 7.6 3.4 7.6 7.6z" fill="url(#SVGID_11_)"/><path class="st9" d="M121.3 78.3c0 1.5-1.2 2.7-2.7 2.7-1.5 0-2.7-1.2-2.7-2.7 0-1.5 1.2-2.7 2.7-2.7 1.5 0 2.7 1.2 2.7 2.7z"/><radialGradient id="SVGID_12_" cx="164.777" cy="80.629" r="8.763" gradientUnits="userSpaceOnUse"><stop offset="0" stop-color="#454545"/><stop offset="1" stop-color="#101010"/></radialGradient><path d="M172.4 80.9c0 4.2-3.4 7.6-7.6 7.6-4.2 0-7.6-3.4-7.6-7.6 0-4.2 3.4-7.6 7.6-7.6 4.2 0 7.6 3.4 7.6 7.6z" fill="url(#SVGID_12_)"/><path class="st9" d="M169.6 78.3c0 1.5-1.2 2.7-2.7 2.7-1.5 0-2.7-1.2-2.7-2.7 0-1.5 1.2-2.7 2.7-2.7 1.6 0 2.7 1.2 2.7 2.7z"/><path d="M141.9 122.2c-13.9 0-20.3-5.3-20.6-5.5-.8-.7-.9-1.9-.2-2.7.7-.8 1.9-.9 2.7-.2.1.1 5.8 4.6 18.1 4.6 10.1 0 15.3-4.6 15.4-4.6.8-.7 2-.6 2.7.2.7.8.6 2-.1 2.7-.3.1-6.3 5.5-18 5.5z" fill="#856848"/><path d="M193 68.9c-7-.5-9.5-2.1-23.7-2-11 .1-17.7 2.3-28.7 2.3s-17.7-2.3-28.7-2.3c-14.1-.1-16.6 1.6-23.7 2.1-.6 0-1.2.5-1.1 1.6 0 1.8.1 3.4.1 5.1 0 1.5 1.2 1.3 1.9 3 2.3 5.5 1.3 14.6 6.7 19.3 1.5 1.4 4.3 3 7 3.3 12.9 1.2 24.1 2 29-11.2 1-2.7 2.5-5 3.6-9 1.5-2.8 1.6-2.2 5.1-2.4 3.6.2 3.7-.4 5.1 2.4 1.1 4.1 2.6 6.3 3.6 9 4.9 13.2 16.1 12.4 29 11.2 2.7-.2 5.4-1.9 7-3.3 5.4-4.8 4.5-13.9 6.7-19.3.7-1.7 1.9-1.5 1.9-3 0-1.6.1-3.3.1-5.1.3-1.1-.3-1.6-.9-1.7zm-60.9 16c-1.4 4.9-3.5 9.7-7.8 12.4-2.9 1.9-7 2.9-11.6 3-13.5.2-19-4.2-19.1-15.6 0-5.4-1-10.4 2.1-12.9 3.5-2.8 11.3-3 17.1-3 6 0 15.5 1 19 4.4 3 2.9 1.6 7.2.3 11.7zm55.4-.2c-.1 11.4-5.5 15.9-19.1 15.6-4.6-.1-8.7-1.2-11.6-3-4.2-2.7-6.4-7.6-7.8-12.4-1.3-4.5-2.6-8.9.3-11.7 3.5-3.4 12.9-4.4 19-4.4 5.8 0 13.7.1 17.1 3 3.1 2.6 2.1 7.5 2.1 12.9z" fill="#1a1a1a"/><path d="M96.1 160.5c.4-3.5 2.5-5 2.5-5s-1 1.1-1.7 5c-.7 4-.4 5.9-.4 5.9s-.8-2.2-.4-5.9z" fill="#006986"/><path d="M249.6 223.5c-4.1 2.7 0 7.3-.2 11-.3 4.3-3 4.5-4.1 7.7-1.5 4.4 1 8.1-2.9 12.2-.2.2.1.6.3.3 1.5-1.5 2.4-3.1 2.7-5.3.2-1 0-2 .1-3 .3-2.9 1.2-5.1 2.8-7.4.9-1.3 1.4-2.2 1.6-3.8.3-3-3.1-9.2.1-11.2 0-.2-.2-.6-.4-.5z"/><path class="st1" d="M251.5 221.7l.6 3.6-6-1.9 4-2.6z"/><ellipse transform="rotate(-77.05 257.485 196.466)" class="st1" cx="257.5" cy="196.5" rx="26.9" ry="22.9"/><circle class="st25" cx="272.6" cy="183.5" r="3.4"/><path d="M40.8 132.3c-1.1 1.6-1.2 3.1-.4 4.9 1.9 4.4 7.2 5.8 7.3 11.6 0 3.3-1.9 5.6-1.1 8.9 1.4 5.3 5.4 8.5 3.2 14.6-.2.5.7.8.8.2 1-2.8.9-5.3 0-8-.4-1.3-1.1-2.4-1.7-3.7-1.6-3.3-1.7-5.4-1-8.9.5-2.3.7-4-.1-6.3-1.3-3.4-8.9-9.1-6.3-12.9.4-.4-.4-.9-.7-.4z"/><path class="st1" d="M42.1 129.1l2.7 3.8-8 1.3 3.3-5.3z"/><ellipse transform="rotate(-12.967 34.869 96.306)" class="st1" cx="34.9" cy="96.3" rx="29.6" ry="34.9"/><circle class="st25" cx="45.1" cy="72.7" r="4.4"/></svg>