<svg id="Layer_1" xmlns="http://www.w3.org/2000/svg" viewBox="0 0 60.6 23.3"><style>.st0{fill:#cd985d}.st2{fill:#fff}</style><path class="st0" d="M.1 16.4c.6 4.4 4.6 7.5 8.9 6.8 4.4-.6 7.3-4.7 6.8-9.1-.6-4.4-4.6-7.5-8.9-6.8-4.3.6-7.4 4.7-6.8 9.1z"/><radialGradient id="SVGID_1_" cx="-805.471" cy="1011.298" r="6.313" gradientTransform="matrix(-1.097 .1581 .1533 1.1168 -1030.76 -987.38)" gradientUnits="userSpaceOnUse"><stop offset="0" stop-color="#333"/><stop offset=".456" stop-color="#313131"/><stop offset=".7" stop-color="#292929"/><stop offset=".894" stop-color="#1b1b1b"/><stop offset="1" stop-color="#121212"/></radialGradient><path d="M1 15.7c.5 3.9 4.1 6.6 7.8 6.1 3.9-.6 6.5-4.2 6-8.1s-4.1-6.6-7.8-6c-3.9.5-6.6 4.1-6 8z" fill="url(#SVGID_1_)"/><path class="st2" d="M12.4 10.6c1 1.4.9 3.2-.3 4.1-1.2.9-3 .5-4-.9s-.9-3.2.3-4.1c1.2-.8 3-.5 4 .9z"/><path class="st0" d="M60.5 6.9c.6 4.4-2.4 8.5-6.8 9.1-4.4.6-8.3-2.4-8.9-6.8-.6-4.4 2.4-8.5 6.8-9.1 4.2-.7 8.3 2.4 8.9 6.8z"/><radialGradient id="SVGID_2_" cx="-579.651" cy="1011.207" r="6.307" gradientTransform="matrix(1.097 -.1581 .1533 1.1168 533.372 -1213.501)" gradientUnits="userSpaceOnUse"><stop offset="0" stop-color="#333"/><stop offset=".456" stop-color="#313131"/><stop offset=".7" stop-color="#292929"/><stop offset=".894" stop-color="#1b1b1b"/><stop offset="1" stop-color="#121212"/></radialGradient><path d="M59.5 6.5c.5 3.9-2.1 7.5-6 8-3.9.6-7.3-2.2-7.8-6.1s2.1-7.5 6-8c3.7-.5 7.2 2.2 7.8 6.1z" fill="url(#SVGID_2_)"/><path class="st2" d="M57.1 3.4c1 1.4.9 3.2-.3 4.1s-3 .5-4-.9-.9-3.2.3-4.1 3-.5 4 .9z"/><path class="st0" d="M.1 16.4c.6 4.4 4.6 7.5 8.9 6.8 4.4-.6 7.3-4.7 6.8-9.1-.6-4.4-4.6-7.5-8.9-6.8-4.3.6-7.4 4.7-6.8 9.1z"/><radialGradient id="SVGID_3_" cx="-805.471" cy="1011.298" r="6.313" gradientTransform="matrix(-1.097 .1581 .1533 1.1168 -1030.76 -987.38)" gradientUnits="userSpaceOnUse"><stop offset="0" stop-color="#333"/><stop offset=".456" stop-color="#313131"/><stop offset=".7" stop-color="#292929"/><stop offset=".894" stop-color="#1b1b1b"/><stop offset="1" stop-color="#121212"/></radialGradient><path d="M1 15.7c.5 3.9 4.1 6.6 7.8 6.1 3.9-.6 6.5-4.2 6-8.1s-4.1-6.6-7.8-6c-3.9.5-6.6 4.1-6 8z" fill="url(#SVGID_3_)"/><path class="st2" d="M12.4 10.6c1 1.4.9 3.2-.3 4.1-1.2.9-3 .5-4-.9s-.9-3.2.3-4.1c1.2-.8 3-.5 4 .9z"/><path class="st0" d="M60.5 6.9c.6 4.4-2.4 8.5-6.8 9.1-4.4.6-8.3-2.4-8.9-6.8-.6-4.4 2.4-8.5 6.8-9.1 4.2-.7 8.3 2.4 8.9 6.8z"/><radialGradient id="SVGID_4_" cx="-579.651" cy="1011.207" r="6.307" gradientTransform="matrix(1.097 -.1581 .1533 1.1168 533.372 -1213.501)" gradientUnits="userSpaceOnUse"><stop offset="0" stop-color="#333"/><stop offset=".456" stop-color="#313131"/><stop offset=".7" stop-color="#292929"/><stop offset=".894" stop-color="#1b1b1b"/><stop offset="1" stop-color="#121212"/></radialGradient><path d="M59.5 6.5c.5 3.9-2.1 7.5-6 8-3.9.6-7.3-2.2-7.8-6.1s2.1-7.5 6-8c3.7-.5 7.2 2.2 7.8 6.1z" fill="url(#SVGID_4_)"/><path class="st2" d="M57.1 3.4c1 1.4.9 3.2-.3 4.1s-3 .5-4-.9-.9-3.2.3-4.1 3-.5 4 .9z"/></svg>