<svg xmlns="http://www.w3.org/2000/svg" width="30" height="30">
  <path d="M22.223 27.762c-4.116 0-7.464-3.349-7.464-7.463 0-4.117 3.348-7.466 7.464-7.466 4.117 0 7.465 3.349 7.465 7.466-.001 4.114-3.348 7.463-7.465 7.463zm0-13.484a6.025 6.025 0 0 0-6.018 6.021 6.025 6.025 0 0 0 6.018 6.018c3.32 0 6.02-2.701 6.02-6.018a6.028 6.028 0 0 0-6.02-6.021z"/>
  <path d="M24.919 19.833h-1.973V16.1a.724.724 0 0 0-1.446 0v4.454c0 .399.326.723.723.723h2.697a.723.723 0 0 0-.001-1.444zM14.372 9.138l-5.781-6.45a1.338 1.338 0 0 0-.971-.45c-.365.039-.728.149-.986.42L.511 9.123a.723.723 0 0 0 1.048.994l5.365-5.666v22.587a.723.723 0 0 0 1.445 0V4.605l4.926 5.498c.142.16.34.24.539.24a.723.723 0 0 0 .538-1.205z"/>
</svg>
