<svg xmlns="http://www.w3.org/2000/svg" width="30" height="30">
  <path d="M22.192 18.004c-4.098 0-7.432-3.333-7.432-7.431 0-4.099 3.334-7.434 7.432-7.434 4.1 0 7.433 3.335 7.433 7.434 0 4.098-3.333 7.431-7.433 7.431zm0-13.427a6 6 0 0 0-5.993 5.996 6 6 0 0 0 5.993 5.993 6 6 0 0 0 5.994-5.993 6 6 0 0 0-5.994-5.996z"/>
  <path d="M22.192 11.545a.72.72 0 0 1-.719-.718V6.392a.72.72 0 0 1 1.439 0v4.436a.72.72 0 0 1-.72.717z"/>
  <path d="M24.877 11.545h-2.685a.72.72 0 0 1-.719-.718.72.72 0 0 1 .719-.719h2.685a.72.72 0 0 1 0 1.437zM7.301 27.707h-.02a1.332 1.332 0 0 1-.965-.445L.559 20.836a.719.719 0 1 1 1.072-.959l5.674 6.334 6.012-6.349a.717.717 0 0 1 1.016-.029.72.72 0 0 1 .027 1.019L8.265 27.29a1.34 1.34 0 0 1-.964.417z"/>
  <path d="M7.254 27.582a.72.72 0 0 1-.72-.719V3.013a.72.72 0 0 1 1.439 0v23.85a.72.72 0 0 1-.719.719z"/>
</svg>
