<?xml version="1.0" encoding="utf-8"?>
<!-- Generator: Adobe Illustrator 20.1.0, SVG Export Plug-In . SVG Version: 6.00 Build 0)  -->
<svg version="1.1" id="Layer_1" xmlns="http://www.w3.org/2000/svg" xmlns:xlink="http://www.w3.org/1999/xlink" x="0px" y="0px"
	 width="30px" height="30px" viewBox="0 0 30 30" enable-background="new 0 0 30 30" xml:space="preserve">
<g id="Layer_1_1_">
</g>
<g id="Layer_5" display="none">
	<rect x="-214.75" y="-545.766" display="inline" fill="#333333" width="3016" height="1758"/>
</g>
<g id="Layer_4">
</g>
<g id="Layer_3">
</g>
<g id="Layer_2">
	<g>
		<g id="Sort_by_price_copy_10_">
			<g>
				<g>
					<g>
						<path fill="#999999" d="M22.223,27.762c-4.116,0-7.464-3.349-7.464-7.463c0-4.117,3.348-7.466,7.464-7.466
							c4.117,0,7.465,3.349,7.465,7.466C29.687,24.413,26.34,27.762,22.223,27.762z M22.223,14.278c-3.32,0-6.018,2.701-6.018,6.021
							c0,3.319,2.701,6.018,6.018,6.018c3.32,0,6.02-2.701,6.02-6.018C28.242,16.979,25.543,14.278,22.223,14.278z"/>
					</g>
				</g>
			</g>
			<path fill="#999999" d="M24.919,19.833h-1.973V16.1c0-0.399-0.325-0.723-0.723-0.723c-0.397,0-0.723,0.325-0.723,0.723v4.454
				c0,0.399,0.326,0.723,0.723,0.723h2.697c0.399,0,0.722-0.325,0.722-0.723S25.318,19.833,24.919,19.833z"/>
		</g>
		<path fill="#999999" d="M14.372,9.138l-5.781-6.45C8.342,2.408,7.988,2.245,7.62,2.238c-0.365,0.039-0.728,0.149-0.986,0.42
			L0.511,9.123c-0.275,0.29-0.262,0.747,0.027,1.022c0.29,0.273,0.747,0.263,1.021-0.028l5.365-5.666v22.587
			c0,0.399,0.324,0.723,0.723,0.723c0.398,0,0.722-0.325,0.722-0.723V4.605l4.926,5.498c0.142,0.16,0.34,0.24,0.539,0.24
			c0.17,0,0.343-0.06,0.481-0.184C14.613,9.893,14.638,9.436,14.372,9.138z"/>
	</g>
</g>
</svg>
