<?xml version="1.0" encoding="utf-8"?>
<!-- Generator: Adobe Illustrator 20.1.0, SVG Export Plug-In . SVG Version: 6.00 Build 0)  -->
<svg version="1.1" id="Layer_1" xmlns="http://www.w3.org/2000/svg" xmlns:xlink="http://www.w3.org/1999/xlink" x="0px" y="0px"
	 width="30px" height="30px" viewBox="0 0 30 30" enable-background="new 0 0 30 30" xml:space="preserve">
<path fill="#999999" d="M15,0C6.7,0,0,6.7,0,15s6.7,15,15,15c8.4,0,15-6.7,15-15S23.3,0,15,0z M15,28C7.9,28,2,22.1,2,15S7.9,2,15,2
	c7.2,0,13,5.8,13,13S22.1,28,15,28z"/>
<path fill="#999999" d="M15.7,5.1c1.1,0,1.2,0.7,1.1,1.9l-0.4,9.1c-0.1,0.9-0.3,1.8-1.4,1.8s-1.3-0.7-1.4-1.8L13.2,7
	c-0.1-1.3,0-1.9,1.2-1.9H15.7z M15.3,21.1c1,0,1.5,0.5,1.5,1.6v0.7c0,1-0.4,1.5-1.5,1.5h-0.7c-1,0-1.5-0.4-1.5-1.5v-0.7
	c0-1,0.4-1.6,1.5-1.6H15.3z"/>
</svg>
