<svg xmlns="http://www.w3.org/2000/svg" viewBox="0 0 30 30">
  <path d="M2.8 23.3l1.2-.9c-.8-1-1.5-2.1-2.2-3.2 3.5-6 8.1-9.3 13.2-9.3 1.7 0 3.3.4 4.9 1.1L22 9.5l2.4-5.8c.2-.4 0-.9-.4-1.1-.4-.2-.8 0-1 .4l-2.6 6.4c-1.4-.7-3-1-4.6-1.1V.8c-.1-.4-.5-.8-.8-.8-.4 0-.7.4-.7.8v7.5c-1.4.1-2.7.4-4 .9L7.7 3.1c-.2-.5-.7-.6-1-.5-.4.2-.6.7-.4 1.1l2.5 6.1c-1.5.8-2.9 1.8-4.1 3.1L1.6 8.4c-.3-.3-.8-.4-1-.2-.2.2-.4.8-.2 1.1L3.6 14C2.2 15.5 1 17.3 0 19.1c.9 1.5 1.8 3 2.8 4.2zm22.8-7.8c.9 1.1 1.8 2.3 2.6 3.7-3.5 6-8.2 9.3-13.2 9.3-1.9 0-3.8-.5-5.5-1.4l-1.3.9c2.1 1.2 4.4 1.9 6.8 1.9 6 0 11.3-4.2 15-10.8-.8-1.6-2-3.2-3.2-4.6l-1.2 1zM1.5 30c-.5 0-.9-.2-1.2-.6-.5-.7-.3-1.6.3-2.1l27-19.5c.7-.5 1.6-.3 2.1.3.5.7.3 1.6-.3 2.1l-27 19.5c-.3.2-.6.3-.9.3z"/>
  <path d="M10.3 17.9c.4-2.3 2.4-4.1 4.7-4.1.3 0 .6 0 .9.1l1.5-1.1c-.7-.3-1.5-.5-2.4-.5-3.5 0-6.3 2.9-6.3 6.5v.3l1.6-1.2zm9.4 1.9c-.5 2.2-2.4 3.8-4.7 3.8-.2 0-.4 0-.6-.1l-1.8 1.3c.7.3 1.5.5 2.3.5 3.5 0 6.3-2.9 6.3-6.5v-.2l-1.5 1.2z"/>
</svg>
