<svg xmlns="http://www.w3.org/2000/svg" width="21" height="18">
  <path d="M10.097 4.261c2.5 0 4.6 2 4.6 4.6 0 .6-.1 1.1-.3 1.7l2.7 2.7c1.4-1.1 2.5-2.6 3.1-4.3-1.6-4-5.5-6.8-10-6.8-1.3 0-2.5.2-3.6.6l2 2c.4-.4 1-.5 1.5-.5zm-9.1-2.5l2.5 2.5c-1.5 1.2-2.7 2.7-3.4 4.5 1.6 4 5.5 6.8 10 6.8 1.4 0 2.8-.3 4-.8l3.1 3 1.2-1.2-16.2-15.9-1.2 1.1zm5.1 5.1l1.4 1.4c-.09.222-.1.4-.1.6 0 1.5 1.2 2.7 2.7 2.7.2 0 .4 0 .6-.1l1.4 1.4c-.6.3-1.3.5-2 .5-2.5 0-4.6-2-4.6-4.6 0-.652.231-1.306.6-1.9zm3.9-.7l2.9 2.9v-.1c0-1.5-1.4-2.8-2.9-2.8z" fill-rule="evenodd" clip-rule="evenodd"/>
</svg>
