<svg xmlns="http://www.w3.org/2000/svg" width="30" height="30">
  <path d="M26.5 13.9l3.3-4.7c.3-.3.3-.8 0-1.1s-.7-.3-1 0c-.1 0-.1.1-.2.1L25.4 13c-1.1-1.2-2.4-2.1-3.7-2.9l2.6-6.4c.2-.4 0-.9-.4-1.1-.4-.2-.8 0-1 .4l-2.6 6.4c-1.4-.7-3-1-4.6-1.1V.8c0-.4-.4-.8-.7-.8-.4 0-.7.4-.7.8v7.5c-1.4.1-2.7.4-4 .9L7.7 3.1c-.2-.5-.7-.6-1-.5-.4.2-.6.7-.4 1.1l2.5 6.1c-1.5.8-2.9 1.8-4.1 3.1L1.6 8.4c-.3-.3-.8-.4-1-.2S.2 9 .4 9.3L3.6 14C2.2 15.5 1 17.3 0 19.1 3.7 25.8 9 30 15 30s11.3-4.2 15-10.8c-.9-1.8-2.2-3.5-3.5-5v-.3zM15 28.5c-5.1 0-9.7-3.3-13.2-9.3 3.5-6 8.1-9.3 13.2-9.3s9.7 3.3 13.2 9.3c-3.5 6-8.2 9.3-13.2 9.3z"/>
  <path d="M15 25.3c-3.5 0-6.3-2.9-6.3-6.5s2.8-6.5 6.3-6.5 6.3 2.9 6.3 6.5-2.8 6.5-6.3 6.5zm0-11.5c-2.6 0-4.8 2.2-4.8 4.9s2.2 4.9 4.8 4.9 4.8-2.2 4.8-4.9-2.2-4.9-4.8-4.9z"/>
</svg>
