<svg xmlns="http://www.w3.org/2000/svg" width="12" height="11.6">
  <path d="M1.5 11.6c-.2 0-.4-.2-.4-.4V.4c0-.2.2-.4.4-.4s.4.2.4.4v10.9c0 .2-.2.3-.4.3zm4.5 0c-.2 0-.4-.2-.4-.4V.4c0-.2.2-.4.4-.4s.4.2.4.4v10.9c0 .2-.2.3-.4.3zm4.5 0c-.2 0-.4-.2-.4-.4V.4c0-.2.2-.4.4-.4s.4.2.4.4v10.9c0 .2-.2.3-.4.3z"/>
  <path d="M1.5 11.6c-.2 0-.4-.2-.4-.4V2.6c0-.2.2-.4.4-.4s.4.2.4.4v8.6c0 .3-.2.4-.4.4zm4.5 0c-.2 0-.4-.2-.4-.4V5.4c0-.3.2-.4.4-.4s.4.2.4.4v5.9c0 .2-.2.3-.4.3zm4.5 0c-.2 0-.4-.2-.4-.4V9c0-.2.2-.4.4-.4s.4.2.4.4v2.3c0 .2-.2.3-.4.3z"/>
  <circle cx="1.6" cy="2.6" r="1.4"/>
  <path d="M1.6 4.1C.7 4.1 0 3.4 0 2.6 0 1.7.7 1 1.6 1s1.6.7 1.6 1.6c-.1.8-.8 1.5-1.6 1.5zm0-2.7C1 1.4.4 1.9.4 2.6c0 .6.5 1.2 1.2 1.2s1.2-.5 1.2-1.2c-.1-.7-.6-1.2-1.2-1.2z"/>
  <circle cx="6.1" cy="5.7" r="1.4"/>
  <path d="M6.1 7.3c-.9 0-1.6-.7-1.6-1.6s.7-1.6 1.6-1.6 1.6.7 1.6 1.6c-.1.9-.8 1.6-1.6 1.6zm0-2.7c-.6 0-1.2.5-1.2 1.2 0 .6.5 1.2 1.2 1.2s1.2-.5 1.2-1.2c-.1-.7-.6-1.2-1.2-1.2z"/>
  <circle cx="10.5" cy="8.9" r="1.4"/>
  <path d="M10.5 10.5c-.9 0-1.6-.7-1.6-1.6s.7-1.6 1.6-1.6c.8 0 1.5.7 1.5 1.6s-.7 1.6-1.5 1.6zm0-2.8c-.6 0-1.2.5-1.2 1.2 0 .6.5 1.2 1.2 1.2.6 0 1.2-.5 1.2-1.2-.1-.6-.6-1.2-1.2-1.2z"/>
</svg>
