<?xml version="1.0" encoding="utf-8"?>
<!-- Generator: Adobe Illustrator 20.1.0, SVG Export Plug-In . SVG Version: 6.00 Build 0)  -->
<svg version="1.1" id="Layer_1" xmlns="http://www.w3.org/2000/svg" xmlns:xlink="http://www.w3.org/1999/xlink" x="0px" y="0px"
	 width="12px" height="11.6px" viewBox="0 0 12 11.6" style="enable-background:new 0 0 12 11.6;" xml:space="preserve">
<style type="text/css">
	.st0{display:none;}
	.st1{display:inline;fill:#333333;}
	.st2{fill:#999999;}
	.st3{fill:#0099E5;}
	.st4{fill:#FFFFFF;}
</style>
<g id="Layer_1_1_">
</g>
<g id="Layer_5" class="st0">
	<rect x="-536.2" y="-551.5" class="st1" width="3016" height="1758"/>
</g>
<g id="Layer_4">
</g>
<g id="Layer_3">
</g>
<g id="Layer_2">
	<g>
		<g id="Layer_1_116_">
			<g id="Layer_1_119_">
				<g>
					<g>
						<path class="st2" d="M1.5,11.6c-0.2,0-0.4-0.2-0.4-0.4V0.4C1.1,0.2,1.3,0,1.5,0s0.4,0.2,0.4,0.4v10.9
							C1.9,11.5,1.7,11.6,1.5,11.6z"/>
					</g>
				</g>
			</g>
			<g id="Layer_1_118_">
				<g>
					<g>
						<path class="st2" d="M6,11.6c-0.2,0-0.4-0.2-0.4-0.4V0.4C5.6,0.2,5.8,0,6,0s0.4,0.2,0.4,0.4v10.9C6.4,11.5,6.2,11.6,6,11.6z"
							/>
					</g>
				</g>
			</g>
			<g id="Layer_1_117_">
				<g>
					<g>
						<path class="st2" d="M10.5,11.6c-0.2,0-0.4-0.2-0.4-0.4V0.4c0-0.2,0.2-0.4,0.4-0.4s0.4,0.2,0.4,0.4v10.9
							C10.9,11.5,10.7,11.6,10.5,11.6z"/>
					</g>
				</g>
			</g>
		</g>
		<g id="Layer_1_109_">
			<g id="Layer_1_115_">
				<g>
					<g>
						<path class="st3" d="M1.5,11.6c-0.2,0-0.4-0.2-0.4-0.4V2.6c0-0.2,0.2-0.4,0.4-0.4s0.4,0.2,0.4,0.4v8.6
							C1.9,11.5,1.7,11.6,1.5,11.6z"/>
					</g>
				</g>
			</g>
			<g id="Layer_1_114_">
				<g>
					<g>
						<path class="st3" d="M6,11.6c-0.2,0-0.4-0.2-0.4-0.4V5.4C5.6,5.1,5.8,5,6,5s0.4,0.2,0.4,0.4v5.9C6.4,11.5,6.2,11.6,6,11.6z"/>
					</g>
				</g>
			</g>
			<g id="Layer_1_113_">
				<g>
					<g>
						<path class="st3" d="M10.5,11.6c-0.2,0-0.4-0.2-0.4-0.4V9c0-0.2,0.2-0.4,0.4-0.4s0.4,0.2,0.4,0.4v2.3
							C10.9,11.5,10.7,11.6,10.5,11.6z"/>
					</g>
				</g>
			</g>
		</g>
		<g>
			<circle class="st4" cx="1.6" cy="2.6" r="1.4"/>
			<path class="st2" d="M1.6,4.1C0.7,4.1,0,3.4,0,2.6C0,1.7,0.7,1,1.6,1s1.6,0.7,1.6,1.6C3.1,3.4,2.4,4.1,1.6,4.1z M1.6,1.4
				C1,1.4,0.4,1.9,0.4,2.6c0,0.6,0.5,1.2,1.2,1.2s1.2-0.5,1.2-1.2C2.7,1.9,2.2,1.4,1.6,1.4z"/>
		</g>
		<g>
			<circle class="st4" cx="6.1" cy="5.7" r="1.4"/>
			<path class="st2" d="M6.1,7.3c-0.9,0-1.6-0.7-1.6-1.6s0.7-1.6,1.6-1.6s1.6,0.7,1.6,1.6C7.6,6.6,6.9,7.3,6.1,7.3z M6.1,4.6
				c-0.6,0-1.2,0.5-1.2,1.2C4.9,6.4,5.4,7,6.1,7s1.2-0.5,1.2-1.2C7.2,5.1,6.7,4.6,6.1,4.6z"/>
		</g>
		<g>
			<circle class="st4" cx="10.5" cy="8.9" r="1.4"/>
			<path class="st2" d="M10.5,10.5c-0.9,0-1.6-0.7-1.6-1.6s0.7-1.6,1.6-1.6C11.3,7.3,12,8,12,8.9S11.3,10.5,10.5,10.5z M10.5,7.7
				c-0.6,0-1.2,0.5-1.2,1.2c0,0.6,0.5,1.2,1.2,1.2c0.6,0,1.2-0.5,1.2-1.2C11.6,8.3,11.1,7.7,10.5,7.7z"/>
		</g>
	</g>
</g>
</svg>
