<svg xmlns="http://www.w3.org/2000/svg" width="11.7" height="11.3">
  <path d="M2.1 4.1s0-.1 0 0V.4c0-.2-.2-.4-.4-.4s-.4.2-.4.4v3.7C.6 4.3 0 4.9 0 5.7s.5 1.4 1.3 1.6v3.6c0 .2.2.4.4.4s.4-.2.4-.4V7.3c.7-.2 1.3-.8 1.3-1.6s-.6-1.4-1.3-1.6zm-.4 2.7C1.1 6.8.5 6.3.5 5.7c0-.6.5-1.2 1.2-1.2s1.1.5 1.1 1.2c.1.6-.5 1.1-1.1 1.1zm10-1.1c0-.8-.6-1.4-1.3-1.6V.4c0-.2-.2-.4-.4-.4s-.4.2-.4.4v3.7c-.7.2-1.3.8-1.3 1.6s.5 1.4 1.3 1.6v3.6c0 .2.2.4.4.4s.4-.2.4-.4V7.3c.7-.2 1.3-.8 1.3-1.6zM10 6.8c-.6 0-1.2-.5-1.2-1.1 0-.6.5-1.2 1.2-1.2s1.2.5 1.2 1.2c0 .6-.6 1.1-1.2 1.1zM6.2 4.1s0-.1 0 0V.4C6.2.2 6 0 5.8 0s-.4.2-.4.4v3.7c-.7.2-1.3.8-1.3 1.6s.5 1.4 1.3 1.6v3.6c0 .2.2.4.4.4s.4-.2.4-.4V7.3c.7-.2 1.3-.8 1.3-1.6s-.6-1.4-1.3-1.6zm-.4 2.7c-.6 0-1.1-.5-1.1-1.1 0-.6.5-1.2 1.1-1.2S7 5.1 7 5.7s-.6 1.1-1.2 1.1z"/>
</svg>
