<svg xmlns="http://www.w3.org/2000/svg" viewBox="0 0 31 31">
  <path d="M15.5 31C7 31 0 24 0 15.5S7 0 15.5 0 31 7 31 15.5 24 31 15.5 31zm0-30C7.5 1 1 7.5 1 15.5S7.5 30 15.5 30 30 23.5 30 15.5 23.5 1 15.5 1z"/>
  <path d="M16.2 12.9V6.4c0-.4-.3-.8-.8-.8s-.6.4-.6.8v6.5c-1.2.3-2 1.4-2 2.6s.8 2.3 2 2.6v7.3c0 .4.3.8.8.8s.8-.3.8-.8v-7.3c1.2-.3 2-1.4 2-2.6s-1-2.3-2.2-2.6zm0 3.6c-.2.2-.5.3-.8.3s-.5-.1-.8-.3c-.3-.2-.5-.6-.5-1s.2-.7.5-1c.2-.2.5-.3.8-.3s.5.1.8.3c.3.2.5.6.5 1s-.2.7-.5 1zm7-3.6V6.4c0-.4-.3-.8-.8-.8s-.7.4-.7.8v6.5c-1.2.3-2 1.4-2 2.6s.8 2.3 2 2.6v7.3c0 .4.3.8.8.8s.8-.3.8-.8v-7.3c1.2-.3 2-1.4 2-2.6s-.9-2.3-2.1-2.6zm0 3.6c-.2.2-.5.3-.8.3s-.5-.1-.8-.3c-.3-.2-.5-.6-.5-1s.2-.7.5-1c.2-.2.5-.3.8-.3s.5.1.8.3c.3.2.5.6.5 1s-.2.7-.5 1zm-14-3.6V6.4c0-.4-.3-.8-.8-.8s-.7.4-.7.8v6.5c-1.2.3-2 1.4-2 2.6s.8 2.3 2 2.6v7.3c0 .4.3.8.8.8s.8-.3.8-.8v-7.3c1.2-.3 2-1.4 2-2.6s-.9-2.3-2.1-2.6zm0 3.6c-.2.2-.5.3-.8.3s-.4-.2-.7-.3c-.3-.2-.5-.6-.5-1s.2-.7.5-1c.2-.2.5-.3.8-.3s.5.1.8.3c.3.2.5.6.5 1s-.3.7-.6 1z"/>
</svg>
