<svg xmlns="http://www.w3.org/2000/svg" width="30" height="30">
  <path d="M15 0C6.7 0 0 6.7 0 15s6.7 15 15 15 15-6.7 15-15S23.3 0 15 0zM6 23.9c.9-3 3.1-4.8 5.5-5.4-1.2.9-2.4 1.4 2 5.4H6zm8.2-.6c-.5-.7-2.7-3.4-1.4-5 .4.5.9.7 1.4.8-.1.1-.2.3-.2.5 0 .3.2.6.5.8l-.3 2.9zm.8-5.8c-3.5 0-6.3-2.8-6.3-6.3 0-1.5.5-2.8 1.4-3.9 0 0-2.5-3.3 3.3-3 5.7.3 6.4 2.6 6.4 2.6 1 1.1 1.6 2.6 1.6 4.2-.1 3.5-2.9 6.4-6.4 6.4zm.4 2.9c.3-.1.5-.4.5-.8 0-.2-.1-.3-.2-.5.5-.1 1-.4 1.4-.8 1.3 1.5-.9 4.3-1.4 5l-.3-2.9zm1 3.5c4.4-4 3.3-4.6 2-5.4 2.4.6 4.6 2.4 5.5 5.4h-7.5z"/>
  <path d="M15 16.4c1.3 0 2.5-.6 3.5-1.7h-7c1 1.1 2.2 1.7 3.5 1.7z"/>
</svg>
