<svg xmlns="http://www.w3.org/2000/svg" width="24" height="24">
  <path fill-rule="evenodd" clip-rule="venodd" d="M12 3a9 9 0 00-9 9c0 4.971 4.029 9 9 9s9-4.029 9-9a9 9 0 00-9-9zm0 3c1.599 0 2.895 1.343 2.895 3S13.599 12 12 12s-2.895-1.343-2.895-3S10.401 6 12 6zm.977 7.537l-.864 1.445a.107.107 0 01-.033.034.1.1 0 01-.138-.033l-.892-1.445a.1.1 0 01.034-.138l.893-.534a.1.1 0 01.104.001l.863.533c.046.029.061.09.033.137zm-5.951 2.054c0-.357.098-1.857 2.033-2.699.498-.217.891.096 1.553.344l-.487.435a.2.2 0 00-.037.255l1.741 2.8a.199.199 0 00.339 0l1.741-2.8a.2.2 0 00-.037-.255l-.484-.432c.683-.252 1.087-.574 1.548-.347 1.915.943 2.077 2.096 2.077 2.699.003 3.218-9.987 3.218-9.987 0z"/>
</svg>
