<svg xmlns="http://www.w3.org/2000/svg" width="30" height="30">
  <path d="M28.5 11.9l-2.1-.4c-.2-.7-.5-1.4-.8-2l1.2-1.7c.5-.8.4-1.8-.2-2.5l-1.9-1.9c-.4-.4-.8-.5-1.3-.5-.4 0-.8.1-1.1.3l-1.7 1.2c-.7-.4-1.4-.7-2.1-.9l-.4-2.1C17.9.7 17.2 0 16.3 0h-2.6c-.9 0-1.7.7-1.8 1.5l-.4 2.1c-.7.2-1.4.5-2 .9L7.7 3.3C7.4 3.1 7 3 6.6 3c-.5 0-1 .2-1.3.5L3.4 5.4c-.6.6-.7 1.6-.2 2.4l1.3 1.8c-.3.7-.6 1.3-.8 2l-2.1.4c-.9.1-1.6.8-1.6 1.7v2.6c0 .9.7 1.7 1.5 1.8l2.1.4c.2.7.5 1.4.9 2l-1.2 1.7c-.5.7-.4 1.7.2 2.4l1.9 1.9c.4.4.8.5 1.3.5.4 0 .8-.1 1.1-.3l1.8-1.3c.6.3 1.3.6 2 .8l.4 2.1c.2.9.9 1.5 1.8 1.5h2.6c.9 0 1.7-.7 1.8-1.5l.4-2.1c.7-.2 1.4-.5 2-.8l1.7 1.2c.3.2.7.3 1.1.3.5 0 1-.2 1.3-.5l1.9-1.9c.6-.6.7-1.6.2-2.4l-1.2-1.7c.3-.7.6-1.3.8-2l2.1-.4c.9-.2 1.5-.9 1.5-1.8v-2.6c0-.8-.6-1.6-1.5-1.7zM15 21.5c-3.6 0-6.5-2.9-6.5-6.5s2.9-6.5 6.5-6.5 6.5 2.9 6.5 6.5-2.9 6.5-6.5 6.5z"/>
</svg>
