<svg xmlns="http://www.w3.org/2000/svg" width="24" height="24">
  <path fill-rule="evenodd" clip-rule="evenodd" d="M12.002 15.5c-1.938 0-3.508-1.567-3.508-3.5s1.571-3.5 3.508-3.5 3.508 1.567 3.508 3.5-1.57 3.5-3.508 3.5zm7.448-2.53c.04-.32.07-.64.07-.97s-.03-.66-.07-1l2.115-1.63c.19-.15.241-.42.12-.64L19.68 5.27c-.12-.22-.391-.31-.611-.22l-2.496 1c-.521-.39-1.062-.73-1.694-.98l-.371-2.65a.506.506 0 00-.501-.42H9.998a.507.507 0 00-.502.42l-.371 2.65c-.631.25-1.172.59-1.694.98l-2.496-1a.492.492 0 00-.611.22L2.319 8.73c-.13.22-.07.49.12.64L4.555 11c-.04.34-.07.67-.07 1s.03.65.07.97L2.44 14.63a.492.492 0 00-.12.64l2.005 3.46c.12.22.391.3.611.22l2.496-1.01c.521.4 1.062.74 1.694.99l.371 2.65c.039.24.25.42.501.42h4.009c.251 0 .461-.18.501-.42l.371-2.65a7.308 7.308 0 001.694-.99l2.496 1.01c.221.08.491 0 .611-.22l2.005-3.46c.12-.22.07-.49-.12-.64l-2.115-1.66z"/>
</svg>
