<svg xmlns="http://www.w3.org/2000/svg" width="51" height="23">
  <path d="M25.4 14.7l-1.8 1.8c-1.3 1.3-2.7 2.6-4.3 3.7-1.9 1.3-4 2.3-6.3 2.6-3.6.4-6.9-.4-9.5-3.1-1.7-1.7-2.6-3.9-3-6.3-.3-2.4 0-4.8 1.1-6.9C3.5 3 6.3 1 10.2.4c2.9-.4 5.5.2 7.9 1.7 2 1.2 3.7 2.7 5.3 4.4.6.5 1.2 1.1 1.8 1.7l.2.2 1.2-1.2c1.3-1.3 2.6-2.6 4.1-3.7 1.8-1.4 3.7-2.4 5.9-2.9 2.4-.6 4.8-.5 7.1.5 2.7 1.1 4.6 2.9 5.7 5.6 1.1 2.7 1.4 5.6.4 8.4-1.5 4.2-4.5 6.8-8.9 7.6-3.1.6-5.9-.2-8.5-1.9-1.6-1-3-2.2-4.3-3.5-.8-.8-1.6-1.6-2.5-2.4-.1-.1-.1-.2-.2-.2zm3.1-3.3c.3.4.6.7.8.9 1.2 1.2 2.5 2.4 3.7 3.5 1.1 1 2.4 1.7 3.9 2.1 1.9.5 3.7.4 5.4-.7 2.6-1.6 3.8-4.6 3.1-7.5-.7-2.7-2.7-4.5-5.4-4.8-1.9-.2-3.6.3-5.2 1.2-1.6.9-2.9 2-4.2 3.3-.7.7-1.5 1.4-2.1 2zm-6.2.2c-.3-.3-.5-.6-.8-.9-1.2-1.2-2.5-2.4-3.8-3.5-1.2-1-2.5-1.8-4.1-2.2-1.8-.5-3.6-.3-5.2.7-2.7 1.6-3.9 4.7-3.1 7.7.7 2.5 2.3 4.1 4.9 4.6 1.8.4 3.5 0 5.1-.8 1.2-.6 2.3-1.4 3.3-2.3 1.4-1 2.6-2.2 3.7-3.3z"/>
</svg>
