<svg id="Layer_1" xmlns="http://www.w3.org/2000/svg" viewBox="0 0 24 24"><style>.st0{fill-rule:evenodd;clip-rule:evenodd}</style><path id="Shape" class="st0" d="M12 21.6c-5.292 0-9.6-4.308-9.6-9.6S6.708 2.4 12 2.4s9.6 4.308 9.6 9.6-4.308 9.6-9.6 9.6zM12 0C5.373 0 0 5.373 0 12a12.002 12.002 0 0 0 20.485 8.485 12.002 12.002 0 0 0 0-16.97A12.002 12.002 0 0 0 12 0z"/><path id="Rectangle" class="st0" d="M12 5.4a1.2 1.2 0 1 1 0 2.4 1.2 1.2 0 1 1 0-2.4z"/><path class="st0" d="M12 9.6a1.2 1.2 0 0 1 1.2 1.2v6a1.2 1.2 0 1 1-2.4 0v-6A1.2 1.2 0 0 1 12 9.6z"/></svg>