<?xml version="1.0" encoding="utf-8"?>
<!-- Generator: Adobe Illustrator 20.1.0, SVG Export Plug-In . SVG Version: 6.00 Build 0)  -->
<svg version="1.1" id="Layer_1" xmlns="http://www.w3.org/2000/svg" xmlns:xlink="http://www.w3.org/1999/xlink" x="0px" y="0px"
	 viewBox="0 0 34.3 29.8" style="enable-background:new 0 0 34.3 29.8;" xml:space="preserve">
<style type="text/css">
	.st0{fill:#999999;}
</style>
<path class="st0" d="M13.3,8.1C13.3,8.1,13.3,8.1,13.3,8.1c-0.3,0.3-0.3,0.7,0,1l5.6,5.3H0.7c-0.4,0-0.7,0.3-0.7,0.7
	c0,0.4,0.3,0.7,0.7,0.7h18.1l-5.5,4.9c-0.3,0.3-0.3,0.7-0.1,1s0.7,0.3,1,0.1l6.4-5.8c0.3-0.2,0.4-0.6,0.4-1v0c0-0.4-0.2-0.7-0.4-1
	L14.3,8c0,0,0,0,0,0C14,7.8,13.6,7.8,13.3,8.1z"/>
<path class="st0" d="M19.4,0C12.5,0,6.6,4.8,5,11.2h1.5c1.6-5.6,6.8-9.7,12.9-9.7c7.4,0,13.4,6,13.4,13.4c0,7.4-6,13.4-13.4,13.4
	c-6,0-11.1-3.9-12.8-9.3H5.1c1.8,6.2,7.5,10.8,14.3,10.8c8.2,0,14.9-6.7,14.9-14.9C34.3,6.7,27.6,0,19.4,0z"/>
</svg>
