<?xml version="1.0" encoding="utf-8"?>
<!-- Generator: Adobe Illustrator 22.1.0, SVG Export Plug-In . SVG Version: 6.00 Build 0)  -->
<svg version="1.1" id="Layer_1" xmlns="http://www.w3.org/2000/svg" xmlns:xlink="http://www.w3.org/1999/xlink" x="0px" y="0px"
	 viewBox="0 0 28.2 28.3" style="enable-background:new 0 0 28.2 28.3;" xml:space="preserve">
<style type="text/css">
	.st0{fill:#999999;}
</style>
<g>
	<g>
		<path class="st0" d="M14,28.3c-5.9,0-11.2-3.7-13.3-9.2c-0.1-0.3,0-0.7,0.4-0.9c0.3-0.1,0.7,0,0.9,0.4c1.9,5,6.7,8.3,12,8.3
			c7.1,0,12.8-5.7,12.8-12.8c0-7.1-5.7-12.8-12.8-12.8C8.6,1.3,3.7,4.8,1.9,10c-0.1,0.4-0.5,0.5-0.9,0.4c-0.4-0.1-0.5-0.5-0.4-0.9
			C2.6,3.8,8,0,14,0c7.8,0,14.2,6.4,14.2,14.2C28.2,22,21.9,28.3,14,28.3z"/>
	</g>
	<path class="st0" d="M15.7,13.5L9.3,7.2c-0.3-0.3-0.7-0.3-1,0s-0.3,0.7,0,1l5.3,5.3H0.7c-0.4,0-0.7,0.3-0.7,0.7s0.3,0.7,0.7,0.7
		h12.9L8.3,20c-0.3,0.3-0.3,0.7,0,1c0.1,0.1,0.3,0.2,0.5,0.2s0.3-0.1,0.5-0.2l6.4-6.4c0.1-0.1,0.2-0.3,0.2-0.5
		C15.9,13.9,15.8,13.7,15.7,13.5z"/>
</g>
</svg>
