<svg id="Layer_1" xmlns="http://www.w3.org/2000/svg" viewBox="0 0 34.3 29.8"><style>.st0{fill:#999}</style><path class="st0" d="M13.3 8.1c-.3.3-.3.7 0 1l5.6 5.3H.7c-.4 0-.7.3-.7.7 0 .4.3.7.7.7h18.1l-5.5 4.9c-.3.3-.3.7-.1 1s.7.3 1 .1l6.4-5.8c.3-.2.4-.6.4-1s-.2-.7-.4-1l-6.3-6c-.3-.2-.7-.2-1 .1z"/><path class="st0" d="M19.4 0C12.5 0 6.6 4.8 5 11.2h1.5c1.6-5.6 6.8-9.7 12.9-9.7 7.4 0 13.4 6 13.4 13.4s-6 13.4-13.4 13.4c-6 0-11.1-3.9-12.8-9.3H5.1c1.8 6.2 7.5 10.8 14.3 10.8 8.2 0 14.9-6.7 14.9-14.9S27.6 0 19.4 0z"/></svg>