<svg xmlns="http://www.w3.org/2000/svg" viewBox="0 0 28.2 28.3">
  <path d="M14 28.3c-5.9 0-11.2-3.7-13.3-9.2-.1-.3 0-.7.4-.9.3-.1.7 0 .9.4 1.9 5 6.7 8.3 12 8.3 7.1 0 12.8-5.7 12.8-12.8C26.8 7 21.1 1.3 14 1.3 8.6 1.3 3.7 4.8 1.9 10c-.1.4-.5.5-.9.4-.4-.1-.5-.5-.4-.9C2.6 3.8 8 0 14 0c7.8 0 14.2 6.4 14.2 14.2 0 7.8-6.3 14.1-14.2 14.1z"/>
  <path d="M15.7 13.5L9.3 7.2c-.3-.3-.7-.3-1 0s-.3.7 0 1l5.3 5.3H.7c-.4 0-.7.3-.7.7s.3.7.7.7h12.9L8.3 20c-.3.3-.3.7 0 1 .1.1.3.2.5.2s.3-.1.5-.2l6.4-6.4c.1-.1.2-.3.2-.5s-.1-.4-.2-.6z"/>
</svg>
