<svg xmlns="http://www.w3.org/2000/svg" viewBox="0 0 29 29">
  <path d="M27.8 13.9l-6.4-6.4c-.3-.3-.7-.3-1 0-.3.3-.3.7 0 1l5.3 5.3H12.8c-.4 0-.7.3-.7.7s.3.7.7.7h12.9l-5.2 5.2c-.3.3-.3.7 0 1 .1.1.3.2.5.2s.3-.1.5-.2l6.4-6.4c.1-.1.2-.3.2-.5-.1-.3-.2-.5-.3-.6z"/>
  <path d="M14.5 28.8C6.6 28.8.2 22.4.2 14.5S6.6.2 14.5.2c2.9 0 5.6.8 8 2.4.3.2.4.7.2 1-.2.3-.7.4-1 .2a13 13 0 00-7.2-2.2C7.4 1.6 1.6 7.4 1.6 14.5s5.8 12.9 12.9 12.9a13 13 0 007.2-2.2c.3-.2.8-.1 1 .2.2.3.1.8-.2 1-2.4 1.5-5.1 2.4-8 2.4z"/>
</svg>
