<?xml version="1.0" encoding="utf-8"?>
<!-- Generator: Adobe Illustrator 22.1.0, SVG Export Plug-In . SVG Version: 6.00 Build 0)  -->
<svg version="1.1" id="Layer_1" xmlns="http://www.w3.org/2000/svg" xmlns:xlink="http://www.w3.org/1999/xlink" x="0px" y="0px"
	 viewBox="0 0 29 29" style="enable-background:new 0 0 29 29;" xml:space="preserve">
<style type="text/css">
	.st0{fill:#999999;}
</style>
<g>
	<path class="st0" d="M27.8,13.9l-6.4-6.4c-0.3-0.3-0.7-0.3-1,0c-0.3,0.3-0.3,0.7,0,1l5.3,5.3H12.8c-0.4,0-0.7,0.3-0.7,0.7
		s0.3,0.7,0.7,0.7h12.9l-5.2,5.2c-0.3,0.3-0.3,0.7,0,1c0.1,0.1,0.3,0.2,0.5,0.2c0.2,0,0.3-0.1,0.5-0.2l6.4-6.4
		c0.1-0.1,0.2-0.3,0.2-0.5C28,14.2,27.9,14,27.8,13.9z"/>
	<g>
		<path class="st0" d="M14.5,28.8c-7.9,0-14.3-6.4-14.3-14.3c0-7.9,6.4-14.3,14.3-14.3c2.9,0,5.6,0.8,8,2.4c0.3,0.2,0.4,0.7,0.2,1
			c-0.2,0.3-0.7,0.4-1,0.2c-2.1-1.4-4.6-2.2-7.2-2.2C7.4,1.6,1.6,7.4,1.6,14.5s5.8,12.9,12.9,12.9c2.6,0,5.1-0.8,7.2-2.2
			c0.3-0.2,0.8-0.1,1,0.2c0.2,0.3,0.1,0.8-0.2,1C20.1,27.9,17.4,28.8,14.5,28.8z"/>
	</g>
</g>
</svg>
