<svg xmlns="http://www.w3.org/2000/svg" viewBox="0 0 30 30">
  <path d="M25.8 2.5H4.2C1.8 2.5 0 4.4 0 6.7v16.6c0 2.4 1.8 4.2 4.2 4.2h21.7c2.3 0 4.2-1.9 4.2-4.2V6.7c-.1-2.3-1.9-4.2-4.3-4.2zm-6.6 11.9l9.1-8.9c.2.4.3.8.3 1.2v16.6c0 .5-.1 1-.4 1.4l-9-10.3zm6.6-10.5c.6 0 1.1.2 1.6.5L15.2 16.2c-.2.2-.5.2-.7 0L2.6 4.4c.4-.3 1-.5 1.6-.5h21.6zm-24 20.8c-.2-.4-.4-.9-.4-1.4V6.7c0-.4.1-.8.2-1.2l9.1 9-8.9 10.2zm2.4 1.4c-.5 0-1-.1-1.3-.4l9-10.2 1.7 1.7c.4.4.9.5 1.4.5s1-.2 1.4-.5l1.9-1.9 9.1 10.3c-.4.2-.9.4-1.4.4H4.2v.1z"/>
</svg>
