<?xml version="1.0" encoding="utf-8"?>
<!-- Generator: Adobe Illustrator 20.1.0, SVG Export Plug-In . SVG Version: 6.00 Build 0)  -->
<svg version="1.0" id="Layer_1" xmlns="http://www.w3.org/2000/svg" xmlns:xlink="http://www.w3.org/1999/xlink" x="0px" y="0px"
	 width="30px" height="30px" viewBox="0 0 30 30" enable-background="new 0 0 30 30" xml:space="preserve">
<path fill="#999999" d="M28.9,14l-12-12.1c-1.2-1.2-2.1-1.4-3.5-1.4l-0.4,0c-0.4,0-0.8,0-1.4,0l-5.1,0c-1.4,0-2.8,0-3.9,0.1
	c-1.6,0.1-2.7,1.3-2.7,3c0,1.3,0,3.4,0,5.3c0,1.6,0,3.1,0,3.8c0,1.5,1,2.4,1.9,3.2c0.2,0.2,0.4,0.4,0.6,0.6l11.8,12
	c0.7,0.7,1.5,1,2.4,1c0.9,0,1.8-0.4,2.4-1l9.6-9.6c0.7-0.6,1-1.5,1-2.4C29.9,15.5,29.6,14.7,28.9,14z M6.7,9.7
	c-1.8,0-3.2-1.4-3.2-3.2c0-1.8,1.4-3.2,3.2-3.2c1.8,0,3.2,1.4,3.2,3.2C9.9,8.2,8.5,9.7,6.7,9.7z"/>
</svg>
