<?xml version="1.0" encoding="utf-8"?>
<!-- Generator: Adobe Illustrator 20.1.0, SVG Export Plug-In . SVG Version: 6.00 Build 0)  -->
<svg version="1.1" id="Layer_1" xmlns="http://www.w3.org/2000/svg" xmlns:xlink="http://www.w3.org/1999/xlink" x="0px" y="0px"
	 width="30px" height="30px" viewBox="0 0 30 30" style="enable-background:new 0 0 30 30;" xml:space="preserve">
<style type="text/css">
	.st0{fill:#999999;}
</style>
<path class="st0" d="M0.1,30l1.6-8l1.6-1.6l1.1,1.1L3,22.8l-1,5.4l5.5-1L9,25.7l1.1,1.1l-1.9,2L0.1,30z M8.5,28.5l-6.6-6.6L22.1,1.4
	c2-1.8,4.9-1.9,6.6-0.2c1.8,1.8,1.8,4.8-0.2,6.7L8.5,28.5L8.5,28.5z M4,21.8l4.5,4.5L27.5,7c1.3-1.3,1.4-3.2,0.2-4.6
	c-1.2-1.2-3.1-1.1-4.6,0.2L4,21.8L4,21.8z"/>
</svg>
