<svg xmlns="http://www.w3.org/2000/svg" viewBox="0 0 30 30">
  <path d="M22.6 30H22c-3-.4-9.3-3.8-13.8-8.3C3.9 17.2.4 10.8 0 7.8S2.4 2.4 5.5.3c.6-.5 1.7-.4 2.3.2l.1.1.1.1 4.4 6.1s0 .1.1.1c.5.7.4 1.7-.2 2.3l-.2.2H12c-.4.3-.6.4-.7.5-.1.1-.3.1-.5.3-.8.5-1.8 1-2.7 1.4.5 1.7 2 3.9 4.2 6.1 2.2 2.2 4.4 3.7 6.1 4.2.5-1.2 1-2.1 1.4-2.7.1-.2.2-.3.3-.4.1-.2.2-.4.5-.8l.1-.1.1-.1c.6-.6 1.5-.7 2.2-.3 0 0 .1 0 .1.1l6.1 4.4s.1 0 .1.1l.1.1c.3.2.5.6.6.9.1.7-.3 1.3-.4 1.5-2 2.7-4.2 5.4-7 5.4zM6.7 1.4s-.1 0-.2.1c-2.8 1.9-5.2 3.9-5 6.1.3 2.4 3.5 8.6 7.8 13 4.4 4.4 10.5 7.5 12.9 7.8 2.2.3 4.3-2.3 6.1-4.9.1-.1.1-.3.1-.4 0 0-.1 0-.1-.1 0 0-.1 0-.1-.1l-6-4.3s-.1 0-.1-.1c-.1-.1-.2-.1-.4 0l-.1.1c-.2.3-.3.5-.4.6s-.2.3-.3.5c-.4.6-.9 1.7-1.5 3-.1.3-.5.5-.8.5-2-.3-4.8-2-7.5-4.8-2.7-2.7-4.4-5.4-4.8-7.5-.1-.3.1-.7.5-.8 1.5-.3 2.5-.8 3.2-1.3.2-.1.4-.2.5-.3.2-.1.3-.2.6-.4.1-.1.1-.3 0-.4v-.1L7 1.6l-.1-.1c-.1-.1-.2-.1-.2-.1z"/>
</svg>
