<?xml version="1.0" encoding="utf-8"?>
<!-- Generator: Adobe Illustrator 23.0.0, SVG Export Plug-In . SVG Version: 6.00 Build 0)  -->
<svg version="1.1" id="Layer_1" xmlns="http://www.w3.org/2000/svg" xmlns:xlink="http://www.w3.org/1999/xlink" x="0px" y="0px"
	 viewBox="0 0 19.3 25" style="enable-background:new 0 0 19.3 25;" xml:space="preserve">
<path d="M19.3,9.7c0,1.6-0.8,3.7-2.4,6.2c-0.7,1.2-1.5,2.3-2.3,3.4c-1.4,1.9-3,3.8-4.6,5.6c-0.2,0.2-0.5,0.2-0.8,0c0,0,0,0,0,0
	c-0.5-0.5-1-1.1-1.4-1.6c-1.1-1.3-2.2-2.6-3.2-3.9c-0.8-1.1-1.6-2.2-2.3-3.4C0.8,13.4,0,11.3,0,9.7C0,4.3,4.3,0,9.7,0
	C15,0,19.3,4.3,19.3,9.7C19.3,9.7,19.3,9.7,19.3,9.7L19.3,9.7z M13.5,9.6c0-2.1-1.7-3.8-3.8-3.8c-2.1,0-3.8,1.7-3.8,3.8l0,0
	c0,2.1,1.7,3.8,3.8,3.8C11.8,13.4,13.5,11.7,13.5,9.6z"/>
</svg>
