<svg width="24" height="24" xmlns="http://www.w3.org/2000/svg" xmlns:xlink="http://www.w3.org/1999/xlink">
  <defs>
    <path d="M13.428 21.416a64.92 64.92 0 0 0 2.896-3.599 41.013 41.013 0 0 0 2.101-3.082c1.318-2.16 2.044-3.962 2.044-5.247A7.986 7.986 0 0 0 12.48 1.5C8.074 1.5 4.5 5.076 4.5 9.488c0 1.285.725 3.088 2.042 5.247a41.015 41.015 0 0 0 2.1 3.082 64.91 64.91 0 0 0 3.839 4.674c.286-.316.604-.677.947-1.075zm8.04-11.928c0 1.517-.783 3.464-2.19 5.768a41.992 41.992 0 0 1-2.152 3.158 65.904 65.904 0 0 1-4.28 5.16.5.5 0 0 1-.73 0 64.069 64.069 0 0 1-1.339-1.504 65.894 65.894 0 0 1-2.938-3.656 41.994 41.994 0 0 1-2.151-3.159C4.283 12.952 3.5 11.005 3.5 9.488 3.5 4.524 7.521.5 12.48.5a8.986 8.986 0 0 1 8.989 8.988zm-5.466-.002a3.518 3.518 0 1 1-7.035-.003 3.518 3.518 0 0 1 7.035.003zm-1 0a2.518 2.518 0 1 0-5.037-.002 2.518 2.518 0 0 0 5.037.002z" id="a"/>
  </defs>
  <use xlink:href="#a"/>
</svg>
