<svg xmlns="http://www.w3.org/2000/svg" viewBox="0 0 18 23.2">
  <path d="M9.9 20.9c1-1.2 2-2.4 2.9-3.6.7-1 1.4-2 2.1-3.1 1.3-2.2 2-4 2-5.2 0-4.4-3.6-8-8-8C4.6 1 1 4.6 1 9c0 1.3.7 3.1 2 5.2.7 1.1 1.4 2.1 2.1 3.1C6.3 18.9 7.6 20.5 9 22c.3-.3.6-.7.9-1.1zM18 9c0 1.5-.8 3.5-2.2 5.8-.7 1.1-1.4 2.1-2.2 3.2-1.3 1.8-2.8 3.5-4.3 5.2-.2.2-.5.2-.7 0-.5-.5-.9-1-1.3-1.5-1-1.2-2-2.4-2.9-3.7-.8-1-1.5-2.1-2.2-3.2C.8 12.5 0 10.5 0 9c0-5 4-9 9-9 4.9 0 9 4 9 9zm-5.5 0c0 1.9-1.5 3.5-3.5 3.6S5.5 11 5.5 9.1V9c0-2 1.6-3.5 3.5-3.5 1.9.1 3.5 1.6 3.5 3.5zm-1 0c0-1.4-1.1-2.5-2.5-2.5S6.5 7.6 6.5 9s1.1 2.5 2.5 2.5 2.5-1.1 2.5-2.5z"/>
</svg>
