<?xml version="1.0" encoding="utf-8"?>
<!-- Generator: Adobe Illustrator 20.1.0, SVG Export Plug-In . SVG Version: 6.00 Build 0)  -->
<svg version="1.1" id="Layer_1" xmlns="http://www.w3.org/2000/svg" xmlns:xlink="http://www.w3.org/1999/xlink" x="0px" y="0px"
	 viewBox="0 0 30 34.3" style="enable-background:new 0 0 30 34.3;" xml:space="preserve">
<style type="text/css">
	.st0{fill:url(#SVGID_1_);}
	.st1{fill:#FFFFFF;stroke:#FFFFFF;stroke-width:0.25;stroke-miterlimit:10;}
</style>
<g>
	<g>
		
			<linearGradient id="SVGID_1_" gradientUnits="userSpaceOnUse" x1="7.191" y1="29.6029" x2="22.7225" y2="4.0321" gradientTransform="matrix(1 0 0 -1 0 33.8774)">
			<stop  offset="5.638085e-03" style="stop-color:#FFCC06"/>
			<stop  offset="0.498" style="stop-color:#F8A317"/>
			<stop  offset="1" style="stop-color:#F17A28"/>
		</linearGradient>
		<path class="st0" d="M29.5,8.2l-13.9-8c-0.3-0.2-0.7-0.2-1.1,0l-13.9,8C0.2,8.4,0,8.7,0,9.1v16.1c0,0.4,0.2,0.7,0.6,0.9l13.9,8
			c0.3,0.2,0.8,0.2,1.1,0l13.9-8c0.3-0.2,0.5-0.6,0.5-0.9V9.1C30,8.7,29.8,8.4,29.5,8.2z"/>
	</g>
</g>
<g>
	<path class="st1" d="M2,21.3v-8.2h3.3c1.6,0,2.6,1.1,2.6,2.5c0,1.3-0.9,2.5-2.6,2.5H3.1v3.3H2z M6.8,15.6c0-0.9-0.7-1.6-1.6-1.6
		H3.1v3.1h2.1C6.2,17.2,6.8,16.5,6.8,15.6z"/>
	<path class="st1" d="M8.7,21.3v-8.2h1v7.3h3.8v0.9H8.7z"/>
	<path class="st1" d="M14.2,18.2v-5h1v5c0,1.5,0.8,2.4,2.3,2.4c1.5,0,2.3-0.9,2.3-2.4v-5h1v5c0,2-1.1,3.3-3.4,3.3
		C15.4,21.5,14.2,20.2,14.2,18.2z"/>
	<path class="st1" d="M22,20.2l0.6-0.8c0.5,0.6,1.4,1.2,2.6,1.2c1.5,0,1.9-0.8,1.9-1.4c0-2.1-4.9-0.9-4.9-3.9c0-1.3,1.2-2.3,2.8-2.3
		c1.2,0,2.2,0.4,2.9,1.2l-0.6,0.7c-0.6-0.7-1.5-1-2.4-1c-1,0-1.7,0.5-1.7,1.3c0,1.8,4.9,0.8,4.9,3.9c0,1.2-0.8,2.4-3,2.4
		C23.7,21.5,22.7,21,22,20.2z"/>
</g>
</svg>
