<svg xmlns="http://www.w3.org/2000/svg" viewBox="0 0 30 25">
  <path d="M15.1 16.9c-1.8 2.7-6.6 2.2-7.7.7 1 .7 8.6 2.7 3.7-7.6l-2.6 2s.8-4.5 1.5-8.3C13.3 5.4 17.6 8 17.6 8l-3.3.6c1.2 2.4 1.7 4.3 1.7 5.7 1.2-2.5 3.7-4.2 6.7-4.3C22 4.4 17.2 0 11.4 0 5.1 0 0 5.1 0 11.4s4.9 11.4 11.2 11.4c1.7 0 3.4-.4 4.9-1.1-.6-1.1-1-2.4-1-3.8-.1-.4-.1-.7 0-1z"/>
  <path d="M22.7 10.5c-4 0-7.3 3.2-7.3 7.3s3.2 7.3 7.2 7.3 7.4-3.2 7.4-7.3-3.3-7.3-7.3-7.3zm-2.2 10.8l-1-1.5-1 1.4h-1.4l1.7-2.5-1.5-2.2h1.4l.8 1.2.8-1.2h1.4l-1.5 2.2 1.7 2.5-1.4.1zm6.9-6.1c-.4.4-.8.8-1 1.2-.3.5-.6 1-.8 1.6-.2.6-.4 1.1-.5 1.7s-.2 1.1-.2 1.6h-1.6c.1-1.1.4-2.2.8-3.2.5-1.1 1-1.9 1.7-2.8h-3.5v-1.4h5.1v1.3z"/>
</svg>
