<svg xmlns="http://www.w3.org/2000/svg" viewBox="0 0 30 24.9">
  <path d="M15.2 16.7c-1.9 2.6-6.5 2.2-7.8.7.9.7 8.6 2.6 3.7-7.5l-2.6 2s.8-4.4 1.5-8.2c3.2 1.7 7.5 4.2 7.5 4.2l-3.4.6c1.2 2.4 1.7 4.2 1.7 5.7 1.2-2.4 3.8-4.2 6.7-4.2-.7-5.7-5.4-10-11.2-10C5.1 0 0 5.1 0 11.3s4.9 11.3 11.1 11.3c1.8 0 3.4-.4 4.9-1.1-.6-1.2-1-2.5-1-3.9 0-.2 0-.5.2-.9z"/>
  <path d="M22.8 10.4c-4 0-7.2 3.3-7.2 7.2 0 4 3.2 7.2 7.1 7.2 4 0 7.3-3.3 7.3-7.2.1-3.9-3.2-7.2-7.2-7.2zm-1.6 10.8l-.9-1.4-.9 1.4H18l1.7-2.4-1.7-2.2h1.4l.8 1.2.8-1.2h1.4l-1.6 2.2 1.7 2.4h-1.3zm5.1 0h-1.6v-5.1h-2v-1.2c.3 0 .6 0 .8-.1.3-.1.5-.2.7-.3.2-.1.4-.3.5-.5.2-.2.3-.5.3-.8h1.3v8z"/>
</svg>
