<svg xmlns="http://www.w3.org/2000/svg" width="30" height="30">
  <path d="M22.2 2.5h-6.5c-.4 0-.7.3-.7.7v13.1c0 .4.3.7.7.7.4 0 .7-.3.7-.7V9.6h3.2c.4 0 .7-.3.7-.7 0-.4-.3-.7-.7-.7h-3.2V4h5.7c.4 0 .7-.3.7-.7.1-.5-.2-.8-.6-.8zm7.1 6.7c.2-.3.1-.8-.3-1-1.1-.6-2.8-.6-4 .1-.1 0-.1.1-.2.1v-.8c0-.4-.3-.7-.7-.7-.4 0-.7.3-.7.7v8.7c0 .4.3.7.7.7.4 0 .7-.3.7-.7v-5.2c0-.7.3-1.2.9-1.5.8-.5 2-.4 2.6-.1.4.1.8 0 1-.3z"/>
  <circle cx="28.7" cy="16.3" r="1.1"/>
  <path d="M14.8 20c-.3-.3-.8-.3-1.1 0l-5.6 5.9V2.5c0-.4-.3-.7-.7-.7s-.7.3-.7.7v23.3l-5.1-5.7c-.3-.3-.7-.3-1.1-.1-.3.3-.3.8-.1 1.1l6 6.7c.3.3.6.5 1 .5s.7-.2 1-.4l6.4-6.7c.3-.4.3-.9 0-1.2z"/>
</svg>
