<svg xmlns="http://www.w3.org/2000/svg" width="24" height="24">
  <path fill-rule="evenodd" clip-rule="evenodd" d="M20.914 18.97c.324 0 .591.098.803.294a.994.994 0 01.318.766.98.98 0 01-.314.755c-.21.194-.479.291-.807.291-.324 0-.59-.097-.8-.291a.979.979 0 01-.314-.755c0-.314.106-.57.318-.766.212-.196.477-.294.796-.294zm-5.634-7.923v1.661h-4.43v2.57h3.938v1.654H10.85V21H8.8v-9.953h6.48zm4.288 2.42c.219 0 .424.03.615.089l-.027 1.9a5.455 5.455 0 00-.711-.055c-.747 0-1.237.253-1.47.759V21H16v-7.396h1.866l.055.882c.396-.68.946-1.019 1.647-1.019zM5.094 2.301l2.001 5.664 2.539-.007-3.536 3.536-3.535-3.536 2.539.007-.008-5.664z"/>
</svg>
