<svg xmlns="http://www.w3.org/2000/svg" viewBox="0 0 28 24">
  <path d="M24.7 8h-3.3V0H6.2v8H3c-1.6 0-3 1.3-3 3v6.6c0 1.6 1.3 3 3 3h3v3h15.8v-3h3c1.6 0 3-1.3 3-3V11c-.1-1.7-1.4-3-3.1-3zM7.6 1.4h12.5V8H7.6V1.4zm12.8 19.1v1.7H7.3v-2.9h13.1v1.2zm5.9-2.9c0 .9-.7 1.6-1.6 1.6h-3V18H6v1.2H3c-.9 0-1.6-.7-1.6-1.6V11c0-.9.7-1.6 1.6-1.6h21.8c.9 0 1.6.7 1.6 1.6-.1 0-.1 6.6-.1 6.6z"/>
  <path d="M22.5 12.3c.9 0 .9-1.3 0-1.3s-.9 1.3 0 1.3zm1.2 2.4H4c-.4 0-.7.3-.7.7s.3.6.7.6h19.6c.4 0 .7-.3.7-.7s-.3-.6-.6-.6zM17.3 3.1h-7c-.4 0-.7.3-.7.7s.3.7.7.7h7c.4 0 .7-.3.7-.7s-.3-.7-.7-.7zm0 2.3h-7c-.3 0-.6.3-.6.6s.3.7.7.7h7c.3 0 .6-.3.6-.7s-.3-.6-.7-.6z"/>
</svg>
