<?xml version="1.0" encoding="utf-8"?>
<!-- Generator: Adobe Illustrator 20.1.0, SVG Export Plug-In . SVG Version: 6.00 Build 0)  -->
<svg version="1.1" id="Layer_1" xmlns="http://www.w3.org/2000/svg" xmlns:xlink="http://www.w3.org/1999/xlink" x="0px" y="0px"
	 viewBox="0 0 26.2 30" style="enable-background:new 0 0 26.2 30;" xml:space="preserve">
<style type="text/css">
	.st0{fill:url(#SVGID_1_);}
	.st1{fill:#FFFFFF;}
</style>
<linearGradient id="SVGID_1_" gradientUnits="userSpaceOnUse" x1="5.6335" y1="25.0773" x2="20.9667" y2="3.5921" gradientTransform="matrix(1 0 0 -1 0 29.59)">
	<stop  offset="1.193042e-03" style="stop-color:#58595B"/>
	<stop  offset="1" style="stop-color:#0E0E0E"/>
</linearGradient>
<path class="st0" d="M25.8,7.2l-12.2-7c-0.3-0.2-0.7-0.2-1,0l-12.2,7C0.2,7.3,0,7.6,0,8v14c0,0.3,0.2,0.7,0.5,0.8l12.2,7
	c0.3,0.2,0.7,0.2,1,0l12.2-7c0.3-0.2,0.5-0.5,0.5-0.8V8C26.2,7.6,26.1,7.3,25.8,7.2z"/>
<g>
	<g>
		<path class="st1" d="M3.7,19.5H2.3v-8.7h3.5c1.6,0,2.8,1.1,2.8,2.7c0,1.6-1.1,2.7-2.8,2.7H3.7V19.5z M3.7,14.9h2
			c0.9,0,1.4-0.5,1.4-1.4c0-0.8-0.6-1.4-1.4-1.4h-2V14.9z"/>
	</g>
	<g>
		<path class="st1" d="M15.8,19.5h-1.7L12,16.2h-1.3v3.3H9.2v-8.7h3.5c1.7,0,2.8,1.1,2.8,2.7c0,1.5-1,2.3-2,2.6L15.8,19.5z
			 M10.6,14.9h2c0.9,0,1.5-0.6,1.5-1.4s-0.6-1.4-1.5-1.4h-2C10.6,12.2,10.6,14.9,10.6,14.9z"/>
	</g>
	<g>
		<path class="st1" d="M20.3,19.7c-2.5,0-4.3-1.9-4.3-4.5s1.8-4.5,4.3-4.5s4.3,1.9,4.3,4.5S22.8,19.7,20.3,19.7z M20.3,12
			c-1.7,0-2.8,1.3-2.8,3.2c0,1.9,1.1,3.2,2.8,3.2c1.7,0,2.8-1.3,2.8-3.2S22,12,20.3,12z"/>
	</g>
</g>
</svg>
