<svg id="Layer_1" xmlns="http://www.w3.org/2000/svg" viewBox="0 0 26.2 30"><style>.st1{fill:#fff}</style><linearGradient id="SVGID_1_" gradientUnits="userSpaceOnUse" x1="5.633" y1="25.077" x2="20.967" y2="3.592" gradientTransform="matrix(1 0 0 -1 0 29.59)"><stop offset=".001" stop-color="#58595b"/><stop offset="1" stop-color="#0e0e0e"/></linearGradient><path d="M25.8 7.2L13.6.2c-.3-.2-.7-.2-1 0L.4 7.2c-.2.1-.4.4-.4.8v14c0 .3.2.7.5.8l12.2 7c.3.2.7.2 1 0l12.2-7c.3-.2.5-.5.5-.8V8c-.2-.4-.3-.7-.6-.8z" fill="url(#SVGID_1_)"/><path class="st1" d="M3.7 19.5H2.3v-8.7h3.5c1.6 0 2.8 1.1 2.8 2.7s-1.1 2.7-2.8 2.7H3.7v3.3zm0-4.6h2c.9 0 1.4-.5 1.4-1.4 0-.8-.6-1.4-1.4-1.4h-2v2.8zM15.8 19.5h-1.7L12 16.2h-1.3v3.3H9.2v-8.7h3.5c1.7 0 2.8 1.1 2.8 2.7 0 1.5-1 2.3-2 2.6l2.3 3.4zm-5.2-4.6h2c.9 0 1.5-.6 1.5-1.4s-.6-1.4-1.5-1.4h-2v2.8zM20.3 19.7c-2.5 0-4.3-1.9-4.3-4.5s1.8-4.5 4.3-4.5 4.3 1.9 4.3 4.5-1.8 4.5-4.3 4.5zm0-7.7c-1.7 0-2.8 1.3-2.8 3.2 0 1.9 1.1 3.2 2.8 3.2 1.7 0 2.8-1.3 2.8-3.2S22 12 20.3 12z"/></svg>