<svg data-name="Layer 1" xmlns="http://www.w3.org/2000/svg" viewBox="0 0 76.83 76.55">
  <path d="M72 13.73L21.59.22a6.5 6.5 0 0 0-8 4.6L.22 54.85a6.51 6.51 0 0 0 4.6 8l50.42 13.48a6.51 6.51 0 0 0 8-4.6l13.41-50a6.5 6.5 0 0 0-4.65-8zM27.42 24.82a3.75 3.75 0 1 1 2.65 4.59 3.76 3.76 0 0 1-2.65-4.59zm24.11 35.69a1.46 1.46 0 0 1-.53.1 1.51 1.51 0 0 1-1.41-1A19.19 19.19 0 0 0 36.8 47.78a18.9 18.9 0 0 0-17.3 3.76 1.5 1.5 0 0 1-2-2.27 21.93 21.93 0 0 1 20-4.39 22.21 22.21 0 0 1 14.9 13.69 1.51 1.51 0 0 1-.87 1.94zM55 32.2a3.75 3.75 0 1 1-2.65-4.6A3.75 3.75 0 0 1 55 32.2z" fill-rule="evenodd"/>
</svg>
