<svg data-name="Layer 1" xmlns="http://www.w3.org/2000/svg" viewBox="0 0 80 80">
  <path d="M0 0h80v80H0z"/>
  <path d="M73.52 15.19L23.1 1.68a6.5 6.5 0 0 0-8 4.6l-13.41 50a6.49 6.49 0 0 0 4.6 8l50.46 13.5a6.49 6.49 0 0 0 8-4.59l13.41-50a6.5 6.5 0 0 0-4.64-8zM28.93 26.28a3.75 3.75 0 1 1 2.66 4.59 3.76 3.76 0 0 1-2.66-4.59zM53 62a1.71 1.71 0 0 1-.53.1 1.51 1.51 0 0 1-1.41-1 19.17 19.17 0 0 0-12.75-11.86A18.88 18.88 0 0 0 21 53a1.5 1.5 0 0 1-2-2.27 21.93 21.93 0 0 1 20-4.39A22.21 22.21 0 0 1 53.91 60a1.51 1.51 0 0 1-.91 2zm3.42-28.31a3.75 3.75 0 1 1-2.65-4.6 3.75 3.75 0 0 1 2.69 4.57z" fill-rule="evenodd"/>
</svg>
