<svg xmlns="http://www.w3.org/2000/svg" viewBox="0 0 29.5 31">
  <path d="M8.7 7.3c-.1 0-.2 0-.3-.1-.2-.2-.2-.5 0-.7L13.9.4c.1-.3.4-.4.6-.4.3 0 .6.1.8.3l5.8 6.1c.2.2.2.5 0 .7-.2.2-.5.2-.7 0L14.6 1l-.5-.3.4.3L9 7.1c-.1.1-.2.2-.3.2z"/>
  <path d="M14.5 17c-.3 0-.5-.2-.5-.5V.6c0-.3.2-.5.5-.5s.5.2.5.5v15.9c0 .3-.2.5-.5.5z"/>
  <path d="M25.5 31H3.9C1.8 31 0 29.2 0 27.1V15.6c0-2.2 1.8-3.9 3.9-3.9h8.3v1H3.9C2.3 12.7 1 14 1 15.6v11.5C1 28.7 2.3 30 3.9 30h21.6c1.6 0 2.9-1.3 2.9-2.9V15.6c0-1.6-1.3-2.9-2.9-2.9h-8.8v-1h8.8c2.2 0 3.9 1.8 3.9 3.9v11.5c.1 2.1-1.7 3.9-3.9 3.9z"/>
  <path d="M14.5 17c-.3 0-.5-.2-.5-.5V.6c0-.3.2-.5.5-.5s.5.2.5.5v15.9c0 .3-.2.5-.5.5z"/>
</svg>
