<?xml version="1.0" encoding="utf-8"?>
<!-- Generator: Adobe Illustrator 20.1.0, SVG Export Plug-In . SVG Version: 6.00 Build 0)  -->
<svg version="1.1" id="Layer_1" xmlns="http://www.w3.org/2000/svg" xmlns:xlink="http://www.w3.org/1999/xlink" x="0px" y="0px"
	 viewBox="0 0 50 50" style="enable-background:new 0 0 50 50;" xml:space="preserve">
<style type="text/css">
	.st0{fill:#67BD55;}
	.st1{fill:#FFFFFF;}
</style>
<g id="g5124">
	<circle class="st0" cx="25" cy="25" r="25"/>
	<path id="WhatsApp_2_" class="st1" d="M40,24.6c0,8.1-6.6,14.6-14.7,14.6c-2.6,0-5-0.7-7.1-1.8L10,40l2.7-7.8
		c-1.3-2.2-2.1-4.8-2.1-7.5c0-8.1,6.6-14.6,14.7-14.6C33.4,10,40,16.5,40,24.6z M25.3,12.3c-6.8,0-12.4,5.5-12.4,12.3
		c0,2.7,0.9,5.2,2.4,7.2l-1.5,4.6l4.8-1.5c2,1.3,4.3,2,6.8,2c6.8,0,12.4-5.5,12.4-12.3S32.1,12.3,25.3,12.3z M32.7,28
		c-0.1-0.1-0.3-0.2-0.7-0.4c-0.4-0.2-2.1-1-2.5-1.2c-0.3-0.1-0.6-0.2-0.8,0.2c-0.2,0.4-0.9,1.2-1.1,1.4c-0.2,0.2-0.4,0.3-0.8,0.1
		c-0.4-0.2-1.5-0.6-2.9-1.8c-1.1-0.9-1.8-2.1-2-2.5c-0.2-0.4,0-0.6,0.2-0.7c0.2-0.2,0.4-0.4,0.5-0.6c0.2-0.2,0.2-0.4,0.4-0.6
		c0.1-0.2,0.1-0.4,0-0.6c-0.1-0.2-0.8-1.9-1.1-2.7C21.5,17.9,21.2,18,21,18c-0.2,0-0.5,0-0.7,0c-0.2,0-0.6,0.1-1,0.4
		c-0.3,0.4-1.3,1.2-1.3,3c0,1.8,1.3,3.5,1.5,3.7c0.2,0.2,2.5,4,6.2,5.4c3.7,1.4,3.7,1,4.3,0.9c0.7-0.1,2.1-0.9,2.4-1.7
		C32.8,28.8,32.8,28.1,32.7,28L32.7,28z"/>
</g>
</svg>
