<svg xmlns="http://www.w3.org/2000/svg" width="16.5" height="20">
  <path d="M8.2 20l-.2-.1C7.7 19.8.8 16.5.1 8.2-.1 4.8.1 3.1.1 3v-.3l.3-.1c.1 0 5.7-1.4 7.2-2.2l.6-.4.6.3c1.5.8 7.1 2.2 7.2 2.2l.4.1.1.9s.2 1.3-.1 4.7c-.7 8.2-7.6 11.5-7.9 11.7l-.3.1zM1.1 3.5c-.1.6-.1 2.2.1 4.7.5 6.9 5.9 10.1 7 10.7 1.2-.6 6.5-3.9 7-10.7.3-3.3.1-4.5.1-4.5v-.2c-1.2-.4-5.6-1.5-7-2.3h-.2c-1.4.8-5.7 2-7 2.3zm7.1 3.9"/>
  <path d="M6.9 13.3l-2.6-2.6c-.3-.3-.3-.8 0-1.1s.8-.3 1.1 0L7 11.2l4.3-4.3c.3-.3.8-.3 1.1 0s.3.8 0 1.1l-5.5 5.3z"/>
</svg>
