<svg xmlns="http://www.w3.org/2000/svg" width="24" height="24">
  <path d="M12.009 3l.256.146c.028.016 2.893 1.626 7.188 2.204l.351.046.058.323.004.022c.087.533 1.542 10.393-7.668 15.138l-.237.121-.238-.122C2.3 16.024 4.137 5.818 4.157 5.715l.06-.319.348-.046c4.307-.58 7.16-2.187 7.188-2.204L12.009 3zm3.251 5.459l-3.855 3.83a.24.24 0 01-.338 0L9.74 10.97a.737.737 0 00-1.029 0 .725.725 0 000 1.022c.87.9 1.428 1.494 1.673 1.783.368.433.46.484.784.484.159 0 .219-.017.454-.225.496-.442 2.052-1.96 4.668-4.552a.725.725 0 000-1.022.737.737 0 00-1.03-.001z"/>
</svg>
