<svg xmlns="http://www.w3.org/2000/svg" viewBox="0 0 64 64">
  <path d="M61.4-.1H2.7C1.2-.1 0 1.2 0 2.7V47c0 1.5 1.3 3 3 3h12L9.2 64.1l19.9-14.3h32.1c1.5 0 2.8-1.3 2.8-3V2.7c.1-1.5-1.1-2.8-2.6-2.8zM14.7 32.4c-4.5 0-6.6-2.4-6.6-4.1 0-.9.6-1.5 1.5-1.5 1.9 0 1.5 2.8 5.1 2.8 1.9 0 3-1.1 3-2.1 0-.6-.2-1.3-1.5-1.7l-4.1-1.1c-3.2-.9-3.9-2.6-3.9-4.3 0-3.4 3.2-4.9 6.2-4.9 2.8 0 6.2 1.5 6.2 3.6 0 .9-.9 1.5-1.7 1.5-1.7 0-1.3-2.4-4.7-2.4-1.7 0-2.6.9-2.6 1.9 0 1.1 1.3 1.5 2.6 1.7l2.8.9c3.2.6 4.1 2.8 4.1 4.5 0 3.1-2.1 5.2-6.4 5.2zM40 30.5c0 .9-.4 1.7-1.5 1.7s-1.7-.9-1.7-1.7v-9.6l-3.4 10.5c-.2.6-.9 1.1-1.5 1.1s-1.3-.2-1.5-1.1L27 20.9v9.8c0 .9-.4 1.7-1.5 1.7s-1.7-.9-1.7-1.7V17.9c0-1.5 1.1-1.7 1.9-1.7h1.1c1.1 0 1.7.4 1.9 1.7L31.9 28l3-10.1c.4-1.3.9-1.7 1.9-1.7h1.1c1.1 0 1.9.4 1.9 1.7v12.6h.2zm9.2 1.9c-4.5 0-6.6-2.4-6.6-4.1 0-.9.6-1.5 1.5-1.5 1.9 0 1.5 2.8 5.1 2.8 1.9 0 3-1.1 3-2.1 0-.6-.2-1.3-1.5-1.7l-4.1-1.1c-3.2-.9-3.9-2.6-3.9-4.3 0-3.4 3.2-4.9 6.2-4.9 2.8 0 6.2 1.5 6.2 3.6 0 .9-.9 1.5-1.7 1.5-1.7 0-1.3-2.4-4.7-2.4-1.7 0-2.6.9-2.6 1.9 0 1.1 1.3 1.5 2.6 1.7l3 .6c3.2.6 4.1 2.8 4.1 4.5 0 3.4-2.1 5.5-6.6 5.5z"/>
</svg>
