<svg xmlns="http://www.w3.org/2000/svg" width="35" height="30">
  <path d="M24.185 13H17.72a.72.72 0 0 0-.721.72v13.112a.72.72 0 1 0 1.442 0V20.08h3.184a.722.722 0 0 0 0-1.442h-3.184V14.44h5.743a.72.72 0 0 0 .001-1.44zm7.128 6.665a.719.719 0 0 0-.272-.981c-1.118-.631-2.796-.58-3.993.115-.061.035-.104.086-.16.123v-.814a.721.721 0 0 0-1.442 0v8.728a.722.722 0 0 0 1.442 0v-5.239c0-.685.299-1.205.887-1.552.845-.492 1.965-.438 2.559-.104a.72.72 0 0 0 .979-.276z"/>
  <circle cx="30.688" cy="26.833" r="1.081"/>
  <path d="M15.289 8.912l-6.004-6.7a.623.623 0 0 0-.928-.014L2 8.912m6.866 18.085V2.129"/>
</svg>
