<svg xmlns="http://www.w3.org/2000/svg" width="35" height="30">
  <path d="M23.186 2H16.72a.72.72 0 0 0-.72.72v13.112a.72.72 0 1 0 1.441 0V9.08h3.184a.721.721 0 0 0 0-1.441h-3.184V3.441h5.745a.72.72 0 0 0 0-1.441zm7.128 6.665a.719.719 0 0 0-.272-.981c-1.118-.631-2.796-.58-3.993.115-.061.035-.104.085-.16.123v-.815a.72.72 0 1 0-1.442 0v8.727a.72.72 0 1 0 1.442 0v-5.24c0-.685.299-1.206.887-1.551.847-.492 1.967-.44 2.561-.104a.716.716 0 0 0 .977-.274z"/>
  <circle cx="29.689" cy="15.833" r="1.081"/>
  <path d="M2 20.085l6.004 6.7c.25.281.67.285.928.014l6.357-6.714M8.423 2v24.868"/>
</svg>
