<svg xmlns="http://www.w3.org/2000/svg" viewBox="0 0 19.8 19">
  <path d="M15.5 19c-.2 0-.5-.1-.7-.2l-4.9-3.7L5 18.8c-.3.3-.8.3-1.2 0-.4-.2-.5-.7-.4-1.1l2-5.9-5-3.6c-.3-.2-.5-.6-.3-1s.5-.7 1-.7h6L9 .6c0-.3.4-.6.9-.6s.8.3.9.8l1.9 5.8h6.1c.4 0 .8.3 1 .7.1.4 0 .9-.4 1.1l-5 3.5 2 5.8c.2.4 0 .8-.3 1.1-.2.1-.4.2-.6.2zm-5.6-5.1l5.5 4.1v.1l-2.2-6.6 5.6-3.9h-6.9L9.8 1.1l-2 6.4H1l5.6 4-2.2 6.6 5.5-4.2z"/>
  <path opacity=".7" d="M9.9 13.9l5.5 4.1.1.1-2.3-6.6 5.6-3.9h-6.9L9.8 1.1l-2 6.4H1l5.6 4-2.2 6.6z"/>
</svg>
