<svg xmlns="http://www.w3.org/2000/svg" width="24" height="24">
  <path fill-rule="evenodd" clip-rule="evenodd" d="M15.345 9.133a.812.812 0 01-.773-.556l-1.8-5.521a.816.816 0 00-1.545 0l-1.8 5.521a.81.81 0 01-.772.556H2.81c-.347-.008-.659.213-.769.545s.007.698.289.902l4.743 3.434c.28.201.399.561.292.891L5.557 20.45a.81.81 0 00.121.725.81.81 0 001.132.166l4.709-3.409a.821.821 0 01.961 0l4.709 3.409a.804.804 0 00.477.159c.257.004.501-.117.655-.325s.199-.478.121-.725l-1.808-5.545a.797.797 0 01.292-.891l4.743-3.434a.803.803 0 00.289-.902.792.792 0 00-.769-.545h-5.844z"/>
</svg>
