<?xml version="1.0" encoding="utf-8"?>
<!-- Generator: Adobe Illustrator 20.1.0, SVG Export Plug-In . SVG Version: 6.00 Build 0)  -->
<svg version="1.1" id="Layer_1" xmlns="http://www.w3.org/2000/svg" xmlns:xlink="http://www.w3.org/1999/xlink" x="0px" y="0px"
	 viewBox="0 0 19.8 19" style="enable-background:new 0 0 19.8 19;" xml:space="preserve">
<style type="text/css">
	.st0{fill:#FFFFFF;}
	.st1{opacity:0.9;fill:#FFCB05;}
</style>
<g>
	<path class="st0" d="M15.5,19c-0.2,0-0.5-0.1-0.7-0.2l-4.9-3.7L5,18.8c-0.3,0.3-0.8,0.3-1.2,0c-0.4-0.2-0.5-0.7-0.4-1.1l2-5.9
		l-5-3.6C0.1,8-0.1,7.6,0.1,7.2s0.5-0.7,1-0.7h6l1.9-5.9C9,0.3,9.4,0,9.9,0c0.5,0,0.8,0.3,0.9,0.8l1.9,5.8h6.1c0.4,0,0.8,0.3,1,0.7
		c0.1,0.4,0,0.9-0.4,1.1l-5,3.5l2,5.8c0.2,0.4,0,0.8-0.3,1.1C15.9,18.9,15.7,19,15.5,19z M9.9,13.9l5.5,4.1l0,0.1l-2.2-6.6l5.6-3.9
		l-6.9,0L9.8,1.1L7.8,7.5H1l5.6,4l-2.2,6.6L9.9,13.9z"/>
</g>
<polygon class="st1" points="9.9,13.9 15.4,18 15.5,18.1 13.2,11.5 18.8,7.6 11.9,7.6 9.8,1.1 7.8,7.5 1,7.5 6.6,11.5 4.4,18.1 "/>
</svg>
