<svg xmlns="http://www.w3.org/2000/svg" viewBox="0 0 30 15.7">
  <path d="M25.5 10.7c-.4 0-.7.1-1 .2-.7.3-1.2.8-1.5 1.5-.3.8-.3 1.6.1 2.3.5.8 1.5 1.2 2.5.9.9-.2 1.6-.8 1.9-1.7.3-.7.2-1.5-.2-2.2-.4-.7-1.1-1-1.8-1zm.2 3.6c-.4.2-.8.2-1.2 0-.4-.3-.6-.9-.4-1.4.3-.7 1.1-1 1.7-.7.4.2.6.6.6 1.1 0 .3-.2.7-.7 1zM11 10.8c-.6-.2-1.2-.1-1.8.3-.9.5-1.4 1.3-1.5 2.3 0 1 .5 1.7 1.3 2.1.8.3 1.5.2 2.2-.1 1-.5 1.6-1.7 1.4-2.9-.1-.9-.7-1.5-1.6-1.7zm-.8 3.6c-.6 0-1.1-.5-1.1-1.1 0-.7.6-1.3 1.3-1.3.6 0 1.1.5 1.1 1.1 0 .7-.6 1.3-1.3 1.3z"/>
  <path d="M29.5 6.7c-.8-.9-1.7-1.8-2.5-2.8-.4-.5-.9-.7-1.5-.7h-3.2V3c.1-.6.1-1.2.2-1.8V.7c-.1-.3-.4-.7-1-.7H6.3c-.5 0-.8.3-1 .7 0 .1 0 .2-.1.3h-2c-.2.1-.4.3-.3.6 0 .2.2.4.4.4h4.4c.3 0 .4 0 .5.2.1.2.1.3 0 .5s-.3.2-.5.2H1.4c-.3.1-.5.3-.5.6 0 .2.2.4.5.4H7c.3 0 .5.3.4.6-.2.3-.4.4-.6.4H2.4c-.3 0-.5.2-.5.5s.2.4.5.4h5.5c.4 0 .6.3.4.7-.1.3-.2.3-.5.3H.5c-.3.1-.5.3-.5.6s.2.4.5.4h6.6c.2 0 .4.2.4.4 0 .3-.2.6-.5.6H4.7c0 .4-.2 2.7-.3 3.5 0 .5.3.9.8.9h2.1c.1-.7.3-1.3.8-1.9.9-1 1.9-1.4 3.2-1.1 1.1.3 1.9 1 2.1 2.2.1.3.1.5.1.8h8.8c.1-.5.2-1 .5-1.4.7-1.2 2.2-1.9 3.6-1.6 1.1.3 2.1 1.4 2.1 2.6v.4h.5c.4 0 .8-.4.8-.8.1-.7.1-1.3.2-2 .1-.6.1-1.3.2-1.9-.1-.6-.3-1.2-.7-1.8zm-6.8.3c.1-1 .2-1.9.2-2.9h2.4c.3 0 .6.1.9.4.7.8 1.4 1.6 2.2 2.4l.1.1h-5.8z"/>
</svg>
