<svg xmlns="http://www.w3.org/2000/svg" viewBox="0 0 32 32">
  <path d="M16 7.2c-4.8 0-8.8 3.9-8.8 8.8s3.9 8.8 8.8 8.8 8.8-3.9 8.8-8.8-4-8.8-8.8-8.8zm4.6 14.6c0 .1-.1.2-.2.3-1.1.8-2.3 1.2-3.7 1.2-1.5 0-2.8-.5-3.6-1.2-.7-.6-.9-1.4-.9-3v-4.5h-1.6c-.2 0-.4-.1-.4-.4v-.8c0-.1 0-.2.1-.3l5.2-4.6c.1-.1.2-.1.3-.1h.5c.2 0 .4.2.4.4v3h3.2c.2 0 .4.2.4.4v2.1c0 .2-.2.4-.4.4h-3.2v3.4c0 1 .4 1.5 1.3 1.5.6 0 1.2-.2 1.9-.5h.4c.1.1.2.2.2.3l.1 2.4zM31.7 16l-3.6-3.3 1.5-4.6-4.7-1-1-4.7-4.6 1.5L16 .3l-3.3 3.6-4.6-1.5-1 4.7-4.7 1 1.5 4.6L.3 16l3.6 3.3-1.5 4.6 4.7 1 1 4.7 4.6-1.5 3.3 3.6 3.3-3.6 4.6 1.5 1-4.7 4.7-1-1.5-4.6c.1-.1 3.6-3.3 3.6-3.3zM16 26.4c-5.7 0-10.4-4.6-10.4-10.4S10.3 5.6 16 5.6 26.4 10.3 26.4 16 21.7 26.4 16 26.4z"/>
</svg>
