<svg xmlns="http://www.w3.org/2000/svg" viewBox="0 0 32 32">
  <path d="M17.6 4.7c-.7-.2-1.4-.4-2.2-.6-.4-.1-.6-.1-.9 0-1.3.7-2.6 1.5-3.9 2.2-.3.2-.4.3-.2.6.3.4.7.8 1 1.3.1.1.2.1.3.1 1-.5 2-1.1 2.9-1.6s1.9-1.1 3-1.7c.2-.2.2-.2 0-.3zm2.5.5c-.4-.2-1.1-.3-1.5-.1-.4.2-.3.6.1.9.5.2 1.1.3 1.5.1s.4-.7-.1-.9zm9 2.2L16.5.1c-.3-.1-.6-.1-.8 0L3 7.4c-.2.2-.2.4 0 .5l12.6 7.3c.3.1.6.1.8 0l12.7-7.3c.2-.1.2-.3 0-.5zm-5.4.5c-.4.2-1 .2-1.4-.1-.3-.1-.5-.3-.7-.5-.1-.1-.2-.1-.3 0-1 .5-1.8 1-2.6 1.4-.8.5-1.6.9-2.4 1.4-.1.1-.2.1 0 .2.3.2.5.3.8.5.3.2.4.5.2.7s-.6.3-1 .3c-.2 0-.5-.1-.6-.2-.3-.2-.5-.3-.8-.5-.1-.1-.2-.1-.2 0-.2.1-.3.2-.5.3-.1.1-.2.1-.2 0-.9-.5-1.8-1-2.6-1.5-.5-.3-.6-.7-.3-1 .1-.1 0-.1 0-.2-.4-.5-.8-1-1.3-1.5-.5-.4-.4-.8.2-1.1 1.3-.7 2.6-1.5 3.9-2.3.6-.3 1.1-.4 2-.2s1.7.5 2.6.7c.1.1.2.1.4 0 .6-.1 1.1-.1 1.6.1.3.1.5.3.8.5.6.4 1.3.7 1.9 1.1.1.1.1.1 0 .2-.2.1-.3.2-.5.3-.1.1-.1.1 0 .2.3.2.5.3.8.5.5.2.6.5.2.7zm-10 1c-.4-.2-1.1-.2-1.5-.1-.4.2-.3.6.1.9.4.2 1.1.3 1.5.1.4-.3.3-.6-.1-.9zm1.2 7.5L2.2 9.1c-.2-.1-.4 0-.4.2v14.6c0 .3.2.5.4.7l12.7 7.3c.2.1.4 0 .4-.2V17.1c0-.3-.2-.5-.4-.7zm-2.4 7c-.4-.2-.7-.4-1.1-.6v5.1c-.5-.3-1.3-.7-2-1.2V23c-.6-.3-1.5-.9-2.1-1.2v3.7c-.4-.3-1.5-.9-2-1.2v-5c-.3-.2-.6-.4-1-.6-.2-.1-.3-.2-.2-.3.2-.1.6-.4 1.2-.8v-2.9c0-.1.1-.1.2-.1l.6.3c.1.1.2.2.2.3v1.5c.7-.4 1.4-1 1.8-1.2.1-.1.2-.1.2.1.1 0 4.1 7.4 4.1 7.4.3.5.2.6.1.4zM29.8 9.1l-12.7 7.3c-.2.1-.4.4-.4.7v14.6c0 .3.2.4.4.2l12.7-7.3c.2-.1.4-.4.4-.7V9.4c.1-.3-.1-.4-.4-.3zm-6.1 8.7c0-.3.1-.5.3-.7l1.8-1.1c.6-.3 1.1 0 1.2.7-.3.4-.6 1.1-.6 1.9v.7l-2.8 1.5v-3zm-2.6 1l1.8-1.1c.2-.1.3 0 .3.3v3.1l-2.8 1.6V22c0-.5-.2-.9-.6-.9.1-1.1.6-1.9 1.3-2.3zm7.5.8c0 .6-.3 1.3-.8 1.5l-.3.2v.7c0 .3-.1.5-.3.6-.2.1-.3 0-.3-.2v-.7l-6.6 3.8v.7c0 .3-.1.5-.3.6s-.3 0-.3-.2v-.7l-.4.1c-.5.3-.8 0-.8-.6v-2.3c0-.6.3-1.3.8-1.5.5-.3.8 0 .8.6v1.3l6.8-3.9v-1.3c0-.6.3-1.3.8-1.5.5-.2.8.1.9.5v2.3z"/>
</svg>
