<svg xmlns="http://www.w3.org/2000/svg" width="19" height="16.5">
  <path d="M19 16.5H0v-5h19v5zM1.2 15.2h16.6v-2.6H1.2v2.6z"/>
  <path d="M19 16.5H0V0h19v16.5zM1.2 15.2h16.6v-14H1.2v14z"/>
  <path d="M2.7 10.9c-.1 0-.2 0-.3-.1-.2-.2-.2-.4-.1-.6l2.1-2.5c.2-.3.4-.3.6-.2.2.2.2.4.1.6L3 10.6c0 .2-.2.3-.3.3z"/>
  <path d="M7.9 10.5c-.1 0-.2 0-.3-.1l-3-2.3c-.2-.1-.2-.4-.1-.6s.4-.2.6-.1l3 2.3c.2.1.2.4.1.6s-.2.2-.3.2z"/>
  <path d="M7.9 10.5c-.1 0-.2 0-.3-.1-.2-.2-.2-.4-.1-.6l4.2-5.1c.2-.2.4-.2.6-.1.2.2.2.4.1.6l-4.2 5.1c-.1.2-.2.2-.3.2z"/>
  <path d="M16.8 10.9c-.1 0-.2-.1-.3-.1l-4.7-5.5c-.2-.2-.1-.5 0-.6.2-.2.5-.1.6 0l4.7 5.4c.2.2.1.5 0 .6s-.2.2-.3.2zM6.2 6c-1 0-1.8-.8-1.8-1.8s.8-1.8 1.8-1.8S8 3.2 8 4.2 7.2 6 6.2 6zm0-2.7c-.5 0-.9.4-.9.9s.4.9.9.9.9-.4.9-.9-.4-.9-.9-.9z"/>
</svg>
