<svg xmlns="http://www.w3.org/2000/svg" width="20" height="20">
  <path d="M17.7 18.6H2.3c-1 0-1.7-.4-2.1-1s-.3-1.5.2-2.3l8-12.9c.4-.7 1-1 1.6-1 .6 0 1.2.4 1.6 1l7.9 12.8c.5.8.6 1.7.2 2.3-.3.7-1 1.1-2 1.1zM10 2.5c-.2 0-.5.2-.7.5L1.4 15.8c-.3.5-.4.9-.2 1.2s.6.5 1.2.5h15.4c.6 0 1-.2 1.2-.5s.1-.7-.2-1.2L10.7 3c-.2-.3-.5-.5-.7-.5z"/>
  <path d="M11 15.2c0 .5-.3.8-.8.8h-.4c-.6 0-.8-.3-.8-.8v-.4c0-.5.3-.8.8-.8h.4c.6 0 .8.3.8.9v.3zm-.2-3.6c0 .5-.1 1-.8 1s-.8-.5-.8-1L9 7.2c0-.4 0-.7.2-.9.1-.1.3-.2.6-.2h.7c.2 0 .4 0 .5.2.2.2.2.5.2.9l-.4 4.4z"/>
</svg>
