<?xml version="1.0" encoding="utf-8"?>
<!-- Generator: Adobe Illustrator 16.0.4, SVG Export Plug-In . SVG Version: 6.00 Build 0)  -->
<!DOCTYPE svg PUBLIC "-//W3C//DTD SVG 1.1//EN" "http://www.w3.org/Graphics/SVG/1.1/DTD/svg11.dtd">
<svg version="1.1" id="Layer_1" xmlns="http://www.w3.org/2000/svg" xmlns:xlink="http://www.w3.org/1999/xlink" x="0px" y="0px"
	 width="30px" height="30px" viewBox="0 0 30 30" style="enable-background:new 0 0 30 30;" xml:space="preserve">
<style type="text/css">
<![CDATA[
	.st0{display:inline;fill:#333333;}
	.st1{display:none;}
	.st2{fill:#A6A39C;}
]]>
</style>
<g id="Layer_1_1_">
</g>
<g id="Layer_5" class="st1">
	<rect x="-214.411" y="-831.636" class="st0" width="3016" height="1758"/>
</g>
<g id="Layer_4">
</g>
<g id="Layer_3">
</g>
<g>
	<path class="st2" d="M8,9.961c-2.782,0-5.037,2.256-5.037,5.037c0,2.783,2.255,5.039,5.037,5.039c2.783,0,5.038-2.256,5.038-5.039
		C13.038,12.217,10.783,9.961,8,9.961z M10.368,18.191l-3.066-2.73l-0.057-0.426l0.218-4.099h0.639l0.215,4.042l2.536,2.717
		L10.368,18.191z"/>
	<path class="st2" d="M15,0C6.729,0,0,6.729,0,14.998C0,23.271,6.729,30,15,30c8.271,0,15-6.729,15-15.002C30,6.729,23.271,0,15,0z
		 M8,21c-3.314,0-6-2.686-6-6c0-3.313,2.687-6,6-6c3.314,0,6,2.687,6,6C14,18.314,11.314,21,8,21z M20.998,22.492l-5-6.82h3.117V5.5
		h3.732v10.172h3.149L20.998,22.492z"/>
</g>
</svg>
