<?xml version="1.0" encoding="utf-8"?>
<!-- Generator: Adobe Illustrator 20.1.0, SVG Export Plug-In . SVG Version: 6.00 Build 0)  -->
<svg version="1.1" id="Layer_1" xmlns:sketch="http://www.bohemiancoding.com/sketch/ns"
	 xmlns="http://www.w3.org/2000/svg" xmlns:xlink="http://www.w3.org/1999/xlink" x="0px" y="0px" width="52px" height="52px"
	 viewBox="0 0 52 52" style="enable-background:new 0 0 52 52;" xml:space="preserve">
<title>Fill 16</title>
<desc>Created with Sketch.</desc>
<g id="Page-1" sketch:type="MSPage">
	<g id="_x35_4-Social-Media-Icons" transform="translate(-61.500000, -474.000000)" sketch:type="MSArtboardGroup">
		<g id="Group-19" transform="translate(62.000000, 390.643929)" sketch:type="MSLayerGroup">
			<path id="Fill-16" sketch:type="MSShapeGroup" d="M31,109.4h-3.6v12.8h-5.3v-12.8h-2.5v-4.5h2.5V102c0-2.1,1-5.4,5.4-5.4h3.9v4.4
				h-2.9c-0.5,0-1.1,0.2-1.1,1.2v2.7h4.1L31,109.4L31,109.4z M25.5,83.7c-14.2,0-25.6,11.5-25.6,25.7s11.5,25.7,25.6,25.7
				c14.2,0,25.6-11.5,25.6-25.7C51.2,95.2,39.7,83.7,25.5,83.7L25.5,83.7z"/>
		</g>
	</g>
</g>
</svg>
