<?xml version="1.0" encoding="utf-8"?>
<!-- Generator: Adobe Illustrator 20.1.0, SVG Export Plug-In . SVG Version: 6.00 Build 0)  -->
<svg version="1.1" id="Layer_1" xmlns="http://www.w3.org/2000/svg" xmlns:xlink="http://www.w3.org/1999/xlink" x="0px" y="0px"
	 width="30px" height="30px" viewBox="0 0 30 30" enable-background="new 0 0 30 30" xml:space="preserve">
<g>
	<g>
		<path fill="#999999" d="M24.8,3.6h-4V1c0-0.5-0.4-0.9-0.9-0.9c0,0-9.7,0-9.7,0C9.6,0,9.2,0.4,9.2,1v2.6h-4c-1.1,0-2,0.9-2,2v1.5
			v1.9h1.8v19c0,1.1,0.9,2,2,2H23c1.2,0,2-0.9,2-2v-19h1.8V7.1V5.6C26.8,4.5,25.9,3.6,24.8,3.6z M11.1,1.9h7.8v1.7h-7.8V1.9z
			 M23.2,27.9c0,0.1-0.1,0.2-0.2,0.2H7c-0.1,0-0.2,0-0.2-0.2v-19h16.4V27.9L23.2,27.9z M25,7.1H5V5.6c0-0.1,0.1-0.2,0.2-0.2h19.6
			c0.1,0,0.2,0.1,0.2,0.2L25,7.1L25,7.1z"/>
		<rect x="18.4" y="11.1" fill="#999999" width="1.9" height="15.3"/>
		<rect x="14.1" y="11.1" fill="#999999" width="1.9" height="15.3"/>
		<rect x="9.8" y="11.1" fill="#999999" width="1.9" height="15.3"/>
	</g>
</g>
</svg>
