<?xml version="1.0" encoding="utf-8"?>
<!-- Generator: Adobe Illustrator 20.1.0, SVG Export Plug-In . SVG Version: 6.00 Build 0)  -->
<svg version="1.1" id="Layer_1" xmlns="http://www.w3.org/2000/svg" xmlns:xlink="http://www.w3.org/1999/xlink" x="0px" y="0px"
	 width="1000px" height="1000px" viewBox="0 0 1000 1000" style="enable-background:new 0 0 1000 1000;" xml:space="preserve">
<path d="M500,4.1C226.1,4.1,4.1,226.1,4.1,500c0,273.9,222,495.9,495.9,495.9c273.9,0,495.9-222,495.9-495.9
	C995.9,226.1,773.9,4.1,500,4.1z M465.8,674.1c-86.1,33.6-186.2-0.5-232.2-79.2c-48.3-82.7-28.6-183.6,46.8-243.4
	c72.5-57.5,185.3-48.3,236.3,11.2c-13.8,14.9-27.8,29.9-43,46.4c-42.9-24.9-84.5-37-128.8-15.2C314,409.1,294,433.3,284,466.5
	c-19.3,64.1,19.9,132.7,85.1,148c60,14.1,113.9-18,123.6-76.4c-31,0-61.5,0-95.3,0c0-21.5,0-40,0-61.7c55.3,0,112.2,0,169.3,0
	C586.6,559.6,543.8,643.8,465.8,674.1z M792.7,525.4h-53.2v53.2h-49.2v-53.2h-53.2v-49.2h53.2V423h49.2v53.2h53.2V525.4z"/>
</svg>
