<?xml version="1.0" encoding="utf-8"?>
<!-- Generator: Adobe Illustrator 20.1.0, SVG Export Plug-In . SVG Version: 6.00 Build 0)  -->
<svg version="1.1" id="Layer_1" xmlns="http://www.w3.org/2000/svg" xmlns:xlink="http://www.w3.org/1999/xlink" x="0px" y="0px"
	 width="51px" height="23px" viewBox="0 0 51 23" enable-background="new 0 0 51 23" xml:space="preserve">
<path d="M25.364,14.654c-0.605,0.615-1.183,1.218-1.779,1.804c-1.349,1.328-2.744,2.604-4.304,3.687
	c-1.909,1.325-3.973,2.28-6.3,2.556c-3.628,0.429-6.871-0.41-9.503-3.058c-1.725-1.735-2.646-3.879-2.977-6.286
	c-0.334-2.428-0.035-4.767,1.13-6.94C3.47,2.987,6.346,0.991,10.186,0.39c2.866-0.448,5.487,0.25,7.935,1.73
	c1.982,1.198,3.682,2.741,5.326,4.351c0.586,0.574,1.162,1.159,1.743,1.739c0.06,0.059,0.122,0.115,0.217,0.204
	c0.391-0.401,0.768-0.794,1.153-1.18c1.31-1.311,2.648-2.592,4.124-3.719c1.789-1.366,3.723-2.447,5.94-2.938
	c2.416-0.535,4.802-0.44,7.12,0.474c2.683,1.057,4.591,2.941,5.693,5.592c1.141,2.744,1.364,5.586,0.371,8.407
	c-1.491,4.237-4.527,6.756-8.936,7.583c-3.089,0.579-5.9-0.209-8.513-1.861c-1.574-0.995-2.98-2.197-4.318-3.483
	c-0.834-0.802-1.647-1.625-2.47-2.438C25.518,14.798,25.461,14.746,25.364,14.654z M28.452,11.423
	c0.316,0.351,0.558,0.661,0.841,0.927c1.24,1.167,2.46,2.357,3.747,3.47c1.136,0.983,2.425,1.739,3.894,2.139
	c1.891,0.514,3.713,0.358,5.4-0.671c2.609-1.591,3.796-4.554,3.066-7.535c-0.665-2.712-2.718-4.558-5.448-4.87
	c-1.858-0.212-3.56,0.294-5.164,1.194c-1.56,0.875-2.9,2.035-4.182,3.267C29.867,10.053,29.132,10.765,28.452,11.423z M22.31,11.641
	c-0.292-0.329-0.522-0.629-0.793-0.885c-1.245-1.173-2.469-2.371-3.762-3.489c-1.185-1.024-2.528-1.81-4.07-2.196
	c-1.815-0.454-3.562-0.29-5.182,0.675c-2.694,1.605-3.93,4.704-3.084,7.728c0.7,2.501,2.315,4.09,4.871,4.628
	c1.791,0.377,3.493-0.007,5.115-0.801c1.216-0.595,2.322-1.36,3.319-2.267C19.959,13.91,21.153,12.74,22.31,11.641z"/>
</svg>
