<?xml version="1.0" encoding="utf-8"?>
<!-- Generator: Adobe Illustrator 20.1.0, SVG Export Plug-In . SVG Version: 6.00 Build 0)  -->
<svg version="1.1" id="Layer_1" xmlns="http://www.w3.org/2000/svg" xmlns:xlink="http://www.w3.org/1999/xlink" x="0px" y="0px"
	 width="1000px" height="1000px" viewBox="0 0 1000 1000" style="enable-background:new 0 0 1000 1000;" xml:space="preserve">
<g>
	<path d="M633.7,386c17.6,0.6,35.2,0.4,52.8,0.1c12.6-0.3,19.4-7.3,19.9-19.9c0.3-8.8,0.1-17.6,0.1-26.4c0-9.2,0.2-18.5,0-27.7
		c-0.3-12.7-7.1-19.9-19.6-20.2c-17.6-0.6-35.2-0.6-52.8,0c-13.8,0.5-20.2,7.1-20.6,20.5c-0.5,17.6-0.5,35.2,0,52.7
		C613.8,378.8,620.3,385.5,633.7,386z"/>
	<path d="M499.3,612.1c62.5-0.1,112.1-49.2,112.2-111c0.1-62.7-50.3-115-110.5-114.7c-63,0.3-114,50.7-114.4,113.1
		C386.2,561,437.3,612.2,499.3,612.1z"/>
	<path d="M499.8,5.7C226.7,5.7,7.5,226.9,7.5,500s221.2,494.2,492.3,494.2c273.1,0,492.3-221.2,492.3-494.2
		C992.1,226.9,772.9,5.7,499.8,5.7z M743.6,677.3c0,45.7-20.9,66.5-66.2,66.5c-119.1,0-238.2,0-357.3,0c-43.2,0-64.1-20.9-64.2-64
		c-0.1-60.4,0-302.1,0-362.6c0-40.3,20.6-61.1,61.4-61.1c104.1-0.1,345.8,0.4,362.5,0c38.6-0.9,63.8,22.8,63.8,61.2
		C743.7,437.3,743.7,557.3,743.6,677.3z"/>
	<path d="M706.8,464c-21,0-39.5,0-59.4,0c5.5,31,5,59.1-5.8,87c-10.7,27.9-28.3,50.7-52.1,68.6c-23.8,18-50.5,29.4-80.4,30.4
		c-39.1,1.4-75-8.7-105.5-34.5c-47.1-40-61-91.5-51.1-151.5c-20.6,0-40.3,0-59.9,0c-0.4,6-0.2,148,0,213.7
		c0.1,25.3,4.7,29.6,30.6,29.6c117.7,0,235.4,0,353.1,0c25.5,0,30.4-4.5,30.5-30C707,626.6,706.8,485,706.8,464z"/>
</g>
</svg>
