<?xml version="1.0" encoding="utf-8"?>
<!-- Generator: Adobe Illustrator 20.1.0, SVG Export Plug-In . SVG Version: 6.00 Build 0)  -->
<svg version="1.1" id="Layer_1" xmlns="http://www.w3.org/2000/svg" xmlns:xlink="http://www.w3.org/1999/xlink" x="0px" y="0px"
	 width="9.944px" height="14.843px" viewBox="0 0 9.944 14.843" enable-background="new 0 0 9.944 14.843" xml:space="preserve">
<g id="Layer_2">
	<g>
		<path fill="#CCCCCC" d="M4.979,14.843l-0.38-0.538C3.52,12.778,0,7.587,0,4.854C0,2.177,2.231,0,4.972,0
			c2.741,0,4.971,2.177,4.971,4.854c0,2.815-3.818,8.365-4.584,9.449L4.979,14.843z M4.972,0.466c-2.485,0-4.506,1.969-4.506,4.389
			c0,2.594,3.454,7.682,4.513,9.18v0c0.751-1.063,4.498-6.504,4.498-9.18C9.477,2.435,7.456,0.466,4.972,0.466z M4.943,6.359
			c-0.93,0-1.686-0.735-1.686-1.64c0-0.904,0.756-1.639,1.686-1.639c0.929,0,1.686,0.735,1.686,1.639S5.872,6.359,4.943,6.359z
			 M4.943,3.545c-0.672,0-1.22,0.526-1.22,1.174s0.547,1.174,1.22,1.174s1.22-0.526,1.22-1.174S5.616,3.545,4.943,3.545z"/>
	</g>
</g>
</svg>
