<?xml version="1.0" encoding="utf-8"?>
<!-- Generator: Adobe Illustrator 16.0.4, SVG Export Plug-In . SVG Version: 6.00 Build 0)  -->
<!DOCTYPE svg PUBLIC "-//W3C//DTD SVG 1.1//EN" "http://www.w3.org/Graphics/SVG/1.1/DTD/svg11.dtd">
<svg version="1.1" id="Layer_1" xmlns="http://www.w3.org/2000/svg" xmlns:xlink="http://www.w3.org/1999/xlink" x="0px" y="0px"
	 width="29.014px" height="29.016px" viewBox="0 0 29.014 29.016" style="enable-background:new 0 0 29.014 29.016;"
	 xml:space="preserve">
<style type="text/css">
<![CDATA[
	.st0{display:inline;fill:#333333;}
	.st1{display:none;}
	.st2{fill:#A6A39C;}
]]>
</style>
<g id="Layer_1_1_">
</g>
<g id="Layer_5" class="st1">
	<rect x="-293.918" y="-753.471" class="st0" width="3016" height="1758"/>
</g>
<g id="Layer_4">
</g>
<g id="Layer_3">
</g>
<path class="st2" d="M14.507,0C6.507,0,0,6.507,0,14.507s6.507,14.509,14.507,14.509s14.507-6.509,14.507-14.509S22.507,0,14.507,0z
	 M18.699,22.706c0,0.275-0.225,0.5-0.5,0.5h-11c-0.276,0-0.5-0.225-0.5-0.5v-16c0-0.276,0.224-0.5,0.5-0.5h11
	c0.275,0,0.5,0.224,0.5,0.5v3c0,0.275-0.225,0.5-0.5,0.5c-0.276,0-0.5-0.225-0.5-0.5v-2.5h-10v15h10v-2.5c0-0.276,0.224-0.5,0.5-0.5
	c0.275,0,0.5,0.224,0.5,0.5V22.706z M20.199,19.052v-2.596h-8v-3h8v-2.494l5.517,4.045L20.199,19.052z"/>
</svg>
