<?xml version="1.0" encoding="utf-8"?>
<!-- Generator: Adobe Illustrator 20.1.0, SVG Export Plug-In . SVG Version: 6.00 Build 0)  -->
<svg version="1.1" id="Layer_1" xmlns="http://www.w3.org/2000/svg" xmlns:xlink="http://www.w3.org/1999/xlink" x="0px" y="0px"
	 width="30px" height="30px" viewBox="0 0 30 30" enable-background="new 0 0 30 30" xml:space="preserve">
<g id="Layer_1_1_">
</g>
<g id="Layer_5" display="none">
	<rect x="-135.4" y="-1266.4" display="inline" fill="#333333" width="3016" height="1758"/>
</g>
<g id="Layer_4">
</g>
<g id="Layer_3">
</g>
<g id="Layer_2">
	<g>
		<path fill="#999999" d="M20.2,29.8c-0.3,0-0.6-0.1-0.8-0.4L9.1,16.6c-0.8-1-0.8-2.5,0.1-3.4L19.6,0.5c0.4-0.4,1-0.5,1.5-0.1
			c0.4,0.4,0.5,1,0.1,1.5L10.7,14.6c-0.2,0.2-0.2,0.5,0,0.7L21,28.2c0.4,0.4,0.3,1.1-0.2,1.5C20.6,29.8,20.4,29.8,20.2,29.8z"/>
	</g>
</g>
</svg>
