<?xml version="1.0" encoding="utf-8"?>
<!-- Generator: Adobe Illustrator 16.0.4, SVG Export Plug-In . SVG Version: 6.00 Build 0)  -->
<!DOCTYPE svg PUBLIC "-//W3C//DTD SVG 1.1//EN" "http://www.w3.org/Graphics/SVG/1.1/DTD/svg11.dtd">
<svg version="1.1" id="Layer_1" xmlns="http://www.w3.org/2000/svg" xmlns:xlink="http://www.w3.org/1999/xlink" x="0px" y="0px"
	 width="30px" height="30px" viewBox="0 0 30 30" style="enable-background:new 0 0 30 30;" xml:space="preserve">
<style type="text/css">
<![CDATA[
	.st0{display:inline;fill:#333333;}
	.st1{display:none;}
	.st2{fill:#A6A39C;}
]]>
</style>
<g id="Layer_1_1_">
</g>
<g id="Layer_5" class="st1">
	<rect x="-372.111" y="-831.636" class="st0" width="3016" height="1758"/>
</g>
<g id="Layer_4">
</g>
<g id="Layer_3">
</g>
<path class="st2" d="M15,0C6.729,0,0,6.729,0,14.998C0,23.271,6.729,30,15,30c8.271,0,15-6.729,15-15.002C30,6.729,23.271,0,15,0z
	 M8.701,11.916h-3.06v2.017h2.88v1.416h-2.88v3.719H3.913V10.5h4.788V11.916z M12.059,14.027c-0.144,0-0.288,0.021-0.432,0.061
	c-0.145,0.041-0.276,0.105-0.396,0.197c-0.119,0.094-0.216,0.213-0.288,0.36c-0.071,0.147-0.107,0.33-0.107,0.546v3.877H9.18V12.61
	h1.585v0.864h0.024c0.168-0.312,0.372-0.562,0.611-0.75c0.24-0.188,0.532-0.282,0.876-0.282c0.049,0,0.099,0.002,0.15,0.006
	c0.051,0.004,0.103,0.012,0.15,0.02v1.584c-0.088-0.008-0.175-0.016-0.259-0.02C12.233,14.029,12.147,14.027,12.059,14.027z
	 M13.969,19.068h-1.584v-1.873h1.584V19.068z M20.998,22.492l-5-6.82h3.117V5.5h3.732v10.172h3.149L20.998,22.492z"/>
</svg>
