<?xml version="1.0" encoding="utf-8"?>
<!-- Generator: Adobe Illustrator 16.0.4, SVG Export Plug-In . SVG Version: 6.00 Build 0)  -->
<!DOCTYPE svg PUBLIC "-//W3C//DTD SVG 1.1//EN" "http://www.w3.org/Graphics/SVG/1.1/DTD/svg11.dtd">
<svg version="1.1" id="Layer_1" xmlns="http://www.w3.org/2000/svg" xmlns:xlink="http://www.w3.org/1999/xlink" x="0px" y="0px"
	 width="30px" height="30px" viewBox="0 0 30 30" style="enable-background:new 0 0 30 30;" xml:space="preserve">
<style type="text/css">
<![CDATA[
	.st0{display:inline;fill:#333333;}
	.st1{display:none;}
	.st2{fill:#A6A39C;}
]]>
</style>
<g id="Layer_1_1_">
</g>
<g id="Layer_5" class="st1">
	<rect x="-135.542" y="-752.979" class="st0" width="3016" height="1758"/>
</g>
<g id="Layer_4">
</g>
<g id="Layer_3">
</g>
<g>
	<path class="st2" d="M15,0C6.729,0,0,6.729,0,14.999C0,23.271,6.729,30,15,30c8.271,0,15-6.729,15-15.001C30,6.729,23.271,0,15,0z
		 M15,4.5c3.504,0,6.348,2.841,6.348,6.347c0,3.506-2.844,6.346-6.348,6.346c-3.507,0-6.348-2.84-6.348-6.346
		C8.652,7.341,11.494,4.5,15,4.5z M5.887,23.5c0.886-3.3,2.817-4.836,5.284-5.482c1.141,0.612,2.445,0.961,3.829,0.961
		s2.688-0.351,3.83-0.961c2.466,0.646,4.398,2.183,5.285,5.482H5.887z"/>
	<path class="st2" d="M15,15.951c2.146,0,3.982-1.324,4.738-3.201c-0.188,0-8.567,0-9.479,0C11.015,14.628,12.852,15.951,15,15.951z
		"/>
</g>
</svg>
