<?xml version="1.0" encoding="utf-8"?>
<!-- Generator: Adobe Illustrator 20.1.0, SVG Export Plug-In . SVG Version: 6.00 Build 0)  -->
<svg version="1.1" id="Layer_1" xmlns:sketch="http://www.bohemiancoding.com/sketch/ns"
	 xmlns="http://www.w3.org/2000/svg" xmlns:xlink="http://www.w3.org/1999/xlink" x="0px" y="0px" width="52px" height="52px"
	 viewBox="0 0 52 52" style="enable-background:new 0 0 52 52;" xml:space="preserve">
<title>Fill 18</title>
<desc>Created with Sketch.</desc>
<g id="_x35_4-Social-Media-Icons" transform="translate(-215.500000, -474.000000)" sketch:type="MSArtboardGroup">
	<g id="Group-19" transform="translate(62.000000, 390.643929)" sketch:type="MSLayerGroup">
		<path id="Fill-18" sketch:type="MSShapeGroup" d="M187.3,122.2c0-11.5-9.2-20.8-20.6-20.8v-4.9c14.1,0,25.5,11.5,25.5,25.7
			L187.3,122.2L187.3,122.2z M178.7,122.2c0-3.2-1.2-6.2-3.5-8.5s-5.2-3.5-8.4-3.5v-4.9c9.3,0,16.8,7.6,16.8,17h-4.9V122.2z
			 M170.1,122.2c-1.9,0-3.4-1.5-3.4-3.4s1.5-3.4,3.4-3.4c1.9,0,3.4,1.5,3.4,3.4S172,122.2,170.1,122.2L170.1,122.2z M179.5,83.7
			c-14.2,0-25.6,11.5-25.6,25.7s11.5,25.7,25.6,25.7s25.6-11.5,25.6-25.7S193.6,83.7,179.5,83.7L179.5,83.7z"/>
	</g>
</g>
</svg>
