<?xml version="1.0" encoding="utf-8"?>
<!-- Generator: Adobe Illustrator 20.1.0, SVG Export Plug-In . SVG Version: 6.00 Build 0)  -->
<svg version="1.1" id="Layer_1" xmlns="http://www.w3.org/2000/svg" xmlns:xlink="http://www.w3.org/1999/xlink" x="0px" y="0px"
	 width="16.5px" height="20px" viewBox="0 0 16.5 20" style="enable-background:new 0 0 16.5 20;" xml:space="preserve">
<style type="text/css">
	.st0{fill:none;}
</style>
<g>
	<g>
		<path d="M8.2,20L8,19.9c-0.3-0.1-7.2-3.4-7.9-11.7c-0.2-3.4,0-5.1,0-5.2V2.7l0.3-0.1c0.1,0,5.7-1.4,7.2-2.2L8.2,0l0.6,0.3
			c1.5,0.8,7.1,2.2,7.2,2.2l0.4,0.1l0.1,0.9c0,0,0.2,1.3-0.1,4.7c-0.7,8.2-7.6,11.5-7.9,11.7L8.2,20z M1.1,3.5C1,4.1,1,5.7,1.2,8.2
			c0.5,6.9,5.9,10.1,7,10.7c1.2-0.6,6.5-3.9,7-10.7c0.3-3.3,0.1-4.5,0.1-4.5V3.5c-1.2-0.4-5.6-1.5-7-2.3H8.2H8.1
			C6.7,2,2.4,3.2,1.1,3.5z"/>
	</g>
</g>
<line class="st0" x1="8.2" y1="7.4" x2="8.2" y2="7.4"/>
<g>
	<path d="M6.9,13.3l-2.6-2.6C4,10.4,4,9.9,4.3,9.6s0.8-0.3,1.1,0L7,11.2l4.3-4.3c0.3-0.3,0.8-0.3,1.1,0s0.3,0.8,0,1.1L6.9,13.3z"/>
</g>
</svg>
