<?xml version="1.0" encoding="utf-8"?>
<!-- Generator: Adobe Illustrator 16.0.4, SVG Export Plug-In . SVG Version: 6.00 Build 0)  -->
<!DOCTYPE svg PUBLIC "-//W3C//DTD SVG 1.1//EN" "http://www.w3.org/Graphics/SVG/1.1/DTD/svg11.dtd">
<svg version="1.1" id="Layer_1" xmlns="http://www.w3.org/2000/svg" xmlns:xlink="http://www.w3.org/1999/xlink" x="0px" y="0px"
	 width="30px" height="30px" viewBox="0 0 30 30" style="enable-background:new 0 0 30 30;" xml:space="preserve">
<style type="text/css">
<![CDATA[
	.st0{display:inline;fill:#333333;}
	.st1{display:none;}
	.st2{fill:#A6A39C;}
]]>
</style>
<g id="Layer_1_1_">
</g>
<g id="Layer_5" class="st1">
	<rect x="-1265.417" y="-493.558" class="st0" width="3016" height="1758"/>
</g>
<g id="Layer_4">
</g>
<g id="Layer_3">
</g>
<g id="Layer_2">
	<path class="st2" d="M28.664,0H1.345C0.609,0-0.009,0.566-0.009,1.306V21.96c0,0.735,0.62,1.376,1.354,1.376h5.663L4.343,30
		l9.33-6.664h14.991c0.736,0,1.346-0.641,1.346-1.376V1.306C30.007,0.564,29.4,0,28.664,0z M9.556,14.201
		c-0.242,0.374-0.597,0.667-1.062,0.879c-0.466,0.212-1.02,0.318-1.659,0.318c-0.767,0-1.398-0.145-1.898-0.436
		c-0.353-0.21-0.64-0.487-0.861-0.834c-0.22-0.35-0.331-0.688-0.331-1.014c0-0.191,0.066-0.355,0.199-0.491
		c0.132-0.137,0.301-0.206,0.506-0.206c0.166,0,0.306,0.054,0.421,0.16c0.114,0.107,0.212,0.264,0.293,0.473
		c0.1,0.245,0.207,0.454,0.321,0.619c0.114,0.166,0.276,0.302,0.483,0.41c0.209,0.108,0.485,0.163,0.822,0.163
		c0.467,0,0.845-0.11,1.137-0.329c0.291-0.217,0.438-0.484,0.438-0.811c0-0.256-0.079-0.469-0.235-0.628
		c-0.158-0.162-0.361-0.285-0.609-0.369c-0.25-0.086-0.584-0.176-0.999-0.271c-0.56-0.131-1.026-0.282-1.403-0.458
		c-0.375-0.176-0.674-0.412-0.895-0.715c-0.221-0.302-0.331-0.677-0.331-1.126c0-0.427,0.117-0.808,0.35-1.14
		C4.476,8.064,4.812,7.81,5.255,7.632c0.442-0.18,0.96-0.27,1.558-0.27c0.477,0,0.891,0.06,1.238,0.179
		c0.348,0.12,0.637,0.276,0.866,0.472C9.147,8.209,9.314,8.416,9.42,8.63c0.106,0.217,0.16,0.426,0.16,0.633
		c0,0.187-0.067,0.354-0.199,0.505C9.248,9.917,9.083,9.993,8.884,9.993c-0.179,0-0.316-0.045-0.409-0.136
		c-0.094-0.09-0.196-0.236-0.306-0.441C8.028,9.122,7.858,8.894,7.662,8.728C7.463,8.563,7.145,8.483,6.707,8.483
		c-0.405,0-0.733,0.088-0.983,0.266C5.476,8.929,5.35,9.142,5.35,9.393c0,0.159,0.043,0.289,0.129,0.404
		c0.083,0.113,0.201,0.211,0.349,0.291c0.148,0.081,0.298,0.146,0.451,0.189c0.151,0.047,0.402,0.115,0.752,0.203
		c0.439,0.102,0.834,0.216,1.189,0.34c0.355,0.124,0.658,0.274,0.906,0.448c0.25,0.178,0.444,0.404,0.584,0.67
		c0.14,0.27,0.208,0.604,0.208,0.997C9.917,13.4,9.798,13.823,9.556,14.201z M18.637,14.507c0,0.297-0.046,0.521-0.179,0.668
		c-0.131,0.15-0.299,0.224-0.521,0.224c-0.209,0-0.375-0.073-0.51-0.224c-0.135-0.146-0.198-0.371-0.198-0.668V9.144l-1.245,4.95
		c-0.08,0.323-0.146,0.558-0.197,0.708c-0.052,0.149-0.145,0.287-0.283,0.411c-0.137,0.124-0.33,0.186-0.571,0.186
		c-0.184,0-0.34-0.04-0.467-0.12c-0.127-0.079-0.226-0.18-0.296-0.303c-0.071-0.123-0.127-0.262-0.167-0.412
		s-0.061-0.307-0.104-0.47l-1.224-4.95v5.363c0,0.297-0.088,0.521-0.221,0.668c-0.132,0.15-0.317,0.224-0.538,0.224
		c-0.211,0-0.404-0.073-0.538-0.222c-0.135-0.145-0.221-0.367-0.221-0.67V8.359c0-0.338,0.103-0.563,0.279-0.681
		c0.176-0.119,0.429-0.176,0.729-0.176h0.488c0.293,0,0.506,0.023,0.638,0.076c0.133,0.055,0.23,0.148,0.294,0.285
		c0.063,0.139,0.136,0.361,0.218,0.672l1.128,4.255l1.128-4.255c0.081-0.312,0.152-0.537,0.217-0.674
		c0.062-0.138,0.162-0.229,0.294-0.283c0.132-0.053,0.347-0.076,0.64-0.076h0.486c0.301,0,0.52,0.057,0.694,0.176
		c0.177,0.117,0.245,0.343,0.245,0.681v6.148H18.637z M25.833,14.201c-0.24,0.374-0.596,0.667-1.062,0.879s-1.019,0.318-1.659,0.318
		c-0.767,0-1.4-0.145-1.896-0.436c-0.354-0.21-0.641-0.487-0.861-0.834c-0.223-0.35-0.332-0.688-0.332-1.014
		c0-0.191,0.066-0.355,0.198-0.491c0.134-0.137,0.301-0.206,0.506-0.206c0.166,0,0.308,0.054,0.421,0.16
		c0.116,0.107,0.212,0.264,0.294,0.473c0.099,0.245,0.206,0.454,0.321,0.619c0.113,0.166,0.275,0.302,0.484,0.41
		c0.207,0.108,0.481,0.163,0.821,0.163c0.466,0,0.845-0.11,1.138-0.329c0.291-0.217,0.437-0.484,0.437-0.811
		c0-0.256-0.08-0.469-0.235-0.628c-0.156-0.162-0.361-0.285-0.609-0.369c-0.25-0.086-0.582-0.176-1-0.271
		c-0.557-0.131-1.024-0.282-1.401-0.458c-0.376-0.176-0.674-0.412-0.896-0.715c-0.221-0.302-0.332-0.677-0.332-1.126
		c0-0.427,0.117-0.808,0.35-1.14c0.234-0.333,0.57-0.588,1.014-0.766c0.439-0.18,0.959-0.27,1.557-0.27
		c0.478,0,0.891,0.06,1.238,0.179c0.348,0.12,0.637,0.276,0.866,0.472c0.229,0.196,0.396,0.403,0.503,0.617
		c0.106,0.217,0.159,0.426,0.159,0.633c0,0.187-0.065,0.354-0.198,0.505c-0.132,0.149-0.298,0.226-0.496,0.226
		c-0.181,0-0.316-0.045-0.41-0.136c-0.094-0.09-0.194-0.236-0.305-0.441c-0.141-0.294-0.312-0.522-0.51-0.688
		c-0.197-0.164-0.516-0.244-0.953-0.244c-0.406,0-0.734,0.088-0.982,0.266c-0.25,0.18-0.375,0.393-0.375,0.644
		c0,0.159,0.043,0.289,0.127,0.404c0.084,0.113,0.201,0.211,0.351,0.291c0.147,0.081,0.297,0.146,0.45,0.189
		c0.152,0.047,0.402,0.115,0.752,0.203c0.438,0.102,0.835,0.216,1.189,0.34s0.657,0.274,0.906,0.448
		c0.249,0.178,0.441,0.404,0.583,0.67c0.14,0.27,0.209,0.604,0.209,0.997C26.199,13.4,26.078,13.823,25.833,14.201z"/>
</g>
</svg>
