<?xml version="1.0" encoding="utf-8"?>
<!-- Generator: Adobe Illustrator 20.1.0, SVG Export Plug-In . SVG Version: 6.00 Build 0)  -->
<svg version="1.1" id="Layer_1" xmlns="http://www.w3.org/2000/svg" xmlns:xlink="http://www.w3.org/1999/xlink" x="0px" y="0px"
	 width="19px" height="18.34px" viewBox="5.5 5.83 19 18.34" enable-background="new 5.5 5.83 19 18.34" xml:space="preserve">
<g id="Layer_1_1_">
</g>
<g id="Layer_5" display="none">
	<rect x="-451.417" y="-466.542" display="inline" fill="#333333" width="3016" height="1758"/>
</g>
<g id="Layer_4">
</g>
<g id="Layer_3">
</g>
<g id="Layer_2">
	<g>
		<g>
			<path fill="#999999" d="M10.646,10.976H5.5V5.83h5.146V10.976z M6.688,9.788h2.771v-2.77H6.688V9.788z"/>
		</g>
		<g>
			<path fill="#999999" d="M23.906,8.996H12.031c-0.328,0-0.594-0.266-0.594-0.594c0-0.328,0.266-0.594,0.594-0.594h11.875
				C24.234,7.809,24.5,8.074,24.5,8.402C24.5,8.73,24.234,8.996,23.906,8.996z"/>
		</g>
		<g>
			<path fill="#999999" d="M10.646,17.573H5.5v-5.146h5.146V17.573z M6.688,16.386h2.771v-2.771H6.688V16.386z"/>
		</g>
		<g>
			<path fill="#999999" d="M23.906,15.594H12.031c-0.328,0-0.594-0.266-0.594-0.594c0-0.329,0.266-0.594,0.594-0.594h11.875
				c0.328,0,0.594,0.266,0.594,0.594S24.234,15.594,23.906,15.594z"/>
		</g>
		<g>
			<path fill="#999999" d="M10.646,24.17H5.5v-5.146h5.146V24.17z M6.688,22.982h2.771V20.21H6.688V22.982z"/>
		</g>
		<g>
			<path fill="#999999" d="M23.906,22.189H12.031c-0.328,0-0.594-0.265-0.594-0.594c0-0.328,0.266-0.594,0.594-0.594h11.875
				c0.328,0,0.594,0.266,0.594,0.594C24.5,21.925,24.234,22.189,23.906,22.189z"/>
		</g>
	</g>
</g>
</svg>
