<?xml version="1.0" encoding="utf-8"?>
<!-- Generator: Adobe Illustrator 20.1.0, SVG Export Plug-In . SVG Version: 6.00 Build 0)  -->
<svg version="1.1" id="Layer_1" xmlns:sketch="http://www.bohemiancoding.com/sketch/ns"
	 xmlns="http://www.w3.org/2000/svg" xmlns:xlink="http://www.w3.org/1999/xlink" x="0px" y="0px" width="52px" height="52px"
	 viewBox="0 0 52 52" style="enable-background:new 0 0 52 52;" xml:space="preserve">
<title>Group</title>
<desc>Created with Sketch.</desc>
<g id="Page-1" sketch:type="MSPage">
	<g id="_x35_4-Social-Media-Icons" transform="translate(-359.500000, -155.000000)" sketch:type="MSArtboardGroup">
		<g id="Group" transform="translate(359.000000, 155.000000)" sketch:type="MSLayerGroup">
			<path id="Fill-25" sketch:type="MSShapeGroup" d="M26.3,22.1c0.2,0,0.4-0.1,0.5-0.2s0.2-0.3,0.2-0.5v-3.9c0-0.2-0.1-0.3-0.2-0.4
				C26.7,17,26.5,17,26.3,17s-0.3,0-0.4,0.1c-0.1,0.1-0.2,0.2-0.2,0.4v3.9c0,0.2,0.1,0.3,0.2,0.5C25.9,22.1,26.1,22.1,26.3,22.1"/>
			<path id="Fill-26" sketch:type="MSShapeGroup" d="M29.4,34.4c0,0.2,0,0.4-0.1,0.4c-0.1,0.1-0.2,0.1-0.4,0.1c-0.1,0-0.2,0-0.3-0.1
				c-0.1,0-0.2-0.1-0.3-0.2v-4.1c0.1-0.1,0.2-0.2,0.3-0.2s0.2-0.1,0.3-0.1c0.2,0,0.3,0.1,0.4,0.2c0.1,0.1,0.1,0.3,0.1,0.5V34.4
				L29.4,34.4z M29.5,29.3c-0.2,0-0.4,0.1-0.6,0.2c-0.2,0.1-0.4,0.3-0.6,0.5v-2.8H27V36h1.3v-0.5c0.2,0.2,0.4,0.3,0.6,0.4
				c0.2,0.1,0.4,0.1,0.7,0.1c0.4,0,0.7-0.1,0.9-0.4c0.2-0.2,0.3-0.6,0.3-1.1v-3.6c0-0.5-0.1-0.9-0.3-1.2
				C30.2,29.5,29.9,29.3,29.5,29.3L29.5,29.3z"/>
			<path id="Fill-27" sketch:type="MSShapeGroup" d="M17.3,28.4h1.5v7.5h1.5v-7.5h1.5v-1.3h-4.5V28.4"/>
			<path id="Fill-28" sketch:type="MSShapeGroup" d="M24.8,34.3c-0.1,0.1-0.3,0.3-0.4,0.4c-0.1,0.1-0.3,0.1-0.4,0.1
				c-0.1,0-0.2,0-0.3-0.1s-0.1-0.2-0.1-0.3v-5h-1.3v5.4c0,0.4,0.1,0.7,0.2,0.9c0.2,0.2,0.4,0.3,0.7,0.3c0.2,0,0.5-0.1,0.8-0.2
				s0.5-0.3,0.7-0.6v0.7H26v-6.5h-1.3L24.8,34.3"/>
			<path id="Fill-29" sketch:type="MSShapeGroup" d="M39.3,33.9c0,2.6-2.1,4.7-4.7,4.7H18.3c-2.6,0-4.7-2.1-4.7-4.7v-3.8
				c0-2.6,2.1-4.7,4.7-4.7h16.3c2.6,0,4.7,2.1,4.7,4.7V33.9L39.3,33.9z M20.2,13.4l1.1,3.9h0.1l1-3.9h1.7l-1.9,5.7v4h-1.6v-3.9
				l-2-5.9L20.2,13.4L20.2,13.4z M24.2,17.6c0-0.6,0.2-1,0.6-1.3c0.4-0.3,0.9-0.5,1.6-0.5c0.6,0,1.1,0.2,1.5,0.5s0.6,0.8,0.6,1.3
				v3.7c0,0.6-0.2,1.1-0.6,1.4c-0.4,0.3-0.9,0.5-1.6,0.5c-0.6,0-1.1-0.2-1.5-0.5c-0.4-0.4-0.6-0.8-0.6-1.5V17.6L24.2,17.6z M29.6,16
				h1.5v5.5c0,0.2,0,0.3,0.1,0.4s0.2,0.1,0.3,0.1s0.2,0,0.4-0.2c0.2-0.1,0.3-0.2,0.4-0.4V16h1.5v7.2h-1.5v-0.8
				c-0.3,0.3-0.5,0.5-0.8,0.7s-0.6,0.2-0.8,0.2c-0.3,0-0.6-0.1-0.8-0.3c-0.2-0.2-0.3-0.5-0.3-1L29.6,16L29.6,16z M26.5,0.3
				C12.3,0.3,0.9,11.8,0.9,26s11.5,25.7,25.6,25.7c14.2,0,25.6-11.5,25.6-25.7C52.1,11.8,40.7,0.3,26.5,0.3L26.5,0.3z"/>
			<path id="Fill-30" sketch:type="MSShapeGroup" d="M33.9,31.8h-1.1v-0.7c0-0.3,0-0.5,0.1-0.6s0.2-0.2,0.4-0.2s0.3,0.1,0.4,0.2
				c0.1,0.1,0.1,0.3,0.1,0.6v0.7H33.9z M33.4,29.2c-0.6,0-1.1,0.2-1.4,0.5c-0.4,0.4-0.6,0.8-0.6,1.4V34c0,0.6,0.2,1.1,0.5,1.5
				s0.8,0.5,1.4,0.5c0.6,0,1.1-0.2,1.5-0.5c0.3-0.3,0.5-0.8,0.5-1.5v-0.3H34V34c0,0.4,0,0.6-0.1,0.7s-0.2,0.2-0.5,0.2
				c-0.2,0-0.4-0.1-0.4-0.2c-0.1-0.1-0.1-0.4-0.1-0.7v-1.2h2.5v-1.7c0-0.6-0.2-1.1-0.5-1.4C34.5,29.4,34,29.2,33.4,29.2L33.4,29.2z"
				/>
		</g>
	</g>
</g>
</svg>
