<svg xmlns="http://www.w3.org/2000/svg" viewBox="0 0 30 39.4"><path d="M26.4 23.2c1.7-2.3 2.7-5.1 2.7-8.2C29.1 7.2 22.8.9 15 .9S.9 7.2.9 15c0 3.1 1 5.9 2.7 8.2 10 13.9 10 13.9 10.7 14.8.2.2.4.4.7.4s.6-.2.7-.4c.7-.9.7-.9 10.7-14.8zM15 22.5c-4.1 0-7.5-3.4-7.5-7.5s3.4-7.5 7.5-7.5 7.5 3.4 7.5 7.5-3.4 7.5-7.5 7.5z" fill="#0099e5"/><path d="M15 .9C22.8.9 29.1 7.2 29.1 15c0 3.1-1 5.9-2.7 8.2-10 13.9-10 13.9-10.7 14.8-.2.2-.4.4-.7.4s-.6-.2-.7-.4c-.7-.9-.7-.9-10.7-14.8C1.9 20.9.9 18.1.9 15 .9 7.2 7.2.9 15 .9m0-.9C6.7 0 0 6.7 0 15c0 2.6.6 5 1.9 7.3h-.1l1.1 1.5 10.7 14.8.3.4h.1c.3.3.7.4 1.1.4s.8-.1 1.1-.4h.1l.3-.4 10.7-14.8 1.1-1.5h-.1C29.4 20 30 17.6 30 15c0-8.3-6.7-15-15-15z" fill="#fff"/></svg>