<svg xmlns="http://www.w3.org/2000/svg" viewBox="0 0 31.3 40"><path d="M15.6 40c-.4 0-.8-.2-1.1-.4-.8-.9-1.6-1.7-2.3-2.6-1.7-2-3.3-4-4.9-6.1-1.3-1.7-2.5-3.5-3.6-5.3-2.5-4.1-3.7-7.4-3.7-10C0 7 7 0 15.6 0s15.6 7 15.6 15.6c0 2.6-1.2 5.8-3.7 9.9-1.1 1.8-2.3 3.6-3.6 5.3-2.2 3-4.6 5.9-7.1 8.6-.3.4-.7.6-1.2.6.1 0 .1 0 0 0zm0-38.5C7.9 1.5 1.5 7.9 1.5 15.6c0 2.3 1.2 5.3 3.5 9.1 1.1 1.8 2.3 3.5 3.5 5.2 1.5 2.1 3.2 4.1 4.8 6 .7.8 1.5 1.7 2.2 2.5 2.6-2.7 4.9-5.5 7.1-8.5 1.3-1.7 2.4-3.4 3.5-5.2 2.3-3.8 3.5-6.9 3.5-9.1v-.2c0-7.6-6.2-13.9-14-13.9z" fill="#fff"/><path d="M15.6 1.5C7.9 1.5 1.5 7.9 1.5 15.6c0 2.3 1.2 5.3 3.5 9.1 1.1 1.8 2.3 3.5 3.5 5.2 1.5 2.1 3.2 4.1 4.8 6 .7.8 1.5 1.7 2.2 2.5 2.6-2.7 4.9-5.5 7.1-8.5 1.3-1.7 2.4-3.4 3.5-5.2 2.3-3.8 3.5-6.9 3.5-9.1v-.2c0-7.6-6.2-13.9-14-13.9zm0 20.7c-3.7 0-6.6-3-6.6-6.6C9 11.9 12 9 15.6 9c3.7 0 6.6 3 6.6 6.6 0 3.7-2.9 6.6-6.6 6.6z"/></svg>