<svg xmlns="http://www.w3.org/2000/svg" viewBox="0 0 24.6 32"><path fill="#fff" d="M12.3 0C5.5 0 0 5.5 0 12.3c0 2 .9 4.5 2.9 7.7.8 1.4 1.8 2.7 2.6 3.9 1.1 1.5 2.3 2.9 3.4 4.3l.2.2c.3.3.6.6.8 1 .3.3.5.6.8.9l1.4 1.6 1.5-1.6c1.9-1.9 3.6-4 5.4-6.4 1.1-1.4 1.9-2.8 2.7-3.9 1.9-3.2 2.9-5.7 2.9-7.7v-.1C24.6 5.5 19.1 0 12.3 0zm10.3 12.3c0 1.6-.9 3.9-2.6 6.7-.8 1.3-1.6 2.6-2.6 3.8-1.6 2.2-3.2 4.2-5.1 6.2-.5-.6-1.1-1.2-1.6-1.8-1.2-1.4-2.4-2.9-3.5-4.4-.9-1.2-1.8-2.5-2.6-3.8C2.9 16.2 2 14 2 12.3 2 6.7 6.7 2 12.3 2 18 2 22.6 6.6 22.6 12.2v.1z"/><path d="M12.3 2C6.7 2 2 6.7 2 12.3c0 1.7.9 3.9 2.6 6.7.8 1.3 1.7 2.6 2.6 3.8 1.1 1.5 2.3 3 3.5 4.4.5.6 1.1 1.2 1.6 1.8 1.9-2 3.6-4 5.2-6.2 1-1.2 1.8-2.5 2.6-3.8 1.7-2.8 2.6-5.1 2.6-6.7v-.1C22.6 6.6 18 2 12.3 2z"/><path d="M12.3 17.1c-2.7 0-4.8-2.2-4.8-4.8 0-2.7 2.2-4.8 4.8-4.8 2.7 0 4.8 2.2 4.8 4.8.1 2.7-2.1 4.8-4.8 4.8z"/><path d="M12.3 8.5c-2.1 0-3.8 1.7-3.8 3.8s1.7 3.8 3.8 3.8c2.1 0 3.8-1.7 3.8-3.8.1-2.1-1.7-3.8-3.8-3.8z"/><path d="M12.3 7.5c-2.6 0-4.8 2.1-4.8 4.8 0 2.6 2.1 4.8 4.8 4.8s4.8-2.1 4.8-4.8c.1-2.6-2.1-4.8-4.8-4.8zm0 8.6c-2.1 0-3.8-1.7-3.8-3.8s1.7-3.8 3.8-3.8 3.8 1.7 3.8 3.8c.1 2.2-1.6 3.8-3.8 3.8z"/><circle fill="#fff" cx="12.3" cy="12.5" r="5.3"/></svg>