<svg xmlns="http://www.w3.org/2000/svg" width="500" height="500"><path fill="#ffcb05" d="M-4-3h506v505H-4z"/><path d="M250 97.938c-52.3 0-102.8 40.6-102.8 98.2 0 36.3 14.1 59.3 27.2 77.8s24.2 32 24.2 53.2v47.4c0 13.4 11.1 23.7 23.7 23.7h4c0 13 10.7 23.7 23.7 23.7s23.7-10.7 23.7-23.7h4c12.6 0 23.7-10.3 23.7-23.7v-47.4c0-21.2 11.2-34.8 24.2-53.2s27.2-41.5 27.2-77.8c0-57.5-50.5-98.2-102.8-98.2zm0 15.8c44.1 0 86.9 34.1 86.9 82.4 0 32.3-11.6 50.8-24.2 68.7-11.4 16.1-24.2 32-26.7 54.5h-72.1c-2.5-22.5-15.3-38.4-26.7-54.5-12.6-17.9-24.2-36.3-24.2-68.7.1-48.2 42.9-82.4 87-82.4zm-23.2 16.2c-1.1 0-2.2.2-3.3.5-24.4 9.2-42.6 30.6-47.3 56.9-.7 4.1 2.3 8.4 6.4 9.1 4.1.7 8.4-2.2 9.1-6.3 3.7-20.8 18.2-37.8 37.4-45.1 3.4-1.3 5.7-5.2 5.1-8.8-1.3-4.6-4.2-6.3-7.4-6.3zm-12.4 205.2h71.1v15.8h-71.1v-15.8zm0 31.6h71.1v7.9c0 4.7-3.8 7.9-7.9 7.9h-55.3c-4.1 0-7.9-3.2-7.9-7.9v-7.9zm27.7 31.6h15.8c0 4.5-3.4 7.9-7.9 7.9s-7.9-3.4-7.9-7.9z" fill="#fff"/></svg>