<svg id="Layer_1" xmlns="http://www.w3.org/2000/svg" xmlns:xlink="http://www.w3.org/1999/xlink" width="800" height="350"><style>.st0{fill:none}.st1{fill:#29abe2}.st2{opacity:.4}.st3{opacity:.12}.st5{fill:#fff}.st6{fill:#7c4119}.st7{fill:#e6e6e6}.st8{fill:#ccc}.st18{fill:#721514}.st20{fill:#ce985e}.st23{fill:#ffa370}.st25{fill:#403228}.st30{fill:#7d1920}.st34{fill:#856848}.st40{fill:#fab383}.st41{fill:#1a1a1a}.st44{fill:none;stroke:#000;stroke-width:3;stroke-linecap:round;stroke-miterlimit:10}.st52{fill:#ec2c28}</style><pattern width="242" height="242" patternUnits="userSpaceOnUse" id="New_Pattern" viewBox="0 -242 242 242" overflow="visible"><path class="st0" d="M0-242h242V0H0z"/><path class="st1" d="M0-242h242V0H0z"/><path class="st2" d="M0-242h11V0H0zM22-242h11V0H22zM44-242h11V0H44zM66-242h11V0H66zM88-242h11V0H88zM110-242h11V0h-11zM132-242h11V0h-11zM154-242h11V0h-11zM176-242h11V0h-11zM198-242h11V0h-11zM220-242h11V0h-11z"/><path class="st2" d="M0-242h242v11H0zM0-220h242v11H0zM0-198h242v11H0zM0-176h242v11H0zM0-154h242v11H0zM0-132h242v11H0zM0-110h242v11H0zM0-88h242v11H0zM0-66h242v11H0zM0-44h242v11H0zM0-22h242v11H0z"/></pattern><pattern width="242" height="242" patternUnits="userSpaceOnUse" id="New_Pattern_2" viewBox="241.7 -242 242 242" overflow="visible"><path class="st0" d="M241.7-242h242V0h-242z"/><path class="st1" d="M241.7-242h242V0h-242z"/><path class="st2" d="M472.7-242h11V0h-11zM450.7-242h11V0h-11zM428.7-242h11V0h-11zM406.7-242h11V0h-11zM384.7-242h11V0h-11zM362.7-242h11V0h-11zM340.7-242h11V0h-11zM318.7-242h11V0h-11zM296.7-242h11V0h-11zM274.7-242h11V0h-11zM252.7-242h11V0h-11z"/><path class="st2" d="M241.7-11h242V0h-242zM241.7-33h242v11h-242zM241.7-55h242v11h-242zM241.7-77h242v11h-242zM241.7-99h242v11h-242zM241.7-121h242v11h-242zM241.7-143h242v11h-242zM241.7-165h242v11h-242zM241.7-187h242v11h-242zM241.7-209h242v11h-242zM241.7-231h242v11h-242z"/><path class="st3" d="M242-242h242V0H242z"/><g><path class="st3" d="M0-242h242V0H0z"/></g></pattern><radialGradient id="SVGID_1_" cx="400.5" cy="404.5" r="446.112" gradientUnits="userSpaceOnUse"><stop offset="0" stop-color="#cceaf9"/><stop offset="1" stop-color="#007ab7"/></radialGradient><path fill="url(#SVGID_1_)" stroke="#29abe2" stroke-miterlimit="10" d="M-4.5-3.5h810v355h-810z"/><path class="st5" d="M72.5 386s-32.9 12.3-35.2-22.3c0 0-12.3 40.6 40.6 36.1L72.5 386z"/><path class="st6" d="M37.9 382c-1.1-1.3-1.2-3.3-1.1-5 .1-2.1.9-4.2 1.9-6 3 11.9 10.8 15.9 18.1 16.7-.6 1.2-1.2 2.8-2.3 3.4-1.4.9-3.1 1.1-4.7 1.2-1.6.1-3.3.1-4.5-1.3-1.4-1.6-1.1-4-2.3-5.6-1.3-1.7-3.8-1.7-5.1-3.4z"/><path class="st5" d="M79.6 374c4.1-7.2-5.2-20.8-3.1-29.6 1-4.4 5.6-5.9 8.2-10.3 6.6-11.4 11-15.7 1.5-40.1-7.1-18.3-18.1-13.5-23.1-10 .8-25.6 1.4-48.2 1.4-48.2L131 272s9.5 56.7 10.7 82c.6 13.3 5.6 53.7-37 55.3-25.2 1-36.4-11.9-41.4-24.8 6.6-.6 13.5-4.7 16.3-10.5z"/><path class="st6" d="M61.2 334.9c.6-13.8 1-32.8 1.6-50.6 4.8-3.5 16.1-8.9 23.4 9.8 9.5 24.4 5 28.7-1.5 40.1-2.5 4.4-7.1 5.9-8.2 10.3-2.1 8.7 7.3 22.4 3.1 29.6-2.8 5.9-9.9 10-16.7 10.7-4.2-10.6-3.9-21.3-3.9-24.6.1-7.5 1.8-15.4 2.2-25.3z"/><path class="st7" d="M132.4 280.7l-23.9-12.3s6 9.2 13.1 15.5c5.5 5 12.4 7.4 12.4 7.4l-1.6-10.6z"/><path class="st5" d="M70.5 220.3c34.6-40.4 59.6-24.2 81.6 6.6 16.3 22.9 21.5 51.8 10.3 59.5-11.2 7.7-52.2-14.4-52.2-14.4S43 252.4 70.5 220.3z"/><ellipse cx="117.1" cy="239.4" rx="6.9" ry="7.3"/><ellipse class="st8" cx="113" cy="237.5" rx="1.4" ry="1.5"/><ellipse cx="147.3" cy="235.7" rx="5.6" ry="6.7"/><ellipse class="st8" cx="144.4" cy="233.8" rx="1.4" ry="1.4"/><path d="M162.6 270.7s-7.7-4.6-13.5 4.6c0 0 3.1 5.2 10.9 6 .1 0 2.9-1.7 2.6-10.6zM108.3 227.8c.5 0 .9-.3 1.1-.8 3.4-10.6 10.3-9 10.4-9 .6.2 1.2-.2 1.4-.8.2-.6-.2-1.2-.8-1.4-.1 0-9.1-2.1-13.1 10.5-.2.6.1 1.2.7 1.4 0 .1.1.1.3.1zM147.1 219.8c.2 0 .5-.1.7-.2.5-.4.6-1.1.2-1.6-4.1-5.4-8.2-6.6-10.8-6.7-3-.1-5 1.2-5 1.3-.5.4-.7 1.1-.3 1.6.4.5 1.1.7 1.6.3.3-.2 6.1-3.8 12.8 4.9.1.2.4.4.8.4z"/><path class="st7" d="M65 239.6c3.1-7.6 10.5-13 22.6-10.5 0 0-17.1 8.1-17.5 29.9-.1 5-3.3 7.7-6.3 7.4 0 0-.1-.3-.1-.9.1-5.1.9-24.1 1.3-25.9z"/><path class="st5" d="M50.3 233.6c10-21.3 40-11.2 40-11.2l-2.3 6.9c-21.6.2-23.1 12.4-24 26.3-.3 4.5-2 7.6-4.3 9.3 3.9-20.9-4.2-28.6-9.4-31.3z"/><path class="st6" d="M50.2 233.5c5.2 2.7 13.5 10.4 9.4 31.6-4.8 3.6-11.9.6-12.6-10.1-.5-9.3.8-16.3 3.2-21.5z"/><path d="M161.3 271.3s-6.2-2.1-10.6 3.4c0 0 .7 1.3 2.1 2 0 0 1.6-5.4 8.5-5.4z" fill="#666"/><g><path class="st5" d="M143.8 322.9c13.2 0 24.8-3.5 34.7-10.6 22.3-15.9 27.1-43.9 27.3-45 .5-3.3-1.7-6.5-5.1-7-3.3-.5-6.5 1.7-7 5.1-.1.4-4.3 24.3-22.3 37.1-10.5 7.5-24 9.9-39.9 7.1-3.3-.6-6.5 1.7-7.1 5-.6 3.3 1.7 6.5 5 7.1 4.9.8 9.7 1.2 14.4 1.2z"/></g><g><path class="st5" d="M15.3 362.8c0 4.6.4 9.5 1.3 14.5.6 3.3 3.8 5.6 7.1 5 3.3-.6 5.6-3.8 5-7.1-2.8-15.9-.4-29.3 7.1-39.9C48.7 317.2 72.6 313 72.9 313c3.3-.6 5.6-3.7 5.1-7s-3.7-5.6-7-5.1c-1.2.2-29.1 4.9-45 27.3-7.2 9.8-10.7 21.4-10.7 34.6z"/></g><g opacity=".14"><path class="st5" d="M169.2 358.2c-2.3 0-4.6-.9-6.4-2.6-3.5-3.5-3.6-9.3 0-12.8l97.8-98.2c3.5-3.5 9.3-3.5 12.8 0s3.6 9.3 0 12.8l-97.8 98.2c-1.8 1.7-4.1 2.6-6.4 2.6zM414 113.3c-2.3 0-4.6-.9-6.4-2.6-3.5-3.5-3.6-9.3 0-12.8L505.4-.3c3.5-3.5 9.3-3.5 12.8 0s3.6 9.3 0 12.8l-97.8 98.2c-1.7 1.7-4.1 2.6-6.4 2.6zM98.1 186.8c-5 0-9-4-9-9s4-9.1 9-9.1l138.6-.3c5 0 9 4 9 9s-4 9.1-9 9.1l-138.6.3zM444.3 186.8c-5 0-9-4-9-9s4-9.1 9-9.1l138.6-.3c5 0 9 4 9 9s-4 9.1-9 9.1l-138.6.3c.1 0 .1 0 0 0zM267.2 113.1c-2.3 0-4.6-.9-6.4-2.6l-98.2-97.8c-3.5-3.5-3.6-9.3 0-12.8 3.5-3.5 9.3-3.5 12.8 0l98.2 97.8c3.5 3.5 3.6 9.3 0 12.8-1.8 1.8-4.1 2.6-6.4 2.6zM512 358c-2.3 0-4.6-.9-6.4-2.6l-98.2-97.8c-3.5-3.5-3.6-9.3 0-12.8 3.5-3.5 9.3-3.5 12.8 0l98.2 97.8c3.5 3.5 3.6 9.3 0 12.8-1.7 1.7-4 2.6-6.4 2.6zM340.6 82.8c-5 0-9-4-9-9l-.3-138.6c0-5 4-9.1 9-9.1s9 4 9 9l.3 138.6c.1 5.1-3.9 9.1-9 9.1.1 0 0 0 0 0zM340.6 429.1c-5 0-9-4-9-9l-.3-138.6c0-5 4-9.1 9-9.1s9 4 9 9l.3 138.6c.1 5.1-3.9 9.1-9 9.1.1 0 0 0 0 0z"/></g><g><radialGradient id="SVGID_2_" cx="646.675" cy="196.898" r="114.485" gradientTransform="matrix(.9976 .0686 -.0686 .9976 19.418 -41.61)" gradientUnits="userSpaceOnUse"><stop offset="0" stop-color="#574537"/><stop offset=".684" stop-color="#554335"/><stop offset="1" stop-color="#32241d"/></radialGradient><path d="M757.5 320c-3.7-2.4 16.3-25 16.6-48.6.6-43.7-18.6-72.3-54.8-77.4-18.9-2.6-49 11.1-53.9 15.1-4.4 3.6-14 26.4-17.3 49.8l3.7-1.9s-5.9 23.4 1.3 39.7c8.9 16.7 27.3 31 55.5 37 41.9 8.9 62.8-13.2 62.8-13.2s-10.2 1.9-13.9-.5z" fill="url(#SVGID_2_)"/><linearGradient id="SVGID_3_" gradientUnits="userSpaceOnUse" x1="254.931" y1="82.165" x2="254.931" y2="34.422" gradientTransform="scale(-1) rotate(-21.943 -1085.935 2216.61)"><stop offset="0" stop-color="#fcc58a"/><stop offset=".385" stop-color="#fac287"/><stop offset=".645" stop-color="#f6b97f"/><stop offset=".867" stop-color="#edaa71"/><stop offset="1" stop-color="#e69d65"/></linearGradient><path d="M682.4 310.6c-4.2-1.4-20.5-5.8-26.6-10.2-3.9-2.8-17-15.7-17.1-20.4-.1-3.2 1.6-8.6.1-12.5-1.5-3.9-6-8.8-6-8.8s-2.4 1-2.1 2.4c.3 1.4 3.1 6.2 1.9 5.9-1.2-.3-7.2-7.3-9.5-12.4 0 0-3.7 1.8-3.6 4.7 0 0-2.4 1.3-2.1 3.9 0 0-1.7 3-.9 5.3 0 0 3.4 8 6.1 10.5 4.1 3.8 4.5 4.3 8.5 8.2 6.3 6.2 15 15.4 24.3 21 6.2 3.7 26 8.7 28.4 8 2.5-.7.6-5-1.4-5.6z" fill="url(#SVGID_3_)"/><linearGradient id="SVGID_4_" gradientUnits="userSpaceOnUse" x1="450.815" y1="180.027" x2="450.815" y2="132.284" gradientTransform="scale(1 -1) rotate(-29.808 -233.721 -657.791)"><stop offset="0" stop-color="#fcc58a"/><stop offset=".385" stop-color="#fac287"/><stop offset=".645" stop-color="#f6b97f"/><stop offset=".867" stop-color="#edaa71"/><stop offset="1" stop-color="#e69d65"/></linearGradient><path d="M728.2 311.2c4.4-.8 21.1-2.9 27.7-6.4 4.3-2.3 19-13.3 19.8-17.8.5-3.1-.5-8.7 1.6-12.4 2-3.6 7.1-7.9 7.1-7.9s2.2 1.3 1.8 2.7c-.5 1.4-3.9 5.7-2.7 5.6 1.2-.1 8.1-6.2 11.1-10.9 0 0 3.4 2.3 3 5.1 0 0 2.2 1.6 1.6 4.1 0 0 1.2 3.2.2 5.4 0 0-4.5 7.4-7.5 9.5-4.6 3.2-5 3.6-9.6 7-7.1 5.3-17 13.2-27 17.4-6.7 2.8-26.9 5-29.3 4-2.3-1.1.2-5 2.2-5.4z" fill="url(#SVGID_4_)"/><radialGradient id="SVGID_5_" cx="592.917" cy="316.856" r="162.93" gradientTransform="matrix(.9976 .0686 -.0686 .9976 19.418 -41.61)" gradientUnits="userSpaceOnUse"><stop offset=".65" stop-color="#db1e27"/><stop offset="1" stop-color="#4e0f10"/></radialGradient><path d="M701.1 332.8c12 .8 21.5-.3 30.7 27.6 5.6 17.1-2.1 23.4-2.1 23.4l-61.7-4.2s-2.2-3.2-.1-14.7c3.5-19 14.4-33.4 33.2-32.1z" fill="url(#SVGID_5_)"/><path d="M720 338.5c-6.4-5.9-13-5.2-20.2-5.7-7.7-.5-12 1-17.5 5.2 3 2 7.5 4.8 17.6 5.5 8.9.7 15.3-2.3 20.1-5z" fill="#661412"/><radialGradient id="SVGID_6_" cx="684.726" cy="270.176" r="80.443" gradientTransform="matrix(.9975 .0686 -.0686 .9976 19.357 -41.615)" gradientUnits="userSpaceOnUse"><stop offset=".65" stop-color="#db1e27"/><stop offset="1" stop-color="#4e0f10"/></radialGradient><path d="M669.7 302.4s56.1 1.3 68.5 2.6c0 0-5.9 23.2-22.3 31.5-12 6-26.3 2.3-34.1-4.1-9.7-7.9-12.1-30-12.1-30z" fill="url(#SVGID_6_)"/><linearGradient id="SVGID_7_" gradientUnits="userSpaceOnUse" x1="705.99" y1="319.341" x2="705.99" y2="300.073" gradientTransform="matrix(.9976 .0686 -.0686 .9976 19.418 -41.61)"><stop offset="0" stop-color="#fcc58a"/><stop offset=".285" stop-color="#f9c287"/><stop offset=".476" stop-color="#f0ba7f"/><stop offset=".577" stop-color="#e8b277"/><stop offset=".908" stop-color="#ce985e"/></linearGradient><path d="M692.3 298.4c.3 1.2 3.5 20.1 8 21.3 2.1.6 11.4-15.7 14.8-21.4l-22.8.1z" fill="url(#SVGID_7_)"/><path class="st18" d="M694.5 308.1l-6.6 4.6-1.4-9.4 5.8-4.9zM709 309.4l6.3 4.2 6-16.8-7.5.9z"/><radialGradient id="SVGID_8_" cx="819.141" cy="233.331" r="66.09" gradientTransform="matrix(.9603 .03055 -.02777 .9621 -94.022 -21.39)" gradientUnits="userSpaceOnUse"><stop offset="0" stop-color="#fcc58a"/><stop offset=".575" stop-color="#fcc289"/><stop offset=".962" stop-color="#fbb986"/><stop offset="1" stop-color="#fbb885"/></radialGradient><path d="M712.7 202.4c13.6 1.6 24.1 11.1 30.9 29.4 4.2 11.3 10.6 44.9-2.9 58.8-8.6 8.8-20.7 14.3-35.5 13.2-12-.8-32.6-6.1-39.6-19.2-6.3-11.8-2.2-30.9 3.3-48.3 10-31.9 32.5-35.2 43.8-33.9z" fill="url(#SVGID_8_)"/><path class="st20" d="M716.5 218.3c-20.6-8.1-27.6-13.4-34.9-1.5-.8 1.3-3.9 1.2-4.6 2.6 1 7.1 14.1 13.3 19.5 16.1 0 0 .8-8.6 1.8-7.3 19.8 24.5 28.8 31.5 48.6 34.4 1.3-7.8-9.9-36.2-30.4-44.3z"/><radialGradient id="SVGID_9_" cx="656.601" cy="202.095" r="102.956" gradientTransform="matrix(.9976 .0686 -.0686 .9976 19.418 -41.61)" gradientUnits="userSpaceOnUse"><stop offset="0" stop-color="#574537"/><stop offset=".684" stop-color="#554335"/><stop offset="1" stop-color="#32241d"/></radialGradient><path d="M753.8 294.1s-22-22.1-11.1-51.2c0 0 17.7 2.9 18.8 3.2-4.5 23.1-6.8 32.8-7.7 48z" fill="url(#SVGID_9_)"/><path d="M690.2 282.9s4.4 3.4 11.4 4.4c9.8 1.4 17-3.2 17-3.2" fill="none" stroke="#bd4747" stroke-width="2.829" stroke-linecap="round" stroke-miterlimit="10"/><path class="st23" d="M673.4 274.5c-.2 2.8 1.9 5.2 4.7 5.4 2.8.2 5.2-1.9 5.4-4.7.2-2.8-1.9-5.2-4.7-5.4-2.7-.3-5.2 1.9-5.4 4.7zM726.7 278.1c-.2 2.8 1.9 5.2 4.7 5.4 2.8.2 5.2-1.9 5.4-4.7.2-2.8-1.9-5.2-4.7-5.4-2.8-.2-5.2 1.9-5.4 4.7z"/><path class="st20" d="M735.4 263.6c-.3 4.1-3.8 7.1-7.8 6.8-4.1-.3-7.1-3.8-6.8-7.9.3-4.1 3.8-7.1 7.9-6.8 3.9.3 7 3.8 6.7 7.9z"/><radialGradient id="SVGID_10_" cx="1793.764" cy="254.841" r="6.51" gradientTransform="matrix(.9976 .0686 -.0686 .9976 -1043.977 -114.74)" gradientUnits="userSpaceOnUse"><stop offset="0" stop-color="#333"/><stop offset=".456" stop-color="#313131"/><stop offset=".7" stop-color="#292929"/><stop offset=".894" stop-color="#1b1b1b"/><stop offset="1" stop-color="#101010"/></radialGradient><path d="M734.6 263c-.2 3.6-3.4 6.3-6.9 6-3.6-.2-6.3-3.4-6-6.9.2-3.6 3.4-6.3 6.9-6 3.5.2 6.2 3.3 6 6.9z" fill="url(#SVGID_10_)"/><path class="st5" d="M723.6 259.1c-.9 1.3-.6 3 .5 3.7 1.1.7 2.8.3 3.6-1 .9-1.3.6-3-.5-3.7-1.1-.8-2.7-.3-3.6 1z"/><g><path class="st25" d="M736.6 264.4s2.7 1.4 3.9.5c1.2-.9 0-2.3 0-2.3s-2.9.9-4 .6l.1 1.2zM735.2 258.6s3.3.1 4.2-1.2c.9-1.3-.9-2.1-.9-2.1s-2.7 2-3.8 2.2l.5 1.1zM732.7 253.8s3-1.7 3.1-3.4c.1-1.6-1.9-1.3-1.9-1.3s-1.3 3.2-2.2 4l1 .7z"/></g><g><path class="st25" d="M673.7 258.9s-2.9 1-4-.1.3-2.2.3-2.2 2.8 1.3 3.9 1.2l-.2 1.1zM676 253.4s-3.3-.4-4-1.8c-.7-1.4 1.2-1.9 1.2-1.9s2.3 2.4 3.5 2.8l-.7.9zM679.1 248.9s-2.7-2.2-2.5-3.8c.2-1.6 2.1-1 2.1-1s.8 3.4 1.6 4.3l-1.2.5z"/><g><path class="st20" d="M673.7 259.4c-.3 4.1 2.8 7.6 6.8 7.9 4.1.3 7.6-2.8 7.9-6.8.3-4.1-2.8-7.6-6.8-7.8-4.1-.5-7.6 2.6-7.9 6.7z"/><radialGradient id="SVGID_11_" cx="-1014.055" cy="254.841" r="6.51" gradientTransform="matrix(-.9976 -.0686 -.0686 .9976 -313.095 -64.477)" gradientUnits="userSpaceOnUse"><stop offset="0" stop-color="#333"/><stop offset=".456" stop-color="#313131"/><stop offset=".7" stop-color="#292929"/><stop offset=".894" stop-color="#1b1b1b"/><stop offset="1" stop-color="#101010"/></radialGradient><path d="M674.6 258.9c-.2 3.6 2.5 6.7 6 6.9 3.6.2 6.7-2.5 6.9-6 .2-3.6-2.5-6.7-6-6.9-3.6-.3-6.7 2.4-6.9 6z" fill="url(#SVGID_11_)"/><path class="st5" d="M676.6 255.9c-.9 1.3-.6 3 .5 3.7 1.1.7 2.8.3 3.6-1 .9-1.3.6-3-.5-3.7-1.1-.8-2.7-.3-3.6 1z"/></g></g><radialGradient id="SVGID_12_" cx="614.758" cy="225.207" r="134.852" gradientTransform="matrix(.9976 .0686 -.0686 .9976 19.418 -41.61)" gradientUnits="userSpaceOnUse"><stop offset="0" stop-color="#574537"/><stop offset=".684" stop-color="#554335"/><stop offset="1" stop-color="#32241d"/></radialGradient><path d="M673.7 216.4c1.2 3.6 15.8 15.7 21.6 16.4 1.5.2-4.1-13.6-2.9-12.4 9.4 9.4 26.5 27.3 40.6 34.9 21.9 11.8 27 19.5 34.9 18.1 0 0 5.3-48.7-27.2-64.3-15.4-7.4-48.2-18.2-67 7.3z" fill="url(#SVGID_12_)"/><g><path d="M668.2 216.2c-.9 1.6-2 3.1-2.2 3.4-5.5 8.5-9.6 18.9-12.7 28.5-.4-4.8 2.1-10 3.7-14.4 2.1-5.6 4.2-11.4 7.1-16.7.5-.9 2.7-5.6 4.1-5.4 2 .2 1.2 2.5 0 4.6z" fill="#7d634f"/></g><path d="M689.3 207.8c7.1 5.4 20.9 31.4 45.7 39.3 0 0-13.4-5.5-27.1-22.6-13.5-17.2-13.8-19.1-18.6-16.7z" opacity=".4" fill="#7d634f"/><path class="st30" d="M743.1 291.4l-3.3-6.1 4.1-7.1 7.4-.9 3.2 6.1-4.1 7.1zM665.4 286.1l4-5.6-3.1-7.6-7.1-2-4.1 5.7 3.1 7.5z"/></g><g><pattern id="SVGID_13_" xlink:href="#New_Pattern_2" patternTransform="scale(-.674 .674) rotate(14.768 21969.393 68166.8)"/><path d="M486.4 290.4s-71.1 55.6-119.1-25" fill="none" stroke="url(#SVGID_13_)" stroke-width="13" stroke-miterlimit="10"/><radialGradient id="SVGID_14_" cx="358.249" cy="248.417" r="26.271" gradientUnits="userSpaceOnUse"><stop offset="0" stop-color="#fcc58a"/><stop offset=".575" stop-color="#fcc289"/><stop offset=".962" stop-color="#fbb986"/><stop offset="1" stop-color="#fbb885"/></radialGradient><path d="M361.7 268.5s16.5-3 17.7-14.2c.9-8.3 10.2-21.8 10.2-21.8s-.8-3.7-6.5-4.2c-4.2-.4-8 10.1-8 10.1s-7.1 3.8-16.4 3.5c-10.6-.3-24-4.4-31.7 1l7.5 17.7c0 .1 12.2 8.2 27.2 7.9z" fill="url(#SVGID_14_)"/><g><radialGradient id="SVGID_15_" cx="-63.759" cy="291.975" r="14.461" gradientTransform="scale(-1 1) rotate(14.774 7.55 -1319.892)" gradientUnits="userSpaceOnUse"><stop offset="0" stop-color="#fcc58a"/><stop offset=".575" stop-color="#fcc289"/><stop offset=".962" stop-color="#fbb986"/><stop offset="1" stop-color="#fbb885"/></radialGradient><path d="M483.3 211.9c-3.7-6.5-11.8-8.8-18.1-5.2-6.3 3.6-8.5 11.8-4.8 18.3 2.9 5.2 8.7 7.7 14.1 6.7 1.7 2.7 5.2 3.7 7.9 2.2 2.8-1.6 3.8-5.2 2.1-8.1-.2-.4-.5-.8-.8-1.1 2-3.9 2-8.7-.4-12.8z" fill="url(#SVGID_15_)"/><path class="st34" d="M472.5 213.7c-5.1-1.2-8.7 3.6-8.7 3.6s2.6-7.4 9-6c6.3 1.5 7.1 8.9 7.1 8.9s-1.8-5.2-7.4-6.5z"/><path class="st34" d="M474.6 221c3.3-3.9 4.7-2 4.7-2s-1.1-4.4-5.8 1.8c-2.6 3.5 1.1 5.8 1.1 5.8s-2.6-2.5 0-5.6z"/><linearGradient id="SVGID_16_" gradientUnits="userSpaceOnUse" x1="-89.028" y1="233.066" x2="-73.292" y2="291.163" gradientTransform="scale(-1 1) rotate(14.774 7.55 -1319.892)"><stop offset="0" stop-color="#574537"/><stop offset=".576" stop-color="#433329"/><stop offset="1" stop-color="#32241d"/></linearGradient><path d="M490.8 169.5S477.6 194.9 480 217c0 0-17-12.2.1-58.4l10.7 10.9z" fill="url(#SVGID_16_)"/><radialGradient id="SVGID_17_" cx="-132.744" cy="313.468" r="73.028" gradientTransform="scale(-1 1) rotate(14.774 7.55 -1319.892)" gradientUnits="userSpaceOnUse"><stop offset="0" stop-color="#fcc58a"/><stop offset=".575" stop-color="#fcc289"/><stop offset=".962" stop-color="#fbb986"/><stop offset="1" stop-color="#fbb885"/></radialGradient><path d="M590.9 286.9s2.7-2.1 4.7-8.5c6.6-20.6 12.5-100.6 12.5-100.6L580.3 148l-93.6 15.6s-8 29.7-7.9 55.7c.1 16.2-.1 34.7 1.7 46.9 1.3 8.9 4.6 14.1 4.6 14.1s37.7 21.3 105.8 6.6z" fill="url(#SVGID_17_)"/><linearGradient id="SVGID_18_" gradientUnits="userSpaceOnUse" x1="-211.716" y1="267.447" x2="-196.041" y2="325.318" gradientTransform="scale(-1 1) rotate(14.774 7.55 -1319.892)"><stop offset="0" stop-color="#574537"/><stop offset=".576" stop-color="#433329"/><stop offset="1" stop-color="#32241d"/></linearGradient><path d="M613.9 160.5L597 182.2s-7.9 27.2 13.8 36.4c0 .1 24-36.2 3.1-58.1z" fill="url(#SVGID_18_)"/><linearGradient id="SVGID_19_" gradientUnits="userSpaceOnUse" x1="-130.457" y1="337.736" x2="-107.351" y2="423.042" gradientTransform="scale(-1 1) rotate(19.294 365.201 -981.083)"><stop offset="0" stop-color="#574537"/><stop offset=".576" stop-color="#433329"/><stop offset="1" stop-color="#32241d"/></linearGradient><path d="M614.1 161s-22.1-51-68.6-52.5c0 0 10.1 8.7 10.6 11.9 0 0-12.9-8.2-25.7-9.3-17.6-1.5-37.5 19.2-49.9-5 0 0-8.3 11.5-1.3 24.3 0 0-6.2-3.5-7.8-10.7 0 0-6.5 19.8 10.2 33.7 0 0-7.3-1.3-11.4-9.4 0 0 14.1 57.8 127.5 38.2l16.4-21.2z" fill="url(#SVGID_19_)"/><path d="M541.7 115.9c-24.2-8.2-27.5 5.9-46.8 4.2-8.4-.7-11.3-5.7-11.3-5.7 13.7 22.5 31.9-2.7 57.9 1.6l.2-.1z" fill="#836f67"/><path class="st40" d="M569.3 240.5c.8 3.4 4.3 5.4 7.7 4.6 3.4-.8 5.4-4.3 4.6-7.7-.8-3.4-4.3-5.4-7.7-4.6-3.4.8-5.4 4.3-4.6 7.7zM489 235.9c.8 3.4 4.3 5.4 7.7 4.6 3.4-.8 5.4-4.3 4.6-7.7-.8-3.4-4.3-5.4-7.7-4.6-3.4.8-5.4 4.3-4.6 7.7z"/><path class="st41" d="M473.9 195.1c-.1 2 0 3.9-.1 5.7-.1 1.6 1.3 1.5 2 3.5 2.2 6.2.7 16.4 6.5 22 1.6 1.6 4.6 3.6 7.6 4.1 14.4 2 26.9 3.5 33.1-11 1.3-3 3.1-5.4 4.5-9.9 1.8-3 1.9-2.4 5.9-2.4 4 .4 4.1-.2 5.6 2.9 1 4.6 2.5 7.2 3.5 10.3 4.9 15 17.4 14.7 31.9 14 3-.1 6.2-1.9 8-3.3 6.3-5.1 5.7-15.3 8.5-21.3.9-1.9 2.3-1.6 2.3-3.3.1-1.8.3-3.6.4-5.7.2-1.2-.5-1.8-1.2-1.9-7.9-1-10.5-3.1-26.4-3.7-12.3-.5-19.9 1.5-32.2.9h-.1c-12.3-.6-19.7-3.2-32-3.9-15.8-.8-18.7 1-26.6 1.3-.5 0-1.2.5-1.2 1.7zm69.6 6.3c4-3.6 14.7-4.2 21.4-3.9 6.5.3 15.3.8 19 4.2 3.3 3 2 8.5 1.7 14.6-.7 12.8-7 17.4-22.2 16.5-5.2-.3-9.6-1.7-12.8-4-4.6-3.2-6.8-8.8-8.1-14.3-1.1-5.2-2.4-10.1 1-13.1zm-59.9-4.4c4-3 12.8-2.7 19.3-2.4 6.7.3 17.3 1.9 21 5.9 3.1 3.3 1.3 8.1-.3 13.1-1.8 5.4-4.5 10.7-9.4 13.5-3.4 1.9-8 2.9-13.1 2.8-15.2-.5-21.1-5.7-20.5-18.5.3-6.1-.6-11.7 3-14.4z"/><path class="st41" d="M593.4 200l11.8 15-3.1 3.5-10.1-10.8z"/><radialGradient id="SVGID_20_" cx="-193.226" cy="331.139" r="14.138" gradientTransform="scale(-1 1) rotate(27.716 -191.377 -562.419)" gradientUnits="userSpaceOnUse"><stop offset="0" stop-color="#fcc58a"/><stop offset=".575" stop-color="#fcc289"/><stop offset=".962" stop-color="#fbb986"/><stop offset="1" stop-color="#fbb885"/></radialGradient><path d="M597.7 222.3c2.7-6.9 10.4-10.4 17.2-7.8 6.8 2.6 10.1 10.4 7.4 17.4-2.2 5.5-7.5 8.9-13 8.7-1.3 3-4.6 4.4-7.5 3.3-3-1.2-4.5-4.6-3.3-7.7l.6-1.2c-2.4-3.6-3.1-8.4-1.4-12.7z" fill="url(#SVGID_20_)"/><path class="st34" d="M608.7 222.4c4.8-1.9 9.1 2.3 9.1 2.3s-3.7-7-9.8-4.6c-6.1 2.4-5.7 9.8-5.7 9.8s1.1-5.4 6.4-7.5z"/><path class="st34" d="M607.6 230c-3.8-3.4-5-1.3-5-1.3s.4-4.5 6 1c3.1 3-.2 5.9-.2 5.9s2.3-3-.8-5.6z"/><pattern id="SVGID_21_" xlink:href="#New_Pattern" patternTransform="matrix(-1.115 .294 .294 1.115 -15768.303 2516.65)"/><path d="M483.8 277.3S471.6 323 487 384.1c0 0 15.6 18.2 104-3.4 0 0-1.5 2.8-3.3-20.4-1.9-24.5 3.5-73.6 3.5-73.6s-77 13.6-107.4-9.4z" fill="url(#SVGID_21_)"/><path class="st5" d="M519.5 289.2c6.4.7 13.8 1.2 13.8 1.2l-13.6 17.3s-6.3-9-10.7-20.2c0 0 4.7 1 10.5 1.7z"/><path class="st44" d="M551.7 211s11 11 24.5 1M489.7 209s11 11 24.5 1"/></g><path d="M520.7 248s11 11 24.5 1" fill="none" stroke="#856848" stroke-width="3" stroke-linecap="round" stroke-miterlimit="10"/><pattern id="SVGID_22_" xlink:href="#New_Pattern_2" patternTransform="scale(-.674 .674) rotate(14.768 21726.035 66917.779)"/><path d="M624.7 388.7s26.7-74-42-92.7" fill="none" stroke="url(#SVGID_22_)" stroke-width="13" stroke-miterlimit="10"/><g><path d="M366 255.5h-53.1c-6.1 0-11.1-5-11.1-11.1V110.9c0-6.1 5-11.1 11.1-11.1H366c6.1 0 11.1 5 11.1 11.1v133.5c0 6.1-5 11.1-11.1 11.1z"/><path class="st5" d="M306 118.4h66.8v118.5H306z"/><linearGradient id="SVGID_23_" gradientUnits="userSpaceOnUse" x1="339.457" y1="257.827" x2="339.457" y2="247.228"><stop offset="0" stop-color="#fff"/><stop offset="1"/></linearGradient><circle cx="339.5" cy="245.6" r="6.1" fill="url(#SVGID_23_)"/><linearGradient id="SVGID_24_" gradientUnits="userSpaceOnUse" x1="339.457" y1="219.037" x2="339.457" y2="249.196"><stop offset="0" stop-color="#fff"/><stop offset="1"/></linearGradient><circle cx="339.5" cy="245.6" r="5.4" fill="url(#SVGID_24_)"/><g><path d="M317 172c.1-.1.2-.1.3 0l5 2.9c.1.1.1.1 0 .2l-5.1 2.9c-.1.1-.2.1-.3 0l-5-2.9c-.1-.1-.1-.1 0-.2l5.1-2.9z" fill="#4b943d"/><path d="M322.7 175.6c.1-.1.2 0 .2.1v5.8c0 .1-.1.2-.2.3l-5.1 2.9c-.1.1-.2 0-.2-.1v-5.8c0-.1.1-.2.2-.3l5.1-2.9z" fill="#05a8de"/><path d="M311.6 175.6c-.1-.1-.2 0-.2.1v5.8c0 .1.1.2.2.3l5.1 2.9c.1.1.2 0 .2-.1v-5.8c0-.1-.1-.2-.2-.3l-5.1-2.9z" fill="#ffcb0b"/><g id="XMLID_15_"><path id="XMLID_18_" class="st5" d="M321.8 178.7c-.2.1-.4.3-.4.6v.5l-2.6 1.5v-.5c0-.2-.1-.3-.3-.2-.2.1-.3.3-.3.6v.9c0 .2.1.3.3.2l.1-.1v.3c0 .1.1.1.2.1s.2-.1.2-.2v-.4l2.4-1.4v.3c0 .1 0 .1.1.1s.1-.1.1-.2v-.3l.2-.1c.2-.1.4-.3.4-.6v-.9c-.1-.2-.3-.3-.4-.2z"/><path id="XMLID_17_" class="st5" d="M319 180.7v.3l1.1-.6v-1.2c0-.1-.1-.2-.2-.1l-.7.4c-.2.1-.4.5-.5.9.2-.1.3.1.3.3z"/><path id="XMLID_16_" class="st5" d="M321.2 179.4c0-.3.1-.6.3-.7 0-.3-.2-.4-.4-.3l-.7.4c-.1 0-.1.2-.1.3v1.2l.9-.6v-.3z"/></g><path id="XMLID_14_" class="st5" d="M315.7 181l-1.6-2.8c0-.1-.1-.1-.1 0-.2.1-.4.3-.7.5v-.6s0-.1-.1-.1l-.2-.1h-.1v1.1c-.2.2-.4.3-.5.3 0 0 0 .1.1.1.2.1.3.2.4.2v1.9l.8.4v-1.4c.2.1.6.4.8.5v1.4c.3.2.6.3.8.4v-1.9c.1 0 .3 0 .4.1 0 .1 0 0 0 0z"/><g id="XMLID_12_"><path id="XMLID_13_" class="st5" d="M318.2 175.4c-.3.2-.6.3-.9.5 0 0-.1 0 0 .1s.2.1.3.2c.1.1.2.2.1.3-.1.1-.2.1-.4.1-.1 0-.2 0-.2-.1-.1-.1-.2-.1-.3-.2h-.1c-.1 0-.1.1-.2.1h-.1c-.3-.2-.7-.4-1-.6-.2-.1-.2-.3-.1-.4v-.1c-.2-.2-.3-.4-.5-.6-.2-.2-.1-.3.1-.4l1.5-.9c.2-.1.4-.2.8-.1.3.1.7.2 1 .3h.8c.1 0 .2.1.3.2.2.2.5.3.7.4v.1c-.1 0-.1.1-.2.1v.1c.1.1.2.1.3.2.2.1.2.2 0 .3-.2.1-.4.1-.5 0-.1 0-.2-.1-.3-.2h-.1c-.4.2-.7.4-1 .6m-1.5-.9c.4-.2.7-.4 1.1-.7v-.1c-.3-.1-.5-.2-.8-.2h-.4l-1.5.9c-.1.1-.2.1-.1.2.1.2.3.3.4.5h.1c.5-.1.8-.4 1.2-.6m-.9.9c-.2.1-.1.2 0 .3.2.1.4.1.6 0 .2-.1.1-.2 0-.3-.2-.1-.5-.1-.6 0m3-1.4c-.2-.1-.4-.1-.6 0-.2.1-.1.2 0 .3.2.1.4.1.6 0 .2-.1.2-.2 0-.3"/></g><g><g id="XMLID_10_"><path class="st52" d="M330.5 179.3c-.1-.1-.1-.1 0 0h-.2c-.4.2-.7.3-1.1.3-.5 0-.7-.3-.7-.9v-1.8h1.8c.1 0 .3-.1.3-.3v-1.2c0-.1-.1-.1-.3-.1h-1.8v-1.8c0-.1-.1-.2-.2-.2h-.3s-.1 0-.2.1l-3 2.6s-.1.1-.1.2v.5c0 .1.2.2.3.2h1v2.5c0 .9.1 1.3.4 1.7.4.4 1.1.7 2 .7.8 0 1.4-.2 2-.7.1 0 0-.1 0-.2v-1.4c.1-.1.1-.2.1-.2zM338.8 180c0-.1-.1-.1-.2-.1-.5 0-.5-.3-.5-.6v-3.8c0-.1-.2-.1-.3-.1h-2.1c-.1 0-.2 0-.2.1v3.5c-.4.5-.6.7-1 .7-.7 0-.7-.5-.7-1v-3.2c0-.1-.1-.1-.2-.1h-2.1c-.1 0-.3 0-.3.1v3.8c0 .7.3 2.4 2.2 2.4.9 0 1.6-.3 2.2-1.1.2.8.6 1.1 1.6 1.1.4 0 .7 0 1-.1.1 0 .1-.1.2-.1l.5-1.3c0-.1 0-.2-.1-.2zM350.9 179.2h-.1-.1c-.4.2-.8.3-1.1.3-.5 0-.8-.3-.8-.9v-2h1.8c.1 0 0 0 0-.1v-1.2c0-.1.1 0 0 0h-1.8v-1.9c0-.1-.1-.2-.2-.2h-.3s-.1 0-.2.1l-2.9 2.6v.7c0 .1 0 .3.2.3h1v2.5c0 .9.1 1.3.5 1.7.4.4 1.1.7 2 .7.8 0 1.5-.2 2.1-.7.1 0 .1-.1.1-.2v-1.4c-.1-.2-.2-.2-.2-.3zM356.6 179.6c-.6 0-1 .5-1 1 0 .6.5 1 1 1 .6 0 1-.5 1-1s-.4-1-1-1zM362.2 180.1h-.2-.1c-.3.1-.6.2-.8.2-.7 0-1.1-.3-1.1-.9 0-.5.4-.9 1-.9.3 0 .5 0 .8.2H362.1c.1 0 .2-.1.2-.2v-1c0-.1-.2-.2-.3-.2-.4-.1-.9-.2-1.3-.2-1.7 0-2.5 1.2-2.5 2.3 0 1.3 1 2.3 2.5 2.3.5 0 .9-.1 1.3-.2.1 0 .2-.1.2-.2v-1c.1-.1 0-.1 0-.2zM366 177.1c-.6 0-1.1.2-1.4.6v-1.6c0-.1 0-.3-.2-.3h-1.3c-.1 0-.4.2-.4.4v5.3c0 .1.2.1.4.1h1.3c.1 0 .2 0 .2-.1V179c.2-.3.4-.4.6-.4.5 0 .5.5.5.7v2.2c0 .1.2.1.3.1h1.3c.1 0 .2 0 .2-.1v-2.7c0-1.5-.9-1.7-1.5-1.7z"/><g id="XMLID_11_"><path class="st52" d="M354.2 175.4h-2.1c-.1 0-.2 0-.2.1v5.9c0 .1.1.1.2.1h2.1c.1 0 .3 0 .3-.1v-5.9c0-.2-.2-.1-.3-.1zM353.2 172.5c-.6 0-1.1.5-1.1 1.1 0 .6.5 1.1 1.1 1.1.6 0 1.1-.5 1.1-1.1 0-.6-.5-1.1-1.1-1.1z"/></g></g><path class="st52" d="M344.4 179.3c0-.1 0-.1 0 0h-.2c-.4.2-.8.3-1.1.3-.5 0-.8-.3-.8-.9v-1.8h1.8c.1 0 .2-.1.2-.3v-1.2c0-.1-.1-.1-.2-.1h-1.8v-1.8c0-.1 0-.2-.2-.2h-.1s-.1 0-.2.1l-2.9 2.6v.7c0 .1 0 .2.2.2h.9v2.5c0 .9.1 1.3.5 1.7.4.4 1.1.7 2 .7.8 0 1.4-.2 2-.7.1 0 0-.1 0-.2v-1.4c0-.1 0-.2-.1-.2z"/></g></g></g></g></svg>