<svg xmlns="http://www.w3.org/2000/svg" width="35" height="35"><circle fill="#2CB75E" cx="17.438" cy="17.437" r="16.688"/><path fill="#FFF" d="M14.096 10.162h7.208V27.09h-7.208zm5.243-4.063l-.626.445-.05-.857.526.131z"/><path fill="#2CB75E" d="M13.875 11.645v-1.104h7.667v1.104h-7.667z"/><path fill="#11843D" d="M13.875 11.707v-.062h7.667c-2.435.143-5.133.02-7.667.062z"/><path fill="#2CB75E" d="M21.549 26.688c-2.554 0-5.195-.008-7.751-.008 0-.367.016-.865.016-1.232 2.575-.008 5.17-.018 7.729-.018-.001.367.006.888.006 1.258z"/><path fill="#FFF" d="M16.697 5.143v1.656c-.799.522-1.319.859-2.393 1.596-1.065-.981-.999-3.897-.121-5.031.656.772 1.426 1.434 2.514 1.779zm.122 5.152h-1.351c.019-.372-.048-.826.062-1.104.103-.102.275-.133.367-.246.869-.109 1.004.513.922 1.35zm3.126 0h-1.35c.02-.372-.051-.826.062-1.104.104-.102.275-.133.367-.246.871-.11.994.522.921 1.35zm1.229 0h-1.043c-.015-.626-.083-1.311.493-1.349.646-.015.564.7.55 1.349zm-6.993 1.595h1.104v2.515c-.414-.383-.759-.835-1.104-1.287V11.89z"/><path fill="#2CB75E" d="M21.542 24.343c.007.152 0 .168-.101.036-.055-.027-.662-.729-.817-.917-.358-.34-.624-.868-.981-1.205a13.503 13.503 0 0 0-.982-1.164c-.198-.325-.477-.553-.736-.86-.077-.092-.253-.106-.257-.233-.705-.704-1.285-1.562-1.94-2.312a68.359 68.359 0 0 1-1.851-2.299v-2.27c.088.035.15.095.184.185 2.497 2.942 4.988 5.886 7.483 8.832-.002.735-.002 1.471-.002 2.207zm-2.64-5.766c-.289-.076-.927-.912-1.042-1.167 1.213-1.427 2.436-2.84 3.616-4.293.146.614.023 1.493.064 2.208v.122c-.053.012-.062.062-.125.062-.786 1.069-1.727 1.99-2.513 3.068z"/><path fill="#FFF" d="M16.451 18.82c-.329.349-.653.695-.92 1.104-.144-.592-.021-1.452-.063-2.146-.009-.27.208.056.248.123.134.049.151.213.244.307.186.185.382.354.491.612zm2.514 0c.235-.461.631-.76.922-1.164.141.632.021 1.533.059 2.268-.358-.336-.626-.76-.981-1.104z"/><path fill="#2CB75E" d="M17.556 20.047c-.076.275-3.043 3.729-3.65 4.448-.144-.613.01-1.584-.031-2.302.164-.346.456-.564.674-.855.223-.271.445-.537.675-.8.442-.538.895-1.067 1.349-1.595.362.332.632.758.983 1.104z"/><path fill="#292D2D" d="M13.752 12.626a.563.563 0 0 0 .244.246v-.919c.011-.133-.217-.028-.306-.062v-1.473c-.056-.241.323-.044.368-.184-.037-.732-.053-1.444.614-1.473.344.004.571.123.674.368.303-.48 1.279-.447 1.594 0 .102-.598.102-1.608 0-2.208-.417.133-2.397 1.67-2.714 1.763a4.347 4.347 0 0 1-.474-.721c-1.288-2.361.081-4.701.551-4.906.519 1.016 1.493 1.574 2.637 1.964.143-.349.022-.961.063-1.411.136-.149.246-.327.428-.43h.552c.619.222.392 1.286.43 2.085.165.081.312.161.489.245.35.22.357.236.695.527-.173.109-.658.469-1.186.822v2.208c.193.109.381-.313.676-.307.402.006.764.052.855.368.201.017.131-.238.31-.245.113-.048.224-.102.368-.123.748-.012.787.685.734 1.473.01.135.262.026.367.061v1.595h-.367v.981c.064.118.326-.15.389-.235 0 .911.029 1.933.029 2.874-.092.13-.271.227-.357.368a54.325 54.325 0 0 0 0 5.764c.088.159.209.285.309.433v2.761c-.074.312-.203-.252-.367-.246v.613c.024.139.301.023.43.06v1.597h-.43c.017.693.067 1.418-.432 1.597-.427.041-.807-.047-.922-.321-.089.189-.199.284-.428.321-.526.056-.877-.062-1.105-.308-.141.758-.019 1.778-.06 2.637-.212.334-.541.545-1.043.432a4.508 4.508 0 0 1-.366-.432v-2.637c-.132-.123-.149.052-.247.123-.117.086-.185.138-.305.185-.479.024-.898-.002-1.043-.308-.219.412-1.283.42-1.427-.064 0-.368-.033-.705-.033-1.074-.009-.175-.145-.139-.319-.148v-1.598h.368v-.551c-.095-.169-.25.439-.368.246v-2.762c.063-.244.261-.35.368-.553a53.78 53.78 0 0 0 0-5.763c-.063-.162-.243-.207-.306-.368.042-.944-.081-2.049.063-2.887zm3.434-8.956v1.411c.384.024.704.113 1.042.184-.028-.563.064-1.253-.061-1.717-.216-.286-.897-.236-.981.122zm-3.005-.306c-.876 1.134-.944 4.049.122 5.031.654-.492 1.564-1.083 2.393-1.596V5.143c-1.087-.345-1.857-1.007-2.515-1.779zm2.698 1.841v1.532a10.85 10.85 0 0 0 1.655-.123V5.51c-.603-.048-1.001-.303-1.655-.305zm1.839.49c0 .306.021.556.021.786.209-.187.428-.279.601-.452-.147-.112-.379-.18-.622-.334zm-1.532 1.226v1.963a2.186 2.186 0 0 1 1.042 0V6.86c-.412-.046-.636.098-1.042.061zm-1.901 2.394c-.131-.115-.21-.331-.369-.37-.12-.029-.382-.002-.491.062-.313.185-.236.803-.244 1.287h1.104v-.979zm.613-.369c-.093.112-.264.144-.367.246-.111.277-.043.732-.062 1.104h1.351c.081-.838-.054-1.46-.922-1.35zm1.106.307v1.042h1.409V9.253c-.252-.389-1.163-.413-1.409 0zm2.023-.307c-.094.112-.266.144-.368.246-.111.277-.042.732-.062 1.104h1.348c.073-.829-.05-1.461-.918-1.35zm1.595 0c-.576.039-.507.723-.493 1.349h1.044c.015-.649.097-1.364-.551-1.349zm-6.747 2.761c2.534-.042 5.234.081 7.667-.062v-1.104c-2.453-.144-5.174-.02-7.729-.06.039.387-.081.937.062 1.226zm.306 1.411c.344.453.69.904 1.104 1.287V11.89h-1.104v1.228zm1.286-1.167v2.7c.394.507 1.396 1.672 1.351 1.473v-4.149c-.414-.001-.981-.024-1.351-.024zm2.885-.061h-1.348c.039 1.513-.084 3.19.062 4.6.169.319.4.58.673.798.187-.284.457-.484.613-.798 0-1.396-.006-2.997 0-4.6zm1.593.061h-1.35v4.173c-.012.102.942-.96 1.289-1.412m1.29-2.761c-.229-.142-.714-.021-1.043-.062v2.454c0 .095.092.013.123-.061.309-.388.7-.69.921-1.166l-.001-1.165zm.368 10.182c-2.496-2.943-4.988-5.889-7.484-8.832a.313.313 0 0 0-.185-.185v2.27c.606.782 1.266 1.514 1.901 2.271.658.752 2.685 3.109 2.884 3.436.347.367 2.732 3.256 2.787 3.281.078.1.103.121.097-.031v-2.21zm0-6.807c-.041-.716.081-1.594-.063-2.208-1.183 1.453-2.403 2.866-3.617 4.293.236.235.756.878 1.042 1.167.784-1.079 2.638-3.212 2.638-3.252zm-7.177.981c.001-.062-.05-.073-.061-.123-.077-.014-.125-.095-.121.062v5.092c0 .062.106.078.121 0 .295-.464.763-.752.982-1.291v-2.636c-.284-.394-.604-.744-.921-1.104zm6.686 4.908c-.019.045.131.171.123.186.102-.195 0-.938 0-1.291 0-1.278.047-3.007-.061-3.925-.018.088-.102.103-.125.186-.282.37-.661.643-.857 1.104v2.698c.308.343.573.735.92 1.042zm-5.091-3.008c-.093-.093-.11-.257-.244-.306-.039-.066-.256-.393-.247-.123.042.695-.081 1.553.062 2.146.266-.408.592-.756.92-1.104-.109-.258-.305-.427-.491-.613zm3.985 1.718c-.039-.735.08-1.636-.061-2.268-.287.405-.686.702-.921 1.165.357.342.625.766.982 1.103zm-3.373-.982a89.43 89.43 0 0 0-1.349 1.595c-.229.263-.453.528-.675.8-.219.291-.511.51-.674.855.041.718-.009 1.611-.009 2.242.608-.723 3.614-4.113 3.69-4.39-.35-.344-.62-.77-.983-1.102zm1.78 2.086c-.213-.276-.413-.567-.674-.797-.179.287-.442.498-.611.797-.146 1.287-.023 2.844-.062 4.229h1.348l-.001-4.229zm-1.595 4.231c0-.734.016-1.337.016-2.066 0-.35.016-.65.016-1-.03-.226.117-1.076-.092-.735-.223.229-.457.442-.615.735-.232.219-.462.439-.615.738v2.327l1.29.001zm1.961-3.801c0-.095-.165-.202-.12 0v3.801h1.348c-.038-.773.082-1.714-.059-2.389-.011-.018.01-.053 0-.062-.403-.466-.759-.916-1.169-1.35zm-4.537 3.005v.796h1.104c-.041-.693-.011-1.541-.011-2.214 0 .06-.101.144-.111.19-.316.421-.727.744-.982 1.228zm6.073-1.228c-.016-.068-.066-.096-.125-.122v2.145c.33-.038.816.083 1.044-.06v-.856c-.288-.386-.62-.729-.919-1.107zm1.258 2.239c-2.464 0-5.144.014-7.698-.027v1.225c2.505 0 5.274.012 7.722.012-.003-.371-.024-.839-.024-1.21zm-6.227 1.38h-1.104c-.002.612-.102 1.328.429 1.41.834.141.669-.72.675-1.41zm1.166 1.413c.443-.15.378-.808.368-1.412h-1.351c.023.408-.054.916.063 1.228.21.156.515.221.92.184zm1.288.061c.252-.074.566-.089.613-.367.145-.247.021-.755.062-1.104h-1.409v1.166c.177.167.405.287.734.305zm.859-.367c.221.411 1.205.427 1.348-.062v-1.043h-1.348v1.105zm2.576-1.107h-1.043c.016.537-.097 1.201.245 1.41.188-.043.226.063.369.062.534-.097.429-.835.429-1.472zm-3.988 1.474v.124c.005.438-.004.936 0 1.408.005.484-.059.961.246 1.166h.552c.313-.215.243-.725.245-1.228.002-.522.047-1.099-.06-1.472-.195.202-.773.142-.983.002z"/><path fill="#FFF" d="M15.285 10.295h-1.104c.008-.485-.069-1.104.244-1.287.109-.064.372-.091.491-.062.158.038.237.255.369.37v.979z"/><path fill="#0B4E25" d="M21.417 15.877v5.764a53.799 53.799 0 0 1 0-5.764z"/><path fill="#FFF" d="M20.744 28.329c-.145.001-.182-.106-.369-.062-.342-.209-.229-.875-.246-1.41h1.044c.001.635.106 1.373-.429 1.472zm-5.213-.247c-.117-.312-.04-.816-.062-1.227h1.351c.011.604.075 1.261-.368 1.41-.406.04-.711-.025-.921-.183zm1.473-.061v-1.166h1.409c-.041.352.082.857-.062 1.105-.047.279-.36.293-.614.367a1.086 1.086 0 0 1-.733-.306zm-2.394.247c-.53-.084-.431-.799-.429-1.412h1.104c-.006.689.159 1.55-.675 1.412zm3.559.061c.104.373.062.948.06 1.472-.002.504.067 1.012-.245 1.227h-.552c-.304-.205-.24-.68-.246-1.164-.004-.475.005-.973 0-1.409v-.124c.21.138.788.198.983-.002zm0-24.78c.126.464.031 1.154.06 1.716-.338-.071-.659-.159-1.042-.183V3.671c.083-.359.764-.409.982-.122zm.365 1.962v1.104c-.511.08-1.065.12-1.654.123V5.206c.653.001 1.051.256 1.654.305zM18.23 6.86v2.024a2.194 2.194 0 0 0-1.044 0V6.921c.406.037.63-.107 1.044-.061z"/><path fill="#FFF" d="M18.413 9.253v1.042h-1.409V9.253c.246-.413 1.157-.389 1.409 0zm.185 17.602h1.348v1.043c-.143.486-1.127.475-1.348.062v-1.105z"/><path fill="#052211" d="M13.996 15.877a53.799 53.799 0 0 1 0 5.764v-5.764z"/><path fill="#0F6F34" d="M13.875 11.707c-.143-.288-.022-.839-.061-1.228 2.556.041 5.276-.083 7.729.061h-7.667v1.104l-.001.063z"/><path fill="#FFF" d="M20.744 28.329c-.145.001-.146 0-.369-.062-.342-.209-.229-.875-.246-1.41"/><path fill="#CCC" d="M17.5 1C26.6 1 34 8.402 34 17.5 34 26.6 26.6 34 17.5 34 8.402 34 1 26.6 1 17.5 1 8.402 8.402 1 17.5 1m0-1C7.835 0 0 7.835 0 17.5S7.835 35 17.5 35 35 27.165 35 17.5 27.165 0 17.5 0z"/></svg>