<svg id="Layer_1" xmlns="http://www.w3.org/2000/svg" xmlns:xlink="http://www.w3.org/1999/xlink" width="800" height="350"><style>.st0{fill:none}.st1{fill:#29abe2}.st2{opacity:.4}.st5{opacity:.16}.st6,.st7{fill:#fff}.st7{opacity:.34}.st17{fill:#ce985e}.st28{fill:#7c4119}.st29{fill:#e6e6e6}.st30{fill:#ccc}.st34{fill:#856848}.st43{fill:#1a1a1a}.st48{fill:#fbc48a}</style><pattern width="242" height="242" patternUnits="userSpaceOnUse" id="New_Pattern" viewBox="0 -242 242 242" overflow="visible"><path class="st0" d="M0-242h242V0H0z"/><path class="st1" d="M0-242h242V0H0z"/><path class="st2" d="M0-242h11V0H0zm22 0h11V0H22zm22 0h11V0H44zm22 0h11V0H66zm22 0h11V0H88zm22 0h11V0h-11zm22 0h11V0h-11zm22 0h11V0h-11zm22 0h11V0h-11zm22 0h11V0h-11zm22 0h11V0h-11z"/><path class="st2" d="M0-242h242v11H0zm0 22h242v11H0zm0 22h242v11H0zm0 22h242v11H0zm0 22h242v11H0zm0 22h242v11H0zm0 22h242v11H0zm0 22h242v11H0zm0 22h242v11H0zm0 22h242v11H0zm0 22h242v11H0z"/></pattern><pattern width="242" height="242" patternUnits="userSpaceOnUse" id="New_Pattern_2" viewBox="241.7 -242 242 242" overflow="visible"><path class="st0" d="M241.7-242h242V0h-242z"/><path class="st1" d="M241.7-242h242V0h-242z"/><path class="st2" d="M472.7-242h11V0h-11zm-22 0h11V0h-11zm-22 0h11V0h-11zm-22 0h11V0h-11zm-22 0h11V0h-11zm-22 0h11V0h-11zm-22 0h11V0h-11zm-22 0h11V0h-11zm-22 0h11V0h-11zm-22 0h11V0h-11zm-22 0h11V0h-11z"/><path class="st2" d="M241.7-11h242V0h-242zm0-22h242v11h-242zm0-22h242v11h-242zm0-22h242v11h-242zm0-22h242v11h-242zm0-22h242v11h-242zm0-22h242v11h-242zm0-22h242v11h-242zm0-22h242v11h-242zm0-22h242v11h-242zm0-22h242v11h-242z"/><path d="M242-242h242V0H242zM0-242h242V0H0z" opacity=".12"/></pattern><radialGradient id="SVGID_1_" cx="401" cy="404" r="446.112" gradientUnits="userSpaceOnUse"><stop offset="0" stop-color="#cceaf9"/><stop offset="1" stop-color="#007ab7"/></radialGradient><path fill="url(#SVGID_1_)" stroke="#29abe2" stroke-miterlimit="10" d="M-4-4h810v355H-4z"/><g class="st5"><path class="st6" d="M701.4 114.5c-7.5 3.8 1.6 14.8-.9 20.9-1.9 4.4-5.9 6.1-6.4 11.1-.7 6.2 1 12-4.2 16.8-.4.3.2.9.5.5 2.3-2.2 3.6-4.7 4.2-7.9.4-2.3.1-4.6.2-7 .1-4.1 1.5-6.6 4.1-9.6 1.9-2.2 2.9-4.6 2.9-7.5.1-4.6-5.6-13.9 0-16.7.4-.2 0-.8-.4-.6z"/></g><path class="st1" d="M704.5 111.5l.9 5.7-9.5-2.9 6.4-4.1z"/><ellipse transform="rotate(-77.05 713.965 71.587)" class="st1" cx="714" cy="71.6" rx="42.7" ry="36.3"/><circle class="st7" cx="737.9" cy="51.1" r="5.4"/><g class="st5"><path class="st6" d="M735.4 325.5c-7.5 3.8 1.6 14.8-.9 20.9-1.9 4.4-5.9 6.1-6.4 11.1-.7 6.2 1 12-4.2 16.8-.4.3.2.9.5.5 2.3-2.2 3.6-4.7 4.2-7.9.4-2.3.1-4.6.2-7 .1-4.1 1.5-6.6 4.1-9.6 1.9-2.2 2.9-4.6 2.9-7.5.1-4.6-5.6-13.9 0-16.7.4-.2 0-.8-.4-.6z"/></g><path class="st1" d="M738.5 322.5l.9 5.7-9.5-2.9 6.4-4.1z"/><ellipse transform="rotate(-77.05 747.961 282.577)" class="st1" cx="748" cy="282.6" rx="42.7" ry="36.3"/><circle class="st7" cx="771.9" cy="262.1" r="5.4"/><g class="st5"><path class="st6" d="M673.1 391.6c-1.6 1.7-2 3.6-1.3 5.8 1.7 5.3 7.2 8 7.2 14.2 0 4-3.2 7-2.7 11.1.7 6.7 5.5 11.7 1.9 18.7-.2.4.4.8.6.4 1.5-2.8 1.9-5.6 1.4-8.8-.4-2.3-1.4-4.5-2.1-6.7-1.4-3.9-.7-6.7.7-10.4 1.1-2.7 1.2-5.2.3-8-1.4-4.1-9.7-11.4-5.5-15.8.3-.3-.2-.9-.5-.5z"/></g><path class="st1" d="M675 387.8l2.7 5.1-10 .3 4.8-6z"/><ellipse transform="rotate(-6.174 671.144 347.104)" class="st1" cx="670.9" cy="346.9" rx="36.3" ry="42.7"/><circle class="st7" cx="686.8" cy="319.7" r="5.4"/><g class="st5"><path class="st6" d="M598.5 87.7c-1.6 1.3-2.1 2.7-1.8 4.8.8 5.8 6.2 8.7 3.4 15.3-1.5 3.5-3.2 4.9-2.8 8.9.5 5.2 2.4 9.5-1.1 14.2-.3.4.4.8.6.4 4.9-6.8-1.1-14.2 2.7-21.1 1.3-2.4 2.3-4.1 2.1-7-.3-3.7-6.4-11.9-2.7-15 .5-.3-.1-.8-.4-.5z"/></g><path class="st1" d="M600.7 84.7l1.6 4.7-8.5-1 4.8-4.5z"/><ellipse transform="matrix(.04654 -.9989 .9989 .04654 525.289 648.967)" class="st1" cx="602.6" cy="49.3" rx="36.9" ry="31.3"/><circle class="st7" cx="619.8" cy="28.2" r="4.7"/><g class="st5"><path class="st6" d="M172.6 84.1c-3 5 4.5 8.1 5.6 12.5.7 3.1-1.3 5.3-.9 8.2.7 4.9 4.8 7.9 3 13.5-.2.5.6.7.7.2.7-2.3.8-4.3.1-6.6-.4-1.1-1-2-1.4-3-1.1-3-1.2-5.6-.8-8.6.3-2.1.4-3.3-.5-5.3-1.3-2.9-7.2-6.9-5.1-10.4.2-.5-.4-.9-.7-.5z"/></g><path class="st1" d="M173.8 81.3l2.3 3.3-6.9 1.1 2.8-4.5z"/><ellipse transform="rotate(-12.967 167.542 53.3)" class="st1" cx="167.5" cy="53.3" rx="25.4" ry="29.9"/><circle class="st7" cx="176.3" cy="33.1" r="3.8"/><g class="st5"><path class="st6" d="M102.2 128.1c2.3 1.2 2.8 5 2.2 7.1-.3 1.2-.8 2.3-1.2 3.5-.5 1.7-.9 3.5-1 5.3-.1 3.2.8 5.9 2.9 8.2 2.4 2.7 4 5 4.1 8.8.1 2.4-.2 4.7.1 7.1.4 3.4 1.7 6.3 4.3 8.6.4.3.9-.2.5-.5-5.2-4.9-3.5-10.6-4.2-16.8-.6-5.1-4.8-6.5-6.4-11.1-1.9-5.2 1.3-9.5 2-14.4.4-2.8-.3-5.2-2.9-6.5-.4-.1-.8.5-.4.7z"/></g><path class="st1" d="M99.5 124.5l-.9 5.7 9.5-2.9-6.4-4.1z"/><ellipse transform="rotate(-12.95 90.007 84.587)" class="st1" cx="90" cy="84.6" rx="36.3" ry="42.7"/><circle class="st7" cx="104.7" cy="60.4" r="5.4"/><g class="st5"><path class="st6" d="M65.2 314.1c2.3 1.2 2.8 5 2.2 7.1-.3 1.2-.8 2.3-1.2 3.5-.5 1.7-.9 3.5-1 5.3-.1 3.2.8 5.9 2.9 8.2 2.4 2.7 4 5 4.1 8.8.1 2.4-.2 4.7.1 7.1.4 3.4 1.7 6.3 4.3 8.6.4.3.9-.2.5-.5-5.2-4.9-3.5-10.6-4.2-16.8-.6-5.1-4.8-6.5-6.4-11.1-1.9-5.2 1.3-9.5 2-14.4.4-2.8-.3-5.2-2.9-6.5-.4-.1-.8.5-.4.7z"/></g><path class="st1" d="M62.5 310.5l-.9 5.7 9.5-2.9-6.4-4.1z"/><ellipse transform="rotate(-12.95 53.007 270.6)" class="st1" cx="53" cy="270.6" rx="36.3" ry="42.7"/><circle class="st7" cx="72.1" cy="248.7" r="5.4"/><g class="st5"><path class="st6" d="M266.7 130.1c1.4 2.2-.2 5.7-1.7 7.3-.9.9-1.9 1.6-2.8 2.4-1.1 1.1-2.2 2.2-3.1 3.4-1.8 2.6-2.7 5.4-2.2 8.5.5 3.3 1.3 5.6-.1 9-1.1 2.5-2.8 4.6-4 7-1.5 3.3-1.9 6.6-.9 10.1.1.5.9.3.7-.2-2-6.9 2.4-10.9 4.9-16.6 2.2-4.9-1.1-9.2.6-14.1 1.7-4.9 6.2-6.7 9-10.7 1.5-2.1 1.7-4.3.3-6.5-.3-.4-.9 0-.7.4z"/></g><path class="st1" d="M266.2 125.6l-3.6 4.5 9.6 2.3-3.4-6.8z"/><ellipse transform="rotate(-72.453 278.277 86.413)" class="st1" cx="278.3" cy="86.4" rx="42.7" ry="36.3"/><circle class="st7" cx="305.8" cy="77.3" r="5.4"/><radialGradient id="SVGID_2_" cx="507.296" cy="117.165" r="161.898" gradientTransform="rotate(3.934 615.555 261.922)" gradientUnits="userSpaceOnUse"><stop offset="0" stop-color="#574537"/><stop offset=".684" stop-color="#554335"/><stop offset="1" stop-color="#32241d"/></radialGradient><path d="M668 280.9c-5.2-3.4 23.1-35.4 23.5-68.7.9-61.9-26.4-102.2-77.5-109.4-26.7-3.7-69.3 15.7-76.2 21.3-6.2 5.1-19.8 37.4-24.4 70.5l5.3-2.8s-8.3 33.1 1.9 56.1c12.5 23.6 38.7 43.8 78.6 52.3 59.2 12.6 88.8-18.6 88.8-18.6s-14.8 2.7-20-.7z" fill="url(#SVGID_2_)"/><linearGradient id="SVGID_3_" gradientUnits="userSpaceOnUse" x1="359.914" y1="191.466" x2="359.914" y2="123.951" gradientTransform="rotate(158.057 429.721 210.524)"><stop offset="0" stop-color="#fcc58a"/><stop offset=".385" stop-color="#fac287"/><stop offset=".645" stop-color="#f6b97f"/><stop offset=".867" stop-color="#edaa71"/><stop offset="1" stop-color="#e69d65"/></linearGradient><path d="M561.8 267.6c-5.9-2-28.9-8.2-37.6-14.4-5.5-4-24-22.2-24.2-28.8-.2-4.5 2.3-12.1.2-17.6-2.2-5.5-8.4-12.4-8.4-12.4s-3.4 1.4-3 3.4c.4 2 4.4 8.8 2.7 8.4-1.7-.4-10.2-10.3-13.4-17.5 0 0-5.2 2.6-5.1 6.6 0 0-3.4 1.9-3 5.4 0 0-2.4 4.3-1.3 7.5 0 0 4.9 11.3 8.6 14.8 5.8 5.4 6.4 6.1 12 11.7 8.9 8.8 21.2 21.8 34.4 29.6 8.8 5.3 36.7 12.3 40.2 11.3 3.4-1 .7-7.1-2.1-8z" fill="url(#SVGID_3_)"/><linearGradient id="SVGID_4_" gradientUnits="userSpaceOnUse" x1="350.58" y1="190.957" x2="350.58" y2="123.443" gradientTransform="scale(1 -1) rotate(-29.808 -233.721 -657.791)"><stop offset="0" stop-color="#fcc58a"/><stop offset=".385" stop-color="#fac287"/><stop offset=".645" stop-color="#f6b97f"/><stop offset=".867" stop-color="#edaa71"/><stop offset="1" stop-color="#e69d65"/></linearGradient><path d="M626.6 268.4c6.2-1.2 29.8-4.1 39.2-9.1 6-3.2 26.8-18.7 28-25.2.8-4.4-.6-12.3 2.3-17.5 2.9-5.1 10.1-11.1 10.1-11.1s3.2 1.8 2.5 3.8c-.6 1.9-5.5 8.1-3.8 7.9 1.7-.2 11.5-8.8 15.7-15.5 0 0 4.8 3.2 4.2 7.2 0 0 3.1 2.3 2.2 5.8 0 0 1.7 4.6.3 7.6 0 0-6.4 10.5-10.6 13.5-6.5 4.6-7.1 5.1-13.5 9.9-10.1 7.5-24 18.6-38.1 24.6-9.5 4-38 7.1-41.4 5.7-3.5-1.4 0-7 2.9-7.6z" fill="url(#SVGID_4_)"/><radialGradient id="SVGID_5_" cx="431.275" cy="286.801" r="230.405" gradientTransform="rotate(3.934 615.555 261.922)" gradientUnits="userSpaceOnUse"><stop offset=".65" stop-color="#db1e27"/><stop offset="1" stop-color="#4e0f10"/></radialGradient><path d="M588.3 299.1c16.9 1.2 30.5-.4 43.4 39.1 7.9 24.2-3 33.1-3 33.1l-87.3-6s-3.2-4.6-.1-20.8c5-27 20.4-47.2 47-45.4z" fill="url(#SVGID_5_)"/><path d="M615 307.1c-9.1-8.4-18.4-7.3-28.6-8-10.9-.7-17 1.5-24.8 7.4 4.3 2.8 10.6 6.8 25 7.8 12.6.8 21.5-3.4 28.4-7.2z" fill="#661412"/><radialGradient id="SVGID_6_" cx="561.04" cy="220.79" r="113.757" gradientTransform="matrix(.9975 .0686 -.0686 .9976 19.357 -41.615)" gradientUnits="userSpaceOnUse"><stop offset=".65" stop-color="#db1e27"/><stop offset="1" stop-color="#4e0f10"/></radialGradient><path d="M543.9 256.1s79.4 1.8 96.9 3.6c0 0-8.4 32.9-31.6 44.6-17 8.5-37.2 3.2-48.2-5.7-13.8-11.4-17.1-42.5-17.1-42.5z" fill="url(#SVGID_6_)"/><linearGradient id="SVGID_7_" gradientUnits="userSpaceOnUse" x1="591.175" y1="290.315" x2="591.175" y2="263.068" gradientTransform="rotate(3.934 615.555 261.922)"><stop offset="0" stop-color="#fcc58a"/><stop offset=".285" stop-color="#f9c287"/><stop offset=".476" stop-color="#f0ba7f"/><stop offset=".577" stop-color="#e8b277"/><stop offset=".908" stop-color="#ce985e"/></linearGradient><path d="M575.8 250.4c.5 1.6 4.9 28.4 11.3 30.1 3 .8 16.1-22.2 20.9-30.3l-32.2.2z" fill="url(#SVGID_7_)"/><path d="M578.9 264.1l-9.3 6.5-1.9-13.3 8.1-6.9zm20.5 1.9l8.9 5.8 8.5-23.7-10.6 1.3z" fill="#721514"/><radialGradient id="SVGID_8_" cx="692.94" cy="157.169" r="93.46" gradientTransform="matrix(.9603 .03055 -.02777 .9621 -94.022 -21.39)" gradientUnits="userSpaceOnUse"><stop offset="0" stop-color="#fcc58a"/><stop offset=".575" stop-color="#fcc289"/><stop offset=".962" stop-color="#fbb986"/><stop offset="1" stop-color="#fbb885"/></radialGradient><path d="M604.7 114.6c19.3 2.2 34.1 15.7 43.8 41.6 6 16 15 63.5-4.1 83.2-12.1 12.4-29.3 20.2-50.1 18.7-17-1.2-46.1-8.6-56-27.2-8.9-16.7-3-43.7 4.6-68.4 13.9-45.1 45.8-49.7 61.8-47.9z" fill="url(#SVGID_8_)"/><path class="st17" d="M610 137.1c-29.1-11.5-39.1-18.9-49.4-2.1-1.1 1.8-5.5 1.8-6.5 3.7 1.4 10 20 18.8 27.6 22.7 0 0 1.1-12.2 2.6-10.3 28 34.6 40.7 44.5 68.8 48.7 1.8-11-14.1-51.3-43.1-62.7z"/><radialGradient id="SVGID_9_" cx="521.333" cy="124.514" r="145.593" gradientTransform="rotate(3.934 615.555 261.922)" gradientUnits="userSpaceOnUse"><stop offset="0" stop-color="#574537"/><stop offset=".684" stop-color="#554335"/><stop offset="1" stop-color="#32241d"/></radialGradient><path d="M662.8 244.3s-31.1-31.2-15.7-72.3c0 0 25 4.1 26.5 4.5-6.3 32.5-9.6 46.3-10.8 67.8z" fill="url(#SVGID_9_)"/><path d="M572.9 228.4s6.2 4.8 16.1 6.2c13.8 2 24.1-4.5 24.1-4.5" fill="none" stroke="#bd4747" stroke-width="4" stroke-linecap="round" stroke-miterlimit="10"/><path d="M549.1 216.5c-.3 4 2.7 7.4 6.7 7.7 4 .3 7.4-2.7 7.7-6.7.3-4-2.7-7.4-6.7-7.7-4-.2-7.4 2.8-7.7 6.7zm75.4 5.2c-.3 4 2.7 7.4 6.7 7.7 4 .3 7.4-2.7 7.7-6.7.3-4-2.7-7.4-6.7-7.7-4-.2-7.5 2.8-7.7 6.7z" fill="#ffa370"/><path class="st17" d="M636.7 201.2c-.4 5.7-5.4 10.1-11.1 9.7-5.7-.4-10.1-5.4-9.7-11.1.4-5.7 5.4-10.1 11.1-9.7 5.8.4 10.1 5.3 9.7 11.1z"/><radialGradient id="SVGID_10_" cx="1688.006" cy="199.103" r="9.205" gradientTransform="rotate(3.934 1148.613 -15257.77)" gradientUnits="userSpaceOnUse"><stop offset="0" stop-color="#333"/><stop offset=".456" stop-color="#313131"/><stop offset=".7" stop-color="#292929"/><stop offset=".894" stop-color="#1b1b1b"/><stop offset="1" stop-color="#101010"/></radialGradient><path d="M635.6 200.3c-.3 5.1-4.7 8.9-9.8 8.6s-8.9-4.7-8.6-9.8c.3-5.1 4.7-8.9 9.8-8.6 5.1.4 8.9 4.8 8.6 9.8z" fill="url(#SVGID_10_)"/><path class="st6" d="M620.1 194.8c-1.2 1.9-.9 4.2.7 5.3 1.6 1 3.9.4 5.1-1.5 1.2-1.9.9-4.2-.7-5.3-1.6-1-3.9-.3-5.1 1.5z"/><path d="M638.5 202.3s3.8 2 5.6.7c1.7-1.3 0-3.2 0-3.2s-4.2 1.2-5.6.8v1.7zm-2.1-8.2s4.7.2 5.9-1.7c1.2-1.9-1.3-3-1.3-3s-3.8 2.9-5.4 3.1l.8 1.6zm-3.4-6.9s4.2-2.5 4.4-4.8c.1-2.3-2.7-1.8-2.7-1.8s-1.8 4.5-3.1 5.7l1.4.9zm-83.5 7.4s-4.1 1.4-5.6-.2c-1.5-1.5.5-3.2.5-3.2s3.9 1.8 5.4 1.7l-.3 1.7zm3.2-7.9s-4.7-.5-5.6-2.6c-.9-2 1.7-2.7 1.7-2.7s3.3 3.4 4.9 3.9l-1 1.4zm4.5-6.3s-3.8-3.1-3.6-5.4c.2-2.3 2.9-1.4 2.9-1.4s1.1 4.8 2.3 6.1l-1.6.7z" fill="#403228"/><path class="st17" d="M549.5 195.2c-.4 5.7 3.9 10.7 9.7 11.1 5.7.4 10.7-3.9 11.1-9.7.4-5.7-3.9-10.7-9.7-11.1-5.7-.4-10.7 3.9-11.1 9.7z"/><radialGradient id="SVGID_11_" cx="-888.79" cy="199.103" r="9.205" gradientTransform="scale(-1 1) rotate(-3.934 -782.236 -4590.93)" gradientUnits="userSpaceOnUse"><stop offset="0" stop-color="#333"/><stop offset=".456" stop-color="#313131"/><stop offset=".7" stop-color="#292929"/><stop offset=".894" stop-color="#1b1b1b"/><stop offset="1" stop-color="#101010"/></radialGradient><path d="M550.8 194.5c-.3 5.1 3.5 9.5 8.5 9.8 5.1.3 9.5-3.5 9.8-8.6.3-5.1-3.5-9.5-8.6-9.8-5-.3-9.4 3.5-9.7 8.6z" fill="url(#SVGID_11_)"/><path class="st6" d="M553.6 190.3c-1.2 1.9-.9 4.2.7 5.3 1.6 1 3.9.4 5.1-1.5 1.2-1.9.9-4.2-.7-5.3-1.6-1-3.9-.4-5.1 1.5z"/><radialGradient id="SVGID_12_" cx="462.161" cy="157.197" r="190.7" gradientTransform="rotate(3.934 615.555 261.922)" gradientUnits="userSpaceOnUse"><stop offset="0" stop-color="#574537"/><stop offset=".684" stop-color="#554335"/><stop offset="1" stop-color="#32241d"/></radialGradient><path d="M549.5 134.4c1.7 5 22.3 22.2 30.5 23.2 2.2.2-5.7-19.2-4.1-17.6 13.4 13.2 37.4 38.6 57.5 49.4 31 16.7 38.2 27.5 49.3 25.6 0 0 7.4-68.8-38.5-90.9-21.7-10.5-68.2-25.7-94.7 10.3z" fill="url(#SVGID_12_)"/><path d="M541.7 134.1c-1.3 2.3-2.9 4.4-3.1 4.7-7.8 12.1-13.6 26.7-18 40.3-.6-6.7 3-14.1 5.3-20.3 2.9-7.9 5.9-16.1 10.1-23.6.7-1.2 3.8-7.9 5.8-7.7 2.8.5 1.6 3.7-.1 6.6z" fill="#7d634f"/><path d="M571.6 122.3c10.1 7.6 29.6 44.4 64.7 55.5 0 0-19-7.7-38.3-32-19.2-24.3-19.7-26.9-26.4-23.5z" opacity=".4" fill="#7d634f"/><path d="M647.6 240.5l-4.6-8.7 5.8-9.9 10.4-1.4 4.6 8.6-5.8 10zm-109.9-7.6l5.7-7.9-4.3-10.7-10.2-2.7-5.7 7.9 4.4 10.7z" fill="#7d1920"/><path class="st6" d="M458.2 392s32.9 12.3 35.2-22.3c0 0 12.3 40.6-40.6 36.1l5.4-13.8z"/><path class="st28" d="M492.8 388c1.1-1.3 1.2-3.3 1.1-5-.1-2.1-.9-4.2-1.9-6-3 11.9-10.8 15.9-18.1 16.7.6 1.2 1.2 2.8 2.3 3.4 1.4.9 3.1 1.1 4.7 1.2 1.6.1 3.3.1 4.5-1.3 1.4-1.6 1.1-4 2.3-5.6 1.3-1.7 3.7-1.7 5.1-3.4z"/><path class="st6" d="M451 380c-4.1-7.2 5.2-20.8 3.1-29.6-1-4.4-5.6-5.9-8.2-10.3-6.6-11.4-11-15.7-1.5-40.1 7.1-18.3 18.1-13.5 23.1-10-.8-25.6-1.4-48.2-1.4-48.2L399.7 278s-9.5 56.7-10.7 82c-.6 13.3-5.6 53.7 37 55.3 25.2 1 36.4-11.9 41.4-24.8-6.6-.6-13.6-4.7-16.4-10.5z"/><path class="st28" d="M469.5 340.9c-.6-13.8-1-32.8-1.6-50.6-4.8-3.5-16.1-8.9-23.4 9.8-9.5 24.4-5 28.7 1.5 40.1 2.5 4.4 7.1 5.9 8.2 10.3 2.1 8.7-7.3 22.4-3.1 29.6 2.8 5.9 9.9 10 16.7 10.7 4.2-10.6 3.9-21.3 3.9-24.6-.1-7.5-1.8-15.4-2.2-25.3z"/><path class="st29" d="M398.3 286.7l23.9-12.3s-6 9.2-13.1 15.5c-5.5 5-12.4 7.4-12.4 7.4l1.6-10.6z"/><path class="st6" d="M460.2 226.3c-34.6-40.4-59.6-24.2-81.6 6.6-16.3 22.9-21.5 51.8-10.3 59.5 11.2 7.7 52.2-14.4 52.2-14.4s67.2-19.6 39.7-51.7z"/><ellipse cx="413.5" cy="245.4" rx="6.9" ry="7.3"/><ellipse class="st30" cx="417.7" cy="243.5" rx="1.4" ry="1.5"/><ellipse cx="383.3" cy="241.7" rx="5.6" ry="6.7"/><ellipse class="st30" cx="386.3" cy="239.8" rx="1.4" ry="1.4"/><path d="M368 276.7s7.7-4.6 13.5 4.6c0 0-3.1 5.2-10.9 6 0 0-2.8-1.7-2.6-10.6zm54.4-42.9c-.5 0-.9-.3-1.1-.8-3.4-10.6-10.3-9-10.4-9-.6.2-1.2-.2-1.4-.8-.2-.6.2-1.2.8-1.4.1 0 9.1-2.1 13.1 10.5.2.6-.1 1.2-.7 1.4 0 .1-.2.1-.3.1zm-38.8-8c-.2 0-.5-.1-.7-.2-.5-.4-.6-1.1-.2-1.6 4.1-5.4 8.2-6.6 10.8-6.7 3-.1 5 1.2 5 1.3.5.4.7 1.1.3 1.6-.4.5-1.1.7-1.6.3-.3-.2-6.1-3.8-12.8 4.9-.1.2-.4.4-.8.4z"/><path class="st29" d="M465.7 245.6c-3.1-7.6-10.5-13-22.6-10.5 0 0 17.1 8.1 17.5 29.9.1 5 3.3 7.7 6.3 7.4 0 0 .1-.3.1-.9-.1-5.1-1-24.1-1.3-25.9z"/><path class="st6" d="M480.4 239.6c-10-21.3-40-11.2-40-11.2l2.3 6.9c21.6.2 23.1 12.4 24 26.3.3 4.5 2 7.6 4.3 9.3-3.9-20.9 4.2-28.6 9.4-31.3z"/><path class="st28" d="M480.5 239.5c-5.2 2.7-13.5 10.4-9.4 31.6 4.8 3.6 11.9.6 12.6-10.1.5-9.3-.8-16.3-3.2-21.5z"/><path d="M369.4 277.3s6.2-2.1 10.6 3.4c0 0-.7 1.3-2.1 2 0 0-1.6-5.4-8.5-5.4z" fill="#666"/><path class="st6" d="M386.9 328.9c-13.2 0-24.8-3.5-34.7-10.6-22.3-15.9-27.1-43.9-27.3-45-.5-3.3 1.7-6.5 5.1-7 3.3-.5 6.5 1.7 7 5.1.1.4 4.3 24.3 22.3 37.1 10.5 7.5 24 9.9 39.9 7.1 3.3-.6 6.5 1.7 7.1 5 .6 3.3-1.7 6.5-5 7.1-4.9.8-9.8 1.2-14.4 1.2zm68.9 0c-4.6 0-9.5-.4-14.5-1.3-3.3-.6-5.6-3.8-5-7.1.6-3.3 3.8-5.6 7.1-5 15.9 2.8 29.3.4 39.9-7.1 18.1-12.9 22.3-36.8 22.3-37.1.6-3.3 3.7-5.6 7-5.1s5.6 3.7 5.1 7c-.2 1.2-4.9 29.1-27.3 45-9.8 7.2-21.4 10.7-34.6 10.7z"/><g><pattern id="SVGID_13_" xlink:href="#New_Pattern_2" patternTransform="translate(-1834.317 -3370.571) scale(.6739)"/><path d="M285.9 281.5c-3.5 0-6.8-2.3-7.9-5.8-1.4-4.4 1-9 5.4-10.4 2.8-.9 65.7-22.5 39-105.1-1.4-4.4 1-9.1 5.4-10.5 4.4-1.4 9.1 1 10.5 5.4 10.6 32.8 9.9 61.3-2 84.6-16 31.1-46.4 41.1-47.7 41.5-1 .2-1.8.3-2.7.3z" fill="url(#SVGID_13_)"/><radialGradient id="SVGID_14_" cx="284.744" cy="193.869" r="14.461" gradientUnits="userSpaceOnUse"><stop offset="0" stop-color="#fcc58a"/><stop offset=".575" stop-color="#fcc289"/><stop offset=".962" stop-color="#fbb986"/><stop offset="1" stop-color="#fbb885"/></radialGradient><path d="M272 188.4c1.9-7.2 9.2-11.5 16.2-9.7 7 1.9 11.2 9.2 9.3 16.4-1.5 5.7-6.4 9.6-11.9 10.1-.9 3.1-4.1 4.9-7.1 4.1-3.1-.8-5-4.1-4.1-7.3.1-.4.3-.9.5-1.2-2.9-3.3-4.1-7.9-2.9-12.4z" fill="url(#SVGID_14_)"/><path class="st34" d="M282.9 187.3c4.6-2.5 9.3 1.2 9.3 1.2s-4.5-6.5-10.2-3.5c-5.8 3-4.6 10.4-4.6 10.4s.5-5.4 5.5-8.1z"/><path class="st34" d="M282.8 194.9c-4.2-2.9-5.1-.7-5.1-.7s-.1-4.5 6.1.3c3.4 2.7.4 5.9.4 5.9s1.9-3.2-1.4-5.5z"/><linearGradient id="SVGID_15_" gradientUnits="userSpaceOnUse" x1="259.476" y1="134.96" x2="275.212" y2="193.057"><stop offset="0" stop-color="#574537"/><stop offset=".576" stop-color="#433329"/><stop offset="1" stop-color="#32241d"/></linearGradient><path d="M253.9 149.2s19.2 21.2 22.6 43.1c0 0 13.3-16.2-15-56.4l-7.6 13.3z" fill="url(#SVGID_15_)"/><radialGradient id="SVGID_16_" cx="215.76" cy="215.362" r="73.028" gradientUnits="userSpaceOnUse"><stop offset="0" stop-color="#fcc58a"/><stop offset=".575" stop-color="#fcc289"/><stop offset=".962" stop-color="#fbb986"/><stop offset="1" stop-color="#fbb885"/></radialGradient><path d="M187.1 288.3s-3.1-1.3-6.7-7c-11.7-18.2-37.7-94.1-37.7-94.1l19.3-35.9 94.5-8.8s15.4 26.7 21.8 51.9c4 15.7 8.9 33.6 10.3 45.8 1 8.9-.9 14.8-.9 14.8s-31 30.1-100.6 33.3z" fill="url(#SVGID_16_)"/><linearGradient id="SVGID_17_" gradientUnits="userSpaceOnUse" x1="136.597" y1="169.393" x2="152.272" y2="227.264"><stop offset="0" stop-color="#574537"/><stop offset=".576" stop-color="#433329"/><stop offset="1" stop-color="#32241d"/></linearGradient><path d="M132.6 171.9l21.9 16.7s11.5 17.9-4 38.8c0 0-32.5-28.9-17.9-55.5z" fill="url(#SVGID_17_)"/><linearGradient id="SVGID_18_" gradientUnits="userSpaceOnUse" x1="209.23" y1="212.467" x2="232.336" y2="297.773" gradientTransform="rotate(4.52 1699.626 -87.314) scale(1.00001)"><stop offset="0" stop-color="#574537"/><stop offset=".576" stop-color="#433329"/><stop offset="1" stop-color="#32241d"/></linearGradient><path d="M132.6 172.5s8.4-54.9 53-68.3c0 0-7.6 11-7.2 14.2 0 0 10.4-11.2 22.5-15.5 16.7-6 41.1 9 47-17.5 0 0 10.9 9 7.4 23.2 0 0 5.1-4.9 4.8-12.4 0 0 11.4 17.5-1.3 35.1 0 0 6.7-3.1 8.7-12.1 0 0 1.1 59.5-113.5 69.4l-21.4-16.1z" fill="url(#SVGID_18_)"/><path d="M191.1 110.3c21.3-14.2 28.1-1.3 46.3-7.9 7.9-2.9 9.5-8.4 9.5-8.4-7.5 25.3-31.5 5.5-55.6 16.3h-.2z" fill="#836f67"/><radialGradient id="SVGID_19_" cx="243.434" cy="-369.048" r="10.105" gradientTransform="rotate(-22.382 1678.22 38.77)" gradientUnits="userSpaceOnUse"><stop offset="0" stop-color="#454545"/><stop offset="1" stop-color="#101010"/></radialGradient><path d="M204.5 205c1.8 4.5-.3 9.6-4.8 11.4-4.5 1.8-9.6-.3-11.4-4.8-1.8-4.5.3-9.6 4.8-11.4 4.4-1.8 9.6.4 11.4 4.8z" fill="url(#SVGID_19_)"/><path class="st6" d="M200.4 203.4c.6 1.6-.1 3.4-1.7 4-1.6.6-3.4-.1-4-1.7-.6-1.6.1-3.4 1.7-4 1.5-.6 3.3.1 4 1.7z"/><radialGradient id="SVGID_20_" cx="301.976" cy="-366.075" r="10.105" gradientTransform="rotate(-22.382 1678.22 38.77)" gradientUnits="userSpaceOnUse"><stop offset="0" stop-color="#454545"/><stop offset="1" stop-color="#101010"/></radialGradient><path d="M259.8 185.5c1.8 4.5-.3 9.6-4.8 11.4-4.5 1.8-9.6-.3-11.4-4.8-1.8-4.5.3-9.6 4.8-11.4 4.4-1.8 9.5.3 11.4 4.8z" fill="url(#SVGID_20_)"/><path class="st6" d="M255.7 183.9c.6 1.6-.1 3.4-1.7 4-1.6.6-3.4-.1-4-1.7-.6-1.6.1-3.4 1.7-4 1.5-.7 3.3.1 4 1.7z"/><path d="M196.1 237.9c0 3.5-2.8 6.4-6.2 6.4-3.5 0-6.4-2.7-6.4-6.2s2.8-6.4 6.2-6.4c3.5-.1 6.4 2.7 6.4 6.2zm76.5-25c0 3.5-2.8 6.4-6.2 6.4-3.5 0-6.4-2.7-6.4-6.2s2.8-6.4 6.2-6.4c3.5 0 6.4 2.7 6.4 6.2z" fill="#fab383"/><path class="st43" d="M275 168.3c-7.7 1.8-11 .7-26 5.5-11.7 3.8-18.2 8.2-30 11.9-11.8 3.7-19.6 3.7-31.4 7.4-15.1 4.7-17.2 7.4-24.5 10.3-.7.3-1.1 1-.7 2.1.6 2 1.3 3.7 1.9 5.4.5 1.6 1.7 1 3.1 2.6 4.2 5.1 6.3 15.1 13.7 18.4 2.1.9 5.6 1.8 8.6 1.2 14.2-3.1 26.4-5.9 27.3-21.7.2-3.3 1-6.1.8-10.8.7-3.4.9-2.9 4.7-4.3 3.9-1 3.8-1.6 6.3.8 2.5 4 4.8 5.9 6.8 8.5 9.7 12.4 21.4 7.8 34.8 2.2 2.8-1.2 5.2-3.9 6.3-5.9 4.1-6.9.1-16.3.7-22.9.2-2.1 1.6-2.3 1.1-3.9-.5-1.7-.9-3.5-1.6-5.5-.4-1.1-1.2-1.4-1.9-1.3zm-59.6 37.6c.2 5.7-.5 11.6-4.2 15.9-2.5 3-6.5 5.5-11.4 7.1-14.4 4.8-21.7 1.9-25.6-10.3-1.8-5.8-4.5-10.7-2.1-14.5 2.7-4.2 11.1-7 17.3-8.9 6.4-2 16.9-4.2 21.7-1.7 4.1 2 4.1 7.1 4.3 12.4zm59.1-18.8c3.8 12.2-.6 18.8-15.1 23.1-4.9 1.5-9.7 1.7-13.4.7-5.4-1.4-9.4-5.9-12.5-10.7-2.9-4.4-5.8-8.6-3.6-12.6 2.5-4.8 12.4-9 18.8-11 6.2-2 14.6-4.5 19.3-2.6 4.1 1.7 4.7 7.3 6.5 13.1z"/><path class="st43" d="M162.5 204.8l-7.6 17.6 4 2.6 7-13z"/><radialGradient id="SVGID_21_" cx="155.741" cy="234.507" r="14.138" gradientUnits="userSpaceOnUse"><stop offset="0" stop-color="#fcc58a"/><stop offset=".575" stop-color="#fcc289"/><stop offset=".962" stop-color="#fbb986"/><stop offset="1" stop-color="#fbb885"/></radialGradient><path d="M162.8 224.6c-5.6-4.9-14.1-4.4-18.8 1.1-4.8 5.5-4.1 13.9 1.6 18.8 4.5 3.9 10.7 4.4 15.5 1.6 2.5 2 6.1 1.8 8.2-.6 2.1-2.4 1.8-6.2-.7-8.3-.3-.3-.7-.5-1.1-.8.5-4.3-1.1-8.8-4.7-11.8z" fill="url(#SVGID_21_)"/><path class="st34" d="M153.2 229.8c-5.2.5-7 6.2-7 6.2s0-7.9 6.5-8.6c6.5-.7 9.6 6 9.6 6s-3.4-4.2-9.1-3.6z"/><path class="st34" d="M157.6 236c1.8-4.8 3.8-3.5 3.8-3.5s-2.5-3.8-4.8 3.7c-1.3 4.1 3 5.1 3 5.1s-3.4-1.5-2-5.3z"/><pattern id="SVGID_22_" xlink:href="#New_Pattern" patternTransform="translate(2314.263 509.084) scale(1.1532)"/><path d="M288.3 251.7s23.5 41 24.2 104.1c0 0-10.4 21.6-101.4 23.3 0 0 2.1 2.3-2-20.6-4.4-24.2-22.2-70.3-22.2-70.3s77.8-6.6 101.4-36.5z" fill="url(#SVGID_22_)"/><path class="st6" d="M256.8 272.2c-6 2.3-13.1 4.7-13.1 4.7s4.8 1.5 9.5 4.4c4.7 2.8 8.1 6.4 8.1 6.4s7.1-9.5 5.2-19.7c0 0-4.3 2.1-9.7 4.2z"/><pattern id="SVGID_23_" xlink:href="#New_Pattern_2" patternTransform="translate(-1834.317 -3370.571) scale(.6739)"/><path d="M171.5 315.2c-18 0-41.9-3.6-61.3-19.2-21.8-17.5-32.5-46.1-32-84.6.1-4.6 3.8-8.4 8.3-8.4h.1c4.6 0 8.3 4 8.2 8.6-.5 33.1 8.2 57.1 25.8 71.3 29 23.3 73.1 13.5 73.5 13.4 4.5-1 9 1.8 10 6.2 1 4.5-1.7 9-6.2 10-.9.3-11.7 2.7-26.4 2.7z" fill="url(#SVGID_23_)"/><path d="M249.8 228.3c-6.5 16-18.8 11.5-25.9 9.1-7.1-2.4-12 4.2-3.7 8.6 13.8 7.3 32.9 3.1 37.6-12.5 2.9-9.2-5.1-12.3-8-5.2z" fill="#fff" stroke="#856848" stroke-miterlimit="10"/><path class="st48" d="M104.3 204.4s-4.1 7.9-28.3 9.3c0 0-13.1-6.3-11.5-30.8 0 0 3.7-2.6 7.6-4.3 3.6-1.5 9.2-1.8 9.2-1.8s-1.4-5.1-1.8-9.9c-.5-6.7-.1-10.4-.1-10.4s6.5-1.2 10.7-.6c0 0 1.8 17.7 6.3 28.3 0 0 .5-5.3 1.1-11.2 0 0 5.9-1.8 9.9.7 0 .1-.5 16.5-3.1 30.7zM311.6 159.3s7.5 4.7 29.2-6.1c0 0 8.2-12.1-5.5-32.4 0 0-4.5-.4-8.7.1-3.8.5-8.8 3.1-8.8 3.1s-1.4-5.2-3.4-9.4c-2.9-6-5.2-9-5.2-9s-6.3 2.2-9.5 4.8c0 0 7.3 16.2 8.8 27.7 0 0-3.1-4.3-6.6-9.1 0 0-6 1.4-8.2 5.6-.1-.2 8.6 13.7 17.9 24.7z"/></g><g><path class="st1" d="M105.9-7c-9.4 13.1 4.7 27.8 2.3 41.7C106 47.3 94.9 56.1 93.4 69c-.1 1 1.4 1 1.5 0 1.4-12.7 12.4-21.5 14.6-33.9C112 21.4 98 6.6 107.2-6.2c.5-.8-.8-1.5-1.3-.8z"/></g><g><path class="st1" d="M662.5-31.7c-5.3 11.4-4.5 22.6 0 34.1 5.6 14.3 8.9 28.1 7.5 43.6-.1 1 1.4 1 1.5 0 1.1-12.6-.4-25.3-4.9-37.2-2.2-5.9-5-11.7-6.1-17.9-1.2-7.5 0-15 3.2-21.8.5-.9-.8-1.7-1.2-.8z"/></g><g><path class="st1" d="M68.7-39.6c-5.5 12-11.3 24.9-8.9 38.4 1 5.6 3.3 10.4 7 14.7 2.8 3.2 4.1 3.5 1.8 9.6-.6 1.5-1.6 3-2.5 4.4-2.4 3.8-5.2 7.1-8.5 10.1-.7.7.4 1.7 1.1 1.1 4.8-4.5 9.5-10.2 11.9-16.4 2.2-5.7-1.5-7.9-4.6-12.2-10.9-15-2.8-34.2 4-49 .4-.8-.9-1.6-1.3-.7z"/></g><g><path class="st1" d="M17.4-23.3C10.8-13 9.7-.1 14.9 11c1.6 3.4 3.6 6.5 5 10 2 4.9 2.2 10 1.4 15.1-1.1 7.3-3.8 14.2-5.2 21.4-2.2 11-2.6 23.6 4.4 33 2.1 2.9 5.2 5.2 5.8 8.8.5 3.1-.9 6-2.4 8.6-2.3 4-5.4 7.6-7.2 11.9-1.9 4.8-.5 7.5 2.1 11.6 4.3 6.8-4.2 13.5-5.5 20.2-.2.9 1.3 1.3 1.4.4 1.1-5.5 5.7-9.5 6.8-14.9 1-5.3-4.3-7.8-4.3-12.8.1-9.2 11.5-15 10.6-24.6-.5-5.1-5.3-8.3-7.7-12.4-3.7-6.2-4.4-13.6-3.9-20.7.9-13.5 8.7-26.9 6.6-40.6-1.2-7.9-6.9-14.1-8.9-21.8-2.4-9.3-.5-19 4.6-27 .7-.6-.6-1.3-1.1-.5z"/></g><g><path class="st1" d="M774.4-78.3C767.8-68 766.8-55.1 772-44c1.6 3.4 3.6 6.5 5 10 2 4.9 2.2 10 1.4 15.1-1.1 7.3-3.8 14.2-5.2 21.4-2.2 11-2.6 23.6 4.4 33 2.1 2.9 5.2 5.2 5.8 8.8.5 3.1-.9 6-2.4 8.6-2.3 4-5.4 7.6-7.2 11.9-1.9 4.8-.5 7.5 2.1 11.6 4.3 6.8-4.2 13.5-5.5 20.2-.2.9 1.3 1.3 1.4.4 1.1-5.5 5.7-9.5 6.8-14.9 1-5.3-4.3-7.8-4.3-12.8.1-9.2 11.5-15 10.6-24.6-.5-5.1-5.3-8.3-7.7-12.4-3.7-6.2-4.4-13.6-3.9-20.7.9-13.5 8.7-26.9 6.6-40.6-1.2-7.9-6.9-14.1-8.9-21.8-2.4-9.3-.5-19 4.6-27 .6-.6-.7-1.3-1.2-.5z"/></g><g><path class="st1" d="M736.9-36.1c6.1 10.7-5.4 21.2-3.9 32.2 1.6 11.5 16.6 18.9 12.6 31.4-.3.9 1.2 1.3 1.4.4 3.9-12.5-9.7-19.7-12.4-30.6-2.8-11.8 10.1-22.5 3.4-34.1-.3-.9-1.6-.1-1.1.7z"/></g><g><path class="st1" d="M781.6 129.4c1 5.4 1.9 10.8 2.1 16.2.2 5.3-.7 10.3-1.6 15.5-1 6.6-1.1 13.1 3.4 18.4.6.7 1.7-.3 1.1-1.1-6.3-7.5-2.5-16.9-1.6-25.5.8-8-.6-16-2-23.9-.1-1-1.5-.6-1.4.4z"/></g></svg>