<?xml version="1.0" encoding="utf-8"?>
<!-- Generator: Adobe Illustrator 16.0.4, SVG Export Plug-In . SVG Version: 6.00 Build 0)  -->
<!DOCTYPE svg PUBLIC "-//W3C//DTD SVG 1.1//EN" "http://www.w3.org/Graphics/SVG/1.1/DTD/svg11.dtd" [
	<!ENTITY ns_extend "http://ns.adobe.com/Extensibility/1.0/">
	<!ENTITY ns_ai "http://ns.adobe.com/AdobeIllustrator/10.0/">
	<!ENTITY ns_graphs "http://ns.adobe.com/Graphs/1.0/">
	<!ENTITY ns_vars "http://ns.adobe.com/Variables/1.0/">
	<!ENTITY ns_imrep "http://ns.adobe.com/ImageReplacement/1.0/">
	<!ENTITY ns_sfw "http://ns.adobe.com/SaveForWeb/1.0/">
	<!ENTITY ns_custom "http://ns.adobe.com/GenericCustomNamespace/1.0/">
	<!ENTITY ns_adobe_xpath "http://ns.adobe.com/XPath/1.0/">
]>
<svg version="1.1" id="Layer_1" xmlns:x="&ns_extend;" xmlns:i="&ns_ai;" xmlns:graph="&ns_graphs;"
	 xmlns="http://www.w3.org/2000/svg" xmlns:xlink="http://www.w3.org/1999/xlink" x="0px" y="0px" width="35px" height="35px"
	 viewBox="0 0 35 35" enable-background="new 0 0 35 35" xml:space="preserve">
<metadata>
	<sfw  xmlns="&ns_sfw;">
		<slices></slices>
		<sliceSourceBounds  bottomLeftOrigin="true" width="35" height="35" x="280" y="192"></sliceSourceBounds>
	</sfw>
</metadata>
<g id="Ebene_2_1_" display="none">
	<circle display="inline" fill="#40CFFF" cx="17.5" cy="17.5" r="17.5"/>
</g>
<g id="Ebene_1">
	<g id="Ebene_1_2_">
		<g id="Ebene_2">
			<circle fill="#FFFFFF" cx="17.5" cy="17.5" r="17"/>
		</g>
		<g id="Ebene_3">
			<circle fill="#FFFFFF" cx="17.5" cy="17.5" r="17"/>
		</g>
		<g id="Ebene_1_1_">
			<g>
				<path fill="#131819" d="M11.278,4.417c0.041-0.185,0.132,0.057,0.245,0c0.95,0.934,0.203,3.434,1.279,4.274
					c0.527,0.411,1.493,0.683,2.262,1.038c0.77,0.353,1.576,0.59,2.199,1.1c-0.433,0.727-0.87,1.45-0.916,2.565
					c-0.419,0.23-0.814-0.202-1.096,0.061c-0.343-0.727-1.207-0.496-1.468-1.284c-0.146-0.023-0.132,0.113-0.305,0.062
					c-0.05-0.154-0.168-0.242-0.184-0.426c-0.647-0.047-0.715-0.851-1.281-0.795c0.114-0.826-0.629-0.797-0.612-1.527
					c-0.928-0.294-1.052-1.391-1.099-2.564c-0.101-0.269-0.549-0.187-0.855-0.245c0.067-0.28,0.324-0.369,0.67-0.368
					c-0.133-0.23-0.494-0.236-0.732-0.366c0.259-0.238,0.562-0.116,0.978-0.121c-0.118-0.269-0.337-0.439-0.551-0.612
					c0.324-0.138,0.728,0.17,0.978,0.307c-0.077-0.329-0.146-0.667-0.368-0.853c0.415-0.15,0.684,0.372,0.855,0.673
					C11.38,5.168,11.38,4.581,11.278,4.417z"/>
				<path fill="#131819" d="M23.004,6.431c-0.637-0.1-0.67-0.797-1.102-1.096C22.712,4.779,23.743,5.796,23.004,6.431z"/>
				<path fill="#131819" d="M9.262,12.967c-0.169-0.383-0.518-0.582-0.67-0.978c0.656-0.026,0.927,0.335,1.282,0.609
					c-0.027-0.441-0.073-0.864-0.246-1.159c0.46-0.032,0.766,0.619,0.915,1.1c0.675,0.527,1.043,1.358,1.528,2.076
					c-0.518,0.029-0.662-0.315-0.975-0.489c0.479,1.252,2.412,0.374,3.724-0.06c1.007-0.334,1.973-0.561,2.811-0.792
					c-0.265-0.123-0.672,0.142-1.04,0.122c0.124-1.859,1.247-3.309,3.175-3.482c0.811-0.07,1.784-0.001,2.26-0.486
					c0.828-0.85,0.031-3.24,1.832-2.505c-0.193-0.22-0.498-0.295-0.793-0.243c-0.992,0.172-0.521,1.877-1.16,2.566
					c-0.922,0.991-2.477,0.243-4.213,0.243c-0.117-0.149-0.248-0.323-0.121-0.548c-1.175,0.212-2.813-0.223-2.137-1.467
					c0.521,1.402,2.879,0.325,4.086,0.916c0.222-0.605-0.363-0.937-1.035-0.855c-0.201,0.124-0.133,0.521-0.426,0.548
					c-0.063-0.159-0.149-0.302-0.122-0.55c-0.182,0.143-0.163,0.49-0.428,0.55c-0.22-0.684-0.135-1.304-0.121-2.078
					c1.627,0.454,2.594-0.716,4.336-0.549c0.428,0.221,0.596,0.708,0.914,1.04c0.938-0.11,1.877,0.192,1.584,1.159
					c-0.1,0.347-0.572,0.516-1.097,0.548c1.185,0.623-0.021,2.132,0.485,3.178c-0.072,0.049-0.16,0.08-0.305,0.06
					c0.242,0.228,0.17,0.764,0.369,1.037c-0.104,0.14-0.332-0.111-0.488-0.121c0.024,0.34,0.158,0.569,0.242,0.854
					c-0.125,0.122-0.404,0.047-0.546,0c0.033,0.219,0.103,0.41,0,0.611c-0.146-0.021-0.256-0.073-0.368-0.122
					c-0.047,0.226,0.104,0.26,0.061,0.488c-0.146,0.153-0.129-0.129-0.364-0.062c-0.01,1.54,0.04,3.066,0.548,4.033
					c0.428,0.815,1.315,1.431,1.098,2.809c-0.141,0.144-0.162-0.096-0.303-0.124c0,0.163,0.021,0.35-0.062,0.428
					c-0.406,0.021-0.303-0.471-0.61-0.549c0.61,1.228,0.099,2.779,0.245,4.215c0.152,1.502,1.104,2.685,1.465,3.848
					c-0.341,0.63-0.796,1.113-1.525,1.467c-0.78,0.373-2.082,0.204-1.897,1.466c-0.333-0.131-0.524-0.405-0.545-0.854
					c-0.442,0.025-0.536,0.402-0.729,0.67c-0.34-0.219-0.117-0.805,0-1.1c-0.396,0.076-0.586,0.355-0.918,0.488
					c-0.023-0.531,0.258-0.757,0.487-1.037c-0.414-0.047-0.655,0.076-0.978,0.119c0.095-0.434,0.406-0.65,0.791-0.79
					c-0.266-0.144-0.531-0.284-0.916-0.312c0.186-0.319,0.811-0.457,1.285-0.303c0.531-0.406,1.637-0.354,2.26-0.062
					c0.021,0.221,0.082,0.41,0.182,0.55c0.447-1.123-0.699-1.699-1.1-2.383c-0.098,0.025-0.051,0.191-0.244,0.121
					c-0.028-0.219-0.166-0.324-0.125-0.611c-0.26-0.095,0.016,0.344-0.246,0.245c-0.02-0.224-0.146-0.338-0.184-0.55
					c-0.051-0.162-0.135,0.189-0.242,0c-0.121-0.139-0.121-0.406-0.184-0.611c-0.16-0.017-0.051,0.237-0.244,0.186
					c-0.078-0.192-0.215-0.563-0.063-0.793c-0.046-0.215-0.284,0.185-0.304,0c-0.041-0.246,0.058-0.35,0.062-0.547
					c-0.045-0.227-0.188,0.024-0.307-0.121c-0.048-1.11,0.53-2.059,0.427-2.935c-0.177-1.475-2.253-2.532-2.381-4.151
					c1.279-0.021,2.206-0.397,2.381-1.526c-0.372,0.112-0.404,0.704-0.795,0.975c-0.572,0.403-1.368,0.405-2.26,0.304
					c-0.135-0.031-0.084,0.119-0.183,0.122c-0.992-0.208-1.959,0.274-2.809-0.184c-0.173,0.015-0.077,0.293-0.306,0.247
					c-0.119-0.125-0.286-0.201-0.426-0.307c-1.824,0.646-2.3-2.733-4.334-1.528c-0.188-0.43,0.333-0.682,0.671-0.794
					c-0.117-0.267-0.538-0.233-0.793-0.365c0.064-0.322,0.481-0.289,0.793-0.368c0.05-0.292-0.65-0.363-0.793-0.67
					C8.481,12.694,8.99,12.821,9.262,12.967z M20.868,7.163c-0.136-0.009-0.134-0.151-0.123-0.305
					c-0.166-0.043-0.123,0.121-0.243,0.123c0.02,0.395,0.705,0.384,0.791,0.06c-0.061-0.03-0.201-0.275-0.243-0.124
					C21.203,6.98,21.001,7.189,20.868,7.163z M17.508,7.896c0.189-0.014,0.19-0.216,0.246-0.365c-0.082,0-0.164,0-0.246,0
					C17.508,7.651,17.508,7.774,17.508,7.896z M18.057,7.896c0.2-0.003,0.232-0.173,0.242-0.365c-0.08,0-0.16,0-0.242,0
					C18.057,7.651,18.057,7.774,18.057,7.896z M18.18,9.058c0.079,0,0.166,0,0.244,0c-0.025-0.158-0.085-0.283-0.182-0.365
					C18.242,8.834,18.137,8.871,18.18,9.058z M17.628,9.058c0.082,0,0.163,0,0.246,0c-0.021-0.141-0.063-0.264-0.183-0.306
					C17.641,8.824,17.611,8.917,17.628,9.058z M18.547,9.058c0.402-0.003,0.879,0.066,0.975-0.247
					c-0.301-0.084-0.711-0.057-1.098-0.06C18.414,8.904,18.518,8.94,18.547,9.058z M18.117,9.058c0-0.081,0-0.164,0-0.247
					c-0.061,0-0.12,0-0.182,0C17.919,8.974,17.958,9.077,18.117,9.058z"/>
				<path fill="#FFFFFF" d="M17.508,7.529c0.081,0,0.164,0,0.246,0c-0.056,0.15-0.056,0.354-0.246,0.365
					C17.508,7.774,17.508,7.651,17.508,7.529z"/>
				<path fill="#FFFFFF" d="M18.057,7.529c0.082,0,0.162,0,0.242,0c-0.01,0.193-0.042,0.362-0.242,0.365
					C18.057,7.774,18.057,7.651,18.057,7.529z"/>
				<path fill="#FFFFFF" d="M18.238,8.69c0.099,0.083,0.158,0.209,0.186,0.365c-0.081,0-0.165,0-0.244,0
					C18.137,8.871,18.242,8.834,18.238,8.69z"/>
				<path fill="#FFFFFF" d="M17.874,9.058c-0.082,0-0.164,0-0.246,0c-0.02-0.141,0.01-0.233,0.063-0.306"/>
				<path fill="#131819" d="M17.936,8.811c0.062,0,0.121,0,0.182,0c0,0.083,0,0.165,0,0.247C17.958,9.077,17.919,8.974,17.936,8.811
					z"/>
				<path fill="#131819" d="M19.096,21.82c-3.521-0.299-3.483,3.748-2.81,6.595c-0.636,0.724-2.355,0.714-3.603,0.548
					c-0.527-0.068-0.979-0.066-1.16,0.488c-0.236-0.07-0.212-0.514-0.123-0.73c-0.143-0.101-0.393,0.217-0.611,0.242
					c-0.069-0.414,0.133-0.559,0.243-0.79c-0.324,0.022-0.512,0.179-0.792,0.244c0.077-0.37,0.262-0.636,0.609-0.731
					c-0.091-0.191-0.468-0.104-0.732-0.119c0.027-0.385,0.363-0.455,0.732-0.491c-0.097-0.226-0.461-0.191-0.67-0.306
					c0.979-0.812,2.506,0.604,3.359-0.062c0.141,0.145,0.162,0.406,0.365,0.491c0.182-0.75-0.837-1.417-0.365-2.261
					c-0.117-0.117-0.154-0.008-0.306,0c-0.036-0.362,0.07-0.584,0.184-0.793c-0.062-0.103-0.259-0.067-0.368-0.123
					c0.088-0.244,0.376-0.715-0.062-0.795c0.112-0.213,0.298-0.354,0.368-0.61c0.046-0.251-0.293-0.114-0.246-0.364
					c0.165-0.199,0.308-0.425,0.487-0.611c0.046-0.207-0.249-0.074-0.183-0.305c0.168-0.221,0.382-0.393,0.55-0.611
					c-0.017-0.127-0.164-0.121-0.243-0.184c0.575-0.734,1.833-1.396,3.113-1.344c0.299,0.014,0.792,0.005,1.099,0.121
					C18.458,19.52,19.301,20.881,19.096,21.82z"/>
				<path fill="#FFFFFF" d="M21.05,6.92c0.042-0.154,0.185,0.091,0.243,0.121c-0.086,0.324-0.773,0.333-0.791-0.06
					c0.119-0.002,0.077-0.168,0.243-0.123c-0.011,0.154-0.013,0.298,0.123,0.306C21.001,7.189,21.203,6.98,21.05,6.92z"/>
			</g>
		</g>
	</g>
</g>
<path id="border" fill="#CCCCCC" d="M17.5,1C26.6,1,34,8.401,34,17.5C34,26.6,26.6,34,17.5,34C8.402,34,1,26.598,1,17.5
	C1,8.402,8.402,1,17.5,1 M17.5,0C7.835,0,0,7.834,0,17.5C0,27.164,7.835,35,17.5,35S35,27.164,35,17.5C35,7.834,27.165,0,17.5,0
	L17.5,0z"/>
</svg>
