<svg id="Layer_1" xmlns="http://www.w3.org/2000/svg" viewBox="0 0 117.8 191.7"><style>.st4{fill:#676767}.st9{opacity:.7;fill:#fff;enable-background:new}</style><path d="M47.7 15.5c.2-.1.3-.2.6-.4 1.2-.9 2.7-2.8 1.1-5-1.4-1.9-3.8-2-5.8-.5s-2.4 3.7-1 5.7c.8 1.1 1.5 1.6 2 1.9l.7-.8c-.5-.3-1-.7-1.7-1.6-.9-1.2-1-2.7.6-4l3.5 4.7zm-2.5-5.3c.9-.5 2.4-.8 3.3.4 1 1.4 0 2.6-.7 3.1l-2.6-3.5z" fill="#010101"/><linearGradient id="SVGID_1_" gradientUnits="userSpaceOnUse" x1="306.196" y1="571.835" x2="306.196" y2="547.511" gradientTransform="matrix(-.2322 .9687 .9068 .2481 -376.207 -343.795)"><stop offset="0" stop-color="#aeb3b6"/><stop offset=".126" stop-color="#f4f6f8"/><stop offset=".225" stop-color="#aeb3b6"/><stop offset=".332" stop-color="#e2e4e4"/><stop offset=".494" stop-color="#f2f2f2"/><stop offset=".622" stop-color="#acadae"/><stop offset=".813" stop-color="#3d3f41"/><stop offset=".844" stop-color="#434648"/><stop offset=".888" stop-color="#55585b"/><stop offset=".941" stop-color="#727579"/><stop offset=".999" stop-color="#999ea4"/><stop offset="1" stop-color="#9a9fa5"/></linearGradient><path d="M51.7 92.8c-1.9-.5-3.1-2.5-2.6-4.4s2.4-3.1 4.4-2.6l15.3 4c1.9.5 3.1 2.5 2.6 4.4s-2.4 4.1-4.3 3.6l-15.4-5z" fill="url(#SVGID_1_)"/><linearGradient id="SVGID_2_" gradientUnits="userSpaceOnUse" x1="315.175" y1="567.644" x2="315.175" y2="550.839" gradientTransform="matrix(-.2322 .9687 .9068 .2481 -376.207 -343.795)"><stop offset="0" stop-color="#aeb3b6"/><stop offset=".126" stop-color="#f4f6f8"/><stop offset=".225" stop-color="#aeb3b6"/><stop offset=".332" stop-color="#e2e4e4"/><stop offset=".494" stop-color="#f2f2f2"/><stop offset=".622" stop-color="#acadae"/><stop offset=".813" stop-color="#3d3f41"/><stop offset=".844" stop-color="#434648"/><stop offset=".888" stop-color="#55585b"/><stop offset=".941" stop-color="#727579"/><stop offset=".999" stop-color="#999ea4"/><stop offset="1" stop-color="#9a9fa5"/></linearGradient><path d="M48.7 104l2.6-11.4 15.3 3.9L64 108l-15.3-4z" fill="url(#SVGID_2_)"/><linearGradient id="SVGID_3_" gradientUnits="userSpaceOnUse" x1="364.729" y1="571.88" x2="364.729" y2="548.131" gradientTransform="matrix(-.2322 .9687 .9068 .2481 -376.207 -343.795)"><stop offset="0" stop-color="#010101"/><stop offset=".012" stop-color="#0d0d0d"/><stop offset=".059" stop-color="#2d2e2d"/><stop offset=".102" stop-color="#464646"/><stop offset=".143" stop-color="#555554"/><stop offset=".176" stop-color="#595a5a"/><stop offset="1" stop-color="#010101"/></linearGradient><path d="M32.3 189.4c-3.6-.9-5.8-3.7-4.8-7.3l17-72c.9-3.7 4.6-5.9 8.1-4.9l8.1 2.1c3.6.9 5.8 4.7 4.9 8.3l-17.1 71c-.9 3.7-4.6 5.9-8.1 4.9l-8.1-2.1z" fill="url(#SVGID_3_)"/><path class="st4" d="M39.3 189.2c-1.6-.4-2.2-2.6-1.3-6.2l16-68.3c.9-3.5 3-6.1 4.6-5.6l3.8 1c1.6.4 2.3 3.6 1.4 7.2l-16.2 68.4c-.9 3.5-3 5.1-4.6 4.6l-3.7-1.1z"/><linearGradient id="SVGID_4_" gradientUnits="userSpaceOnUse" x1="323.186" y1="570.972" x2="323.186" y2="548.646" gradientTransform="matrix(-.2322 .9687 .9068 .2481 -376.207 -343.795)"><stop offset="0" stop-color="#aeb3b6"/><stop offset=".126" stop-color="#f4f6f8"/><stop offset=".225" stop-color="#aeb3b6"/><stop offset=".332" stop-color="#e2e4e4"/><stop offset=".494" stop-color="#f2f2f2"/><stop offset=".622" stop-color="#acadae"/><stop offset=".813" stop-color="#3d3f41"/><stop offset=".844" stop-color="#434648"/><stop offset=".888" stop-color="#55585b"/><stop offset=".941" stop-color="#727579"/><stop offset=".999" stop-color="#999ea4"/><stop offset="1" stop-color="#9a9fa5"/></linearGradient><path d="M45.6 107.5l1-4 20.4 5.3-1 4-20.4-5.3z" fill="url(#SVGID_4_)"/><linearGradient id="SVGID_5_" gradientUnits="userSpaceOnUse" x1="-853.167" y1="553.082" x2="-754.159" y2="553.082" gradientTransform="matrix(-.9361 0 0 1 -680.864 -506)"><stop offset="0" stop-color="#ccc"/><stop offset=".176" stop-color="#fff"/><stop offset="1" stop-color="#6f6f6f"/></linearGradient><path d="M59.9 92.7c-24.7-6.5-39.7-32.1-33.4-57.3S58.1-5 82.9 1.5s39.7 32.1 33.4 57.3c-6.4 25.1-31.7 40.3-56.4 33.9zm2.2-8.7c20.1 5.2 40.5-7.1 45.6-27.5 5.2-20.4-7-41.2-27-46.5-20.1-5.2-40.5 7.1-45.6 27.5C29.9 58 42 78.8 62.1 84z" fill="url(#SVGID_5_)"/><linearGradient id="SVGID_6_" gradientUnits="userSpaceOnUse" x1="-851.717" y1="553.049" x2="-755.282" y2="553.049" gradientTransform="matrix(-.9361 0 0 1 -680.864 -506)"><stop offset="0" stop-color="#fff"/><stop offset="1" stop-color="#b0b1b1"/></linearGradient><path d="M60.1 91.6c-24.1-6.3-38.7-31.4-32.6-56S58.3-3.8 82.4 2.5s38.7 31.4 32.6 56C108.9 83 84.3 97.9 60.1 91.6zm2-7.6c20.1 5.2 40.5-7.1 45.6-27.5 5.2-20.4-7-41.2-27-46.5-20.1-5.2-40.5 7.1-45.6 27.5C29.9 58 42 78.8 62.1 84z" fill="url(#SVGID_6_)"/><radialGradient id="SVGID_7_" cx="191.687" cy="510.183" r="33.85" gradientTransform="matrix(-.2745 1.0926 1.073 .2802 -423.366 -305.388)" gradientUnits="userSpaceOnUse"><stop offset="0" stop-color="#bde7fb"/><stop offset=".398" stop-color="#bbe6fb"/><stop offset=".565" stop-color="#b4e4fa"/><stop offset=".688" stop-color="#a9e0f9"/><stop offset=".791" stop-color="#97dbf8"/><stop offset=".88" stop-color="#81d4f7"/><stop offset=".958" stop-color="#65cdf6"/><stop offset="1" stop-color="#58c7f3"/></radialGradient><path d="M62.1 84c-20.1-5.2-32.2-26-27-46.5C40.3 17.1 60.6 4.8 80.7 10s32.2 26 27 46.5C102.6 76.9 82.2 89.2 62.1 84z" opacity=".2" fill="url(#SVGID_7_)"/><path class="st9" d="M102.6 58.1c.2-.9.4-1.8.6-2.8-5.6 16.4-22.6 25.9-39.3 21.5-16.8-4.4-27.2-21.1-24.3-38.2-.3.9-.6 1.8-.8 2.7-4.6 18 6.2 36.3 23.8 40.9 17.6 4.7 35.6-6.1 40-24.1z"/><path class="st9" d="M69.6 56.3c-14.7-3.8-24.1-16.4-21.3-28 2.9-11.6 17.2-18 31.9-14.1 14.7 3.8 24.1 16.4 21.3 28-3 11.6-17.2 17.9-31.9 14.1z"/><linearGradient id="SVGID_8_" gradientUnits="userSpaceOnUse" x1="-762.532" y1="553.002" x2="-844.45" y2="553.002" gradientTransform="matrix(-.9361 0 0 1 -680.864 -506)"><stop offset="0" stop-color="#fff"/><stop offset="1" stop-color="#6f6f6f"/></linearGradient><path d="M61.8 85.1C41.1 79.7 28.6 58.3 34 37.2c5.3-21 26.3-33.7 47-28.3 20.7 5.4 33.2 26.8 27.8 47.9-5.3 21-26.3 33.7-47 28.3zm.3-1.1c20.1 5.2 40.5-7.1 45.6-27.5 5.2-20.4-7-41.2-27-46.5-20.1-5.2-40.5 7.1-45.6 27.5C29.9 58 42 78.8 62.1 84z" fill="url(#SVGID_8_)"/><radialGradient id="SVGID_9_" cx="-349.695" cy="-310.359" r="26.06" gradientTransform="matrix(1.096 .1624 .1599 -1.1162 478.25 -148.591)" gradientUnits="userSpaceOnUse"><stop offset="0" stop-color="#fdc78a"/><stop offset=".575" stop-color="#fdc389"/><stop offset=".962" stop-color="#fbb986"/><stop offset="1" stop-color="#fbb885"/></radialGradient><path d="M28.6 167.8c-21.4-7-11.1-64.3 16.3-57.5s28.4 5.8 29.5 16.2-.5 6-6.5 11.6c2.8 2.7 3 13.8-2.5 18 2.2 6.4-.7 19-11.3 17-10.7-2-25.5-5.3-25.5-5.3" fill="url(#SVGID_9_)"/><linearGradient id="SVGID_10_" gradientUnits="userSpaceOnUse" x1="-727.386" y1="-457.897" x2="-766.67" y2="-457.897" gradientTransform="matrix(-.9361 0 0 -1 -680.864 -319.394)"><stop offset="0" stop-color="#6f4e2e"/><stop offset="1" stop-color="#785634"/></linearGradient><path d="M26.4 171.1s-21.6-37.7 10.4-65.2c-8.9 1-20.2 3-24.9 3.6-9 5.4-18.1 33.3-6.4 56 7.4 3.3 9.9 3.7 20.9 5.6z" fill="url(#SVGID_10_)"/><linearGradient id="SVGID_11_" gradientUnits="userSpaceOnUse" x1="-746.784" y1="-457.743" x2="-771.59" y2="-457.743" gradientTransform="matrix(-.9361 0 0 -1 -680.864 -319.394)"><stop offset="0" stop-color="#6f4e2e"/><stop offset="1" stop-color="#785634"/></linearGradient><path d="M41.1 109.6l-2.5.1c-3.8-.8-24.9 16.4-12.8 56 1.8 4.5 2.8.7 2.8.7s-1.4 8.8-4.7 2.3c-13.7-26.8-.8-61.3 14.2-63.1 4.4.7 3 4 3 4z" fill="url(#SVGID_11_)"/><linearGradient id="SVGID_12_" gradientUnits="userSpaceOnUse" x1="306.196" y1="571.835" x2="306.196" y2="547.511" gradientTransform="matrix(-.2322 .9687 .9068 .2481 -376.207 -343.795)"><stop offset="0" stop-color="#aeb3b6"/><stop offset=".126" stop-color="#f4f6f8"/><stop offset=".225" stop-color="#aeb3b6"/><stop offset=".332" stop-color="#e2e4e4"/><stop offset=".494" stop-color="#f2f2f2"/><stop offset=".622" stop-color="#acadae"/><stop offset=".813" stop-color="#3d3f41"/><stop offset=".844" stop-color="#434648"/><stop offset=".888" stop-color="#55585b"/><stop offset=".941" stop-color="#727579"/><stop offset=".999" stop-color="#999ea4"/><stop offset="1" stop-color="#9a9fa5"/></linearGradient><path d="M51.7 92.8c-1.9-.5-3.1-2.5-2.6-4.4s2.4-3.1 4.4-2.6l15.3 4c1.9.5 3.1 2.5 2.6 4.4s-2.4 4.1-4.3 3.6l-15.4-5z" fill="url(#SVGID_12_)"/><linearGradient id="SVGID_13_" gradientUnits="userSpaceOnUse" x1="315.175" y1="567.644" x2="315.175" y2="550.839" gradientTransform="matrix(-.2322 .9687 .9068 .2481 -376.207 -343.795)"><stop offset="0" stop-color="#aeb3b6"/><stop offset=".126" stop-color="#f4f6f8"/><stop offset=".225" stop-color="#aeb3b6"/><stop offset=".332" stop-color="#e2e4e4"/><stop offset=".494" stop-color="#f2f2f2"/><stop offset=".622" stop-color="#acadae"/><stop offset=".813" stop-color="#3d3f41"/><stop offset=".844" stop-color="#434648"/><stop offset=".888" stop-color="#55585b"/><stop offset=".941" stop-color="#727579"/><stop offset=".999" stop-color="#999ea4"/><stop offset="1" stop-color="#9a9fa5"/></linearGradient><path d="M48.7 104l2.6-11.4 15.3 3.9L64 108l-15.3-4z" fill="url(#SVGID_13_)"/><linearGradient id="SVGID_14_" gradientUnits="userSpaceOnUse" x1="364.729" y1="571.88" x2="364.729" y2="548.131" gradientTransform="matrix(-.2322 .9687 .9068 .2481 -376.207 -343.795)"><stop offset="0" stop-color="#010101"/><stop offset=".012" stop-color="#0d0d0d"/><stop offset=".059" stop-color="#2d2e2d"/><stop offset=".102" stop-color="#464646"/><stop offset=".143" stop-color="#555554"/><stop offset=".176" stop-color="#595a5a"/><stop offset="1" stop-color="#010101"/></linearGradient><path d="M32.3 189.4c-3.6-.9-5.8-3.7-4.8-7.3l17-72c.9-3.7 4.6-5.9 8.1-4.9l8.1 2.1c3.6.9 5.8 4.7 4.9 8.3l-17.1 71c-.9 3.7-4.6 5.9-8.1 4.9l-8.1-2.1z" fill="url(#SVGID_14_)"/><path class="st4" d="M39.3 189.2c-1.6-.4-2.2-2.6-1.3-6.2l16-68.3c.9-3.5 3-6.1 4.6-5.6l3.8 1c1.6.4 2.3 3.6 1.4 7.2l-16.2 68.4c-.9 3.5-3 5.1-4.6 4.6l-3.7-1.1z"/><linearGradient id="SVGID_15_" gradientUnits="userSpaceOnUse" x1="323.186" y1="570.972" x2="323.186" y2="548.646" gradientTransform="matrix(-.2322 .9687 .9068 .2481 -376.207 -343.795)"><stop offset="0" stop-color="#aeb3b6"/><stop offset=".126" stop-color="#f4f6f8"/><stop offset=".225" stop-color="#aeb3b6"/><stop offset=".332" stop-color="#e2e4e4"/><stop offset=".494" stop-color="#f2f2f2"/><stop offset=".622" stop-color="#acadae"/><stop offset=".813" stop-color="#3d3f41"/><stop offset=".844" stop-color="#434648"/><stop offset=".888" stop-color="#55585b"/><stop offset=".941" stop-color="#727579"/><stop offset=".999" stop-color="#999ea4"/><stop offset="1" stop-color="#9a9fa5"/></linearGradient><path d="M45.6 107.5l1-4 20.4 5.3-1 4-20.4-5.3z" fill="url(#SVGID_15_)"/><linearGradient id="SVGID_16_" gradientUnits="userSpaceOnUse" x1="-853.167" y1="553.082" x2="-754.159" y2="553.082" gradientTransform="matrix(-.9361 0 0 1 -680.864 -506)"><stop offset="0" stop-color="#ccc"/><stop offset=".176" stop-color="#fff"/><stop offset="1" stop-color="#6f6f6f"/></linearGradient><path d="M59.9 92.7c-24.7-6.5-39.7-32.1-33.4-57.3S58.1-5 82.9 1.5s39.7 32.1 33.4 57.3c-6.4 25.1-31.7 40.3-56.4 33.9zm2.2-8.7c20.1 5.2 40.5-7.1 45.6-27.5 5.2-20.4-7-41.2-27-46.5-20.1-5.2-40.5 7.1-45.6 27.5C29.9 58 42 78.8 62.1 84z" fill="url(#SVGID_16_)"/><linearGradient id="SVGID_17_" gradientUnits="userSpaceOnUse" x1="-851.717" y1="553.049" x2="-755.282" y2="553.049" gradientTransform="matrix(-.9361 0 0 1 -680.864 -506)"><stop offset="0" stop-color="#fff"/><stop offset="1" stop-color="#b0b1b1"/></linearGradient><path d="M60.1 91.6c-24.1-6.3-38.7-31.4-32.6-56S58.3-3.8 82.4 2.5s38.7 31.4 32.6 56C108.9 83 84.3 97.9 60.1 91.6zm2-7.6c20.1 5.2 40.5-7.1 45.6-27.5 5.2-20.4-7-41.2-27-46.5-20.1-5.2-40.5 7.1-45.6 27.5C29.9 58 42 78.8 62.1 84z" fill="url(#SVGID_17_)"/><linearGradient id="SVGID_18_" gradientUnits="userSpaceOnUse" x1="-762.532" y1="553.002" x2="-844.45" y2="553.002" gradientTransform="matrix(-.9361 0 0 1 -680.864 -506)"><stop offset="0" stop-color="#fff"/><stop offset="1" stop-color="#6f6f6f"/></linearGradient><path d="M61.8 85.1C41.1 79.7 28.6 58.3 34 37.2c5.3-21 26.3-33.7 47-28.3 20.7 5.4 33.2 26.8 27.8 47.9-5.3 21-26.3 33.7-47 28.3zm.3-1.1c20.1 5.2 40.5-7.1 45.6-27.5 5.2-20.4-7-41.2-27-46.5-20.1-5.2-40.5 7.1-45.6 27.5C29.9 58 42 78.8 62.1 84z" fill="url(#SVGID_18_)"/><radialGradient id="SVGID_19_" cx="-349.51" cy="-310.353" r="25.974" gradientTransform="matrix(1.096 .1624 .1599 -1.1162 478.25 -148.591)" gradientUnits="userSpaceOnUse"><stop offset="0" stop-color="#fdc78a"/><stop offset=".575" stop-color="#fdc389"/><stop offset=".962" stop-color="#fbb986"/><stop offset="1" stop-color="#fbb885"/></radialGradient><path d="M28.6 167.8c-21.4-7-9.8-64.3 16.3-57.5 27.3 7.1 28.4 5.8 29.5 16.2s-.5 6-6.5 11.6c2.8 2.7 3 13.8-2.5 18 2.2 6.4-.7 19-11.3 17-10.7-2-25.5-5.3-25.5-5.3" fill="url(#SVGID_19_)"/></svg>