<svg xmlns="http://www.w3.org/2000/svg" width="35" height="35"><path fill="#EA3648" d="M17.655.812C8.437.812.808 8.297.808 17.508c0 .045.005.093.005.139h17.01V34.17c9.068-.178 16.365-7.562 16.365-16.661 0-9.212-7.316-16.697-16.533-16.697z"/><path fill="#FFF" d="M17.823 34.188v-.018c-.11 0-.216.018-.325.018h.325z"/><path fill="#FFF" d="M.813 17.647c.077 9.146 7.514 16.541 16.685 16.541.109 0 .215-.019.325-.019V17.647H.813z"/><path fill="#FFF" d="M11.588 7.307v10.401h.943V7.237c-.219-.074-.587-.012-.868-.033-.047.017-.078.046-.075.103zm10.871 0v9.38h.643V7.205h-.604c-.044.008-.041.054-.039.102zm1.21 0v9.38h.644V7.205h-.606c-.044.008-.04.054-.038.102zm-15.593.509c-.089.375-.014.897-.039 1.327.404.021.904-.043 1.247.034-.02.231.043.539-.037.713H8.038v1.292h1.436v-.817c.188.022.477-.043.604.034v.784c.22.017.521-.037.679.034-.024.226.049.543-.038.713h-.642c-.022.275.045.63-.038.85-.184-.016-.441.033-.565-.034v-.816H8.038v1.291c.344.077.842.013 1.248.033-.024.229.048.545-.038.714H8.039c.026.434-.049.951.039 1.327h1.397v-.85c.188.021.477-.043.604.034v.815h1.434c-.023-2.482.051-5.052-.038-7.477-.456.022-1.005-.043-1.396.035v.815c-.191-.022-.479.046-.606-.034v-.815c-.464-.002-.931-.002-1.397-.002zm10.459.036v.951c.172.017.41-.033.525.033v1.157h-.525v.985h1.131c.021-.353-.046-.79.038-1.087.243.02.573-.039.757.034v1.053h.678c-.025.374.051.838-.037 1.155h-.641v1.087c-.253-.021-.604.045-.795-.035v-1.052c-.369.02-.828-.042-1.133.034v.953c.173.013.412-.035.527.035v1.152h-.527c.021.322-.047.723.037.988h1.096c.02-.353-.046-.792.036-1.086.243.019.573-.04.758.034v1.053h.979c.025-.351-.047-.794.037-1.086h.871V8.908h-.908V7.82h-.979v1.088c-.254-.023-.604.045-.796-.036V7.819c-.367.019-.825-.045-1.129.033zm6.832-.036c-.111.287.035.804-.077 1.088h-.868v5.302h.907v1.086h.983v-1.086c.252.019.604-.047.791.034v1.053h1.101v-.988c-.153-.021-.406.045-.495-.035.021-.375-.047-.835.037-1.153h.458v-.986h-1.101v1.086c-.252-.021-.604.045-.791-.035V12.13h-.681c.022-.374-.052-.838.036-1.156h.645c.021-.353-.049-.79.037-1.087.242.02.571-.038.754.035v1.053h1.101V9.99c-.153-.022-.406.041-.495-.035.021-.375-.047-.833.037-1.155h.458v-.986h-1.101v1.088c-.25-.022-.604.046-.791-.034V7.814c-.318.002-.63.002-.945.002zm-3.172 8.974c-.168.078-.114.35-.038.474h2.454a.495.495 0 0 0 .037-.44c-.741-.08-1.645-.014-2.453-.034zm-.151 1.458c.808.059 1.876.059 2.683 0 .207-.165.193-.68 0-.847-.795-.078-1.75-.012-2.605-.038-.292.106-.292.707-.078.885zm.19.136c-.18.06-.184.343-.077.478.731.058 1.724.058 2.454 0 .082-.108.084-.258.037-.405-.658-.154-1.627-.029-2.414-.073zm.225.716c-.059.358.074.812-.225.885-.241.061-.623-.383-.797-.508-.32-.248-.74-.552-1.319-.444-.994.175-1.661 1.805-1.661 3.161.001 1.137.465 2.299 1.096 2.785.465.354 1.213.354 1.735.104.329-.157.521-.471.907-.579-.747 1.208-.521 4.093 1.02 4.28 1.254.154 1.831-1.406 1.812-2.514-.012-.709-.332-1.295-.416-1.804.66.578 1.683 1.171 2.568.542 1.541-1.078 1.354-4.719-.039-5.742-.117-.084-.348-.211-.488-.234-1.187-.221-1.266.822-2.153.951-.24-.17-.164-.623-.187-.987h-.643c-.006.903-.1 2.172.792 2.241.922.074 1.091-.94 1.923-.914.771.023 1.09 1.025 1.137 1.561.078.919-.301 2.03-1.098 2.143-.85.123-1.264-.861-2.001-.746-.585.094-.528.966-.415 1.496.135.606.369 1.217.305 1.766-.054.434-.34 1.1-.946 1.088-.597-.012-.863-.664-.905-1.154-.047-.55.189-1.195.303-1.732.108-.523.188-1.385-.455-1.463-.724-.088-1.129.871-1.963.748-1.18-.17-1.326-2.326-.753-3.193.134-.204.438-.502.794-.51.807-.022 1.043 1.025 1.963.915.842-.101.764-1.291.754-2.242-.2.05-.627-.114-.645.1zm-12.271 5.404c.042-.08.187-.059.228-.139-.138 0-.145-.116-.228-.168.054.126-.096.25 0 .307zm3.514-.104c.115.013.168.072.263.104-.034-.093-.013-.242-.076-.307 0 .126-.131.126-.187.203zm-4.381.886c.132.051.178.18.264.267-.007-.15.146-.341.076-.438-.077.089-.243.096-.34.171zm5.248.267c.01-.158.166-.188.227-.305-.174 0-.246-.098-.377-.134.036.159.07.324.15.439z"/><path fill="#FFF" d="M11.663 7.206c.28.021.648-.041.868.033V17.71h-.943V7.309c-.003-.059.028-.088.075-.103zm10.834 0h.604v9.482h-.644v-9.38c0-.049-.003-.095.04-.102zm1.208 0h.607v9.482h-.645v-9.38c0-.049-.004-.095.038-.102zm-14.232.61v.815c.127.082.415.014.605.036v-.815c.392-.078.942-.013 1.396-.035.088 2.425.014 4.995.038 7.477h-1.434v-.815c-.128-.077-.417-.013-.604-.034v.85H8.077c-.087-.377-.013-.893-.039-1.327h1.209c.086-.169.013-.485.038-.714-.406-.02-.903.045-1.248-.033V11.93h1.436v.816c.124.066.381.019.566.034.083-.219.016-.573.038-.85h.642c.087-.17.014-.487.038-.713-.158-.071-.46-.018-.679-.034v-.784c-.129-.078-.417-.012-.604-.034v.817H8.038V9.89h1.209c.08-.174.017-.482.037-.713-.343-.078-.843-.013-1.247-.034.026-.43-.049-.952.039-1.327h1.397zm10.193 0v1.053c.189.08.54.012.795.036V7.817h.979v1.088h.908v5.302h-.869c-.086.293-.013.735-.039 1.086h-.979V14.24c-.184-.075-.516-.015-.757-.034-.084.294-.019.734-.038 1.086H18.57c-.084-.265-.016-.665-.035-.988h.525v-1.152c-.115-.069-.354-.021-.525-.035v-.953c.304-.076.762-.013 1.131-.034v1.052c.189.079.542.013.796.035V12.13h.64c.088-.316.014-.781.037-1.155h-.677V9.922c-.185-.073-.515-.014-.758-.034-.082.297-.017.734-.036 1.087h-1.133V9.99h.527V8.833c-.115-.066-.355-.018-.527-.033v-.951c.304-.075.762-.011 1.131-.033zm6.646 0v1.053c.187.08.539.012.791.036V7.817h1.1v.986h-.457c-.085.321-.016.78-.037 1.155.09.077.341.013.494.036v.985h-1.1V9.925c-.181-.072-.511-.015-.753-.035-.088.297-.016.735-.037 1.088h-.645c-.088.317-.014.781-.035 1.155h.68v1.052c.187.079.539.013.791.035v-1.087h1.1v.986h-.457c-.085.318-.016.778-.037 1.153.09.081.341.013.494.035v.988h-1.1v-1.053c-.188-.081-.539-.015-.791-.034v1.086h-.982v-1.086h-.908V8.906h.869c.111-.284-.034-.801.075-1.088.315-.002.627-.002.945-.002zm-1.664 9.008a.501.501 0 0 1-.037.44h-2.454c-.076-.124-.13-.397.038-.474.808.02 1.712-.046 2.453.034zm-2.528.539c.854.026 1.812-.04 2.604.038.194.167.207.682 0 .847-.806.059-1.873.059-2.682 0-.212-.178-.212-.779.078-.885zm2.528 1.092c.047.146.045.297-.037.406a17.63 17.63 0 0 1-2.454 0c-.104-.135-.103-.418.077-.479.787.046 1.756-.079 2.414.073zm-1.544.542c.008.951.086 2.142-.756 2.242-.918.11-1.156-.939-1.963-.915-.354.008-.66.305-.793.51-.574.867-.426 3.023.752 3.193.836.123 1.24-.834 1.963-.748.646.078.564.939.457 1.463-.115.537-.35 1.184-.305 1.732.042.49.311 1.145.906 1.154.605.012.894-.654.947-1.088.063-.549-.172-1.158-.305-1.766-.113-.529-.17-1.404.414-1.496.737-.115 1.15.869 2.001.746.795-.112 1.177-1.223 1.097-2.143-.045-.533-.365-1.535-1.136-1.561-.833-.024-1.001.988-1.923.914-.891-.069-.797-1.338-.792-2.241h.644c.021.364-.056.817.187.987.888-.129.966-1.172 2.151-.951.143.023.373.15.49.234 1.394 1.023 1.578 4.664.037 5.742-.887.629-1.906.036-2.566-.543.084.51.404 1.096.414 1.805.02 1.106-.56 2.668-1.812 2.515-1.54-.188-1.767-3.073-1.019-4.281-.389.108-.579.422-.907.579-.522.251-1.271.251-1.735-.104-.633-.486-1.095-1.648-1.096-2.785-.002-1.356.667-2.986 1.66-3.161.58-.106.999.196 1.32.444.174.125.556.567.795.506.3-.071.168-.523.225-.883.021-.211.448-.047.648-.1z"/><path fill="#EA3648" d="M15.873 19.386c-.122-.09-.35-.214-.492-.235-1.187-.219-.842.849-1.926.869.548-.494-.362-1.064-.362-1.221-.144-.131-.321-.682-.562-1.094h-.453v.007h-.029c-.165 0-.287-.003-.461-.003-.241.378-.403.932-.496 1.082-.037.146-.755.631-.372 1.259-.02-.007-.257-.135-.637-.276-.641-.293-1.427-.127-1.755.137-.258.062-1.273 1.229-1.271 2.585.001.87.128 2.536 1.731 2.791-.215.185-.212.374-.24.476.063.799.654.911.963.574.031.53.149.832.263 1.172.358.73.77 1.393 2.329 1.393a2.282 2.282 0 0 0 2.297-1.545c.112-.321.312-.434.207-1.049.657.57 1.266-.188.718-1.06 2.472-.339 1.941-4.844.548-5.862zm-.918 5.012c-.237.045-.688-.107-.427-1.115-.143-.053-.292.074-.333.117-.151.143-.168.107-.193.117-.22-.699-.952-.498-1.072.01-.135.63.26.84.322.873-.251.104-.528.422-.56.457a.473.473 0 0 0-.05.447c.13.045.328.008.473-.158.061-.032.116-.032.176-.037.565.009.554.888.349 1.414-.194.488-.798 1.054-1.619 1.039-.54-.006-1.177-.264-1.538-1.004-.12-.229-.182-.707-.073-1.082.073-.268.251-.326.291-.346.082-.029.147-.035.28.01.111.082.273.219.457.172a.339.339 0 0 0 .072-.236c-.043-.253-.273-.503-.641-.645.041-.027.278-.156.331-.387.096-.293-.07-.604-.14-.689-.147-.181-.302-.314-.543-.279-.177.035-.306.221-.344.293-.063.119-.07.158-.137.128-.137-.062-.201-.284-.407-.214-.013.021.01.084.009.152-.025.703.004.93-.486.948-1.076-.104-1.04-1.889-.547-2.851.109-.223.45-.51.754-.668.585-.309 1.253-.008 1.329.771-.022.108-.012.396-.42.658.28.326.751.062.939-.205a.765.765 0 0 0 .753.753v.013h.166v-.015c.545-.042.789-.411.784-.754.399.468.759.437.904.224.033-.041-.091-.215-.206-.319-.136-.119-.233-.238-.211-.425.013-.402.287-.812.921-.819.766-.013 1.159.662 1.358 1.179.099.248.18.66.185.982.018.891-.285 1.375-.906 1.491z"/><path fill="#FFF" d="M10.188 24.197c.083.052.09.168.228.168-.041.082-.186.059-.228.139-.096-.057.054-.181 0-.307zm3.701 0c.063.063.042.214.076.307-.096-.031-.148-.093-.263-.104.056-.077.187-.077.187-.203zm-4.229.917c.071.098-.083.288-.075.438-.086-.087-.132-.216-.264-.267.097-.074.263-.081.339-.171zm4.759 0c.131.036.203.134.377.134-.061.116-.217.146-.227.305-.08-.115-.114-.28-.15-.439z"/><path fill="#CCC" d="M17.5 1C26.6 1 34 8.402 34 17.5 34 26.6 26.6 34 17.5 34 8.402 34 1 26.6 1 17.5 1 8.402 8.402 1 17.5 1m0-1C7.835 0 0 7.835 0 17.5S7.835 35 17.5 35 35 27.165 35 17.5 27.165 0 17.5 0z"/></svg>