<?xml version="1.0" encoding="utf-8"?>
<!-- Generator: Adobe Illustrator 18.1.1, SVG Export Plug-In . SVG Version: 6.00 Build 0)  -->
<!DOCTYPE svg PUBLIC "-//W3C//DTD SVG 1.1//EN" "http://www.w3.org/Graphics/SVG/1.1/DTD/svg11.dtd" [
	<!ENTITY ns_extend "http://ns.adobe.com/Extensibility/1.0/">
	<!ENTITY ns_ai "http://ns.adobe.com/AdobeIllustrator/10.0/">
	<!ENTITY ns_graphs "http://ns.adobe.com/Graphs/1.0/">
	<!ENTITY ns_vars "http://ns.adobe.com/Variables/1.0/">
	<!ENTITY ns_imrep "http://ns.adobe.com/ImageReplacement/1.0/">
	<!ENTITY ns_sfw "http://ns.adobe.com/SaveForWeb/1.0/">
	<!ENTITY ns_custom "http://ns.adobe.com/GenericCustomNamespace/1.0/">
	<!ENTITY ns_adobe_xpath "http://ns.adobe.com/XPath/1.0/">
]>
<svg version="1.1"
	 id="Layer_1" xmlns:x="&ns_extend;" xmlns:i="&ns_ai;" xmlns:graph="&ns_graphs;" xmlns:sketch="http://www.bohemiancoding.com/sketch/ns"
	 xmlns="http://www.w3.org/2000/svg" xmlns:xlink="http://www.w3.org/1999/xlink" x="0px" y="0px" viewBox="281 361 50 70"
	 enable-background="new 281 361 50 70" xml:space="preserve">
<switch>
	
	<g i:extraneous="self">
		<title>img-sketch_arrow-long-fav</title>
		<desc>Created with Sketch.</desc>
		<g id="Page-1" sketch:type="MSPage">
			<g id="_x35_0-Helper-Arrows" transform="translate(-164.000000, -375.000000)" sketch:type="MSArtboardGroup">
				<g id="img-sketch_arrow-long-fav" transform="translate(164.687844, 375.310957)" sketch:type="MSLayerGroup">
					<path id="Shape" sketch:type="MSShapeGroup" fill="#A6A39C" d="M319,430l-0.6,0.6c-0.2-0.3-0.6,0.1-1.2-1.8c0,0,0,0-0.1,0
						c-0.2-0.3-0.3-0.5-0.4-0.8c0,0,0,0-0.1,0c0-0.1-0.1-0.2-0.1-0.2c0,0,0,0-0.1,0c-0.1-0.2-0.2-0.4-0.3-0.6c0,0,0,0-0.1,0
						c-0.1-0.2-0.2-0.5-0.3-0.7c-0.8-1.1-1.5-2.7-2.1-4c-0.1-0.2-0.2-0.3-0.2-0.5c-0.2-0.5-0.5-1.1-0.8-1.5
						c-0.1-0.2-0.2-0.3-0.2-0.5c-0.7-1.1-1.2-2.6-1.9-3.6c-0.2-0.3-0.2-0.6-0.4-1c0,0,0,0-0.1,0c-0.1-0.2-0.2-0.3-0.2-0.5
						c0,0,0,0-0.1,0c-0.1-0.2-0.1-0.3-0.2-0.4c0,0,0,0-0.1,0c-0.1-0.2-0.2-0.3-0.2-0.5c0,0,0,0-0.1,0c-0.1-0.2-0.2-0.3-0.2-0.5
						c0,0,0,0-0.1,0c-0.1-0.2-0.2-0.4-0.2-0.6c0,0,0,0-0.1,0c-0.1-0.2-0.2-0.4-0.2-0.6c0,0,0,0-0.1,0c-0.1-0.2-0.2-0.5-0.2-0.7
						c0,0,0,0-0.1,0c-0.2-0.4-0.2-0.7-0.4-1.1c0,0,0,0-0.1,0c-0.4-1.1-0.8-2.3-1.2-3.4c-0.5-1.3-0.9-2.5-1.4-3.8
						c-0.2-0.6-0.5-1.5-0.7-2.1c-0.3-0.8-0.5-1.6-0.8-2.4c0,0,0,0,0.1,0c-0.5-1.2-0.8-2.5-1.3-3.7c0,0,0,0,0.1,0
						c-0.2-0.4-0.3-0.8-0.4-1.1c0,0,0,0,0.1,0c-0.1-0.1-0.1-0.2-0.2-0.3c-0.1-0.3-0.2-0.5-0.3-0.8c0,0,0,0,0.1,0
						c-0.2-0.4-0.3-0.8-0.4-1.1c0,0,0,0,0.1,0c-0.1-0.1-0.1-0.2-0.2-0.3c-0.1-0.3-0.2-0.5-0.3-0.8c0,0,0,0,0.1,0
						c-0.2-0.4-0.3-0.8-0.4-1.1c-0.2-1.1-0.7-2.3-0.8-3.4c-0.2-0.8-0.5-1.7-0.8-2.6c-0.1-0.4-0.2-1.1-0.3-1.5
						c-0.1-0.2-0.2-0.3-0.2-0.5c-0.1-0.5-0.2-1.1-0.3-1.5c-0.1-0.2-0.2-0.3-0.2-0.5c0,0,0,0,0.1,0c-0.1-0.2-0.1-0.3-0.2-0.4
						c0,0,0,0,0.1,0c-0.1-0.2-0.2-0.3-0.2-0.5c0,0,0,0,0.1,0c-0.1-0.2-0.2-0.3-0.2-0.5c0,0,0,0,0.1,0c-0.1-0.2-0.1-0.3-0.2-0.4
						c0,0,0,0,0.1,0c-0.1-0.2-0.2-0.5-0.2-0.8c0,0,0,0,0.1,0c-0.1-0.3-0.2-0.6-0.2-0.8c0,0,0,0,0.1,0c-0.1-0.1-0.1-0.2-0.2-0.3
						c0,0,0,0,0.1,0c0-0.1-0.1-0.2-0.2-0.3c0,0,0,0,0.1,0c-0.1-0.1-0.1-0.2-0.2-0.3c0,0,0,0,0.1,0c-0.2-0.5-0.2-1-0.4-1.5
						c0,0,0,0,0.1,0c0-0.1-0.1-0.2-0.1-0.2c0,0,0,0,0.1,0c0-0.1-0.1-0.2-0.1-0.2c0,0,0,0,0.1,0c0-0.1-0.1-0.2-0.1-0.2c0,0,0,0,0.1,0
						c0-0.1-0.1-0.2-0.1-0.2c0,0,0,0,0.1,0c0-0.1-0.1-0.2-0.1-0.2c0,0,0,0,0.1,0c0-0.1-0.1-0.2-0.1-0.2c0,0,0,0,0.1,0
						c-0.1-0.3-0.1-0.5-0.2-0.8c0,0,0,0,0.1,0c0-0.1-0.1-0.1-0.1-0.2c0,0,0,0,0.1,0c-0.1-0.4-0.2-0.8-0.2-1.2c0,0,0,0,0.1,0
						c0-0.1-0.1-0.1-0.1-0.2c0,0,0,0,0.1,0c0-0.1-0.1-0.2-0.1-0.2c0,0,0,0,0.1,0c0-0.1-0.1-0.2-0.1-0.2c0,0,0,0,0.1,0
						c0-0.1-0.1-0.2-0.1-0.2c0,0,0,0,0.1,0c0-0.1-0.1-0.2-0.2-0.3c0,0,0,0,0.1,0c-0.1-0.2-0.1-0.4-0.2-0.5c0,0,0,0,0.1,0
						c0-0.1-0.1-0.2-0.1-0.2c0,0,0,0,0.1,0c0-0.1-0.1-0.2-0.1-0.2c0,0,0,0,0.1,0c0-0.1-0.1-0.2-0.1-0.2c0,0,0,0,0.1,0
						c0-0.1-0.1-0.2-0.1-0.2c0,0,0,0,0.1,0c-0.1-0.3-0.2-0.6-0.2-0.9c0,0,0,0,0.1,0c0-0.1-0.1-0.1-0.1-0.2c0,0,0,0,0.1,0
						c0-0.1-0.1-0.2-0.1-0.2c0,0,0,0,0.1,0c0-0.2-0.1-0.4-0.1-0.5c0,0,0,0,0.1,0c0-0.1-0.1-0.1-0.1-0.2c0,0,0,0,0.1,0
						c0-0.1-0.1-0.1-0.1-0.2c0,0,0,0,0.1,0c0-0.1-0.1-0.1-0.1-0.2c0,0,0,0,0.1,0c0-0.2-0.1-0.2-0.1-0.4c0,0,0,0,0.1,0
						c0-0.1-0.1-0.2-0.1-0.2c0,0,0,0,0.1,0c0-0.2-0.1-0.4-0.1-0.5c-0.1,0.2-0.2,0.3-0.2,0.5c0,0.1,0,0.2,0,0.2l-0.1,0.1
						c0,0.1,0,0.2,0,0.2l-0.1,0.1c0,0.1,0,0.2,0,0.3l-0.1,0.1c0,0.1,0,0.2,0,0.2c-0.1,0.1-0.1,0.2-0.1,0.2v0.1
						c-0.1,0.1-0.1,0.2-0.2,0.2c0,0.1,0,0.2,0,0.2c0,0.1-0.1,0.2-0.1,0.2v0.1c-0.1,0.1-0.1,0.2-0.2,0.2c0,0.1,0,0.2,0,0.2l-0.1,0.1
						c0,0.1,0,0.2,0,0.2c-0.1,0.1-0.1,0.2-0.2,0.2c0,0.1,0,0.2,0,0.2l-0.1,0.1c0,0.1,0,0.2,0,0.2l-0.1,0.1v0.1l-0.1,0.1
						c0,0.1,0,0.2,0,0.2c-0.1,0.1-0.1,0.2-0.1,0.2v0.1c-0.1,0.1-0.1,0.2-0.2,0.2c0,0.1,0,0.2,0,0.2s-0.1,0.2-0.1,0.2v0.1
						c-0.1,0.1-0.1,0.2-0.2,0.2v0.1c-0.1,0.1-0.1,0.2-0.1,0.2c0,0.1,0,0.2,0,0.2l-0.1,0.1c0,0.1,0,0.2,0,0.2
						c-0.1,0.1-0.1,0.2-0.2,0.2c0,0.1,0,0.2,0,0.2l-0.1,0.1v0.1l-0.1,0.1c0,0.1,0,0.2,0,0.2l-0.1,0.1c0,0.1,0,0.2,0,0.2l-0.1,0.1
						c0,0.1,0,0.2,0,0.2c-0.1,0.1-0.1,0.2-0.2,0.2c0,0.1,0,0.2,0,0.2c-0.1,0.1-0.1,0.2-0.2,0.2c0,0.1,0,0.2,0,0.2
						c-0.1,0.1-0.1,0.2-0.2,0.2c0,0.1,0,0.2,0,0.2c-0.2,0.5-0.3,0.7-0.5,1.1v0.1l-0.1,0.1v0.1c0,0.1-0.1,0.2-0.1,0.3v0.1l-0.1,0.1
						c0,0.1,0,0.2,0,0.3l-0.1,0.1c0,0.2,0,0.3,0,0.5l-0.1,0.1c0,0.1,0,0.2,0,0.2c-0.1,0.1-0.1,0.2-0.1,0.2v0.1l-0.1,0.1
						c0,0.1,0,0.2,0,0.2l-0.1,0.1v0.2l-0.1,0.1v0.1c-0.1,0.2-0.3,0.5-0.5,0.4c-0.1,0-0.2,0-0.2,0c-0.1-0.2-0.3-0.5-0.2-0.8
						c-0.1-0.4,0-0.2,0.1-0.4v-0.1l0.1-0.1v-0.1l0.1-0.1v-0.1l0.1-0.1V376c0-0.1,0.1-0.2,0.1-0.2c0-0.1,0-0.2,0-0.2l0.1-0.1
						c0-0.1,0-0.2,0-0.2l0.1-0.1c0-0.1,0-0.2,0-0.3l0.1-0.1c0-0.1,0-0.2,0-0.3l0.1-0.1c0-0.2,0-0.3,0-0.5l0.1-0.1c0-0.1,0-0.2,0-0.2
						l0.1-0.1c0-0.1,0-0.2,0-0.2c0-0.1,0.1-0.2,0.1-0.2v-0.1l0.1-0.1c0-0.1,0-0.2,0-0.2c0.1-0.1,0.1-0.2,0.2-0.2c0-0.1,0-0.2,0-0.2
						l0.1-0.1c0-0.1,0-0.2,0-0.2l0.1-0.1V372l0.1-0.1c0-0.1,0-0.2,0-0.2c0-0.1,0.1-0.2,0.1-0.2v-0.1c0.1-0.1,0.1-0.2,0.2-0.2
						c0-0.1,0-0.2,0-0.2l0.1-0.1c0-0.1,0-0.2,0-0.2l0.1-0.1v-0.1l0.1-0.1c0-0.1,0-0.2,0-0.2s0.1-0.2,0.1-0.2V370
						c0.1-0.1,0.1-0.2,0.2-0.2c0-0.1,0-0.2,0-0.2l0.1-0.1c0-0.1,0-0.2,0-0.2l0.1-0.1v-0.1l0.1-0.1c0-0.1,0-0.2,0-0.2l0.1-0.1
						c0-0.1,0-0.2,0-0.2l0.1-0.1c0-0.1,0-0.2,0-0.2c0.1-0.1,0.1-0.2,0.2-0.2c0-0.1,0-0.2,0-0.2c0.1-0.1,0.1-0.2,0.1-0.2v-0.1
						c0.1-0.1,0.1-0.2,0.2-0.2c0-0.1,0-0.2,0-0.2s0.1-0.2,0.1-0.2v-0.1c0.1-0.1,0.1-0.2,0.2-0.2c0-0.1,0-0.2,0-0.2l0.1-0.1
						c0-0.1,0-0.2,0-0.2c0.1-0.1,0.1-0.2,0.2-0.2c0-0.1,0-0.2,0-0.2s0.1-0.2,0.1-0.2v-0.1c0.1-0.1,0.1-0.2,0.2-0.2
						c0-0.1,0-0.2,0-0.2l0.1-0.1c0-0.1,0-0.2,0-0.2l0.1-0.1v-0.1c0-0.1,0.1-0.2,0.1-0.2c0-0.1,0-0.2,0-0.2l0.1-0.1
						c0-0.1,0-0.2,0-0.3l0.1-0.1v-0.1c0.1-0.1,0.1-0.2,0.1-0.2c0-0.1,0-0.2,0-0.3c0.1-0.1,0.1-0.2,0.2-0.2c0-0.1,0-0.2,0-0.2
						c0.1-0.1,0.1-0.2,0.2-0.2v-0.1l0.1-0.1v-0.1l0.1-0.1V362l0.1-0.1v-0.1l0.1-0.1v-0.1c0.1,0,0.1-0.1,0.2-0.1v-0.1l0.1-0.1
						c0-0.1,0-0.2,0-0.3c0-0.1,0.2-0.5,0.4-0.4v0.1c0.2-0.1,0.2,0.1,0.3,0.3c0,0,0,0,0.1,0c0.1,0.2,0.1,0.3,0.2,0.4c0,0,0,0,0.1,0
						c0.1,0.2,0.2,0.3,0.2,0.5c0,0,0,0,0.1,0c0.1,0.1,0.1,0.2,0.2,0.3c0,0,0,0,0.1,0c0,0.1,0.1,0.2,0.1,0.2c0,0,0,0,0.1,0
						c0,0.1,0.1,0.2,0.1,0.2c0,0,0,0,0.1,0c0,0.1,0,0.1,0.1,0.2c0,0,0,0,0.1,0c0.1,0.2,0.2,0.3,0.2,0.5c0,0,0,0,0.1,0
						c0.1,0.1,0.1,0.2,0.2,0.3c0,0,0,0,0.1,0c0,0.1,0.1,0.2,0.1,0.2c0,0,0,0,0.1,0c0,0.1,0.1,0.2,0.1,0.2c0,0,0,0,0.1,0
						c0,0.1,0.1,0.1,0.1,0.2c0,0,0,0,0.1,0c0,0.1,0.1,0.2,0.1,0.2c0,0,0,0,0.1,0c0.1,0.2,0.2,0.3,0.2,0.5c0.8,1.1,1.7,2.7,2.5,3.9
						c0.1,0.2,0.2,0.3,0.2,0.5c0,0,0,0,0.1,0c0,0.1,0.1,0.2,0.1,0.2c0,0,0,0,0.1,0c0,0.1,0.1,0.2,0.1,0.2c0,0,0,0,0.1,0
						c0,0.1,0.1,0.2,0.1,0.2c0,0,0,0,0.1,0c0,0.1,0.1,0.1,0.1,0.2c0,0,0,0,0.1,0c0,0.1,0.1,0.2,0.1,0.2c0,0,0,0,0.1,0
						c0.1,0.1,0.1,0.2,0.2,0.3c0,0,0,0,0.1,0c0,0.1,0.1,0.2,0.1,0.2c0,0,0,0,0.1,0c0.1,0.1,0.1,0.2,0.2,0.3c0,0,0,0,0.1,0
						c0.1,0.1,0.1,0.2,0.2,0.3c0.1,0,0.1,0,0.2,0c0,0.1,0.1,0.1,0.1,0.2l0.2,0.1c0,0.1,0.1,0.1,0.1,0.2c0,0,0,0,0.1,0
						c0,0.1,0.1,0.1,0.1,0.2c0,0,0,0,0.1,0c0.1,0.2,0.2,0.3,0.3,0.5c0,0,0,0,0.1,0c0.1,0.2,0.2,0.5,0.2,0.7c0,0,0,0-0.1,0
						c0,0.1,0,0.2,0.1,0.3c-0.1,0.2-0.2,0.4-0.5,0.3c-0.2,0.1-0.1,0-0.2-0.2c0,0,0,0-0.1,0c0-0.1-0.1-0.1-0.1-0.2
						c-0.1,0-0.1,0-0.2,0c0-0.1-0.1-0.2-0.1-0.2c0,0,0,0-0.1,0c-0.1-0.1-0.1-0.2-0.2-0.3c0,0,0,0-0.1,0c0-0.1-0.1-0.1-0.1-0.2
						c-0.1,0-0.1,0-0.2,0c-0.1-0.2-0.2-0.3-0.3-0.5c0,0,0,0-0.1,0c0-0.1-0.1-0.1-0.1-0.2c0,0,0,0-0.1,0c-0.1-0.2-0.2-0.3-0.3-0.5
						c0,0,0,0-0.1,0c0-0.1-0.1-0.2-0.1-0.2c0,0,0,0-0.1,0c-0.1-0.1-0.1-0.2-0.2-0.3c0,0,0,0-0.1,0c-0.2-0.2-0.2-0.5-0.4-0.7
						c0,0,0,0-0.1,0c0-0.1-0.1-0.1-0.1-0.2c0,0,0,0-0.1,0c-0.1-0.2-0.2-0.3-0.2-0.5c0,0,0,0-0.1,0c0-0.1-0.1-0.2-0.1-0.2
						c0,0,0,0-0.1,0c0-0.1-0.1-0.2-0.1-0.2c0,0,0,0-0.1,0c0-0.1-0.1-0.2-0.1-0.2c0,0,0,0-0.1,0c0-0.1-0.1-0.2-0.1-0.2c0,0,0,0-0.1,0
						c0-0.1-0.1-0.2-0.1-0.2c0,0,0,0-0.1,0c-0.1-0.2-0.2-0.3-0.2-0.5c0,0,0,0-0.1,0c-0.2-0.2-0.2-0.5-0.4-0.7c0,0,0,0-0.1,0
						c0-0.1-0.1-0.1-0.1-0.2c0,0,0,0-0.1,0c-0.2-0.3-0.4-0.7-0.5-1c0,0,0,0-0.1,0c0-0.1-0.1-0.1-0.1-0.2c0,0,0,0-0.1,0
						c-0.1-0.2-0.2-0.3-0.2-0.5c0,0,0,0-0.1,0c0-0.1-0.1-0.2-0.1-0.2c0,0,0,0-0.1,0c0-0.1-0.1-0.2-0.1-0.2c0,0,0,0-0.1,0
						c0-0.1-0.1-0.2-0.1-0.2c0,0,0,0-0.1,0c0-0.1-0.1-0.1-0.1-0.2c0,0,0,0-0.1,0c-0.1-0.2-0.2-0.3-0.2-0.5c0,0,0,0-0.1,0
						c0-0.1-0.1-0.1-0.1-0.2c0,0,0,0-0.1,0c-0.2-0.3-0.4-0.5-0.5-0.8c0,0.1-0.1,0.2-0.1,0.2c0.2,0.7,0.1,1.3,0.2,1.9
						c0,0.2,0.1,0.5,0.1,0.7c0,0,0,0-0.1,0c0,0.1,0.1,0.1,0.1,0.2c0,0,0,0-0.1,0c0.1,0.2,0.1,0.4,0.2,0.5c0,0,0,0-0.1,0
						c0,0.1,0.1,0.2,0.1,0.2l0,0c0,0.1,0.1,0.2,0.1,0.2c0,0,0,0-0.1,0c0,0.1,0.1,0.2,0.1,0.2c0,0,0,0-0.1,0c0,0.1,0.1,0.2,0.1,0.2
						c0,0,0,0-0.1,0c0,0.1,0.1,0.2,0.1,0.2c0,0,0,0-0.1,0c0.1,0.1,0.1,0.2,0.2,0.3c0,0,0,0-0.1,0c0,0.1,0.1,0.2,0.1,0.2
						c0,0,0,0-0.1,0c0,0.1,0.1,0.2,0.1,0.2c0,0,0,0-0.1,0c0,0.1,0.1,0.2,0.1,0.2c0,0,0,0-0.1,0c0,0.1,0.1,0.2,0.1,0.2c0,0,0,0-0.1,0
						c0,0.1,0.1,0.2,0.1,0.2c0,0,0,0-0.1,0c0,0.1,0.1,0.2,0.1,0.2c0,0,0,0-0.1,0c0,0.1,0.1,0.2,0.1,0.2c0,0,0,0-0.1,0
						c0.1,0.3,0.1,0.5,0.2,0.8c0,0,0,0-0.1,0c0,0.1,0.1,0.1,0.1,0.2c0,0,0,0-0.1,0c0.1,0.4,0.2,0.8,0.2,1.2c0,0,0,0-0.1,0
						c0,0.1,0.1,0.1,0.1,0.2c0,0,0,0-0.1,0c0,0.1,0.1,0.2,0.1,0.2c0,0,0,0-0.1,0c0,0.1,0.1,0.2,0.1,0.2c0,0,0,0-0.1,0
						c0,0.1,0.1,0.2,0.1,0.2c0,0,0,0-0.1,0c0.1,0.2,0.2,0.5,0.2,0.7c0.2,1.4,0.6,3,0.8,4.4c0.1,0.2,0.2,0.3,0.2,0.5
						c0.1,0.5,0.2,1.1,0.3,1.5c0.1,0.2,0.2,0.3,0.2,0.5c0.2,0.8,0.4,1.7,0.5,2.4c0.2,0.7,0.5,1.5,0.6,2.1c0,0,0,0-0.1,0
						c0.1,0.2,0.2,0.5,0.2,0.8c0.2,1.1,0.7,2.4,0.9,3.4c0.1,0.3,0.2,0.5,0.3,0.8c0,0.1,0.1,0.2,0.1,0.2c0,0,0,0-0.1,0
						c0.2,0.4,0.3,0.8,0.4,1.1c0,0,0,0-0.1,0c0.2,0.4,0.3,0.8,0.5,1.2c0,0,0,0-0.1,0c0.1,0.3,0.2,0.5,0.3,0.8
						c0.1,0.1,0.1,0.2,0.2,0.3c0,0,0,0-0.1,0c0.2,0.4,0.3,0.8,0.4,1.1c0,0,0,0-0.1,0c0.4,1.2,0.8,2.4,1.2,3.6c0,0,0,0-0.1,0
						c0.3,0.8,0.5,1.6,0.8,2.4c0.1,0.5,0.5,1.4,0.7,2.1c0.5,1.3,0.9,2.5,1.4,3.8c0.4,1.1,0.8,2.3,1.2,3.4c0,0,0,0,0.1,0
						c0.1,0.3,0.2,0.5,0.3,0.8c0,0,0,0,0.1,0c0.1,0.2,0.2,0.5,0.2,0.7c0,0,0,0,0.1,0c0.1,0.2,0.2,0.4,0.2,0.6c0,0,0,0,0.1,0
						c0.1,0.2,0.2,0.4,0.2,0.6c0,0,0,0,0.1,0c0.1,0.2,0.2,0.4,0.2,0.6c0.2,0.3,0.5,0.8,0.7,1.2c0.1,0.2,0.2,0.4,0.2,0.6
						c0.7,1.2,1.4,2.8,2.1,4c0.1,0.2,0.2,0.3,0.2,0.5c0,0,0,0,0.1,0c0.1,0.1,0.1,0.2,0.2,0.3c0,0,0,0,0.1,0c0.1,0.2,0.2,0.4,0.2,0.6
						c0,0,0,0,0.1,0c0.2,0.4,0.4,0.8,0.5,1.1c0.6,1,1.2,2.3,1.8,3.3c0.1,0.2,0.2,0.5,0.3,0.8c0.8,1.5,1.4,2.1,2.2,3.5"/>
				</g>
			</g>
		</g>
	</g>
</switch>

</svg>
