<svg id="Layer_1" xmlns="http://www.w3.org/2000/svg" viewBox="0 0 281.7 344.8"><style>.st9{fill:#cd985e}.st13{fill:#f0a570}.st15{fill:#fff}.st17{fill:#866949}</style><linearGradient id="SVGID_1_" gradientUnits="userSpaceOnUse" x1="2527.7" y1="172.339" x2="2602.8" y2="172.339" gradientTransform="rotate(180 1392.35 172.945)"><stop offset="0" stop-color="#f4ad54"/><stop offset=".477" stop-color="#ed9b35"/><stop offset=".783" stop-color="#ea9225"/><stop offset="1" stop-color="#ef9e3a"/></linearGradient><path d="M181.9 161s6.8-4.3 12-4.3c9.6 0 17.4 15.4 25.8 17 7.7 1.4 14.1-2.2 22.2-12.7l15.1 24s-15.2 5.5-32.6 5.4-24.3-15.7-28.9-15.9c-5.3-.7-12.2 8.5-11.4 5.7-1.6-10.4-2.2-19.2-2.2-19.2z" fill="url(#SVGID_1_)"/><radialGradient id="SVGID_2_" cx="261.766" cy="166.55" r="19.223" gradientUnits="userSpaceOnUse"><stop offset="0" stop-color="#fdc78a"/><stop offset="1" stop-color="#fbb885"/></radialGradient><path d="M241.8 161.1s3.4 11.7 15.2 23.9c0 0 15.2-3.3 24.6-15.1 0 0 1.4-5.8-4.9-16.6 0 0-12.5 6.2-20.3 2.3l2.7-5.2-3.6-2.3s-8.2 4.4-13.7 13z" fill="url(#SVGID_2_)"/><ellipse cx="151.1" cy="342.7" rx="74" ry="2.1" opacity=".1"/><linearGradient id="SVGID_3_" gradientUnits="userSpaceOnUse" x1="106.671" y1="18.558" x2="106.671" y2="109.93" gradientTransform="matrix(1 0 0 -1 0 345.89)"><stop offset="0" stop-color="#436998"/><stop offset="1" stop-color="#1a2f4b"/></linearGradient><path d="M116.8 246.2c-5.2 12.5-10.6 26.3-9.6 48 .7 16.5 6.1 26.6 11.5 35.6H101c-5.9-16.2-6.8-25.8-6.2-42.4.3-8.3 4.1-28.6 13-45.7l9 4.5z" fill="url(#SVGID_3_)"/><linearGradient id="SVGID_4_" gradientUnits="userSpaceOnUse" x1="-1634.819" y1="13.518" x2="-1634.819" y2="104.883" gradientTransform="matrix(-.9768 .0025 -.211 -1.0232 -1399.31 345.184)"><stop offset="0" stop-color="#436998"/><stop offset="1" stop-color="#1a2f4b"/></linearGradient><path d="M167.6 244.3c7.8 12.8 15.4 19.3 18.9 41.5 1.2 12.2-1.8 37.6-3.4 44.1h15.6c1.8-20.1 2.3-33.8-1.8-50.8-2.1-8.5-9.1-21.8-21.4-39.4l-7.9 4.6z" fill="url(#SVGID_4_)"/><radialGradient id="SVGID_5_" cx="12346.996" cy="-3566.26" r="30.448" gradientTransform="matrix(1 0 0 -1 -12146.864 -3214.232)" gradientUnits="userSpaceOnUse"><stop offset="0" stop-color="#464646"/><stop offset=".862" stop-color="#2a2a2a"/><stop offset="1" stop-color="#252525"/></radialGradient><path d="M177.7 342.7l35.4-.1c.3 0 .6-.2.6-.5.3-2.9-1.4-14.7-28.9-13.3-7 .4-7.9 10.7-7.7 13.3 0 .3.3.6.6.6z" fill="url(#SVGID_5_)"/><linearGradient id="SVGID_6_" gradientUnits="userSpaceOnUse" x1="1160.033" y1="9.109" x2="1160.033" y2="112.701" gradientTransform="matrix(1 0 0 -1 -1016.333 1258.114)"><stop offset="0" stop-color="#436998"/><stop offset="1" stop-color="#1a2f4b"/></linearGradient><path d="M188 237.3c0 10.4-20.1 9.2-44.3 9.2s-44.3 1.1-44.3-9.3 20.1-9.2 44.3-9.2c24.3.1 44.3-1.1 44.3 9.3z" fill="url(#SVGID_6_)"/><radialGradient id="SVGID_7_" cx="143.2" cy="174.25" r="59.303" gradientUnits="userSpaceOnUse"><stop offset="0" stop-color="#f4ad54"/><stop offset="1" stop-color="#ea9225"/></radialGradient><path d="M192.7 168.6c0-4.8-3.9-9.7-8.7-9.7l-80.1 3c-4.8 0-9.7 4.9-9.7 9.7l5.9 59.3c0 4.8 3.9 8.7 8.7 8.7l70.1-.3c4.8 0 8.7-3.9 8.7-8.7l5.1-62z" fill="url(#SVGID_7_)"/><radialGradient id="SVGID_8_" cx="137.687" cy="150.472" r="56.956" gradientTransform="scale(1 -1) rotate(5.999 2549.91 -15.134)" gradientUnits="userSpaceOnUse"><stop offset="0" stop-color="#fdc78a"/><stop offset=".503" stop-color="#fdc48a"/><stop offset=".842" stop-color="#fcbe87"/><stop offset="1" stop-color="#fbb885"/></radialGradient><path d="M183.2 161c4.6-.5 8.1-14.9 6.3-36.3-5.4-64.9-6.6-76-6.6-76-.5-4.8-4.8-8.3-9.6-7.8l-89 9c-4.8.5-8.3 4.8-7.8 9.6 0 0 1 11.1 8.7 75.7 2.5 21.3 7.9 29.9 12.5 29.4l85.5-3.6z" fill="url(#SVGID_8_)"/><path class="st9" d="M188.7 102.8c-7.7-51.3-10.4-56.4-10.4-56.4-.8-4.8-5.3-8-10.1-7.2L79.9 53.9c-4.8.8-8 5.3-7.2 10.1 0 0-.6 6.7 8.8 57.8.5.4 2.9 7.3 2.9 7.3-4.6-31.5-1.8-56.4-1.8-56.4s34.6 12 68.1-4.6l-7.5-4.7c18.6-5.1 23.9-9.7 23.9-9.7 13 21.3 20.7 55.4 20.7 55.4.2-.4.7-6.1.9-6.3z"/><linearGradient id="SVGID_9_" gradientUnits="userSpaceOnUse" x1="-13561.366" y1="8457.379" x2="-13561.366" y2="8338.72" gradientTransform="scale(1 -1) rotate(8.998 44170.509 90913.152)"><stop offset="0" stop-color="#584638"/><stop offset=".345" stop-color="#4d3c31"/><stop offset="1" stop-color="#33241d"/></linearGradient><path d="M84.4 129.1c-.3-2.3-9.1-3.5-18.4-54.7-.9 1.4-2.5 2.6-3.3 4.1-2.2-14.1 4-18.1 4-18.1-1.7 2.1.1-.1 0 0 0 0-.4-2.5-4.7-2.1 2.5-4.3 5.6-4.9 10.3-5.9-1.2-.1 1.6-8.7 2.1-9.5 2-3.3 6-5.7 9.5-7.1-1.1 1.6-1.4 3.3-2.2 4.9 11.6-7.1 16.4-11.8 30.2-14.3 11.2-2 27.6-4.9 37.8-10.9 6.6-3.9 11.1-9 9.1-15.5-.3-.1-.3-.1 0 0 13.3 6 13.9 19.1 13.9 19.1s1.3-.6 2.7-5.4c4.3 8.4 4.5 18.1 1.6 24.6 12.3 4.9 12.4 23.4 13.1 32 2.6 30-2.4 38.7-2.4 38.7-2.4-17.8-8.6-44.7-19-59.7 0 0-8 7.7-22.6 13.2l7.5 2.6c-36.9 15.6-73.3 5-73.4 2.3.3.2-4.1 18.4 4.2 61.7z" fill="url(#SVGID_9_)"/><path d="M97.6 41.7c19.1-14.7 29.7-11.1 47.5-17.1 7.8-2.6 9.4-8 9.4-8-2.6 18.9-27.9 13.9-45.1 19.8l-11.8 5.3z" fill="#847068"/><ellipse transform="rotate(-6.012 160.22 94.263)" class="st9" cx="160.2" cy="94.2" rx="8.6" ry="8.6"/><radialGradient id="SVGID_10_" cx="163.981" cy="159.624" r="7.601" gradientTransform="scale(1 -1) rotate(5.999 2549.91 -15.134)" gradientUnits="userSpaceOnUse"><stop offset="0" stop-color="#333"/><stop offset=".385" stop-color="#323232"/><stop offset=".591" stop-color="#2f2f2f"/><stop offset=".755" stop-color="#282828"/><stop offset=".896" stop-color="#1e1f1f"/><stop offset="1" stop-color="#121212"/></radialGradient><circle cx="160.1" cy="93.6" r="7.6" fill="url(#SVGID_10_)"/><ellipse transform="rotate(-6.012 177.613 140.772)" class="st13" cx="177.6" cy="140.7" rx="5.9" ry="5.9"/><ellipse transform="rotate(-6.012 103.404 144.858)" class="st13" cx="103.4" cy="144.8" rx="5.9" ry="5.9"/><ellipse transform="rotate(-6.012 106.208 101.347)" class="st9" cx="106.2" cy="101.3" rx="8.6" ry="8.6"/><radialGradient id="SVGID_11_" cx="-207.998" cy="684.637" r="7.601" gradientTransform="scale(-1 1) rotate(5.999 8702.59 1531.9)" gradientUnits="userSpaceOnUse"><stop offset="0" stop-color="#333"/><stop offset=".385" stop-color="#323232"/><stop offset=".591" stop-color="#2f2f2f"/><stop offset=".755" stop-color="#282828"/><stop offset=".896" stop-color="#1e1f1f"/><stop offset="1" stop-color="#121212"/></radialGradient><circle cx="106.2" cy="100.7" r="7.6" fill="url(#SVGID_11_)"/><ellipse transform="rotate(-35 108.92 98.194)" class="st15" cx="108.9" cy="98.2" rx="2.9" ry="3.3"/><ellipse transform="rotate(-35 162.788 91.013)" class="st15" cx="162.8" cy="91" rx="2.9" ry="3.3"/><radialGradient id="SVGID_12_" cx="10649.632" cy="-3068.182" r="30.448" gradientTransform="matrix(-1 0 0 1 10748.654 -4410.306)" gradientUnits="userSpaceOnUse"><stop offset="0" stop-color="#464646"/><stop offset=".862" stop-color="#2a2a2a"/><stop offset="1" stop-color="#252525"/></radialGradient><path d="M124.1 342.7l-35.4-.1c-.3 0-.6-.2-.6-.5-.3-2.9 1.4-14.7 28.9-13.3 7 .4 7.9 10.7 7.7 13.3 0 .3-.3.6-.6.6z" fill="url(#SVGID_12_)"/><path class="st17" d="M155.7 143.5c.7 0 1.4.4 1.8 1.1.5 1 .1 2.2-.9 2.7-9.2 4.5-25.5 5.2-31.2 1.3-.9-.6-1.1-1.9-.5-2.8.6-.9 1.9-1.1 2.8-.5 4.1 2.8 18.9 2.5 27.2-1.6.2-.1.5-.2.8-.2z"/><radialGradient id="SVGID_13_" cx="19.934" cy="171.55" r="19.223" gradientUnits="userSpaceOnUse"><stop offset="0" stop-color="#fdc78a"/><stop offset="1" stop-color="#fbb885"/></radialGradient><path d="M39.9 166.1s-3.4 11.7-15.2 23.9c0 0-15.2-3.3-24.6-15.1 0 0-1.4-5.8 4.9-16.6 0 0 12.5 6.2 20.3 2.3l-2.7-5.2 3.6-2.3s8.2 4.5 13.7 13z" fill="url(#SVGID_13_)"/><path class="st17" d="M166.2 81.1c-5.3 0-11.1-2.7-11.3-2.9-1-.5-1.4-1.7-.9-2.7s1.7-1.4 2.7-.9c1.9.9 7.8 3.1 11.5 2.3 1.1-.3 2.2.4 2.4 1.5.3 1.1-.4 2.2-1.5 2.4-.9.3-1.9.3-2.9.3zM94.3 91.2h-.2c-1.1 0-2-.9-2-2s.9-2 2-2c3.9.1 9.1-3.3 10.8-4.6.9-.7 2.1-.5 2.8.4.7.9.5 2.1-.4 2.8-.2.2-7 5.4-13 5.4z"/><linearGradient id="SVGID_14_" gradientUnits="userSpaceOnUse" x1="24.4" y1="167.2" x2="97.71" y2="167.2" gradientTransform="matrix(1 0 0 -1 0 345.89)"><stop offset="0" stop-color="#f4ad54"/><stop offset=".477" stop-color="#ed9b35"/><stop offset=".783" stop-color="#ea9225"/><stop offset="1" stop-color="#ef9e3a"/></linearGradient><path d="M97.6 165.2s-7-3.7-13.3-1.5c-7.8 2.8-13.8 13.4-22.2 15s-13.4 1.8-22.2-12.7l-15.5 23.6s14.5 5.5 31.9 4.7c20.1-.9 25.8-16.7 31.1-16.9 4.6-.2 10 9.5 9.2 6.7 1.6-10.3 1-18.9 1-18.9z" fill="url(#SVGID_14_)"/></svg>