<?xml version="1.0" encoding="utf-8"?>
<svg xmlns="http://www.w3.org/2000/svg">
<symbol id="facebook"><path fill="#999" d="M18.2 15.044h-2.1v7.5H13v-7.5h-1.5v-2.6H13v-1.8c0-1.2.6-3.2 3.2-3.2h2.3v2.6h-1.7c-.3 0-.6.1-.6.7v1.6h2.3l-.3 2.7zm-3.2-15c-8.3 0-15 6.7-15 15s6.7 15 15 15 15-6.7 15-15c.1-8.3-6.7-15-15-15z"/>
</symbol>
<symbol id="google-plus"><path fill="#999" d="M15 0C6.7 0 0 6.7 0 15s6.7 15 15 15 15-6.7 15-15S23.3 0 15 0zm-1 20.3c-2.6 1-5.6 0-7-2.4-1.5-2.5-.9-5.6 1.4-7.4 2.2-1.7 5.6-1.5 7.1.3-.4.5-.8.9-1.3 1.4-1.3-.8-2.6-1.1-3.9-.5-.9.6-1.5 1.3-1.8 2.3-.6 1.9.6 4 2.6 4.5 1.8.4 3.4-.5 3.7-2.3h-2.9v-1.9H17c.6 2.5-.7 5-3 6zm9.9-4.5h-1.6v1.6h-1.5v-1.6h-1.6v-1.5h1.6v-1.6h1.5v1.6h1.6v1.5z"/>
</symbol>
<symbol id="instagram"><g fill="#999"><path d="M18.9 11.5h1.6c.4 0 .6-.2.6-.6V9.3c0-.4-.2-.6-.6-.6h-1.6c-.4 0-.6.2-.6.6v1.6c0 .4.2.6.6.6zm-4.1 6.9c1.9 0 3.4-1.5 3.4-3.4s-1.5-3.5-3.4-3.5-3.5 1.5-3.5 3.4 1.6 3.5 3.5 3.5z"/><path d="M14.8 0C6.5 0-.2 6.7-.2 15s6.7 15 15 15 15-6.7 15-15-6.7-15-15-15zm7.4 20.3c0 1.4-.6 2-2 2H9.3c-1.3 0-2-.6-2-1.9v-11c0-1.2.6-1.9 1.9-1.9h11c1.2 0 1.9.7 1.9 1.9.1 3.6.1 7.3.1 10.9z"/><path d="M21.1 13.9h-1.8c.2.9.2 1.8-.2 2.6-.3.8-.9 1.5-1.6 2.1-.7.5-1.5.9-2.4.9-1.2 0-2.3-.3-3.2-1-1.4-1.2-1.9-2.8-1.6-4.6H8.5v6.5c0 .8.1.9.9.9h10.8c.8 0 .9-.1.9-.9v-6.5z"/></g>
</symbol>
<symbol id="share-facebook"><path d="M21.5 38.6h5.6V25h3.7l.5-4.7h-4.2V18c0-1.2.1-1.9 1.9-1.9h2.3v-4.7h-3.8c-4.5 0-6.1 2.3-6.1 6.1v2.8h-2.8V25h2.8v13.6zM25 50C11.2 50 0 38.8 0 25S11.2 0 25 0s25 11.2 25 25-11.2 25-25 25z" fill="#3b589c"/>
</symbol>
<symbol id="share-messenger" viewBox="0 0 50 50"><path d="M25 1c13.2 0 24 10.8 24 24S38.2 49 25 49 1 38.2 1 25 11.8 1 25 1m0-1C11.2 0 0 11.2 0 25s11.2 25 25 25 25-11.2 25-25S38.8 0 25 0z" fill="#ccc"/><path d="M15.5 35.1v5.4l5-2.9c1.4.4 2.9.6 4.4.6 8.3 0 15-6.3 15-14s-6.7-14-15-14-15 6.3-15 14c.1 4.4 2.3 8.3 5.6 10.9z" fill="#0099e5"/><path fill="#fff" d="M23.5 20.1l-8.1 8.6 7.4-4 3.8 4 8-8.6-7.3 4-3.8-4z"/>
</symbol>
<symbol id="share-whatsapp"><circle cx="25" cy="25" r="25" fill="#67bd55"/><path d="M40 24.6c0 8.1-6.6 14.6-14.7 14.6-2.6 0-5-.7-7.1-1.8L10 40l2.7-7.8c-1.3-2.2-2.1-4.8-2.1-7.5 0-8.1 6.6-14.6 14.7-14.6C33.4 10 40 16.5 40 24.6zM25.3 12.3c-6.8 0-12.4 5.5-12.4 12.3 0 2.7.9 5.2 2.4 7.2l-1.5 4.6 4.8-1.5c2 1.3 4.3 2 6.8 2 6.8 0 12.4-5.5 12.4-12.3s-5.7-12.3-12.5-12.3zM32.7 28c-.1-.1-.3-.2-.7-.4-.4-.2-2.1-1-2.5-1.2-.3-.1-.6-.2-.8.2-.2.4-.9 1.2-1.1 1.4-.2.2-.4.3-.8.1-.4-.2-1.5-.6-2.9-1.8-1.1-.9-1.8-2.1-2-2.5-.2-.4 0-.6.2-.7.2-.2.4-.4.5-.6.2-.2.2-.4.4-.6.1-.2.1-.4 0-.6-.1-.2-.8-1.9-1.1-2.7-.4-.7-.7-.6-.9-.6h-.7c-.2 0-.6.1-1 .4-.3.4-1.3 1.2-1.3 3s1.3 3.5 1.5 3.7c.2.2 2.5 4 6.2 5.4 3.7 1.4 3.7 1 4.3.9.7-.1 2.1-.9 2.4-1.7.4-.9.4-1.6.3-1.7z" fill="#fff"/>
</symbol>
<symbol id="social-facebook" viewBox="0 0 29.883 30"><path fill="#1A70A4" d="M15 0C6.716 0 0 6.716 0 15s6.716 15 15 15 15-6.716 15-15S23.284 0 15 0zm4.085 15H16v9h-3v-9h-3v-4h3V9.503C13 7.95 13.218 6 16.488 6H19v3h-1.77c-.373 0-1.23-.096-1.23.655V11h3.454l-.37 4z"/>
</symbol>
<symbol id="social-gplus" viewBox="0 0 29.883 30"><path fill="#CD5043" d="M15 0C6.717 0 0 6.715 0 15c0 8.284 6.717 15 15 15 8.285 0 15-6.716 15-15 0-8.285-6.715-15-15-15zm-1.033 20.268c-2.605 1.018-5.633-.017-7.023-2.396-1.463-2.5-.867-5.553 1.416-7.36 2.193-1.738 5.604-1.46 7.148.34l-1.3 1.402c-1.298-.753-2.56-1.118-3.9-.46-.933.458-1.538 1.19-1.84 2.193-.583 1.938.6 4.013 2.573 4.477 1.816.427 3.445-.544 3.74-2.312h-2.883v-1.867h5.122c.6 2.52-.695 5.063-3.05 5.983zm9.888-4.5h-1.61v1.61h-1.487v-1.61h-1.61V14.28h1.61v-1.61h1.486v1.61h1.61v1.488z"/>
</symbol>
<symbol id="social-instagram"><path fill="#3F729B" d="M14.94 0C6.655 0 0 6.71 0 15c0 8.287 6.712 15 14.939 15 8.292 0 14.943-6.713 14.943-15 0-8.29-6.653-15-14.942-15z"/><g fill="#FFF"><path d="M5.186 18.218v-6.429c.01-.06.029-.121.03-.182.023-.754.057-1.507.243-2.244.416-1.662 1.38-2.871 2.964-3.556.859-.371 1.773-.479 2.697-.517.204-.008.405-.03.608-.045h6.427c.061.01.121.026.183.033.622.053 1.254.053 1.865.168 2.229.417 3.659 1.723 4.227 3.938.245.958.247 1.942.256 2.92.02 1.915.016 3.832-.016 5.746-.009.745-.039 1.502-.177 2.231-.413 2.223-1.726 3.647-3.931 4.21-.952.243-1.93.25-2.9.257-2.033.014-4.064-.008-6.095-.021-.768-.006-1.534-.052-2.282-.243-1.631-.413-2.827-1.356-3.516-2.907-.388-.875-.502-1.806-.541-2.75-.007-.205-.029-.406-.042-.609zm17.771-3.214h-.03c0-.814.015-1.626-.007-2.438a28.357 28.357 0 0 0-.127-2.296c-.075-.736-.334-1.413-.833-1.981-.688-.784-1.59-1.113-2.59-1.176a72.537 72.537 0 0 0-3.458-.102 107.614 107.614 0 0 0-3.409.015c-.765.015-1.534.048-2.297.126-.733.075-1.41.336-1.979.835-.783.689-1.113 1.591-1.173 2.589-.071 1.151-.087 2.307-.103 3.462-.014 1.134-.008 2.271.014 3.406.016.766.047 1.534.125 2.296.077.735.335 1.412.835 1.98.688.784 1.592 1.113 2.589 1.175 1.15.069 2.305.088 3.459.101 1.135.015 2.274.015 3.406-.015.845-.022 1.696-.038 2.525-.168 1.416-.223 2.376-1.046 2.76-2.453.125-.461.188-.951.207-1.431.049-1.306.06-2.615.086-3.925z"/><path d="M19.957 15.001a5.012 5.012 0 0 1-5.022 5.018 5.01 5.01 0 0 1-5.007-5.012 5.012 5.012 0 0 1 5.022-5.018 5.011 5.011 0 0 1 5.007 5.012zm-8.261 0c0 1.774 1.452 3.248 3.209 3.249 1.81.002 3.281-1.44 3.281-3.214.004-1.816-1.441-3.276-3.237-3.278a3.25 3.25 0 0 0-3.253 3.243zm9.629-5.196a1.176 1.176 0 0 1-2.354-.007 1.177 1.177 0 1 1 2.354.007z"/></g>
</symbol>
<symbol id="social-rss"><path fill="#E6782B" d="M14.94 0C6.654 0 0 6.713 0 15s6.712 15 14.94 15c8.29 0 14.942-6.712 14.942-15S23.23 0 14.942 0zM9.5 22.418a1.98 1.98 0 1 1 0-3.96 1.98 1.98 0 0 1 0 3.96zm4.99.5c0-4.136-3.365-7.5-7.5-7.5v-3c5.79 0 10.5 4.71 10.5 10.5h-3zm5.167 0c0-6.983-5.683-12.667-12.667-12.667v-3c8.638 0 15.667 7.03 15.667 15.67h-3z"/>
</symbol>
<symbol id="social-twitter" viewBox="0 0 29.883 30"><path fill="#39A0CD" d="M15 0C6.716 0 0 6.716 0 15s6.716 15 15 15 15-6.716 15-15S23.284 0 15 0zm7.06 11.38c.007.156.01.312.01.47 0 4.81-3.662 10.364-10.362 10.364-2.057 0-3.972-.604-5.583-1.638a7.314 7.314 0 0 0 5.393-1.514 3.652 3.652 0 0 1-3.404-2.528c.224.04.45.062.687.062.338 0 .66-.046.96-.13a3.647 3.647 0 0 1-2.92-3.57v-.047c.49.273 1.055.436 1.65.457a3.65 3.65 0 0 1-1.125-4.864 10.345 10.345 0 0 0 7.51 3.804 3.64 3.64 0 0 1 3.546-4.47c1.048 0 1.994.44 2.658 1.15a7.41 7.41 0 0 0 2.312-.885c-.27.85-.85 1.563-1.6 2.013a7.279 7.279 0 0 0 2.09-.57 7.45 7.45 0 0 1-1.82 1.89z"/>
</symbol>
<symbol id="social-youtube"><g fill="#DB3539"><path d="M13.362 21.27c-.24.306-.408.476-.604.476-.13 0-.195-.058-.235-.205V17.2h-.958v4.232c0 .37.034.627.1.786.108.27.31.416.624.416.35 0 .67-.225 1.07-.666v.582h1v-5.353h-1v4.073zm3.802-4.166c-.357 0-.713.217-1.025.604v-2.35h-.98v7.19h.95v-.528c.36.402.68.605 1.03.605.382 0 .68-.207.81-.607.06-.227.11-.576.11-1.072V18.8c0-.507-.068-.854-.136-1.07-.13-.4-.39-.626-.777-.626zM17.077 21c0 .538-.14.743-.42.743-.16 0-.353-.082-.517-.244l.004-3.26c.162-.16.354-.25.513-.25.28 0 .42.16.42.69V21zm-2.833-9.284c.317 0 .492-.268.44-.803V8.767c.052-.537-.124-.787-.44-.787-.318 0-.482.25-.442.787v2.146c-.04.535.125.803.442.803zm-2.56 3.652l-3.395.002v1.028H9.4v6.152h1.12v-6.152h1.157m8.517.716c-.496 0-.878.192-1.16.56-.207.272-.326.717-.326 1.29v1.877c0 .57.13.97.34 1.24.28.37.67.55 1.177.55.513 0 .908-.19 1.174-.58.12-.17.2-.36.23-.58.01-.1.04-.31.04-.63v-.15h-1.03c0 .4 0 .627-.01.678-.06.26-.19.39-.43.39-.334 0-.46-.244-.46-.74v-.965h1.92v-1.1c0-.57-.117-.99-.32-1.264-.274-.367-.664-.56-1.15-.56zm.43 2.12h-.88v-.594c0-.502.124-.64.448-.64.32 0 .43.145.43.645v.59z"/><path d="M15 0C6.717 0 0 6.715 0 15c0 8.284 6.717 15 15 15 8.285 0 15-6.716 15-15 0-8.285-6.715-15-15-15zm1.48 7.13h.997v4.373c.04.15.105.207.235.207.192 0 .364-.172.604-.475V7.13h.957v5.354h-.957v-.55c-.4.442-.732.665-1.088.665-.313 0-.53-.15-.64-.42-.065-.17-.11-.42-.11-.79V7.13zm-2.226-.065c.43 0 .846.15 1.117.52.21.274.31.71.31 1.288v1.932c0 .576-.08.975-.28 1.244-.27.36-.71.56-1.14.56-.43 0-.87-.2-1.14-.57-.21-.27-.31-.67-.31-1.25V8.88c0-.58.12-1.02.33-1.293.27-.37.645-.522 1.13-.522zm-3.858-1.772l.752 2.824.75-2.824h1.126l-1.34 4.28v2.91h-1.08v-2.91S9.498 5.93 9.27 5.293h1.128zm12.592 14.395c0 1.293-.15 2.582-.15 2.582s-.146 1.102-.63 1.584c-.606.637-1.288.64-1.603.676-2.242.162-5.606.166-5.606.166s-4.17-.037-5.45-.158c-.36-.065-1.16-.048-1.77-.684-.48-.482-.63-1.584-.63-1.584S7 20.98 7 19.688V18.48c0-1.29.148-2.58.148-2.58s.148-1.097.627-1.583c.61-.635 1.292-.64 1.606-.678 2.24-.17 5.61-.16 5.61-.16H15s3.36-.01 5.604.16c.312.03.992.03 1.604.67.48.48.63 1.58.63 1.58s.152 1.29.152 2.58v1.21h-.002z"/></g>
</symbol></svg>