<?xml version="1.0" encoding="utf-8"?>
<!-- Generator: Adobe Illustrator 19.2.1, SVG Export Plug-In . SVG Version: 6.00 Build 0)  -->
<svg version="1.1" id="Layer_1" xmlns="http://www.w3.org/2000/svg" xmlns:xlink="http://www.w3.org/1999/xlink" x="0px" y="0px"
	 viewBox="0 0 100 80" style="enable-background:new 0 0 100 80;" xml:space="preserve">
<style type="text/css">
	.st0{display:none;}
	.st1{display:inline;fill:#D8D8D8;}
	.st2{display:inline;fill:#FFFFFF;}
	.st3{display:inline;fill:#F1C604;}
	.st4{fill:#D8D8D8;}
	.st5{fill:#FFFFFF;}
	.st6{fill:#BFBFBF;}
	.st7{opacity:0.49;}
	.st8{fill:#3F9FD7;}
	.st9{display:inline;fill:#BCBCBC;}
	.st10{display:inline;fill:#B0D97C;}
	.st11{display:inline;fill:none;}
	.st12{display:inline;enable-background:new    ;}
	.st13{fill:#F1C604;}
	.st14{display:inline;fill:#FF7A2A;}
	.st15{display:inline;}
	.st16{fill:#FF7A2A;}
	.st17{display:inline;fill:#3F9FD7;}
	.st18{fill:none;}
	.st19{fill:#9ECE64;}
</style>
<g class="st0">
	<rect x="15.2" y="12.8" class="st1" width="68.5" height="12.7"/>
	<rect x="16" y="13.6" class="st2" width="11.2" height="11.2"/>
	<polygon class="st1" points="16.9,24.1 16.9,21.5 19.2,19.6 22.2,21.8 24.4,20.8 26.3,22.2 26.3,24.1 	"/>
	<circle class="st1" cx="23.9" cy="16.6" r="1.5"/>
	<rect x="15.5" y="26.5" class="st3" width="68.5" height="12.7"/>
	<rect x="16.2" y="27.3" class="st2" width="11.2" height="11.2"/>
	<polygon class="st3" points="17.1,37.8 17.1,35.2 19.4,33.3 22.4,35.5 24.6,34.5 26.5,35.9 26.5,37.8 	"/>
	<circle class="st3" cx="24.1" cy="30.3" r="1.5"/>
	<rect x="15.5" y="40.3" class="st1" width="68.5" height="12.7"/>
	<rect x="16.2" y="41" class="st2" width="11.2" height="11.2"/>
	<polygon class="st1" points="17.1,51.5 17.1,48.9 19.4,47 22.4,49.2 24.6,48.2 26.5,49.6 26.5,51.5 	"/>
	<circle class="st1" cx="24.1" cy="44" r="1.5"/>
	<rect x="15.5" y="54.5" class="st1" width="68.5" height="12.7"/>
	<rect x="16.2" y="55.2" class="st2" width="11.2" height="11.2"/>
	<polygon class="st1" points="17.1,65.7 17.1,63.1 19.4,61.2 22.4,63.5 24.6,62.4 26.5,63.9 26.5,65.7 	"/>
	<circle class="st1" cx="24.1" cy="58.2" r="1.5"/>
	<path class="st3" d="M11.6,32.2l-9-1c-0.2,0-0.3-0.1-0.5-0.1c-1.1-0.1-2,0.7-2,1.8c0.1,1.1,1,1.8,2,1.8c0.2,0,0.3,0,0.5-0.1l9-1.1
		c0.4,0,0.7-0.2,0.7-0.6C12.3,32.5,12.1,32.2,11.6,32.2C11.7,32.2,11.6,32.2,11.6,32.2z"/>
	<path class="st3" d="M12.4,28.4l-5.6-3.6c-0.1-0.1-0.2-0.1-0.3-0.2c-0.7-0.4-1.5-0.2-1.9,0.5c-0.3,0.7,0.1,1.5,0.8,1.8
		C5.5,27,5.6,27,5.7,27.1l6.2,2.2c0.2,0.2,0.5,0.2,0.7-0.1c0.2-0.2,0.2-0.5-0.1-0.7C12.6,28.5,12.5,28.4,12.4,28.4z"/>
	<path class="st3" d="M12.4,37.7l-5.6,3.6c-0.1,0.1-0.2,0.1-0.3,0.2C5.9,41.9,5,41.7,4.6,41c-0.3-0.7,0.1-1.5,0.8-1.8
		c0.1-0.1,0.2-0.1,0.3-0.1l6.2-2.3c0.2-0.2,0.5-0.2,0.7,0s0.2,0.5,0,0.7C12.6,37.7,12.5,37.7,12.4,37.7z"/>
	<path class="st3" d="M88.4,32.5l9-1c0.2,0,0.3-0.1,0.5-0.1c1-0.1,2,0.7,2,1.8c-0.1,1-1,1.8-2,1.8c-0.2,0-0.3,0-0.5-0.1l-9-1
		c-0.4,0-0.7-0.3-0.7-0.6c0-0.4,0.3-0.7,0.6-0.7C88.4,32.5,88.4,32.5,88.4,32.5z"/>
	<path class="st3" d="M87.6,28.7l5.6-3.6c0.1-0.1,0.2-0.1,0.3-0.2c0.7-0.4,1.5-0.2,1.9,0.5c0.3,0.7-0.1,1.5-0.8,1.8
		c-0.1,0.1-0.2,0.1-0.3,0.1L88,29.5c-0.2,0.2-0.5,0.2-0.7-0.1c-0.2-0.2-0.2-0.5,0.1-0.7C87.4,28.7,87.5,28.7,87.6,28.7z"/>
	<path class="st3" d="M87.6,38l5.6,3.6c0.1,0.1,0.2,0.1,0.3,0.2c0.6,0.4,1.4,0.2,1.8-0.3s0.2-1.4-0.3-1.8c-0.1-0.1-0.2-0.1-0.3-0.2
		c-0.1-0.1-0.2-0.1-0.3-0.1L88,37.1c-0.2-0.2-0.5-0.2-0.7,0s-0.2,0.5,0,0.7C87.4,37.9,87.5,37.9,87.6,38z"/>
</g>
<g>
	<rect x="15.5" y="25.9" class="st4" width="62.6" height="11.6"/>
	<rect x="16.1" y="26.6" class="st5" width="10.2" height="10.2"/>
	<polygon class="st4" points="17,36.2 17,33.8 19,32.1 21.8,34.2 23.8,33.2 25.6,34.5 25.6,36.2 	"/>
	<circle class="st4" cx="23.4" cy="29.4" r="1.4"/>
	<rect x="21.5" y="13.4" class="st6" width="62.6" height="11.6"/>
	<rect x="22.2" y="14.1" class="st5" width="10.2" height="10.2"/>
	<polygon class="st6" points="23,23.7 23,21.3 25.1,19.6 27.9,21.6 29.9,20.7 31.6,22 31.6,23.7 	"/>
	<circle class="st6" cx="29.4" cy="16.8" r="1.4"/>
	<rect x="15.5" y="38.5" class="st4" width="62.6" height="11.6"/>
	<rect x="16.1" y="39.2" class="st5" width="10.2" height="10.2"/>
	<polygon class="st4" points="17,48.7 17,46.3 19,44.6 21.8,46.7 23.8,45.7 25.6,47 25.6,48.7 	"/>
	<circle class="st4" cx="23.4" cy="41.9" r="1.4"/>
	<g class="st7">
		<rect x="15.5" y="50.9" class="st5" width="62.6" height="11.6"/>
		<path class="st4" d="M78,50.9h-2.3v0.9H78V50.9L78,50.9z M73.4,50.9h-2.3v0.9h2.3V50.9L73.4,50.9z M68.8,50.9h-2.3v0.9h2.3V50.9
			L68.8,50.9z M64.1,50.9h-2.3v0.9h2.3V50.9L64.1,50.9z M59.5,50.9h-2.3v0.9h2.3V50.9L59.5,50.9z M54.9,50.9h-2.3v0.9h2.3V50.9
			L54.9,50.9z M50.2,50.9h-2.3v0.9h2.3V50.9L50.2,50.9z M45.6,50.9h-2.3v0.9h2.3V50.9L45.6,50.9z M40.9,50.9h-2.3v0.9h2.3V50.9
			L40.9,50.9z M36.3,50.9H34v0.9h2.3V50.9L36.3,50.9z M31.7,50.9h-2.3v0.9h2.3V50.9L31.7,50.9z M27,50.9h-2.3v0.9H27V50.9L27,50.9z
			 M22.4,50.9h-2.3v0.9h2.3V50.9L22.4,50.9z M17.7,50.9h-2.3v0.9h2.3V50.9L17.7,50.9z M16.4,53.3h-0.9v2.3h0.9V53.3L16.4,53.3z
			 M16.4,57.9h-0.9v2.3h0.9V57.9L16.4,57.9L16.4,57.9z M17.7,61.6h-2.3v0.9h2.3V61.6L17.7,61.6z M22.4,61.6h-2.3v0.9h2.3V61.6
			L22.4,61.6z M27,61.6h-2.3v0.9H27V61.6L27,61.6z M31.7,61.6h-2.3v0.9h2.3V61.6L31.7,61.6z M36.3,61.6H34v0.9h2.3V61.6L36.3,61.6z
			 M40.9,61.6h-2.3v0.9h2.3V61.6L40.9,61.6z M45.6,61.6h-2.3v0.9h2.3V61.6L45.6,61.6z M50.2,61.6h-2.3v0.9h2.3V61.6L50.2,61.6z
			 M54.9,61.6h-2.3v0.9h2.3V61.6L54.9,61.6z M59.5,61.6h-2.3v0.9h2.3V61.6L59.5,61.6z M64.1,61.6h-2.3v0.9h2.3V61.6L64.1,61.6z
			 M68.8,61.6h-2.3v0.9h2.3V61.6L68.8,61.6z M73.4,61.6h-2.3v0.9h2.3V61.6L73.4,61.6z M78.1,61.6h-2.3v0.9h2.3V61.6L78.1,61.6z
			 M78.1,57.9h-0.9v2.3H78L78.1,57.9L78.1,57.9L78.1,57.9z M78.1,53.3h-0.9v2.3H78L78.1,53.3L78.1,53.3L78.1,53.3z"/>
	</g>
	<g id="_53-Premium-Feature-Icons">
		<g id="Group-Copy-4">
			<g id="Bump">
				<g id="Shape">
					<path class="st8" d="M81.9,57.2c-3.4-0.1-6.7-0.9-9.7-2.3c-0.4-0.2-0.7-0.7-0.6-1.1c0.1-0.5,0.5-0.8,1-0.8h0.2
						c1.5,0.3,3,0.5,4.5,0.5c1.7,0,2.7-0.4,3.2-1.1c1.2-1.9,0.1-6.5-3.4-14.6l-4,3.1c-0.5,0.4-1.3,0.3-1.6-0.3
						c-0.2-0.3-0.3-0.6-0.2-0.9c0.5-2.7,1.8-9.7,2.9-16.1c0.1-0.6,0.7-1.1,1.4-0.9c0.1,0,0.2,0.1,0.3,0.1c5.4,2.9,12.2,6.8,14.8,8.3
						c0.6,0.3,0.7,1,0.4,1.6c-0.2,0.3-0.5,0.5-0.8,0.6l-5,0.9c5,9.2,6.4,15.9,4.1,19.7C88.1,56,85.5,57.2,81.9,57.2z"/>
					<path class="st5" d="M75.4,23.2c0.1,0,0.1,0,0.2,0.1c5.4,2.9,12.2,6.8,14.8,8.3c0.2,0.1,0.3,0.4,0.2,0.6
						c-0.1,0.1-0.2,0.2-0.3,0.2l-5.3,1c-0.3,0-0.4,0.3-0.4,0.5c0,0.1,0,0.1,0.1,0.2C94.3,51.8,89,56.5,82,56.5
						c-3.3-0.1-6.5-0.8-9.4-2.2c-0.2-0.1-0.3-0.3-0.2-0.5c0.1-0.1,0.2-0.2,0.3-0.2h0.1c1.5,0.3,3.1,0.5,4.6,0.5
						c5.3,0,6.2-3.5,0.4-17c-0.1-0.2-0.4-0.4-0.7-0.2l0,0l-0.1,0l-4.2,3.2c-0.2,0.2-0.5,0.2-0.7,0C72,40,71.9,39.8,72,39.7
						c0.5-2.7,1.8-9.7,2.9-16.1C74.9,23.4,75.1,23.2,75.4,23.2 M75.3,21.8c-0.9,0-1.7,0.6-1.9,1.5c-1.1,6.4-2.4,13.4-2.9,16.1
						c-0.2,1,0.4,2,1.4,2.2c0.6,0.1,1.2,0,1.6-0.4l3.3-2.5C80,46,81,50.4,80,51.9c-0.1,0.2-0.6,0.8-2.6,0.8c-1.5,0-3-0.2-4.4-0.5
						c-0.1,0-0.2,0-0.3,0c-0.8,0-1.6,0.6-1.7,1.4c-0.2,0.8,0.2,1.6,1,2c3.1,1.4,6.6,2.2,10,2.3c3.8,0,6.7-1.3,8.1-3.8
						c2.3-3.9,1.1-10.5-3.6-19.5l4.1-0.8c1-0.2,1.7-1.1,1.5-2.1c-0.1-0.5-0.4-1-0.9-1.3c-2.6-1.5-9.4-5.5-14.8-8.3
						C76,21.9,75.7,21.8,75.3,21.8L75.3,21.8L75.3,21.8z"/>
				</g>
			</g>
		</g>
	</g>
</g>
<g class="st0">
	<rect x="14.9" y="55.4" class="st1" width="69.3" height="12.8"/>
	<rect x="15.7" y="56.2" class="st2" width="11.3" height="11.3"/>
	<polygon class="st1" points="16.6,66.7 16.6,64.1 18.9,62.3 22,64.5 24.2,63.5 26.1,64.9 26.1,66.7 	"/>
	<circle class="st1" cx="23.7" cy="59.2" r="1.5"/>
	<rect x="14.9" y="41.5" class="st1" width="69.3" height="12.8"/>
	<rect x="15.7" y="42.3" class="st2" width="11.3" height="11.3"/>
	<polygon class="st1" points="16.6,52.9 16.6,50.3 18.9,48.4 22,50.6 24.2,49.6 26.1,51 26.1,52.9 	"/>
	<circle class="st1" cx="23.7" cy="45.3" r="1.5"/>
	<rect x="14.9" y="18.8" class="st1" width="21.7" height="20.7"/>
	<rect x="16" y="19.9" class="st2" width="19.6" height="14.2"/>
	<polygon class="st1" points="17.4,33.1 17.4,29.9 21.4,27.5 26.9,30.3 30.8,29 34.3,30.8 34.3,33.1 	"/>
	<circle class="st1" cx="32.1" cy="23.3" r="1.5"/>
	<rect x="38.9" y="18.8" class="st1" width="21.7" height="20.7"/>
	<rect x="39.9" y="19.9" class="st2" width="19.6" height="14.2"/>
	<polygon class="st1" points="41.3,33.1 41.3,29.9 45.3,27.5 50.8,30.3 54.8,29 58.2,30.8 58.2,33.1 	"/>
	<circle class="st1" cx="56.1" cy="23.3" r="1.5"/>
	<rect x="62.5" y="18.8" class="st9" width="21.7" height="20.7"/>
	<rect x="63.6" y="19.9" class="st2" width="19.6" height="14.2"/>
	<polygon class="st9" points="65,33.1 65,29.9 69,27.5 74.5,30.3 78.5,29 81.9,30.8 81.9,33.1 	"/>
	<circle class="st9" cx="79.8" cy="23.3" r="1.5"/>
	<polygon class="st10" points="79.1,19.2 73.1,29.3 83.2,23.4 	"/>
	<path class="st10" d="M85.8,27.7c-2.4,0-5.2-1.3-7.4-3.6c-3.6-3.6-4.7-8.5-2.3-10.9c0.9-0.9,2.1-1.3,3.4-1.3c2.4,0,5.2,1.3,7.4,3.6
		c1.6,1.6,2.8,3.6,3.4,5.8c0.5,2.1,0.1,3.9-1.1,5.1C88.3,27.3,87,27.7,85.8,27.7z"/>
	<path class="st2" d="M79.4,12.5c2.2,0,4.9,1.2,7.1,3.4c3.4,3.4,4.5,8,2.3,10.1c-0.8,0.8-1.9,1.2-3,1.1c-2.2,0-4.9-1.2-7.1-3.4
		c-3.4-3.4-4.5-8-2.3-10.1C77.2,12.8,78.3,12.4,79.4,12.5 M79.4,11.5L79.4,11.5c-1.4,0-2.8,0.5-3.8,1.4c-2.6,2.6-1.6,7.7,2.3,11.6
		c2.3,2.3,5.3,3.7,7.8,3.7c1.4,0,2.8-0.5,3.8-1.4c1.3-1.3,1.7-3.3,1.2-5.5c-0.6-2.3-1.8-4.4-3.5-6C84.9,12.8,82,11.5,79.4,11.5
		L79.4,11.5L79.4,11.5z"/>
	<path class="st10" d="M85.4,22.3c-1.3-0.1-2.5-0.7-3.4-1.6c-0.7-0.7-1.3-1.6-1.5-2.6c-0.3-0.9-0.1-1.8,0.5-2.5l7-7.1l6.1,6.1
		L87,21.7C86.6,22.1,86,22.4,85.4,22.3L85.4,22.3z"/>
	<path class="st2" d="M88,9.2l5.4,5.4l-6.1,6.1l-0.7,0.7c-0.4,0.3-0.8,0.5-1.3,0.5c-1.2-0.1-2.3-0.6-3.1-1.5c-1.5-1.5-1.9-3.4-1-4.4
		l0.7-0.7L88,9.2 M88,7.7l-0.7,0.7l-6.1,6.1l-0.7,0.7c-1.4,1.4-0.9,3.9,1,5.8c1,1.1,2.3,1.7,3.8,1.8c0.8,0,1.5-0.3,2.1-0.8l0.7-0.7
		l6.1-6.1l0.7-0.7l-0.7-0.7l-5.4-5.4L88,7.7L88,7.7z"/>
	<path class="st10" d="M92.1,18.9c-1.9,0-4.1-1-5.8-2.8c-1.3-1.2-2.2-2.8-2.6-4.5c-0.4-1.6-0.1-3.1,0.9-4c0.7-0.7,1.7-1.1,2.7-1
		c1.9,0,4.1,1,5.8,2.8c2.9,2.9,3.7,6.6,1.8,8.5C94.1,18.5,93.2,18.9,92.1,18.9z"/>
	<path class="st2" d="M87.3,7.1C89,7.1,91,8,92.7,9.7c2.6,2.6,3.4,6.1,1.8,7.8c-0.6,0.6-1.5,0.9-2.3,0.9c-1.7,0-3.7-0.9-5.4-2.6
		C84.2,13.2,83.4,9.7,85,8C85.6,7.4,86.4,7,87.3,7.1 M87.3,6L87.3,6c-1.1,0-2.3,0.4-3.1,1.2c-2.1,2.1-1.3,6.2,1.8,9.2
		c1.8,1.8,4.1,2.9,6.2,2.9c1.1,0,2.3-0.4,3.1-1.2c2.1-2.1,1.3-6.2-1.8-9.2C91.6,7.1,89.3,6,87.3,6L87.3,6z"/>
</g>
<g class="st0">
	<rect y="-10" class="st11" width="100" height="100"/>
	<g class="st12">
		<rect x="45.7" y="23.1" class="st13" width="7" height="0.7"/>
		<path class="st13" d="M49.2,27.8c1.9,0,3.5-1.1,3.5-2.5h-7C45.7,26.7,47.3,27.8,49.2,27.8z"/>
		<path class="st13" d="M57.3,10.3c0-4.6-3.6-8.3-8.1-8.3c-4.4,0-8.1,3.8-8.1,8.4l0,0c0,3,1.6,4.9,2.8,6.4c0.9,1.1,1.7,2.1,1.7,3.2
			v0.4l0,0v0.5v0.7h7.1v-0.7v-0.5l0,0V20c0-1.1,0.8-2.1,1.7-3.2C55.7,15.2,57.2,13.3,57.3,10.3L57.3,10.3
			C57.3,10.4,57.3,10.4,57.3,10.3L57.3,10.3L57.3,10.3z M53.8,16.2c-0.9,1.1-1.7,2.1-1.9,3.3H50l0,0h-0.5v-7l4.2-4.3l-0.5-0.5
			l-4,4.3l-4.1-4.1l-0.5,0.5l4.2,4.3v7h-2.4c-0.2-1.2-1-2.3-1.9-3.3c-1.2-1.5-2.6-3.2-2.6-5.8l0,0c0-4.2,3.2-7.6,7.2-7.6
			s7.2,3.4,7.2,7.5C56.4,13,55,14.7,53.8,16.2z"/>
	</g>
	<polygon class="st14" points="49.9,74.1 67.7,68.2 67.7,51.2 53.2,56 49.9,50.8 	"/>
	<polygon class="st14" points="49.9,48.2 53.7,54.3 70.4,48.7 67.2,42.3 	"/>
	<polygon class="st14" points="67.2,40.9 72.2,35.7 55.1,29.7 49.9,35.1 	"/>
	<g class="st15">
		<polygon class="st16" points="48.5,74.1 30.7,68.2 30.7,51.2 45.3,56 48.5,50.8 		"/>
		<polygon class="st16" points="48.5,48.2 44.7,54.3 28,48.7 31.3,42.3 		"/>
		<polygon class="st16" points="31.3,40.9 26.2,35.7 43.4,29.7 48.5,35.1 		"/>
	</g>
	<path class="st17" d="M24.9,35c-1.9,1.8-4.1,3.2-6.5,4c-0.3,0.1-0.7,0-0.9-0.3c-0.2-0.3-0.2-0.7,0.1-1l0.1-0.1
		c1-0.6,1.9-1.4,2.7-2.2c0.9-0.9,1.3-1.7,1.1-2.4c-0.3-1.7-3.4-3.6-9.8-6.1l-0.5,3.8c-0.1,0.5-0.5,0.8-1,0.7c-0.2,0-0.4-0.2-0.6-0.4
		c-1.2-1.8-4.3-6.2-7.1-10.3c-0.3-0.4-0.2-1,0.2-1.2c0.1-0.1,0.2-0.1,0.2-0.1c4.5-1.4,10.3-2.9,12.5-3.5c0.5-0.1,1,0.2,1.1,0.6
		c0.1,0.3,0,0.5-0.1,0.7l-2.2,3.2c7.7,2.3,12,5.2,12.9,8.4C27.6,31,26.9,33,24.9,35z"/>
	<g class="st15">
		<g>
			<path class="st18" d="M87.5,25.9c0.5,0.2,0.4,0.5,0.8,0.5c0.5,0.1,0.9-0.5,1.3-0.3c0.4,0.3,0.2,1.3,0.2,1.7
				c0,0.7-0.1,1.2,0.1,1.7c1.9-3.4,3.7-6.7,5.6-10.1l-0.1-0.1c-4.9-2.7-9.8-5.4-14.6-8.1c-1,1.7-1.9,3.4-2.8,5.1s-2,3.4-2.8,5.1
				c0.9-0.3,2-0.3,3-0.7c0.7-0.3,1.4-0.7,2-1.1c0.7-0.4,1.3-0.9,2.1-0.9c0.7,0.4,0.8,0.8,1.6,0.8c0.6,0,1.4-0.8,1.9-0.4
				c0.3,0.3,0.3,1.1,0.3,1.6c0,1.7-0.1,3.3,0.1,4.8c-1.3,0.8-2.5,1.2-3.8,1.3c-2.5-1.4-5.3-2.9-7.9-4.4c-0.3,0.4-0.4,0.8-0.7,1.1
				c4.9,2.8,9.8,5.3,14.6,8.2c0.2-0.2,0.4-0.8,0.7-1.1c-1.9-1.1-3.9-2.1-5.8-3.2c0.4-0.2,0.8-0.1,1.3-0.3
				C85.8,26.9,86.6,26.1,87.5,25.9z"/>
			<path class="st18" d="M98.2,18.7c-6-3.3-12.1-6.7-18.1-10.1l0,0c-3.2,6.1-6.7,12.1-10,18.2c6.1,3.2,12.1,6.8,18.2,10
				C91.6,30.8,94.9,24.8,98.2,18.7C98.3,18.7,98.3,18.7,98.2,18.7z"/>
			<path class="st18" d="M95.6,26.1c0.6,0.7,1.3,1.5,1.8,2.1c-1.4,1.1-2.8,2.3-4.2,3.6c-0.5,0.4-1,0.8-1.5,1.2
				c-0.2,0.4-0.4,0.8-0.6,1.2s-0.5,0.8-0.7,1.2c-0.5,0.8-1,1.7-1.3,2.5c3.5-3.1,7.3-6.3,11-9.6c-1.1-1.4-2.4-2.8-3.5-4.2
				C96.3,24.8,96,25.4,95.6,26.1z"/>
			<path class="st19" d="M77.8,41.8C77.7,41.8,77.8,41.8,77.8,41.8L75,32.7c2.2,2.5,4.5,5.2,6.8,7.8C80.5,41,79.1,41.4,77.8,41.8z
				 M88.1,38.7c-1.2,1.1-2.4,2.1-3.6,3.1c-3.2-3.7-6.2-7.1-9.3-10.7l13.2,7.3C88.3,38.6,88.3,38.6,88.1,38.7z M89.2,37.9
				c0.3-0.8,0.8-1.6,1.3-2.5c0.2-0.4,0.5-0.8,0.7-1.2s0.4-0.8,0.6-1.2c0.4-0.4,1-0.8,1.5-1.2c1.4-1.2,2.8-2.4,4.2-3.6
				c-0.5-0.7-1.1-1.4-1.8-2.1c0.4-0.6,0.7-1.2,1-1.9c1.1,1.4,2.4,2.8,3.5,4.2C96.5,31.6,92.7,34.8,89.2,37.9z M97.6,36
				c-2.1,0.5-4.4,1.4-6.4,1.8l5.5-4.8C97,34,97.2,34.9,97.6,36C97.6,35.9,97.6,35.9,97.6,36z"/>
			<g>
				<path class="st19" d="M83.7,14.8c-0.1-0.3-0.3-0.6-0.6-0.8c-0.9-0.7-2.3-0.4-2.6,0.8c-0.6,1.8,2.5,3.2,3.3,1
					C83.7,15.7,83.8,15.1,83.7,14.8z"/>
				<path class="st19" d="M98.3,18.7L98.3,18.7C92.2,15.4,86.1,12,80.1,8.6l0,0c-3.2,6.1-6.7,12.1-10,18.2c6.1,3.2,12.1,6.8,18.2,10
					C91.6,30.8,94.9,24.8,98.3,18.7z M74.7,22.6c2.6,1.6,5.4,3,7.9,4.4c1.3-0.1,2.5-0.5,3.8-1.3c-0.2-1.5-0.1-3.2-0.1-4.8
					c0-0.5,0-1.3-0.3-1.6c-0.5-0.5-1.3,0.4-1.9,0.4c-0.7,0-0.8-0.4-1.6-0.8c-0.8,0-1.4,0.5-2.1,0.9c-0.6,0.4-1.4,0.9-2,1.1
					c-1,0.4-2.1,0.4-3,0.7c0.7-1.8,1.8-3.4,2.8-5.1c0.9-1.7,1.8-3.4,2.8-5.1c4.8,2.7,9.7,5.4,14.6,8.1l0.1,0.1
					c-1.9,3.4-3.7,6.7-5.6,10.1C90,29.1,90,28.6,90,28c0-0.4,0.2-1.4-0.2-1.7c-0.4-0.2-0.8,0.4-1.3,0.3c-0.4-0.1-0.3-0.3-0.8-0.5
					c-1,0.2-1.8,1-2.7,1.4c-0.4,0.2-0.9,0.1-1.3,0.3c1.9,1.1,3.9,2.1,5.8,3.2c-0.3,0.4-0.4,0.9-0.7,1.1c-4.9-2.9-9.8-5.4-14.6-8.2
					C74.3,23.4,74.4,23,74.7,22.6z"/>
			</g>
		</g>
	</g>
</g>
</svg>
