<?xml version="1.0" encoding="utf-8"?>
<!-- Generator: Adobe Illustrator 16.0.4, SVG Export Plug-In . SVG Version: 6.00 Build 0)  -->
<!DOCTYPE svg PUBLIC "-//W3C//DTD SVG 1.1//EN" "http://www.w3.org/Graphics/SVG/1.1/DTD/svg11.dtd" [
	<!ENTITY ns_extend "http://ns.adobe.com/Extensibility/1.0/">
	<!ENTITY ns_ai "http://ns.adobe.com/AdobeIllustrator/10.0/">
	<!ENTITY ns_graphs "http://ns.adobe.com/Graphs/1.0/">
	<!ENTITY ns_vars "http://ns.adobe.com/Variables/1.0/">
	<!ENTITY ns_imrep "http://ns.adobe.com/ImageReplacement/1.0/">
	<!ENTITY ns_sfw "http://ns.adobe.com/SaveForWeb/1.0/">
	<!ENTITY ns_custom "http://ns.adobe.com/GenericCustomNamespace/1.0/">
	<!ENTITY ns_adobe_xpath "http://ns.adobe.com/XPath/1.0/">
]>
<svg version="1.1" id="Layer_1" xmlns:x="&ns_extend;" xmlns:i="&ns_ai;" xmlns:graph="&ns_graphs;"
	 xmlns="http://www.w3.org/2000/svg" xmlns:xlink="http://www.w3.org/1999/xlink" x="0px" y="0px" width="35px" height="35px"
	 viewBox="0 0 35 35" enable-background="new 0 0 35 35" xml:space="preserve">
<metadata>
	<sfw  xmlns="&ns_sfw;">
		<slices></slices>
		<sliceSourceBounds  bottomLeftOrigin="true" width="35" height="35" x="280" y="192"></sliceSourceBounds>
	</sfw>
</metadata>
<g id="Ebene_3">
	<g>
		<path fill="#FFFFFF" d="M32.7,9.849c-0.019-0.029-0.028-0.06-0.044-0.089c-2.356,0.004-6.055,0.012-6.999,0.012
			c0-1.038,0-4.691,0-7.187c-0.067-0.037-0.14-0.065-0.206-0.101c0,2.56,0,6.377,0,7.375C26.396,9.861,30.287,9.853,32.7,9.849z"/>
		<path fill="#FFFFFF" d="M34.445,15.725c0,0.54,0,1.08,0,1.618c-1.271,0-7.518,0-8.787,0c0-1.393,0-2.788,0-4.183
			c1.152,0,6.385,0,8.301,0c-0.016-0.058-0.027-0.114-0.044-0.172c-1.968,0.004-7.229,0.024-8.405,0.024
			c-0.119,1.341-0.019,2.905-0.053,4.331c-0.514,0-1.027,0-1.539,0c0-1.924-0.047-3.914-0.047-5.839
			c1.581,0,6.936-0.006,9.555-0.008c-0.027-0.07-0.051-0.142-0.078-0.212c-2.312,0.005-6.938,0.021-8.102,0.021h-1.337
			c0-0.15,0-1.155,0-1.444c0-1.217,0-5.672,0-8.088c-0.066-0.028-0.138-0.048-0.205-0.075c0,2.763,0,7.986,0,9.607
			c-1.851,0-3.698,0-5.55,0c0-0.464,0-0.929,0-1.393l3.955-0.052c0-1.269,0-6.47,0-8.693c-0.051-0.015-0.103-0.025-0.151-0.039
			c0,2.876,0,5.753,0,8.629c-1.276,0-2.551,0-3.828,0c0-3.066,0-6.133,0-9.2c-0.022,0-0.049-0.003-0.075-0.004V17.31H0.539
			C0.538,17.374,0.53,17.436,0.53,17.5c0,9.374,7.614,16.973,17.004,16.973c9.394,0,17.006-7.599,17.006-16.973
			C34.539,16.9,34.507,16.308,34.445,15.725z M21.907,17.285c-1.251,0-2.5,0-3.753,0c0-1.375,0-2.75,0-4.125
			c1.253,0,2.502,0,3.753,0C21.907,14.535,21.907,15.91,21.907,17.285z M22.102,17.284c0-1.444,0-2.888,0-4.33
			c-1.317,0-2.635,0-3.953,0c0-0.465,0-0.929,0-1.393c1.851,0,3.699,0,5.549,0c0,1.907,0.004,3.83,0.004,5.737
			C23.166,17.298,22.637,17.284,22.102,17.284z"/>
		<path d="M18.053,0.554c-0.048-0.002-0.096-0.005-0.143-0.006V17.19H9.384V2.605C4.161,5.457,0.61,10.966,0.539,17.311h17.516
			V0.554H18.053z"/>
		<path fill="#FFFFFF" d="M9.384,2.605l0.642,14.483l7.884,0.103V0.548c-0.127-0.003-0.249-0.02-0.377-0.02
			C14.581,0.528,11.803,1.282,9.384,2.605z"/>
		<path fill="#268BCC" d="M23.871,11.503c0,0,7.24-0.003,9.555-0.008c-0.191-0.491-0.533-1.269-0.77-1.735
			c-2.413,0.004-6.055,0.012-6.999,0.012c0-0.999,0-4.628,0-7.187c-0.5-0.263-1.261-0.601-1.788-0.813
			C23.869,4.188,23.871,11.354,23.871,11.503z"/>
		<path fill="#268BCC" d="M25.657,17.343c1.271,0,7.519,0,8.788,0c0-0.539,0-1.079,0-1.618c-0.092-0.878-0.266-1.731-0.487-2.565
			c-1.917,0-7.149,0-8.302,0C25.657,14.555,25.657,15.95,25.657,17.343z"/>
		<path fill="#268BCC" d="M18.055,11.495c0,0.463,0,1.2,0,1.665c1.318,0,2.533,0,3.854,0c0,1.443,0,2.682,0,4.125
			c0.532,0,1.479,0.058,2.011,0.058c0-1.907-0.047-3.932-0.047-5.839C22.021,11.503,19.902,11.495,18.055,11.495z"/>
		<path fill="#FFD730" d="M23.917,17.343c0.511,0,1.228,0,1.741,0c0.033-1.426,0-2.92,0-4.183c1.176,0,6.333,0.004,8.301,0
			c-0.141-0.507-0.35-1.177-0.534-1.665c-2.618,0.002-7.974,0.008-9.556,0.008C23.869,13.43,23.917,15.419,23.917,17.343z"/>
		<path fill="#FFD730" d="M32.656,9.761c-1.561-3.033-4.002-5.544-6.999-7.173c0,2.495,0,6.147,0,7.187
			C26.602,9.773,30.3,9.764,32.656,9.761z"/>
		<path fill="#FFD730" d="M18.055,9.774c0,0.463,0,1.256,0,1.721c1.85,0,3.965,0.008,5.816,0.008c0-1.62,0.038-6.969,0.038-9.731
			c-0.521-0.202-1.408-0.493-1.951-0.644c0,2.223,0,7.36,0,8.629L18.055,9.774z"/>
		<path fill="#268BCC" d="M21.958,9.758c0-2.876,0-5.753,0-8.629c-1.228-0.33-2.584-0.419-3.903-0.464c0,3.066,0,6.044,0,9.109
			C19.332,9.774,20.68,9.758,21.958,9.758z"/>
		<path fill="#FFD730" d="M18.055,17.31c1.252,0,2.604-0.025,3.854-0.025c0-1.375,0-2.75,0-4.125c-1.251,0-2.603,0-3.854,0
			C18.055,14.535,18.055,15.936,18.055,17.31z"/>
	</g>
</g>
<g id="Ebene_1">
	<g>
		<path fill="#7E7E7E" d="M8.957,20.197c0.073-0.121,0.701-0.07,0.478,0.104C9.455,20.09,9.104,20.245,8.957,20.197z"/>
		<path fill="#010202" d="M15.897,20.729c-0.008-0.062,0.002-0.065,0-0.104c-0.021-0.265-0.441-0.127-0.688-0.16
			c-0.077-0.205,0.124-0.354-0.053-0.584c1.299,0.431,2.524-1.424,3.655-0.214c0.178-0.052,0.291-0.168,0.479-0.214
			c0.778,0.11,1.187,0.062,2.015,0.055c0.071,0.089,0.188,0.129,0.155,0.319c0.188-0.079,0.396-0.141,0.688-0.105
			c0.049,0.127,0.215,0.141,0.158,0.37c0.608-0.168,0.426,0.461,0.957,0.373c0.201,0.166,0.168,0.572,0.525,0.586
			c0.22,0.688,1.005,1.558,0.425,2.394c-0.421-2.176-2.883-3.818-5.563-2.926c0.354,0.166,0.854,0.174,1.012,0.532
			c-0.408,0.244-1.197,0.203-1.379-0.215c-0.361,0.356-0.915,0.521-1.642,0.373c-0.258,0.062-0.229,0.408-0.584,0.372
			c-0.251-0.034,0.174-0.186,0.106-0.372C16.113,21.004,15.436,21.094,15.897,20.729z M17.699,20.09
			c-0.007-0.135-0.078-0.205-0.212-0.211c-0.044,0.229-0.298,0.162-0.425,0.053C16.842,20.225,17.58,20.287,17.699,20.09z"/>
		<path fill="#7E7E7E" d="M14.679,23.918c-0.285-0.018-0.992,0.109-0.742-0.268C13.834,24.092,14.544,23.717,14.679,23.918z"/>
		<path fill="#010202" d="M21.354,26.043c0.186,0.402,0.408,0.762,0.795,0.957c-0.211,0.459-0.707,0.254-0.953,0.107
			c-0.145-0.328,0.094-0.623,0.105-0.955c-0.539,0.186-0.685,1.416-0.213,1.966c-1.064,0.401-2.232,0.698-2.807,1.597
			c-0.178-0.021-0.233-0.158-0.372-0.215c-0.438,0.322-0.623,0.898-1.482,0.797c0.081-0.324,0.289-0.521,0.372-0.852
			c-0.289,0.049-0.393,0.281-0.477,0.531c-0.193-0.018-0.345,0.01-0.479,0.058c0.247-0.341,0.578-0.593,0.796-0.959
			c1.371-0.024,2.229-0.563,2.806-1.382c-1.58-0.938,0.018-2.319,1.59-2.234c0.088,0.09,0.158,0.23,0.206,0.32
			C21.241,25.799,21.271,25.824,21.354,26.043z"/>
		<path fill="#010202" d="M8.957,20.197c-0.311,0.062-0.389-0.105-0.423-0.318c1.772-0.113,2.326,1,4.132,0.852
			c0.526,0.588,0.875,1.354,1.432,1.912c-0.236,0.33-0.383,0.75-0.478,1.227c-0.206-0.098-0.552-0.053-0.688-0.217
			c-0.272-0.674-0.202-1.538-0.689-2.02c-0.372-0.365-1.439-0.793-1.96-0.479c-0.181,0.006-0.031-0.324-0.212-0.32
			c-0.746,0.35-1.275-0.025-1.694-0.424c0.278-0.23,0.885,0.191,1.06-0.105C9.658,20.127,9.03,20.076,8.957,20.197z"/>
		<path fill="#E0403D" d="M15.738,20.676c0.062,0.006,0.151-0.011,0.159,0.055c-0.461,0.365-1.91,0.271-1.43-0.53
			c0.114,0.237,0.366,0.396,0.603,0.444C15.194,20.645,15.637,20.691,15.738,20.676z"/>
		<path fill="#010202" d="M13.938,23.65c0.009-1.729,2.347-1.114,2.967-2.23c0.561,0.258,1.054-0.039,1.43-0.266
			c0.556,0.486,0.017,1.369-0.319,1.753c1.955,0.29,3.867,0.624,5.143,1.597c0.854-0.705,1.604,0.209,2.488,0.264
			c-0.017,0.32-0.617,0.223-0.849,0.162c-0.182,0.121,0.242,0.205,0.054,0.316c-0.725,0.045-0.664-1.172-1.481-0.688
			c0.584,0.742,0.534,2.115,1.748,2.229c0.084,0.863,0.243,1.988,0.528,2.818c-0.188,0.131-0.438,0.194-0.635,0.315
			c-0.109,0.567-0.898,0.446-1.38,0.642c0.089-0.41,0.499-0.494,0.636-0.853c-0.43-0.173-0.43,0.517-0.953,0.427
			c-0.119-0.186,0.465-0.556,0.742-0.691c0.252-0.038,0.363,0.062,0.582,0.054c0.295-0.76,0.006-1.795-0.531-2.125
			c-0.559-0.349-1.604-0.324-2.062-0.744c-0.655-0.603-0.556-2.014-1.961-1.862c0.067,0.194,0.312,0.226,0.478,0.319
			c-0.192,0.157-3.377,0.276-4.079,0.269c0.019-0.279,0.36-0.472,0.211-0.744c-0.594,0.074-0.397,0.945-0.902,1.115
			c-0.939-0.207-2.07-1.062-3.125-0.959c-0.875,0.09-0.995,0.912-1.537,1.438c-0.197,0.004-0.306-0.081-0.423-0.16
			c-0.23,0.106-0.272,0.399-0.371,0.64c-0.333,0.11-0.722,0.162-1.112,0.215c-0.153-0.199,0.467-0.521,0.477-0.903
			C9.265,26.036,9.324,26.67,8.8,26.473c-0.017-0.312,0.588-0.43,0.794-0.688c1.416-0.069,1.673-1.302,2.649-1.81
			c0.938-0.105,1.93,0.397,2.595,0.055c0.025-0.114-0.075-0.104-0.158-0.107C14.544,23.717,13.834,24.092,13.938,23.65z"/>
		<path fill="#010202" d="M20.611,19.081c0.23-0.214,0.818-0.335,0.951,0.054c0.229-0.22,0.799-0.222,0.902,0.104
			c0.176-0.003,0.264-0.089,0.479-0.052c0.068,0.105,0.254,0.096,0.211,0.316c0.354-0.021,0.683-0.012,0.688,0.318
			c0.791,0.003,0.883,0.705,1.327,1.062c0,0.274,0.119,0.556,0,0.798c-0.597-0.892-1.295-1.681-2.651-1.808
			c-0.267-0.453-0.98-0.151-1.271-0.533c-0.81,0.117-1.683-0.229-2.438,0.16c-0.115-0.494,0.646-0.632,0.853-0.315
			C19.805,18.945,20.432,18.672,20.611,19.081z"/>
	</g>
</g>
<rect x="1.001" y="16.812" width="33.187" height="0.525"/>
<rect x="17.659" y="0.417" width="0.524" height="16.888"/>
<path id="border" fill="#CCCCCC" d="M17.5,1C26.6,1,34,8.402,34,17.5C34,26.598,26.6,34,17.5,34C8.402,34,1,26.598,1,17.5
	C1,8.402,8.402,1,17.5,1 M17.5,0C7.835,0,0,7.835,0,17.5C0,27.164,7.835,35,17.5,35S35,27.164,35,17.5C35,7.835,27.165,0,17.5,0
	L17.5,0z"/>
</svg>
