<svg id="Layer_1" xmlns="http://www.w3.org/2000/svg" viewBox="0 0 324.8 336.2"><style>.st0{fill:#5b422d}.st3{fill:#ce985e}.st4{fill:#836f67}.st5{fill:#efa470}.st7{fill:#fff}.st18{fill:#8c6239}</style><g id="characters__x2F__objects__x2F__postitions"><path class="st0" d="M163.3 178.7l-28.7 9.6 16.4 9.8s19.7-2.2 19.9-3.5-7-15.9-7-15.9m38.4-52.8s23.3 1.6-2 18.3c-.8-9.7 0-17.8 0-17.8l2-.5z"/><linearGradient id="SVGID_1_" gradientUnits="userSpaceOnUse" x1="-336.701" y1="-492.032" x2="-336.701" y2="-413.14" gradientTransform="matrix(.9361 0 0 -1 454.123 -170.158)"><stop offset="0" stop-color="#426897"/><stop offset="1" stop-color="#192f4b"/></linearGradient><path d="M151.9 247.9c-4.9 11.7-25.5 45.4.4 75l-16 1.1c-23.3-28.8-2.6-57.2 5.7-73.3l9.9-2.8z" fill="url(#SVGID_1_)"/><radialGradient id="SVGID_2_" cx="-513.002" cy="-326.422" r="47.202" gradientTransform="matrix(1.0734 -.2799 -.2735 -1.0927 613.294 -368.676)" gradientUnits="userSpaceOnUse"><stop offset="0" stop-color="#fcc58a"/><stop offset=".575" stop-color="#fcc289"/><stop offset=".962" stop-color="#fbb986"/><stop offset="1" stop-color="#fbb885"/></radialGradient><path d="M194.1 179.1c4.2-1.1 10.8-30.8 6.3-50.4-13.7-59.3-13.1-56.4-13.1-56.4-1.1-4.4-5.5-7-9.7-5.9L97.8 87.2c-4.3 1.1-5.5 7-4.4 11.3 3.3 11.3 5.9 21.9 14.3 53.6 12.2 45.5 22.8 43 41.7 38l44.7-11z" fill="url(#SVGID_2_)"/><path class="st3" d="M198.4 112c-8.8-47.8-8.3-53.1-8.3-53.1-.9-4.4-5.2-7.3-9.5-6.4L99.9 69.6c-4.5.9-7 25-9.7 11.6-.5-.7-1.9 1.2 7.1 42 .4.3 7 16.4 7 16.4-12.4-30.7-7-48-7-48s46.4 8.8 76.7-8l-5.1-1.6 9.6-2c13.7 21 16.7 50 16.3 42.9 0-.3 3.5-10.7 3.6-10.9z"/><path class="st4" d="M115.7 57.5c17.1-14.4 26.9-11.5 43.1-17.7 7-2.8 8.2-7.8 8.2-7.8-1.8 17.8-25.1 14-40.8 20.2l-10.5 5.3z"/><path class="st5" d="M121.8 139.8c.4 3-1.7 5.9-4.7 6.3-3 .4-5.8-1.7-6.2-4.7-.4-3 1.7-5.9 4.7-6.3 3-.5 5.8 1.6 6.2 4.7z"/><path class="st3" d="M109.4 118.6c.6 4.4 4.6 7.5 8.9 6.8 4.4-.6 7.3-4.7 6.8-9.1-.6-4.4-4.6-7.5-8.9-6.8-4.3.6-7.4 4.7-6.8 9.1z"/><radialGradient id="SVGID_3_" cx="-436.582" cy="-289.291" r="6.313" gradientTransform="matrix(-1.097 .1581 -.1533 -1.1168 -406.08 -137.161)" gradientUnits="userSpaceOnUse"><stop offset="0" stop-color="#333"/><stop offset=".456" stop-color="#313131"/><stop offset=".7" stop-color="#292929"/><stop offset=".894" stop-color="#1b1b1b"/><stop offset="1" stop-color="#101010"/></radialGradient><path d="M110.3 117.9c.5 3.9 4.1 6.6 7.8 6.1 3.9-.6 6.5-4.2 6-8.1s-4.1-6.6-7.8-6c-3.9.5-6.6 4.1-6 8z" fill="url(#SVGID_3_)"/><path class="st7" d="M121.7 112.8c1 1.4.9 3.2-.3 4.1-1.2.9-3 .5-4-.9s-.9-3.2.3-4.1c1.2-.8 3-.5 4 .9z"/><path class="st3" d="M169.8 109.1c.6 4.4-2.4 8.5-6.8 9.1s-8.3-2.4-8.9-6.8c-.6-4.4 2.4-8.5 6.8-9.1 4.2-.7 8.3 2.4 8.9 6.8z"/><radialGradient id="SVGID_4_" cx="-415.888" cy="-289.2" r="6.307" gradientTransform="matrix(1.097 -.1581 -.1533 -1.1168 573.733 -279.071)" gradientUnits="userSpaceOnUse"><stop offset="0" stop-color="#333"/><stop offset=".456" stop-color="#313131"/><stop offset=".7" stop-color="#292929"/><stop offset=".894" stop-color="#1b1b1b"/><stop offset="1" stop-color="#101010"/></radialGradient><path d="M168.8 108.7c.5 3.9-2.1 7.5-6 8-3.9.6-7.3-2.2-7.8-6.1s2.1-7.5 6-8c3.7-.5 7.2 2.2 7.8 6.1z" fill="url(#SVGID_4_)"/><path class="st7" d="M166.4 105.6c1 1.4.9 3.2-.3 4.1s-3 .5-4-.9-.9-3.2.3-4.1 3-.5 4 .9z"/><linearGradient id="SVGID_5_" gradientUnits="userSpaceOnUse" x1="-14812.111" y1="7938.258" x2="-14812.111" y2="7815.997" gradientTransform="matrix(.9166 -.2027 -.1897 -.9792 15213.85 4792.786)"><stop offset="0" stop-color="#574537"/><stop offset=".576" stop-color="#433329"/><stop offset="1" stop-color="#32241d"/></linearGradient><path d="M104.4 140.3c-.4-2.2-6.3-3.5-16.6-51.1-.8 1.3-2.2 2.5-2.9 4-2.6-13.1 3.1-17 3.1-17-1.5 2 .1-.1 0 0 0 0-.5-2.4-4.4-1.8 2.1-4.1 5-4.8 9.2-5.9-1.1-.1 7.1-4.7 7.4-5.4 1.7-3.2 2.1-5.2 2.6-10.6-1 1.5-1.2 3.2-1.8 4.7 10.4-7.1 14.7-11.7 27.3-14.5 10.2-2.3 25.2-5.6 34.4-11.6 6-3.9 9.9-8.8 7.7-14.9-.3-.1-.3-.1 0 0 12.4 5.1 13.5 17.4 13.5 17.4s1.2-.6 2.3-5.2c4.3 7.7 4.7 16.8 2.3 23 11.5 4.1 17.8 46.1 17.5 54.2-1.2 30.5-6.6 26-11.7 23.5-2.9-16.6-4.5-39.3-14.5-52.9 0 0-5-1.9-18.1 3.7l7 2.1c-33.4 16-74.2 8.6-74.3 6.1.2 1.5-.3 13.6 10 52.2z" fill="url(#SVGID_5_)"/><path class="st0" d="M169.2 178.3s-6 42-33.8 1.5c19 1.2 32.5-4.6 32.5-4.6l1.3 3.1z"/><radialGradient id="SVGID_6_" cx="10390.192" cy="-3970.544" r="25.284" gradientTransform="matrix(-1.4758 -.0022 .00169 -1.128 15465.786 -4130.218)" gradientUnits="userSpaceOnUse"><stop offset="0" stop-color="#454545"/><stop offset="1" stop-color="#252525"/></radialGradient><path d="M160.2 334.3l-43.3-.1c-.4 0-.7-.2-.8-.5-.4-2.7 1.7-13.8 35.5-12.4 8.5.3 9.7 10 9.4 12.5-.1.3-.4.5-.8.5z" fill="url(#SVGID_6_)"/><linearGradient id="SVGID_7_" gradientUnits="userSpaceOnUse" x1="-1870.602" y1="-486.553" x2="-1870.602" y2="-400.962" gradientTransform="matrix(-.9144 .0025 -.1975 -1.0232 -1591.212 -169.855)"><stop offset="0" stop-color="#426897"/><stop offset="1" stop-color="#192f4b"/></linearGradient><path d="M192.6 245.6c7.1 12 7.6 18.1 11 38.9 1.1 11.5 5.2 34.2 3.7 40.2l14 1.1c1.7-18.9-4.4-31.6-8.1-47.6-1.9-8-1.9-20.5-13.3-36.9l-7.3 4.3z" fill="url(#SVGID_7_)"/><radialGradient id="SVGID_8_" cx="11838.79" cy="-3901.656" r="26.523" gradientTransform="matrix(1.1765 -.002 -.00169 -1.2529 -13709.447 -4539.38)" gradientUnits="userSpaceOnUse"><stop offset="0" stop-color="#454545"/><stop offset="1" stop-color="#252525"/></radialGradient><path d="M197.4 335.6l34.6-.1c.3 0 .6-.3.6-.6.3-3 2.3-15-16.1-15-24 0-20 12.3-19.7 15 0 .4.3.7.6.7z" fill="url(#SVGID_8_)"/><linearGradient id="SVGID_9_" gradientUnits="userSpaceOnUse" x1="-710.884" y1="-419.347" x2="-710.884" y2="-293.047" gradientTransform="matrix(-.9361 0 0 -1 -480.077 -170.158)"><stop offset="0" stop-color="#8c6239"/><stop offset=".034" stop-color="#8f653c"/><stop offset=".208" stop-color="#9c7248"/><stop offset=".443" stop-color="#a3794f"/><stop offset="1" stop-color="#a57b51"/></linearGradient><path d="M148.1 195.6c2.4-.7 18.2-11.3 13.4-30.2 23.7-3.9 36.8-16.1 45.5-28.8 7.1-10.7-2-9-2-9 1.5-4.7-.6-2.3-.6-4.7 8.9-.2 12.6 2.3 10.6 12.4-2.9 14.6-1.7 15.6-1.7 15.6s13.3 25.4 8.2 82c-8.7 14.7-58.6 16.8-62.6 16.2-3.9-.8-10.8-53.5-10.8-53.5z" fill="url(#SVGID_9_)"/><linearGradient id="SVGID_10_" gradientUnits="userSpaceOnUse" x1="-674.696" y1="-412.658" x2="-674.696" y2="-488.425" gradientTransform="matrix(-.9361 0 0 -1 -480.077 -170.158)"><stop offset="0" stop-color="#8c6239"/><stop offset=".034" stop-color="#8f653c"/><stop offset=".208" stop-color="#9c7248"/><stop offset=".443" stop-color="#a3794f"/><stop offset="1" stop-color="#a57b51"/></linearGradient><path d="M124.5 313.5s-7.8-29.5 7.5-56.8c37.4 4.4 48.5-14.2 48.5-14.2s-1.9 24.2-3.5 29.3c-1.6 5.2-5.7 19.8-9.8 45.1-17.5 2-34.3 2.5-42.7-3.4z" fill="url(#SVGID_10_)"/><linearGradient id="SVGID_11_" gradientUnits="userSpaceOnUse" x1="-724.583" y1="-414.758" x2="-724.583" y2="-487.194" gradientTransform="matrix(-.9361 0 0 -1 -480.077 -170.158)"><stop offset="0" stop-color="#8c6239"/><stop offset=".034" stop-color="#8f653c"/><stop offset=".208" stop-color="#9c7248"/><stop offset=".443" stop-color="#a3794f"/><stop offset="1" stop-color="#a57b51"/></linearGradient><path d="M224.6 244.6s5.4 7.6 7.5 29.3c2.5 24.6-.1 33.2-1 35.4-1.6 4.1-48.5 9.2-53.5 7.2-5.3-2.1-15.7-53.7-14.2-57.4 1.7-4 9.2-11.6 9.2-11.6l52-2.9z" fill="url(#SVGID_11_)"/><linearGradient id="SVGID_12_" gradientUnits="userSpaceOnUse" x1="-658.748" y1="-423.258" x2="-658.748" y2="-316.258" gradientTransform="matrix(-.9361 0 0 -1 -480.077 -170.158)"><stop offset="0" stop-color="#8c6239"/><stop offset=".034" stop-color="#8f653c"/><stop offset=".208" stop-color="#9c7248"/><stop offset=".443" stop-color="#a3794f"/><stop offset="1" stop-color="#a57b51"/></linearGradient><path d="M174.5 246.2C172 243.9 161 192 161 192s-27.3-5.1-26.4-25.1c-23.7 6.3-38.9-3.8-29.3-15.5-.4-1.3.9-4.4.6-5.3-14.6 16.5-3.2 20.9.3 29.8 1.5 3.2 7.9 8.7 10.5 11.7 0 0-.6 13.9 2 28.2 2.6 14.2 5.7 27 11.8 32.7 3.2 3 11.4 4.6 23.5 4.6 12.3 0 20.5-6.9 20.5-6.9z" fill="url(#SVGID_12_)"/><path class="st0" d="M109.4 166.4l2.3-.6-4.1-13.7c0 .1-13 16.1 1.8 14.3z"/><linearGradient id="SVGID_13_" gradientUnits="userSpaceOnUse" x1="-778.246" y1="-336.075" x2="-731.476" y2="-417.083" gradientTransform="matrix(-.9361 0 0 -1 -480.077 -170.158)"><stop offset="0" stop-color="#8c6239"/><stop offset=".034" stop-color="#8f653c"/><stop offset=".208" stop-color="#9c7248"/><stop offset=".443" stop-color="#a3794f"/><stop offset="1" stop-color="#a57b51"/></linearGradient><path d="M213.4 151.1c-.3 7.2-5-5.6 9.9 2 10.4 5.3 27.1 6.4 31.1 32.5 2.5 16.6 2.4 41.5-1.5 55.7-.6 4-23.3 26.1-23.3 20.4 0-4-6.3-21.7-6.3-21.7-12.5 7.3-11.8-54.5-14.1-85.4" fill="url(#SVGID_13_)"/><path class="st18" d="M134.5 166.4s-43.2 5.2-26.9-14.2c-.9-3-1.6-6-1.6-6s-27.7 29.1 24.7 24.8c3.3 5.2 14.9 16.7 19.4 17.1-14.6-11.3-15.4-20.7-15.6-21.7"/><path class="st3" d="M198.4 112c-8.8-47.8-8.3-53.1-8.3-53.1-.9-4.4-5.2-7.3-9.5-6.4L99.9 69.6c-4.5.9-7 25-9.7 11.6-.5-.7-1.9 1.2 7.1 42 .4.3 7 16.4 7 16.4-12.4-30.7-7-48-7-48s46.4 8.8 76.7-8l-5.1-1.6 9.6-2c13.7 21 16.7 50 16.3 42.9 0-.3 3.5-10.7 3.6-10.9z"/><path class="st4" d="M115.7 57.5c17.1-14.4 26.9-11.5 43.1-17.7 7-2.8 8.2-7.8 8.2-7.8-1.8 17.8-25.1 14-40.8 20.2l-10.5 5.3z"/><path class="st5" d="M170 134.2c.4 3-1.7 5.9-4.7 6.3-3 .4-5.8-1.7-6.2-4.7s1.7-5.9 4.7-6.3c3-.4 5.8 1.7 6.2 4.7zm-48.2 5.6c.4 3-1.7 5.9-4.7 6.3-3 .4-5.8-1.7-6.2-4.7-.4-3 1.7-5.9 4.7-6.3 3-.5 5.8 1.6 6.2 4.7z"/><path class="st3" d="M109.4 118.6c.6 4.4 4.6 7.5 8.9 6.8 4.4-.6 7.3-4.7 6.8-9.1-.6-4.4-4.6-7.5-8.9-6.8-4.3.6-7.4 4.7-6.8 9.1z"/><radialGradient id="SVGID_14_" cx="-436.582" cy="-289.291" r="6.313" gradientTransform="matrix(-1.097 .1581 -.1533 -1.1168 -406.08 -137.161)" gradientUnits="userSpaceOnUse"><stop offset="0" stop-color="#333"/><stop offset=".456" stop-color="#313131"/><stop offset=".7" stop-color="#292929"/><stop offset=".894" stop-color="#1b1b1b"/><stop offset="1" stop-color="#101010"/></radialGradient><path d="M110.3 117.9c.5 3.9 4.1 6.6 7.8 6.1 3.9-.6 6.5-4.2 6-8.1s-4.1-6.6-7.8-6c-3.9.5-6.6 4.1-6 8z" fill="url(#SVGID_14_)"/><path class="st7" d="M121.7 112.8c1 1.4.9 3.2-.3 4.1-1.2.9-3 .5-4-.9s-.9-3.2.3-4.1c1.2-.8 3-.5 4 .9z"/><path class="st3" d="M169.8 109.1c.6 4.4-2.4 8.5-6.8 9.1s-8.3-2.4-8.9-6.8c-.6-4.4 2.4-8.5 6.8-9.1 4.2-.7 8.3 2.4 8.9 6.8z"/><radialGradient id="SVGID_15_" cx="-415.888" cy="-289.2" r="6.307" gradientTransform="matrix(1.097 -.1581 -.1533 -1.1168 573.733 -279.071)" gradientUnits="userSpaceOnUse"><stop offset="0" stop-color="#333"/><stop offset=".456" stop-color="#313131"/><stop offset=".7" stop-color="#292929"/><stop offset=".894" stop-color="#1b1b1b"/><stop offset="1" stop-color="#101010"/></radialGradient><path d="M168.8 108.7c.5 3.9-2.1 7.5-6 8-3.9.6-7.3-2.2-7.8-6.1s2.1-7.5 6-8c3.7-.5 7.2 2.2 7.8 6.1z" fill="url(#SVGID_15_)"/><path class="st7" d="M166.4 105.6c1 1.4.9 3.2-.3 4.1s-3 .5-4-.9-.9-3.2.3-4.1 3-.5 4 .9z"/><linearGradient id="SVGID_16_" gradientUnits="userSpaceOnUse" x1="-14812.111" y1="7938.258" x2="-14812.111" y2="7815.997" gradientTransform="matrix(.9166 -.2027 -.1897 -.9792 15213.85 4792.786)"><stop offset="0" stop-color="#574537"/><stop offset=".576" stop-color="#433329"/><stop offset="1" stop-color="#32241d"/></linearGradient><path d="M104.4 140.3c-.4-2.2-6.3-3.5-16.6-51.1-.8 1.3-2.2 2.5-2.9 4-2.6-13.1 3.1-17 3.1-17-1.5 2 .1-.1 0 0 0 0-.5-2.4-4.4-1.8 2.1-4.1 5-4.8 9.2-5.9-1.1-.1 7.1-4.7 7.4-5.4 1.7-3.2 2.1-5.2 2.6-10.6-1 1.5-1.2 3.2-1.8 4.7 10.4-7.1 14.7-11.7 27.3-14.5 10.2-2.3 25.2-5.6 34.4-11.6 6-3.9 9.9-8.8 7.7-14.9-.3-.1-.3-.1 0 0 12.4 5.1 13.5 17.4 13.5 17.4s1.2-.6 2.3-5.2c4.3 7.7 4.7 16.8 2.3 23 11.5 4.1 17.8 46.1 17.5 54.2-1.2 30.5-6.6 26-11.7 23.5-2.9-16.6-4.5-39.3-14.5-52.9 0 0-5-1.9-18.1 3.7l7 2.1c-33.4 16-74.2 8.6-74.3 6.1.2 1.5-.3 13.6 10 52.2z" fill="url(#SVGID_16_)"/><linearGradient id="SVGID_17_" gradientUnits="userSpaceOnUse" x1="-710.884" y1="-419.347" x2="-710.884" y2="-293.047" gradientTransform="matrix(-.9361 0 0 -1 -480.077 -170.158)"><stop offset="0" stop-color="#8c6239"/><stop offset=".034" stop-color="#8f653c"/><stop offset=".208" stop-color="#9c7248"/><stop offset=".443" stop-color="#a3794f"/><stop offset="1" stop-color="#a57b51"/></linearGradient><path d="M148.1 195.6c2.4-.7 18.2-11.3 13.4-30.2 23.7-3.9 36.8-16.1 45.5-28.8 7.1-10.7-2-9-2-9 1.5-4.7-.6-2.3-.6-4.7 8.9-.2 12.6 2.3 10.6 12.4-2.9 14.6-1.7 15.6-1.7 15.6s13.3 25.4 8.2 82c-8.7 14.7-58.6 16.8-62.6 16.2-3.9-.8-10.8-53.5-10.8-53.5z" fill="url(#SVGID_17_)"/><linearGradient id="SVGID_18_" gradientUnits="userSpaceOnUse" x1="-591.187" y1="-339.751" x2="-591.187" y2="-415.894" gradientTransform="matrix(-.9296 .1103 -.1178 -.993 -520.742 -102.315)"><stop offset="0" stop-color="#8c6239"/><stop offset=".034" stop-color="#8f653c"/><stop offset=".208" stop-color="#9c7248"/><stop offset=".443" stop-color="#a3794f"/><stop offset="1" stop-color="#a57b51"/></linearGradient><path d="M122.2 207.5s-14.8.7-24.6 6.1c-4.7 2.6-27.7 32.8-42.7 34.5-20 2.3-32.6-10.5-25.8-29.4s34.6-42.9 77.3-53.4c4.2 4.4 10.7 16.8 13.3 23.3-.6 10.5 2.5 18.9 2.5 18.9z" fill="url(#SVGID_18_)"/><linearGradient id="SVGID_19_" gradientUnits="userSpaceOnUse" x1="-658.748" y1="-423.258" x2="-658.748" y2="-316.258" gradientTransform="matrix(-.9361 0 0 -1 -480.077 -170.158)"><stop offset="0" stop-color="#8c6239"/><stop offset=".034" stop-color="#8f653c"/><stop offset=".208" stop-color="#9c7248"/><stop offset=".443" stop-color="#a3794f"/><stop offset="1" stop-color="#a57b51"/></linearGradient><path d="M174.5 246.2C172 243.9 161 192 161 192s-27.3-5.1-26.4-25.1c-23.7 6.3-38.9-3.8-29.3-15.5-.4-1.3.9-4.4.6-5.3-14.6 16.5-3.2 20.9.3 29.8 1.5 3.2 7.9 8.7 10.5 11.7 0 0-.6 13.9 2 28.2 2.6 14.2 5.7 27 11.8 32.7 3.2 3 11.4 4.6 23.5 4.6 12.3 0 20.5-6.9 20.5-6.9z" fill="url(#SVGID_19_)"/><path class="st0" d="M109.4 166.4l2.3-.6-4.1-13.7c0 .1-13 16.1 1.8 14.3z"/><path class="st18" d="M134.5 166.4s-43.2 5.2-26.9-14.2c-.9-3-1.6-6-1.6-6s-27.7 29.1 24.7 24.8c3.3 5.2 14.9 16.7 19.4 17.1-14.6-11.3-15.4-20.7-15.6-21.7"/><radialGradient id="SVGID_20_" cx="-711.286" cy="-477.495" r="4.27" gradientTransform="matrix(-.864 0 0 -.8405 -466.164 -237.942)" gradientUnits="userSpaceOnUse"><stop offset="0" stop-color="#390000"/><stop offset="1" stop-color="#3b1800"/></radialGradient><ellipse cx="148.4" cy="163.4" rx="4.4" ry="2.8" fill="url(#SVGID_20_)"/></g><g id="Layer_1_1_"><path class="st18" d="M56.3 85.7s57.5-8.5 74.7-3c18.4 3.6 91 15 104.5-5.6C202.6 62.6 196 60.7 196 60.7s-2.2-22-10.8-36.4c-13.3-22.2-57-26.9-75.8-1.5-5.1 6.8-9.9 30.2-10.8 35.3-20.2 6.6-44.3 20.5-42.3 27.6z"/><path class="st0" d="M189.1 62s-11.3 4.2-21.8 2.9c2-15-1.7-50.9-7.3-54 12.3 4.7 23.7 9.5 29.1 51.1zm-48 5.2s-27.5-4.6-31.4-3.6c.8-13.6 10.7-52.1 28.3-54.3 6.3-.8 7.7-.2 7.7-.2s.2 37.7-4.6 58.1zm27.6-56.8S168.9.8 153.4.1s-15.9 3.6-16.5 6.4c15.4-.1 31.8 3.9 31.8 3.9z"/><path d="M221.5 231.6c-6.1 6.6-59.5 26.1-90.9 16.9.8 6.1.7 5.4 1.9 10.8 16.1 7.2 76.9-3.1 92.2-14.8-.8-5.2-1.1-2.8-3.2-12.9z" fill="#6d4a2d"/><path class="st18" d="M165 255.6s3.5 27.8 7.5 40.3c-.9 3.3-.4 1.4-1.1 4.6-10-16.9-6.4-44.9-6.4-44.9zm-44.5-39.2s-3.3-9.5-3.7-17c-1.5 6.3 1.9 16.7 1.9 16.7l1.8.3zM107.8 178c1.3.9 8.4 9.8 11 11.6-5.6-4.2-9.5-9-12.1-11.5l1.1-.1z"/><radialGradient id="SVGID_21_" cx="-593.316" cy="-462.374" r="4.605" gradientTransform="matrix(-.7386 .129 -.1615 -.938 -350.194 -153.556)" gradientUnits="userSpaceOnUse"><stop offset="0" stop-color="#cdaf38"/><stop offset="1" stop-color="#dfc74a"/></radialGradient><path d="M159 204.3c.4 2.2 2.3 3.7 4.4 3.3 2-.4 3.4-2.4 3-4.6-.4-2.2-2.3-3.7-4.4-3.3-2 .3-3.4 2.4-3 4.6z" fill="url(#SVGID_21_)"/><radialGradient id="SVGID_22_" cx="-508.529" cy="-494.174" r="4.607" gradientTransform="matrix(-.7268 .1847 -.2313 -.923 -319.522 -140.572)" gradientUnits="userSpaceOnUse"><stop offset="0" stop-color="#cdaf38"/><stop offset="1" stop-color="#dfc74a"/></radialGradient><path d="M160.7 222.6c.5 2.1 2.6 3.5 4.6 3s3.2-2.7 2.7-4.8-2.6-3.5-4.6-3-3.2 2.6-2.7 4.8z" fill="url(#SVGID_22_)"/><radialGradient id="SVGID_23_" cx="-189.836" cy="-2274.26" r="30.463" gradientTransform="matrix(-.3413 .1338 -.1435 -.2929 -226.837 -386.486)" gradientUnits="userSpaceOnUse"><stop offset="0" stop-color="#cdaf38"/><stop offset="1" stop-color="#dfc74a"/></radialGradient><path d="M152.2 259.3c.4 2 1.5 3.5 4 3.1l17.7-1.8c2.4-.4 4.1-2.4 3.7-4.4l-1.3-7.1c-.4-2-2.6-3.3-5-2.8l-17 1.8c-2.4.4-3.1 2.9-2.8 4.9l.7 6.3z" fill="url(#SVGID_23_)"/><radialGradient id="SVGID_24_" cx="-507.827" cy="-512.554" r="4.607" gradientTransform="matrix(-.7268 .1847 -.2313 -.923 -319.522 -140.572)" gradientUnits="userSpaceOnUse"><stop offset="0" stop-color="#cdaf38"/><stop offset="1" stop-color="#dfc74a"/></radialGradient><path d="M164.5 239.7c.5 2.1 2.6 3.5 4.6 3s3.2-2.7 2.7-4.8-2.6-3.5-4.6-3-3.2 2.6-2.7 4.8z" fill="url(#SVGID_24_)"/><path class="st18" d="M204.4 122.8s-.7 4.8-1.9 5.8c10.5-4.1 6.1 4.4-.8 10.8-13.4 12.7-29.4 21.8-40.1 25.9-1.3 9.3.9 12.6-6.5 25 13.8-10.6 13.6-24.4 13.6-24.4s24.1-7.7 43.5-32.2c6.6-6.8-.2-12.5-7.8-10.9zm9 28s-11.5 38-50 39.6c34.9-4.5 50-39.6 50-39.6zm-74.9 43.1c.5 0-14.9-.4-21.7-6.3 7.1 7.6 13 6.5 21.7 6.3zm83 37.7s1.3-34.3.6-41.6c2.4 13.4 3.4 33.6 3.4 32.6-2.1.9-4 9-4 9zm-8.1-80.8s2.2 4.3 3.1 11c-.7-9.8-2.9-11-2.9-11h-.2zm-59.9 44.1s1.4 42.2 8.9 51.3c-6.1-5-15.8-39.1-8.9-51.3z"/><path class="st18" d="M236.4 226.8c-2.4-1-8.8-3.1-13.7-8 4.8 7 11.2 10.9 11.2 10.9"/><linearGradient id="SVGID_25_" gradientUnits="userSpaceOnUse" x1="-15024.369" y1="7993.159" x2="-15024.369" y2="7993.056" gradientTransform="matrix(.9166 -.2027 -.1897 -.9792 15213.85 4792.786)"><stop offset="0" stop-color="#574537"/><stop offset=".576" stop-color="#433329"/><stop offset="1" stop-color="#32241d"/></linearGradient><path d="M-73.7 11.2c-.3 0-.3 0 0 0" fill="url(#SVGID_25_)"/><path class="st18" d="M56.3 85.7s57.5-8.5 74.7-3c18.4 3.6 91 15 104.5-5.6C202.6 62.6 196 60.7 196 60.7s-2.2-22-10.8-36.4c-13.3-22.2-57-26.9-75.8-1.5-5.1 6.8-9.9 30.2-10.8 35.3-20.2 6.6-44.3 20.5-42.3 27.6z"/><path class="st0" d="M189.1 62s-11.3 4.2-21.8 2.9c2-15-1.7-50.9-7.3-54 12.3 4.7 23.7 9.5 29.1 51.1zm-48 5.2s-27.5-4.6-31.4-3.6c.8-13.6 10.7-52.1 28.3-54.3 6.3-.8 7.7-.2 7.7-.2s.2 37.7-4.6 58.1zm27.6-56.8S168.9.8 153.4.1s-15.9 3.6-16.5 6.4c15.4-.1 31.8 3.9 31.8 3.9z"/><path class="st18" d="M204.4 122.8s-.7 4.8-1.9 5.8c10.5-4.1 6.1 4.4-.8 10.8-13.4 12.7-29.4 21.8-40.1 25.9-1.3 9.3.9 12.6-6.5 25 13.8-10.6 13.6-24.4 13.6-24.4s24.1-7.7 43.5-32.2c6.6-6.8-.2-12.5-7.8-10.9z"/></g></svg>