<svg id="Layer_1" xmlns="http://www.w3.org/2000/svg" xmlns:xlink="http://www.w3.org/1999/xlink" width="800" height="350"><style>.st0{fill:none}.st1{fill:#29abe2}.st2{opacity:.4}.st3{opacity:.12}.st5{fill:#fff}.st6{fill:#7c4119}.st7{fill:#e6e6e6}.st8{fill:#ccc}.st19{fill:#ce985e}.st24{fill:#403228}.st34{fill:#856848}.st43{fill:none;stroke:#856848;stroke-width:3;stroke-linecap:round;stroke-miterlimit:10}.st44{fill:#1a1a1a}.st53{fill:#ec2c28}.st54{opacity:5.000000e-02}.st57{fill:#bc2220}</style><pattern width="242" height="242" patternUnits="userSpaceOnUse" id="New_Pattern" viewBox="0 -242 242 242" overflow="visible"><path class="st0" d="M0-242h242V0H0z"/><path class="st1" d="M0-242h242V0H0z"/><path class="st2" d="M0-242h11V0H0zm22 0h11V0H22zm22 0h11V0H44zm22 0h11V0H66zm22 0h11V0H88zm22 0h11V0h-11zm22 0h11V0h-11zm22 0h11V0h-11zm22 0h11V0h-11zm22 0h11V0h-11zm22 0h11V0h-11z"/><path class="st2" d="M0-242h242v11H0zm0 22h242v11H0zm0 22h242v11H0zm0 22h242v11H0zm0 22h242v11H0zm0 22h242v11H0zm0 22h242v11H0zm0 22h242v11H0zm0 22h242v11H0zm0 22h242v11H0zm0 22h242v11H0z"/></pattern><pattern width="242" height="242" patternUnits="userSpaceOnUse" id="New_Pattern_2" viewBox="241.7 -242 242 242" overflow="visible"><path class="st0" d="M241.7-242h242V0h-242z"/><path class="st1" d="M241.7-242h242V0h-242z"/><path class="st2" d="M472.7-242h11V0h-11zm-22 0h11V0h-11zm-22 0h11V0h-11zm-22 0h11V0h-11zm-22 0h11V0h-11zm-22 0h11V0h-11zm-22 0h11V0h-11zm-22 0h11V0h-11zm-22 0h11V0h-11zm-22 0h11V0h-11zm-22 0h11V0h-11z"/><path class="st2" d="M241.7-11h242V0h-242zm0-22h242v11h-242zm0-22h242v11h-242zm0-22h242v11h-242zm0-22h242v11h-242zm0-22h242v11h-242zm0-22h242v11h-242zm0-22h242v11h-242zm0-22h242v11h-242zm0-22h242v11h-242zm0-22h242v11h-242z"/><path class="st3" d="M242-242h242V0H242zM0-242h242V0H0z"/></pattern><radialGradient id="SVGID_1_" cx="400.5" cy="404.5" r="446.112" gradientUnits="userSpaceOnUse"><stop offset="0" stop-color="#cceaf9"/><stop offset="1" stop-color="#007ab7"/></radialGradient><path fill="url(#SVGID_1_)" stroke="#29abe2" stroke-miterlimit="10" d="M-4.5-3.5h810v355h-810z"/><path class="st5" d="M62.6 364.9s-19.7 9.4-23-11.9c0 0-5.4 25.9 27.2 20.1l-4.2-8.2z"/><path class="st6" d="M41 364.3c-.7-.8-1-2-1-3 0-1.3.4-2.7.8-3.8 2.5 7.2 7.5 9.2 12.2 9.4-.3.8-.6 1.8-1.2 2.2-.8.6-1.9.9-2.8 1-1 .2-2.1.2-2.9-.5-.9-.9-.9-2.4-1.7-3.4-1-1.1-2.5-.9-3.4-1.9z"/><path class="st5" d="M66.4 357c2.2-4.7-4.4-12.6-3.6-18.1.4-2.8 3.2-4 4.5-6.8 3.5-7.4 6-10.3-1.2-24.9-5.4-11-12-7.4-14.9-4.9-.9-15.9-1.8-30-1.8-30L92.6 291s9 34.6 11.1 50.2c1.1 8.2 6.4 33-19.9 36.3-15.6 2-23.2-5.4-27-13.1 4.1-.7 8.2-3.6 9.6-7.4z"/><path class="st6" d="M52.9 333.8c-.4-8.6-1.2-20.4-1.8-31.5 2.8-2.5 9.5-6.4 15 4.8 7.2 14.6 4.7 17.5 1.2 24.9-1.3 2.9-4.1 4.1-4.5 6.8-.8 5.5 5.7 13.5 3.6 18.1-1.4 3.8-5.6 6.8-9.7 7.5-3.2-6.3-3.6-13-3.7-15-.5-4.5.1-9.5-.1-15.6z"/><path class="st7" d="M94 296.3L78.5 290s4.2 5.4 9 8.9c3.7 2.8 8.1 3.9 8.1 3.9l-1.6-6.5z"/><path class="st5" d="M52.3 262.3c19.2-26.9 35.6-18.3 50.9-.4 11.4 13.3 16.1 30.9 9.7 36.3s-33.1-6.1-33.1-6.1-42.8-8.4-27.5-29.8z"/><ellipse transform="rotate(-5.075 82.231 271.55) scale(1.00002)" cx="82.2" cy="271.5" rx="4.3" ry="4.5"/><ellipse transform="rotate(-5.075 79.585 270.593) scale(1.00002)" class="st8" cx="79.6" cy="270.6" rx=".9" ry=".9"/><ellipse transform="rotate(-5.075 100.743 267.632) scale(1.00002)" cx="100.7" cy="267.6" rx="3.5" ry="4.2"/><ellipse transform="rotate(-5.075 98.823 266.626) scale(1.00002)" class="st8" cx="98.8" cy="266.6" rx=".9" ry=".9"/><path d="M112.2 288.5s-5-2.4-8.1 3.6c0 0 2.2 3 7.1 3.1-.1 0 1.6-1.3 1-6.7zm-36.1-23.7c.3 0 .6-.2.6-.6 1.5-6.7 5.9-6.1 5.9-6.1.4.1.8-.2.8-.6.1-.4-.2-.8-.6-.8-.1 0-5.8-.8-7.5 7.2-.1.4.2.8.5.8.2.2.2.2.3.1zm23.6-7c.1 0 .3-.1.4-.2.3-.3.3-.7 0-1-2.9-3.1-5.4-3.7-7.1-3.6-1.9.1-3 1-3 1.1-.3.2-.4.7-.1 1 .2.3.7.4 1 .1.2-.1 3.6-2.7 8.2 2.4.2.1.4.2.6.2z"/><path class="st7" d="M49.9 274.6c1.5-4.9 5.8-8.6 13.4-7.8 0 0-10.1 6-9.2 19.5.2 3.1-1.6 4.9-3.5 4.9 0 0-.1-.2-.1-.6-.2-3.1-.7-14.9-.6-16z"/><path class="st5" d="M40.5 271.6c5-13.8 24.2-9.1 24.2-9.1l-1 4.4c-13.3 1.3-13.6 9-13.4 17.6.1 2.8-.8 4.8-2.1 6 1.1-13.2-4.3-17.5-7.7-18.9z"/><path class="st6" d="M40.5 271.6c3.4 1.4 8.9 5.7 7.6 19-2.8 2.5-7.4 1-8.4-5.6-.9-5.7-.5-10.1.8-13.4z"/><path d="M111.4 288.9s-3.9-1-6.4 2.7c0 0 .5.8 1.4 1.1 0 0 .7-3.4 5-3.8z" fill="#666"/><path class="st5" d="M103.3 321.8c8.2-.7 15.2-3.6 20.9-8.5 13-11.1 14.4-28.7 14.4-29.4.2-2.1-1.4-3.9-3.5-4.1-2.1-.2-3.9 1.4-4.1 3.5 0 .3-1.3 15.3-11.8 24.2-6.1 5.2-14.3 7.4-24.3 6.6-2.1-.2-3.9 1.4-4.1 3.5-.2 2.1 1.4 3.9 3.5 4.1 3.1.4 6.2.4 9 .1zM25.9 353.6c.3 2.9.8 5.8 1.6 8.9.5 2 2.6 3.2 4.7 2.7 2-.5 3.2-2.6 2.7-4.7-2.6-9.7-1.8-18.2 2.2-25.1 7-11.9 21.6-15.8 21.7-15.9 2-.5 3.3-2.6 2.7-4.6-.5-2-2.6-3.3-4.6-2.8-.7.2-17.8 4.7-26.4 19.4-3.7 6.5-5.3 13.9-4.6 22.1z"/><radialGradient id="SVGID_2_" cx="627.838" cy="180.485" r="114.485" gradientTransform="rotate(3.934 615.555 261.922)" gradientUnits="userSpaceOnUse"><stop offset="0" stop-color="#574537"/><stop offset=".684" stop-color="#554335"/><stop offset="1" stop-color="#32241d"/></radialGradient><path d="M739.8 302.3c-3.7-2.4 16.3-25 16.6-48.6.6-43.7-18.6-72.3-54.8-77.4-18.9-2.6-49 11.1-53.9 15.1-4.4 3.6-14 26.4-17.3 49.8l3.7-1.9s-5.9 23.4 1.3 39.7c8.9 16.7 27.3 31 55.5 37 41.9 8.9 62.8-13.2 62.8-13.2s-10.2 1.9-13.9-.5z" fill="url(#SVGID_2_)"/><linearGradient id="SVGID_3_" gradientUnits="userSpaceOnUse" x1="264.716" y1="105.153" x2="264.716" y2="57.411" gradientTransform="rotate(158.057 429.721 210.524)"><stop offset="0" stop-color="#fcc58a"/><stop offset=".385" stop-color="#fac287"/><stop offset=".645" stop-color="#f6b97f"/><stop offset=".867" stop-color="#edaa71"/><stop offset="1" stop-color="#e69d65"/></linearGradient><path d="M664.7 292.9c-4.2-1.4-20.5-5.8-26.6-10.2-3.9-2.8-17-15.7-17.1-20.4-.1-3.2 1.6-8.6.1-12.5-1.5-3.9-6-8.8-6-8.8s-2.4 1-2.1 2.4c.3 1.4 3.1 6.2 1.9 5.9-1.2-.3-7.2-7.3-9.5-12.4 0 0-3.7 1.8-3.6 4.7 0 0-2.4 1.3-2.1 3.9 0 0-1.7 3-.9 5.3 0 0 3.4 8 6.1 10.5 4.1 3.8 4.5 4.3 8.5 8.2 6.3 6.2 15 15.4 24.3 21 6.2 3.7 26 8.7 28.4 8 2.5-.7.6-4.9-1.4-5.6z" fill="url(#SVGID_3_)"/><linearGradient id="SVGID_4_" gradientUnits="userSpaceOnUse" x1="426.704" y1="186.573" x2="426.704" y2="138.83" gradientTransform="scale(1 -1) rotate(-29.808 -233.721 -657.791)"><stop offset="0" stop-color="#fcc58a"/><stop offset=".385" stop-color="#fac287"/><stop offset=".645" stop-color="#f6b97f"/><stop offset=".867" stop-color="#edaa71"/><stop offset="1" stop-color="#e69d65"/></linearGradient><path d="M710.6 293.5c4.4-.8 21.1-2.9 27.7-6.4 4.3-2.3 19-13.3 19.8-17.8.5-3.1-.5-8.7 1.6-12.4 2-3.6 7.1-7.9 7.1-7.9s2.2 1.3 1.8 2.7c-.5 1.4-3.9 5.7-2.7 5.6 1.2-.1 8.1-6.2 11.1-10.9 0 0 3.4 2.3 3 5.1 0 0 2.2 1.6 1.6 4.1 0 0 1.2 3.2.2 5.4 0 0-4.5 7.4-7.5 9.5-4.6 3.2-5 3.6-9.6 7-7.1 5.3-17 13.2-27 17.4-6.7 2.8-26.9 5-29.3 4-2.4-1 .1-5 2.2-5.4z" fill="url(#SVGID_4_)"/><radialGradient id="SVGID_5_" cx="574.08" cy="300.443" r="162.93" gradientTransform="rotate(3.934 615.555 261.922)" gradientUnits="userSpaceOnUse"><stop offset=".65" stop-color="#db1e27"/><stop offset="1" stop-color="#4e0f10"/></radialGradient><path d="M683.5 315.2c12 .8 21.5-.3 30.7 27.6 5.6 17.1-2.1 23.4-2.1 23.4l-61.7-4.2s-2.2-3.2-.1-14.7c3.5-19.1 14.4-33.4 33.2-32.1z" fill="url(#SVGID_5_)"/><path d="M702.4 320.8c-6.4-5.9-13-5.2-20.2-5.7-7.7-.5-12 1-17.5 5.2 3 2 7.5 4.8 17.6 5.5 8.8.7 15.2-2.2 20.1-5z" fill="#661412"/><radialGradient id="SVGID_6_" cx="665.887" cy="253.763" r="80.443" gradientTransform="matrix(.9975 .0686 -.0686 .9976 19.357 -41.615)" gradientUnits="userSpaceOnUse"><stop offset=".65" stop-color="#db1e27"/><stop offset="1" stop-color="#4e0f10"/></radialGradient><path d="M652.1 284.8s56.1 1.3 68.5 2.6c0 0-5.9 23.2-22.3 31.5-12 6-26.3 2.3-34.1-4.1-9.8-8-12.1-30-12.1-30z" fill="url(#SVGID_6_)"/><linearGradient id="SVGID_7_" gradientUnits="userSpaceOnUse" x1="687.153" y1="302.928" x2="687.153" y2="283.66" gradientTransform="rotate(3.934 615.555 261.922)"><stop offset="0" stop-color="#fcc58a"/><stop offset=".285" stop-color="#f9c287"/><stop offset=".476" stop-color="#f0ba7f"/><stop offset=".577" stop-color="#e8b277"/><stop offset=".908" stop-color="#ce985e"/></linearGradient><path d="M674.7 280.7c.3 1.2 3.5 20.1 8 21.3 2.1.6 11.4-15.7 14.8-21.4l-22.8.1z" fill="url(#SVGID_7_)"/><path d="M676.8 290.5l-6.6 4.5-1.3-9.4 5.8-4.9zm14.5 1.2l6.3 4.2 6.1-16.8-7.5 1z" fill="#721514"/><radialGradient id="SVGID_8_" cx="800.23" cy="215.569" r="66.09" gradientTransform="matrix(.9603 .03055 -.02777 .9621 -94.022 -21.39)" gradientUnits="userSpaceOnUse"><stop offset="0" stop-color="#fcc58a"/><stop offset=".575" stop-color="#fcc289"/><stop offset=".962" stop-color="#fbb986"/><stop offset="1" stop-color="#fbb885"/></radialGradient><path d="M695.1 184.8c13.6 1.6 24.1 11.1 30.9 29.4 4.2 11.3 10.6 44.9-2.9 58.8-8.6 8.8-20.7 14.3-35.5 13.2-12-.8-32.6-6.1-39.6-19.2-6.3-11.8-2.2-30.9 3.3-48.3 9.9-32 32.5-35.3 43.8-33.9z" fill="url(#SVGID_8_)"/><path class="st19" d="M698.8 200.6c-20.6-8.1-27.6-13.4-34.9-1.5-.8 1.3-3.9 1.2-4.6 2.6 1 7.1 14.1 13.3 19.5 16.1 0 0 .8-8.6 1.8-7.3 19.8 24.5 28.8 31.5 48.6 34.4 1.4-7.7-9.8-36.2-30.4-44.3z"/><radialGradient id="SVGID_9_" cx="637.764" cy="185.683" r="102.956" gradientTransform="rotate(3.934 615.555 261.922)" gradientUnits="userSpaceOnUse"><stop offset="0" stop-color="#574537"/><stop offset=".684" stop-color="#554335"/><stop offset="1" stop-color="#32241d"/></radialGradient><path d="M736.1 276.5s-22-22.1-11.1-51.2c0 0 17.7 2.9 18.8 3.2-4.5 23-6.8 32.7-7.7 48z" fill="url(#SVGID_9_)"/><path d="M672.6 265.2s4.4 3.4 11.4 4.4c9.8 1.4 17-3.2 17-3.2" fill="none" stroke="#bd4747" stroke-width="2.829" stroke-linecap="round" stroke-miterlimit="10"/><path d="M655.8 256.8c-.2 2.8 1.9 5.2 4.7 5.4 2.8.2 5.2-1.9 5.4-4.7.2-2.8-1.9-5.2-4.7-5.4-2.8-.2-5.2 1.9-5.4 4.7zm53.2 3.7c-.2 2.8 1.9 5.2 4.7 5.4 2.8.2 5.2-1.9 5.4-4.7.2-2.8-1.9-5.2-4.7-5.4-2.7-.3-5.2 1.9-5.4 4.7z" fill="#ffa370"/><path class="st19" d="M717.7 245.9c-.3 4.1-3.8 7.1-7.8 6.8-4.1-.3-7.1-3.8-6.8-7.9.3-4.1 3.8-7.1 7.9-6.8 3.9.4 7 3.9 6.7 7.9z"/><radialGradient id="SVGID_10_" cx="1774.927" cy="238.428" r="6.51" gradientTransform="rotate(3.934 1148.613 -15257.77)" gradientUnits="userSpaceOnUse"><stop offset="0" stop-color="#333"/><stop offset=".456" stop-color="#313131"/><stop offset=".7" stop-color="#292929"/><stop offset=".894" stop-color="#1b1b1b"/><stop offset="1" stop-color="#101010"/></radialGradient><path d="M716.9 245.3c-.2 3.6-3.4 6.3-6.9 6-3.6-.2-6.3-3.4-6-6.9.2-3.6 3.4-6.3 6.9-6 3.5.3 6.3 3.4 6 6.9z" fill="url(#SVGID_10_)"/><path class="st5" d="M705.9 241.5c-.9 1.3-.6 3 .5 3.7 1.1.7 2.8.3 3.6-1 .9-1.3.6-3-.5-3.7-1.1-.8-2.7-.4-3.6 1z"/><path class="st24" d="M719 246.8s2.7 1.4 3.9.5c1.2-.9 0-2.3 0-2.3s-2.9.9-4 .6l.1 1.2zm-1.5-5.9s3.3.1 4.2-1.2c.9-1.3-.9-2.1-.9-2.1s-2.7 2-3.8 2.2l.5 1.1zm-2.4-4.8s3-1.7 3.1-3.4c.1-1.6-1.9-1.3-1.9-1.3s-1.3 3.2-2.2 4l1 .7zM656 241.3s-2.9 1-4-.1.3-2.2.3-2.2 2.8 1.3 3.9 1.2l-.2 1.1zm2.3-5.6s-3.3-.4-4-1.8c-.7-1.4 1.2-1.9 1.2-1.9s2.3 2.4 3.5 2.8l-.7.9zm3.2-4.4s-2.7-2.2-2.5-3.8c.2-1.6 2.1-1 2.1-1s.8 3.4 1.6 4.3l-1.2.5z"/><path class="st19" d="M656 241.7c-.3 4.1 2.8 7.6 6.8 7.9 4.1.3 7.6-2.8 7.9-6.8.3-4.1-2.8-7.6-6.8-7.8-4.1-.4-7.6 2.6-7.9 6.7z"/><radialGradient id="SVGID_11_" cx="-995.217" cy="238.428" r="6.51" gradientTransform="scale(-1 1) rotate(-3.934 -782.236 -4590.93)" gradientUnits="userSpaceOnUse"><stop offset="0" stop-color="#333"/><stop offset=".456" stop-color="#313131"/><stop offset=".7" stop-color="#292929"/><stop offset=".894" stop-color="#1b1b1b"/><stop offset="1" stop-color="#101010"/></radialGradient><path d="M656.9 241.2c-.2 3.6 2.5 6.7 6 6.9 3.6.2 6.7-2.5 6.9-6 .2-3.6-2.5-6.7-6-6.9-3.5-.3-6.6 2.4-6.9 6z" fill="url(#SVGID_11_)"/><path class="st5" d="M658.9 238.2c-.9 1.3-.6 3 .5 3.7 1.1.7 2.8.3 3.6-1 .9-1.3.6-3-.5-3.7-1.1-.8-2.7-.3-3.6 1z"/><radialGradient id="SVGID_12_" cx="595.921" cy="208.794" r="134.852" gradientTransform="rotate(3.934 615.555 261.922)" gradientUnits="userSpaceOnUse"><stop offset="0" stop-color="#574537"/><stop offset=".684" stop-color="#554335"/><stop offset="1" stop-color="#32241d"/></radialGradient><path d="M656 198.7c1.2 3.6 15.8 15.7 21.6 16.4 1.5.2-4.1-13.6-2.9-12.4 9.4 9.4 26.5 27.3 40.6 34.9 21.9 11.8 27 19.5 34.9 18.1 0 0 5.3-48.7-27.2-64.3-15.4-7.4-48.2-18.1-67 7.3z" fill="url(#SVGID_12_)"/><g><path d="M650.5 198.5c-.9 1.6-2 3.1-2.2 3.4-5.5 8.5-9.6 18.9-12.7 28.5-.4-4.8 2.1-10 3.7-14.4 2.1-5.6 4.2-11.4 7.1-16.7.5-.9 2.7-5.6 4.1-5.4 2 .3 1.2 2.6 0 4.6z" fill="#7d634f"/></g><path d="M671.7 190.2c7.1 5.4 20.9 31.4 45.7 39.3 0 0-13.4-5.5-27.1-22.6-13.6-17.3-13.9-19.2-18.6-16.7z" opacity=".4" fill="#7d634f"/><path d="M725.4 273.7l-3.3-6.1 4.2-7 7.3-1 3.2 6.1-4.1 7.1zm-77.7-5.3l4.1-5.6-3.1-7.6-7.2-1.9-4 5.6 3.1 7.5z" fill="#7d1920"/><g opacity=".14"><path class="st5" d="M215.5 429.2c-3.4 0-6.8-1.3-9.4-3.9-5.2-5.2-5.2-13.6 0-18.7l143.3-143.9c5.2-5.2 13.6-5.2 18.7 0 5.2 5.2 5.2 13.6 0 18.7L224.8 425.3c-2.5 2.6-5.9 3.9-9.3 3.9zM574.2 70.4c-3.4 0-6.8-1.3-9.4-3.9-5.2-5.2-5.2-13.6 0-18.7L708.2-96.1c5.2-5.2 13.6-5.2 18.7 0 5.2 5.2 5.2 13.6 0 18.7L583.6 66.5c-2.6 2.6-6 3.9-9.4 3.9zM111.3 178.1c-7.3 0-13.2-5.9-13.3-13.2 0-7.3 5.9-13.3 13.2-13.3l203.1-.4c7.3 0 13.2 5.9 13.3 13.2 0 7.3-5.9 13.3-13.2 13.3l-203.1.4zm507.4 0c-7.3 0-13.2-5.9-13.3-13.2 0-7.3 5.9-13.3 13.2-13.3l203.1-.4c7.3 0 13.2 5.9 13.3 13.2 0 7.3-5.9 13.3-13.2 13.3l-203.1.4zM359.1 70.2c-3.4 0-6.8-1.3-9.4-3.9L205.8-77c-5.2-5.2-5.2-13.6 0-18.7 5.2-5.2 13.6-5.2 18.7 0L368.4 47.5c5.2 5.2 5.2 13.6 0 18.7-2.5 2.7-5.9 4-9.3 4zm358.7 358.7c-3.4 0-6.8-1.3-9.4-3.9L564.6 281.7c-5.2-5.2-5.2-13.6 0-18.7 5.2-5.2 13.6-5.2 18.7 0l143.9 143.3c5.2 5.2 5.2 13.6 0 18.7-2.6 2.6-6 3.9-9.4 3.9zM466.7 25.7c-7.3 0-13.2-5.9-13.3-13.2l-.4-203.1c0-7.3 5.9-13.3 13.2-13.3 7.3 0 13.2 5.9 13.3 13.2l.5 203.1c0 7.4-6 13.3-13.3 13.3zm0 507.4c-7.3 0-13.2-5.9-13.3-13.2l-.4-203.1c0-7.3 5.9-13.3 13.2-13.3 7.3 0 13.2 5.9 13.3 13.2l.4 203.1c.1 7.4-5.9 13.3-13.2 13.3z"/></g><g><pattern id="SVGID_13_" xlink:href="#New_Pattern_2" patternTransform="matrix(.6517 .1718 -.1718 .6517 -2973.76 -2561.56)"/><path d="M309 276s71.1 55.6 119.1-25" fill="none" stroke="url(#SVGID_13_)" stroke-width="13" stroke-miterlimit="10"/><radialGradient id="SVGID_14_" cx="404.249" cy="234.084" r="26.271" gradientTransform="matrix(-1 0 0 1 841.428 0)" gradientUnits="userSpaceOnUse"><stop offset="0" stop-color="#fcc58a"/><stop offset=".575" stop-color="#fcc289"/><stop offset=".962" stop-color="#fbb986"/><stop offset="1" stop-color="#fbb885"/></radialGradient><path d="M433.8 254.2s-16.5-3-17.7-14.2c-.9-8.3-10.2-21.8-10.2-21.8s.8-3.7 6.5-4.2c4.2-.4 8 10.1 8 10.1s7.1 3.8 16.4 3.5c10.6-.3 24-4.4 31.7 1l-7.5 17.7c-.1 0-12.2 8.2-27.2 7.9z" fill="url(#SVGID_14_)"/><radialGradient id="SVGID_15_" cx="-111.894" cy="289.845" r="14.461" gradientTransform="rotate(14.774 428.281 1925.28)" gradientUnits="userSpaceOnUse"><stop offset="0" stop-color="#fcc58a"/><stop offset=".575" stop-color="#fcc289"/><stop offset=".962" stop-color="#fbb986"/><stop offset="1" stop-color="#fbb885"/></radialGradient><path d="M312.1 197.6c3.7-6.5 11.8-8.8 18.1-5.2 6.3 3.6 8.5 11.8 4.8 18.3-2.9 5.2-8.7 7.7-14.1 6.7-1.7 2.7-5.2 3.7-7.9 2.2-2.8-1.6-3.8-5.2-2.1-8.1.2-.4.5-.8.8-1.1-1.9-3.9-1.9-8.7.4-12.8z" fill="url(#SVGID_15_)"/><path class="st34" d="M322.9 199.3c5.1-1.2 8.7 3.6 8.7 3.6s-2.6-7.4-9-6c-6.3 1.5-7.1 8.9-7.1 8.9s1.9-5.1 7.4-6.5z"/><path class="st34" d="M320.8 206.7c-3.3-3.9-4.7-2-4.7-2s1.1-4.4 5.8 1.8c2.6 3.5-1.1 5.8-1.1 5.8s2.6-2.6 0-5.6z"/><linearGradient id="SVGID_16_" gradientUnits="userSpaceOnUse" x1="-137.162" y1="230.936" x2="-121.426" y2="289.033" gradientTransform="rotate(14.774 428.281 1925.28)"><stop offset="0" stop-color="#574537"/><stop offset=".576" stop-color="#433329"/><stop offset="1" stop-color="#32241d"/></linearGradient><path d="M304.6 155.1s13.2 25.4 10.8 47.5c0 0 17-12.2-.1-58.4l-10.7 10.9z" fill="url(#SVGID_16_)"/><radialGradient id="SVGID_17_" cx="-180.878" cy="311.338" r="73.028" gradientTransform="rotate(14.774 428.281 1925.28)" gradientUnits="userSpaceOnUse"><stop offset="0" stop-color="#fcc58a"/><stop offset=".575" stop-color="#fcc289"/><stop offset=".962" stop-color="#fbb986"/><stop offset="1" stop-color="#fbb885"/></radialGradient><path d="M204.5 272.5s-2.7-2.1-4.7-8.5c-6.6-20.6-12.5-100.6-12.5-100.6l27.8-29.8 93.6 15.6s8 29.7 7.9 55.7c-.1 16.2.1 34.7-1.7 46.9-1.3 8.9-4.6 14.1-4.6 14.1s-37.7 21.4-105.8 6.6z" fill="url(#SVGID_17_)"/><linearGradient id="SVGID_18_" gradientUnits="userSpaceOnUse" x1="-259.851" y1="265.317" x2="-244.175" y2="323.188" gradientTransform="rotate(14.774 428.281 1925.28)"><stop offset="0" stop-color="#574537"/><stop offset=".576" stop-color="#433329"/><stop offset="1" stop-color="#32241d"/></linearGradient><path d="M181.5 146.2l16.9 21.7s7.9 27.2-13.8 36.4c0 0-24-36.2-3.1-58.1z" fill="url(#SVGID_18_)"/><linearGradient id="SVGID_19_" gradientUnits="userSpaceOnUse" x1="-178.609" y1="339.406" x2="-155.504" y2="424.712" gradientTransform="rotate(19.294 785.932 1494.098)"><stop offset="0" stop-color="#574537"/><stop offset=".576" stop-color="#433329"/><stop offset="1" stop-color="#32241d"/></linearGradient><path d="M181.4 146.7s22.1-51 68.6-52.5c0 0-10.1 8.7-10.6 11.9 0 0 12.9-8.2 25.7-9.3 17.6-1.5 37.5 19.2 49.9-5 0 0 8.3 11.5 1.3 24.3 0 0 6.2-3.5 7.8-10.7 0 0 6.5 19.8-10.2 33.7 0 0 7.3-1.3 11.4-9.4 0 0-14.1 57.8-127.5 38.2l-16.4-21.2z" fill="url(#SVGID_19_)"/><path d="M253.8 101.5c24.2-8.2 27.5 5.9 46.8 4.2 8.4-.7 11.3-5.7 11.3-5.7-13.7 22.5-31.9-2.7-57.9 1.6l-.2-.1z" fill="#836f67"/><path d="M226.1 226.1c-.8 3.4-4.3 5.4-7.7 4.6-3.4-.8-5.4-4.3-4.6-7.7.8-3.4 4.3-5.4 7.7-4.6 3.4.9 5.4 4.3 4.6 7.7zm80.3-4.6c-.8 3.4-4.3 5.4-7.7 4.6-3.4-.8-5.4-4.3-4.6-7.7.8-3.4 4.3-5.4 7.7-4.6 3.4.9 5.5 4.3 4.6 7.7z" fill="#fab383"/><radialGradient id="SVGID_20_" cx="282.757" cy="-363.429" r="10.105" gradientTransform="matrix(1 -.00344 .00344 1 -48.785 562.246)" gradientUnits="userSpaceOnUse"><stop offset="0" stop-color="#454545"/><stop offset="1" stop-color="#101010"/></radialGradient><path d="M241.5 198.2c0 4.8-3.9 8.8-8.7 8.8-4.8 0-8.8-3.9-8.8-8.7 0-4.8 3.9-8.8 8.7-8.8 4.9-.1 8.8 3.8 8.8 8.7z" fill="url(#SVGID_20_)"/><path class="st5" d="M238.3 195.1c0 1.7-1.4 3.1-3.1 3.1-1.7 0-3.1-1.4-3.1-3.1 0-1.7 1.4-3.1 3.1-3.1 1.7 0 3.1 1.4 3.1 3.1z"/><radialGradient id="SVGID_21_" cx="341.308" cy="-363.228" r="10.105" gradientTransform="matrix(1 -.00344 .00344 1 -48.785 562.246)" gradientUnits="userSpaceOnUse"><stop offset="0" stop-color="#454545"/><stop offset="1" stop-color="#101010"/></radialGradient><path d="M300.1 198.2c0 4.8-3.9 8.8-8.7 8.8-4.8 0-8.8-3.9-8.8-8.7 0-4.8 3.9-8.8 8.7-8.8 4.8-.1 8.8 3.8 8.8 8.7z" fill="url(#SVGID_21_)"/><path class="st5" d="M296.9 195.1c0 1.7-1.4 3.1-3.1 3.1-1.7 0-3.1-1.4-3.1-3.1 0-1.7 1.4-3.1 3.1-3.1 1.7 0 3.1 1.4 3.1 3.1z"/><path class="st43" d="M280.1 175.2s14.2-6.3 23.2 8m-86.6 3.4s6.9-13.9 22.9-8.8"/><path class="st44" d="M320.1 179c-7.9-.2-10.8-2.1-26.6-1.3-12.3.6-19.7 3.3-32 3.9h-.1c-12.3.6-19.9-1.4-32.2-.9-15.8.7-18.5 2.7-26.4 3.7-.7.1-1.3.7-1.2 1.9.1 2 .3 3.9.4 5.7.1 1.6 1.4 1.4 2.3 3.3 2.8 6 2.2 16.2 8.5 21.3 1.8 1.4 5 3.2 8 3.3 14.5.7 27 1 31.9-14 1-3.1 2.5-5.7 3.5-10.3 1.5-3.2 1.6-2.6 5.6-2.9 4 0 4.1-.6 5.9 2.4 1.4 4.5 3.2 6.9 4.5 9.9 6.2 14.5 18.7 13 33.1 11 3-.4 6-2.5 7.6-4.1 5.8-5.6 4.3-15.7 6.5-22 .7-2 2.1-1.8 2-3.5-.1-1.8 0-3.6-.1-5.7.2-1.1-.5-1.7-1.2-1.7zm-67.2 21.1c-1.3 5.5-3.5 11.1-8.1 14.3-3.2 2.2-7.7 3.6-12.8 4-15.1 1-21.5-3.7-22.2-16.5-.3-6-1.7-11.5 1.7-14.6 3.7-3.4 12.5-3.9 19-4.2 6.7-.3 17.4.3 21.4 3.9 3.4 3.1 2.2 8 1 13.1zm61.9-3.1c.5 12.8-5.4 18-20.5 18.5-5.2.2-9.8-.8-13.1-2.8-4.9-2.8-7.6-8.1-9.4-13.5-1.6-5-3.4-9.8-.3-13.1 3.7-4 14.2-5.6 21-5.9 6.5-.3 15.3-.6 19.3 2.4 3.6 2.7 2.8 8.3 3 14.4z"/><path class="st44" d="M202 185.6l-11.8 15.1 3.2 3.5 10.1-10.8z"/><radialGradient id="SVGID_22_" cx="-240.615" cy="339.842" r="14.138" gradientTransform="rotate(27.716 229.321 1142.932)" gradientUnits="userSpaceOnUse"><stop offset="0" stop-color="#fcc58a"/><stop offset=".575" stop-color="#fcc289"/><stop offset=".962" stop-color="#fbb986"/><stop offset="1" stop-color="#fbb885"/></radialGradient><path d="M197.7 207.9c-2.7-6.9-10.4-10.4-17.2-7.8-6.8 2.6-10.1 10.4-7.4 17.4 2.2 5.5 7.5 8.9 13 8.7 1.3 3 4.6 4.4 7.5 3.3 3-1.2 4.5-4.6 3.3-7.7l-.6-1.2c2.5-3.6 3.2-8.3 1.4-12.7z" fill="url(#SVGID_22_)"/><path class="st34" d="M186.8 208.1c-4.8-1.9-9.1 2.3-9.1 2.3s3.7-7 9.8-4.6c6.1 2.4 5.7 9.8 5.7 9.8s-1.1-5.4-6.4-7.5z"/><path class="st34" d="M187.8 215.6c3.8-3.4 5-1.3 5-1.3s-.4-4.5-6 1c-3.1 3 .2 5.9.2 5.9s-2.2-2.9.8-5.6z"/><pattern id="SVGID_23_" xlink:href="#New_Pattern" patternTransform="rotate(14.75 -8486.17 1828.717) scale(1.153)"/><path d="M311.7 262.9s12.2 45.7-3.2 106.8c0 0-15.6 18.2-104-3.4 0 0 1.5 2.8 3.3-20.4 1.9-24.5-3.5-73.6-3.5-73.6s76.9 13.6 107.4-9.4z" fill="url(#SVGID_23_)"/><path class="st5" d="M276 274.8c-6.4.7-13.8 1.2-13.8 1.2l13.6 17.3s6.3-9 10.7-20.2c0 .1-4.8 1.1-10.5 1.7z"/><path class="st43" d="M274.7 233.7s-11 11-24.5 1"/><pattern id="SVGID_24_" xlink:href="#New_Pattern_2" patternTransform="matrix(.6517 .1718 -.1718 .6517 -3193.76 -2547.56)"/><path d="M170.8 374.3s-26.7-74 42-92.7" fill="none" stroke="url(#SVGID_24_)" stroke-width="13" stroke-miterlimit="10"/><g><linearGradient id="SVGID_25_" gradientUnits="userSpaceOnUse" x1="407.833" y1="170.333" x2="407.833" y2="292.35"><stop offset="0" stop-color="#f15a24"/><stop offset="1" stop-color="#ff931e"/></linearGradient><path fill="url(#SVGID_25_)" d="M347.3 149.3v80l121 45v-81z"/><linearGradient id="SVGID_26_" gradientUnits="userSpaceOnUse" x1="404.333" y1="129" x2="404.333" y2="209"><stop offset="0" stop-color="#f15a24"/><stop offset="1" stop-color="#ff931e"/></linearGradient><path fill="url(#SVGID_26_)" d="M340.3 96.3v55l128 47v-56z"/><linearGradient id="SVGID_27_" gradientUnits="userSpaceOnUse" x1="528.833" y1="177" x2="528.833" y2="274.333"><stop offset="0" stop-color="#f15a24"/><stop offset="1" stop-color="#ff931e"/></linearGradient><path fill="url(#SVGID_27_)" d="M589.3 149.3v80l-121 45v-81z"/><linearGradient id="SVGID_28_" gradientUnits="userSpaceOnUse" x1="532.333" y1="139.667" x2="532.333" y2="204.347"><stop offset="0" stop-color="#f15a24"/><stop offset="1" stop-color="#ff931e"/></linearGradient><path fill="url(#SVGID_28_)" d="M596.3 96.3v55l-128 47v-56z"/><path fill="#f7931e" d="M468.1 48.3l-127.8 48 128 46 128-46z"/><path class="st53" d="M409.1 121.1l-14.4-5.2 126.6-47.7 14.3 5.4z"/><path class="st53" d="M527.7 121.1l14.4-5.2-126.8-47.7-14.3 5.3zM409.3 252.2l-15-5.2V115.9l15 5.2z"/><path class="st53" d="M527.3 252.2l15-5.2V115.9l-15 5.2z"/><path class="st54" d="M435.8 262.2c.6-10.7 3.2-23.7 10.1-37.6 15.1-30.4 24.9-45.6 6.4-87.4-12.9-29.1 13.2-40.6 13.2-40.6l-3.3-2s-36.3 7.6-16.3 53.9c16.4 38-18.9 75.3-23.5 108.7"/><linearGradient id="SVGID_29_" gradientUnits="userSpaceOnUse" x1="488.975" y1="140.888" x2="436.923" y2="199.529"><stop offset="0" stop-color="#ec2c28"/><stop offset=".237" stop-color="#bc2220"/><stop offset=".521" stop-color="#ec2c28"/><stop offset=".756" stop-color="#bc2220"/><stop offset="1" stop-color="#ec2c28"/></linearGradient><path d="M467.5 85.8s-36.3 7.6-16.3 53.9c18.6 42.9-28.9 84.9-23.6 121.5l15.9 18.3s-9.4-29.4 7.7-63.7c15.1-30.4 24.9-45.6 6.4-87.4-12.9-29.1 15.2-35 15.2-35l-5.3-7.6z" fill="url(#SVGID_29_)"/><path class="st54" d="M575.5 234.4c-1.1-10-.9-23 1.6-39.9 8.4-55.6-27.4-35.8-65.6-46-22.4-6-28.8-48.6-22.2-55.6l-12-.8s-.8 51.4 21.4 64c25.1 14.2 61.7-7.4 64.2 30.9 1.3 20.5-7.3 34.4-2.8 53.3"/><linearGradient id="SVGID_30_" gradientUnits="userSpaceOnUse" x1="579.225" y1="225.922" x2="494.543" y2="75.376"><stop offset="0" stop-color="#ec2c28"/><stop offset=".237" stop-color="#bc2220"/><stop offset=".521" stop-color="#ec2c28"/><stop offset=".756" stop-color="#bc2220"/><stop offset="1" stop-color="#ec2c28"/></linearGradient><path d="M481.7 91.7s-1.6 44.7 20.6 57.2c25.1 14.2 61.7-7.4 64.2 30.9 1.8 27.3-14.1 42.8 6.8 73.8l21.4 5.9s-23.6-9-14.1-72c8.4-55.6-27.4-35.8-65.6-46-22.4-6-25.9-43.8-19.2-50.8l-14.1 1z" fill="url(#SVGID_30_)"/><path class="st53" d="M463.1 83.3l-66.4-.6 4 30.1 64.8-16.2z"/><path class="st53" d="M463.6 83.4s-64.7 16.8-66.8-.2c-2.1-17 66.8.2 66.8.2z"/><path class="st57" d="M465.5 96.6s-62.7 33.2-64.8 16.2c-2.1-17 64.8-16.2 64.8-16.2z"/><path class="st53" d="M481.2 81.8s65.4 4.2 64.2-12.9c-1.1-17.1-64.2 12.9-64.2 12.9z"/><path class="st53" d="M479.9 81.8l65.6-12.9.5 34-65.5-9.2z"/><path class="st57" d="M480.5 93.7s64.1 26.2 65.6 9.2c1.4-17-65.6-9.2-65.6-9.2zm-15.6-5.3s-3-.7-7.7-.7c-8.2 0-13.4 1.6-13.4 1.6s5.6-.9 13.4.6c3.5.6 8.1 2.6 8.1 2.6l-.4-4.1zm17.9-2.7s3-1 7.6-1.4c8.1-.7 13.5.4 13.5.4s-5.7-.4-13.3 1.7c-3.5.9-7.8 3.3-7.8 3.3v-4z"/><linearGradient id="SVGID_31_" gradientUnits="userSpaceOnUse" x1="997.84" y1="2979.122" x2="997.84" y2="3009.71" gradientTransform="matrix(.9954 -.096 .0601 .6229 -700.07 -1682.046)"><stop offset="0" stop-color="#ec2c28"/><stop offset="1" stop-color="#bc2220"/></linearGradient><path d="M484.7 95.3c.1 1.2-1.4 2.4-3.3 2.6l-14.3 1.4c-2 .2-3.6-.6-3.7-1.9l-1.4-15c-.1-1.2 1.4-2.4 3.3-2.6l14.3-1.4c2-.2 3.6.6 3.7 1.9l1.4 15z" fill="url(#SVGID_31_)"/></g></g></svg>