<svg xmlns="http://www.w3.org/2000/svg" viewBox="0 0 30 34.3"><linearGradient id="a" gradientUnits="userSpaceOnUse" x1="7.191" y1="29.603" x2="22.723" y2="4.032" gradientTransform="matrix(1 0 0 -1 0 33.877)"><stop offset=".006" stop-color="#ffcc06"/><stop offset=".498" stop-color="#f8a317"/><stop offset="1" stop-color="#f17a28"/></linearGradient><path d="M29.5 8.2L15.6.2c-.3-.2-.7-.2-1.1 0L.6 8.2c-.4.2-.6.5-.6.9v16.1c0 .4.2.7.6.9l13.9 8c.3.2.8.2 1.1 0l13.9-8c.3-.2.5-.6.5-.9V9.1c0-.4-.2-.7-.5-.9z" fill="url(#a)"/><path d="M2 21.3v-8.2h3.3c1.6 0 2.6 1.1 2.6 2.5 0 1.3-.9 2.5-2.6 2.5H3.1v3.3H2zm4.8-5.7c0-.9-.7-1.6-1.6-1.6H3.1v3.1h2.1c1 .1 1.6-.6 1.6-1.5zm1.9 5.7v-8.2h1v7.3h3.8v.9H8.7zm5.5-3.1v-5h1v5c0 1.5.8 2.4 2.3 2.4 1.5 0 2.3-.9 2.3-2.4v-5h1v5c0 2-1.1 3.3-3.4 3.3-2 0-3.2-1.3-3.2-3.3zm7.8 2l.6-.8c.5.6 1.4 1.2 2.6 1.2 1.5 0 1.9-.8 1.9-1.4 0-2.1-4.9-.9-4.9-3.9 0-1.3 1.2-2.3 2.8-2.3 1.2 0 2.2.4 2.9 1.2l-.6.7c-.6-.7-1.5-1-2.4-1-1 0-1.7.5-1.7 1.3 0 1.8 4.9.8 4.9 3.9 0 1.2-.8 2.4-3 2.4-1.4 0-2.4-.5-3.1-1.3z" fill="#fff" stroke="#fff" stroke-width=".25" stroke-miterlimit="10"/></svg>