<svg xmlns="http://www.w3.org/2000/svg" viewBox="0 0 34.9 34"><linearGradient id="a" gradientUnits="userSpaceOnUse" x1="1.006" y1="16.385" x2="33.862" y2="16.385" gradientTransform="matrix(1 0 0 -1 0 33.38)"><stop offset=".006" stop-color="#ffcc06"/><stop offset=".498" stop-color="#f8a317"/><stop offset="1" stop-color="#f17a28"/></linearGradient><path d="M30.9 7.5L10.4 2.1c-.2-.1-.5-.1-.7-.1-1.2 0-2.2.8-2.5 2L2.1 23.3c-.4 1.4.5 2.8 1.9 3.2l20.5 5.4c.2.1.5.1.7.1 1.2 0 2.2-.8 2.5-2l5.1-19.4c.3-1.3-.5-2.8-1.9-3.1z" fill="url(#a)"/><path d="M34.1 7.5c-.6-1-1.6-1.7-2.8-2L10.9.2c-.4-.1-.8-.2-1.2-.2-2.1 0-4 1.5-4.5 3.5l-5 19.3c-.7 2.4.8 4.9 3.3 5.6L24 33.8c.4.1.8.2 1.2.2 2 0 3.9-1.4 4.4-3.4l5.1-19.4c.3-1.3.1-2.6-.6-3.7z" fill="#fff"/><linearGradient id="b" gradientUnits="userSpaceOnUse" x1="2.004" y1="16.995" x2="32.862" y2="16.995"><stop offset=".006" stop-color="#ffcc06"/><stop offset="1" stop-color="#f17a28"/></linearGradient><path d="M32.8 10.6L27.7 30c-.3 1.2-1.4 2-2.5 2-.2 0-.4 0-.7-.1L4 26.5c-1.4-.4-2.3-1.8-1.9-3.2L7.2 4c.3-1.2 1.3-2 2.5-2 .2 0 .5 0 .7.1l20.5 5.4c1.4.3 2.2 1.8 1.9 3.1z" fill="url(#b)"/></svg>