<svg xmlns="http://www.w3.org/2000/svg" width="36" height="36"><g transform="translate(2 2)"><linearGradient id="a" gradientUnits="userSpaceOnUse" x1="1.13" y1="-1010.237" x2="19.63" y2="-1034.737" gradientTransform="matrix(1 0 0 -1 6 -1006)"><stop offset=".006" stop-color="#ffcc06"/><stop offset="1" stop-color="#f17a28"/></linearGradient><path d="M2.1 7.7c-.3.2-.5.5-.5.9v14.9c0 .4.2.7.5.9l13.5 7.5c.2.1.3.1.5.1s.4 0 .5-.1L30 24.4c.3-.2.5-.5.5-.9V8.6c0-.4-.2-.7-.5-.9L16.6.2c-.1-.1-.3-.1-.5-.1s-.4 0-.5.1L2.1 7.7z" fill="url(#a)"/><path d="M16.1 34c-.5 0-1-.1-1.5-.4L1.1 26.1c-1-.6-1.5-1.6-1.5-2.6V8.6c0-1.1.6-2.1 1.6-2.6l13.4-7.5c.9-.5 2.1-.5 3 0L31 6c1 .5 1.5 1.5 1.5 2.6v14.9c0 1.1-.6 2.1-1.6 2.6l-13.3 7.5c-.5.3-1 .4-1.5.4zm0-33.9c-.2 0-.4 0-.5.1L2.1 7.7c-.3.2-.5.5-.5.9v14.9c0 .3.2.7.5.9l13.5 7.5c.3.2.7.2 1.1 0l13.4-7.5c.3-.2.5-.5.5-.9V8.6c0-.4-.2-.7-.5-.9L16.6.2c-.1-.1-.3-.1-.5-.1z" fill="#fff"/></g><path d="M5.1 22v-8.1h3.3c1.6 0 2.5 1.1 2.5 2.4 0 1.3-.9 2.4-2.5 2.4H6.2v3.2H5.1v.1zm4.8-5.6c0-.9-.7-1.5-1.6-1.5H6.2V18h2.1c.9-.1 1.6-.7 1.6-1.6zm1.8 5.6v-8.1h1v7.2h3.8v.9h-4.8zm5.5-3.1V14h1v4.9c0 1.5.8 2.4 2.3 2.4s2.3-.9 2.3-2.4V14h1v4.9c0 2-1.1 3.3-3.3 3.3s-3.3-1.3-3.3-3.3zm7.6 2l.6-.8c.5.6 1.4 1.2 2.5 1.2 1.4 0 1.9-.8 1.9-1.4 0-2.1-4.8-.9-4.8-3.8 0-1.3 1.2-2.2 2.8-2.2 1.2 0 2.2.4 2.9 1.1l-.6.7c-.6-.7-1.5-1-2.3-1-1 0-1.7.5-1.7 1.3 0 1.8 4.8.8 4.8 3.8 0 1.2-.8 2.4-3 2.4-1.4 0-2.4-.5-3.1-1.3z" fill="#fff" stroke="#fff" stroke-width=".029" stroke-miterlimit="10"/></svg>