<?xml version="1.0" encoding="utf-8"?>
<svg version="1.1" id="Layer_1" xmlns="http://www.w3.org/2000/svg" xmlns:xlink="http://www.w3.org/1999/xlink" x="0px" y="0px"
	 viewBox="0 0 800 800" style="enable-background:new 0 0 800 800;" xml:space="preserve">
<style type="text/css">
	.st0{clip-path:url(#SVGID_2_);}
	.st1{fill:#FAFAFA;}
	.st2{fill-rule:evenodd;clip-rule:evenodd;fill:#FFEBC4;}
	.st3{fill-rule:evenodd;clip-rule:evenodd;fill:#E8E8E8;}
	.st4{fill-rule:evenodd;clip-rule:evenodd;fill:#E2E2E2;}
	.st5{fill-rule:evenodd;clip-rule:evenodd;fill:#D6D6D6;}
	.st6{fill-rule:evenodd;clip-rule:evenodd;fill:#EAEAE9;}
	.st7{fill-rule:evenodd;clip-rule:evenodd;fill:#BCBCBC;}
</style>
<g>
	<defs>
		<circle id="SVGID_1_" cx="400" cy="400" r="400"/>
	</defs>
	<clipPath id="SVGID_2_">
		<use xlink:href="#SVGID_1_"  style="overflow:visible;"/>
	</clipPath>
	<g class="st0">
		<rect class="st1" width="800" height="800"/>
		<path class="st2" d="M184,270c48.6,0,88,39.4,88,88c0,48.6-39.4,88-88,88s-88-39.4-88-88C96,309.4,135.4,270,184,270z"/>
		<path class="st3" d="M343.5,533.2l0.4-37.8l4.9-3.3l2.4,7.8l1.2-19.6l6.9-20.9l11.4,0.7v28l3.7-28.7l16.3,2.6
			c0,0-3.3,17.5,0.8,25.4c4.1,8,13.5,9.1,13.5,9.1l2.4,37.8L343.5,533.2z"/>
		<path class="st3" d="M421.1,510c0,0,16.2-33.6,13.2-79h17.6c0,0-7.7,76.2,3.3,84l1.1-30l5.5-7l-0.5,17l5-16l4.9-1l3.9,24v-61h9.9
			l3.3,17l2.8-24l9.9-3l1.1,42l3.3-36l5-2l8.2,100h-99L421.1,510z"/>
		<path class="st4" d="M509.5,554c0,0-46.9-1-61-17c-16.8-19.1-22-51.3-41-49c-19.7,2.4-25.9,31.1-47,17c-23.9-15.9-49.6-44.9-72-38
			c-40.2,12.5-36.1,58-110,58c-51.4,0-73.1-31.1-112-22c-46.7,10.9-89.1,28.5-89.1,28.5l1.1,72.5h485L509.5,554z"/>
		<path class="st5" d="M95.5,567c0,0,80.7-105.6,147-93c66.3,12.6,52.6,56,137,56c84.4,0,72.6-33.4,123-49c50.4-15.6,67.9,51,120,38
			c52.1-13,84.3-51.3,155-25c16.3,6,39.5,24.9,39.5,24.9l2,85.1H97.5L95.5,567z"/>
		<rect x="-17" y="566.5" class="st6" width="834" height="247.5"/>
		<path class="st7" d="M696.2,421.2c-10.7-4.4-11.4,3.6-20.8,13.4c-6.2,6.5-16.4,4.3-22.6,2c46.5-76.5-17.4-92.4-45.7-46.4
			c-10.3,16.8-15.6,41.7-17.6,69c-7.8-2.7-17.9-9.1-16.3-24.3c2.6-24.4,10.8-37.7-3.4-40.9c-18.2-4.2-31.6,69,19.1,75.7
			c-1.4,34.9,2.1,72.2,7.5,100c6,31.2,21.4,60.4,21.4,60.4h19.7c0,0-12.2-35.2-13.1-81c48.5,16,68.6-55.7,50.4-59.9
			c-14.2-3.2-12.6,12.3-21,35.4c-6.2,17-21.6,15.9-29.3,14.1c0.6-31,6.9-65.9,25.6-97.4C685.5,458,709.8,426.7,696.2,421.2z"/>
	</g>
</g>
</svg>
