<svg id="Layer_1" xmlns="http://www.w3.org/2000/svg" xmlns:xlink="http://www.w3.org/1999/xlink" viewBox="0 0 800 800"><style>.st3{fill-rule:evenodd;clip-rule:evenodd;fill:#e8e8e8}</style><defs><circle id="SVGID_1_" cx="400" cy="400" r="400"/></defs><clipPath id="SVGID_2_"><use xlink:href="#SVGID_1_" overflow="visible"/></clipPath><g clip-path="url(#SVGID_2_)"><path fill="#fafafa" d="M0 0h800v800H0z"/><path d="M184 270c48.6 0 88 39.4 88 88s-39.4 88-88 88-88-39.4-88-88 39.4-88 88-88z" fill-rule="evenodd" clip-rule="evenodd" fill="#ffebc4"/><path class="st3" d="M343.5 533.2l.4-37.8 4.9-3.3 2.4 7.8 1.2-19.6 6.9-20.9 11.4.7v28l3.7-28.7 16.3 2.6s-3.3 17.5.8 25.4c4.1 8 13.5 9.1 13.5 9.1l2.4 37.8-63.9-1.1zM421.1 510s16.2-33.6 13.2-79h17.6s-7.7 76.2 3.3 84l1.1-30 5.5-7-.5 17 5-16 4.9-1 3.9 24v-61h9.9l3.3 17 2.8-24 9.9-3 1.1 42 3.3-36 5-2 8.2 100h-99l1.5-25z"/><path d="M509.5 554s-46.9-1-61-17c-16.8-19.1-22-51.3-41-49-19.7 2.4-25.9 31.1-47 17-23.9-15.9-49.6-44.9-72-38-40.2 12.5-36.1 58-110 58-51.4 0-73.1-31.1-112-22-46.7 10.9-89.1 28.5-89.1 28.5l1.1 72.5h485l46-50z" fill-rule="evenodd" clip-rule="evenodd" fill="#e2e2e2"/><path d="M95.5 567s80.7-105.6 147-93c66.3 12.6 52.6 56 137 56s72.6-33.4 123-49c50.4-15.6 67.9 51 120 38 52.1-13 84.3-51.3 155-25 16.3 6 39.5 24.9 39.5 24.9l2 85.1H97.5l-2-37z" fill-rule="evenodd" clip-rule="evenodd" fill="#d6d6d6"/><path fill-rule="evenodd" clip-rule="evenodd" fill="#eaeae9" d="M-17 566.5h834V814H-17z"/><path d="M696.2 421.2c-10.7-4.4-11.4 3.6-20.8 13.4-6.2 6.5-16.4 4.3-22.6 2 46.5-76.5-17.4-92.4-45.7-46.4-10.3 16.8-15.6 41.7-17.6 69-7.8-2.7-17.9-9.1-16.3-24.3 2.6-24.4 10.8-37.7-3.4-40.9-18.2-4.2-31.6 69 19.1 75.7-1.4 34.9 2.1 72.2 7.5 100 6 31.2 21.4 60.4 21.4 60.4h19.7s-12.2-35.2-13.1-81c48.5 16 68.6-55.7 50.4-59.9-14.2-3.2-12.6 12.3-21 35.4-6.2 17-21.6 15.9-29.3 14.1.6-31 6.9-65.9 25.6-97.4 35.4 16.7 59.7-14.6 46.1-20.1z" fill-rule="evenodd" clip-rule="evenodd" fill="#bcbcbc"/></g></svg>