<?xml version="1.0" encoding="utf-8"?>
<!-- Generator: Adobe Illustrator 22.1.0, SVG Export Plug-In . SVG Version: 6.00 Build 0)  -->
<svg version="1.1" id="Layer_1" xmlns="http://www.w3.org/2000/svg" xmlns:xlink="http://www.w3.org/1999/xlink" x="0px" y="0px"
	 viewBox="0 0 239.4 78" style="enable-background:new 0 0 239.4 78;" xml:space="preserve">
<style type="text/css">
	.st0{fill:#F6F6F6;}
</style>
<path class="st0" d="M80.4,25c21.3,0,42.7,0,64,0c1.3,0,2.7,0.2,4-0.1c3.1-0.7,5.1-2.6,4.8-6c-0.3-3.1-2.5-4-5.3-3.9
	c-7,0.1-14,0-21,0c-1.2,0-2.3,0.1-3.5,0c-4.5-0.5-8.4-4.8-8.1-8.6c0.3-3.8,3.8-6.3,8.6-6.3c26.3,0,52.7,0,79,0
	c5.8,0,8.2,1.9,8.3,6.2c0.1,5.4-2.9,8.6-8.6,8.7c-3,0.1-6,0.1-9,0c-3.2-0.1-6.4,0.3-6.3,4.4c0.1,4.1,2.8,5.6,6.7,5.6
	c10-0.1,20,0,30,0c1.5,0,3,0,4.5,0.3c8.1,1.8,11.6,7.3,10.7,16.4C238.5,48.5,233,53,225.1,53c-37.2,0-74.3,0-111.5,0
	c-1.2,0-2.3,0-3.5,0c-3.3,0.1-5.7,1.8-5.7,5c0,3.2,2.4,5,5.7,5c8.7,0,17.3,0,26,0c6.6,0,9.2,2.1,9.1,7.2c-0.1,5-3.4,7.8-9.3,7.8
	c-25.5,0-51,0-76.5,0c-5.6,0-9-2.6-9.1-6.8c-0.1-5,3.3-8.1,9-8.2c1.7,0,3.3-0.1,5,0c4.1,0.4,5.9-1.9,5.9-5.6c0-3.8-2.6-4.5-5.8-4.5
	c-16.8,0-33.7,0.1-50.5,0c-6.3,0-11.2-3.4-12.9-8.4c-2.1-6.4-0.7-12.9,3.7-16.4c3-2.4,6.5-3.2,10.3-3.2C36.7,25,58.6,25,80.4,25z"/>
</svg>
