<?xml version="1.0" encoding="utf-8"?>
<!-- Generator: Adobe Illustrator 22.1.0, SVG Export Plug-In . SVG Version: 6.00 Build 0)  -->
<svg version="1.1" id="Layer_1" xmlns="http://www.w3.org/2000/svg" xmlns:xlink="http://www.w3.org/1999/xlink" x="0px" y="0px"
	 viewBox="0 0 1500 317.2" style="enable-background:new 0 0 1500 317.2;" xml:space="preserve">
<style type="text/css">
	.st0{fill:#FFECC5;}
	.st1{fill:#F5F4ED;}
	.st2{fill:#DED7C7;}
	.st3{fill:#EBE5D6;}
	.st4{fill:#FCFAF5;}
	.st5{fill:#BFBAA9;}
</style>
<path class="st0" d="M497.8,0c85.3,0,154.5,69.2,154.5,154.5S583.1,309,497.8,309s-154.5-69.2-154.5-154.5S412.5,0,497.8,0z"/>
<path class="st1" d="M810.3,262.7l0.4-37.8l4.9-3.3l2.4,7.8l1.2-19.6l6.9-20.9l11.4,0.7v28l3.8-28.6l16.3,2.6c0,0-3.3,17.5,0.8,25.4
	c4.1,8,13.5,9.1,13.5,9.1l2.4,37.9L810.3,262.7z M980.9,254c0,0,16.2-33.6,13.2-79h17.6c0,0-7.7,76.2,3.3,84l1.1-30l5.5-7l-0.5,17
	l5-16l5-1l3.8,24v-61h9.9l3.3,17l2.8-24l9.9-3l1.1,42l3.3-36l5-2l8.2,100h-99L980.9,254L980.9,254z"/>
<path class="st2" d="M967.3,278c0,0-46.9-1-61-17c-16.8-19.1-22-51.3-41-49c-19.7,2.4-25.9,31.1-47,17c-23.9-15.9-49.6-44.9-72-38
	c-40.2,12.5-36.1,58-110,58c-51.4,0-73.1-31.1-112-22c-51.8,12.1-50.9,29-103,29c-53.7,0-61.5-62.4-105-59c-21,1.6-109.1,82-179,82
	c-32.4,0-117.6,8.4-123,3l-1.2,25H957L967.3,278z"/>
<path class="st3" d="M553.3,291c0,0,80.7-105.6,147-93s52.6,56,137,56s72.6-33.4,123-49s67.9,51,120,38s84.3-51.3,155-25
	c46.3,17.2,48.9,61,167,61c64.3,0,66.1,38.2,66.1,38.2l-913.7,0L553.3,291z"/>
<path class="st4" d="M0,279h1500v38.2H0V279z"/>
<path class="st5" d="M277.7,258.5c-4.1-0.9-3.6,3.5-6,10.2c-1.2,3.2-3.5,4.2-5.6,4.3c1.5-7.9,2.4-18.2,2-27.9
	c14.5-1.9,10.7-22.9,5.5-21.7c-4.1,0.9-1.7,4.7-1,11.7c0.5,4.4-2.4,6.2-4.7,7c-0.6-7.8-2.1-14.9-5-19.7
	c-8.2-13.3-26.6-8.6-12.8,13.7c2.1,3.4,3.7,6.9,4.9,10.5c-1.8,0.7-4.8,1.4-6.6-0.5c-2.7-2.8-2.9-5.1-6-3.8c-3.9,1.6,3,10.5,13.1,5.8
	c1.6,5.5,2.4,11,2.5,16.1c-2,1.1-4.8,1.7-7.7-0.9c-5.2-4.8-6.8-8.9-10-6.2c-3.7,3.1,7.8,16.2,17.7,10.9c-0.3,13-3.8,23.1-3.8,23.1
	h5.6c0,0,3.6-6.8,5.6-14.7C277.8,278.2,282.7,259.6,277.7,258.5z M183.5,283c0,0,5.8-16.2-2.2-28.7c-7.4-11.7,0.6-9.6,5-2.6
	c3.8,6,5,14.4,3.5,22.3c-0.9,4.7-3.3,9-3.3,9 M189.3,266.6c0,0,3.3,1.3,4.4-1.6c1.1-2.8,0.9-4.8,2.7-4.4c2.5,0.5-0.5,10.3-7.5,7
	L189.3,266.6z M184.6,259.2c0,0-3.6,1.7-5.1-1.4c-1.4-3.2-1.3-5.3-3.4-4.7c-2.8,0.8,1.3,11.7,9,7.4L184.6,259.2z"/>
<path class="st5" d="M1304.2,252.7c-2.7-0.8-2.6,2.1-4.5,6.1c-1.5,3.2-4.7,2.5-6.1,2.1c0.6-2.4,1.6-4.8,3-7.1c7-11-0.6-9-4.7-2.5
	c-1.3,2.1-2.3,4.5-3,7.1c-1,0.3-4,0.9-5.1-2.2c-1.4-3.8-1.1-6.3-3.4-5.8c-3,0.7,0.3,12.4,8.2,9.8c-0.7,3.9-0.7,8.1,0.1,12.2
	c0.9,4.4,3.1,8.6,3.1,8.6h2.9c0,0-3.2-8.9-1.4-18.3C1302.7,266.9,1307.7,253.7,1304.2,252.7L1304.2,252.7z M1134.8,229.4
	c-4.2-1.7-4.5,1.4-8.2,5.3c-2.5,2.6-6.5,1.7-9,0.8c18.4-30.2-6.9-36.5-18.1-18.3c-4.1,6.6-6.2,16.5-7,27.3c-3.1-1.1-7.1-3.6-6.4-9.6
	c1-9.7,4.3-14.9-1.3-16.2c-7.2-1.7-12.5,27.3,7.5,29.9c-0.6,13.8,0.8,28.6,2.9,39.6c2.4,12.3,8.5,23.9,8.5,23.9h7.8
	c0,0-4.8-13.9-5.2-32c19.2,6.3,27.1-22,19.9-23.7c-5.6-1.3-5,4.8-8.3,14c-2.4,6.7-8.5,6.3-11.6,5.6c0.2-12.3,2.7-26,10.1-38.5
	C1130.5,244,1140.2,231.6,1134.8,229.4L1134.8,229.4z"/>
</svg>
