<?xml version="1.0" encoding="utf-8"?>
<!-- Generator: Adobe Illustrator 22.1.0, SVG Export Plug-In . SVG Version: 6.00 Build 0)  -->
<svg version="1.1" id="Layer_1" xmlns="http://www.w3.org/2000/svg" xmlns:xlink="http://www.w3.org/1999/xlink" x="0px" y="0px"
	 viewBox="0 0 157.8 89" style="enable-background:new 0 0 157.8 89;" xml:space="preserve">
<style type="text/css">
	.st0{fill:#F7F7F7;}
</style>
<path class="st0" d="M105.4,89c-12.5,0-25,0-37.5,0c-6.9,0-10.9-3.6-11.1-9.5c-0.1-5.1,3.5-9.2,8.8-9.4c3.8-0.2,7.7-0.1,11.5,0
	c3.9,0.1,7.6-0.8,7.5-5.2c-0.1-4-3.6-4.9-7.3-4.9c-21.7,0.1-43.3-0.3-65,0.2C2.3,60.3-2.6,50.5,1.4,42.9C3.5,38.6,7,37,11.5,37
	c9.3,0,18.7-0.1,28,0c3.6,0.1,6.7-1,7.1-4.7c0.3-3.4-2.3-4.9-5.8-5.5c-7.8-1.3-11.8-7.5-11-16.3C30.3,4.6,36.2,0,43.4,0
	c15,0,30,0,45,0c7.4,0,12.1,4.4,12.4,11.4c0.3,9-4.1,14.9-11.6,15.5c-0.7,0.1-1.3,0-2,0c-3,0.4-5.5,1.3-5.4,5.1
	c0.1,3.9,2.7,4.6,5.7,4.8c3,0.2,6,0,9,0c16.2,0,32.3,0,48.5,0c7.8,0,12.8,4.5,12.8,11.5c0,7-5,11.4-12.9,11.5
	c-6.2,0-12.3,0.1-18.5,0c-3.5,0-6.3,1.4-6.4,4.8c-0.1,3.7,2.8,5.3,6.5,5.2c6-0.1,12-0.1,18,0c6.2,0,9.2,2.8,9.3,8.5
	c0.1,6.3-3.4,10.4-9.4,10.4C131.4,89.1,118.4,89,105.4,89z"/>
</svg>
