<?xml version="1.0" encoding="utf-8"?>
<!-- Generator: Adobe Illustrator 16.0.4, SVG Export Plug-In . SVG Version: 6.00 Build 0)  -->
<!DOCTYPE svg PUBLIC "-//W3C//DTD SVG 1.1//EN" "http://www.w3.org/Graphics/SVG/1.1/DTD/svg11.dtd" [
	<!ENTITY ns_extend "http://ns.adobe.com/Extensibility/1.0/">
	<!ENTITY ns_ai "http://ns.adobe.com/AdobeIllustrator/10.0/">
	<!ENTITY ns_graphs "http://ns.adobe.com/Graphs/1.0/">
	<!ENTITY ns_vars "http://ns.adobe.com/Variables/1.0/">
	<!ENTITY ns_imrep "http://ns.adobe.com/ImageReplacement/1.0/">
	<!ENTITY ns_sfw "http://ns.adobe.com/SaveForWeb/1.0/">
	<!ENTITY ns_custom "http://ns.adobe.com/GenericCustomNamespace/1.0/">
	<!ENTITY ns_adobe_xpath "http://ns.adobe.com/XPath/1.0/">
]>
<svg version="1.1" id="Layer_1" xmlns:x="&ns_extend;" xmlns:i="&ns_ai;" xmlns:graph="&ns_graphs;"
	 xmlns="http://www.w3.org/2000/svg" xmlns:xlink="http://www.w3.org/1999/xlink" x="0px" y="0px" width="35px" height="35px"
	 viewBox="0 0 35 35" enable-background="new 0 0 35 35" xml:space="preserve">
<metadata>
	<sfw  xmlns="&ns_sfw;">
		<slices></slices>
		<sliceSourceBounds  bottomLeftOrigin="true" width="35" height="35.02" x="280" y="192.001"></sliceSourceBounds>
	</sfw>
</metadata>
<g id="Ebene_4" display="none">
	<circle display="inline" fill="#40CFFF" cx="17.499" cy="17.5" r="17.499"/>
</g>
<g id="Ebene_1">
	<circle fill="#FFFFFF" cx="17.5" cy="17.406" r="17.084"/>
</g>
<g id="Ebene_3">
	<g id="Ebene_2">
		<g>
			<path fill="#EF5E5E" d="M13.584,9.969c0.327,0.191,0.624,0.418,0.892,0.668c0.683-0.473,1.293,0.635,0.669,1.041
				c0.119,0.238,0.215,0.502,0.223,0.854c0.609,0.135,0.666,1.311-0.184,1.227c-0.128,0.118-0.086,0.213-0.187,0.372
				c-0.081,0.125-0.374,0.295-0.409,0.445c-0.027,0.116,0.114,0.326,0.074,0.482c-0.117,0.479-1.03,0.612-1.152-0.038
				c-0.793-0.074-1.258-0.477-1.597-1.003c0.982,0.023,1.88-0.232,1.707-1.264c-0.167-1.015-1.892-1.318-2.674-0.556
				c-0.612,0.596-0.658,1.422-0.745,2.453c0.325,0.086,0.805,0.013,1.191,0.037c0,0.15,0,0.297,0,0.447c0.21,0,0.421,0,0.631,0
				c0,0.272,0,0.544,0,0.817c-0.197,0-0.396,0-0.593,0c-0.086,0.075-0.014,0.309-0.038,0.446c-0.335,0-0.668,0-1.004,0
				c0.291,2.817,0.64,5.576,0.928,8.396c-0.58-0.941-1.117-1.926-1.634-2.936c-0.444,1.166-0.585,2.636-1.041,3.791
				c-0.286-1.287-0.64-2.506-0.929-3.791c-0.574,0.947-1.104,1.944-1.635,2.936c0.191-2.742,0.59-5.604,0.891-8.361
				c-0.212-0.085-0.582-0.013-0.855-0.037c-0.071-0.09-0.022-0.299-0.037-0.446c-0.2,0-0.398,0-0.595,0
				c-0.062-0.192-0.062-0.623,0-0.817c0.186,0,0.371,0,0.558,0c0.1-0.073-0.022-0.37,0.073-0.447c0.346,0,0.693,0,1.041,0
				c-0.02-0.415,0.034-0.759,0.112-1.077c-0.134-0.217-0.379-0.269-0.41-0.558c-0.044-0.42,0.321-0.772,0.781-0.668
				c0.204-0.341,0.393-0.699,0.633-1.003c-0.42-0.581,0.334-1.336,0.854-0.855c0.317-0.203,0.615-0.425,1.003-0.557
				c-0.161-0.835,0.971-0.94,1.189-0.371c0.354-0.005,0.708-0.084,1.041,0c0.218-0.234,0.433-0.517,0.857-0.41
				C13.507,9.263,13.664,9.623,13.584,9.969z"/>
		</g>
		<g>
			<path d="M27.854,15.066c-1.179,0-2.355,0-3.535,0c0.367-1.442,0.082-3.12-0.894-3.416c-0.749-0.229-1.481,0.235-1.59,0.824
				c-0.063,0.343,0.054,0.689,0.192,0.785c0.599,0.408,0.887-0.578,0.234-0.589c0.1-0.304,0.282-0.48,0.618-0.471
				c0.92,0.026,0.979,1.445,0.468,2.001c-0.271,0.294-1.234,0.616-1.941,0.354c-0.793-0.294-1.227-1.221-1.241-2.199
				c-0.031-1.983,1.632-3.282,3.573-3.142C26.531,9.417,27.768,11.917,27.854,15.066z"/>
			<path d="M28.555,15.419c0,0.092,0,0.183,0,0.274c-0.262,0.26-0.721,0.157-1.127,0.157c-1.185,0-2.691,0.063-3.767-0.078
				c-0.294-0.685,0.61-0.512,1.396-0.512c0.795,0,1.645,0,2.449,0C27.904,15.262,28.346,15.164,28.555,15.419z"/>
			<path d="M23.35,16.047c0.815-0.182,2.053-0.038,3.301-0.038c0.701,0,2.761-0.293,2.643,0.588
				c-0.062,0.468-0.732,0.393-1.438,0.393c-1.297,0-2.266,0-3.611,0c-0.643,0-1.32,0.084-1.355-0.432
				C22.854,16.183,23.053,16.114,23.35,16.047z"/>
			<path d="M23.505,17.186c1.349,0,2.663,0,4.154,0c0.323,0,1.096-0.072,1.166,0.196c0.127,0.481-0.603,0.394-1.125,0.394
				c-1.097,0-1.892,0-3.03,0C23.966,17.775,22.891,17.814,23.505,17.186z"/>
			<path d="M28.359,17.933c0.414,2.523,0.787,5.092,1.203,7.617c-0.693-0.489-1.34-1.026-2.02-1.53
				c-0.357,0.351-0.686,0.731-1.091,1.18c-0.044,0.05-0.304,0.389-0.349,0.391c-0.131,0.008-0.64-0.676-0.737-0.781
				c-0.287-0.317-0.479-0.519-0.698-0.787c-0.708,0.479-1.354,1.018-2.021,1.53c0.315-2.454,0.783-5.1,1.166-7.617
				C25.33,17.933,26.846,17.933,28.359,17.933z"/>
		</g>
	</g>
</g>
<path id="border" fill="#CCCCCC" d="M17.5,0.979c9.1,0,16.5,7.402,16.5,16.5s-7.4,16.5-16.5,16.5c-9.098,0-16.5-7.4-16.5-16.5
	S8.402,0.979,17.5,0.979 M17.5-0.021C7.835-0.021,0,7.814,0,17.479c0,9.664,7.835,17.5,17.5,17.5S35,27.145,35,17.479
	C35,7.814,27.165-0.021,17.5-0.021L17.5-0.021z"/>
</svg>
