<?xml version="1.0" encoding="utf-8"?>
<!-- Generator: Adobe Illustrator 16.0.4, SVG Export Plug-In . SVG Version: 6.00 Build 0)  -->
<!DOCTYPE svg PUBLIC "-//W3C//DTD SVG 1.1//EN" "http://www.w3.org/Graphics/SVG/1.1/DTD/svg11.dtd" [
	<!ENTITY ns_extend "http://ns.adobe.com/Extensibility/1.0/">
	<!ENTITY ns_ai "http://ns.adobe.com/AdobeIllustrator/10.0/">
	<!ENTITY ns_graphs "http://ns.adobe.com/Graphs/1.0/">
	<!ENTITY ns_vars "http://ns.adobe.com/Variables/1.0/">
	<!ENTITY ns_imrep "http://ns.adobe.com/ImageReplacement/1.0/">
	<!ENTITY ns_sfw "http://ns.adobe.com/SaveForWeb/1.0/">
	<!ENTITY ns_custom "http://ns.adobe.com/GenericCustomNamespace/1.0/">
	<!ENTITY ns_adobe_xpath "http://ns.adobe.com/XPath/1.0/">
]>
<svg version="1.1" id="Layer_1" xmlns:x="&ns_extend;" xmlns:i="&ns_ai;" xmlns:graph="&ns_graphs;"
	 xmlns="http://www.w3.org/2000/svg" xmlns:xlink="http://www.w3.org/1999/xlink" x="0px" y="0px" width="35px" height="35px"
	 viewBox="0 0 35 35" enable-background="new 0 0 35 35" xml:space="preserve">
<metadata>
	<sfw  xmlns="&ns_sfw;">
		<slices></slices>
		<sliceSourceBounds  bottomLeftOrigin="true" width="35" height="35" x="279.999" y="192"></sliceSourceBounds>
	</sfw>
</metadata>
<g id="Ebene_3">
	<g>
		<path fill="#FFFFFF" d="M0.498,17.5c0,0.023,0.003,0.046,0.003,0.07h33.997c0-0.023,0.002-0.046,0.002-0.07H0.498z"/>
		<path fill="#131819" d="M17.499,0.5c-9.39,0-17.001,7.611-17.001,17H34.5C34.5,8.111,26.889,0.5,17.499,0.5z"/>
		<path fill="#FFFFFF" d="M17.499,34.5c9.366,0,16.959-7.572,16.999-16.93H0.501C0.54,26.928,8.133,34.5,17.499,34.5z"/>
	</g>
</g>
<path id="border" fill="#CCCCCC" d="M17.499,1c9.099,0,16.5,7.402,16.5,16.5c0,9.098-7.401,16.5-16.5,16.5
	c-9.098,0-16.5-7.402-16.5-16.5C0.999,8.402,8.401,1,17.499,1 M17.499,0c-9.665,0-17.5,7.835-17.5,17.5
	c0,9.664,7.835,17.5,17.5,17.5s17.5-7.836,17.5-17.5C34.999,7.835,27.164,0,17.499,0L17.499,0z"/>
</svg>
