<?xml version="1.0" encoding="utf-8"?>
<!-- Generator: Adobe Illustrator 20.1.0, SVG Export Plug-In . SVG Version: 6.00 Build 0)  -->
<svg version="1.1" id="Layer_1" xmlns="http://www.w3.org/2000/svg" xmlns:xlink="http://www.w3.org/1999/xlink" x="0px" y="0px"
	 viewBox="0 0 35 35" style="enable-background:new 0 0 35 35;" xml:space="preserve">
<style type="text/css">
	.st0{fill:#EA3648;}
	.st1{fill:#FFFFFF;}
	.st2{fill:#CCCCCC;}
</style>
<g id="Ebene_2">
</g>
<g id="Ebene_1">
	<circle class="st0" cx="17.5" cy="17.5" r="16.8"/>
	<polygon class="st1" points="28.8,10.1 24.9,10.1 24.9,6.1 23.7,6.1 23.7,10.1 19.7,10.1 19.7,11.2 23.7,11.2 23.7,15.2 24.9,15.2 
		24.9,11.2 28.8,11.2 	"/>
	<path id="border" class="st2" d="M17.5,1C26.6,1,34,8.4,34,17.5C34,26.6,26.6,34,17.5,34C8.4,34,1,26.6,1,17.5C1,8.4,8.4,1,17.5,1
		 M17.5,0C7.8,0,0,7.8,0,17.5S7.8,35,17.5,35S35,27.2,35,17.5S27.2,0,17.5,0L17.5,0z"/>
</g>
</svg>
