<?xml version="1.0" encoding="utf-8"?>
<!-- Generator: Adobe Illustrator 16.0.4, SVG Export Plug-In . SVG Version: 6.00 Build 0)  -->
<!DOCTYPE svg PUBLIC "-//W3C//DTD SVG 1.1//EN" "http://www.w3.org/Graphics/SVG/1.1/DTD/svg11.dtd" [
	<!ENTITY ns_extend "http://ns.adobe.com/Extensibility/1.0/">
	<!ENTITY ns_ai "http://ns.adobe.com/AdobeIllustrator/10.0/">
	<!ENTITY ns_graphs "http://ns.adobe.com/Graphs/1.0/">
	<!ENTITY ns_vars "http://ns.adobe.com/Variables/1.0/">
	<!ENTITY ns_imrep "http://ns.adobe.com/ImageReplacement/1.0/">
	<!ENTITY ns_sfw "http://ns.adobe.com/SaveForWeb/1.0/">
	<!ENTITY ns_custom "http://ns.adobe.com/GenericCustomNamespace/1.0/">
	<!ENTITY ns_adobe_xpath "http://ns.adobe.com/XPath/1.0/">
]>
<svg version="1.1" id="Layer_1" xmlns:x="&ns_extend;" xmlns:i="&ns_ai;" xmlns:graph="&ns_graphs;"
	 xmlns="http://www.w3.org/2000/svg" xmlns:xlink="http://www.w3.org/1999/xlink" x="0px" y="0px" width="35px" height="35px"
	 viewBox="0 0 35 35" enable-background="new 0 0 35 35" xml:space="preserve">
<metadata>
	<sfw  xmlns="&ns_sfw;">
		<slices></slices>
		<sliceSourceBounds  bottomLeftOrigin="true" width="7830.64" height="7920.235" x="-7515.64" y="192"></sliceSourceBounds>
	</sfw>
</metadata>
<g id="Ebene_6" display="none">
	<circle display="inline" fill="#40CFFF" cx="17.5" cy="17.5" r="17.5"/>
</g>
<g id="Ebene_1" display="none">
</g>
<g id="Ebene_5">
</g>
<g id="Ebene_4">
	<g>
		<path fill="#131819" d="M0.7,17.455c0,0.15,0.019,0.294,0.022,0.445v-0.889C0.718,17.16,0.7,17.304,0.7,17.455z"/>
		<path fill="#131819" d="M17.508,34.244L17.508,34.244l0.001-33.58h-0.001c-9.133,0-16.548,7.28-16.786,16.346v0.889
			C0.96,26.962,8.374,34.244,17.508,34.244z"/>
		<path fill="#44B1E0" d="M34.314,17.455c0-9.27-7.521-16.785-16.798-16.789v33.579C26.795,34.239,34.314,26.725,34.314,17.455z"/>
		<rect x="17.509" y="0.594" fill="#2993CE" width="0.008" height="0.071"/>
		<rect x="17.509" y="34.244" fill="#2993CE" width="0.008" height="0.058"/>
		<rect x="17.509" y="0.665" fill="#2993CE" width="0.008" height="33.58"/>
	</g>
</g>
<g id="Ebene_2">
	<polyline fill="#15252D" points="19.714,13.821 21.818,13.821 22.598,11.68 23.373,13.804 25.46,13.804 23.861,14.987 
		24.441,16.947 22.57,15.819 20.723,17.003 21.343,14.966 	"/>
	<polyline fill="#FFFFFF" points="20.252,13.999 21.961,13.999 22.596,12.257 23.225,13.984 24.923,13.984 23.625,14.948 
		24.098,16.542 22.572,15.624 21.068,16.588 21.575,14.931 	"/>
	<polyline fill="#15252D" points="25.6,13.821 27.705,13.821 28.48,11.68 29.256,13.804 31.343,13.804 29.746,14.987 30.324,16.947 
		28.455,15.819 26.607,17.003 27.229,14.966 	"/>
	<polyline fill="#FFFFFF" points="26.135,13.999 27.846,13.999 28.48,12.257 29.109,13.984 30.805,13.984 29.508,14.948 
		29.979,16.542 28.455,15.624 26.958,16.588 27.457,14.931 	"/>
	<polyline fill="#15252D" points="22.686,18.98 24.79,18.98 25.562,16.842 26.34,18.965 28.428,18.965 26.83,20.146 27.408,22.111 
		25.536,20.98 23.691,22.162 24.312,20.128 	"/>
	<polyline fill="#FFFFFF" points="23.219,19.158 24.932,19.158 25.562,17.417 26.195,19.145 27.893,19.145 26.596,20.107 
		27.064,21.703 25.537,20.783 24.04,21.749 24.543,20.094 	"/>
</g>
<g id="Ebene_3">
	<path fill="#FFFFFF" d="M0.902,18.266"/>
	<g>
		<path fill="#FFFFFF" d="M3.258,13.646c0,0,0.557-0.032,0.972-0.428c0,0,0.703-0.415,1.553-0.028
			c0.245,0.141,0.481,0.289,0.815,0.345c0.176,0.057,0.891,0.228,1.513-0.07c0.365-0.159,1.409-0.929,2.733-0.031
			c0.176,0.102,1.162,0.372,2-0.014c0.459-0.241,1.166-0.744,2.314-0.088c0.271,0.172,0.526,0.244,0.526,0.244l0.087,0.098"/>
		<rect x="3.265" y="13.61" fill="#FFFFFF" width="12.502" height="1.958"/>
		<path fill="#131819" d="M3.258,15.598c0,0,0.559-0.031,0.972-0.429c0,0,0.703-0.413,1.553-0.026
			c0.245,0.141,0.482,0.288,0.815,0.343c0.176,0.057,0.891,0.228,1.513-0.071c0.365-0.157,1.409-0.928,2.733-0.029
			c0.176,0.1,1.161,0.371,2-0.015c0.459-0.243,1.166-0.744,2.314-0.087c0.271,0.172,0.529,0.243,0.529,0.243l0.14,0.091"/>
	</g>
	<g>
		<path fill="#FFFFFF" d="M3.258,16.955c0,0,0.557-0.031,0.972-0.427c0,0,0.703-0.412,1.553-0.028
			c0.245,0.142,0.481,0.291,0.815,0.344c0.176,0.056,0.891,0.229,1.513-0.071c0.365-0.158,1.409-0.928,2.733-0.031
			c0.176,0.102,1.162,0.372,2-0.012c0.459-0.244,1.166-0.746,2.314-0.089c0.271,0.171,0.526,0.244,0.526,0.244l0.073,0.074"/>
		<rect x="3.265" y="16.921" fill="#FFFFFF" width="12.502" height="1.955"/>
		<path fill="#131819" d="M3.258,18.908c0,0,0.559-0.032,0.972-0.43c0,0,0.703-0.412,1.553-0.028
			c0.245,0.146,0.482,0.291,0.815,0.346c0.176,0.058,0.891,0.229,1.513-0.069c0.365-0.156,1.409-0.93,2.733-0.026
			c0.176,0.097,1.161,0.368,2-0.019c0.459-0.24,1.166-0.744,2.314-0.086c0.271,0.172,0.529,0.243,0.529,0.243l0.098,0.067"/>
	</g>
	<g>
		<path fill="#FFFFFF" d="M3.258,19.954c0,0,0.557-0.033,0.972-0.435c0,0,0.703-0.412,1.553-0.024
			c0.245,0.144,0.481,0.288,0.815,0.347c0.176,0.055,0.891,0.227,1.513-0.074c0.365-0.153,1.409-0.926,2.733-0.022
			c0.176,0.098,1.162,0.366,2-0.019c0.459-0.242,1.166-0.744,2.314-0.088c0.271,0.172,0.526,0.241,0.526,0.241l0.087,0.099"/>
		<rect x="3.265" y="19.917" fill="#FFFFFF" width="12.502" height="1.958"/>
		<path fill="#131819" d="M3.258,21.904c0,0,0.559-0.03,0.972-0.428c0,0,0.703-0.41,1.553-0.029
			c0.245,0.144,0.482,0.287,0.815,0.346c0.176,0.059,0.891,0.227,1.513-0.072c0.365-0.156,1.409-0.928,2.733-0.027
			c0.176,0.101,1.161,0.369,2-0.012c0.459-0.246,1.166-0.746,2.314-0.091c0.271,0.173,0.529,0.242,0.529,0.242l0.154,0.075"/>
	</g>
	<rect x="2.723" y="21.881" fill="#131819" width="13.191" height="0.539"/>
	<rect x="2.723" y="18.88" fill="#131819" width="13.23" height="0.274"/>
	<rect x="2.723" y="15.594" fill="#131819" width="13.12" height="0.458"/>
</g>
<path id="border" fill="#CCCCCC" d="M17.5,1C26.6,1,34,8.402,34,17.5C34,26.6,26.6,34,17.5,34C8.402,34,1,26.6,1,17.5
	C1,8.402,8.402,1,17.5,1 M17.5,0C7.835,0,0,7.835,0,17.5S7.835,35,17.5,35S35,27.165,35,17.5S27.165,0,17.5,0L17.5,0z"/>
</svg>
