<?xml version="1.0" encoding="UTF-8" standalone="no"?>
<svg width="61px" height="22px" viewBox="0 0 61 22" version="1.1" xmlns="http://www.w3.org/2000/svg" xmlns:xlink="http://www.w3.org/1999/xlink" xmlns:sketch="http://www.bohemiancoding.com/sketch/ns">
    <!-- Generator: Sketch 3.3.3 (12072) - http://www.bohemiancoding.com/sketch -->
    <title>atom-auto-kombi-selected</title>
    <desc>Created with Sketch.</desc>
    <defs>
        <rect id="path-1" x="0" y="0" width="100" height="44"></rect>
    </defs>
    <g id="Page-1" stroke="none" stroke-width="1" fill="none" fill-rule="evenodd" sketch:type="MSPage">
        <g id="52-Auto-Icons" sketch:type="MSArtboardGroup" transform="translate(-439.500000, -159.000000)">
            <g id="atom-auto-kombi-selected" sketch:type="MSLayerGroup" transform="translate(422.000000, 140.000000)">
                <mask id="mask-2" sketch:name="Mask" fill="white">
                    <use xlink:href="#path-1"></use>
                </mask>
                <use id="Mask" sketch:type="MSShapeGroup" xlink:href="#path-1"></use>
                <g mask="url(#mask-2)" id="_x2014_ÎÓÈ_1">
                    <g transform="translate(18.000000, -367.000000)">
                        <g transform="translate(0.000000, 386.000000)">
                            <g id="Group" fill="#A6A39C" sketch:type="MSShapeGroup">
                                <path d="M18.3,7 L18.6,7 C18.8,5.1 19.1,3 19.3,1.8 L19.1,1.8 C18.9,3.2 18.5,5.3 18.3,7 L18.3,7 Z" id="Shape"></path>
                                <path d="M12.9,11.5 C10.3,11.5 8.1,13.6 8.1,16.3 C8.1,18.9 10.2,21.1 12.9,21.1 C15.5,21.1 17.7,19 17.7,16.3 C17.6,13.6 15.5,11.5 12.9,11.5 L12.9,11.5 Z M12.9,19.8 C10.9,19.8 9.4,18.2 9.4,16.3 C9.4,14.3 11,12.8 12.9,12.8 C14.8,12.8 16.4,14.4 16.4,16.3 C16.4,18.2 14.8,19.8 12.9,19.8 L12.9,19.8 Z" id="Shape"></path>
                                <path d="M49.6,11.4 C47,11.4 44.8,13.5 44.8,16.2 C44.8,18.8 46.9,21 49.6,21 C52.3,21 54.4,18.9 54.4,16.2 C54.4,13.5 52.2,11.4 49.6,11.4 L49.6,11.4 Z M49.6,19.7 C47.7,19.7 46.1,18.1 46.1,16.2 C46.1,14.3 47.7,12.7 49.6,12.7 C51.5,12.7 53.1,14.3 53.1,16.2 C53.1,18.1 51.5,19.7 49.6,19.7 L49.6,19.7 Z" id="Shape"></path>
                                <path d="M60,15.4 C59.7,12.2 59,10.3 57.7,9.8 C55,8.8 51.1,7.8 45.9,7 C45.2,7.2 45.1,7.2 44.7,6.8 C42.2,5.4 39.9,4.1 37.7,3 C35.6,1.9 34.2,1.5 31.8,1.2 C27.3,0.7 13.1,0.6 6.1,1.5 C4.6,1.6 1.6,6.3 1.6,7 C1.3,8.3 1.1,9.7 1.1,12.1 C0.7,12.2 0.3,12.1 0.2,12.4 C1.42039158e-14,12.8 1.42039158e-14,13.7 0.2,15 C0.4,16.3 0.3,16.4 1.5,16.8 C2.7,17.2 3.5,17.3 5.6,17.8 C7,18 7.8,18.1 7.8,16 C7.8,13.7 9.3,11 12.9,10.9 C16.6,10.8 18,14.1 18,16 C18,17 17.8,18.5 18.9,18.5 C25.6,18.4 33.3,18.4 44.2,18.6 C44.1,17.7 44.2,18.2 44.3,16 C44.5,13.8 45.9,10.8 49.5,10.9 C53,10.9 54.7,13.6 54.7,16 C54.6,18.4 54.7,18.1 54.7,19 C55.3,19 58.4,18.8 59,18.4 C59.8,17.5 60.1,16.4 60,15.4 L60,15.4 Z M4,6.2 C5,3.9 5.7,2.7 6.2,2.4 C10.3,2.1 13.5,1.9 15.6,2 C14.7,4 14,5.5 13.5,6.7 C10,6.5 6.9,6.4 4,6.2 L4,6.2 Z M15,6.8 C15.6,5.5 16.8,2.2 17.1,2.1 C17.5,1.9 18.9,1.7 20.6,1.7 L26.7,1.7 L26.3,1.7 C26.6,4 26.8,5.7 27,7.3 C27.4,7.3 27.9,7.3 28.4,7.4 C28.2,5.7 27.8,3.8 27.3,1.9 C29.4,2 31.2,2.2 32.6,2.5 C34.8,3 38.1,4.7 42.6,7.9 C31.9,7.7 24.1,7.3 15,6.8 L15,6.8 Z" id="Shape"></path>
                            </g>
                        </g>
                    </g>
                </g>
            </g>
        </g>
    </g>
</svg>