<?xml version="1.0" encoding="UTF-8" standalone="no"?>
<svg width="61px" height="21px" viewBox="0 0 61 21" version="1.1" xmlns="http://www.w3.org/2000/svg" xmlns:xlink="http://www.w3.org/1999/xlink" xmlns:sketch="http://www.bohemiancoding.com/sketch/ns">
    <!-- Generator: Sketch 3.3.3 (12072) - http://www.bohemiancoding.com/sketch -->
    <title>atom-auto-limo-selected</title>
    <desc>Created with Sketch.</desc>
    <defs></defs>
    <g id="Page-1" stroke="none" stroke-width="1" fill="none" fill-rule="evenodd" sketch:type="MSPage">
        <g id="52-Auto-Icons" sketch:type="MSArtboardGroup" transform="translate(-720.500000, -160.000000)" fill="#A6A39C">
            <g id="atom-auto-limo-selected" sketch:type="MSLayerGroup" transform="translate(720.000000, 160.000000)">
                <g id="Group" sketch:type="MSShapeGroup">
                    <path d="M14.6,10.8 C12.1,10.8 10,12.8 10,15.4 C10,18 12,20 14.6,20 C17.1,20 19.2,18 19.2,15.4 C19.2,12.8 17.1,10.8 14.6,10.8 L14.6,10.8 Z M14.6,18.8 C12.7,18.8 11.2,17.3 11.2,15.4 C11.2,13.5 12.7,12 14.6,12 C16.5,12 18,13.5 18,15.4 C18,17.3 16.5,18.8 14.6,18.8 L14.6,18.8 Z" id="Shape"></path>
                    <path d="M50.8,10.9 C48.3,10.9 46.2,12.9 46.2,15.5 C46.2,18.1 48.2,20.1 50.8,20.1 C53.3,20.1 55.4,18.1 55.4,15.5 C55.4,12.9 53.3,10.9 50.8,10.9 L50.8,10.9 Z M50.8,18.8 C48.9,18.8 47.4,17.3 47.4,15.4 C47.4,13.5 48.9,12 50.8,12 C52.7,12 54.2,13.5 54.2,15.4 C54.2,17.3 52.7,18.8 50.8,18.8 L50.8,18.8 Z" id="Shape"></path>
                    <path d="M61,14.7 C60.9,14.1 61,13.5 60.9,13 C60.8,11 60.3,9.7 59.4,9.3 C56.8,8.3 52.2,7.4 47.2,6.6 C46.5,6.8 46.5,6.8 46,6.4 C43.7,5 41.4,3.8 39.3,2.7 C37.3,1.7 35.9,1.3 33.6,1 C29.4,0.5 20,0.7 18,1.3 C16.5,1.6 13.4,3.4 9.4,5.4 C6.3,5.6 2.5,5.8 2.5,6.5 C2.3,7.8 2.1,9.1 2,11.4 C1.6,11.5 1.3,11.4 1.1,11.7 C0.9,12.1 0.9,13 1.1,14.2 C1.3,15.4 1.2,15.5 2.4,15.9 C3.6,16.3 5.6,16.4 7.6,16.9 C8.9,17.1 9.7,17.2 9.7,15.2 C9.7,13 11.1,10.4 14.6,10.3 C18.1,10.2 19.5,13.3 19.5,15.2 C19.5,16.2 19.3,17.6 20.4,17.6 C26.8,17.5 35.3,17.5 45.7,17.7 C45.6,16.9 45.7,17.3 45.8,15.2 C45.9,13.1 47.4,10.3 50.8,10.3 C54.2,10.3 55.8,12.9 55.8,15.2 C55.7,17.5 55.8,17.2 55.8,18 C56.4,18 59.3,17.8 59.9,17.4 C60.6,16.7 61.1,15.7 61,14.7 L61,14.7 Z M17.6,6.5 C17.2,6.5 17.2,5 17.5,4.8 C18.9,3.6 20.2,2.7 21.5,2.3 C21.3,3.6 21.1,5 20.9,6.6 L21.1,6.6 L21.6,2.2 C21.9,2.1 22.2,2.1 22.6,2 C24.8,1.8 27,1.8 29,1.8 C29.3,3.7 29.5,5.4 29.7,7 C30.1,7 30.5,7 31.1,7.1 C30.9,5.5 30.5,3.7 30,1.9 C31.8,1.9 33.4,2.1 34.6,2.3 C36.7,2.7 39.9,4.4 44.2,7.5 C34.7,7.3 25.7,7 17.6,6.5 L17.6,6.5 Z" id="Shape"></path>
                </g>
            </g>
        </g>
    </g>
</svg>