<?xml version="1.0" encoding="UTF-8" standalone="no"?>
<svg width="61px" height="23px" viewBox="0 0 61 23" version="1.1" xmlns="http://www.w3.org/2000/svg" xmlns:xlink="http://www.w3.org/1999/xlink" xmlns:sketch="http://www.bohemiancoding.com/sketch/ns">
    <!-- Generator: Sketch 3.3.3 (12072) - http://www.bohemiancoding.com/sketch -->
    <title>atom-auto-coupe-selected</title>
    <desc>Created with Sketch.</desc>
    <defs>
        <rect id="path-1" x="0" y="0" width="85" height="43"></rect>
    </defs>
    <g id="Page-1" stroke="none" stroke-width="1" fill="none" fill-rule="evenodd" sketch:type="MSPage">
        <g id="52-Auto-Icons" sketch:type="MSArtboardGroup" transform="translate(-160.500000, -158.000000)">
            <g id="atom-auto-coupe-selected" sketch:type="MSLayerGroup" transform="translate(150.000000, 147.000000)">
                <mask id="mask-2" sketch:name="Mask" fill="white">
                    <use xlink:href="#path-1"></use>
                </mask>
                <use id="Mask" sketch:type="MSShapeGroup" xlink:href="#path-1"></use>
                <g mask="url(#mask-2)" id="_x2014_ÎÓÈ_1">
                    <g transform="translate(10.000000, -374.000000)">
                        <g transform="translate(0.000000, 385.000000)">
                            <g id="Group" fill="#A6A39C" sketch:type="MSShapeGroup">
                                <path d="M11.6,12.7 C8.8,12.7 6.5,15 6.5,17.8 C6.5,20.6 8.8,22.9 11.6,22.9 C14.4,22.9 16.7,20.6 16.7,17.8 C16.7,15 14.4,12.7 11.6,12.7 L11.6,12.7 Z" id="Shape"></path>
                                <path d="M50.2,13 C47.5,13 45.3,15.2 45.3,17.9 C45.3,20.6 47.5,22.8 50.2,22.8 C52.9,22.8 55.1,20.6 55.1,17.9 C55.1,15.2 52.9,13 50.2,13 L50.2,13 Z" id="Shape"></path>
                                <path d="M61,15.8 C60.9,14.8 60.3,15.1 60.1,14.4 C59.7,12.4 59,11.2 58,10.8 C54.7,9.5 51.5,8.9 44,7.5 C41.3,5.9 39.2,4.2 36.7,2.9 C34.4,1.7 34,1.5 31.3,1.2 C26.4,0.6 21.5,0.6 15.8,1.3 C12.7,1.8 10.3,3 5.1,6.2 C1.5,6.5 1.2,6.4 2.3,7.1 C2,8.6 1.6,10.9 1.5,13.5 C1.3,13.6 6.3,14 6.2,14.1 C6.1,14.2 1.1,13.7 1.1,13.9 C0.9,15.2 0.9,16.5 1.3,17.2 C1.9,18.2 3.1,18.4 4.4,18.7 C5.9,18.9 5.8,20.2 5.8,17.9 C5.8,15.3 7.4,12.3 11.5,12.2 C15.6,12.1 17.2,15.7 17.2,17.9 C17.2,19 16.9,20.7 18.2,20.7 C25.6,20.6 32.1,20.6 44.2,20.8 C44.1,19.8 44.2,20.4 44.4,17.9 C44.6,15.4 46.2,12.1 50.2,12.2 C53.2,12.2 55,14 55.7,16 C55.7,16.1 60.5,16.4 60.5,16.5 C60.5,16.6 55.7,16.3 55.8,16.3 C55.9,16.7 56,17.4 56,17.9 C55.9,20.6 55.8,20.3 55.8,21.2 C56.5,21.2 58.7,21 59.4,20.6 C60.2,19.3 61.1,16.9 61,15.8 L61,15.8 Z M13.6,7.6 C13.2,7.6 12.9,6.3 13.4,5.9 C15.4,4.1 18.1,2.3 20.1,2.2 C21.1,2.1 22.1,2.1 23,2 C23.3,4.1 23.4,6.3 23.6,8.1 C20,7.9 16.6,7.7 13.6,7.6 L13.6,7.6 Z M25.2,8.1 C25,6.2 24.7,4 24.2,1.9 C27.6,1.8 30.1,2.1 32.4,2.5 C34.9,3 37.6,5 42.6,8.5 C36.5,8.5 30.6,8.3 25.2,8.1 L25.2,8.1 Z" id="Shape"></path>
                            </g>
                        </g>
                    </g>
                </g>
            </g>
        </g>
    </g>
</svg>