<?xml version="1.0" encoding="UTF-8" standalone="no"?>
<svg width="61px" height="26px" viewBox="0 0 61 26" version="1.1" xmlns="http://www.w3.org/2000/svg" xmlns:xlink="http://www.w3.org/1999/xlink" xmlns:sketch="http://www.bohemiancoding.com/sketch/ns">
    <!-- Generator: Sketch 3.3.3 (12072) - http://www.bohemiancoding.com/sketch -->
    <title>atom-auto-suv-selected</title>
    <desc>Created with Sketch.</desc>
    <defs>
        <rect id="path-1" x="0" y="0" width="80" height="47"></rect>
    </defs>
    <g id="Page-1" stroke="none" stroke-width="1" fill="none" fill-rule="evenodd" sketch:type="MSPage">
        <g id="52-Auto-Icons" sketch:type="MSArtboardGroup" transform="translate(-721.500000, -294.000000)">
            <g id="atom-auto-suv-selected" sketch:type="MSLayerGroup" transform="translate(715.000000, 278.000000)">
                <mask id="mask-2" sketch:name="Mask" fill="white">
                    <use xlink:href="#path-1"></use>
                </mask>
                <use id="Mask" sketch:type="MSShapeGroup" xlink:href="#path-1"></use>
                <g mask="url(#mask-2)" id="_x2014_ÎÓÈ_1">
                    <g transform="translate(7.000000, -367.000000)">
                        <g transform="translate(0.000000, 383.000000)">
                            <g id="Group" fill="#A6A39C" sketch:type="MSShapeGroup">
                                <path d="M50.4,14.6 C47.3,14.6 44.7,17.2 44.7,20.3 C44.7,23.4 47.3,26 50.4,26 C53.5,26 56.1,23.5 56.1,20.3 C56.1,17.2 53.6,14.6 50.4,14.6 L50.4,14.6 Z M50.4,24.5 C48.1,24.5 46.2,22.6 46.2,20.3 C46.2,18 48.1,16.1 50.4,16.1 C52.7,16.1 54.6,18 54.6,20.3 C54.7,22.6 52.8,24.5 50.4,24.5 L50.4,24.5 Z" id="Shape"></path>
                                <path d="M13.6,14.5 C10.5,14.5 7.9,17 7.9,20.2 C7.9,23.3 10.4,25.9 13.6,25.9 C16.7,25.9 19.3,23.3 19.3,20.2 C19.3,17.1 16.7,14.5 13.6,14.5 L13.6,14.5 Z M13.6,24.4 C11.3,24.4 9.4,22.5 9.4,20.2 C9.4,17.9 11.3,16 13.6,16 C15.9,16 17.8,17.9 17.8,20.2 C17.8,22.5 15.9,24.4 13.6,24.4 L13.6,24.4 Z" id="Shape"></path>
                                <path d="M59.9,16.9 C59.8,16.6 59.6,16 59.5,15.7 C59.1,14.1 58.6,11.9 57.9,11.5 C55.2,10.5 50.6,9.6 46,9.1 C44.7,8.9 44.3,8.8 43.8,8.4 C43.7,8.3 40,4.9 37.8,3.8 C36,2.9 34.6,2.7 33,2.6 C32.8,2.6 31.8,1.5 31.5,1.5 C31.3,1.5 27.6,1.2 27.4,1.2 C21.2,1 14.7,0.8 8.6,1.3 C8.1,1.3 7.3,2.6 7.2,2.7 C5.8,3.1 4.6,6.4 3.3,8.8 C3.3,9 3.2,9.2 3.2,9.4 L3.2,7.8 C3.2,7.4 2.8,6.9 2.4,6.9 L0.7,6.9 C0.3,6.9 5.68434189e-14,7.4 5.68434189e-14,7.8 L5.68434189e-14,15.3 C5.68434189e-14,15.7 0.3,16.1 0.7,16.1 L1.6,16.1 C1.6,16.9 1.7,17.6 1.8,18.4 C2,19.7 1.8,20.1 3,20.5 C4.2,20.9 3.4,20.7 5.5,21.1 C6.9,21.3 7.6,21.4 7.6,19.3 C7.6,17 7.7,13.5 13.6,13.4 C19.5,13.3 19.7,17.3 19.7,19.3 C19.7,20.3 19.5,21.8 20.6,21.8 C27.3,21.7 32.8,21.7 43.7,21.9 C44,21 44.1,21.4 44.3,19.2 C44.5,17 45.3,13.9 50.5,13.8 C55.8,13.7 56.5,16.6 56.6,18.5 C56.8,20.4 56.5,20.6 56.4,21.5 C57,21.5 58.2,21.3 58.9,21 C59.9,19.7 60.2,18.6 59.9,16.9 L59.9,16.9 Z M30.8,1.8 C31.1,2 31.3,2.2 31.4,2.5 C28.1,2.3 24.8,2.2 21.2,2.2 L21.2,1.5 C24.3,1.5 27.7,1.6 30.8,1.8 L30.8,1.8 Z M9,1.6 C12.8,1.5 16.4,1.4 20,1.4 L20,2.1 C16.4,2.1 12.6,2.2 8.7,2.4 C8.8,2.2 8.9,1.9 9,1.6 L9,1.6 Z M16.2,8.7 C13.8,8.6 9.5,8.6 6.5,8.5 C7.3,6.9 7.5,4.6 8.7,3.5 C12.3,3.2 16.4,3.3 17.4,3.3 C17,5 16.6,7.7 16.2,8.7 L16.2,8.7 Z M17.9,8.7 C18.5,7.1 18.9,3.3 19.2,3.3 C21.6,3.3 25.4,3.3 28.8,3.5 C29.1,5.4 29,7.6 29.2,9.2 C25.7,9.1 22.5,9 17.9,8.7 L17.9,8.7 Z M30.7,9.2 C30.5,7.5 30.4,5.4 30,3.5 C32.2,3.6 34.1,3.8 35.1,4 C37.3,4.5 39,6.5 42.7,9.9 C37.5,9.6 33.8,9.4 30.7,9.2 L30.7,9.2 Z" id="Shape"></path>
                            </g>
                        </g>
                    </g>
                </g>
            </g>
        </g>
    </g>
</svg>