<?xml version="1.0" encoding="UTF-8" standalone="no"?>
<svg width="60px" height="27px" viewBox="0 0 60 27" version="1.1" xmlns="http://www.w3.org/2000/svg" xmlns:xlink="http://www.w3.org/1999/xlink" xmlns:sketch="http://www.bohemiancoding.com/sketch/ns">
    <!-- Generator: Sketch 3.3.3 (12072) - http://www.bohemiancoding.com/sketch -->
    <title>atom-auto-van-selected</title>
    <desc>Created with Sketch.</desc>
    <defs>
        <rect id="path-1" x="0" y="0" width="67" height="35"></rect>
    </defs>
    <g id="Page-1" stroke="none" stroke-width="1" fill="none" fill-rule="evenodd" sketch:type="MSPage">
        <g id="52-Auto-Icons" sketch:type="MSArtboardGroup" transform="translate(-160.500000, -434.000000)">
            <g id="atom-auto-van-selected" sketch:type="MSLayerGroup" transform="translate(156.000000, 428.000000)">
                <mask id="mask-2" sketch:name="Mask" fill="white">
                    <use xlink:href="#path-1"></use>
                </mask>
                <use id="Mask" sketch:type="MSShapeGroup" xlink:href="#path-1"></use>
                <g mask="url(#mask-2)" id="_x2014_ÎÓÈ_1">
                    <g transform="translate(4.000000, -378.000000)">
                        <g transform="translate(0.000000, 384.000000)">
                            <g id="Group" fill="#A6A39C" sketch:type="MSShapeGroup">
                                <path d="M51.6,16.4 C48.8,16.4 46.6,18.7 46.6,21.4 C46.6,24.2 48.9,26.4 51.6,26.4 C54.4,26.4 56.6,24.1 56.6,21.4 C56.6,18.7 54.4,16.4 51.6,16.4 L51.6,16.4 Z M51.6,24.7 C49.8,24.7 48.4,23.3 48.4,21.5 C48.4,19.7 49.8,18.3 51.6,18.3 C53.4,18.3 54.8,19.7 54.8,21.5 C54.8,23.2 53.4,24.7 51.6,24.7 L51.6,24.7 Z" id="Shape"></path>
                                <path d="M14.1,16.4 C11.3,16.4 9.1,18.7 9.1,21.4 C9.1,24.2 11.4,26.4 14.1,26.4 C16.9,26.4 19.1,24.1 19.1,21.4 C19.1,18.7 16.9,16.4 14.1,16.4 L14.1,16.4 Z M14.1,24.7 C12.3,24.7 10.9,23.3 10.9,21.5 C10.9,19.7 12.3,18.3 14.1,18.3 C15.9,18.3 17.3,19.7 17.3,21.5 C17.3,23.2 15.9,24.7 14.1,24.7 L14.1,24.7 Z" id="Shape"></path>
                                <path d="M60.5,18.4 C60.5,17.6 59.8,17.3 59.7,17 C59.3,14.5 58.9,13.3 58.5,12.9 C56.5,10.2 51.4,6.4 48.7,3.8 C46.9,2 45.3,0.9 42.5,0.7 C37.5,0.2 7.2,0.5 4.8,0.4 C3.7,0.4 3.4,0.5 3.2,1 C2.4,3.3 2,7.3 1.5,9.5 C1.4,10.2 1.3,12.8 1.4,15.3 C1.4,15.7 0.5,15.7 0.5,16 C0.6,18 0.3,20.1 1.8,20.1 C2.7,20.1 2.1,21.3 2.7,21.4 C3.3,21.4 4.4,21.7 7.1,22.1 C7.3,22.1 7.4,22.2 7.6,22.2 C9.2,22.5 8.5,16.2 14.2,16.2 C19.5,16.1 19.7,22.3 19.7,22.3 L20.7,22.3 C24.7,22.4 42.9,22.4 45.8,22.5 C46.3,18.4 47.9,16.1 52,16.1 C55.1,16.3 56.7,18.4 57.1,21.5 C57.2,22.8 57.2,23.2 57.2,22.7 C58.8,22.7 59.4,22.4 59.9,21.4 C60.3,20.8 60.6,19.5 60.5,18.4 L60.5,18.4 Z M20.4,8.9 L5.1,8.9 C4.7,8.9 4.3,8.5 4.3,8 L5,2.7 C5.1,2.3 5.3,2 5.8,2 L20.4,2 C20.8,2 21.2,2.2 21.2,2.7 L21.3,8.1 C21.2,8.5 20.9,8.9 20.4,8.9 L20.4,8.9 Z M35.2,8.9 L23.2,8.9 C22.8,8.9 22.4,8.5 22.4,8 L22.3,2.7 C22.3,2.3 22.6,2 23.1,2 L35.1,2 C35.5,2 35.9,2.2 35.9,2.7 L36,8.1 C36,8.5 35.6,8.9 35.2,8.9 L35.2,8.9 Z M49.8,9.6 C46.8,9.4 44,9.4 39.1,8.8 C39,7.4 38.9,5.2 38.8,3.2 C38.7,2.1 39,2.2 40,2.2 C41.4,2.2 42.1,2.3 43,2.4 C45.9,2.7 46.8,3.6 48.7,5.6 C49.2,6.1 49.7,6.8 50.1,7.3 C50.4,7.6 50.2,9.6 49.8,9.6 L49.8,9.6 Z" id="Shape"></path>
                            </g>
                        </g>
                    </g>
                </g>
            </g>
        </g>
    </g>
</svg>