<?xml version="1.0" encoding="UTF-8" standalone="no"?>
<svg width="61px" height="21px" viewBox="0 0 61 21" version="1.1" xmlns="http://www.w3.org/2000/svg" xmlns:xlink="http://www.w3.org/1999/xlink" xmlns:sketch="http://www.bohemiancoding.com/sketch/ns">
    <!-- Generator: Sketch 3.3.3 (12072) - http://www.bohemiancoding.com/sketch -->
    <title>atom-auto-sport-selected</title>
    <desc>Created with Sketch.</desc>
    <defs>
        <rect id="path-1" x="0" y="0" width="88" height="38"></rect>
    </defs>
    <g id="Page-1" stroke="none" stroke-width="1" fill="none" fill-rule="evenodd" sketch:type="MSPage">
        <g id="52-Auto-Icons" sketch:type="MSArtboardGroup" transform="translate(-440.500000, -299.000000)">
            <g id="atom-auto-sport-selected" sketch:type="MSLayerGroup" transform="translate(425.000000, 286.750000)">
                <mask id="mask-2" sketch:name="Mask" fill="white">
                    <use xlink:href="#path-1"></use>
                </mask>
                <use id="Mask" sketch:type="MSShapeGroup" xlink:href="#path-1"></use>
                <g mask="url(#mask-2)" id="_x2014_ÎÓÈ_1">
                    <g transform="translate(16.000000, -374.000000)">
                        <g transform="translate(0.000000, 386.000000)">
                            <g id="Group" fill="#A6A39C" sketch:type="MSShapeGroup">
                                <path d="M14.4,11.4 C11.7,11.4 9.6,13.6 9.6,16.2 C9.6,18.9 11.8,21 14.4,21 C17.1,21 19.2,18.8 19.2,16.2 C19.2,13.5 17,11.4 14.4,11.4 L14.4,11.4 Z M14.4,19.8 C12.4,19.8 10.8,18.2 10.8,16.2 C10.8,14.2 12.4,12.6 14.4,12.6 C16.4,12.6 18,14.2 18,16.2 C17.9,18.2 16.3,19.8 14.4,19.8 L14.4,19.8 Z" id="Shape"></path>
                                <path d="M48,11.2 C45.3,11.2 43.2,13.4 43.2,16 C43.2,18.7 45.4,20.8 48,20.8 C50.7,20.8 52.8,18.6 52.8,16 C52.8,13.4 50.6,11.2 48,11.2 L48,11.2 Z M48,19.6 C46,19.6 44.4,18 44.4,16 C44.4,14 46,12.4 48,12.4 C50,12.4 51.6,14 51.6,16 C51.5,18 49.9,19.6 48,19.6 L48,19.6 Z" id="Shape"></path>
                                <path d="M60,15.3 C59.9,14.6 59.6,13.7 59.5,13.2 C59.3,11.9 58,11 57,10.6 C54.3,9.5 50.5,8 45.2,7.1 C44.5,7.3 43.5,6.9 43,6.6 C40.5,5.2 38.1,3.9 35.9,2.7 C33.9,1.7 32.5,1.2 31.4,0.9 C31.4,1 31.1,2.1 31.2,2.1 C33.1,2.7 36.5,4.4 41.1,7.6 C34.7,7.5 29.4,6.9 23.5,6.6 C22.9,6.6 22.5,4.7 21.9,4.7 C21.8,4.7 22.1,3 21.9,2.4 C21.8,2.1 21,1.5 20.1,2.4 C19.7,2.8 19.9,4.6 19.8,4.7 C19.6,4.7 20,4.9 19.9,5 C19.6,5.6 20.2,6.5 19.9,6.5 C15.1,6.3 13.8,5.5 9,5.6 C5.8,5.8 1.7,6.1 1.7,6.8 C1.6,7.1 2.3,7.5 2.2,7.8 C2,8.9 1.2,10.1 1.2,11.9 C-0.4,12.3 2.66453526e-14,13.4 0.3,14.9 C0.5,16.2 0.4,16.3 1.6,16.7 C2.8,17.1 5,17.2 7.1,17.7 C8.5,17.9 9.3,18 9.3,15.9 C9.3,13.6 10.8,10.8 14.5,10.7 C18.2,10.6 19.7,13.9 19.7,15.9 C19.7,16.9 19.4,18.4 20.6,18.5 C27.3,18.4 31.6,18.4 42.6,18.6 C42.5,17.7 42.6,18.2 42.7,15.9 C42.9,13.6 44.3,10.7 47.9,10.7 C51.5,10.7 53.2,13.4 53.1,15.9 C53,18.4 53.1,18 53.1,18.9 C53.7,18.9 58.1,18.7 58.7,18.3 C59.5,17.4 60.1,16.3 60,15.3 L60,15.3 Z M2.7,7.6 C3.4,7.5 5.8,7.6 6.1,7.9 C6.6,8.7 4,8.8 3,9.8 C3,9.9 0.8,10.6 2.7,7.6 L2.7,7.6 Z" id="Shape"></path>
                            </g>
                        </g>
                    </g>
                </g>
            </g>
        </g>
    </g>
</svg>