<?xml version="1.0" encoding="UTF-8" standalone="no"?>
<svg width="62px" height="21px" viewBox="0 0 62 21" version="1.1" xmlns="http://www.w3.org/2000/svg" xmlns:xlink="http://www.w3.org/1999/xlink" xmlns:sketch="http://www.bohemiancoding.com/sketch/ns">
    <!-- Generator: Sketch 3.3.3 (12072) - http://www.bohemiancoding.com/sketch -->
    <title>ico-auto-limo copy 3</title>
    <desc>Created with Sketch.</desc>
    <defs></defs>
    <g id="Page-1" stroke="none" stroke-width="1" fill="none" fill-rule="evenodd" sketch:type="MSPage">
        <g id="52-Auto-Icons" sketch:type="MSArtboardGroup" transform="translate(-601.500000, -160.000000)" stroke="#A5A5A5">
            <g id="ico-auto-limo-copy-3" sketch:type="MSLayerGroup" transform="translate(602.000000, 160.000000)">
                <g id="Group" sketch:type="MSShapeGroup">
                    <path d="M14.158,10.564 C11.636,10.564 9.591,12.609 9.591,15.131 C9.591,17.653 11.636,19.698 14.158,19.698 C16.68,19.698 18.725,17.653 18.725,15.131 C18.725,12.609 16.68,10.564 14.158,10.564 L14.158,10.564 Z M14.158,18.515 C12.289,18.515 10.773,16.999 10.773,15.131 C10.773,13.261 12.289,11.746 14.158,11.746 C16.027,11.746 17.543,13.261 17.543,15.131 C17.543,16.999 16.027,18.515 14.158,18.515 L14.158,18.515 Z" id="Shape"></path>
                    <path d="M50.344,10.61 C47.823,10.61 45.777,12.655 45.777,15.177 C45.777,17.698 47.823,19.744 50.344,19.744 C52.866,19.744 54.911,17.698 54.911,15.177 C54.911,12.655 52.865,10.61 50.344,10.61 L50.344,10.61 Z M50.344,18.562 C48.476,18.562 46.959,17.046 46.959,15.177 C46.959,13.308 48.476,11.792 50.344,11.792 C52.213,11.792 53.729,13.308 53.729,15.177 C53.728,17.047 52.212,18.562 50.344,18.562 L50.344,18.562 Z" id="Shape"></path>
                    <path d="M60.518,14.445 C60.462,13.824 60.495,13.252 60.457,12.734 C60.307,10.7 59.89,9.465 58.958,9.069 C56.369,8.073 51.763,7.177 46.785,6.381 C46.115,6.591 46.051,6.534 45.62,6.211 C43.271,4.848 41.013,3.647 38.909,2.552 C36.92,1.517 35.51,1.113 33.248,0.856 C29.043,0.378 19.693,0.547 17.604,1.204 C16.078,1.499 13.036,3.268 8.992,5.343 C5.937,5.575 2.062,5.78 2.056,6.451 C1.811,7.726 1.622,9.073 1.568,11.326 C1.164,11.423 0.834,11.353 0.703,11.602 C0.484,12.02 0.487,12.894 0.67,14.139 C0.853,15.388 0.741,15.482 1.921,15.864 C3.094,16.242 5.102,16.372 7.096,16.838 C8.422,17.02 9.19,17.136 9.19,15.155 C9.19,12.935 10.584,10.33 14.105,10.24 C17.626,10.15 19.02,13.27 19.02,15.155 C19.02,16.145 18.782,17.559 19.897,17.581 C26.271,17.456 34.77,17.48 45.173,17.668 C45.052,16.835 45.164,17.298 45.314,15.147 C45.464,12.996 46.876,10.203 50.266,10.232 C53.658,10.262 55.276,12.821 55.219,15.147 C55.16,17.472 55.208,17.177 55.192,17.987 C55.788,17.973 58.716,17.783 59.331,17.431 C60.1,16.437 60.643,15.44 60.518,14.445 L60.518,14.445 Z M17.087,6.282 C16.711,6.261 16.666,4.824 16.953,4.589 C18.364,3.434 19.612,2.486 20.972,2.059 C20.799,3.344 20.598,4.779 20.38,6.37 C20.455,6.37 20.528,6.37 20.624,6.381 L21.168,2 C21.487,1.913 21.812,1.854 22.148,1.828 C24.367,1.661 26.546,1.579 28.517,1.595 C28.796,3.49 29.017,5.212 29.21,6.761 C29.605,6.761 30.058,6.761 30.598,6.819 C30.377,5.179 30.023,3.443 29.535,1.612 C31.355,1.661 32.953,1.802 34.169,2.052 C36.28,2.5 39.459,4.185 43.767,7.235 C34.277,7.079 25.248,6.734 17.087,6.282 L17.087,6.282 Z" id="Shape"></path>
                </g>
            </g>
        </g>
    </g>
</svg>