<?xml version="1.0" encoding="UTF-8" standalone="no"?>
<svg width="62px" height="23px" viewBox="0 0 62 23" version="1.1" xmlns="http://www.w3.org/2000/svg" xmlns:xlink="http://www.w3.org/1999/xlink" xmlns:sketch="http://www.bohemiancoding.com/sketch/ns">
    <!-- Generator: Sketch 3.3.3 (12072) - http://www.bohemiancoding.com/sketch -->
    <title>ico-auto-kombi copy 3</title>
    <desc>Created with Sketch.</desc>
    <defs></defs>
    <g id="Page-1" stroke="none" stroke-width="1" fill="none" fill-rule="evenodd" sketch:type="MSPage">
        <g id="52-Auto-Icons" sketch:type="MSArtboardGroup" transform="translate(-322.500000, -158.000000)">
            <g id="ico-auto-kombi-copy-3" sketch:type="MSLayerGroup" transform="translate(288.000000, 146.500000)">
                <g id="Layer_1_1_"></g>
                <g id="_x2014_ÎÓÈ_1" transform="translate(35.000000, 12.000000)" sketch:type="MSShapeGroup" stroke="#A5A5A5">
                    <g id="Group">
                        <path d="M18.411,7.057 C18.488,7.057 18.565,7.057 18.665,7.068 C18.873,5.13 19.16,3.083 19.338,1.917 C19.22,1.925 19.16,1.93 19.141,1.932 C18.957,3.306 18.645,5.344 18.411,7.057 L18.411,7.057 Z" id="Shape"></path>
                        <path d="M12.98,11.546 C10.348,11.546 8.213,13.681 8.213,16.314 C8.213,18.947 10.348,21.081 12.98,21.081 C15.612,21.081 17.748,18.947 17.748,16.314 C17.748,13.681 15.612,11.546 12.98,11.546 L12.98,11.546 Z M12.98,19.846 C11.03,19.846 9.447,18.264 9.447,16.314 C9.447,14.363 11.03,12.781 12.98,12.781 C14.93,12.781 16.513,14.363 16.513,16.314 C16.513,18.264 14.931,19.846 12.98,19.846 L12.98,19.846 Z" id="Shape"></path>
                        <path d="M49.689,11.483 C47.057,11.483 44.921,13.618 44.921,16.251 C44.921,18.884 47.057,21.019 49.689,21.019 C52.322,21.019 54.458,18.884 54.458,16.251 C54.458,13.618 52.322,11.483 49.689,11.483 L49.689,11.483 Z M49.689,19.784 C47.739,19.784 46.156,18.201 46.156,16.251 C46.156,14.301 47.739,12.718 49.689,12.718 C51.639,12.718 53.222,14.301 53.222,16.251 C53.222,18.201 51.64,19.784 49.689,19.784 L49.689,19.784 Z" id="Shape"></path>
                        <path d="M60.081,15.486 C59.796,12.291 59.042,10.395 57.821,9.876 C55.12,8.836 51.171,7.901 45.974,7.07 C45.276,7.289 45.207,7.23 44.758,6.892 C42.306,5.47 39.948,4.215 37.753,3.072 C35.677,1.992 34.205,1.57 31.844,1.302 C27.351,0.792 13.107,0.688 6.157,1.644 C4.698,1.792 1.701,6.441 1.694,7.143 C1.439,8.475 1.241,9.88 1.185,12.23 C0.764,12.331 0.418,12.258 0.282,12.519 C0.053,12.956 0.056,13.867 0.247,15.167 C0.437,16.47 0.32,16.568 1.554,16.967 C2.778,17.362 3.564,17.497 5.646,17.983 C7.029,18.174 7.831,18.294 7.831,16.227 C7.831,13.909 9.286,11.192 12.961,11.097 C16.636,11.003 18.091,14.259 18.091,16.227 C18.091,17.26 17.843,18.737 19.006,18.759 C25.66,18.629 33.428,18.654 44.288,18.849 C44.161,17.981 44.28,18.464 44.435,16.217 C44.59,13.972 46.064,11.057 49.604,11.088 C53.144,11.119 54.833,13.79 54.774,16.217 C54.713,18.645 54.763,18.337 54.746,19.181 C55.368,19.167 58.426,18.969 59.066,18.603 C59.873,17.564 60.21,16.526 60.081,15.486 L60.081,15.486 Z M4.123,6.285 C5.084,3.999 5.864,2.764 6.344,2.466 C10.488,2.129 13.618,1.998 15.697,2.037 C14.84,3.998 14.138,5.57 13.593,6.713 C10.15,6.596 6.994,6.454 4.123,6.285 L4.123,6.285 Z M15.143,6.878 C15.705,5.541 16.983,2.273 17.258,2.143 C17.659,1.952 19.019,1.782 20.714,1.778 C22.999,1.772 25.036,1.763 26.842,1.763 L26.406,1.763 C26.698,4.067 26.929,5.751 27.13,7.371 C27.543,7.371 28.016,7.418 28.579,7.478 C28.348,5.767 27.977,3.868 27.469,1.956 C29.571,2.053 31.342,2.238 32.802,2.539 C35.006,3.006 38.323,4.771 42.821,7.955 C32.023,7.777 24.249,7.413 15.143,6.878 L15.143,6.878 Z" id="Shape"></path>
                    </g>
                </g>
            </g>
        </g>
    </g>
</svg>