<?xml version="1.0" encoding="UTF-8" standalone="no"?>
<svg width="62px" height="25px" viewBox="0 0 62 25" version="1.1" xmlns="http://www.w3.org/2000/svg" xmlns:xlink="http://www.w3.org/1999/xlink" xmlns:sketch="http://www.bohemiancoding.com/sketch/ns">
    <!-- Generator: Sketch 3.3.3 (12072) - http://www.bohemiancoding.com/sketch -->
    <title>ico-auto-coupe copy 3</title>
    <desc>Created with Sketch.</desc>
    <defs></defs>
    <g id="Page-1" stroke="none" stroke-width="1" fill="none" fill-rule="evenodd" sketch:type="MSPage">
        <g id="52-Auto-Icons" sketch:type="MSArtboardGroup" transform="translate(-41.500000, -156.000000)">
            <g id="ico-auto-coupe-copy-3" sketch:type="MSLayerGroup" transform="translate(14.000000, 145.500000)">
                <g id="Layer_1_1_"></g>
                <g id="_x2014_ÎÓÈ_1" transform="translate(28.000000, 11.000000)" sketch:type="MSShapeGroup" stroke="#A5A5A5">
                    <g id="Group">
                        <path d="M10.92,12.835 C8.083,12.835 5.78,15.136 5.78,17.976 C5.78,20.818 8.083,23.116 10.92,23.116 C13.758,23.116 16.061,20.818 16.061,17.976 C16.06,15.136 13.758,12.835 10.92,12.835 L10.92,12.835 Z" id="Shape"></path>
                        <path d="M49.607,13.083 C46.911,13.083 44.722,15.269 44.722,17.965 C44.722,20.66 46.91,22.851 49.607,22.851 C52.302,22.851 54.488,20.661 54.488,17.965 C54.488,15.269 52.302,13.083 49.607,13.083 L49.607,13.083 Z" id="Shape"></path>
                        <path d="M60.344,15.878 C60.256,14.875 59.595,15.221 59.424,14.449 C58.985,12.479 58.276,11.267 57.294,10.851 C53.947,9.563 50.818,8.905 43.271,7.524 C40.533,5.937 38.445,4.242 35.996,2.965 C33.68,1.76 33.264,1.585 30.632,1.286 C25.735,0.73 20.807,0.734 15.114,1.39 C12.001,1.85 9.582,3.059 4.443,6.251 C0.886,6.521 0.574,6.422 1.67,7.151 C1.385,8.637 0.935,10.915 0.872,13.538 C0.637,13.596 5.659,14.041 5.594,14.182 C5.53,14.317 0.529,13.785 0.505,13.945 C0.319,15.215 0.256,16.593 0.672,17.268 C1.279,18.254 2.488,18.454 3.732,18.744 C5.275,18.954 5.116,20.242 5.116,17.941 C5.116,15.353 6.741,12.319 10.84,12.214 C14.939,12.109 16.565,15.742 16.565,17.941 C16.565,19.091 16.286,20.739 17.586,20.761 C25.009,20.616 31.466,20.644 43.582,20.865 C43.442,19.893 43.574,20.433 43.748,17.929 C43.921,15.424 45.566,12.169 49.514,12.203 C52.538,12.23 54.352,13.983 55.007,16.019 C55.045,16.139 59.813,16.411 59.843,16.534 C59.862,16.604 55.087,16.305 55.103,16.377 C55.193,16.815 55.291,17.49 55.282,17.929 C55.216,20.635 55.127,20.292 55.108,21.232 C55.802,21.221 57.975,20.996 58.69,20.586 C59.583,19.43 60.491,17.037 60.344,15.878 L60.344,15.878 Z M12.916,7.707 C12.537,7.687 12.26,6.39 12.728,5.974 C14.721,4.195 17.416,2.409 19.422,2.258 C20.439,2.182 21.386,2.127 22.282,2.091 C22.585,4.223 22.687,6.407 22.901,8.161 C19.315,8.016 15.956,7.858 12.916,7.707 L12.916,7.707 Z M24.514,8.225 C24.264,6.355 24.014,4.134 23.468,2.053 C26.841,1.979 29.397,2.207 31.7,2.681 C34.159,3.202 36.927,5.164 41.942,8.716 C35.851,8.616 29.944,8.436 24.514,8.225 L24.514,8.225 Z" id="Shape"></path>
                    </g>
                </g>
            </g>
        </g>
    </g>
</svg>