<?xml version="1.0" encoding="UTF-8" standalone="no"?>
<svg width="62px" height="22px" viewBox="0 0 62 22" version="1.1" xmlns="http://www.w3.org/2000/svg" xmlns:xlink="http://www.w3.org/1999/xlink" xmlns:sketch="http://www.bohemiancoding.com/sketch/ns">
    <!-- Generator: Sketch 3.3.3 (12072) - http://www.bohemiancoding.com/sketch -->
    <title>ico-auto-sport copy 3</title>
    <desc>Created with Sketch.</desc>
    <defs></defs>
    <g id="Page-1" stroke="none" stroke-width="1" fill="none" fill-rule="evenodd" sketch:type="MSPage">
        <g id="52-Auto-Icons" sketch:type="MSArtboardGroup" transform="translate(-320.500000, -298.000000)">
            <g id="ico-auto-sport-copy-3" sketch:type="MSLayerGroup" transform="translate(283.000000, 286.500000)">
                <g id="Layer_1_1_"></g>
                <g id="_x2014_ÎÓÈ_1" transform="translate(38.000000, 12.000000)" sketch:type="MSShapeGroup" stroke="#A5A5A5">
                    <g id="Group">
                        <path d="M15.046,11.323 C12.382,11.323 10.223,13.483 10.223,16.146 C10.223,18.809 12.383,20.968 15.046,20.968 C17.709,20.968 19.869,18.809 19.869,16.146 C19.869,13.483 17.709,11.323 15.046,11.323 L15.046,11.323 Z M15.046,19.72 C13.072,19.72 11.471,18.118 11.471,16.146 C11.471,14.172 13.072,12.572 15.046,12.572 C17.019,12.572 18.62,14.173 18.62,16.146 C18.621,18.118 17.02,19.72 15.046,19.72 L15.046,19.72 Z" id="Shape"></path>
                        <path d="M48.655,11.184 C45.992,11.184 43.832,13.344 43.832,16.007 C43.832,18.67 45.992,20.829 48.655,20.829 C51.317,20.829 53.477,18.67 53.477,16.007 C53.477,13.344 51.317,11.184 48.655,11.184 L48.655,11.184 Z M48.654,19.581 C46.68,19.581 45.081,17.98 45.081,16.007 C45.081,14.034 46.681,12.433 48.654,12.433 C50.627,12.433 52.228,14.034 52.228,16.007 C52.228,17.98 50.628,19.581 48.654,19.581 L48.654,19.581 Z" id="Shape"></path>
                        <path d="M60.672,15.234 C60.613,14.578 60.223,13.634 60.138,13.092 C59.926,11.749 58.601,10.914 57.617,10.495 C54.884,9.444 51.118,7.881 45.861,7.04 C45.155,7.262 44.12,6.88 43.666,6.539 C41.185,5.101 38.801,3.831 36.579,2.675 C34.582,1.634 33.22,1.155 32.068,0.924 C32.041,1.034 31.78,2.137 31.821,2.147 C33.759,2.787 37.157,4.399 41.707,7.62 C35.288,7.515 29.983,6.877 24.077,6.63 C23.445,6.604 23.103,4.764 22.477,4.737 C22.361,4.732 22.662,3.051 22.517,2.417 C22.452,2.133 21.621,1.532 20.761,2.391 C20.33,2.821 20.538,4.623 20.444,4.644 C20.243,4.689 20.649,4.83 20.567,4.982 C20.257,5.56 20.824,6.485 20.543,6.472 C15.778,6.253 14.47,5.456 9.687,5.62 C6.46,5.865 2.369,6.08 2.362,6.79 C2.299,7.127 2.934,7.468 2.878,7.828 C2.71,8.908 1.89,10.154 1.847,11.937 C0.297,12.31 0.679,13.416 0.898,14.91 C1.09,16.228 0.973,16.327 2.219,16.73 C3.457,17.129 5.577,17.267 7.684,17.758 C9.083,17.95 9.894,18.072 9.894,15.982 C9.894,13.636 11.366,10.886 15.083,10.792 C18.801,10.698 20.273,13.992 20.273,15.982 C20.273,17.028 20.022,18.52 21.2,18.543 C27.93,18.411 32.206,18.438 43.193,18.635 C43.065,17.757 43.184,18.245 43.342,15.973 C43.498,13.702 44.989,10.752 48.571,10.783 C52.152,10.814 53.86,13.518 53.8,15.973 C53.738,18.428 53.788,18.118 53.772,18.971 C54.401,18.957 58.767,18.756 59.416,18.385 C60.229,17.336 60.803,16.284 60.672,15.234 L60.672,15.234 Z M3.426,7.573 C4.148,7.517 6.512,7.602 6.814,7.826 C7.276,8.603 4.761,8.751 3.691,9.703 C3.69,9.881 1.486,10.593 3.426,7.573 L3.426,7.573 Z" id="Shape"></path>
                    </g>
                </g>
            </g>
        </g>
    </g>
</svg>