<?xml version="1.0" encoding="UTF-8" standalone="no"?>
<svg width="62px" height="27px" viewBox="0 0 62 27" version="1.1" xmlns="http://www.w3.org/2000/svg" xmlns:xlink="http://www.w3.org/1999/xlink" xmlns:sketch="http://www.bohemiancoding.com/sketch/ns">
    <!-- Generator: Sketch 3.3.3 (12072) - http://www.bohemiancoding.com/sketch -->
    <title>ico-auto-suv copy 3</title>
    <desc>Created with Sketch.</desc>
    <defs></defs>
    <g id="Page-1" stroke="none" stroke-width="1" fill="none" fill-rule="evenodd" sketch:type="MSPage">
        <g id="52-Auto-Icons" sketch:type="MSArtboardGroup" transform="translate(-601.500000, -294.000000)">
            <g id="ico-auto-suv-copy-3" sketch:type="MSLayerGroup" transform="translate(557.000000, 276.000000)">
                <g id="Layer_1_1_"></g>
                <g id="_x2014_ÎÓÈ_1" transform="translate(45.000000, 18.000000)" sketch:type="MSShapeGroup" stroke="#A5A5A5">
                    <g id="Group">
                        <path d="M50.75,14.382 C47.606,14.382 45.057,16.932 45.057,20.075 C45.057,23.218 47.607,25.768 50.75,25.768 C53.893,25.768 56.442,23.218 56.442,20.075 C56.442,16.93 53.894,14.382 50.75,14.382 L50.75,14.382 Z M50.75,24.294 C48.42,24.294 46.531,22.404 46.531,20.075 C46.531,17.746 48.42,15.856 50.75,15.856 C53.079,15.856 54.968,17.746 54.968,20.075 C54.969,22.403 53.079,24.294 50.75,24.294 L50.75,24.294 Z" id="Shape"></path>
                        <path d="M13.888,14.278 C10.744,14.278 8.195,16.827 8.195,19.97 C8.195,23.113 10.744,25.663 13.888,25.663 C17.031,25.663 19.581,23.113 19.581,19.97 C19.581,16.827 17.031,14.278 13.888,14.278 L13.888,14.278 Z M13.888,24.189 C11.558,24.189 9.669,22.299 9.669,19.97 C9.669,17.641 11.558,15.752 13.888,15.752 C16.217,15.752 18.106,17.641 18.106,19.97 C18.106,22.299 16.217,24.189 13.888,24.189 L13.888,24.189 Z" id="Shape"></path>
                        <path d="M60.216,16.648 C60.163,16.314 59.87,15.762 59.796,15.458 C59.4,13.811 58.94,11.624 58.16,11.291 C55.456,10.251 50.865,9.397 46.287,8.938 C44.946,8.752 44.566,8.605 44.116,8.268 C44.024,8.194 40.283,4.781 38.085,3.637 C36.268,2.691 34.895,2.519 33.329,2.388 C33.178,2.376 32.115,1.307 31.821,1.273 C31.606,1.249 27.958,0.998 27.698,0.99 C21.539,0.806 15.01,0.636 8.855,1.054 C8.348,1.088 7.602,2.375 7.459,2.418 C6.027,2.852 4.885,6.073 3.569,8.564 C3.535,8.744 3.499,8.933 3.499,9.129 L3.499,7.506 C3.499,7.107 3.107,6.652 2.707,6.652 L0.972,6.652 C0.573,6.652 0.305,7.107 0.305,7.506 L0.305,15.042 C0.305,15.44 0.573,15.832 0.972,15.832 L1.84,15.832 C1.838,16.631 1.91,17.352 2.02,18.102 C2.211,19.406 2.032,19.791 3.266,20.19 C4.491,20.586 3.636,20.35 5.72,20.836 C7.105,21.027 7.833,21.144 7.833,19.074 C7.833,16.754 7.947,13.309 13.862,13.216 C19.776,13.122 19.933,17.16 19.933,19.13 C19.933,20.165 19.684,21.641 20.85,21.663 C27.51,21.533 33.033,21.559 43.904,21.755 C44.182,20.885 44.331,21.273 44.487,19.025 C44.642,16.777 45.449,13.716 50.707,13.652 C55.965,13.588 56.664,16.449 56.853,18.348 C57.042,20.247 56.718,20.469 56.701,21.315 C57.324,21.3 58.513,21.157 59.155,20.792 C60.185,19.463 60.479,18.327 60.216,16.648 L60.216,16.648 Z M31.062,1.553 C31.374,1.781 31.54,1.992 31.649,2.244 C28.37,2.036 25.055,1.929 21.462,1.915 L21.462,1.247 C24.655,1.286 28.005,1.388 31.062,1.553 L31.062,1.553 Z M9.259,1.387 C13.064,1.258 16.673,1.211 20.265,1.234 L20.265,1.912 C16.672,1.922 12.869,2.03 8.999,2.244 C9.078,1.972 9.164,1.69 9.259,1.387 L9.259,1.387 Z M16.537,8.503 C14.18,8.399 9.789,8.362 6.878,8.259 C7.727,6.699 7.922,4.404 9.083,3.243 C12.722,2.966 16.758,3.077 17.746,3.059 C17.319,4.762 16.935,7.429 16.537,8.503 L16.537,8.503 Z M18.25,8.51 C18.894,6.86 19.216,3.093 19.555,3.091 C21.962,3.074 25.784,3.138 29.166,3.302 C29.437,5.226 29.349,7.374 29.533,8.962 C25.993,8.837 22.806,8.777 18.25,8.51 L18.25,8.51 Z M30.979,9.015 C30.764,7.35 30.713,5.212 30.245,3.358 C32.413,3.481 34.299,3.648 35.357,3.865 C37.562,4.333 39.242,6.344 42.933,9.8 C37.766,9.345 34.154,9.142 30.979,9.015 L30.979,9.015 Z" id="Shape"></path>
                    </g>
                </g>
            </g>
        </g>
    </g>
</svg>