<?xml version="1.0" encoding="UTF-8" standalone="no"?>
<svg width="62px" height="34px" viewBox="0 0 62 34" version="1.1" xmlns="http://www.w3.org/2000/svg" xmlns:xlink="http://www.w3.org/1999/xlink" xmlns:sketch="http://www.bohemiancoding.com/sketch/ns">
    <!-- Generator: Sketch 3.3.3 (12072) - http://www.bohemiancoding.com/sketch -->
    <title>ico-auto-sonstige copy 3</title>
    <desc>Created with Sketch.</desc>
    <defs></defs>
    <g id="Page-1" stroke="none" stroke-width="1" fill="none" fill-rule="evenodd" sketch:type="MSPage">
        <g id="52-Auto-Icons" sketch:type="MSArtboardGroup" transform="translate(-40.500000, -287.000000)">
            <g id="ico-auto-sonstige-copy-3" sketch:type="MSLayerGroup" transform="translate(-1.000000, 264.500000)">
                <g id="Layer_1_1_"></g>
                <g id="_x2014_ÎÓÈ_1" transform="translate(42.000000, 23.000000)" sketch:type="MSShapeGroup" stroke="#A5A5A5">
                    <g id="Group">
                        <path d="M52.313,23.122 C49.65,23.122 47.49,25.282 47.49,27.944 C47.49,30.607 49.65,32.767 52.313,32.767 C54.976,32.767 57.136,30.607 57.136,27.944 C57.136,25.282 54.976,23.122 52.313,23.122 L52.313,23.122 Z M52.313,31.017 C50.617,31.017 49.241,29.642 49.241,27.945 C49.241,26.249 50.617,24.873 52.313,24.873 C54.01,24.873 55.385,26.249 55.385,27.945 C55.385,29.642 54.01,31.017 52.313,31.017 L52.313,31.017 Z" id="Shape"></path>
                        <path d="M60.912,24.521 C60.89,23.78 60.212,23.491 60.163,23.147 C59.82,20.737 59.377,19.63 58.967,19.216 C58.386,18.416 56.205,16.928 54.345,15.897 C53.094,14.24 51.214,12.057 49.588,10.445 C47.873,8.745 46.825,7.969 44.203,7.675 C42.928,7.531 41.383,7.434 39.132,7.377 C37.328,7.332 37.307,7.517 37.298,9.639 C37.28,13.857 37.222,19.597 37.186,23.3 L35.894,23.3 L35.894,22.477 L36.306,22.477 L36.306,0.262 L0.928,0.262 L0.928,22.475 L2.574,22.475 L2.574,23.298 L2.574,24.944 L2.574,27.412 L3.808,27.412 L3.808,24.944 L12.627,24.944 C11.955,25.766 11.551,26.811 11.551,27.961 C11.551,30.624 13.711,32.775 16.374,32.775 C19.037,32.775 21.196,30.628 21.196,27.964 C21.196,26.815 20.793,25.766 20.121,24.943 L24.122,24.943 C24.092,24.943 23.964,25.074 23.964,25.164 L23.964,27.191 C23.964,27.585 24.395,27.822 24.789,27.822 L35.165,27.822 C35.559,27.822 35.894,27.585 35.894,27.191 L35.894,25.164 C35.894,25.074 35.862,24.943 35.832,24.943 L37.172,24.943 C37.156,26.589 37.151,27.942 37.165,27.944 C39.208,27.996 43.861,28.264 46.833,28.347 C47.336,24.384 48.882,22.175 52.827,22.232 C55.76,22.459 57.375,24.463 57.767,27.402 C57.816,28.623 57.816,29.01 57.816,28.589 C59.393,28.599 59.897,28.279 60.429,27.305 C60.705,26.801 61,25.495 60.912,24.521 L60.912,24.521 Z M35.072,23.299 L25.61,23.299 L25.61,22.476 L35.071,22.476 L35.071,23.299 L35.072,23.299 Z M16.149,23.131 C15.737,23.143 15.527,23.299 15.205,23.299 L6.688,23.299 L6.688,22.476 L16.149,22.476 L16.149,23.131 L16.149,23.131 Z M17.383,23.194 L17.383,22.475 L24.788,22.475 L24.788,23.298 L17.545,23.298 C17.426,23.299 17.383,23.216 17.383,23.194 L17.383,23.194 Z M3.808,22.476 L5.454,22.476 L5.454,23.299 L3.808,23.299 L3.808,22.476 L3.808,22.476 Z M19.447,27.961 C19.447,29.658 18.072,31.024 16.375,31.024 C14.679,31.024 13.303,29.662 13.303,27.964 C13.303,26.427 14.435,24.943 15.91,24.943 L16.841,24.943 C18.315,24.944 19.447,26.424 19.447,27.961 L19.447,27.961 Z M50.669,16.009 C47.791,15.833 45.075,15.793 40.44,15.291 C40.339,13.928 40.265,11.846 40.154,9.947 C40.093,8.914 40.308,8.946 41.29,8.967 C42.664,8.997 43.296,9.083 44.131,9.177 C46.942,9.493 47.722,10.444 49.536,12.365 C50.012,12.869 50.26,13.371 50.612,13.817 C50.877,14.154 51.041,16.032 50.669,16.009 L50.669,16.009 Z" id="Shape"></path>
                    </g>
                </g>
            </g>
        </g>
    </g>
</svg>