<svg id="Layer_1" xmlns="http://www.w3.org/2000/svg" viewBox="0 0 1274 1067.1"><style>.st1{fill:#4c4c4c}</style><path d="M884.9 98.2L529.5 2.9C483.6-9.4 435.9 18.1 423.6 64l-95.2 355.4c-12.2 45.6 15.1 92.9 60.7 105.1L491.3 552c-6.5-10.7-11.4-22.9-14.4-36.5-3.8-17-5.7-36.6-5.7-58.3V181.1c0-4.2 3.1-7.8 7.2-8.5l73.7-12.2c.5-.1.9-.1 1.4-.1 2 0 4 .7 5.6 2.1 1.9 1.6 3.1 4.1 3.1 6.6v87.6H667c4.8 0 8.7 3.9 8.7 8.7v61.6c0 4.8-3.9 8.7-8.7 8.7H562.2v121.2c0 23.6 3.5 40.3 10.5 49.7 6.5 8.7 17.7 13 34.5 13 12.6 0 23.8-1.3 33.4-4 9.9-2.7 17.9-5.3 23.8-7.6 1-.4 2.1-.6 3.2-.6 1.4 0 2.8.3 4.1 1 2.3 1.2 3.9 3.4 4.4 5.9l12.2 58.5c.8 4-1.3 8.1-5.1 9.7-8.8 3.8-20.5 7.7-34.6 11.7-.2.1-.4.1-.6.2l97.1 26c45.6 12.2 92.9-15.1 105.1-60.7l95.4-356c12.2-45.9-15.1-93.2-60.7-105.4z" fill="#ed2c28"/><path class="st1" d="M131 1011.7c-.3-1.6-1.4-3-2.8-3.7-.8-.4-1.7-.7-2.6-.7-.7 0-1.4.1-2.1.4-3.7 1.5-8.8 3.1-15.2 4.9-6.1 1.7-13.3 2.5-21.3 2.5-10.7 0-17.9-2.7-22.1-8.3-4.5-6-6.7-16.7-6.7-31.8v-77.5h67c3.1 0 5.5-2.5 5.5-5.5v-39.4c0-3.1-2.5-5.5-5.5-5.5h-67V791c0-1.6-.7-3.2-2-4.2-1-.9-2.3-1.3-3.6-1.3-.3 0-.6 0-.9.1l-47.2 7.8c-2.5.4-4.5 2.7-4.5 5.4v176.6c0 13.9 1.2 26.4 3.6 37.3 2.5 11.3 6.9 21.1 13.1 29.1 6.3 8.2 14.9 14.5 25.5 18.7 10.4 4.1 23.3 6.2 38.5 6.2 12.4 0 23.4-1.3 32.7-3.9 9-2.5 16.5-5 22.1-7.5 2.4-1 3.8-3.6 3.2-6.2l-7.7-37.4z"/><path class="st1" d="M131 1011.7c-.3-1.6-1.4-3-2.8-3.7-.8-.4-1.7-.7-2.6-.7-.7 0-1.4.1-2.1.4-3.7 1.5-8.8 3.1-15.2 4.9-6.1 1.7-13.3 2.5-21.3 2.5-10.7 0-17.9-2.7-22.1-8.3-4.5-6-6.7-16.7-6.7-31.8v-77.5h67c3.1 0 5.5-2.5 5.5-5.5v-39.4c0-3.1-2.5-5.5-5.5-5.5h-67V791c0-1.6-.7-3.2-2-4.2-1-.9-2.3-1.3-3.6-1.3-.3 0-.6 0-.9.1l-47.2 7.8c-2.5.4-4.5 2.7-4.5 5.4v176.6c0 13.9 1.2 26.4 3.6 37.3 2.5 11.3 6.9 21.1 13.1 29.1 6.3 8.2 14.9 14.5 25.5 18.7 10.4 4.1 23.3 6.2 38.5 6.2 12.4 0 23.4-1.3 32.7-3.9 9-2.5 16.5-5 22.1-7.5 2.4-1 3.8-3.6 3.2-6.2l-7.7-37.4z"/><path class="st1" d="M131 1011.7c-.3-1.6-1.4-3-2.8-3.7-.8-.4-1.7-.7-2.6-.7-.7 0-1.4.1-2.1.4-3.7 1.5-8.8 3.1-15.2 4.9-6.1 1.7-13.3 2.5-21.3 2.5-10.7 0-17.9-2.7-22.1-8.3-4.5-6-6.7-16.7-6.7-31.8v-77.5h67c3.1 0 5.5-2.5 5.5-5.5v-39.4c0-3.1-2.5-5.5-5.5-5.5h-67V791c0-1.6-.7-3.2-2-4.2-1-.9-2.3-1.3-3.6-1.3-.3 0-.6 0-.9.1l-47.2 7.8c-2.5.4-4.5 2.7-4.5 5.4v176.6c0 13.9 1.2 26.4 3.6 37.3 2.5 11.3 6.9 21.1 13.1 29.1 6.3 8.2 14.9 14.5 25.5 18.7 10.4 4.1 23.3 6.2 38.5 6.2 12.4 0 23.4-1.3 32.7-3.9 9-2.5 16.5-5 22.1-7.5 2.4-1 3.8-3.6 3.2-6.2l-7.7-37.4zm210.8-164.6h-47.2c-3.1 0-5.5 2.5-5.5 5.5v160.3c-2.5.4-5.5.7-9.1 1-6.2.5-12.1.8-17.7.8-14 0-23.4-3.8-28.8-11.6-5.7-8.4-8.6-23.1-8.6-43.7V852.6c0-3.1-2.5-5.5-5.5-5.5h-47.2c-3.1 0-5.5 2.5-5.5 5.5v114.2c0 14.2 1.5 27.4 4.5 39.3 3 12.3 8.2 23 15.3 31.9 7.2 9 16.8 16.1 28.7 21.1 11.7 4.9 26.2 7.5 43.3 7.5 17.6 0 34.1-1.3 48.9-3.8 14.6-2.5 26.7-4.9 35.9-7.3 2.4-.6 4.2-2.8 4.2-5.4V852.6c-.2-3-2.7-5.5-5.7-5.5z"/><path class="st1" d="M341.8 847.1h-47.2c-3.1 0-5.5 2.5-5.5 5.5v160.3c-2.5.4-5.5.7-9.1 1-6.2.5-12.1.8-17.7.8-14 0-23.4-3.8-28.8-11.6-5.7-8.4-8.6-23.1-8.6-43.7V852.6c0-3.1-2.5-5.5-5.5-5.5h-47.2c-3.1 0-5.5 2.5-5.5 5.5v114.2c0 14.2 1.5 27.4 4.5 39.3 3 12.3 8.2 23 15.3 31.9 7.2 9 16.8 16.1 28.7 21.1 11.7 4.9 26.2 7.5 43.3 7.5 17.6 0 34.1-1.3 48.9-3.8 14.6-2.5 26.7-4.9 35.9-7.3 2.4-.6 4.2-2.8 4.2-5.4V852.6c-.2-3-2.7-5.5-5.7-5.5z"/><path class="st1" d="M341.8 847.1h-47.2c-3.1 0-5.5 2.5-5.5 5.5v160.3c-2.5.4-5.5.7-9.1 1-6.2.5-12.1.8-17.7.8-14 0-23.4-3.8-28.8-11.6-5.7-8.4-8.6-23.1-8.6-43.7V852.6c0-3.1-2.5-5.5-5.5-5.5h-47.2c-3.1 0-5.5 2.5-5.5 5.5v114.2c0 14.2 1.5 27.4 4.5 39.3 3 12.3 8.2 23 15.3 31.9 7.2 9 16.8 16.1 28.7 21.1 11.7 4.9 26.2 7.5 43.3 7.5 17.6 0 34.1-1.3 48.9-3.8 14.6-2.5 26.7-4.9 35.9-7.3 2.4-.6 4.2-2.8 4.2-5.4V852.6c-.2-3-2.7-5.5-5.7-5.5zm172.1 164.6c-.3-1.6-1.4-3-2.8-3.7-.8-.4-1.7-.7-2.6-.7-.7 0-1.4.1-2.1.4-3.7 1.5-8.8 3.1-15.2 4.9-6.1 1.7-13.3 2.5-21.3 2.5-10.7 0-17.9-2.7-22.1-8.3-4.5-6-6.7-16.7-6.7-31.8v-77.5h67c3.1 0 5.5-2.5 5.5-5.5v-39.4c0-3.1-2.5-5.5-5.5-5.5h-67V791c0-1.6-.7-3.2-2-4.2-1-.9-2.3-1.3-3.6-1.3-.3 0-.6 0-.9.1l-47.2 7.8c-2.7.4-4.6 2.8-4.6 5.5v176.6c0 13.9 1.2 26.4 3.6 37.3 2.5 11.3 6.9 21.1 13.1 29.1 6.3 8.2 14.9 14.5 25.5 18.7 10.4 4.1 23.3 6.2 38.5 6.2 12.4 0 23.4-1.3 32.7-3.9 9-2.5 16.5-5 22.1-7.5 2.4-1 3.8-3.6 3.2-6.2l-7.6-37.5z"/><path class="st1" d="M513.9 1011.7c-.3-1.6-1.4-3-2.8-3.7-.8-.4-1.7-.7-2.6-.7-.7 0-1.4.1-2.1.4-3.7 1.5-8.8 3.1-15.2 4.9-6.1 1.7-13.3 2.5-21.3 2.5-10.7 0-17.9-2.7-22.1-8.3-4.5-6-6.7-16.7-6.7-31.8v-77.5h67c3.1 0 5.5-2.5 5.5-5.5v-39.4c0-3.1-2.5-5.5-5.5-5.5h-67V791c0-1.6-.7-3.2-2-4.2-1-.9-2.3-1.3-3.6-1.3-.3 0-.6 0-.9.1l-47.2 7.8c-2.7.4-4.6 2.8-4.6 5.5v176.6c0 13.9 1.2 26.4 3.6 37.3 2.5 11.3 6.9 21.1 13.1 29.1 6.3 8.2 14.9 14.5 25.5 18.7 10.4 4.1 23.3 6.2 38.5 6.2 12.4 0 23.4-1.3 32.7-3.9 9-2.5 16.5-5 22.1-7.5 2.4-1 3.8-3.6 3.2-6.2l-7.6-37.5z"/><path class="st1" d="M513.9 1011.7c-.3-1.6-1.4-3-2.8-3.7-.8-.4-1.7-.7-2.6-.7-.7 0-1.4.1-2.1.4-3.7 1.5-8.8 3.1-15.2 4.9-6.1 1.7-13.3 2.5-21.3 2.5-10.7 0-17.9-2.7-22.1-8.3-4.5-6-6.7-16.7-6.7-31.8v-77.5h67c3.1 0 5.5-2.5 5.5-5.5v-39.4c0-3.1-2.5-5.5-5.5-5.5h-67V791c0-1.6-.7-3.2-2-4.2-1-.9-2.3-1.3-3.6-1.3-.3 0-.6 0-.9.1l-47.2 7.8c-2.7.4-4.6 2.8-4.6 5.5v176.6c0 13.9 1.2 26.4 3.6 37.3 2.5 11.3 6.9 21.1 13.1 29.1 6.3 8.2 14.9 14.5 25.5 18.7 10.4 4.1 23.3 6.2 38.5 6.2 12.4 0 23.4-1.3 32.7-3.9 9-2.5 16.5-5 22.1-7.5 2.4-1 3.8-3.6 3.2-6.2l-7.6-37.5zM678.7 1011.7c-.3-1.6-1.4-3-2.8-3.7-.8-.4-1.7-.7-2.6-.7-.7 0-1.4.1-2.1.4-3.7 1.5-8.8 3.1-15.2 4.9-6.1 1.7-13.3 2.5-21.3 2.5-10.7 0-17.9-2.7-22.1-8.3-4.5-6-6.7-16.7-6.7-31.8v-77.5h67c3.1 0 5.5-2.5 5.5-5.5v-39.4c0-3.1-2.5-5.5-5.5-5.5h-67V791c0-1.6-.7-3.2-2-4.2-1-.9-2.3-1.3-3.6-1.3-.3 0-.6 0-.9.1l-47.2 7.8c-2.7.4-4.6 2.8-4.6 5.5v176.6c0 13.9 1.2 26.4 3.6 37.3 2.5 11.3 6.9 21.1 13.1 29.1 6.3 8.2 14.9 14.5 25.5 18.7 10.4 4.1 23.3 6.2 38.5 6.2 12.4 0 23.4-1.3 32.7-3.9 9-2.5 16.5-5 22.1-7.5 2.4-1 3.8-3.6 3.2-6.2l-7.6-37.5z"/><path class="st1" d="M678.7 1011.7c-.3-1.6-1.4-3-2.8-3.7-.8-.4-1.7-.7-2.6-.7-.7 0-1.4.1-2.1.4-3.7 1.5-8.8 3.1-15.2 4.9-6.1 1.7-13.3 2.5-21.3 2.5-10.7 0-17.9-2.7-22.1-8.3-4.5-6-6.7-16.7-6.7-31.8v-77.5h67c3.1 0 5.5-2.5 5.5-5.5v-39.4c0-3.1-2.5-5.5-5.5-5.5h-67V791c0-1.6-.7-3.2-2-4.2-1-.9-2.3-1.3-3.6-1.3-.3 0-.6 0-.9.1l-47.2 7.8c-2.7.4-4.6 2.8-4.6 5.5v176.6c0 13.9 1.2 26.4 3.6 37.3 2.5 11.3 6.9 21.1 13.1 29.1 6.3 8.2 14.9 14.5 25.5 18.7 10.4 4.1 23.3 6.2 38.5 6.2 12.4 0 23.4-1.3 32.7-3.9 9-2.5 16.5-5 22.1-7.5 2.4-1 3.8-3.6 3.2-6.2l-7.6-37.5z"/><path class="st1" d="M678.7 1011.7c-.3-1.6-1.4-3-2.8-3.7-.8-.4-1.7-.7-2.6-.7-.7 0-1.4.1-2.1.4-3.7 1.5-8.8 3.1-15.2 4.9-6.1 1.7-13.3 2.5-21.3 2.5-10.7 0-17.9-2.7-22.1-8.3-4.5-6-6.7-16.7-6.7-31.8v-77.5h67c3.1 0 5.5-2.5 5.5-5.5v-39.4c0-3.1-2.5-5.5-5.5-5.5h-67V791c0-1.6-.7-3.2-2-4.2-1-.9-2.3-1.3-3.6-1.3-.3 0-.6 0-.9.1l-47.2 7.8c-2.7.4-4.6 2.8-4.6 5.5v176.6c0 13.9 1.2 26.4 3.6 37.3 2.5 11.3 6.9 21.1 13.1 29.1 6.3 8.2 14.9 14.5 25.5 18.7 10.4 4.1 23.3 6.2 38.5 6.2 12.4 0 23.4-1.3 32.7-3.9 9-2.5 16.5-5 22.1-7.5 2.4-1 3.8-3.6 3.2-6.2l-7.6-37.5zM742.2 758.2c-9.4 0-17.6 3.1-24.4 9.2-6.9 6.3-10.4 14.9-10.4 25.5 0 10.4 3.5 18.9 10.4 25.1 6.7 6.1 14.9 9.2 24.4 9.2 9.2 0 17.3-3.1 24-9.2 6.9-6.3 10.4-14.7 10.4-25.1 0-10.7-3.5-19.3-10.4-25.5-6.7-6.1-14.8-9.2-24-9.2z"/><path class="st1" d="M742.2 758.2c-9.4 0-17.6 3.1-24.4 9.2-6.9 6.3-10.4 14.9-10.4 25.5 0 10.4 3.5 18.9 10.4 25.1 6.7 6.1 14.9 9.2 24.4 9.2 9.2 0 17.3-3.1 24-9.2 6.9-6.3 10.4-14.7 10.4-25.1 0-10.7-3.5-19.3-10.4-25.5-6.7-6.1-14.8-9.2-24-9.2z"/><path class="st1" d="M742.2 758.2c-9.4 0-17.6 3.1-24.4 9.2-6.9 6.3-10.4 14.9-10.4 25.5 0 10.4 3.5 18.9 10.4 25.1 6.7 6.1 14.9 9.2 24.4 9.2 9.2 0 17.3-3.1 24-9.2 6.9-6.3 10.4-14.7 10.4-25.1 0-10.7-3.5-19.3-10.4-25.5-6.7-6.1-14.8-9.2-24-9.2zM766 847.1h-47.2c-3.1 0-5.5 2.5-5.5 5.5v203.9c0 3.1 2.5 5.5 5.5 5.5H766c3.1 0 5.5-2.5 5.5-5.5V852.6c.1-3-2.4-5.5-5.5-5.5z"/><path class="st1" d="M766 847.1h-47.2c-3.1 0-5.5 2.5-5.5 5.5v203.9c0 3.1 2.5 5.5 5.5 5.5H766c3.1 0 5.5-2.5 5.5-5.5V852.6c.1-3-2.4-5.5-5.5-5.5z"/><path class="st1" d="M766 847.1h-47.2c-3.1 0-5.5 2.5-5.5 5.5v203.9c0 3.1 2.5 5.5 5.5 5.5H766c3.1 0 5.5-2.5 5.5-5.5V852.6c.1-3-2.4-5.5-5.5-5.5z"/><g><path class="st1" d="M840.5 994.1c-10.3 0-19.1 3.5-26.1 10.3-7.1 6.9-10.6 15.8-10.6 26.4 0 10.6 3.6 19.5 10.7 26.2 7 6.7 15.8 10.1 26 10.1 10 0 18.7-3.4 25.8-10.1 7.2-6.8 10.9-15.6 10.9-26.3 0-10.6-3.7-19.5-10.9-26.4-7.1-6.8-15.8-10.2-25.8-10.2z"/><path class="st1" d="M840.5 994.1c-10.3 0-19.1 3.5-26.1 10.3-7.1 6.9-10.6 15.8-10.6 26.4 0 10.6 3.6 19.5 10.7 26.2 7 6.7 15.8 10.1 26 10.1 10 0 18.7-3.4 25.8-10.1 7.2-6.8 10.9-15.6 10.9-26.3 0-10.6-3.7-19.5-10.9-26.4-7.1-6.8-15.8-10.2-25.8-10.2z"/><path class="st1" d="M840.5 994.1c-10.3 0-19.1 3.5-26.1 10.3-7.1 6.9-10.6 15.8-10.6 26.4 0 10.6 3.6 19.5 10.7 26.2 7 6.7 15.8 10.1 26 10.1 10 0 18.7-3.4 25.8-10.1 7.2-6.8 10.9-15.6 10.9-26.3 0-10.6-3.7-19.5-10.9-26.4-7.1-6.8-15.8-10.2-25.8-10.2z"/></g><g><path class="st1" d="M1060.2 1012.5c-.3-1.6-1.3-3-2.7-3.8-.8-.5-1.7-.7-2.6-.7-.7 0-1.4.1-2.1.4-5.3 2.2-11.6 4-18.9 5.4-7.3 1.5-14.8 2.2-22.3 2.2-19.3 0-33.1-5.2-40.9-15.3-8.2-10.6-12.3-25.4-12.3-44 0-19.3 4.3-34.3 12.9-44.6 8.4-10.2 20.6-15.1 37.2-15.1 7.2 0 14.1.7 20.5 2.2 6.4 1.5 12.2 3.3 17.3 5.4.7.3 1.4.4 2.1.4.8 0 1.6-.2 2.4-.6 1.4-.7 2.5-2 2.9-3.5l10-37.9c.7-2.6-.7-5.4-3.2-6.4-17.4-7.1-36.2-10.7-55.7-10.7-16 0-30.7 2.9-43.6 8.5-12.9 5.6-24 13.6-33.1 23.6-9 9.9-16 21.8-20.8 35.4-4.8 13.4-7.2 28-7.2 43.4 0 15.6 2.1 30.2 6.4 43.6 4.3 13.6 10.9 25.5 19.7 35.3 8.8 9.9 20 17.7 33.4 23.3 13.3 5.5 29 8.3 46.7 8.3a172 172 0 0 0 33.1-3.2c10.9-2.2 19-4.6 24.6-7.4 2.1-1.1 3.3-3.4 2.9-5.8l-6.7-38.4z"/><path class="st1" d="M1060.2 1012.5c-.3-1.6-1.3-3-2.7-3.8-.8-.5-1.7-.7-2.6-.7-.7 0-1.4.1-2.1.4-5.3 2.2-11.6 4-18.9 5.4-7.3 1.5-14.8 2.2-22.3 2.2-19.3 0-33.1-5.2-40.9-15.3-8.2-10.6-12.3-25.4-12.3-44 0-19.3 4.3-34.3 12.9-44.6 8.4-10.2 20.6-15.1 37.2-15.1 7.2 0 14.1.7 20.5 2.2 6.4 1.5 12.2 3.3 17.3 5.4.7.3 1.4.4 2.1.4.8 0 1.6-.2 2.4-.6 1.4-.7 2.5-2 2.9-3.5l10-37.9c.7-2.6-.7-5.4-3.2-6.4-17.4-7.1-36.2-10.7-55.7-10.7-16 0-30.7 2.9-43.6 8.5-12.9 5.6-24 13.6-33.1 23.6-9 9.9-16 21.8-20.8 35.4-4.8 13.4-7.2 28-7.2 43.4 0 15.6 2.1 30.2 6.4 43.6 4.3 13.6 10.9 25.5 19.7 35.3 8.8 9.9 20 17.7 33.4 23.3 13.3 5.5 29 8.3 46.7 8.3a172 172 0 0 0 33.1-3.2c10.9-2.2 19-4.6 24.6-7.4 2.1-1.1 3.3-3.4 2.9-5.8l-6.7-38.4z"/><path class="st1" d="M1060.2 1012.5c-.3-1.6-1.3-3-2.7-3.8-.8-.5-1.7-.7-2.6-.7-.7 0-1.4.1-2.1.4-5.3 2.2-11.6 4-18.9 5.4-7.3 1.5-14.8 2.2-22.3 2.2-19.3 0-33.1-5.2-40.9-15.3-8.2-10.6-12.3-25.4-12.3-44 0-19.3 4.3-34.3 12.9-44.6 8.4-10.2 20.6-15.1 37.2-15.1 7.2 0 14.1.7 20.5 2.2 6.4 1.5 12.2 3.3 17.3 5.4.7.3 1.4.4 2.1.4.8 0 1.6-.2 2.4-.6 1.4-.7 2.5-2 2.9-3.5l10-37.9c.7-2.6-.7-5.4-3.2-6.4-17.4-7.1-36.2-10.7-55.7-10.7-16 0-30.7 2.9-43.6 8.5-12.9 5.6-24 13.6-33.1 23.6-9 9.9-16 21.8-20.8 35.4-4.8 13.4-7.2 28-7.2 43.4 0 15.6 2.1 30.2 6.4 43.6 4.3 13.6 10.9 25.5 19.7 35.3 8.8 9.9 20 17.7 33.4 23.3 13.3 5.5 29 8.3 46.7 8.3a172 172 0 0 0 33.1-3.2c10.9-2.2 19-4.6 24.6-7.4 2.1-1.1 3.3-3.4 2.9-5.8l-6.7-38.4z"/></g><g><path class="st1" d="M1269.8 905.2c-2.9-12-7.8-22.4-14.6-31.1-6.9-8.7-16.2-15.6-27.6-20.4-11.2-4.7-25.4-7.1-42.2-7.1-6.9 0-14 .7-21.1 2-4.1.8-7.9 1.6-11.4 2.6v-91.9c0-1.6-.7-3.1-1.9-4.1-1-.8-2.2-1.3-3.5-1.3-.3 0-.6 0-.9.1l-46.4 7.7c-2.6.4-4.6 2.7-4.6 5.4v289.7c0 3 2.4 5.4 5.4 5.4h46.4c3 0 5.4-2.4 5.4-5.4V901.4c2.6-.7 5.9-1.4 9.8-2.2 6-1.2 12-1.8 17.7-1.8 7.2 0 13.2 1 17.9 2.9 4.4 1.8 7.8 4.5 10.4 8.4 2.8 4.1 4.8 9.6 6.1 16.3 1.3 7.2 2 16.1 2 26.4v105.4c0 3 2.4 5.4 5.4 5.4h46.4c3 0 5.4-2.4 5.4-5.4V944c.1-14.1-1.3-27.2-4.1-38.8z"/><path class="st1" d="M1269.8 905.2c-2.9-12-7.8-22.4-14.6-31.1-6.9-8.7-16.2-15.6-27.6-20.4-11.2-4.7-25.4-7.1-42.2-7.1-6.9 0-14 .7-21.1 2-4.1.8-7.9 1.6-11.4 2.6v-91.9c0-1.6-.7-3.1-1.9-4.1-1-.8-2.2-1.3-3.5-1.3-.3 0-.6 0-.9.1l-46.4 7.7c-2.6.4-4.6 2.7-4.6 5.4v289.7c0 3 2.4 5.4 5.4 5.4h46.4c3 0 5.4-2.4 5.4-5.4V901.4c2.6-.7 5.9-1.4 9.8-2.2 6-1.2 12-1.8 17.7-1.8 7.2 0 13.2 1 17.9 2.9 4.4 1.8 7.8 4.5 10.4 8.4 2.8 4.1 4.8 9.6 6.1 16.3 1.3 7.2 2 16.1 2 26.4v105.4c0 3 2.4 5.4 5.4 5.4h46.4c3 0 5.4-2.4 5.4-5.4V944c.1-14.1-1.3-27.2-4.1-38.8z"/><path class="st1" d="M1269.8 905.2c-2.9-12-7.8-22.4-14.6-31.1-6.9-8.7-16.2-15.6-27.6-20.4-11.2-4.7-25.4-7.1-42.2-7.1-6.9 0-14 .7-21.1 2-4.1.8-7.9 1.6-11.4 2.6v-91.9c0-1.6-.7-3.1-1.9-4.1-1-.8-2.2-1.3-3.5-1.3-.3 0-.6 0-.9.1l-46.4 7.7c-2.6.4-4.6 2.7-4.6 5.4v289.7c0 3 2.4 5.4 5.4 5.4h46.4c3 0 5.4-2.4 5.4-5.4V901.4c2.6-.7 5.9-1.4 9.8-2.2 6-1.2 12-1.8 17.7-1.8 7.2 0 13.2 1 17.9 2.9 4.4 1.8 7.8 4.5 10.4 8.4 2.8 4.1 4.8 9.6 6.1 16.3 1.3 7.2 2 16.1 2 26.4v105.4c0 3 2.4 5.4 5.4 5.4h46.4c3 0 5.4-2.4 5.4-5.4V944c.1-14.1-1.3-27.2-4.1-38.8z"/></g><g><path class="st1" d="M131 1011.7c-.3-1.6-1.4-3-2.8-3.7-.8-.4-1.7-.7-2.6-.7-.7 0-1.4.1-2.1.4-3.7 1.5-8.8 3.1-15.2 4.9-6.1 1.7-13.3 2.5-21.3 2.5-10.7 0-17.9-2.7-22.1-8.3-4.5-6-6.7-16.7-6.7-31.8v-77.5h67c3.1 0 5.5-2.5 5.5-5.5v-39.4c0-3.1-2.5-5.5-5.5-5.5h-67V791c0-1.6-.7-3.2-2-4.2-1-.9-2.3-1.3-3.6-1.3-.3 0-.6 0-.9.1l-47.2 7.8c-2.5.4-4.5 2.7-4.5 5.4v176.6c0 13.9 1.2 26.4 3.6 37.3 2.5 11.3 6.9 21.1 13.1 29.1 6.3 8.2 14.9 14.5 25.5 18.7 10.4 4.1 23.3 6.2 38.5 6.2 12.4 0 23.4-1.3 32.7-3.9 9-2.5 16.5-5 22.1-7.5 2.4-1 3.8-3.6 3.2-6.2l-7.7-37.4zm210.8-164.6h-47.2c-3.1 0-5.5 2.5-5.5 5.5v160.3c-2.5.4-5.5.7-9.1 1-6.2.5-12.1.8-17.7.8-14 0-23.4-3.8-28.8-11.6-5.7-8.4-8.6-23.1-8.6-43.7V852.6c0-3.1-2.5-5.5-5.5-5.5h-47.2c-3.1 0-5.5 2.5-5.5 5.5v114.2c0 14.2 1.5 27.4 4.5 39.3 3 12.3 8.2 23 15.3 31.9 7.2 9 16.8 16.1 28.7 21.1 11.7 4.9 26.2 7.5 43.3 7.5 17.6 0 34.1-1.3 48.9-3.8 14.6-2.5 26.7-4.9 35.9-7.3 2.4-.6 4.2-2.8 4.2-5.4V852.6c-.2-3-2.7-5.5-5.7-5.5zm172.1 164.6c-.3-1.6-1.4-3-2.8-3.7-.8-.4-1.7-.7-2.6-.7-.7 0-1.4.1-2.1.4-3.7 1.5-8.8 3.1-15.2 4.9-6.1 1.7-13.3 2.5-21.3 2.5-10.7 0-17.9-2.7-22.1-8.3-4.5-6-6.7-16.7-6.7-31.8v-77.5h67c3.1 0 5.5-2.5 5.5-5.5v-39.4c0-3.1-2.5-5.5-5.5-5.5h-67V791c0-1.6-.7-3.2-2-4.2-1-.9-2.3-1.3-3.6-1.3-.3 0-.6 0-.9.1l-47.2 7.8c-2.7.4-4.6 2.8-4.6 5.5v176.6c0 13.9 1.2 26.4 3.6 37.3 2.5 11.3 6.9 21.1 13.1 29.1 6.3 8.2 14.9 14.5 25.5 18.7 10.4 4.1 23.3 6.2 38.5 6.2 12.4 0 23.4-1.3 32.7-3.9 9-2.5 16.5-5 22.1-7.5 2.4-1 3.8-3.6 3.2-6.2l-7.6-37.5zm164.8 0c-.3-1.6-1.4-3-2.8-3.7-.8-.4-1.7-.7-2.6-.7-.7 0-1.4.1-2.1.4-3.7 1.5-8.8 3.1-15.2 4.9-6.1 1.7-13.3 2.5-21.3 2.5-10.7 0-17.9-2.7-22.1-8.3-4.5-6-6.7-16.7-6.7-31.8v-77.5h67c3.1 0 5.5-2.5 5.5-5.5v-39.4c0-3.1-2.5-5.5-5.5-5.5h-67V791c0-1.6-.7-3.2-2-4.2-1-.9-2.3-1.3-3.6-1.3-.3 0-.6 0-.9.1l-47.2 7.8c-2.7.4-4.6 2.8-4.6 5.5v176.6c0 13.9 1.2 26.4 3.6 37.3 2.5 11.3 6.9 21.1 13.1 29.1 6.3 8.2 14.9 14.5 25.5 18.7 10.4 4.1 23.3 6.2 38.5 6.2 12.4 0 23.4-1.3 32.7-3.9 9-2.5 16.5-5 22.1-7.5 2.4-1 3.8-3.6 3.2-6.2l-7.6-37.5zm63.5-253.5c-9.4 0-17.6 3.1-24.4 9.2-6.9 6.3-10.4 14.9-10.4 25.5 0 10.4 3.5 18.9 10.4 25.1 6.7 6.1 14.9 9.2 24.4 9.2 9.2 0 17.3-3.1 24-9.2 6.9-6.3 10.4-14.7 10.4-25.1 0-10.7-3.5-19.3-10.4-25.5-6.7-6.1-14.8-9.2-24-9.2zm23.8 88.9h-47.2c-3.1 0-5.5 2.5-5.5 5.5v203.9c0 3.1 2.5 5.5 5.5 5.5H766c3.1 0 5.5-2.5 5.5-5.5V852.6c.1-3-2.4-5.5-5.5-5.5zm74.5 147c-10.3 0-19.1 3.5-26.1 10.3-7.1 6.9-10.6 15.8-10.6 26.4 0 10.6 3.6 19.5 10.7 26.2 7 6.7 15.8 10.1 26 10.1 10 0 18.7-3.4 25.8-10.1 7.2-6.8 10.9-15.6 10.9-26.3 0-10.6-3.7-19.5-10.9-26.4-7.1-6.8-15.8-10.2-25.8-10.2zm219.7 18.4c-.3-1.6-1.3-3-2.7-3.8-.8-.5-1.7-.7-2.6-.7-.7 0-1.4.1-2.1.4-5.3 2.2-11.6 4-18.9 5.4-7.3 1.5-14.8 2.2-22.3 2.2-19.3 0-33.1-5.2-40.9-15.3-8.2-10.6-12.3-25.4-12.3-44 0-19.3 4.3-34.3 12.9-44.6 8.4-10.2 20.6-15.1 37.2-15.1 7.2 0 14.1.7 20.5 2.2 6.4 1.5 12.2 3.3 17.3 5.4.7.3 1.4.4 2.1.4.8 0 1.6-.2 2.4-.6 1.4-.7 2.5-2 2.9-3.5l10-37.9c.7-2.6-.7-5.4-3.2-6.4-17.4-7.1-36.2-10.7-55.7-10.7-16 0-30.7 2.9-43.6 8.5-12.9 5.6-24 13.6-33.1 23.6-9 9.9-16 21.8-20.8 35.4-4.8 13.4-7.2 28-7.2 43.4 0 15.6 2.1 30.2 6.4 43.6 4.3 13.6 10.9 25.5 19.7 35.3 8.8 9.9 20 17.7 33.4 23.3 13.3 5.5 29 8.3 46.7 8.3a172 172 0 0 0 33.1-3.2c10.9-2.2 19-4.6 24.6-7.4 2.1-1.1 3.3-3.4 2.9-5.8l-6.7-38.4zm209.6-107.3c-2.9-12-7.8-22.4-14.6-31.1-6.9-8.7-16.2-15.6-27.6-20.4-11.2-4.7-25.4-7.1-42.2-7.1-6.9 0-14 .7-21.1 2-4.1.8-7.9 1.6-11.4 2.6v-91.9c0-1.6-.7-3.1-1.9-4.1-1-.8-2.2-1.3-3.5-1.3-.3 0-.6 0-.9.1l-46.4 7.7c-2.6.4-4.6 2.7-4.6 5.4v289.7c0 3 2.4 5.4 5.4 5.4h46.4c3 0 5.4-2.4 5.4-5.4V901.4c2.6-.7 5.9-1.4 9.8-2.2 6-1.2 12-1.8 17.7-1.8 7.2 0 13.2 1 17.9 2.9 4.4 1.8 7.8 4.5 10.4 8.4 2.8 4.1 4.8 9.6 6.1 16.3 1.3 7.2 2 16.1 2 26.4v105.4c0 3 2.4 5.4 5.4 5.4h46.4c3 0 5.4-2.4 5.4-5.4V944c.1-14.1-1.3-27.2-4.1-38.8z"/></g></svg>