<svg id="Layer_1" xmlns="http://www.w3.org/2000/svg" viewBox="0 0 1838 507.9"><style>.st0{fill:#4c4c4c}</style><path class="st0" d="M743 350.7c-.3-1.5-1.3-2.9-2.7-3.6-.8-.4-1.6-.6-2.5-.6-.7 0-1.3.1-2 .4-3.6 1.4-8.5 3-14.6 4.7-5.9 1.6-12.7 2.4-20.4 2.4-10.3 0-17.2-2.6-21.1-7.9-4.3-5.8-6.4-16-6.4-30.5v-74.2h64.2c2.9 0 5.3-2.4 5.3-5.3v-37.7c0-2.9-2.4-5.3-5.3-5.3h-64.2v-53.7c0-1.6-.7-3-1.9-4-1-.8-2.2-1.3-3.4-1.3-.3 0-.6 0-.9.1l-45.2 7.5c-2.6.4-4.4 2.6-4.4 5.2V316c0 13.3 1.2 25.3 3.5 35.7 2.4 10.8 6.6 20.2 12.6 27.9 6 7.8 14.3 13.9 24.4 17.9 9.9 4 22.3 6 36.9 6 11.9 0 22.4-1.3 31.3-3.7 8.6-2.4 15.8-4.8 21.2-7.1 2.3-1 3.6-3.5 3.1-6l-7.5-36zM944.9 193h-45.2c-2.9 0-5.3 2.4-5.3 5.3v153.6c-2.4.4-5.3.7-8.8 1-5.9.5-11.6.7-16.9.7-13.4 0-22.5-3.6-27.5-11.1-5.5-8-8.2-22.1-8.2-41.8V198.3c0-2.9-2.4-5.3-5.3-5.3h-45.2c-2.9 0-5.3 2.4-5.3 5.3v109.4c0 13.6 1.4 26.3 4.3 37.7 2.9 11.8 7.8 22.1 14.6 30.6 6.9 8.6 16.1 15.4 27.5 20.3 11.2 4.7 25.1 7.1 41.5 7.1 16.9 0 32.6-1.2 46.8-3.6 14-2.4 25.6-4.7 34.4-7 2.3-.6 4-2.7 4-5.1V198.3c-.1-2.9-2.5-5.3-5.4-5.3zM1109.8 350.7c-.3-1.5-1.3-2.9-2.7-3.6-.8-.4-1.6-.6-2.5-.6-.7 0-1.3.1-2 .4-3.6 1.4-8.5 3-14.6 4.7-5.9 1.6-12.7 2.4-20.4 2.4-10.3 0-17.2-2.6-21.1-7.9-4.3-5.8-6.4-16-6.4-30.5v-74.2h64.2c2.9 0 5.3-2.4 5.3-5.3v-37.7c0-2.9-2.4-5.3-5.3-5.3h-64.2v-53.7c0-1.6-.7-3-1.9-4-1-.8-2.2-1.3-3.4-1.3-.3 0-.6 0-.9.1l-45.2 7.5c-2.6.4-4.4 2.6-4.4 5.2V316c0 13.3 1.2 25.3 3.5 35.7 2.4 10.8 6.6 20.2 12.6 27.9 6 7.8 14.3 13.9 24.4 17.9 9.9 4 22.3 6 36.9 6 11.9 0 22.4-1.3 31.3-3.7 8.6-2.4 15.8-4.8 21.2-7.1 2.3-1 3.6-3.5 3.1-6l-7.5-36zM1267.7 350.7c-.3-1.5-1.3-2.9-2.7-3.6-.8-.4-1.6-.6-2.5-.6-.7 0-1.3.1-2 .4-3.6 1.4-8.5 3-14.6 4.7-5.9 1.6-12.7 2.4-20.4 2.4-10.3 0-17.2-2.6-21.1-7.9-4.3-5.8-6.4-16-6.4-30.5v-74.2h64.2c2.9 0 5.3-2.4 5.3-5.3v-37.7c0-2.9-2.4-5.3-5.3-5.3H1198v-53.7c0-1.6-.7-3-1.9-4-1-.8-2.2-1.3-3.4-1.3-.3 0-.6 0-.9.1l-45.2 7.5c-2.6.4-4.4 2.6-4.4 5.2V316c0 13.3 1.2 25.3 3.5 35.7 2.4 10.8 6.6 20.2 12.6 27.9 6 7.8 14.3 13.9 24.4 17.9 9.9 4 22.3 6 36.9 6 11.9 0 22.4-1.3 31.3-3.7 8.6-2.4 15.8-4.8 21.2-7.1 2.3-1 3.6-3.5 3.1-6l-7.5-36zM1328.6 107.9c-9 0-16.9 3-23.4 8.8-6.6 6-10 14.2-10 24.5 0 10 3.3 18.1 10 24.1 6.4 5.9 14.3 8.8 23.4 8.8 8.8 0 16.5-3 23-8.9 6.6-6 10-14.1 10-24.1 0-10.2-3.3-18.5-9.9-24.5-6.6-5.8-14.3-8.7-23.1-8.7zM1351.4 193h-45.2c-2.9 0-5.3 2.4-5.3 5.3v195.3c0 2.9 2.4 5.3 5.3 5.3h45.2c2.9 0 5.3-2.4 5.3-5.3V198.3c0-2.9-2.4-5.3-5.3-5.3zM1422.7 333.8c-9.9 0-18.3 3.3-25 9.9-6.8 6.6-10.2 15.1-10.2 25.3 0 10.2 3.4 18.6 10.2 25.1 6.7 6.4 15.1 9.7 25 9.7 9.6 0 17.9-3.2 24.7-9.6 6.9-6.5 10.5-15 10.5-25.2s-3.5-18.7-10.4-25.3c-6.9-6.6-15.2-9.9-24.8-9.9zM1633.2 351.4c-.3-1.6-1.2-2.9-2.6-3.7-.8-.4-1.7-.7-2.5-.7-.7 0-1.3.1-2 .4-5.1 2.1-11.2 3.8-18.1 5.2-7 1.4-14.2 2.1-21.4 2.1-18.5 0-31.7-4.9-39.2-14.7-7.8-10.1-11.8-24.3-11.8-42.2 0-18.5 4.2-32.9 12.4-42.7 8.1-9.7 19.7-14.5 35.6-14.5 6.9 0 13.5.7 19.6 2.1 6.1 1.4 11.7 3.1 16.5 5.2.7.3 1.4.4 2.1.4.8 0 1.6-.2 2.3-.5 1.4-.7 2.4-1.9 2.8-3.4l9.5-36.3c.7-2.5-.6-5.2-3.1-6.1-16.7-6.8-34.7-10.3-53.4-10.3-15.3 0-29.4 2.7-41.7 8.1-12.4 5.4-23 13-31.7 22.6-8.6 9.5-15.3 20.9-20 33.9-4.6 12.9-6.9 26.9-6.9 41.6 0 14.9 2.1 29 6.1 41.8 4.1 13 10.5 24.4 18.9 33.8 8.4 9.5 19.2 17 32 22.3 12.7 5.3 27.8 7.9 44.8 7.9 10.8 0 21.5-1 31.7-3 10.5-2.1 18.2-4.4 23.5-7.1 2.1-1 3.2-3.3 2.8-5.5l-6.2-36.7zM1834 248.7c-2.7-11.5-7.5-21.5-14-29.7-6.6-8.4-15.5-14.9-26.5-19.6-10.8-4.5-24.4-6.8-40.4-6.8-6.6 0-13.5.6-20.2 1.9-3.9.7-7.5 1.6-10.9 2.5v-88c0-1.5-.7-3-1.8-4-.9-.8-2.1-1.2-3.4-1.2-.3 0-.6 0-.9.1l-44.4 7.3c-2.5.4-4.4 2.6-4.4 5.1v277.5c0 2.9 2.3 5.2 5.2 5.2h44.4c2.9 0 5.2-2.3 5.2-5.2V245c2.5-.6 5.6-1.4 9.4-2.1 5.8-1.2 11.5-1.7 17-1.7 6.9 0 12.6.9 17.1 2.7 4.2 1.7 7.4 4.3 9.9 8 2.6 3.9 4.6 9.2 5.8 15.7 1.3 6.9 1.9 15.4 1.9 25.3v101c0 2.9 2.3 5.2 5.2 5.2h44.4c2.9 0 5.2-2.3 5.2-5.2v-108c.2-13.6-1.1-26.1-3.8-37.2z"/><g><path d="M456.2 79.9L166.4 2.3C128.9-7.7 90.1 14.7 80 52.1L2.4 341.9c-10 37.2 12.3 75.8 49.5 85.7l83.5 22.4c-5.3-8.7-9.2-18.7-11.7-29.8-3.1-13.9-4.7-29.8-4.7-47.6V147.4c0-3.5 2.4-6.4 5.9-6.9l60.2-10c.4-.1.8-.1 1.2-.1 1.6 0 3.2.7 4.5 1.7 1.6 1.3 2.5 3.2 2.5 5.3v71.5h85.5c3.9 0 7.1 3.2 7.1 7.1v50.2c0 3.9-3.2 7.1-7.1 7.1h-85.5v98.8c0 19.3 2.8 32.9 8.5 40.6 5.2 7.1 14.4 10.5 28.1 10.5 10.3 0 19.3-1.1 27.2-3.2 8.1-2.3 14.7-4.4 19.4-6.3.9-.4 1.7-.5 2.7-.5 1.2 0 2.3.3 3.3.8 1.9.9 3.2 2.8 3.6 4.8l10 48c.7 3.3-1.1 6.7-4.1 8-7.2 3.1-16.8 6.3-28.2 9.5-.1 0-.3.1-.4.1l78.9 21.2c37.2 10 75.8-12.3 85.7-49.5l77.8-290.3c9.8-37.3-12.5-75.9-49.6-85.9z" fill="#ed2c28"/><path d="M292.1 474.8c3.1-1.3 4.8-4.7 4.1-8l-10-48c-.4-2-1.7-3.9-3.6-4.8-1.1-.5-2.1-.8-3.3-.8-.9 0-1.7.1-2.7.5-4.8 1.9-11.3 4-19.4 6.3-7.9 2.1-16.9 3.2-27.2 3.2-13.7 0-22.9-3.5-28.1-10.5-5.7-7.7-8.5-21.3-8.5-40.6v-98.8h85.5c3.9 0 7.1-3.2 7.1-7.1V216c0-3.9-3.2-7.1-7.1-7.1h-85.5v-71.5c0-2.1-.9-4-2.5-5.3-1.3-1.1-2.9-1.7-4.5-1.7-.4 0-.8 0-1.2.1l-60.2 10c-3.5.5-5.9 3.5-5.9 6.9v225.3c0 17.7 1.6 33.7 4.7 47.6 2.5 11.1 6.4 21.1 11.7 29.8l128 34.4c.1 0 .3-.1.4-.1 11.4-3.3 21-6.5 28.2-9.6z" fill="#fff"/></g></svg>