<?xml version="1.0" encoding="utf-8"?>
<!-- Generator: Adobe Illustrator 20.1.0, SVG Export Plug-In . SVG Version: 6.00 Build 0)  -->
<svg version="1.1" id="Layer_1" xmlns="http://www.w3.org/2000/svg" xmlns:xlink="http://www.w3.org/1999/xlink" x="0px" y="0px"
	 viewBox="0 0 508 508" style="enable-background:new 0 0 508 508;" xml:space="preserve">
<style type="text/css">
	.st0{fill:#EC2C28;}
	.st1{fill:#FFFFFF;}
</style>
<g>
	<path class="st0" d="M456.2,80.1L166.1,2.3c-37.4-9.8-76.2,12.4-86.3,49.8L2.3,341.6c-9.8,37.1,12.4,75.5,49.5,85.7l83.5,22.5
		c-5.1-8.6-8.9-18.4-11.4-29.5c-3.2-14.3-4.8-29.8-4.8-47.6V148c0-3.8,2.2-6.7,5.7-7l60.3-9.8c0,0,0.3,0,1,0c1.9,0,3.2,1,4.8,1.9
		c1.3,1,2.2,3.2,2.2,5.1v71.7h84.7c3.8,0,7,3.2,7,7v49.8c0,3.8-3.2,7-7,7h-85.1v98.4c0,19.4,2.9,33,8.6,40.6
		c5.7,7,14.6,10.5,28.2,10.5c10.5,0,19.7-1,27.3-3.2c7.9-2.2,14.6-4.1,19.4-6c1-0.3,1.9-0.3,2.9-0.3c1,0,2.2,0.3,3.2,1
		c1.9,1,3.2,2.9,3.8,4.8l9.8,47.9c0.3,3.2-1.3,6.7-4.1,7.9c-7,2.9-16.8,6-28.2,9.5l0,0l77.8,20.9c37.1,9.8,75.8-12.4,85.7-49.5
		l78.7-290.4C515.5,128.3,493.3,89.9,456.2,80.1z"/>
	<path class="st1" d="M291.8,474.9c2.9-1.3,4.8-4.8,4.1-7.9l-9.8-47.9c-0.3-1.9-1.9-3.8-3.8-4.8c-1-0.3-2.2-1-3.2-1
		c-1,0-1.9,0-2.9,0.3c-4.8,1.9-11.4,3.8-19.4,6c-7.6,2.2-16.8,3.2-27.3,3.2c-13.6,0-22.5-3.2-28.2-10.5c-5.7-7.6-8.6-21.3-8.6-40.6
		v-98.4h85.4c3.8,0,7-3.2,7-7v-49.5c0-3.8-3.2-7-7-7h-84.7v-71.7c0-1.9-1-4.1-2.2-5.1c-1.3-1-2.9-1.9-4.8-1.9c-0.3,0-1,0-1,0
		l-60.3,9.8c-3.2,0.3-5.7,3.2-5.7,7v224.7c0,17.8,1.3,33.3,4.8,47.6c2.5,11.1,6.3,20.9,11.4,29.5l127.9,34.6l0,0
		C274.9,481.2,284.8,477.7,291.8,474.9z"/>
</g>
</svg>
