<?xml version="1.0" encoding="utf-8"?>
<!-- Generator: Adobe Illustrator 20.1.0, SVG Export Plug-In . SVG Version: 6.00 Build 0)  -->
<svg version="1.0" id="Layer_1" xmlns="http://www.w3.org/2000/svg" xmlns:xlink="http://www.w3.org/1999/xlink" x="0px" y="0px"
	 width="140px" height="120px" viewBox="0 0 140 120" enable-background="new 0 0 140 120" xml:space="preserve">
<g>
	<polygon fill="#CCEAF9" points="58.9,68.4 83.8,68.5 100.8,98.1 76.6,98.4 	"/>
	<polyline fill="#CCEAF9" points="57.4,98.3 57.4,65.8 76.2,98.3 	"/>
	<g>
		<path fill="#007AB7" d="M57.2,79.4c0,0,3.6,19,14.4,19l-14.3-0.1L57.2,79.4z"/>
	</g>
	<polygon fill="#CCEAF9" points="57.4,70.3 41.5,98.3 57.4,98.3 	"/>
	<polyline fill="none" stroke="#007AB7" stroke-linecap="round" stroke-linejoin="round" stroke-miterlimit="10" points="101,98.3 
		82.4,65.8 57.4,65.8 	"/>
	<g>
		
			<line fill="none" stroke="#007AB7" stroke-linecap="round" stroke-linejoin="round" stroke-miterlimit="10" x1="3.1" y1="98.5" x2="136.9" y2="98.5"/>
		<g>
			<polyline fill="none" stroke="#007AB7" stroke-linecap="round" stroke-linejoin="round" stroke-miterlimit="10" points="
				38.3,98.3 57.4,65.8 57.4,98.3 			"/>
			<polyline fill="none" stroke="#007AB7" stroke-linecap="round" stroke-linejoin="round" stroke-miterlimit="10" points="
				57.4,98.3 57.4,65.8 76.2,98.3 			"/>
		</g>
		<path fill="#E5E5E5" d="M106.3,47.4c-9,0-16.4,7.3-16.4,16.4c0,3.5,1.1,6.7,3,9.4c2.7,1.9,5.9,3,9.4,3c2.1,0,4.1-0.4,6-1.1l0,0
			c-0.5-1.3-0.7-2.7-0.7-4.2c0-6.4,4.8-11.7,11-12.6l0.1-0.1c-0.3-2.8-1.3-5.5-2.9-7.7C113,48.5,109.7,47.4,106.3,47.4z"/>
		<path fill="none" stroke="#007AB7" stroke-linecap="round" stroke-linejoin="round" stroke-miterlimit="10" d="M108.2,75.1
			c-1.8,0.7-3.9,1.1-6,1.1c-9,0-16.4-7.3-16.4-16.4s7.3-16.4,16.4-16.4c8.5,0,15.4,6.4,16.3,14.6"/>
		
			<line fill="none" stroke="#007AB7" stroke-linecap="round" stroke-linejoin="round" stroke-miterlimit="10" x1="102.3" y1="76.7" x2="102.3" y2="98.3"/>
		<g>
			<path fill="#E5E5E5" d="M41.6,92.8c-0.4-0.2-0.8-0.3-1.2-0.2c0-0.4-0.1-0.9-0.3-1.3c-0.4-0.2-0.8-0.3-1.2-0.2
				c0-0.5-0.1-1-0.4-1.4c-0.5-0.3-1.1-0.4-1.6-0.4c0,0,0,0,0,0c-0.4-0.6-0.8-1-1.4-1.4c0,0-0.1,0-0.1,0c0,0,0,0,0,0c0,0,0,0,0,0
				c-1.6-1.1-3.8-1.1-5.5,0c-0.1,0.1-0.3,0.2-0.4,0.3c-0.9-0.8-2.3-0.9-3.3-0.2c-0.8,0.5-1.2,1.4-1.3,2.2c-0.6,0.1-1.2,0.3-1.8,0.7
				c-0.8,0.5-1.4,1.3-1.8,2.2c-0.9-0.4-1.9-0.3-2.7,0.2c-1.2,0.8-1.6,2.3-1.1,3.6c-0.1,0-0.2,0.3-0.2,0.3c-0.7,0.4-1.1,1.1-1,1.9
				h21.9L41.6,92.8z"/>
			<path fill="none" stroke="#007AB7" stroke-linecap="round" stroke-linejoin="round" stroke-miterlimit="10" d="M15.8,95.4
				c0.1,0,0.1-0.1,0.2-0.2c-0.5-1.3-0.1-2.8,1.1-3.5c0.8-0.5,1.9-0.6,2.7-0.2c0.3-0.9,0.9-1.7,1.8-2.2c0.6-0.4,1.2-0.6,1.8-0.7
				c0.1-0.9,0.5-1.7,1.3-2.2c1.1-0.7,2.4-0.6,3.3,0.2c0.1-0.1,0.3-0.2,0.4-0.3c2.4-1.5,5.5-0.8,7,1.5c0,0,0,0,0,0
				c1.1,0,2.3,0.5,2.9,1.6c0.3,0.5,0.5,1.1,0.5,1.7c0.9-0.2,2.3,0.4,2.8,1.2l-3.6,6.2h-23C14.4,96.5,14.7,96,15.8,95.4z"/>
		</g>
		<path fill="#E5E5E5" d="M122.3,60.1c-7,0-12.8,5.7-12.8,12.8c0,3,1.1,5.8,2.8,8c2.2,1.7,4.9,2.8,8,2.8c7,0,12.8-5.7,12.8-12.8
			c0-3-1.1-5.8-2.8-8C128,61.1,125.3,60.1,122.3,60.1z"/>
		
			<circle fill="none" stroke="#007AB7" stroke-linecap="round" stroke-linejoin="round" stroke-miterlimit="10" cx="120.3" cy="70.8" r="12.8"/>
		
			<line fill="none" stroke="#007AB7" stroke-linecap="round" stroke-linejoin="round" stroke-miterlimit="10" x1="120.3" y1="83.6" x2="120.3" y2="98.3"/>
	</g>
</g>
<path fill="none" stroke="#007AB7" stroke-linecap="round" stroke-linejoin="round" stroke-miterlimit="10" d="M57.4,79.4
	c0,0,3.4,19.1,14.3,19.1"/>
<circle fill="none" stroke="#007AB7" stroke-linecap="round" stroke-linejoin="round" stroke-miterlimit="10" cx="41.2" cy="47.3" r="5.4"/>
<g>
	
		<line fill="none" stroke="#007AB7" stroke-linecap="round" stroke-linejoin="round" stroke-miterlimit="10" x1="41" y1="39.5" x2="41" y2="33.4"/>
	
		<line fill="none" stroke="#007AB7" stroke-linecap="round" stroke-linejoin="round" stroke-miterlimit="10" x1="41" y1="61.2" x2="41" y2="55"/>
</g>
<g>
	
		<line fill="none" stroke="#007AB7" stroke-linecap="round" stroke-linejoin="round" stroke-miterlimit="10" x1="48.8" y1="47.3" x2="54.9" y2="47.3"/>
	
		<line fill="none" stroke="#007AB7" stroke-linecap="round" stroke-linejoin="round" stroke-miterlimit="10" x1="27.1" y1="47.3" x2="33.2" y2="47.3"/>
</g>
<g>
	
		<line fill="none" stroke="#007AB7" stroke-linecap="round" stroke-linejoin="round" stroke-miterlimit="10" x1="46.5" y1="41.8" x2="50.8" y2="37.4"/>
	
		<line fill="none" stroke="#007AB7" stroke-linecap="round" stroke-linejoin="round" stroke-miterlimit="10" x1="31.2" y1="57.1" x2="35.5" y2="52.8"/>
</g>
<g>
	
		<line fill="none" stroke="#007AB7" stroke-linecap="round" stroke-linejoin="round" stroke-miterlimit="10" x1="46.5" y1="52.8" x2="50.8" y2="57.1"/>
	
		<line fill="none" stroke="#007AB7" stroke-linecap="round" stroke-linejoin="round" stroke-miterlimit="10" x1="31.2" y1="37.4" x2="35.5" y2="41.8"/>
</g>
</svg>
