<svg version="1" xmlns="http://www.w3.org/2000/svg" width="140" height="120"><path fill="#CCEAF9" d="M58.9 68.4l24.9.1 17 29.6-24.2.3z"/><path fill="#CCEAF9" d="M57.4 98.3V65.8l18.8 32.5"/><path fill="#007AB7" d="M57.2 79.4s3.6 19 14.4 19l-14.3-.1-.1-18.9z"/><path fill="#CCEAF9" d="M57.4 70.3l-15.9 28h15.9z"/><path fill="none" stroke="#007AB7" stroke-linecap="round" stroke-linejoin="round" stroke-miterlimit="10" d="M101 98.3L82.4 65.8h-25M3.1 98.5h133.8m-98.6-.2l19.1-32.5v32.5m0 0V65.8l18.8 32.5"/><path fill="#E5E5E5" d="M106.3 47.4c-9 0-16.4 7.3-16.4 16.4 0 3.5 1.1 6.7 3 9.4 2.7 1.9 5.9 3 9.4 3 2.1 0 4.1-.4 6-1.1-.5-1.3-.7-2.7-.7-4.2 0-6.4 4.8-11.7 11-12.6l.1-.1c-.3-2.8-1.3-5.5-2.9-7.7-2.8-2-6.1-3.1-9.5-3.1z"/><path fill="none" stroke="#007AB7" stroke-linecap="round" stroke-linejoin="round" stroke-miterlimit="10" d="M108.2 75.1c-1.8.7-3.9 1.1-6 1.1-9 0-16.4-7.3-16.4-16.4s7.3-16.4 16.4-16.4c8.5 0 15.4 6.4 16.3 14.6m-16.2 18.7v21.6"/><path fill="#E5E5E5" d="M41.6 92.8c-.4-.2-.8-.3-1.2-.2 0-.4-.1-.9-.3-1.3-.4-.2-.8-.3-1.2-.2 0-.5-.1-1-.4-1.4-.5-.3-1.1-.4-1.6-.4-.4-.6-.8-1-1.4-1.4h-.1c-1.6-1.1-3.8-1.1-5.5 0-.1.1-.3.2-.4.3-.9-.8-2.3-.9-3.3-.2-.8.5-1.2 1.4-1.3 2.2-.6.1-1.2.3-1.8.7-.8.5-1.4 1.3-1.8 2.2-.9-.4-1.9-.3-2.7.2-1.2.8-1.6 2.3-1.1 3.6-.1 0-.2.3-.2.3-.7.4-1.1 1.1-1 1.9h21.9l3.4-6.3z"/><path fill="none" stroke="#007AB7" stroke-linecap="round" stroke-linejoin="round" stroke-miterlimit="10" d="M15.8 95.4c.1 0 .1-.1.2-.2-.5-1.3-.1-2.8 1.1-3.5.8-.5 1.9-.6 2.7-.2.3-.9.9-1.7 1.8-2.2.6-.4 1.2-.6 1.8-.7.1-.9.5-1.7 1.3-2.2 1.1-.7 2.4-.6 3.3.2.1-.1.3-.2.4-.3 2.4-1.5 5.5-.8 7 1.5 1.1 0 2.3.5 2.9 1.6.3.5.5 1.1.5 1.7.9-.2 2.3.4 2.8 1.2L38 98.5H15c-.6-2-.3-2.5.8-3.1z"/><path fill="#E5E5E5" d="M122.3 60.1c-7 0-12.8 5.7-12.8 12.8 0 3 1.1 5.8 2.8 8 2.2 1.7 4.9 2.8 8 2.8 7 0 12.8-5.7 12.8-12.8 0-3-1.1-5.8-2.8-8-2.3-1.8-5-2.8-8-2.8z"/><circle fill="none" stroke="#007AB7" stroke-linecap="round" stroke-linejoin="round" stroke-miterlimit="10" cx="120.3" cy="70.8" r="12.8"/><path fill="none" stroke="#007AB7" stroke-linecap="round" stroke-linejoin="round" stroke-miterlimit="10" d="M120.3 83.6v14.7M57.4 79.4s3.4 19.1 14.3 19.1"/><circle fill="none" stroke="#007AB7" stroke-linecap="round" stroke-linejoin="round" stroke-miterlimit="10" cx="41.2" cy="47.3" r="5.4"/><path d="M41 39.5v-6.1m0 27.8V55m7.8-7.7h6.1m-27.8 0h6.1m13.3-5.5l4.3-4.4M31.2 57.1l4.3-4.3m11 0l4.3 4.3M31.2 37.4l4.3 4.4" fill="none" stroke="#007AB7" stroke-linecap="round" stroke-linejoin="round" stroke-miterlimit="10"/></svg>