<?xml version="1.0" encoding="utf-8"?>
<!-- Generator: Adobe Illustrator 20.1.0, SVG Export Plug-In . SVG Version: 6.00 Build 0)  -->
<svg version="1.0" id="Layer_1" xmlns="http://www.w3.org/2000/svg" xmlns:xlink="http://www.w3.org/1999/xlink" x="0px" y="0px"
	 width="140px" height="120px" viewBox="0 0 140 120" enable-background="new 0 0 140 120" xml:space="preserve">
<rect x="45.3" y="83.8" fill="#CCEAF9" width="8.2" height="14.8"/>
<g>
	<g>
		<rect x="64" y="74.1" fill="#E5E5E5" width="47.1" height="24.2"/>
		<g>
			<path fill="#E5E5E5" d="M110.9,87.2c0,0,0.8,0.3,1.2,0.5c0.1,0.1,0.3,0.2,0.4,0.3c0.9-0.8,2.3-0.9,3.3-0.2
				c0.8,0.5,1.2,1.4,1.3,2.2c0.6,0.1,1.2,0.3,1.8,0.7c0.8,0.5,1.4,1.3,1.8,2.2c0.9-0.4,1.9-0.3,2.7,0.2c1.2,0.8,1.6,2.3,1.1,3.6
				c1.4,0.2,1.2,1.6,1.2,1.6l-14.5,0L110.9,87.2z"/>
			<path fill="none" stroke="#007AB7" stroke-linecap="round" stroke-linejoin="round" stroke-miterlimit="10" d="M126.9,98.5
				c1.1-1.5,0.4-2.8-0.7-3.1c-0.1,0,0,0-0.1,0c0.5-1.3,0-2.9-1.2-3.7c-0.8-0.5-1.9-0.6-2.7-0.2c-0.3-0.9-0.9-1.7-1.8-2.2
				c-0.6-0.4-1.2-0.6-1.8-0.7c-0.1-0.9-0.5-1.7-1.3-2.2c-1.1-0.7-2.4-0.6-3.3,0.2c-0.1-0.1-0.3-0.2-0.4-0.3
				c-0.7-0.5-1.5-0.7-2.3-0.8"/>
		</g>
		<path fill="#E5E5E5" d="M27.6,61.2c-6.8,0-12.2,5.5-12.2,12.2c0,2.9,1,5.5,2.7,7.6c2.1,1.7,4.7,2.7,7.6,2.7c5,0,7.9-2.9,7.9-2.9
			l0-3.2l-3.8-0.2l8.1-8.2c0,0-0.9-3.6-2.7-5.3C33.1,62.2,30.5,61.2,27.6,61.2z"/>
		<path fill="none" stroke="#007AB7" stroke-linecap="round" stroke-linejoin="round" stroke-miterlimit="10" d="M33.5,80.6
			c-2.2,1.9-5.1,3-8.2,3c-7,0-12.8-5.7-12.8-12.8s5.7-12.8,12.8-12.8c6.4,0,11.8,4.8,12.6,11"/>
		
			<line fill="none" stroke="#007AB7" stroke-linecap="round" stroke-linejoin="round" stroke-miterlimit="10" x1="25.3" y1="83.6" x2="25.3" y2="98.3"/>
		<g>
			<polygon fill="#CCEAF9" points="52,61.1 97.8,61.1 114.4,77.4 67.1,77.4 			"/>
			<polygon fill="#CCEAF9" points="48.5,58.3 30.1,77.2 33.6,77.2 50.3,60.2 			"/>
			<polyline fill="none" stroke="#007AB7" stroke-linecap="round" stroke-linejoin="round" stroke-miterlimit="10" points="
				114.6,77.6 95.7,58.1 48.7,58.1 			"/>
			<g>
				<polyline fill="none" stroke="#007AB7" stroke-linecap="round" stroke-linejoin="round" stroke-miterlimit="10" points="
					67.5,77.5 48.7,58.1 29.7,77.5 				"/>
			</g>
		</g>
		
			<line fill="none" stroke="#007AB7" stroke-linecap="round" stroke-linejoin="round" stroke-miterlimit="10" x1="67.7" y1="77.7" x2="114.6" y2="77.7"/>
		
			<line fill="none" stroke="#007AB7" stroke-linecap="round" stroke-linejoin="round" stroke-miterlimit="10" x1="29.7" y1="77.5" x2="33.6" y2="77.5"/>
		
			<line fill="none" stroke="#007AB7" stroke-linecap="round" stroke-linejoin="round" stroke-miterlimit="10" x1="33.6" y1="77.5" x2="33.6" y2="98.3"/>
		
			<line fill="none" stroke="#007AB7" stroke-linecap="round" stroke-linejoin="round" stroke-miterlimit="10" x1="64.1" y1="74.3" x2="64.1" y2="98.3"/>
		
			<line fill="none" stroke="#007AB7" stroke-linecap="round" stroke-linejoin="round" stroke-miterlimit="10" x1="111.1" y1="77.8" x2="111.1" y2="98.5"/>
		<polyline fill="none" stroke="#007AB7" stroke-linecap="round" stroke-linejoin="round" stroke-miterlimit="10" points="
			53.5,98.2 53.5,81.8 43.3,81.8 43.3,98.2 		"/>
		<g>
			<rect x="72.3" y="81.6" fill="#027AB7" width="7.2" height="9.5"/>
			<rect x="79.5" y="81.6" fill="#CCEAF9" width="7.2" height="9.5"/>
			
				<rect x="72.3" y="81.6" fill="none" stroke="#027AB7" stroke-linecap="round" stroke-linejoin="round" stroke-miterlimit="10" width="14.3" height="9.5"/>
		</g>
		<g>
			<rect x="91.2" y="81.6" fill="#027AB7" width="7.2" height="9.5"/>
			<rect x="98.4" y="81.6" fill="#CCEAF9" width="7.2" height="9.5"/>
			
				<rect x="91.3" y="81.6" fill="none" stroke="#027AB7" stroke-linecap="round" stroke-linejoin="round" stroke-miterlimit="10" width="14.3" height="9.5"/>
		</g>
	</g>
</g>
<line fill="none" stroke="#007AB7" stroke-linecap="round" stroke-linejoin="round" stroke-miterlimit="10" x1="3.1" y1="98.5" x2="136.9" y2="98.5"/>
<g>
	<rect x="77.4" y="55.8" fill="#FFFFFF" width="2.1" height="10.5"/>
	<rect x="72.1" y="54.5" fill="#FFFFFF" width="1.4" height="6.9"/>
	<g>
		<path fill="#CCEAF9" d="M79,56.1l8,0.1V66h-8C79,66,79.1,56.1,79,56.1z"/>
		<polygon fill="#CCEAF9" points="73.4,55.2 73.4,62.1 77.1,66.2 77.2,56.2 		"/>
		<g>
			<polyline fill="none" stroke="#007AB7" stroke-linecap="round" stroke-linejoin="round" stroke-miterlimit="10" points="
				87.1,66.3 77.2,66.3 72.1,61.1 			"/>
			<polygon fill="none" stroke="#007AB7" stroke-linecap="round" stroke-linejoin="round" stroke-miterlimit="10" points="
				87.1,56.1 77.2,56.1 72.1,54.3 82,54.3 			"/>
			
				<line fill="none" stroke="#007AB7" stroke-linecap="round" stroke-linejoin="round" stroke-miterlimit="10" x1="72" y1="54.3" x2="72" y2="61"/>
			
				<line fill="none" stroke="#007AB7" stroke-linecap="round" stroke-linejoin="round" stroke-miterlimit="10" x1="77.2" y1="56.2" x2="77.2" y2="66.1"/>
			
				<line fill="none" stroke="#007AB7" stroke-linecap="round" stroke-linejoin="round" stroke-miterlimit="10" x1="87.2" y1="56.3" x2="87.2" y2="66.2"/>
		</g>
		<polygon fill="#007AB7" points="75.5,55.3 81.5,55.3 83.5,56.1 77,56 		"/>
	</g>
</g>
</svg>
