<?xml version="1.0" encoding="utf-8"?>
<!-- Generator: Adobe Illustrator 20.1.0, SVG Export Plug-In . SVG Version: 6.00 Build 0)  -->
<svg version="1.0" id="Layer_1" xmlns="http://www.w3.org/2000/svg" xmlns:xlink="http://www.w3.org/1999/xlink" x="0px" y="0px"
	 width="140px" height="120px" viewBox="0 0 140 120" enable-background="new 0 0 140 120" xml:space="preserve">
<rect x="54.2" y="52.5" fill="#E5E5E5" width="60.8" height="45.9"/>
<g>
	<g>
		<rect x="59.8" y="59.2" fill="#027AB7" width="7.2" height="9.5"/>
		<rect x="67" y="59.2" fill="#CCEAF9" width="7.2" height="9.5"/>
		
			<rect x="59.8" y="59.2" fill="none" stroke="#027AB7" stroke-linecap="round" stroke-linejoin="round" stroke-miterlimit="10" width="14.3" height="9.5"/>
	</g>
	<g>
		<rect x="78.1" y="59.2" fill="#027AB7" width="7.2" height="9.5"/>
		<rect x="85.3" y="59.2" fill="#CCEAF9" width="7.2" height="9.5"/>
		
			<rect x="78.2" y="59.2" fill="none" stroke="#027AB7" stroke-linecap="round" stroke-linejoin="round" stroke-miterlimit="10" width="14.3" height="9.5"/>
	</g>
	<g>
		<rect x="96.5" y="59.2" fill="#027AB7" width="7.2" height="9.5"/>
		<rect x="103.6" y="59.2" fill="#CCEAF9" width="7.2" height="9.5"/>
		
			<rect x="96.5" y="59.2" fill="none" stroke="#027AB7" stroke-linecap="round" stroke-linejoin="round" stroke-miterlimit="10" width="14.3" height="9.5"/>
	</g>
</g>
<g>
	<g>
		<rect x="59.8" y="80.8" fill="#027AB7" width="7.2" height="9.5"/>
		<rect x="67" y="80.8" fill="#CCEAF9" width="7.2" height="9.5"/>
		
			<rect x="59.8" y="80.8" fill="none" stroke="#027AB7" stroke-linecap="round" stroke-linejoin="round" stroke-miterlimit="10" width="14.3" height="9.5"/>
	</g>
	<g>
		<rect x="78.1" y="80.8" fill="#027AB7" width="7.2" height="9.5"/>
		<rect x="85.3" y="80.8" fill="#CCEAF9" width="7.2" height="9.5"/>
		
			<rect x="78.2" y="80.8" fill="none" stroke="#027AB7" stroke-linecap="round" stroke-linejoin="round" stroke-miterlimit="10" width="14.3" height="9.5"/>
	</g>
	<g>
		<rect x="96.5" y="80.8" fill="#027AB7" width="7.2" height="9.5"/>
		<rect x="103.6" y="80.8" fill="#CCEAF9" width="7.2" height="9.5"/>
		
			<rect x="96.5" y="80.8" fill="none" stroke="#027AB7" stroke-linecap="round" stroke-linejoin="round" stroke-miterlimit="10" width="14.3" height="9.5"/>
	</g>
</g>
<g>
	<rect x="35.6" y="83.5" fill="#CCEAF9" width="8.2" height="14.8"/>
	<polyline fill="none" stroke="#007AB7" stroke-linecap="round" stroke-linejoin="round" stroke-miterlimit="10" points="43.8,98 
		43.8,81.5 33.6,81.5 33.6,98 	"/>
</g>
<path fill="#E5E5E5" d="M24,77.3c-0.9-0.5-2.3-0.8-3.5-0.8c-3.9,0-7.1,3.2-7.1,7.1c0,1.7,0.5,3.2,1.5,4.4c1.2,1,2.9,1.5,4.5,1.5
	c1.7,0,2.8-0.6,4.6-1.6V77.3z"/>
<path fill="none" stroke="#007AB7" stroke-linecap="round" stroke-linejoin="round" stroke-miterlimit="10" d="M23.5,75.7
	c-1-1.1-3-1.7-4.8-1.7c-4.3,0-7.7,3.5-7.7,7.8s3.4,7.8,7.7,7.8c1.8,0,3.8-0.6,4.8-1.7V75.7z"/>
<line fill="none" stroke="#007AB7" stroke-linecap="round" stroke-linejoin="round" stroke-miterlimit="10" x1="18.8" y1="89.4" x2="18.8" y2="98.4"/>
<g>
	<g>
		<polygon fill="#CCEAF9" points="42,39.1 101.8,39.1 118.4,55.4 57.1,55.4 		"/>
		<polygon fill="#CCEAF9" points="38.5,36.3 20.1,55.2 23.6,55.2 40.3,38.2 		"/>
		<polyline fill="none" stroke="#007AB7" stroke-linecap="round" stroke-linejoin="round" stroke-miterlimit="10" points="
			118.6,55.6 99.7,36.1 38.7,36.1 		"/>
		<g>
			<polyline fill="none" stroke="#007AB7" stroke-linecap="round" stroke-linejoin="round" stroke-miterlimit="10" points="
				57.5,55.5 38.7,36.1 19.7,55.5 			"/>
		</g>
	</g>
	
		<line fill="none" stroke="#007AB7" stroke-linecap="round" stroke-linejoin="round" stroke-miterlimit="10" x1="57.7" y1="55.7" x2="118.6" y2="55.7"/>
	
		<line fill="none" stroke="#007AB7" stroke-linecap="round" stroke-linejoin="round" stroke-miterlimit="10" x1="19.7" y1="55.5" x2="23.6" y2="55.5"/>
	
		<line fill="none" stroke="#007AB7" stroke-linecap="round" stroke-linejoin="round" stroke-miterlimit="10" x1="23.6" y1="55.5" x2="23.6" y2="98.5"/>
	
		<line fill="none" stroke="#007AB7" stroke-linecap="round" stroke-linejoin="round" stroke-miterlimit="10" x1="54.1" y1="52.2" x2="54.1" y2="98.5"/>
	
		<line fill="none" stroke="#007AB7" stroke-linecap="round" stroke-linejoin="round" stroke-miterlimit="10" x1="115.1" y1="55.8" x2="115.1" y2="72.5"/>
</g>
<polygon fill="#FFFFFF" points="54.9,73.1 115.7,73.1 117.6,75.1 56.8,75.1 "/>
<polygon fill="#CCEAF9" points="56.6,75 117.3,75 126.2,84 65.6,84.3 "/>
<polyline fill="none" stroke="#007AB7" stroke-linecap="round" stroke-linejoin="round" stroke-miterlimit="10" points="126.4,84.1 
	115.2,72.7 54.1,72.7 "/>
<line fill="none" stroke="#007AB7" stroke-linecap="round" stroke-linejoin="round" stroke-miterlimit="10" x1="54.1" y1="72.7" x2="65.4" y2="84.1"/>
<line fill="none" stroke="#007AB7" stroke-linecap="round" stroke-linejoin="round" stroke-miterlimit="10" x1="65.6" y1="84.2" x2="126.3" y2="84.2"/>
<rect x="68.2" y="84.1" fill="#FFFFFF" width="2.5" height="14.2"/>
<polyline fill="none" stroke="#007AB7" stroke-linecap="round" stroke-linejoin="round" stroke-miterlimit="10" points="68.2,98.4 
	68.2,84.2 70.7,84.2 70.7,98.4 "/>
<polyline fill="none" stroke="#007AB7" stroke-linecap="round" stroke-linejoin="round" stroke-miterlimit="10" points="121.2,98.4 
	121.2,84.2 123.7,84.2 123.7,98.4 "/>
<line fill="none" stroke="#007AB7" stroke-linecap="round" stroke-linejoin="round" stroke-miterlimit="10" x1="115.1" y1="84.4" x2="115.1" y2="98.2"/>
<circle fill="#CCEAF9" cx="38.5" cy="61.9" r="5.2"/>
<path fill="#FFFFFF" d="M35.3,63.9c0-2.9,2.3-5.2,5.2-5.2c0.9,0,1.8,0.3,2.5,0.7c-0.9-1.6-2.6-2.7-4.5-2.7c-2.9,0-5.2,2.3-5.2,5.2
	c0,1.9,1.1,3.6,2.7,4.5C35.6,65.7,35.3,64.8,35.3,63.9z"/>
<circle fill="none" stroke="#007AB7" stroke-linecap="round" stroke-linejoin="round" stroke-miterlimit="10" cx="38.5" cy="61.9" r="5.2"/>
<line fill="none" stroke="#007AB7" stroke-linecap="round" stroke-linejoin="round" stroke-miterlimit="10" x1="3.1" y1="98.5" x2="136.9" y2="98.5"/>
<g>
	<rect x="78.4" y="34.8" fill="#FFFFFF" width="2.1" height="10.5"/>
	<rect x="73.1" y="33.5" fill="#FFFFFF" width="1.4" height="6.9"/>
	<g>
		<path fill="#CCEAF9" d="M80,35.1l8,0.1V45h-8C80,45,80.1,35.1,80,35.1z"/>
		<polygon fill="#CCEAF9" points="74.4,34.2 74.4,41.1 78.1,45.2 78.2,35.2 		"/>
		<g>
			<polyline fill="none" stroke="#007AB7" stroke-linecap="round" stroke-linejoin="round" stroke-miterlimit="10" points="
				88.1,45.3 78.2,45.3 73.1,40.1 			"/>
			<polygon fill="none" stroke="#007AB7" stroke-linecap="round" stroke-linejoin="round" stroke-miterlimit="10" points="
				88.1,35.1 78.2,35.1 73.1,33.3 83,33.3 			"/>
			
				<line fill="none" stroke="#007AB7" stroke-linecap="round" stroke-linejoin="round" stroke-miterlimit="10" x1="73" y1="33.3" x2="73" y2="40"/>
			
				<line fill="none" stroke="#007AB7" stroke-linecap="round" stroke-linejoin="round" stroke-miterlimit="10" x1="78.2" y1="35.2" x2="78.2" y2="45.1"/>
			
				<line fill="none" stroke="#007AB7" stroke-linecap="round" stroke-linejoin="round" stroke-miterlimit="10" x1="88.2" y1="35.3" x2="88.2" y2="45.2"/>
		</g>
		<polygon fill="#007AB7" points="76.5,34.3 82.5,34.3 84.5,35.1 78,35 		"/>
	</g>
</g>
</svg>
