<svg version="1" xmlns="http://www.w3.org/2000/svg" width="140" height="120"><path fill="#E5E5E5" d="M54.2 52.5H115v45.9H54.2z"/><path fill="#027AB7" d="M59.8 59.2H67v9.5h-7.2z"/><path fill="#CCEAF9" d="M67 59.2h7.2v9.5H67z"/><path fill="none" stroke="#027AB7" stroke-linecap="round" stroke-linejoin="round" stroke-miterlimit="10" d="M59.8 59.2h14.3v9.5H59.8z"/><path fill="#027AB7" d="M78.1 59.2h7.2v9.5h-7.2z"/><path fill="#CCEAF9" d="M85.3 59.2h7.2v9.5h-7.2z"/><path fill="none" stroke="#027AB7" stroke-linecap="round" stroke-linejoin="round" stroke-miterlimit="10" d="M78.2 59.2h14.3v9.5H78.2z"/><path fill="#027AB7" d="M96.5 59.2h7.2v9.5h-7.2z"/><path fill="#CCEAF9" d="M103.6 59.2h7.2v9.5h-7.2z"/><path fill="none" stroke="#027AB7" stroke-linecap="round" stroke-linejoin="round" stroke-miterlimit="10" d="M96.5 59.2h14.3v9.5H96.5z"/><path fill="#027AB7" d="M59.8 80.8H67v9.5h-7.2z"/><path fill="#CCEAF9" d="M67 80.8h7.2v9.5H67z"/><path fill="none" stroke="#027AB7" stroke-linecap="round" stroke-linejoin="round" stroke-miterlimit="10" d="M59.8 80.8h14.3v9.5H59.8z"/><path fill="#027AB7" d="M78.1 80.8h7.2v9.5h-7.2z"/><path fill="#CCEAF9" d="M85.3 80.8h7.2v9.5h-7.2z"/><path fill="none" stroke="#027AB7" stroke-linecap="round" stroke-linejoin="round" stroke-miterlimit="10" d="M78.2 80.8h14.3v9.5H78.2z"/><path fill="#027AB7" d="M96.5 80.8h7.2v9.5h-7.2z"/><path fill="#CCEAF9" d="M103.6 80.8h7.2v9.5h-7.2z"/><path fill="none" stroke="#027AB7" stroke-linecap="round" stroke-linejoin="round" stroke-miterlimit="10" d="M96.5 80.8h14.3v9.5H96.5z"/><path fill="#CCEAF9" d="M35.6 83.5h8.2v14.8h-8.2z"/><path fill="none" stroke="#007AB7" stroke-linecap="round" stroke-linejoin="round" stroke-miterlimit="10" d="M43.8 98V81.5H33.6V98"/><path fill="#E5E5E5" d="M24 77.3c-.9-.5-2.3-.8-3.5-.8-3.9 0-7.1 3.2-7.1 7.1 0 1.7.5 3.2 1.5 4.4 1.2 1 2.9 1.5 4.5 1.5 1.7 0 2.8-.6 4.6-1.6V77.3z"/><path fill="none" stroke="#007AB7" stroke-linecap="round" stroke-linejoin="round" stroke-miterlimit="10" d="M23.5 75.7c-1-1.1-3-1.7-4.8-1.7-4.3 0-7.7 3.5-7.7 7.8s3.4 7.8 7.7 7.8c1.8 0 3.8-.6 4.8-1.7V75.7zm-4.7 13.7v9"/><path fill="#CCEAF9" d="M42 39.1h59.8l16.6 16.3H57.1zm-3.5-2.8L20.1 55.2h3.5l16.7-17z"/><path fill="none" stroke="#007AB7" stroke-linecap="round" stroke-linejoin="round" stroke-miterlimit="10" d="M118.6 55.6L99.7 36.1h-61m18.8 19.4L38.7 36.1l-19 19.4m38 .2h60.9m-98.9-.2h3.9m0 0v43m30.5-46.3v46.3m61-42.7v16.7"/><path fill="#FFF" d="M54.9 73.1h60.8l1.9 2H56.8z"/><path fill="#CCEAF9" d="M56.6 75h60.7l8.9 9-60.6.3z"/><path fill="none" stroke="#007AB7" stroke-linecap="round" stroke-linejoin="round" stroke-miterlimit="10" d="M126.4 84.1l-11.2-11.4H54.1m0 0l11.3 11.4m.2.1h60.7"/><path fill="#FFF" d="M68.2 84.1h2.5v14.2h-2.5z"/><path fill="none" stroke="#007AB7" stroke-linecap="round" stroke-linejoin="round" stroke-miterlimit="10" d="M68.2 98.4V84.2h2.5v14.2m50.5 0V84.2h2.5v14.2m-8.6-14v13.8"/><circle fill="#CCEAF9" cx="38.5" cy="61.9" r="5.2"/><path fill="#FFF" d="M35.3 63.9c0-2.9 2.3-5.2 5.2-5.2.9 0 1.8.3 2.5.7-.9-1.6-2.6-2.7-4.5-2.7-2.9 0-5.2 2.3-5.2 5.2 0 1.9 1.1 3.6 2.7 4.5-.4-.7-.7-1.6-.7-2.5z"/><circle fill="none" stroke="#007AB7" stroke-linecap="round" stroke-linejoin="round" stroke-miterlimit="10" cx="38.5" cy="61.9" r="5.2"/><path fill="none" stroke="#007AB7" stroke-linecap="round" stroke-linejoin="round" stroke-miterlimit="10" d="M3.1 98.5h133.8"/><path fill="#FFF" d="M78.4 34.8h2.1v10.5h-2.1zm-5.3-1.3h1.4v6.9h-1.4z"/><path fill="#CCEAF9" d="M80 35.1l8 .1V45h-8s.1-9.9 0-9.9zm-5.6-.9v6.9l3.7 4.1.1-10z"/><path d="M88.1 45.3h-9.9l-5.1-5.2m15-5h-9.9l-5.1-1.8H83zM73 33.3V40m5.2-4.8v9.9m10-9.8v9.9" fill="none" stroke="#007AB7" stroke-linecap="round" stroke-linejoin="round" stroke-miterlimit="10"/><path fill="#007AB7" d="M76.5 34.3h6l2 .8L78 35z"/></svg>