<?xml version="1.0" encoding="utf-8"?>
<!-- Generator: Adobe Illustrator 20.1.0, SVG Export Plug-In . SVG Version: 6.00 Build 0)  -->
<svg version="1.0" id="Layer_1" xmlns="http://www.w3.org/2000/svg" xmlns:xlink="http://www.w3.org/1999/xlink" x="0px" y="0px"
	 width="140px" height="120px" viewBox="0 0 140 120" enable-background="new 0 0 140 120" xml:space="preserve">
<g>
	<rect x="45.1" y="36.2" fill="#E5E5E5" width="80.2" height="62"/>
	<g>
		<g>
			<rect x="50.9" y="63" fill="#027AB7" width="7.2" height="9.5"/>
			<rect x="58.1" y="63" fill="#CCEAF9" width="7.2" height="9.5"/>
			
				<rect x="50.9" y="63" fill="none" stroke="#027AB7" stroke-linecap="round" stroke-linejoin="round" stroke-miterlimit="10" width="14.3" height="9.5"/>
		</g>
		<g>
			<rect x="69.1" y="63" fill="#027AB7" width="7.2" height="9.5"/>
			<rect x="76.2" y="63" fill="#CCEAF9" width="7.2" height="9.5"/>
			
				<rect x="69.2" y="63" fill="none" stroke="#027AB7" stroke-linecap="round" stroke-linejoin="round" stroke-miterlimit="10" width="14.3" height="9.5"/>
		</g>
		<g>
			<rect x="87.3" y="63" fill="#027AB7" width="7.2" height="9.5"/>
			<rect x="94.5" y="63" fill="#CCEAF9" width="7.2" height="9.5"/>
			
				<rect x="87.4" y="63" fill="none" stroke="#027AB7" stroke-linecap="round" stroke-linejoin="round" stroke-miterlimit="10" width="14.3" height="9.5"/>
		</g>
		<g>
			<rect x="105.5" y="63" fill="#027AB7" width="7.2" height="9.5"/>
			<rect x="112.7" y="63" fill="#CCEAF9" width="7.2" height="9.5"/>
			
				<rect x="105.6" y="63" fill="none" stroke="#027AB7" stroke-linecap="round" stroke-linejoin="round" stroke-miterlimit="10" width="14.3" height="9.5"/>
		</g>
	</g>
	<g>
		<g>
			<rect x="50.9" y="44.5" fill="#027AB7" width="7.2" height="9.5"/>
			<rect x="58.1" y="44.5" fill="#CCEAF9" width="7.2" height="9.5"/>
			
				<rect x="50.9" y="44.5" fill="none" stroke="#027AB7" stroke-linecap="round" stroke-linejoin="round" stroke-miterlimit="10" width="14.3" height="9.5"/>
		</g>
		<g>
			<rect x="69.1" y="44.5" fill="#027AB7" width="7.2" height="9.5"/>
			<rect x="76.2" y="44.5" fill="#CCEAF9" width="7.2" height="9.5"/>
			
				<rect x="69.2" y="44.5" fill="none" stroke="#027AB7" stroke-linecap="round" stroke-linejoin="round" stroke-miterlimit="10" width="14.3" height="9.5"/>
		</g>
		<g>
			<rect x="87.3" y="44.5" fill="#027AB7" width="7.2" height="9.5"/>
			<rect x="94.5" y="44.5" fill="#CCEAF9" width="7.2" height="9.5"/>
			
				<rect x="87.4" y="44.5" fill="none" stroke="#027AB7" stroke-linecap="round" stroke-linejoin="round" stroke-miterlimit="10" width="14.3" height="9.5"/>
		</g>
		<g>
			<rect x="105.5" y="44.5" fill="#027AB7" width="7.2" height="9.5"/>
			<rect x="112.7" y="44.5" fill="#CCEAF9" width="7.2" height="9.5"/>
			
				<rect x="105.6" y="44.5" fill="none" stroke="#027AB7" stroke-linecap="round" stroke-linejoin="round" stroke-miterlimit="10" width="14.3" height="9.5"/>
		</g>
	</g>
	<g>
		<g>
			<rect x="50.9" y="81.2" fill="#027AB7" width="7.2" height="9.5"/>
			<rect x="58.1" y="81.2" fill="#CCEAF9" width="7.2" height="9.5"/>
			
				<rect x="50.9" y="81.2" fill="none" stroke="#027AB7" stroke-linecap="round" stroke-linejoin="round" stroke-miterlimit="10" width="14.3" height="9.5"/>
		</g>
		<g>
			<rect x="69.1" y="81.2" fill="#027AB7" width="7.2" height="9.5"/>
			<rect x="76.2" y="81.2" fill="#CCEAF9" width="7.2" height="9.5"/>
			
				<rect x="69.2" y="81.2" fill="none" stroke="#027AB7" stroke-linecap="round" stroke-linejoin="round" stroke-miterlimit="10" width="14.3" height="9.5"/>
		</g>
		<g>
			<rect x="87.3" y="81.2" fill="#027AB7" width="7.2" height="9.5"/>
			<rect x="94.5" y="81.2" fill="#CCEAF9" width="7.2" height="9.5"/>
			
				<rect x="87.4" y="81.2" fill="none" stroke="#027AB7" stroke-linecap="round" stroke-linejoin="round" stroke-miterlimit="10" width="14.3" height="9.5"/>
		</g>
		<g>
			<rect x="105.5" y="81.2" fill="#027AB7" width="7.2" height="9.5"/>
			<rect x="112.7" y="81.2" fill="#CCEAF9" width="7.2" height="9.5"/>
			
				<rect x="105.6" y="81.2" fill="none" stroke="#027AB7" stroke-linecap="round" stroke-linejoin="round" stroke-miterlimit="10" width="14.3" height="9.5"/>
		</g>
	</g>
	<g>
		<rect x="21.7" y="83.5" fill="#CCEAF9" width="8.2" height="14.8"/>
		<rect x="31.9" y="83.5" fill="#CCEAF9" width="8" height="14.8"/>
		<polyline fill="none" stroke="#007AB7" stroke-linecap="round" stroke-linejoin="round" stroke-miterlimit="10" points="39.9,98 
			39.9,81.5 19.7,81.5 19.7,98 		"/>
		
			<line fill="none" stroke="#007AB7" stroke-linecap="round" stroke-linejoin="round" stroke-miterlimit="10" x1="29.8" y1="81.7" x2="29.8" y2="98.5"/>
	</g>
	<g>
		
			<line fill="none" stroke="#007AB7" stroke-linecap="round" stroke-linejoin="round" stroke-miterlimit="10" x1="14.7" y1="36.3" x2="14.7" y2="98.5"/>
		
			<line fill="none" stroke="#007AB7" stroke-linecap="round" stroke-linejoin="round" stroke-miterlimit="10" x1="45.2" y1="36.5" x2="45.2" y2="98.5"/>
	</g>
	
		<line fill="none" stroke="#007AB7" stroke-linecap="round" stroke-linejoin="round" stroke-miterlimit="10" x1="125.2" y1="36.2" x2="125.2" y2="98.2"/>
	
		<line fill="none" stroke="#007AB7" stroke-linecap="round" stroke-linejoin="round" stroke-miterlimit="10" x1="14.7" y1="36.2" x2="125" y2="36.2"/>
	<rect x="89.2" y="29.8" fill="#E5E5E5" width="30.8" height="6.6"/>
	
		<rect x="89.1" y="29.5" fill="none" stroke="#007AB7" stroke-linecap="round" stroke-linejoin="round" stroke-miterlimit="10" width="30.8" height="6.7"/>
	
		<rect x="83.1" y="29.5" fill="none" stroke="#007AB7" stroke-linecap="round" stroke-linejoin="round" stroke-miterlimit="10" width="6.1" height="6.7"/>
	<rect x="39" y="29.6" fill="#E5E5E5" width="30.8" height="6.6"/>
	
		<rect x="39.1" y="29.5" fill="none" stroke="#007AB7" stroke-linecap="round" stroke-linejoin="round" stroke-miterlimit="10" width="30.8" height="6.7"/>
	
		<rect x="33.1" y="29.5" fill="none" stroke="#007AB7" stroke-linecap="round" stroke-linejoin="round" stroke-miterlimit="10" width="6.1" height="6.7"/>
	
		<rect x="57.1" y="26.2" fill="#CCEAF9" stroke="#007AB7" stroke-linecap="round" stroke-linejoin="round" stroke-miterlimit="10" width="9.7" height="3.3"/>
	
		<rect x="42.1" y="26.2" fill="#CCEAF9" stroke="#007AB7" stroke-linecap="round" stroke-linejoin="round" stroke-miterlimit="10" width="9.7" height="3.3"/>
	
		<rect x="107.5" y="26.2" fill="#CCEAF9" stroke="#007AB7" stroke-linecap="round" stroke-linejoin="round" stroke-miterlimit="10" width="9.7" height="3.3"/>
	
		<rect x="92.5" y="26.2" fill="#CCEAF9" stroke="#007AB7" stroke-linecap="round" stroke-linejoin="round" stroke-miterlimit="10" width="9.7" height="3.3"/>
	<g>
		<rect x="19.2" y="65" fill="#007AB7" width="2.8" height="5.5"/>
		<rect x="37.5" y="65" fill="#007AB7" width="2.8" height="5.5"/>
		<rect x="28.3" y="65" fill="#007AB7" width="2.8" height="5.5"/>
	</g>
	<g>
		<rect x="19.2" y="46.5" fill="#007AB7" width="2.8" height="5.5"/>
		<rect x="37.5" y="46.5" fill="#007AB7" width="2.8" height="5.5"/>
		<rect x="28.3" y="46.5" fill="#007AB7" width="2.8" height="5.5"/>
	</g>
</g>
<line fill="none" stroke="#007AB7" stroke-linecap="round" stroke-linejoin="round" stroke-miterlimit="10" x1="3.1" y1="98.5" x2="136.9" y2="98.5"/>
</svg>
