<svg version="1" xmlns="http://www.w3.org/2000/svg" width="140" height="120"><g fill="#CCEAF9"><path d="M21.7 39.1h101v59.4h-101z"/><path d="M21.7 34.5h10.7v7.8H21.7zm33.4-22.8h9.3v30.7h-9.3zm-12 12.2h9.3v18.5h-9.3z"/><path d="M30 26.8h9.3v15.6H30zm36.9-7.4h9.3v23h-9.3zm9.3 12.1h9.3v10.9h-9.3zm9.4-4.8h9.3v15.7h-9.3zm9.3-3.6h9.3v19.3h-9.3zm9.3 9.7h9.3v9.6h-9.3z"/><path d="M113.4 36.9h9.3v5.4h-9.3z"/></g><ellipse transform="rotate(-7.607 87.26 15.221)" fill="#CCEAF9" cx="87.3" cy="15.2" rx="3.2" ry="2.1"/><path fill="#CCEAF9" d="M86.9 13.2l9.6-1.4v.6l-5.9 1.3s.4 1 .1 1.6c-.5 1-1.7 1.5-1.7 1.5l-2.1-3.6zm4.3 3.7s-4.2 1.9-5.8 1.6l.1.4s3.7-.4 5.7-2z"/><path fill="#CCEAF9" d="M86.7 17h.2v1.6h-.2zm2.9.7l-.5-1.2.2-.1.5 1.2zm6.8-3.8c-1 .1-1.8-.5-2-1.5s.5-1.8 1.5-2 1.8.5 2 1.5c.2 1-.5 1.8-1.5 2zm-.4-3.4c-.9.1-1.5.9-1.4 1.8.1.9.9 1.5 1.8 1.4s1.5-.9 1.4-1.8-.9-1.5-1.8-1.4zm-14.4 3c-1.8.1-1.8-.1-1.8-.3-.2-.9 6.5-2.1 6.8-2.2 1.8-.3 3.6-.6 4.9-.7 2.2-.2 2.2.1 2.2.2.2.9-6.5 2.1-6.8 2.2-1.8.3-3.6.6-4.9.7-.2.1-.3.1-.4.1zm10.4-3c-1.2.1-3.1.3-5.4.7-4.2.8-6.6 1.7-6.7 2 .2.2 2.8.1 7-.7 4.1-.8 6.6-1.6 6.7-1.9-.2-.1-.7-.2-1.6-.1z"/><path fill="#CCEAF9" d="M86.55 11.966l.193-.056.53 1.825-.193.056z"/><path fill="#E5E5E5" d="M87.5 47.9h13.2v50.5H87.5z"/><path fill="#027AB7" d="M90.4 80.6H94v4.8h-3.6z"/><path fill="#CCEAF9" d="M94.1 80.6h3.6v4.8h-3.6z"/><path fill="none" stroke="#027AB7" stroke-linecap="round" stroke-linejoin="round" stroke-miterlimit="10" d="M90.4 80.6h7.3v4.8h-7.3z"/><path fill="#027AB7" d="M90.4 89.8H94v4.8h-3.6z"/><path fill="#CCEAF9" d="M94.1 89.8h3.6v4.8h-3.6z"/><path fill="none" stroke="#027AB7" stroke-linecap="round" stroke-linejoin="round" stroke-miterlimit="10" d="M90.4 89.8h7.3v4.8h-7.3z"/><path fill="#FFF" d="M71.8 47.7h15.5v50.5H71.8z"/><path fill="#CCEAF9" d="M75.6 91h4.2v7.5h-4.2zm5.2 0h4.1v7.5h-4.1z"/><path fill="none" stroke="#007AB7" stroke-linecap="round" stroke-linejoin="round" stroke-miterlimit="10" d="M84.8 98.4V90H74.6v8.4m5.1-8.3v8.4M72.1 48v50.5m15.5-50.4v50.4M100.7 48v50.5M72.1 48h28.6"/><path d="M88.7 46.2h4.9v1.7h-4.9zm-7.6 0H86v1.7h-4.9z" fill="#CCEAF9" stroke="#007AB7" stroke-linecap="round" stroke-linejoin="round" stroke-miterlimit="10"/><path d="M74.3 81.6h1.4v2.8h-1.4zm9.3 0H85v2.8h-1.4zm-4.6 0h1.4v2.8H79z" fill="#007AB7"/><path fill="#027AB7" d="M90.4 71.2H94V76h-3.6z"/><path fill="#CCEAF9" d="M94.1 71.2h3.6V76h-3.6z"/><path fill="none" stroke="#027AB7" stroke-linecap="round" stroke-linejoin="round" stroke-miterlimit="10" d="M90.4 71.2h7.3V76h-7.3z"/><path d="M74.3 72.2h1.4V75h-1.4zm9.3 0H85V75h-1.4zm-4.6 0h1.4V75H79z" fill="#007AB7"/><path fill="#027AB7" d="M90.4 62.1H94v4.8h-3.6z"/><path fill="#CCEAF9" d="M94.1 62.1h3.6v4.8h-3.6z"/><path fill="none" stroke="#027AB7" stroke-linecap="round" stroke-linejoin="round" stroke-miterlimit="10" d="M90.4 62.1h7.3v4.8h-7.3z"/><path d="M74.3 63.1h1.4v2.8h-1.4zm9.3 0H85v2.8h-1.4zm-4.6 0h1.4v2.8H79z" fill="#007AB7"/><path fill="#027AB7" d="M90.4 52.8H94v4.8h-3.6z"/><path fill="#CCEAF9" d="M94.1 52.8h3.6v4.8h-3.6z"/><path fill="none" stroke="#027AB7" stroke-linecap="round" stroke-linejoin="round" stroke-miterlimit="10" d="M90.4 52.8h7.3v4.8h-7.3z"/><path d="M74.3 53.9h1.4v2.8h-1.4zm9.3 0H85v2.8h-1.4zm-4.6 0h1.4v2.8H79z" fill="#007AB7"/><path fill="#E5E5E5" d="M120.1 47.9h13.2v50.5h-13.2z"/><path fill="#027AB7" d="M123.1 80.6h3.6v4.8h-3.6z"/><path fill="#CCEAF9" d="M126.8 80.6h3.6v4.8h-3.6z"/><path fill="none" stroke="#027AB7" stroke-linecap="round" stroke-linejoin="round" stroke-miterlimit="10" d="M123.1 80.6h7.3v4.8h-7.3z"/><path fill="#027AB7" d="M123.1 89.8h3.6v4.8h-3.6z"/><path fill="#CCEAF9" d="M126.8 89.8h3.6v4.8h-3.6z"/><path fill="none" stroke="#027AB7" stroke-linecap="round" stroke-linejoin="round" stroke-miterlimit="10" d="M123.1 89.8h7.3v4.8h-7.3z"/><path fill="#FFF" d="M104.5 47.7H120v50.5h-15.5z"/><path fill="#CCEAF9" d="M108.3 91h4.2v7.5h-4.2zm5.2 0h4.1v7.5h-4.1z"/><path fill="none" stroke="#007AB7" stroke-linecap="round" stroke-linejoin="round" stroke-miterlimit="10" d="M117.5 98.4V90h-10.3v8.4m5.2-8.3v8.4M104.7 48v50.5m15.5-50.4v50.4M133.3 48v50.5M104.7 48h28.6"/><path d="M121.4 46.2h4.9v1.7h-4.9zm-7.6 0h4.9v1.7h-4.9z" fill="#CCEAF9" stroke="#007AB7" stroke-linecap="round" stroke-linejoin="round" stroke-miterlimit="10"/><path d="M107 81.6h1.4v2.8H107zm9.3 0h1.4v2.8h-1.4zm-4.7 0h1.4v2.8h-1.4z" fill="#007AB7"/><path fill="#027AB7" d="M123.1 71.2h3.6V76h-3.6z"/><path fill="#CCEAF9" d="M126.8 71.2h3.6V76h-3.6z"/><path fill="none" stroke="#027AB7" stroke-linecap="round" stroke-linejoin="round" stroke-miterlimit="10" d="M123.1 71.2h7.3V76h-7.3z"/><path d="M107 72.2h1.4V75H107zm9.3 0h1.4V75h-1.4zm-4.7 0h1.4V75h-1.4z" fill="#007AB7"/><path fill="#027AB7" d="M123.1 62.1h3.6v4.8h-3.6z"/><path fill="#CCEAF9" d="M126.8 62.1h3.6v4.8h-3.6z"/><path fill="none" stroke="#027AB7" stroke-linecap="round" stroke-linejoin="round" stroke-miterlimit="10" d="M123.1 62.1h7.3v4.8h-7.3z"/><path d="M107 63.1h1.4v2.8H107zm9.3 0h1.4v2.8h-1.4zm-4.7 0h1.4v2.8h-1.4z" fill="#007AB7"/><path fill="#027AB7" d="M123.1 52.8h3.6v4.8h-3.6z"/><path fill="#CCEAF9" d="M126.8 52.8h3.6v4.8h-3.6z"/><path fill="none" stroke="#027AB7" stroke-linecap="round" stroke-linejoin="round" stroke-miterlimit="10" d="M123.1 52.8h7.3v4.8h-7.3z"/><path d="M107 53.9h1.4v2.8H107zm9.3 0h1.4v2.8h-1.4zm-4.7 0h1.4v2.8h-1.4z" fill="#007AB7"/><path fill="#E5E5E5" d="M54.8 47.9H68v50.5H54.8z"/><path fill="#027AB7" d="M57.8 80.6h3.6v4.8h-3.6z"/><path fill="#CCEAF9" d="M61.4 80.6H65v4.8h-3.6z"/><path fill="none" stroke="#027AB7" stroke-linecap="round" stroke-linejoin="round" stroke-miterlimit="10" d="M57.8 80.6h7.3v4.8h-7.3z"/><path fill="#027AB7" d="M57.8 89.8h3.6v4.8h-3.6z"/><path fill="#CCEAF9" d="M61.4 89.8H65v4.8h-3.6z"/><path fill="none" stroke="#027AB7" stroke-linecap="round" stroke-linejoin="round" stroke-miterlimit="10" d="M57.8 89.8h7.3v4.8h-7.3z"/><path fill="#FFF" d="M39.2 47.7h15.5v50.5H39.2z"/><path fill="#CCEAF9" d="M43 91h4.2v7.5H43zm5.1 0h4.1v7.5h-4.1z"/><path fill="none" stroke="#007AB7" stroke-linecap="round" stroke-linejoin="round" stroke-miterlimit="10" d="M52.2 98.4V90H41.9v8.4m5.1-8.3v8.4M39.4 48v50.5m15.5-50.4v50.4M68 48v50.5M39.4 48H68"/><path d="M56.1 46.2H61v1.7h-4.9zm-7.7 0h4.9v1.7h-4.9z" fill="#CCEAF9" stroke="#007AB7" stroke-linecap="round" stroke-linejoin="round" stroke-miterlimit="10"/><path d="M41.7 81.6h1.4v2.8h-1.4zm9.3 0h1.4v2.8H51zm-4.7 0h1.4v2.8h-1.4z" fill="#007AB7"/><path fill="#027AB7" d="M57.8 71.2h3.6V76h-3.6z"/><path fill="#CCEAF9" d="M61.4 71.2H65V76h-3.6z"/><path fill="none" stroke="#027AB7" stroke-linecap="round" stroke-linejoin="round" stroke-miterlimit="10" d="M57.8 71.2h7.3V76h-7.3z"/><path d="M41.7 72.2h1.4V75h-1.4zm9.3 0h1.4V75H51zm-4.7 0h1.4V75h-1.4z" fill="#007AB7"/><path fill="#027AB7" d="M57.8 62.1h3.6v4.8h-3.6z"/><path fill="#CCEAF9" d="M61.4 62.1H65v4.8h-3.6z"/><path fill="none" stroke="#027AB7" stroke-linecap="round" stroke-linejoin="round" stroke-miterlimit="10" d="M57.8 62.1h7.3v4.8h-7.3z"/><path d="M41.7 63.1h1.4v2.8h-1.4zm9.3 0h1.4v2.8H51zm-4.7 0h1.4v2.8h-1.4z" fill="#007AB7"/><path fill="#027AB7" d="M57.8 52.8h3.6v4.8h-3.6z"/><path fill="#CCEAF9" d="M61.4 52.8H65v4.8h-3.6z"/><path fill="none" stroke="#027AB7" stroke-linecap="round" stroke-linejoin="round" stroke-miterlimit="10" d="M57.8 52.8h7.3v4.8h-7.3z"/><path d="M41.7 53.9h1.4v2.8h-1.4zm9.3 0h1.4v2.8H51zm-4.7 0h1.4v2.8h-1.4z" fill="#007AB7"/><g><path fill="#E5E5E5" d="M22.2 47.9h13.2v50.5H22.2z"/><path fill="#027AB7" d="M25.1 80.6h3.6v4.8h-3.6z"/><path fill="#CCEAF9" d="M28.8 80.6h3.6v4.8h-3.6z"/><path fill="none" stroke="#027AB7" stroke-linecap="round" stroke-linejoin="round" stroke-miterlimit="10" d="M25.1 80.6h7.3v4.8h-7.3z"/><path fill="#027AB7" d="M25.1 89.8h3.6v4.8h-3.6z"/><path fill="#CCEAF9" d="M28.8 89.8h3.6v4.8h-3.6z"/><path fill="none" stroke="#027AB7" stroke-linecap="round" stroke-linejoin="round" stroke-miterlimit="10" d="M25.1 89.8h7.3v4.8h-7.3z"/><path fill="#FFF" d="M6.5 47.7H22v50.5H6.5z"/><path fill="#CCEAF9" d="M10.3 91h4.2v7.5h-4.2zm5.2 0h4.1v7.5h-4.1z"/><path fill="none" stroke="#007AB7" stroke-linecap="round" stroke-linejoin="round" stroke-miterlimit="10" d="M19.5 98.4V90H9.3v8.4m5.1-8.3v8.4M6.7 48v50.5m15.5-50.4v50.4M35.4 48v50.5M6.8 48h28.5"/><path d="M23.4 46.2h4.9v1.7h-4.9zm-7.6 0h4.9v1.7h-4.9z" fill="#CCEAF9" stroke="#007AB7" stroke-linecap="round" stroke-linejoin="round" stroke-miterlimit="10"/><path d="M9 81.6h1.4v2.8H9zm9.3 0h1.4v2.8h-1.4zm-4.7 0H15v2.8h-1.4z" fill="#007AB7"/><path fill="#027AB7" d="M25.1 71.2h3.6V76h-3.6z"/><path fill="#CCEAF9" d="M28.8 71.2h3.6V76h-3.6z"/><path fill="none" stroke="#027AB7" stroke-linecap="round" stroke-linejoin="round" stroke-miterlimit="10" d="M25.1 71.2h7.3V76h-7.3z"/><path d="M9 72.2h1.4V75H9zm9.3 0h1.4V75h-1.4zm-4.7 0H15V75h-1.4z" fill="#007AB7"/><path fill="#027AB7" d="M25.1 62.1h3.6v4.8h-3.6z"/><path fill="#CCEAF9" d="M28.8 62.1h3.6v4.8h-3.6z"/><path fill="none" stroke="#027AB7" stroke-linecap="round" stroke-linejoin="round" stroke-miterlimit="10" d="M25.1 62.1h7.3v4.8h-7.3z"/><path d="M9 63.1h1.4v2.8H9zm9.3 0h1.4v2.8h-1.4zm-4.7 0H15v2.8h-1.4z" fill="#007AB7"/><path fill="#027AB7" d="M25.1 52.8h3.6v4.8h-3.6z"/><path fill="#CCEAF9" d="M28.8 52.8h3.6v4.8h-3.6z"/><path fill="none" stroke="#027AB7" stroke-linecap="round" stroke-linejoin="round" stroke-miterlimit="10" d="M25.1 52.8h7.3v4.8h-7.3z"/><path d="M9 53.9h1.4v2.8H9zm9.3 0h1.4v2.8h-1.4zm-4.7 0H15v2.8h-1.4z" fill="#007AB7"/></g><path fill="none" stroke="#007AB7" stroke-linecap="round" stroke-linejoin="round" stroke-miterlimit="10" d="M3 98.5h133.9"/></svg>