<?xml version="1.0" encoding="utf-8"?>
<!-- Generator: Adobe Illustrator 20.1.0, SVG Export Plug-In . SVG Version: 6.00 Build 0)  -->
<svg version="1.0" id="Layer_1" xmlns="http://www.w3.org/2000/svg" xmlns:xlink="http://www.w3.org/1999/xlink" x="0px" y="0px"
	 width="140px" height="120px" viewBox="0 0 140 120" enable-background="new 0 0 140 120" xml:space="preserve">
<g>
	<g>
		<rect x="21.7" y="39.1" fill="#CCEAF9" width="101" height="59.4"/>
		<g>
			<rect x="21.7" y="34.5" fill="#CCEAF9" width="10.7" height="7.8"/>
			<rect x="55.1" y="11.7" fill="#CCEAF9" width="9.3" height="30.7"/>
			<rect x="43.1" y="23.9" fill="#CCEAF9" width="9.3" height="18.5"/>
			<rect x="30" y="26.8" fill="#CCEAF9" width="9.3" height="15.6"/>
			<rect x="66.9" y="19.4" fill="#CCEAF9" width="9.3" height="23"/>
			<rect x="76.2" y="31.5" fill="#CCEAF9" width="9.3" height="10.9"/>
			<rect x="85.6" y="26.7" fill="#CCEAF9" width="9.3" height="15.7"/>
			<rect x="94.9" y="23.1" fill="#CCEAF9" width="9.3" height="19.3"/>
			<rect x="104.2" y="32.8" fill="#CCEAF9" width="9.3" height="9.6"/>
			<rect x="113.4" y="36.9" fill="#CCEAF9" width="9.3" height="5.4"/>
		</g>
	</g>
	<g>
		
			<ellipse transform="matrix(0.9912 -0.1322 0.1322 0.9912 -1.2444 11.6696)" fill="#CCEAF9" cx="87.3" cy="15.2" rx="3.2" ry="2.1"/>
		<path fill="#CCEAF9" d="M86.9,13.2l9.6-1.4l0,0.6l-5.9,1.3c0,0,0.4,1,0.1,1.6c-0.5,1-1.7,1.5-1.7,1.5L86.9,13.2z"/>
		<g>
			<path fill="#CCEAF9" d="M91.2,16.9c0,0-4.2,1.9-5.8,1.6l0.1,0.4C85.5,18.9,89.2,18.5,91.2,16.9z"/>
			<g>
				<rect x="86.7" y="17" fill="#CCEAF9" width="0.2" height="1.6"/>
			</g>
			<g>
				<polygon fill="#CCEAF9" points="89.6,17.7 89.1,16.5 89.3,16.4 89.8,17.6 				"/>
			</g>
		</g>
		<g>
			<path fill="#CCEAF9" d="M96.4,13.9c-1,0.1-1.8-0.5-2-1.5s0.5-1.8,1.5-2s1.8,0.5,2,1.5C98.1,12.9,97.4,13.7,96.4,13.9z M96,10.5
				c-0.9,0.1-1.5,0.9-1.4,1.8c0.1,0.9,0.9,1.5,1.8,1.4s1.5-0.9,1.4-1.8S96.9,10.4,96,10.5z"/>
		</g>
		<g>
			<path fill="#CCEAF9" d="M81.6,13.5c-1.8,0.1-1.8-0.1-1.8-0.3c-0.2-0.9,6.5-2.1,6.8-2.2c1.8-0.3,3.6-0.6,4.9-0.7
				c2.2-0.2,2.2,0.1,2.2,0.2l0,0c0.2,0.9-6.5,2.1-6.8,2.2c-1.8,0.3-3.6,0.6-4.9,0.7C81.8,13.5,81.7,13.5,81.6,13.5z M92,10.5
				c-1.2,0.1-3.1,0.3-5.4,0.7c-4.2,0.8-6.6,1.7-6.7,2c0.2,0.2,2.8,0.1,7-0.7c4.1-0.8,6.6-1.6,6.7-1.9C93.4,10.5,92.9,10.4,92,10.5z"
				/>
		</g>
		<g>
			
				<rect x="86.8" y="11.9" transform="matrix(0.9604 -0.2786 0.2786 0.9604 -0.1272 24.7199)" fill="#CCEAF9" width="0.2" height="1.9"/>
		</g>
	</g>
</g>
<g>
	<g>
		<rect x="87.5" y="47.9" fill="#E5E5E5" width="13.2" height="50.5"/>
		<g>
			<g>
				<rect x="90.4" y="80.6" fill="#027AB7" width="3.6" height="4.8"/>
				<rect x="94.1" y="80.6" fill="#CCEAF9" width="3.6" height="4.8"/>
				
					<rect x="90.4" y="80.6" fill="none" stroke="#027AB7" stroke-linecap="round" stroke-linejoin="round" stroke-miterlimit="10" width="7.3" height="4.8"/>
			</g>
		</g>
		<g>
			<g>
				<rect x="90.4" y="89.8" fill="#027AB7" width="3.6" height="4.8"/>
				<rect x="94.1" y="89.8" fill="#CCEAF9" width="3.6" height="4.8"/>
				
					<rect x="90.4" y="89.8" fill="none" stroke="#027AB7" stroke-linecap="round" stroke-linejoin="round" stroke-miterlimit="10" width="7.3" height="4.8"/>
			</g>
		</g>
		<rect x="71.8" y="47.7" fill="#FFFFFF" width="15.5" height="50.5"/>
		<g>
			<rect x="75.6" y="91" fill="#CCEAF9" width="4.2" height="7.5"/>
			<rect x="80.8" y="91" fill="#CCEAF9" width="4.1" height="7.5"/>
			<polyline fill="none" stroke="#007AB7" stroke-linecap="round" stroke-linejoin="round" stroke-miterlimit="10" points="
				84.8,98.4 84.8,90 74.6,90 74.6,98.4 			"/>
			
				<line fill="none" stroke="#007AB7" stroke-linecap="round" stroke-linejoin="round" stroke-miterlimit="10" x1="79.7" y1="90.1" x2="79.7" y2="98.5"/>
		</g>
		<g>
			
				<line fill="none" stroke="#007AB7" stroke-linecap="round" stroke-linejoin="round" stroke-miterlimit="10" x1="72.1" y1="48" x2="72.1" y2="98.5"/>
			
				<line fill="none" stroke="#007AB7" stroke-linecap="round" stroke-linejoin="round" stroke-miterlimit="10" x1="87.6" y1="48.1" x2="87.6" y2="98.5"/>
		</g>
		
			<line fill="none" stroke="#007AB7" stroke-linecap="round" stroke-linejoin="round" stroke-miterlimit="10" x1="100.7" y1="48" x2="100.7" y2="98.5"/>
		
			<line fill="none" stroke="#007AB7" stroke-linecap="round" stroke-linejoin="round" stroke-miterlimit="10" x1="72.1" y1="48" x2="100.7" y2="48"/>
		<g>
			
				<rect x="88.7" y="46.2" fill="#CCEAF9" stroke="#007AB7" stroke-linecap="round" stroke-linejoin="round" stroke-miterlimit="10" width="4.9" height="1.7"/>
			
				<rect x="81.1" y="46.2" fill="#CCEAF9" stroke="#007AB7" stroke-linecap="round" stroke-linejoin="round" stroke-miterlimit="10" width="4.9" height="1.7"/>
		</g>
		<g>
			<rect x="74.3" y="81.6" fill="#007AB7" width="1.4" height="2.8"/>
			<rect x="83.6" y="81.6" fill="#007AB7" width="1.4" height="2.8"/>
			<rect x="79" y="81.6" fill="#007AB7" width="1.4" height="2.8"/>
		</g>
		<g>
			<g>
				<g>
					<rect x="90.4" y="71.2" fill="#027AB7" width="3.6" height="4.8"/>
					<rect x="94.1" y="71.2" fill="#CCEAF9" width="3.6" height="4.8"/>
					
						<rect x="90.4" y="71.2" fill="none" stroke="#027AB7" stroke-linecap="round" stroke-linejoin="round" stroke-miterlimit="10" width="7.3" height="4.8"/>
				</g>
			</g>
			<g>
				<rect x="74.3" y="72.2" fill="#007AB7" width="1.4" height="2.8"/>
				<rect x="83.6" y="72.2" fill="#007AB7" width="1.4" height="2.8"/>
				<rect x="79" y="72.2" fill="#007AB7" width="1.4" height="2.8"/>
			</g>
		</g>
		<g>
			<g>
				<g>
					<rect x="90.4" y="62.1" fill="#027AB7" width="3.6" height="4.8"/>
					<rect x="94.1" y="62.1" fill="#CCEAF9" width="3.6" height="4.8"/>
					
						<rect x="90.4" y="62.1" fill="none" stroke="#027AB7" stroke-linecap="round" stroke-linejoin="round" stroke-miterlimit="10" width="7.3" height="4.8"/>
				</g>
			</g>
			<g>
				<rect x="74.3" y="63.1" fill="#007AB7" width="1.4" height="2.8"/>
				<rect x="83.6" y="63.1" fill="#007AB7" width="1.4" height="2.8"/>
				<rect x="79" y="63.1" fill="#007AB7" width="1.4" height="2.8"/>
			</g>
		</g>
		<g>
			<g>
				<g>
					<rect x="90.4" y="52.8" fill="#027AB7" width="3.6" height="4.8"/>
					<rect x="94.1" y="52.8" fill="#CCEAF9" width="3.6" height="4.8"/>
					
						<rect x="90.4" y="52.8" fill="none" stroke="#027AB7" stroke-linecap="round" stroke-linejoin="round" stroke-miterlimit="10" width="7.3" height="4.8"/>
				</g>
			</g>
			<g>
				<rect x="74.3" y="53.9" fill="#007AB7" width="1.4" height="2.8"/>
				<rect x="83.6" y="53.9" fill="#007AB7" width="1.4" height="2.8"/>
				<rect x="79" y="53.9" fill="#007AB7" width="1.4" height="2.8"/>
			</g>
		</g>
	</g>
	<g>
		<rect x="120.1" y="47.9" fill="#E5E5E5" width="13.2" height="50.5"/>
		<g>
			<g>
				<rect x="123.1" y="80.6" fill="#027AB7" width="3.6" height="4.8"/>
				<rect x="126.8" y="80.6" fill="#CCEAF9" width="3.6" height="4.8"/>
				
					<rect x="123.1" y="80.6" fill="none" stroke="#027AB7" stroke-linecap="round" stroke-linejoin="round" stroke-miterlimit="10" width="7.3" height="4.8"/>
			</g>
		</g>
		<g>
			<g>
				<rect x="123.1" y="89.8" fill="#027AB7" width="3.6" height="4.8"/>
				<rect x="126.8" y="89.8" fill="#CCEAF9" width="3.6" height="4.8"/>
				
					<rect x="123.1" y="89.8" fill="none" stroke="#027AB7" stroke-linecap="round" stroke-linejoin="round" stroke-miterlimit="10" width="7.3" height="4.8"/>
			</g>
		</g>
		<rect x="104.5" y="47.7" fill="#FFFFFF" width="15.5" height="50.5"/>
		<g>
			<rect x="108.3" y="91" fill="#CCEAF9" width="4.2" height="7.5"/>
			<rect x="113.5" y="91" fill="#CCEAF9" width="4.1" height="7.5"/>
			<polyline fill="none" stroke="#007AB7" stroke-linecap="round" stroke-linejoin="round" stroke-miterlimit="10" points="
				117.5,98.4 117.5,90 107.2,90 107.2,98.4 			"/>
			
				<line fill="none" stroke="#007AB7" stroke-linecap="round" stroke-linejoin="round" stroke-miterlimit="10" x1="112.4" y1="90.1" x2="112.4" y2="98.5"/>
		</g>
		<g>
			
				<line fill="none" stroke="#007AB7" stroke-linecap="round" stroke-linejoin="round" stroke-miterlimit="10" x1="104.7" y1="48" x2="104.7" y2="98.5"/>
			
				<line fill="none" stroke="#007AB7" stroke-linecap="round" stroke-linejoin="round" stroke-miterlimit="10" x1="120.2" y1="48.1" x2="120.2" y2="98.5"/>
		</g>
		
			<line fill="none" stroke="#007AB7" stroke-linecap="round" stroke-linejoin="round" stroke-miterlimit="10" x1="133.3" y1="48" x2="133.3" y2="98.5"/>
		
			<line fill="none" stroke="#007AB7" stroke-linecap="round" stroke-linejoin="round" stroke-miterlimit="10" x1="104.7" y1="48" x2="133.3" y2="48"/>
		<g>
			
				<rect x="121.4" y="46.2" fill="#CCEAF9" stroke="#007AB7" stroke-linecap="round" stroke-linejoin="round" stroke-miterlimit="10" width="4.9" height="1.7"/>
			
				<rect x="113.8" y="46.2" fill="#CCEAF9" stroke="#007AB7" stroke-linecap="round" stroke-linejoin="round" stroke-miterlimit="10" width="4.9" height="1.7"/>
		</g>
		<g>
			<rect x="107" y="81.6" fill="#007AB7" width="1.4" height="2.8"/>
			<rect x="116.3" y="81.6" fill="#007AB7" width="1.4" height="2.8"/>
			<rect x="111.6" y="81.6" fill="#007AB7" width="1.4" height="2.8"/>
		</g>
		<g>
			<g>
				<g>
					<rect x="123.1" y="71.2" fill="#027AB7" width="3.6" height="4.8"/>
					<rect x="126.8" y="71.2" fill="#CCEAF9" width="3.6" height="4.8"/>
					
						<rect x="123.1" y="71.2" fill="none" stroke="#027AB7" stroke-linecap="round" stroke-linejoin="round" stroke-miterlimit="10" width="7.3" height="4.8"/>
				</g>
			</g>
			<g>
				<rect x="107" y="72.2" fill="#007AB7" width="1.4" height="2.8"/>
				<rect x="116.3" y="72.2" fill="#007AB7" width="1.4" height="2.8"/>
				<rect x="111.6" y="72.2" fill="#007AB7" width="1.4" height="2.8"/>
			</g>
		</g>
		<g>
			<g>
				<g>
					<rect x="123.1" y="62.1" fill="#027AB7" width="3.6" height="4.8"/>
					<rect x="126.8" y="62.1" fill="#CCEAF9" width="3.6" height="4.8"/>
					
						<rect x="123.1" y="62.1" fill="none" stroke="#027AB7" stroke-linecap="round" stroke-linejoin="round" stroke-miterlimit="10" width="7.3" height="4.8"/>
				</g>
			</g>
			<g>
				<rect x="107" y="63.1" fill="#007AB7" width="1.4" height="2.8"/>
				<rect x="116.3" y="63.1" fill="#007AB7" width="1.4" height="2.8"/>
				<rect x="111.6" y="63.1" fill="#007AB7" width="1.4" height="2.8"/>
			</g>
		</g>
		<g>
			<g>
				<g>
					<rect x="123.1" y="52.8" fill="#027AB7" width="3.6" height="4.8"/>
					<rect x="126.8" y="52.8" fill="#CCEAF9" width="3.6" height="4.8"/>
					
						<rect x="123.1" y="52.8" fill="none" stroke="#027AB7" stroke-linecap="round" stroke-linejoin="round" stroke-miterlimit="10" width="7.3" height="4.8"/>
				</g>
			</g>
			<g>
				<rect x="107" y="53.9" fill="#007AB7" width="1.4" height="2.8"/>
				<rect x="116.3" y="53.9" fill="#007AB7" width="1.4" height="2.8"/>
				<rect x="111.6" y="53.9" fill="#007AB7" width="1.4" height="2.8"/>
			</g>
		</g>
	</g>
	<g>
		<rect x="54.8" y="47.9" fill="#E5E5E5" width="13.2" height="50.5"/>
		<g>
			<g>
				<rect x="57.8" y="80.6" fill="#027AB7" width="3.6" height="4.8"/>
				<rect x="61.4" y="80.6" fill="#CCEAF9" width="3.6" height="4.8"/>
				
					<rect x="57.8" y="80.6" fill="none" stroke="#027AB7" stroke-linecap="round" stroke-linejoin="round" stroke-miterlimit="10" width="7.3" height="4.8"/>
			</g>
		</g>
		<g>
			<g>
				<rect x="57.8" y="89.8" fill="#027AB7" width="3.6" height="4.8"/>
				<rect x="61.4" y="89.8" fill="#CCEAF9" width="3.6" height="4.8"/>
				
					<rect x="57.8" y="89.8" fill="none" stroke="#027AB7" stroke-linecap="round" stroke-linejoin="round" stroke-miterlimit="10" width="7.3" height="4.8"/>
			</g>
		</g>
		<rect x="39.2" y="47.7" fill="#FFFFFF" width="15.5" height="50.5"/>
		<g>
			<rect x="43" y="91" fill="#CCEAF9" width="4.2" height="7.5"/>
			<rect x="48.1" y="91" fill="#CCEAF9" width="4.1" height="7.5"/>
			<polyline fill="none" stroke="#007AB7" stroke-linecap="round" stroke-linejoin="round" stroke-miterlimit="10" points="
				52.2,98.4 52.2,90 41.9,90 41.9,98.4 			"/>
			
				<line fill="none" stroke="#007AB7" stroke-linecap="round" stroke-linejoin="round" stroke-miterlimit="10" x1="47" y1="90.1" x2="47" y2="98.5"/>
		</g>
		<g>
			
				<line fill="none" stroke="#007AB7" stroke-linecap="round" stroke-linejoin="round" stroke-miterlimit="10" x1="39.4" y1="48" x2="39.4" y2="98.5"/>
			
				<line fill="none" stroke="#007AB7" stroke-linecap="round" stroke-linejoin="round" stroke-miterlimit="10" x1="54.9" y1="48.1" x2="54.9" y2="98.5"/>
		</g>
		
			<line fill="none" stroke="#007AB7" stroke-linecap="round" stroke-linejoin="round" stroke-miterlimit="10" x1="68" y1="48" x2="68" y2="98.5"/>
		
			<line fill="none" stroke="#007AB7" stroke-linecap="round" stroke-linejoin="round" stroke-miterlimit="10" x1="39.4" y1="48" x2="68" y2="48"/>
		<g>
			
				<rect x="56.1" y="46.2" fill="#CCEAF9" stroke="#007AB7" stroke-linecap="round" stroke-linejoin="round" stroke-miterlimit="10" width="4.9" height="1.7"/>
			
				<rect x="48.4" y="46.2" fill="#CCEAF9" stroke="#007AB7" stroke-linecap="round" stroke-linejoin="round" stroke-miterlimit="10" width="4.9" height="1.7"/>
		</g>
		<g>
			<rect x="41.7" y="81.6" fill="#007AB7" width="1.4" height="2.8"/>
			<rect x="51" y="81.6" fill="#007AB7" width="1.4" height="2.8"/>
			<rect x="46.3" y="81.6" fill="#007AB7" width="1.4" height="2.8"/>
		</g>
		<g>
			<g>
				<g>
					<rect x="57.8" y="71.2" fill="#027AB7" width="3.6" height="4.8"/>
					<rect x="61.4" y="71.2" fill="#CCEAF9" width="3.6" height="4.8"/>
					
						<rect x="57.8" y="71.2" fill="none" stroke="#027AB7" stroke-linecap="round" stroke-linejoin="round" stroke-miterlimit="10" width="7.3" height="4.8"/>
				</g>
			</g>
			<g>
				<rect x="41.7" y="72.2" fill="#007AB7" width="1.4" height="2.8"/>
				<rect x="51" y="72.2" fill="#007AB7" width="1.4" height="2.8"/>
				<rect x="46.3" y="72.2" fill="#007AB7" width="1.4" height="2.8"/>
			</g>
		</g>
		<g>
			<g>
				<g>
					<rect x="57.8" y="62.1" fill="#027AB7" width="3.6" height="4.8"/>
					<rect x="61.4" y="62.1" fill="#CCEAF9" width="3.6" height="4.8"/>
					
						<rect x="57.8" y="62.1" fill="none" stroke="#027AB7" stroke-linecap="round" stroke-linejoin="round" stroke-miterlimit="10" width="7.3" height="4.8"/>
				</g>
			</g>
			<g>
				<rect x="41.7" y="63.1" fill="#007AB7" width="1.4" height="2.8"/>
				<rect x="51" y="63.1" fill="#007AB7" width="1.4" height="2.8"/>
				<rect x="46.3" y="63.1" fill="#007AB7" width="1.4" height="2.8"/>
			</g>
		</g>
		<g>
			<g>
				<g>
					<rect x="57.8" y="52.8" fill="#027AB7" width="3.6" height="4.8"/>
					<rect x="61.4" y="52.8" fill="#CCEAF9" width="3.6" height="4.8"/>
					
						<rect x="57.8" y="52.8" fill="none" stroke="#027AB7" stroke-linecap="round" stroke-linejoin="round" stroke-miterlimit="10" width="7.3" height="4.8"/>
				</g>
			</g>
			<g>
				<rect x="41.7" y="53.9" fill="#007AB7" width="1.4" height="2.8"/>
				<rect x="51" y="53.9" fill="#007AB7" width="1.4" height="2.8"/>
				<rect x="46.3" y="53.9" fill="#007AB7" width="1.4" height="2.8"/>
			</g>
		</g>
	</g>
	<g>
		<rect x="22.2" y="47.9" fill="#E5E5E5" width="13.2" height="50.5"/>
		<g>
			<g>
				<rect x="25.1" y="80.6" fill="#027AB7" width="3.6" height="4.8"/>
				<rect x="28.8" y="80.6" fill="#CCEAF9" width="3.6" height="4.8"/>
				
					<rect x="25.1" y="80.6" fill="none" stroke="#027AB7" stroke-linecap="round" stroke-linejoin="round" stroke-miterlimit="10" width="7.3" height="4.8"/>
			</g>
		</g>
		<g>
			<g>
				<rect x="25.1" y="89.8" fill="#027AB7" width="3.6" height="4.8"/>
				<rect x="28.8" y="89.8" fill="#CCEAF9" width="3.6" height="4.8"/>
				
					<rect x="25.1" y="89.8" fill="none" stroke="#027AB7" stroke-linecap="round" stroke-linejoin="round" stroke-miterlimit="10" width="7.3" height="4.8"/>
			</g>
		</g>
		<rect x="6.5" y="47.7" fill="#FFFFFF" width="15.5" height="50.5"/>
		<g>
			<rect x="10.3" y="91" fill="#CCEAF9" width="4.2" height="7.5"/>
			<rect x="15.5" y="91" fill="#CCEAF9" width="4.1" height="7.5"/>
			<polyline fill="none" stroke="#007AB7" stroke-linecap="round" stroke-linejoin="round" stroke-miterlimit="10" points="
				19.5,98.4 19.5,90 9.3,90 9.3,98.4 			"/>
			
				<line fill="none" stroke="#007AB7" stroke-linecap="round" stroke-linejoin="round" stroke-miterlimit="10" x1="14.4" y1="90.1" x2="14.4" y2="98.5"/>
		</g>
		<g>
			
				<line fill="none" stroke="#007AB7" stroke-linecap="round" stroke-linejoin="round" stroke-miterlimit="10" x1="6.7" y1="48" x2="6.7" y2="98.5"/>
			
				<line fill="none" stroke="#007AB7" stroke-linecap="round" stroke-linejoin="round" stroke-miterlimit="10" x1="22.2" y1="48.1" x2="22.2" y2="98.5"/>
		</g>
		
			<line fill="none" stroke="#007AB7" stroke-linecap="round" stroke-linejoin="round" stroke-miterlimit="10" x1="35.4" y1="48" x2="35.4" y2="98.5"/>
		
			<line fill="none" stroke="#007AB7" stroke-linecap="round" stroke-linejoin="round" stroke-miterlimit="10" x1="6.8" y1="48" x2="35.3" y2="48"/>
		<g>
			
				<rect x="23.4" y="46.2" fill="#CCEAF9" stroke="#007AB7" stroke-linecap="round" stroke-linejoin="round" stroke-miterlimit="10" width="4.9" height="1.7"/>
			
				<rect x="15.8" y="46.2" fill="#CCEAF9" stroke="#007AB7" stroke-linecap="round" stroke-linejoin="round" stroke-miterlimit="10" width="4.9" height="1.7"/>
		</g>
		<g>
			<rect x="9" y="81.6" fill="#007AB7" width="1.4" height="2.8"/>
			<rect x="18.3" y="81.6" fill="#007AB7" width="1.4" height="2.8"/>
			<rect x="13.6" y="81.6" fill="#007AB7" width="1.4" height="2.8"/>
		</g>
		<g>
			<g>
				<g>
					<rect x="25.1" y="71.2" fill="#027AB7" width="3.6" height="4.8"/>
					<rect x="28.8" y="71.2" fill="#CCEAF9" width="3.6" height="4.8"/>
					
						<rect x="25.1" y="71.2" fill="none" stroke="#027AB7" stroke-linecap="round" stroke-linejoin="round" stroke-miterlimit="10" width="7.3" height="4.8"/>
				</g>
			</g>
			<g>
				<rect x="9" y="72.2" fill="#007AB7" width="1.4" height="2.8"/>
				<rect x="18.3" y="72.2" fill="#007AB7" width="1.4" height="2.8"/>
				<rect x="13.6" y="72.2" fill="#007AB7" width="1.4" height="2.8"/>
			</g>
		</g>
		<g>
			<g>
				<g>
					<rect x="25.1" y="62.1" fill="#027AB7" width="3.6" height="4.8"/>
					<rect x="28.8" y="62.1" fill="#CCEAF9" width="3.6" height="4.8"/>
					
						<rect x="25.1" y="62.1" fill="none" stroke="#027AB7" stroke-linecap="round" stroke-linejoin="round" stroke-miterlimit="10" width="7.3" height="4.8"/>
				</g>
			</g>
			<g>
				<rect x="9" y="63.1" fill="#007AB7" width="1.4" height="2.8"/>
				<rect x="18.3" y="63.1" fill="#007AB7" width="1.4" height="2.8"/>
				<rect x="13.6" y="63.1" fill="#007AB7" width="1.4" height="2.8"/>
			</g>
		</g>
		<g>
			<g>
				<g>
					<rect x="25.1" y="52.8" fill="#027AB7" width="3.6" height="4.8"/>
					<rect x="28.8" y="52.8" fill="#CCEAF9" width="3.6" height="4.8"/>
					
						<rect x="25.1" y="52.8" fill="none" stroke="#027AB7" stroke-linecap="round" stroke-linejoin="round" stroke-miterlimit="10" width="7.3" height="4.8"/>
				</g>
			</g>
			<g>
				<rect x="9" y="53.9" fill="#007AB7" width="1.4" height="2.8"/>
				<rect x="18.3" y="53.9" fill="#007AB7" width="1.4" height="2.8"/>
				<rect x="13.6" y="53.9" fill="#007AB7" width="1.4" height="2.8"/>
			</g>
		</g>
	</g>
</g>
<line fill="none" stroke="#007AB7" stroke-linecap="round" stroke-linejoin="round" stroke-miterlimit="10" x1="3" y1="98.5" x2="136.9" y2="98.5"/>
</svg>
