<svg id="Layer_1" data-name="Layer 1" xmlns="http://www.w3.org/2000/svg" xmlns:xlink="http://www.w3.org/1999/xlink" viewBox="0 0 173.68 279.81"><defs><style>.cls-1{fill:#fedf69;}.cls-1,.cls-2{stroke:#ffcc06;stroke-miterlimit:10;stroke-width:2px;}.cls-2{fill:#fff;}.cls-3{fill:#cce9f9;}</style><symbol id="Pointer" data-name="Pointer" viewBox="0 0 33.96 46.85"><path class="cls-1" d="M17,1A16,16,0,0,0,2.65,24L17,45.07,31.3,24A16,16,0,0,0,17,1"/><circle class="cls-2" cx="16.98" cy="16.52" r="6.8"/></symbol></defs><title>ticino_map</title><g id="layer5"><path id="TI" class="cls-3" d="M65.39,34.93l-1.51,2.63-3,2.54-4.33.28-1.13-1.69-2.63-1.13-7.43-.75L43.28,35.3l-4.33-1-5.27,1L30.4,38.5,29,41.89l.66,4.23-.28,2.54-1.22,1.5-5,1.65L19.37,52,17.79,55.4l-3.66,3.35-.94,2.65-1.25,2.26-1.56.47-3-.31H3.45l-2-.55.23,4.29-.08,2.88L0,76.77l6.15-3L11.22,73l4.23,1.48,3.38,6.35.42,2.75L18.83,89v12.48l.63,7.19-.85,5.5-2.75,5.29-3,3.6L12.07,128l3.6,4.86,1.27,3.81-.42,2.11.85,3,4.65,4,5.92,3.38,5.92,3.17,3.38,5.07,5.71,8.46L46.33,169l.42,3.81L51,177.24l1.94,4,2.39.3,3,.6L60.39,184l2.84,1.65,3.89.45,2.24,1.65,1.71.81L74,189.8l5.68-4.93,3.47,2.39,3.11,1.65,3,2.54,1.65-.9,2.24-1.94,1-1.2,1.49.45,5.09,5.23,3.59,4.34,2.09,3,.3,3.14-1.94,2.09-1.65,1.2-.79.2-.21,1.59-.53,3.6L100,213.61l-4,2.54-2.54,2.22-1,2.64,1.27,2.75h1.38l2.75.42,3.7,1.37,2.43,2.64,3.07,2.64,2.43,2.64,2.17.5,2.27,1.3.42,2.86.42,5.39,2.75,3.91,1.68,2.21,1.28,1.59v2.11l1.69,4.44,3,4.86-.42,2.75L122,268l-2.54,4v2.11l1.48.21,2.54-2.54,3.38.21,2.54,2.54,3,.64,3.17-.21,1.9.85.42,3.17,2.75.85,3.81-1.9.85-5.08.63-3,1.69-3.6,1.06-4.23,3.17-2.11L154,257.6l.85-3L154,254s-2.33-3-3.17-4a16.75,16.75,0,0,0-3.38-2.54H143l-2.11-1.69-.63-2.33.42-3.17-1.48-2.54-1.69-2.11-1.27-3.6-.42-1.69,1.48-1.9,1.9-1.9,2.33-.63.05-2.17-.26-5.23-1.06-1.27L139,214.67l.21-4.23,1.69-4.44,2.33-1.48,4-1.48,4.23-1.48,1.9-1.27,1.48-2.33.85-3.17-.21-3.38-1.69-3.6-.63-2.54,1.48-3.6,6.13-2.54,4.23-4,2.54-2.54,1.9-.85,2.12-3.6,2.15-1-3.88-3.7-4.14-5.83-3.57-3.39-4.89-3.57-.75-3.76.75-5.08-1.88-5.08-3-5.08L151,128.06l1.69-3,1.69-4.89-.19-5.27,1.13-3,2.26-1.88,2.07-3.39-1.13-5.83.19-4.33,1.51-4,.56-3-2.82-3.39-.75-3.39L159.07,79l.47-5.27L156.25,70l-3.48-1.13-2.16-.19-3.29-3.29-2.45-3.67-2.73-6.21-.38-5,.85-7.24,2.16-1.6,3-3.2-.56-2.07-1-.56-3.86-.94-3.1-4L137.35,29l-4.51,1.32-3.76-.38-.56-2.35-.38-3.2-.47-4.7-.56-3.2-.66.75-1.69,1.22-5.93.47-3.29,2.63L114.39,24l2,4,.85,1.69-.1,2.63-2.54,2.44-2.73,1.88-2.73,1.22-3.86.66-3.86,1h-2l-1.51-.85-3.76,2.82L90.78,41l-3.29-1.88-2.26-1.22-4.61-.85L77,37.85l-3.61-.16-4.12-1.86-3.92-.89Zm66.17,193.8,1.06,1.06,1.06-.21.85-1.06.85-1.27-.21-1.59-.85-.32L132.62,227l-1.06,1.69Z"/></g><use width="33.96" height="46.85" transform="translate(93.64 167.94)" xlink:href="#Pointer"/><use width="33.96" height="46.85" transform="translate(129.24 141.42)" xlink:href="#Pointer"/><use id="Pointer-7" data-name="Pointer" width="33.96" height="46.85" transform="translate(93.64 115.29)" xlink:href="#Pointer"/><use id="Pointer-10" data-name="Pointer" width="33.96" height="46.85" transform="translate(53.88 127.61)" xlink:href="#Pointer"/><use width="33.96" height="46.85" transform="translate(27.7 71.44)" xlink:href="#Pointer"/><use width="33.96" height="46.85" transform="translate(126.6 70.44)" xlink:href="#Pointer"/><use width="33.96" height="46.85" transform="translate(116.42)" xlink:href="#Pointer"/><use width="33.96" height="46.85" transform="translate(74.53 39.5)" xlink:href="#Pointer"/><use width="33.96" height="46.85" transform="translate(4.92 8.14)" xlink:href="#Pointer"/><use width="33.96" height="46.85" transform="translate(125.19 217.91)" xlink:href="#Pointer"/></svg>